<svg xmlns="http://www.w3.org/2000/svg" width="32" height="32" viewBox="0 0 32 32"><path d="M27.776 6.823 16.78 2.155a2.02 2.02 0 0 0-1.546 0L4.231 6.822A1.995 1.995 0 0 0 3 8.667v14.667a1.993 1.993 0 0 0 1.225 1.843l11.016 4.669a2.033 2.033 0 0 0 1.545-.002l10.984-4.666A1.994 1.994 0 0 0 29 23.333V8.666a1.992 1.992 0 0 0-1.224-1.843ZM16.003 3.998l9.402 3.99-9.425 3.929-9.397-3.922 9.42-3.997ZM5.006 9.504 15 13.675v13.896L5 23.334l.006-13.83Zm21.987 13.832L17 27.584V13.658l10-4.167v13.842l-.007.003Z"/></svg>