<svg xmlns="http://www.w3.org/2000/svg" width="32" height="32" viewBox="0 0 32 32"><path d="M27.58 7.283 16.587 2.615a1.517 1.517 0 0 0-1.157.001L4.424 7.282A1.496 1.496 0 0 0 3.5 8.667v14.667a1.495 1.495 0 0 0 .92 1.383l11.014 4.668a1.507 1.507 0 0 0 1.157-.002l10.986-4.666a1.495 1.495 0 0 0 .923-1.384V8.666a1.496 1.496 0 0 0-.92-1.383ZM15.817 3.538a.504.504 0 0 1 .382 0l10.496 4.455-10.522 4.385a.494.494 0 0 1-.385 0L5.295 8l10.52-4.46ZM4.806 23.795a.499.499 0 0 1-.307-.461V8.75l10.901 4.55c.032.013.066.019.099.03v14.996L4.807 23.795Zm22.385 0h-.003L16.5 28.336V13.319c.018-.006.038-.009.056-.016L27.5 8.74v14.592a.498.498 0 0 1-.308.461Z"/></svg>