<svg xmlns="http://www.w3.org/2000/svg" width="32" height="32" viewBox="0 0 32 32"><path d="M11 29a5.01 5.01 0 0 1-5-5.008l.001-12.996A2 2 0 0 1 7.996 9h3.76a4.503 4.503 0 1 1 8.656-2.401c.159.802.1 1.631-.17 2.402H24a2 2 0 0 1 2 1.998v4.54a1.514 1.514 0 0 1-1.498 1.509c-.26 0-.513-.071-.736-.204a2.56 2.56 0 0 0-3.223.6 2.504 2.504 0 0 0 .204 3.351c.334.326.754.551 1.21.649a2.5 2.5 0 0 0 1.802-.284A1.491 1.491 0 0 1 26 22.453L26.002 27a1.996 1.996 0 0 1-1.998 1.998h-.007zM8 11v12.992A3.01 3.01 0 0 0 11 27l13-.002v-3.756a4.56 4.56 0 0 1-2.446.16 4.5 4.5 0 0 1-3.385-5.626 4.503 4.503 0 0 1 5.83-3.02v-3.758L19.46 11a1.51 1.51 0 0 1-1.303-.755 1.49 1.49 0 0 1 .005-1.486 2.51 2.51 0 0 0-.357-3.002 2.5 2.5 0 0 0-1.202-.688 2.504 2.504 0 0 0-2.759 3.696 1.45 1.45 0 0 1 .006 1.473 1.51 1.51 0 0 1-1.31.761z"/></svg>