<svg xmlns="http://www.w3.org/2000/svg" width="32" height="32" viewBox="0 0 32 32"><path d="M25.584 10.177a2.7 2.7 0 0 0-2.131-.656l-4.197.568a4.501 4.501 0 1 0-6.514-.002l-4.194-.565a2.71 2.71 0 0 0-.76 5.368l4.537.534-3.612 10.518a2.49 2.49 0 0 0 .185 2.382 2.56 2.56 0 0 0 2.161 1.178 2.35 2.35 0 0 0 2.246-1.441L16 21.088l2.697 6.99a2.32 2.32 0 0 0 2.24 1.424 2.57 2.57 0 0 0 2.161-1.185 2.46 2.46 0 0 0 .2-2.332l-3.623-10.561 4.563-.535a2.714 2.714 0 0 0 1.347-4.712M16 3.5a3.5 3.5 0 1 1 0 7 3.5 3.5 0 0 1 0-7m8.096 10.398-5.155.605a.502.502 0 0 0-.414.659l3.843 11.192a1.47 1.47 0 0 1-.114 1.421 1.57 1.57 0 0 1-1.322.727 1.33 1.33 0 0 1-1.312-.802l-3.155-8.18a.504.504 0 0 0-.647-.288.5.5 0 0 0-.281.28l-.006.006-3.149 8.154a1.33 1.33 0 0 1-1.325.83 1.57 1.57 0 0 1-1.562-1.444 1.5 1.5 0 0 1 .144-.748l3.831-11.148a.5.5 0 0 0-.414-.658L7.93 13.9a1.712 1.712 0 0 1 .49-3.386l6.717.903q.43.063.864.083c.252 0 .781-.067.805-.071l6.778-.916a1.7 1.7 0 0 1 1.339.414 1.72 1.72 0 0 1 .58 1.288 1.7 1.7 0 0 1-1.406 1.683"/></svg>