<svg xmlns="http://www.w3.org/2000/svg" width="32" height="32" viewBox="0 0 32 32"><path d="M25.914 9.803a3.22 3.22 0 0 0-2.528-.778l-3.047.412A4.94 4.94 0 0 0 21 7a5 5 0 0 0-10 0c.006.856.234 1.696.662 2.437l-3.053-.41a3.21 3.21 0 0 0-.88 6.36l3.923.461-3.394 9.888a2.99 2.99 0 0 0 .22 2.858 3.06 3.06 0 0 0 2.58 1.408 2.83 2.83 0 0 0 2.714-1.762L16 22.475l2.237 5.801a2.84 2.84 0 0 0 2.698 1.726 3.07 3.07 0 0 0 2.583-1.414 2.93 2.93 0 0 0 .253-2.765l-3.422-9.975 3.97-.466a3.213 3.213 0 0 0 1.595-5.58M16 4a3 3 0 1 1 0 6 3 3 0 0 1 0-6m8.04 9.402-5.156.605a1 1 0 0 0-.83 1.317l3.86 11.236a.98.98 0 0 1-.078.945 1.07 1.07 0 0 1-.902.497.82.82 0 0 1-.847-.482l-3.154-8.18a.994.994 0 0 0-1.855-.011q-.005.004-.01.01l-3.138 8.124a.84.84 0 0 1-.871.539 1.07 1.07 0 0 1-.901-.492 1.04 1.04 0 0 1-.043-1.038l3.83-11.147a.998.998 0 0 0-.828-1.318l-5.106-.6a1.21 1.21 0 0 1 .341-2.396l6.718.902q.463.067.93.087c.26 0 .833-.07.872-.075l6.772-.916a1.19 1.19 0 0 1 .946.293 1.215 1.215 0 0 1-.55 2.1"/></svg>