<svg xmlns="http://www.w3.org/2000/svg" width="32" height="32" viewBox="0 0 32 32"><path d="M11 28.5a4.51 4.51 0 0 1-4.5-4.508l.001-12.995A1.5 1.5 0 0 1 7.997 9.5h4.543a4 4 0 1 1 6.916.017L24 9.5a1.5 1.5 0 0 1 1.5 1.498v4.54a1.011 1.011 0 0 1-.995 1.008.954.954 0 0 1-.485-.133 3.067 3.067 0 0 0-3.867.718 3.034 3.034 0 0 0-.571 2.581 3 3 0 0 0 4.43 1.88.98.98 0 0 1 .988-.005.997.997 0 0 1 .5.865L25.502 27a1.494 1.494 0 0 1-1.498 1.498H24L11 28.5Zm-.153-18H7.999a.499.499 0 0 0-.498.497L7.5 23.992A3.509 3.509 0 0 0 11 27.5l13-.002a.443.443 0 0 0 .357-.144.494.494 0 0 0 .145-.353l-.002-4.537a4.046 4.046 0 0 1-2.844.448 4.003 4.003 0 0 1-1.93-6.794 4 4 0 0 1 4.802-.567l-.028-4.553a.5.5 0 0 0-.5-.498h-4.54a1.005 1.005 0 0 1-1.003-.997c0-.173.047-.343.135-.492a3 3 0 1 0-5.18.008.957.957 0 0 1 .003.97 1.012 1.012 0 0 1-.875.51h-1.693Z"/></svg>