<svg xmlns="http://www.w3.org/2000/svg" width="32" height="32" viewBox="0 0 32 32"><path d="M11 28.5a4.51 4.51 0 0 1-4.5-4.508l.001-12.994a1.5 1.5 0 0 1 1.496-1.499h4.543a4 4 0 1 1 6.916.017L24 9.5a1.5 1.5 0 0 1 1.5 1.498v4.54a1.01 1.01 0 0 1-.995 1.008.95.95 0 0 1-.485-.133 3.07 3.07 0 0 0-3.867.718 3.03 3.03 0 0 0-.571 2.581 3 3 0 0 0 4.43 1.88.98.98 0 0 1 .988-.005 1 1 0 0 1 .5.865L25.502 27a1.494 1.494 0 0 1-1.498 1.498H24zm-.153-18H7.999a.5.5 0 0 0-.498.497L7.5 23.992A3.51 3.51 0 0 0 11 27.5l13-.002a.44.44 0 0 0 .357-.144.5.5 0 0 0 .145-.353l-.002-4.537a4.05 4.05 0 0 1-2.844.448 4.003 4.003 0 0 1-1.93-6.794 4 4 0 0 1 4.802-.567l-.028-4.553a.5.5 0 0 0-.5-.498h-4.54a1.005 1.005 0 0 1-1.003-.997c0-.173.047-.343.135-.492a3 3 0 1 0-5.18.008.96.96 0 0 1 .003.97 1.01 1.01 0 0 1-.875.51z"/></svg>