<svg xmlns="http://www.w3.org/2000/svg" width="32" height="32" viewBox="0 0 32 32"><path d="M11 28.75a4.76 4.76 0 0 1-4.75-4.758l.001-12.996A1.75 1.75 0 0 1 7.997 9.25h4.129a4.251 4.251 0 1 1 8.04-2.603 4.32 4.32 0 0 1-.293 2.604H24a1.75 1.75 0 0 1 1.75 1.748v4.54a1.263 1.263 0 0 1-1.247 1.258c-.215 0-.425-.058-.61-.168a2.81 2.81 0 0 0-3.545.659 2.75 2.75 0 0 0 3.537 4.088 1.23 1.23 0 0 1 1.24-.005 1.25 1.25 0 0 1 .625 1.082L25.752 27a1.74 1.74 0 0 1-1.747 1.748h-.007zm-3-18a.247.247 0 0 0-.249.248L7.75 23.992A3.26 3.26 0 0 0 11 27.25l13-.002h.002a.244.244 0 0 0 .25-.247l-.002-4.129a4.249 4.249 0 0 1-5.075-6.52 4.25 4.25 0 0 1 5.075-1.227v-4.127a.25.25 0 0 0-.25-.248h-4.54a1.257 1.257 0 0 1-1.254-1.248c.001-.217.06-.43.17-.617a2.75 2.75 0 1 0-4.748.007 1.2 1.2 0 0 1 .004 1.222 1.26 1.26 0 0 1-1.092.635z"/></svg>