<svg xmlns="http://www.w3.org/2000/svg" width="32" height="32" viewBox="0 0 32 32"><path d="M25.584 10.177a2.703 2.703 0 0 0-2.131-.656l-4.197.568a4.501 4.501 0 1 0-6.514-.002l-4.194-.565a2.71 2.71 0 0 0-.76 5.368l4.537.534-3.612 10.518a2.489 2.489 0 0 0 .185 2.382 2.564 2.564 0 0 0 2.161 1.178 2.346 2.346 0 0 0 2.246-1.441L16 21.088l2.697 6.99a2.324 2.324 0 0 0 2.24 1.424 2.568 2.568 0 0 0 2.161-1.185 2.456 2.456 0 0 0 .2-2.332l-3.623-10.561 4.563-.535a2.714 2.714 0 0 0 1.347-4.712ZM16 3.5a3.5 3.5 0 1 1 0 7 3.5 3.5 0 0 1 0-7Zm8.096 10.398-5.155.605a.502.502 0 0 0-.414.659l3.843 11.191a1.469 1.469 0 0 1-.114 1.422 1.572 1.572 0 0 1-1.322.727 1.334 1.334 0 0 1-1.312-.802l-3.155-8.18a.504.504 0 0 0-.647-.288.495.495 0 0 0-.281.28l-.006.006-3.149 8.154a1.334 1.334 0 0 1-1.325.83 1.568 1.568 0 0 1-1.562-1.444 1.503 1.503 0 0 1 .144-.748l3.831-11.148a.5.5 0 0 0-.414-.658L7.93 13.9a1.712 1.712 0 0 1 .49-3.386l6.717.903c.287.042.575.07.864.083.252 0 .781-.067.805-.071l6.778-.916a1.697 1.697 0 0 1 1.339.414 1.717 1.717 0 0 1 .58 1.288 1.7 1.7 0 0 1-1.406 1.683Z"/></svg>