<svg xmlns="http://www.w3.org/2000/svg" width="32" height="32" viewBox="0 0 32 32"><path d="M25.749 9.99a2.95 2.95 0 0 0-2.33-.717l-3.565.483a4.75 4.75 0 1 0-7.71-.002l-3.566-.48a2.96 2.96 0 0 0-.818 5.865l4.228.497L8.485 25.84a2.74 2.74 0 0 0 .203 2.62 2.81 2.81 0 0 0 2.371 1.292 2.59 2.59 0 0 0 2.479-1.602l2.461-6.369 2.467 6.396a2.56 2.56 0 0 0 2.47 1.575 2.82 2.82 0 0 0 2.371-1.3 2.69 2.69 0 0 0 .227-2.548l-3.522-10.267 4.266-.501a2.963 2.963 0 0 0 1.47-5.147m-9.75-6.24a3.25 3.25 0 1 1 0 6.5 3.25 3.25 0 0 1 0-6.5m8.07 9.9-5.156.605a.75.75 0 0 0-.622.988l3.85 11.214a1.22 1.22 0 0 1-.094 1.184 1.33 1.33 0 0 1-1.113.61 1.07 1.07 0 0 1-1.079-.64L16.7 19.43a.753.753 0 0 0-.97-.431.74.74 0 0 0-.422.422l-.008.008-3.143 8.138a1.08 1.08 0 0 1-1.098.685 1.32 1.32 0 0 1-1.111-.607 1.27 1.27 0 0 1-.07-1.253l3.83-11.148a.75.75 0 0 0-.62-.99l-5.118-.6a1.46 1.46 0 0 1-.726-2.537 1.44 1.44 0 0 1 1.141-.355l6.718.903c.012.002.601.085.897.085.262 0 .813-.07.839-.073l6.774-.916a1.44 1.44 0 0 1 1.143.353 1.47 1.47 0 0 1 .497 1.1 1.45 1.45 0 0 1-1.185 1.436"/></svg>