<svg xmlns="http://www.w3.org/2000/svg" width="32" height="32" viewBox="0 0 32 32"><path d="M2 5.25a.75.75 0 0 0-.75.75v8c0 .414.336.75.75.75h28a.75.75 0 0 0 .75-.75V6a.75.75 0 0 0-.75-.75zm.75 8v-6.5h26.5v6.5zm22.317 9.99a.5.5 0 0 0 .868 0l1.138-1.992a.5.5 0 0 0-.434-.748h-2.277a.5.5 0 0 0-.434.748zm.868-12a.5.5 0 0 1-.868 0l-1.14-1.992a.5.5 0 0 1 .435-.748h2.277a.5.5 0 0 1 .434.748zM2 17.25a.75.75 0 0 0-.75.75v8c0 .414.336.75.75.75h28a.75.75 0 0 0 .75-.75v-8a.75.75 0 0 0-.75-.75zm.75 8v-6.5h26.5v6.5z"/></svg>