<svg xmlns="http://www.w3.org/2000/svg" width="32" height="32" viewBox="0 0 32 32"><path d="M10 12.683v-1a3 3 0 1 0-6 0v1a2.003 2.003 0 0 0-2 2v4a2 2 0 0 0 2 2h6a2 2 0 0 0 2-2v-4a2.003 2.003 0 0 0-2-2m-4-1a1 1 0 1 1 2 0v1H6zm-2 7v-4h6l.002 4zM19.39 12.87a8.1 8.1 0 0 0-1.672-2.566 1 1 0 0 0-1.437 1.391 6.1 6.1 0 0 1 1.257 1.93 6.33 6.33 0 0 1 0 4.75 6.1 6.1 0 0 1-1.257 1.93 1 1 0 1 0 1.437 1.39 8.1 8.1 0 0 0 1.671-2.564 8.33 8.33 0 0 0 0-6.261M28.579 9.003a17.9 17.9 0 0 0-3.874-5.712 1 1 0 0 0-1.41 1.418 15.9 15.9 0 0 1 3.444 5.077 15.95 15.95 0 0 1 0 12.429 15.9 15.9 0 0 1-3.445 5.076A1.001 1.001 0 0 0 23.998 29a1 1 0 0 0 .708-.291 17.91 17.91 0 0 0 3.874-19.706M25 16a14.4 14.4 0 0 0-1.01-5.323 14 14 0 0 0-1.828-3.254q-.437-.58-.934-1.108a1 1 0 1 0-1.457 1.37q.422.45.795.943a12 12 0 0 1 1.565 2.787 12.54 12.54 0 0 1 0 9.17 12 12 0 0 1-1.555 2.775q-.375.498-.804.953a1 1 0 0 0 1.455 1.373q.505-.534.946-1.123a14 14 0 0 0 1.818-3.24C24.66 19.628 25.004 17.822 25 16"/></svg>