<svg xmlns="http://www.w3.org/2000/svg" width="32" height="32" viewBox="0 0 32 32"><path d="M8.25 14.442v1.308a.75.75 0 0 0 1.5 0v-1.308a.75.75 0 1 0-1.5 0M9 19a.75.75 0 1 0 0-1.5.75.75 0 0 0 0 1.5M10.753 10.01l-.012-.02a2 2 0 0 0-3.465.017l-5.003 8.985A2 2 0 0 0 4.002 22H14a2 2 0 0 0 1.739-2.989zM4.01 19.981l5-8.988L14 20zM24 29a1 1 0 0 1-.706-1.71 15.9 15.9 0 0 0 3.445-5.076 15.95 15.95 0 0 0 0-12.428 15.9 15.9 0 0 0-3.445-5.077 1 1 0 1 1 1.41-1.418 17.887 17.887 0 0 1 0 25.418 1 1 0 0 1-.704.29M20.5 26a1 1 0 0 1-.728-1.687q.429-.453.804-.953a12 12 0 0 0 1.555-2.774 12.54 12.54 0 0 0 0-9.171 12 12 0 0 0-1.565-2.787 12 12 0 0 0-.795-.944.999.999 0 1 1 1.457-1.369q.497.529.934 1.107a14 14 0 0 1 1.829 3.254 14.55 14.55 0 0 1 0 10.648 14 14 0 0 1-1.818 3.24q-.442.586-.946 1.122A1 1 0 0 1 20.5 26"/></svg>