<svg xmlns="http://www.w3.org/2000/svg" width="32" height="32" viewBox="0 0 32 32"><path d="M9 13.942a.5.5 0 0 0-.5.5v1.687a.5.5 0 0 0 1 0v-1.687a.5.5 0 0 0-.5-.5M9 18.75a.5.5 0 1 0 0-1 .5.5 0 0 0 0 1M10.315 10.252l-.006-.01a1.5 1.5 0 0 0-2.596.009l-5.007 8.993A1.5 1.5 0 0 0 4.002 21.5H14a1.5 1.5 0 0 0 1.301-2.247zm4.118 9.997a.49.49 0 0 1-.433.25H4.002a.49.49 0 0 1-.434-.25.5.5 0 0 1 .006-.51l5.008-8.993a.5.5 0 0 1 .86-.004l4.99 9.006a.49.49 0 0 1 .001.5M24 28.5a.5.5 0 0 1-.353-.855 16.4 16.4 0 0 0 3.552-5.235 16.45 16.45 0 0 0 0-12.82 16.4 16.4 0 0 0-3.552-5.236.5.5 0 0 1 .705-.709 17.39 17.39 0 0 1 0 24.71.5.5 0 0 1-.352.145M20.5 25.5a.5.5 0 0 1-.364-.843q.447-.476.84-.996a12.4 12.4 0 0 0 1.62-2.89 13.05 13.05 0 0 0 0-9.54 12.5 12.5 0 0 0-1.63-2.904 12 12 0 0 0-.83-.985.5.5 0 1 1 .728-.685q.478.51.9 1.067a13.5 13.5 0 0 1 1.762 3.137 14.05 14.05 0 0 1 0 10.278 13.5 13.5 0 0 1-1.752 3.123q-.425.566-.911 1.08a.5.5 0 0 1-.363.158"/></svg>