<svg xmlns="http://www.w3.org/2000/svg" width="32" height="32" viewBox="0 0 32 32"><path d="M9 13.692a.75.75 0 0 0-.75.75v1.308a.75.75 0 0 0 1.5 0v-1.308a.75.75 0 0 0-.75-.75M9 19a.75.75 0 1 0 0-1.5.75.75 0 0 0 0 1.5M10.534 10.13l-.009-.014a1.75 1.75 0 0 0-3.03.013l-5.006 8.989a1.751 1.751 0 0 0 1.513 2.632H14a1.75 1.75 0 0 0 1.52-2.618zm3.682 9.994a.24.24 0 0 1-.216.126H4.002a.24.24 0 0 1-.217-.125.25.25 0 0 1 .008-.264l5.004-8.99a.25.25 0 0 1 .43-.004l4.988 9.007a.24.24 0 0 1 .001.25M24 28.75a.75.75 0 0 1-.529-1.283 16.139 16.139 0 0 0 0-22.936.75.75 0 0 1 1.058-1.064 17.636 17.636 0 0 1-.001 25.064.75.75 0 0 1-.528.219M20.5 25.75a.75.75 0 0 1-.546-1.265q.438-.465.821-.975a12.2 12.2 0 0 0 1.589-2.833 12.8 12.8 0 0 0 0-9.355 12.2 12.2 0 0 0-2.411-3.809.749.749 0 0 1 .57-1.265.75.75 0 0 1 .523.238q.487.52.916 1.087c.74.98 1.343 2.055 1.796 3.195a14.3 14.3 0 0 1 0 10.463 13.7 13.7 0 0 1-1.785 3.182q-.432.577-.928 1.101a.75.75 0 0 1-.545.236"/></svg>