<svg xmlns="http://www.w3.org/2000/svg" width="32" height="32" viewBox="0 0 32 32"><path d="M10 13.25h-.25V12a2.75 2.75 0 0 0-5.5 0v1.25H4A1.75 1.75 0 0 0 2.25 15v4A1.75 1.75 0 0 0 4 20.75h6A1.75 1.75 0 0 0 11.75 19v-4A1.753 1.753 0 0 0 10 13.25M5.75 12a1.25 1.25 0 1 1 2.5 0v1.25h-2.5zm4.5 7a.25.25 0 0 1-.25.25H4a.25.25 0 0 1-.25-.25v-4a.25.25 0 0 1 .25-.25h6a.25.25 0 0 1 .25.25zM17 21.75a.75.75 0 0 1-.54-1.272 6.3 6.3 0 0 0 1.31-2.01 6.58 6.58 0 0 0 0-4.936 6.3 6.3 0 0 0-1.31-2.01.749.749 0 0 1 .552-1.272.75.75 0 0 1 .527.228 7.8 7.8 0 0 1 1.619 2.486 8.09 8.09 0 0 1 0 6.072 7.8 7.8 0 0 1-1.62 2.485.75.75 0 0 1-.538.229M24 28.75a.75.75 0 0 1-.529-1.282A16.11 16.11 0 0 0 28.25 16a16.11 16.11 0 0 0-4.78-11.468.75.75 0 1 1 1.059-1.065 17.637 17.637 0 0 1 0 25.064.74.74 0 0 1-.53.219M20.5 25.75a.75.75 0 0 1-.546-1.265q.439-.464.82-.975a12.2 12.2 0 0 0 1.59-2.834 12.8 12.8 0 0 0 0-9.354 12.1 12.1 0 0 0-2.411-3.809.75.75 0 1 1 1.093-1.027q.487.52.916 1.087c.74.98 1.343 2.055 1.796 3.195a14.3 14.3 0 0 1 0 10.462 13.7 13.7 0 0 1-1.784 3.183q-.434.576-.929 1.101a.75.75 0 0 1-.545.236"/></svg>