<svg xmlns="http://www.w3.org/2000/svg" width="32" height="32" viewBox="0 0 32 32"><path d="M10 21.5a.5.5 0 0 1-.36-.848A6.6 6.6 0 0 0 11 18.563a6.83 6.83 0 0 0 0-5.126 6.6 6.6 0 0 0-1.36-2.09.5.5 0 1 1 .719-.695 7.6 7.6 0 0 1 1.567 2.406 7.84 7.84 0 0 1 0 5.884 7.6 7.6 0 0 1-1.567 2.405.5.5 0 0 1-.36.153M17 28.5a.5.5 0 0 1-.353-.855 16.4 16.4 0 0 0 3.552-5.235 16.45 16.45 0 0 0 0-12.82 16.4 16.4 0 0 0-3.552-5.236.5.5 0 0 1 .705-.709 17.4 17.4 0 0 1 3.767 5.553 17.44 17.44 0 0 1 0 13.603 17.4 17.4 0 0 1-3.767 5.553.5.5 0 0 1-.352.146M13.5 25.5a.5.5 0 0 1-.364-.843q.447-.476.84-.996a12.4 12.4 0 0 0 1.62-2.892 13.04 13.04 0 0 0 0-9.539 12.4 12.4 0 0 0-1.63-2.903 12 12 0 0 0-.83-.985.5.5 0 0 1 .728-.685q.478.51.9 1.067a13.4 13.4 0 0 1 1.762 3.137 14.05 14.05 0 0 1 0 10.277 13.5 13.5 0 0 1-1.752 3.124 13 13 0 0 1-.911 1.08.5.5 0 0 1-.363.158"/></svg>