<svg xmlns="http://www.w3.org/2000/svg" width="32" height="32" viewBox="0 0 32 32"><path d="M12.158 12.964a7.8 7.8 0 0 0-1.62-2.486.75.75 0 1 0-1.078 1.043 6.3 6.3 0 0 1 1.31 2.01 6.58 6.58 0 0 1 0 4.937 6.3 6.3 0 0 1-1.31 2.01.75.75 0 0 0 1.079 1.043 7.8 7.8 0 0 0 1.619-2.485 8.09 8.09 0 0 0 0-6.072M21.35 9.1a17.7 17.7 0 0 0-3.821-5.633.75.75 0 0 0-1.059 1.065 16.2 16.2 0 0 1 3.498 5.156 16.2 16.2 0 0 1 0 12.624 16.2 16.2 0 0 1-3.497 5.155.75.75 0 1 0 1.057 1.065 17.7 17.7 0 0 0 3.821-5.633 17.7 17.7 0 0 0 0-13.799M17.75 16a14.1 14.1 0 0 0-.992-5.232 13.7 13.7 0 0 0-1.795-3.195 13 13 0 0 0-.916-1.087.751.751 0 1 0-1.094 1.027q.433.46.812.964a12.1 12.1 0 0 1 1.599 2.845 12.8 12.8 0 0 1 0 9.355 12.2 12.2 0 0 1-1.589 2.834q-.383.51-.821.974a.75.75 0 0 0 1.092 1.03q.494-.526.928-1.102a13.7 13.7 0 0 0 1.784-3.183c.66-1.665.996-3.44.992-5.23"/></svg>