<svg xmlns="http://www.w3.org/2000/svg" width="32" height="32" viewBox="0 0 32 32"><path d="M23.615 2.25H8.385a4.225 4.225 0 0 0-4.135 4.3v13.995a4.309 4.309 0 0 0 1.946 3.649l7.228 4.797a4.758 4.758 0 0 0 5.16-.005l7.211-4.787a4.311 4.311 0 0 0 1.955-3.654V6.55a4.225 4.225 0 0 0-4.135-4.3Zm2.635 18.296a2.862 2.862 0 0 1-1.276 2.398l-7.212 4.787a3.253 3.253 0 0 1-3.517.005l-7.228-4.797a2.86 2.86 0 0 1-1.267-2.394V6.55a2.725 2.725 0 0 1 2.634-2.8h15.23a2.725 2.725 0 0 1 2.636 2.8v13.995Z"/><path d="M20 14.25h-3.25V11a.75.75 0 1 0-1.5 0v3.25H12a.75.75 0 1 0 0 1.5h3.25V19a.75.75 0 1 0 1.5 0v-3.25H20a.75.75 0 1 0 0-1.5Z"/></svg>