<svg xmlns="http://www.w3.org/2000/svg" width="32" height="32" viewBox="0 0 32 32"><path d="M23.615 2.5H8.385A3.975 3.975 0 0 0 4.5 6.55v13.996a4.12 4.12 0 0 0 1.834 3.44l7.225 4.795a4.51 4.51 0 0 0 4.887-.003l7.214-4.79a4.12 4.12 0 0 0 1.84-3.442V6.55a3.975 3.975 0 0 0-3.885-4.05M26.5 20.546a3.11 3.11 0 0 1-1.387 2.606l-7.215 4.789a3.51 3.51 0 0 1-3.791.003l-7.225-4.795A3.11 3.11 0 0 1 5.5 20.545V6.55A2.974 2.974 0 0 1 8.385 3.5h15.23A2.974 2.974 0 0 1 26.5 6.55zM20 14.5h-3.5V11a.5.5 0 0 0-1 0v3.5H12a.5.5 0 0 0 0 1h3.5V19a.5.5 0 1 0 1 0v-3.5H20a.5.5 0 1 0 0-1"/></svg>