<svg xmlns="http://www.w3.org/2000/svg" width="32" height="32" viewBox="0 0 32 32"><path d="M29 6.25h-3.25V3a.75.75 0 1 0-1.5 0v3.25H21a.75.75 0 1 0 0 1.5h3.25V11a.75.75 0 1 0 1.5 0V7.75H29a.75.75 0 1 0 0-1.5M27 14.215a.75.75 0 0 0-.75.75v11.036a1.25 1.25 0 0 1-2.5 0v-11a.75.75 0 1 0-1.5 0v11a2.75 2.75 0 1 0 5.5 0V14.965a.75.75 0 0 0-.75-.75M15.999 11.25a2.75 2.75 0 0 0-2.75 2.748v12.004A2.75 2.75 0 0 0 16 28.75H16a2.75 2.75 0 0 0 2.749-2.748V13.998a2.75 2.75 0 0 0-2.751-2.748m1.25 14.752a1.25 1.25 0 0 1-1.247 1.248h-.003a1.25 1.25 0 0 1-1.25-1.248V13.998a1.25 1.25 0 1 1 2.5 0zM7 6.25A2.753 2.753 0 0 0 4.25 9v17a2.75 2.75 0 0 0 5.5 0V9A2.753 2.753 0 0 0 7 6.25M8.25 26a1.25 1.25 0 1 1-2.5 0V9a1.25 1.25 0 0 1 2.5 0z"/></svg>