<svg xmlns="http://www.w3.org/2000/svg" width="32" height="32" viewBox="0 0 32 32"><path d="M16 26.75a1 1 0 1 0 0 2 1 1 0 0 0 0-2M23.364 14.211a.747.747 0 0 0-1.02.291A7.27 7.27 0 0 1 16 18.25a.75.75 0 0 0-.75.75v4a.75.75 0 1 0 1.5 0v-3.282a8.78 8.78 0 0 0 6.905-4.487.75.75 0 0 0-.29-1.02M18.282 4.116s.45.159.491.172a.744.744 0 0 0 .938-.484.75.75 0 0 0-.48-.943l-.461-.164A8.757 8.757 0 0 0 7.25 11a.75.75 0 1 0 1.5 0 7.256 7.256 0 0 1 9.532-6.884M29 6.25h-3.25V3a.75.75 0 1 0-1.5 0v3.25H21a.75.75 0 1 0 0 1.5h3.25V11a.75.75 0 1 0 1.5 0V7.75H29a.75.75 0 1 0 0-1.5"/></svg>