<svg xmlns="http://www.w3.org/2000/svg" width="32" height="32" viewBox="0 0 32 32"><path d="M29 6.5h-3.5V3a.5.5 0 1 0-1 0v3.5H21a.5.5 0 0 0 0 1h3.5V11a.5.5 0 0 0 1 0V7.5H29a.5.5 0 1 0 0-1ZM27 14.465a.5.5 0 0 0-.5.5v11.036a1.5 1.5 0 1 1-3 0v-11a.5.5 0 1 0-1 0v11a2.5 2.5 0 1 0 5 0V14.965a.498.498 0 0 0-.5-.5ZM15.999 11.5a2.501 2.501 0 0 0-2.5 2.498v12.004A2.502 2.502 0 0 0 16 28.5H16a2.502 2.502 0 0 0 2.498-2.498V13.998A2.502 2.502 0 0 0 16 11.5Zm1.5 14.502a1.5 1.5 0 0 1-1.497 1.498h-.003a1.5 1.5 0 0 1-1.5-1.498V13.998a1.5 1.5 0 0 1 3 0v12.004ZM7 6.5A2.502 2.502 0 0 0 4.5 9v17a2.5 2.5 0 1 0 5 0V9A2.502 2.502 0 0 0 7 6.5ZM8.5 26a1.5 1.5 0 0 1-3 0V9a1.5 1.5 0 0 1 3 0v17Z"/></svg>