<svg xmlns="http://www.w3.org/2000/svg" width="32" height="32" viewBox="0 0 32 32"><path d="M6 6.5a.5.5 0 0 1 .5.5v3.5H10a.5.5 0 0 1 0 1H6.5V15a.5.5 0 0 1-1 0v-3.5H2a.5.5 0 0 1 0-1h3.5V7a.5.5 0 0 1 .5-.5M13.807 8.949a2.5 2.5 0 0 1 1.43-.449h3.526a2.5 2.5 0 0 1 1.43.449l1.838 1.282a1.5 1.5 0 0 0 .858.269H26a2.5 2.5 0 0 1 2.5 2.5v11a2.5 2.5 0 0 1-2.5 2.5H8A2.5 2.5 0 0 1 5.5 24v-6a.5.5 0 0 1 1 0v6A1.5 1.5 0 0 0 8 25.5h18a1.5 1.5 0 0 0 1.5-1.5V13a1.5 1.5 0 0 0-1.5-1.5h-3.11a2.5 2.5 0 0 1-1.43-.449l-1.84-1.282a1.5 1.5 0 0 0-.857-.269h-3.526a1.5 1.5 0 0 0-.858.27l-.92.64a.5.5 0 0 1-.571-.82zM17 14.5a3.5 3.5 0 1 0 0 7 3.5 3.5 0 0 0 0-7M12.5 18a4.5 4.5 0 1 1 9 0 4.5 4.5 0 0 1-9 0"/></svg>