<svg xmlns="http://www.w3.org/2000/svg" width="32" height="32" viewBox="0 0 32 32"><path d="M6 6.25a.75.75 0 0 1 .75.75v3.25H10a.75.75 0 0 1 0 1.5H6.75V15a.75.75 0 0 1-1.5 0v-3.25H2a.75.75 0 0 1 0-1.5h3.25V7A.75.75 0 0 1 6 6.25M13.665 8.744a2.75 2.75 0 0 1 1.572-.494h3.526a2.75 2.75 0 0 1 1.572.494l1.84 1.281c.209.147.459.225.714.225H26A2.75 2.75 0 0 1 28.75 13v11A2.75 2.75 0 0 1 26 26.75H8A2.75 2.75 0 0 1 5.25 24v-6a.75.75 0 0 1 1.5 0v6c0 .69.56 1.25 1.25 1.25h18c.69 0 1.25-.56 1.25-1.25V13c0-.69-.56-1.25-1.25-1.25h-3.11a2.75 2.75 0 0 1-1.573-.494l-1.84-1.281a1.25 1.25 0 0 0-.714-.225h-3.526a1.25 1.25 0 0 0-.715.225l-.92.64a.75.75 0 0 1-.857-1.23zM17 14.75a3.25 3.25 0 1 0 0 6.5 3.25 3.25 0 0 0 0-6.5M12.25 18a4.75 4.75 0 1 1 9.5 0 4.75 4.75 0 0 1-9.5 0"/></svg>