<svg xmlns="http://www.w3.org/2000/svg" width="32" height="32" viewBox="0 0 32 32"><path d="M29 6h-3V3a1 1 0 1 0-2 0v3h-3a1 1 0 1 0 0 2h3v3a1 1 0 0 0 2 0V8h3a1 1 0 1 0 0-2M27 13.965a1 1 0 0 0-1 1v11.036a1 1 0 1 1-2 0v-11a1 1 0 1 0-2 0v11a3 3 0 0 0 6 0V14.965a.997.997 0 0 0-1-1M15.999 11a3 3 0 0 0-3 2.998v12.004A3 3 0 0 0 16 29H16A3 3 0 0 0 19 26.002V13.998A3 3 0 0 0 15.999 11m1 15.002a1 1 0 0 1-.997.998h-.003a1 1 0 0 1-1-.998V13.998a1 1 0 0 1 2 0zM7 6a3.003 3.003 0 0 0-3 3v17a3 3 0 1 0 6 0V9a3.003 3.003 0 0 0-3-3m1 20a1 1 0 1 1-2 0V9a1 1 0 0 1 2 0z"/></svg>