<svg xmlns="http://www.w3.org/2000/svg" width="32" height="32" viewBox="0 0 32 32"><path d="M6 6a1 1 0 0 1 1 1v3h3a1 1 0 1 1 0 2H7v3a1 1 0 1 1-2 0v-3H2a1 1 0 1 1 0-2h3V7a1 1 0 0 1 1-1M13.522 8.539A3 3 0 0 1 15.237 8h3.526a3 3 0 0 1 1.715.539l1.84 1.281a1 1 0 0 0 .571.18H26a3 3 0 0 1 3 3v11a3 3 0 0 1-3 3H8a3 3 0 0 1-3-3v-6a1 1 0 1 1 2 0v6a1 1 0 0 0 1 1h18a1 1 0 0 0 1-1V13a1 1 0 0 0-1-1h-3.11a3 3 0 0 1-1.716-.539l-1.84-1.281a1 1 0 0 0-.57-.18h-3.527a1 1 0 0 0-.572.18l-.92.64a1 1 0 1 1-1.143-1.64zM17 15a3 3 0 1 0 0 6 3 3 0 0 0 0-6m-5 3a5 5 0 1 1 10 0 5 5 0 0 1-10 0"/></svg>