<svg xmlns="http://www.w3.org/2000/svg" width="32" height="32" viewBox="0 0 32 32"><path d="M29 6.25h-3.25V3a.75.75 0 1 0-1.5 0v3.25H21a.75.75 0 1 0 0 1.5h3.25V11a.75.75 0 1 0 1.5 0V7.75H29a.75.75 0 1 0 0-1.5M22.236 13.323a.75.75 0 0 0-1 .355L19.42 17.49a1.7 1.7 0 0 0-.17.715v2.045h-2.5V14a.75.75 0 1 0-1.5 0v6.25h-2.5v-2.072a1.75 1.75 0 0 0-.168-.686l-2.356-4.94a6.3 6.3 0 0 1-.446-1.836 6.41 6.41 0 0 1 1.61-4.983 6.15 6.15 0 0 1 4.643-1.983 6.3 6.3 0 0 1 2.653.57.75.75 0 0 0 .629-1.36 7.8 7.8 0 0 0-3.346-.71 7.6 7.6 0 0 0-5.687 2.472 8 8 0 0 0-1.996 6.132c.07.794.263 1.573.571 2.31l2.37 4.971q.015.034.024.07v6.748a4.67 4.67 0 0 0 4.75 4.8 4.67 4.67 0 0 0 4.75-4.8l.022-6.816 1.818-3.815a.75.75 0 0 0-.354-.999M19.25 21.75v2.502h-6.5V21.75zM16 28.252a3.17 3.17 0 0 1-3.151-2.5h6.304a3.17 3.17 0 0 1-3.152 2.5"/></svg>