<svg xmlns="http://www.w3.org/2000/svg" width="32" height="32" viewBox="0 0 32 32"><path d="M23.615 2H8.385A4.475 4.475 0 0 0 4 6.55v13.996a4.56 4.56 0 0 0 2.057 3.856l7.23 4.799a5.01 5.01 0 0 0 5.435-.007l7.209-4.784A4.56 4.56 0 0 0 28 20.546V6.55A4.475 4.475 0 0 0 23.615 2M26 20.546a2.61 2.61 0 0 1-1.164 2.19l-7.21 4.785a3 3 0 0 1-3.243.007l-7.23-4.8A2.6 2.6 0 0 1 6 20.545V6.55A2.475 2.475 0 0 1 8.384 4h15.23A2.475 2.475 0 0 1 26 6.55zM20 14h-3v-3a1 1 0 0 0-2 0v3h-3a1 1 0 1 0 0 2h3v3a1 1 0 1 0 2 0v-3h3a1 1 0 0 0 0-2"/></svg>