<svg xmlns="http://www.w3.org/2000/svg" width="32" height="32" viewBox="0 0 32 32"><path d="M16 27a.75.75 0 1 0 0 1.5.75.75 0 0 0 0-1.5M23.243 14.429a.503.503 0 0 0-.68.194A7.52 7.52 0 0 1 16 18.5a.5.5 0 0 0-.5.5v4a.5.5 0 0 0 1 0v-3.514a8.53 8.53 0 0 0 6.938-4.376.5.5 0 0 0-.195-.681M18.365 3.881l.484.17a.5.5 0 0 0 .304-.953l-.462-.163A8.507 8.507 0 0 0 7.5 11a.5.5 0 0 0 1 0 7.505 7.505 0 0 1 9.865-7.119M29 6.5h-3.5V3a.5.5 0 0 0-1 0v3.5H21a.5.5 0 0 0 0 1h3.5V11a.5.5 0 0 0 1 0V7.5H29a.5.5 0 0 0 0-1"/></svg>