<svg xmlns="http://www.w3.org/2000/svg" width="32" height="32" viewBox="0 0 32 32"><path d="M22 11.25a1.746 1.746 0 0 0-.75 3.325v5.424a.75.75 0 0 0 1.5 0v-5.424A1.746 1.746 0 0 0 22 11.25M16.979 3.346a1.24 1.24 0 0 0-1.352.26L8.7 10.25H5A2.753 2.753 0 0 0 2.25 13v6A2.753 2.753 0 0 0 5 21.75H8.7l6.917 6.631a1.25 1.25 0 0 0 2.134-.883V4.5a1.245 1.245 0 0 0-.771-1.154m-.729 23.567L9.52 20.459A.75.75 0 0 0 9 20.25H5A1.25 1.25 0 0 1 3.75 19v-6A1.25 1.25 0 0 1 5 11.75h4c.194 0 .38-.075.52-.209l6.73-6.455zM27.75 17.425V12a.75.75 0 0 0-1.5 0v5.425a1.75 1.75 0 1 0 1.5 0"/></svg>