<svg xmlns="http://www.w3.org/2000/svg" width="32" height="32" viewBox="0 0 32 32"><path d="M10 11.25a1.746 1.746 0 0 0-.75 3.325v5.424a.75.75 0 1 0 1.5 0v-5.424A1.746 1.746 0 0 0 10 11.25M16.75 17.425V12a.75.75 0 1 0-1.5 0v5.425a1.75 1.75 0 1 0 1.5 0M28.923 9.507a1.77 1.77 0 0 0-1.77-.039l-3.403 2.163v-1.63A4.755 4.755 0 0 0 19 5.25H7A4.755 4.755 0 0 0 2.25 10v12A4.756 4.756 0 0 0 7 26.75h12A4.756 4.756 0 0 0 23.75 22v-1.642l3.469 2.202c.243.122.512.186.784.186a1.755 1.755 0 0 0 1.749-1.751v-10a1.74 1.74 0 0 0-.83-1.489M22.25 22A3.254 3.254 0 0 1 19 25.25H7A3.254 3.254 0 0 1 3.75 22V10A3.254 3.254 0 0 1 7 6.75h12A3.254 3.254 0 0 1 22.25 10zm6.002-1.005a.24.24 0 0 1-.12.213c-.042.027-.132.067-.175.05l-4.207-2.675v-5.175l4.14-2.636a.25.25 0 0 1 .244.01.24.24 0 0 1 .118.213z"/></svg>