<svg xmlns="http://www.w3.org/2000/svg" width="32" height="32" viewBox="0 0 32 32"><path d="M22 8.25a1.746 1.746 0 0 0-.75 3.325V17a.75.75 0 1 0 1.5 0v-5.425A1.746 1.746 0 0 0 22 8.251ZM27.75 14.425V9.001a.75.75 0 1 0-1.5 0v5.424a1.75 1.75 0 1 0 1.5 0ZM18.99 28.25h-1.98a5.113 5.113 0 0 1-5.205-4.563A5.753 5.753 0 0 0 16.75 18V8a5.75 5.75 0 0 0-11.5 0v10a5.754 5.754 0 0 0 5.024 5.699 6.666 6.666 0 0 0 2.436 4.55H2.99a.75.75 0 1 0 0 1.5h16a.75.75 0 0 0 0-1.5ZM6.75 18V8a4.25 4.25 0 1 1 8.5 0v10a4.25 4.25 0 0 1-8.5 0Z"/></svg>