<svg xmlns="http://www.w3.org/2000/svg" width="32" height="32" viewBox="0 0 32 32"><path d="M22 11.5a1.496 1.496 0 0 0-.5 2.908V20a.5.5 0 0 0 1 0v-5.59A1.497 1.497 0 0 0 22 11.5M16.883 3.577a1 1 0 0 0-1.082.209L8.8 10.5H5A2.5 2.5 0 0 0 2.5 13v6A2.5 2.5 0 0 0 5 21.5h3.8l6.992 6.704a.998.998 0 0 0 1.708-.706V4.5a1 1 0 0 0-.617-.923m-.39 23.914-7.147-6.852A.5.5 0 0 0 9 20.5H5A1.5 1.5 0 0 1 3.5 19v-6A1.5 1.5 0 0 1 5 11.5h4a.5.5 0 0 0 .346-.138L16.5 4.5zM27.5 17.592V12a.5.5 0 1 0-1 0v5.592a1.5 1.5 0 1 0 1 0"/></svg>