<svg xmlns="http://www.w3.org/2000/svg" width="32" height="32" viewBox="0 0 32 32"><path d="M10 11a1.993 1.993 0 0 0-1 3.722V20a1 1 0 1 0 2 0v-5.277A1.993 1.993 0 0 0 10 11M17 17.278V12a1 1 0 1 0-2 0v5.278a2.001 2.001 0 1 0 2 0M29.054 9.294a1.99 1.99 0 0 0-2.035-.037l-3.02 1.92V10a5.006 5.006 0 0 0-5-5H7a5.006 5.006 0 0 0-5 5v12a5.006 5.006 0 0 0 5 5h12a5.007 5.007 0 0 0 5-5v-1.185l3.02 1.919a1 1 0 0 0 .088.05 2 2 0 0 0 2.895-1.788v-10a1.99 1.99 0 0 0-.948-1.702M22 22a3.003 3.003 0 0 1-3 3H7a3.003 3.003 0 0 1-3-3V10a3.003 3.003 0 0 1 3-3h12a3.003 3.003 0 0 1 3 3zm6.002-1.01L24 18.445v-4.9l4.002-2.544z"/></svg>