<svg xmlns="http://www.w3.org/2000/svg" width="32" height="32" viewBox="0 0 32 32"><path d="M22 11a1.993 1.993 0 0 0-1 3.722V20a1 1 0 0 0 2 0v-5.277A1.993 1.993 0 0 0 22 11M17.075 3.115a1.485 1.485 0 0 0-1.62.31L8.597 10H5a3.003 3.003 0 0 0-3 3v6a3.003 3.003 0 0 0 3 3h3.598l6.84 6.558A1.5 1.5 0 0 0 18 27.498V4.5a1.5 1.5 0 0 0-.925-1.385M16 26.327l-6.307-6.048A1 1 0 0 0 9 20H5a1 1 0 0 1-1-1v-6a1 1 0 0 1 1-1h4c.258 0 .506-.1.693-.278L16 5.672zM28 17.278V12a1 1 0 1 0-2 0v5.278a2.001 2.001 0 1 0 2 0"/></svg>