<svg xmlns="http://www.w3.org/2000/svg" width="32" height="32" viewBox="0 0 32 32"><path d="M10 11.5a1.496 1.496 0 0 0-.5 2.908V20a.5.5 0 0 0 1 0v-5.59A1.496 1.496 0 0 0 10 11.5M16.5 17.592V12a.5.5 0 0 0-1 0v5.592a1.5 1.5 0 1 0 1 0M28.791 9.72a1.5 1.5 0 0 0-1.505-.04L23.5 12.085V10A4.505 4.505 0 0 0 19 5.5H7A4.505 4.505 0 0 0 2.5 10v12A4.505 4.505 0 0 0 7 26.5h12a4.504 4.504 0 0 0 4.5-4.5v-2.096l3.831 2.433a1.5 1.5 0 0 0 2.17-1.342v-10a1.49 1.49 0 0 0-.71-1.275M22.5 22a3.504 3.504 0 0 1-3.5 3.5H7A3.504 3.504 0 0 1 3.5 22V10A3.504 3.504 0 0 1 7 6.5h12a3.504 3.504 0 0 1 3.5 3.5zm6.002-1.005a.5.5 0 0 1-.237.426.48.48 0 0 1-.442.047L23.5 18.72V13.27l4.278-2.723a.49.49 0 0 1 .487.023.49.49 0 0 1 .237.425z"/></svg>