<svg xmlns="http://www.w3.org/2000/svg" width="32" height="32" viewBox="0 0 32 32"><path d="M28.783 24.59a2 2 0 0 0 1.118-2.458l-.408-1.255a1.998 1.998 0 0 0-2.292-1.343l-.475.094-.056-.038-.034-.382a2 2 0 0 0-1.992-1.823h-1.32a2 2 0 0 0-1.986 1.764l-.057.482-.054.041-.374-.086a1.998 1.998 0 0 0-2.35 1.335l-.405 1.254a2 2 0 0 0 1.063 2.43l.44.203.023.066-.197.329a2 2 0 0 0 .54 2.645l1.068.776a2 2 0 0 0 2.664-.283l.305-.34h.05l.273.314a2 2 0 0 0 2.703.29l1.067-.796a2 2 0 0 0 .55-2.58l-.236-.424.02-.065.352-.15Zm-2.003-1.32-.527 1.776.65 1.16-1.068.795-.87-.999L23.111 26l-.902 1.006-1.068-.776.681-1.136-.618-1.747-1.204-.557.405-1.254 1.292.296 1.47-1.128.156-1.32h1.32l.117 1.32 1.527 1.05 1.303-.259.408 1.255-1.219.52Z"/><path d="M23.999 24.756a1.5 1.5 0 1 0 0-3 1.5 1.5 0 0 0 0 3ZM16.887 27.841c-4.884.552-10.062-.366-12.048-2.14a2.148 2.148 0 0 1-.837-1.623C4.002 19.473 8.3 16 14 16c1.922-.02 3.821.413 5.544 1.265a1 1 0 1 0 .912-1.781 13.026 13.026 0 0 0-2.284-.877 7 7 0 1 0-8.356-.01c-4.65 1.367-7.813 4.986-7.813 9.48a4.14 4.14 0 0 0 1.505 3.115c2.243 2.003 6.556 2.804 10.51 2.804a27.442 27.442 0 0 0 3.095-.17 1 1 0 0 0-.225-1.986ZM9 9.001a5 5 0 1 1 10 0A5 5 0 0 1 9 9Z"/></svg>