<svg xmlns="http://www.w3.org/2000/svg" width="32" height="32" viewBox="0 0 32 32"><path d="m28.95 22.441-.408-1.255a1 1 0 0 0-1.146-.672l-.89.177-.79-.544-.076-.85a1 1 0 0 0-.996-.912h-1.32a1 1 0 0 0-.993.882l-.107.9-.762.585-.832-.191a1 1 0 0 0-1.175.667l-.406 1.254a1 1 0 0 0 .532 1.215l.822.38.32.907-.438.732a1 1 0 0 0 .27 1.323l1.067.776a1 1 0 0 0 1.332-.141l.604-.673h.951l.572.657a1 1 0 0 0 1.351.144l1.068-.795a1 1 0 0 0 .275-1.29l-.443-.791.273-.921.786-.335a1 1 0 0 0 .559-1.229m-2.17.828-.527 1.777.65 1.16-1.068.795-.87-.999L23.111 26l-.902 1.006-1.068-.776.681-1.136-.618-1.747-1.204-.557.405-1.254 1.292.296 1.47-1.128.156-1.32h1.32l.117 1.32 1.527 1.05 1.303-.259.408 1.255zM23.999 24.256a1 1 0 1 0 0-2 1 1 0 0 0 0 2M16.943 28.337c-5.09.576-10.32-.374-12.437-2.263a2.65 2.65 0 0 1-1.004-1.997c0-4.89 4.513-8.576 10.497-8.576 2.001-.02 3.98.432 5.773 1.32a.5.5 0 0 0 .455-.89 12.9 12.9 0 0 0-3.317-1.127 6.5 6.5 0 1 0-5.83-.004c-5.045 1.023-8.578 4.666-8.578 9.278A3.61 3.61 0 0 0 3.84 26.82c2.145 1.914 6.307 2.68 10.147 2.68q1.539.001 3.069-.169a.5.5 0 0 0-.113-.994M8.5 9a5.5 5.5 0 1 1 5.5 5.5A5.507 5.507 0 0 1 8.5 9"/></svg>