<svg xmlns="http://www.w3.org/2000/svg" width="32" height="32" viewBox="0 0 32 32"><path d="M4.84 25.7c1.985 1.775 7.163 2.693 12.047 2.141a1 1 0 0 1 .224 1.986q-1.542.173-3.094.17c-3.954 0-8.267-.801-10.51-2.804a4.14 4.14 0 0 1-1.505-3.116c0-4.493 3.164-8.112 7.813-9.48a7 7 0 1 1 8.356.011c.788.22 1.552.514 2.284.877a1.002 1.002 0 1 1-.912 1.781A12.2 12.2 0 0 0 14 16.001c-5.699 0-9.997 3.472-9.997 8.077A2.15 2.15 0 0 0 4.84 25.7M9.842 6.224a5 5 0 1 0 8.315 5.555 5 5 0 0 0-8.315-5.555M25.499 23.256a1.5 1.5 0 1 1-3 0 1.5 1.5 0 0 1 3 0M29.82 23.578a2 2 0 0 1-1.037 1.012l-.353.15-.02.065.238.423a2 2 0 0 1-.55 2.581l-1.068.795a2 2 0 0 1-2.703-.29l-.273-.313h-.05l-.305.34a2 2 0 0 1-2.665.283l-1.067-.776a2 2 0 0 1-.54-2.645l.197-.33-.023-.065-.44-.203a2 2 0 0 1-1.063-2.43l.405-1.255a2 2 0 0 1 2.35-1.334l.374.086.054-.041.057-.482a2 2 0 0 1 1.986-1.764h1.32a2 2 0 0 1 1.992 1.823l.034.382.056.038.475-.094a2 2 0 0 1 2.292 1.343l.408 1.255a2 2 0 0 1-.082 1.446m-3.567 1.468.527-1.777L28 22.75l-.408-1.255-1.303.26-1.527-1.05-.117-1.32h-1.32l-.156 1.32-1.47 1.127-1.292-.296-.405 1.254 1.204.557.618 1.747-.68 1.136 1.067.776.902-1.006 1.852.002.87.999 1.068-.796z"/></svg>