<svg xmlns="http://www.w3.org/2000/svg" width="32" height="32" viewBox="0 0 32 32"><path d="m29.425 22.287-.407-1.255a1.5 1.5 0 0 0-1.72-1.008l-.682.136-.423-.292-.055-.616a1.5 1.5 0 0 0-1.494-1.367h-1.32a1.5 1.5 0 0 0-1.49 1.323l-.081.691-.408.313-.603-.138a1.5 1.5 0 0 0-1.763 1l-.405 1.254a1.5 1.5 0 0 0 .797 1.823l.63.292.173.486-.318.53a1.5 1.5 0 0 0 .405 1.985l1.067.775a1.5 1.5 0 0 0 1.998-.212l.455-.506h.5l.423.485a1.5 1.5 0 0 0 2.027.217l1.067-.795a1.5 1.5 0 0 0 .413-1.935l-.34-.607.146-.493.57-.243a1.5 1.5 0 0 0 .838-1.843m-2.645.982-.527 1.777.65 1.16-1.068.795-.87-.999L23.111 26l-.902 1.006-1.068-.776.681-1.136-.618-1.747-1.204-.557.405-1.254 1.292.296 1.47-1.128.156-1.32h1.32l.117 1.32 1.527 1.05 1.303-.259.408 1.255zM23.999 24.506a1.25 1.25 0 1 0 0-2.5 1.25 1.25 0 0 0 0 2.5M16.914 28.09c-4.938.56-10.207-.387-12.241-2.203a2.38 2.38 0 0 1-.92-1.81c0-4.747 4.404-8.326 10.246-8.326 1.962-.02 3.9.422 5.658 1.292a.75.75 0 0 0 .684-1.336 13 13 0 0 0-2.742-1.006 6.75 6.75 0 1 0-7.214-.01c-4.818 1.217-8.133 4.85-8.133 9.387a3.85 3.85 0 0 0 1.422 2.928c2.193 1.96 6.43 2.742 10.327 2.742q1.547.003 3.083-.169a.75.75 0 0 0-.17-1.49M8.75 9A5.25 5.25 0 1 1 14 14.25 5.257 5.257 0 0 1 8.75 9"/></svg>