<svg xmlns="http://www.w3.org/2000/svg" width="32" height="32" viewBox="0 0 32 32"><path d="M20.95 15.722c.38.197.367.762.048 1.046q-.372.331-.633.745c-.2.314-.514.546-.873.643a3.5 3.5 0 0 0-2.418 2.303l-.405 1.254a3.5 3.5 0 0 0 .634 3.31c.238.286.361.657.342 1.029a3.5 3.5 0 0 0 1.438 3.01l.327.237a.037.037 0 0 1-.012.067C17.64 29.839 16.004 30 15 30q-.084 0-.165-.014-.41.012-.82.011c-3.954 0-8.267-.801-10.51-2.804A4.14 4.14 0 0 1 2 24.077c0-4.493 3.164-8.112 7.813-9.48a7 7 0 1 1 8.452-.061l.051.015c.631.21 1.61.64 2.635 1.17M25.499 23.256a1.5 1.5 0 1 1-3 0 1.5 1.5 0 0 1 3 0M29.82 23.578a2 2 0 0 1-1.037 1.012l-.353.15-.02.065.238.423a2 2 0 0 1-.55 2.581l-1.068.795a2 2 0 0 1-2.703-.29l-.273-.313h-.05l-.305.34a2 2 0 0 1-2.665.283l-1.067-.776a2 2 0 0 1-.54-2.645l.197-.33-.023-.065-.44-.203a2 2 0 0 1-1.063-2.43l.405-1.255a2 2 0 0 1 2.35-1.334l.374.086.054-.041.057-.482a2 2 0 0 1 1.986-1.764h1.32a2 2 0 0 1 1.992 1.823l.034.382.056.038.475-.094a2 2 0 0 1 2.292 1.343l.408 1.255a2 2 0 0 1-.082 1.446m-3.567 1.468.527-1.777L28 22.75l-.408-1.255-1.303.26-1.527-1.05-.117-1.32h-1.32l-.156 1.32-1.47 1.127-1.292-.296-.405 1.254 1.204.557.618 1.747-.68 1.136 1.067.776.902-1.006 1.852.002.87.999 1.068-.796z"/></svg>