<svg xmlns="http://www.w3.org/2000/svg" width="32" height="32" viewBox="0 0 32 32"><path d="M13.5 2.5c.414 0 .75.312.75.696v24.608c0 .384-.336.696-.75.696s-.75-.312-.75-.696V3.196c0-.384.336-.696.75-.696M26.5 23.25a.75.75 0 0 0-1.5 0v2h-2a.75.75 0 0 0 0 1.5h2v2a.75.75 0 0 0 1.5 0v-2h2a.75.75 0 0 0 0-1.5h-2zM9.25 7.25a.75.75 0 0 0-1.5 0V23.5a.75.75 0 0 0 1.5 0zM3.5 12.5a.75.75 0 0 1 .75.75v4.5a.75.75 0 0 1-1.5 0v-4.5a.75.75 0 0 1 .75-.75M19.25 9.25a.75.75 0 0 0-1.5 0v12.5a.75.75 0 0 0 1.5 0zM23.5 10.5a.75.75 0 0 1 .75.75v8.25a.75.75 0 0 1-1.5 0v-8.25a.75.75 0 0 1 .75-.75M29.25 13.25a.75.75 0 0 0-1.5 0v4.5a.75.75 0 0 0 1.5 0z"/></svg>