<svg xmlns="http://www.w3.org/2000/svg" width="32" height="32" viewBox="0 0 32 32"><path d="M13.5 2.5c.552 0 1 .416 1 .929V27.57c0 .513-.448.929-1 .929s-1-.416-1-.929V3.43c0-.513.448-.929 1-.929M27 23.5a1 1 0 1 0-2 0V25h-1.5a1 1 0 1 0 0 2H25v1.5a1 1 0 1 0 2 0V27h1.5a1 1 0 1 0 0-2H27zM9.5 7.5a1 1 0 0 0-2 0v16a1 1 0 1 0 2 0zM3.5 12.5a1 1 0 0 1 1 1v4a1 1 0 1 1-2 0v-4a1 1 0 0 1 1-1M19.5 9.5a1 1 0 1 0-2 0v12a1 1 0 1 0 2 0zM23.5 10.5a1 1 0 0 1 1 1v8a1 1 0 1 1-2 0v-8a1 1 0 0 1 1-1M29.5 13.5a1 1 0 1 0-2 0v4a1 1 0 1 0 2 0z"/></svg>