<svg xmlns="http://www.w3.org/2000/svg" width="32" height="32" viewBox="0 0 32 32"><path d="M10.5 3a.5.5 0 0 0-1 0v2.5h-.503a4.5 4.5 0 0 0-4.5 4.5v3a.5.5 0 0 0 1 0v-3a3.5 3.5 0 0 1 3.5-3.5h14a3.5 3.5 0 0 1 3.5 3.5v5.79l-1.143-1.144a.5.5 0 0 0-.708.708l2 2a.5.5 0 0 0 .708 0l2-2a.5.5 0 0 0-.708-.708l-1.149 1.15V10a4.5 4.5 0 0 0-4.5-4.5H22.5V3a.5.5 0 0 0-1 0v2.5h-11zM4.646 16.646a.5.5 0 0 1 .708 0l2 2a.5.5 0 0 1-.708.708l-1.149-1.15V24a3.5 3.5 0 0 0 3.5 3.5h14a3.5 3.5 0 0 0 3.5-3.5v-3a.5.5 0 1 1 1 0v3a4.5 4.5 0 0 1-4.5 4.5h-14a4.5 4.5 0 0 1-4.5-4.5v-5.79l-1.143 1.144a.5.5 0 0 1-.708-.708zM16.582 25h-1.153a1.108 1.108 0 0 1-1.11-1.11v-1.347l-1.014-.448-.993.961c-.416.417-1.153.417-1.569 0l-.811-.812a1.1 1.1 0 0 1-.32-.78c0-.288.117-.576.32-.78l.95-.95-.395-1.036-1.377-.021A1.107 1.107 0 0 1 8 17.567v-1.154c0-.3.117-.577.32-.78s.491-.331.79-.331h1.345l.448-1.015-.96-.993a1.1 1.1 0 0 1-.32-.78c0-.288.117-.577.32-.78l.81-.811c.417-.417 1.154-.417 1.57 0l.95.95 1.035-.395.022-1.378c0-.288.117-.577.33-.78a1.1 1.1 0 0 1 .78-.32h1.152c.3 0 .577.117.78.32.202.203.32.492.32.78v1.346l1.056.47.417.374-.374-.385.96-.94c.214-.203.492-.32.78-.32.299 0 .576.128.78.331l.8.822a1.175 1.175 0 0 1 .32.79c0 .15-.032.29-.085.428a1.1 1.1 0 0 1-.246.352l-.96.94.373.983 1.377.021c.299 0 .576.118.79.332.213.203.32.49.32.78v1.153a1.09 1.09 0 0 1-1.1 1.1h-1.334l-.448 1.015.96.993c.214.213.32.491.32.78 0 .288-.116.576-.32.78l-.81.811c-.417.417-1.153.417-1.57 0l-.95-.94-1.024.395-.021 1.378a1.096 1.096 0 0 1-1.11 1.1zm-3.288-3.963c.139 0 .288.032.427.086l.982.406c.203.085.374.224.502.406.117.181.181.395.181.62V23.9l1.196.043.042-1.378c0-.225.065-.438.193-.62.117-.181.298-.32.501-.406l.982-.405c.203-.086.427-.107.64-.065.214.043.417.15.566.3l.95.95.876-.812-.95-1.004a1.1 1.1 0 0 1-.3-.566 1.1 1.1 0 0 1 .065-.64l.405-.983c.086-.203.224-.374.406-.502.181-.118.395-.182.62-.182h1.333l.043-1.196-1.377-.043c-.224 0-.438-.064-.619-.192a1.1 1.1 0 0 1-.406-.502l-.384-.94a1.1 1.1 0 0 1-.064-.64c.043-.215.15-.417.31-.567l.96-.94-.8-.876-1.014.94c-.16.15-.352.257-.566.3a1.05 1.05 0 0 1-.63-.065l-1.035-.438a1.08 1.08 0 0 1-.491-.406 1.13 1.13 0 0 1-.182-.608v-1.368l-1.195-.042-.043 1.378c0 .224-.064.438-.192.62-.117.18-.288.32-.49.405l-.994.406a1.1 1.1 0 0 1-.64.064 1.1 1.1 0 0 1-.566-.3l-.95-.95-.875.812.95 1.004c.16.16.256.352.299.566a1.1 1.1 0 0 1-.064.64l-.406.984a1.16 1.16 0 0 1-.405.502 1.15 1.15 0 0 1-.62.192H9.11l-.043 1.196 1.377.043c.224 0 .438.064.62.192.18.118.32.289.405.491l.406.994a1.1 1.1 0 0 1 .064.64c-.043.214-.15.417-.3.567l-.95.95.812.876 1.003-.95c.16-.16.353-.267.566-.3.075-.01.139-.02.213-.02zM16 18.8a1.8 1.8 0 1 0 0-3.6 1.8 1.8 0 0 0 0 3.6m2.8-1.8a2.8 2.8 0 1 1-5.6 0 2.8 2.8 0 0 1 5.6 0"/></svg>