<svg xmlns="http://www.w3.org/2000/svg" width="32" height="32" viewBox="0 0 32 32"><path d="M11 3a1 1 0 1 0-2 0v2h-.003a5 5 0 0 0-5 5v3a1 1 0 1 0 2 0v-3a3 3 0 0 1 3-3h14a3 3 0 0 1 3 3v4.583l-.29-.29a1 1 0 0 0-1.414 1.414l2 2a1 1 0 0 0 1.414 0l2-2a1 1 0 0 0-1.414-1.414l-.296.296V10A5 5 0 0 0 23 5V3a1 1 0 1 0-2 0v2H11V3ZM4.293 16.293a1 1 0 0 1 1.414 0l2 2a1 1 0 1 1-1.414 1.414l-.296-.296V24a3 3 0 0 0 3 3h14a3 3 0 0 0 3-3v-3a1 1 0 1 1 2 0v3a5 5 0 0 1-5 5h-14a5 5 0 0 1-5-5v-4.583l-.29.29a1 1 0 0 1-1.414-1.414l2-2Z"/><path fill-rule="evenodd" d="M15.924 11v.794a1.538 1.538 0 0 1-.95 1.421l-.923.383a1.54 1.54 0 0 1-1.677-.334l-.562-.561-.108.109.561.561a1.54 1.54 0 0 1 .333 1.677l-.382.923a1.541 1.541 0 0 1-1.421.95H10v.154h.794a1.539 1.539 0 0 1 1.421.95l.383.922a1.541 1.541 0 0 1-.333 1.677l-.562.562.109.109.561-.561a1.54 1.54 0 0 1 1.677-.334l.923.382a1.54 1.54 0 0 1 .95 1.422V23h.154v-.794a1.54 1.54 0 0 1 .95-1.421l.924-.383a1.54 1.54 0 0 1 1.675.333l.562.562.11-.109-.562-.561a1.54 1.54 0 0 1-.334-1.677l.382-.923a1.54 1.54 0 0 1 1.422-.95H22v-.154h-.792a1.539 1.539 0 0 1-1.424-.957m0 0-.36-.879a1.54 1.54 0 0 1 .347-1.68l.566-.555-.108-.11-.568.558a1.539 1.539 0 0 1-1.67.322l-.001-.001-.97-.407a1.54 1.54 0 0 1-.942-1.418V11h-.154m2.556.658.678-.666a1.538 1.538 0 0 1 2.175.02l.754.768a1.544 1.544 0 0 1 .318 1.68c-.08.187-.194.356-.338.497l-.674.66.125.306h.944A1.538 1.538 0 0 1 24 16.462v1.076a1.538 1.538 0 0 1-1.538 1.539h-.948l-.146.353.67.67a1.538 1.538 0 0 1 0 2.176l-.762.761a1.539 1.539 0 0 1-2.175 0l-.67-.67-.354.147v.948A1.538 1.538 0 0 1 16.538 25h-1.077a1.539 1.539 0 0 1-1.538-1.538v-.948l-.353-.146-.67.67a1.538 1.538 0 0 1-2.176 0l-.761-.762a1.539 1.539 0 0 1 0-2.175l.67-.67-.147-.354h-.948A1.539 1.539 0 0 1 8 17.538v-1.076a1.539 1.539 0 0 1 1.538-1.539h.948l.147-.354-.67-.67a1.539 1.539 0 0 1 0-2.175l.761-.762a1.54 1.54 0 0 1 2.176 0l.67.67.354-.146v-.947A1.539 1.539 0 0 1 15.462 9h1.077a1.538 1.538 0 0 1 1.538 1.539v.95l.403.168ZM13.788 22.15Zm-.503.1Zm4.928-.1Zm3.037-2.435Zm.026-5.384Zm-.717-1.912Zm.107.11Zm-.006.653Zm-.145 8.441Zm-9.138-8.485Z" clip-rule="evenodd"/><path d="M16 19.4a2.4 2.4 0 1 0 0-4.8 2.4 2.4 0 0 0 0 4.8Z"/><path fill-rule="evenodd" d="M16 17.4a.4.4 0 1 0 0-.8.4.4 0 0 0 0 .8Zm2.4-.4a2.4 2.4 0 1 1-4.8 0 2.4 2.4 0 0 1 4.8 0Z" clip-rule="evenodd"/></svg>