<svg xmlns="http://www.w3.org/2000/svg" width="32" height="32" viewBox="0 0 32 32"><path d="M13.5 2.5c.276 0 .5.208.5.464v25.072c0 .256-.224.464-.5.464s-.5-.208-.5-.464V2.964c0-.256.224-.464.5-.464M26 23a.5.5 0 0 0-1 0v2.5h-2.5a.5.5 0 0 0 0 1H25V29a.5.5 0 0 0 1 0v-2.5h2.5a.5.5 0 0 0 0-1H26zM9 7a.5.5 0 0 0-1 0v17a.5.5 0 1 0 1 0zM3.5 12.5a.5.5 0 0 1 .5.5v5a.5.5 0 0 1-1 0v-5a.5.5 0 0 1 .5-.5M19 9a.5.5 0 0 0-1 0v13a.5.5 0 1 0 1 0zM23.5 10.5a.5.5 0 0 1 .5.5v9a.5.5 0 0 1-1 0v-9a.5.5 0 0 1 .5-.5M29 13a.5.5 0 1 0-1 0v5a.5.5 0 0 0 1 0z"/></svg>