<svg xmlns="http://www.w3.org/2000/svg" width="32" height="32" viewBox="0 0 32 32"><path d="M10.75 3a.75.75 0 0 0-1.5 0v2.25h-.253A4.75 4.75 0 0 0 4.247 10v3a.75.75 0 0 0 1.5 0v-3a3.25 3.25 0 0 1 3.25-3.25h14a3.25 3.25 0 0 1 3.25 3.25v5.186l-.717-.716a.75.75 0 1 0-1.06 1.06l2 2a.75.75 0 0 0 1.06 0l2-2a.75.75 0 1 0-1.06-1.06l-.723.722V10a4.75 4.75 0 0 0-4.75-4.75h-.247V3a.75.75 0 0 0-1.5 0v2.25h-10.5zM4.47 16.47a.75.75 0 0 1 1.06 0l2 2a.75.75 0 1 1-1.06 1.06l-.723-.722V24a3.25 3.25 0 0 0 3.25 3.25h14a3.25 3.25 0 0 0 3.25-3.25v-3a.75.75 0 0 1 1.5 0v3a4.75 4.75 0 0 1-4.75 4.75h-14A4.75 4.75 0 0 1 4.247 24v-5.186l-.717.716a.75.75 0 0 1-1.06-1.06zM16.552 25h-1.104c-.364 0-.717-.143-.97-.408a1.36 1.36 0 0 1-.409-.971v-1.104l-.607-.254-.783.784c-.519.518-1.435.518-1.953 0l-.784-.784a1.36 1.36 0 0 1 0-1.942l.784-.783-.254-.607H9.368c-.364 0-.717-.143-.97-.408a1.4 1.4 0 0 1-.409-.971v-1.104c0-.364.143-.717.408-.97.265-.266.607-.409.971-.409h1.104l.254-.607-.784-.783a1.36 1.36 0 0 1 0-1.942l.784-.784c.518-.518 1.434-.518 1.953 0l.783.784.607-.254v-1.104c0-.364.143-.717.408-.97.265-.266.607-.409.971-.409h1.104c.364 0 .717.143.97.408.266.265.409.607.409.971v1.104l.651.276.784-.773c.264-.254.584-.43.982-.397.364 0 .717.154.97.408l.773.784c.132.132.232.287.298.452s.1.353.1.53c0 .176-.045.353-.111.518s-.177.32-.298.442l-.783.772.231.563h1.104c.364 0 .717.143.97.408.266.265.409.607.409.971v1.104c0 .364-.143.717-.408.97a1.4 1.4 0 0 1-.971.409h-1.104l-.253.607.783.783a1.36 1.36 0 0 1 0 1.942l-.784.784c-.518.518-1.423.518-1.953 0l-.783-.784-.607.254v1.104c0 .364-.143.706-.397.97a1.37 1.37 0 0 1-.982.409zm-.828-1.655h.552V22.33c0-.276.077-.541.232-.762a1.3 1.3 0 0 1 .617-.507l.95-.398a1.4 1.4 0 0 1 .794-.077c.265.055.508.188.706.375l.717.718.387-.387-.718-.717a1.4 1.4 0 0 1-.375-.706 1.44 1.44 0 0 1 .077-.806l.387-.948c.11-.254.287-.464.507-.618.22-.155.497-.232.762-.232h1.015v-.552H21.33a1.4 1.4 0 0 1-.773-.232 1.35 1.35 0 0 1-.507-.629l-.364-.893c-.1-.254-.133-.541-.078-.806a1.4 1.4 0 0 1 .386-.706l.74-.717-.397-.387-.729.718c-.198.187-.441.32-.706.375-.276.055-.54.022-.794-.077l-.994-.42a1.37 1.37 0 0 1-.85-1.269v-1.015h-.55v1.015c0 .276-.078.541-.233.762a1.32 1.32 0 0 1-.618.507l-.948.386c-.254.11-.53.133-.795.078a1.47 1.47 0 0 1-.706-.375l-.717-.718-.387.387.718.717c.187.187.32.441.375.706a1.43 1.43 0 0 1-.078.806l-.386.948a1.38 1.38 0 0 1-1.28.85H9.644v.552h1.015a1.38 1.38 0 0 1 1.28.85l.398.948a1.38 1.38 0 0 1-.298 1.501l-.718.717.387.387.717-.718c.187-.187.43-.32.706-.375.265-.055.552-.022.806.077l.949.387c.253.11.463.287.617.507.155.22.232.486.232.762v1.015zM16 18.1a1.1 1.1 0 1 0 0-2.2 1.1 1.1 0 0 0 0 2.2m2.6-1.1a2.6 2.6 0 1 1-5.2 0 2.6 2.6 0 0 1 5.2 0"/></svg>