<svg xmlns="http://www.w3.org/2000/svg" width="32" height="32" viewBox="0 0 32 32"><path d="M24.446 24.778a11.41 11.41 0 0 0 2.026-12.503 5.58 5.58 0 0 0-1.205-7.69 5.476 5.476 0 0 0-7.61 1.048A11.5 11.5 0 0 0 16 5.5q-.845.006-1.682.137a5.39 5.39 0 0 0-7.591-1.016 5.537 5.537 0 0 0-1.2 7.654A11.41 11.41 0 0 0 7.55 24.773l-2.902 2.872a.5.5 0 1 0 .703.71l2.907-2.876a11.43 11.43 0 0 0 15.48.004l2.91 2.872a.5.5 0 1 0 .703-.71zm-3.112-20.23a4.43 4.43 0 0 1 3.34.843 4.56 4.56 0 0 1 1.26 5.842 11.53 11.53 0 0 0-7.142-5.376 4.46 4.46 0 0 1 2.542-1.31M5.55 8.383a4.5 4.5 0 0 1 1.776-2.961 4.37 4.37 0 0 1 5.86.44 11.53 11.53 0 0 0-7.12 5.37 4.56 4.56 0 0 1-.516-2.85M5.5 17A10.51 10.51 0 0 1 16 6.5 10.39 10.39 0 0 1 26.5 17a10.5 10.5 0 0 1-21 0M16.5 16.793V12a.5.5 0 1 0-1 0v5a.5.5 0 0 0 .146.354l2 2a.5.5 0 1 0 .707-.707z"/></svg>