<svg xmlns="http://www.w3.org/2000/svg" width="32" height="32" viewBox="0 0 32 32"><path d="M27.606 11.206c.367-.97.48-2.017.327-3.042a6 6 0 0 0-2.36-3.942 5.91 5.91 0 0 0-4.463-1.124 6 6 0 0 0-2.717 1.162 13.03 13.03 0 0 1 9.213 6.946M13.607 4.26a5.987 5.987 0 0 0-9.541 3.904 6.1 6.1 0 0 0 .327 3.043 13.03 13.03 0 0 1 9.214-6.947M27.706 27.32l-3.281-3.266a10.975 10.975 0 1 0-16.854-.005l-3.277 3.273a1 1 0 1 0 1.413 1.414l3.278-3.274a10.946 10.946 0 0 0 14.024.006l3.285 3.27a1 1 0 0 0 1.412-1.418m-8.999-7.584a1 1 0 0 1-1.414 0l-2-2A1 1 0 0 1 15 17.03v-5a1 1 0 1 1 2 0v4.586l1.707 1.707a1 1 0 0 1 0 1.414"/></svg>