<svg xmlns="http://www.w3.org/2000/svg" width="32" height="32" viewBox="0 0 32 32"><path d="M25.138 24.759a11.96 11.96 0 0 0 1.91-12.44 6.09 6.09 0 0 0-1.481-8.134 5.947 5.947 0 0 0-8.1.914 11 11 0 0 0-2.932 0 5.9 5.9 0 0 0-8.108-.878 6.04 6.04 0 0 0-1.476 8.098 11.96 11.96 0 0 0 1.907 12.435L4.296 27.29a1 1 0 0 0 1.407 1.422l2.57-2.543a11.955 11.955 0 0 0 15.45.003l2.575 2.541a1 1 0 0 0 1.404-1.424zM21.41 5.042a3.92 3.92 0 0 1 2.964.75 4.04 4.04 0 0 1 1.582 2.664 4.1 4.1 0 0 1-.113 1.698 12.04 12.04 0 0 0-6.009-4.515 4 4 0 0 1 1.576-.597M6.044 8.456a4 4 0 0 1 1.582-2.634 3.86 3.86 0 0 1 4.526-.178 12.04 12.04 0 0 0-5.995 4.51 4.1 4.1 0 0 1-.113-1.698M6 17A10.01 10.01 0 0 1 16 7a9.893 9.893 0 0 1 10 10 10 10 0 1 1-20 0M17 16.586V12a1 1 0 1 0-2 0v5a1 1 0 0 0 .293.707l2 2a1 1 0 1 0 1.414-1.414z"/></svg>