<svg xmlns="http://www.w3.org/2000/svg" width="32" height="32" viewBox="0 0 32 32"><path d="M24.792 24.768a11.68 11.68 0 0 0 1.963-12.482 5.813 5.813 0 0 0-1.338-7.901 5.71 5.71 0 0 0-7.856.981A12 12 0 0 0 16 5.25q-.797.006-1.587.12a5.62 5.62 0 0 0-7.836-.949 5.766 5.766 0 0 0-1.333 7.865 11.68 11.68 0 0 0 1.96 12.478l-2.732 2.703a.75.75 0 1 0 1.055 1.066l2.739-2.71a11.68 11.68 0 0 0 15.463.004l2.744 2.707a.75.75 0 0 0 1.054-1.068zm-3.42-19.973a4.17 4.17 0 0 1 3.151.796 4.31 4.31 0 0 1 1.386 5.122 11.79 11.79 0 0 0-6.614-4.984 4.25 4.25 0 0 1 2.077-.934M5.797 8.42a4.26 4.26 0 0 1 1.679-2.798 4.11 4.11 0 0 1 5.208.112 11.8 11.8 0 0 0-6.594 4.979 4.3 4.3 0 0 1-.293-2.293M5.75 17A10.26 10.26 0 0 1 16 6.75 10.14 10.14 0 0 1 26.25 17a10.25 10.25 0 0 1-20.5 0M16.75 16.69V12a.75.75 0 1 0-1.5 0v5a.75.75 0 0 0 .22.53l2 2a.75.75 0 1 0 1.06-1.06z"/></svg>