<svg xmlns="http://www.w3.org/2000/svg" width="32" height="32" viewBox="0 0 32 32"><path d="M27 23.5h-1.552l-1.076-9.604A8.312 8.312 0 0 0 19.5 7.257V6a3.477 3.477 0 0 0-1.025-2.475 3.584 3.584 0 0 0-4.95 0A3.478 3.478 0 0 0 12.5 6v1.257a8.313 8.313 0 0 0-4.873 6.639L6.553 23.5H5a.5.5 0 1 0 0 1h6.5v.5a4.5 4.5 0 0 0 9 0v-.5H27a.5.5 0 1 0 0-1ZM13.5 6a2.487 2.487 0 0 1 .732-1.768 2.559 2.559 0 0 1 3.536 0A2.485 2.485 0 0 1 18.5 6v.879a8.444 8.444 0 0 0-5 0V6ZM8.62 14.008a7.437 7.437 0 0 1 14.757-.001l1.063 9.493H7.56l1.062-9.492ZM19.501 25a3.5 3.5 0 0 1-7.001 0v-.5h7v.5Z"/></svg>