<svg xmlns="http://www.w3.org/2000/svg" width="32" height="32" viewBox="0 0 32 32"><path d="M29.354 28.646 25.206 24.5H27a.5.5 0 1 0 0-1h-1.552l-1.076-9.604A8.311 8.311 0 0 0 19.5 7.257V6a3.477 3.477 0 0 0-1.025-2.475 3.584 3.584 0 0 0-4.95 0A3.476 3.476 0 0 0 12.5 6v1.257a8.446 8.446 0 0 0-2.65 1.886L3.353 2.647a.5.5 0 0 0-.707.707l26 26a.5.5 0 0 0 .707-.707ZM13.5 6a2.485 2.485 0 0 1 .732-1.768 2.559 2.559 0 0 1 3.536 0A2.485 2.485 0 0 1 18.5 6v.879a8.444 8.444 0 0 0-5 0V6Zm-2.94 3.854a7.446 7.446 0 0 1 12.818 4.153l1.063 9.493h-.234L10.56 9.854ZM7.56 23.5l1.061-9.492c.1-.874.357-1.723.761-2.504l-.738-.738a8.207 8.207 0 0 0-1.017 3.13L6.553 23.5H5a.5.5 0 0 0 0 1h6.5v.5a4.5 4.5 0 0 0 9 0v-.5h1.878l-1-1H7.56ZM19.5 25a3.5 3.5 0 0 1-7 0v-.5h7v.5Z"/></svg>