<svg xmlns="http://www.w3.org/2000/svg" width="32" height="32" viewBox="0 0 32 32"><path d="M27 23.25h-1.329l-1.05-9.383a8.56 8.56 0 0 0-4.87-6.773V6a3.726 3.726 0 0 0-1.1-2.651 3.841 3.841 0 0 0-5.302 0A3.726 3.726 0 0 0 12.25 6v1.094a8.563 8.563 0 0 0-4.87 6.774L6.33 23.25H5a.75.75 0 1 0 0 1.5h6.25V25a4.75 4.75 0 0 0 9.5 0v-.25H27a.75.75 0 1 0 0-1.5ZM13.75 6a2.234 2.234 0 0 1 .66-1.59 2.305 2.305 0 0 1 3.181 0 2.232 2.232 0 0 1 .66 1.59v.547a8.683 8.683 0 0 0-4.501 0V6Zm-4.88 8.035a7.187 7.187 0 0 1 14.26 0l1.032 9.215H7.838l1.032-9.215ZM19.25 25a3.25 3.25 0 0 1-6.5 0v-.25h6.5V25ZM28.376 7.632c-.806-2.479-3.51-4.04-6.06-3.499a.75.75 0 0 1-.31-1.467c3.3-.7 6.753 1.294 7.796 4.502a.75.75 0 1 1-1.426.464Z"/><path d="M22.286 6.604c1.03-.38 1.985-.275 2.714.146.729.421 1.297 1.195 1.484 2.277a.75.75 0 0 0 1.478-.255c-.256-1.483-1.065-2.659-2.212-3.32-1.147-.663-2.57-.776-3.982-.256a.75.75 0 0 0 .518 1.408ZM9.684 4.133c-2.55-.541-5.254 1.02-6.06 3.499a.75.75 0 1 1-1.426-.464C3.24 3.96 6.695 1.965 9.995 2.666a.75.75 0 1 1-.311 1.467Z"/><path d="M5.516 9.027C5.703 7.945 6.27 7.171 7 6.75c.729-.42 1.683-.526 2.714-.146a.75.75 0 0 0 .518-1.408c-1.412-.52-2.835-.407-3.982.255-1.147.662-1.956 1.838-2.212 3.321a.75.75 0 1 0 1.478.255Z"/></svg>