<svg xmlns="http://www.w3.org/2000/svg" width="32" height="32" viewBox="0 0 32 32"><path d="M9.684 4.133c-2.55-.541-5.254 1.02-6.06 3.499a.75.75 0 0 1-1.426-.464C3.24 3.96 6.695 1.965 9.995 2.666a.75.75 0 1 1-.311 1.467M28.376 7.632c-.806-2.479-3.51-4.04-6.06-3.499a.75.75 0 0 1-.31-1.467c3.3-.7 6.753 1.294 7.796 4.502a.75.75 0 1 1-1.426.464M27 23h-1.608l-1.019-9.106A8.31 8.31 0 0 0 19.5 7.258V6a3.48 3.48 0 0 0-1.025-2.475 3.59 3.59 0 0 0-4.95 0A3.48 3.48 0 0 0 12.5 6v1.258a8.31 8.31 0 0 0-4.873 6.637L6.61 23H5a1 1 0 1 0 0 2h22a1 1 0 0 0 0-2M16 30a5 5 0 0 0 4.576-2.999h-9.152a5 5 0 0 0 4.576 3M22.286 6.604c1.03-.38 1.985-.275 2.714.146s1.297 1.195 1.484 2.277a.75.75 0 0 0 1.478-.255c-.256-1.483-1.065-2.659-2.212-3.32-1.147-.663-2.57-.776-3.982-.256a.75.75 0 0 0 .518 1.408M5.516 9.027C5.703 7.945 6.27 7.171 7 6.75c.729-.42 1.683-.526 2.714-.146a.75.75 0 1 0 .518-1.408c-1.412-.52-2.835-.407-3.982.255S4.294 7.29 4.038 8.772a.75.75 0 1 0 1.478.255"/></svg>