<svg xmlns="http://www.w3.org/2000/svg" width="32" height="32" viewBox="0 0 32 32"><path d="M27 23.5h-1.552l-1.075-9.604A8.31 8.31 0 0 0 19.5 7.257V6a3.48 3.48 0 0 0-1.025-2.475 3.584 3.584 0 0 0-4.95 0A3.48 3.48 0 0 0 12.5 6v1.257a8.31 8.31 0 0 0-4.873 6.639L6.553 23.5H5a.5.5 0 0 0 0 1h6.5v.5a4.5 4.5 0 0 0 9 0v-.5H27a.5.5 0 0 0 0-1M13.5 6a2.49 2.49 0 0 1 .732-1.768 2.56 2.56 0 0 1 3.536 0A2.49 2.49 0 0 1 18.5 6v.879a8.44 8.44 0 0 0-5 0zm-4.878 8.008a7.437 7.437 0 0 1 14.756-.001l1.063 9.493H7.56zM19.5 25a3.5 3.5 0 0 1-7 0v-.5h7zM28.614 7.554c-.846-2.6-3.675-4.233-6.35-3.665a.5.5 0 1 1-.207-.978c3.175-.675 6.504 1.248 7.508 4.334a.5.5 0 1 1-.951.31M22.2 6.369c1.094-.403 2.126-.297 2.925.165.799.46 1.407 1.301 1.605 2.45a.5.5 0 1 0 .986-.17c-.245-1.416-1.014-2.524-2.091-3.146-1.078-.623-2.422-.734-3.77-.238a.5.5 0 1 0 .344.939M9.736 3.889C7.06 3.32 4.232 4.954 3.386 7.554a.5.5 0 1 1-.95-.309C3.439 4.16 6.768 2.236 9.943 2.911a.5.5 0 0 1-.207.978M5.27 8.985c.198-1.15.806-1.99 1.605-2.451s1.83-.568 2.925-.165a.5.5 0 1 0 .346-.939c-1.35-.496-2.693-.385-3.771.238-1.078.622-1.846 1.73-2.09 3.147a.5.5 0 0 0 .985.17"/></svg>