<svg xmlns="http://www.w3.org/2000/svg" width="32" height="32" viewBox="0 0 32 32"><path d="M16 30a5.002 5.002 0 0 0 4.576-2.999h-9.152a5.002 5.002 0 0 0 4.576 3ZM29.707 28.293 26.414 25H27a1 1 0 0 0 0-2h-1.608l-1.019-9.106A8.314 8.314 0 0 0 19.5 7.258V6a3.478 3.478 0 0 0-1.025-2.475 3.588 3.588 0 0 0-4.95 0A3.478 3.478 0 0 0 12.5 6v1.258c-.84.386-1.61.91-2.278 1.55L3.707 2.293a1 1 0 1 0-1.414 1.414l26 26a1 1 0 0 0 1.414-1.414ZM7.627 13.895 6.61 23H5a1 1 0 0 0 0 2h15.757L8.005 12.25a8.192 8.192 0 0 0-.378 1.646Z"/></svg>