<svg xmlns="http://www.w3.org/2000/svg" width="32" height="32" viewBox="0 0 32 32"><path d="M29.707 28.293 26.414 25H27a1 1 0 0 0 0-2h-1.105l-1.026-9.161A8.81 8.81 0 0 0 20 6.934v-.97a3.974 3.974 0 0 0-1.172-2.829 4.095 4.095 0 0 0-5.656 0A3.971 3.971 0 0 0 12 5.963v.97a8.786 8.786 0 0 0-2.14 1.514L3.708 2.293a1 1 0 0 0-1.414 1.414l26 26a1 1 0 0 0 1.414-1.414ZM14 5.983a1.986 1.986 0 0 1 .586-1.415 2.047 2.047 0 0 1 2.829 0A1.987 1.987 0 0 1 18 5.982v.25a8.754 8.754 0 0 0-4 0v-.25ZM16 8a6.878 6.878 0 0 1 6.881 6.063l.934 8.338L11.27 9.857A6.937 6.937 0 0 1 16 8ZM8.118 23l1-8.937c.023-.204.057-.406.098-.604l-1.61-1.61a8.738 8.738 0 0 0-.475 1.99L6.106 23H5a1 1 0 1 0 0 2h6a4.992 4.992 0 0 0 9.978.221l-2.221-2.22H8.117ZM16 28a3.004 3.004 0 0 1-3-3h6a3.004 3.004 0 0 1-3 3Z"/></svg>