<svg xmlns="http://www.w3.org/2000/svg" width="32" height="32" viewBox="0 0 32 32"><path d="M27 23h-1.105L24.87 13.84A8.81 8.81 0 0 0 20 6.934v-.97a3.972 3.972 0 0 0-1.172-2.829 4.095 4.095 0 0 0-5.656 0A3.971 3.971 0 0 0 12 5.963v.97a8.812 8.812 0 0 0-4.87 6.907L6.107 23H5a1 1 0 1 0 0 2h6a5 5 0 0 0 10 0h6a1 1 0 0 0 0-2ZM14 5.982a1.986 1.986 0 0 1 .586-1.414 2.047 2.047 0 0 1 2.829 0A1.987 1.987 0 0 1 18 5.982v.25a8.754 8.754 0 0 0-4 0v-.25Zm-4.882 8.081a6.937 6.937 0 0 1 13.763 0l1 8.937H8.119l1-8.937ZM16 28a3.004 3.004 0 0 1-3-3h6a3.004 3.004 0 0 1-3 3Z"/></svg>