<svg xmlns="http://www.w3.org/2000/svg" width="32" height="32" viewBox="0 0 32 32"><path d="m29.53 28.47-3.72-3.72H27a.75.75 0 0 0 0-1.5h-1.33l-1.05-9.383a8.56 8.56 0 0 0-4.87-6.773V6a3.726 3.726 0 0 0-1.098-2.651 3.841 3.841 0 0 0-5.304 0A3.726 3.726 0 0 0 12.25 6v1.094a8.61 8.61 0 0 0-2.39 1.705l-6.33-6.33A.75.75 0 0 0 2.47 3.53l26 26a.75.75 0 0 0 1.06-1.06ZM13.75 6a2.234 2.234 0 0 1 .66-1.59 2.305 2.305 0 0 1 3.181 0 2.232 2.232 0 0 1 .66 1.59v.547a8.684 8.684 0 0 0-4.501 0V6Zm-2.84 3.85a7.197 7.197 0 0 1 12.22 4.184l1.013 9.049L10.91 9.85ZM7.838 23.25l1.032-9.215a6.99 6.99 0 0 1 .382-1.6l-1.142-1.14a8.447 8.447 0 0 0-.73 2.573L6.33 23.25H5a.75.75 0 1 0 0 1.5h6.25V25a4.75 4.75 0 0 0 9.5 0v-.25h.816l-1.5-1.5H7.838ZM19.25 25a3.25 3.25 0 0 1-6.5 0v-.25h6.5V25Z"/></svg>