<svg xmlns="http://www.w3.org/2000/svg" width="32" height="32" viewBox="0 0 32 32"><path d="M27 23.25h-1.33l-1.05-9.383a8.56 8.56 0 0 0-4.87-6.773V6a3.726 3.726 0 0 0-1.098-2.651 3.841 3.841 0 0 0-5.304 0A3.726 3.726 0 0 0 12.25 6v1.094a8.563 8.563 0 0 0-4.87 6.774L6.33 23.25H5a.75.75 0 1 0 0 1.5h6.25V25a4.75 4.75 0 0 0 9.5 0v-.25H27a.75.75 0 0 0 0-1.5ZM13.75 6a2.234 2.234 0 0 1 .66-1.59 2.305 2.305 0 0 1 3.181 0 2.232 2.232 0 0 1 .66 1.59v.547a8.683 8.683 0 0 0-4.501 0V6Zm-4.88 8.035a7.187 7.187 0 0 1 14.26 0l1.032 9.215H7.838l1.032-9.215ZM19.25 25a3.25 3.25 0 0 1-6.5 0v-.25h6.5V25Z"/></svg>