<svg xmlns="http://www.w3.org/2000/svg" width="32" height="32" viewBox="0 0 32 32"><path d="M27 23h-1.105l-1.025-9.161A8.81 8.81 0 0 0 20 6.933v-.97a3.97 3.97 0 0 0-1.171-2.828 4.095 4.095 0 0 0-5.657 0A3.97 3.97 0 0 0 12 5.963v.97a8.81 8.81 0 0 0-4.87 6.907L6.107 23H5a1 1 0 0 0 0 2h6a5 5 0 0 0 10 0h6a1 1 0 1 0 0-2M14 5.982a1.99 1.99 0 0 1 .586-1.414 2.047 2.047 0 0 1 2.829 0A1.99 1.99 0 0 1 18 5.982v.25a8.75 8.75 0 0 0-4 0zm-4.882 8.081a6.937 6.937 0 0 1 13.763 0L23.882 23H8.118zM16 28a3.003 3.003 0 0 1-3-3h6a3.004 3.004 0 0 1-3 3M28.376 7.632c-.806-2.479-3.51-4.04-6.06-3.499a.75.75 0 0 1-.31-1.467c3.3-.7 6.753 1.294 7.796 4.502a.75.75 0 1 1-1.426.464M22.286 6.604c1.03-.38 1.985-.275 2.714.146s1.297 1.195 1.484 2.277a.75.75 0 0 0 1.478-.255c-.256-1.483-1.065-2.659-2.212-3.32-1.147-.663-2.57-.776-3.982-.256a.75.75 0 0 0 .518 1.408M9.684 4.133c-2.55-.541-5.254 1.02-6.06 3.499a.75.75 0 1 1-1.426-.464C3.24 3.96 6.695 1.965 9.995 2.666a.75.75 0 1 1-.311 1.467M5.516 9.027C5.703 7.945 6.27 7.171 7 6.75c.729-.42 1.683-.526 2.714-.146a.75.75 0 0 0 .518-1.408c-1.412-.52-2.835-.407-3.982.255S4.294 7.29 4.038 8.772a.75.75 0 1 0 1.478.255"/></svg>