<svg xmlns="http://www.w3.org/2000/svg" width="32" height="32" viewBox="0 0 32 32"><path d="m29.53 24.47-4-4a.75.75 0 1 0-1.06 1.06l2.72 2.72H21a.75.75 0 1 0 0 1.5h6.19l-2.72 2.72a.75.75 0 1 0 1.06 1.06l4-4a.75.75 0 0 0 0-1.06M27.288 4.713a4.99 4.99 0 0 0-7.06 0L3.762 21.177a1.74 1.74 0 0 0-.513 1.237V27A1.75 1.75 0 0 0 5 28.75h4.586a1.74 1.74 0 0 0 1.237-.513l16.465-16.464a5 5 0 0 0 0-7.06m-1.06 6L9.762 27.177a.25.25 0 0 1-.177.073H5a.25.25 0 0 1-.25-.25v-4.586c0-.066.027-.13.073-.177L21.288 5.773a3.493 3.493 0 0 1 4.94 4.94"/></svg>