<svg xmlns="http://www.w3.org/2000/svg" width="32" height="32" viewBox="0 0 32 32"><path d="m29.708 24.293-4-4a.999.999 0 0 0-1.716.704 1 1 0 0 0 .302.71L26.587 24H21a1 1 0 0 0 0 2h5.587l-2.293 2.293a.999.999 0 0 0 .704 1.716 1 1 0 0 0 .71-.302l4-4a1 1 0 0 0 0-1.414ZM27.464 4.536a5.242 5.242 0 0 0-7.414 0L3.586 21A1.985 1.985 0 0 0 3 22.414V27a2.002 2.002 0 0 0 2 2h4.586A1.986 1.986 0 0 0 11 28.414L27.464 11.95a5.249 5.249 0 0 0 0-7.414Zm-1.414 6L9.586 27H5v-4.586L21.464 5.95a3.243 3.243 0 1 1 4.586 4.586Z"/></svg>