<svg xmlns="http://www.w3.org/2000/svg" width="32" height="32" viewBox="0 0 32 32"><path d="m29.354 24.647-4-4a.5.5 0 0 0-.707.707l3.147 3.146H21a.5.5 0 0 0 0 1h6.794l-3.147 3.147a.499.499 0 1 0 .707.707l4-4a.5.5 0 0 0 0-.707M27.11 4.89a4.743 4.743 0 0 0-6.706 0L3.94 21.353a1.5 1.5 0 0 0-.44 1.06V27A1.5 1.5 0 0 0 5 28.5h4.586a1.5 1.5 0 0 0 1.06-.44l16.465-16.464a4.75 4.75 0 0 0 0-6.707M9.94 27.353a.5.5 0 0 1-.354.146H5a.5.5 0 0 1-.5-.5v-4.586c0-.133.053-.26.146-.354L21.112 5.597a3.743 3.743 0 1 1 5.293 5.293z"/></svg>