<svg xmlns="http://www.w3.org/2000/svg" width="32" height="32" fill="none" viewBox="0 0 32 32"><path fill="#000" d="M22.82 19.002h-7.91v1.789h7.91c.78 0 1.41.642 1.41 1.424h-7.38a3.887 3.887 0 0 0-3.891 3.892A3.887 3.887 0 0 0 16.85 30h9.168v-7.785c0-1.764-1.436-3.2-3.199-3.2zm-5.97 9.184a2.107 2.107 0 0 1-2.103-2.104c0-1.159.944-2.104 2.103-2.104h7.38v4.208z"/><path fill="#DB271C" d="M28.046 8.911a3.955 3.955 0 1 0-.002-7.91 3.955 3.955 0 0 0 .002 7.91M2.191 29.56a2.192 2.192 0 1 0 0-4.384 2.192 2.192 0 0 0 0 4.383"/><path fill="url(#a)" d="M22.517 5.762h1.65a4.3 4.3 0 0 1-.088-.806v-.303H22.39C10.994 4.666 1.725 13.698 1.725 24.86v.378c.151-.038.315-.05.466-.05.265 0 .53.05.768.138v-.466c0-10.544 8.753-19.085 19.558-19.085z"/><defs><linearGradient id="a" x1="12.946" x2="12.946" y1="25.314" y2="4.666" gradientUnits="userSpaceOnUse"><stop offset=".03" stop-color="#fff"/><stop offset=".9" stop-color="#D9221C"/></linearGradient></defs></svg>