<svg xmlns="http://www.w3.org/2000/svg" width="32" height="33" fill="none" viewBox="0 0 32 33"><path fill="#000" d="M22.82 19.332H14.91v1.79h7.909c.78 0 1.41.642 1.41 1.423h-7.38a3.887 3.887 0 0 0-3.891 3.892 3.886 3.886 0 0 0 3.891 3.893h9.168v-7.785c0-1.764-1.435-3.2-3.198-3.2zm-5.97 9.184a2.107 2.107 0 0 1-2.103-2.104c0-1.159.945-2.104 2.103-2.104h7.38v4.208z"/><path fill="#DB271C" d="M28.046 9.241a3.955 3.955 0 1 0-.001-7.91 3.955 3.955 0 0 0 .001 7.91M2.191 29.89a2.192 2.192 0 1 0 0-4.384 2.192 2.192 0 0 0 0 4.383"/><path fill="url(#a)" d="M22.516 6.092h1.65a4.3 4.3 0 0 1-.088-.806v-.303h-1.687C10.993 4.996 1.724 14.03 1.724 25.19v.378c.15-.038.314-.05.466-.05.264 0 .528.05.768.138v-.466c0-10.544 8.752-19.085 19.557-19.085z"/><defs><linearGradient id="a" x1="12.945" x2="12.945" y1="25.644" y2="4.996" gradientUnits="userSpaceOnUse"><stop offset=".03" stop-color="#fff"/><stop offset=".9" stop-color="#D9221C"/></linearGradient></defs></svg>