<svg xmlns="http://www.w3.org/2000/svg" width="32" height="32" viewBox="0 0 32 32"><path d="M7.001 6.5a3 3 0 0 0-3 3v10A3 3 0 0 0 5.7 22.198v.001l.05.023a1 1 0 0 1 .567.902v.057a1 1 0 0 1-.117.469 6.3 6.3 0 0 1-1.467 1.829c1.069.09 2.649-.173 4.027-1.217l.028-.02c.123-.087.277-.215.472-.385l.143-.124c.15-.131.316-.276.476-.409.214-.177.462-.368.719-.518.23-.134.595-.312 1.02-.306h13.384a3 3 0 0 0 3-3v-10a3 3 0 0 0-3-3zM3.836 26.12l.009-.008zm-.37-20.156A5 5 0 0 1 7 4.5h18a5 5 0 0 1 5 5v10a5 5 0 0 1-5 5H11.668l-.065.035a4 4 0 0 0-.452.331c-.136.113-.27.23-.414.356l-.167.145c-.19.166-.406.35-.616.499-1.907 1.439-4.104 1.768-5.617 1.582a4.6 4.6 0 0 1-1.066-.25c-.301-.113-.639-.289-.894-.568-.282-.31-.5-.812-.301-1.377.162-.459.531-.742.834-.913.39-.241.736-.543 1.028-.892A5 5 0 0 1 2.001 19.5V9.5a5 5 0 0 1 1.465-3.536m11.24 1.829a1 1 0 0 1 .001 1.414L13.414 10.5H20a1 1 0 1 1 0 2h-6.586l1.293 1.293a1 1 0 0 1-1.414 1.414l-3-2.999a1 1 0 0 1 0-1.414l3-3.001a1 1 0 0 1 1.414 0m2.587 6a1 1 0 0 1 1.414 0l3 3a1 1 0 0 1 0 1.414l-3 3a1 1 0 0 1-1.414-1.414l1.293-1.293H12a1 1 0 0 1 0-2h6.586l-1.293-1.293a1 1 0 0 1 0-1.414"/></svg>