<svg xmlns="http://www.w3.org/2000/svg" width="32" height="32" viewBox="0 0 32 32"><path d="M7.001 6.25a3.25 3.25 0 0 0-3.25 3.25v10a3.25 3.25 0 0 0 1.84 2.924l.05.024a.75.75 0 0 1 .425.676v.057a.75.75 0 0 1-.088.352 6 6 0 0 1-1.853 2.101q.183.047.424.077c1.123.138 2.857-.11 4.361-1.25l.013-.01.008-.005a7 7 0 0 0 .492-.4l.145-.127c.15-.13.312-.272.469-.402.21-.174.447-.355.686-.494.219-.128.536-.278.893-.273H25a3.25 3.25 0 0 0 3.25-3.25v-10a3.25 3.25 0 0 0-3.25-3.25zm-3.359-.109a4.75 4.75 0 0 1 3.36-1.391h18a4.75 4.75 0 0 1 4.75 4.75v10a4.75 4.75 0 0 1-4.75 4.75H11.62c-.013.004-.058.02-.143.069a4 4 0 0 0-.485.355q-.208.173-.422.362l-.163.143c-.192.166-.4.343-.6.485-1.85 1.397-3.982 1.714-5.44 1.536a4.4 4.4 0 0 1-1.008-.235c-.283-.107-.58-.265-.797-.503-.238-.262-.412-.67-.25-1.126.133-.377.443-.622.725-.78a4.5 4.5 0 0 0 1.257-1.157 4.75 4.75 0 0 1-2.043-3.898V9.5c0-1.26.5-2.468 1.391-3.359M14.53 7.97a.75.75 0 0 1 0 1.06l-1.72 1.72H20a.75.75 0 0 1 0 1.5h-7.19l1.72 1.72a.75.75 0 1 1-1.06 1.06l-3-2.998a.75.75 0 0 1 0-1.061l3-3.001a.75.75 0 0 1 1.06 0m2.94 6a.75.75 0 0 1 1.06 0l3 3a.75.75 0 0 1 0 1.06l-3 3a.75.75 0 0 1-1.06-1.06l1.719-1.72h-7.19a.75.75 0 0 1 0-1.5h7.19l-1.72-1.72a.75.75 0 0 1 0-1.06"/></svg>