<svg xmlns="http://www.w3.org/2000/svg" width="32" height="32" viewBox="0 0 32 32"><path d="M7.001 6a3.5 3.5 0 0 0-3.5 3.5v10a3.5 3.5 0 0 0 1.982 3.15l.05.023a.5.5 0 0 1 .283.451v.057a.5.5 0 0 1-.058.234 5.77 5.77 0 0 1-2.18 2.274q.074.05.223.106c.183.07.426.129.718.165 1.179.144 2.98-.117 4.542-1.3l.014-.01c.146-.103.317-.246.512-.415l.146-.127.003-.003c.148-.13.306-.268.46-.395.208-.172.431-.343.653-.472.208-.12.477-.243.765-.238h13.387a3.5 3.5 0 0 0 3.5-3.5v-10a3.5 3.5 0 0 0-3.5-3.5zm-3.182.318A4.5 4.5 0 0 1 7.001 5h18a4.5 4.5 0 0 1 4.5 4.5v10a4.5 4.5 0 0 1-4.5 4.5H11.597s-.018 0-.065.016a1 1 0 0 0-.18.087c-.15.087-.325.217-.519.378q-.213.178-.43.369l-.16.14a8 8 0 0 1-.584.473c-1.793 1.354-3.86 1.66-5.261 1.49a4.1 4.1 0 0 1-.95-.222c-.265-.1-.52-.24-.701-.438-.194-.213-.322-.527-.2-.874.105-.295.355-.502.617-.648.595-.367 1.1-.859 1.483-1.44A4.5 4.5 0 0 1 2.5 19.5V9.5A4.5 4.5 0 0 1 3.82 6.318m10.534 1.828a.5.5 0 0 1 0 .707L12.209 11H20a.5.5 0 1 1 0 1h-7.794l2.147 2.146a.5.5 0 1 1-.707.708l-3-3a.5.5 0 0 1 0-.706l3-3.001a.5.5 0 0 1 .707 0m3.293 6a.5.5 0 0 1 .707 0l3 3a.5.5 0 0 1 0 .708l-3 3a.5.5 0 0 1-.707-.708L19.793 18H12a.5.5 0 1 1 0-1h7.793l-2.147-2.146a.5.5 0 0 1 0-.708"/></svg>