<svg xmlns="http://www.w3.org/2000/svg" width="32" height="33" viewBox="0 0 32 33"><path fill-rule="evenodd" d="M18.73 4.306a.75.75 0 0 1-.896.566A8.316 8.316 0 0 0 16 4.668c-4.549 0-8.25 3.701-8.25 8.25v7a.75.75 0 0 1-.75.75c-2.62 0-4.75-2.13-4.75-4.75 0-2.4 1.809-4.389 4.15-4.706.808-4.565 4.806-8.044 9.6-8.044a9.81 9.81 0 0 1 2.164.241.75.75 0 0 1 .566.897ZM3.75 15.918a3.256 3.256 0 0 0 2.5 3.163l.001-6.316c-1.435.354-2.501 1.633-2.501 3.153Zm24.501 0a.75.75 0 0 1 1.5 0c0 .405-.05.804-.151 1.186-.493 1.885-2.091 3.25-4 3.51-.648 3.67-3.357 6.637-6.886 7.662A2.744 2.744 0 0 1 16 30.668a2.753 2.753 0 0 1-2.75-2.75 2.753 2.753 0 0 1 2.75-2.75c1.11 0 2.062.664 2.496 1.612 3.332-1.06 5.754-4.183 5.754-7.862v-1a.75.75 0 0 1 1.5 0v1c0 .026-.001.051-.003.076a1.316 1.316 0 0 0-.003.067c1.157-.285 2.097-1.16 2.404-2.337.068-.256.103-.534.103-.806Zm-13.501 12a1.251 1.251 0 0 0 2.5 0 1.251 1.251 0 0 0-2.5 0ZM23.39 5.16a.75.75 0 0 0-1.42-.075l-1.588 3.973h-2.604a.75.75 0 0 0 0 1.5h3.111a.75.75 0 0 0 .697-.472l.958-2.395 1.623 5.765a.75.75 0 0 0 1.389.14l1.568-3.038h2.654a.75.75 0 1 0 0-1.5h-3.11a.75.75 0 0 0-.667.406l-.905 1.754-1.707-6.058Z" clip-rule="evenodd"/></svg>