<svg xmlns="http://www.w3.org/2000/svg" width="32" height="32" viewBox="0 0 32 32"><path d="M18.486 3.333a.497.497 0 0 1-.597.377A8.6 8.6 0 0 0 16 3.5c-4.687 0-8.5 3.814-8.5 8.5v7a.5.5 0 0 1-.5.5A4.505 4.505 0 0 1 2.5 15c0-2.335 1.809-4.26 4.115-4.48C7.327 5.983 11.265 2.5 16 2.5c.71 0 1.42.08 2.11.235.269.061.438.329.376.598M3.5 15c0 1.76 1.306 3.22 3 3.465l.01-6.924c-1.702.259-3.01 1.711-3.01 3.46M28.501 15a.5.5 0 1 1 1 0c0 .383-.048.76-.144 1.122-.482 1.846-2.084 3.16-3.975 3.342-.579 3.718-3.322 6.724-6.898 7.695A2.495 2.495 0 0 1 16 29.5a2.5 2.5 0 0 1-2.5-2.5c0-1.379 1.121-2.5 2.5-2.5 1.084 0 2 .697 2.345 1.663C21.894 25.143 24.5 21.874 24.5 18v-1a.5.5 0 1 1 1 0v1q-.001.165-.012.328l-.007.128c1.391-.209 2.55-1.212 2.91-2.587A3.5 3.5 0 0 0 28.5 15M14.5 27c0 .827.673 1.5 1.5 1.5s1.5-.673 1.5-1.5-.673-1.5-1.5-1.5-1.5.673-1.5 1.5M23.149 4.309a.5.5 0 0 0-.946-.05l-1.652 4.13h-2.773a.5.5 0 0 0 0 1h3.111a.5.5 0 0 0 .465-.314l1.23-3.079 1.824 6.473a.5.5 0 0 0 .926.094l1.638-3.174h2.806a.5.5 0 1 0 0-1h-3.11a.5.5 0 0 0-.445.27l-1.196 2.318z"/></svg>