<svg xmlns="http://www.w3.org/2000/svg" width="32" height="32" viewBox="0 0 32 32"><path d="M26 4.25h-2A1.75 1.75 0 0 0 22.25 6v16A1.75 1.75 0 0 0 24 23.75h2A1.75 1.75 0 0 0 27.75 22V6A1.753 1.753 0 0 0 26 4.25M26.25 22a.25.25 0 0 1-.25.25h-2a.25.25 0 0 1-.25-.25V6a.25.25 0 0 1 .25-.25h2a.25.25 0 0 1 .25.25zM15 23.75h2A1.75 1.75 0 0 0 18.75 22v-8A1.75 1.75 0 0 0 17 12.25h-2A1.75 1.75 0 0 0 13.25 14v8A1.75 1.75 0 0 0 15 23.75M14.75 14a.25.25 0 0 1 .25-.25h2a.25.25 0 0 1 .25.25v8a.25.25 0 0 1-.25.25h-2a.25.25 0 0 1-.25-.25zM6.007 23.75h2A1.75 1.75 0 0 0 9.757 22V9a1.75 1.75 0 0 0-1.75-1.75h-2A1.75 1.75 0 0 0 4.257 9v13a1.75 1.75 0 0 0 1.75 1.75M5.757 9a.25.25 0 0 1 .25-.25h2a.25.25 0 0 1 .25.25v13a.25.25 0 0 1-.25.25h-2a.25.25 0 0 1-.25-.25zM27 26.25H5a.75.75 0 1 0 0 1.5h22a.75.75 0 0 0 0-1.5"/></svg>