<svg xmlns="http://www.w3.org/2000/svg" width="32" height="32" viewBox="0 0 32 32"><path d="M18.73 3.388a.75.75 0 0 1-.896.566A8.3 8.3 0 0 0 16 3.75c-4.549 0-8.25 3.701-8.25 8.25v7a.75.75 0 0 1-.75.75c-2.62 0-4.75-2.13-4.75-4.75 0-2.4 1.809-4.389 4.15-4.706.808-4.565 4.806-8.044 9.6-8.044a9.8 9.8 0 0 1 2.164.241.75.75 0 0 1 .566.897M3.75 15a3.256 3.256 0 0 0 2.5 3.163l.001-6.316C4.816 12.2 3.75 13.48 3.75 15M28.251 15a.75.75 0 0 1 1.5 0c0 .404-.05.804-.151 1.186-.493 1.885-2.091 3.25-4 3.51-.648 3.67-3.357 6.637-6.886 7.662A2.744 2.744 0 0 1 16 29.75 2.753 2.753 0 0 1 13.25 27 2.753 2.753 0 0 1 16 24.25c1.11 0 2.062.663 2.496 1.612 3.332-1.06 5.754-4.183 5.754-7.862v-1a.75.75 0 0 1 1.5 0v1q0 .039-.003.076l-.003.067c1.157-.285 2.097-1.16 2.404-2.337.068-.256.103-.534.103-.806M14.75 27a1.251 1.251 0 0 0 2.5 0 1.251 1.251 0 0 0-2.5 0M23.39 4.241a.75.75 0 0 0-1.42-.075l-1.588 3.973h-2.604a.75.75 0 0 0 0 1.5h3.111a.75.75 0 0 0 .697-.472l.958-2.395 1.624 5.765a.75.75 0 0 0 1.388.14l1.568-3.038h2.654a.75.75 0 0 0 0-1.5h-3.11a.75.75 0 0 0-.667.406l-.905 1.754z"/></svg>