<svg xmlns="http://www.w3.org/2000/svg" width="32" height="32" viewBox="0 0 32 32"><path d="M26 4h-2a2.003 2.003 0 0 0-2 2v16a2.003 2.003 0 0 0 2 2h2a2.003 2.003 0 0 0 2-2V6a2.003 2.003 0 0 0-2-2m0 17.5a.5.5 0 0 1-.5.5h-1a.5.5 0 0 1-.5-.5v-15a.5.5 0 0 1 .5-.5h1a.5.5 0 0 1 .5.5zM15 24h2a2.003 2.003 0 0 0 2-2v-8a2.003 2.003 0 0 0-2-2h-2a2.003 2.003 0 0 0-2 2v8a2.003 2.003 0 0 0 2 2m0-9.5a.5.5 0 0 1 .5-.5h1a.5.5 0 0 1 .5.5v7a.5.5 0 0 1-.5.5h-1a.5.5 0 0 1-.5-.5zM6.007 24h2a2.003 2.003 0 0 0 2-2V9a2.003 2.003 0 0 0-2-2h-2a2.003 2.003 0 0 0-2 2v13a2 2 0 0 0 2 2m0-14.5a.5.5 0 0 1 .5-.5h1a.5.5 0 0 1 .5.5v12a.5.5 0 0 1-.5.5h-1a.5.5 0 0 1-.5-.5zM27 26H5a1 1 0 1 0 0 2h22a1 1 0 0 0 0-2"/></svg>