<svg xmlns="http://www.w3.org/2000/svg" width="32" height="32" viewBox="0 0 32 32"><path d="M26 4.5h-2A1.5 1.5 0 0 0 22.5 6v16a1.5 1.5 0 0 0 1.5 1.5h2a1.5 1.5 0 0 0 1.5-1.5V6A1.5 1.5 0 0 0 26 4.5m.5 17.5a.5.5 0 0 1-.5.5h-2a.5.5 0 0 1-.5-.5V6a.5.5 0 0 1 .5-.5h2a.5.5 0 0 1 .5.5zM15 23.5h2a1.5 1.5 0 0 0 1.5-1.5v-8a1.5 1.5 0 0 0-1.5-1.5h-2a1.5 1.5 0 0 0-1.5 1.5v8a1.5 1.5 0 0 0 1.5 1.5m-.5-9.5a.5.5 0 0 1 .5-.5h2a.5.5 0 0 1 .5.5v8a.5.5 0 0 1-.5.5h-2a.5.5 0 0 1-.5-.5zM6.007 23.5h2a1.5 1.5 0 0 0 1.5-1.5V9a1.5 1.5 0 0 0-1.5-1.5h-2a1.5 1.5 0 0 0-1.5 1.5v13a1.5 1.5 0 0 0 1.5 1.5M5.507 9a.5.5 0 0 1 .5-.5h2a.5.5 0 0 1 .5.5v13a.5.5 0 0 1-.5.5h-2a.5.5 0 0 1-.5-.5zM27 26.5H5a.5.5 0 0 0 0 1h22a.5.5 0 0 0 0-1"/></svg>