<svg xmlns="http://www.w3.org/2000/svg" width="32" height="33" viewBox="0 0 32 33"><path fill-rule="evenodd" d="M18.975 4.361a1.004 1.004 0 0 1-1.197.755A8.059 8.059 0 0 0 16 4.918c-4.411 0-8 3.589-8 8v7a1 1 0 0 1-1 1c-2.757 0-5-2.243-5-5 0-2.464 1.812-4.518 4.186-4.926.9-4.596 4.959-8.074 9.814-8.074.747 0 1.494.083 2.22.247a1 1 0 0 1 .755 1.196ZM4 15.918c0 1.304.836 2.416 2 2.83v-5.645c-1.166.422-2 1.525-2 2.815Zm24.001 0a1 1 0 1 1 2 0c0 .426-.054.847-.16 1.25-.503 1.927-2.102 3.347-4.035 3.676a10.03 10.03 0 0 1-6.862 7.63A2.987 2.987 0 0 1 16 30.919c-1.654 0-3-1.346-3-3s1.346-3 3-3c1.127 0 2.1.632 2.612 1.553C21.742 25.385 24 22.414 24 18.918v-1a1 1 0 1 1 2 0v.805c.917-.34 1.656-1.103 1.906-2.063.063-.235.095-.49.095-.742ZM15 27.918a1 1 0 1 0 2.001-.001 1 1 0 0 0-2.001.001Zm8.63-22.827a1 1 0 0 0-1.891-.1l-1.527 3.816h-2.434a1 1 0 1 0 0 2h3.111a1 1 0 0 0 .929-.629l.685-1.712 1.424 5.057a1 1 0 0 0 1.851.187l1.498-2.903h2.502a1 1 0 1 0 0-2h-3.11a1 1 0 0 0-.89.541l-.614 1.19-1.534-5.447Z" clip-rule="evenodd"/></svg>