<svg xmlns="http://www.w3.org/2000/svg" width="32" height="33" viewBox="0 0 32 33"><path d="M18.486 4.251a.497.497 0 0 1-.597.377A8.589 8.589 0 0 0 16 4.418c-4.687 0-8.5 3.814-8.5 8.5v7a.5.5 0 0 1-.5.5 4.505 4.505 0 0 1-4.5-4.5c0-2.335 1.809-4.26 4.115-4.48.712-4.538 4.65-8.02 9.385-8.02.71 0 1.42.08 2.11.235.269.061.438.329.376.598ZM3.5 15.918c0 1.76 1.306 3.221 3 3.465l.01-6.924c-1.702.26-3.01 1.711-3.01 3.46ZM28.501 15.918a.5.5 0 1 1 1 0c0 .383-.048.76-.144 1.122-.482 1.846-2.084 3.161-3.975 3.342-.579 3.718-3.322 6.724-6.898 7.695A2.495 2.495 0 0 1 16 30.419a2.502 2.502 0 0 1-2.5-2.5c0-1.379 1.121-2.5 2.5-2.5 1.084 0 2 .697 2.345 1.664 3.549-1.022 6.155-4.291 6.155-8.164v-1a.5.5 0 1 1 1 0v1c0 .11-.006.22-.012.328a17.65 17.65 0 0 0-.007.128c1.391-.209 2.55-1.211 2.91-2.587a3.48 3.48 0 0 0 .11-.869Zm-14.001 12c0 .827.673 1.5 1.5 1.5s1.5-.673 1.5-1.5-.673-1.5-1.5-1.5-1.5.673-1.5 1.5ZM23.148 5.227a.5.5 0 0 0-.945-.05l-1.652 4.13h-2.773a.5.5 0 0 0 0 1h3.111a.5.5 0 0 0 .465-.314l1.23-3.079 1.824 6.473a.5.5 0 0 0 .926.094l1.638-3.174h2.806a.5.5 0 1 0 0-1h-3.11a.5.5 0 0 0-.445.27l-1.196 2.318-1.879-6.668Z"/></svg>