<svg xmlns="http://www.w3.org/2000/svg" width="32" height="32" viewBox="0 0 32 32"><path d="M28.546 22.486a.75.75 0 0 0-1.06-.032 15.2 15.2 0 0 1-3.74 2.765c.293-1.199.724-2.36 1.285-3.458 1.293-2.885 2.63-5.868.91-7.118-1.871-1.357-4.453.954-7.19 3.4-1.681 1.502-4.223 3.779-4.867 3.079-.743-.803 1.578-4.097 3.113-6.276 2.6-3.689 5.055-7.173 3.01-9.048a2.2 2.2 0 0 0-1.673-.545c-4.384.252-13.837 11.028-14.9 12.256a.75.75 0 0 0 1.134.982C7.342 15.288 15.24 6.934 18.42 6.751a.7.7 0 0 1 .573.153c1.072.983-1.41 4.506-3.222 7.078-2.445 3.47-4.556 6.465-2.988 8.16 1.644 1.773 4.23-.535 6.967-2.981 1.866-1.667 4.425-3.948 5.31-3.304.734.534-.6 3.511-1.397 5.29-1.164 2.598-2.006 4.475-.89 5.354.211.162.473.247.74.239 1.072 0 2.748-1.07 5.002-3.194a.75.75 0 0 0 .031-1.06"/></svg>