<svg xmlns="http://www.w3.org/2000/svg" width="32" height="32" viewBox="0 0 32 32"><path d="M28.728 22.314a1 1 0 0 0-1.414-.042A21 21 0 0 1 24 24.902a28 28 0 0 1 1.26-3.04c1.333-2.976 2.71-6.048.827-7.421-1.974-1.441-4.688.9-7.503 3.414-1.208 1.08-4.068 3.514-4.517 3.097-.486-.452 1.827-4.108 3.134-5.963 2.664-3.78 5.131-7.385 2.975-9.375a2.44 2.44 0 0 0-1.856-.61c-4.487.258-14.005 11.105-15.076 12.341a1 1 0 1 0 1.512 1.31C8.586 14.233 15.688 7.16 18.434 7.001c.283-.017.362.063.39.087.848.754-1.699 4.538-3.258 6.75-2.507 3.558-4.655 6.616-2.967 8.473 1.743 1.918 4.61-.544 7.317-2.963 1.492-1.334 4.306-3.706 4.996-3.288.428.259-.917 3.735-1.477 4.985-1.21 2.701-2.085 4.653-.818 5.652.247.205.56.313.882.303.831 0 2.342-.59 5.187-3.273a1 1 0 0 0 .042-1.413"/></svg>