<svg xmlns="http://www.w3.org/2000/svg" width="32" height="32" viewBox="0 0 32 32"><path d="M28.92 3.685a3.004 3.004 0 0 0-2.488-.637L6.74 6.8a5.79 5.79 0 0 0 0 11.387l.614.117 5.111 9.007a3.565 3.565 0 0 0 4.768 1.23 3.439 3.439 0 0 0 1.65-2.116 3.347 3.347 0 0 0-.34-2.58l-2.045-3.798 9.933 1.893a3.013 3.013 0 0 0 3.285-1.664A2.97 2.97 0 0 0 30 19.01V5.98a2.97 2.97 0 0 0-1.08-2.294ZM16.95 25.908a1.45 1.45 0 0 1-.7.891 1.543 1.543 0 0 1-2.06-.498l-4.25-7.492 4.043.785 2.818 5.234a1.395 1.395 0 0 1 .15 1.08Zm11.05-6.899a.961.961 0 0 1-.356.752 1.008 1.008 0 0 1-.84.214l-19.69-3.753a3.79 3.79 0 0 1 0-7.458l19.692-3.752a.999.999 0 0 1 .837.214.963.963 0 0 1 .356.752V19.01Z"/></svg>