<svg xmlns="http://www.w3.org/2000/svg" width="32" height="32" viewBox="0 0 32 32"><path d="M28.76 3.878a2.76 2.76 0 0 0-2.281-.584L6.787 7.046a5.54 5.54 0 0 0 0 10.895l.728.139 5.165 9.102a3.31 3.31 0 0 0 4.43 1.142 3.19 3.19 0 0 0 1.532-1.964 3.11 3.11 0 0 0-.32-2.396l-2.293-4.261 10.45 1.991v.001q.259.048.521.049a2.76 2.76 0 0 0 2.49-1.574c.172-.363.26-.76.26-1.16V5.977a2.72 2.72 0 0 0-.99-2.1M17.193 25.972a1.7 1.7 0 0 1-.819 1.045 1.795 1.795 0 0 1-2.4-.593L9.455 18.46l4.693.91 2.869 5.33a1.64 1.64 0 0 1 .176 1.271M28.25 19.01a1.23 1.23 0 0 1-.446.945 1.27 1.27 0 0 1-1.044.267L7.068 16.468a4.04 4.04 0 0 1 0-7.95L26.76 4.766a1.27 1.27 0 0 1 1.043.267 1.23 1.23 0 0 1 .447.945z"/></svg>