<svg xmlns="http://www.w3.org/2000/svg" width="32" height="32" viewBox="0 0 32 32"><path d="M28.76 3.878a2.76 2.76 0 0 0-2.281-.584L6.787 7.046a5.54 5.54 0 0 0 0 10.895l.728.139 5.165 9.102a3.312 3.312 0 0 0 4.43 1.142 3.187 3.187 0 0 0 1.615-3.195 3.113 3.113 0 0 0-.402-1.165l-2.294-4.261 10.45 1.991v.001a2.759 2.759 0 0 0 3.011-1.525c.172-.363.26-.76.26-1.16V5.977a2.72 2.72 0 0 0-.99-2.1ZM17.193 25.972a1.696 1.696 0 0 1-.819 1.045 1.795 1.795 0 0 1-2.4-.593L9.455 18.46l4.693.91 2.869 5.33a1.641 1.641 0 0 1 .176 1.271ZM28.25 19.01a1.226 1.226 0 0 1-.446.945 1.272 1.272 0 0 1-1.044.267L7.068 16.468a4.04 4.04 0 0 1 0-7.95L26.76 4.766a1.268 1.268 0 0 1 1.043.267 1.226 1.226 0 0 1 .447.945V19.01Z"/></svg>