<svg xmlns="http://www.w3.org/2000/svg" width="32" height="32" viewBox="0 0 32 32"><path d="M18.095 8.008q0 0-.01-.003.01.002.01.003M21.504 22.999h-.002.005zM14.112 19.978q0 0-.003-.011zM16 2.5A13.5 13.5 0 1 0 29.5 16 13.515 13.515 0 0 0 16 2.5M6.269 17.974l-.002-.002a1 1 0 1 1-1.487-1.336c1.882-2.254 4.814-5.281 7.509-7.508 1.35-1.116 2.696-2.076 3.85-2.622.571-.27 1.172-.476 1.747-.503.608-.029 1.266.147 1.728.724.48.599.47 1.339.363 1.91-.112.594-.37 1.24-.681 1.876-.603 1.238-1.524 2.681-2.398 4.053l-.086.134c-.923 1.448-1.78 2.803-2.287 3.894-.255.55-.382.952-.412 1.215l-.006.092q.04.005.128-.004c.19-.024.472-.118.857-.325.771-.413 1.69-1.13 2.681-1.964.304-.255.617-.524.93-.793a54 54 0 0 1 1.953-1.623c.452-.35.905-.672 1.333-.91.402-.222.905-.444 1.428-.444.323 0 .73.1 1.035.447.281.32.338.695.343.943.009.473-.164 1.006-.335 1.453-.275.714-.716 1.609-1.15 2.489v.002q-.206.417-.402.82c-.577 1.194-1.026 2.223-1.147 2.903l-.013.084c.54-.098 1.23-.522 1.892-1.075a11 11 0 0 0 1.033-.986l.057-.063.012-.014.002-.002.003.003a1 1 0 1 1 1.433 1.391l-.031.035a13.17 13.17 0 0 1-1.226 1.171c-.734.613-1.871 1.418-3.068 1.544-.627.066-1.375-.055-1.82-.724-.374-.564-.327-1.242-.243-1.714.178-1 .763-2.282 1.316-3.424q.226-.468.446-.911c.333-.677.64-1.302.873-1.84q-.254.176-.546.403c-.569.44-1.177.962-1.823 1.517q-.485.417-.998.85c-.987.83-2.048 1.672-3.022 2.195-.488.261-1.019.479-1.555.546-.56.07-1.17-.022-1.69-.438-.643-.513-.734-1.267-.667-1.858.066-.586.3-1.221.586-1.834.574-1.236 1.514-2.714 2.414-4.126l.046-.072c.906-1.422 1.774-2.783 2.326-3.916.282-.578.45-1.035.513-1.369.025-.132.028-.217.026-.268h-.057c-.194.01-.518.093-.987.314-.925.438-2.117 1.271-3.43 2.356-2.609 2.155-5.482 5.125-7.294 7.304"/></svg>