<svg xmlns="http://www.w3.org/2000/svg" width="32" height="32" viewBox="0 0 32 32"><path d="M27.001 21.494a2.508 2.508 0 0 0 2.263-1.43c.155-.33.236-.69.236-1.055V5.98a2.47 2.47 0 0 0-.9-1.909 2.504 2.504 0 0 0-2.074-.531L7.812 7.104 3.354 2.646a.5.5 0 0 0-.707.707l26 26a.5.5 0 1 0 .707-.707l-8.227-8.226 5.4 1.029c.156.03.315.045.474.045ZM8.667 7.96 26.714 4.52a1.496 1.496 0 0 1 1.248.32 1.472 1.472 0 0 1 .538 1.137V19.01a1.47 1.47 0 0 1-.537 1.136 1.498 1.498 0 0 1-1.25.32l-6.844-1.304L8.667 7.96ZM15.561 19.36l2.073.394-1.258-1.258-9.355-1.782a4.283 4.283 0 0 1-.677-8.25l-.754-.753a5.27 5.27 0 0 0 1.244 9.985l.843.16 5.218 9.196a3.062 3.062 0 0 0 4.093 1.054 2.937 2.937 0 0 0 1.488-2.947 2.872 2.872 0 0 0-.372-1.077l-2.543-4.723Zm1.874 6.678a1.948 1.948 0 0 1-.937 1.197 2.053 2.053 0 0 1-2.741-.688L8.97 18.112l5.34 1.036 2.921 5.425a1.894 1.894 0 0 1 .203 1.465Z"/></svg>