<svg xmlns="http://www.w3.org/2000/svg" width="32" height="32" viewBox="0 0 32 32"><path d="m17.31 21.552-4.185-4.184-6.01-1.146a3.778 3.778 0 0 1-1.757-6.621L3.946 8.188a5.77 5.77 0 0 0 2.794 10l.615.117 5.112 9.006a3.565 3.565 0 0 0 4.767 1.23 3.44 3.44 0 0 0 1.74-3.44 3.4 3.4 0 0 0-.43-1.256zm-.358 4.356a1.45 1.45 0 0 1-.7.891 1.544 1.544 0 0 1-2.06-.498l-4.25-7.492 4.041.785 2.819 5.234a1.4 1.4 0 0 1 .15 1.08M26.434 21.94a3.01 3.01 0 0 0 3.283-1.663c.187-.397.283-.83.283-1.268V5.98a2.97 2.97 0 0 0-1.081-2.294 3 3 0 0 0-2.486-.637L7.978 6.564 3.707 2.293a1 1 0 0 0-1.414 1.414l26 26a1 1 0 0 0 1.414-1.414l-7.077-7.078zM9.688 8.274l17.12-3.262a1.01 1.01 0 0 1 1.099.55c.062.13.093.272.093.416V19.01a.97.97 0 0 1-.355.752 1.02 1.02 0 0 1-.837.213L20.114 18.7z"/></svg>