<svg xmlns="http://www.w3.org/2000/svg" width="32" height="32" viewBox="0 0 32 32"><path d="M28.364 22.657a.5.5 0 0 0-.707-.02c-1.748 1.647-3.68 2.988-4.11 2.883-.35-.276.735-2.698 1.256-3.861 1.252-2.794 2.547-5.683.991-6.814-1.706-1.236-4.217 1.007-6.877 3.383-1.963 1.755-4.406 3.94-5.217 3.063-.88-.95 1.322-4.077 3.093-6.59 2.533-3.596 4.927-6.992 3.045-8.719a1.96 1.96 0 0 0-1.49-.48c-4.355.25-14.305 11.684-14.726 12.17a.5.5 0 1 0 .756.655C7.172 15.101 15.138 6.69 18.405 6.501a.98.98 0 0 1 .757.219c1.234 1.132-1.114 4.465-3.187 7.406-2.382 3.38-4.44 6.3-3.009 7.845 1.48 1.597 3.975-.636 6.618-2.997 2.036-1.819 4.569-4.081 5.622-3.32.9.653-.38 3.51-1.315 5.595-1.118 2.494-1.925 4.297-.964 5.056a.92.92 0 0 0 .587.184c1.298 0 3.504-1.876 4.829-3.126a.5.5 0 0 0 .02-.706"/></svg>