<svg xmlns="http://www.w3.org/2000/svg" width="32" height="32" viewBox="0 0 32 32"><path d="M28.6 4.07a2.51 2.51 0 0 0-2.074-.531L6.834 7.29a5.29 5.29 0 0 0 0 10.405l.842.16 5.218 9.196a3.062 3.062 0 0 0 4.094 1.054 2.94 2.94 0 0 0 1.488-2.947 2.872 2.872 0 0 0-.373-1.077l-2.542-4.723 10.965 2.09a2.51 2.51 0 0 0 2.739-1.386c.155-.33.235-.69.235-1.053V5.978a2.472 2.472 0 0 0-.9-1.908ZM17.435 26.037a1.952 1.952 0 0 1-.938 1.198 2.052 2.052 0 0 1-2.74-.688L8.97 18.112l5.342 1.036 2.92 5.426a1.888 1.888 0 0 1 .203 1.463ZM28.5 19.01a1.472 1.472 0 0 1-.537 1.136 1.503 1.503 0 0 1-1.25.32L7.022 16.715a4.29 4.29 0 0 1 0-8.44L26.713 4.52a1.507 1.507 0 0 1 1.646.828c.093.197.141.412.141.63v13.03Z"/></svg>