<svg xmlns="http://www.w3.org/2000/svg" width="32" height="32" viewBox="0 0 32 32"><path d="M27.001 21.494a2.51 2.51 0 0 0 2.263-1.43c.155-.33.236-.69.236-1.055V5.98a2.47 2.47 0 0 0-.9-1.909 2.5 2.5 0 0 0-2.074-.531L7.812 7.104 3.354 2.646a.5.5 0 0 0-.707.707l26 26a.5.5 0 1 0 .707-.707l-8.227-8.226 5.4 1.029q.235.045.474.045M8.667 7.96 26.714 4.52a1.5 1.5 0 0 1 1.248.32 1.47 1.47 0 0 1 .538 1.137V19.01a1.47 1.47 0 0 1-.537 1.136 1.5 1.5 0 0 1-1.25.32l-6.844-1.304zM15.561 19.36l2.073.394-1.258-1.258-9.355-1.782a4.283 4.283 0 0 1-.677-8.25l-.754-.753a5.27 5.27 0 0 0 1.244 9.985l.843.16 5.218 9.196a3.06 3.06 0 0 0 4.093 1.054 2.94 2.94 0 0 0 1.488-2.947 2.9 2.9 0 0 0-.372-1.077zm1.874 6.678a1.95 1.95 0 0 1-.937 1.197 2.053 2.053 0 0 1-2.741-.688L8.97 18.112l5.34 1.036 2.921 5.425a1.9 1.9 0 0 1 .203 1.465"/></svg>