<svg xmlns="http://www.w3.org/2000/svg" width="32" height="32" viewBox="0 0 32 32"><path d="M28.6 4.07a2.51 2.51 0 0 0-2.074-.531L6.834 7.29a5.29 5.29 0 0 0 0 10.405l.842.16 5.218 9.196a3.06 3.06 0 0 0 4.094 1.054 2.94 2.94 0 0 0 1.488-2.947 2.9 2.9 0 0 0-.373-1.077l-2.542-4.723 10.965 2.09a2.51 2.51 0 0 0 2.739-1.386c.155-.33.235-.69.235-1.053V5.978a2.47 2.47 0 0 0-.9-1.908M17.435 26.037a1.95 1.95 0 0 1-.938 1.198 2.05 2.05 0 0 1-2.74-.688L8.97 18.112l5.342 1.036 2.92 5.426a1.89 1.89 0 0 1 .203 1.463M28.5 19.01a1.47 1.47 0 0 1-.537 1.136 1.5 1.5 0 0 1-1.25.32L7.022 16.715a4.29 4.29 0 0 1 0-8.44L26.713 4.52a1.51 1.51 0 0 1 1.646.828c.093.197.141.412.141.63z"/></svg>