<svg xmlns="http://www.w3.org/2000/svg" width="32" height="32" viewBox="0 0 32 32"><path d="m16.03 19.703.606.115-1.53-1.816-8.038-1.534A4.03 4.03 0 0 1 5.807 8.99l-1.08-1.08a5.517 5.517 0 0 0 2.06 10.032l.729.139 5.165 9.102a3.312 3.312 0 0 0 4.43 1.142 3.181 3.181 0 0 0 1.53-1.963 3.109 3.109 0 0 0-.318-2.397l-2.294-4.261Zm1.163 6.27a1.7 1.7 0 0 1-.818 1.044 1.8 1.8 0 0 1-2.4-.593L9.456 18.46l4.691.91 2.87 5.33a1.642 1.642 0 0 1 .176 1.272ZM26.48 21.695a2.758 2.758 0 0 0 3.01-1.525c.172-.363.26-.76.26-1.16V5.977a2.718 2.718 0 0 0-.991-2.1 2.753 2.753 0 0 0-2.28-.584L7.896 6.834 3.53 2.47a.75.75 0 0 0-1.06 1.06l26 26a.75.75 0 0 0 1.06-1.06l-7.652-7.653 4.602.877v.001ZM9.177 8.116l17.584-3.35a1.267 1.267 0 0 1 1.042.267 1.225 1.225 0 0 1 .447.945V19.01a1.227 1.227 0 0 1-.446.944 1.267 1.267 0 0 1-1.043.267l-6.769-1.29L9.177 8.117Z"/></svg>