<svg xmlns="http://www.w3.org/2000/svg" width="32" height="32" viewBox="0 0 32 32"><path d="M16.066 20.3 4.304 8.538a5.275 5.275 0 0 0 2.53 9.162l.842.16 5.219 9.195a3.061 3.061 0 0 0 4.093 1.054 2.937 2.937 0 0 0 1.488-2.946 2.877 2.877 0 0 0-.372-1.078L16.066 20.3ZM29.707 28.293l-7.702-7.703 4.521.862a2.502 2.502 0 0 0 2.737-1.384c.157-.33.237-.69.237-1.056V5.982a2.47 2.47 0 0 0-.9-1.909 2.504 2.504 0 0 0-2.074-.531L8.408 6.994 3.707 2.293a1 1 0 0 0-1.414 1.414l26 26a1 1 0 0 0 1.414-1.414Z"/></svg>