<svg xmlns="http://www.w3.org/2000/svg" width="32" height="32" viewBox="0 0 32 32"><path d="m16.03 19.703.606.115-1.53-1.816-8.038-1.533a4.03 4.03 0 0 1-1.261-7.48l-1.08-1.08a5.517 5.517 0 0 0 2.06 10.032l.729.139 5.165 9.102a3.31 3.31 0 0 0 4.43 1.142 3.18 3.18 0 0 0 1.53-1.963 3.1 3.1 0 0 0-.318-2.397zm1.163 6.27a1.7 1.7 0 0 1-.818 1.044 1.8 1.8 0 0 1-2.4-.593L9.456 18.46l4.691.91 2.87 5.33a1.64 1.64 0 0 1 .176 1.272M26.48 21.695q.258.048.52.049a2.76 2.76 0 0 0 2.49-1.574c.172-.363.26-.76.26-1.16V5.977a2.72 2.72 0 0 0-.991-2.1 2.75 2.75 0 0 0-2.28-.584L7.896 6.834 3.53 2.47a.75.75 0 0 0-1.06 1.06l26 26a.75.75 0 0 0 1.06-1.06l-7.652-7.653zM9.177 8.116l17.584-3.35a1.27 1.27 0 0 1 1.042.267 1.23 1.23 0 0 1 .447.945V19.01a1.23 1.23 0 0 1-.446.944 1.27 1.27 0 0 1-1.043.267l-6.769-1.29z"/></svg>