<svg xmlns="http://www.w3.org/2000/svg" width="32" height="32" viewBox="0 0 32 32"><path d="M22 12h-2.5l1.2-2.8c.4-1.1.4-2.3.1-3.3-.5-1.3-1.7-2.9-4.7-2.9h-.3c-2.2 0-3.8 1-4.5 2.7-.5 1.1-.4 2.4.1 3.7l1.1 2.6H10c-2.8 0-5 2.2-5 5v10c0 1.1.9 2 2 2h18c1.1 0 2-.9 2-2V17c0-2.8-2.2-5-5-5m-12 2h4c.3 0 .6-.2.8-.4.2-.3.2-.6.1-.9l-1.7-4c-.3-.7-.3-1.5-.1-2.1q.6-1.5 2.7-1.5h.3c1.9 0 2.5.9 2.7 1.6.2.6.2 1.3-.1 1.9L17 12.7c-.1.3-.1.7.1.9.2.3.5.4.8.4h4c1.7 0 3 1.3 3 3v5H7v-5c0-1.7 1.3-3 3-3m5 10v3h-3v-3zm2 0h3v3h-3zM7 24h3v3H7zm15 3v-3h3v3z"/></svg>