<svg xmlns="http://www.w3.org/2000/svg" width="32" height="32" viewBox="0 0 32 32"><path d="m21.999 12.247-2.87.002 1.303-3.106a4.58 4.58 0 0 0 .084-3.127c-.45-1.262-1.573-2.766-4.371-2.766h-.298c-.906 0-1.786.138-2.554.599a4.3 4.3 0 0 0-1.729 1.973 4.56 4.56 0 0 0 .063 3.464l1.245 2.965H10A4.755 4.755 0 0 0 5.25 17v9.995A1.75 1.75 0 0 0 7 28.746l18 .005A1.75 1.75 0 0 0 26.75 27V16.996a4.756 4.756 0 0 0-4.751-4.75m-12 1.504h4a.75.75 0 0 0 .692-1.04l-1.677-3.994a3.07 3.07 0 0 1-.065-2.32A2.8 2.8 0 0 1 14.128 5.1c.521-.297 1.114-.349 1.72-.349h.297c2.086 0 2.688 1.01 2.959 1.77.217.673.195 1.4-.061 2.059l-1.735 4.131A.75.75 0 0 0 18 13.75l4-.004a3.254 3.254 0 0 1 3.25 3.25v5.255H6.75v-5.25A3.254 3.254 0 0 1 10 13.75m5.251 10 .003 3.497-3.501-.001v-3.495zm1.5 0h3.502v3.498h-3.5zm-10 3.245v-3.244h3.502v3.495L7 27.246a.25.25 0 0 1-.25-.25M25 27.25l-3.248-.001v-3.498h3.498V27a.25.25 0 0 1-.25.25"/></svg>