<svg xmlns="http://www.w3.org/2000/svg" width="32" height="32" viewBox="0 0 32 32"><path d="M4.879 27.849H27.12c2.488 0 3.745-1.27 3.745-3.707V8.577c0-2.45-1.257-3.72-3.745-3.72H4.88c-2.476 0-3.745 1.257-3.745 3.72v15.565c0 2.45 1.27 3.707 3.745 3.707Zm.025-1.575c-1.422 0-2.196-.749-2.196-2.221v-15.4c0-1.46.774-2.221 2.196-2.221h5.675v19.842H4.904ZM27.096 6.432c1.396 0 2.196.761 2.196 2.221v15.4c0 1.472-.8 2.221-2.196 2.221h-14.98V6.432h14.98ZM8.142 11.167c.33 0 .596-.28.596-.584a.593.593 0 0 0-.596-.584H5.146a.59.59 0 0 0-.584.584.6.6 0 0 0 .584.584h2.996Zm0 3.352c.33 0 .596-.267.596-.584a.591.591 0 0 0-.596-.572H5.146a.588.588 0 0 0-.584.572.59.59 0 0 0 .584.584h2.996Zm0 3.351c.33 0 .596-.267.596-.571a.593.593 0 0 0-.596-.584H5.146a.59.59 0 0 0-.584.584c0 .305.266.571.584.571h2.996Z"/></svg>