<svg xmlns="http://www.w3.org/2000/svg" width="32" height="32" viewBox="0 0 32 32"><path d="M13.997 7.055a.5.5 0 0 1-.442.442C11.169 7.762 9.478 6.971 8.6 5.8c-.86-1.147-.922-2.685.046-3.654S11.153 1.24 12.3 2.1c1.17.878 1.962 2.569 1.697 4.955M9.353 2.854c-.531.531-.593 1.493.047 2.346.58.775 1.761 1.444 3.637 1.337.107-1.875-.562-3.056-1.337-3.637-.853-.64-1.815-.578-2.347-.046M15.48 11.48c.037-.793.19-1.737.538-2.678.528-1.429 1.517-2.879 3.258-3.75a.5.5 0 1 1 .447.895c-1.458.73-2.303 1.946-2.767 3.201a8 8 0 0 0-.476 2.358c2.076-1.38 4.825-1.795 7.089-.842 2.635 1.11 4.444 3.988 3.928 8.888-.418 3.972-2.22 7.341-4.47 9.341-2.142 1.905-4.813 2.644-7.027 1.216-2.214 1.428-4.885.69-7.028-1.216-2.25-2-4.051-5.369-4.47-9.34-.515-4.901 1.293-7.78 3.929-8.889 2.25-.947 4.978-.544 7.05.815m.19 1.396c-1.875-1.64-4.674-2.207-6.851-1.29-2.115.89-3.806 3.262-3.322 7.862.395 3.747 2.093 6.878 4.14 8.698 2.057 1.829 4.332 2.252 6.063.954a.5.5 0 0 1 .6 0c1.73 1.298 4.006.875 6.063-.954 2.047-1.82 3.745-4.95 4.14-8.698.484-4.6-1.208-6.972-3.322-7.862-2.176-.916-4.973-.35-6.847 1.286a.496.496 0 0 1-.664.004"/></svg>