<svg xmlns="http://www.w3.org/2000/svg" width="32" height="32" viewBox="0 0 32 32"><path d="M25 2.25H13a4.755 4.755 0 0 0-4.75 4.745v5.255H7A4.755 4.755 0 0 0 2.25 17v8A4.755 4.755 0 0 0 7 29.75h13A4.756 4.756 0 0 0 24.75 25v-5.25H25A4.756 4.756 0 0 0 29.75 15V7A4.755 4.755 0 0 0 25 2.25m-12 1.5h12a3.25 3.25 0 0 1 3.154 2.5H9.846A3.25 3.25 0 0 1 13 3.75m-6 10h13a3.25 3.25 0 0 1 3.154 2.5H3.846A3.25 3.25 0 0 1 7 13.75M23.25 25A3.253 3.253 0 0 1 20 28.25H7A3.254 3.254 0 0 1 3.75 25v-7.25h19.5zm5-10A3.253 3.253 0 0 1 25 18.25h-.25V17A4.755 4.755 0 0 0 20 12.25H9.75v-4.5h18.5z"/></svg>