<svg xmlns="http://www.w3.org/2000/svg" width="32" height="32" viewBox="0 0 32 32"><path d="M29.5 21.5a2.003 2.003 0 0 0-1.339-1.888A2 2 0 0 0 26.5 16.5h-.685c.747-.748 1.47-1.47 2.1-2.103a2 2 0 0 0-.9-3.344l.897-.896a2 2 0 0 0-1.025-3.377 2 2 0 0 0-2.668-2.669 2.002 2.002 0 0 0-3.377-1.025L16.26 7.668a3.904 3.904 0 0 0-.446-2.01 1.888 1.888 0 0 0-1.292-1.143 1.435 1.435 0 0 0-1.262.495l-6.207 6.207a8.436 8.436 0 0 0-2.226 3.958A8.487 8.487 0 0 0 11 29.5h12.505a2 2 0 0 0 1.726-3H26.5a2 2 0 0 0 1.66-3.113A2.003 2.003 0 0 0 29.5 21.5Zm-2.294-9.222a1.001 1.001 0 0 1 .003 1.412L24.4 16.5H21.57l4.222-4.222a1.027 1.027 0 0 1 1.415 0Zm-.001-4.242a1.001 1.001 0 0 1 0 1.414l-6.387 6.387c.229-.33.407-.691.53-1.074a1.89 1.89 0 0 0-.105-1.72 1.256 1.256 0 0 0-.23-.23l4.778-4.777a1.023 1.023 0 0 1 1.414 0Zm-2.828-2.83a1 1 0 0 1 1.414 1.416L19.913 12.5h-2.83l7.294-7.293Zm-2.828-1.413a1 1 0 0 1 1.414 1.414L15.67 12.5h-2.828l8.707-8.707Zm-13.79 8.132 6.208-6.208a.657.657 0 0 1 .37-.216l.03.002c.129.02.343.191.557.611a2.906 2.906 0 0 1-.646 3.535l-2.85 2.85H11a8.445 8.445 0 0 0-4.648 1.393 7.455 7.455 0 0 1 1.408-1.967ZM27.5 22.5H20a.5.5 0 0 0 0 1h6.5a1 1 0 1 1 0 2H20a.5.5 0 0 0 0 1h3.5a1 1 0 1 1 .006 2H11a7.5 7.5 0 0 1 0-15h9c.127 0 .351.016.434.13.078.106.108.378-.037.827a2.906 2.906 0 0 1-2.96 2.043H15a.5.5 0 0 0 0 1h11.5a1 1 0 0 1 0 2H20a.5.5 0 0 0 0 1h7.5a1 1 0 0 1 0 2Z"/></svg>