<svg xmlns="http://www.w3.org/2000/svg" width="32" height="32" fill="none" viewBox="0 0 32 32"><path fill="url(#a)" d="M23.933 2H8.067A6.067 6.067 0 0 0 2 8.067v15.866A6.067 6.067 0 0 0 8.067 30h15.866A6.067 6.067 0 0 0 30 23.933V8.067A6.067 6.067 0 0 0 23.933 2"/><path fill="#FEFEFE" d="M16.119 7.019c-5.67 0-10.267 3.761-10.267 8.4 0 2.95 1.867 5.542 4.667 7.04a.466.466 0 0 1 .233.574 4.2 4.2 0 0 1-1.295 1.703.234.234 0 0 0 .19.41 8.4 8.4 0 0 0 3.392-1.4.91.91 0 0 1 .716-.165c.78.153 1.574.231 2.369.233 5.67 0 10.266-3.761 10.266-8.4 0-4.638-4.601-8.395-10.271-8.395"/><defs><linearGradient id="a" x1="16" x2="16" y1="2" y2="30" gradientUnits="userSpaceOnUse"><stop stop-color="#5CF777"/><stop offset="1" stop-color="#0DBC29"/></linearGradient></defs></svg>