<svg xmlns="http://www.w3.org/2000/svg" width="32" height="32" viewBox="0 0 32 32"><path d="M29.75 21.5a2.251 2.251 0 0 0-1.232-2.006A2.25 2.25 0 0 0 26.5 16.25h-.081l1.675-1.676a2.254 2.254 0 0 0-.626-3.62l.62-.62a2.25 2.25 0 0 0-.866-3.722 2.248 2.248 0 0 0-2.835-2.837 2.245 2.245 0 0 0-.54-.866 2.304 2.304 0 0 0-3.182 0l-4.167 4.167a4.281 4.281 0 0 0-.461-1.532 2.074 2.074 0 0 0-1.476-1.276 1.673 1.673 0 0 0-1.478.566L6.876 11.04a8.686 8.686 0 0 0-2.283 4.018A8.736 8.736 0 0 0 11 29.75l12.505.002a2.251 2.251 0 0 0 2.116-3.001h.879a2.25 2.25 0 0 0 2.018-3.244A2.251 2.251 0 0 0 29.75 21.5Zm-2.718-7.987-2.734 2.737h-2.125l3.795-3.795a.768.768 0 0 1 1.06 0 .75.75 0 0 1 .004 1.058Zm-5.391 1.145a1.99 1.99 0 0 0-.196-1.763c-.02-.027-.052-.056-.076-.084l4.599-4.598a.768.768 0 0 1 1.06 0 .752.752 0 0 1 0 1.06l-5.387 5.385Zm2.208-8.57.704-.704a.751.751 0 0 1 1.28.53.75.75 0 0 1-.219.531L19.81 12.25h-2.122l6.16-6.159.002-.002ZM21.726 3.97a.75.75 0 0 1 1.063 1.058l-7.223 7.223h-2.12l8.28-8.28Zm-13.79 8.132 6.207-6.207a.863.863 0 0 1 .184-.144c.044.015.197.13.375.477a2.631 2.631 0 0 1-.602 3.246l-2.776 2.777H11a8.687 8.687 0 0 0-3.973.963c.265-.4.57-.772.91-1.112ZM27.5 22.25H20a.75.75 0 0 0 0 1.5h6.5a.75.75 0 1 1 0 1.5H20a.75.75 0 0 0 0 1.5h3.5a.75.75 0 1 1 .005 1.5H11a7.25 7.25 0 1 1 0-14.5l9.231.028a1.03 1.03 0 0 1-.072.602 2.627 2.627 0 0 1-2.723 1.87H15a.75.75 0 0 0 0 1.5h11.5a.75.75 0 0 1 0 1.5H20a.75.75 0 0 0 0 1.5h7.5a.75.75 0 0 1 0 1.5Z"/></svg>