<svg xmlns="http://www.w3.org/2000/svg" width="32" height="32" viewBox="0 0 32 32"><path d="M30 21.5a2.5 2.5 0 0 0-1.163-2.112 2.5 2.5 0 0 0-1.863-3.34l1.296-1.298a2.504 2.504 0 0 0-.392-3.85l.387-.39a2.503 2.503 0 0 0-.743-4.05 2.497 2.497 0 0 0-2.984-2.984 2.503 2.503 0 0 0-4.05-.744l-3.82 3.82a4.7 4.7 0 0 0-.408-1.122 2.31 2.31 0 0 0-1.66-1.409 1.92 1.92 0 0 0-1.694.636L6.7 10.864a8.93 8.93 0 0 0-2.327 4.068A8.984 8.984 0 0 0 11 30h12.505a2.5 2.5 0 0 0 2.444-3h.55a2.5 2.5 0 0 0 2.338-3.389A2.5 2.5 0 0 0 30 21.5m-3.145-8.163L24.194 16h-1.418l3.368-3.368a.5.5 0 0 1 .711.705m-5.15-.507 4.44-4.44a.5.5 0 1 1 .706.706l-4.857 4.858a1.98 1.98 0 0 0-.29-1.124m3.024-7.269a.5.5 0 1 1 .708.707L19.706 12H18.29zm-9.39 5.149 6.563-6.564a.5.5 0 1 1 .707.707L15.463 12h-1.414l1.286-1.287zm-7.503 1.875c.091-.103.179-.208.277-.307l6.202-6.202q.094.125.164.265a2.395 2.395 0 0 1-.557 2.957L11.22 12H11a8.9 8.9 0 0 0-3.164.585M27.5 22H20a1 1 0 1 0 0 2h6.5a.5.5 0 0 1 0 1H20a1 1 0 1 0 0 2h3.5a.5.5 0 1 1 .005 1H11a7 7 0 0 1 0-14h8.993a1.7 1.7 0 0 1-.072.303A2.39 2.39 0 0 1 17.436 16H15a1 1 0 1 0 0 2h11.5a.5.5 0 0 1 0 1H20a1 1 0 1 0 0 2h7.5a.5.5 0 0 1 0 1"/></svg>