<svg xmlns="http://www.w3.org/2000/svg" width="32" height="32" viewBox="0 0 32 32"><path d="M11.75 8.5a4.75 4.75 0 1 1 9.5 0c0 1.067-.354 1.935-.86 2.9q-.157.3-.335.624c-.434.794-.928 1.696-1.268 2.744a10 10 0 0 0-.431 2.161.75.75 0 1 0 1.493.142 8.5 8.5 0 0 1 .364-1.84c.293-.9.698-1.643 1.122-2.42q.192-.349.385-.715c.541-1.034 1.03-2.163 1.03-3.596a6.25 6.25 0 1 0-12.5 0c0 1.433.489 2.562 1.03 3.596q.193.366.385.715c.423.777.829 1.52 1.122 2.42.532 1.638.513 3.263.497 4.668q0 .178-.003.351H5a.75.75 0 0 0-.75.75v5c0 .414.336.75.75.75h15a.75.75 0 0 0 0-1.5H5.75v-3.5H17a.75.75 0 0 0 0-1.5h-2.217l.003-.209c.019-1.414.045-3.373-.573-5.273-.34-1.048-.833-1.95-1.268-2.744q-.177-.323-.336-.624c-.505-.965-.859-1.833-.859-2.9M7 29.75a.75.75 0 0 1 0-1.5h13v1.5zM20 29v-.75a.75.75 0 0 1 0 1.5zm4 .75a.75.75 0 1 0 0-1.5.75.75 0 0 0 0 1.5m-.86-10.829A2.25 2.25 0 1 1 24 23.25a.75.75 0 0 0-.75.75v2a.75.75 0 0 0 1.5 0v-1.326A3.75 3.75 0 1 0 20.25 21a.75.75 0 0 0 1.5 0 2.25 2.25 0 0 1 1.39-2.079"/></svg>