<svg xmlns="http://www.w3.org/2000/svg" width="32" height="32" viewBox="0 0 32 32"><path d="M12 8.5a4.5 4.5 0 1 1 9 0c0 1.006-.331 1.83-.83 2.784q-.154.29-.33.61c-.434.795-.942 1.724-1.291 2.797-.247.76-.375 1.508-.442 2.214a1 1 0 1 0 1.99.19 8.3 8.3 0 0 1 .354-1.786c.285-.877.676-1.594 1.097-2.366l.001-.002q.194-.353.392-.729C22.488 11.167 23 9.994 23 8.5a6.5 6.5 0 1 0-13 0c0 1.494.511 2.667 1.059 3.712q.199.378.393.73c.42.773.812 1.49 1.097 2.367.518 1.594.5 3.165.485 4.566l-.001.125H5a1 1 0 0 0-1 1v5a1 1 0 0 0 1 1h15a1 1 0 1 0 0-2H6v-3h11a1 1 0 1 0 0-2h-1.963c.02-1.41.037-3.394-.586-5.31-.349-1.072-.857-2-1.292-2.796a38 38 0 0 1-.328-.61C12.33 10.332 12 9.506 12 8.5M7 30a1 1 0 1 1 0-2h13v2zm13-2a1 1 0 0 1 0 2zm4 2a1 1 0 1 0 0-2 1 1 0 0 0 0 2m-.765-10.848A2 2 0 1 1 24 23a1 1 0 0 0-1 1v2a1 1 0 1 0 2 0v-1.127A4 4 0 1 0 20 21a1 1 0 1 0 2 0 2 2 0 0 1 1.235-1.848"/></svg>