<svg xmlns="http://www.w3.org/2000/svg" width="32" height="32" viewBox="0 0 32 32"><path d="M11.5 8.5a5 5 0 0 1 10 0c0 1.128-.376 2.04-.888 3.016q-.163.311-.344.639c-.433.792-.91 1.667-1.244 2.69a9.8 9.8 0 0 0-.42 2.108.5.5 0 0 0 .996.094c.06-.627.17-1.263.375-1.892.301-.926.721-1.695 1.147-2.476q.19-.344.376-.699c.536-1.022 1.002-2.108 1.002-3.48a6 6 0 0 0-12 0c0 1.372.466 2.458 1.002 3.48q.187.355.376.7c.426.78.845 1.549 1.146 2.475.547 1.68.527 3.36.51 4.769q-.003.296-.004.576H5a.5.5 0 0 0-.5.5v5a.5.5 0 0 0 .5.5h15a.5.5 0 0 0 0-1H5.5v-4H17a.5.5 0 0 0 0-1h-2.47l.006-.482c.018-1.415.043-3.317-.56-5.173-.333-1.023-.811-1.898-1.244-2.69q-.181-.328-.344-.639c-.512-.976-.888-1.888-.888-3.016M7 29.5a.5.5 0 0 1 0-1h13v1zm13-.5v-.5a.5.5 0 0 1 0 1zm4 .5a.5.5 0 1 0 0-1 .5.5 0 0 0 0 1m-.957-10.81A2.5 2.5 0 1 1 24 23.5a.5.5 0 0 0-.5.5v2a.5.5 0 0 0 1 0v-1.536a3.5 3.5 0 1 0-4-3.464.5.5 0 0 0 1 0 2.5 2.5 0 0 1 1.543-2.31"/></svg>