<svg xmlns="http://www.w3.org/2000/svg" width="32" height="32" viewBox="0 0 32 32"><path d="M12 28.5H6A2.5 2.5 0 0 1 3.5 26v-6A2.5 2.5 0 0 1 6 17.5h6a2.5 2.5 0 0 1 2.5 2.5v6a2.5 2.5 0 0 1-2.5 2.5M26 28.5h-6a2.5 2.5 0 0 1-2.5-2.5v-6a2.5 2.5 0 0 1 2.5-2.5h6a2.5 2.5 0 0 1 2.5 2.5v6a2.5 2.5 0 0 1-2.5 2.5M12 14.5H6A2.5 2.5 0 0 1 3.5 12V6A2.5 2.5 0 0 1 6 3.5h6c1.39 0 2.5 1.12 2.5 2.5v6c0 1.38-1.11 2.5-2.5 2.5M22 4.5V8h-3.5c-.55 0-1 .45-1 1s.45 1 1 1H22v3.5c0 .55.45 1 1 1s1-.45 1-1V10h3.5c.55 0 1-.45 1-1s-.45-1-1-1H24V4.5c0-.55-.45-1-1-1s-1 .45-1 1"/></svg>