<svg xmlns="http://www.w3.org/2000/svg" width="32" height="32" viewBox="0 0 32 32"><path d="M12 17.5H6c-.66 0-1.3.26-1.77.73S3.5 19.34 3.5 20v6c0 .66.26 1.3.73 1.77s1.11.73 1.77.73h6c.66 0 1.3-.26 1.77-.73s.73-1.11.73-1.77v-6c0-.66-.26-1.3-.73-1.77s-1.11-.73-1.77-.73m1.5 8.5a1.5 1.5 0 0 1-1.5 1.5H6A1.5 1.5 0 0 1 4.5 26v-6A1.5 1.5 0 0 1 6 18.5h6a1.5 1.5 0 0 1 1.5 1.5zM26 17.5h-6c-.66 0-1.3.26-1.77.73s-.73 1.11-.73 1.77v6c0 .66.26 1.3.73 1.77s1.11.73 1.77.73h6c.66 0 1.3-.26 1.77-.73s.73-1.11.73-1.77v-6c0-.66-.26-1.3-.73-1.77s-1.11-.73-1.77-.73m1.5 8.5a1.5 1.5 0 0 1-1.5 1.5h-6a1.5 1.5 0 0 1-1.5-1.5v-6a1.5 1.5 0 0 1 1.5-1.5h6a1.5 1.5 0 0 1 1.5 1.5zM12 3.5H6c-.66 0-1.3.26-1.77.73S3.5 5.34 3.5 6v6c0 .66.26 1.3.73 1.77s1.11.73 1.77.73h6c.66 0 1.3-.26 1.77-.73s.73-1.11.73-1.77V6c0-.66-.26-1.3-.73-1.77S12.66 3.5 12 3.5m1.5 8.5a1.5 1.5 0 0 1-1.5 1.5H6A1.5 1.5 0 0 1 4.5 12V6A1.5 1.5 0 0 1 6 4.5h6A1.5 1.5 0 0 1 13.5 6zM18.5 9.5h4v4c0 .28.22.5.5.5s.5-.22.5-.5v-4h4c.28 0 .5-.22.5-.5s-.22-.5-.5-.5h-4v-4c0-.28-.22-.5-.5-.5-.27 0-.5.22-.5.5v4h-4c-.28 0-.5.22-.5.5s.23.5.5.5"/></svg>