<svg xmlns="http://www.w3.org/2000/svg" width="32" height="32" viewBox="0 0 32 32"><path d="M25.032 8.006H7.009a3.003 3.003 0 0 0-3 3V23a5.006 5.006 0 0 0 5 5h14.023a5.006 5.006 0 0 0 5-5V11.006a3.003 3.003 0 0 0-3-3m1 14.993a3.004 3.004 0 0 1-3 3H9.009a3.003 3.003 0 0 1-3-3V11.006a1 1 0 0 1 1-1h18.023a1 1 0 0 1 1 1zM5 6.002h22a1 1 0 1 0 0-2H5a1 1 0 1 0 0 2M21 12H11a1 1 0 0 0-1 1 4.58 4.58 0 0 0 1.975 3.814 6.93 6.93 0 0 0 4.004 1.182C18.97 17.996 22 16.28 22 13a1 1 0 0 0-1-1m-5.021 3.996c-1.008.023-2-.26-2.844-.81A2.62 2.62 0 0 1 12.179 14h7.633c-.554 1.365-2.244 1.996-3.834 1.996"/></svg>