<svg xmlns="http://www.w3.org/2000/svg" width="32" height="32" viewBox="0 0 32 32"><path d="M27 10.75A1.75 1.75 0 0 0 28.75 9V5A1.75 1.75 0 0 0 27 3.25h-4A1.75 1.75 0 0 0 21.25 5v1.25h-10.5V5A1.75 1.75 0 0 0 9 3.25H5A1.75 1.75 0 0 0 3.25 5v4A1.75 1.75 0 0 0 5 10.75h1.25v9.502H5a1.75 1.75 0 0 0-1.75 1.75v4A1.75 1.75 0 0 0 5 27.752h4a1.75 1.75 0 0 0 1.75-1.75V24.75h10.5V26A1.75 1.75 0 0 0 23 27.75h4A1.75 1.75 0 0 0 28.75 26v-4A1.75 1.75 0 0 0 27 20.25h-1.25v-9.5zM22.75 5a.25.25 0 0 1 .25-.25h4a.25.25 0 0 1 .25.25v4a.25.25 0 0 1-.25.25h-4a.25.25 0 0 1-.25-.25zm-18 4V5A.25.25 0 0 1 5 4.75h4a.25.25 0 0 1 .25.25v4a.25.25 0 0 1-.25.25H5A.25.25 0 0 1 4.75 9m4.5 17.002a.25.25 0 0 1-.25.25H5a.25.25 0 0 1-.25-.25v-4a.25.25 0 0 1 .25-.25h4a.25.25 0 0 1 .25.25zm18-4.002v4a.25.25 0 0 1-.25.25h-4a.25.25 0 0 1-.25-.25v-4a.25.25 0 0 1 .25-.25h4a.25.25 0 0 1 .25.25m-3-1.75H23A1.75 1.75 0 0 0 21.25 22v1.25h-10.5v-1.248A1.75 1.75 0 0 0 9 20.252H7.75V10.75H9A1.75 1.75 0 0 0 10.75 9V7.75h10.5V9A1.75 1.75 0 0 0 23 10.75h1.25z"/></svg>