<svg xmlns="http://www.w3.org/2000/svg" width="32" height="32" viewBox="0 0 32 32"><path d="M27 10.5A1.5 1.5 0 0 0 28.5 9V5A1.5 1.5 0 0 0 27 3.5h-4A1.5 1.5 0 0 0 21.5 5v1.5h-11V5A1.5 1.5 0 0 0 9 3.5H5A1.5 1.5 0 0 0 3.5 5v4A1.5 1.5 0 0 0 5 10.5h1.5v10.002H5a1.5 1.5 0 0 0-1.5 1.5v4a1.5 1.5 0 0 0 1.5 1.5h4a1.5 1.5 0 0 0 1.5-1.5V24.5h11V26a1.5 1.5 0 0 0 1.5 1.5h4a1.5 1.5 0 0 0 1.5-1.5v-4a1.5 1.5 0 0 0-1.5-1.5h-1.5v-10zM22.5 5a.5.5 0 0 1 .5-.5h4a.5.5 0 0 1 .5.5v4a.5.5 0 0 1-.5.5h-4a.5.5 0 0 1-.5-.5zm-18 4V5a.5.5 0 0 1 .5-.5h4a.5.5 0 0 1 .5.5v4a.5.5 0 0 1-.5.5H5a.5.5 0 0 1-.5-.5m5 17.002a.5.5 0 0 1-.5.5H5a.5.5 0 0 1-.5-.5v-4a.5.5 0 0 1 .5-.5h4a.5.5 0 0 1 .5.5zM27.5 22v4a.5.5 0 0 1-.5.5h-4a.5.5 0 0 1-.5-.5v-4a.5.5 0 0 1 .5-.5h4a.5.5 0 0 1 .5.5m-3-1.5H23a1.5 1.5 0 0 0-1.5 1.5v1.5h-11v-1.498a1.5 1.5 0 0 0-1.5-1.5H7.5V10.5H9A1.5 1.5 0 0 0 10.5 9V7.5h11V9a1.5 1.5 0 0 0 1.5 1.5h1.5z"/></svg>