<svg xmlns="http://www.w3.org/2000/svg" width="32" height="32" viewBox="0 0 32 32"><path d="M27 11a2.003 2.003 0 0 0 2-2V5a2 2 0 0 0-2-2h-4a2 2 0 0 0-2 2v1H11V5a2 2 0 0 0-2-2H5a2 2 0 0 0-2 2v4a2 2 0 0 0 2 2h1v9.002H5a2 2 0 0 0-2 2v4a2 2 0 0 0 2 2h4a2 2 0 0 0 2-2V25h10v1a2 2 0 0 0 2 2h4a2.003 2.003 0 0 0 2-2v-4a2 2 0 0 0-2-2h-1v-9zm-4-6h4l.001 4H23zM5 9V5h4l.001 4zm0 17.002v-4h4v4zM27 26h-4v-4h4zm-3-6h-1a2 2 0 0 0-2 2v1H11v-.998a2 2 0 0 0-2-2H8V11h1a2.003 2.003 0 0 0 2-2V8h10v1a2 2 0 0 0 2 2h1z"/></svg>