<svg xmlns="http://www.w3.org/2000/svg" width="32" height="32" viewBox="0 0 32 32"><path d="M16.006 22.5a.75.75 0 1 0 0-1.5.75.75 0 0 0 0 1.5M16 10.5a3.505 3.505 0 0 0-3.5 3.5.5.5 0 0 0 1 0 2.5 2.5 0 1 1 2.5 2.5.5.5 0 0 0-.5.5v1.462a.5.5 0 0 0 1 0v-.997A3.5 3.5 0 0 0 16 10.5M16 3.5A12.501 12.501 0 0 0 5.48 22.754a5.43 5.43 0 0 1-2.44 3.54c-.613.403-.624.903-.428 1.236.369.63 1.745.98 3.409.98 1.719.01 3.42-.346 4.99-1.046a12.4 12.4 0 0 0 4.988 1.036 12.5 12.5 0 0 0 0-25m0 24a11.4 11.4 0 0 1-4.792-1.043.5.5 0 0 0-.44.01c-2.675 1.39-6.335 1.122-7.164.653a6.37 6.37 0 0 0 2.892-4.432.5.5 0 0 0-.08-.33 11.5 11.5 0 1 1 9.583 5.142"/></svg>