<svg xmlns="http://www.w3.org/2000/svg" width="32" height="32" viewBox="0 0 32 32"><path d="M6 9c0 .747.712 1.75 2.636 2.625C10.469 12.458 13.072 13 16 13s5.531-.542 7.364-1.375C25.288 10.751 26 9.747 26 9s-.712-1.75-2.636-2.625C21.531 5.542 18.928 5 16 5s-5.531.542-7.364 1.375C6.712 7.249 6 8.253 6 9m20 3.396a10 10 0 0 1-1.808 1.05C22.044 14.422 19.147 15 16 15s-6.044-.578-8.192-1.554A10 10 0 0 1 6 12.396V16c0 .747.712 1.75 2.636 2.625 1.684.766 4.018 1.285 6.657 1.364-.189.631-.291 1.3-.293 1.991-2.758-.108-5.274-.662-7.192-1.534A10 10 0 0 1 6 19.396V23c0 .747.712 1.75 2.636 2.625C10.469 26.458 13.072 27 16 27q.546 0 1.076-.025a7 7 0 0 0 2.847 1.712A24 24 0 0 1 16 29c-3.147 0-6.044-.578-8.192-1.554-1.346-.612-2.56-1.464-3.24-2.544A1 1 0 0 1 4 24V9c0-2.014 1.75-3.51 3.808-4.446C9.956 3.578 12.853 3 16 3s6.044.578 8.192 1.554C26.25 5.49 28 6.986 28 9v9.392a7 7 0 0 0-2.023-2.153Q26 16.116 26 16zm-1.885 6.451.64-.629a.385.385 0 0 1 .545.005l.538.55a.384.384 0 0 1-.005.544l-.64.626a.38.38 0 0 0-.086.42l.257.628a.38.38 0 0 0 .356.24h.895a.384.384 0 0 1 .385.384v.77a.385.385 0 0 1-.385.384h-.896a.39.39 0 0 0-.356.238l-.273.66a.39.39 0 0 0 .084.418l.634.635a.385.385 0 0 1 0 .543l-.544.544a.385.385 0 0 1-.544 0l-.635-.633a.38.38 0 0 0-.419-.084l-.66.273a.39.39 0 0 0-.237.355v.897a.385.385 0 0 1-.384.385h-.77a.385.385 0 0 1-.384-.385v-.897a.39.39 0 0 0-.238-.355l-.66-.273a.39.39 0 0 0-.418.084l-.635.633a.385.385 0 0 1-.544 0l-.543-.544a.385.385 0 0 1 0-.543l.634-.635a.38.38 0 0 0 .083-.419l-.273-.66a.39.39 0 0 0-.355-.237h-.897a.385.385 0 0 1-.385-.384v-.77a.384.384 0 0 1 .385-.384h.897a.39.39 0 0 0 .355-.238l.273-.66a.38.38 0 0 0-.083-.418l-.634-.635a.385.385 0 0 1 0-.544l.544-.544a.384.384 0 0 1 .544 0l.634.634a.38.38 0 0 0 .42.084l.659-.273a.39.39 0 0 0 .237-.355v-.897a.385.385 0 0 1 .385-.385h.769a.385.385 0 0 1 .385.385v.898a.38.38 0 0 0 .235.354l.693.29a.39.39 0 0 0 .417-.08M22 24a2 2 0 1 0 0-4 2 2 0 0 0 0 4"/></svg>