<svg xmlns="http://www.w3.org/2000/svg" width="32" height="32" viewBox="0 0 32 32"><path d="M5.75 9c0 .906.842 1.97 2.782 2.853 1.873.85 4.512 1.397 7.468 1.397s5.595-.546 7.468-1.397C25.408 10.97 26.25 9.906 26.25 9s-.842-1.97-2.782-2.853C21.595 5.297 18.956 4.75 16 4.75s-5.595.546-7.468 1.397C6.592 7.03 5.75 8.094 5.75 9m20.5 2.875c-.603.524-1.35.974-2.161 1.343-2.11.959-4.97 1.532-8.089 1.532s-5.98-.573-8.089-1.532C7.1 12.85 6.353 12.4 5.75 11.875V16c0 .906.842 1.97 2.782 2.853 1.707.776 4.052 1.298 6.692 1.384q-.189.722-.219 1.493c-2.73-.108-5.211-.656-7.094-1.512-.812-.369-1.558-.819-2.161-1.343V23c0 .906.842 1.97 2.782 2.853 1.873.85 4.512 1.397 7.468 1.397q.676 0 1.328-.037a7 7 0 0 0 2.096 1.298A24 24 0 0 1 16 28.75c-3.12 0-5.98-.573-8.089-1.532-1.364-.62-2.54-1.466-3.17-2.514A.75.75 0 0 1 4.25 24V9c0-1.856 1.62-3.29 3.661-4.218 2.11-.959 4.97-1.532 8.089-1.532s5.98.573 8.089 1.532c2.04.927 3.661 2.362 3.661 4.218v9.007a7 7 0 0 0-1.552-1.61A1.6 1.6 0 0 0 26.25 16zm-1.924 6.657.705-.692a.423.423 0 0 1 .599.006l.592.604a.423.423 0 0 1-.006.598l-.703.69a.42.42 0 0 0-.095.462l.282.69a.42.42 0 0 0 .392.264h.985a.423.423 0 0 1 .423.423v.846a.423.423 0 0 1-.423.423h-.987a.42.42 0 0 0-.39.261l-.301.726a.42.42 0 0 0 .092.46l.698.699a.423.423 0 0 1 0 .598l-.6.598a.423.423 0 0 1-.597 0l-.698-.697a.42.42 0 0 0-.46-.092l-.727.3a.42.42 0 0 0-.26.391v.987a.423.423 0 0 1-.424.423h-.846a.423.423 0 0 1-.423-.423v-.987a.42.42 0 0 0-.261-.39l-.726-.301a.42.42 0 0 0-.46.092l-.699.697a.423.423 0 0 1-.598 0l-.598-.598a.423.423 0 0 1 0-.598l.698-.698a.42.42 0 0 0 .091-.461l-.3-.726a.42.42 0 0 0-.391-.26h-.987a.424.424 0 0 1-.423-.424v-.846a.423.423 0 0 1 .423-.423h.987a.42.42 0 0 0 .391-.261l.3-.726a.42.42 0 0 0-.09-.461l-.699-.698a.423.423 0 0 1 0-.598l.599-.599a.423.423 0 0 1 .598 0l.697.698a.42.42 0 0 0 .462.092l.725-.3a.42.42 0 0 0 .261-.391v-.987a.423.423 0 0 1 .423-.423h.846a.423.423 0 0 1 .424.423v.988a.42.42 0 0 0 .259.39l.761.32a.42.42 0 0 0 .46-.089M22 24a2 2 0 1 0 0-4 2 2 0 0 0 0 4"/></svg>