<svg xmlns="http://www.w3.org/2000/svg" width="32" height="32" viewBox="0 0 32 32"><path d="M7.808 4.554C9.956 3.578 12.853 3 16 3s6.044.578 8.192 1.554C26.25 5.49 28 6.986 28 9c0 .312-.16.72-.694 1.206-.535.486-1.364.97-2.473 1.396C22.622 12.452 19.5 13 16 13s-6.622-.547-8.833-1.398c-1.11-.426-1.938-.91-2.473-1.396S4 9.312 4 9c0-2.014 1.75-3.51 3.808-4.446M4 12.206V17c0 .312.16.72.694 1.206.535.486 1.364.97 2.473 1.396 2.014.775 4.784 1.298 7.906 1.385a7.002 7.002 0 0 1 12.568-3.132c.27-.334.359-.622.359-.855v-4.794c-.688.485-1.521.906-2.449 1.263C23.058 14.428 19.681 15 16 15s-7.058-.572-9.551-1.531C5.52 13.112 4.688 12.69 4 12.206M15.07 22.988a7.01 7.01 0 0 0 5.01 5.745C18.8 28.904 17.423 29 16 29c-6.5 0-12-2-12-4v-4.794c.688.485 1.521.906 2.449 1.263 2.281.877 5.303 1.431 8.62 1.519M24.756 18.218l-.641.63a.39.39 0 0 1-.417.08l-.693-.29a.38.38 0 0 1-.235-.355v-.898a.385.385 0 0 0-.385-.385h-.77a.385.385 0 0 0-.384.385v.897a.39.39 0 0 1-.237.355l-.66.273a.38.38 0 0 1-.419-.084l-.634-.634a.384.384 0 0 0-.544 0l-.544.544a.385.385 0 0 0 0 .544l.634.635a.38.38 0 0 1 .083.419l-.273.66a.38.38 0 0 1-.355.237h-.897a.384.384 0 0 0-.385.384v.77a.385.385 0 0 0 .385.384h.897a.39.39 0 0 1 .355.238l.273.66a.38.38 0 0 1-.083.418l-.634.635a.385.385 0 0 0 0 .543l.543.544a.385.385 0 0 0 .544 0l.635-.633a.38.38 0 0 1 .419-.084l.66.273a.39.39 0 0 1 .237.355v.897a.385.385 0 0 0 .384.385h.77a.385.385 0 0 0 .384-.385v-.897a.39.39 0 0 1 .238-.355l.66-.273a.38.38 0 0 1 .418.084l.635.633a.385.385 0 0 0 .544 0l.544-.544a.385.385 0 0 0 0-.543l-.634-.635a.38.38 0 0 1-.084-.419l.273-.66a.39.39 0 0 1 .355-.237h.897a.385.385 0 0 0 .385-.384v-.77a.385.385 0 0 0-.385-.384h-.895a.385.385 0 0 1-.356-.24l-.257-.628a.385.385 0 0 1 .087-.42l.64-.626a.385.385 0 0 0 .004-.545l-.538-.549a.385.385 0 0 0-.544-.005M24 22a2 2 0 1 1-4 0 2 2 0 0 1 4 0"/></svg>