<svg xmlns="http://www.w3.org/2000/svg" width="32" height="32" viewBox="0 0 32 32"><path d="M5.25 9c0 1.064.972 2.19 2.929 3.08 1.912.87 4.588 1.42 7.571 1.42 2.983 0 5.66-.55 7.571-1.42 1.957-.89 2.929-2.016 2.929-3.08s-.972-2.19-2.929-3.08C21.41 5.05 18.733 4.5 15.75 4.5c-2.983 0-5.66.55-7.571 1.42C6.222 6.81 5.25 7.936 5.25 9Zm21 2.289c-.626.67-1.504 1.242-2.515 1.702-2.07.94-4.893 1.509-7.985 1.509-3.092 0-5.916-.569-7.985-1.51-1.011-.459-1.89-1.032-2.515-1.701V16c0 1.064.972 2.19 2.929 3.08 1.731.787 4.09 1.313 6.735 1.405-.071.324-.12.657-.145.996-2.706-.107-5.156-.65-7.004-1.49-1.011-.46-1.89-1.033-2.515-1.702V23c0 1.064.972 2.19 2.929 3.08 1.912.87 4.588 1.42 7.571 1.42.545 0 1.08-.018 1.602-.054.422.342.885.635 1.38.872a24.13 24.13 0 0 1-2.982.182c-3.092 0-5.916-.569-7.985-1.51C5.74 26.07 4.25 24.698 4.25 23V9c0-1.697 1.49-3.07 3.515-3.99 2.07-.941 4.893-1.51 7.985-1.51 3.092 0 5.916.569 7.985 1.51C25.76 5.93 27.25 7.302 27.25 9v8.67a7.042 7.042 0 0 0-1.09-1.106c.06-.189.09-.377.09-.564v-4.711Zm-1.962 6.928.769-.755a.462.462 0 0 1 .653.006l.646.659a.463.463 0 0 1-.006.653l-.767.752a.461.461 0 0 0-.104.504l.308.754a.462.462 0 0 0 .427.287h1.075a.461.461 0 0 1 .461.461v.924a.462.462 0 0 1-.462.461h-1.076a.462.462 0 0 0-.426.285l-.328.791a.461.461 0 0 0 .1.503l.761.762a.46.46 0 0 1 0 .652l-.653.653a.461.461 0 0 1-.652 0l-.761-.76a.463.463 0 0 0-.503-.101l-.792.328a.462.462 0 0 0-.285.426v1.076a.461.461 0 0 1-.461.462h-.924a.462.462 0 0 1-.461-.462v-1.076a.462.462 0 0 0-.285-.426l-.791-.328a.461.461 0 0 0-.504.1l-.76.76a.461.461 0 0 1-.653 0l-.653-.652a.462.462 0 0 1 0-.652l.761-.762a.462.462 0 0 0 .1-.503l-.328-.791a.461.461 0 0 0-.426-.285h-1.076a.462.462 0 0 1-.462-.461v-.924a.462.462 0 0 1 .462-.461h1.076a.461.461 0 0 0 .427-.285l.328-.791a.461.461 0 0 0-.1-.504l-.761-.76a.461.461 0 0 1 0-.653l.652-.653a.462.462 0 0 1 .653 0l.761.76a.463.463 0 0 0 .503.1l.792-.327a.461.461 0 0 0 .284-.426v-1.076A.462.462 0 0 1 21.29 16h.923a.461.461 0 0 1 .462.462v1.077a.462.462 0 0 0 .282.426l.831.348a.462.462 0 0 0 .501-.096ZM21.75 24a2 2 0 1 0 0-4 2 2 0 0 0 0 4Z"/></svg>