<svg xmlns="http://www.w3.org/2000/svg" width="32" height="32" viewBox="0 0 32 32"><path d="m13.53 22.47-5-5a.749.749 0 1 0-1.06 1.06l3.72 3.72H3a.75.75 0 1 0 0 1.5h8.19l-3.72 3.72a.75.75 0 0 0 1.06 1.06l5-5a.75.75 0 0 0 0-1.06M21.41 13.743a6.25 6.25 0 1 0-6.814-.007c-1.05.3-2.054.738-2.986 1.306a.75.75 0 0 0 .78 1.281 10.77 10.77 0 0 1 5.611-1.566c5.556 0 10.25 4.268 10.25 9.32a2.42 2.42 0 0 1-.989 1.87c-2.259 1.93-8.031 2.814-13.146 2.01a.76.76 0 0 0-.858.625.75.75 0 0 0 .625.857c1.355.207 2.723.309 4.094.305 3.934 0 8.09-.802 10.26-2.656a3.94 3.94 0 0 0 1.514-3.011c0-4.779-3.572-8.952-8.34-10.334M13.26 8.507a4.75 4.75 0 1 1 9.5 0 4.75 4.75 0 0 1-9.5 0"/></svg>