<svg xmlns="http://www.w3.org/2000/svg" width="32" height="32" viewBox="0 0 32 32"><path d="M20.55 12.19a4.5 4.5 0 1 1-5-7.483 4.5 4.5 0 0 1 5 7.483M15.121 20.879l-3.723-3.723c1.747-1.365 4.046-2.206 6.6-2.206C23.62 14.95 28 19.018 28 23.788c0 1.2-.892 2.26-2.831 3.068-1.902.792-4.51 1.19-7.169 1.19h-.02a19.6 19.6 0 0 1-5.19-.593l2.331-2.332a3 3 0 0 0 0-4.242M7.293 17.293a1 1 0 0 1 1.414 0l5 5a1 1 0 0 1 0 1.414l-5 5a1 1 0 0 1-1.414-1.414L10.586 24H3a1 1 0 1 1 0-2h7.586l-3.293-3.293a1 1 0 0 1 0-1.414"/></svg>