<svg xmlns="http://www.w3.org/2000/svg" width="32" height="32" viewBox="0 0 32 32"><path d="M12.5 4a5.5 5.5 0 0 0-5.1 7.563q.024.051.044.106.171.398.402.763A1 1 0 1 1 6.154 13.5a8 8 0 0 1-.322-.564 3.501 3.501 0 0 1 0-6.872A7.5 7.5 0 0 1 12.5 2a7.5 7.5 0 0 1 6.32 3.46 1 1 0 0 1-1.684 1.08A5.5 5.5 0 0 0 12.5 4M10 9.5a2.5 2.5 0 1 1 5 0 2.5 2.5 0 0 1-5 0M12.5 5a4.5 4.5 0 0 0-2.434 8.285c-1.14.27-2.247.731-3.2 1.394C5.21 15.831 4 17.616 4 20c0 .706.153 1.382.56 1.972.403.586.99.989 1.683 1.27 1.133.459 2.727.66 4.79.73q-.032.332-.032.671c0 1.776 1.487 2.855 2.974 3.447 1.56.62 3.57.91 5.525.91s3.966-.29 5.526-.91C26.515 27.499 28 26.42 28 24.643c0-3.144-2.065-5.75-4.948-6.943a5.5 5.5 0 0 0-6.133-9.057A4.5 4.5 0 0 0 12.5 5m6.998 12a3.5 3.5 0 1 1 0-7 3.5 3.5 0 0 1 .002 7zm-3.549.7c-2.018.836-3.637 2.365-4.425 4.286-2.246-.056-3.67-.25-4.53-.598-.444-.18-.667-.375-.788-.55C6.087 20.664 6 20.414 6 20c0-1.616.79-2.831 2.009-3.68C9.253 15.456 10.92 15 12.5 15c.575 0 1.176.076 1.774.217.32.977.908 1.834 1.676 2.483m-2.948 6.943C13 21.638 15.793 19 19.5 19c3.707 0 6.5 2.637 6.5 5.643 0 .462-.388 1.061-1.714 1.589-1.252.498-2.992.768-4.786.768-1.795 0-3.535-.27-4.787-.768-1.325-.528-1.713-1.127-1.713-1.589M21.199 5.17a1 1 0 0 0-.398 1.96 6.503 6.503 0 0 1 4.45 9.403 1 1 0 0 0 1.768.934q.192-.362.349-.744a3.5 3.5 0 0 0 0-6.445 8.52 8.52 0 0 0-6.17-5.108"/></svg>