<svg xmlns="http://www.w3.org/2000/svg" width="32" height="32" viewBox="0 0 32 32"><path d="M12.5 3.75a5.752 5.752 0 0 0-5.328 7.916q.021.044.038.092.18.423.424.807a.75.75 0 1 1-1.268.801 7 7 0 0 1-.367-.655 3.25 3.25 0 0 1 0-6.423 7.25 7.25 0 0 1 12.61-.692.75.75 0 1 1-1.263.808A5.75 5.75 0 0 0 12.5 3.75M9.75 9.5a2.75 2.75 0 1 1 5.5 0 2.75 2.75 0 0 1-5.5 0m2.75-4.25a4.25 4.25 0 0 0-2.216 7.877c-1.22.403-2.38 1.098-3.339 1.932C5.43 16.378 4.25 18.192 4.25 20c0 .67.145 1.294.516 1.832.37.536.912.913 1.576 1.181 1.14.46 2.784.658 4.97.718q-.06.448-.061.912c0 1.612 1.35 2.631 2.816 3.215 1.522.605 3.498.892 5.433.892 1.936 0 3.912-.287 5.434-.892 1.467-.584 2.816-1.603 2.816-3.215 0-3.169-2.186-5.794-5.2-6.87a5.25 5.25 0 0 0-5.825-8.731A4.25 4.25 0 0 0 12.5 5.25m3.95 12.524c-2.207.788-3.972 2.41-4.757 4.466-2.346-.049-3.86-.242-4.788-.617-.478-.194-.747-.415-.904-.642-.155-.225-.251-.53-.251-.981 0-1.192.821-2.628 2.18-3.809 1.344-1.169 3.05-1.941 4.57-1.941.599 0 1.226.098 1.85.277a5.25 5.25 0 0 0 2.1 3.247m3.05-.524a3.75 3.75 0 1 1 0-7.5 3.75 3.75 0 0 1 0 7.5m-6.75 7.393c0-3.17 2.934-5.893 6.75-5.893 3.817 0 6.75 2.72 6.75 5.893 0 .626-.525 1.286-1.87 1.821-1.291.514-3.065.786-4.88.786s-3.588-.273-4.879-.786c-1.345-.535-1.87-1.195-1.87-1.82m7.3-19.375a.75.75 0 1 0-.1 1.497 6.75 6.75 0 0 1 5.522 9.885.75.75 0 0 0 1.326.7 8 8 0 0 0 .377-.82 3.25 3.25 0 0 0 0-6.06 8.26 8.26 0 0 0-7.126-5.202"/></svg>