<svg xmlns="http://www.w3.org/2000/svg" width="32" height="32" viewBox="0 0 32 32"><path d="M12.167 4.064a5.99 5.99 0 0 0-5.614 8.086 1 1 0 0 1-1.87.71 2.922 2.922 0 0 1 0-5.611A7.993 7.993 0 0 1 18.841 5.66a1 1 0 1 1-1.67 1.1 5.98 5.98 0 0 0-5.004-2.697M21.397 4.913a1 1 0 1 0-.423 1.955 5.984 5.984 0 0 1 3.491 9.465 1 1 0 0 0 1.592 1.21 8 8 0 0 0 1.119-2.021 2.922 2.922 0 0 0 0-5.616 8 8 0 0 0-5.78-4.993M19.702 16.703a3.99 3.99 0 1 0 0-7.979 3.99 3.99 0 0 0 0 7.98M11.28 26.133c0-4.228 3.77-7.657 8.422-7.657s8.423 3.428 8.423 7.657c0 5.158-16.845 5.158-16.845 0M9.554 23.906c.78-3.099 3.156-5.545 6.185-6.701a5.98 5.98 0 0 1-2.026-4.491c0-1.78.776-3.378 2.007-4.475a3.99 3.99 0 1 0-5.68 5.192c-3.374.845-5.852 3.656-5.852 6.991 0 1.901 2.415 3.063 5.366 3.484"/></svg>