<svg xmlns="http://www.w3.org/2000/svg" width="32" height="32" viewBox="0 0 32 32"><path d="M13.5 3.25a.75.75 0 0 1 .75.75v24a.75.75 0 0 1-1.5 0V4a.75.75 0 0 1 .75-.75m-5 4a.75.75 0 0 1 .75.75v16a.75.75 0 0 1-1.5 0V8a.75.75 0 0 1 .75-.75m10 2a.75.75 0 0 1 .75.75v10a.75.75 0 0 1-1.5 0V10a.75.75 0 0 1 .75-.75m5 2a.75.75 0 0 1 .75.75v6a.75.75 0 0 1-1.5 0v-6a.75.75 0 0 1 .75-.75m-20 2a.75.75 0 0 1 .75.75v4a.75.75 0 0 1-1.5 0v-4a.75.75 0 0 1 .75-.75m25 0a.75.75 0 0 1 .75.75v2.5a.75.75 0 0 1-1.5 0V14a.75.75 0 0 1 .75-.75m-2 6a.75.75 0 0 1 .75.75v1.75H29a.75.75 0 0 1 0 1.5h-1.75V25a.75.75 0 0 1-1.5 0v-1.75H24a.75.75 0 0 1 0-1.5h1.75V20a.75.75 0 0 1 .75-.75m-7 3.5a.75.75 0 0 1 .75.75v1.75H22a.75.75 0 0 1 0 1.5h-1.75v1.75a.75.75 0 0 1-1.5 0v-1.75H17a.75.75 0 0 1 0-1.5h1.75V23.5a.75.75 0 0 1 .75-.75"/></svg>