<svg xmlns="http://www.w3.org/2000/svg" width="32" height="32" viewBox="0 0 32 32"><path d="M19 28h-1.979a4.88 4.88 0 0 1-4.936-4.104A6.006 6.006 0 0 0 16.998 18V8a6 6 0 0 0-12 0v10a6.004 6.004 0 0 0 5.067 5.92 6.9 6.9 0 0 0 2 4.08H3a1 1 0 0 0 0 2h16a1 1 0 0 0 0-2M6.998 18V8a4 4 0 0 1 8 0v10a4 4 0 0 1-8 0m14.17-9.555a1 1 0 0 0 .277 1.387c2.407 1.604 2.407 4.732 0 6.336a1 1 0 0 0 1.11 1.664c3.593-2.396 3.593-7.268 0-9.664a1 1 0 0 0-1.387.277m3.567-1.588C26.882 8.145 28 10.536 28 13s-1.118 4.855-3.265 6.142a1 1 0 0 0 1.03 1.716C28.618 19.145 30 16.036 30 13s-1.382-6.145-4.235-7.857a1 1 0 0 0-1.03 1.714"/></svg>