<svg xmlns="http://www.w3.org/2000/svg" width="32" height="32" viewBox="0 0 32 32"><path d="M13.5 3.5a.5.5 0 0 1 .5.5v24a.5.5 0 0 1-1 0V4a.5.5 0 0 1 .5-.5m-5 4A.5.5 0 0 1 9 8v16a.5.5 0 0 1-1 0V8a.5.5 0 0 1 .5-.5m10 2a.5.5 0 0 1 .5.5v10a.5.5 0 0 1-1 0V10a.5.5 0 0 1 .5-.5m5 2a.5.5 0 0 1 .5.5v6a.5.5 0 0 1-1 0v-6a.5.5 0 0 1 .5-.5m-20 2a.5.5 0 0 1 .5.5v4a.5.5 0 0 1-1 0v-4a.5.5 0 0 1 .5-.5m25 0a.5.5 0 0 1 .5.5v2.5a.5.5 0 0 1-1 0V14a.5.5 0 0 1 .5-.5m-2 6a.5.5 0 0 1 .5.5v2h2a.5.5 0 0 1 0 1h-2v2a.5.5 0 0 1-1 0v-2h-2a.5.5 0 0 1 0-1h2v-2a.5.5 0 0 1 .5-.5m-7 3.5a.5.5 0 0 1 .5.5v2h2a.5.5 0 0 1 0 1h-2v2a.5.5 0 0 1-1 0v-2h-2a.5.5 0 0 1 0-1h2v-2a.5.5 0 0 1 .5-.5"/></svg>