<svg xmlns="http://www.w3.org/2000/svg" width="32" height="32" viewBox="0 0 32 32"><path d="M25 25.5a.5.5 0 0 1-.344-.863 11.92 11.92 0 0 0 3.844-8.64 11.77 11.77 0 0 0-3.843-8.634.501.501 0 0 1 .329-.863.5.5 0 0 1 .357.136 12.76 12.76 0 0 1 4.157 9.366 12.9 12.9 0 0 1-4.156 9.361.5.5 0 0 1-.344.137M16 19.5a3.5 3.5 0 1 1 0-7 3.5 3.5 0 0 1 0 7m0-6a2.5 2.5 0 1 0 0 5 2.5 2.5 0 0 0 0-5M7 25.5a.5.5 0 0 1-.344-.137A12.9 12.9 0 0 1 2.5 16.002a12.75 12.75 0 0 1 4.157-9.366.5.5 0 1 1 .686.727A11.77 11.77 0 0 0 3.5 15.998a11.92 11.92 0 0 0 3.844 8.639A.5.5 0 0 1 7 25.5M10 21a.5.5 0 0 1-.344-.137A6.7 6.7 0 0 1 7.5 16.002a6.63 6.63 0 0 1 2.157-4.865.498.498 0 0 1 .81.184.5.5 0 0 1-.124.542A5.64 5.64 0 0 0 8.5 15.998a5.7 5.7 0 0 0 1.844 4.139A.5.5 0 0 1 10 21M22 21a.5.5 0 0 1-.344-.863 5.7 5.7 0 0 0 1.844-4.14 5.64 5.64 0 0 0-1.843-4.134.501.501 0 0 1 .329-.863.5.5 0 0 1 .357.136 6.63 6.63 0 0 1 2.157 4.866 6.7 6.7 0 0 1-2.156 4.861A.5.5 0 0 1 22 21"/></svg>