<svg xmlns="http://www.w3.org/2000/svg" width="32" height="32" viewBox="0 0 32 32"><path d="M19 28.5h-1.979a5.36 5.36 0 0 1-5.476-5.028A5.51 5.51 0 0 0 16.498 18V8a5.5 5.5 0 0 0-11 0v10a5.505 5.505 0 0 0 5.025 5.476A6.41 6.41 0 0 0 13.51 28.5H3a.5.5 0 0 0 0 1h16a.5.5 0 0 0 0-1M6.498 18V8a4.5 4.5 0 0 1 9 0v10a4.5 4.5 0 1 1-9 0M24.821 5.743a.5.5 0 0 0 .172.686C27.316 7.823 28.5 10.393 28.5 13s-1.184 5.177-3.507 6.571a.5.5 0 1 0 .514.858C28.184 18.823 29.5 15.893 29.5 13s-1.316-5.823-3.993-7.429a.5.5 0 0 0-.686.172M21.584 8.723a.5.5 0 0 0 .139.693c2.703 1.802 2.703 5.366 0 7.168a.5.5 0 1 0 .554.832c3.297-2.198 3.297-6.634 0-8.832a.5.5 0 0 0-.693.139"/></svg>