<svg xmlns="http://www.w3.org/2000/svg" width="32" height="32" viewBox="0 0 32 32"><path d="M13.5 3a1 1 0 0 1 1 1v24a1 1 0 1 1-2 0V4a1 1 0 0 1 1-1m-5 4a1 1 0 0 1 1 1v16a1 1 0 1 1-2 0V8a1 1 0 0 1 1-1m10 2a1 1 0 0 1 1 1v10a1 1 0 1 1-2 0V10a1 1 0 0 1 1-1m5 2a1 1 0 0 1 1 1v6a1 1 0 1 1-2 0v-6a1 1 0 0 1 1-1m-20 2a1 1 0 0 1 1 1v4a1 1 0 1 1-2 0v-4a1 1 0 0 1 1-1m25 0a1 1 0 0 1 1 1v2.5a1 1 0 1 1-2 0V14a1 1 0 0 1 1-1m-2 6a1 1 0 0 1 1 1v1.5H29a1 1 0 1 1 0 2h-1.5V25a1 1 0 1 1-2 0v-1.5H24a1 1 0 1 1 0-2h1.5V20a1 1 0 0 1 1-1m-7 3.5a1 1 0 0 1 1 1V25H22a1 1 0 1 1 0 2h-1.5v1.5a1 1 0 1 1-2 0V27H17a1 1 0 1 1 0-2h1.5v-1.5a1 1 0 0 1 1-1"/></svg>