<svg xmlns="http://www.w3.org/2000/svg" width="32" height="32" fill="none" viewBox="0 0 32 32"><path fill="#0F0F0F" d="M24.002 28h-1.979a4.876 4.876 0 0 1-4.935-4.104A6.006 6.006 0 0 0 22 18V8a6 6 0 1 0-12 0v10a6.004 6.004 0 0 0 5.067 5.92 6.917 6.917 0 0 0 2 4.08H8.003a1 1 0 0 0 0 2h16a1 1 0 1 0 0-2ZM12.001 14.988V13h8v1.988h-8ZM16 4a4.004 4.004 0 0 1 4 4v3h-8V8a4.004 4.004 0 0 1 4-4Z"/><path fill="#27A17A" fill-rule="evenodd" d="M20 11h-8v2h8v-2Zm0 4h-8v3a4 4 0 0 0 8 0v-3Z" clip-rule="evenodd"/></svg>