<svg xmlns="http://www.w3.org/2000/svg" width="32" height="32" viewBox="0 0 32 32"><path d="M27.997 13.5a.5.5 0 0 1-.5-.5 8.387 8.387 0 0 0-2.358-5.73 8.528 8.528 0 0 0-6.14-2.77.5.5 0 0 1 0-1 9.531 9.531 0 0 1 6.868 3.084A9.38 9.38 0 0 1 28.497 13a.5.5 0 0 1-.5.5ZM24 14.493a.497.497 0 0 1-.462-.309.5.5 0 0 1-.038-.191 5.316 5.316 0 0 0-1.414-4.018A5.73 5.73 0 0 0 18 8.5a.5.5 0 0 1-.457-.698.508.508 0 0 1 .494-.302 6.624 6.624 0 0 1 4.746 1.759 6.253 6.253 0 0 1 1.717 4.734.499.499 0 0 1-.5.5ZM9.454 22.454c6.746 6.746 12.68 6.412 14.358 4.734l1.037-1.037a2.731 2.731 0 0 0 0-3.858l-2.524-2.524a2.714 2.714 0 0 0-3.833.011l-1.31 1.31a7.004 7.004 0 0 1-4.192-2.171 7.025 7.025 0 0 1-2.176-4.189l1.32-1.32a2.81 2.81 0 0 0-.086-3.918L9.616 7.06a2.731 2.731 0 0 0-3.86 0L4.72 8.097c-1.678 1.678-2.012 7.611 4.734 14.357ZM6.464 7.766a1.73 1.73 0 0 1 2.444 0l2.433 2.433a1.82 1.82 0 0 1 .087 2.505l-1.382 1.38c-.707.707.27 3.575 2.236 5.542 1.967 1.966 4.838 2.94 5.546 2.232l1.37-1.37a1.713 1.713 0 0 1 2.42-.012L24.142 23a1.73 1.73 0 0 1 0 2.444l-1.037 1.037c-1.208 1.208-6.648 1.562-12.944-4.734C3.865 15.451 4.22 10.011 5.427 8.804l1.037-1.038Z"/></svg>