<svg xmlns="http://www.w3.org/2000/svg" width="32" height="32" viewBox="0 0 32 32"><path d="M25 25.75a.75.75 0 0 1-.516-1.295 11.67 11.67 0 0 0 3.766-8.46 11.52 11.52 0 0 0-3.765-8.45.75.75 0 0 1 1.03-1.09 13 13 0 0 1 4.235 9.548 13.16 13.16 0 0 1-4.234 9.542.75.75 0 0 1-.516.205M16 19.75a3.75 3.75 0 1 1 0-7.501 3.75 3.75 0 0 1 0 7.5m0-6a2.25 2.25 0 1 0 0 4.499 2.25 2.25 0 0 0 0-4.5M7 25.75a.75.75 0 0 1-.516-.205 13.16 13.16 0 0 1-4.234-9.541 13 13 0 0 1 4.235-9.55.75.75 0 0 1 1.03 1.09 11.52 11.52 0 0 0-3.765 8.453 11.67 11.67 0 0 0 3.766 8.458A.75.75 0 0 1 7 25.75M10 21.25a.75.75 0 0 1-.516-.205 6.95 6.95 0 0 1-2.234-5.042 6.87 6.87 0 0 1 2.235-5.048.75.75 0 0 1 1.03 1.09 5.4 5.4 0 0 0-1.765 3.952 5.46 5.46 0 0 0 1.766 3.958A.75.75 0 0 1 10 21.25M22 21.25a.75.75 0 0 1-.516-1.295 5.46 5.46 0 0 0 1.766-3.958 5.4 5.4 0 0 0-1.765-3.952.75.75 0 1 1 1.03-1.09 6.87 6.87 0 0 1 2.235 5.048 6.95 6.95 0 0 1-2.234 5.042.75.75 0 0 1-.516.205"/></svg>