<svg xmlns="http://www.w3.org/2000/svg" width="32" height="32" viewBox="0 0 32 32"><path d="M29.707 2.293a1 1 0 0 0-1.414 0L20 10.583V5a1 1 0 0 0-2 0v8a.997.997 0 0 0 1 1h8a1 1 0 0 0 0-2h-5.588l8.295-8.293a.998.998 0 0 0 0-1.414ZM23.861 19.876a3.082 3.082 0 0 0-4.26.003s-1.471 1.497-1.761 1.806a7.273 7.273 0 0 1-5.345-2.18 7.653 7.653 0 0 1-2.233-5.272c.362-.362 1.86-1.835 1.863-1.838a3.015 3.015 0 0 0 0-4.257L9.371 5.386a3.094 3.094 0 0 0-4.274 0L3.625 6.857c-1.883 1.883-2.243 8.556 5.36 16.16 4.913 4.913 9.437 6.5 12.533 6.5a5.169 5.169 0 0 0 3.626-1.142l1.471-1.472a3.027 3.027 0 0 0 0-4.274l-2.754-2.753Z"/></svg>