<svg xmlns="http://www.w3.org/2000/svg" width="32" height="32" viewBox="0 0 32 32"><path d="M27.997 14a1.001 1.001 0 0 1-1-1 7.89 7.89 0 0 0-2.223-5.389A8.029 8.029 0 0 0 19 5a1 1 0 1 1 0-2 10.033 10.033 0 0 1 7.232 3.241A9.883 9.883 0 0 1 28.997 13a1 1 0 0 1-1 1Z"/><path d="M24 14.993a1 1 0 0 1-1-1 4.848 4.848 0 0 0-1.264-3.66A5.24 5.24 0 0 0 18.036 9H18a1 1 0 1 1-.004-2h.041a7.115 7.115 0 0 1 5.095 1.9A6.724 6.724 0 0 1 25 13.993a.998.998 0 0 1-1 1ZM9.107 22.843c6.996 6.995 13.264 6.535 15.065 4.734l1.037-1.037a3.232 3.232 0 0 0 0-4.566l-2.524-2.524a3.214 3.214 0 0 0-4.54.012l-1.157 1.157A6.995 6.995 0 0 1 13.35 18.6a7.017 7.017 0 0 1-2.023-3.634l1.168-1.166a3.317 3.317 0 0 0-.086-4.626L9.976 6.74a3.232 3.232 0 0 0-4.566 0L4.373 7.778c-1.8 1.8-2.261 8.069 4.734 15.065ZM6.824 8.155a1.23 1.23 0 0 1 1.738 0l2.433 2.433a1.308 1.308 0 0 1 .087 1.796l-1.383 1.382c-1.08 1.08.327 4.338 2.237 6.248 2.101 2.102 5.257 3.229 6.253 2.233l1.37-1.371a1.212 1.212 0 0 1 1.712-.012l2.524 2.524a1.23 1.23 0 0 1 0 1.738l-1.037 1.037c-1.068 1.067-6.275 1.227-12.236-4.735C4.56 15.468 4.72 10.26 5.786 9.192l1.037-1.037Z"/></svg>