<svg xmlns="http://www.w3.org/2000/svg" width="32" height="32" viewBox="0 0 32 32"><path d="M29.354 2.646a.5.5 0 0 0-.707 0L19.5 11.79V5a.5.5 0 0 0-1 0v8a.501.501 0 0 0 .5.5h8a.5.5 0 0 0 0-1h-6.796l9.15-9.147a.5.5 0 0 0 0-.707ZM23.861 19.876a3.082 3.082 0 0 0-4.26.003s-1.472 1.497-1.761 1.806a7.279 7.279 0 0 1-5.346-2.18 7.653 7.653 0 0 1-2.233-5.272c.362-.362 1.86-1.835 1.863-1.838a3.01 3.01 0 0 0 0-4.257L9.371 5.386a3.095 3.095 0 0 0-4.275 0L3.624 6.857c-1.883 1.883-2.243 8.556 5.36 16.16 4.913 4.913 9.437 6.5 12.533 6.5a5.169 5.169 0 0 0 3.626-1.142l1.471-1.472a3.02 3.02 0 0 0 0-4.274l-2.753-2.753Zm2.046 6.32-1.471 1.472c-1.383 1.38-7.586 1.8-14.745-5.359C2.53 15.15 2.95 8.945 4.33 7.564l1.472-1.471a2.025 2.025 0 0 1 2.861 0l2.753 2.752a2.01 2.01 0 0 1 .003 2.84s-1.502 1.477-1.866 1.841c-.58.58-.067 2.532-.006 2.754a9.032 9.032 0 0 0 2.24 3.933c2.302 2.302 5.99 2.93 6.687 2.233.363-.365 1.837-1.863 1.837-1.863a2.058 2.058 0 0 1 2.842 0l2.753 2.753a2.026 2.026 0 0 1 0 2.86Z"/></svg>