<svg xmlns="http://www.w3.org/2000/svg" width="32" height="32" viewBox="0 0 32 32"><path d="M25 25.5a.5.5 0 0 1-.344-.863 11.917 11.917 0 0 0 3.844-8.64 11.77 11.77 0 0 0-3.843-8.634.5.5 0 1 1 .686-.727 12.753 12.753 0 0 1 4.157 9.366 12.91 12.91 0 0 1-4.156 9.361.496.496 0 0 1-.344.137ZM16 19.5a3.5 3.5 0 1 1 0-7 3.5 3.5 0 0 1 0 7Zm0-6a2.5 2.5 0 1 0 0 5 2.5 2.5 0 0 0 0-5ZM7 25.5a.496.496 0 0 1-.344-.137A12.908 12.908 0 0 1 2.5 16.002a12.754 12.754 0 0 1 4.157-9.366.5.5 0 1 1 .686.727A11.768 11.768 0 0 0 3.5 15.998a11.917 11.917 0 0 0 3.844 8.639A.5.5 0 0 1 7 25.5Z"/><path d="M10 21a.496.496 0 0 1-.344-.137A6.7 6.7 0 0 1 7.5 16.002a6.625 6.625 0 0 1 2.157-4.865.498.498 0 0 1 .843.377.5.5 0 0 1-.157.35A5.639 5.639 0 0 0 8.5 15.997a5.71 5.71 0 0 0 1.844 4.139A.5.5 0 0 1 10 21ZM22 21a.5.5 0 0 1-.344-.863 5.71 5.71 0 0 0 1.844-4.14 5.64 5.64 0 0 0-1.843-4.134.5.5 0 1 1 .686-.726 6.626 6.626 0 0 1 2.157 4.865 6.702 6.702 0 0 1-2.156 4.861A.496.496 0 0 1 22 21Z"/></svg>