<svg xmlns="http://www.w3.org/2000/svg" width="32" height="32" viewBox="0 0 32 32"><path d="M25.687 6.272a1 1 0 0 0-1.373 1.455A11.27 11.27 0 0 1 28 15.995a11.42 11.42 0 0 1-3.687 8.278 1.001 1.001 0 1 0 1.374 1.453A13.4 13.4 0 0 0 30 16.005a13.25 13.25 0 0 0-4.314-9.733M16 12a4 4 0 1 0 0 8 4 4 0 0 0 0-8m0 6a2 2 0 1 1 0-4 2 2 0 0 1 0 4M4 15.995a11.27 11.27 0 0 1 3.686-8.268 1 1 0 0 0-1.373-1.455A13.25 13.25 0 0 0 2 16.005a13.4 13.4 0 0 0 4.313 9.721.999.999 0 1 0 1.374-1.453A11.42 11.42 0 0 1 4 15.995M10.727 10.813a1 1 0 0 0-1.414-.04A7.12 7.12 0 0 0 7 16.005a7.2 7.2 0 0 0 2.313 5.221 1 1 0 1 0 1.374-1.453A5.22 5.22 0 0 1 9 15.995a5.14 5.14 0 0 1 1.687-3.769 1 1 0 0 0 .04-1.413M22.687 10.773a1 1 0 1 0-1.373 1.453A5.15 5.15 0 0 1 23 15.995a5.22 5.22 0 0 1-1.687 3.778 1.001 1.001 0 1 0 1.374 1.453A7.2 7.2 0 0 0 25 16.005a7.12 7.12 0 0 0-2.314-5.232"/></svg>