<svg xmlns="http://www.w3.org/2000/svg" width="32" height="32" viewBox="0 0 32 32"><path d="M15 2.5A2.5 2.5 0 0 0 12.5 5v12a2.5 2.5 0 0 0 2.5 2.5h3.5V27a1.5 1.5 0 0 1-1.5 1.5H5A1.5 1.5 0 0 1 3.5 27V15A1.5 1.5 0 0 1 5 13.5h4a.5.5 0 0 0 0-1H5A2.5 2.5 0 0 0 2.5 15v12A2.5 2.5 0 0 0 5 29.5h12a2.5 2.5 0 0 0 2.5-2.5v-8a.5.5 0 0 0-.5-.5h-4a1.5 1.5 0 0 1-1.5-1.5V5A1.5 1.5 0 0 1 15 3.5h12A1.5 1.5 0 0 1 28.5 5v12a1.5 1.5 0 0 1-1.5 1.5h-4a.5.5 0 0 0 0 1h4a2.5 2.5 0 0 0 2.5-2.5V5A2.5 2.5 0 0 0 27 2.5zM18.153 7.838C18.688 7.074 19.593 6.5 21 6.5s2.312.574 2.847 1.338c.515.735.653 1.596.653 2.162v5a.5.5 0 0 1-1 0v-2.5h-5V15a.5.5 0 0 1-1 0v-5c0-.566.138-1.427.653-2.162M23.5 10c0-.434-.112-1.073-.472-1.588-.34-.486-.935-.912-2.028-.912s-1.688.426-2.028.912c-.36.515-.472 1.154-.472 1.588v1.5h5zM7 16.5a.5.5 0 0 0 0 1h2a.5.5 0 0 0 0-1zM6.5 21a.5.5 0 0 1 .5-.5h4a.5.5 0 0 1 0 1H7a.5.5 0 0 1-.5-.5M7 24.5a.5.5 0 0 0 0 1h8a.5.5 0 0 0 0-1z"/></svg>