<svg xmlns="http://www.w3.org/2000/svg" width="32" height="32" viewBox="0 0 32 32"><path d="M12.25 5A2.75 2.75 0 0 1 15 2.25h12A2.75 2.75 0 0 1 29.75 5v12A2.75 2.75 0 0 1 27 19.75h-4a.75.75 0 0 1 0-1.5h4c.69 0 1.25-.56 1.25-1.25V5c0-.69-.56-1.25-1.25-1.25H15c-.69 0-1.25.56-1.25 1.25v12c0 .69.56 1.25 1.25 1.25h4a.75.75 0 0 1 .75.75v8A2.75 2.75 0 0 1 17 29.75H5A2.75 2.75 0 0 1 2.25 27V15A2.75 2.75 0 0 1 5 12.25h4a.75.75 0 0 1 0 1.5H5c-.69 0-1.25.56-1.25 1.25v12c0 .69.56 1.25 1.25 1.25h12c.69 0 1.25-.56 1.25-1.25v-7.25H15A2.75 2.75 0 0 1 12.25 17zM17.948 7.695C18.531 6.862 19.515 6.25 21 6.25s2.469.612 3.052 1.445c.553.79.698 1.707.698 2.305v5a.75.75 0 0 1-1.5 0v-2.25h-4.5V15a.75.75 0 0 1-1.5 0v-5c0-.598.145-1.515.698-2.305m5.302 3.555V10c0-.402-.105-.985-.427-1.445-.292-.417-.808-.805-1.823-.805s-1.531.388-1.823.805c-.322.46-.427 1.043-.427 1.445v1.25zM6.25 17a.75.75 0 0 1 .75-.75h2a.75.75 0 0 1 0 1.5H7a.75.75 0 0 1-.75-.75M7 20.25a.75.75 0 0 0 0 1.5h4a.75.75 0 0 0 0-1.5zM6.25 25a.75.75 0 0 1 .75-.75h8a.75.75 0 0 1 0 1.5H7a.75.75 0 0 1-.75-.75"/></svg>