<svg xmlns="http://www.w3.org/2000/svg" width="32" height="32" viewBox="0 0 32 32"><path d="M15 2a3 3 0 0 0-3 3v12a3 3 0 0 0 3 3h3v7a1 1 0 0 1-1 1H5a1 1 0 0 1-1-1V15a1 1 0 0 1 1-1h4a1 1 0 1 0 0-2H5a3 3 0 0 0-3 3v12a3 3 0 0 0 3 3h12a3 3 0 0 0 3-3v-8a1 1 0 0 0-1-1h-4a1 1 0 0 1-1-1V5a1 1 0 0 1 1-1h12a1 1 0 0 1 1 1v12a1 1 0 0 1-1 1h-4a1 1 0 1 0 0 2h4a3 3 0 0 0 3-3V5a3 3 0 0 0-3-3zM17.743 7.552C18.375 6.649 19.437 6 21 6s2.625.649 3.257 1.552C24.848 8.397 25 9.369 25 10v5a1 1 0 0 1-2 0v-2h-4v2a1 1 0 1 1-2 0v-5c0-.631.152-1.603.743-2.448M23 10c0-.369-.098-.897-.382-1.302C22.375 8.351 21.937 8 21 8s-1.375.351-1.618.698C19.098 9.103 19 9.631 19 10v1h4zM6.889 16C6.398 16 6 16.448 6 17s.398 1 .889 1H9.11c.491 0 .889-.448.889-1s-.398-1-.889-1zM6.923 20c-.51 0-.923.448-.923 1s.413 1 .923 1h4.154c.51 0 .923-.448.923-1s-.413-1-.923-1zM6 25c0-.552.407-1 .91-1h8.18c.503 0 .91.448.91 1s-.407 1-.91 1H6.91c-.503 0-.91-.448-.91-1"/></svg>