<svg xmlns="http://www.w3.org/2000/svg" width="32" height="32" viewBox="0 0 32 32"><path d="M3.5 4a.5.5 0 0 1 .5-.5h12a.5.5 0 0 1 .5.5v1.5H23a5.5 5.5 0 1 1 0 11h-3.793l-2.853 2.854a.5.5 0 0 1-.708 0L12.793 16.5H9a4.5 4.5 0 1 0 0 9h6.5V24a.5.5 0 0 1 .5-.5h12a.5.5 0 0 1 .5.5v4a.5.5 0 0 1-.5.5H16a.5.5 0 0 1-.5-.5v-1.5H9a5.5 5.5 0 1 1 0-11h3.793l2.853-2.854a.5.5 0 0 1 .708 0l2.853 2.854H23a4.5 4.5 0 1 0 0-9h-6.5V8a.5.5 0 0 1-.5.5H4a.5.5 0 0 1-.5-.5zm13 23.5h11v-3h-11zm-1-23h-11v3h11zM13.707 16 16 18.293 18.293 16 16 13.707z"/></svg>