<svg xmlns="http://www.w3.org/2000/svg" width="32" height="32" viewBox="0 0 32 32"><path fill-rule="evenodd" d="M13.5 5A1.5 1.5 0 0 1 15 3.5h12A1.5 1.5 0 0 1 28.5 5v12a1.5 1.5 0 0 1-1.5 1.5h-4a.5.5 0 0 0 0 1h4a2.5 2.5 0 0 0 2.5-2.5V5A2.5 2.5 0 0 0 27 2.5H15A2.5 2.5 0 0 0 12.5 5v12a2.5 2.5 0 0 0 2.5 2.5h3.49v7.528a1.5 1.5 0 0 1-1.5 1.5H5a1.5 1.5 0 0 1-1.5-1.5v-12.02a1.5 1.5 0 0 1 1.5-1.5h3.988a.5.5 0 1 0 0-1H5a2.5 2.5 0 0 0-2.5 2.5v12.02a2.5 2.5 0 0 0 2.5 2.5h11.99a2.5 2.5 0 0 0 2.5-2.5V19.1a.5.5 0 0 0-.49-.6h-4a1.5 1.5 0 0 1-1.5-1.5V5Zm7.55 1.5c.924 0 1.663.312 2.305.848.366.306.651.776.842 1.226.192.452.32.958.32 1.377v5.03a.5.5 0 1 1-1 0v-2.505H18.51v2.534a.5.5 0 1 1-1 0v-2.937a.505.505 0 0 1 0-.193V9.95c0-.421.134-.929.33-1.38.195-.45.483-.918.846-1.222a3.636 3.636 0 0 1 2.364-.849Zm-2.54 4.976h5.007V9.951c0-.243-.082-.613-.24-.987-.16-.376-.367-.685-.563-.848-.48-.401-.997-.616-1.662-.616a2.636 2.636 0 0 0-1.725.616c-.196.164-.407.475-.57.852-.163.376-.248.744-.248.983v1.525ZM5.912 17.001a.5.5 0 0 1 .5-.5h2.56a.5.5 0 0 1 0 1h-2.56a.5.5 0 0 1-.5-.5Zm.04 4.017a.5.5 0 0 1 .5-.5h4.542a.5.5 0 1 1 0 1H6.453a.5.5 0 0 1-.5-.5Zm0 4a.5.5 0 0 1 .5-.5h9.003a.5.5 0 1 1 0 1H6.453a.5.5 0 0 1-.5-.5Z" clip-rule="evenodd"/></svg>