<svg xmlns="http://www.w3.org/2000/svg" width="32" height="32" viewBox="0 0 32 32"><path d="M3.25 4A.75.75 0 0 1 4 3.25h12a.75.75 0 0 1 .75.75v1.25H23a5.75 5.75 0 0 1 0 11.5h-3.69l-2.78 2.78a.75.75 0 0 1-1.06 0l-2.78-2.78H9a4.25 4.25 0 0 0 0 8.5h6.25V24a.75.75 0 0 1 .75-.75h12a.75.75 0 0 1 .75.75v4a.75.75 0 0 1-.75.75H16a.75.75 0 0 1-.75-.75v-1.25H9a5.75 5.75 0 0 1 0-11.5h3.69l2.78-2.78a.75.75 0 0 1 1.06 0l2.78 2.78H23a4.25 4.25 0 0 0 0-8.5h-6.25V8a.75.75 0 0 1-.75.75H4A.75.75 0 0 1 3.25 8zm13.5 23.25h10.5v-2.5h-10.5zm-1.5-22.5H4.75v2.5h10.5zM14.06 16 16 17.94 17.94 16 16 14.06z"/></svg>