<svg xmlns="http://www.w3.org/2000/svg" width="32" height="32" viewBox="0 0 32 32"><path d="M14.039 18.704a5.5 5.5 0 1 0-7.078 0A7.65 7.65 0 0 0 2 25.643c0 .846.386 2.417 2.973 3.446 1.772.638 3.645.946 5.527.91 4.23 0 8.5-1.346 8.5-4.356a7.65 7.65 0 0 0-4.961-6.939M10.499 11a3.5 3.5 0 1 1 0 7.002 3.5 3.5 0 0 1 0-7.002m0 17C6.917 28 4 26.942 4 25.642 4 22.533 6.917 20 10.5 20c3.585 0 6.5 2.532 6.5 5.642 0 1.3-2.915 2.356-6.5 2.356M29 9h-1.09c-.15-.89-.5-1.735-1.025-2.47l.822-.823a1 1 0 0 0-1.414-1.414l-.822.822A5.96 5.96 0 0 0 23 4.091V3a1 1 0 0 0-2 0v1.088a6 6 0 0 0-2.459 1.038l-.834-.834a1 1 0 0 0-1.414 1.414l.833.833A5.9 5.9 0 0 0 16.12 8.8a1 1 0 1 0 1.96.399 4 4 0 1 1 1.52 4 1 1 0 0 0-1.2 1.6 5.95 5.95 0 0 0 2.6 1.115V17a1 1 0 0 0 2 0v-1.09c.89-.15 1.736-.5 2.471-1.025l.822.822a1 1 0 0 0 1.414-1.414l-.822-.822a6 6 0 0 0 1.024-2.47H29a1 1 0 0 0 0-2"/></svg>