<svg xmlns="http://www.w3.org/2000/svg" width="32" height="32" viewBox="0 0 32 32"><path d="M24.998 6.5H12.565A4.5 4.5 0 0 0 9.29 7.915l-6.383 6.617a1.5 1.5 0 0 0-.049 2l6.397 7.372a4.49 4.49 0 0 0 3.437 1.596h12.306a4.504 4.504 0 0 0 4.5-4.5V11a4.505 4.505 0 0 0-4.5-4.5m3.5 14.5a3.504 3.504 0 0 1-3.5 3.5H12.692a3.5 3.5 0 0 1-2.677-1.247l-6.397-7.372a.497.497 0 0 1 .014-.66l6.383-6.617a3.5 3.5 0 0 1 2.55-1.104h12.433a3.504 3.504 0 0 1 3.5 3.5zM24.353 11.647a.5.5 0 0 0-.707 0L20 15.293l-3.647-3.646a.5.5 0 0 0-.707.707L19.293 16l-3.647 3.647a.5.5 0 1 0 .707.707L20 16.708l3.646 3.646a.5.5 0 1 0 .707-.707l-3.646-3.646 3.646-3.647a.5.5 0 0 0 0-.707"/></svg>