<svg xmlns="http://www.w3.org/2000/svg" width="32" height="32" viewBox="0 0 32 32"><path d="M13.528 18.774a5.25 5.25 0 1 0-6.056 0 7.46 7.46 0 0 0-5.222 6.869c0 .955.488 2.288 2.816 3.215 1.742.625 3.583.927 5.434.892 4.106 0 8.25-1.27 8.25-4.107a7.46 7.46 0 0 0-5.222-6.869M6.75 14.5a3.75 3.75 0 1 1 7.5 0 3.75 3.75 0 0 1-7.5 0m3.75 13.75c-3.785 0-6.75-1.145-6.75-2.607 0-3.25 3.028-5.892 6.75-5.892s6.75 2.643 6.75 5.892c0 1.462-2.965 2.606-6.75 2.606M29 9.25h-1.305a5.7 5.7 0 0 0-1.14-2.745l.975-.974a.75.75 0 0 0-1.06-1.06l-.975.974a5.7 5.7 0 0 0-2.745-1.14V3a.75.75 0 1 0-1.5 0v1.316a5.74 5.74 0 0 0-2.74 1.134l-.98-.98a.75.75 0 1 0-1.06 1.06l.984.984a5.7 5.7 0 0 0-1.089 2.337.75.75 0 1 0 1.47.299 4.25 4.25 0 1 1 1.615 4.25.75.75 0 1 0-.9 1.2c.79.592 1.72.968 2.7 1.09V17a.75.75 0 0 0 1.5 0v-1.304c1-.131 1.947-.525 2.745-1.14l.974.975a.75.75 0 0 0 1.061-1.06l-.974-.976a5.7 5.7 0 0 0 1.14-2.745H29a.75.75 0 1 0 0-1.5"/></svg>