<svg xmlns="http://www.w3.org/2000/svg" width="32" height="32" viewBox="0 0 32 32"><path d="M12.932 18.842a5 5 0 1 0-4.865 0A7.29 7.29 0 0 0 2.5 25.643c0 .878.46 2.107 2.659 2.982 1.712.614 3.522.91 5.34.874 3.983 0 8-1.192 8-3.856a7.29 7.29 0 0 0-5.567-6.802M6.5 14.5a4 4 0 1 1 8 0 4 4 0 0 1-8 0m4 14c-3.394 0-7-1.002-7-2.857 0-3.387 3.14-6.142 7-6.142s7 2.755 7 6.142c0 1.855-3.607 2.856-7 2.856M29 9.5h-1.526a5.47 5.47 0 0 0-1.25-3.016l1.13-1.13a.5.5 0 1 0-.708-.707l-1.13 1.13A5.47 5.47 0 0 0 22.5 4.526V3a.5.5 0 0 0-1 0v1.544a5.5 5.5 0 0 0-3.014 1.235l-1.133-1.132a.5.5 0 1 0-.707.707l1.136 1.135A5.45 5.45 0 0 0 16.61 8.9a.5.5 0 1 0 .98.199 4.5 4.5 0 1 1 1.71 4.501.499.499 0 1 0-.601.799 5.44 5.44 0 0 0 2.8 1.06V17a.5.5 0 1 0 1 0v-1.525a5.47 5.47 0 0 0 3.018-1.251l1.13 1.13a.5.5 0 0 0 .706-.707l-1.13-1.13a5.47 5.47 0 0 0 1.251-3.017H29a.5.5 0 0 0 0-1"/></svg>