<svg xmlns="http://www.w3.org/2000/svg" width="32" height="32" viewBox="0 0 32 32"><path d="M4.75 4.75a.75.75 0 0 0-1.5 0v22.5a.75.75 0 0 0 1.5 0V4.75ZM28.75 4.75a.75.75 0 0 0-1.5 0v22.5a.75.75 0 0 0 1.5 0V4.75ZM16 14a.75.75 0 0 1 .75.75v8.5a.75.75 0 0 1-1.5 0v-8.5A.75.75 0 0 1 16 14ZM20.75 6.75a.75.75 0 0 0-1.5 0v16.5a.75.75 0 0 0 1.5 0V6.75ZM24 10a.75.75 0 0 1 .75.75v12.5a.75.75 0 0 1-1.5 0v-12.5A.75.75 0 0 1 24 10ZM8.75 14.75a.75.75 0 0 0-1.5 0v8.5a.75.75 0 0 0 1.5 0v-8.5ZM12 7a.75.75 0 0 1 .75.75v14.5a.75.75 0 0 1-1.5 0V7.75A.75.75 0 0 1 12 7ZM8.25 28a1 1 0 1 0 0-2 1 1 0 0 0 0 2ZM13.25 27a1 1 0 1 1-2 0 1 1 0 0 1 2 0ZM16.25 28a1 1 0 1 0 0-2 1 1 0 0 0 0 2ZM21.25 27a1 1 0 1 1-2 0 1 1 0 0 1 2 0ZM24.25 28a1 1 0 1 0 0-2 1 1 0 0 0 0 2Z"/></svg>