<svg xmlns="http://www.w3.org/2000/svg" width="32" height="32" viewBox="0 0 32 32"><path d="M5 5a1 1 0 0 0-2 0v22a1 1 0 1 0 2 0V5ZM29 5a1 1 0 1 0-2 0v22a1 1 0 1 0 2 0V5ZM16 14a1 1 0 0 1 1 1v8a1 1 0 1 1-2 0v-8a1 1 0 0 1 1-1ZM21 7a1 1 0 1 0-2 0v16a1 1 0 1 0 2 0V7ZM24 10a1 1 0 0 1 1 1v12a1 1 0 1 1-2 0V11a1 1 0 0 1 1-1ZM9 15a1 1 0 1 0-2 0v8a1 1 0 1 0 2 0v-8ZM12 7a1 1 0 0 1 1 1v14a1 1 0 1 1-2 0V8a1 1 0 0 1 1-1ZM8 28a1 1 0 1 0 0-2 1 1 0 0 0 0 2ZM13 27a1 1 0 1 1-2 0 1 1 0 0 1 2 0ZM16 28a1 1 0 1 0 0-2 1 1 0 0 0 0 2ZM21 27a1 1 0 1 1-2 0 1 1 0 0 1 2 0ZM24 28a1 1 0 1 0 0-2 1 1 0 0 0 0 2Z"/></svg>