<svg xmlns="http://www.w3.org/2000/svg" width="32" height="32" viewBox="0 0 32 32"><path d="M4.5 4.5a.5.5 0 0 0-1 0v23a.5.5 0 0 0 1 0zM28.5 4.5a.5.5 0 0 0-1 0v23a.5.5 0 0 0 1 0zM16 14a.5.5 0 0 1 .5.5v9a.5.5 0 0 1-1 0v-9a.5.5 0 0 1 .5-.5M20.5 6.5a.5.5 0 0 0-1 0v17a.5.5 0 0 0 1 0zM24 10a.5.5 0 0 1 .5.5v13a.5.5 0 0 1-1 0v-13a.5.5 0 0 1 .5-.5M8.5 14.5a.5.5 0 0 0-1 0v9a.5.5 0 0 0 1 0zM12 7a.5.5 0 0 1 .5.5v15a.5.5 0 0 1-1 0v-15A.5.5 0 0 1 12 7M8 27a.5.5 0 1 0 0-1 .5.5 0 0 0 0 1M12.5 26.5a.5.5 0 1 1-1 0 .5.5 0 0 1 1 0M16 27a.5.5 0 1 0 0-1 .5.5 0 0 0 0 1M20.5 26.5a.5.5 0 1 1-1 0 .5.5 0 0 1 1 0M24 27a.5.5 0 1 0 0-1 .5.5 0 0 0 0 1"/></svg>