<svg xmlns="http://www.w3.org/2000/svg" width="32" height="32" viewBox="0 0 32 32"><path d="M9 2a1 1 0 1 0-2 0v1.42c-.285.08-.563.193-.828.338l-.465-.465a1 1 0 0 0-1.414 1.414l6.988 6.988a1.001 1.001 0 0 0 1.69-.93l-.982-4.378a3.994 3.994 0 0 0-2.99-3.015V2Zm.26 3.646c.394.285.67.704.777 1.179l.231 1.03-2.551-2.552c.527-.1 1.087.013 1.543.343ZM5.056 7.11a1 1 0 0 1 .848 1.131L5.653 10H8.5a1 1 0 0 1 .5 1.866v.24a1 1 0 0 1-2 0V12H4.517c-.03 0-.058 0-.088-.002a.993.993 0 0 1-.684-.342.998.998 0 0 1-.233-.815l.412-2.882a1 1 0 0 1 1.132-.848ZM19.18 3.368C20.075 2.426 21.315 2 22.52 2H24a3 3 0 0 1 3 3v4a3 3 0 0 1-3 3h-1.574a.635.635 0 0 0-.545.308 7.176 7.176 0 0 0 0 7.384.635.635 0 0 0 .545.308H24a3 3 0 0 1 3 3v4a3 3 0 0 1-3 3h-1.667c-1.054 0-2.19-.32-3.043-1.148-1.557-1.512-2.584-3.366-3.24-5.352a1 1 0 1 1 1.9-.627c.577 1.749 1.454 3.302 2.733 4.544.389.377.973.583 1.65.583H24a1 1 0 0 0 1-1v-4a1 1 0 0 0-1-1h-1.574a2.635 2.635 0 0 1-2.26-1.28 9.175 9.175 0 0 1 0-9.44 2.635 2.635 0 0 1 2.26-1.28H24a1 1 0 0 0 1-1V5a1 1 0 0 0-1-1h-1.48c-.753 0-1.434.266-1.89.745-2.313 2.437-3.23 5.008-3.519 8.341a1 1 0 0 1-1.992-.172c.319-3.676 1.367-6.709 4.061-9.546ZM4 19a1 1 0 1 0 0 2h8.086l-3.293 3.293a1 1 0 1 0 1.414 1.414l5-5a1 1 0 0 0 0-1.414l-5-5a1 1 0 0 0-1.414 1.414L12.086 19H4Z"/></svg>