<svg xmlns="http://www.w3.org/2000/svg" width="32" height="32" viewBox="0 0 32 32"><path d="M12.86 16.8a1 1 0 1 0-1.2 1.6l1.075.806a5.875 5.875 0 0 0 7.05 0l1.075-.806a1 1 0 0 0-1.2-1.6l-1.075.806a3.875 3.875 0 0 1-4.65 0zM21.885 11.225c0 1.173-.812 2.125-1.813 2.125s-1.812-.952-1.812-2.125S19.07 9.1 20.072 9.1s1.813.951 1.813 2.125M11.42 9.121a.75.75 0 0 0-.356 1.457c.363.09.906.278 1.399.553-.886.054-1.555.346-1.916.628a.75.75 0 1 0 .925 1.181c.174-.136 1.1-.58 2.555-.105a.75.75 0 0 0 .975-.821c-.143-.976-.912-1.646-1.578-2.058a7.4 7.4 0 0 0-2.004-.835M9.26 2.6a5 5 0 0 0-5 5v13a5 5 0 0 0 5 5h3v2c0 1.477 1.716 2.287 2.858 1.353l.013-.01 2.887-2.445a4 4 0 0 1 2.527-.899h2.215a5 5 0 0 0 5-5V7.576A4.976 4.976 0 0 0 22.784 2.6zm-3 5a3 3 0 0 1 3-3h13.524a2.976 2.976 0 0 1 2.976 2.976v13.023a3 3 0 0 1-3 3h-2.215a6 6 0 0 0-3.8 1.356l-.013.011-2.472 2.093V25.6a2 2 0 0 0-2-2h-3a3 3 0 0 1-3-3z"/></svg>