<svg xmlns="http://www.w3.org/2000/svg" width="32" height="32" viewBox="0 0 32 32"><path d="M25.906 3.344a1 1 0 1 0-2 0v1.812h-1.812a1 1 0 1 0 0 2h1.812V8.97a1 1 0 0 0 2 0V7.156h1.813a1 1 0 0 0 0-2h-1.813zM8.5 5.156a4.75 4.75 0 0 0-4.75 4.75v12.188a4.75 4.75 0 0 0 4.75 4.75h2.75v1.812c0 1.438 1.67 2.227 2.782 1.318l.012-.01 2.706-2.292a3.7 3.7 0 0 1 2.33-.828h2.076a4.75 4.75 0 0 0 4.75-4.75v-9.375a1 1 0 1 0-2 0v9.375a2.75 2.75 0 0 1-2.75 2.75H19.08a5.7 5.7 0 0 0-3.602 1.285l-.013.011-2.215 1.875v-1.234c0-1.07-.867-1.937-1.937-1.937H8.5a2.75 2.75 0 0 1-2.75-2.75V9.906a2.75 2.75 0 0 1 2.75-2.75h9.844a1 1 0 0 0 0-2zM11.913 18.481a1 1 0 1 0-1.2 1.6l.825.619a5.875 5.875 0 0 0 7.05 0l.825-.619a1 1 0 1 0-1.2-1.6l-.826.619a3.875 3.875 0 0 1-4.65 0zM20.336 13.305c0 1.1-.76 1.992-1.7 1.992-.938 0-1.698-.892-1.698-1.992s.76-1.992 1.699-1.992c.938 0 1.699.891 1.699 1.992M10.537 11.287a.75.75 0 0 0-.357 1.457c.303.074.742.224 1.16.439-.76.074-1.338.332-1.662.586a.75.75 0 1 0 .925 1.18c.15-.116 1.002-.53 2.352-.09a.75.75 0 0 0 .975-.821c-.137-.937-.874-1.574-1.501-1.962a7 7 0 0 0-1.892-.789"/></svg>