<svg xmlns="http://www.w3.org/2000/svg" width="32" height="32" viewBox="0 0 32 32"><path d="M25.406 3.344a.5.5 0 1 0-1 0v2.312h-2.312a.5.5 0 1 0 0 1h2.312V8.97a.5.5 0 0 0 1 0V6.656h2.313a.5.5 0 0 0 0-1h-2.313zM8.5 5.656a4.25 4.25 0 0 0-4.25 4.25v12.188a4.25 4.25 0 0 0 4.25 4.25h2.813c.241 0 .437.196.437.437v1.875c0 1.016 1.18 1.573 1.965.931l.006-.005 2.71-2.294a4.2 4.2 0 0 1 2.648-.944h2.077a4.25 4.25 0 0 0 4.25-4.25V12a.5.5 0 1 0-1 0v10.094a3.25 3.25 0 0 1-3.25 3.25H19.08a5.2 5.2 0 0 0-3.285 1.172l-.007.006-2.709 2.293a.203.203 0 0 1-.329-.159v-1.875c0-.794-.644-1.437-1.437-1.437H8.5a3.25 3.25 0 0 1-3.25-3.25V9.906a3.25 3.25 0 0 1 3.25-3.25H19a.5.5 0 0 0 0-1zM11.613 18.881a.5.5 0 1 0-.6.8l.825.619a5.375 5.375 0 0 0 6.45 0l.825-.619a.5.5 0 1 0-.6-.8l-.826.619a4.375 4.375 0 0 1-5.25 0zM20.336 13.305c0 1.1-.76 1.992-1.7 1.992-.938 0-1.698-.892-1.698-1.992s.76-1.992 1.699-1.992c.938 0 1.699.891 1.699 1.992M10.477 11.53a.5.5 0 1 0-.238.971c.397.097 1.01.314 1.532.638q.228.14.403.29c-1.125-.098-1.96.237-2.342.537a.5.5 0 0 0 .617.787c.22-.173 1.161-.595 2.583-.131a.5.5 0 0 0 .65-.548c-.12-.823-.774-1.408-1.385-1.786a6.7 6.7 0 0 0-1.82-.758"/></svg>