<svg xmlns="http://www.w3.org/2000/svg" width="32" height="32" viewBox="0 0 32 32"><path d="M12.71 17a.75.75 0 1 0-.9 1.2l1.075.806c2 1.5 4.75 1.5 6.75 0l1.075-.806a.75.75 0 0 0-.9-1.2l-1.075.806a4.125 4.125 0 0 1-4.95 0L12.71 17ZM21.885 11.225c0 1.173-.812 2.125-1.813 2.125-1 0-1.812-.952-1.812-2.125 0-1.174.811-2.125 1.812-2.125s1.813.951 1.813 2.125ZM11.39 9.243a.625.625 0 0 0-.297 1.214c.416.101 1.06.33 1.607.668.066.041.129.082.188.123-1.072-.028-1.872.303-2.264.61a.625.625 0 1 0 .771.984c.21-.164 1.18-.612 2.67-.126a.625.625 0 0 0 .813-.684c-.134-.92-.862-1.563-1.52-1.97a7.228 7.228 0 0 0-1.968-.82Z"/><path d="M9.26 2.85A4.75 4.75 0 0 0 4.51 7.6v13a4.75 4.75 0 0 0 4.75 4.75h3a.25.25 0 0 1 .25.25v2c0 1.265 1.471 1.96 2.45 1.16l.01-.009 2.888-2.445a4.25 4.25 0 0 1 2.687-.957h2.215a4.75 4.75 0 0 0 4.75-4.75V7.576a4.726 4.726 0 0 0-4.726-4.726H9.26ZM6.01 7.6a3.25 3.25 0 0 1 3.25-3.25h13.524a3.226 3.226 0 0 1 3.226 3.226v13.023a3.25 3.25 0 0 1-3.25 3.25h-2.215a5.75 5.75 0 0 0-3.642 1.3l-.01.008-2.883 2.441V25.6a1.75 1.75 0 0 0-1.75-1.75h-3a3.25 3.25 0 0 1-3.25-3.25v-13Z"/></svg>