<svg xmlns="http://www.w3.org/2000/svg" width="32" height="32" viewBox="0 0 32 32"><path d="M12.56 17.2a.5.5 0 0 0-.6.8l1.075.806a5.375 5.375 0 0 0 6.45 0L20.56 18a.5.5 0 0 0-.6-.8l-1.075.806a4.375 4.375 0 0 1-5.25 0zM21.885 11.225c0 1.173-.812 2.125-1.813 2.125s-1.812-.952-1.812-2.125S19.07 9.1 20.072 9.1s1.813.951 1.813 2.125M11.36 9.364a.5.5 0 0 0-.237.971 6.1 6.1 0 0 1 1.643.684q.296.184.512.38c-1.244-.132-2.165.234-2.577.557a.5.5 0 1 0 .617.787c.245-.191 1.26-.644 2.787-.145a.5.5 0 0 0 .65-.548c-.126-.863-.813-1.48-1.463-1.881a7.1 7.1 0 0 0-1.931-.805M9.26 3.1a4.5 4.5 0 0 0-4.5 4.5v13a4.5 4.5 0 0 0 4.5 4.5h3a.5.5 0 0 1 .5.5v1.999c0 1.055 1.226 1.634 2.041.967l.007-.005 2.89-2.447a4.5 4.5 0 0 1 2.847-1.015h2.215a4.5 4.5 0 0 0 4.5-4.5V7.576A4.476 4.476 0 0 0 22.784 3.1zm-3.5 4.5a3.5 3.5 0 0 1 3.5-3.5h13.524a3.476 3.476 0 0 1 3.476 3.476v13.023a3.5 3.5 0 0 1-3.5 3.5h-2.215a5.5 5.5 0 0 0-3.483 1.243l-.007.006-2.89 2.446a.25.25 0 0 1-.405-.195v-2a1.5 1.5 0 0 0-1.5-1.5h-3a3.5 3.5 0 0 1-3.5-3.5z"/></svg>