<svg xmlns="http://www.w3.org/2000/svg" width="32" height="32" viewBox="0 0 32 32"><path d="M25.656 3.344a.75.75 0 1 0-1.5 0v2.062h-2.062a.75.75 0 1 0 0 1.5h2.062V8.97a.75.75 0 0 0 1.5 0V6.906h2.063a.75.75 0 0 0 0-1.5h-2.063zM8.5 5.406a4.5 4.5 0 0 0-4.5 4.5v12.188a4.5 4.5 0 0 0 4.5 4.5h2.813c.103 0 .187.084.187.187v1.875c0 1.227 1.425 1.9 2.373 1.125l.01-.009 2.708-2.292a3.94 3.94 0 0 1 2.488-.886h2.077a4.5 4.5 0 0 0 4.5-4.5v-9.375a.75.75 0 1 0-1.5 0v9.375a3 3 0 0 1-3 3H19.08a5.44 5.44 0 0 0-3.444 1.229l-.01.008L13 28.555V26.78c0-.932-.755-1.687-1.687-1.687H8.5a3 3 0 0 1-3-3V9.906a3 3 0 0 1 3-3h9.844a.75.75 0 0 0 0-1.5zM11.763 18.681a.75.75 0 0 0-.9 1.2l.825.619c2 1.5 4.75 1.5 6.75 0l.825-.619a.75.75 0 0 0-.9-1.2l-.825.619a4.125 4.125 0 0 1-4.95 0zM20.336 13.305c0 1.1-.76 1.992-1.7 1.992-.938 0-1.698-.892-1.698-1.992s.76-1.992 1.699-1.992c.938 0 1.699.891 1.699 1.992M10.507 11.409a.625.625 0 0 0-.297 1.214 5.6 5.6 0 0 1 1.56.663c-.947.003-1.656.3-2.015.581a.625.625 0 0 0 .771.984c.185-.144 1.082-.563 2.468-.11a.625.625 0 0 0 .812-.685c-.128-.88-.824-1.49-1.443-1.874a6.8 6.8 0 0 0-1.856-.774"/></svg>