<svg xmlns="http://www.w3.org/2000/svg" width="32" height="32" viewBox="0 0 32 32"><path d="M4.75 20.84V7.236A4.186 4.186 0 0 1 8.936 3.05h14.338a3.976 3.976 0 0 1 3.976 3.976V20.84a4.186 4.186 0 0 1-4.186 4.186h-2.318a5.233 5.233 0 0 0-3.314 1.183l-3.028 2.563a.785.785 0 0 1-1.282-.607v-2.093c0-.578-.468-1.046-1.046-1.046h-3.14A4.186 4.186 0 0 1 4.75 20.84ZM12.71 17a.75.75 0 1 0-.9 1.2l1.075.806c2 1.5 4.75 1.5 6.75 0l1.075-.806a.75.75 0 0 0-.9-1.2l-1.075.806a4.125 4.125 0 0 1-4.95 0L12.71 17Zm9.175-5.775c0-1.174-.812-2.125-1.813-2.125-1 0-1.812.951-1.812 2.125 0 1.173.811 2.125 1.812 2.125s1.813-.952 1.813-2.125ZM11.39 9.243a.625.625 0 0 0-.297 1.214c.416.101 1.06.33 1.607.668.066.041.129.082.188.123-1.072-.028-1.872.303-2.264.61a.625.625 0 1 0 .771.984c.21-.164 1.18-.612 2.67-.126a.625.625 0 0 0 .813-.684c-.134-.92-.862-1.563-1.52-1.97a7.228 7.228 0 0 0-1.968-.82Z"/></svg>