<svg xmlns="http://www.w3.org/2000/svg" width="32" height="32" viewBox="0 0 32 32"><path d="M8.776 20h1.755a2.964 2.964 0 0 1 2.969 2.952v3.57a2.98 2.98 0 0 1-2.979 2.978H9.056C6.595 29.5 2 25.467 2 15.75S6.595 2 9.055 2h1.467A2.98 2.98 0 0 1 13.5 4.978v3.44a3.063 3.063 0 0 1-2.96 3.082H8.772A7.12 7.12 0 0 0 7.5 15.75 7.1 7.1 0 0 0 8.776 20m2.79 7.567A1.48 1.48 0 0 0 12 26.52v-3.569a1.46 1.46 0 0 0-1.469-1.452h-1.94C7.357 21.5 6 18.49 6 15.75S7.354 10 8.587 10h1.953A1.565 1.565 0 0 0 12 8.418v-3.44A1.48 1.48 0 0 0 10.521 3.5H9.056C7.42 3.5 3.5 7.024 3.5 15.75S7.42 28 9.055 28h1.467a1.48 1.48 0 0 0 1.044-.433M15.28 11.22l4 4a.75.75 0 0 1 0 1.06l-4 4a.75.75 0 0 1-1.061.001.75.75 0 0 1 0-1.061l2.72-2.72H10.75a.75.75 0 1 1 0-1.5h6.19l-2.72-2.72a.75.75 0 1 1 1.06-1.06M24.89 2c-1.15 0-2.32.406-3.16 1.29-2.116 2.229-3.207 4.586-3.717 7.323a.75.75 0 1 0 1.474.274c.462-2.474 1.43-4.561 3.331-6.564.51-.537 1.261-.823 2.072-.823h1.479c.69 0 1.25.56 1.25 1.25v4c0 .69-.56 1.25-1.25 1.25h-1.574c-.838 0-1.615.44-2.046 1.158a8.93 8.93 0 0 0 0 9.184 2.38 2.38 0 0 0 2.046 1.158h1.574c.69 0 1.25.56 1.25 1.25v4c0 .69-.56 1.25-1.25 1.25h-1.667c-.724 0-1.377-.22-1.824-.654-1.812-1.758-2.83-4.119-3.337-6.739a.75.75 0 0 0-1.473.286c.545 2.81 1.665 5.49 3.765 7.53.795.772 1.862 1.077 2.87 1.077h1.666a2.75 2.75 0 0 0 2.75-2.75v-4a2.75 2.75 0 0 0-2.75-2.75h-1.574a.89.89 0 0 1-.76-.43 7.43 7.43 0 0 1 0-7.64.89.89 0 0 1 .76-.43h1.574a2.75 2.75 0 0 0 2.75-2.75v-4A2.75 2.75 0 0 0 26.369 2z"/></svg>