<svg xmlns="http://www.w3.org/2000/svg" width="32" height="32" viewBox="0 0 32 32"><path d="M9.428 20h1.853A2.713 2.713 0 0 1 14 22.702v3.57A2.73 2.73 0 0 1 11.271 29H9.806C7.432 29 3 25.04 3 15.5S7.432 2 9.805 2h1.467A2.73 2.73 0 0 1 14 4.728v3.44A2.81 2.81 0 0 1 11.29 11H9.423A7.02 7.02 0 0 0 8 15.5 7 7 0 0 0 9.428 20m3.065 7.493A1.73 1.73 0 0 0 13 26.272v-3.57A1.713 1.713 0 0 0 11.281 21h-1.94C8.342 21 7 18.28 7 15.5S8.338 10 9.337 10h1.953A1.82 1.82 0 0 0 13 8.168v-3.44A1.73 1.73 0 0 0 11.271 3H9.806C8.097 3 4 6.597 4 15.5S8.097 28 9.805 28h1.467a1.73 1.73 0 0 0 1.221-.507M15.854 11.146l4 4a.5.5 0 0 1 0 .707l-4 4a.5.5 0 1 1-.707-.707L18.293 16H11.5a.5.5 0 0 1 0-1h6.793l-3.146-3.147a.5.5 0 0 1 .707-.707M25.02 2c-1.092 0-2.193.386-2.977 1.212-2.081 2.191-3.152 4.503-3.654 7.196a.5.5 0 1 0 .983.184c.47-2.519 1.458-4.65 3.396-6.692.564-.594 1.386-.9 2.252-.9h1.48A1.5 1.5 0 0 1 28 4.5v4a1.5 1.5 0 0 1-1.5 1.5h-1.575c-.75 0-1.445.393-1.83 1.037a8.68 8.68 0 0 0 0 8.926A2.13 2.13 0 0 0 24.925 21H26.5a1.5 1.5 0 0 1 1.5 1.5v4a1.5 1.5 0 0 1-1.5 1.5h-1.667c-.771 0-1.494-.234-1.998-.724-1.86-1.805-2.895-4.22-3.409-6.871a.5.5 0 0 0-.981.19c.538 2.78 1.64 5.406 3.693 7.398.737.716 1.735 1.007 2.695 1.007H26.5a2.5 2.5 0 0 0 2.5-2.5v-4a2.5 2.5 0 0 0-2.5-2.5h-1.575c-.398 0-.768-.21-.973-.551a7.68 7.68 0 0 1 0-7.898c.205-.342.575-.551.973-.551H26.5A2.5 2.5 0 0 0 29 8.5v-4A2.5 2.5 0 0 0 26.5 2z"/></svg>