<svg xmlns="http://www.w3.org/2000/svg" width="32" height="32" viewBox="0 0 32 32"><path d="M10.34 14.407a18.5 18.5 0 0 0-.657-.128A6.253 6.253 0 0 1 11 10.633a11.88 11.88 0 0 1 1.88-1.822l.428-.363a1.221 1.221 0 0 0 .255-1.596 1.253 1.253 0 0 0-1.562-.5 13.727 13.727 0 0 0-5.563 4.15A14.158 14.158 0 0 0 3.25 20a5.75 5.75 0 1 0 7.09-5.593ZM9 24.25A4.254 4.254 0 0 1 4.75 20a12.644 12.644 0 0 1 2.811-8.502 13.753 13.753 0 0 1 3.29-2.908c-.388.35-.743.736-1.058 1.152a7.203 7.203 0 0 0-1.53 5.321.75.75 0 0 0 .614.598c.003 0 .738.122 1.125.207A4.25 4.25 0 0 1 9 24.25ZM24.34 14.407c-.183-.04-.432-.088-.657-.128A6.253 6.253 0 0 1 25 10.633a11.88 11.88 0 0 1 1.88-1.822l.428-.363a1.221 1.221 0 0 0 .255-1.596 1.253 1.253 0 0 0-1.562-.5 13.726 13.726 0 0 0-5.563 4.15A14.158 14.158 0 0 0 17.25 20a5.75 5.75 0 1 0 7.09-5.593ZM23 24.25A4.254 4.254 0 0 1 18.75 20a12.644 12.644 0 0 1 2.811-8.502 13.752 13.752 0 0 1 3.29-2.908 8.4 8.4 0 0 0-1.058 1.152 7.203 7.203 0 0 0-1.53 5.321.75.75 0 0 0 .614.598c.004 0 .738.122 1.125.207A4.25 4.25 0 0 1 23 24.25Z"/></svg>