<svg xmlns="http://www.w3.org/2000/svg" width="32" height="32" viewBox="0 0 32 32"><path d="M10.34 14.407a19 19 0 0 0-.657-.128A6.25 6.25 0 0 1 11 10.633a12 12 0 0 1 1.88-1.822l.428-.363a1.22 1.22 0 0 0 .255-1.596 1.25 1.25 0 0 0-1.562-.5 13.7 13.7 0 0 0-5.563 4.15A14.16 14.16 0 0 0 3.25 20a5.75 5.75 0 1 0 7.09-5.593M9 24.25A4.254 4.254 0 0 1 4.75 20a12.64 12.64 0 0 1 2.811-8.502 13.8 13.8 0 0 1 3.29-2.908q-.584.527-1.058 1.152a7.2 7.2 0 0 0-1.53 5.321.75.75 0 0 0 .614.598c.003 0 .738.122 1.125.207A4.25 4.25 0 0 1 9 24.25M24.34 14.407c-.183-.04-.432-.088-.657-.128A6.25 6.25 0 0 1 25 10.633a12 12 0 0 1 1.88-1.822l.428-.363a1.22 1.22 0 0 0 .255-1.596 1.25 1.25 0 0 0-1.562-.5 13.7 13.7 0 0 0-5.563 4.15A14.16 14.16 0 0 0 17.25 20a5.75 5.75 0 1 0 7.09-5.593M23 24.25A4.254 4.254 0 0 1 18.75 20a12.64 12.64 0 0 1 2.811-8.502 13.8 13.8 0 0 1 3.29-2.908 8.4 8.4 0 0 0-1.058 1.152 7.2 7.2 0 0 0-1.53 5.321.75.75 0 0 0 .614.598c.004 0 .738.122 1.125.207A4.25 4.25 0 0 1 23 24.25"/></svg>