<svg xmlns="http://www.w3.org/2000/svg" width="32" height="32" viewBox="0 0 32 32"><path d="M10.393 14.163a16.74 16.74 0 0 0-.455-.092 6.166 6.166 0 0 1 1.263-3.29 11.733 11.733 0 0 1 1.84-1.779l.43-.364a1.467 1.467 0 0 0 .305-1.917 1.506 1.506 0 0 0-1.872-.6 13.946 13.946 0 0 0-5.652 4.216A14.404 14.404 0 0 0 3 20a6 6 0 1 0 7.393-5.837ZM9 24a4.004 4.004 0 0 1-4-4 12.397 12.397 0 0 1 2.748-8.337c.534-.602 1.01-1.1 1.472-1.527a7.204 7.204 0 0 0-1.203 4.974 1.002 1.002 0 0 0 .819.797c.004.001.73.122 1.107.204A4 4 0 0 1 9 24ZM24.393 14.163c-.13-.029-.29-.06-.455-.092a6.166 6.166 0 0 1 1.263-3.29 11.733 11.733 0 0 1 1.84-1.779l.43-.364a1.467 1.467 0 0 0 .305-1.917 1.506 1.506 0 0 0-1.872-.6 13.945 13.945 0 0 0-5.652 4.216A14.403 14.403 0 0 0 17 20a5.999 5.999 0 1 0 7.393-5.837ZM23 24a4.004 4.004 0 0 1-4-4 12.397 12.397 0 0 1 2.748-8.337c.534-.602 1.01-1.1 1.472-1.527a7.204 7.204 0 0 0-1.203 4.974 1.001 1.001 0 0 0 .819.797c.004.001.73.122 1.107.204A4 4 0 0 1 23 24Z"/></svg>