<svg xmlns="http://www.w3.org/2000/svg" width="32" height="32" viewBox="0 0 32 32"><path d="M10.286 14.651a22 22 0 0 0-.841-.16 6.35 6.35 0 0 1 1.353-4.006c.57-.691 1.214-1.317 1.921-1.865l.427-.362a.98.98 0 0 0 .204-1.275.995.995 0 0 0-1.253-.4 13.5 13.5 0 0 0-5.471 4.085A13.9 13.9 0 0 0 3.5 20a5.5 5.5 0 1 0 6.786-5.349M9 24.5A4.505 4.505 0 0 1 4.5 20a12.9 12.9 0 0 1 2.874-8.668 12.45 12.45 0 0 1 5.122-3.834l-.422.358a12.7 12.7 0 0 0-2.08 2.035 6.96 6.96 0 0 0-1.486 5.125.5.5 0 0 0 .41.398c.003 0 .747.124 1.142.211A4.5 4.5 0 0 1 9 24.5M24.286 14.651c-.236-.052-.58-.115-.841-.16a6.35 6.35 0 0 1 1.353-4.006c.57-.691 1.214-1.317 1.921-1.865l.427-.362a.98.98 0 0 0 .204-1.275.995.995 0 0 0-1.253-.4 13.5 13.5 0 0 0-5.471 4.085A13.9 13.9 0 0 0 17.5 20a5.5 5.5 0 1 0 6.786-5.349M23 24.5a4.505 4.505 0 0 1-4.5-4.5 12.9 12.9 0 0 1 2.874-8.668 12.45 12.45 0 0 1 5.122-3.834l-.422.358a12.7 12.7 0 0 0-2.08 2.035 6.96 6.96 0 0 0-1.486 5.125.5.5 0 0 0 .41.398c.003 0 .747.124 1.142.211A4.5 4.5 0 0 1 23 24.5"/></svg>