<svg xmlns="http://www.w3.org/2000/svg" width="32" height="32" viewBox="0 0 32 32"><path d="M23.068 22.385 16.692 16l6.373-6.383a1.5 1.5 0 0 0-.223-2.303l-5.77-3.633a1 1 0 0 0-1.573.82v10.305L8.362 7.654a.5.5 0 0 0-.708.707l7.626 7.638-7.626 7.64a.5.5 0 0 0 .708.707l7.139-7.152V27.5a.995.995 0 0 0 .543.89c.143.073.302.111.464.111a.938.938 0 0 0 .55-.172l5.82-3.663a1.501 1.501 0 0 0 .191-2.28ZM16.519 4.513l5.77 3.633a.498.498 0 0 1 .067.763l-5.845 5.857.008-10.253Zm5.802 19.324L16.5 27.5l.008-10.269 5.851 5.861a.502.502 0 0 1-.04.745Z"/></svg>