<svg xmlns="http://www.w3.org/2000/svg" width="32" height="32" viewBox="0 0 32 32"><path d="M15.25 18.429v5.57a.75.75 0 0 0 1.136.644l3.174-1.904-1.093-1.094-1.717 1.03V19.93zM11.53 21.53l3.41-3.41-1.06-1.061-3.41 3.41a.748.748 0 0 0 .53 1.28.75.75 0 0 0 .53-.22M16 28.25c-5.652 0-10.25-5.496-10.25-12.25a14.1 14.1 0 0 1 1.238-5.833L5.876 9.055A15.45 15.45 0 0 0 4.25 16c0 7.581 5.271 13.75 11.75 13.75a10.72 10.72 0 0 0 7.447-3.124l-1.06-1.061A9.22 9.22 0 0 1 16 28.25M28.53 27.47l-3.178-3.18A15.23 15.23 0 0 0 27.75 16c0-7.582-5.27-13.75-11.75-13.75a10.97 10.97 0 0 0-8.459 4.23l-3.01-3.01a.75.75 0 0 0-1.066 1.053l24.012 24.012a.749.749 0 0 0 1.053-1.066M17.06 16l4.47-4.47a.75.75 0 0 0-.144-1.174l-5-3A.75.75 0 0 0 15.25 8v6.189L8.603 7.542A9.51 9.51 0 0 1 16 3.75c5.652 0 10.25 5.495 10.25 12.25.015 2.539-.67 5.033-1.98 7.208zm-.31-1.811V9.324l3.04 1.824z"/></svg>