<svg xmlns="http://www.w3.org/2000/svg" width="32" height="32" viewBox="0 0 32 32"><path d="m22.245 22.209-6.2-6.21 6.196-6.207a1.744 1.744 0 0 0 .266-2.127 1.761 1.761 0 0 0-.532-.564l-5.76-3.626A1.25 1.25 0 0 0 14.249 4.5v9.7L7.539 7.478a.75.75 0 1 0-1.062 1.06L13.926 16l-7.45 7.463a.75.75 0 0 0 1.062 1.061l6.712-6.725V27.5a1.247 1.247 0 0 0 .678 1.112c.18.092.38.14.583.14.243.003.48-.07.679-.21l5.832-3.672a1.75 1.75 0 0 0 .223-2.662ZM21.146 8.35a.248.248 0 0 1 .092.291.245.245 0 0 1-.058.091l-5.43 5.44V4.954l5.396 3.396Zm.042 15.275-5.438 3.422v-9.221l5.433 5.442a.25.25 0 0 1 .073.198.242.242 0 0 1-.068.159Z"/></svg>