<svg xmlns="http://www.w3.org/2000/svg" width="32" height="32" viewBox="0 0 32 32"><path d="M15.626 7.347a.75.75 0 0 1 .755.01l5 3a.75.75 0 0 1 .144 1.173L17.055 16l4.47 4.47a.75.75 0 0 1-.144 1.173l-5 3A.75.75 0 0 1 15.245 24v-6.19l-3.72 3.72a.75.75 0 1 1-1.06-1.06l4.47-4.47-4.47-4.47a.75.75 0 1 1 1.06-1.06l3.72 3.72V8c0-.27.146-.52.38-.653m1.12 10.464v4.864l3.04-1.824zm0-3.622 3.04-3.04-3.04-1.824zM4.245 16c0-7.472 5.148-13.75 11.75-13.75S27.745 8.528 27.745 16s-5.148 13.75-11.75 13.75S4.245 23.472 4.245 16m11.75-12.25c-5.548 0-10.25 5.362-10.25 12.25s4.702 12.25 10.25 12.25c5.549 0 10.25-5.362 10.25-12.25S21.544 3.75 15.995 3.75"/></svg>