<svg xmlns="http://www.w3.org/2000/svg" width="32" height="32" viewBox="0 0 32 32"><path d="m17 13.568 5.003-5.012-5.004-3.15v8.162ZM17 18.378v8.217l5.054-3.182L17 18.378Z"/><path d="M5 1a4 4 0 0 0-4 4v22a4 4 0 0 0 4 4h22a4 4 0 0 0 4-4V5a4 4 0 0 0-4-4H5Zm12.399 15 6.023 6.033a2 2 0 0 1-.255 3.04l-5.844 3.68c-.237.166-.52.253-.809.25a1.525 1.525 0 0 1-1.295-.722A1.495 1.495 0 0 1 15 27.5v-9.097l-6.285 6.296a1.001 1.001 0 0 1-1.635-.32 1 1 0 0 1 .22-1.092l7.293-7.307-7.294-7.267a1 1 0 1 1 1.415-1.412L15 13.596V4.5a1.5 1.5 0 0 1 2.358-1.23l5.75 3.62a2.022 2.022 0 0 1 .887 1.49 1.996 1.996 0 0 1-.576 1.588L17.399 16Z"/></svg>