<svg xmlns="http://www.w3.org/2000/svg" width="32" height="32" viewBox="0 0 32 32"><path d="M15.5 17.621V24a.5.5 0 0 0 .757.428l3.781-2.268-.729-.73-2.809 1.687V18.62zM11.354 21.353l3.939-3.939-.707-.707-3.94 3.939a.5.5 0 1 0 .708.707M16 28.5c-5.79 0-10.5-5.608-10.5-12.5-.01-2.343.56-4.65 1.66-6.719l-.738-.738A15.1 15.1 0 0 0 4.5 16c0 7.444 5.159 13.5 11.5 13.5a10.6 10.6 0 0 0 7.786-3.593l-.705-.705a9.6 9.6 0 0 1-7.08 3.297M28.354 27.646l-3.32-3.32A14.95 14.95 0 0 0 27.5 16c0-7.444-5.159-13.5-11.5-13.5a10.77 10.77 0 0 0-8.436 4.357l-3.21-3.21a.5.5 0 0 0-.707.707l24 24a.5.5 0 1 0 .707-.707M16.707 15.999l4.647-4.646a.5.5 0 0 0-.097-.782l-5-3A.5.5 0 0 0 15.5 8v6.793L8.273 7.565A9.8 9.8 0 0 1 16 3.5c5.79 0 10.5 5.607 10.5 12.5a14 14 0 0 1-2.187 7.606zm-.207-1.207v-5.91l3.694 2.217z"/></svg>