<svg xmlns="http://www.w3.org/2000/svg" width="32" height="32" viewBox="0 0 32 32"><path d="M15 19.234v4.765a1 1 0 0 0 1.515.858l2.567-1.54-1.457-1.459-.625.375v-1zM11.707 21.707l2.883-2.883-1.414-1.414-2.883 2.883a1 1 0 0 0 1.414 1.414M16 28c-5.514 0-10-5.383-10-12a14 14 0 0 1 .877-4.89l-1.53-1.529A15.8 15.8 0 0 0 4 16c0 7.72 5.383 14 12 14a10.84 10.84 0 0 0 7.06-2.706l-1.406-1.406A8.84 8.84 0 0 1 16 27.999M28.707 27.293l-3.037-3.038A15.5 15.5 0 0 0 28 16c0-7.72-5.383-14-12-14A11.18 11.18 0 0 0 7.52 6.104L4.707 3.293a1 1 0 0 0-1.414 1.414l2.19 2.19c.008.007.017.009.024.016l21.81 21.809a.998.998 0 0 0 1.39-1.43M17.414 16l4.293-4.293a1 1 0 0 0-.192-1.565l-5-3A1 1 0 0 0 15 8v5.586L8.932 7.518A9.22 9.22 0 0 1 16 4c5.514 0 10 5.382 10 12a13.64 13.64 0 0 1-1.776 6.81zM17 13.584V9.767l2.387 1.432z"/></svg>