<svg xmlns="http://www.w3.org/2000/svg" width="32" height="32" viewBox="0 0 32 32"><path d="m22.422 22.033-6.023-6.034 6.02-6.03a1.996 1.996 0 0 0 .3-2.435 2.022 2.022 0 0 0-.61-.645L16.357 3.27a1.5 1.5 0 0 0-2.359 1.23v9.096L7.715 7.301A1 1 0 1 0 6.3 8.713l7.294 7.267L6.3 23.287a1.001 1.001 0 0 0 .707 1.71 1 1 0 0 0 .708-.298l6.284-6.296L14 27.5a1.495 1.495 0 0 0 .814 1.334c.216.111.457.17.7.17.29.002.572-.085.809-.25l5.845-3.68a2.001 2.001 0 0 0 .254-3.041Zm-1.42-13.477L16 13.568V5.407l5.003 3.15ZM16 26.596v-8.218l5.054 5.035L16 26.595Z"/></svg>