<svg xmlns="http://www.w3.org/2000/svg" width="32" height="32" viewBox="0 0 32 32"><path d="M15.749 7.565a.5.5 0 0 1 .503.006l5 3a.5.5 0 0 1 .097.783L16.702 16l4.647 4.646a.5.5 0 0 1-.097.783l-5 3a.5.5 0 0 1-.757-.429v-6.793l-4.146 4.147a.5.5 0 0 1-.707-.708L15.288 16l-4.646-4.646a.5.5 0 0 1 .707-.708l4.146 4.147V8a.5.5 0 0 1 .254-.435m.746 9.642v5.91L20.19 20.9zm0-2.414 3.694-3.694-3.694-2.216zM4.495 16c0-7.374 5.074-13.5 11.5-13.5s11.5 6.126 11.5 13.5-5.074 13.5-11.5 13.5-11.5-6.126-11.5-13.5m11.5-12.5c-5.724 0-10.5 5.515-10.5 12.5s4.776 12.5 10.5 12.5 10.5-5.515 10.5-12.5-4.776-12.5-10.5-12.5"/></svg>