<svg xmlns="http://www.w3.org/2000/svg" width="32" height="32" viewBox="0 0 32 32"><path d="M15.502 7.13a1 1 0 0 1 1.008.013l5 3a1 1 0 0 1 .192 1.564L17.41 16l4.293 4.293a1 1 0 0 1-.192 1.565l-5 3A1 1 0 0 1 14.995 24v-5.586l-3.293 3.293a1 1 0 0 1-1.414-1.414L14.581 16l-4.293-4.293a1 1 0 0 1 1.414-1.414l3.293 3.293V8a1 1 0 0 1 .507-.87m1.493 11.284v3.82l2.387-1.433zm0-4.828 2.387-2.388-2.387-1.432zM3.995 16c0-7.569 5.223-14 12-14s12 6.431 12 14-5.222 14-12 14-12-6.431-12-14m12-12c-5.373 0-10 5.21-10 12s4.627 12 10 12 10-5.21 10-12-4.627-12-10-12"/></svg>