<svg xmlns="http://www.w3.org/2000/svg" width="32" height="32" viewBox="0 0 32 32"><path d="M14.978 14.5h2.095a2.988 2.988 0 1 0 .007-1h-2.107a3.01 3.01 0 1 0 .005 1m5.048-2.468a2 2 0 1 1 0 3.999 2 2 0 0 1 0-4m-10 1.993a2 2 0 1 1 3.999 0 2 2 0 0 1-4 0M5.5 23.55V9.194a3.695 3.695 0 0 1 3.69-3.69H20a.5.5 0 0 0 0-1H9.19a4.696 4.696 0 0 0-4.69 4.69V23.55a3.5 3.5 0 1 0 1 0M5 29.5a2.5 2.5 0 1 1 0-5 2.5 2.5 0 0 1 0 5M30.5 5a3.5 3.5 0 1 0-4 3.45v14.36a3.695 3.695 0 0 1-3.69 3.69H12a.5.5 0 0 0 0 1h10.81a4.696 4.696 0 0 0 4.69-4.69V8.45a3.494 3.494 0 0 0 3-3.45M27 7.5a2.5 2.5 0 1 1 0-5 2.5 2.5 0 0 1 0 5M13 19.5a.5.5 0 0 0 0 1h6a.5.5 0 0 0 0-1z"/></svg>