<svg xmlns="http://www.w3.org/2000/svg" width="32" height="32" viewBox="0 0 32 32"><path d="M15.188 14.75h1.674a3.26 3.26 0 1 0 .02-1.5h-1.71a3.243 3.243 0 1 0 .016 1.5m4.838-2.468a1.75 1.75 0 1 1 0 3.5 1.75 1.75 0 0 1 0-3.5m-9.75 1.743a1.75 1.75 0 1 1 3.499 0 1.75 1.75 0 0 1-3.5 0M5.75 23.326V9.193a3.445 3.445 0 0 1 3.44-3.44H20a.75.75 0 1 0 0-1.5H9.19a4.946 4.946 0 0 0-4.94 4.94v14.133a3.75 3.75 0 1 0 1.5 0M5 29.25a2.25 2.25 0 1 1 0-4.5 2.25 2.25 0 0 1 0 4.5M30.75 5a3.75 3.75 0 1 0-4.5 3.674V22.81a3.445 3.445 0 0 1-3.44 3.44H12a.75.75 0 1 0 0 1.5h10.81a4.946 4.946 0 0 0 4.94-4.94V8.674a3.756 3.756 0 0 0 3-3.674M27 7.25a2.25 2.25 0 1 1 0-4.5 2.25 2.25 0 0 1 0 4.5M13 19.25a.75.75 0 1 0 0 1.5h6a.75.75 0 1 0 0-1.5z"/></svg>