<svg xmlns="http://www.w3.org/2000/svg" width="32" height="32" viewBox="0 0 32 32"><path d="M20 15.748a1.25 1.25 0 1 0 0-2.5 1.25 1.25 0 0 0 0 2.5ZM12 15.748a1.25 1.25 0 1 0 0-2.5 1.25 1.25 0 0 0 0 2.5ZM13 20.75h6a.75.75 0 1 0 0-1.5h-6a.75.75 0 1 0 0 1.5Z"/><path d="M30.75 14a3.75 3.75 0 1 0-4.5 3.674v6.136a3.445 3.445 0 0 1-3.44 3.44H9.19a3.445 3.445 0 0 1-3.44-3.44V10.193a3.445 3.445 0 0 1 3.441-3.44l7.135-.003a3.75 3.75 0 1 0 0-1.5l-7.136.002a4.946 4.946 0 0 0-4.94 4.94V23.81a4.946 4.946 0 0 0 4.94 4.94h13.62a4.946 4.946 0 0 0 4.94-4.94v-6.136a3.756 3.756 0 0 0 3-3.674ZM20 3.75a2.25 2.25 0 1 1 0 4.5 2.25 2.25 0 0 1 0-4.5Zm7 12.5a2.25 2.25 0 1 1 0-4.5 2.25 2.25 0 0 1 0 4.5Z"/></svg>