<svg xmlns="http://www.w3.org/2000/svg" width="32" height="32" viewBox="0 0 32 32"><path d="M31 19.005a4 4 0 1 0-4.998 3.858 3.199 3.199 0 0 1-3.192 3.144H9.19a3.202 3.202 0 0 1-3.197-3.197v-2.809a.993.993 0 0 0-1.986 0v2.809a5.19 5.19 0 0 0 5.183 5.183h13.62a5.186 5.186 0 0 0 5.177-5.126A3.997 3.997 0 0 0 31 19.005Zm-4 2a2 2 0 1 1 0-4 2 2 0 0 1 0 4ZM20 14.998a1.5 1.5 0 1 0 0-3 1.5 1.5 0 0 0 0 3ZM12 14.998a1.5 1.5 0 1 0 0-3 1.5 1.5 0 0 0 0 3Z"/><path d="M9 13.002a3.997 3.997 0 0 0-3.002-3.858A3.199 3.199 0 0 1 9.19 5.992h13.618a3.201 3.201 0 0 1 3.199 3.198v2.813a.993.993 0 1 0 1.985 0V9.19a5.19 5.19 0 0 0-5.184-5.183H9.191A5.186 5.186 0 0 0 4.012 9.14 3.994 3.994 0 1 0 9 13.002Zm-6 0a2 2 0 1 1 4 0 2 2 0 0 1-4 0ZM10.57 18.37a5.874 5.874 0 0 0 10.863-.01 1 1 0 0 0-1.866-.72 3.876 3.876 0 0 1-7.138-.01 1 1 0 0 0-1.858.74Z"/></svg>