<svg xmlns="http://www.w3.org/2000/svg" width="32" height="32" viewBox="0 0 32 32"><path d="M15.37 15h1.309a3.501 3.501 0 1 0 .02-2h-1.344a3.5 3.5 0 1 0 .015 2Zm4.656-2.468a1.5 1.5 0 1 1 0 3 1.5 1.5 0 0 1 0-3Zm-9.5 1.493a1.5 1.5 0 1 1 3 0 1.5 1.5 0 0 1-3 0Z"/><path d="M5.993 23.14V9.193A3.202 3.202 0 0 1 9.19 5.995H20a.993.993 0 0 0 0-1.985H9.19a5.19 5.19 0 0 0-5.183 5.183V23.14a4 4 0 1 0 1.986 0ZM5 29a2 2 0 1 1 0-4 2 2 0 0 1 0 4ZM31 5a4 4 0 1 0-4.993 3.86v13.95a3.201 3.201 0 0 1-3.197 3.197H12a.993.993 0 0 0 0 1.986h10.81a5.189 5.189 0 0 0 5.183-5.183V8.86A3.996 3.996 0 0 0 31 5Zm-4 2a2 2 0 1 1 0-4 2 2 0 0 1 0 4Z"/><path d="M13 19.007a.993.993 0 0 0 0 1.986h6a.992.992 0 1 0 0-1.986h-6Z"/></svg>