<svg xmlns="http://www.w3.org/2000/svg" width="32" height="32" viewBox="0 0 32 32"><path d="M20 15.998a1.5 1.5 0 1 0 0-3 1.5 1.5 0 0 0 0 3M12 15.998a1.5 1.5 0 1 0 0-3 1.5 1.5 0 0 0 0 3M13 20.993h6a.993.993 0 0 0 0-1.986h-6a.993.993 0 1 0 0 1.986M30.993 14a3.993 3.993 0 1 0-4.986 3.853v5.957a3.2 3.2 0 0 1-3.197 3.197H9.19a3.2 3.2 0 0 1-3.197-3.197V10.193A3.2 3.2 0 0 1 9.19 6.995l6.957-.002a3.993 3.993 0 1 0 0-1.986L9.19 5.01a5.19 5.19 0 0 0-5.184 5.183V23.81a5.19 5.19 0 0 0 5.184 5.183H22.81a5.19 5.19 0 0 0 5.183-5.183v-5.957a3.99 3.99 0 0 0 3-3.853M20 3.993a2.007 2.007 0 1 1 0 4.014 2.007 2.007 0 0 1 0-4.014m7 12.014a2.008 2.008 0 1 1 0-4.015 2.008 2.008 0 0 1 0 4.015"/></svg>