<svg xmlns="http://www.w3.org/2000/svg" width="32" height="32" viewBox="0 0 32 32"><path d="M20 15.498a1 1 0 1 0 0-2 1 1 0 0 0 0 2M12 15.498a1 1 0 1 0 0-2 1 1 0 0 0 0 2M13 20.5h6a.5.5 0 0 0 0-1h-6a.5.5 0 0 0 0 1M30.5 14a3.5 3.5 0 1 0-4 3.45v6.36a3.694 3.694 0 0 1-3.69 3.69H9.19a3.695 3.695 0 0 1-3.69-3.69V10.193a3.694 3.694 0 0 1 3.688-3.69l7.366.028a3.509 3.509 0 1 0-.007-1L9.19 5.503a4.696 4.696 0 0 0-4.69 4.69V23.81a4.696 4.696 0 0 0 4.69 4.69h13.62a4.696 4.696 0 0 0 4.69-4.69v-6.36a3.495 3.495 0 0 0 3-3.45M20 3.5a2.5 2.5 0 1 1 0 5 2.5 2.5 0 0 1 0-5m7 13a2.5 2.5 0 1 1 0-5 2.5 2.5 0 0 1 0 5"/></svg>