<svg xmlns="http://www.w3.org/2000/svg" width="32" height="32" viewBox="0 0 32 32"><path d="M30.75 19.005a3.75 3.75 0 1 0-4.5 3.674v.131a3.444 3.444 0 0 1-3.44 3.44H9.19a3.445 3.445 0 0 1-3.44-3.44v-2.809a.75.75 0 1 0-1.5 0v2.809a4.946 4.946 0 0 0 4.94 4.94h13.62a4.946 4.946 0 0 0 4.94-4.94v-.13a3.756 3.756 0 0 0 3-3.675M27 21.255a2.25 2.25 0 1 1 0-4.5 2.25 2.25 0 0 1 0 4.5M20 14.748a1.25 1.25 0 1 0 0-2.5 1.25 1.25 0 0 0 0 2.5M12 14.748a1.25 1.25 0 1 0 0-2.5 1.25 1.25 0 0 0 0 2.5M8.75 13.002a3.756 3.756 0 0 0-3-3.674V9.19a3.444 3.444 0 0 1 3.44-3.44h13.62a3.445 3.445 0 0 1 3.44 3.44v2.813a.75.75 0 1 0 1.5 0V9.19a4.946 4.946 0 0 0-4.941-4.94H9.191a4.945 4.945 0 0 0-4.94 4.938v.14a3.75 3.75 0 1 0 4.499 3.674m-6 0a2.25 2.25 0 1 1 4.5 0 2.25 2.25 0 0 1-4.5 0M10.803 18.277A5.625 5.625 0 0 0 21.2 18.27a.75.75 0 0 0-1.4-.54 4.125 4.125 0 0 1-7.603-.007.75.75 0 1 0-1.394.554"/></svg>