<svg xmlns="http://www.w3.org/2000/svg" width="32" height="32" viewBox="0 0 32 32"><path d="M27 15.505a3.492 3.492 0 0 0-.5 6.95v.355a3.695 3.695 0 0 1-3.69 3.69H9.19a3.695 3.695 0 0 1-3.69-3.69v-2.809a.5.5 0 0 0-1 0v2.809a4.696 4.696 0 0 0 4.69 4.69h13.62a4.696 4.696 0 0 0 4.69-4.69v-.355a3.492 3.492 0 0 0-.5-6.95m0 6a2.5 2.5 0 1 1 0-5 2.5 2.5 0 0 1 0 5M20 14.498a1 1 0 1 0 0-2 1 1 0 0 0 0 2M12 14.498a1 1 0 1 0 0-2 1 1 0 0 0 0 2M8.5 13.002a3.495 3.495 0 0 0-3-3.45V9.19A3.695 3.695 0 0 1 9.19 5.5h13.62a3.695 3.695 0 0 1 3.69 3.69v2.813a.5.5 0 0 0 1 0V9.19a4.696 4.696 0 0 0-4.691-4.69H9.191A4.695 4.695 0 0 0 4.5 9.189v.364a3.493 3.493 0 1 0 4 3.45m-6 0a2.5 2.5 0 1 1 5 0 2.5 2.5 0 0 1-5 0M11.035 18.185a5.375 5.375 0 0 0 9.931-.005.5.5 0 0 0-.932-.36 4.375 4.375 0 0 1-8.07-.004.5.5 0 1 0-.929.369"/></svg>