<svg xmlns="http://www.w3.org/2000/svg" width="32" height="32" viewBox="0 0 32 32"><path d="M27.583 7.368 16.6 2.617a1.488 1.488 0 0 0-1.161 0L4.425 7.367A1.494 1.494 0 0 0 3.5 8.75v14.667a1.494 1.494 0 0 0 .923 1.384l10.98 4.584c.37.152.784.152 1.154 0l11.02-4.584a1.496 1.496 0 0 0 .923-1.385V8.75a1.493 1.493 0 0 0-.917-1.381ZM16.171 12.46a.505.505 0 0 1-.385.001l-4.523-1.888 10.44-4.66 5.005 2.165L16.17 12.46Zm-.343-8.923a.495.495 0 0 1 .378-.001l4.25 1.838-10.462 4.67L5.291 8.08l10.537-4.543Zm-11.02 20.34a.498.498 0 0 1-.308-.46V8.833l10.902 4.551c.032.013.065.019.098.03v14.927L4.808 23.878Zm22.384 0L16.5 28.324V13.402c.018-.007.038-.01.056-.017L27.5 8.833v14.583a.499.499 0 0 1-.308.461Z"/></svg>