<svg xmlns="http://www.w3.org/2000/svg" width="32" height="32" viewBox="0 0 32 32"><path d="M28.373 7.684a.737.737 0 0 0-.068-.077 1.704 1.704 0 0 0-.622-.469L16.695 2.386a1.756 1.756 0 0 0-1.356.002L4.329 7.134a1.726 1.726 0 0 0-.63.472.737.737 0 0 0-.073.081c-.24.303-.373.677-.376 1.063v14.667a1.746 1.746 0 0 0 1.076 1.616l10.98 4.583c.432.178.916.178 1.347 0l11.019-4.584a1.743 1.743 0 0 0 1.078-1.616V8.75a1.737 1.737 0 0 0-.377-1.065Zm-12.298 4.547a.252.252 0 0 1-.192 0l-3.99-1.665 9.811-4.38 4.365 1.888-9.994 4.157Zm-.151-8.462a.249.249 0 0 1 .183-.003l3.729 1.613-9.843 4.393-4.061-1.695 9.992-4.308ZM4.75 23.417V9.21l10.5 4.382v14.374L4.903 23.648a.248.248 0 0 1-.153-.23Zm22.346.23L16.75 27.95V13.575l10.5-4.368v14.21a.249.249 0 0 1-.154.23Z"/></svg>