<svg xmlns="http://www.w3.org/2000/svg" width="32" height="32" viewBox="0 0 32 32"><path d="M27.781 6.909 16.792 2.156a2.003 2.003 0 0 0-1.552.003L4.234 6.904A1.992 1.992 0 0 0 3 8.75v14.667a1.993 1.993 0 0 0 1.23 1.846l10.98 4.583a2.005 2.005 0 0 0 1.538 0l11.02-4.584A1.993 1.993 0 0 0 29 23.416V8.75a1.989 1.989 0 0 0-1.219-1.84ZM15.98 12l-3.456-1.442 9.182-4.098 3.724 1.61L15.98 12Zm.028-8.005 3.206 1.387L9.99 9.5 6.57 8.072l9.438-4.076ZM5.01 9.59l9.99 4.17V27.59L5 23.418 5.01 9.59Zm21.99 13.827-10 4.16V13.74l10-4.16v13.834"/></svg>