<svg xmlns="http://www.w3.org/2000/svg" width="32" height="32" viewBox="0 0 32 32"><path d="M28.373 7.684a1 1 0 0 0-.068-.077 1.7 1.7 0 0 0-.622-.469L16.695 2.386a1.76 1.76 0 0 0-1.356.002L4.329 7.134a1.7 1.7 0 0 0-.63.472 1 1 0 0 0-.073.081c-.24.303-.373.677-.376 1.063v14.667a1.75 1.75 0 0 0 1.076 1.616l10.98 4.583c.432.178.916.178 1.347 0l11.019-4.584a1.74 1.74 0 0 0 1.078-1.616V8.75a1.74 1.74 0 0 0-.377-1.065m-12.298 4.547a.25.25 0 0 1-.192 0l-3.99-1.665 9.811-4.38 4.365 1.888zm-.151-8.462a.25.25 0 0 1 .183-.003l3.729 1.613-9.843 4.393-4.061-1.695zM4.75 23.417V9.21l10.5 4.382v14.374L4.903 23.648a.25.25 0 0 1-.153-.23m22.346.23L16.75 27.95V13.575l10.5-4.368v14.21a.25.25 0 0 1-.154.23"/></svg>