<svg xmlns="http://www.w3.org/2000/svg" width="32" height="32" viewBox="0 0 32 32"><path d="M10.999 4.5h-6a2.502 2.502 0 0 0-2.5 2.5v6a2.502 2.502 0 0 0 2.5 2.5h6a2.502 2.502 0 0 0 2.5-2.5V7a2.502 2.502 0 0 0-2.5-2.5ZM10.999 18.5h-6a2.502 2.502 0 0 0-2.5 2.5v6a2.502 2.502 0 0 0 2.5 2.5h6a2.502 2.502 0 0 0 2.5-2.5v-6a2.502 2.502 0 0 0-2.5-2.5ZM27 2.5h-8A2.502 2.502 0 0 0 16.5 5v8a2.502 2.502 0 0 0 2.5 2.5h8a2.502 2.502 0 0 0 2.5-2.5V5A2.502 2.502 0 0 0 27 2.5ZM25 18.5h-6a2.502 2.502 0 0 0-2.5 2.5v6a2.502 2.502 0 0 0 2.5 2.5h6a2.502 2.502 0 0 0 2.5-2.5v-6a2.502 2.502 0 0 0-2.5-2.5Z"/></svg>