<svg xmlns="http://www.w3.org/2000/svg" width="32" height="32" viewBox="0 0 32 32"><path d="M10.999 4h-6a3.003 3.003 0 0 0-3 3v6a3.003 3.003 0 0 0 3 3h6a3.003 3.003 0 0 0 3-3V7a3.003 3.003 0 0 0-3-3m1 9a1 1 0 0 1-1 1h-6a1 1 0 0 1-1-1V7a1 1 0 0 1 1-1h6a1 1 0 0 1 1 1zM10.999 18h-6a3.003 3.003 0 0 0-3 3v6a3.003 3.003 0 0 0 3 3h6a3.004 3.004 0 0 0 3-3v-6a3.003 3.003 0 0 0-3-3m1 9a1 1 0 0 1-1 1h-6a1 1 0 0 1-1-1v-6a1 1 0 0 1 1-1h6a1 1 0 0 1 1 1zM27 2h-8a3.003 3.003 0 0 0-3 3v8a3.003 3.003 0 0 0 3 3h8a3.003 3.003 0 0 0 3-3V5a3.003 3.003 0 0 0-3-3m1 11a1 1 0 0 1-1 1h-8a1 1 0 0 1-1-1V5a1 1 0 0 1 1-1h8a1 1 0 0 1 1 1zM25 18h-6a3.003 3.003 0 0 0-3 3v6a3.003 3.003 0 0 0 3 3h6a3.004 3.004 0 0 0 3-3v-6a3.003 3.003 0 0 0-3-3m1 9a1 1 0 0 1-1 1h-6a1 1 0 0 1-1-1v-6a1 1 0 0 1 1-1h6a1 1 0 0 1 1 1z"/></svg>