<svg xmlns="http://www.w3.org/2000/svg" width="32" height="32" viewBox="0 0 32 32"><path d="M10.999 4.25h-6A2.753 2.753 0 0 0 2.249 7v6a2.753 2.753 0 0 0 2.75 2.75h6a2.75 2.75 0 0 0 2.75-2.75V7a2.75 2.75 0 0 0-2.75-2.75m1.25 8.75a1.25 1.25 0 0 1-1.25 1.25h-6A1.25 1.25 0 0 1 3.749 13V7a1.25 1.25 0 0 1 1.25-1.25h6A1.25 1.25 0 0 1 12.249 7zM10.999 18.25h-6A2.753 2.753 0 0 0 2.249 21v6a2.753 2.753 0 0 0 2.75 2.75h6a2.753 2.753 0 0 0 2.75-2.75v-6a2.753 2.753 0 0 0-2.75-2.75m1.25 8.75a1.25 1.25 0 0 1-1.25 1.25h-6A1.25 1.25 0 0 1 3.749 27v-6a1.25 1.25 0 0 1 1.25-1.25h6a1.25 1.25 0 0 1 1.25 1.25zM27 2.25h-8A2.753 2.753 0 0 0 16.25 5v8A2.75 2.75 0 0 0 19 15.75h8A2.75 2.75 0 0 0 29.75 13V5A2.75 2.75 0 0 0 27 2.25M28.25 13A1.25 1.25 0 0 1 27 14.25h-8A1.25 1.25 0 0 1 17.75 13V5A1.25 1.25 0 0 1 19 3.75h8A1.25 1.25 0 0 1 28.25 5zM25 18.25h-6A2.753 2.753 0 0 0 16.25 21v6A2.753 2.753 0 0 0 19 29.75h6A2.753 2.753 0 0 0 27.75 27v-6A2.753 2.753 0 0 0 25 18.25M26.25 27A1.25 1.25 0 0 1 25 28.25h-6A1.25 1.25 0 0 1 17.75 27v-6A1.25 1.25 0 0 1 19 19.75h6A1.25 1.25 0 0 1 26.25 21z"/></svg>