<svg xmlns="http://www.w3.org/2000/svg" width="32" height="32" viewBox="0 0 32 32"><path d="M29 15.25h-2.288a10.714 10.714 0 0 0-3.084-6.815l1.902-1.904a.75.75 0 1 0-1.06-1.06L22.49 7.45a10.678 10.678 0 0 0-5.74-2.163V3a.75.75 0 1 0-1.5 0v2.288c-2.085.144-4.081.896-5.742 2.164L7.53 5.47a.75.75 0 1 0-1.06 1.06l1.902 1.906a10.713 10.713 0 0 0-3.084 6.814H3a.75.75 0 1 0 0 1.5h2.288a10.715 10.715 0 0 0 3.123 6.856L6.48 25.46a.75.75 0 0 0 1.039 1.082l2.037-1.956a10.675 10.675 0 0 0 5.693 2.127V29a.75.75 0 1 0 1.5 0v-2.288a10.676 10.676 0 0 0 5.719-2.146l2.006 1.97a.75.75 0 0 0 1.05-1.07l-1.915-1.881a10.715 10.715 0 0 0 3.102-6.835H29a.75.75 0 1 0 0-1.5ZM6.75 16a9.257 9.257 0 0 1 8.5-9.212v18.424A9.257 9.257 0 0 1 6.75 16Zm10 9.212V6.788a9.242 9.242 0 0 1 0 18.424Z"/></svg>