<svg xmlns="http://www.w3.org/2000/svg" width="32" height="32" viewBox="0 0 32 32"><path d="M29 15.5h-2.525a10.46 10.46 0 0 0-3.206-7.06l2.085-2.086a.5.5 0 0 0-.707-.707L22.515 7.78A10.44 10.44 0 0 0 16.5 5.526V3a.5.5 0 1 0-1 0v2.526c-2.192.1-4.297.89-6.015 2.255L7.354 5.647a.5.5 0 1 0-.707.707L8.73 8.44a10.46 10.46 0 0 0-3.205 7.06H3a.5.5 0 0 0 0 1h2.526a10.46 10.46 0 0 0 3.25 7.1L6.655 25.64a.5.5 0 1 0 .693.72l2.19-2.102a10.43 10.43 0 0 0 5.963 2.217V29a.5.5 0 1 0 1 0v-2.525c2.182-.1 4.277-.883 5.991-2.237l2.159 2.119a.5.5 0 0 0 .7-.713l-2.102-2.064a10.46 10.46 0 0 0 3.227-7.08H29a.5.5 0 0 0 0-1m-13 10a9.5 9.5 0 1 1 9.5-9.5 9.51 9.51 0 0 1-9.5 9.5"/></svg>