<svg xmlns="http://www.w3.org/2000/svg" width="32" height="32" viewBox="0 0 32 32"><path d="M29 15h-2.05a10.95 10.95 0 0 0-2.977-6.556l1.735-1.737a1.001 1.001 0 0 0-1.416-1.414l-1.825 1.828A10.9 10.9 0 0 0 17 5.051v-2.05a1 1 0 1 0-2 0v2.05c-1.976.18-3.867.897-5.467 2.071L7.708 5.294a1 1 0 0 0-1.416 1.412l1.735 1.738A10.95 10.95 0 0 0 5.051 15h-2.05a1 1 0 1 0 0 2h2.05a10.96 10.96 0 0 0 3.01 6.595l-1.753 1.684a1 1 0 0 0 1.385 1.443l1.885-1.81A10.9 10.9 0 0 0 15 26.95V29a1 1 0 0 0 2 0v-2.05c1.968-.18 3.85-.89 5.446-2.055l1.854 1.82a1 1 0 1 0 1.4-1.428l-1.743-1.712A10.95 10.95 0 0 0 26.949 17H29a1 1 0 0 0 0-2M16 25a9 9 0 1 1 9-9 9.01 9.01 0 0 1-9 9"/></svg>