<svg xmlns="http://www.w3.org/2000/svg" width="32" height="32" viewBox="0 0 32 32"><path d="M29 15.25h-2.288a10.7 10.7 0 0 0-3.084-6.815l1.902-1.904a.75.75 0 0 0-1.06-1.06l-1.979 1.98a10.68 10.68 0 0 0-5.74-2.163V3a.75.75 0 1 0-1.5 0v2.288c-2.085.144-4.081.896-5.742 2.164L7.531 5.47A.75.75 0 1 0 6.47 6.53l1.902 1.906a10.7 10.7 0 0 0-3.084 6.814H3a.75.75 0 0 0 0 1.5h2.288a10.72 10.72 0 0 0 3.123 6.856L6.48 25.46a.75.75 0 0 0 1.039 1.082l2.037-1.956a10.68 10.68 0 0 0 5.693 2.127V29a.75.75 0 1 0 1.5 0v-2.288a10.68 10.68 0 0 0 5.719-2.146l2.006 1.97a.75.75 0 0 0 1.05-1.07l-1.915-1.881a10.72 10.72 0 0 0 3.102-6.835H29a.75.75 0 1 0 0-1.5m-13 10A9.25 9.25 0 1 1 25.25 16 9.26 9.26 0 0 1 16 25.25"/></svg>