<svg xmlns="http://www.w3.org/2000/svg" width="32" height="32" viewBox="0 0 32 32"><path d="M11 11.5a.5.5 0 0 0-.5.5v10a.5.5 0 0 0 1 0V12a.5.5 0 0 0-.5-.5M16 11.5a.5.5 0 0 0-.5.5v10a.5.5 0 0 0 1 0V12a.5.5 0 0 0-.5-.5M21 11.5a.5.5 0 0 0-.5.5v10a.5.5 0 0 0 1 0V12a.5.5 0 0 0-.5-.5M23 5.5h-.5V3a.5.5 0 0 0-1 0v2.5h-11V3a.5.5 0 0 0-1 0v2.5H9A4.505 4.505 0 0 0 4.5 10v14A4.505 4.505 0 0 0 9 28.5h14a4.505 4.505 0 0 0 4.5-4.5V10A4.505 4.505 0 0 0 23 5.5M26.5 24a3.504 3.504 0 0 1-3.5 3.5H9A3.505 3.505 0 0 1 5.5 24V10A3.504 3.504 0 0 1 9 6.5h14a3.504 3.504 0 0 1 3.5 3.5z"/></svg>