<svg xmlns="http://www.w3.org/2000/svg" width="32" height="32" viewBox="0 0 32 32"><path d="M16 12.25a1.25 1.25 0 1 0 0-2.5 1.25 1.25 0 0 0 0 2.5ZM16 18.25a1.25 1.25 0 1 0 0-2.5 1.25 1.25 0 0 0 0 2.5ZM16 24.25a1.25 1.25 0 1 0 0-2.5 1.25 1.25 0 0 0 0 2.5ZM10 12.25a1.25 1.25 0 1 0 0-2.5 1.25 1.25 0 0 0 0 2.5Z"/><path d="M23 5V3a1 1 0 0 0-2 0v2H11V3a1 1 0 0 0-2 0v2a5.006 5.006 0 0 0-5 5v14a5.006 5.006 0 0 0 5 5h14a5.006 5.006 0 0 0 5-5V10a5.006 5.006 0 0 0-5-5Zm3 19a3.003 3.003 0 0 1-3 3H9a3.003 3.003 0 0 1-3-3V10a3.003 3.003 0 0 1 3-3h14a3.003 3.003 0 0 1 3 3v14Z"/><path d="M10 18.25a1.25 1.25 0 1 0 0-2.5 1.25 1.25 0 0 0 0 2.5ZM10 24.25a1.25 1.25 0 1 0 0-2.5 1.25 1.25 0 0 0 0 2.5ZM22 12.25a1.25 1.25 0 1 0 0-2.5 1.25 1.25 0 0 0 0 2.5ZM22 18.25a1.25 1.25 0 1 0 0-2.5 1.25 1.25 0 0 0 0 2.5ZM22 24.25a1.25 1.25 0 1 0 0-2.5 1.25 1.25 0 0 0 0 2.5Z"/></svg>