<svg xmlns="http://www.w3.org/2000/svg" width="32" height="32" viewBox="0 0 32 32"><path d="M10 2a1 1 0 0 1 1 1v1.999h10V3a1 1 0 1 1 2 0v1.999a5 5 0 0 1 5 5v14a5 5 0 0 1-5 5h-2.5a1 1 0 1 1 0-2H23a3 3 0 0 0 3-3v-14a3 3 0 0 0-3-3H9a3 3 0 0 0-3 3v14a3 3 0 0 0 3 3h2.5a1 1 0 1 1 0 2H9a5 5 0 0 1-5-5v-14a5 5 0 0 1 5-5V3a1 1 0 0 1 1-1m7.5 9a1.5 1.5 0 1 1-3 0 1.5 1.5 0 0 1 3 0M15 17.414V28a1 1 0 1 0 2 0V17.414l2.293 2.293a1 1 0 0 0 1.414-1.414l-4-4-.006-.007a1 1 0 0 0-.698-.286h-.006a1 1 0 0 0-.697.286l-.008.008-4 3.999a1 1 0 0 0 1.415 1.414z"/></svg>