<svg xmlns="http://www.w3.org/2000/svg" width="32" height="32" viewBox="0 0 32 32"><path d="m16.666 11.294-.991.995a3.55 3.55 0 0 0-.89 3.495 3.55 3.55 0 0 0-3.5.89l-.991.993a3.563 3.563 0 0 0 5.039 5.04l.992-.996a3.55 3.55 0 0 0 .89-3.495 3.47 3.47 0 0 0 3.499-.888v-.001l.992-.995a3.562 3.562 0 1 0-5.04-5.038m-1.402 9.358-.992.994a2.065 2.065 0 0 1-3.374-.665 2.06 2.06 0 0 1 .457-2.254l.99-.994a2.05 2.05 0 0 1 2.288-.426L13.47 18.47a.75.75 0 0 0-.001 1.062.75.75 0 0 0 1.061-.001l1.164-1.164a2.05 2.05 0 0 1-.43 2.285m5.38-5.38-.992.995a2.06 2.06 0 0 1-2.284.426l1.162-1.162a.75.75 0 0 0-1.06-1.06l-1.162 1.161a2.06 2.06 0 0 1 .428-2.284l.992-.994a2.06 2.06 0 0 1 3.365.67 2.06 2.06 0 0 1-.448 2.249M23 5.25h-.25V3a.75.75 0 1 0-1.5 0v2.25h-10.5V3a.75.75 0 1 0-1.5 0v2.25H9A4.755 4.755 0 0 0 4.25 10v14A4.755 4.755 0 0 0 9 28.75h14A4.756 4.756 0 0 0 27.75 24V10A4.755 4.755 0 0 0 23 5.25M26.25 24A3.254 3.254 0 0 1 23 27.25H9A3.254 3.254 0 0 1 5.75 24V10A3.254 3.254 0 0 1 9 6.75h14A3.254 3.254 0 0 1 26.25 10z"/></svg>