<svg xmlns="http://www.w3.org/2000/svg" width="32" height="32" viewBox="0 0 32 32"><path d="M22 11.25H10a.75.75 0 0 0 0 1.5h12a.75.75 0 1 0 0-1.5M21 16.25H11A1.75 1.75 0 0 0 9.25 18v3A1.75 1.75 0 0 0 11 22.75h10A1.753 1.753 0 0 0 22.75 21v-3A1.75 1.75 0 0 0 21 16.25m.25 4.75a.25.25 0 0 1-.25.25H11a.25.25 0 0 1-.25-.25v-3a.25.25 0 0 1 .25-.25h10a.25.25 0 0 1 .25.25zM23 5.25h-.25V3a.75.75 0 1 0-1.5 0v2.25h-10.5V3a.75.75 0 1 0-1.5 0v2.25H9A4.755 4.755 0 0 0 4.25 10v14A4.755 4.755 0 0 0 9 28.75h14A4.756 4.756 0 0 0 27.75 24V10A4.755 4.755 0 0 0 23 5.25M26.25 24A3.254 3.254 0 0 1 23 27.25H9A3.254 3.254 0 0 1 5.75 24V10A3.254 3.254 0 0 1 9 6.75h14A3.254 3.254 0 0 1 26.25 10z"/></svg>