<svg xmlns="http://www.w3.org/2000/svg" width="32" height="32" viewBox="0 0 32 32"><path d="m16.666 11.294-.99.995a3.55 3.55 0 0 0-.89 3.495 3.551 3.551 0 0 0-3.502.89l-.99.993a3.563 3.563 0 0 0 5.04 5.04l.992-.996a3.551 3.551 0 0 0 .89-3.495 3.467 3.467 0 0 0 3.498-.888l.001-.001.991-.995a3.562 3.562 0 1 0-5.04-5.038Zm-1.402 9.358-.992.994a2.063 2.063 0 1 1-2.916-2.919l.99-.994a2.05 2.05 0 0 1 2.287-.426L13.47 18.47a.75.75 0 1 0 1.06 1.06l1.165-1.163a2.052 2.052 0 0 1-.431 2.285Zm5.38-5.38-.991.995a2.06 2.06 0 0 1-2.285.426l1.163-1.162a.75.75 0 0 0-1.061-1.06l-1.162 1.161a2.063 2.063 0 0 1 .429-2.284l.99-.994a2.063 2.063 0 1 1 2.918 2.919Z"/><path d="M23 5.25h-.25V3a.75.75 0 1 0-1.5 0v2.25h-10.5V3a.75.75 0 1 0-1.5 0v2.25H9A4.755 4.755 0 0 0 4.25 10v14A4.755 4.755 0 0 0 9 28.75h14A4.756 4.756 0 0 0 27.75 24V10A4.755 4.755 0 0 0 23 5.25ZM26.25 24A3.254 3.254 0 0 1 23 27.25H9A3.254 3.254 0 0 1 5.75 24V10A3.254 3.254 0 0 1 9 6.75h14A3.254 3.254 0 0 1 26.25 10v14Z"/></svg>