<svg xmlns="http://www.w3.org/2000/svg" width="32" height="32" viewBox="0 0 32 32"><path d="M26.5 3a.5.5 0 0 0-1 0v3.5H22a.5.5 0 0 0 0 1h3.5V11a.5.5 0 0 0 1 0V7.5H30a.5.5 0 0 0 0-1h-3.5zM9 6.5A3.5 3.5 0 0 0 5.5 10v14A3.5 3.5 0 0 0 9 27.5h14a3.5 3.5 0 0 0 3.5-3.5v-8a.5.5 0 0 1 1 0v8a4.5 4.5 0 0 1-4.5 4.5H9A4.5 4.5 0 0 1 4.5 24V10A4.5 4.5 0 0 1 9 5.5h.5V3a.5.5 0 0 1 1 0v2.5H17a.5.5 0 0 1 0 1zM10 11.75a.75.75 0 1 0 0-1.5.75.75 0 0 0 0 1.5M16 11.75a.75.75 0 1 0 0-1.5.75.75 0 0 0 0 1.5M16 17.75a.75.75 0 1 0 0-1.5.75.75 0 0 0 0 1.5M16.75 23a.75.75 0 1 1-1.5 0 .75.75 0 0 1 1.5 0M10.75 17a.75.75 0 1 1-1.5 0 .75.75 0 0 1 1.5 0M10 23.75a.75.75 0 1 0 0-1.5.75.75 0 0 0 0 1.5M22.75 17a.75.75 0 1 1-1.5 0 .75.75 0 0 1 1.5 0M22 23.75a.75.75 0 1 0 0-1.5.75.75 0 0 0 0 1.5"/></svg>