<svg xmlns="http://www.w3.org/2000/svg" width="32" height="32" viewBox="0 0 32 32"><path d="M22 11.25H10a.75.75 0 0 0 0 1.5h12a.752.752 0 0 0 .693-1.037.75.75 0 0 0-.693-.463M22 16.25H10a.75.75 0 0 0 0 1.5h12a.75.75 0 1 0 0-1.5M22 21.25H10a.75.75 0 1 0 0 1.5h12a.75.75 0 0 0 0-1.5M23 5.25h-.25V3a.75.75 0 1 0-1.5 0v2.25h-10.5V3a.75.75 0 1 0-1.5 0v2.25H9A4.755 4.755 0 0 0 4.25 10v14A4.755 4.755 0 0 0 9 28.75h14A4.756 4.756 0 0 0 27.75 24V10A4.755 4.755 0 0 0 23 5.25M26.25 24A3.254 3.254 0 0 1 23 27.25H9A3.254 3.254 0 0 1 5.75 24V10A3.254 3.254 0 0 1 9 6.75h14A3.254 3.254 0 0 1 26.25 10z"/></svg>