<svg xmlns="http://www.w3.org/2000/svg" width="32" height="32" viewBox="0 0 32 32"><path d="M19 20.5a.5.5 0 0 1 .5-.5h9a.5.5 0 0 1 0 1h-9a.5.5 0 0 1-.5-.5ZM20.5 24.5a.5.5 0 0 1 .5-.5h6a.5.5 0 0 1 0 1h-6a.5.5 0 0 1-.5-.5ZM21.5 28.5a.5.5 0 0 1 .5-.5h4a.5.5 0 0 1 0 1h-4a.5.5 0 0 1-.5-.5Z"/><path d="M10.5 3v2.5h11V3a.5.5 0 0 1 1 0v2.5h.502A4.512 4.512 0 0 1 27.5 9.999V17a.5.5 0 0 1-1 0v-4.5a.51.51 0 0 1-.043.001H5.5v11.498A3.512 3.512 0 0 0 9 27.5h5a.5.5 0 0 1 0 1H8.999A4.512 4.512 0 0 1 4.5 24.002V9.998A4.512 4.512 0 0 1 8.999 5.5H9.5V3a.5.5 0 0 1 1 0ZM9 6.5A3.512 3.512 0 0 0 5.5 10v1.501h20.957a.51.51 0 0 1 .043.002V10A3.513 3.513 0 0 0 23 6.5H9Z"/></svg>