<svg xmlns="http://www.w3.org/2000/svg" width="32" height="32" viewBox="0 0 32 32"><path d="m16.49 11.118-.992.994a3.8 3.8 0 0 0-1.054 3.33 3.81 3.81 0 0 0-3.337 1.055l-.99.994a3.813 3.813 0 0 0 5.393 5.392l.992-.995a3.8 3.8 0 0 0 1.055-3.33q.316.058.638.061a3.8 3.8 0 0 0 2.696-1.115l.992-.995a3.815 3.815 0 0 0-2.696-6.512 3.81 3.81 0 0 0-2.697 1.12m-1.403 9.357-.992.995a1.813 1.813 0 1 1-2.562-2.566l.99-.994a1.8 1.8 0 0 1 1.646-.492l-.876.875a1 1 0 0 0 1.414 1.415l.876-.877a1.83 1.83 0 0 1-.101 1.056c-.091.22-.226.42-.395.588m5.381-5.379-.992.995a1.82 1.82 0 0 1-1.644.492l.875-.875a1 1 0 0 0-1.414-1.415l-.874.875a1.81 1.81 0 0 1 .494-1.643l.992-.994a1.813 1.813 0 1 1 2.563 2.565M23 5V3a1 1 0 0 0-2 0v2H11V3a1 1 0 0 0-2 0v2a5.006 5.006 0 0 0-5 5v14a5.006 5.006 0 0 0 5 5h14a5.006 5.006 0 0 0 5-5V10a5.006 5.006 0 0 0-5-5m3 19a3.003 3.003 0 0 1-3 3H9a3.003 3.003 0 0 1-3-3V10a3.003 3.003 0 0 1 3-3h14a3.003 3.003 0 0 1 3 3z"/></svg>