<svg xmlns="http://www.w3.org/2000/svg" width="32" height="32" viewBox="0 0 32 32"><path d="M18.5 20.5a1 1 0 0 1 1-1h9a1 1 0 1 1 0 2h-9a1 1 0 0 1-1-1M20 24.5a1 1 0 0 0 1 1h6a1 1 0 1 0 0-2h-6a1 1 0 0 0-1 1M21 28.5a1 1 0 0 1 1-1h4a1 1 0 1 1 0 2h-4a1 1 0 0 1-1-1M11 3a1 1 0 1 0-2 0v2h-.003A5.01 5.01 0 0 0 4 9.997v14.006A5.01 5.01 0 0 0 8.997 29H14a1 1 0 1 0 0-2H9.002A3.01 3.01 0 0 1 6 23.998V13.001h20V17a1 1 0 1 0 2 0V9.997A5.01 5.01 0 0 0 23.003 5H23V3a1 1 0 1 0-2 0v2H11zM9.002 7h13.996A3.01 3.01 0 0 1 26 10.002V11H6v-1A3.01 3.01 0 0 1 9.002 7"/></svg>