<svg xmlns="http://www.w3.org/2000/svg" width="32" height="32" viewBox="0 0 32 32"><path d="m16.843 11.47-.992.995a3.31 3.31 0 0 0-.65 3.735 3.31 3.31 0 0 0-3.74.65l-.99.994a3.313 3.313 0 0 0 4.685 4.686l.992-.995A3.31 3.31 0 0 0 16.8 17.8a3.28 3.28 0 0 0 3.738-.65l.992-.994a3.314 3.314 0 0 0-4.686-4.686m-1.403 9.358-.99.995a2.312 2.312 0 1 1-3.271-3.273l.99-.994a2.31 2.31 0 0 1 2.88-.312l-1.402 1.403a.5.5 0 1 0 .707.707l1.4-1.401a2.3 2.3 0 0 1-.314 2.875m5.381-5.38-.99.996a2.315 2.315 0 0 1-2.88.312l1.402-1.402a.5.5 0 0 0-.707-.707l-1.4 1.401a2.31 2.31 0 0 1 .314-2.876l.99-.995a2.313 2.313 0 0 1 3.271 3.272M23 5.5h-.5V3a.5.5 0 0 0-1 0v2.5h-11V3a.5.5 0 0 0-1 0v2.5H9A4.505 4.505 0 0 0 4.5 10v14A4.505 4.505 0 0 0 9 28.5h14a4.505 4.505 0 0 0 4.5-4.5V10A4.505 4.505 0 0 0 23 5.5M26.5 24a3.504 3.504 0 0 1-3.5 3.5H9A3.505 3.505 0 0 1 5.5 24V10A3.504 3.504 0 0 1 9 6.5h14a3.504 3.504 0 0 1 3.5 3.5z"/></svg>