<svg xmlns="http://www.w3.org/2000/svg" width="32" height="32" viewBox="0 0 32 32"><path d="M10 11a1 1 0 0 0-1 1v10a1 1 0 0 0 2 0V12a1 1 0 0 0-1-1M14 11a1 1 0 0 0-1 1v10a1 1 0 1 0 2 0V12a1 1 0 0 0-1-1M18 11a1 1 0 0 0-1 1v10a1 1 0 1 0 2 0V12a1 1 0 0 0-1-1M22 11a1 1 0 0 0-1 1v10a1 1 0 1 0 2 0V12a1 1 0 0 0-1-1M23 5V3a1 1 0 0 0-2 0v2H11V3a1 1 0 0 0-2 0v2a5.006 5.006 0 0 0-5 5v14a5.006 5.006 0 0 0 5 5h14a5.006 5.006 0 0 0 5-5V10a5.006 5.006 0 0 0-5-5m3 19a3.003 3.003 0 0 1-3 3H9a3.003 3.003 0 0 1-3-3V10a3.003 3.003 0 0 1 3-3h14a3.003 3.003 0 0 1 3 3z"/></svg>