<svg xmlns="http://www.w3.org/2000/svg" width="32" height="32" viewBox="0 0 32 32"><path d="M27 3a1 1 0 1 0-2 0v3h-3a1 1 0 1 0 0 2h3v3a1 1 0 1 0 2 0V8h3a1 1 0 1 0 0-2h-3zM9 7a3 3 0 0 0-3 3v14a3 3 0 0 0 3 3h14a3 3 0 0 0 3-3v-8a1 1 0 1 1 2 0v8a5 5 0 0 1-5 5H9a5 5 0 0 1-5-5V10a5 5 0 0 1 5-5V3a1 1 0 0 1 2 0v2h6a1 1 0 1 1 0 2zM10 12.25a1.25 1.25 0 1 0 0-2.5 1.25 1.25 0 0 0 0 2.5M16 12.25a1.25 1.25 0 1 0 0-2.5 1.25 1.25 0 0 0 0 2.5M16 18.25a1.25 1.25 0 1 0 0-2.5 1.25 1.25 0 0 0 0 2.5M17.25 23a1.25 1.25 0 1 1-2.5 0 1.25 1.25 0 0 1 2.5 0M11.25 17a1.25 1.25 0 1 1-2.5 0 1.25 1.25 0 0 1 2.5 0M10 24.25a1.25 1.25 0 1 0 0-2.5 1.25 1.25 0 0 0 0 2.5M23.25 17a1.25 1.25 0 1 1-2.5 0 1.25 1.25 0 0 1 2.5 0M22 24.25a1.25 1.25 0 1 0 0-2.5 1.25 1.25 0 0 0 0 2.5"/></svg>