<svg xmlns="http://www.w3.org/2000/svg" width="32" height="32" viewBox="0 0 32 32"><path d="M26.75 3a.75.75 0 0 0-1.5 0v3.25H22a.75.75 0 0 0 0 1.5h3.25V11a.75.75 0 0 0 1.5 0V7.75H30a.75.75 0 0 0 0-1.5h-3.25zM9 6.75A3.25 3.25 0 0 0 5.75 10v14A3.25 3.25 0 0 0 9 27.25h14A3.25 3.25 0 0 0 26.25 24v-8a.75.75 0 0 1 1.5 0v8A4.75 4.75 0 0 1 23 28.75H9A4.75 4.75 0 0 1 4.25 24V10A4.75 4.75 0 0 1 9 5.25h.25V3a.75.75 0 0 1 1.5 0v2.25H17a.75.75 0 0 1 0 1.5zM10 12a1 1 0 1 0 0-2 1 1 0 0 0 0 2M16 12a1 1 0 1 0 0-2 1 1 0 0 0 0 2M16 18a1 1 0 1 0 0-2 1 1 0 0 0 0 2M17 23a1 1 0 1 1-2 0 1 1 0 0 1 2 0M11 17a1 1 0 1 1-2 0 1 1 0 0 1 2 0M10 24a1 1 0 1 0 0-2 1 1 0 0 0 0 2M23 17a1 1 0 1 1-2 0 1 1 0 0 1 2 0M22 24a1 1 0 1 0 0-2 1 1 0 0 0 0 2"/></svg>