<svg xmlns="http://www.w3.org/2000/svg" width="32" height="32" viewBox="0 0 32 32"><path d="M18.25 3.828a.75.75 0 0 1 .75-.75h6.364a.75.75 0 0 1 .75.75v6.364a.75.75 0 0 1-1.5 0V5.64l-2.962 2.962a.75.75 0 0 1-1.061-1.06l2.962-2.963H19a.75.75 0 0 1-.75-.75M16 17.25c-9.716 0-13.75 4.595-13.75 7.055v1.467A2.98 2.98 0 0 0 5.23 28.75h3.57a2.963 2.963 0 0 0 2.952-2.969v-1.754A7.1 7.1 0 0 1 16 22.75a7.13 7.13 0 0 1 4.25 1.272l-.002 1.768a3.064 3.064 0 0 0 3.082 2.96h3.44a2.98 2.98 0 0 0 2.98-2.979v-1.466c0-2.46-4.034-7.055-13.75-7.055m12.25 8.522a1.48 1.48 0 0 1-1.478 1.478h-3.44a1.565 1.565 0 0 1-1.582-1.46v-1.953c0-1.233-3.01-2.587-5.75-2.587s-5.75 1.357-5.75 2.593v1.938a1.46 1.46 0 0 1-1.452 1.469H5.23a1.48 1.48 0 0 1-1.479-1.479v-1.466c0-1.635 3.525-5.555 12.25-5.555 8.726 0 12.25 3.92 12.25 5.555zM15 15a1 1 0 1 0 0-2 1 1 0 0 0 0 2m4-4a1 1 0 1 1-2 0 1 1 0 0 1 2 0"/></svg>