<svg xmlns="http://www.w3.org/2000/svg" width="32" height="32" viewBox="0 0 32 32"><path d="M10.782 20.25H9.027A7.116 7.116 0 0 1 7.75 16a7.12 7.12 0 0 1 1.273-4.25h1.768a3.063 3.063 0 0 0 2.96-3.082v-3.44a2.981 2.981 0 0 0-2.979-2.978H9.305C6.845 2.25 2.25 6.283 2.25 16c0 9.717 4.595 13.75 7.055 13.75h1.467a2.981 2.981 0 0 0 2.979-2.979v-3.569a2.964 2.964 0 0 0-2.97-2.952Zm1.469 6.521a1.48 1.48 0 0 1-1.479 1.479H9.305C7.67 28.25 3.75 24.726 3.75 16c0-8.726 3.92-12.25 5.555-12.25h1.467a1.48 1.48 0 0 1 1.479 1.479v3.439a1.565 1.565 0 0 1-1.46 1.582H8.836c-1.233 0-2.587 3.01-2.587 5.75s1.357 5.75 2.592 5.75h1.94a1.462 1.462 0 0 1 1.469 1.452v3.57Zm14.53-6.521h-1.754A7.117 7.117 0 0 1 23.75 16a7.119 7.119 0 0 1 1.273-4.25h1.768a3.063 3.063 0 0 0 2.96-3.082v-3.44a2.981 2.981 0 0 0-2.979-2.978h-1.467c-2.46 0-7.055 4.033-7.055 13.75 0 9.717 4.595 13.75 7.055 13.75h1.467a2.981 2.981 0 0 0 2.979-2.979v-3.569a2.964 2.964 0 0 0-2.97-2.952Zm1.47 6.521a1.48 1.48 0 0 1-1.479 1.479h-1.467c-1.635 0-5.555-3.524-5.555-12.25 0-8.726 3.92-12.25 5.555-12.25h1.467a1.48 1.48 0 0 1 1.479 1.479v3.439a1.565 1.565 0 0 1-1.46 1.582h-1.954c-1.233 0-2.587 3.01-2.587 5.75s1.357 5.75 2.592 5.75h1.94a1.462 1.462 0 0 1 1.468 1.452v3.57Zm-14.22-14.3 3 3a.751.751 0 0 1 0 1.06l-3 2.998a.75.75 0 1 1-1.06-1.06l1.719-1.718H10.5a.75.75 0 0 1 0-1.5h4.19l-1.72-1.72a.75.75 0 1 1 1.061-1.06Z"/></svg>