<svg xmlns="http://www.w3.org/2000/svg" width="32" height="32" viewBox="0 0 32 32"><path d="M20.779 7.75h6.442a2.542 2.542 0 1 0-2.305-1.5h-1.832a2.525 2.525 0 1 0-2.305 1.5Zm5.414-2.528a1.029 1.029 0 1 1 2.058 0 1.029 1.029 0 0 1-2.058 0Zm-5.414-1.028a1.029 1.029 0 1 1 0 2.057 1.029 1.029 0 0 1 0-2.057ZM29 10.25H19a.75.75 0 0 0 0 1.5h10a.75.75 0 1 0 0-1.5ZM24.038 19.698a3.264 3.264 0 0 0-4.616.005s-1.26 1.282-1.734 1.76a7.291 7.291 0 0 1-7.151-7.151c.477-.475 1.76-1.736 1.763-1.74a3.26 3.26 0 0 0 0-4.61L9.547 5.207a3.35 3.35 0 0 0-4.628 0L3.448 6.68c-1.18 1.18-1.52 3.604-.885 6.324.546 2.347 2.073 6.019 6.244 10.189 4.956 4.956 9.546 6.56 12.714 6.558a5.416 5.416 0 0 0 3.798-1.199l1.472-1.472a3.277 3.277 0 0 0 0-4.628l-2.753-2.754Zm1.692 6.322-1.472 1.471c-1.327 1.329-7.356 1.675-14.39-5.359-3.92-3.92-5.342-7.312-5.845-9.469-.576-2.472-.152-4.285.485-4.922L5.98 6.269a1.774 1.774 0 0 1 2.507 0l2.753 2.753a1.76 1.76 0 0 1 .004 2.485s-1.502 1.478-1.867 1.842c-.86.861-.067 4.74 2.233 7.04a9.285 9.285 0 0 0 4.044 2.304c.538.147 2.35.578 2.996-.07.363-.364 1.838-1.864 1.838-1.864a1.764 1.764 0 0 1 2.489 0l2.753 2.753a1.775 1.775 0 0 1 0 2.508Z"/></svg>