<svg xmlns="http://www.w3.org/2000/svg" width="32" height="32" viewBox="0 0 32 32"><path d="M28.9 12.55a14.05 14.05 0 0 0-7.45-7.449 14.1 14.1 0 0 0-10.9 0A14.013 14.013 0 0 0 3.1 23.45a13.2 13.2 0 0 0 2.667 3.913A2.02 2.02 0 0 0 7.241 28h17.524a2.01 2.01 0 0 0 1.462-.631 13.2 13.2 0 0 0 2.672-3.92 14.04 14.04 0 0 0 0-10.899m-1.843 10.12A11 11 0 0 1 24.765 26H7.241l-.012-.003a11.1 11.1 0 0 1-2.287-3.327 12 12 0 1 1 22.115 0M18.13 15.674l-7.618-4.533a1 1 0 0 0-1.376 1.363l4.485 7.679a3.66 3.66 0 0 0 2.38 1.76q.308.056.62.056a3.28 3.28 0 0 0 2.33-.949l.096-.095A3.32 3.32 0 0 0 19.943 18a3.76 3.76 0 0 0-1.812-2.326m-.495 3.865-.094.093a1.31 1.31 0 0 1-1.18.344 1.63 1.63 0 0 1-1.018-.808l-2.529-4.332 4.378 2.602c.37.195.651.526.784.923a1.31 1.31 0 0 1-.341 1.178"/></svg>