<svg xmlns="http://www.w3.org/2000/svg" width="32" height="31" viewBox="0 0 32 31"><path d="M19 2.1c-.552 0-1 .425-1 .95 0 .525.448.95 1 .95h4.586l-3.293 3.128a.917.917 0 0 0 0 1.344c.39.37 1.024.37 1.414 0L25 5.344V9.7c0 .525.448.95 1 .95s1-.425 1-.95V3.05c0-.525-.448-.95-1-.95h-7Zm.5 8.788c0 .655-.56 1.187-1.25 1.187S17 11.543 17 10.888c0-.656.56-1.188 1.25-1.188s1.25.532 1.25 1.188Zm-3 2.85c0 .655-.56 1.187-1.25 1.187S14 14.393 14 13.738c0-.656.56-1.188 1.25-1.188s1.25.532 1.25 1.188ZM2 23.29c0-2.42 4.107-6.94 14-6.94 9.894 0 14 4.52 14 6.94v1.393c0 .813-.341 1.593-.946 2.168a3.32 3.32 0 0 1-2.282.899h-3.44a3.411 3.411 0 0 1-2.319-.882A3.08 3.08 0 0 1 20 24.701l.002-1.568a7.292 7.292 0 0 0-4-1.083 7.267 7.267 0 0 0-4 1.087v1.555a2.978 2.978 0 0 1-.936 2.158c-.6.573-1.416.897-2.267.9H5.23a3.32 3.32 0 0 1-2.282-.9A2.995 2.995 0 0 1 2 24.684V23.29Z"/></svg>