<svg xmlns="http://www.w3.org/2000/svg" width="32" height="32" viewBox="0 0 32 32"><path d="M24 2a6 6 0 1 0 6 6 6.007 6.007 0 0 0-6-6Zm0 2a3.996 3.996 0 0 1 3.858 3h-7.716A3.996 3.996 0 0 1 24 4Zm0 8a3.996 3.996 0 0 1-3.858-3h7.716A3.996 3.996 0 0 1 24 12ZM24.212 19.515a3.516 3.516 0 0 0-4.973.006s-1.156 1.18-1.671 1.699a7.1 7.1 0 0 1-6.802-6.81c.52-.516 1.697-1.674 1.702-1.68a3.519 3.519 0 0 0 0-4.973L9.714 4.999a3.607 3.607 0 0 0-4.984 0L3.258 6.473C1.25 8.483.762 15.503 8.618 23.37c5 5.007 9.658 6.63 12.902 6.63 1.436.1 2.857-.35 3.974-1.26l1.472-1.475a3.53 3.53 0 0 0 0-4.99l-2.754-2.76Z"/></svg>