<svg xmlns="http://www.w3.org/2000/svg" width="32" height="32" viewBox="0 0 32 32"><path d="m29.707 6.293-4-4a1 1 0 0 0-1.414 0l-4 4a1 1 0 0 0 1.414 1.414L24 5.414v18.71A3.75 3.75 0 0 1 20.5 28a3.75 3.75 0 0 1-3.5-3.875V7.875A5.773 5.773 0 0 0 11.5 2 5.773 5.773 0 0 0 6 7.875v18.712l-2.293-2.293a1.002 1.002 0 0 0-1.63.324 1 1 0 0 0 .216 1.09l4 4a1 1 0 0 0 1.414 0l4-4a1 1 0 0 0-1.414-1.414L8 26.587V7.875A3.75 3.75 0 0 1 11.5 4 3.75 3.75 0 0 1 15 7.875v16.25A5.773 5.773 0 0 0 20.5 30a5.774 5.774 0 0 0 5.5-5.875V5.414l2.293 2.293a1 1 0 0 0 1.414-1.414"/></svg>