<svg xmlns="http://www.w3.org/2000/svg" width="32" height="32" viewBox="0 0 32 32"><path d="M19.47 2.47a.75.75 0 0 1 1.06 0L24 5.94l3.47-3.47a.75.75 0 1 1 1.06 1.06L25.06 7l3.47 3.47a.75.75 0 1 1-1.06 1.06L24 8.06l-3.47 3.47a.75.75 0 1 1-1.06-1.06L22.94 7l-3.47-3.47a.75.75 0 0 1 0-1.06M9.277 22.616c6.871 6.87 12.972 6.474 14.712 4.734l1.037-1.037a2.98 2.98 0 0 0 0-4.212l-2.524-2.524a2.964 2.964 0 0 0-4.187.012l-1.24 1.24a7.1 7.1 0 0 1-3.908-2.102 7.13 7.13 0 0 1-2.106-3.905l1.25-1.25a3.063 3.063 0 0 0-.086-4.272L9.793 6.868a2.98 2.98 0 0 0-4.213 0L4.543 7.905c-1.74 1.74-2.136 7.84 4.734 14.71M6.641 7.928a1.48 1.48 0 0 1 2.09 0l2.434 2.433a1.565 1.565 0 0 1 .086 2.151l-1.382 1.38c-.872.873.3 3.958 2.237 5.896s5.025 3.105 5.899 2.232l1.37-1.37a1.46 1.46 0 0 1 2.066-.012l2.524 2.523a1.48 1.48 0 0 1 0 2.091l-1.037 1.038c-1.156 1.156-6.42 1.435-12.59-4.735s-5.89-11.434-4.734-12.59z"/></svg>