<svg xmlns="http://www.w3.org/2000/svg" width="32" height="32" viewBox="0 0 32 32"><path d="M2.25 9.555C2.25 7.095 6.283 2.5 16 2.5c9.717 0 13.75 4.595 13.75 7.055v1.466A2.982 2.982 0 0 1 26.771 14h-3.44a3.063 3.063 0 0 1-3.082-2.96l.001-1.768A7.127 7.127 0 0 0 16 8a7.107 7.107 0 0 0-4.25 1.277v1.754A2.964 2.964 0 0 1 8.798 14h-3.57a2.982 2.982 0 0 1-2.978-2.979V9.556Zm25.567 2.511a1.48 1.48 0 0 0 .433-1.045V9.556C28.25 7.92 24.726 4 16 4 7.274 4 3.75 7.92 3.75 9.555v1.466A1.48 1.48 0 0 0 5.229 12.5h3.569a1.462 1.462 0 0 0 1.452-1.469V9.093C10.25 7.857 13.26 6.5 16 6.5s5.75 1.353 5.75 2.587v1.953a1.565 1.565 0 0 0 1.581 1.46h3.44a1.48 1.48 0 0 0 1.046-.434ZM16 14.25a.75.75 0 0 1 .75.75v5.417l2.553 2.553a.75.75 0 1 1-1.06 1.06l-2.773-2.772a.75.75 0 0 1-.22-.53V15a.75.75 0 0 1 .75-.75Zm-8.64 1.547a.75.75 0 0 1 .44.965 8.73 8.73 0 0 0-.55 3.063 8.75 8.75 0 1 0 17.5 0 8.73 8.73 0 0 0-.55-3.063.75.75 0 0 1 1.404-.525 10.23 10.23 0 0 1 .646 3.588c0 5.66-4.59 10.25-10.25 10.25s-10.25-4.59-10.25-10.25c0-1.26.228-2.47.646-3.588a.75.75 0 0 1 .965-.44Z"/></svg>