<svg xmlns="http://www.w3.org/2000/svg" width="32" height="32" viewBox="0 0 32 32"><path d="M23 28H9a5.006 5.006 0 0 1-5-5 1 1 0 1 1 2 0 3.003 3.003 0 0 0 3 3h14a3.003 3.003 0 0 0 3-3V7.996a2.002 2.002 0 0 0-2-2h-7a2.002 2.002 0 0 0-2 2V11a1 1 0 1 1-2 0V7.996a4.005 4.005 0 0 1 4-4h7a4.004 4.004 0 0 1 4 4V23a5.006 5.006 0 0 1-5 5Z"/><path d="M15.209 23.996c-2.321 0-5.548-1.234-8.76-4.445C1.536 14.636 1.25 9.684 2.936 8l.965-.965a2.658 2.658 0 0 1 3.754 0L9.46 8.84a2.645 2.645 0 0 1 0 3.743c-.004.005-.5.49-.87.857a8.952 8.952 0 0 0 1.695 2.274 8.95 8.95 0 0 0 2.274 1.695l.851-.864a2.651 2.651 0 0 1 3.749-.006l1.805 1.805a2.66 2.66 0 0 1 0 3.755l-.965.965a3.9 3.9 0 0 1-2.79.93ZM5.777 8.258a.652.652 0 0 0-.463.192l-.965.965c-.551.551-1.073 4.134 3.515 8.721 4.588 4.588 8.168 4.067 8.721 3.515l.965-.965a.657.657 0 0 0 0-.927l-1.805-1.805a.649.649 0 0 0-.915 0s-.966.982-1.204 1.221c-1.34 1.343-4.617-1.907-4.755-2.045-.14-.14-3.385-3.416-2.047-4.754.239-.24 1.228-1.212 1.228-1.212a.646.646 0 0 0-.006-.908L6.24 8.45a.652.652 0 0 0-.463-.192Z"/></svg>