<svg xmlns="http://www.w3.org/2000/svg" width="32" height="32" viewBox="0 0 32 32"><path d="M20.501 13a2.502 2.502 0 0 0 2.5-2.5v-6a2.5 2.5 0 1 0-5 0v6a2.502 2.502 0 0 0 2.5 2.5ZM25.733 2.733A2.502 2.502 0 0 1 27.5 2 2.503 2.503 0 0 1 30 4.5v6a2.5 2.5 0 0 1-5 0v-6c.001-.663.265-1.298.733-1.767ZM27.615 21.629l-2.753-2.753a3.082 3.082 0 0 0-4.26.003s-1.472 1.497-1.761 1.806a7.277 7.277 0 0 1-5.346-2.18 7.653 7.653 0 0 1-2.233-5.272c.348-.349 1.75-1.727 1.856-1.831l.007-.007a3.015 3.015 0 0 0 0-4.257l-2.753-2.752a3.095 3.095 0 0 0-4.275 0L4.625 5.857c-1.883 1.883-2.243 8.556 5.36 16.16 4.912 4.913 9.437 6.5 12.532 6.5a5.169 5.169 0 0 0 3.626-1.142l1.472-1.472a3.027 3.027 0 0 0 0-4.274Z"/></svg>