<svg xmlns="http://www.w3.org/2000/svg" width="32" height="32" viewBox="0 0 32 32"><path d="M28.44 12.745a13.558 13.558 0 0 0-7.184-7.184 13.619 13.619 0 0 0-10.51 0A13.516 13.516 0 0 0 3.56 23.255a12.696 12.696 0 0 0 2.574 3.766 1.518 1.518 0 0 0 1.107.48h17.524a1.509 1.509 0 0 0 1.097-.474 12.68 12.68 0 0 0 2.576-3.772 13.546 13.546 0 0 0 .001-10.51Zm-.923 10.12a11.543 11.543 0 0 1-2.385 3.478.505.505 0 0 1-.367.157H7.241a.514.514 0 0 1-.377-.162 11.545 11.545 0 0 1-2.382-3.472 12.503 12.503 0 1 1 23.035-9.73 12.539 12.539 0 0 1 0 9.73Z"/><path d="m17.875 16.104-7.62-4.533a.5.5 0 0 0-.687.681l4.482 7.676a3.09 3.09 0 0 0 2.041 1.524c.175.031.353.047.53.047a2.791 2.791 0 0 0 1.978-.804l.092-.091.002-.002a2.781 2.781 0 0 0-.818-4.498Zm.112 3.79-.093.092a1.791 1.791 0 0 1-1.623.481 2.124 2.124 0 0 1-1.36-1.047l-3.504-6 5.999 3.566a2.056 2.056 0 0 1 1.062 1.285 1.798 1.798 0 0 1-.48 1.623Z"/></svg>