<svg xmlns="http://www.w3.org/2000/svg" width="32" height="32" viewBox="0 0 32 32"><path d="M20.779 8h6.442a2.779 2.779 0 1 0-2.778-2.778c.004.264.046.526.125.778h-1.135a2.74 2.74 0 0 0 .124-.778A2.778 2.778 0 1 0 20.78 8Zm5.664-2.778A.778.778 0 1 1 28 5.221a.778.778 0 0 1-1.557.001Zm-5.664-.778a.778.778 0 1 1 0 1.556.778.778 0 0 1 0-1.556ZM29 10H19a1 1 0 0 0 0 2h10a1 1 0 0 0 0-2ZM24.212 19.515a3.515 3.515 0 0 0-4.973.006s-1.156 1.18-1.671 1.699a7.1 7.1 0 0 1-6.801-6.81c.52-.516 1.696-1.674 1.702-1.68a3.52 3.52 0 0 0 0-4.973L9.714 4.999a3.607 3.607 0 0 0-4.984 0L3.258 6.473C1.25 8.483.763 15.503 8.619 23.37c5 5.007 9.657 6.63 12.901 6.63 1.437.1 2.858-.35 3.974-1.26l1.472-1.475a3.53 3.53 0 0 0 0-4.99l-2.754-2.76Zm1.34 6.333-1.473 1.438c-1.28 1.277-7.136 1.55-14.045-5.37-6.91-6.92-6.64-12.746-5.361-14.026l1.472-1.443a1.521 1.521 0 0 1 2.155 0l2.754 2.726a1.514 1.514 0 0 1 .006 2.134s-1.506 1.482-1.871 1.848c-1.304 1.31.468 5.636 2.235 7.406a9.545 9.545 0 0 0 4.157 2.373c.91.25 2.542.563 3.24-.135.364-.364 1.84-1.866 1.84-1.867a1.513 1.513 0 0 1 2.136 0l2.754 2.76a1.526 1.526 0 0 1 0 2.156Z"/></svg>