<svg xmlns="http://www.w3.org/2000/svg" width="32" height="32" viewBox="0 0 32 32"><path d="M28.9 12.55a14.05 14.05 0 0 0-7.45-7.449 14.1 14.1 0 0 0-10.9 0A14.013 14.013 0 0 0 3.1 23.45a13.204 13.204 0 0 0 2.667 3.913A2.024 2.024 0 0 0 7.241 28h17.524a2.013 2.013 0 0 0 1.462-.631 13.162 13.162 0 0 0 2.672-3.92 14.044 14.044 0 0 0 0-10.899Zm-1.843 10.12A11.048 11.048 0 0 1 24.765 26H7.241l-.012-.003a11.088 11.088 0 0 1-2.287-3.327 12 12 0 1 1 22.115 0Z"/><path d="m18.13 15.674-7.618-4.533a1 1 0 0 0-1.376 1.363l4.485 7.679a3.656 3.656 0 0 0 2.38 1.76c.205.037.413.056.62.056a3.283 3.283 0 0 0 2.33-.949l.096-.095A3.321 3.321 0 0 0 19.943 18a3.763 3.763 0 0 0-1.812-2.326Zm-.495 3.865-.094.093a1.308 1.308 0 0 1-1.18.344 1.627 1.627 0 0 1-1.018-.808l-2.529-4.332 4.378 2.602c.37.195.651.526.784.923a1.308 1.308 0 0 1-.341 1.178Z"/></svg>