<svg xmlns="http://www.w3.org/2000/svg" width="32" height="32" viewBox="0 0 32 32"><path d="M24.355 18.646a.498.498 0 0 0-.82.16.5.5 0 0 0 .113.547l4.146 4.147h-2.885a8.07 8.07 0 0 1-7.16-4.32L16.237 16l1.5-3.163A8.08 8.08 0 0 1 24.91 8.5h2.885l-4.146 4.146a.5.5 0 1 0 .707.707l5-5a.5.5 0 0 0 0-.707l-5-5a.5.5 0 1 0-.707.707L27.794 7.5h-2.885a9.08 9.08 0 0 0-8.065 4.89l-1.16 2.445-.69-1.454a9.07 9.07 0 0 0-8.056-4.873h-3.89a.5.5 0 1 0 0 1h3.89a8.07 8.07 0 0 1 7.16 4.32l1.033 2.173-1.023 2.154a8.08 8.08 0 0 1-7.17 4.337h-3.89a.5.5 0 1 0 0 1h3.89a9.08 9.08 0 0 0 8.065-4.89l.681-1.436 1.17 2.462a9.07 9.07 0 0 0 8.055 4.872h2.885l-4.146 4.146a.5.5 0 1 0 .707.707l5-5a.5.5 0 0 0 0-.707z"/></svg>