<svg xmlns="http://www.w3.org/2000/svg" width="32" height="32" viewBox="0 0 32 32"><path d="M24 14a.75.75 0 1 0 0-1.5.75.75 0 0 0 0 1.5ZM21 6.5a.5.5 0 0 0 .5-.5A2.5 2.5 0 1 1 24 8.5a.5.5 0 0 0-.5.5v1a.5.5 0 1 0 1 0v-.535A3.5 3.5 0 1 0 20.5 6a.497.497 0 0 0 .5.5ZM23.861 19.876a3.082 3.082 0 0 0-4.26.003s-1.472 1.497-1.761 1.805a7.274 7.274 0 0 1-5.346-2.18 7.64 7.64 0 0 1-2.232-5.27c.362-.365 1.86-1.836 1.862-1.838a3.01 3.01 0 0 0 0-4.257L9.371 5.385a3.028 3.028 0 0 0-4.275 0L3.624 6.856c-1.883 1.884-2.243 8.557 5.36 16.16 4.912 4.914 9.438 6.5 12.533 6.5a5.167 5.167 0 0 0 3.626-1.141l1.471-1.472a3.022 3.022 0 0 0 0-4.274l-2.753-2.753Zm2.046 6.32-1.471 1.472c-1.382 1.379-7.586 1.8-14.746-5.36C2.531 15.15 2.95 8.945 4.331 7.563l1.472-1.471a2.028 2.028 0 0 1 2.861 0l2.753 2.754a2.01 2.01 0 0 1 .003 2.84s-1.503 1.476-1.866 1.84c-.58.58-.067 2.533-.006 2.754a9.024 9.024 0 0 0 2.24 3.932 9.046 9.046 0 0 0 3.932 2.24c.22.059 2.174.573 2.754-.007.363-.363 1.837-1.862 1.837-1.862a2.058 2.058 0 0 1 2.843 0l2.753 2.753a2.026 2.026 0 0 1 0 2.86Z"/></svg>