<svg xmlns="http://www.w3.org/2000/svg" width="32" height="32" viewBox="0 0 32 32"><path d="M20.779 7.5h6.442a2.283 2.283 0 1 0-1.884-1h-2.674a2.276 2.276 0 1 0-1.884 1Zm5.164-2.278a1.279 1.279 0 1 1 2.557-.001 1.279 1.279 0 0 1-2.557.001Zm-5.164-1.278a1.279 1.279 0 1 1 0 2.557 1.279 1.279 0 0 1 0-2.557ZM29 10.5H19a.5.5 0 0 0 0 1h10a.5.5 0 0 0 0-1ZM23.86 19.875a3.014 3.014 0 0 0-4.259.003s-1.473 1.498-1.762 1.807a7.283 7.283 0 0 1-5.345-2.18 7.644 7.644 0 0 1-2.233-5.272c.363-.363 1.86-1.835 1.863-1.838a3.008 3.008 0 0 0 0-4.257L9.37 5.385a3.027 3.027 0 0 0-4.275 0L3.624 6.857c-1.102 1.102-1.423 3.493-.818 6.09.54 2.315 2.049 5.941 6.178 10.069 4.914 4.914 9.438 6.5 12.533 6.5a5.165 5.165 0 0 0 3.625-1.14l1.472-1.472a3.022 3.022 0 0 0 0-4.276l-2.753-2.753Zm2.047 6.322-1.472 1.471c-1.379 1.38-7.585 1.801-14.744-5.36-3.962-3.96-5.402-7.4-5.911-9.588-.602-2.58-.157-4.448.551-5.156l1.472-1.472a2.024 2.024 0 0 1 2.86 0l2.753 2.753a2.01 2.01 0 0 1 .003 2.84s-1.5 1.476-1.865 1.84c-.579.58-.066 2.534-.007 2.755a9.042 9.042 0 0 0 2.24 3.932c2.303 2.304 5.993 2.93 6.686 2.234.363-.364 1.838-1.864 1.838-1.864a2.058 2.058 0 0 1 2.843 0l2.753 2.753a2.025 2.025 0 0 1 0 2.862Z"/></svg>