<svg xmlns="http://www.w3.org/2000/svg" width="32" height="32" viewBox="0 0 32 32"><path d="m29.927 6.38-.408-1.254a1.499 1.499 0 0 0-1.718-1.008l-.683.136-.423-.292-.055-.616a1.5 1.5 0 0 0-1.494-1.367h-1.32a1.5 1.5 0 0 0-1.49 1.323l-.081.691-.408.313-.604-.138a1.499 1.499 0 0 0-1.761.998l-.408 1.255a1.5 1.5 0 0 0 .798 1.826l.632.291.171.485-.317.53a1.5 1.5 0 0 0 .405 1.985l1.067.775a1.5 1.5 0 0 0 1.983-.195l.473-.51.513-.014.407.467a1.5 1.5 0 0 0 2.012.227l1.068-.775a1.5 1.5 0 0 0 .427-1.946l-.34-.607.146-.493.57-.243a1.5 1.5 0 0 0 .838-1.843Zm-2.645.984-.527 1.776.65 1.16-1.068.775-.87-.998-1.853.047-.902.976-1.067-.775.68-1.137-.618-1.747-1.207-.556.408-1.255 1.291.296 1.47-1.128.157-1.319h1.32l.117 1.32 1.527 1.05 1.303-.26.407 1.255-1.218.52Z"/><path d="M24.5 8.6a1.25 1.25 0 1 0 0-2.5 1.25 1.25 0 0 0 0 2.5ZM24.038 19.7a3.334 3.334 0 0 0-4.614.003s-1.262 1.282-1.736 1.76a7.294 7.294 0 0 1-7.152-7.152c.478-.474 1.76-1.734 1.765-1.739a3.26 3.26 0 0 0 0-4.61L9.548 5.208a3.278 3.278 0 0 0-4.629 0L3.447 6.68c-1.944 1.945-2.368 8.786 5.36 16.512 4.955 4.956 9.545 6.559 12.714 6.559a5.42 5.42 0 0 0 3.799-1.2l1.471-1.471a3.275 3.275 0 0 0 0-4.628L24.038 19.7Zm1.693 6.32-1.472 1.471c-1.33 1.327-7.358 1.676-14.392-5.36C2.834 15.1 3.18 9.07 4.507 7.742L5.98 6.268a1.778 1.778 0 0 1 2.507 0l2.753 2.753a1.76 1.76 0 0 1 .005 2.485S9.74 12.985 9.377 13.35c-.647.647-.218 2.457-.07 2.996a9.28 9.28 0 0 0 2.303 4.043 9.285 9.285 0 0 0 4.043 2.303c.54.149 2.35.58 2.998-.07.363-.363 1.837-1.862 1.837-1.862a1.802 1.802 0 0 1 2.49 0l2.753 2.753a1.774 1.774 0 0 1 0 2.506Z"/></svg>