<svg xmlns="http://www.w3.org/2000/svg" width="32" height="32" viewBox="0 0 32 32"><path d="M19.293 2.293a1 1 0 0 1 1.414 0L24 5.586l3.293-3.293a1 1 0 0 1 1.414 1.414L25.414 7l3.293 3.293a1 1 0 0 1-1.414 1.414L24 8.414l-3.293 3.293a1 1 0 0 1-1.414-1.414L22.586 7l-3.293-3.293a1 1 0 0 1 0-1.414M9.107 22.843c6.996 6.996 13.264 6.535 15.065 4.734l1.037-1.037a3.23 3.23 0 0 0 0-4.566l-2.524-2.524a3.214 3.214 0 0 0-4.54.012l-1.157 1.157A7 7 0 0 1 13.35 18.6a7 7 0 0 1-2.023-3.634l1.168-1.166a3.317 3.317 0 0 0-.086-4.626L9.976 6.74a3.23 3.23 0 0 0-4.566 0L4.373 7.778c-1.801 1.8-2.262 8.069 4.734 15.065M6.824 8.155a1.23 1.23 0 0 1 1.738 0l2.432 2.433a1.31 1.31 0 0 1 .087 1.797L9.7 13.764c-1.08 1.081.326 4.34 2.236 6.25 2.102 2.1 5.257 3.227 6.253 2.232l1.371-1.371a1.21 1.21 0 0 1 1.712-.012l2.524 2.524a1.23 1.23 0 0 1 0 1.738l-1.037 1.037c-1.068 1.067-6.275 1.227-12.237-4.735C4.56 15.468 4.72 10.26 5.787 9.192z"/></svg>