<svg xmlns="http://www.w3.org/2000/svg" width="32" height="32" viewBox="0 0 32 32"><path d="M2 9.305C2 6.758 6.106 2 16 2s14 4.758 14 7.305v1.467A3.23 3.23 0 0 1 26.771 14h-3.44a3.317 3.317 0 0 1-3.332-3.21L20 9.14A7 7 0 0 0 16 8a7 7 0 0 0-4 1.144v1.637A3.214 3.214 0 0 1 8.798 14h-3.57A3.23 3.23 0 0 1 2 10.771zm25.64 2.335c.23-.23.36-.543.36-.869V9.306C28 7.795 24.43 4 16 4S4 7.795 4 9.305v1.467A1.23 1.23 0 0 0 5.229 12h3.569A1.21 1.21 0 0 0 10 10.781V8.843C10 7.435 13.028 6 16 6c2.701 0 6 1.309 6 2.837v1.954A1.31 1.31 0 0 0 23.33 12h3.44c.326 0 .639-.13.869-.36M16 14a1 1 0 0 1 1 1v5.313l2.48 2.48a1 1 0 1 1-1.414 1.414l-2.773-2.773a1 1 0 0 1-.293-.707V15a1 1 0 0 1 1-1m-8.552 1.563a1 1 0 0 1 .587 1.287 8.5 8.5 0 0 0-.535 2.975 8.5 8.5 0 1 0 16.465-2.975 1 1 0 0 1 1.874-.7 10.5 10.5 0 0 1 .661 3.675c0 5.799-4.701 10.5-10.5 10.5s-10.5-4.701-10.5-10.5c0-1.291.233-2.53.661-3.675a1 1 0 0 1 1.287-.587"/></svg>