<svg xmlns="http://www.w3.org/2000/svg" width="32" height="32" viewBox="0 0 32 32"><path d="M12.708 8.707 15 6.414V12a1 1 0 0 0 2 0V6.414l2.293 2.293a1 1 0 0 0 1.414-1.414l-4-4a1 1 0 0 0-1.414 0l-4 4a1 1 0 0 0 1.413 1.414M16 17c-9.893 0-14 4.758-14 7.305v1.467A3.23 3.23 0 0 0 5.23 29h3.57A3.214 3.214 0 0 0 12 25.781v-1.636A7 7 0 0 1 16 23a7 7 0 0 1 4 1.14l-.002 1.65A3.316 3.316 0 0 0 23.332 29h3.44a3.23 3.23 0 0 0 3.23-3.229v-1.466C30 21.758 25.893 17 16 17m12 8.772A1.23 1.23 0 0 1 26.772 27h-3.44A1.31 1.31 0 0 1 22 25.791v-1.954C22 22.309 18.703 21 16 21c-2.971 0-6 1.435-6 2.843v1.938A1.21 1.21 0 0 1 8.799 27H5.23A1.23 1.23 0 0 1 4 25.771v-1.466C4 22.795 7.57 19 16 19s12 3.795 12 5.305z"/></svg>