<svg xmlns="http://www.w3.org/2000/svg" width="32" height="32" viewBox="0 0 32 32"><path d="M15.207 3.293a.998.998 0 0 1 .285.832.996.996 0 0 1 .008.125V12a1 1 0 1 1-2 0V6.414l-2.293 2.293a1 1 0 0 1-1.414-1.414l4-4a1 1 0 0 1 1.414 0ZM16.508 11.875a.995.995 0 0 1-.008-.125V4a1 1 0 1 1 2 0v5.586l2.293-2.293a1 1 0 1 1 1.414 1.414l-4 4a1 1 0 0 1-1.7-.832ZM16 17c-9.893 0-14 4.758-14 7.305v1.466A3.232 3.232 0 0 0 5.23 29h3.57A3.214 3.214 0 0 0 12 25.781v-1.636A6.994 6.994 0 0 1 16 23a7.017 7.017 0 0 1 4 1.14l-.002 1.65A3.316 3.316 0 0 0 23.332 29h3.44a3.232 3.232 0 0 0 3.23-3.229v-1.466C30 21.758 25.893 17 16 17Zm12 8.771A1.23 1.23 0 0 1 26.772 27h-3.44A1.309 1.309 0 0 1 22 25.791v-1.954C22 22.309 18.703 21 16 21c-2.971 0-6 1.435-6 2.843v1.938A1.212 1.212 0 0 1 8.799 27H5.23A1.23 1.23 0 0 1 4 25.771v-1.466C4 22.795 7.57 19 16 19c8.431 0 12 3.795 12 5.305v1.466Z"/></svg>