<svg xmlns="http://www.w3.org/2000/svg" width="32" height="32" viewBox="0 0 32 32"><path d="M19 2.5a.5.5 0 0 0 0 1h10a.5.5 0 0 0 0-1H19Zm2.73 16.495c.799 0 1.565.316 2.13.88l2.754 2.753a3.024 3.024 0 0 1 0 4.276l-1.472 1.471a5.165 5.165 0 0 1-3.625 1.142c-3.095 0-7.62-1.587-12.533-6.5-4.13-4.129-5.639-7.755-6.178-10.07-.605-2.597-.284-4.988.818-6.09l1.472-1.472a3.027 3.027 0 0 1 4.275 0l2.752 2.753a3.009 3.009 0 0 1 0 4.257l-.008.008c-.118.117-1.507 1.483-1.854 1.83a7.644 7.644 0 0 0 2.233 5.272 7.283 7.283 0 0 0 5.345 2.18c.29-.309 1.762-1.807 1.762-1.807a3.014 3.014 0 0 1 2.13-.883Zm2.705 8.674 1.472-1.472a2.025 2.025 0 0 0 0-2.862l-2.753-2.753a2.058 2.058 0 0 0-2.843 0s-1.475 1.5-1.838 1.864c-.693.696-4.383.07-6.686-2.234a9.042 9.042 0 0 1-2.24-3.932c-.06-.22-.572-2.175.007-2.754.364-.364 1.865-1.841 1.865-1.841a2.01 2.01 0 0 0-.003-2.84L8.665 6.092a2.024 2.024 0 0 0-2.86 0L4.33 7.564c-.708.708-1.153 2.577-.551 5.156.51 2.189 1.949 5.628 5.91 9.59 7.16 7.16 13.366 6.737 14.745 5.359Zm-5.806-16.334A.5.5 0 0 0 19 11.5h10A.5.5 0 1 0 29 10.5H19a.5.5 0 0 0-.371.835ZM18.5 7a.5.5 0 0 1 .5-.5h10a.5.5 0 0 1 0 1H19a.5.5 0 0 1-.5-.5Z"/></svg>