<svg xmlns="http://www.w3.org/2000/svg" width="32" height="31" viewBox="0 0 32 31"><path d="M16 2.5C6.106 2.5 2 7.02 2 9.44v1.393c0 .813.341 1.593.947 2.168a3.32 3.32 0 0 0 2.282.899h3.569a3.301 3.301 0 0 0 2.266-.9c.6-.573.937-1.35.936-2.158V9.287A7.268 7.268 0 0 1 16 8.2a7.291 7.291 0 0 1 4 1.083l-.001 1.568c.028.82.392 1.598 1.014 2.167.622.57 1.454.886 2.318.882h3.44a3.32 3.32 0 0 0 2.282-.9A2.995 2.995 0 0 0 30 10.834V9.439C30 7.02 25.894 2.5 16 2.5ZM7.448 15.385c.518.184.78.731.587 1.223a7.698 7.698 0 0 0-.535 2.826c0 4.46 3.806 8.075 8.5 8.075s8.5-3.616 8.5-8.075c0-.996-.19-1.948-.535-2.826-.193-.492.07-1.04.587-1.223.517-.184 1.093.066 1.287.558a9.515 9.515 0 0 1 .661 3.49c0 5.51-4.701 9.976-10.5 9.976S5.5 24.943 5.5 19.434c0-1.227.233-2.404.661-3.492.194-.491.77-.74 1.287-.557ZM17 14.85c0-.525-.448-.95-1-.95s-1 .425-1 .95v5.44c0 .253.105.495.293.673l2.773 2.634c.39.37 1.023.37 1.414 0a.917.917 0 0 0 0-1.344L17 19.897V14.85Z"/></svg>