<svg xmlns="http://www.w3.org/2000/svg" width="32" height="32" viewBox="0 0 32 32"><path d="M21.736 18.462a3.516 3.516 0 0 1 2.486 1.026l2.753 2.754a3.52 3.52 0 0 1 0 4.981l-1.472 1.472a5.665 5.665 0 0 1-3.971 1.258c-3.243 0-7.898-1.62-12.895-6.617C.784 15.482 1.272 8.476 3.279 6.468L4.75 4.998a3.608 3.608 0 0 1 4.982 0l2.753 2.752a3.51 3.51 0 0 1 0 4.964l-.069.067-1.633 1.61a7.335 7.335 0 0 0 2.072 4.727 7.352 7.352 0 0 0 4.726 2.071c.515-.519 1.671-1.695 1.671-1.695a3.516 3.516 0 0 1 2.484-1.032Zm2.353 8.819 1.472-1.472a1.523 1.523 0 0 0 0-2.153l-2.753-2.754a1.514 1.514 0 0 0-2.136 0s-1.474 1.5-1.838 1.863c-.698.697-2.329.384-3.239.135a9.543 9.543 0 0 1-4.154-2.368c-1.767-1.767-3.537-6.086-2.235-7.393.366-.365 1.87-1.845 1.87-1.845a1.51 1.51 0 0 0-.005-2.13L8.318 6.413a1.522 1.522 0 0 0-2.154 0L4.693 7.883c-1.278 1.278-1.55 7.131 5.358 14.038 6.906 6.907 12.76 6.635 14.038 5.36ZM21.25 12.466a1.25 1.25 0 1 0 0-2.5 1.25 1.25 0 0 0 0 2.5Zm-2.75-1.25a1.25 1.25 0 1 1-2.5 0 1.25 1.25 0 0 1 2.5 0Zm5.247-4.914a1 1 0 0 0-1.494 1.329l3.41 3.835-3.41 3.836a1 1 0 0 0 1.494 1.329l4-4.5a1 1 0 0 0 0-1.33l-4-4.5Z"/></svg>