<svg xmlns="http://www.w3.org/2000/svg" width="32" height="32" viewBox="0 0 32 32"><path d="M8.75 2a.75.75 0 1 0-1.5 0v1.613c-.39.09-.768.242-1.118.458L5.53 3.47a.75.75 0 0 0-1.06 1.06l6.99 6.991a.74.74 0 0 0 .331.2.75.75 0 0 0 .783-.238.75.75 0 0 0 .155-.66l-.984-4.382A3.745 3.745 0 0 0 8.75 3.576zm.657 3.443c.443.321.754.793.874 1.327l.42 1.87-3.457-3.457a2.25 2.25 0 0 1 2.163.26M5.106 6.758a.75.75 0 0 1 .636.848l-.377 2.644H9a.75.75 0 0 1 0 1.5h-.25v.355a.75.75 0 0 1-1.5 0v-.355H4.513a.8.8 0 0 1-.312-.062.75.75 0 0 1-.442-.807l.499-3.487a.75.75 0 0 1 .848-.636M19.362 3.54c.839-.884 2.01-1.29 3.159-1.29H24A2.75 2.75 0 0 1 26.75 5v4A2.75 2.75 0 0 1 24 11.75h-1.574a.89.89 0 0 0-.76.43 7.43 7.43 0 0 0 0 7.64c.16.267.449.43.76.43H24A2.75 2.75 0 0 1 26.75 23v4A2.75 2.75 0 0 1 24 29.75h-1.667c-1.007 0-2.073-.305-2.869-1.077-1.522-1.478-2.53-3.295-3.176-5.252a.75.75 0 0 1 1.424-.47c.587 1.779 1.483 3.37 2.797 4.645.447.434 1.1.654 1.824.654H24c.69 0 1.25-.56 1.25-1.25v-4c0-.69-.56-1.25-1.25-1.25h-1.574c-.838 0-1.614-.44-2.045-1.158a8.93 8.93 0 0 1 0-9.184 2.38 2.38 0 0 1 2.045-1.158H24c.69 0 1.25-.56 1.25-1.25V5c0-.69-.56-1.25-1.25-1.25h-1.48c-.81 0-1.56.286-2.07.823-2.362 2.487-3.295 5.115-3.588 8.492a.75.75 0 0 1-1.494-.13c.315-3.632 1.347-6.608 3.993-9.395M4 19.235a.75.75 0 1 0 0 1.5h8.69l-3.72 3.72a.75.75 0 0 0 1.06 1.06l5-5a.75.75 0 0 0 0-1.06l-5-5a.75.75 0 1 0-1.06 1.06l3.72 3.72z"/></svg>