<svg xmlns="http://www.w3.org/2000/svg" width="32" height="32" viewBox="0 0 32 32"><path d="M24.002 2a6 6 0 1 0 6 6 6.007 6.007 0 0 0-6-6Zm0 2a3.995 3.995 0 0 1 3.858 3h-7.716a3.995 3.995 0 0 1 3.858-3Zm0 8a3.996 3.996 0 0 1-3.858-3h7.716a3.995 3.995 0 0 1-3.858 3ZM24.213 19.515a3.514 3.514 0 0 0-4.972.006s-1.157 1.18-1.672 1.699a7.1 7.1 0 0 1-6.801-6.81c.52-.516 1.696-1.674 1.702-1.68a3.52 3.52 0 0 0 0-4.973L9.715 4.999a3.607 3.607 0 0 0-4.983 0L3.259 6.473C1.251 8.483.764 15.503 8.62 23.37c5 5.007 9.657 6.63 12.901 6.63 1.437.1 2.858-.35 3.974-1.26l1.472-1.475a3.531 3.531 0 0 0 0-4.99l-2.754-2.76Zm1.34 6.333-1.473 1.438c-1.279 1.277-7.135 1.55-14.045-5.37S3.395 9.17 4.674 7.89l1.472-1.443a1.521 1.521 0 0 1 2.155 0l2.754 2.726a1.514 1.514 0 0 1 .006 2.134S9.555 12.79 9.19 13.155c-1.303 1.31.468 5.636 2.235 7.406a9.545 9.545 0 0 0 4.157 2.373c.91.25 2.542.563 3.24-.135a626.08 626.08 0 0 0 1.84-1.867 1.513 1.513 0 0 1 2.136 0l2.755 2.76a1.526 1.526 0 0 1 0 2.156Z"/></svg>