<svg xmlns="http://www.w3.org/2000/svg" width="32" height="31" viewBox="0 0 32 31"><path d="M18.25 4.037c0-.393.336-.712.75-.712h6.364c.414 0 .75.319.75.712v6.046c0 .393-.336.712-.75.712s-.75-.319-.75-.712V5.757l-2.962 2.814a.778.778 0 0 1-1.061 0 .688.688 0 0 1 0-1.007l2.962-2.814H19c-.414 0-.75-.32-.75-.713ZM16 16.787c-9.716 0-13.75 4.366-13.75 6.703v1.393c.001.75.315 1.47.874 2 .558.53 1.315.829 2.105.83h3.57a3.044 3.044 0 0 0 2.09-.83 2.745 2.745 0 0 0 .862-1.99v-1.667A7.375 7.375 0 0 1 16 22.013a7.397 7.397 0 0 1 4.25 1.208l-.002 1.68c.027.757.364 1.475.94 2a3.151 3.151 0 0 0 2.142.811h3.44c.79 0 1.548-.299 2.106-.83.559-.53.873-1.249.873-2V23.49c0-2.337-4.033-6.701-13.75-6.701Zm12.25 8.096c0 .372-.156.73-.433.993a1.52 1.52 0 0 1-1.045.412h-3.44c-.4.005-.788-.137-1.082-.395a1.459 1.459 0 0 1-.5-.992v-1.856c0-1.172-3.01-2.458-5.75-2.458s-5.75 1.29-5.75 2.464v1.841c.002.368-.15.721-.422.983s-.642.41-1.03.413H5.23a1.52 1.52 0 0 1-1.045-.412 1.371 1.371 0 0 1-.434-.993v-1.394c0-1.553 3.525-5.277 12.25-5.277 8.726 0 12.25 3.724 12.25 5.277v1.394ZM15 14.65c.552 0 1-.425 1-.95 0-.525-.448-.95-1-.95s-1 .425-1 .95c0 .525.448.95 1 .95Zm4-3.8c0 .525-.448.95-1 .95s-1-.425-1-.95c0-.525.448-.95 1-.95s1 .425 1 .95Z"/></svg>