<svg xmlns="http://www.w3.org/2000/svg" width="32" height="32" viewBox="0 0 32 32"><path d="M20.354 2.646a.5.5 0 0 0-.708.708L23.293 7l-3.647 3.646a.5.5 0 0 0 .708.708L24 7.707l3.646 3.647a.5.5 0 0 0 .708-.708L24.707 7l3.647-3.646a.5.5 0 0 0-.708-.708L24 6.293zM23.812 27.188C22.134 28.866 16.2 29.2 9.454 22.454S3.042 9.774 4.72 8.097l1.037-1.038a2.73 2.73 0 0 1 3.859 0l2.433 2.433a2.81 2.81 0 0 1 .086 3.919l-1.321 1.32a7.02 7.02 0 0 0 2.176 4.188 7 7 0 0 0 4.192 2.171l1.31-1.31a2.713 2.713 0 0 1 3.833-.011l2.524 2.524a2.73 2.73 0 0 1 0 3.858zM7.686 7.261a1.73 1.73 0 0 0-1.222.505L5.427 8.804c-1.208 1.207-1.561 6.647 4.734 12.943 6.296 6.296 11.736 5.942 12.944 4.734l1.037-1.037a1.73 1.73 0 0 0 0-2.444l-2.524-2.524a1.713 1.713 0 0 0-2.419.011l-1.37 1.371c-.709.708-3.58-.266-5.546-2.232s-2.943-4.836-2.237-5.542l1.382-1.38a1.82 1.82 0 0 0-.087-2.505L8.91 7.766a1.73 1.73 0 0 0-1.223-.505"/></svg>