<svg xmlns="http://www.w3.org/2000/svg" width="32" height="32" viewBox="0 0 32 32"><path d="M18.5 3.828a.5.5 0 0 1 .5-.5h6.364a.5.5 0 0 1 .5.5v6.364a.5.5 0 1 1-1 0V5.036l-3.39 3.389a.5.5 0 1 1-.706-.707l3.389-3.39H19a.5.5 0 0 1-.5-.5m-3 9.922a.75.75 0 1 1-1.5 0 .75.75 0 0 1 1.5 0m2.25-2.25a.75.75 0 1 0 0-1.5.75.75 0 0 0 0 1.5M2.5 24.305C2.5 21.932 6.46 17.5 16 17.5s13.5 4.432 13.5 6.805v1.467a2.73 2.73 0 0 1-2.728 2.728h-3.44a2.81 2.81 0 0 1-2.832-2.71v-1.867A7.02 7.02 0 0 0 16 22.5a7 7 0 0 0-4.5 1.429v1.852A2.713 2.713 0 0 1 8.799 28.5H5.23A2.73 2.73 0 0 1 2.5 25.771zm25.494 2.688a1.73 1.73 0 0 0 .506-1.221v-1.467c0-1.708-3.596-5.805-12.5-5.805S3.5 22.597 3.5 24.305v1.467A1.73 1.73 0 0 0 5.23 27.5h3.57a1.713 1.713 0 0 0 1.702-1.719v-1.938c0-1.001 2.718-2.343 5.5-2.343 2.78 0 5.5 1.338 5.5 2.337l-.002 1.953a1.82 1.82 0 0 0 1.832 1.71h3.441a1.73 1.73 0 0 0 1.222-.507"/></svg>