<svg xmlns="http://www.w3.org/2000/svg" width="32" height="32" viewBox="0 0 32 32"><path d="M24.708 18.293a1 1 0 1 0-1.414 1.414L26.587 23h-1.678a7.56 7.56 0 0 1-6.71-4.033L16.791 16l1.39-2.93A7.58 7.58 0 0 1 24.91 9h1.678l-3.293 3.293a1 1 0 1 0 1.414 1.414l5-5a1 1 0 0 0 0-1.414l-5-5a1 1 0 0 0-1.414 1.414L26.587 7h-1.678a9.58 9.58 0 0 0-8.516 5.176l-.71 1.493-.246-.52a9.57 9.57 0 0 0-8.5-5.141H3.05a1 1 0 1 0 0 2h3.889a7.56 7.56 0 0 1 6.71 4.034l.93 1.958-.913 1.923a7.57 7.57 0 0 1-6.727 4.07h-3.89a1 1 0 0 0 0 2h3.89a9.58 9.58 0 0 0 8.516-5.177l.23-.485.726 1.53A9.57 9.57 0 0 0 24.91 25h1.677l-3.293 3.293a1 1 0 0 0 1.414 1.414l5-5a1 1 0 0 0 0-1.414z"/></svg>