<svg xmlns="http://www.w3.org/2000/svg" width="32" height="32" viewBox="0 0 32 32"><path d="M19 2a1 1 0 1 0 0 2h4.586l-3.293 3.293a1 1 0 0 0 1.414 1.414L25 5.414V10a1 1 0 1 0 2 0V3a1 1 0 0 0-1-1zm.5 9.25a1.25 1.25 0 1 1-2.5 0 1.25 1.25 0 0 1 2.5 0m-3 3a1.25 1.25 0 1 1-2.5 0 1.25 1.25 0 0 1 2.5 0M2 24.305C2 21.758 6.107 17 16 17s14 4.758 14 7.305v1.467A3.23 3.23 0 0 1 26.772 29h-3.44A3.317 3.317 0 0 1 20 25.79v-1.65A7 7 0 0 0 16 23a7 7 0 0 0-4 1.145v1.636A3.214 3.214 0 0 1 8.799 29H5.23A3.23 3.23 0 0 1 2 25.771z"/></svg>