<svg xmlns="http://www.w3.org/2000/svg" width="32" height="32" viewBox="0 0 32 32"><path d="M24.531 18.47a.75.75 0 0 0-1.06 1.06l3.72 3.72h-2.282a7.82 7.82 0 0 1-6.935-4.176L16.514 16l1.446-3.047a7.83 7.83 0 0 1 6.95-4.203h2.28l-3.72 3.72a.749.749 0 1 0 1.061 1.06l5-5a.75.75 0 0 0 0-1.06l-5-5a.75.75 0 1 0-1.06 1.06l3.72 3.72h-2.282a9.33 9.33 0 0 0-8.29 5.033l-.935 1.97-.47-.989a9.32 9.32 0 0 0-8.276-5.006h-3.89a.75.75 0 0 0 0 1.5h3.89a7.81 7.81 0 0 1 6.935 4.177L14.854 16l-.967 2.039a7.83 7.83 0 0 1-6.95 4.203H3.05a.75.75 0 1 0 0 1.5h3.889a9.33 9.33 0 0 0 8.29-5.033l.456-.96.948 1.995a9.32 9.32 0 0 0 8.277 5.006h2.282l-3.72 3.72a.748.748 0 0 0 .242 1.224.75.75 0 0 0 .818-.164l5-5a.75.75 0 0 0 0-1.06z"/></svg>