<svg xmlns="http://www.w3.org/2000/svg" width="32" height="32" viewBox="0 0 32 32"><path d="M2.5 9.805C2.5 7.432 6.46 3 16 3s13.5 4.432 13.5 6.805v1.467A2.73 2.73 0 0 1 26.771 14h-3.44a2.81 2.81 0 0 1-2.832-2.71l.001-1.867A7.02 7.02 0 0 0 16 8a7 7 0 0 0-4.5 1.429v1.852A2.713 2.713 0 0 1 8.798 14h-3.57A2.73 2.73 0 0 1 2.5 11.271zm25.493 2.688a1.73 1.73 0 0 0 .507-1.222V9.806C28.5 8.097 24.903 4 16 4S3.5 8.097 3.5 9.805v1.467A1.73 1.73 0 0 0 5.229 13h3.569a1.713 1.713 0 0 0 1.702-1.719V9.343C10.5 8.342 13.219 7 16 7s5.5 1.338 5.5 2.337v1.953A1.82 1.82 0 0 0 23.33 13h3.44a1.73 1.73 0 0 0 1.222-.507M16 14.5a.5.5 0 0 1 .5.5v5.52l2.626 2.626a.5.5 0 0 1-.707.708l-2.773-2.773a.5.5 0 0 1-.146-.354V15a.5.5 0 0 1 .5-.5m-8.727 1.532a.5.5 0 0 1 .293.643A9 9 0 0 0 7 19.825a9 9 0 1 0 18 0c0-1.11-.2-2.17-.567-3.15a.5.5 0 0 1 .937-.35c.408 1.09.63 2.27.63 3.5 0 5.523-4.477 10-10 10s-10-4.477-10-10c0-1.23.222-2.41.63-3.5a.5.5 0 0 1 .643-.293"/></svg>