<svg xmlns="http://www.w3.org/2000/svg" width="32" height="32" viewBox="0 0 32 32"><path d="M28.44 12.745a13.56 13.56 0 0 0-7.184-7.184 13.62 13.62 0 0 0-10.51 0A13.516 13.516 0 0 0 3.56 23.255a12.7 12.7 0 0 0 2.574 3.766 1.52 1.52 0 0 0 1.107.48h17.524a1.5 1.5 0 0 0 1.097-.474 12.7 12.7 0 0 0 2.576-3.772 13.55 13.55 0 0 0 .001-10.51m-.923 10.12a11.5 11.5 0 0 1-2.385 3.478.5.5 0 0 1-.367.157H7.241a.51.51 0 0 1-.377-.162 11.6 11.6 0 0 1-2.382-3.472 12.503 12.503 0 1 1 23.035-9.73 12.54 12.54 0 0 1 0 9.73M17.875 16.104l-7.62-4.533a.5.5 0 0 0-.687.681l4.483 7.676a3.1 3.1 0 0 0 2.04 1.524q.264.047.53.047a2.8 2.8 0 0 0 1.978-.804l.092-.091.002-.002a2.78 2.78 0 0 0-.818-4.498m.112 3.79-.093.092a1.79 1.79 0 0 1-1.623.481 2.12 2.12 0 0 1-1.36-1.047l-3.504-6 5.999 3.566a2.06 2.06 0 0 1 1.062 1.285 1.8 1.8 0 0 1-.48 1.623"/></svg>