<svg xmlns="http://www.w3.org/2000/svg" width="32" height="32" viewBox="0 0 32 32"><path d="M8.5 2a.5.5 0 0 0-1 0v1.818a3.5 3.5 0 0 0-1.402.573l-.744-.745a.5.5 0 1 0-.708.708l6.994 6.994.037.034a.495.495 0 0 0 .564.056.5.5 0 0 0 .245-.556L11.5 6.496A3.495 3.495 0 0 0 8.5 3.791zm2.634 7.427L6.822 5.114a2.495 2.495 0 0 1 3.703 1.601zM5.071 7.005a.5.5 0 0 1 .424.566L5.076 10.5H9a.5.5 0 0 1 0 1h-.5v.605a.5.5 0 0 1-1 0V11.5H4.509l-.045-.001a.5.5 0 0 1-.458-.578l.499-3.492a.5.5 0 0 1 .566-.424m14.472-3.293c.784-.826 1.885-1.212 2.978-1.212H24A2.5 2.5 0 0 1 26.5 5v4a2.5 2.5 0 0 1-2.5 2.5h-1.574c-.399 0-.768.21-.974.551a7.68 7.68 0 0 0 0 7.898c.205.342.575.551.974.551H24a2.5 2.5 0 0 1 2.5 2.5v4a2.5 2.5 0 0 1-2.5 2.5h-1.667c-.96 0-1.957-.291-2.695-1.007-1.487-1.444-2.477-3.223-3.113-5.15a.5.5 0 1 1 .95-.314c.597 1.809 1.511 3.438 2.86 4.747.505.49 1.227.724 1.998.724H24a1.5 1.5 0 0 0 1.5-1.5v-4a1.5 1.5 0 0 0-1.5-1.5h-1.574c-.75 0-1.445-.393-1.831-1.037a8.68 8.68 0 0 1 0-8.926 2.13 2.13 0 0 1 1.83-1.037H24A1.5 1.5 0 0 0 25.5 9V5A1.5 1.5 0 0 0 24 3.5h-1.48c-.866 0-1.687.306-2.252.9-2.409 2.538-3.358 5.224-3.655 8.643a.5.5 0 1 1-.996-.086c.311-3.59 1.327-6.508 3.926-9.245m-9.69 10.934a.5.5 0 0 0-.707.708l4.147 4.146H4a.5.5 0 0 0 0 1h9.293l-4.147 4.146a.5.5 0 0 0 .708.708l5-5a.5.5 0 0 0 0-.708z"/></svg>