<svg xmlns="http://www.w3.org/2000/svg" width="32" height="32" viewBox="0 0 32 32"><path d="M12.707 8.707 15 6.414V12a1 1 0 1 0 2 0V6.414l2.294 2.293a1 1 0 1 0 1.413-1.414l-4-4a1 1 0 0 0-1.414 0l-4 4a1 1 0 0 0 1.415 1.414ZM2.5 24.305C2.5 21.932 6.46 17.5 16 17.5s13.5 4.432 13.5 6.805v1.466a2.731 2.731 0 0 1-2.729 2.729h-3.44a2.81 2.81 0 0 1-2.832-2.71l.001-1.867A7.024 7.024 0 0 0 16 22.5a7.005 7.005 0 0 0-4.5 1.428v1.853A2.713 2.713 0 0 1 8.798 28.5h-3.57A2.731 2.731 0 0 1 2.5 25.771v-1.466Z"/></svg>