<svg xmlns="http://www.w3.org/2000/svg" width="32" height="31" viewBox="0 0 32 31"><path d="M18.5 3.637c0-.262.224-.475.5-.475h6.364c.276 0 .5.213.5.475v6.046a.488.488 0 0 1-.5.475.488.488 0 0 1-.5-.475v-4.9l-3.39 3.22a.519.519 0 0 1-.706 0 .458.458 0 0 1 0-.671l3.389-3.22H19a.488.488 0 0 1-.5-.475Zm-3 9.426c0 .393-.336.712-.75.712s-.75-.319-.75-.713c0-.393.336-.712.75-.712s.75.319.75.713Zm2.25-2.138c.414 0 .75-.319.75-.713 0-.393-.336-.712-.75-.712s-.75.319-.75.713c0 .393.336.712.75.712ZM2.5 23.09c0-2.255 3.96-6.465 13.5-6.465s13.5 4.21 13.5 6.464v1.394a2.53 2.53 0 0 1-.8 1.832 2.806 2.806 0 0 1-1.928.76h-3.44a2.892 2.892 0 0 1-1.967-.74A2.612 2.612 0 0 1 20.5 24.5v-1.773a7.278 7.278 0 0 0-4.5-1.352 7.257 7.257 0 0 0-4.5 1.357v1.76a2.513 2.513 0 0 1-.788 1.822 2.786 2.786 0 0 1-1.914.761H5.23a2.806 2.806 0 0 1-1.929-.76 2.53 2.53 0 0 1-.8-1.832V23.09Zm25.494 2.553c.324-.307.506-.725.506-1.16v-1.394c0-1.622-3.596-5.514-12.5-5.514-8.903 0-12.5 3.892-12.5 5.514v1.394c.001.435.183.853.507 1.16.324.308.764.482 1.222.482h3.57a1.759 1.759 0 0 0 1.206-.482c.319-.306.497-.72.495-1.15V22.65c0-.951 2.72-2.226 5.5-2.226 2.782 0 5.5 1.271 5.5 2.22V24.5c.028.443.234.858.575 1.16.34.302.79.468 1.256.465h3.441c.458 0 .898-.174 1.222-.482Z"/></svg>