<svg xmlns="http://www.w3.org/2000/svg" width="32" height="32" viewBox="0 0 32 32"><path d="M19 2a1 1 0 1 0 0 2h4.586l-3.293 3.293a1 1 0 0 0 1.414 1.414L25 5.414V10a1 1 0 1 0 2 0V3a1 1 0 0 0-1-1h-7Zm.5 9.25a1.25 1.25 0 1 1-2.5 0 1.25 1.25 0 0 1 2.5 0Zm-3 3a1.25 1.25 0 1 1-2.5 0 1.25 1.25 0 0 1 2.5 0ZM2 24.305C2 21.758 6.107 17 16 17c9.894 0 14 4.758 14 7.305v1.466A3.232 3.232 0 0 1 26.772 29h-3.44A3.317 3.317 0 0 1 20 25.79v-1.65A7.017 7.017 0 0 0 16 23a6.994 6.994 0 0 0-4 1.145v1.636A3.215 3.215 0 0 1 8.799 29H5.23A3.232 3.232 0 0 1 2 25.771v-1.466Zm25.64 2.335c.23-.23.36-.543.36-.869v-1.466C28 22.795 24.431 19 16 19c-8.43 0-12 3.795-12 5.305v1.466A1.23 1.23 0 0 0 5.23 27h3.57A1.212 1.212 0 0 0 10 25.781v-1.938C10 22.435 13.029 21 16 21c2.7 0 6 1.309 6 2.837l-.002 1.954A1.309 1.309 0 0 0 23.332 27h3.441c.326 0 .638-.13.868-.36Z"/></svg>