<svg xmlns="http://www.w3.org/2000/svg" width="32" height="32" viewBox="0 0 32 32"><path d="M10.782 20H9.144a7.004 7.004 0 0 1-1.143-4 7.02 7.02 0 0 1 1.138-4h1.652A3.317 3.317 0 0 0 14 8.668v-3.44A3.232 3.232 0 0 0 10.771 2H9.305C6.758 2 2 6.106 2 16s4.758 14 7.305 14h1.467a3.232 3.232 0 0 0 3.229-3.229v-3.569A3.215 3.215 0 0 0 10.78 20ZM12 26.771A1.23 1.23 0 0 1 10.771 28H9.305C7.795 28 4 24.43 4 16S7.795 4 9.305 4h1.467a1.23 1.23 0 0 1 1.229 1.229v3.439A1.309 1.309 0 0 1 10.79 10H8.836C7.31 10 6 13.299 6 16c0 2.972 1.435 6 2.842 6h1.94A1.212 1.212 0 0 1 12 23.202v3.57ZM26.78 20h-1.637a7.004 7.004 0 0 1-1.143-4 7.021 7.021 0 0 1 1.138-4h1.652A3.317 3.317 0 0 0 30 8.668v-3.44A3.232 3.232 0 0 0 26.771 2h-1.467C22.758 2 18 6.106 18 16s4.758 14 7.305 14h1.467a3.232 3.232 0 0 0 3.229-3.229v-3.569A3.215 3.215 0 0 0 26.78 20Zm1.22 6.771A1.23 1.23 0 0 1 26.771 28h-1.467C23.795 28 20 24.43 20 16s3.795-12 5.305-12h1.467a1.23 1.23 0 0 1 1.229 1.229v3.439A1.309 1.309 0 0 1 26.79 10h-1.954C23.31 10 22 13.299 22 16c0 2.972 1.435 6 2.842 6h1.94A1.212 1.212 0 0 1 28 23.202v3.57ZM14.206 12.293l3 3a1.001 1.001 0 0 1 0 1.414l-2.998 2.998a1.001 1.001 0 1 1-1.414-1.414L14.085 17H10.5a1 1 0 0 1 0-2h3.586l-1.293-1.293a1 1 0 0 1 1.414-1.414Z"/></svg>