<svg xmlns="http://www.w3.org/2000/svg" width="32" height="32" viewBox="0 0 32 32"><path d="M23.868 19.841a3.017 3.017 0 0 0-4.26.003s-1.472 1.498-1.761 1.807a7.27 7.27 0 0 1-5.346-2.18 7.653 7.653 0 0 1-2.233-5.272c.348-.349 1.747-1.724 1.856-1.832l.007-.006a3.008 3.008 0 0 0 0-4.257L9.378 5.351a3.094 3.094 0 0 0-4.274 0L3.632 6.823C1.749 8.706 1.388 15.379 8.99 22.982c4.913 4.913 9.439 6.5 12.535 6.5a5.165 5.165 0 0 0 3.625-1.14l1.471-1.472a3.022 3.022 0 0 0 0-4.275l-2.753-2.754Zm-2.618-7.375a1.25 1.25 0 1 0 0-2.5 1.25 1.25 0 0 0 0 2.5Zm-2.75-1.25a1.25 1.25 0 1 1-2.5 0 1.25 1.25 0 0 1 2.5 0Zm5.247-4.914a1 1 0 0 0-1.494 1.329l3.41 3.835-3.41 3.836a1 1 0 0 0 1.494 1.329l4-4.5a1 1 0 0 0 0-1.33l-4-4.5Z"/></svg>