<svg xmlns="http://www.w3.org/2000/svg" width="32" height="32" viewBox="0 0 32 32"><path d="M24.001 4.246h-7a3.754 3.754 0 0 0-3.75 3.75V11a.75.75 0 1 0 1.5 0V7.996A2.253 2.253 0 0 1 17 5.746h7a2.253 2.253 0 0 1 2.25 2.25V23a3.254 3.254 0 0 1-3.25 3.25h-14A3.254 3.254 0 0 1 5.75 23a.75.75 0 1 0-1.5 0A4.756 4.756 0 0 0 9 27.75h14a4.755 4.755 0 0 0 4.75-4.75V7.996a3.755 3.755 0 0 0-3.75-3.75M13.433 23.538a7.7 7.7 0 0 0 1.746.212 3.72 3.72 0 0 0 2.643-.862l.966-.965a2.41 2.41 0 0 0 0-3.4l-1.806-1.806a2.4 2.4 0 0 0-3.393.004l-.973.988a8.5 8.5 0 0 1-2.508-1.817 8.4 8.4 0 0 1-1.816-2.508l.991-.977a2.395 2.395 0 0 0 0-3.389L7.478 7.213a2.464 2.464 0 0 0-3.401 0l-.966.964c-1.338 1.34-1.682 6 3.516 11.197a14.47 14.47 0 0 0 6.806 4.164m-9.261-14.3.965-.965a.906.906 0 0 1 1.28 0l1.806 1.806a.895.895 0 0 1 .004 1.262s-.987.971-1.226 1.211c-1.145 1.145 2.014 4.369 2.046 4.4.033.033 3.258 3.186 4.401 2.048.24-.24 1.204-1.221 1.205-1.223a.9.9 0 0 1 1.268 0l1.806 1.806a.907.907 0 0 1 0 1.28l-.965.965c-.792.789-4.654.907-9.075-3.515-4.422-4.422-4.306-8.284-3.515-9.075"/></svg>