<svg xmlns="http://www.w3.org/2000/svg" width="32" height="32" viewBox="0 0 32 32"><path d="M24 2a6 6 0 1 0 6 6 6.007 6.007 0 0 0-6-6m0 2a3.996 3.996 0 0 1 3.858 3h-7.716A3.996 3.996 0 0 1 24 4m0 8a3.996 3.996 0 0 1-3.858-3h7.716A3.995 3.995 0 0 1 24 12M24.172 27.577c-1.8 1.8-8.069 2.261-15.065-4.734C2.112 15.847 2.572 9.579 4.373 7.778L5.41 6.741a3.23 3.23 0 0 1 4.566 0l2.433 2.433a3.317 3.317 0 0 1 .086 4.626l-1.168 1.166A7 7 0 0 0 13.35 18.6a7 7 0 0 0 3.638 2.02l1.157-1.158a3.214 3.214 0 0 1 4.54-.012l2.524 2.524a3.23 3.23 0 0 1 0 4.566z"/></svg>