<svg xmlns="http://www.w3.org/2000/svg" width="32" height="32" viewBox="0 0 32 32"><path d="M19.543 3.712c.784-.826 1.885-1.212 2.978-1.212H24A2.5 2.5 0 0 1 26.5 5v4a2.5 2.5 0 0 1-2.5 2.5h-1.574c-.399 0-.768.21-.974.551a7.68 7.68 0 0 0 0 7.898c.206.342.575.551.974.551H24a2.5 2.5 0 0 1 2.5 2.5v4a2.5 2.5 0 0 1-2.5 2.5h-1.667c-.96 0-1.957-.291-2.695-1.007-2.052-1.992-3.154-4.619-3.693-7.398a.5.5 0 1 1 .982-.19c.514 2.651 1.548 5.066 3.408 6.87.505.49 1.227.725 1.998.725H24a1.5 1.5 0 0 0 1.5-1.5v-4a1.5 1.5 0 0 0-1.5-1.5h-1.574c-.75 0-1.445-.393-1.831-1.037a8.68 8.68 0 0 1 0-8.926 2.13 2.13 0 0 1 1.83-1.037H24A1.5 1.5 0 0 0 25.5 9V5A1.5 1.5 0 0 0 24 3.5h-1.48c-.866 0-1.687.306-2.252.9-1.937 2.041-2.926 4.173-3.395 6.692a.5.5 0 0 1-.983-.184c.502-2.693 1.572-5.005 3.653-7.196M9.146 10.646a.5.5 0 0 1 .708 0l5 5a.5.5 0 0 1 0 .708l-5 5a.5.5 0 0 1-.708-.708l4.147-4.146H4a.5.5 0 0 1 0-1h9.293l-4.147-4.146a.5.5 0 0 1 0-.708"/></svg>