<svg xmlns="http://www.w3.org/2000/svg" width="32" height="32" viewBox="0 0 32 32"><path d="M19 2a1 1 0 1 0 0 2h4.586l-3.293 3.293a1 1 0 0 0 1.414 1.414L25 5.414V10a1 1 0 1 0 2 0V3a1 1 0 0 0-1-1h-7Zm.5 9.25a1.25 1.25 0 1 1-2.5 0 1.25 1.25 0 0 1 2.5 0Zm-3 3a1.25 1.25 0 1 1-2.5 0 1.25 1.25 0 0 1 2.5 0ZM2 24.305C2 21.758 6.107 17 16 17c9.894 0 14 4.758 14 7.305v1.466A3.232 3.232 0 0 1 26.772 29h-3.44A3.317 3.317 0 0 1 20 25.79v-1.65A7.017 7.017 0 0 0 16 23a6.994 6.994 0 0 0-4 1.145v1.636A3.214 3.214 0 0 1 8.799 29H5.23A3.232 3.232 0 0 1 2 25.771v-1.466Z"/></svg>