<svg xmlns="http://www.w3.org/2000/svg" width="32" height="32" viewBox="0 0 32 32"><path d="M16 17.5c-9.54 0-13.5 4.432-13.5 6.805v1.467A2.731 2.731 0 0 0 5.23 28.5h3.57a2.713 2.713 0 0 0 2.701-2.718v-1.854A7.006 7.006 0 0 1 16 22.5a7.024 7.024 0 0 1 4.5 1.423v1.867a2.81 2.81 0 0 0 2.831 2.71h3.44a2.731 2.731 0 0 0 2.73-2.728v-1.467c0-2.373-3.96-6.805-13.5-6.805ZM9.8 12.534a1 1 0 0 0 1.932-.518l-.646-2.412 6.19 3.537a1 1 0 0 0 1.365-.372l4.728-8.273a1 1 0 0 0-1.737-.992l-4.231 7.405-5.294-3.026 2.376-.636a1 1 0 1 0-.518-1.931L9.242 6.579a1 1 0 0 0-.707 1.225l1.265 4.73Z"/></svg>