<svg xmlns="http://www.w3.org/2000/svg" width="32" height="32" viewBox="0 0 32 32"><path d="M24 2.25A5.75 5.75 0 1 0 29.75 8 5.756 5.756 0 0 0 24 2.25Zm0 1.5a4.25 4.25 0 0 1 4.174 3.5h-8.348A4.25 4.25 0 0 1 24 3.75Zm0 8.5a4.249 4.249 0 0 1-4.174-3.5h8.348A4.249 4.249 0 0 1 24 12.25ZM24.038 19.7a3.334 3.334 0 0 0-4.614.003s-1.262 1.282-1.736 1.76a7.294 7.294 0 0 1-7.152-7.152c.478-.474 1.76-1.734 1.765-1.739a3.265 3.265 0 0 0 0-4.61L9.547 5.208a3.277 3.277 0 0 0-4.628 0L3.447 6.68c-1.944 1.945-2.368 8.786 5.36 16.512 4.955 4.956 9.545 6.559 12.714 6.559a5.42 5.42 0 0 0 3.799-1.2l1.471-1.471a3.276 3.276 0 0 0 0-4.628L24.038 19.7Zm1.693 6.32-1.472 1.471c-1.331 1.327-7.358 1.676-14.392-5.36C2.834 15.1 3.18 9.07 4.508 7.742L5.98 6.268a1.777 1.777 0 0 1 2.506 0l2.754 2.753a1.762 1.762 0 0 1 .005 2.485S9.74 12.985 9.377 13.35c-.647.647-.218 2.457-.07 2.996a9.28 9.28 0 0 0 2.303 4.043 9.285 9.285 0 0 0 4.043 2.303c.54.149 2.35.58 2.998-.07.363-.363 1.837-1.862 1.837-1.862a1.802 1.802 0 0 1 2.49 0l2.753 2.753a1.774 1.774 0 0 1 0 2.506Z"/></svg>