<svg xmlns="http://www.w3.org/2000/svg" width="32" height="32" viewBox="0 0 32 32"><path d="M27.5 2.25a2.251 2.251 0 0 0-2.25 2.25v6a2.25 2.25 0 0 0 4.5 0v-6a2.253 2.253 0 0 0-2.25-2.25Zm.75 8.25a.752.752 0 0 1-1.28.53.75.75 0 0 1-.22-.53v-6a.75.75 0 1 1 1.5 0v6ZM20.501 12.75a2.253 2.253 0 0 0 2.25-2.25v-6a2.25 2.25 0 1 0-4.5 0v6a2.253 2.253 0 0 0 2.25 2.25Zm-.75-8.25a.75.75 0 1 1 1.5 0v6a.751.751 0 0 1-1.28.53.75.75 0 0 1-.22-.53v-6ZM24.038 19.699a3.331 3.331 0 0 0-4.616.004s-1.26 1.282-1.734 1.76a7.291 7.291 0 0 1-7.151-7.151c.477-.475 1.76-1.736 1.763-1.74a3.26 3.26 0 0 0 0-4.61L9.547 5.207a3.275 3.275 0 0 0-4.628 0L3.448 6.68c-1.18 1.18-1.52 3.604-.885 6.324.546 2.347 2.073 6.019 6.244 10.189 4.17 4.17 7.842 5.697 10.188 6.244.848.202 1.715.308 2.586.314a5.263 5.263 0 0 0 3.738-1.2l1.472-1.471a3.27 3.27 0 0 0 0-4.628l-2.753-2.753Zm1.692 6.32-1.472 1.472c-.637.637-2.45 1.06-4.922.485-2.156-.503-5.548-1.924-9.468-5.844-3.92-3.92-5.342-7.312-5.845-9.469-.576-2.472-.152-4.285.485-4.922L5.98 6.269a1.774 1.774 0 0 1 2.507 0l2.753 2.753a1.76 1.76 0 0 1 .004 2.485s-1.502 1.478-1.866 1.841a1.575 1.575 0 0 0-.35 1.166 9.075 9.075 0 0 0 2.582 5.875c2.3 2.299 6.178 3.095 7.04 2.233.363-.363 1.838-1.863 1.838-1.863a1.804 1.804 0 0 1 2.489 0l2.753 2.753a1.772 1.772 0 0 1 0 2.507Z"/></svg>