<svg xmlns="http://www.w3.org/2000/svg" width="32" height="32" viewBox="0 0 32 32"><path d="M27.5 2.5a2.001 2.001 0 0 0-2 2v6a2 2 0 1 0 4 0v-6a2.002 2.002 0 0 0-2-2Zm1 8a1 1 0 0 1-2 0v-6a1 1 0 1 1 2 0v6ZM20.501 12.5a2.003 2.003 0 0 0 2-2v-6a2 2 0 1 0-4 0v6a2.003 2.003 0 0 0 2 2Zm-1-8a1 1 0 0 1 2 0v6a1 1 0 0 1-2 0v-6ZM23.86 19.875a3.082 3.082 0 0 0-4.259.003s-1.473 1.498-1.762 1.807a7.27 7.27 0 0 1-5.345-2.18 7.644 7.644 0 0 1-2.233-5.272c.363-.363 1.86-1.835 1.863-1.838a3.008 3.008 0 0 0 0-4.257L9.37 5.385a3.094 3.094 0 0 0-4.275 0L3.624 6.857c-1.102 1.102-1.423 3.493-.818 6.09.54 2.315 2.049 5.941 6.178 10.069 4.128 4.128 7.754 5.638 10.068 6.177.82.195 1.66.296 2.503.301a5.104 5.104 0 0 0 3.587-1.12l1.472-1.471a3.02 3.02 0 0 0 0-4.275l-2.753-2.753Zm2.047 6.32-1.472 1.472c-.707.71-2.576 1.156-5.156.552-2.188-.51-5.627-1.95-9.588-5.91-3.962-3.96-5.402-7.4-5.911-9.589-.602-2.579-.157-4.448.551-5.156l1.472-1.472a2.024 2.024 0 0 1 2.86 0l2.753 2.753a2.01 2.01 0 0 1 .003 2.84s-1.5 1.476-1.865 1.84a1.363 1.363 0 0 0-.275.99 8.8 8.8 0 0 0 2.508 5.697c2.303 2.302 5.992 2.928 6.686 2.234.363-.364 1.838-1.864 1.838-1.864a2.058 2.058 0 0 1 2.843 0l2.753 2.753a2.021 2.021 0 0 1 0 2.86Z"/></svg>