<svg xmlns="http://www.w3.org/2000/svg" width="32" height="32" viewBox="0 0 32 32"><path d="M21.738 18.996c.798 0 1.564.316 2.13.88l2.753 2.753a3.02 3.02 0 0 1 0 4.274l-1.471 1.472a5.165 5.165 0 0 1-3.625 1.142c-3.096 0-7.621-1.588-12.535-6.501-7.602-7.603-7.24-14.277-5.358-16.16l1.472-1.471a3.094 3.094 0 0 1 4.274 0l2.753 2.753a3.009 3.009 0 0 1 0 4.257l-.007.006c-.109.108-1.508 1.483-1.856 1.832a7.653 7.653 0 0 0 2.233 5.272 7.272 7.272 0 0 0 5.346 2.18c.289-.309 1.761-1.807 1.761-1.807a3.017 3.017 0 0 1 2.13-.882Zm2.704 8.672 1.472-1.472a2.021 2.021 0 0 0 0-2.86l-2.753-2.754a2.014 2.014 0 0 0-2.843 0s-1.474 1.5-1.837 1.863c-.58.58-2.533.067-2.754.006a9.031 9.031 0 0 1-3.933-2.239c-2.302-2.302-2.929-5.99-2.234-6.687.365-.364 1.867-1.84 1.867-1.84a2.01 2.01 0 0 0-.003-2.84L8.671 6.092a2.021 2.021 0 0 0-2.86 0L4.339 7.564c-1.38 1.38-1.8 7.585 5.358 14.745 7.16 7.159 13.366 6.739 14.745 5.36ZM20.75 12a.75.75 0 1 0 0-1.5.75.75 0 0 0 0 1.5Zm-3.25-.75a.75.75 0 1 1-1.5 0 .75.75 0 0 1 1.5 0Zm6.374-5.082a.5.5 0 0 0-.748.664L26.831 11l-3.705 4.168a.5.5 0 1 0 .748.664l4-4.5a.5.5 0 0 0 0-.664l-4-4.5Z"/></svg>