<svg xmlns="http://www.w3.org/2000/svg" width="32" height="32" viewBox="0 0 32 32"><path d="M20.779 7.5h6.442a2.283 2.283 0 1 0-1.884-1h-2.674a2.277 2.277 0 1 0-1.884 1m5.164-2.278a1.279 1.279 0 1 1 2.557-.001 1.279 1.279 0 0 1-2.557.001m-5.164-1.278a1.278 1.278 0 1 1 0 2.556 1.278 1.278 0 0 1 0-2.556M29 10.5H19a.5.5 0 0 0 0 1h10a.5.5 0 0 0 0-1M9.454 22.454c6.746 6.746 12.68 6.412 14.358 4.734l1.037-1.037a2.73 2.73 0 0 0 0-3.858l-2.524-2.524a2.714 2.714 0 0 0-3.833.011l-1.31 1.31a7 7 0 0 1-4.192-2.171 7.03 7.03 0 0 1-2.176-4.189l1.32-1.32a2.81 2.81 0 0 0-.086-3.918L9.616 7.06a2.73 2.73 0 0 0-3.86 0L4.72 8.097c-1.678 1.678-2.012 7.611 4.734 14.357M6.464 7.766a1.73 1.73 0 0 1 2.444 0l2.433 2.433a1.82 1.82 0 0 1 .087 2.505l-1.382 1.38c-.707.707.27 3.575 2.236 5.542s4.838 2.94 5.546 2.232l1.37-1.37a1.713 1.713 0 0 1 2.42-.012L24.142 23a1.73 1.73 0 0 1 0 2.444l-1.037 1.037c-1.208 1.208-6.648 1.562-12.944-4.734S4.22 10.011 5.427 8.804z"/></svg>