<svg xmlns="http://www.w3.org/2000/svg" width="32" height="32" viewBox="0 0 32 32"><path d="M28.669 12.648a13.795 13.795 0 0 0-7.317-7.317 13.836 13.836 0 0 0-10.704 0 13.762 13.762 0 0 0-7.317 18.021 12.933 12.933 0 0 0 2.62 3.84 1.767 1.767 0 0 0 1.29.558h17.524a1.759 1.759 0 0 0 1.28-.552 12.924 12.924 0 0 0 2.624-3.846 13.789 13.789 0 0 0 0-10.704Zm-1.381 10.12a11.312 11.312 0 0 1-2.338 3.404.257.257 0 0 1-.185.078H7.241a.27.27 0 0 1-.194-.082 11.343 11.343 0 0 1-2.335-3.4 12.25 12.25 0 1 1 22.576 0Z"/><path d="m18.003 15.89-7.62-4.534a.75.75 0 0 0-1.03 1.022l4.483 7.677a3.333 3.333 0 0 0 2.21 1.642c.19.035.383.052.576.052a3.04 3.04 0 0 0 2.153-.877l.092-.09.003-.003a3.071 3.071 0 0 0 .827-2.734 3.04 3.04 0 0 0-1.694-2.156Zm-.193 3.827-.092.092a1.566 1.566 0 0 1-1.402.413 1.875 1.875 0 0 1-1.188-.928l-3.017-5.167 5.188 3.085a1.764 1.764 0 0 1 .923 1.104 1.556 1.556 0 0 1-.412 1.401Z"/></svg>