<svg xmlns="http://www.w3.org/2000/svg" width="32" height="32" viewBox="0 0 32 32"><path d="M19.362 3.54c.839-.884 2.01-1.29 3.159-1.29H24A2.75 2.75 0 0 1 26.75 5v4A2.75 2.75 0 0 1 24 11.75h-1.574a.89.89 0 0 0-.76.43 7.43 7.43 0 0 0 0 7.64c.16.267.449.43.76.43H24A2.75 2.75 0 0 1 26.75 23v4A2.75 2.75 0 0 1 24 29.75h-1.667c-1.007 0-2.074-.305-2.869-1.077-2.1-2.04-3.22-4.72-3.764-7.53a.75.75 0 1 1 1.472-.286c.508 2.62 1.526 4.981 3.337 6.74.447.433 1.1.653 1.824.653H24c.69 0 1.25-.56 1.25-1.25v-4c0-.69-.56-1.25-1.25-1.25h-1.574c-.838 0-1.614-.44-2.045-1.158a8.93 8.93 0 0 1 0-9.184 2.38 2.38 0 0 1 2.045-1.158H24c.69 0 1.25-.56 1.25-1.25V5c0-.69-.56-1.25-1.25-1.25h-1.48c-.81 0-1.56.286-2.07.823-1.902 2.003-2.87 4.09-3.331 6.564a.75.75 0 1 1-1.475-.274c.51-2.737 1.601-5.094 3.717-7.323M3.25 16a.75.75 0 0 1 .75-.75h8.69l-3.72-3.72a.75.75 0 1 1 1.06-1.06l5 5a.75.75 0 0 1 0 1.06l-5 5a.75.75 0 1 1-1.06-1.06l3.72-3.72H4a.75.75 0 0 1-.75-.75"/></svg>