<svg xmlns="http://www.w3.org/2000/svg" width="32" height="32" viewBox="0 0 32 32"><path d="M23.001 27.5h-14A4.505 4.505 0 0 1 4.5 23a.5.5 0 0 1 1 0A3.504 3.504 0 0 0 9 26.5h14a3.504 3.504 0 0 0 3.5-3.5V7.996a2.503 2.503 0 0 0-2.5-2.5H17a2.503 2.503 0 0 0-2.5 2.5V11a.5.5 0 0 1-1 0V7.996a3.504 3.504 0 0 1 3.5-3.5h7.001a3.505 3.505 0 0 1 3.5 3.5V23a4.505 4.505 0 0 1-4.5 4.5M15.148 23.5c-2.08 0-5.093-1.051-8.345-4.303-5.072-5.072-4.792-9.564-3.515-10.843l.965-.965a2.16 2.16 0 0 1 3.048 0l1.806 1.806a2.145 2.145 0 0 1 0 3.035c-.003.003-.754.741-1.101 1.085A8 8 0 0 0 9.93 16.07a8.1 8.1 0 0 0 2.754 1.926l1.082-1.099a2.15 2.15 0 0 1 3.038-.003l1.806 1.806a2.16 2.16 0 0 1 0 3.048l-.966.965a3.56 3.56 0 0 1-2.497.789M5.778 7.759a1.15 1.15 0 0 0-.817.338l-.966.965c-.87.87-1.094 4.82 3.515 9.429 4.61 4.608 8.558 4.383 9.429 3.515l.965-.965a1.157 1.157 0 0 0 0-1.634L16.098 17.6a1.147 1.147 0 0 0-1.621 0c-.002.002-.967.984-1.205 1.223-.755.75-3.053-1.052-4.048-2.047-.994-.994-2.802-3.292-2.047-4.047.24-.24 1.225-1.209 1.225-1.209A1.146 1.146 0 0 0 8.4 9.902L6.594 8.096a1.15 1.15 0 0 0-.817-.338"/></svg>