<svg xmlns="http://www.w3.org/2000/svg" width="32" height="32" viewBox="0 0 32 32"><path d="M19 2.7c-.552 0-1 .425-1 .95 0 .525.448.95 1 .95h4.586l-3.293 3.128a.917.917 0 0 0 0 1.344c.39.37 1.024.37 1.414 0L25 5.944V10.3c0 .525.448.95 1 .95s1-.425 1-.95V3.65c0-.525-.448-.95-1-.95h-7Zm.5 8.788c0 .655-.56 1.187-1.25 1.187S17 12.143 17 11.487c0-.655.56-1.187 1.25-1.187s1.25.532 1.25 1.188Zm-3 2.85c0 .655-.56 1.187-1.25 1.187S14 14.993 14 14.337c0-.655.56-1.187 1.25-1.187s1.25.532 1.25 1.188ZM2 23.89c0-2.42 4.107-6.94 14-6.94 9.894 0 14 4.52 14 6.94v1.393c0 .813-.341 1.593-.946 2.168a3.32 3.32 0 0 1-2.282.899h-3.44a3.411 3.411 0 0 1-2.319-.882A3.08 3.08 0 0 1 20 25.3l.002-1.567a7.29 7.29 0 0 0-4-1.083 7.267 7.267 0 0 0-4 1.087v1.555a2.978 2.978 0 0 1-.936 2.158c-.6.573-1.416.897-2.267.9H5.23a3.32 3.32 0 0 1-2.282-.9A2.995 2.995 0 0 1 2 25.284V23.89Zm25.64 2.218c.23-.219.36-.516.36-.825v-1.394c0-1.434-3.569-5.039-12-5.039-8.43 0-12 3.605-12 5.04v1.393c0 .31.13.606.36.825.23.219.543.342.869.342h3.57c.32-.002.627-.126.852-.343.226-.217.351-.51.35-.815v-1.841c0-1.338 3.028-2.701 6-2.701 2.7 0 6 1.243 6 2.695l-.002 1.857c.026.316.178.612.426.826.248.213.572.329.906.322h3.441c.326 0 .638-.123.868-.342Z"/></svg>