<svg xmlns="http://www.w3.org/2000/svg" width="32" height="32" viewBox="0 0 32 32"><path d="M10.283 12.403a.502.502 0 0 0 .916.122.5.5 0 0 0 .05-.38l-.955-3.57 7.23 4.132a.5.5 0 0 0 .683-.187l4.728-8.272a.501.501 0 1 0-.87-.496l-4.479 7.838-6.782-3.876 3.549-.95a.5.5 0 1 0-.258-.966L9.372 7.062a.5.5 0 0 0-.355.613zM16 17.5c-9.54 0-13.5 4.432-13.5 6.805v1.467A2.73 2.73 0 0 0 5.23 28.5h3.57a2.713 2.713 0 0 0 2.702-2.719V23.93A7 7 0 0 1 16 22.5a7.02 7.02 0 0 1 4.5 1.423v1.867a2.81 2.81 0 0 0 2.831 2.71h3.44a2.73 2.73 0 0 0 2.729-2.729v-1.466c0-2.373-3.96-6.805-13.5-6.805m12.5 8.272a1.73 1.73 0 0 1-1.728 1.728h-3.44a1.82 1.82 0 0 1-1.832-1.71v-1.953c0-1-2.718-2.337-5.5-2.337-2.78 0-5.5 1.342-5.5 2.343v1.938A1.713 1.713 0 0 1 8.799 27.5H5.23A1.73 1.73 0 0 1 3.5 25.771v-1.466C3.5 22.597 7.097 18.5 16 18.5s12.5 4.097 12.5 5.805z"/></svg>