<svg xmlns="http://www.w3.org/2000/svg" width="32" height="32" viewBox="0 0 32 32"><path d="M28.669 12.648a13.8 13.8 0 0 0-7.317-7.317 13.84 13.84 0 0 0-10.704 0 13.76 13.76 0 0 0-7.317 18.021 12.9 12.9 0 0 0 2.62 3.84 1.77 1.77 0 0 0 1.29.558h17.524a1.76 1.76 0 0 0 1.28-.552 12.9 12.9 0 0 0 2.624-3.846 13.8 13.8 0 0 0 0-10.704m-1.381 10.12a11.3 11.3 0 0 1-2.338 3.404.26.26 0 0 1-.185.078H7.241a.27.27 0 0 1-.194-.082 11.3 11.3 0 0 1-2.335-3.4 12.25 12.25 0 1 1 22.576 0M18.003 15.89l-7.62-4.534a.75.75 0 0 0-1.03 1.022l4.483 7.677a3.33 3.33 0 0 0 2.21 1.642q.286.052.576.052a3.04 3.04 0 0 0 2.153-.877l.092-.09.003-.003a3.07 3.07 0 0 0 .827-2.734 3.04 3.04 0 0 0-1.694-2.156m-.193 3.827-.092.092a1.57 1.57 0 0 1-1.402.413 1.88 1.88 0 0 1-1.188-.928l-3.017-5.167 5.188 3.085a1.76 1.76 0 0 1 .923 1.104 1.56 1.56 0 0 1-.412 1.401"/></svg>