<svg xmlns="http://www.w3.org/2000/svg" width="32" height="32" viewBox="0 0 32 32"><path d="M9.8 12.533a1 1 0 0 0 1.932-.517l-.646-2.412 6.19 3.537a1 1 0 0 0 1.365-.373l4.728-8.272a1 1 0 0 0-1.737-.992l-4.231 7.404-5.295-3.025 2.377-.636a1 1 0 1 0-.518-1.932L9.242 6.58a1 1 0 0 0-.707 1.225L9.8 12.533ZM16 17c-9.893 0-14 4.758-14 7.305v1.466A3.232 3.232 0 0 0 5.23 29h3.57A3.214 3.214 0 0 0 12 25.781v-1.636A6.994 6.994 0 0 1 16 23a7.014 7.014 0 0 1 4 1.14v1.65A3.316 3.316 0 0 0 23.331 29h3.44A3.232 3.232 0 0 0 30 25.771v-1.466C30 21.758 25.893 17 16 17Zm12 8.771A1.23 1.23 0 0 1 26.772 27h-3.44A1.309 1.309 0 0 1 22 25.79v-1.953C22 22.309 18.703 21 16 21c-2.971 0-6 1.434-6 2.843v1.938A1.212 1.212 0 0 1 8.799 27H5.23A1.23 1.23 0 0 1 4 25.771v-1.466C4 22.795 7.57 19 16 19c8.431 0 12 3.795 12 5.305v1.466Z"/></svg>