<svg xmlns="http://www.w3.org/2000/svg" width="32" height="32" viewBox="0 0 32 32"><path d="M19.293 2.293a1 1 0 0 1 1.414 0L24 5.586l3.293-3.293a1 1 0 1 1 1.414 1.414L25.414 7l3.293 3.293a1 1 0 0 1-1.414 1.414L24 8.414l-3.293 3.293a1 1 0 0 1-1.414-1.414L22.586 7l-3.293-3.293a1 1 0 0 1 0-1.414M9.108 22.843c6.995 6.995 13.263 6.535 15.064 4.734l1.037-1.037a3.23 3.23 0 0 0 0-4.566l-2.523-2.524a3.215 3.215 0 0 0-4.54.012l-1.158 1.157A7 7 0 0 1 13.35 18.6a7 7 0 0 1-2.022-3.634l1.167-1.167a3.317 3.317 0 0 0-.086-4.625L9.976 6.74a3.23 3.23 0 0 0-4.565 0L4.373 7.778c-1.8 1.8-2.261 8.069 4.735 15.065"/></svg>