<svg xmlns="http://www.w3.org/2000/svg" width="32" height="32" viewBox="0 0 32 32"><path d="m29.451 6.535-.407-1.255a1 1 0 0 0-1.146-.671l-.89.176-.79-.544-.076-.85a1 1 0 0 0-.997-.912h-1.319a1 1 0 0 0-.993.882l-.107.9-.762.585-.832-.19a1 1 0 0 0-1.175.665l-.408 1.255a1 1 0 0 0 .532 1.217l.824.38.32.905-.439.733a1 1 0 0 0 .27 1.322l1.068.776a1 1 0 0 0 1.322-.13l.616-.666.96-.025.56.644a1 1 0 0 0 1.342.152l1.068-.776a1 1 0 0 0 .285-1.297l-.443-.791.273-.92.785-.336a1 1 0 0 0 .56-1.229m-2.17.829-.526 1.776.649 1.16-1.067.775-.87-.998-1.853.047-.902.976-1.068-.775.68-1.137-.617-1.747-1.207-.556.408-1.255 1.291.296 1.47-1.128.157-1.319h1.32l.117 1.32 1.526 1.05 1.304-.26.407 1.255zM24.5 8.35a1 1 0 1 0 0-2 1 1 0 0 0 0 2M9.454 22.454c6.746 6.746 12.68 6.412 14.358 4.734l1.037-1.037a2.73 2.73 0 0 0 0-3.858l-2.524-2.524a2.714 2.714 0 0 0-3.833.011l-1.31 1.31a7 7 0 0 1-4.192-2.171 7.03 7.03 0 0 1-2.176-4.189l1.32-1.32a2.81 2.81 0 0 0-.086-3.918L9.616 7.06a2.73 2.73 0 0 0-3.86 0L4.72 8.097c-1.678 1.678-2.012 7.611 4.734 14.357M6.464 7.766a1.73 1.73 0 0 1 2.444 0l2.433 2.433a1.82 1.82 0 0 1 .087 2.505l-1.382 1.38c-.707.707.27 3.575 2.236 5.542s4.838 2.94 5.546 2.232l1.37-1.37a1.713 1.713 0 0 1 2.42-.012L24.142 23a1.73 1.73 0 0 1 0 2.444l-1.037 1.037c-1.208 1.208-6.648 1.562-12.944-4.734S4.22 10.011 5.427 8.804z"/></svg>