<svg xmlns="http://www.w3.org/2000/svg" width="32" height="31" viewBox="0 0 32 31"><path d="M2 9.24C2 6.82 6.106 2.3 16 2.3s14 4.52 14 6.94v1.393a2.995 2.995 0 0 1-.947 2.168 3.32 3.32 0 0 1-2.282.899h-3.44a3.411 3.411 0 0 1-2.318-.882 3.081 3.081 0 0 1-1.014-2.168L20 9.083A7.291 7.291 0 0 0 16 8a7.268 7.268 0 0 0-4 1.087v1.555a2.977 2.977 0 0 1-.936 2.158c-.6.573-1.415.897-2.266.9h-3.57a3.32 3.32 0 0 1-2.281-.9A2.995 2.995 0 0 1 2 10.634V9.239Zm25.64 2.218c.23-.219.36-.516.36-.825V9.239C28 7.805 24.43 4.2 16 4.2S4 7.805 4 9.24v1.393c0 .31.13.606.36.825.23.219.543.342.869.342h3.569c.32-.002.628-.126.853-.343.225-.217.35-.51.349-.815V8.801C10 7.463 13.028 6.1 16 6.1c2.701 0 6 1.243 6 2.695v1.857c.024.316.177.612.424.826.248.213.573.329.907.322h3.44c.326 0 .639-.123.869-.342ZM16 13.7c.552 0 1 .425 1 .95v5.047l2.48 2.356c.39.371.39.973 0 1.344a1.038 1.038 0 0 1-1.414 0l-2.773-2.634A.927.927 0 0 1 15 20.09V14.65c0-.525.448-.95 1-.95Zm-8.552 1.485c.518.184.78.731.587 1.223a7.698 7.698 0 0 0-.535 2.826c0 4.46 3.806 8.075 8.5 8.075s8.5-3.616 8.5-8.075c0-.996-.19-1.948-.535-2.826-.193-.492.07-1.04.587-1.223.517-.184 1.093.066 1.287.557a9.515 9.515 0 0 1 .661 3.492c0 5.509-4.701 9.975-10.5 9.975S5.5 24.743 5.5 19.234c0-1.227.233-2.404.661-3.492.194-.491.77-.74 1.287-.557Z"/></svg>