<svg xmlns="http://www.w3.org/2000/svg" width="32" height="32" viewBox="0 0 32 32"><path d="M28.784 9.205a2 2 0 0 0 1.118-2.458l-.408-1.255a1.999 1.999 0 0 0-2.291-1.343l-.476.094-.056-.038-.034-.382A2 2 0 0 0 24.645 2h-1.32a2 2 0 0 0-1.985 1.764l-.058.482-.053.041-.374-.086a1.998 1.998 0 0 0-2.35 1.332l-.407 1.254a2 2 0 0 0 1.064 2.435l.44.203.023.064-.197.329a2 2 0 0 0 .54 2.646l1.068.775a2 2 0 0 0 2.644-.26l.329-.356.068-.002.252.29a2 2 0 0 0 2.683.303l1.067-.776a2 2 0 0 0 .57-2.594l-.237-.423.02-.066.352-.15Zm-2.003-1.32-.526 1.776.649 1.16-1.068.775-.87-.998-1.853.047-.902.976-1.067-.776.68-1.136-.618-1.747L20 7.406l.408-1.255 1.29.296 1.471-1.128L23.326 4h1.32l.116 1.32 1.527 1.05 1.303-.26L28 7.365l-1.219.52Z"/><path d="M24 9.371a1.5 1.5 0 1 0 0-3 1.5 1.5 0 0 0 0 3ZM9.107 22.843c6.996 6.995 13.264 6.535 15.065 4.734l1.037-1.037a3.232 3.232 0 0 0 0-4.566l-2.524-2.524a3.214 3.214 0 0 0-4.54.012l-1.157 1.157A6.994 6.994 0 0 1 13.35 18.6a7.016 7.016 0 0 1-2.023-3.634l1.168-1.166a3.317 3.317 0 0 0-.086-4.626L9.976 6.74a3.232 3.232 0 0 0-4.566 0L4.373 7.778c-1.8 1.8-2.261 8.069 4.734 15.065ZM6.824 8.155a1.23 1.23 0 0 1 1.738 0l2.433 2.433a1.308 1.308 0 0 1 .087 1.796l-1.383 1.382c-1.08 1.08.327 4.338 2.237 6.248 2.101 2.102 5.257 3.229 6.253 2.233l1.37-1.371a1.212 1.212 0 0 1 1.712-.012l2.524 2.524a1.23 1.23 0 0 1 0 1.738l-1.037 1.037c-1.068 1.067-6.275 1.227-12.236-4.735C4.56 15.468 4.72 10.26 5.786 9.192l1.037-1.037Z"/></svg>