<svg xmlns="http://www.w3.org/2000/svg" width="32" height="32" viewBox="0 0 32 32"><path d="M10.041 12.469a.749.749 0 0 0 1.469-.097.748.748 0 0 0-.02-.292l-.8-2.99 6.71 3.834a.742.742 0 0 0 .749-.003.751.751 0 0 0 .275-.276l4.728-8.273a.75.75 0 0 0-1.303-.744l-4.355 7.621-6.039-3.45 2.963-.793a.75.75 0 1 0-.388-1.45L9.306 6.822a.75.75 0 0 0-.53.92l1.265 4.728ZM16 17.25c-9.716 0-13.75 4.595-13.75 7.055v1.466A2.982 2.982 0 0 0 5.23 28.75h3.57a2.964 2.964 0 0 0 2.952-2.969v-1.754A7.107 7.107 0 0 1 16 22.75a7.125 7.125 0 0 1 4.25 1.272v1.768a3.064 3.064 0 0 0 3.081 2.96h3.44a2.982 2.982 0 0 0 2.979-2.979v-1.466c0-2.46-4.034-7.055-13.75-7.055Zm12.25 8.521a1.48 1.48 0 0 1-1.478 1.479h-3.44a1.565 1.565 0 0 1-1.582-1.46v-1.953c0-1.233-3.01-2.587-5.75-2.587s-5.75 1.357-5.75 2.593v1.938a1.462 1.462 0 0 1-1.452 1.469H5.23a1.48 1.48 0 0 1-1.479-1.479v-1.466c0-1.635 3.525-5.555 12.25-5.555 8.726 0 12.25 3.92 12.25 5.555v1.466Z"/></svg>