<svg xmlns="http://www.w3.org/2000/svg" width="32" height="32" viewBox="0 0 32 32"><path d="m29.452 6.535-.408-1.255a1 1 0 0 0-1.146-.671l-.89.176-.79-.544-.076-.85a1 1 0 0 0-.996-.912h-1.32a1 1 0 0 0-.993.882l-.107.9-.762.585-.832-.19a1 1 0 0 0-1.175.665l-.408 1.255a1 1 0 0 0 .533 1.217l.823.38.32.905-.438.733a1 1 0 0 0 .27 1.322l1.067.776a1 1 0 0 0 1.322-.13l.616-.666.96-.025.561.644a1 1 0 0 0 1.341.152l1.068-.776a1 1 0 0 0 .285-1.297l-.443-.791.273-.92.786-.336a1 1 0 0 0 .559-1.229Zm-2.17.829-.527 1.776.65 1.16-1.068.775-.87-.998-1.853.047-.902.976-1.067-.775.68-1.137-.618-1.747-1.207-.556.408-1.255 1.291.296 1.47-1.128.157-1.319h1.32l.117 1.32 1.527 1.05 1.303-.26.407 1.255-1.218.52Z"/><path d="M24.5 8.35a1 1 0 1 0 0-2 1 1 0 0 0 0 2ZM23.861 19.876a3.082 3.082 0 0 0-4.26.003s-1.472 1.497-1.761 1.805a7.272 7.272 0 0 1-5.346-2.18 7.64 7.64 0 0 1-2.232-5.27c.362-.365 1.86-1.836 1.862-1.838a3.01 3.01 0 0 0 0-4.257L9.371 5.385a3.028 3.028 0 0 0-4.275 0L3.624 6.856c-1.883 1.884-2.243 8.557 5.36 16.16 4.913 4.914 9.438 6.5 12.533 6.5a5.167 5.167 0 0 0 3.626-1.141l1.471-1.472a3.02 3.02 0 0 0 0-4.274l-2.753-2.753Zm2.046 6.32-1.471 1.472c-1.382 1.379-7.586 1.8-14.745-5.36C2.53 15.15 2.95 8.945 4.33 7.563l1.472-1.471a2.028 2.028 0 0 1 2.861 0l2.753 2.754a2.01 2.01 0 0 1 .003 2.84s-1.503 1.476-1.866 1.84c-.58.58-.067 2.532-.006 2.754a9.024 9.024 0 0 0 2.24 3.932 9.046 9.046 0 0 0 3.932 2.24c.22.059 2.174.573 2.754-.007.363-.363 1.838-1.862 1.838-1.862a2.058 2.058 0 0 1 2.842 0l2.753 2.753a2.025 2.025 0 0 1 0 2.86Z"/></svg>