<svg xmlns="http://www.w3.org/2000/svg" width="32" height="32" viewBox="0 0 32 32"><path d="M19.5 2a1 1 0 1 0 0 2h9a1 1 0 1 0 0-2h-9Zm3.57 16.755c.427.176.815.435 1.142.761l2.754 2.76a3.53 3.53 0 0 1 0 4.99l-1.473 1.474A5.664 5.664 0 0 1 21.52 30c-3.244 0-7.902-1.622-12.901-6.63C.762 15.505 1.249 8.484 3.258 6.475L4.73 4.999a3.607 3.607 0 0 1 4.984 0l2.754 2.758a3.52 3.52 0 0 1 0 4.973l-.075.074c-.268.265-1.185 1.168-1.627 1.606a7.1 7.1 0 0 0 6.802 6.81c.514-.52 1.671-1.698 1.671-1.698a3.514 3.514 0 0 1 3.831-.767Zm1.009 8.531 1.472-1.437a1.526 1.526 0 0 0 0-2.157l-2.754-2.76a1.513 1.513 0 0 0-2.137 0s-1.475 1.504-1.839 1.867c-.698.699-2.33.385-3.24.135a9.544 9.544 0 0 1-4.157-2.372c-1.768-1.77-3.539-6.097-2.236-7.406.366-.366 1.871-1.848 1.871-1.848a1.514 1.514 0 0 0-.005-2.134L8.299 6.448a1.521 1.521 0 0 0-2.154 0L4.672 7.89c-1.278 1.28-1.55 7.107 5.362 14.027 6.91 6.919 12.766 6.647 14.045 5.37ZM18.499 7a1 1 0 0 1 1-1h9a1 1 0 1 1 0 2h-9a1 1 0 0 1-1-1Zm1 3a1 1 0 1 0 0 2h9a1 1 0 1 0 0-2h-9Z"/></svg>