<svg xmlns="http://www.w3.org/2000/svg" width="32" height="32" viewBox="0 0 32 32"><path d="m29.53 6.47-4-4a.75.75 0 0 0-1.06 0l-4 4a.75.75 0 0 0 1.06 1.06l2.72-2.72v19.315a4.003 4.003 0 0 1-3.75 4.125 4.004 4.004 0 0 1-3.75-4.125V7.875A5.52 5.52 0 0 0 11.5 2.25a5.52 5.52 0 0 0-5.25 5.625V27.19l-2.72-2.72a.75.75 0 1 0-1.06 1.061l4 4a.75.75 0 0 0 1.06 0l4-4a.75.75 0 0 0-1.06-1.06l-2.72 2.72V7.874A4.004 4.004 0 0 1 11.5 3.75a4.004 4.004 0 0 1 3.75 4.125v16.25a5.52 5.52 0 0 0 5.25 5.625 5.52 5.52 0 0 0 5.25-5.625V4.81l2.72 2.72a.75.75 0 1 0 1.06-1.06"/></svg>