<svg xmlns="http://www.w3.org/2000/svg" width="32" height="32" viewBox="0 0 32 32"><path d="M19.25 2.25a.75.75 0 0 0 0 1.5h9.5a.75.75 0 0 0 0-1.5h-9.5Zm2.479 16.495a3.263 3.263 0 0 1 2.309.954l2.753 2.753a3.276 3.276 0 0 1 0 4.629l-1.472 1.471a5.416 5.416 0 0 1-3.798 1.2c-3.168 0-7.758-1.603-12.714-6.56-4.17-4.169-5.698-7.84-6.244-10.188-.635-2.72-.295-5.144.885-6.324l1.471-1.472a3.35 3.35 0 0 1 4.628 0L12.3 7.961a3.26 3.26 0 0 1 0 4.61l-.046.046c-.234.23-1.293 1.273-1.717 1.695a7.291 7.291 0 0 0 7.15 7.151c.476-.478 1.735-1.76 1.735-1.76a3.264 3.264 0 0 1 2.307-.958Zm2.53 8.747 1.47-1.472a1.775 1.775 0 0 0 0-2.508l-2.752-2.753a1.764 1.764 0 0 0-2.49 0s-1.474 1.5-1.837 1.863c-.647.649-2.458.218-2.996.07a9.287 9.287 0 0 1-4.044-2.303c-2.3-2.3-3.094-6.178-2.233-7.04.365-.364 1.867-1.842 1.867-1.842a1.76 1.76 0 0 0-.004-2.485L8.487 6.269a1.774 1.774 0 0 0-2.507 0L4.508 7.741c-.637.637-1.061 2.45-.485 4.923.503 2.156 1.925 5.548 5.845 9.468 7.034 7.034 13.063 6.688 14.39 5.36ZM18.5 7a.75.75 0 0 1 .75-.75h9.5a.75.75 0 0 1 0 1.5h-9.5A.75.75 0 0 1 18.5 7Zm.75 3.25a.75.75 0 0 0 0 1.5h9.5a.75.75 0 0 0 0-1.5h-9.5Z"/></svg>