<svg xmlns="http://www.w3.org/2000/svg" width="32" height="32" viewBox="0 0 32 32"><path d="M19.18 3.368C20.075 2.426 21.315 2 22.52 2H24a3 3 0 0 1 3 3v4a3 3 0 0 1-3 3h-1.574a.64.64 0 0 0-.545.308 7.18 7.18 0 0 0 0 7.384.64.64 0 0 0 .545.308H24a3 3 0 0 1 3 3v4a3 3 0 0 1-3 3h-1.667c-1.054 0-2.19-.32-3.043-1.148-2.148-2.085-3.285-4.819-3.836-7.662a1 1 0 1 1 1.964-.38c.501 2.588 1.502 4.895 3.265 6.607.389.377.973.583 1.65.583H24a1 1 0 0 0 1-1v-4a1 1 0 0 0-1-1h-1.574a2.64 2.64 0 0 1-2.26-1.28 9.18 9.18 0 0 1 0-9.44 2.64 2.64 0 0 1 2.26-1.28H24a1 1 0 0 0 1-1V5a1 1 0 0 0-1-1h-1.48c-.753 0-1.434.266-1.89.745-1.865 1.965-2.813 4.007-3.266 6.438a1 1 0 1 1-1.966-.366c.518-2.78 1.63-5.183 3.782-7.45M3 16a1 1 0 0 1 1-1h8.086l-3.293-3.293a1 1 0 1 1 1.414-1.414l5 5a1 1 0 0 1 0 1.414l-5 5a1 1 0 0 1-1.414-1.414L12.086 17H4a1 1 0 0 1-1-1"/></svg>