<svg xmlns="http://www.w3.org/2000/svg" width="32" height="32" viewBox="0 0 32 32"><path d="M24.015 15a1.25 1.25 0 1 0 0-2.5 1.25 1.25 0 0 0 0 2.5ZM24.212 19.515a3.515 3.515 0 0 0-4.973.006s-1.156 1.18-1.671 1.699a7.1 7.1 0 0 1-6.801-6.81c.52-.516 1.696-1.674 1.702-1.68a3.519 3.519 0 0 0 0-4.973L9.714 4.999a3.607 3.607 0 0 0-4.984 0L3.258 6.473C1.25 8.483.763 15.503 8.619 23.37c5 5.007 9.657 6.63 12.901 6.63 1.437.1 2.858-.35 3.974-1.26l1.472-1.475a3.53 3.53 0 0 0 0-4.99l-2.754-2.76ZM21 7a1 1 0 0 0 1-1 2 2 0 1 1 2 2 1 1 0 0 0-1 1v1a1 1 0 0 0 2 0v-.127A4 4 0 1 0 20 6a1 1 0 0 0 1 1Z"/></svg>