<svg xmlns="http://www.w3.org/2000/svg" width="32" height="32" viewBox="0 0 32 32"><path d="M28.784 9.205a2 2 0 0 0 1.118-2.458l-.408-1.255a1.999 1.999 0 0 0-2.291-1.343l-.476.094-.056-.038-.034-.382A2 2 0 0 0 24.645 2h-1.32a2 2 0 0 0-1.985 1.764l-.057.482-.054.041-.374-.086a1.998 1.998 0 0 0-2.35 1.332l-.407 1.254a2 2 0 0 0 1.064 2.435l.44.203.023.064-.197.329a2 2 0 0 0 .54 2.646l1.068.775a2 2 0 0 0 2.644-.26l.329-.356.068-.002.252.29a2 2 0 0 0 2.683.303l1.067-.776a2 2 0 0 0 .57-2.594l-.237-.423.02-.066.352-.15Zm-2.002-1.32-.527 1.776.649 1.16-1.068.775-.87-.998-1.852.047-.902.976-1.068-.776.68-1.136-.617-1.747L20 7.406l.408-1.255 1.291.296 1.47-1.128L23.326 4h1.32l.117 1.32 1.526 1.05 1.303-.26L28 7.365l-1.218.52Z"/><path d="M24 9.371a1.5 1.5 0 1 0 0-3 1.5 1.5 0 0 0 0 3ZM24.212 19.515a3.515 3.515 0 0 0-4.973.006s-1.156 1.18-1.671 1.699a7.1 7.1 0 0 1-6.801-6.81c.52-.516 1.696-1.674 1.702-1.68a3.52 3.52 0 0 0 0-4.973L9.714 4.999a3.607 3.607 0 0 0-4.984 0L3.258 6.473C1.25 8.483.763 15.503 8.619 23.37c5 5.007 9.657 6.63 12.901 6.63 1.437.1 2.858-.35 3.974-1.26l1.472-1.475a3.53 3.53 0 0 0 0-4.99l-2.754-2.76Zm1.34 6.333-1.473 1.438c-1.28 1.277-7.136 1.55-14.045-5.37-6.91-6.92-6.64-12.746-5.361-14.026l1.472-1.443a1.521 1.521 0 0 1 2.155 0l2.754 2.726a1.514 1.514 0 0 1 .006 2.134s-1.506 1.482-1.871 1.848c-1.304 1.31.468 5.636 2.235 7.406a9.545 9.545 0 0 0 4.157 2.373c.91.25 2.542.563 3.24-.135.364-.364 1.84-1.866 1.84-1.867a1.513 1.513 0 0 1 2.136 0l2.754 2.76a1.526 1.526 0 0 1 0 2.156Z"/></svg>