<svg xmlns="http://www.w3.org/2000/svg" width="32" height="32" viewBox="0 0 32 32"><path d="M20.501 13a2.502 2.502 0 0 0 2.5-2.5v-6a2.5 2.5 0 0 0-5 0v6a2.502 2.502 0 0 0 2.5 2.5ZM25.733 2.733A2.502 2.502 0 0 1 27.5 2 2.503 2.503 0 0 1 30 4.5v6a2.5 2.5 0 1 1-5 0v-6c.001-.663.265-1.298.733-1.767ZM24.172 27.577c-1.8 1.8-8.069 2.261-15.065-4.734C2.112 15.847 2.572 9.579 4.373 7.778L5.41 6.741a3.232 3.232 0 0 1 4.566 0l2.433 2.433a3.317 3.317 0 0 1 .086 4.626l-1.168 1.166A7.016 7.016 0 0 0 13.35 18.6a6.994 6.994 0 0 0 3.638 2.02l1.157-1.158a3.214 3.214 0 0 1 4.54-.012l2.524 2.524a3.232 3.232 0 0 1 0 4.566l-1.037 1.037Z"/></svg>