<svg xmlns="http://www.w3.org/2000/svg" width="32" height="32" viewBox="0 0 32 32"><path d="M15.22 19.523C16.183 26.879 20.084 30 22.305 30h1.466A3.23 3.23 0 0 0 27 26.771v-3.569A3.214 3.214 0 0 0 23.78 20h-1.637A7 7 0 0 1 21 16a7 7 0 0 1 1.14-4h1.65A3.316 3.316 0 0 0 27 8.67v-3.44A3.23 3.23 0 0 0 23.77 2h-1.466c-2.22 0-6.122 3.121-7.085 10.477l1.401 1.402a3 3 0 0 1 0 4.242zM4 15a1 1 0 1 0 0 2h8.086l-3.293 3.293a1 1 0 1 0 1.414 1.414l5-5a1 1 0 0 0 0-1.414l-5-5a1 1 0 1 0-1.414 1.414L12.086 15z"/></svg>