<svg xmlns="http://www.w3.org/2000/svg" width="32" height="32" viewBox="0 0 32 32"><path d="M24.015 14.75a1 1 0 1 0 0-2 1 1 0 0 0 0 2ZM21 6.75a.75.75 0 0 0 .75-.75A2.25 2.25 0 1 1 24 8.25a.75.75 0 0 0-.75.75v1a.75.75 0 1 0 1.5 0v-.325A3.75 3.75 0 1 0 20.25 6a.75.75 0 0 0 .75.75ZM24.038 19.7a3.334 3.334 0 0 0-4.614.003s-1.262 1.282-1.736 1.76a7.294 7.294 0 0 1-7.152-7.152c.478-.474 1.76-1.734 1.765-1.739a3.257 3.257 0 0 0 0-4.61L9.548 5.208a3.278 3.278 0 0 0-4.63 0L3.449 6.68c-1.945 1.945-2.369 8.786 5.359 16.512 4.955 4.956 9.545 6.559 12.713 6.559a5.42 5.42 0 0 0 3.8-1.2l1.471-1.471a3.275 3.275 0 0 0 0-4.628L24.038 19.7Zm1.692 6.32L24.26 27.49c-1.331 1.327-7.359 1.676-14.392-5.36C2.834 15.1 3.18 9.07 4.507 7.742L5.98 6.268a1.778 1.778 0 0 1 2.508 0l2.753 2.753a1.76 1.76 0 0 1 .005 2.485S9.74 12.985 9.377 13.35c-.647.647-.218 2.457-.07 2.996a9.28 9.28 0 0 0 2.303 4.043 9.285 9.285 0 0 0 4.043 2.303c.54.149 2.348.58 2.997-.07.364-.363 1.838-1.862 1.838-1.862a1.802 1.802 0 0 1 2.49 0l2.752 2.753a1.774 1.774 0 0 1 0 2.506Z"/></svg>