<svg xmlns="http://www.w3.org/2000/svg" width="32" height="32" viewBox="0 0 32 32"><path d="M24 2.5A5.5 5.5 0 1 0 29.5 8 5.507 5.507 0 0 0 24 2.5Zm0 1a4.49 4.49 0 0 1 4.45 4h-8.9a4.49 4.49 0 0 1 4.45-4Zm0 9a4.49 4.49 0 0 1-4.45-4h8.9a4.49 4.49 0 0 1-4.45 4ZM23.861 19.876a3.082 3.082 0 0 0-4.26.003s-1.472 1.497-1.761 1.805a7.272 7.272 0 0 1-5.346-2.18 7.64 7.64 0 0 1-2.232-5.27c.362-.365 1.86-1.836 1.862-1.838a3.015 3.015 0 0 0 0-4.257L9.37 5.385a3.027 3.027 0 0 0-4.274 0L3.624 6.856c-1.883 1.884-2.243 8.557 5.36 16.16 4.913 4.914 9.438 6.5 12.533 6.5a5.167 5.167 0 0 0 3.626-1.141l1.471-1.472a3.02 3.02 0 0 0 0-4.274l-2.753-2.753Zm2.046 6.32-1.471 1.472c-1.383 1.379-7.586 1.8-14.745-5.36C2.53 15.15 2.95 8.945 4.33 7.563l1.472-1.471a2.026 2.026 0 0 1 2.86 0l2.754 2.754a2.013 2.013 0 0 1 .003 2.84s-1.503 1.476-1.866 1.84c-.58.58-.067 2.532-.006 2.754a9.024 9.024 0 0 0 2.24 3.932 9.046 9.046 0 0 0 3.932 2.24c.22.059 2.174.573 2.754-.007.363-.363 1.838-1.862 1.838-1.862a2.058 2.058 0 0 1 2.842 0l2.753 2.753a2.025 2.025 0 0 1 0 2.86Z"/></svg>