<svg xmlns="http://www.w3.org/2000/svg" width="32" height="32" viewBox="0 0 32 32"><path d="M10.781 20.5H8.928A7.008 7.008 0 0 1 7.5 16a7.019 7.019 0 0 1 1.423-4.5h1.867a2.81 2.81 0 0 0 2.71-2.832v-3.44A2.731 2.731 0 0 0 10.771 2.5H9.306C6.932 2.5 2.5 6.46 2.5 16s4.432 13.5 6.805 13.5h1.466a2.732 2.732 0 0 0 2.729-2.729v-3.569a2.713 2.713 0 0 0-2.719-2.702Zm1.719 6.271a1.73 1.73 0 0 1-1.729 1.729H9.306C7.597 28.5 3.5 24.903 3.5 16S7.597 3.5 9.305 3.5h1.466A1.73 1.73 0 0 1 12.5 5.229v3.439a1.82 1.82 0 0 1-1.71 1.832H8.837c-1 0-2.337 2.719-2.337 5.5s1.34 5.5 2.342 5.5h1.94a1.713 1.713 0 0 1 1.718 1.702v3.57Zm4.353-11.133-3.004-2.995a.5.5 0 0 0-.707.707l2.15 2.141H10.5a.5.5 0 1 0 0 1h4.793l-2.143 2.147a.5.5 0 1 0 .708.707l2.996-3a.498.498 0 0 0 0-.707Zm8.074 4.862h1.854a2.713 2.713 0 0 1 2.719 2.702v3.57A2.732 2.732 0 0 1 26.77 29.5h-1.467c-2.373 0-6.804-3.96-6.804-13.5S22.93 2.5 25.303 2.5h1.467A2.731 2.731 0 0 1 29.5 5.228v3.44a2.81 2.81 0 0 1-2.71 2.832h-1.868A7.019 7.019 0 0 0 23.5 16a7.008 7.008 0 0 0 1.427 4.5Zm3.066 7.493a1.73 1.73 0 0 0 .507-1.221v-3.57a1.713 1.713 0 0 0-1.72-1.702h-1.939c-1 0-2.341-2.719-2.341-5.5s1.337-5.5 2.336-5.5h1.954a1.82 1.82 0 0 0 1.71-1.832v-3.44A1.73 1.73 0 0 0 26.77 3.5h-1.467C23.596 3.5 19.5 7.097 19.5 16s4.096 12.5 5.804 12.5h1.467a1.73 1.73 0 0 0 1.222-.507Z"/></svg>