<svg xmlns="http://www.w3.org/2000/svg" width="32" height="32" viewBox="0 0 32 32"><path d="M16 2C6.106 2 2 6.758 2 9.305v1.467A3.23 3.23 0 0 0 5.229 14h3.569A3.214 3.214 0 0 0 12 10.781V9.144A7 7 0 0 1 16 8a7 7 0 0 1 4 1.14l-.001 1.65A3.317 3.317 0 0 0 23.331 14h3.44A3.23 3.23 0 0 0 30 10.771V9.306C30 6.758 25.894 2 16 2M7.448 15.563a1 1 0 0 1 .587 1.287 8.5 8.5 0 0 0-.535 2.975 8.5 8.5 0 1 0 16.465-2.975 1 1 0 0 1 1.874-.7 10.5 10.5 0 0 1 .661 3.675c0 5.799-4.701 10.5-10.5 10.5s-10.5-4.701-10.5-10.5c0-1.291.233-2.53.661-3.675a1 1 0 0 1 1.287-.587M17 15a1 1 0 1 0-2 0v5.727a1 1 0 0 0 .293.707l2.773 2.773a1 1 0 0 0 1.414-1.414L17 20.313z"/></svg>