<svg xmlns="http://www.w3.org/2000/svg" width="32" height="31" viewBox="0 0 32 31"><path d="M2.25 9.277C2.25 6.94 6.283 2.575 16 2.575c9.717 0 13.75 4.365 13.75 6.702v1.393c0 .75-.315 1.47-.873 2a3.063 3.063 0 0 1-2.106.83h-3.44a3.151 3.151 0 0 1-2.142-.811 2.847 2.847 0 0 1-.94-2.001l.001-1.68A7.397 7.397 0 0 0 16 7.8a7.375 7.375 0 0 0-4.25 1.213v1.667a2.746 2.746 0 0 1-.862 1.99 3.044 3.044 0 0 1-2.09.83h-3.57c-.79 0-1.546-.3-2.105-.83a2.763 2.763 0 0 1-.873-2V9.277Zm25.567 2.386c.277-.263.433-.62.433-.993V9.277C28.25 7.724 24.726 4 16 4 7.274 4 3.75 7.724 3.75 9.277v1.393c0 .373.156.73.433.993a1.52 1.52 0 0 0 1.046.412h3.569c.387-.002.757-.15 1.03-.412.272-.262.424-.616.422-.983V8.838c0-1.173 3.01-2.463 5.75-2.463s5.75 1.286 5.75 2.458v1.855c.026.38.205.735.5.993.293.258.68.399 1.081.394h3.44a1.52 1.52 0 0 0 1.046-.412ZM16 13.738c.414 0 .75.319.75.712v5.146l2.553 2.425a.688.688 0 0 1 0 1.008.778.778 0 0 1-1.06 0l-2.773-2.634a.695.695 0 0 1-.22-.504V14.45c0-.393.336-.712.75-.712Zm-8.64 1.47c.389.137.586.548.44.916a7.925 7.925 0 0 0-.55 2.91c0 4.59 3.918 8.312 8.75 8.312s8.75-3.721 8.75-8.312a7.925 7.925 0 0 0-.55-2.91c-.146-.368.051-.779.44-.916.387-.138.82.049.964.418a9.287 9.287 0 0 1 .646 3.408c0 5.378-4.59 9.737-10.25 9.737s-10.25-4.36-10.25-9.737c0-1.198.228-2.347.646-3.408.145-.37.577-.556.965-.418Z"/></svg>