<svg xmlns="http://www.w3.org/2000/svg" width="32" height="31" viewBox="0 0 32 31"><path d="M2.5 9.314C2.5 7.06 6.46 2.85 16 2.85s13.5 4.21 13.5 6.464v1.394a2.53 2.53 0 0 1-.8 1.832 2.806 2.806 0 0 1-1.929.76h-3.44a2.892 2.892 0 0 1-1.966-.74 2.611 2.611 0 0 1-.866-1.835l.001-1.773A7.278 7.278 0 0 0 16 7.6a7.256 7.256 0 0 0-4.5 1.357v1.76a2.513 2.513 0 0 1-.789 1.822 2.786 2.786 0 0 1-1.913.761h-3.57a2.806 2.806 0 0 1-1.928-.76 2.53 2.53 0 0 1-.8-1.832V9.314Zm25.493 2.554c.324-.307.507-.725.507-1.16V9.314C28.5 7.692 24.903 3.8 16 3.8S3.5 7.692 3.5 9.314v1.394c0 .435.183.853.507 1.16.324.308.763.482 1.222.482h3.569a1.76 1.76 0 0 0 1.206-.482c.32-.306.498-.72.496-1.15V8.875c0-.951 2.719-2.226 5.5-2.226s5.5 1.271 5.5 2.22v1.856c.027.442.233.857.574 1.159.34.302.79.469 1.257.465h3.44c.459 0 .898-.174 1.222-.482ZM16 13.775c.276 0 .5.213.5.475v5.244l2.626 2.495a.459.459 0 0 1 0 .672.519.519 0 0 1-.707 0l-2.773-2.634a.464.464 0 0 1-.146-.336V14.25c0-.262.224-.475.5-.475ZM7.273 15.23c.259.092.39.365.293.611A8.152 8.152 0 0 0 7 18.834c0 4.722 4.03 8.55 9 8.55s9-3.828 9-8.55c0-1.054-.2-2.062-.567-2.993a.468.468 0 0 1 .294-.61.508.508 0 0 1 .643.278 9.059 9.059 0 0 1 .63 3.325c0 5.247-4.477 9.5-10 9.5s-10-4.253-10-9.5c0-1.17.222-2.29.63-3.325a.508.508 0 0 1 .643-.279Z"/></svg>