<svg xmlns="http://www.w3.org/2000/svg" width="32" height="32" fill="none" viewBox="0 0 32 32"><path d="M28.919 9.511a1.761 1.761 0 0 0-1.77-.039l-3.398 2.16V10a4.756 4.756 0 0 0-4.75-4.75h-12A4.755 4.755 0 0 0 2.251 10v12a4.756 4.756 0 0 0 4.75 4.75h12a4.755 4.755 0 0 0 4.75-4.75v-1.634l3.465 2.199a1.75 1.75 0 0 0 2.532-1.566V11a1.737 1.737 0 0 0-.83-1.488Zm-6.668 12.49a3.254 3.254 0 0 1-3.25 3.25h-12A3.254 3.254 0 0 1 3.751 22V10a3.254 3.254 0 0 1 3.25-3.25h12a3.254 3.254 0 0 1 3.25 3.25v12Zm5.997-1.002a.244.244 0 0 1-.119.214c-.043.026-.134.067-.174.048l-4.203-2.672v-5.18l4.135-2.633a.25.25 0 0 1 .361.223v10Z"/><path fill="#27A17A" d="M9 13.75a1.75 1.75 0 1 0 0-3.5 1.75 1.75 0 0 0 0 3.5Z"/></svg>