<svg xmlns="http://www.w3.org/2000/svg" width="32" height="32" viewBox="0 0 32 32"><path d="M28.92 9.511a1.77 1.77 0 0 0-1.77-.039l-3.402 2.164v-1.631a4.755 4.755 0 0 0-4.75-4.75h-12a4.755 4.755 0 0 0-4.75 4.75v12a4.756 4.756 0 0 0 4.75 4.75h12a4.755 4.755 0 0 0 4.75-4.75v-1.641l3.468 2.201a1.75 1.75 0 0 0 2.534-1.564V11a1.74 1.74 0 0 0-.83-1.489m-6.672 12.494a3.254 3.254 0 0 1-3.25 3.25h-12a3.254 3.254 0 0 1-3.25-3.25v-12a3.254 3.254 0 0 1 3.25-3.25h12a3.254 3.254 0 0 1 3.25 3.25zM28.25 21a.24.24 0 0 1-.118.212c-.045.028-.14.065-.177.048l-4.207-2.673v-5.175l4.14-2.637a.25.25 0 0 1 .362.224z"/></svg>