<svg xmlns="http://www.w3.org/2000/svg" width="32" height="32" viewBox="0 0 32 32"><path d="M28.789 9.724a1.5 1.5 0 0 0-1.505-.04l-3.786 2.407v-2.086a4.505 4.505 0 0 0-4.5-4.5h-12a4.505 4.505 0 0 0-4.5 4.5v12a4.505 4.505 0 0 0 4.5 4.5h12a4.505 4.505 0 0 0 4.5-4.5v-2.096l3.83 2.433c.21.104.44.159.674.16A1.504 1.504 0 0 0 29.5 21V11a1.49 1.49 0 0 0-.711-1.276m-6.291 12.28a3.504 3.504 0 0 1-3.5 3.5h-12a3.504 3.504 0 0 1-3.5-3.5v-12a3.504 3.504 0 0 1 3.5-3.5h12a3.504 3.504 0 0 1 3.5 3.5zm6.002-1.003a.505.505 0 0 1-.679.471l-4.323-2.747v-5.449l4.278-2.724A.5.5 0 0 1 28.5 11z"/></svg>