<svg xmlns="http://www.w3.org/2000/svg" width="32" height="32" viewBox="0 0 32 32"><path d="M28.789 9.724a1.505 1.505 0 0 0-1.504-.04l-3.783 2.405V10a4.505 4.505 0 0 0-4.5-4.5h-12c-.027 0-.053.005-.081.006L4.707 3.293a1 1 0 1 0-1.414 1.414l24 24a1 1 0 1 0 1.415-1.414l-5.211-5.211.005-2.17 3.827 2.43c.209.104.439.159.672.16a1.505 1.505 0 0 0 1.5-1.501V11a1.489 1.489 0 0 0-.712-1.276ZM2.502 10v12a4.505 4.505 0 0 0 4.5 4.5h12c.89.001 1.76-.264 2.498-.76L3.263 7.503a4.473 4.473 0 0 0-.76 2.498Z"/></svg>