<svg xmlns="http://www.w3.org/2000/svg" width="32" height="32" viewBox="0 0 32 32"><path d="M19.002 25.25h-12A3.254 3.254 0 0 1 3.752 22V10c.002-.815.313-1.6.87-2.196l-1.06-1.06A4.723 4.723 0 0 0 2.253 10v12a4.755 4.755 0 0 0 4.75 4.75h12a4.724 4.724 0 0 0 3.257-1.31l-1.06-1.06a3.229 3.229 0 0 1-2.197.87ZM28.92 9.511a1.762 1.762 0 0 0-1.77-.039l-3.398 2.162V10a4.755 4.755 0 0 0-4.75-4.75h-12c-.214 0-.429.017-.64.05L4.53 3.468A.75.75 0 1 0 3.47 4.53l24 24a.751.751 0 0 0 1.28-.53.75.75 0 0 0-.22-.53l-4.827-4.828c.032-.212.049-.427.05-.641v-1.635l3.464 2.2A1.75 1.75 0 0 0 29.751 21V11a1.74 1.74 0 0 0-.83-1.489ZM7.812 6.751h11.19a3.254 3.254 0 0 1 3.25 3.25v11.19L7.812 6.751ZM28.25 21a.243.243 0 0 1-.118.212c-.045.027-.138.066-.176.048l-4.204-2.671v-5.18l4.136-2.634a.252.252 0 0 1 .362.224v10Z"/></svg>