<svg xmlns="http://www.w3.org/2000/svg" width="32" height="32" viewBox="0 0 32 32"><path d="M29.052 9.299a1.991 1.991 0 0 0-2.036-.038l-3.014 1.917v-1.177a5.006 5.006 0 0 0-5-5h-12a4.778 4.778 0 0 0-.546.04L4.707 3.293a1 1 0 1 0-1.414 1.414l24 24a1 1 0 1 0 1.415-1.414l-4.746-4.746c.024-.181.037-.364.04-.546v-1.178l3.014 1.915A2.001 2.001 0 0 0 30 21.001V11a1.987 1.987 0 0 0-.948-1.701ZM8.415 7h10.587a3.003 3.003 0 0 1 3 3v10.587L8.415 7Zm15.587 11.452v-4.905L28 11.005v9.989l-3.998-2.541ZM19.002 25h-12a3.004 3.004 0 0 1-3-3V10c.004-.488.128-.969.363-1.398L2.908 7.146A4.963 4.963 0 0 0 2.002 10v12a5.006 5.006 0 0 0 5 5h12c1.023-.001 2.02-.318 2.855-.906l-1.456-1.457c-.43.235-.91.36-1.399.363Z"/></svg>