<svg xmlns="http://www.w3.org/2000/svg" width="32" height="32" viewBox="0 0 32 32"><path d="M26.442 8.25H23.2a2.118 2.118 0 0 1-1.63-.739l-.846-.987A3.445 3.445 0 0 0 18 5.25h-4a3.416 3.416 0 0 0-2.69 1.244l-.903 1.047A2.108 2.108 0 0 1 8.8 8.25H5.6a3.182 3.182 0 0 0-3.35 2.973v12.541A3.187 3.187 0 0 0 5.6 26.75h20.8a3.182 3.182 0 0 0 3.35-2.974V11.223a3.157 3.157 0 0 0-3.308-2.973Zm1.808 15.526a1.697 1.697 0 0 1-1.85 1.474H5.6a1.721 1.721 0 0 1-1.85-1.486v-12.54A1.696 1.696 0 0 1 5.6 9.75h3.2a3.552 3.552 0 0 0 2.767-1.26l.903-1.046A1.928 1.928 0 0 1 14 6.75h4a1.955 1.955 0 0 1 1.56.722l.847.987a3.568 3.568 0 0 0 2.792 1.29h3.243a1.668 1.668 0 0 1 1.808 1.474v12.553Z"/><path d="M16 12.25a4.75 4.75 0 1 0 0 9.5 4.75 4.75 0 0 0 0-9.5Zm0 8a3.25 3.25 0 1 1 0-6.5 3.25 3.25 0 0 1 0 6.5Z"/></svg>