<svg xmlns="http://www.w3.org/2000/svg" width="32" height="32" viewBox="0 0 32 32"><path d="M26.442 8.5H23.2a2.34 2.34 0 0 1-1.82-.826l-.854-.997A3.2 3.2 0 0 0 18 5.5h-4a3.17 3.17 0 0 0-2.502 1.157l-.893 1.036A2.33 2.33 0 0 1 8.8 8.5H5.6a2.933 2.933 0 0 0-3.1 2.723v12.541A2.94 2.94 0 0 0 5.6 26.5h20.8a2.934 2.934 0 0 0 3.1-2.724V11.223A2.91 2.91 0 0 0 26.442 8.5M28.5 23.776a1.94 1.94 0 0 1-2.1 1.724H5.6a1.945 1.945 0 0 1-2.1-1.736v-12.54A1.94 1.94 0 0 1 5.6 9.5h3.2a3.3 3.3 0 0 0 2.579-1.173l.894-1.036A2.18 2.18 0 0 1 14 6.5h4a2.2 2.2 0 0 1 1.75.81l.855.996A3.32 3.32 0 0 0 23.199 9.5h3.243a1.915 1.915 0 0 1 2.058 1.723zM16 12.5a4.5 4.5 0 1 0 0 8.999 4.5 4.5 0 0 0 0-9m0 8a3.5 3.5 0 1 1 0-7 3.5 3.5 0 0 1 0 7"/></svg>