<svg xmlns="http://www.w3.org/2000/svg" width="32" height="32" viewBox="0 0 32 32"><path d="M9 13.5a1.5 1.5 0 1 0 0-3 1.5 1.5 0 0 0 0 3Z"/><path d="M28.787 9.723a1.508 1.508 0 0 0-1.503-.04L23.5 12.087V10a4.505 4.505 0 0 0-4.5-4.5h-12a4.505 4.505 0 0 0-4.5 4.5v12a4.505 4.505 0 0 0 4.5 4.5h12a4.504 4.504 0 0 0 4.5-4.5v-2.089l3.827 2.43a1.49 1.49 0 0 0 1.459-.064 1.493 1.493 0 0 0 .712-1.278V11a1.49 1.49 0 0 0-.712-1.276ZM22.5 22a3.504 3.504 0 0 1-3.5 3.5h-12a3.504 3.504 0 0 1-3.5-3.5V10a3.504 3.504 0 0 1 3.5-3.5h12a3.504 3.504 0 0 1 3.5 3.5v12Zm5.997-1a.494.494 0 0 1-.237.425.473.473 0 0 1-.44.047l-4.32-2.746v-5.454l4.275-2.72a.5.5 0 0 1 .723.447v10Z"/><path fill="#27A17A" d="M9 13.5a1.5 1.5 0 1 0 0-3 1.5 1.5 0 0 0 0 3Z"/></svg>