<svg xmlns="http://www.w3.org/2000/svg" width="32" height="32" viewBox="0 0 32 32"><path d="M20.75 16a4.75 4.75 0 1 0-9.499 0 4.75 4.75 0 0 0 9.499 0m-8 0a3.25 3.25 0 1 1 6.5 0 3.25 3.25 0 0 1-6.5 0M27 19.25a.75.75 0 0 0-.75.75v3A3.254 3.254 0 0 1 23 26.25H9A3.254 3.254 0 0 1 5.75 23v-5.19l2.72 2.72a.75.75 0 0 0 1.06-1.06l-4-4a.75.75 0 0 0-1.06 0l-4 4a.75.75 0 1 0 1.06 1.06l2.72-2.72V23A4.755 4.755 0 0 0 9 27.75h14A4.755 4.755 0 0 0 27.75 23v-3a.75.75 0 0 0-.75-.75M31.53 11.47a.75.75 0 0 0-1.061 0l-2.72 2.72V8.998a4.756 4.756 0 0 0-4.75-4.75h-14a4.755 4.755 0 0 0-4.75 4.75v3a.75.75 0 1 0 1.5 0V9a3.254 3.254 0 0 1 3.25-3.25h14a3.254 3.254 0 0 1 3.25 3.25v5.19l-2.72-2.72a.75.75 0 0 0-1.06 1.061l4 4a.75.75 0 0 0 1.06 0l4-4a.75.75 0 0 0 0-1.06"/></svg>