<svg xmlns="http://www.w3.org/2000/svg" width="32" height="32" viewBox="0 0 32 32"><path d="M19.002 25.25h-12A3.254 3.254 0 0 1 3.752 22V10c.002-.815.313-1.6.87-2.196l-1.06-1.06A4.72 4.72 0 0 0 2.252 10v12a4.755 4.755 0 0 0 4.75 4.75h12a4.72 4.72 0 0 0 3.257-1.31l-1.06-1.06a3.23 3.23 0 0 1-2.197.87M28.92 9.511a1.76 1.76 0 0 0-1.77-.039l-3.398 2.162V10a4.755 4.755 0 0 0-4.75-4.75h-12q-.322 0-.641.05l-1.83-1.832A.75.75 0 1 0 3.47 4.53l24 24a.75.75 0 1 0 1.06-1.06l-4.827-4.828q.047-.319.05-.641v-1.635l3.464 2.2A1.75 1.75 0 0 0 29.75 21V11a1.74 1.74 0 0 0-.83-1.489M7.811 6.751h11.191a3.254 3.254 0 0 1 3.25 3.25v11.19zM28.251 21a.24.24 0 0 1-.119.212c-.045.027-.139.066-.177.048l-4.203-2.671v-5.18l4.136-2.634a.25.25 0 0 1 .362.224z"/></svg>