<svg xmlns="http://www.w3.org/2000/svg" width="32" height="32" viewBox="0 0 32 32"><path d="M10.452 12.38A1.502 1.502 0 0 0 9 10.5a1.5 1.5 0 1 0 1.452 1.88M28.04 9.502a1.49 1.49 0 0 1 1.458 1.497v10a1.49 1.49 0 0 1-.711 1.277 1.49 1.49 0 0 1-1.46.065l-3.826-2.43V22a4.505 4.505 0 0 1-4.5 4.5h-12a4.505 4.505 0 0 1-4.5-4.5V10a4.505 4.505 0 0 1 4.5-4.5h12a4.505 4.505 0 0 1 4.5 4.5v2.087l3.783-2.404c.232-.126.493-.188.757-.181m-6.565 14.972A3.5 3.5 0 0 0 22.501 22V10a3.505 3.505 0 0 0-3.5-3.5h-12a3.504 3.504 0 0 0-3.5 3.5v12a3.504 3.504 0 0 0 3.5 3.5h12a3.5 3.5 0 0 0 2.474-1.026m6.961-3.23a.5.5 0 0 0 .063-.245v-10a.5.5 0 0 0-.723-.447l-4.274 2.72v5.454l4.319 2.746a.47.47 0 0 0 .44-.047.5.5 0 0 0 .175-.182"/></svg>