<svg xmlns="http://www.w3.org/2000/svg" width="32" height="32" viewBox="0 0 32 32"><path d="M19.002 25.5h-12a3.505 3.505 0 0 1-3.5-3.5V10a3.5 3.5 0 0 1 1.506-2.869l-.706-.707a4.48 4.48 0 0 0-1.8 3.577v12a4.505 4.505 0 0 0 4.5 4.5h12a4.48 4.48 0 0 0 3.577-1.8l-.707-.707a3.5 3.5 0 0 1-2.87 1.507M28.788 9.724a1.5 1.5 0 0 0-1.503-.04l-3.783 2.405V10a4.505 4.505 0 0 0-4.5-4.5h-12q-.361.009-.716.078L4.353 3.646a.5.5 0 0 0-.707.707l24 24a.5.5 0 0 0 .708-.707l-4.93-4.93q.069-.354.078-.715v-2.09l3.826 2.43c.21.105.44.16.673.16a1.504 1.504 0 0 0 1.5-1.5V11a1.49 1.49 0 0 0-.713-1.276m-6.286 12.07L7.208 6.502h11.794a3.505 3.505 0 0 1 3.5 3.5zm5.998-.793a.507.507 0 0 1-.678.471l-4.32-2.745v-5.453l4.275-2.722A.5.5 0 0 1 28.5 11z"/></svg>