<svg xmlns="http://www.w3.org/2000/svg" width="32" height="32" viewBox="0 0 32 32"><path d="M26.443 8.5H23.2a2.34 2.34 0 0 1-1.82-.826l-.854-.997A3.194 3.194 0 0 0 18 5.5h-4a3.174 3.174 0 0 0-2.502 1.157l-.893 1.036A2.33 2.33 0 0 1 8.8 8.5H5.6a2.933 2.933 0 0 0-3.1 2.723v12.541A2.938 2.938 0 0 0 5.6 26.5h20.8a2.934 2.934 0 0 0 3.1-2.724V11.223A2.909 2.909 0 0 0 26.444 8.5ZM28.5 23.776a1.942 1.942 0 0 1-2.1 1.724H5.6a1.945 1.945 0 0 1-2.1-1.736v-12.54A1.942 1.942 0 0 1 5.6 9.5h3.2a3.307 3.307 0 0 0 2.58-1.173l.893-1.036a2.177 2.177 0 0 1 1.728-.791h4a2.199 2.199 0 0 1 1.75.81l.854.996A3.317 3.317 0 0 0 23.2 9.5h3.243a1.915 1.915 0 0 1 2.057 1.723v12.553Z"/><path d="M16 12.5a4.5 4.5 0 1 0 0 8.999 4.5 4.5 0 0 0 0-9Zm0 8a3.5 3.5 0 1 1 0-7 3.5 3.5 0 0 1 0 7Z"/></svg>