<svg xmlns="http://www.w3.org/2000/svg" width="32" height="32" viewBox="0 0 32 32"><path d="M10.75 12a1.75 1.75 0 1 1-3.5 0 1.75 1.75 0 0 1 3.5 0M28.04 9.253a1.738 1.738 0 0 1 1.71 1.746v10a1.748 1.748 0 0 1-2.534 1.566l-3.465-2.2V22a4.756 4.756 0 0 1-4.75 4.75h-12A4.755 4.755 0 0 1 2.251 22V10a4.755 4.755 0 0 1 4.75-4.75h12a4.755 4.755 0 0 1 4.75 4.75v1.632l3.399-2.16a1.76 1.76 0 0 1 .89-.219m-6.741 15.044c.609-.61.951-1.435.953-2.297V10a3.254 3.254 0 0 0-3.25-3.25h-12A3.254 3.254 0 0 0 3.751 10v12a3.254 3.254 0 0 0 3.25 3.25h12a3.25 3.25 0 0 0 2.297-.953m6.919-3.175a.24.24 0 0 0 .03-.123v-10a.25.25 0 0 0-.36-.224L23.75 13.41v5.18l4.204 2.672c.04.018.131-.022.174-.048a.25.25 0 0 0 .089-.091"/></svg>