<svg xmlns="http://www.w3.org/2000/svg" width="32" height="32" viewBox="0 0 32 32"><path d="M26.442 8H23.2a1.86 1.86 0 0 1-1.44-.65l-.839-.98A3.7 3.7 0 0 0 18 5h-4a3.66 3.66 0 0 0-2.88 1.33l-.911 1.057A1.84 1.84 0 0 1 8.799 8H5.6A3.43 3.43 0 0 0 2 11.223v12.541A3.436 3.436 0 0 0 5.6 27h20.8a3.43 3.43 0 0 0 3.6-3.224V11.223A3.407 3.407 0 0 0 26.442 8M28 23.776A1.47 1.47 0 0 1 26.4 25H5.6A1.473 1.473 0 0 1 4 23.764v-12.54A1.47 1.47 0 0 1 5.6 10h3.2a3.8 3.8 0 0 0 2.957-1.347l.91-1.056A1.68 1.68 0 0 1 14 7h4a1.7 1.7 0 0 1 1.37.634l.839.978A3.82 3.82 0 0 0 23.199 10h3.243A1.423 1.423 0 0 1 28 11.223zM16 12a5 5 0 1 0 0 10 5 5 0 0 0 0-10m0 8a3 3 0 1 1 0-6.001 3 3 0 0 1 0 6"/></svg>