<svg xmlns="http://www.w3.org/2000/svg" width="32" height="32" viewBox="0 0 32 32"><path d="M11 12a2 2 0 1 1-4 0 2 2 0 0 1 4 0M28.09 9c.34.014.67.117.96.298a1.99 1.99 0 0 1 .948 1.701v10a1.998 1.998 0 0 1-2.982 1.738l-3.014-1.916V22a5.006 5.006 0 0 1-5 5h-12a5.006 5.006 0 0 1-5-5V10a5.006 5.006 0 0 1 5-5h12a5.006 5.006 0 0 1 5 5v1.177l3.014-1.916a1 1 0 0 1 .089-.051c.305-.154.643-.226.984-.21m-6.968 15.12a3 3 0 0 0 .88-2.12V10a3.004 3.004 0 0 0-3-3h-12a3.003 3.003 0 0 0-3 3v12a3.004 3.004 0 0 0 3 3h12c.795 0 1.557-.317 2.12-.88m2.88-10.574v4.906L28 20.993l-.003-9.987z"/></svg>