<svg xmlns="http://www.w3.org/2000/svg" width="32" height="32" viewBox="0 0 32 32"><path d="M20.5 16a4.5 4.5 0 1 0-9 0 4.5 4.5 0 0 0 9 0m-8 0a3.5 3.5 0 1 1 7 0 3.5 3.5 0 0 1-7 0M27 19.5a.497.497 0 0 0-.5.5v3a3.504 3.504 0 0 1-3.5 3.5H9A3.505 3.505 0 0 1 5.5 23v-5.793l3.147 3.146a.501.501 0 1 0 .707-.707l-4-4a.5.5 0 0 0-.707 0l-4 4a.5.5 0 0 0 .707.707L4.5 17.207V23A4.505 4.505 0 0 0 9 27.5h14a4.505 4.505 0 0 0 4.5-4.5v-3a.5.5 0 0 0-.5-.5M31.353 11.646a.5.5 0 0 0-.707 0l-3.147 3.147V8.999a4.505 4.505 0 0 0-4.5-4.5H9a4.505 4.505 0 0 0-4.5 4.5v3a.5.5 0 0 0 1 0V9a3.504 3.504 0 0 1 3.5-3.5h14a3.504 3.504 0 0 1 3.5 3.5v5.794l-3.146-3.147a.5.5 0 0 0-.707.707l4 4a.5.5 0 0 0 .707 0l4-4a.5.5 0 0 0 .108-.545.5.5 0 0 0-.108-.162"/></svg>