<svg xmlns="http://www.w3.org/2000/svg" width="32" height="32" viewBox="0 0 32 32"><path d="M28.92 9.511a1.76 1.76 0 0 0-1.77-.039l-3.398 2.162V10a4.755 4.755 0 0 0-4.75-4.75h-12A4.755 4.755 0 0 0 2.252 10v12a4.755 4.755 0 0 0 4.75 4.75h12a4.755 4.755 0 0 0 4.75-4.75v-1.635l3.465 2.2A1.75 1.75 0 0 0 29.75 21V11a1.74 1.74 0 0 0-.83-1.489m-6.668 12.49a3.253 3.253 0 0 1-3.25 3.25h-12A3.253 3.253 0 0 1 3.752 22V10a3.254 3.254 0 0 1 3.25-3.25h12a3.254 3.254 0 0 1 3.25 3.25zm5.998-1a.24.24 0 0 1-.118.212c-.045.028-.137.066-.177.048l-4.203-2.67v-5.18l4.136-2.635a.25.25 0 0 1 .243.01.24.24 0 0 1 .119.214z"/></svg>