<svg xmlns="http://www.w3.org/2000/svg" width="32" height="32" fill="none" viewBox="0 0 32 32"><path d="M29.05 9.298a1.986 1.986 0 0 0-1.945-.088.985.985 0 0 0-.089.051l-3.014 1.916V10a5.006 5.006 0 0 0-5-5h-12a5.006 5.006 0 0 0-5 5v12a5.006 5.006 0 0 0 5 5h12a5.006 5.006 0 0 0 5-5v-1.179l3.014 1.917a.8.8 0 0 0 .088.05 2 2 0 0 0 2.895-1.789V11a1.987 1.987 0 0 0-.949-1.7ZM22.001 22a3.004 3.004 0 0 1-3 3h-12a3.003 3.003 0 0 1-3-3V10a3.003 3.003 0 0 1 3-3h12a3.003 3.003 0 0 1 3 3v12Zm2-3.548v-4.906l3.997-2.54.002 9.988-3.998-2.542Z"/><path fill="#27A17A" d="M9 14a2 2 0 1 0 0-4 2 2 0 0 0 0 4Z"/></svg>