<svg xmlns="http://www.w3.org/2000/svg" width="32" height="32" viewBox="0 0 32 32"><path d="M28.789 9.724a1.5 1.5 0 0 0-1.505-.04l-3.782 2.404v-2.087a4.505 4.505 0 0 0-4.5-4.5h-12a4.505 4.505 0 0 0-4.5 4.5v12a4.505 4.505 0 0 0 4.5 4.5h12a4.505 4.505 0 0 0 4.5-4.5v-2.09l3.827 2.43c.209.105.439.16.672.16a1.504 1.504 0 0 0 1.499-1.5V11a1.49 1.49 0 0 0-.711-1.276m-6.287 12.277a3.504 3.504 0 0 1-3.5 3.5h-12a3.504 3.504 0 0 1-3.5-3.5V10a3.504 3.504 0 0 1 3.5-3.5h12a3.505 3.505 0 0 1 3.5 3.5zm5.998-1a.505.505 0 0 1-.68.471l-4.318-2.744v-5.454l4.274-2.722A.5.5 0 0 1 28.5 11z"/></svg>