<svg xmlns="http://www.w3.org/2000/svg" width="32" height="32" viewBox="0 0 32 32"><path d="M26.443 8H23.2a1.86 1.86 0 0 1-1.44-.65l-.84-.98A3.694 3.694 0 0 0 18 5h-4a3.66 3.66 0 0 0-2.88 1.33l-.91 1.057A1.843 1.843 0 0 1 8.8 8H5.6A3.432 3.432 0 0 0 2 11.223v12.541A3.436 3.436 0 0 0 5.6 27h20.8a3.432 3.432 0 0 0 3.6-3.224V11.223A3.407 3.407 0 0 0 26.444 8ZM28 23.776A1.471 1.471 0 0 1 26.4 25H5.6A1.473 1.473 0 0 1 4 23.764v-12.54A1.47 1.47 0 0 1 5.6 10h3.2a3.801 3.801 0 0 0 2.957-1.347l.91-1.056A1.678 1.678 0 0 1 14.002 7h4a1.708 1.708 0 0 1 1.37.634l.838.978A3.824 3.824 0 0 0 23.2 10h3.244A1.423 1.423 0 0 1 28 11.223v12.553Z"/><path d="M16 12a5 5 0 1 0 0 10 5 5 0 0 0 0-10Zm0 8a3 3 0 1 1 0-6.001 3 3 0 0 1 0 6Z"/></svg>