<svg xmlns="http://www.w3.org/2000/svg" width="32" height="32" viewBox="0 0 32 32"><path d="M28.917 9.51a1.762 1.762 0 0 0-1.767-.038l-3.399 2.16V10a4.755 4.755 0 0 0-4.75-4.75h-12A4.755 4.755 0 0 0 2.251 10v12a4.755 4.755 0 0 0 4.75 4.75h12a4.756 4.756 0 0 0 4.75-4.75v-1.634l3.466 2.2A1.75 1.75 0 0 0 29.748 21V11a1.74 1.74 0 0 0-.83-1.49ZM22.251 22a3.254 3.254 0 0 1-3.25 3.25h-12A3.254 3.254 0 0 1 3.751 22V10a3.254 3.254 0 0 1 3.25-3.25h12a3.254 3.254 0 0 1 3.25 3.25v12Zm5.997-1a.244.244 0 0 1-.118.213.304.304 0 0 1-.175.048L23.75 18.59v-5.18l4.137-2.634a.239.239 0 0 1 .241.01.245.245 0 0 1 .12.214v10Z"/><path d="M13.005 11.25a4.75 4.75 0 1 0 0 9.5 4.75 4.75 0 0 0 0-9.5Zm0 8a3.25 3.25 0 1 1 0-6.5 3.25 3.25 0 0 1 0 6.5Z"/></svg>