<svg xmlns="http://www.w3.org/2000/svg" width="32" height="32" viewBox="0 0 32 32"><path d="M29.052 9.299a1.99 1.99 0 0 0-2.036-.038l-3.014 1.917v-1.177a5.005 5.005 0 0 0-5-5h-12a5 5 0 0 0-.547.04L4.707 3.293a1 1 0 0 0-1.414 1.414l24 24a1 1 0 0 0 1.414-1.414l-4.745-4.746a5 5 0 0 0 .04-.546v-1.178l3.014 1.915q.044.028.089.05A2 2 0 0 0 30 21.002V11a1.99 1.99 0 0 0-.948-1.701M8.415 7h10.587a3.003 3.003 0 0 1 3 3v10.587zm15.587 11.452v-4.905L28 11.005v9.989zM19.002 25h-12a3.004 3.004 0 0 1-3-3V10c.004-.488.128-.969.362-1.398L2.908 7.146A4.96 4.96 0 0 0 2.002 10v12a5.006 5.006 0 0 0 5 5h12c1.023-.001 2.02-.318 2.855-.906l-1.456-1.457c-.43.235-.91.36-1.399.363"/></svg>