<svg xmlns="http://www.w3.org/2000/svg" width="32" height="32" viewBox="0 0 32 32"><path d="M21 16a5 5 0 1 0-10 0 5 5 0 0 0 10 0m-8 0a3 3 0 1 1 6.001 0 3 3 0 0 1-6 0M27 19a1 1 0 0 0-1 1v3a3.003 3.003 0 0 1-3 3H9a3.003 3.003 0 0 1-3-3v-4.586l2.294 2.293a1 1 0 1 0 1.414-1.414l-4-4a1 1 0 0 0-1.414 0l-4 4a1 1 0 1 0 1.414 1.414L4 18.414V23a5.006 5.006 0 0 0 5 5h14a5.006 5.006 0 0 0 5-5v-3a1 1 0 0 0-1-1M31.707 11.293a1 1 0 0 0-1.414 0L28 13.586V8.999a5.005 5.005 0 0 0-5-5H9a5.006 5.006 0 0 0-5 5v3a1 1 0 1 0 2 0V9a3.003 3.003 0 0 1 3-3h14a3.003 3.003 0 0 1 3 3v4.587l-2.293-2.293A.998.998 0 0 0 22 12a1 1 0 0 0 .293.707l4 4a1 1 0 0 0 1.414 0l4-4a1 1 0 0 0 0-1.414"/></svg>