<svg xmlns="http://www.w3.org/2000/svg" width="32" height="32" viewBox="0 0 32 32"><path d="M26.383 3.076A1 1 0 0 1 27 4v1h1a1 1 0 0 1 .707 1.707l-3 3A1 1 0 0 1 25 10h-1.586l-1.816 1.816A10.46 10.46 0 0 1 24 18.5C24 24.299 19.299 29 13.5 29S3 24.299 3 18.5 7.701 8 13.5 8c2.54 0 4.868.901 6.684 2.402L22 8.586V7a1 1 0 0 1 .293-.707l3-3a1 1 0 0 1 1.09-.217m-10.555 14.51a2.5 2.5 0 1 1-1.414-1.414l1.482-1.482a4.5 4.5 0 1 0 1.414 1.414zm1.507-4.335 1.427-1.427a8.5 8.5 0 1 0 1.414 1.414l-1.427 1.427a6.5 6.5 0 1 1-1.414-1.414"/></svg>