<svg xmlns="http://www.w3.org/2000/svg" width="32" height="32" viewBox="0 0 32 32"><path fill-rule="evenodd" stroke-linecap="round" stroke-linejoin="round" d="M23 8.293V7l3-3v2h2l-3 3h-1.293l-2.791 2.791A9.963 9.963 0 0 1 23.5 18.5c0 5.523-4.477 10-10 10s-10-4.477-10-10 4.477-10 10-10c2.581 0 4.935.978 6.709 2.584L23 8.293ZM13.5 9.5c2.305 0 4.408.867 6 2.292l-2.126 2.127a6 6 0 1 0 .707.707l2.127-2.127a9 9 0 1 1-6.708-3Zm0 4c1.2 0 2.302.423 3.164 1.129l-2.517 2.517a1.5 1.5 0 1 0 .707.707l2.518-2.517A5 5 0 1 1 13.5 13.5Z" clip-rule="evenodd"/></svg>