<svg xmlns="http://www.w3.org/2000/svg" width="32" height="32" viewBox="0 0 32 32"><path fill-rule="evenodd" d="M23 7.94V7l3-3v2h2l-3 3h-.94l-2.801 2.802A10.21 10.21 0 0 1 23.75 18.5c0 5.66-4.59 10.25-10.25 10.25S3.25 24.16 3.25 18.5 7.84 8.25 13.5 8.25c2.56 0 4.902.939 6.698 2.491L23 7.94Zm-9.5 1.81c2.146 0 4.112.773 5.634 2.055l-1.777 1.777a6.25 6.25 0 1 0 1.06 1.06l1.778-1.776A8.75 8.75 0 1 1 13.5 9.75Zm0 4c1.041 0 2.004.335 2.787.903l-2.398 2.398A1.503 1.503 0 0 0 12 18.5a1.5 1.5 0 1 0 2.95-.389l2.397-2.398A4.75 4.75 0 1 1 13.5 13.75Z" clip-rule="evenodd"/><path fill-rule="evenodd" d="M26.287 3.307A.75.75 0 0 1 26.75 4v1.25H28a.75.75 0 0 1 .53 1.28l-3 3a.75.75 0 0 1-.53.22h-.629l-2.104 2.105A10.955 10.955 0 0 1 24.5 18.5c0 6.075-4.925 11-11 11s-11-4.925-11-11 4.925-11 11-11c2.496 0 4.8.832 6.645 2.233L22.25 7.63V7a.75.75 0 0 1 .22-.53l3-3a.75.75 0 0 1 .817-.163ZM23.75 7.311v.628a.75.75 0 0 1-.22.53.75.75 0 0 1 .53-.219h.63l1.5-1.5H26a.75.75 0 0 1-.75-.75v-.19l-1.5 1.5Zm-4.042 3.998a9.46 9.46 0 0 0-.09-.077.75.75 0 0 1 .047 1.103.75.75 0 0 1 1.104.048 9.465 9.465 0 0 1-.078-.09.75.75 0 0 1 .037-1.02.75.75 0 0 1-1.02.036ZM13.5 10.5a8 8 0 1 0 6.618 3.504l-.722.721a7 7 0 1 1-2.121-2.121l.722-.722A7.96 7.96 0 0 0 13.5 10.5Zm3.394 3.672a5.473 5.473 0 0 0-.167-.126.75.75 0 0 1 .09 1.137.75.75 0 0 1 1.137.09 5.478 5.478 0 0 1-.126-.167.75.75 0 0 1 .059-.993.75.75 0 0 1-.993.059ZM13.5 14.5a4 4 0 1 0 3.684 2.438l-1.437 1.437a2.25 2.25 0 1 1-2.121-2.121l1.436-1.438A3.986 3.986 0 0 0 13.5 14.5Zm0 3.25a.75.75 0 1 0 .725.555.75.75 0 0 1 .194-.724.75.75 0 0 1-.724.194.756.756 0 0 0-.195-.025Z" clip-rule="evenodd"/></svg>