<svg xmlns="http://www.w3.org/2000/svg" width="32" height="32" viewBox="0 0 32 32"><path d="M26.191 3.538A.5.5 0 0 1 26.5 4v1.5H28a.5.5 0 0 1 .354.854l-3 3A.5.5 0 0 1 25 9.5h-1.793l-2.291 2.291A9.963 9.963 0 0 1 23.5 18.5c0 5.523-4.477 10-10 10s-10-4.477-10-10 4.477-10 10-10c2.581 0 4.935.978 6.709 2.584L22.5 8.793V7a.5.5 0 0 1 .146-.354l3-3a.5.5 0 0 1 .545-.108ZM20.208 12.5l-2.127 2.127a6 6 0 1 1-.707-.707l2.127-2.127a9 9 0 1 0 .707.707Zm-3.544 2.13a5 5 0 1 0 .707.707l-2.148 2.148a2 2 0 1 1-.707-.707l2.148-2.149Z"/></svg>