<svg xmlns="http://www.w3.org/2000/svg" width="32" height="32" viewBox="0 0 32 32"><path fill-rule="evenodd" d="M23 7.586V7l3-3v2h2l-3 3h-.586l-2.816 2.816A10.458 10.458 0 0 1 24 18.5C24 24.299 19.299 29 13.5 29S3 24.299 3 18.5 7.701 8 13.5 8c2.54 0 4.868.901 6.684 2.402L23 7.586ZM13.5 10c1.987 0 3.814.682 5.262 1.824l-1.427 1.427a6.5 6.5 0 1 0 1.414 1.414l1.427-1.427A8.5 8.5 0 1 1 13.5 10Zm0 4c.88 0 1.702.253 2.396.69l-2.313 2.312a1.5 1.5 0 1 0 1.414 1.414l2.313-2.312A4.5 4.5 0 1 1 13.5 14Z" clip-rule="evenodd"/><path fill-rule="evenodd" d="M26.383 3.076A1 1 0 0 1 27 4v1h1a1 1 0 0 1 .707 1.707l-3 3A1 1 0 0 1 25 10h-.172l-1.905 1.906A11.452 11.452 0 0 1 25 18.5C25 24.851 19.851 30 13.5 30S2 24.851 2 18.5 7.149 7 13.5 7c2.452 0 4.727.769 6.594 2.077L22 7.172V7a1 1 0 0 1 .293-.707l3-3a1 1 0 0 1 1.09-.217Zm-1.32 3.275L24 7.414v.172a1 1 0 0 1-.293.707A1 1 0 0 1 24.414 8h.172l1.063-1.063a1.003 1.003 0 0 1-.586-.586Zm-5.516 4.822a9.457 9.457 0 0 0-.166-.134 1 1 0 0 1 .088 1.492 1 1 0 0 1 1.492.088 9.463 9.463 0 0 1-.134-.166 1 1 0 0 1 .064-1.344 1 1 0 0 1-1.344.064Zm-5.883-.171Zm3.08 3.056a5.469 5.469 0 0 0-.315-.214 1 1 0 0 1 .174 1.553 1 1 0 0 1 1.553.174 5.477 5.477 0 0 1-.214-.315 1 1 0 0 1 .1-1.298 1 1 0 0 1-1.298.1Zm4.252 4.201ZM13.5 15a3.5 3.5 0 1 0 3.446 2.883l-.97.97a2.5 2.5 0 1 1-2.83-2.828l.971-.97A3.534 3.534 0 0 0 13.5 15Zm0 3a.5.5 0 1 0 .5.482v-.01a1 1 0 0 1 .29-.763 1 1 0 0 1-.79.291Z" clip-rule="evenodd"/></svg>