<svg xmlns="http://www.w3.org/2000/svg" width="32" height="32" viewBox="0 0 32 32"><path d="M26.287 3.307A.75.75 0 0 1 26.75 4v1.25H28a.75.75 0 0 1 .53 1.28l-3 3a.75.75 0 0 1-.53.22h-1.69l-2.051 2.052A10.2 10.2 0 0 1 23.75 18.5c0 5.66-4.59 10.25-10.25 10.25S3.25 24.16 3.25 18.5 7.84 8.25 13.5 8.25c2.56 0 4.902.939 6.698 2.491L22.25 8.69V7a.75.75 0 0 1 .22-.53l3-3a.75.75 0 0 1 .817-.163M15.531 17.53a2.25 2.25 0 1 1-1.06-1.06l1.816-1.817a4.75 4.75 0 1 0 1.06 1.06zm1.826-3.948 1.777-1.777a8.75 8.75 0 1 0 1.06 1.06l-1.776 1.778a6.25 6.25 0 1 1-1.06-1.06"/></svg>