<svg xmlns="http://www.w3.org/2000/svg" width="32" height="32" viewBox="0 0 32 32"><path d="M26.257 4.47a.75.75 0 0 0-1.064 1.059 10.436 10.436 0 0 1 3.061 7.456 10.632 10.632 0 0 1-3.123 7.486.75.75 0 1 0 1.064 1.057 12.125 12.125 0 0 0 3.56-8.537 11.925 11.925 0 0 0-3.498-8.52ZM21.79 7.527a.75.75 0 1 0-1.163.947 7.112 7.112 0 0 1 .194 8.8 7.64 7.64 0 0 1-.195.254.75.75 0 1 0 1.164.945c.08-.099.159-.2.235-.303a8.613 8.613 0 0 0-.235-10.643ZM3.742 12.985a10.434 10.434 0 0 1 3.06-7.455A.75.75 0 1 0 5.74 4.47a11.921 11.921 0 0 0-3.498 8.52 12.127 12.127 0 0 0 3.56 8.538.75.75 0 0 0 1.064-1.057 10.638 10.638 0 0 1-3.124-7.487ZM11.371 8.476a.75.75 0 0 0 .138-.258c.029-.094.039-.193.029-.291a.749.749 0 0 0-1.326-.402 8.611 8.611 0 0 0-.005 10.946.75.75 0 0 0 1.168-.941 7.11 7.11 0 0 1-.197-8.805c.063-.085.127-.168.193-.249ZM17.944 11.055a2.75 2.75 0 0 0-3.888 3.89c.332.328.743.565 1.194.688V27a.75.75 0 1 0 1.5 0V15.633c.45-.123.862-.36 1.195-.688a2.754 2.754 0 0 0 0-3.89Zm-1.06 2.83a1.25 1.25 0 1 1-1.766-1.77 1.25 1.25 0 0 1 1.766 1.77Z"/></svg>