<svg xmlns="http://www.w3.org/2000/svg" width="32" height="32" viewBox="0 0 32 32"><path d="M26.433 4.294a1 1 0 0 0-1.417 1.41 10.186 10.186 0 0 1 2.988 7.28 10.383 10.383 0 0 1-3.05 7.31 1 1 0 0 0 1.418 1.41 12.374 12.374 0 0 0 3.632-8.712 12.172 12.172 0 0 0-3.57-8.698Z"/><path d="M21.984 7.369a1 1 0 1 0-1.55 1.263 6.863 6.863 0 0 1 .188 8.493 7.877 7.877 0 0 1-.19.245 1.001 1.001 0 0 0 .88 1.625.998.998 0 0 0 .672-.365 8.863 8.863 0 0 0 0-11.262ZM3.992 12.984A10.182 10.182 0 0 1 6.98 5.706a1 1 0 0 0-1.417-1.412 12.174 12.174 0 0 0-3.571 8.698 12.377 12.377 0 0 0 3.632 8.713 1 1 0 0 0 1.419-1.41 10.387 10.387 0 0 1-3.051-7.311Z"/><path d="M11.565 8.635a1 1 0 1 0-1.546-1.27 8.861 8.861 0 0 0-.006 11.263 1 1 0 1 0 1.557-1.256 7.121 7.121 0 0 1-.19-.245 6.86 6.86 0 0 1 .185-8.492ZM18.12 10.877a3 3 0 0 0-4.241 4.244c.316.314.7.552 1.12.697V27a1 1 0 0 0 2 0V15.818a2.964 2.964 0 0 0 1.123-.697 3.006 3.006 0 0 0 0-4.243h-.001Zm-2.828 1.416a1 1 0 1 1 1.416 1.414 1 1 0 0 1-1.416-1.414Z"/></svg>