<svg xmlns="http://www.w3.org/2000/svg" width="32" height="32" viewBox="0 0 32 32"><path d="M26.257 4.47a.75.75 0 0 0-1.064 1.059 10.44 10.44 0 0 1 3.061 7.456 10.63 10.63 0 0 1-3.123 7.486.75.75 0 1 0 1.064 1.057 12.13 12.13 0 0 0 3.56-8.537 11.93 11.93 0 0 0-3.498-8.52M21.79 7.527a.75.75 0 1 0-1.163.947q.1.123.194.249a7.11 7.11 0 0 1 0 8.552 8 8 0 0 1-.195.253.748.748 0 0 0 .659 1.223.75.75 0 0 0 .505-.278q.12-.148.235-.303a8.61 8.61 0 0 0-.235-10.643M3.742 12.985a10.43 10.43 0 0 1 3.06-7.455A.75.75 0 0 0 5.74 4.47a11.92 11.92 0 0 0-3.498 8.52 12.13 12.13 0 0 0 3.56 8.538.75.75 0 0 0 1.064-1.057 10.64 10.64 0 0 1-3.124-7.487M11.371 8.476a.8.8 0 0 0 .138-.258q.044-.142.029-.291a.749.749 0 0 0-1.326-.402 8.611 8.611 0 0 0-.005 10.946.75.75 0 0 0 1.168-.941 7.11 7.11 0 0 1-.197-8.805q.094-.128.193-.249M17.944 11.055a2.75 2.75 0 0 0-3.888 3.89c.332.328.743.565 1.194.688V27a.75.75 0 1 0 1.5 0V15.633c.45-.123.862-.36 1.195-.688a2.754 2.754 0 0 0 0-3.89m-1.06 2.83a1.25 1.25 0 1 1-1.766-1.77 1.25 1.25 0 0 1 1.766 1.77"/></svg>