<svg xmlns="http://www.w3.org/2000/svg" width="32" height="32" viewBox="0 0 32 32"><path d="M26.433 4.294a1 1 0 0 0-1.417 1.41 10.19 10.19 0 0 1 2.988 7.28 10.38 10.38 0 0 1-3.05 7.31 1 1 0 0 0 1.418 1.41 12.37 12.37 0 0 0 3.632-8.712 12.17 12.17 0 0 0-3.57-8.698M21.984 7.369a1 1 0 1 0-1.55 1.263q.096.119.186.24a6.86 6.86 0 0 1 .001 8.253 8 8 0 0 1-.19.245 1.001 1.001 0 0 0 .88 1.625 1 1 0 0 0 .673-.365q.124-.152.242-.311a8.86 8.86 0 0 0-.242-10.95M3.992 12.984A10.18 10.18 0 0 1 6.98 5.706a1 1 0 0 0-1.417-1.412 12.17 12.17 0 0 0-3.571 8.698 12.38 12.38 0 0 0 3.632 8.714 1 1 0 0 0 1.419-1.41 10.39 10.39 0 0 1-3.051-7.312M11.565 8.635a1 1 0 1 0-1.546-1.27 8.861 8.861 0 0 0-.006 11.263 1 1 0 1 0 1.557-1.256 7 7 0 0 1-.19-.245 6.86 6.86 0 0 1 .185-8.492M18.12 10.877a3 3 0 0 0-4.241 4.244c.316.314.7.552 1.12.697V27a1 1 0 0 0 2 0V15.818a3 3 0 0 0 1.123-.697 3.006 3.006 0 0 0 0-4.243zm-2.828 1.416a1 1 0 1 1 1.416 1.414 1 1 0 0 1-1.416-1.414"/></svg>