<svg xmlns="http://www.w3.org/2000/svg" width="32" height="32" viewBox="0 0 32 32"><path d="M26.08 4.647a.5.5 0 0 0-.71.705 10.68 10.68 0 0 1 3.134 7.634 10.88 10.88 0 0 1-3.196 7.66.499.499 0 0 0 .547.815.5.5 0 0 0 .162-.109 11.88 11.88 0 0 0 3.487-8.362 11.68 11.68 0 0 0-3.425-8.343M21.597 7.684a.5.5 0 0 0-.776.633 7.363 7.363 0 0 1-.002 9.368.5.5 0 0 0 .777.63q.117-.144.229-.294a8.36 8.36 0 0 0-.229-10.337M3.492 12.986a10.68 10.68 0 0 1 3.134-7.633.5.5 0 1 0-.71-.705 11.68 11.68 0 0 0-3.424 8.342 11.88 11.88 0 0 0 3.486 8.363.5.5 0 1 0 .71-.705 10.89 10.89 0 0 1-3.196-7.662M11.179 8.318a.501.501 0 1 0-.774-.635 8 8 0 0 0-.23.296 8.36 8.36 0 0 0 0 10.042q.11.15.227.293a.5.5 0 1 0 .779-.627 9 9 0 0 1-.203-.26 7.36 7.36 0 0 1 .2-9.11M14.232 11.232a2.497 2.497 0 0 0 1.268 4.215V27a.5.5 0 0 0 1 0V15.447a2.5 2.5 0 1 0-2.268-4.215m2.829 2.829a1.499 1.499 0 1 1-2.117-2.123 1.499 1.499 0 0 1 2.117 2.123"/></svg>