<svg xmlns="http://www.w3.org/2000/svg" width="32" height="32" viewBox="0 0 32 32"><path d="M26.08 4.647a.5.5 0 0 0-.71.705 10.681 10.681 0 0 1 3.134 7.634 10.879 10.879 0 0 1-3.196 7.66.499.499 0 0 0 .547.815.5.5 0 0 0 .162-.109 11.876 11.876 0 0 0 3.487-8.362 11.675 11.675 0 0 0-3.425-8.343ZM21.596 7.684a.5.5 0 0 0-.775.633 7.363 7.363 0 0 1-.002 9.368.5.5 0 0 0 .777.63 8.362 8.362 0 0 0 0-10.632ZM3.492 12.986a10.681 10.681 0 0 1 3.134-7.633.5.5 0 1 0-.71-.705 11.675 11.675 0 0 0-3.424 8.342 11.881 11.881 0 0 0 3.486 8.363.5.5 0 1 0 .71-.705 10.885 10.885 0 0 1-3.196-7.662ZM11.178 8.318a.501.501 0 1 0-.773-.635 7.69 7.69 0 0 0-.23.296 8.359 8.359 0 0 0 0 10.042c.073.1.15.197.227.293a.5.5 0 1 0 .779-.627 8.918 8.918 0 0 1-.203-.26 7.361 7.361 0 0 1 .2-9.11ZM14.232 11.232a2.497 2.497 0 0 0 1.268 4.215V27a.5.5 0 0 0 1 0V15.447a2.5 2.5 0 1 0-2.268-4.215Zm2.829 2.829a1.499 1.499 0 1 1-2.117-2.123 1.499 1.499 0 0 1 2.117 2.123Z"/></svg>