<svg xmlns="http://www.w3.org/2000/svg" width="32" height="32" viewBox="0 0 32 32"><path d="M29 9.5a.5.5 0 0 1-.5-.5V7A3.5 3.5 0 0 0 25 3.5h-2a.5.5 0 0 1 0-1h2A4.5 4.5 0 0 1 29.5 7v2a.5.5 0 0 1-.5.5m-26 13a.5.5 0 0 1 .5.5v2A3.5 3.5 0 0 0 7 28.5h2a.5.5 0 0 1 0 1H7A4.5 4.5 0 0 1 2.5 25v-2a.5.5 0 0 1 .5-.5m20 6a.5.5 0 0 0 0 1h2a4.5 4.5 0 0 0 4.5-4.5v-2a.5.5 0 0 0-1 0v2a3.5 3.5 0 0 1-3.5 3.5zM9.5 3a.5.5 0 0 1-.5.5H7A3.5 3.5 0 0 0 3.5 7v2a.5.5 0 0 1-1 0V7A4.5 4.5 0 0 1 7 2.5h2a.5.5 0 0 1 .5.5M8 6.5A1.5 1.5 0 0 0 6.5 8v16A1.5 1.5 0 0 0 8 25.5h16a1.5 1.5 0 0 0 1.5-1.5V8A1.5 1.5 0 0 0 24 6.5zM7.5 8a.5.5 0 0 1 .5-.5h16a.5.5 0 0 1 .5.5v16a.5.5 0 0 1-.5.5H8a.5.5 0 0 1-.5-.5z"/></svg>