<svg xmlns="http://www.w3.org/2000/svg" width="32" height="32" viewBox="0 0 32 32"><path d="M29 10a1 1 0 0 1-1-1V7a3 3 0 0 0-3-3h-2a1 1 0 1 1 0-2h2a5 5 0 0 1 5 5v2a1 1 0 0 1-1 1M3 22a1 1 0 0 1 1 1v2a3 3 0 0 0 3 3h2a1 1 0 1 1 0 2H7a5 5 0 0 1-5-5v-2a1 1 0 0 1 1-1m20 6a1 1 0 1 0 0 2h2a5 5 0 0 0 5-5v-2a1 1 0 1 0-2 0v2a3 3 0 0 1-3 3zM10 3a1 1 0 0 1-1 1H7a3 3 0 0 0-3 3v2a1 1 0 0 1-2 0V7a5 5 0 0 1 5-5h2a1 1 0 0 1 1 1M8 6a2 2 0 0 0-2 2v16a2 2 0 0 0 2 2h16a2 2 0 0 0 2-2V8a2 2 0 0 0-2-2zm0 2h16v16H8z"/></svg>