<svg xmlns="http://www.w3.org/2000/svg" width="32" height="32" viewBox="0 0 32 32"><path d="M29 9.75a.75.75 0 0 1-.75-.75V7A3.25 3.25 0 0 0 25 3.75h-2a.75.75 0 0 1 0-1.5h2A4.75 4.75 0 0 1 29.75 7v2a.75.75 0 0 1-.75.75M3 22.25a.75.75 0 0 1 .75.75v2A3.25 3.25 0 0 0 7 28.25h2a.75.75 0 0 1 0 1.5H7A4.75 4.75 0 0 1 2.25 25v-2a.75.75 0 0 1 .75-.75m20 6a.75.75 0 0 0 0 1.5h2A4.75 4.75 0 0 0 29.75 25v-2a.75.75 0 0 0-1.5 0v2A3.25 3.25 0 0 1 25 28.25zM9.75 3a.75.75 0 0 1-.75.75H7A3.25 3.25 0 0 0 3.75 7v2a.75.75 0 0 1-1.5 0V7A4.75 4.75 0 0 1 7 2.25h2a.75.75 0 0 1 .75.75M8 6.25A1.75 1.75 0 0 0 6.25 8v16c0 .966.784 1.75 1.75 1.75h16A1.75 1.75 0 0 0 25.75 24V8A1.75 1.75 0 0 0 24 6.25zM7.75 8A.25.25 0 0 1 8 7.75h16a.25.25 0 0 1 .25.25v16a.25.25 0 0 1-.25.25H8a.25.25 0 0 1-.25-.25z"/></svg>