<svg xmlns="http://www.w3.org/2000/svg" width="32" height="32" viewBox="0 0 32 32"><path d="M28.419 16.052a.192.192 0 0 1 0-.143l1.209-3.016a1.712 1.712 0 0 0-.696-2.088l-2.825-1.76a.23.23 0 0 1-.102-.13l-.876-3.112a1.77 1.77 0 0 0-1.802-1.268l-3.373.166a.37.37 0 0 1-.201-.06l-2.625-2.02a1.808 1.808 0 0 0-2.205.004L12.29 4.652a.29.29 0 0 1-.206.063L8.714 4.56a1.771 1.771 0 0 0-1.802 1.27l-.888 3.114a.242.242 0 0 1-.108.137l-2.831 1.768a1.719 1.719 0 0 0-.7 2.086l1.195 3.012.001.002a.187.187 0 0 1-.001.142l-1.208 3.016a1.713 1.713 0 0 0 .696 2.088l2.823 1.757c.05.03.087.077.104.133l.876 3.112a1.74 1.74 0 0 0 1.802 1.268l3.37-.166a.346.346 0 0 1 .204.061l2.625 2.019a1.81 1.81 0 0 0 2.205-.003l2.634-2.029a.33.33 0 0 1 .204-.062l3.371.155a1.734 1.734 0 0 0 1.802-1.27l.889-3.115a.244.244 0 0 1 .107-.136l2.83-1.768a1.716 1.716 0 0 0 .701-2.086l-1.196-3.013Zm-.184-3.717-1.208 3.017a1.687 1.687 0 0 0-.002 1.254l1.196 3.013a.213.213 0 0 1-.102.26l-2.831 1.768a1.743 1.743 0 0 0-.755.997l-.889 3.116a.317.317 0 0 1-.289.182l-3.374-.155a1.835 1.835 0 0 0-1.186.373l-2.633 2.027a.315.315 0 0 1-.376.002l-2.624-2.017a1.808 1.808 0 0 0-1.105-.373c-.029 0-.057 0-.086.002l-3.371.167a.283.283 0 0 1-.286-.178l-.876-3.111a1.732 1.732 0 0 0-.753-1L3.86 19.922a.209.209 0 0 1-.096-.257l1.208-3.018c.161-.402.162-.85.002-1.253l-1.196-3.012a.213.213 0 0 1 .102-.261l2.829-1.768c.367-.227.637-.582.757-.997l.888-3.115a.283.283 0 0 1 .29-.183l3.37.155a1.78 1.78 0 0 0 1.191-.372l2.632-2.028a.317.317 0 0 1 .377-.002l2.623 2.018c.337.267.762.4 1.191.37l3.373-.166a.29.29 0 0 1 .284.177l.875 3.11c.117.416.387.773.754 1l2.824 1.759a.207.207 0 0 1 .096.256Z"/><path d="m20.512 12.431-6.471 5.547-2.51-2.522a.75.75 0 0 0-1.062 1.058l3 3.016a.75.75 0 0 0 1.02.04l7-6a.75.75 0 0 0-.977-1.139Z"/></svg>