<svg xmlns="http://www.w3.org/2000/svg" width="32" height="32" viewBox="0 0 32 32"><path d="M19 9.5H9a.5.5 0 1 0 0 1h10a.5.5 0 1 0 0-1M9 13.5a.5.5 0 1 0 0 1h4a.5.5 0 1 0 0-1zM24.354 18.647a.5.5 0 0 0-.707 0L22 20.293l-1.646-1.646a.5.5 0 1 0-.707.707L21.293 21l-1.646 1.646a.5.5 0 1 0 .707.707L22 21.708l1.646 1.646a.5.5 0 0 0 .707 0 .5.5 0 0 0 0-.707L22.708 21l1.646-1.646a.5.5 0 0 0 0-.707"/><path fill-rule="evenodd" d="M23 3.5H7A4.505 4.505 0 0 0 2.5 8v10c0 2.481 2.019 4.5 4.5 4.5h7.5v.986c0 .395.16.78.438 1.059l3.517 3.517c.278.278.664.438 1.059.438h4.972c.395 0 .78-.16 1.059-.438l3.517-3.517c.278-.278.438-.664.438-1.059v-4.971c0-.4-.156-.778-.44-1.06l-1.56-1.561V8c0-2.481-2.019-4.5-4.5-4.5m3.5 11.394V8c0-1.93-1.57-3.5-3.5-3.5H7C5.07 4.5 3.5 6.07 3.5 8v10c0 1.93 1.57 3.5 3.5 3.5h7.5v-2.986c0-.395.16-.78.438-1.059l3.517-3.516a1.5 1.5 0 0 1 1.059-.439h4.971c.4 0 .778.156 1.061.44zm-11 8.592a.5.5 0 0 0 .145.352l3.517 3.517a.5.5 0 0 0 .352.145h4.972a.5.5 0 0 0 .352-.145l3.517-3.517a.5.5 0 0 0 .145-.352v-4.971a.5.5 0 0 0-.146-.354l-3.515-3.515a.5.5 0 0 0-.354-.146h-4.971a.5.5 0 0 0-.352.145l-3.516 3.517a.5.5 0 0 0-.146.352z" clip-rule="evenodd"/></svg>