<svg xmlns="http://www.w3.org/2000/svg" width="32" height="32" fill="none" viewBox="0 0 32 32"><path fill="#000" d="M23 3H7C4.243 3 2 5.243 2 8v10c0 2.757 2.243 5 5 5h8a1 1 0 1 0 0-2H7c-1.654 0-3-1.346-3-3V8c0-1.654 1.346-3 3-3h16c1.654 0 3 1.346 3 3v8a1 1 0 1 0 2 0V8c0-2.757-2.243-5-5-5Z"/><path fill="#000" d="M19 9H9a1 1 0 1 0 0 2h10a1 1 0 1 0 0-2ZM8 14a1 1 0 0 1 1-1h4a1 1 0 1 1 0 2H9a1 1 0 0 1-1-1Z"/><path fill="#AB0A15" d="M23.293 18.293a1 1 0 1 1 1.414 1.414L23.414 21l1.293 1.293a1 1 0 1 1-1.414 1.414L22 22.414l-1.293 1.293a.997.997 0 0 1-1.414 0 1 1 0 0 1 0-1.414L20.586 21l-1.293-1.293a1 1 0 1 1 1.414-1.414L22 19.586l1.293-1.293Z"/><path fill="#AB0A15" fill-rule="evenodd" d="m25.9 13.586 3.514 3.515c.378.378.586.88.586 1.414v4.971c0 .526-.213 1.04-.585 1.413l-3.517 3.516a2.01 2.01 0 0 1-1.412.585h-4.972a2.01 2.01 0 0 1-1.412-.585L14.585 24.9A2.01 2.01 0 0 1 14 23.486v-4.972c0-.526.213-1.04.585-1.412l3.517-3.517c.369-.37.884-.585 1.412-.585h4.971c.535 0 1.037.208 1.415.586Zm-6.384 13.415h4.97L28 23.483v-4.97L24.485 15h-4.971L16 18.516v4.97l3.516 3.515Z" clip-rule="evenodd"/></svg>