<svg xmlns="http://www.w3.org/2000/svg" width="32" height="32" fill="none" viewBox="0 0 32 32"><path fill="#000" d="M23 3.25H7C4.38 3.25 2.25 5.38 2.25 8v10c0 2.62 2.13 4.75 4.75 4.75h8c.41 0 .75-.34.75-.75s-.34-.75-.75-.75H7c-1.79 0-3.25-1.46-3.25-3.25V8c0-1.79 1.46-3.25 3.25-3.25h16c1.79 0 3.25 1.46 3.25 3.25v8c0 .41.34.75.75.75s.75-.34.75-.75V8c0-2.62-2.13-4.75-4.75-4.75Z"/><path fill="#000" d="M19 9.25H9c-.41 0-.75.34-.75.75s.34.75.75.75h10c.41 0 .75-.34.75-.75s-.34-.75-.75-.75ZM8.25 14c0-.41.34-.75.75-.75h4c.41 0 .75.34.75.75s-.34.75-.75.75H9c-.41 0-.75-.34-.75-.75Z"/><path fill="#0353A8" d="m21 21.94 3.47-3.47c.29-.29.77-.29 1.06 0 .29.29.29.77 0 1.06l-4 4c-.15.15-.34.22-.53.22s-.38-.07-.53-.22l-2-2a.754.754 0 0 1 0-1.06c.29-.29.77-.29 1.06 0L21 21.94Z"/><path fill="#0353A8" fill-rule="evenodd" d="M14.25 21c0-4.27 3.48-7.75 7.75-7.75s7.75 3.48 7.75 7.75-3.48 7.75-7.75 7.75-7.75-3.48-7.75-7.75Zm1.5 0c0 3.45 2.8 6.25 6.25 6.25s6.25-2.8 6.25-6.25-2.8-6.25-6.25-6.25-6.25 2.8-6.25 6.25Z" clip-rule="evenodd"/></svg>