<svg xmlns="http://www.w3.org/2000/svg" width="32" height="32" viewBox="0 0 32 32"><path d="M19 9.25H9c-.41 0-.75.34-.75.75s.34.75.75.75h10c.41 0 .75-.34.75-.75s-.34-.75-.75-.75M9 13.25c-.41 0-.75.34-.75.75s.34.75.75.75h4c.41 0 .75-.34.75-.75s-.34-.75-.75-.75zM24.47 18.47 21 21.94l-1.47-1.47a.754.754 0 0 0-1.06 0c-.29.29-.29.77 0 1.06l2 2c.15.15.34.22.53.22s.38-.07.53-.22l4-4c.29-.29.29-.77 0-1.06a.754.754 0 0 0-1.06 0M23 3.25H7C4.38 3.25 2.25 5.38 2.25 8v10c0 2.62 2.13 4.75 4.75 4.75h7.45c.796 3.431 3.881 6 7.55 6 4.27 0 7.75-3.48 7.75-7.75a7.72 7.72 0 0 0-2-5.188V8c0-2.62-2.13-4.75-4.75-4.75m3.25 11.274A7.7 7.7 0 0 0 22 13.25c-4.27 0-7.75 3.48-7.75 7.75q0 .126.004.25H7c-1.79 0-3.25-1.46-3.25-3.25V8c0-1.79 1.46-3.25 3.25-3.25h16c1.79 0 3.25 1.46 3.25 3.25zM22 27.25c-3.45 0-6.25-2.8-6.25-6.25s2.8-6.25 6.25-6.25 6.25 2.8 6.25 6.25-2.8 6.25-6.25 6.25"/></svg>