<svg xmlns="http://www.w3.org/2000/svg" width="32" height="32" viewBox="0 0 32 32"><path d="M28.188 16.145a.448.448 0 0 1 0-.33l1.207-3.015a1.462 1.462 0 0 0-.595-1.783l-2.825-1.759a.475.475 0 0 1-.21-.276l-.876-3.11a1.509 1.509 0 0 0-1.55-1.087l-3.372.166a.603.603 0 0 1-.366-.112L16.977 2.82a1.563 1.563 0 0 0-1.9.002L12.442 4.85a.557.557 0 0 1-.37.115l-3.37-.155a1.504 1.504 0 0 0-1.55 1.09l-.888 3.112a.494.494 0 0 1-.216.28l-2.831 1.77a1.469 1.469 0 0 0-.6 1.781l1.195 3.012v.001a.448.448 0 0 1 0 .328L2.605 19.2a1.464 1.464 0 0 0 .595 1.783l2.823 1.757a.484.484 0 0 1 .212.277l.876 3.112a1.492 1.492 0 0 0 1.55 1.086l3.37-.166a.598.598 0 0 1 .368.113l2.626 2.018a1.56 1.56 0 0 0 1.899-.002l2.635-2.029a.615.615 0 0 1 .367-.114l3.372.155a1.5 1.5 0 0 0 1.549-1.089l.888-3.114a.501.501 0 0 1 .216-.28l2.83-1.768a1.467 1.467 0 0 0 .602-1.782l-1.195-3.012Zm.064 3.947-2.831 1.767c-.314.195-.545.5-.647.855l-.888 3.114a.55.55 0 0 1-.541.364l-3.374-.156a1.57 1.57 0 0 0-1.023.321l-2.634 2.028a.567.567 0 0 1-.68.002L13.01 26.37a1.556 1.556 0 0 0-.952-.321c-.025 0-.05 0-.075.002l-3.372.167a.546.546 0 0 1-.537-.36l-.876-3.112a1.483 1.483 0 0 0-.645-.855l-2.824-1.757a.459.459 0 0 1-.197-.563l1.21-3.017c.137-.342.137-.725 0-1.068l-1.195-3.012a.463.463 0 0 1 .201-.565l2.83-1.768c.314-.194.545-.499.648-.854l.888-3.114a.508.508 0 0 1 .542-.365l3.371.155c.37.021.734-.093 1.026-.32l2.632-2.028a.568.568 0 0 1 .682-.002L18.99 5.63c.292.228.657.342 1.027.319l3.373-.166a.521.521 0 0 1 .536.36l.876 3.11c.1.355.33.66.645.855l2.823 1.759a.457.457 0 0 1 .198.561l-1.21 3.017a1.44 1.44 0 0 0 0 1.07l1.195 3.011a.462.462 0 0 1-.201.566Z"/><path d="m20.675 12.62-6.648 5.699-2.672-2.686a.5.5 0 1 0-.71.705l3 3.015a.5.5 0 0 0 .68.027l7-6a.501.501 0 1 0-.65-.76Z"/></svg>