<svg xmlns="http://www.w3.org/2000/svg" width="32" height="32" fill="none" viewBox="0 0 32 32"><path fill="#000" d="M23 3.25H7C4.38 3.25 2.25 5.38 2.25 8v10c0 2.62 2.13 4.75 4.75 4.75h8a.75.75 0 0 0 0-1.5H7A3.254 3.254 0 0 1 3.75 18V8A3.254 3.254 0 0 1 7 4.75h16A3.254 3.254 0 0 1 26.25 8v8a.75.75 0 0 0 1.5 0V8c0-2.62-2.13-4.75-4.75-4.75Z"/><path fill="#000" d="M19 9.25H9a.75.75 0 0 0 0 1.5h10a.75.75 0 0 0 0-1.5ZM8.25 14a.75.75 0 0 1 .75-.75h4a.75.75 0 0 1 0 1.5H9a.75.75 0 0 1-.75-.75Z"/><path fill="#AB0A15" d="M23.47 18.47a.75.75 0 1 1 1.06 1.06L23.06 21l1.47 1.47a.75.75 0 1 1-1.06 1.06L22 22.06l-1.47 1.47a.746.746 0 0 1-1.06 0 .75.75 0 0 1 0-1.06L20.94 21l-1.47-1.47a.75.75 0 1 1 1.06-1.06L22 19.94l1.47-1.47Z"/><path fill="#AB0A15" fill-rule="evenodd" d="m25.723 13.763 3.514 3.514c.331.33.513.77.513 1.238v4.971c0 .46-.186.91-.512 1.236l-3.516 3.516a1.76 1.76 0 0 1-1.236.512h-4.972c-.46 0-.91-.186-1.236-.512l-3.516-3.516a1.76 1.76 0 0 1-.512-1.236v-4.972c0-.46.187-.91.512-1.236l3.516-3.516a1.76 1.76 0 0 1 1.236-.512h4.971c.468 0 .908.182 1.238.513Zm2.455 9.898a.249.249 0 0 0 .072-.175v-4.971a.25.25 0 0 0-.073-.177l-3.515-3.515a.25.25 0 0 0-.177-.073h-4.971a.249.249 0 0 0-.175.072l-3.517 3.517a.249.249 0 0 0-.072.175v4.972c0 .066.026.13.072.175l3.517 3.517c.046.046.11.072.175.072h4.972a.249.249 0 0 0 .175-.072l3.517-3.517Z" clip-rule="evenodd"/></svg>