<svg xmlns="http://www.w3.org/2000/svg" width="32" height="32" viewBox="0 0 32 32"><path d="M28.188 16.145a.45.45 0 0 1 0-.33l1.207-3.015a1.46 1.46 0 0 0-.595-1.783l-2.825-1.759a.48.48 0 0 1-.21-.276l-.876-3.11a1.51 1.51 0 0 0-1.55-1.087l-3.372.166a.6.6 0 0 1-.366-.112L16.977 2.82a1.56 1.56 0 0 0-1.9.002L12.442 4.85a.56.56 0 0 1-.37.115l-3.37-.155a1.504 1.504 0 0 0-1.55 1.09l-.888 3.112a.5.5 0 0 1-.216.28l-2.831 1.77a1.47 1.47 0 0 0-.6 1.781l1.195 3.012v.001a.45.45 0 0 1 0 .328L2.605 19.2a1.464 1.464 0 0 0 .595 1.783l2.823 1.757a.48.48 0 0 1 .212.277l.876 3.112a1.49 1.49 0 0 0 1.55 1.086l3.37-.166a.6.6 0 0 1 .368.113l2.626 2.018a1.56 1.56 0 0 0 1.899-.002l2.635-2.029a.6.6 0 0 1 .367-.114l3.372.155a1.5 1.5 0 0 0 1.549-1.089l.888-3.114a.5.5 0 0 1 .216-.28l2.83-1.768a1.47 1.47 0 0 0 .602-1.782zm.064 3.947-2.831 1.767c-.314.195-.545.5-.647.855l-.888 3.114a.55.55 0 0 1-.541.364l-3.374-.156a1.57 1.57 0 0 0-1.023.321l-2.634 2.028a.57.57 0 0 1-.68.002L13.01 26.37a1.56 1.56 0 0 0-.952-.321q-.038 0-.075.002l-3.372.167a.55.55 0 0 1-.537-.36l-.876-3.112a1.48 1.48 0 0 0-.645-.855l-2.824-1.757a.46.46 0 0 1-.197-.563l1.21-3.017c.137-.342.137-.725 0-1.068l-1.195-3.012a.46.46 0 0 1 .201-.565l2.83-1.768c.314-.194.545-.499.648-.854l.888-3.114a.51.51 0 0 1 .542-.365l3.371.155c.37.021.734-.093 1.026-.32l2.632-2.028a.57.57 0 0 1 .682-.002L18.99 5.63c.292.228.657.342 1.027.319l3.373-.166a.52.52 0 0 1 .536.36l.876 3.11c.1.355.33.66.645.855l2.823 1.759a.46.46 0 0 1 .198.561l-1.21 3.017a1.44 1.44 0 0 0 0 1.07l1.195 3.011a.46.46 0 0 1-.201.566M20.675 12.62l-6.648 5.699-2.672-2.686a.5.5 0 1 0-.71.705l3 3.015a.5.5 0 0 0 .68.027l7-6a.501.501 0 1 0-.65-.76"/></svg>