<svg xmlns="http://www.w3.org/2000/svg" width="32" height="32" viewBox="0 0 32 32"><path d="M19 9H9c-.55 0-1 .45-1 1s.45 1 1 1h10c.55 0 1-.45 1-1s-.45-1-1-1M9 13c-.55 0-1 .45-1 1s.45 1 1 1h4c.55 0 1-.45 1-1s-.45-1-1-1zM24.29 18.29 21 21.58l-1.29-1.29a.996.996 0 1 0-1.41 1.41l2 2c.2.2.45.29.71.29s.51-.1.71-.29l4-4a.996.996 0 1 0-1.41-1.41zM23 3H7C4.24 3 2 5.24 2 8v10c0 2.76 2.24 5 5 5h7.253c.891 3.446 4.027 6 7.747 6 4.41 0 8-3.59 8-8a7.97 7.97 0 0 0-2-5.285V8c0-2.76-2.24-5-5-5m3 11.074A7.95 7.95 0 0 0 22 13c-4.41 0-8 3.59-8 8H7c-1.65 0-3-1.35-3-3V8c0-1.65 1.35-3 3-3h16c1.65 0 3 1.35 3 3zM22 27c-3.31 0-6-2.69-6-6s2.69-6 6-6 6 2.69 6 6-2.69 6-6 6"/></svg>