<svg xmlns="http://www.w3.org/2000/svg" width="32" height="32" viewBox="0 0 32 32"><path d="M19 9H9a1 1 0 1 0 0 2h10a1 1 0 1 0 0-2M9 13a1 1 0 1 0 0 2h4a1 1 0 1 0 0-2zM24.707 18.293a1 1 0 0 0-1.414 0L22 19.586l-1.293-1.293a1 1 0 1 0-1.414 1.414L20.586 21l-1.293 1.293a1 1 0 1 0 1.414 1.414L22 22.414l1.293 1.293a.997.997 0 0 0 1.414 0 1 1 0 0 0 0-1.414L23.414 21l1.293-1.293a1 1 0 0 0 0-1.414M23 3H7C4.243 3 2 5.243 2 8v10c0 2.757 2.243 5 5 5h7v.486c0 .526.213 1.04.585 1.412l3.517 3.517a2 2 0 0 0 1.412.585h4.972a2 2 0 0 0 1.412-.585l3.517-3.517c.372-.372.585-.886.585-1.412v-4.971c0-.535-.208-1.037-.586-1.415L28 15.687V8c0-2.757-2.243-5-5-5m3 10.686-.1-.1A1.99 1.99 0 0 0 24.485 13h-4.971c-.528 0-1.043.214-1.412.585l-3.517 3.517A2 2 0 0 0 14 18.514V21H7c-1.654 0-3-1.346-3-3V8c0-1.654 1.346-3 3-3h16c1.654 0 3 1.346 3 3zm-10 9.8v-4.97L19.514 15h4.971L28 18.515v4.97L24.486 27h-4.97z"/></svg>