<svg xmlns="http://www.w3.org/2000/svg" width="32" height="32" viewBox="0 0 32 32"><path d="m28.652 16.002 1.208-3.017a1.961 1.961 0 0 0-.797-2.392l-2.817-1.747-.876-3.109a1.988 1.988 0 0 0-2.055-1.452l-3.41.157-2.624-2.018a2.056 2.056 0 0 0-2.51.002l-2.674 2.039-3.373-.156A2.02 2.02 0 0 0 6.672 5.76L5.783 8.87l-2.829 1.767a1.967 1.967 0 0 0-.802 2.391l1.188 2.991-1.2 2.996a1.961 1.961 0 0 0 .796 2.392l2.818 1.747.877 3.111a2.017 2.017 0 0 0 2.055 1.451l3.409-.158 2.625 2.02a2.058 2.058 0 0 0 2.51-.004l2.673-2.038 3.373.155a2.028 2.028 0 0 0 2.052-1.451l.889-3.108 2.828-1.768a1.964 1.964 0 0 0 .803-2.39l-1.196-2.971Zm-1.86.697 1.194 2.968-2.828 1.767c-.42.26-.728.666-.865 1.14l-.926 3.118-3.371-.155c-.487-.02-.965.13-1.354.425l-2.704 2.029-2.626-2.02a2.057 2.057 0 0 0-1.25-.422c-.035 0-.069 0-.104.002l-3.402.17-.876-3.11a1.982 1.982 0 0 0-.864-1.143l-2.819-1.71 1.208-3.018c.185-.462.186-.978.001-1.44l-1.192-2.967 2.828-1.768c.42-.26.728-.666.865-1.14l.926-3.118 3.37.156c.488.02.967-.13 1.355-.425l2.704-2.029 2.625 2.02c.388.295.867.444 1.354.42l3.403-.171.876 3.11c.135.476.443.884.864 1.144l2.819 1.71-1.208 3.017a1.94 1.94 0 0 0-.002 1.44Z"/><path d="m20.35 12.24-6.296 5.396-2.345-2.356a.998.998 0 0 0-1.632.32 1 1 0 0 0 .214 1.09l3 3.015a.998.998 0 0 0 1.36.054l7-6a1 1 0 0 0-1.301-1.518Z"/></svg>