<svg xmlns="http://www.w3.org/2000/svg" width="32" height="32" fill="none" viewBox="0 0 32 32"><path fill="#000" d="M23 3.5H7A4.505 4.505 0 0 0 2.5 8v10c0 2.481 2.019 4.5 4.5 4.5h8a.5.5 0 1 0 0-1H7c-1.93 0-3.5-1.57-3.5-3.5V8c0-1.93 1.57-3.5 3.5-3.5h16c1.93 0 3.5 1.57 3.5 3.5v8a.5.5 0 1 0 1 0V8c0-2.481-2.019-4.5-4.5-4.5Z"/><path fill="#000" d="M19 9.5H9a.5.5 0 1 0 0 1h10a.5.5 0 1 0 0-1ZM8.5 14a.5.5 0 0 1 .5-.5h4a.5.5 0 1 1 0 1H9a.5.5 0 0 1-.5-.5Z"/><path fill="#AB0A15" d="M23.646 18.646a.5.5 0 1 1 .707.707L22.707 21l1.646 1.646a.5.5 0 1 1-.707.707L22 21.707l-1.646 1.646a.498.498 0 0 1-.707 0 .5.5 0 0 1 0-.707L21.293 21l-1.646-1.646a.5.5 0 1 1 .707-.707L22 20.293l1.646-1.646Z"/><path fill="#AB0A15" fill-rule="evenodd" d="m25.546 13.94 3.515 3.514c.283.283.439.66.44 1.06v4.972c0 .395-.161.78-.44 1.059l-3.516 3.517a1.508 1.508 0 0 1-1.059.438h-4.972c-.395 0-.78-.16-1.059-.438l-3.516-3.517a1.508 1.508 0 0 1-.439-1.059v-4.972c0-.395.16-.78.438-1.059l3.517-3.516a1.508 1.508 0 0 1 1.059-.439h4.971c.4 0 .778.156 1.061.44Zm2.809 9.898a.5.5 0 0 0 .145-.352v-4.971a.496.496 0 0 0-.146-.354l-3.515-3.515a.496.496 0 0 0-.354-.146h-4.971a.5.5 0 0 0-.352.145l-3.516 3.517a.5.5 0 0 0-.146.352v4.972a.5.5 0 0 0 .145.352l3.517 3.517a.5.5 0 0 0 .352.145h4.972a.5.5 0 0 0 .352-.145l3.517-3.517Z" clip-rule="evenodd"/></svg>