<svg xmlns="http://www.w3.org/2000/svg" width="32" height="32" viewBox="0 0 32 32"><path d="M19 9.5H9c-.28 0-.5.22-.5.5s.22.5.5.5h10c.28 0 .5-.22.5-.5s-.22-.5-.5-.5M9 13.5c-.28 0-.5.22-.5.5s.22.5.5.5h4c.28 0 .5-.22.5-.5s-.22-.5-.5-.5zM24.65 18.65 21 22.3l-1.65-1.65c-.2-.2-.51-.2-.71 0s-.2.51 0 .71l2 2a.485.485 0 0 0 .7 0l4-4c.2-.2.2-.51 0-.71s-.51-.2-.71 0zM23 3.5H7C4.52 3.5 2.5 5.52 2.5 8v10c0 2.48 2.02 4.5 4.5 4.5h7.65a7.506 7.506 0 0 0 7.35 6c4.14 0 7.5-3.36 7.5-7.5 0-1.968-.759-3.76-2-5.097V8c0-2.48-2.02-4.5-4.5-4.5M26.5 15a7.47 7.47 0 0 0-4.5-1.5 7.503 7.503 0 0 0-7.484 8H7c-1.93 0-3.5-1.57-3.5-3.5V8c0-1.93 1.57-3.5 3.5-3.5h16c1.93 0 3.5 1.57 3.5 3.5zM22 27.5c-3.58 0-6.5-2.92-6.5-6.5s2.92-6.5 6.5-6.5 6.5 2.92 6.5 6.5-2.92 6.5-6.5 6.5"/></svg>