<svg xmlns="http://www.w3.org/2000/svg" width="32" height="32" fill="none" viewBox="0 0 32 32"><path fill="#000" d="M23 3.5H7C4.52 3.5 2.5 5.52 2.5 8v10c0 2.48 2.02 4.5 4.5 4.5h8c.28 0 .5-.22.5-.5s-.22-.5-.5-.5H7c-1.93 0-3.5-1.57-3.5-3.5V8c0-1.93 1.57-3.5 3.5-3.5h16c1.93 0 3.5 1.57 3.5 3.5v8c0 .28.22.5.5.5s.5-.22.5-.5V8c0-2.48-2.02-4.5-4.5-4.5Z"/><path fill="#000" d="M19 9.5H9c-.28 0-.5.22-.5.5s.22.5.5.5h10c.28 0 .5-.22.5-.5s-.22-.5-.5-.5ZM8.5 14c0-.28.22-.5.5-.5h4c.28 0 .5.22.5.5s-.22.5-.5.5H9c-.28 0-.5-.22-.5-.5Z"/><path fill="#0353A8" d="m21 22.3 3.65-3.65h-.02c.2-.2.51-.2.71 0 .2.2.2.51 0 .71l-4 4a.485.485 0 0 1-.7 0l-2-2c-.2-.2-.2-.51 0-.71.2-.2.51-.2.71 0L21 22.3Z"/><path fill="#0353A8" fill-rule="evenodd" d="M14.5 21c0-4.14 3.36-7.5 7.5-7.5 4.14 0 7.5 3.36 7.5 7.5 0 4.14-3.36 7.5-7.5 7.5-4.14 0-7.5-3.36-7.5-7.5Zm1 0c0 3.58 2.92 6.5 6.5 6.5s6.5-2.92 6.5-6.5-2.92-6.5-6.5-6.5-6.5 2.92-6.5 6.5Z" clip-rule="evenodd"/></svg>