<svg xmlns="http://www.w3.org/2000/svg" width="32" height="32" fill="none" viewBox="0 0 32 32"><path fill="#000" d="M23 3H7C4.24 3 2 5.24 2 8v10c0 2.76 2.24 5 5 5h8c.55 0 1-.45 1-1s-.45-1-1-1H7c-1.65 0-3-1.35-3-3V8c0-1.65 1.35-3 3-3h16c1.65 0 3 1.35 3 3v8c0 .55.45 1 1 1s1-.45 1-1V8c0-2.76-2.24-5-5-5Z"/><path fill="#000" d="M19 9H9c-.55 0-1 .45-1 1s.45 1 1 1h10c.55 0 1-.45 1-1s-.45-1-1-1ZM8 14c0-.55.45-1 1-1h4c.55 0 1 .45 1 1s-.45 1-1 1H9c-.55 0-1-.45-1-1Z"/><path fill="#0353A8" d="m21 21.58 3.29-3.29h.02a.996.996 0 1 1 1.41 1.41l-4 4c-.2.19-.45.29-.71.29-.26 0-.51-.09-.71-.29l-2-2a.996.996 0 1 1 1.41-1.41L21 21.58Z"/><path fill="#0353A8" fill-rule="evenodd" d="M14 21c0-4.41 3.59-8 8-8s8 3.59 8 8-3.59 8-8 8-8-3.59-8-8Zm2 0c0 3.31 2.69 6 6 6s6-2.69 6-6-2.69-6-6-6-6 2.69-6 6Z" clip-rule="evenodd"/></svg>