<svg xmlns="http://www.w3.org/2000/svg" width="32" height="32" viewBox="0 0 32 32"><path d="M19 9.25H9a.75.75 0 0 0 0 1.5h10a.75.75 0 0 0 0-1.5M9 13.25a.75.75 0 0 0 0 1.5h4a.75.75 0 0 0 0-1.5zM24.53 18.47a.75.75 0 0 0-1.06 0L22 19.94l-1.47-1.47a.75.75 0 1 0-1.06 1.06L20.94 21l-1.47 1.47a.75.75 0 1 0 1.06 1.06L22 22.06l1.47 1.47a.746.746 0 0 0 1.06 0 .75.75 0 0 0 0-1.06L23.06 21l1.47-1.47a.75.75 0 0 0 0-1.06M23 3.25H7C4.38 3.25 2.25 5.38 2.25 8v10c0 2.62 2.13 4.75 4.75 4.75h7.25v.736c0 .46.187.91.512 1.236l3.516 3.516a1.76 1.76 0 0 0 1.236.512h4.972c.46 0 .91-.186 1.236-.512l3.516-3.516a1.76 1.76 0 0 0 .512-1.236v-4.971c0-.468-.182-.908-.513-1.238L27.75 15.79V8c0-2.62-2.13-4.75-4.75-4.75m3.25 11.04-.527-.527a1.74 1.74 0 0 0-1.238-.513h-4.971c-.46 0-.91.187-1.236.512l-3.516 3.516a1.76 1.76 0 0 0-.512 1.236v2.736H7A3.254 3.254 0 0 1 3.75 18V8A3.254 3.254 0 0 1 7 4.75h16A3.254 3.254 0 0 1 26.25 8zm-10.5 7.722v-3.498c0-.066.026-.13.072-.175l3.517-3.517a.25.25 0 0 1 .175-.072h4.971a.25.25 0 0 1 .177.073l3.515 3.515a.25.25 0 0 1 .073.177v4.971a.25.25 0 0 1-.072.175l-3.517 3.517a.25.25 0 0 1-.175.072h-4.972a.25.25 0 0 1-.175-.072l-3.517-3.517a.25.25 0 0 1-.072-.175z"/></svg>