<svg xmlns="http://www.w3.org/2000/svg" width="32" height="32" viewBox="0 0 32 32"><path d="M25 11.75a.75.75 0 0 1-.75-.75V7.75H21a.75.75 0 1 1 0-1.5h3.25V3a.75.75 0 1 1 1.5 0v3.25H29a.75.75 0 0 1 0 1.5h-3.25V11a.75.75 0 0 1-.75.75Z"/><path d="M11.12 27.78a12.751 12.751 0 0 0 13.351-2.248l3.998 3.998a.746.746 0 0 0 .947.093.75.75 0 0 0 .114-1.154l-3.998-3.998A12.743 12.743 0 0 0 28.75 16a.75.75 0 1 0-1.5 0 11.214 11.214 0 0 1-1.852 6.19 11.274 11.274 0 0 1-13.632 4.236 11.177 11.177 0 0 1-1.956-1.029 11.362 11.362 0 0 1-3.207-3.207 11.213 11.213 0 0 1-1.647-4.041 11.313 11.313 0 0 1 0-4.299 11.2 11.2 0 0 1 1.647-4.04A11.364 11.364 0 0 1 9.81 6.603 11.2 11.2 0 0 1 16 4.75a.75.75 0 0 0 0-1.5 12.75 12.75 0 0 0-4.88 24.53Z"/></svg>