<svg xmlns="http://www.w3.org/2000/svg" width="32" height="32" viewBox="0 0 32 32"><path d="M3.5 13A9.5 9.5 0 0 1 13 3.5c1.352 0 2.637.282 3.8.79a.5.5 0 0 0 .4-.916A10.5 10.5 0 0 0 13 2.5C7.201 2.5 2.5 7.201 2.5 13S7.201 23.5 13 23.5c2.72 0 5.198-1.034 7.063-2.73l8.584 8.584a.5.5 0 0 0 .707-.708l-8.584-8.583a10.5 10.5 0 0 0 2.4-4.438.5.5 0 0 0-.97-.25C21.147 19.473 17.427 22.5 13 22.5A9.5 9.5 0 0 1 3.5 13M25 2.5a.5.5 0 0 1 .5.5v3.5H29a.5.5 0 0 1 0 1h-3.5V11a.5.5 0 0 1-1 0V7.5H21a.5.5 0 0 1 0-1h3.5V3a.5.5 0 0 1 .5-.5"/></svg>