<svg xmlns="http://www.w3.org/2000/svg" width="32" height="32" viewBox="0 0 32 32"><path d="M3.75 13A9.25 9.25 0 0 1 13 3.75c1.317 0 2.568.275 3.7.77a.75.75 0 0 0 .6-1.375A10.7 10.7 0 0 0 13 2.25C7.063 2.25 2.25 7.063 2.25 13S7.063 23.75 13 23.75c2.699 0 5.165-.994 7.053-2.637l8.417 8.417a.75.75 0 1 0 1.06-1.06l-8.417-8.417a10.7 10.7 0 0 0 2.298-4.366.75.75 0 0 0-1.452-.374A9.25 9.25 0 0 1 3.75 13M25 2.25a.75.75 0 0 1 .75.75v3.25H29a.75.75 0 0 1 0 1.5h-3.25V11a.75.75 0 0 1-1.5 0V7.75H21a.75.75 0 0 1 0-1.5h3.25V3a.75.75 0 0 1 .75-.75"/></svg>