<svg xmlns="http://www.w3.org/2000/svg" width="32" height="32" viewBox="0 0 32 32"><path d="M25.174 24.467c.464-.494.888-1.026 1.266-1.588a12.473 12.473 0 0 0 2.06-6.88.5.5 0 0 0-1 0 11.48 11.48 0 0 1-1.894 6.328 11.525 11.525 0 0 1-13.933 4.332c-.7-.284-1.37-.637-2-1.053a11.627 11.627 0 0 1-3.279-3.278 11.49 11.49 0 0 1 1.474-14.46c.55-.55 1.155-1.044 1.805-1.474a11.4 11.4 0 0 1 4.13-1.683c.724-.14 1.46-.211 2.197-.211a.5.5 0 1 0 0-1 12.439 12.439 0 0 0-6.878 2.06A12.573 12.573 0 0 0 5.56 9.122a12.458 12.458 0 0 0-1.832 4.491 12.578 12.578 0 0 0 0 4.773c.311 1.603.934 3.13 1.832 4.493a12.605 12.605 0 0 0 3.562 3.561 12.44 12.44 0 0 0 2.175 1.146 12.537 12.537 0 0 0 9.406-.001c.761-.309 1.49-.692 2.176-1.145a12.604 12.604 0 0 0 1.588-1.266l4.18 4.18a.5.5 0 1 0 .706-.708l-4.179-4.179ZM21 7.5h3.5V11a.5.5 0 0 0 1 0V7.5H29a.5.5 0 1 0 0-1h-3.5V3a.5.5 0 0 0-1 0v3.5H21a.5.5 0 0 0 0 1Z"/></svg>