<svg xmlns="http://www.w3.org/2000/svg" width="32" height="32" viewBox="0 0 32 32"><path d="M7.001 6.5a3 3 0 0 0-3 3v10A3 3 0 0 0 5.7 22.198l.001.001.049.023a1 1 0 0 1 .567.902v.057a1 1 0 0 1-.116.469 6.3 6.3 0 0 1-1.468 1.829c1.069.09 2.649-.173 4.028-1.217l.027-.02c.123-.087.277-.215.473-.385l.142-.124c.15-.131.316-.276.476-.409.214-.177.462-.368.72-.518.23-.134.595-.312 1.02-.306H25a3 3 0 0 0 3-3v-10a3 3 0 0 0-3-3zM3.836 26.12l.009-.008zm-.37-20.156A5 5 0 0 1 7 4.5h18a5 5 0 0 1 5 5v10a5 5 0 0 1-5 5H11.668l-.064.035a4 4 0 0 0-.452.331c-.137.113-.271.23-.415.356l-.166.145c-.19.166-.407.35-.617.499-1.907 1.439-4.104 1.768-5.617 1.582a4.6 4.6 0 0 1-1.066-.25c-.301-.113-.639-.289-.893-.568-.283-.31-.502-.812-.302-1.377.162-.459.531-.742.834-.913.39-.241.737-.543 1.028-.892A5 5 0 0 1 2.001 19.5V9.5a5 5 0 0 1 1.465-3.536M14 9.5a1 1 0 0 1 1 1v1h2v-1a1 1 0 1 1 2 0v1h1a1 1 0 1 1 0 2h-1v2h1a1 1 0 1 1 0 2h-1v1a1 1 0 1 1-2 0v-1h-2v1a1 1 0 1 1-2 0v-1h-1a1 1 0 1 1 0-2h1v-2h-1a1 1 0 1 1 0-2h1v-1a1 1 0 0 1 1-1m1 6h2v-2h-2z"/></svg>