<svg xmlns="http://www.w3.org/2000/svg" width="32" height="32" viewBox="0 0 32 32"><path d="M7.001 6.25a3.25 3.25 0 0 0-3.25 3.25v10a3.25 3.25 0 0 0 1.84 2.924l.05.024a.75.75 0 0 1 .425.676v.057a.75.75 0 0 1-.087.352 6 6 0 0 1-1.854 2.101q.184.047.424.077c1.123.138 2.858-.11 4.362-1.25l.02-.015a7 7 0 0 0 .492-.4l.146-.127c.149-.13.31-.272.468-.402.211-.174.447-.355.686-.494.22-.128.536-.278.893-.273h13.385a3.25 3.25 0 0 0 3.25-3.25v-10a3.25 3.25 0 0 0-3.25-3.25zm-3.358-.109A4.75 4.75 0 0 1 7 4.75h18a4.75 4.75 0 0 1 4.75 4.75v10a4.75 4.75 0 0 1-4.75 4.75H11.62c-.013.004-.058.02-.142.069a4 4 0 0 0-.486.355c-.14.115-.277.236-.422.362l-.163.143c-.192.166-.4.343-.6.485-1.85 1.397-3.982 1.714-5.44 1.536a4.4 4.4 0 0 1-1.007-.235c-.284-.107-.58-.265-.798-.503-.238-.262-.411-.67-.25-1.126.133-.377.443-.622.725-.78a4.5 4.5 0 0 0 1.257-1.157 4.75 4.75 0 0 1-2.043-3.898V9.5c0-1.26.5-2.468 1.392-3.359M14 9.75a.75.75 0 0 1 .75.75v1.25h2.5V10.5a.75.75 0 0 1 1.5 0v1.25H20a.75.75 0 0 1 0 1.5h-1.25v2.5H20a.75.75 0 0 1 0 1.5h-1.25v1.25a.75.75 0 0 1-1.5 0v-1.25h-2.5v1.25a.75.75 0 0 1-1.5 0v-1.25H12a.75.75 0 0 1 0-1.5h1.25v-2.5H12a.75.75 0 0 1 0-1.5h1.25V10.5a.75.75 0 0 1 .75-.75m.75 6h2.5v-2.5h-2.5z"/></svg>