<svg xmlns="http://www.w3.org/2000/svg" width="32" height="32" viewBox="0 0 32 32"><path d="M7.002 6a3.5 3.5 0 0 0-3.5 3.5v10a3.5 3.5 0 0 0 1.981 3.15l.05.023a.5.5 0 0 1 .283.451v.057a.5.5 0 0 1-.058.234 5.77 5.77 0 0 1-2.18 2.274q.075.05.223.106c.184.07.426.129.718.165 1.18.144 2.98-.117 4.543-1.3l.013-.01a7 7 0 0 0 .512-.415l.146-.127.003-.003c.148-.13.306-.268.46-.395.208-.172.431-.343.653-.472.208-.12.477-.243.765-.238h13.388a3.5 3.5 0 0 0 3.5-3.5v-10a3.5 3.5 0 0 0-3.5-3.5zm-3.182.318A4.5 4.5 0 0 1 7.002 5h18a4.5 4.5 0 0 1 4.5 4.5v10a4.5 4.5 0 0 1-4.5 4.5H11.598s-.019 0-.066.016a1 1 0 0 0-.18.087c-.15.087-.324.217-.519.378q-.212.178-.43.369l-.16.14a8 8 0 0 1-.584.473c-1.793 1.354-3.859 1.66-5.261 1.49a4.1 4.1 0 0 1-.95-.222c-.265-.1-.52-.24-.7-.438-.195-.213-.323-.527-.2-.874.104-.295.354-.502.616-.648.595-.367 1.1-.859 1.483-1.44a4.5 4.5 0 0 1-2.145-3.83V9.5A4.5 4.5 0 0 1 3.82 6.318M14 10a.5.5 0 0 1 .5.5V12h3v-1.5a.5.5 0 0 1 1 0V12H20a.5.5 0 0 1 0 1h-1.5v3H20a.5.5 0 0 1 0 1h-1.5v1.5a.5.5 0 0 1-1 0V17h-3v1.5a.5.5 0 0 1-1 0V17H12a.5.5 0 0 1 0-1h1.5v-3H12a.5.5 0 0 1 0-1h1.5v-1.5a.5.5 0 0 1 .5-.5m.5 6h3v-3h-3z"/></svg>