<svg xmlns="http://www.w3.org/2000/svg" width="32" height="32" viewBox="0 0 32 32"><path d="M16 27.5a11.5 11.5 0 0 1-5.388-1.337.5.5 0 0 0-.523.033 7.12 7.12 0 0 1-6.592.853q.146-.103.33-.217a6.42 6.42 0 0 0 2.863-3.7.5.5 0 0 0-.061-.465 11.46 11.46 0 0 1 .259-13.655l-.714-.713a12.46 12.46 0 0 0-.515 14.726 5.33 5.33 0 0 1-2.366 2.96c-.144.092-.275.174-.388.258a.98.98 0 0 0-.4.899 1 1 0 0 0 .586.811 7.3 7.3 0 0 0 2.884.552 8.03 8.03 0 0 0 4.44-1.32 12.47 12.47 0 0 0 13.287-1.36l-.714-.713A11.43 11.43 0 0 1 16 27.5M25.171 24.464A12.479 12.479 0 0 0 7.535 6.83L4.353 3.646a.5.5 0 0 0-.707.708l24 24a.5.5 0 0 0 .707-.708zM8.242 7.535a11.48 11.48 0 0 1 16.222 16.223z"/></svg>