<svg xmlns="http://www.w3.org/2000/svg" width="32" height="32" fill="none" viewBox="0 0 32 32"><path d="M17.916 4.663A11.491 11.491 0 0 0 6.623 22.65a.5.5 0 0 1 .072.434 6.7 6.7 0 0 1-3.186 3.942 7.064 7.064 0 0 0 6.542-.824.499.499 0 0 1 .32-.116h.004c.096 0 .188.028.266.076a11.493 11.493 0 0 0 16.68-12.08.5.5 0 0 1 .987-.166 12.492 12.492 0 0 1-17.899 13.251 8.065 8.065 0 0 1-7.32.769.999.999 0 0 1-.13-1.75 5.7 5.7 0 0 0 2.705-3.164 12.492 12.492 0 0 1 12.42-19.346.5.5 0 1 1-.168.986Z"/><path fill="#27A17A" d="M25 10a3 3 0 1 0 0-6 3 3 0 0 0 0 6Z"/></svg>