<svg xmlns="http://www.w3.org/2000/svg" width="32" height="32" viewBox="0 0 32 32"><path d="M28.762 27.807c-.07-.05-.15-.101-.238-.157a2.875 2.875 0 0 1-1.257-1.528 7.48 7.48 0 0 0-1.258-9.688 12.508 12.508 0 0 1-11.646 9.048 7.496 7.496 0 0 0 9.882 3.281c.781.486 1.683.742 2.603.738a4.48 4.48 0 0 0 1.77-.338.8.8 0 0 0 .398-1.042.777.777 0 0 0-.254-.314Z"/><path d="M24.5 13a10.5 10.5 0 1 0-19.21 5.865 4.98 4.98 0 0 1-1.144 1.798c-.24.223-.5.42-.78.588a5.713 5.713 0 0 0-.328.217.9.9 0 0 0-.367.825.913.913 0 0 0 .536.744 6.15 6.15 0 0 0 2.439.467 7.054 7.054 0 0 0 1.359-.15 6.647 6.647 0 0 0 2.345-.938A10.504 10.504 0 0 0 24.5 13Z"/></svg>