<svg xmlns="http://www.w3.org/2000/svg" width="32" height="32" viewBox="0 0 32 32"><path d="M16 27.25c-1.837 0-3.646-.45-5.27-1.308a.75.75 0 0 0-.786.05 6.9 6.9 0 0 1-5.885.988 6.73 6.73 0 0 0 2.865-3.76.75.75 0 0 0-.092-.697 11.23 11.23 0 0 1-.212-12.72L5.543 8.726a12.72 12.72 0 0 0-.165 14.328 5.05 5.05 0 0 1-2.219 2.72 7 7 0 0 0-.401.267 1.23 1.23 0 0 0-.501 1.126 1.26 1.26 0 0 0 .73 1.014 7.55 7.55 0 0 0 2.988.572 8.27 8.27 0 0 0 4.455-1.281 12.72 12.72 0 0 0 12.844-1.015l-1.078-1.077A11.2 11.2 0 0 1 16 27.25M25.516 24.456A12.729 12.729 0 0 0 7.544 6.484L4.53 3.47a.75.75 0 0 0-1.06 1.06l24 24a.75.75 0 0 0 1.06-1.06zM8.604 7.544a11.232 11.232 0 0 1 15.852 15.852z"/></svg>