<svg xmlns="http://www.w3.org/2000/svg" width="32" height="32" fill="none" viewBox="0 0 32 32"><path fill="#0F0F0F" d="M17.832 5.156a10.988 10.988 0 0 0-9.209 2.677 10.992 10.992 0 0 0-1.592 14.528 1 1 0 0 1 .143.867 7.2 7.2 0 0 1-2.485 3.62 6.565 6.565 0 0 0 5.06-1.044.999.999 0 0 1 .623-.217h.003c.185 0 .361.05.512.141A10.992 10.992 0 0 0 26.83 14.166a1 1 0 1 1 1.972-.332 12.994 12.994 0 0 1-18.36 13.905 8.564 8.564 0 0 1-7.557.654 1.5 1.5 0 0 1-.3-2.556c.044-.034.091-.064.14-.09a5.2 5.2 0 0 0 2.382-2.659A12.992 12.992 0 0 1 18.168 3.184a1 1 0 1 1-.336 1.972Z"/><path fill="#27A17A" d="M25 11a4 4 0 1 0 0-8 4 4 0 0 0 0 8Z"/></svg>