<svg xmlns="http://www.w3.org/2000/svg" width="32" height="32" viewBox="0 0 32 32"><path d="M28.91 27.606a5 5 0 0 0-.253-.168 2.56 2.56 0 0 1-1.107-1.294 7.74 7.74 0 0 0-3.01-11.03A10.748 10.748 0 0 0 7.231 4.65a10.75 10.75 0 0 0-2.225 14.24 4.07 4.07 0 0 1-1.775 2.149q-.19.118-.343.227a1.15 1.15 0 0 0-.466 1.051 1.18 1.18 0 0 0 .681.946c.806.334 1.67.5 2.543.488a7 7 0 0 0 3.719-1.05 10.8 10.8 0 0 0 4.082 1.017 7.748 7.748 0 0 0 10.783 5.327 5.15 5.15 0 0 0 4.489.344 1.047 1.047 0 0 0 .526-1.37 1 1 0 0 0-.336-.414M9.666 21.174a.75.75 0 0 0-.786.051 5.62 5.62 0 0 1-4.53.878 5.83 5.83 0 0 0 2.204-3.042.75.75 0 0 0-.092-.698 9.238 9.238 0 1 1 3.204 2.811m16.335 5.147c.241.725.655 1.38 1.207 1.909a3.7 3.7 0 0 1-2.493-.655.75.75 0 0 0-.787-.052 6.248 6.248 0 0 1-8.937-3.823 10.76 10.76 0 0 0 9.128-7.107 6.24 6.24 0 0 1 1.974 9.03.75.75 0 0 0-.092.698"/></svg>