<svg xmlns="http://www.w3.org/2000/svg" width="32" height="32" viewBox="0 0 32 32"><path d="M16 3.5A12.502 12.502 0 0 0 5.66 23.025a5.331 5.331 0 0 1-2.368 2.961c-.143.09-.273.174-.387.257a.98.98 0 0 0-.4.898.996.996 0 0 0 .586.812 7.28 7.28 0 0 0 2.884.552 8.028 8.028 0 0 0 4.438-1.32A12.502 12.502 0 1 0 16 3.5Zm0 24c-1.878 0-3.728-.459-5.388-1.337a.5.5 0 0 0-.524.034 7.125 7.125 0 0 1-6.591.853c.096-.072.207-.14.329-.218a6.41 6.41 0 0 0 2.864-3.7.5.5 0 0 0-.06-.464A11.5 11.5 0 1 1 16 27.5Z"/></svg>