<svg xmlns="http://www.w3.org/2000/svg" width="32" height="32" viewBox="0 0 32 32"><path d="M16 27c-1.796 0-3.565-.439-5.152-1.279a1 1 0 0 0-1.05.068 6.62 6.62 0 0 1-5.135 1.086 7.2 7.2 0 0 0 2.495-3.567 1 1 0 0 0-.122-.931 10.98 10.98 0 0 1-.632-11.74L4.951 9.185a12.95 12.95 0 0 0 .144 13.896 4.7 4.7 0 0 1-2.07 2.483 7 7 0 0 0-.415.276 1.48 1.48 0 0 0-.602 1.354 1.51 1.51 0 0 0 .876 1.215c.98.406 2.032.607 3.093.593a8.5 8.5 0 0 0 4.468-1.245A13.05 13.05 0 0 0 16 29c2.41-.001 4.77-.677 6.816-1.95l-1.454-1.454A10.9 10.9 0 0 1 16 27M25.861 24.447A12.983 12.983 0 0 0 7.552 6.14L4.707 3.293A.997.997 0 0 0 3.275 4.68L27.32 28.724a.997.997 0 0 0 1.388-1.431zM8.966 7.552a10.992 10.992 0 0 1 15.482 15.482z"/></svg>