<svg xmlns="http://www.w3.org/2000/svg" width="32" height="32" viewBox="0 0 32 32"><path d="M28.762 27.807a4.44 4.44 0 0 0-.238-.158 2.874 2.874 0 0 1-1.257-1.528 7.49 7.49 0 0 0-3.017-10.87A10.497 10.497 0 1 0 5.29 18.865a4.349 4.349 0 0 1-1.924 2.387c-.121.076-.23.146-.328.216a.902.902 0 0 0-.365.825.914.914 0 0 0 .536.744c.772.32 1.602.479 2.438.467a6.77 6.77 0 0 0 3.704-1.087 10.522 10.522 0 0 0 4.298 1.063 7.503 7.503 0 0 0 10.597 5.284c.781.485 1.683.741 2.602.738a4.47 4.47 0 0 0 1.77-.34.797.797 0 0 0 .4-1.04.775.775 0 0 0-.255-.315ZM9.549 21.395a.5.5 0 0 0-.524.034 5.851 5.851 0 0 1-5.264.756l.137-.088a5.418 5.418 0 0 0 2.422-3.124.501.501 0 0 0-.061-.465 9.486 9.486 0 1 1 3.29 2.887Zm15.021 6.383a.5.5 0 0 0-.524-.034 6.499 6.499 0 0 1-9.373-4.278 10.512 10.512 0 0 0 9.313-7.233 6.493 6.493 0 0 1 2.311 9.535.5.5 0 0 0-.061.466 4.032 4.032 0 0 0 1.58 2.148 3.958 3.958 0 0 1-3.246-.604Z"/></svg>