<svg xmlns="http://www.w3.org/2000/svg" width="32" height="32" viewBox="0 0 32 32"><path d="M16 27c-1.796 0-3.565-.439-5.152-1.279a1.002 1.002 0 0 0-1.05.068 6.62 6.62 0 0 1-5.135 1.086 7.219 7.219 0 0 0 2.495-3.567 1.002 1.002 0 0 0-.122-.931 10.975 10.975 0 0 1-.632-11.74L4.951 9.185a12.945 12.945 0 0 0 .144 13.896 4.708 4.708 0 0 1-2.07 2.483 6.956 6.956 0 0 0-.415.276 1.476 1.476 0 0 0-.602 1.354 1.51 1.51 0 0 0 .876 1.215c.98.406 2.032.607 3.093.593a8.523 8.523 0 0 0 4.468-1.245A13.047 13.047 0 0 0 16 29c2.41-.001 4.77-.677 6.816-1.95l-1.454-1.454A10.925 10.925 0 0 1 16 27ZM25.861 24.447A12.983 12.983 0 0 0 7.552 6.14L4.707 3.293A.997.997 0 0 0 3.275 4.68L27.32 28.724a.997.997 0 0 0 1.388-1.431l-2.846-2.846ZM8.966 7.552a10.992 10.992 0 0 1 15.482 15.482L8.966 7.552Z"/></svg>