<svg xmlns="http://www.w3.org/2000/svg" width="32" height="32" fill="none" viewBox="0 0 32 32"><path fill="#0F0F0F" d="m19.704 4.643-.008.024-.036.113a7.57 7.57 0 0 0-.285 2.037c0 1.272.337 2.834 1.655 4.153 1.319 1.318 2.878 1.655 4.146 1.655a7.52 7.52 0 0 0 2.03-.285l.112-.035.023-.008.003-.001a.75.75 0 0 1 .986.526 12.738 12.738 0 0 1-1.852 10.405 12.741 12.741 0 0 1-16.053 4.228 8.314 8.314 0 0 1-7.438.71 1.25 1.25 0 0 1-.25-2.13.753.753 0 0 1 .105-.068 5.45 5.45 0 0 0 2.544-2.91A12.742 12.742 0 0 1 19.204 3.663a.746.746 0 0 1 .511.949.84.84 0 0 1-.011.032Z"/><path fill="#27A17A" d="M25 11a4 4 0 1 0 0-8 4 4 0 0 0 0 8Z"/></svg>