<svg xmlns="http://www.w3.org/2000/svg" width="32" height="32" viewBox="0 0 32 32"><path d="M16 3.25A12.752 12.752 0 0 0 5.378 23.055a5.05 5.05 0 0 1-2.22 2.72c-.148.094-.283.18-.4.266a1.23 1.23 0 0 0-.502 1.126 1.26 1.26 0 0 0 .731 1.013 7.55 7.55 0 0 0 2.99.573 8.28 8.28 0 0 0 4.453-1.282A12.75 12.75 0 0 0 28.434 13.18 12.75 12.75 0 0 0 16 3.25m0 24a11.3 11.3 0 0 1-5.27-1.308.75.75 0 0 0-.787.051 6.89 6.89 0 0 1-5.884.987 6.73 6.73 0 0 0 2.865-3.76.75.75 0 0 0-.091-.698A11.25 11.25 0 1 1 16 27.25"/></svg>