<svg xmlns="http://www.w3.org/2000/svg" width="32" height="32" viewBox="0 0 32 32"><path d="M29.058 27.405a5 5 0 0 0-.267-.179 2.26 2.26 0 0 1-.957-1.065 8 8 0 0 0-3.02-11.192 10.996 10.996 0 1 0-20.09 3.946 3.74 3.74 0 0 1-1.626 1.914c-.131.083-.251.159-.357.237a1.4 1.4 0 0 0-.567 1.278 1.43 1.43 0 0 0 .827 1.148 7.29 7.29 0 0 0 6.38-.506c1.22.557 2.533.887 3.872.973a7.994 7.994 0 0 0 10.964 5.367 5.42 5.42 0 0 0 4.606.292 1.29 1.29 0 0 0 .236-2.213M9.783 20.953a1 1 0 0 0-1.048.068 5.37 5.37 0 0 1-3.773.932 6.47 6.47 0 0 0 1.826-2.805 1 1 0 0 0-.122-.93 8.99 8.99 0 1 1 3.117 2.735m16.106 4.525a1 1 0 0 0-.122.93c.2.573.495 1.109.872 1.585a3.4 3.4 0 0 1-1.78-.623 1 1 0 0 0-1.048-.068 6 6 0 0 1-8.493-3.389 11.02 11.02 0 0 0 8.931-6.95 5.99 5.99 0 0 1 1.64 8.515"/></svg>