<svg xmlns="http://www.w3.org/2000/svg" width="32" height="32" viewBox="0 0 32 32"><path d="M28.91 27.606a4.48 4.48 0 0 0-.253-.168 2.56 2.56 0 0 1-1.107-1.294 7.742 7.742 0 0 0-3.01-11.03A10.748 10.748 0 0 0 7.231 4.65a10.75 10.75 0 0 0-2.225 14.24 4.066 4.066 0 0 1-1.775 2.149c-.127.08-.241.153-.343.227a1.148 1.148 0 0 0-.466 1.051 1.177 1.177 0 0 0 .681.946c.806.334 1.67.5 2.543.488a7.02 7.02 0 0 0 3.719-1.05 10.78 10.78 0 0 0 4.082 1.017 7.748 7.748 0 0 0 10.783 5.327 5.152 5.152 0 0 0 4.489.344 1.047 1.047 0 0 0 .526-1.37 1.027 1.027 0 0 0-.336-.414ZM9.666 21.174a.753.753 0 0 0-.786.051 5.616 5.616 0 0 1-4.53.878 5.828 5.828 0 0 0 2.204-3.042.751.751 0 0 0-.092-.698 9.238 9.238 0 1 1 3.204 2.811Zm16.335 5.147c.241.725.655 1.38 1.207 1.909a3.698 3.698 0 0 1-2.493-.655.752.752 0 0 0-.787-.052 6.248 6.248 0 0 1-8.937-3.823 10.763 10.763 0 0 0 9.128-7.107 6.242 6.242 0 0 1 1.974 9.03.753.753 0 0 0-.092.698Z"/></svg>