<svg xmlns="http://www.w3.org/2000/svg" width="32" height="32" viewBox="0 0 32 32"><path d="M28.762 27.807a4 4 0 0 0-.238-.158 2.87 2.87 0 0 1-1.257-1.528 7.49 7.49 0 0 0-3.017-10.87A10.497 10.497 0 1 0 5.29 18.865a4.35 4.35 0 0 1-1.924 2.387q-.181.113-.328.216a.9.9 0 0 0-.365.825.91.91 0 0 0 .536.744c.772.32 1.602.479 2.438.467a6.77 6.77 0 0 0 3.704-1.087 10.5 10.5 0 0 0 4.298 1.063 7.503 7.503 0 0 0 10.597 5.284c.781.485 1.683.741 2.602.738a4.5 4.5 0 0 0 1.77-.34.797.797 0 0 0 .4-1.04.8.8 0 0 0-.255-.315M9.549 21.395a.5.5 0 0 0-.524.034 5.85 5.85 0 0 1-5.264.756l.137-.088a5.42 5.42 0 0 0 2.422-3.124.5.5 0 0 0-.061-.465 9.486 9.486 0 1 1 3.29 2.887m15.021 6.383a.5.5 0 0 0-.524-.034 6.5 6.5 0 0 1-9.373-4.278 10.51 10.51 0 0 0 9.313-7.233 6.493 6.493 0 0 1 2.311 9.535.5.5 0 0 0-.061.466 4.03 4.03 0 0 0 1.58 2.148 3.96 3.96 0 0 1-3.246-.604"/></svg>