<svg xmlns="http://www.w3.org/2000/svg" width="32" height="32" viewBox="0 0 32 32"><path d="M11.643 5.886a.75.75 0 1 0-1.286-.772L7.85 9.291 6.531 7.97A.75.75 0 0 0 5.47 9.03l2 2a.75.75 0 0 0 1.173-.144zm0 8a.75.75 0 1 0-1.286-.772L7.85 17.291l-1.32-1.321a.75.75 0 1 0-1.061 1.06l2 2a.75.75 0 0 0 1.173-.144zm-.257 6.971a.75.75 0 0 1 .257 1.029l-3 5a.75.75 0 0 1-1.173.145l-2-2a.75.75 0 0 1 1.06-1.061l1.321 1.32 2.506-4.176a.75.75 0 0 1 1.029-.257M15 7.75a.75.75 0 0 0 0 1.5h11a.75.75 0 0 0 0-1.5zm-.75 8.75a.75.75 0 0 1 .75-.75h11a.75.75 0 1 1 0 1.5H15a.75.75 0 0 1-.75-.75m.75 7.25a.75.75 0 1 0 0 1.5h11a.75.75 0 0 0 0-1.5z"/></svg>