<svg xmlns="http://www.w3.org/2000/svg" width="32" height="32" viewBox="0 0 32 32"><path d="M11.429 5.757a.5.5 0 1 0-.858-.514l-2.67 4.45-1.547-1.546a.5.5 0 1 0-.708.707l2 2a.5.5 0 0 0 .783-.097zm0 8a.5.5 0 0 0-.858-.514l-2.67 4.45-1.547-1.546a.5.5 0 1 0-.708.707l2 2a.5.5 0 0 0 .783-.097zm-.172 7.314a.5.5 0 0 1 .172.686l-3 5a.5.5 0 0 1-.783.097l-2-2a.5.5 0 1 1 .708-.707L7.9 25.694l2.67-4.451a.5.5 0 0 1 .686-.172M15 8.001a.5.5 0 0 0 0 1h11a.5.5 0 0 0 0-1zm-.5 8.5a.5.5 0 0 1 .5-.5h11a.5.5 0 1 1 0 1H15a.5.5 0 0 1-.5-.5M15 24h11a.5.5 0 1 1 0 1H15a.5.5 0 0 1 0-1"/></svg>