<svg xmlns="http://www.w3.org/2000/svg" width="32" height="32" viewBox="0 0 32 32"><path d="M11.858 6.015a1 1 0 0 0-1.716-1.03l-2.34 3.902-1.095-1.094a1 1 0 0 0-1.414 1.414l2 2a1 1 0 0 0 1.564-.192zm0 8a1 1 0 1 0-1.716-1.03l-2.34 3.902-1.095-1.094a1 1 0 0 0-1.414 1.414l2 2a1 1 0 0 0 1.564-.192zm-.344 6.628a1 1 0 0 1 .344 1.372l-3 5a1 1 0 0 1-1.565.192l-2-2a1 1 0 0 1 1.414-1.414l1.094 1.094 2.342-3.901a1 1 0 0 1 1.371-.343M26 7.5H15a1 1 0 1 0 0 2h11a1 1 0 1 0 0-2m-12 9a1 1 0 0 1 1-1h11a1 1 0 1 1 0 2H15a1 1 0 0 1-1-1m1 7a1 1 0 1 0 0 2h11a1 1 0 0 0 0-2z"/></svg>