<svg xmlns="http://www.w3.org/2000/svg" width="32" height="32" viewBox="0 0 32 32"><path d="M11.857 6.015a1 1 0 0 0-1.714-1.03L7.8 8.888 6.707 7.793a1 1 0 0 0-1.414 1.414l2 2a1 1 0 0 0 1.564-.192l3-5Zm0 8a1 1 0 1 0-1.714-1.03L7.8 16.888l-1.094-1.094a1 1 0 0 0-1.414 1.414l2 2a1 1 0 0 0 1.564-.192l3-5Zm-.342 6.628a1 1 0 0 1 .342 1.372l-3 5a1 1 0 0 1-1.564.192l-2-2a1 1 0 0 1 1.414-1.414l1.094 1.094 2.341-3.901a1 1 0 0 1 1.373-.343ZM26 7.5H15a1 1 0 1 0 0 2h11a1 1 0 1 0 0-2Zm-12 9a1 1 0 0 1 1-1h11a1 1 0 1 1 0 2H15a1 1 0 0 1-1-1Zm1 7a1 1 0 1 0 0 2h11a1 1 0 0 0 0-2H15Z"/></svg>