<svg xmlns="http://www.w3.org/2000/svg" width="32" height="32" fill="none" viewBox="0 0 32 32"><path fill="url(#a)" d="M23.5 18a7.5 7.5 0 1 0 0-15 7.5 7.5 0 0 0 0 15"/><path fill="url(#b)" fill-rule="evenodd" d="M16 23.585a7.582 7.582 0 1 0 0-15.162 7.582 7.582 0 1 0 0 15.162m13-7.581C29 23.18 23.18 29 16 29S3 23.182 3 16.004 8.82 3.008 16 3.008s13 5.818 13 12.996" clip-rule="evenodd"/><path fill="url(#c)" fill-rule="evenodd" d="M29 15.613a7.48 7.48 0 0 1-5.674 2.385 7.581 7.581 0 0 0-7.023-9.57 7.52 7.52 0 0 1 3.983-4.7c4.96 1.727 8.551 6.376 8.714 11.885" clip-rule="evenodd"/><path fill="url(#d)" d="M23.5 18a7.5 7.5 0 1 0 0-15 7.5 7.5 0 0 0 0 15"/><defs><linearGradient id="a" x1="16.149" x2="28.43" y1="3.149" y2="15.43" gradientUnits="userSpaceOnUse"><stop stop-color="#767676"/><stop offset="1" stop-color="#DADADA"/></linearGradient><linearGradient id="b" x1="2.999" x2="28.985" y1="29" y2="3" gradientUnits="userSpaceOnUse"><stop stop-color="#BBB"/><stop offset="1" stop-color="#616161"/></linearGradient><linearGradient id="c" x1="20.678" x2="27.631" y1="8.234" y2="16.276" gradientUnits="userSpaceOnUse"><stop stop-color="#9D9D9D" stop-opacity="0"/><stop offset="1" stop-color="#9D9D9D"/></linearGradient><radialGradient id="d" cx="0" cy="0" r="1" gradientTransform="matrix(-15 -15 14.99363 -14.99363 31 18)" gradientUnits="userSpaceOnUse"><stop stop-color="#8E8E8E" stop-opacity="0"/><stop offset=".667" stop-color="#8E8E8E" stop-opacity="0"/><stop offset="1" stop-color="#fff"/></radialGradient></defs></svg>