<svg xmlns="http://www.w3.org/2000/svg" width="32" height="32" fill="none" viewBox="0 0 32 32"><path fill="url(#a)" d="M23.5 18a7.5 7.5 0 1 0 0-15 7.5 7.5 0 0 0 0 15"/><path fill="url(#b)" fill-rule="evenodd" d="M16 8.423a7.582 7.582 0 1 0 0 15.162 7.582 7.582 0 1 0 0-15.162m-13 7.58C3 8.827 8.82 3.009 16 3.009s13 5.818 13 12.996C29 23.18 23.18 29 16 29S3 23.182 3 16.004" clip-rule="evenodd"/><path fill="url(#c)" fill-rule="evenodd" d="M28.993 15.605a7.48 7.48 0 0 1-5.674 2.385 7.581 7.581 0 0 0-7.023-9.57 7.52 7.52 0 0 1 3.983-4.7c4.96 1.728 8.552 6.376 8.714 11.885" clip-rule="evenodd"/><path fill="url(#d)" d="M23.496 18a7.5 7.5 0 1 0 0-15 7.5 7.5 0 0 0 0 15"/><defs><linearGradient id="a" x1="16.297" x2="28.579" y1="3" y2="15.281" gradientUnits="userSpaceOnUse"><stop stop-color="#0087EA"/><stop offset="1" stop-color="#63FFF7"/></linearGradient><linearGradient id="b" x1="29" x2="3.007" y1="3.008" y2="29.008" gradientUnits="userSpaceOnUse"><stop stop-color="#0051AF"/><stop offset=".666" stop-color="#0087EA"/><stop offset="1" stop-color="#00BCEB"/></linearGradient><linearGradient id="c" x1="20.945" x2="27.898" y1="7.99" y2="16.032" gradientUnits="userSpaceOnUse"><stop stop-color="#74BF4B" stop-opacity="0"/><stop offset="1" stop-color="#74BF4B"/></linearGradient><radialGradient id="d" cx="0" cy="0" r="1" gradientTransform="matrix(-15 -15 14.99363 -14.99363 30.996 18)" gradientUnits="userSpaceOnUse"><stop stop-color="#00BCEB" stop-opacity="0"/><stop offset=".667" stop-color="#00BCEB" stop-opacity="0"/><stop offset="1" stop-color="#00BCEB"/></radialGradient></defs></svg>