<svg xmlns="http://www.w3.org/2000/svg" width="128" height="128" fill="none" viewBox="0 0 128 128"><path fill="url(#a)" d="M94 72c16.569 0 30-13.431 30-30s-13.431-30-30-30-30 13.432-30 30c0 16.569 13.431 30 30 30"/><path fill="url(#b)" fill-rule="evenodd" d="M64 33.69c-16.753 0-30.333 13.578-30.333 30.325 0 16.748 13.58 30.325 30.333 30.325s30.333-13.577 30.333-30.325S80.753 33.691 64 33.691M12 64.016c0-28.71 23.281-51.985 52-51.985s52 23.275 52 51.985S92.719 116 64 116 12 92.726 12 64.015" clip-rule="evenodd"/><path fill="url(#c)" fill-rule="evenodd" d="M115.973 62.42c-5.477 5.875-13.284 9.549-21.949 9.549q-.375 0-.749-.01a30.4 30.4 0 0 0 1.06-7.975c0-16.355-12.947-29.686-29.151-30.302 2.382-8.308 8.257-15.138 15.933-18.803 19.84 6.911 34.205 25.505 34.856 47.542" clip-rule="evenodd"/><path fill="url(#d)" d="M93.984 72c16.569 0 30-13.431 30-30s-13.431-30-30-30c-16.568 0-30 13.432-30 30 0 16.569 13.432 30 30 30"/><defs><linearGradient id="a" x1="65.19" x2="114.316" y1="12" y2="61.126" gradientUnits="userSpaceOnUse"><stop stop-color="#0087EA"/><stop offset="1" stop-color="#63FFF7"/></linearGradient><linearGradient id="b" x1="116" x2="12.03" y1="12.03" y2="116.03" gradientUnits="userSpaceOnUse"><stop stop-color="#0051AF"/><stop offset=".666" stop-color="#0087EA"/><stop offset="1" stop-color="#00BCEB"/></linearGradient><linearGradient id="c" x1="83.781" x2="111.593" y1="31.96" y2="64.127" gradientUnits="userSpaceOnUse"><stop stop-color="#74BF4B" stop-opacity="0"/><stop offset="1" stop-color="#74BF4B"/></linearGradient><radialGradient id="d" cx="0" cy="0" r="1" gradientTransform="rotate(-135 76.904 10.322)scale(84.8528 84.817)" gradientUnits="userSpaceOnUse"><stop stop-color="#00BCEB" stop-opacity="0"/><stop offset=".667" stop-color="#00BCEB" stop-opacity="0"/><stop offset="1" stop-color="#00BCEB"/></radialGradient></defs></svg>