<svg xmlns="http://www.w3.org/2000/svg" width="64" height="32" fill="none" viewBox="0 0 64 32"><mask id="a" width="62" height="32" x="1" y="0" maskUnits="userSpaceOnUse" style="mask-type:luminance"><path fill="#fff" fill-rule="evenodd" d="M1.643 0h60.715v32H1.643z" clip-rule="evenodd"/></mask><g mask="url(#a)"><path fill="#00BCEB" fill-rule="evenodd" d="M62.358 9.925c0-.728-.591-1.316-1.317-1.316-.73 0-1.32.588-1.32 1.316v2.77a1.32 1.32 0 1 0 2.637 0zM55.11 6.289c0-.726-.59-1.317-1.334-1.317-.728 0-1.317.591-1.317 1.317v6.406c0 .73.589 1.32 1.317 1.32.744 0 1.334-.59 1.334-1.32zm-7.263-4.972a1.318 1.318 0 0 0-2.636 0v14.009a1.319 1.319 0 1 0 2.636 0zM40.58 6.289a1.318 1.318 0 0 0-2.636 0v6.406a1.319 1.319 0 1 0 2.636 0zm-7.263 3.636c0-.728-.59-1.316-1.314-1.316a1.32 1.32 0 0 0-1.321 1.316v2.77a1.317 1.317 0 1 0 2.635 0zm-7.251-3.636a1.322 1.322 0 0 0-2.644 0v6.406a1.322 1.322 0 0 0 2.644 0zm-7.262-4.972a1.321 1.321 0 0 0-2.643 0v14.009a1.322 1.322 0 0 0 2.643 0zm-7.26 4.972a1.322 1.322 0 0 0-2.643 0v6.406a1.322 1.322 0 0 0 2.643 0zm-7.26 3.636c0-.728-.592-1.316-1.321-1.316a1.32 1.32 0 0 0-1.321 1.316v2.77a1.322 1.322 0 0 0 2.643 0zm27.289 11.484a11.3 11.3 0 0 0-2.595-.337c-2.454 0-3.933 1.325-3.933 3.299 0 1.746 1.238 2.617 2.72 3.085.165.056.406.13.569.185.66.207 1.186.516 1.186 1.05 0 .598-.61.986-1.934.986-1.162 0-2.28-.333-2.513-.392v2.428c.13.028 1.458.287 2.873.287 2.038 0 4.369-.89 4.369-3.54 0-1.284-.79-2.47-2.516-3.018l-.734-.234c-.438-.138-1.221-.362-1.221-1.005 0-.507.58-.864 1.648-.864.92 0 2.04.31 2.08.322zm19.744 2.353c1.577 0 2.754 1.243 2.754 2.774 0 1.535-1.177 2.778-2.754 2.778-1.58 0-2.753-1.243-2.753-2.778 0-1.53 1.173-2.774 2.753-2.774m5.574 2.774c0-3.012-2.33-5.46-5.574-5.46-3.245 0-5.572 2.448-5.572 5.46 0 3.02 2.327 5.464 5.572 5.464s5.574-2.445 5.574-5.464m-41.738-5.084c-.25-.072-1.176-.376-2.428-.376-3.24 0-5.618 2.311-5.618 5.46 0 3.4 2.625 5.464 5.618 5.464 1.19 0 2.096-.28 2.428-.376v-2.83c-.115.062-.985.56-2.236.56-1.775 0-2.919-1.249-2.919-2.818 0-1.616 1.194-2.812 2.92-2.812 1.271 0 2.128.507 2.235.561zm27.789 0c-.252-.072-1.177-.376-2.427-.376-3.244 0-5.621 2.311-5.621 5.46 0 3.4 2.627 5.464 5.62 5.464 1.184 0 2.093-.28 2.428-.376v-2.83c-.116.062-.988.56-2.24.56-1.772 0-2.916-1.249-2.916-2.818 0-1.616 1.194-2.812 2.916-2.812 1.273 0 2.131.507 2.24.561zm-24.13 10.362h2.664v-10.55h-2.663z" clip-rule="evenodd"/></g></svg>