<svg xmlns="http://www.w3.org/2000/svg" width="32" height="32" viewBox="0 0 32 32"><path d="M25 3.5H7a5.006 5.006 0 0 0-5 5v12a5.02 5.02 0 0 0 1.938 3.941 3.25 3.25 0 0 1-1.001.892 1.54 1.54 0 0 0-.933 1.403A1.56 1.56 0 0 0 3.03 28.1a5.1 5.1 0 0 0 2.124.401 8.06 8.06 0 0 0 4.804-1.629c.234-.167.5-.396.774-.636q.436-.412.943-.735H25a5.006 5.006 0 0 0 5-5v-12a5.006 5.006 0 0 0-5-5m3 17a3.003 3.003 0 0 1-3 3H11.628c-.827-.046-1.484.59-2.213 1.23-.223.195-.436.385-.624.518l-.027.02a5.97 5.97 0 0 1-4.012 1.218 7.3 7.3 0 0 0 1.42-1.782c.1-.187.15-.397.142-.61a1.08 1.08 0 0 0-.614-.889A3.02 3.02 0 0 1 4 20.5v-12a3.003 3.003 0 0 1 3-3h18a3.003 3.003 0 0 1 3 3zM9.943 17.256c.168.215.381.387.623.502.242.116.506.172.772.164q1.869 0 2.01-2.158h2.188a4.2 4.2 0 0 1-.424 1.609c-.247.5-.59.94-1.01 1.295a4.44 4.44 0 0 1-2.801.826 3.8 3.8 0 0 1-1.765-.325 4 4 0 0 1-1.447-1.1 5.56 5.56 0 0 1-1.076-3.596 5.2 5.2 0 0 1 .276-2.08 5.1 5.1 0 0 1 1.069-1.782 4.18 4.18 0 0 1 3.045-1.105 4.15 4.15 0 0 1 2.853.971 3.84 3.84 0 0 1 1.216 2.358h-2.15a1.95 1.95 0 0 0-.615-1.289 1.8 1.8 0 0 0-1.304-.482 1.74 1.74 0 0 0-.935.224 1.83 1.83 0 0 0-.69.694 4.85 4.85 0 0 0-.526 2.49 4.5 4.5 0 0 0 .691 2.784M19.408 17.256c.167.215.38.387.622.502.242.116.506.172.772.164q1.867 0 2.01-2.158H25a4.2 4.2 0 0 1-.424 1.608c-.247.5-.59.942-1.01 1.297a4.44 4.44 0 0 1-2.802.825 3.8 3.8 0 0 1-1.765-.325 4 4 0 0 1-1.447-1.1 5.57 5.57 0 0 1-1.075-3.596 5.2 5.2 0 0 1 .276-2.08 5.1 5.1 0 0 1 1.067-1.782 4.18 4.18 0 0 1 3.046-1.105 4.16 4.16 0 0 1 2.854.971 3.83 3.83 0 0 1 1.215 2.358h-2.15a1.95 1.95 0 0 0-.615-1.29 1.8 1.8 0 0 0-1.304-.481 1.74 1.74 0 0 0-.935.224 1.83 1.83 0 0 0-.69.694 4.85 4.85 0 0 0-.525 2.49 4.5 4.5 0 0 0 .691 2.784"/></svg>