<svg xmlns="http://www.w3.org/2000/svg" width="32" height="32" viewBox="0 0 32 32"><path fill-rule="evenodd" d="M25 4H7a5.01 5.01 0 0 0-5 5v11a5.02 5.02 0 0 0 1.938 3.941 3.248 3.248 0 0 1-1.002.892 1.542 1.542 0 0 0-.932 1.403A1.558 1.558 0 0 0 3.029 27.6 5.082 5.082 0 0 0 5.153 28a8.057 8.057 0 0 0 4.805-1.629c.233-.167.499-.396.773-.636.29-.274.607-.52.944-.735H25a5.006 5.006 0 0 0 5-5V9a5.01 5.01 0 0 0-5-5ZM10.566 17.758a1.746 1.746 0 0 1-.623-.502 4.515 4.515 0 0 1-.69-2.783 4.848 4.848 0 0 1 .524-2.49 1.83 1.83 0 0 1 .69-.695c.287-.162.61-.24.936-.224.478-.021.946.152 1.304.482.358.33.579.793.616 1.29h2.15a3.836 3.836 0 0 0-1.217-2.359 4.15 4.15 0 0 0-2.853-.971 4.18 4.18 0 0 0-3.045 1.105 5.062 5.062 0 0 0-1.069 1.782 5.217 5.217 0 0 0-.276 2.08 5.561 5.561 0 0 0 1.076 3.596c.395.477.89.853 1.447 1.1.557.247 1.16.358 1.765.325.995.05 1.98-.24 2.801-.826a4.037 4.037 0 0 0 1.01-1.295c.246-.5.39-1.048.424-1.609h-2.188c-.094 1.439-.764 2.158-2.01 2.158a1.676 1.676 0 0 1-.772-.164Zm9.464 0a1.746 1.746 0 0 1-.623-.502 4.507 4.507 0 0 1-.69-2.783 4.849 4.849 0 0 1 .524-2.49c.166-.293.404-.533.69-.695.286-.162.61-.24.935-.224.478-.022.946.151 1.304.482.358.33.579.793.615 1.29h2.15a3.834 3.834 0 0 0-1.215-2.359 4.155 4.155 0 0 0-2.854-.971 4.183 4.183 0 0 0-3.046 1.105 5.062 5.062 0 0 0-1.067 1.782 5.215 5.215 0 0 0-.276 2.08 5.568 5.568 0 0 0 1.075 3.596c.395.477.89.853 1.447 1.1a3.83 3.83 0 0 0 1.765.325c.995.05 1.98-.24 2.803-.825a4.042 4.042 0 0 0 1.009-1.297c.246-.5.39-1.047.424-1.608h-2.188c-.095 1.439-.765 2.158-2.01 2.158a1.676 1.676 0 0 1-.772-.164Z" clip-rule="evenodd"/></svg>