<svg xmlns="http://www.w3.org/2000/svg" width="32" height="32" viewBox="0 0 32 32"><path d="M19.707 22.293a1 1 0 0 0-1.414 0L16 24.586l-2.293-2.293a1 1 0 1 0-1.414 1.414L14.586 26l-2.293 2.293a1 1 0 1 0 1.414 1.414L16 27.414l2.293 2.293a1 1 0 0 0 1.414-1.414L17.414 26l2.293-2.293a1 1 0 0 0 0-1.414M25 5H7a5.006 5.006 0 0 0-5 5v12a5.006 5.006 0 0 0 5 5h2a1 1 0 0 0 0-2H7a3.003 3.003 0 0 1-3-3V10a3.003 3.003 0 0 1 3-3h18a3.003 3.003 0 0 1 3 3v12a3.004 3.004 0 0 1-3 3h-2.023a1 1 0 0 0 0 2H25a5.006 5.006 0 0 0 5-5V10a5.006 5.006 0 0 0-5-5"/></svg>