<svg xmlns="http://www.w3.org/2000/svg" width="32" height="32" viewBox="0 0 32 32"><path d="M25 4H7a4.505 4.505 0 0 0-4.5 4.5v12a4.53 4.53 0 0 0 2.138 3.824 4.329 4.329 0 0 1-1.46 1.446 1.06 1.06 0 0 0-.674.952c.006.215.11.624.741.926a4.554 4.554 0 0 0 1.889.348 7.611 7.611 0 0 0 4.528-1.528 9.87 9.87 0 0 0 .74-.609c.342-.3.98-.858 1.212-.859H25a4.505 4.505 0 0 0 4.5-4.5v-12A4.505 4.505 0 0 0 25 4Zm3.5 16.5A3.504 3.504 0 0 1 25 24H11.607a3.424 3.424 0 0 0-1.864 1.106c-.236.207-.463.409-.665.55l-.012.01a6.406 6.406 0 0 1-4.689 1.278 2.242 2.242 0 0 1-.796-.25l.08-.049a5.764 5.764 0 0 0 2.083-2.2.72.72 0 0 0 .07-.333.59.59 0 0 0-.332-.457A3.524 3.524 0 0 1 3.5 20.5v-12A3.504 3.504 0 0 1 7 5h18a3.504 3.504 0 0 1 3.5 3.5v12Z"/><path d="M14.025 16.69a2.09 2.09 0 0 1-1.53.59 2.024 2.024 0 0 1-1.56-.65 3.187 3.187 0 0 1-.72-2.24 3.362 3.362 0 0 1 .57-2.08 2.086 2.086 0 0 1 1.77-.82c.466-.014.924.12 1.31.38a1.714 1.714 0 0 1 .71 1.23h1.03a2.385 2.385 0 0 0-.81-1.63 3.156 3.156 0 0 0-2.24-.83 3.227 3.227 0 0 0-2.31.84 3.81 3.81 0 0 0-1.07 2.91c-.05.944.225 1.876.78 2.64a3.042 3.042 0 0 0 2.52 1.11 3.364 3.364 0 0 0 1.61-.39 2.92 2.92 0 0 0 1.09-.98 2.65 2.65 0 0 0 .44-1.32h-1.03c-.02.47-.22.915-.56 1.24ZM21.291 16.69a2.087 2.087 0 0 1-1.53.59 2.024 2.024 0 0 1-1.56-.65 3.186 3.186 0 0 1-.718-2.24 3.369 3.369 0 0 1 .569-2.08 2.086 2.086 0 0 1 1.77-.82c.466-.014.924.12 1.31.38a1.715 1.715 0 0 1 .71 1.23h1.03a2.386 2.386 0 0 0-.81-1.63 3.153 3.153 0 0 0-2.24-.83 3.227 3.227 0 0 0-2.31.84 3.812 3.812 0 0 0-1.07 2.91c-.05.944.225 1.876.78 2.64a3.043 3.043 0 0 0 2.52 1.11 3.363 3.363 0 0 0 1.61-.39c.44-.229.815-.566 1.09-.98.262-.392.415-.848.44-1.32h-1.03c-.02.47-.22.915-.56 1.24Z"/></svg>