<svg xmlns="http://www.w3.org/2000/svg" width="32" height="32" viewBox="0 0 32 32"><path d="M19.53 22.47a.75.75 0 0 0-1.06 0L16 24.94l-2.47-2.47a.751.751 0 0 0-1.23.817.8.8 0 0 0 .17.243L14.94 26l-2.47 2.47a.75.75 0 1 0 1.06 1.06L16 27.06l2.47 2.47a.75.75 0 0 0 1.06-1.06L17.06 26l2.47-2.47a.75.75 0 0 0 0-1.06M25 5.25H7A4.755 4.755 0 0 0 2.25 10v12A4.755 4.755 0 0 0 7 26.75h2a.75.75 0 1 0 0-1.5H7A3.254 3.254 0 0 1 3.75 22V10A3.254 3.254 0 0 1 7 6.75h18A3.254 3.254 0 0 1 28.25 10v12A3.254 3.254 0 0 1 25 25.25h-2a.75.75 0 1 0 0 1.5h2A4.755 4.755 0 0 0 29.75 22V10A4.755 4.755 0 0 0 25 5.25"/></svg>