<svg xmlns="http://www.w3.org/2000/svg" width="32" height="32" viewBox="0 0 32 32"><path d="M25 3.75H7A4.755 4.755 0 0 0 2.25 8.5v12a4.78 4.78 0 0 0 2.038 3.892c-.317.474-.738.87-1.23 1.16a1.3 1.3 0 0 0-.804 1.177 1.32 1.32 0 0 0 .883 1.145c.638.27 1.327.4 2.02.38A7.8 7.8 0 0 0 9.81 26.67c.227-.163.488-.388.756-.623a5.4 5.4 0 0 1 1.047-.797H25a4.755 4.755 0 0 0 4.75-4.75v-12A4.755 4.755 0 0 0 25 3.75m3.25 16.75A3.254 3.254 0 0 1 25 23.75H11.606a3.55 3.55 0 0 0-2.028 1.169c-.23.2-.449.395-.643.533l-.02.015a6.02 6.02 0 0 1-4.776 1.178 6.4 6.4 0 0 0 1.82-2.07.95.95 0 0 0 .106-.471.84.84 0 0 0-.474-.674 3.27 3.27 0 0 1-1.84-2.93v-12A3.254 3.254 0 0 1 7 5.25h18a3.254 3.254 0 0 1 3.25 3.25zM9.943 17.256c.168.215.381.387.623.502.242.116.506.172.772.164q1.869 0 2.01-2.158h2.188a4.2 4.2 0 0 1-.424 1.609c-.247.5-.59.94-1.01 1.295a4.44 4.44 0 0 1-2.801.826 3.8 3.8 0 0 1-1.765-.325 4 4 0 0 1-1.447-1.1 5.56 5.56 0 0 1-1.076-3.596 5.2 5.2 0 0 1 .276-2.08 5.1 5.1 0 0 1 1.069-1.782 4.18 4.18 0 0 1 3.045-1.105 4.15 4.15 0 0 1 2.853.971 3.84 3.84 0 0 1 1.216 2.358h-2.15a1.95 1.95 0 0 0-.615-1.289 1.8 1.8 0 0 0-1.304-.482 1.74 1.74 0 0 0-.935.224 1.83 1.83 0 0 0-.69.694 4.85 4.85 0 0 0-.526 2.49 4.5 4.5 0 0 0 .691 2.784M19.408 17.256c.167.215.38.387.622.502.242.116.506.172.772.164q1.867 0 2.01-2.158H25a4.2 4.2 0 0 1-.424 1.608c-.247.5-.59.942-1.01 1.297a4.44 4.44 0 0 1-2.802.825 3.8 3.8 0 0 1-1.765-.325 4 4 0 0 1-1.447-1.1 5.57 5.57 0 0 1-1.075-3.596 5.2 5.2 0 0 1 .276-2.08 5.1 5.1 0 0 1 1.067-1.782 4.18 4.18 0 0 1 3.046-1.105 4.16 4.16 0 0 1 2.854.971 3.83 3.83 0 0 1 1.215 2.358h-2.15a1.95 1.95 0 0 0-.615-1.29 1.8 1.8 0 0 0-1.304-.481 1.74 1.74 0 0 0-.935.224 1.83 1.83 0 0 0-.69.694 4.85 4.85 0 0 0-.525 2.49 4.5 4.5 0 0 0 .691 2.784"/></svg>