<svg xmlns="http://www.w3.org/2000/svg" width="32" height="32" viewBox="0 0 32 32"><path d="M25 3.5H7a5.006 5.006 0 0 0-5 5v12a5.02 5.02 0 0 0 1.938 3.941 3.248 3.248 0 0 1-1.001.892 1.542 1.542 0 0 0-.933 1.403A1.558 1.558 0 0 0 3.03 28.1a5.082 5.082 0 0 0 2.124.401 8.057 8.057 0 0 0 4.804-1.629c.234-.167.5-.396.774-.636.29-.274.606-.52.943-.735H25a5.006 5.006 0 0 0 5-5v-12a5.006 5.006 0 0 0-5-5Zm3 17a3.003 3.003 0 0 1-3 3H11.628c-.827-.046-1.484.59-2.213 1.23-.223.195-.436.385-.624.518l-.027.02a5.97 5.97 0 0 1-4.012 1.218 7.323 7.323 0 0 0 1.42-1.782c.1-.187.15-.397.142-.61a1.083 1.083 0 0 0-.614-.889A3.02 3.02 0 0 1 4 20.5v-12a3.003 3.003 0 0 1 3-3h18a3.003 3.003 0 0 1 3 3v12Z"/><path d="M9.943 17.256c.168.215.381.387.623.502.242.116.506.172.772.164 1.246 0 1.916-.72 2.01-2.158h2.188a4.191 4.191 0 0 1-.424 1.609c-.247.5-.59.94-1.01 1.295a4.438 4.438 0 0 1-2.801.826 3.832 3.832 0 0 1-1.765-.325 3.982 3.982 0 0 1-1.447-1.1 5.561 5.561 0 0 1-1.076-3.596 5.217 5.217 0 0 1 .276-2.08 5.062 5.062 0 0 1 1.069-1.782 4.18 4.18 0 0 1 3.045-1.105 4.15 4.15 0 0 1 2.853.971 3.836 3.836 0 0 1 1.216 2.358h-2.15a1.951 1.951 0 0 0-.615-1.289 1.804 1.804 0 0 0-1.304-.482 1.74 1.74 0 0 0-.935.224 1.83 1.83 0 0 0-.69.694 4.848 4.848 0 0 0-.526 2.49 4.515 4.515 0 0 0 .691 2.784ZM19.407 17.256c.168.215.381.387.623.502.242.116.506.172.772.164 1.245 0 1.915-.72 2.01-2.158H25a4.197 4.197 0 0 1-.424 1.608c-.247.5-.59.942-1.01 1.297a4.442 4.442 0 0 1-2.802.825 3.83 3.83 0 0 1-1.765-.325 3.982 3.982 0 0 1-1.447-1.1 5.568 5.568 0 0 1-1.075-3.596 5.215 5.215 0 0 1 .276-2.08 5.062 5.062 0 0 1 1.067-1.782 4.183 4.183 0 0 1 3.046-1.105 4.155 4.155 0 0 1 2.854.971 3.834 3.834 0 0 1 1.215 2.358h-2.15a1.95 1.95 0 0 0-.615-1.29 1.802 1.802 0 0 0-1.304-.481 1.736 1.736 0 0 0-.935.224 1.827 1.827 0 0 0-.69.694 4.849 4.849 0 0 0-.525 2.49 4.507 4.507 0 0 0 .691 2.784Z"/></svg>