<svg xmlns="http://www.w3.org/2000/svg" width="32" height="32" viewBox="0 0 32 32"><path d="M25 3.75H7A4.755 4.755 0 0 0 2.25 8.5v12a4.78 4.78 0 0 0 2.038 3.892c-.317.474-.738.87-1.23 1.16a1.301 1.301 0 0 0-.804 1.177 1.323 1.323 0 0 0 .883 1.145c.638.27 1.327.4 2.02.38A7.81 7.81 0 0 0 9.81 26.67c.227-.163.488-.388.756-.623a5.44 5.44 0 0 1 1.046-.797H25a4.755 4.755 0 0 0 4.75-4.75v-12A4.755 4.755 0 0 0 25 3.75Zm3.25 16.75A3.254 3.254 0 0 1 25 23.75H11.606a3.553 3.553 0 0 0-2.028 1.169c-.23.2-.449.395-.643.533l-.02.015a6.015 6.015 0 0 1-4.776 1.178 6.392 6.392 0 0 0 1.82-2.07.952.952 0 0 0 .106-.471.84.84 0 0 0-.474-.674 3.271 3.271 0 0 1-1.84-2.93v-12A3.254 3.254 0 0 1 7 5.25h18a3.254 3.254 0 0 1 3.25 3.25v12Z"/><path d="M13.83 16.62a1.858 1.858 0 0 1-1.39.53 1.735 1.735 0 0 1-1.37-.59 3.191 3.191 0 0 1-.65-2.18c-.041-.7.137-1.396.51-1.99a1.798 1.798 0 0 1 1.57-.77c.41-.013.813.106 1.15.34a1.707 1.707 0 0 1 .66 1.16h1.29a2.554 2.554 0 0 0-.86-1.69 3.225 3.225 0 0 0-2.24-.79 3.267 3.267 0 0 0-2.34.84 3.776 3.776 0 0 0-1.06 2.9 4.089 4.089 0 0 0 .81 2.67 3.055 3.055 0 0 0 2.51 1.09 3.342 3.342 0 0 0 2.14-.68 2.802 2.802 0 0 0 1.07-2.05h-1.3a1.84 1.84 0 0 1-.5 1.21ZM21.157 16.62a1.859 1.859 0 0 1-1.391.53 1.734 1.734 0 0 1-1.37-.59 3.192 3.192 0 0 1-.65-2.18c-.041-.7.137-1.396.51-1.99a1.798 1.798 0 0 1 1.57-.77c.41-.013.814.106 1.15.34a1.707 1.707 0 0 1 .661 1.16h1.289a2.554 2.554 0 0 0-.86-1.69 3.225 3.225 0 0 0-2.24-.79 3.267 3.267 0 0 0-2.34.84 3.776 3.776 0 0 0-1.06 2.9 4.089 4.089 0 0 0 .81 2.67 3.055 3.055 0 0 0 2.51 1.09 3.343 3.343 0 0 0 2.141-.68 2.802 2.802 0 0 0 1.07-2.05h-1.3a1.84 1.84 0 0 1-.5 1.21Z"/></svg>