<svg xmlns="http://www.w3.org/2000/svg" width="32" height="32" viewBox="0 0 32 32"><path d="M25 4H7a4.505 4.505 0 0 0-4.5 4.5v12a4.53 4.53 0 0 0 2.138 3.824 4.329 4.329 0 0 1-1.46 1.446 1.06 1.06 0 0 0-.674.952c.006.215.11.624.741.926a4.554 4.554 0 0 0 1.889.348 7.611 7.611 0 0 0 4.528-1.528 9.87 9.87 0 0 0 .74-.609c.342-.3.98-.858 1.212-.859H25a4.505 4.505 0 0 0 4.5-4.5v-12A4.505 4.505 0 0 0 25 4Zm3.5 16.5A3.504 3.504 0 0 1 25 24H11.607a3.424 3.424 0 0 0-1.864 1.106c-.236.207-.463.409-.665.55l-.012.01a6.406 6.406 0 0 1-4.689 1.278 2.242 2.242 0 0 1-.796-.25l.08-.049a5.764 5.764 0 0 0 2.083-2.2.72.72 0 0 0 .07-.333.59.59 0 0 0-.332-.457A3.524 3.524 0 0 1 3.5 20.5v-12A3.504 3.504 0 0 1 7 5h18a3.504 3.504 0 0 1 3.5 3.5v12Z"/><path d="M9.943 17.256c.168.215.381.387.623.502.242.116.506.172.772.164 1.246 0 1.916-.72 2.01-2.158h2.188a4.191 4.191 0 0 1-.424 1.609c-.247.5-.59.94-1.01 1.295a4.438 4.438 0 0 1-2.801.826 3.832 3.832 0 0 1-1.765-.325 3.982 3.982 0 0 1-1.447-1.1 5.561 5.561 0 0 1-1.076-3.596 5.217 5.217 0 0 1 .276-2.08 5.062 5.062 0 0 1 1.069-1.782 4.18 4.18 0 0 1 3.045-1.105 4.15 4.15 0 0 1 2.853.971 3.836 3.836 0 0 1 1.216 2.358h-2.15a1.951 1.951 0 0 0-.615-1.289 1.804 1.804 0 0 0-1.304-.482 1.74 1.74 0 0 0-.935.224 1.83 1.83 0 0 0-.69.694 4.848 4.848 0 0 0-.526 2.49 4.515 4.515 0 0 0 .691 2.784ZM19.407 17.256c.168.215.381.387.623.502.242.116.506.172.772.164 1.245 0 1.915-.72 2.01-2.158H25a4.197 4.197 0 0 1-.424 1.608c-.247.5-.59.942-1.01 1.297a4.442 4.442 0 0 1-2.802.825 3.83 3.83 0 0 1-1.765-.325 3.982 3.982 0 0 1-1.447-1.1 5.568 5.568 0 0 1-1.075-3.596 5.215 5.215 0 0 1 .276-2.08 5.062 5.062 0 0 1 1.067-1.782 4.183 4.183 0 0 1 3.046-1.105 4.155 4.155 0 0 1 2.854.971 3.834 3.834 0 0 1 1.215 2.358h-2.15a1.95 1.95 0 0 0-.615-1.29 1.802 1.802 0 0 0-1.304-.481 1.736 1.736 0 0 0-.935.224 1.827 1.827 0 0 0-.69.694 4.849 4.849 0 0 0-.525 2.49 4.507 4.507 0 0 0 .691 2.784Z"/></svg>