<svg xmlns="http://www.w3.org/2000/svg" width="32" height="32" viewBox="0 0 32 32"><path d="m20.36 20.64-4.007-3.996a.5.5 0 0 0-.706.001l-3.993 3.986a.5.5 0 0 0 .707.707l3.14-3.134v6.815a.5.5 0 1 0 1 0v-6.816l3.154 3.145a.502.502 0 0 0 .815-.164.5.5 0 0 0-.11-.545M23.835 11.654A8.79 8.79 0 0 0 16 6.5a8.693 8.693 0 0 0-8.615 8.271 5.387 5.387 0 0 0-4.774 6.477 5.46 5.46 0 0 0 5.4 4.252H11a.5.5 0 1 0 0-1H8.01a4.45 4.45 0 0 1-4.42-3.453 4.383 4.383 0 0 1 4.281-5.298h.5v-.5A7.793 7.793 0 0 1 16 7.5a7.78 7.78 0 0 1 7.025 4.796l.109.256.275.043a5.99 5.99 0 0 1 5.053 6.563A6.24 6.24 0 0 1 22.18 24.5H21a.5.5 0 1 0 0 1h1.18a7.246 7.246 0 0 0 7.276-6.238 6.987 6.987 0 0 0-5.62-7.608"/></svg>