<svg xmlns="http://www.w3.org/2000/svg" width="32" height="32" viewBox="0 0 32 32"><path d="M23 4.5H9A4.505 4.505 0 0 0 4.5 9v14A4.505 4.505 0 0 0 9 27.5h14a4.504 4.504 0 0 0 4.5-4.5V9A4.505 4.505 0 0 0 23 4.5M26.5 23a3.504 3.504 0 0 1-3.5 3.5H9A3.504 3.504 0 0 1 5.5 23V9A3.504 3.504 0 0 1 9 5.5h14A3.504 3.504 0 0 1 26.5 9zM20.418 13.62A4.715 4.715 0 0 0 16 10.5c-2.48 0-4.457 1.986-4.83 4.783a3.13 3.13 0 0 0-2.604 3.743A3.17 3.17 0 0 0 11.7 21.5h7.63a4.135 4.135 0 0 0 4.148-3.565 3.993 3.993 0 0 0-3.059-4.315m2.065 4.209a3.126 3.126 0 0 1-3.154 2.671H11.7a2.165 2.165 0 0 1-2.152-1.675 2.128 2.128 0 0 1 2.078-2.575h.465l.034-.464C12.306 13.263 13.9 11.5 16 11.5a3.66 3.66 0 0 1 3.551 2.69l.088.309.317.048a2.995 2.995 0 0 1 2.527 3.282"/></svg>