<svg xmlns="http://www.w3.org/2000/svg" width="32" height="32" viewBox="0 0 32 32"><path d="M2.473 2.473a.749.749 0 0 0 0 1.058l26.002 26.002a.749.749 0 0 0 1.058-1.058l-3.648-3.649a7.496 7.496 0 0 0 3.82-5.537 7.237 7.237 0 0 0-5.697-7.855A9.035 9.035 0 0 0 16 6.25a8.939 8.939 0 0 0-6.164 2.528L3.531 2.473a.749.749 0 0 0-1.058 0Zm8.45 7.392A7.54 7.54 0 0 1 16 7.75a7.532 7.532 0 0 1 6.795 4.643l.162.385.414.064a5.74 5.74 0 0 1 4.842 6.289 5.986 5.986 0 0 1-3.442 4.582L10.923 9.865ZM7.15 14.546a8.937 8.937 0 0 1 .9-3.313l1.153 1.153a7.538 7.538 0 0 0-.58 2.864V16h-.75a4.116 4.116 0 0 0-3.198 1.521 4.158 4.158 0 0 0-.839 3.477 4.204 4.204 0 0 0 4.175 3.252h13.055l1.496 1.495a7.474 7.474 0 0 1-.382.005H8.01a5.707 5.707 0 0 1-5.643-4.451 5.637 5.637 0 0 1 4.782-6.753Z"/></svg>