<svg xmlns="http://www.w3.org/2000/svg" width="32" height="32" viewBox="0 0 32 32"><path d="m20.537 20.462-4.008-3.995a.75.75 0 0 0-1.06.001l-3.991 3.987a.75.75 0 0 0 1.06 1.06l2.712-2.708v6.212a.75.75 0 1 0 1.5 0v-6.213l2.729 2.719a.75.75 0 1 0 1.058-1.063Z"/><path d="M24.008 11.433A9.034 9.034 0 0 0 16 6.25a8.938 8.938 0 0 0-8.85 8.295 5.637 5.637 0 0 0-4.783 6.753 5.707 5.707 0 0 0 5.644 4.452H11a.75.75 0 1 0 0-1.5H8.01a4.204 4.204 0 0 1-4.175-3.253 4.158 4.158 0 0 1 .839-3.476 4.115 4.115 0 0 1 3.197-1.522h.75v-.75A7.54 7.54 0 0 1 16 7.75a7.532 7.532 0 0 1 6.795 4.643l.162.386.414.063a5.74 5.74 0 0 1 4.842 6.29 5.985 5.985 0 0 1-6.033 5.119H21a.75.75 0 0 0 0 1.5h1.18a7.5 7.5 0 0 0 7.525-6.461 7.238 7.238 0 0 0-5.697-7.856Z"/></svg>