<svg xmlns="http://www.w3.org/2000/svg" width="32" height="32" viewBox="0 0 32 32"><path d="M20.008 21.994a1 1 0 0 0 .706-1.708l-4.008-3.995a1 1 0 0 0-1.413 0l-3.992 3.986a1.002 1.002 0 1 0 1.414 1.416L15 19.41v5.61a1 1 0 1 0 2 0v-5.613l2.302 2.295a1 1 0 0 0 .706.292M24.18 11.215A9.28 9.28 0 0 0 16 6a9.19 9.19 0 0 0-9.083 8.327 5.887 5.887 0 0 0-4.795 7.021A5.96 5.96 0 0 0 8.011 26H11a1 1 0 1 0 0-2H8.01a3.95 3.95 0 0 1-3.93-3.052 3.885 3.885 0 0 1 3.791-4.698h1v-1A7.286 7.286 0 0 1 16 8a7.28 7.28 0 0 1 6.564 4.489l.217.514.552.085a5.49 5.49 0 0 1 4.632 6.016A5.734 5.734 0 0 1 22.18 24H21a1 1 0 0 0 0 2h1.18a7.75 7.75 0 0 0 7.773-6.684 7.486 7.486 0 0 0-5.773-8.1"/></svg>