<svg xmlns="http://www.w3.org/2000/svg" width="32" height="32" viewBox="0 0 32 32"><path d="M2.303 2.302a.998.998 0 0 0 0 1.412L28.29 29.7a.998.998 0 1 0 1.411-1.411l-3.41-3.41a7.748 7.748 0 0 0 3.661-5.564 7.486 7.486 0 0 0-5.773-8.1A9.283 9.283 0 0 0 16 6a9.188 9.188 0 0 0-6.16 2.429L3.715 2.302a.998.998 0 0 0-1.411 0Zm8.98 7.568A7.287 7.287 0 0 1 16 8a7.279 7.279 0 0 1 6.564 4.49l.217.514.552.085a5.49 5.49 0 0 1 4.632 6.016 5.733 5.733 0 0 1-3.14 4.307L11.281 9.87ZM6.917 14.327c.083-.882.292-1.739.615-2.548l1.595 1.595a7.284 7.284 0 0 0-.255 1.876v1h-1a3.883 3.883 0 0 0-3.79 4.698A3.952 3.952 0 0 0 8.01 24h11.742l2 2H8.011a5.958 5.958 0 0 1-5.889-4.651 5.887 5.887 0 0 1 4.795-7.022Z"/></svg>