<svg xmlns="http://www.w3.org/2000/svg" width="32" height="32" viewBox="0 0 32 32"><path d="M24.008 11.433A9.034 9.034 0 0 0 16 6.25a8.938 8.938 0 0 0-8.85 8.295 5.637 5.637 0 0 0-4.783 6.753 5.707 5.707 0 0 0 5.644 4.452H22.18a7.5 7.5 0 0 0 7.525-6.461 7.238 7.238 0 0 0-5.697-7.856Zm4.205 7.697a5.985 5.985 0 0 1-6.033 5.12H8.01a4.204 4.204 0 0 1-4.174-3.253 4.158 4.158 0 0 1 .839-3.476 4.115 4.115 0 0 1 3.197-1.522h.75v-.75A7.54 7.54 0 0 1 16 7.75a7.532 7.532 0 0 1 6.795 4.643l.162.386.414.063a5.74 5.74 0 0 1 4.842 6.29Z"/></svg>