<svg xmlns="http://www.w3.org/2000/svg" width="32" height="32" viewBox="0 0 32 32"><path d="M20.668 3.944a8.8 8.8 0 0 1 3.172 3.71 6.987 6.987 0 0 1 5.621 7.609 7.245 7.245 0 0 1-7.276 6.237h-1.18a.5.5 0 1 1 0-1h1.18a6.24 6.24 0 0 0 6.282-5.343 5.99 5.99 0 0 0-5.053-6.562l-.275-.043-.11-.257A7.78 7.78 0 0 0 16.006 3.5a7.793 7.793 0 0 0-7.628 7.75v.5h-.5a4.385 4.385 0 0 0-4.28 5.298A4.45 4.45 0 0 0 8.016 20.5h2.99a.5.5 0 0 1 0 1h-2.99a5.46 5.46 0 0 1-5.4-4.251 5.386 5.386 0 0 1 4.774-6.477A8.693 8.693 0 0 1 16.005 2.5a8.8 8.8 0 0 1 4.663 1.444M20.366 25.38l-4.008 3.994a.5.5 0 0 1-.706 0l-3.992-3.987a.5.5 0 0 1 .707-.707l3.138 3.134V15a.5.5 0 1 1 1 0v12.816l3.155-3.145a.5.5 0 0 1 .706.71"/></svg>