<svg xmlns="http://www.w3.org/2000/svg" width="32" height="32" viewBox="0 0 32 32"><path d="M24.008 11.433A9.03 9.03 0 0 0 16 6.25a8.94 8.94 0 0 0-8.85 8.295 5.64 5.64 0 0 0-4.783 6.753 5.71 5.71 0 0 0 5.644 4.452H22.18a7.5 7.5 0 0 0 7.525-6.461 7.24 7.24 0 0 0-5.697-7.856m4.205 7.697a5.985 5.985 0 0 1-6.033 5.12H8.01a4.204 4.204 0 0 1-4.174-3.253 4.16 4.16 0 0 1 .839-3.476 4.12 4.12 0 0 1 3.197-1.522h.75v-.75A7.54 7.54 0 0 1 16 7.75a7.53 7.53 0 0 1 6.795 4.643l.162.386.414.063a5.74 5.74 0 0 1 4.842 6.29"/></svg>