<svg xmlns="http://www.w3.org/2000/svg" width="32" height="32" viewBox="0 0 32 32"><path d="M23 4H9a5.006 5.006 0 0 0-5 5v14a5.006 5.006 0 0 0 5 5h14a5.006 5.006 0 0 0 5-5V9a5.006 5.006 0 0 0-5-5m3 19a3.004 3.004 0 0 1-3 3H9a3.003 3.003 0 0 1-3-3V9a3.003 3.003 0 0 1 3-3h14a3.003 3.003 0 0 1 3 3zM20.792 13.202A5.22 5.22 0 0 0 16 10c-2.632 0-4.747 2-5.27 4.861a3.63 3.63 0 0 0-2.653 4.265A3.67 3.67 0 0 0 11.7 22h7.63a4.64 4.64 0 0 0 4.645-4.013 4.49 4.49 0 0 0-3.182-4.785m1.193 4.574A2.62 2.62 0 0 1 19.33 20H11.7a1.666 1.666 0 0 1-1.663-1.275 1.628 1.628 0 0 1 1.59-1.975h.93l.066-.928C12.785 13.572 14.174 12 16 12a3.17 3.17 0 0 1 3.07 2.326l.175.618.635.098a2.496 2.496 0 0 1 2.105 2.734"/></svg>