<svg xmlns="http://www.w3.org/2000/svg" width="32" height="32" viewBox="0 0 32 32"><path d="M21.985 17.776a2.497 2.497 0 0 0-2.105-2.734l-.635-.098-.175-.618A3.167 3.167 0 0 0 16 12c-1.826 0-3.215 1.571-3.378 3.822l-.066.928h-.93a1.63 1.63 0 0 0-1.59 1.975A1.665 1.665 0 0 0 11.7 20h7.63a2.622 2.622 0 0 0 2.656-2.224Z"/><path d="M23 4a5.006 5.006 0 0 1 5 5v14a5.006 5.006 0 0 1-5 5H9a5.006 5.006 0 0 1-5-5V9a5.006 5.006 0 0 1 5-5h14Zm-2.208 9.202A5.215 5.215 0 0 0 16 10c-2.632 0-4.747 2-5.27 4.861a3.632 3.632 0 0 0-2.653 4.265A3.67 3.67 0 0 0 11.7 22h7.63a4.64 4.64 0 0 0 4.645-4.013 4.493 4.493 0 0 0-3.182-4.785Z"/></svg>