<svg xmlns="http://www.w3.org/2000/svg" width="32" height="32" viewBox="0 0 32 32"><path d="M23 4.25H9A4.756 4.756 0 0 0 4.25 9v14A4.756 4.756 0 0 0 9 27.75h14A4.755 4.755 0 0 0 27.75 23V9A4.756 4.756 0 0 0 23 4.25M26.25 23A3.254 3.254 0 0 1 23 26.25H9A3.254 3.254 0 0 1 5.75 23V9A3.254 3.254 0 0 1 9 5.75h14A3.254 3.254 0 0 1 26.25 9zM20.607 13.41A4.965 4.965 0 0 0 16 10.25c-2.556 0-4.602 1.991-5.05 4.817a3.38 3.38 0 0 0-2.628 4.01A3.42 3.42 0 0 0 11.7 21.75h7.63a4.39 4.39 0 0 0 4.397-3.789 4.244 4.244 0 0 0-3.12-4.552m1.627 4.393a2.87 2.87 0 0 1-2.905 2.447H11.7a1.915 1.915 0 0 1-1.908-1.475 1.88 1.88 0 0 1 1.834-2.275h.698l.05-.696c.172-2.387 1.664-4.054 3.627-4.054a3.414 3.414 0 0 1 3.31 2.509l.132.463.476.073a2.745 2.745 0 0 1 2.316 3.008"/></svg>