<svg xmlns="http://www.w3.org/2000/svg" width="32" height="32" viewBox="0 0 32 32"><path d="M2.473 2.473a.75.75 0 0 0 0 1.058l26.002 26.002a.748.748 0 1 0 1.058-1.058l-3.648-3.649a7.5 7.5 0 0 0 3.82-5.537 7.237 7.237 0 0 0-5.697-7.855A9.04 9.04 0 0 0 16 6.25a8.94 8.94 0 0 0-6.164 2.528L3.531 2.473a.75.75 0 0 0-1.058 0m8.45 7.392A7.54 7.54 0 0 1 16 7.75a7.53 7.53 0 0 1 6.795 4.643l.162.385.414.064a5.74 5.74 0 0 1 4.842 6.289 5.99 5.99 0 0 1-3.442 4.582zM7.15 14.546a8.9 8.9 0 0 1 .9-3.313l1.153 1.153a7.5 7.5 0 0 0-.58 2.864V16h-.75a4.12 4.12 0 0 0-3.198 1.521 4.16 4.16 0 0 0-.839 3.477 4.204 4.204 0 0 0 4.175 3.252h13.055l1.496 1.495a8 8 0 0 1-.382.005H8.01a5.71 5.71 0 0 1-5.643-4.451 5.637 5.637 0 0 1 4.782-6.753"/></svg>