<svg xmlns="http://www.w3.org/2000/svg" width="32" height="32" viewBox="0 0 32 32"><path d="M28.219 15.126a5.74 5.74 0 0 0-4.842-6.285l-.414-.064-.164-.387a7.53 7.53 0 0 0-6.794-4.64 7.543 7.543 0 0 0-7.378 7.5V12h-.75a4.133 4.133 0 0 0-4.036 4.993 4.2 4.2 0 0 0 4.17 3.257h2.995a.75.75 0 1 1 0 1.5H8.017a5.71 5.71 0 0 1-5.645-4.446l-.001-.004a5.636 5.636 0 0 1 4.781-6.754 8.943 8.943 0 0 1 8.85-8.296h.007a9.03 9.03 0 0 1 8.004 5.184 7.237 7.237 0 0 1 5.696 7.855l-.001.008a7.5 7.5 0 0 1-7.526 6.453h-1.178a.75.75 0 1 1 0-1.5h1.184a5.99 5.99 0 0 0 6.03-5.124M16.755 14.999v12.214l2.729-2.72a.75.75 0 0 1 1.06.002.75.75 0 0 1 .161.818l-4.171 4.238a.75.75 0 0 1-1.059-.001l-3.994-3.989a.75.75 0 0 1 1.06-1.06l.002.002 2.712 2.708V14.999a.75.75 0 0 1 1.5 0"/></svg>