<svg xmlns="http://www.w3.org/2000/svg" width="32" height="32" viewBox="0 0 32 32"><path d="M23.835 11.654A8.785 8.785 0 0 0 16 6.5a8.693 8.693 0 0 0-8.615 8.271 5.387 5.387 0 0 0-4.774 6.477 5.457 5.457 0 0 0 5.4 4.252H22.18a7.246 7.246 0 0 0 7.276-6.238 6.987 6.987 0 0 0-5.62-7.608Zm4.627 7.503A6.237 6.237 0 0 1 22.18 24.5H8.01a4.452 4.452 0 0 1-4.418-3.453 4.383 4.383 0 0 1 4.28-5.298h.5v-.5A7.793 7.793 0 0 1 16 7.5a7.782 7.782 0 0 1 7.024 4.795l.11.257.275.043a5.99 5.99 0 0 1 5.053 6.563Z"/></svg>