<svg xmlns="http://www.w3.org/2000/svg" width="32" height="32" viewBox="0 0 32 32"><path d="M2.657 2.647a.5.5 0 0 0 0 .708l25.988 25.988a.5.5 0 0 0 .707-.707l-3.877-3.877a7.244 7.244 0 0 0 3.981-5.496 6.987 6.987 0 0 0-5.62-7.609A8.784 8.784 0 0 0 16 6.5a8.693 8.693 0 0 0-6.158 2.625L3.364 2.647a.5.5 0 0 0-.707 0Zm7.92 7.213A7.793 7.793 0 0 1 16 7.5a7.782 7.782 0 0 1 7.023 4.795l.11.257.275.043a5.99 5.99 0 0 1 5.053 6.562 6.237 6.237 0 0 1-3.739 4.85L10.577 9.86ZM7.385 14.771a8.693 8.693 0 0 1 1.227-4.05l.757.757a7.792 7.792 0 0 0-.997 3.772v.5h-.5a4.385 4.385 0 0 0-4.28 5.298A4.453 4.453 0 0 0 8.01 24.5H22.39l.927.926a7.258 7.258 0 0 1-1.137.074H8.01a5.457 5.457 0 0 1-5.399-4.251 5.386 5.386 0 0 1 4.774-6.477Z"/></svg>