<svg xmlns="http://www.w3.org/2000/svg" width="32" height="32" viewBox="0 0 32 32"><path d="M17 1.25a.75.75 0 0 1 .75.75c0 1.131-.285 2.03-.751 2.729a4.26 4.26 0 0 1-1.664 1.442c-.39.195-.889.597-1.177 1.126-.267.49-.368 1.106.013 1.868a.75.75 0 0 1-1.342.67c-.619-1.238-.47-2.372.012-3.257.462-.846 1.214-1.444 1.823-1.749.411-.205.8-.502 1.087-.933.284-.426.499-1.027.499-1.896a.75.75 0 0 1 .75-.75ZM4.25 14a.75.75 0 0 1 .75-.75h22a.75.75 0 0 1 .75.75c0 .42-.01.836-.032 1.25h1.032c1.73 0 3 1.531 3 3.25s-1.27 3.25-3 3.25h-2.556a11.468 11.468 0 0 1-1.09 1.82c-1.906 2.586-4.891 4.18-9.104 4.18-4.213 0-7.198-1.593-9.104-4.18C5.016 21.02 4.25 17.59 4.25 14Zm22.558 6.25h1.942c.756 0 1.5-.707 1.5-1.75 0-1.043-.744-1.75-1.5-1.75h-1.161a17.27 17.27 0 0 1-.781 3.5Zm-21.046-5.5c.101 3.109.84 5.893 2.342 7.93 1.594 2.164 4.109 3.57 7.896 3.57s6.302-1.406 7.896-3.57c1.501-2.037 2.24-4.821 2.342-7.93H5.762ZM5.25 30a.75.75 0 0 1 .75-.75h20a.75.75 0 0 1 0 1.5H6a.75.75 0 0 1-.75-.75ZM19.712 5.263a.75.75 0 1 0-1.423.474c.185.557.11.95-.044 1.266-.172.354-.454.646-.775.967-.377.376-.713.864-.866 1.448-.156.601-.105 1.257.225 1.917a.75.75 0 1 0 1.342-.67c-.17-.34-.179-.624-.115-.869.068-.26.231-.523.474-.766l.024-.023c.3-.3.75-.75 1.04-1.35.318-.654.432-1.451.118-2.394Z"/></svg>