<svg xmlns="http://www.w3.org/2000/svg" width="32" height="32" viewBox="0 0 32 32"><path d="M17 1.5a.5.5 0 0 1 .5.5c0 1.087-.274 1.936-.71 2.59a4.01 4.01 0 0 1-1.567 1.357 3.133 3.133 0 0 0-1.284 1.23c-.304.556-.413 1.258.008 2.1a.5.5 0 1 1-.894.447c-.58-1.159-.439-2.207.008-3.026.433-.794 1.142-1.359 1.715-1.645.44-.22.866-.543 1.183-1.018.314-.471.54-1.122.54-2.035a.5.5 0 0 1 .5-.5ZM4.5 14a.5.5 0 0 1 .5-.5h22a.5.5 0 0 1 .5.5c0 .505-.015 1.005-.047 1.5h1.297c1.567 0 2.75 1.394 2.75 3s-1.183 3-2.75 3h-2.714c-.32.684-.696 1.328-1.134 1.922C23.05 25.938 20.142 27.5 16 27.5c-4.142 0-7.049-1.562-8.903-4.078C5.261 20.93 4.5 17.56 4.5 14Zm21.953 6.5h2.297c.918 0 1.75-.845 1.75-2s-.832-2-1.75-2h-1.384c-.156 1.409-.453 2.758-.913 4Zm-20.948-6c.07 3.242.815 6.18 2.398 8.329C9.549 25.063 12.142 26.5 16 26.5c3.858 0 6.451-1.438 8.098-3.672 1.582-2.148 2.328-5.086 2.397-8.328H5.505ZM5.5 30a.5.5 0 0 1 .5-.5h20a.5.5 0 0 1 0 1H6a.5.5 0 0 1-.5-.5ZM19.474 5.342a.5.5 0 1 0-.948.316c.207.621.125 1.082-.056 1.454-.193.398-.506.717-.823 1.034-.355.355-.662.805-.8 1.335-.142.542-.097 1.136.206 1.743a.5.5 0 1 0 .894-.448c-.196-.393-.212-.739-.133-1.043.082-.314.274-.614.54-.88l.017-.017c.302-.301.727-.726.999-1.288.29-.598.397-1.327.104-2.206Z"/></svg>