<svg xmlns="http://www.w3.org/2000/svg" width="32" height="32" viewBox="0 0 32 32"><path d="M16.963 1a1 1 0 1 0-2 0c0 1.123-.225 1.633-.425 1.9-.213.285-.5.444-1.022.706-1.266.633-1.953 1.624-2.21 2.651-.247.987-.091 1.982.263 2.69a1 1 0 1 0 1.789-.894c-.146-.292-.24-.797-.112-1.31.118-.473.431-.982 1.165-1.349l.048-.024c.477-.238 1.161-.579 1.68-1.27.55-.733.824-1.723.824-3.1M18.646 2.551a1 1 0 0 1 1.265.633c.697 2.09-.713 3.497-1.21 3.992l-.031.031a1.5 1.5 0 0 0-.37.63.95.95 0 0 0 .057.716 1 1 0 1 1-1.789.894c-.771-1.543.03-2.997.688-3.654.534-.535 1.046-1.113.758-1.977a1 1 0 0 1 .632-1.265M2.963 12a1 1 0 0 1 1-1h22a1 1 0 0 1 1 1q0 .502-.02 1h.52c1.285 0 2.22.5 2.8 1.275.544.726.7 1.585.7 2.225s-.156 1.5-.7 2.225c-.58.774-1.515 1.275-2.8 1.275h-2.15a11.6 11.6 0 0 1-1.045 1.718C22.31 24.375 19.247 26 14.963 26s-7.347-1.625-9.305-4.282C3.735 19.11 2.963 15.621 2.963 12m23.153 6h1.347c.714 0 1.03-.25 1.2-.475.206-.274.3-.665.3-1.025s-.095-.75-.3-1.025c-.17-.226-.486-.475-1.2-.475h-.69a17.6 17.6 0 0 1-.657 3M4.985 13c.132 2.972.863 5.605 2.283 7.532C8.81 22.625 11.247 24 14.963 24s6.153-1.375 7.695-3.468c1.42-1.927 2.151-4.56 2.283-7.532zM3.963 28a1 1 0 0 1 1-1h20a1 1 0 1 1 0 2h-20a1 1 0 0 1-1-1"/></svg>