<svg xmlns="http://www.w3.org/2000/svg" width="32" height="32" viewBox="0 0 32 32"><path d="M16.713 1a.75.75 0 1 0-1.5 0c0 1.155-.231 1.725-.475 2.05-.254.339-.593.52-1.11.78-1.2.6-1.84 1.53-2.08 2.488-.232.928-.084 1.86.244 2.517a.75.75 0 1 0 1.342-.67c-.172-.344-.274-.91-.13-1.483.135-.542.495-1.111 1.295-1.511l.04-.02c.48-.24 1.117-.558 1.6-1.201.506-.675.774-1.605.774-2.95M18.726 2.788a.75.75 0 0 1 .948.475c.648 1.942-.66 3.247-1.155 3.741l-.026.026c-.382.382-.656 1.042-.36 1.635a.75.75 0 1 1-1.341.67c-.704-1.407.022-2.747.64-3.365.526-.526 1.16-1.21.82-2.233a.75.75 0 0 1 .474-.949M3.213 12a.75.75 0 0 1 .75-.75h22a.75.75 0 0 1 .75.75q0 .63-.032 1.25h.782c1.214 0 2.07.47 2.6 1.175.502.67.65 1.47.65 2.075s-.148 1.406-.65 2.075c-.53.706-1.386 1.175-2.6 1.175h-2.306a11.5 11.5 0 0 1-1.09 1.82c-1.906 2.586-4.891 4.18-9.104 4.18s-7.198-1.594-9.104-4.18C3.98 19.02 3.213 15.59 3.213 12m22.558 6.25h1.692c.786 0 1.18-.28 1.4-.575.248-.33.35-.78.35-1.175s-.102-.844-.35-1.175c-.22-.294-.614-.575-1.4-.575h-.911a17.3 17.3 0 0 1-.781 3.5m-21.046-5.5c.101 3.109.84 5.893 2.342 7.93 1.594 2.164 4.109 3.57 7.896 3.57s6.302-1.406 7.896-3.57c1.501-2.037 2.24-4.821 2.342-7.93zM4.213 28a.75.75 0 0 1 .75-.75h20a.75.75 0 0 1 0 1.5h-20a.75.75 0 0 1-.75-.75"/></svg>