<svg xmlns="http://www.w3.org/2000/svg" width="32" height="32" viewBox="0 0 32 32"><path d="M16.463 1a.5.5 0 1 0-1 0c0 1.187-.237 1.817-.525 2.2-.294.393-.687.597-1.198.853-1.133.566-1.727 1.437-1.95 2.326-.216.868-.076 1.74.226 2.345a.5.5 0 0 0 .895-.448c-.198-.395-.308-1.023-.15-1.655.153-.611.56-1.24 1.426-1.674l.03-.015c.483-.241 1.075-.537 1.521-1.132.463-.617.725-1.487.725-2.8M18.806 3.026a.5.5 0 0 1 .632.316c.598 1.794-.606 2.997-1.101 3.492l-.02.02c-.421.421-.77 1.194-.406 1.922a.5.5 0 1 1-.894.448c-.636-1.272.015-2.499.593-3.078.518-.517 1.273-1.306.88-2.488a.5.5 0 0 1 .316-.632M3.463 12a.5.5 0 0 1 .5-.5h22a.5.5 0 0 1 .5.5q0 .758-.047 1.5h1.047c1.143 0 1.922.438 2.4 1.075.46.613.6 1.355.6 1.925s-.14 1.312-.6 1.925c-.478.637-1.257 1.075-2.4 1.075h-2.464c-.32.684-.696 1.328-1.134 1.922-1.853 2.515-4.76 4.078-8.902 4.078s-7.049-1.562-8.903-4.078C4.224 18.93 3.463 15.56 3.463 12m21.953 6.5h2.047c.857 0 1.328-.312 1.6-.675.29-.387.4-.895.4-1.325s-.11-.938-.4-1.325c-.272-.363-.743-.675-1.6-.675h-1.134c-.156 1.409-.453 2.758-.913 4m-20.948-6c.069 3.242.815 6.18 2.397 8.328 1.647 2.235 4.24 3.672 8.098 3.672s6.451-1.437 8.097-3.672c1.583-2.148 2.329-5.086 2.398-8.328zM4.463 28a.5.5 0 0 1 .5-.5h20a.5.5 0 0 1 0 1h-20a.5.5 0 0 1-.5-.5"/></svg>