<svg xmlns="http://www.w3.org/2000/svg" width="32" height="32" viewBox="0 0 32 32"><path d="M17 1a1 1 0 0 1 1 1c0 1.175-.297 2.123-.793 2.867a4.51 4.51 0 0 1-1.76 1.527c-.354.178-.81.547-1.07 1.022-.231.425-.324.954.017 1.637a1 1 0 1 1-1.789.894c-.658-1.317-.501-2.538.017-3.488.49-.9 1.285-1.53 1.93-1.853.382-.191.733-.461.99-.848.254-.38.458-.933.458-1.758a1 1 0 0 1 1-1ZM4 14a1 1 0 0 1 1-1h22a1 1 0 0 1 1 1c0 .335-.007.668-.02 1h.77c1.891 0 3.25 1.669 3.25 3.5S30.641 22 28.75 22h-2.4a11.64 11.64 0 0 1-1.045 1.718C23.347 26.375 20.284 28 16 28s-7.347-1.625-9.305-4.282C4.772 21.11 4 17.62 4 14Zm23.153 6h1.597c.594 0 1.25-.57 1.25-1.5s-.656-1.5-1.25-1.5h-.94a17.644 17.644 0 0 1-.657 3ZM6.022 15c.132 2.972.863 5.605 2.283 7.532C9.847 24.625 12.284 26 16 26s6.153-1.375 7.695-3.468c1.42-1.927 2.151-4.56 2.283-7.532H6.022ZM5 30a1 1 0 0 1 1-1h20a1 1 0 1 1 0 2H6a1 1 0 0 1-1-1ZM19.949 5.184a1 1 0 0 0-1.898.632c.165.493.095.818-.03 1.078-.152.31-.404.574-.728.899-.399.399-.764.924-.93 1.562-.172.66-.114 1.379.243 2.092a1 1 0 1 0 1.789-.894c-.144-.287-.145-.509-.097-.694.054-.206.188-.431.41-.652l.027-.028c.298-.298.775-.774 1.085-1.413.344-.71.465-1.575.129-2.582Z"/></svg>