<svg xmlns="http://www.w3.org/2000/svg" width="32" height="32" viewBox="0 0 32 32"><path d="M5.587 5.985C7.997 3.443 11.527 2 16 2c4.42 0 7.916 1.17 10.326 3.167C28.748 7.175 30 9.96 30 13c0 3.406-.932 5.683-2.951 7.009-1.901 1.249-4.56 1.491-7.549 1.491-1.335 0-2.231.332-2.808.772a2.66 2.66 0 0 0-1.019 1.71c-.242 1.402.443 3.158 1.908 4.204A1 1 0 0 1 17 30c-4.522 0-8.283-1.437-10.92-3.949C3.44 23.536 2 20.015 2 16c0-3.965 1.186-7.482 3.587-10.015M18 10a2 2 0 1 0-4 0 2 2 0 0 0 4 0m-8 6a2 2 0 1 0 0-4 2 2 0 0 0 0 4m14-2a2 2 0 1 0-4 0 2 2 0 0 0 4 0"/></svg>