<svg xmlns="http://www.w3.org/2000/svg" width="32" height="32" viewBox="0 0 32 32"><path d="M4 16c0-3.574 1.064-6.557 3.038-8.639C9.004 5.288 11.972 4 16 4c4.08 0 7.084 1.08 9.05 2.708C27.002 8.325 28 10.54 28 13c0 3.055-.818 4.529-2.049 5.337-1.349.886-3.44 1.163-6.451 1.163-1.665 0-3.019.418-4.02 1.181-1.008.768-1.583 1.829-1.778 2.962-.242 1.4.092 2.909.88 4.197-2.965-.407-5.37-1.567-7.123-3.237C5.253 22.502 4 19.523 4 16M16 2C11.528 2 7.996 3.443 5.587 5.985 3.186 8.518 2 12.035 2 16c0 4.015 1.44 7.536 4.08 10.051C8.717 28.563 12.478 30 17 30a1 1 0 0 0 .581-1.814c-1.465-1.046-2.15-2.802-1.908-4.204a2.66 2.66 0 0 1 1.02-1.71c.576-.44 1.472-.772 2.807-.772 2.99 0 5.648-.242 7.549-1.491C29.068 18.683 30 16.406 30 13c0-3.04-1.252-5.825-3.674-7.833C23.916 3.171 20.42 2 16 2m-6 14a2 2 0 1 0 0-4 2 2 0 0 0 0 4m8-6a2 2 0 1 1-4 0 2 2 0 0 1 4 0m4 6a2 2 0 1 0 0-4 2 2 0 0 0 0 4"/></svg>