<svg xmlns="http://www.w3.org/2000/svg" width="32" height="32" viewBox="0 0 32 32"><path d="M3.5 16c0-3.671 1.095-6.788 3.175-8.983C8.752 4.827 11.861 3.5 16 3.5c4.165 0 7.292 1.102 9.369 2.823C27.439 8.038 28.5 10.395 28.5 13c0 3.143-.846 4.817-2.274 5.755C24.739 19.732 22.506 20 19.5 20c-1.583 0-2.822.396-3.717 1.079-.898.685-1.412 1.63-1.588 2.648-.276 1.6.276 3.382 1.46 4.726-3.579-.254-6.478-1.523-8.54-3.488C4.8 22.76 3.5 19.646 3.5 16M16 2.5c-4.361 0-7.752 1.404-10.05 3.83C3.655 8.75 2.5 12.132 2.5 16c0 3.892 1.393 7.278 3.924 9.689C8.954 28.099 12.585 29.5 17 29.5a.5.5 0 0 0 .29-.907c-1.607-1.148-2.387-3.088-2.11-4.695.137-.794.53-1.505 1.21-2.024.682-.52 1.693-.874 3.11-.874 2.995 0 5.511-.25 7.275-1.409C28.596 18.394 29.5 16.318 29.5 13c0-2.895-1.189-5.538-3.494-7.448C23.709 3.648 20.337 2.5 16 2.5M9.5 15a1.5 1.5 0 1 0 0-3 1.5 1.5 0 0 0 0 3M17 9.5a1.5 1.5 0 1 1-3 0 1.5 1.5 0 0 1 3 0m4.5 5.5a1.5 1.5 0 1 0 0-3 1.5 1.5 0 0 0 0 3"/></svg>