<svg xmlns="http://www.w3.org/2000/svg" width="32" height="32" viewBox="0 0 32 32"><path d="M3.75 16c0-3.623 1.08-6.672 3.107-8.811C8.877 5.057 11.917 3.75 16 3.75c4.122 0 7.188 1.09 9.209 2.765C27.22 8.182 28.25 10.468 28.25 13c0 3.1-.832 4.673-2.162 5.546-1.418.931-3.58 1.204-6.588 1.204-1.624 0-2.92.407-3.869 1.13-.953.727-1.497 1.73-1.683 2.805-.258 1.5.175 3.14 1.145 4.468-3.261-.34-5.903-1.556-7.807-3.37C5.026 22.632 3.75 19.586 3.75 16M16 2.25c-4.417 0-7.878 1.424-10.232 3.907C3.42 8.634 2.25 12.084 2.25 16c0 3.954 1.416 7.407 4.002 9.87 2.584 2.461 6.28 3.88 10.748 3.88a.75.75 0 0 0 .436-1.36c-1.537-1.098-2.269-2.945-2.01-4.45.128-.737.49-1.39 1.115-1.867.63-.48 1.583-.823 2.959-.823 2.992 0 5.58-.247 7.412-1.45 1.92-1.261 2.838-3.438 2.838-6.8 0-2.968-1.22-5.682-3.584-7.64C23.812 3.41 20.378 2.25 16 2.25M9.75 15.5a1.75 1.75 0 1 0 0-3.5 1.75 1.75 0 0 0 0 3.5m7.75-5.75a1.75 1.75 0 1 1-3.5 0 1.75 1.75 0 0 1 3.5 0m4.25 5.75a1.75 1.75 0 1 0 0-3.5 1.75 1.75 0 0 0 0 3.5"/></svg>