<svg xmlns="http://www.w3.org/2000/svg" width="32" height="32" viewBox="0 0 32 32"><path d="M21 17.5a1.5 1.5 0 1 0 0-3 1.5 1.5 0 0 0 0 3ZM16 17.5a1.5 1.5 0 1 0 0-3 1.5 1.5 0 0 0 0 3ZM11 17.5a1.5 1.5 0 1 0 0-3 1.5 1.5 0 0 0 0 3Z"/><path d="M16 3A13.002 13.002 0 0 0 5.096 23.08a4.708 4.708 0 0 1-2.07 2.483 7 7 0 0 0-.415.276 1.476 1.476 0 0 0-.603 1.354 1.51 1.51 0 0 0 .876 1.215c.98.406 2.032.608 3.093.594a8.52 8.52 0 0 0 4.469-1.246A13 13 0 1 0 16 3Zm0 24c-1.797 0-3.566-.44-5.154-1.28a1 1 0 0 0-1.048.069 6.621 6.621 0 0 1-5.136 1.086 7.218 7.218 0 0 0 2.496-3.567 1.002 1.002 0 0 0-.122-.931A11 11 0 1 1 16 27Z"/></svg>