<svg xmlns="http://www.w3.org/2000/svg" width="32" height="32" viewBox="0 0 32 32"><path d="M21 17a1 1 0 1 0 0-2 1 1 0 0 0 0 2M16 17a1 1 0 1 0 0-2 1 1 0 0 0 0 2M11 17a1 1 0 1 0 0-2 1 1 0 0 0 0 2M16 3.5A12.502 12.502 0 0 0 5.66 23.025a5.33 5.33 0 0 1-2.367 2.96c-.144.092-.275.174-.388.258a.98.98 0 0 0-.4.899 1 1 0 0 0 .586.811 7.3 7.3 0 0 0 2.884.552 8.03 8.03 0 0 0 4.438-1.32A12.5 12.5 0 1 0 16 3.5m0 24c-1.878 0-3.728-.46-5.389-1.337a.5.5 0 0 0-.524.033 7.12 7.12 0 0 1-6.59.853c.097-.071.208-.14.33-.217a6.42 6.42 0 0 0 2.863-3.7.5.5 0 0 0-.062-.465A11.5 11.5 0 1 1 16 27.5"/></svg>