<svg xmlns="http://www.w3.org/2000/svg" width="32" height="32" viewBox="0 0 32 32"><path d="M21 17.25a1.25 1.25 0 1 0 0-2.5 1.25 1.25 0 0 0 0 2.5ZM16 17.25a1.25 1.25 0 1 0 0-2.5 1.25 1.25 0 0 0 0 2.5ZM11 17.25a1.25 1.25 0 1 0 0-2.5 1.25 1.25 0 0 0 0 2.5Z"/><path d="M16 3.25A12.752 12.752 0 0 0 5.378 23.054a5.054 5.054 0 0 1-2.219 2.72 7.13 7.13 0 0 0-.401.267 1.227 1.227 0 0 0-.501 1.126 1.26 1.26 0 0 0 .73 1.014 7.546 7.546 0 0 0 2.989.572 8.274 8.274 0 0 0 4.454-1.281A12.752 12.752 0 1 0 16 3.25Zm0 24c-1.838 0-3.647-.45-5.271-1.309a.75.75 0 0 0-.787.052 6.887 6.887 0 0 1-5.883.988 6.727 6.727 0 0 0 2.865-3.76.745.745 0 0 0-.092-.698A11.251 11.251 0 1 1 16 27.25Z"/></svg>