<svg xmlns="http://www.w3.org/2000/svg" width="32" height="32" viewBox="0 0 32 32"><path d="M8.636 6.375C10.469 5.542 13.072 5 16 5s5.531.542 7.364 1.375C25.288 7.249 26 8.253 26 9s-.712 1.75-2.636 2.625C21.531 12.458 18.928 13 16 13s-5.531-.542-7.364-1.375C6.712 10.751 6 9.747 6 9s.712-1.75 2.636-2.625m15.556 7.07A10 10 0 0 0 26 12.397V16q0 .116-.023.239A7 7 0 0 1 28 18.392V9c0-2.014-1.75-3.51-3.808-4.446C22.044 3.578 19.147 3 16 3s-6.044.578-8.192 1.554C5.75 5.49 4 6.986 4 9v15a1 1 0 0 0 .568.902c.68 1.08 1.894 1.932 3.24 2.544C9.956 28.422 12.853 29 16 29c1.369 0 2.69-.11 3.923-.313a7 7 0 0 1-2.847-1.712Q16.546 27 16 27c-2.928 0-5.531-.542-7.364-1.375C6.712 24.751 6 23.747 6 23v-3.604c.542.405 1.16.755 1.808 1.05 1.918.872 4.434 1.426 7.192 1.534.002-.692.104-1.36.293-1.99-2.64-.08-4.973-.6-6.657-1.365C6.712 17.751 6 16.747 6 16v-3.604c.542.405 1.16.755 1.808 1.05C9.956 14.422 12.853 15 16 15s6.044-.578 8.192-1.554M27 22a5 5 0 1 1-10 0 5 5 0 0 1 10 0m-2.041-.625a1 1 0 0 0-1.302-1.519l-2.526 2.165-.73-.733a1 1 0 1 0-1.418 1.41l1.385 1.392a1 1 0 0 0 1.36.054z"/></svg>