<svg xmlns="http://www.w3.org/2000/svg" width="32" height="32" viewBox="0 0 32 32"><path d="M27 4.25h-5A2.753 2.753 0 0 0 19.25 7v2.275c-.084-.005-.165-.025-.252-.025H6.001A3.756 3.756 0 0 0 2.251 13v6.997A3.756 3.756 0 0 0 6 23.75h2.952l-.638 1.83a1.703 1.703 0 0 0 1.637 2.17h5.095a1.69 1.69 0 0 0 1.36-.677 1.71 1.71 0 0 0 .265-1.533l-.62-1.79h2.946c.123 0 .239-.024.358-.036A2.746 2.746 0 0 0 22 25.75h5A2.753 2.753 0 0 0 29.75 23V7A2.753 2.753 0 0 0 27 4.25M15.208 26.17a.2.2 0 0 1-.16.08H9.951a.215.215 0 0 1-.208-.217l.797-2.283h3.922l.78 2.242a.2.2 0 0 1-.035.177m3.79-3.92H6.001a2.254 2.254 0 0 1-2.25-2.252v-6.997A2.254 2.254 0 0 1 6 10.75h12.997A2.254 2.254 0 0 1 21.25 13v6.997a2.254 2.254 0 0 1-2.252 2.252m9.252.75A1.25 1.25 0 0 1 27 24.25h-5a1.234 1.234 0 0 1-1.196-.984A3.74 3.74 0 0 0 22.75 20V13a3.74 3.74 0 0 0-2-3.297V7A1.25 1.25 0 0 1 22 5.75h5A1.25 1.25 0 0 1 28.25 7zM24.5 10.75a1.25 1.25 0 1 0 0-2.5 1.25 1.25 0 0 0 0 2.5"/></svg>