<svg xmlns="http://www.w3.org/2000/svg" width="32" height="32" viewBox="0 0 32 32"><path d="M29 25.25h-1.252V8.127a2.827 2.827 0 0 0-2.756-2.822H13.996a2.82 2.82 0 0 0-2.75 2.816v1.13H7A2.753 2.753 0 0 0 4.25 12v13.25H3a.75.75 0 1 0 0 1.5h26a.75.75 0 1 0 0-1.5M5.75 12A1.25 1.25 0 0 1 7 10.75h4.246v14.5H5.75zm7 13.25-.004-17.129a1.3 1.3 0 0 1 1.25-1.316h10.996a1.324 1.324 0 0 1 1.256 1.322V25.25zM8.5 14.01a.75.75 0 1 0 0-1.5.75.75 0 0 0 0 1.5M8.5 17.5a.75.75 0 1 0 0-1.5.75.75 0 0 0 0 1.5M8.5 20.75a.75.75 0 1 0 0-1.5.75.75 0 0 0 0 1.5M16 10.75a.75.75 0 1 0 0-1.5.75.75 0 0 0 0 1.5M19.497 10.75a.75.75 0 1 0 0-1.5.75.75 0 0 0 0 1.5M19.497 14a.75.75 0 1 0 0-1.5.75.75 0 0 0 0 1.5M19.497 17.5a.75.75 0 1 0 0-1.5.75.75 0 0 0 0 1.5M23 10.75a.75.75 0 1 0 0-1.5.75.75 0 0 0 0 1.5M23 14a.75.75 0 1 0 0-1.5.75.75 0 0 0 0 1.5M23 17.5a.75.75 0 1 0 0-1.5.75.75 0 0 0 0 1.5M16 14a.75.75 0 1 0 0-1.5.75.75 0 0 0 0 1.5M16 17.5a.75.75 0 1 0 0-1.5.75.75 0 0 0 0 1.5M16 20.75a.75.75 0 1 0 0-1.5.75.75 0 0 0 0 1.5M19.497 20.75a.75.75 0 1 0 0-1.5.75.75 0 0 0 0 1.5M23 20.75a.75.75 0 1 0 0-1.5.75.75 0 0 0 0 1.5"/></svg>