<svg xmlns="http://www.w3.org/2000/svg" width="32" height="32" viewBox="0 0 32 32"><path fill-rule="evenodd" d="M24.088 13.218c.813-.369 1.559-.819 2.162-1.343V16c0 .13-.017.262-.052.398.599.45 1.124.993 1.552 1.609V9c0-1.856-1.62-3.29-3.662-4.218C21.98 3.823 19.12 3.25 16 3.25c-3.12 0-5.98.573-8.089 1.532C5.871 5.709 4.25 7.144 4.25 9v15a.75.75 0 0 0 .49.704c.63 1.047 1.807 1.894 3.171 2.514 2.11.959 4.97 1.532 8.089 1.532a24.17 24.17 0 0 0 3.424-.24 7 7 0 0 1-2.096-1.297c-.434.024-.877.037-1.328.037-2.956 0-5.595-.546-7.468-1.397C6.592 24.97 5.75 23.906 5.75 23v-4.125c.603.524 1.35.974 2.161 1.343 1.883.856 4.364 1.404 7.094 1.512.02-.513.094-1.013.219-1.493-2.64-.086-4.985-.608-6.692-1.384C6.592 17.97 5.75 16.906 5.75 16v-4.125c.603.524 1.35.974 2.161 1.343 2.11.959 4.97 1.532 8.089 1.532 3.12 0 5.98-.573 8.088-1.532ZM8.533 6.148C6.592 7.028 5.75 8.093 5.75 9c0 .906.842 1.97 2.782 2.853 1.873.85 4.512 1.397 7.468 1.397 2.956 0 5.595-.546 7.468-1.397C25.408 10.97 26.25 9.906 26.25 9c0-.906-.842-1.97-2.782-2.853C21.595 5.297 18.956 4.75 16 4.75c-2.956 0-5.595.546-7.468 1.397Z" clip-rule="evenodd"/><path fill-rule="evenodd" d="M27.5 22a5.5 5.5 0 1 1-11 0 5.5 5.5 0 0 1 11 0Zm-2.704-.815a.75.75 0 0 0-.976-1.14l-2.702 2.317-.894-.898a.75.75 0 1 0-1.063 1.058l1.384 1.392a.75.75 0 0 0 1.02.04l3.23-2.77Z" clip-rule="evenodd"/></svg>