<svg xmlns="http://www.w3.org/2000/svg" width="32" height="32" viewBox="0 0 32 32"><path d="M3.5 16C3.5 9.096 9.096 3.5 16 3.5S28.5 9.096 28.5 16a.5.5 0 0 0 1 0c0-7.456-6.044-13.5-13.5-13.5S2.5 8.544 2.5 16 8.544 29.5 16 29.5a.5.5 0 0 0 0-1C9.096 28.5 3.5 22.904 3.5 16m13-8a.5.5 0 0 0-1 0v8a.5.5 0 0 0 .146.354l1 1a.5.5 0 0 0 .708-.708l-.854-.853zm6.5 9.5a5.5 5.5 0 1 0 0 11 5.5 5.5 0 0 0 0-11M16.5 23a6.5 6.5 0 1 1 13 0 6.5 6.5 0 0 1-13 0m9.133-1.005a.5.5 0 0 0-.65-.76l-2.879 2.468-1.057-1.063a.5.5 0 0 0-.71.706l1.386 1.391a.5.5 0 0 0 .68.027z"/></svg>