<svg xmlns="http://www.w3.org/2000/svg" width="32" height="32" viewBox="0 0 32 32"><path d="M3.75 16C3.75 9.235 9.235 3.75 16 3.75S28.25 9.235 28.25 16a.75.75 0 0 0 1.5 0c0-7.594-6.156-13.75-13.75-13.75S2.25 8.406 2.25 16 8.406 29.75 16 29.75a.75.75 0 0 0 0-1.5C9.235 28.25 3.75 22.765 3.75 16m13-8a.75.75 0 0 0-1.5 0v8c0 .199.079.39.22.53l1 1a.75.75 0 1 0 1.06-1.06l-.78-.78zM23 17.75a5.25 5.25 0 1 0 0 10.5 5.25 5.25 0 0 0 0-10.5M16.25 23a6.75 6.75 0 1 1 13.5 0 6.75 6.75 0 0 1-13.5 0m9.546-.815a.75.75 0 0 0-.976-1.14l-2.702 2.317-.894-.898a.75.75 0 1 0-1.063 1.058l1.384 1.392a.75.75 0 0 0 1.02.04z"/></svg>