<svg xmlns="http://www.w3.org/2000/svg" width="32" height="32" viewBox="0 0 32 32"><path d="M27 4h-5a3.003 3.003 0 0 0-3 3v2H6.001a4.006 4.006 0 0 0-4 4.001v6.997A4.006 4.006 0 0 0 6 24h2.6l-.527 1.511a1.954 1.954 0 0 0 1.878 2.49h5.095a1.94 1.94 0 0 0 1.559-.778 1.96 1.96 0 0 0 .302-1.765L16.402 24h2.596c.062 0 .12-.016.181-.019A2.99 2.99 0 0 0 22 26h5a3.003 3.003 0 0 0 3-3V7a3.003 3.003 0 0 0-3-3M10.02 26l.699-2h3.566l.694 2zm8.978-4H6.001a2.004 2.004 0 0 1-2-2.002v-.528q0-.018-.002-.035L4 19.4V13A2.003 2.003 0 0 1 6.001 11h12.997A2.004 2.004 0 0 1 21 13v6.997A2.004 2.004 0 0 1 18.998 22M28 23a1 1 0 0 1-1 1h-5a1 1 0 0 1-.915-.602 3.99 3.99 0 0 0 1.915-3.4v-6.997a3.99 3.99 0 0 0-2-3.444V7a1 1 0 0 1 1-1h5a1 1 0 0 1 1 1zM24.5 11a1.5 1.5 0 1 0 0-3 1.5 1.5 0 0 0 0 3"/></svg>