<svg xmlns="http://www.w3.org/2000/svg" width="32" height="32" viewBox="0 0 32 32"><path d="M29 25h-1.002V8.073A3.08 3.08 0 0 0 24.992 5H13.996a3.074 3.074 0 0 0-3 3.067V9H7a3.003 3.003 0 0 0-3 3v13H3a1 1 0 0 0 0 2h26a1 1 0 0 0 0-2M6 12a1 1 0 0 1 1-1h3.996v14H6zm7 13V10c0-.007-.004-.012-.004-.019V8.067a1.06 1.06 0 0 1 1-1.067h10.996a1.07 1.07 0 0 1 1.006 1.073V25zM8.5 14.01a.75.75 0 1 0 0-1.5.75.75 0 0 0 0 1.5M8.5 17.5a.75.75 0 1 0 0-1.5.75.75 0 0 0 0 1.5M8.5 20.75a.75.75 0 1 0 0-1.5.75.75 0 0 0 0 1.5M16 10.75a.75.75 0 1 0 0-1.5.75.75 0 0 0 0 1.5M19.497 10.75a.75.75 0 1 0 0-1.5.75.75 0 0 0 0 1.5M19.497 14a.75.75 0 1 0 0-1.5.75.75 0 0 0 0 1.5M19.497 17.5a.75.75 0 1 0 0-1.5.75.75 0 0 0 0 1.5M23 10.75a.75.75 0 1 0 0-1.5.75.75 0 0 0 0 1.5M23 14a.75.75 0 1 0 0-1.5.75.75 0 0 0 0 1.5M23 17.5a.75.75 0 1 0 0-1.5.75.75 0 0 0 0 1.5M16 14a.75.75 0 1 0 0-1.5.75.75 0 0 0 0 1.5M16 17.5a.75.75 0 1 0 0-1.5.75.75 0 0 0 0 1.5M16 20.75a.75.75 0 1 0 0-1.5.75.75 0 0 0 0 1.5M19.497 20.75a.75.75 0 1 0 0-1.5.75.75 0 0 0 0 1.5M23 20.75a.75.75 0 1 0 0-1.5.75.75 0 0 0 0 1.5"/></svg>