<svg xmlns="http://www.w3.org/2000/svg" width="32" height="32" viewBox="0 0 32 32"><path d="M29 25.5h-1.502V8.127a2.573 2.573 0 0 0-2.506-2.572H13.996a2.567 2.567 0 0 0-2.5 2.566v1.38H7A2.503 2.503 0 0 0 4.5 12v13.5H3a.5.5 0 0 0 0 1h26a.5.5 0 0 0 0-1M5.5 12A1.5 1.5 0 0 1 7 10.5h4.496v15H5.5zm7 13.5V10c0-.007-.004-.012-.004-.02V8.122a1.555 1.555 0 0 1 1.5-1.566h10.996a1.56 1.56 0 0 1 1.506 1.572V25.5zM8.5 13.76a.5.5 0 1 0 0-1 .5.5 0 0 0 0 1M8.5 17.25a.5.5 0 1 0 0-1 .5.5 0 0 0 0 1M8.5 20.5a.5.5 0 1 0 0-1 .5.5 0 0 0 0 1M16 10.5a.5.5 0 1 0 0-1 .5.5 0 0 0 0 1M19.497 10.5a.5.5 0 1 0 0-1 .5.5 0 0 0 0 1M19.497 13.75a.5.5 0 1 0 0-1 .5.5 0 0 0 0 1M19.497 17.25a.5.5 0 1 0 0-1 .5.5 0 0 0 0 1M23 10.5a.5.5 0 1 0 0-1 .5.5 0 0 0 0 1M23 13.75a.5.5 0 1 0 0-1 .5.5 0 0 0 0 1M23 17.25a.5.5 0 1 0 0-1 .5.5 0 0 0 0 1M16 13.75a.5.5 0 1 0 0-1 .5.5 0 0 0 0 1M16 17.25a.5.5 0 1 0 0-1 .5.5 0 0 0 0 1M16 20.5a.5.5 0 1 0 0-1 .5.5 0 0 0 0 1M19.497 20.5a.5.5 0 1 0 0-1 .5.5 0 0 0 0 1M23 20.5a.5.5 0 1 0 0-1 .5.5 0 0 0 0 1"/></svg>