<svg xmlns="http://www.w3.org/2000/svg" width="32" height="32" viewBox="0 0 32 32"><path d="M7.929 5.42C9.84 4.55 12.517 4 15.5 4s5.66.55 7.571 1.42C25.028 6.31 26 7.436 26 8.5s-.972 2.19-2.929 3.08C21.16 12.45 18.483 13 15.5 13s-5.66-.55-7.571-1.42C5.972 10.69 5 9.564 5 8.5s.972-2.19 2.929-3.08m15.556 7.07c1.011-.459 1.89-1.032 2.515-1.701V15.5q0 .28-.09.564c.403.327.769.698 1.09 1.105V8.5c0-1.697-1.49-3.07-3.515-3.99C21.415 3.568 18.592 3 15.5 3s-5.916.569-7.985 1.51C5.49 5.43 4 6.802 4 8.5v14c0 1.697 1.49 3.07 3.515 3.99 2.07.941 4.893 1.51 7.985 1.51 1.03 0 2.03-.063 2.982-.182a7 7 0 0 1-1.38-.872A24 24 0 0 1 15.5 27c-2.983 0-5.66-.55-7.571-1.42C5.972 24.69 5 23.564 5 22.5v-4.711c.626.67 1.504 1.242 2.515 1.702 1.848.84 4.298 1.383 7.004 1.49q.038-.51.145-.996c-2.645-.092-5.004-.618-6.735-1.405C5.972 17.69 5 16.564 5 15.5v-4.711c.626.67 1.504 1.242 2.515 1.702C9.585 13.43 12.408 14 15.5 14s5.916-.569 7.985-1.51M27.5 21.5a6 6 0 1 1-12 0 6 6 0 0 1 12 0m-3.367-1.005a.5.5 0 0 0-.65-.76l-2.879 2.468-1.057-1.063a.5.5 0 0 0-.71.706l1.386 1.391a.5.5 0 0 0 .68.027z"/></svg>