<svg xmlns="http://www.w3.org/2000/svg" width="32" height="32" viewBox="0 0 32 32"><path d="M27 4.5h-5A2.503 2.503 0 0 0 19.5 7v2.55a3.5 3.5 0 0 0-.502-.05H6.001A3.505 3.505 0 0 0 2.501 13v6.997A3.506 3.506 0 0 0 6 23.5h3.304l-.75 2.148A1.454 1.454 0 0 0 9.952 27.5h5.095a1.452 1.452 0 0 0 1.389-1.878L15.7 23.5h3.298a3.5 3.5 0 0 0 .547-.055A2.5 2.5 0 0 0 22 25.5h5a2.5 2.5 0 0 0 2.5-2.5V7A2.503 2.503 0 0 0 27 4.5M15.41 26.32a.45.45 0 0 1-.362.18H9.952a.455.455 0 0 1-.445-.55l.856-2.45h4.278l.842 2.423a.45.45 0 0 1-.074.398m3.59-3.82H6a2.505 2.505 0 0 1-2.5-2.502v-.528q0-.018-.002-.035L3.5 19.4V13A2.504 2.504 0 0 1 6.001 10.5h12.997A2.504 2.504 0 0 1 21.5 13v6.997a2.504 2.504 0 0 1-2.502 2.502m9.501.5a1.5 1.5 0 0 1-1.5 1.5h-5a1.497 1.497 0 0 1-1.485-1.36 3.5 3.5 0 0 0 1.985-3.142v-6.997a3.5 3.5 0 0 0-2-3.15V7A1.5 1.5 0 0 1 22 5.5h5A1.5 1.5 0 0 1 28.5 7zM24.5 10.5a1 1 0 1 0 0-2 1 1 0 0 0 0 2"/></svg>