<svg xmlns="http://www.w3.org/2000/svg" width="32" height="32" viewBox="0 0 32 32"><path d="M16 3.5a2.5 2.5 0 1 0 0 5 2.5 2.5 0 0 0 0-5M12.5 6a3.5 3.5 0 1 1 7 0 3.5 3.5 0 0 1-7 0m3.5 5.5a.5.5 0 0 1 .5.5v3.5H29a.5.5 0 0 1 0 1h-2.5V20a.5.5 0 0 1-1 0v-3.5h-19V20a.5.5 0 0 1-1 0v-3.5H3a.5.5 0 0 1 0-1h12.5V12a.5.5 0 0 1 .5-.5M9.354 23.354a.5.5 0 0 0-.708-.708L6 25.293l-2.646-2.647a.5.5 0 0 0-.708.708L5.293 26l-2.647 2.646a.5.5 0 0 0 .708.708L6 26.707l2.646 2.647a.5.5 0 0 0 .708-.708L6.707 26zm19.971.026a.5.5 0 1 0-.65-.76l-6.649 5.699-2.672-2.673a.5.5 0 0 0-.708.708l3 3a.5.5 0 0 0 .68.026z"/></svg>