<svg xmlns="http://www.w3.org/2000/svg" width="32" height="32" viewBox="0 0 32 32"><path d="M16 3.75a2.25 2.25 0 1 0 0 4.5 2.25 2.25 0 0 0 0-4.5M12.25 6a3.75 3.75 0 1 1 7.5 0 3.75 3.75 0 0 1-7.5 0M16 11.25a.75.75 0 0 1 .75.75v3.25H29a.75.75 0 0 1 0 1.5h-2.25V20a.75.75 0 0 1-1.5 0v-3.25H6.75V20a.75.75 0 0 1-1.5 0v-3.25H3a.75.75 0 0 1 0-1.5h12.25V12a.75.75 0 0 1 .75-.75M9.53 23.53a.75.75 0 1 0-1.06-1.06L6 24.94l-2.47-2.47a.75.75 0 0 0-1.06 1.06L4.94 26l-2.47 2.47a.75.75 0 1 0 1.06 1.06L6 27.06l2.47 2.47a.75.75 0 0 0 1.06-1.06L7.06 26zm19.958.04a.75.75 0 1 0-.976-1.14l-6.473 5.549-2.509-2.51a.75.75 0 1 0-1.06 1.061l3 3a.75.75 0 0 0 1.018.04z"/></svg>