<svg xmlns="http://www.w3.org/2000/svg" width="32" height="32" viewBox="0 0 32 32"><path d="M16 4a2 2 0 1 0 0 4 2 2 0 0 0 0-4m-4 2a4 4 0 1 1 8 0 4 4 0 0 1-8 0m4 5a1 1 0 0 1 1 1v3h12a1 1 0 1 1 0 2h-2v3a1 1 0 1 1-2 0v-3H7v3a1 1 0 1 1-2 0v-3H3a1 1 0 1 1 0-2h12v-3a1 1 0 0 1 1-1M9.707 23.707a1 1 0 0 0-1.414-1.414L6 24.586l-2.293-2.293a1 1 0 0 0-1.414 1.414L4.586 26l-2.293 2.293a1 1 0 1 0 1.414 1.414L6 27.414l2.293 2.293a1 1 0 0 0 1.414-1.414L7.414 26zm19.944.052a1 1 0 0 0-1.302-1.518l-6.297 5.397-2.345-2.345a1 1 0 0 0-1.414 1.414l3 3a1 1 0 0 0 1.358.052z"/></svg>