<svg xmlns="http://www.w3.org/2000/svg" width="32" height="32" viewBox="0 0 32 32"><path d="M29.08 14c.091 1.555-.1 3.24-.58 4.79-.923 2.985-2.821 5.21-5.53 5.21-1.755 0-2.979-.924-3.98-2.433-.993-1.497-1.717-3.497-2.473-5.589l-.054-.148c-.763-2.11-1.567-4.302-2.727-5.96C12.558 8.186 10.974 7 8.668 7c-1.807 0-3.148.883-4.094 1.904.278.26.442.612.471.98C5.885 8.863 7.065 8 8.668 8c1.886 0 3.196.939 4.248 2.443 1.07 1.53 1.833 3.587 2.607 5.727l.076.21c.738 2.04 1.497 4.14 2.558 5.74C19.27 23.8 20.767 25 22.97 25c3.372 0 5.514-2.775 6.485-5.915.54-1.744.748-3.681.599-5.47a1.5 1.5 0 0 1-.976.385M9.13 25c2.204 0 3.7-1.201 4.814-2.88.603-.909 1.109-1.98 1.568-3.11a60 60 0 0 1-.528-1.396c-.559 1.48-1.143 2.853-1.873 3.953C12.11 23.077 10.886 24 9.13 24c-2.709 0-4.606-2.225-5.53-5.21-.92-2.977-.777-6.452.386-8.547a.5.5 0 0 0-.874-.486c-1.335 2.405-1.441 6.18-.467 9.328C3.617 22.225 5.759 25 9.13 25M16.59 13.307q.276.702.528 1.395c.604-1.597 1.245-3.084 2.067-4.26C20.237 8.94 21.547 8 23.433 8c1.812 0 3.085 1.103 3.934 2.29a9.4 9.4 0 0 1 1.191 2.312l.012.036.003.009a.5.5 0 1 0 .956-.294v-.002l-.002-.004-.004-.014a6 6 0 0 0-.076-.22 10.337 10.337 0 0 0-1.266-2.405c-.938-1.311-2.474-2.708-4.748-2.708-2.306 0-3.89 1.186-5.068 2.87-.697.997-1.266 2.188-1.775 3.437"/></svg>