<svg xmlns="http://www.w3.org/2000/svg" width="32" height="32" viewBox="0 0 32 32"><path d="M9.13 25.5c2.429 0 4.061-1.34 5.23-3.104q.3-.451.57-.948a33 33 0 0 1-1.035-2.457c-.367.852-.757 1.63-1.201 2.3-.945 1.424-2.032 2.209-3.564 2.209-2.376 0-4.152-1.95-5.051-4.858-.895-2.89-.733-6.215.345-8.157a1 1 0 0 0-1.749-.97c-1.42 2.558-1.508 6.483-.507 9.718C3.163 22.45 5.427 25.5 9.13 25.5M17.17 10.867a34 34 0 0 1 1.037 2.461c.417-.97.866-1.853 1.387-2.598.99-1.415 2.163-2.23 3.839-2.23 1.58 0 2.723.956 3.527 2.082a8.9 8.9 0 0 1 1.124 2.178l.01.03v.003l.001.001a1 1 0 0 0 1.912-.587l-.956.293.956-.293v-.002l-.001-.002-.002-.005-.005-.017a5 5 0 0 0-.083-.239 10.836 10.836 0 0 0-1.33-2.524C27.606 8.044 25.938 6.5 23.434 6.5c-2.517 0-4.237 1.31-5.477 3.083-.281.402-.542.833-.785 1.284M28.584 15.464a13.2 13.2 0 0 1-.56 3.178c-.9 2.908-2.676 4.858-5.053 4.858-1.532 0-2.619-.785-3.564-2.209-.96-1.447-1.665-3.399-2.433-5.52l-.04-.111c-.758-2.096-1.583-4.354-2.788-6.077C12.906 7.81 11.186 6.5 8.669 6.5c-1.351 0-2.459.45-3.347 1.08A3 3 0 0 1 6.45 9.23a3.74 3.74 0 0 1 2.219-.73c1.675 0 2.849.815 3.838 2.23 1.025 1.464 1.767 3.456 2.546 5.61l.086.236c.73 2.019 1.507 4.17 2.602 5.82 1.17 1.764 2.802 3.104 5.23 3.104 3.704 0 5.968-3.05 6.963-6.267.409-1.32.636-2.753.665-4.163a3 3 0 0 1-2.015.394"/></svg>