<svg xmlns="http://www.w3.org/2000/svg" width="32" height="32" viewBox="0 0 32 32"><path d="M17.948 22.258c1.141 1.721 2.705 2.992 5.022 2.992 3.538 0 5.74-2.913 6.724-6.09.473-1.53.697-3.21.65-4.82a2.25 2.25 0 0 1-1.493.402 13.5 13.5 0 0 1-.59 3.974c-.912 2.947-2.749 5.034-5.291 5.034-1.644 0-2.8-.854-3.772-2.32-.977-1.473-1.692-3.449-2.453-5.555l-.047-.13c-.761-2.103-1.576-4.328-2.758-6.019-1.21-1.728-2.861-2.976-5.273-2.976-1.579 0-2.814.642-3.747 1.466.424.325.707.783.822 1.28.752-.721 1.714-1.246 2.925-1.246 1.78 0 3.023.877 4.044 2.336 1.047 1.497 1.8 3.522 2.576 5.67l.08.223c.734 2.029 1.503 4.154 2.58 5.78M9.13 25.25c2.317 0 3.88-1.27 5.022-2.992.397-.597.751-1.262 1.077-1.965a41 41 0 0 1-.786-1.976c-.463 1.165-.955 2.23-1.54 3.112-.973 1.467-2.129 2.321-3.773 2.321-2.542 0-4.378-2.087-5.29-5.034-.908-2.933-.755-6.333.366-8.352a.75.75 0 1 0-1.312-.728c-1.378 2.481-1.475 6.331-.487 9.523.983 3.178 3.186 6.091 6.723 6.091M16.872 12.025c.285.66.544 1.326.786 1.975.512-1.283 1.062-2.456 1.732-3.414 1.02-1.459 2.262-2.336 4.043-2.336 1.696 0 2.904 1.03 3.73 2.186a9 9 0 0 1 1.158 2.245l.01.033.003.006a.75.75 0 0 0 1.434-.44l-.718.22.718-.22-.001-.003-.002-.005-.004-.015a4 4 0 0 0-.08-.229 10.58 10.58 0 0 0-1.297-2.464c-.96-1.343-2.562-2.814-4.951-2.814-2.411 0-4.063 1.248-5.273 2.976-.483.692-.906 1.473-1.288 2.299"/></svg>