<svg xmlns="http://www.w3.org/2000/svg" width="32" height="32" viewBox="0 0 32 32"><path d="m12.53 7.53 2.72-2.72v8.193a.75.75 0 0 0 1.5 0V4.81l2.72 2.72a.75.75 0 0 0 1.06-1.06l-4-4a.75.75 0 0 0-1.06 0l-4 4a.75.75 0 0 0 1.06 1.06M25 6.253a.75.75 0 1 0 0 1.5 3.254 3.254 0 0 1 3.25 3.25v12a3.254 3.254 0 0 1-3.25 3.25H7a3.254 3.254 0 0 1-3.25-3.25v-12A3.254 3.254 0 0 1 7 7.753a.75.75 0 0 0 0-1.5 4.755 4.755 0 0 0-4.75 4.75v12A4.755 4.755 0 0 0 7 27.753h18a4.756 4.756 0 0 0 4.75-4.75v-12A4.755 4.755 0 0 0 25 6.253"/></svg>