<svg xmlns="http://www.w3.org/2000/svg" width="32" height="32" viewBox="0 0 32 32"><path d="M24.996 5.25H7.004a4.76 4.76 0 0 0-4.754 4.754v11.992a4.76 4.76 0 0 0 4.754 4.754h17.992a4.76 4.76 0 0 0 4.754-4.754V10.004a4.76 4.76 0 0 0-4.754-4.754m3.254 16.746a3.26 3.26 0 0 1-3.254 3.254H7.004a3.26 3.26 0 0 1-3.254-3.254V10.004A3.26 3.26 0 0 1 7.004 6.75h17.992a3.26 3.26 0 0 1 3.254 3.254zM13.855 15.73a3.249 3.249 0 1 0-4.71 0 4.29 4.29 0 0 0-2.895 3.809c0 .572.338 1.353 1.948 1.82a12.4 12.4 0 0 0 3.302.395c1.232 0 5.25-.16 5.25-2.215a4.29 4.29 0 0 0-2.895-3.81M9.75 13.504a1.75 1.75 0 1 1 3.5 0 1.75 1.75 0 0 1-3.5 0m1.75 6.75c-2.322 0-3.614-.507-3.75-.715 0-1.536 1.682-2.785 3.75-2.785 2.053 0 3.725 1.231 3.75 2.75-.193.264-1.479.75-3.75.75M25 11.25h-7a.75.75 0 1 0 0 1.5h7a.75.75 0 0 0 0-1.5M25 15.25h-6a.75.75 0 1 0 0 1.5h6a.75.75 0 0 0 0-1.5M25 19.25h-5a.75.75 0 1 0 0 1.5h5a.75.75 0 0 0 0-1.5"/></svg>