<svg xmlns="http://www.w3.org/2000/svg" width="32" height="32" viewBox="0 0 32 32"><path d="M18.03 15.84a3.5 3.5 0 1 0-4.061 0 4.815 4.815 0 0 0-3.47 4.402c0 .546.333 1.301 1.914 1.796 1.167.326 2.375.481 3.587.461 2.537 0 5.5-.59 5.5-2.256a4.815 4.815 0 0 0-3.47-4.403ZM13.5 13a2.5 2.5 0 1 1 5 0 2.5 2.5 0 0 1-5 0Zm2.5 8.5c-2.652 0-4.5-.663-4.5-1.258 0-2.063 2.018-3.742 4.5-3.742 2.481 0 4.5 1.679 4.5 3.742 0 .595-1.848 1.257-4.5 1.257Z"/><path d="M22 3.5H10a4.49 4.49 0 0 0-4.45 4H3a.5.5 0 0 0 0 1h2.5v7H3a.5.5 0 0 0 0 1h2.5v7H3a.5.5 0 0 0 0 1h2.55a4.49 4.49 0 0 0 4.45 4h12a4.505 4.505 0 0 0 4.5-4.5V8A4.505 4.505 0 0 0 22 3.5ZM25.5 24a3.504 3.504 0 0 1-3.5 3.5H10A3.504 3.504 0 0 1 6.5 24V8A3.504 3.504 0 0 1 10 4.5h12A3.504 3.504 0 0 1 25.5 8v16Z"/></svg>