<svg xmlns="http://www.w3.org/2000/svg" width="32" height="32" viewBox="0 0 32 32"><path d="M23 4.25H9A4.755 4.755 0 0 0 4.25 9v14A4.755 4.755 0 0 0 9 27.75h14A4.755 4.755 0 0 0 27.75 23V9A4.755 4.755 0 0 0 23 4.25m2.758 3.052c.32.51.49 1.097.492 1.698v2.25h-4.44zm-5.447 5.448h5.939v3.5h-9.44zm-5 5H26.25v3.5H11.81zM5.75 9A3.254 3.254 0 0 1 9 5.75h14c.6.002 1.189.173 1.698.492L6.242 24.698A3.2 3.2 0 0 1 5.75 23zM23 26.25H9a3.2 3.2 0 0 1-1.698-.492l3.009-3.008H26.25V23A3.254 3.254 0 0 1 23 26.25"/></svg>