<svg xmlns="http://www.w3.org/2000/svg" width="32" height="32" viewBox="0 0 32 32"><path d="M24.996 5.5H7.004A4.509 4.509 0 0 0 2.5 10.004v11.992A4.509 4.509 0 0 0 7.004 26.5h17.992a4.51 4.51 0 0 0 4.504-4.504V10.004A4.51 4.51 0 0 0 24.996 5.5ZM28.5 21.996a3.509 3.509 0 0 1-3.504 3.504H7.004A3.508 3.508 0 0 1 3.5 21.996V10.004A3.508 3.508 0 0 1 7.004 6.5h17.992a3.508 3.508 0 0 1 3.504 3.504v11.992Z"/><path d="M13.396 15.81a3 3 0 1 0-3.792 0A4.143 4.143 0 0 0 6.5 19.538c0 .487.307 1.156 1.767 1.579 1.056.273 2.143.403 3.233.386.835 0 5-.095 5-1.965a4.143 4.143 0 0 0-3.104-3.73ZM9.5 13.503a2 2 0 1 1 4 0 2 2 0 0 1-4 0Zm2 7c-2.626 0-4-.628-4-.965 0-1.674 1.794-3.035 4-3.035s4 1.36 4 3.035c0 .337-1.374.965-4 .965ZM25 11.5h-7a.5.5 0 0 0 0 1h7a.5.5 0 0 0 0-1ZM25 15.5h-6a.5.5 0 0 0 0 1h6a.5.5 0 0 0 0-1ZM25 19.5h-5a.5.5 0 0 0 0 1h5a.5.5 0 0 0 0-1Z"/></svg>