<svg xmlns="http://www.w3.org/2000/svg" width="32" height="32" viewBox="0 0 32 32"><path d="M16.05 15.15a6.472 6.472 0 0 1-.42-9.948 4.496 4.496 0 1 0-6.513 5.595c-3.809.935-6.618 4.043-6.618 7.733 0 .975.516 2.34 2.972 3.318 1.07.4 2.185.668 3.32.8a10.9 10.9 0 0 1 7.259-7.497ZM20 14.5a4.5 4.5 0 1 0 0-9.002 4.5 4.5 0 0 0 0 9.002Zm-.002 2.001c-5.237 0-9.499 3.801-9.499 8.472 0 1.023.543 2.457 3.128 3.485A17.855 17.855 0 0 0 20 29.5c4.729 0 9.5-1.4 9.5-4.527 0-4.67-4.262-8.472-9.502-8.472Z"/></svg>