<svg xmlns="http://www.w3.org/2000/svg" width="32" height="32" viewBox="0 0 32 32"><path d="M18.517 15.76a3.75 3.75 0 1 0-5.034 0 4.99 4.99 0 0 0-3.233 4.483c0 .63.362 1.494 2.089 2.034 1.19.334 2.424.493 3.66.473 2.78 0 5.75-.659 5.75-2.507a4.99 4.99 0 0 0-3.232-4.482M13.75 13a2.25 2.25 0 1 1 4.499 0 2.25 2.25 0 0 1-4.5 0M16 21.25c-2.804 0-4.25-.706-4.25-1.007 0-1.926 1.906-3.493 4.25-3.493 2.343 0 4.25 1.567 4.25 3.493 0 .301-1.447 1.007-4.25 1.007M22 3.25H10a4.745 4.745 0 0 0-4.674 4H3a.75.75 0 1 0 0 1.5h2.25v6.5H3a.75.75 0 1 0 0 1.5h2.25v6.5H3a.75.75 0 1 0 0 1.5h2.326a4.745 4.745 0 0 0 4.674 4h12A4.755 4.755 0 0 0 26.75 24V8A4.755 4.755 0 0 0 22 3.25M25.25 24A3.254 3.254 0 0 1 22 27.25H10A3.254 3.254 0 0 1 6.75 24V8A3.254 3.254 0 0 1 10 4.75h12A3.254 3.254 0 0 1 25.25 8z"/></svg>