<svg xmlns="http://www.w3.org/2000/svg" width="32" height="32" viewBox="0 0 32 32"><path d="M25 5.5H7c-2.5 0-4.5 2-4.5 4.5v12c0 2.5 2 4.5 4.5 4.5h18c2.5 0 4.5-2 4.5-4.5V10c0-2.5-2-4.5-4.5-4.5M20 19h5c.6 0 1 .4 1 1s-.4 1-1 1h-5c-.6 0-1-.4-1-1s.4-1 1-1m-2-3c0-.6.4-1 1-1h6c.6 0 1 .4 1 1s-.4 1-1 1h-6c-.6 0-1-.4-1-1m7-3h-7c-.6 0-1-.4-1-1s.4-1 1-1h7c.6 0 1 .4 1 1s-.4 1-1 1m-14 3c2.1 0 3.8 1.4 4 3.4v.1c0 .8-1.8 1.5-4 1.5s-4-.7-4-1.5c.1-2.1 1.9-3.5 4-3.5m-2-4c0-1.1.9-2 2-2s2 .9 2 2-.9 2-2 2-2-.9-2-2"/></svg>