<svg xmlns="http://www.w3.org/2000/svg" width="32" height="32" viewBox="0 0 32 32"><path d="M24.996 5H7.004A5.01 5.01 0 0 0 2 10.004v11.992A5.01 5.01 0 0 0 7.004 27h17.992A5.01 5.01 0 0 0 30 21.996V10.004A5.01 5.01 0 0 0 24.996 5M28 21.996A3.01 3.01 0 0 1 24.996 25H7.004A3.01 3.01 0 0 1 4 21.996V10.004A3.007 3.007 0 0 1 7.004 7h17.992A3.01 3.01 0 0 1 28 10.004zM14.265 15.625A3.47 3.47 0 0 0 15 13.504a3.5 3.5 0 1 0-7 0c.003.769.262 1.515.735 2.12A4.46 4.46 0 0 0 6 19.54c0 .658.37 1.55 2.128 2.06 1.101.285 2.235.421 3.372.405 1.654 0 5.5-.24 5.5-2.465a4.47 4.47 0 0 0-2.735-3.914M10 13.504a1.5 1.5 0 1 1 3 0 1.5 1.5 0 0 1-3 0m1.453 6.547c-1.133 0-2.348-.173-3.447-.654.105-1.311 1.662-2.393 3.494-2.393s3.39 1.082 3.494 2.393c-1.099.48-2.35.654-3.54.654M25 11h-7a1 1 0 1 0 0 2h7a1 1 0 0 0 0-2M25 15h-6a1 1 0 1 0 0 2h6a1 1 0 0 0 0-2M25 19h-5a1 1 0 1 0 0 2h5a1 1 0 0 0 0-2"/></svg>