<svg xmlns="http://www.w3.org/2000/svg" width="32" height="32" viewBox="0 0 32 32"><path d="M23 4.5H9A4.505 4.505 0 0 0 4.5 9v14A4.505 4.505 0 0 0 9 27.5h14a4.504 4.504 0 0 0 4.5-4.5V9A4.505 4.505 0 0 0 23 4.5Zm-2.793 8H26.5v4H16.207l4-4Zm-5 5H26.5v4H11.207l4-4Zm11.293-6h-5.293l4.587-4.586c.456.6.704 1.332.706 2.086v2.5ZM5.5 9A3.504 3.504 0 0 1 9 5.5h14c.754.002 1.486.25 2.086.707l-5.439 5.439-.001.001-13.44 13.44A3.466 3.466 0 0 1 5.5 23V9ZM23 26.5H9a3.467 3.467 0 0 1-2.086-.707l3.293-3.293H26.5v.5a3.504 3.504 0 0 1-3.5 3.5Z"/></svg>