<svg xmlns="http://www.w3.org/2000/svg" width="32" height="32" viewBox="0 0 32 32"><path d="M18.947 15.682a3.999 3.999 0 1 0-5.895 0A5.18 5.18 0 0 0 10 20.242c0 .715.392 1.689 2.264 2.273 1.216.342 2.474.505 3.736.485 1.407 0 6-.199 6-2.757a5.18 5.18 0 0 0-3.053-4.561M14 13a2 2 0 1 1 4 0 2 2 0 0 1-4 0m2 8c-2.438 0-3.842-.558-4-.757C12 18.455 13.794 17 16 17c2.181 0 3.96 1.424 3.999 3.186-.247.291-1.639.814-4 .814M22 3H10a5.01 5.01 0 0 0-4.9 4H3a1 1 0 0 0 0 2h2v6H3a1 1 0 1 0 0 2h2v6H3a1 1 0 0 0 0 2h2.1a5.01 5.01 0 0 0 4.9 4h12a5.006 5.006 0 0 0 5-5V8a5.006 5.006 0 0 0-5-5m3 21a3.003 3.003 0 0 1-3 3H10a3.004 3.004 0 0 1-3-3V8a3.003 3.003 0 0 1 3-3h12a3.003 3.003 0 0 1 3 3z"/></svg>