<svg xmlns="http://www.w3.org/2000/svg" width="32" height="32" viewBox="0 0 32 32"><path d="M18.947 15.681a4 4 0 1 0-5.895 0A5.177 5.177 0 0 0 10 20.244c0 .714.392 1.688 2.264 2.272A13.03 13.03 0 0 0 16 23c1.407 0 6-.199 6-2.757a5.178 5.178 0 0 0-3.053-4.561ZM14 13.002A2 2 0 1 1 18 13a2 2 0 0 1-4 0Zm2 8c-2.438 0-3.842-.559-4-.758C12 18.455 13.794 17 16 17c2.181 0 3.96 1.424 3.999 3.186-.247.291-1.639.814-4 .814Z"/><path d="M22 3H10a5.008 5.008 0 0 0-4.9 4H3a1 1 0 0 0 0 2h2v6H3a1 1 0 1 0 0 2h2v6H3a1 1 0 0 0 0 2h2.1a5.008 5.008 0 0 0 4.9 4h12a5.006 5.006 0 0 0 5-5V8a5.006 5.006 0 0 0-5-5Zm3 21a3.003 3.003 0 0 1-3 3H10a3.004 3.004 0 0 1-3-3V8a3.003 3.003 0 0 1 3-3h12a3.003 3.003 0 0 1 3 3v16Z"/></svg>