<svg xmlns="http://www.w3.org/2000/svg" width="32" height="32" viewBox="0 0 32 32"><path d="M22.618 16.84a5.497 5.497 0 1 0-6.902-8.278c.19-.498.29-1.026.295-1.559A4.5 4.5 0 1 0 9.117 10.8c-3.808.936-6.617 4.044-6.617 7.734 0 .974.516 2.34 2.972 3.318 1.718.617 3.528.942 5.353.96a7.567 7.567 0 0 0-.325 2.163c0 1.022.543 2.456 3.127 3.484a17.85 17.85 0 0 0 6.371 1.042c4.729 0 9.499-1.4 9.499-4.527 0-3.858-2.913-7.116-6.879-8.133Zm-2.62-9.336a4.5 4.5 0 1 1 0 9 4.5 4.5 0 0 1 0-9Zm-11.987-.5a3.5 3.5 0 1 1 7 0 3.5 3.5 0 0 1-7 0ZM3.5 18.534c0-3.877 3.589-7.03 8.001-7.03 1.022 0 2.036.173 2.999.516a5.503 5.503 0 0 0 2.88 4.818 9.222 9.222 0 0 0-6.195 4.993c-3.784-.06-7.685-1.209-7.685-3.298ZM19.998 28.5c-4.223 0-8.498-1.21-8.498-3.526 0-4.12 3.813-7.47 8.498-7.47 4.686 0 8.5 3.35 8.5 7.47-.001 2.315-4.276 3.526-8.5 3.526Z"/></svg>