<svg xmlns="http://www.w3.org/2000/svg" width="32" height="32" viewBox="0 0 32 32"><path d="M23.23 16.757a5.745 5.745 0 1 0-7.04-9.048 4.77 4.77 0 0 0 .07-.706 4.75 4.75 0 1 0-7.705 3.69 8.426 8.426 0 0 0-6.305 7.84c0 1.052.543 2.522 3.129 3.55 1.643.595 3.371.92 5.118.966a7.82 7.82 0 0 0-.247 1.924c0 1.1.57 2.637 3.285 3.717a18.091 18.091 0 0 0 6.463 1.06c4.853 0 9.75-1.477 9.75-4.777a8.854 8.854 0 0 0-6.518-8.216Zm-3.231-9.003a4.25 4.25 0 1 1 0 8.5 4.25 4.25 0 0 1 0-8.5ZM8.26 7.004a3.25 3.25 0 1 1 6.5 0 3.25 3.25 0 0 1-6.5 0Zm2.758 14.575c-4.175-.092-7.269-1.369-7.269-3.046 0-3.738 3.478-6.779 7.751-6.779.938 0 1.87.153 2.758.452a5.748 5.748 0 0 0 2.508 4.55 9.432 9.432 0 0 0-5.748 4.823Zm8.979 6.671c-4.702 0-8.248-1.409-8.248-3.277 0-3.98 3.7-7.22 8.248-7.22 4.548 0 8.249 3.24 8.249 7.22 0 1.869-3.546 3.277-8.249 3.277Z"/></svg>