<svg xmlns="http://www.w3.org/2000/svg" width="32" height="32" viewBox="0 0 32 32"><path d="M23 2.5h-8A4.505 4.505 0 0 0 10.5 7v.5H9A4.505 4.505 0 0 0 4.5 12v13.005a4.505 4.505 0 0 0 4.5 4.5h8a4.505 4.505 0 0 0 4.5-4.5v-.502H23a4.505 4.505 0 0 0 4.5-4.5V7A4.505 4.505 0 0 0 23 2.5m-2.5 22.505a3.504 3.504 0 0 1-3.5 3.5H9a3.504 3.504 0 0 1-3.5-3.5V12A3.504 3.504 0 0 1 9 8.5h8a3.505 3.505 0 0 1 3.5 3.5zm6-5.002a3.504 3.504 0 0 1-3.5 3.5h-1.5V12A4.505 4.505 0 0 0 17 7.5h-5.5V7A3.504 3.504 0 0 1 15 3.5h8A3.505 3.505 0 0 1 26.5 7z"/></svg>