<svg xmlns="http://www.w3.org/2000/svg" width="32" height="32" viewBox="0 0 32 32"><path d="M20 8h-8a4.004 4.004 0 0 0-4 4v8a4.004 4.004 0 0 0 4 4h8a4.004 4.004 0 0 0 4-4v-8a4.004 4.004 0 0 0-4-4Zm2 12a2.003 2.003 0 0 1-2 2h-8a2.003 2.003 0 0 1-2-2v-8a2.002 2.002 0 0 1 2-2h8a2.002 2.002 0 0 1 2 2v8ZM14.01 26a.997.997 0 0 0-1 1v2a1 1 0 0 0 2 0v-2a1 1 0 0 0-1-1ZM10 26a.998.998 0 0 0-1 1v2a1 1 0 1 0 2 0v-2a1 1 0 0 0-1-1ZM18 26a.998.998 0 0 0-1 1v2a1 1 0 1 0 2 0v-2a.998.998 0 0 0-1-1ZM22 26a.998.998 0 0 0-1 1v2a1 1 0 1 0 2 0v-2a.998.998 0 0 0-1-1ZM14.01 6a1 1 0 0 0 1-1V3a1 1 0 1 0-2 0v2a1 1 0 0 0 1 1ZM10 6a1 1 0 0 0 1-1V3a1 1 0 0 0-2 0v2a1 1 0 0 0 1 1ZM18 6a1 1 0 0 0 1-1V3a1 1 0 0 0-2 0v2a1.001 1.001 0 0 0 1 1ZM22 6a1 1 0 0 0 1-1V3a1 1 0 0 0-2 0v2a1.001 1.001 0 0 0 1 1ZM5 13.01H3a1 1 0 1 0 0 2h2a1 1 0 0 0 0-2ZM5 9H3a1 1 0 0 0 0 2h2a1 1 0 0 0 0-2ZM5 17H3a1 1 0 0 0 0 2h2a1 1 0 0 0 0-2ZM5 21H3a1 1 0 0 0 0 2h2a1 1 0 0 0 0-2ZM29 13.01h-2a1 1 0 1 0 0 2h2a1 1 0 0 0 0-2ZM27 11h2a1 1 0 0 0 0-2h-2a1 1 0 1 0 0 2ZM29 17h-2a1 1 0 0 0 0 2h2a1 1 0 0 0 0-2ZM29 21h-2a1 1 0 0 0 0 2h2a1 1 0 0 0 0-2Z"/></svg>