<svg xmlns="http://www.w3.org/2000/svg" width="32" height="32" viewBox="0 0 32 32"><path d="M20 8h-8a4.004 4.004 0 0 0-4 4v8a4.004 4.004 0 0 0 4 4h8a4.004 4.004 0 0 0 4-4v-8a4.004 4.004 0 0 0-4-4m2 12a2.003 2.003 0 0 1-2 2h-8a2.003 2.003 0 0 1-2-2v-8a2 2 0 0 1 2-2h8a2 2 0 0 1 2 2zM14.01 26a.997.997 0 0 0-1 1v2a1 1 0 0 0 2 0v-2a1 1 0 0 0-1-1M10 26a1 1 0 0 0-1 1v2a1 1 0 1 0 2 0v-2a1 1 0 0 0-1-1M18 26a1 1 0 0 0-1 1v2a1 1 0 1 0 2 0v-2a1 1 0 0 0-1-1M22 26a1 1 0 0 0-1 1v2a1 1 0 1 0 2 0v-2a1 1 0 0 0-1-1M14.01 6a1 1 0 0 0 1-1V3a1 1 0 1 0-2 0v2a1 1 0 0 0 1 1M10 6a1 1 0 0 0 1-1V3a1 1 0 0 0-2 0v2a1 1 0 0 0 1 1M18 6a1 1 0 0 0 1-1V3a1 1 0 0 0-2 0v2a1 1 0 0 0 1 1M22 6a1 1 0 0 0 1-1V3a1 1 0 0 0-2 0v2a1 1 0 0 0 1 1M5 13.01H3a1 1 0 1 0 0 2h2a1 1 0 0 0 0-2M5 9H3a1 1 0 0 0 0 2h2a1 1 0 0 0 0-2M5 17H3a1 1 0 0 0 0 2h2a1 1 0 0 0 0-2M5 21H3a1 1 0 0 0 0 2h2a1 1 0 0 0 0-2M29 13.01h-2a1 1 0 1 0 0 2h2a1 1 0 0 0 0-2M27 11h2a1 1 0 0 0 0-2h-2a1 1 0 1 0 0 2M29 17h-2a1 1 0 0 0 0 2h2a1 1 0 0 0 0-2M29 21h-2a1 1 0 0 0 0 2h2a1 1 0 0 0 0-2"/></svg>