<svg xmlns="http://www.w3.org/2000/svg" width="32" height="32" viewBox="0 0 32 32"><path d="M20 8.25h-8A3.754 3.754 0 0 0 8.25 12v8A3.755 3.755 0 0 0 12 23.75h8A3.754 3.754 0 0 0 23.75 20v-8A3.754 3.754 0 0 0 20 8.25M22.25 20A2.253 2.253 0 0 1 20 22.25h-8A2.253 2.253 0 0 1 9.75 20v-8A2.253 2.253 0 0 1 12 9.75h8A2.253 2.253 0 0 1 22.25 12zM14.01 26.25a.75.75 0 0 0-.75.75v2a.75.75 0 0 0 1.5 0v-2a.75.75 0 0 0-.75-.75M10 26.25a.75.75 0 0 0-.75.75v2a.75.75 0 1 0 1.5 0v-2a.75.75 0 0 0-.75-.75M18 26.25a.75.75 0 0 0-.75.75v2a.75.75 0 1 0 1.5 0v-2a.75.75 0 0 0-.75-.75M22 26.25a.75.75 0 0 0-.75.75v2a.75.75 0 1 0 1.5 0v-2a.75.75 0 0 0-.75-.75M14.01 5.75a.75.75 0 0 0 .75-.75V3a.75.75 0 1 0-1.5 0v2a.75.75 0 0 0 .75.75M10 5.75a.75.75 0 0 0 .75-.75V3a.75.75 0 1 0-1.5 0v2a.75.75 0 0 0 .75.75M18 5.75a.75.75 0 0 0 .75-.75V3a.75.75 0 1 0-1.5 0v2a.75.75 0 0 0 .75.75M22 5.75a.75.75 0 0 0 .75-.75V3a.75.75 0 1 0-1.5 0v2a.75.75 0 0 0 .75.75M5 13.26H3a.75.75 0 1 0 0 1.5h2a.75.75 0 0 0 0-1.5M5 9.25H3a.75.75 0 1 0 0 1.5h2a.75.75 0 1 0 0-1.5M5 17.25H3a.75.75 0 1 0 0 1.5h2a.75.75 0 1 0 0-1.5M5 21.25H3a.75.75 0 1 0 0 1.5h2a.75.75 0 1 0 0-1.5M29 13.26h-2a.75.75 0 1 0 0 1.5h2a.75.75 0 0 0 0-1.5M27 10.75h2a.75.75 0 1 0 0-1.5h-2a.75.75 0 1 0 0 1.5M29 17.25h-2a.75.75 0 1 0 0 1.5h2a.75.75 0 1 0 0-1.5M29 21.25h-2a.75.75 0 1 0 0 1.5h2a.75.75 0 1 0 0-1.5"/></svg>