<svg xmlns="http://www.w3.org/2000/svg" width="32" height="32" viewBox="0 0 32 32"><path d="M20 8.5h-8A3.504 3.504 0 0 0 8.5 12v8a3.504 3.504 0 0 0 3.5 3.5h8a3.504 3.504 0 0 0 3.5-3.5v-8A3.504 3.504 0 0 0 20 8.5ZM22.5 20a2.502 2.502 0 0 1-2.5 2.5h-8A2.502 2.502 0 0 1 9.5 20v-8A2.503 2.503 0 0 1 12 9.5h8a2.503 2.503 0 0 1 2.5 2.5v8ZM14.01 26.5a.5.5 0 0 0-.5.5v2a.5.5 0 0 0 1 0v-2a.499.499 0 0 0-.5-.5ZM10 26.5a.5.5 0 0 0-.5.5v2a.5.5 0 0 0 1 0v-2a.5.5 0 0 0-.5-.5ZM18 26.5a.5.5 0 0 0-.5.5v2a.5.5 0 0 0 1 0v-2a.5.5 0 0 0-.5-.5ZM22 26.5a.5.5 0 0 0-.5.5v2a.5.5 0 0 0 1 0v-2a.5.5 0 0 0-.5-.5ZM14.01 5.5a.5.5 0 0 0 .5-.5V3a.5.5 0 1 0-1 0v2a.5.5 0 0 0 .5.5ZM10 5.5a.5.5 0 0 0 .5-.5V3a.5.5 0 0 0-1 0v2a.5.5 0 0 0 .5.5ZM18 5.5a.5.5 0 0 0 .5-.5V3a.5.5 0 0 0-1 0v2a.499.499 0 0 0 .5.5ZM22 5.5a.5.5 0 0 0 .5-.5V3a.5.5 0 0 0-1 0v2a.5.5 0 0 0 .5.5ZM5 13.51H3a.5.5 0 1 0 0 1h2a.5.5 0 0 0 0-1ZM5 9.5H3a.5.5 0 0 0 0 1h2a.5.5 0 0 0 0-1ZM5 17.5H3a.5.5 0 0 0 0 1h2a.5.5 0 0 0 0-1ZM5 21.5H3a.5.5 0 0 0 0 1h2a.5.5 0 0 0 0-1ZM29 13.51h-2a.5.5 0 1 0 0 1h2a.5.5 0 1 0 0-1ZM27 10.5h2a.5.5 0 0 0 0-1h-2a.5.5 0 0 0 0 1ZM29 17.5h-2a.5.5 0 0 0 0 1h2a.5.5 0 0 0 0-1ZM29 21.5h-2a.5.5 0 0 0 0 1h2a.5.5 0 0 0 0-1Z"/></svg>