<svg xmlns="http://www.w3.org/2000/svg" width="241" height="278" fill="none" viewBox="0 0 241 278"><path fill="#fff" d="M149.995 50.974c0-28.061-22.853-50.83-50.896-50.83H48.302v48.434C21.456 49.876 0 72.145 0 99.308c0 28.062 22.754 50.831 50.797 50.831h50.797v-48.434c26.945-1.198 48.401-23.468 48.401-50.73M96.604 96.812H53.292V53.47h43.312zM48.302 53.57v43.34H5.09c1.197-23.368 19.96-42.142 43.212-43.34m2.495 91.675c-24.45 0-44.41-19.274-45.807-43.341h91.61399999999999v43.341zm50.797-48.434V48.478H53.292V5.137h45.807c25.249 0 45.807 20.572 45.807 45.837.1 24.467-19.161 44.54-43.312 45.838M212.201 211.492h6.294q-1.331 4.781-5.265 7.505-3.693 2.481-8.837 2.482-7.445 0-11.621-4.721-3.813-4.418-3.813-11.924 0-8.533 4.842-12.952 3.995-3.692 10.289-3.692 7.384 0 11.137 4.782 3.631 4.6 3.631 13.133h-23.967q.363 5.57 3.389 8.292 2.482 2.18 6.295 2.179 2.966 0 5.144-1.634 1.816-1.392 2.482-3.45m-7.99-18.641q-3.873 0-6.234 2.421-2.24 2.238-2.844 6.234h17.794q-.303-4.54-3.026-6.779-2.179-1.876-5.69-1.876M181.083 189.098h6.052l-11.076 31.473h-7.868l-10.955-31.473h6.355l8.716 26.752zM152.737 183.832h-6.536v-6.839h6.536zm-.363 36.739h-5.81v-31.473h5.81zM141.1 215.91v4.963q-2.238.606-4.297.606-4.358 0-6.536-2.724-1.877-2.24-1.877-5.992v-18.702h-4.66v-4.963h4.66l.363-7.566h5.448v7.566h6.778v4.963h-6.778v18.823q0 3.51 3.329 3.511 1.573 0 3.57-.485M98.745 197.874h-6.173q.483-4.72 4.478-7.323 3.571-2.361 9.019-2.361 6.476 0 9.926 3.39 2.905 2.904 2.905 7.505v21.486h-4.782l-.726-4.297q-3.692 5.205-10.531 5.205-5.387 0-8.413-2.906-2.482-2.42-2.482-6.113 0-4.66 3.208-7.202 2.845-2.24 8.716-3.268l9.199-1.574v-1.574q0-3.086-2.118-4.66-1.877-1.392-5.144-1.392-6.416 0-7.082 5.084m5.508 18.702q3.692 0 6.415-2.421 2.421-2.24 2.421-5.144v-4.056l-7.807 1.393q-4.297.726-5.871 2.239-1.27 1.21-1.271 3.268 0 2.3 1.574 3.511 1.574 1.21 4.539 1.21M80.158 211.492h6.294q-1.33 4.781-5.265 7.505-3.692 2.481-8.837 2.482-7.444 0-11.62-4.721-3.813-4.418-3.813-11.924 0-8.533 4.841-12.952 3.995-3.692 10.29-3.692 7.384 0 11.136 4.782 3.632 4.6 3.632 13.133H62.848q.363 5.57 3.39 8.292 2.481 2.18 6.294 2.179 2.966 0 5.145-1.634 1.815-1.392 2.481-3.45m-7.99-18.641q-3.873 0-6.233 2.421-2.24 2.238-2.845 6.234h17.794q-.302-4.54-3.026-6.779-2.179-1.876-5.69-1.876M43.56 220.571h-5.81v-31.473h4.781l.787 4.66q2.662-5.568 7.99-5.568 1.755 0 3.45.424v5.81q-2.06-.545-3.693-.545-3.51 0-5.508 2.845-1.997 2.845-1.997 8.05zM24.754 210.463h6.355q-.726 5.084-4.78 8.171-3.693 2.844-9.02 2.845-6.96 0-11.075-4.782-3.813-4.418-3.813-11.62 0-8.353 4.6-12.953 3.934-3.934 10.228-3.934 5.811 0 9.563 3.087 3.33 2.724 4.055 7.142h-6.415q-.605-2.542-2.482-3.934-1.815-1.392-4.6-1.392-4.296 0-6.597 3.389-2.178 3.148-2.179 8.776 0 5.871 2.906 8.897 2.3 2.421 5.931 2.421 3.147 0 5.145-1.816 1.755-1.573 2.178-4.297M220.464 276.077h-5.81v-31.472h4.781l.666 3.994q3.51-4.902 9.563-4.902 5.568 0 8.534 3.45 2.602 3.087 2.602 8.413v20.517h-5.81V255.62q0-6.96-6.718-6.96-3.51 0-5.75 2.421-2.058 2.179-2.058 5.568zM176.961 260.341q0-8.655 5.144-13.073 4.116-3.571 10.411-3.571 7.323 0 11.499 4.66 3.995 4.358 3.995 11.984 0 8.534-5.024 13.013-4.115 3.631-10.531 3.631-7.323 0-11.56-4.842-3.934-4.417-3.934-11.802m6.052 0q0 6.053 3.087 9.26 2.542 2.663 6.476 2.663 4.6 0 7.081-3.449 2.3-3.148 2.3-8.474 0-6.173-3.026-9.321-2.482-2.602-6.415-2.602-4.54 0-7.082 3.45-2.421 3.147-2.421 8.473M170.646 239.339h-6.536V232.5h6.536zm-.363 36.738h-5.81v-31.472h5.81zM159.01 271.417v4.963q-2.24.606-4.298.605-4.358 0-6.536-2.723-1.877-2.24-1.877-5.992v-18.702h-4.66v-4.963h4.66l.364-7.566h5.447v7.566h6.779v4.963h-6.779v18.823q0 3.51 3.329 3.51 1.573 0 3.571-.484M131.973 265.97h6.355q-.726 5.084-4.782 8.171-3.692 2.844-9.018 2.844-6.96 0-11.076-4.781-3.813-4.419-3.813-11.621 0-8.352 4.6-12.952 3.934-3.934 10.229-3.934 5.81 0 9.562 3.087 3.33 2.723 4.056 7.142h-6.416q-.605-2.543-2.481-3.935-1.816-1.392-4.6-1.392-4.297 0-6.598 3.39-2.178 3.147-2.178 8.776 0 5.87 2.905 8.897 2.3 2.421 5.931 2.421 3.147 0 5.145-1.816 1.755-1.573 2.179-4.297M97.83 266.999h6.295q-1.331 4.78-5.265 7.505-3.693 2.481-8.837 2.481-7.445 0-11.62-4.721-3.814-4.418-3.814-11.923 0-8.534 4.842-12.952 3.995-3.692 10.29-3.692 7.383 0 11.136 4.781 3.631 4.6 3.631 13.134H80.521q.363 5.568 3.389 8.292 2.482 2.18 6.295 2.179 2.966 0 5.144-1.634 1.815-1.392 2.482-3.45m-7.989-18.642q-3.873 0-6.234 2.421-2.238 2.24-2.844 6.234h17.794q-.302-4.54-3.026-6.778-2.18-1.877-5.69-1.877M61.233 276.077h-5.81v-31.472h4.78l.788 4.66q2.662-5.568 7.989-5.568 1.755 0 3.45.424v5.81q-2.058-.545-3.692-.545-3.51 0-5.508 2.845-1.997 2.844-1.997 8.05zM47.292 239.339h-6.536V232.5h6.536zm-.363 36.738h-5.81v-31.472h5.81zM32.623 276.077H27.84l-1.029-4.418q-3.63 5.326-10.47 5.326-6.598 0-10.41-4.781-3.511-4.419-3.511-11.681 0-8.776 4.479-13.195 3.752-3.631 9.805-3.631 6.536 0 10.107 4.902V232.5h5.81zm-24.15-15.433q0 5.87 2.906 8.897 2.42 2.481 6.234 2.481 4.72 0 7.323-3.571 2.18-3.086 2.179-7.747 0-6.113-2.905-9.321-2.482-2.723-6.597-2.723-4.6 0-6.96 3.329-2.18 3.025-2.18 8.655"/></svg>