<svg xmlns="http://www.w3.org/2000/svg" width="428" height="151" fill="none" viewBox="0 0 428 151"><path fill="#fff" d="M399.135 48.419h6.294q-1.331 4.78-5.265 7.505-3.692 2.481-8.837 2.481-7.445 0-11.621-4.72-3.813-4.419-3.813-11.924 0-8.535 4.842-12.953 3.995-3.692 10.289-3.692 7.384 0 11.137 4.781 3.632 4.6 3.632 13.135h-23.969q.363 5.568 3.39 8.292 2.481 2.178 6.294 2.179 2.967 0 5.145-1.635 1.816-1.392 2.482-3.45m-7.99-18.643q-3.873 0-6.234 2.421-2.24 2.24-2.845 6.235h17.795q-.303-4.54-3.026-6.78-2.179-1.875-5.69-1.876M368.016 26.024h6.052l-11.076 31.473h-7.868l-10.956-31.473h6.356l8.715 26.752zM339.67 20.758h-6.537v-6.84h6.537zm-.364 36.74h-5.81V26.023h5.81zM328.032 52.837V57.8q-2.24.605-4.297.605-4.358 0-6.537-2.723-1.876-2.24-1.876-5.992V30.987h-4.661v-4.963h4.661l.363-7.566h5.447v7.566h6.779v4.963h-6.779V49.81q0 3.51 3.329 3.51 1.574 0 3.571-.484M285.676 34.8h-6.174q.484-4.721 4.479-7.324 3.572-2.36 9.018-2.36 6.477 0 9.927 3.39 2.905 2.904 2.905 7.505v21.486h-4.782l-.726-4.297q-3.692 5.205-10.531 5.205-5.387 0-8.414-2.905-2.481-2.421-2.481-6.113 0-4.66 3.208-7.203 2.845-2.24 8.716-3.268l9.2-1.574V35.77q0-3.087-2.119-4.661-1.877-1.392-5.145-1.392-6.415 0-7.081 5.084m5.508 18.703q3.692 0 6.415-2.421 2.422-2.24 2.422-5.145v-4.055l-7.808 1.392q-4.298.726-5.871 2.24-1.271 1.21-1.271 3.268 0 2.3 1.573 3.51t4.54 1.21M267.088 48.419h6.295q-1.332 4.78-5.266 7.505-3.692 2.481-8.837 2.481-7.445 0-11.621-4.72-3.813-4.419-3.813-11.924 0-8.535 4.842-12.953 3.995-3.692 10.29-3.692 7.384 0 11.136 4.781 3.632 4.6 3.632 13.135h-23.968q.362 5.568 3.389 8.292 2.481 2.178 6.295 2.179 2.966 0 5.144-1.635 1.816-1.392 2.482-3.45m-7.989-18.643q-3.874 0-6.235 2.421-2.24 2.24-2.844 6.235h17.794q-.302-4.54-3.026-6.78-2.18-1.875-5.689-1.876M230.489 57.497h-5.81V26.024h4.781l.787 4.66q2.663-5.568 7.989-5.568 1.757 0 3.45.424v5.81q-2.058-.545-3.692-.545-3.51 0-5.508 2.845-1.997 2.845-1.997 8.05zM211.683 47.39h6.355q-.726 5.084-4.781 8.17-3.693 2.845-9.019 2.845-6.96 0-11.076-4.781-3.813-4.42-3.813-11.621 0-8.353 4.6-12.953 3.933-3.934 10.229-3.934 5.81 0 9.563 3.087 3.329 2.724 4.055 7.142h-6.416q-.604-2.542-2.481-3.934-1.816-1.393-4.6-1.393-4.297 0-6.598 3.39-2.179 3.148-2.179 8.776 0 5.871 2.906 8.898 2.3 2.42 5.931 2.42 3.147 0 5.145-1.815 1.755-1.575 2.179-4.297M407.398 113.006h-5.81V81.532h4.782l.665 3.995q3.511-4.903 9.563-4.903 5.569 0 8.535 3.45 2.602 3.087 2.602 8.413v20.519h-5.81V92.548q0-6.96-6.719-6.96-3.51 0-5.75 2.42-2.058 2.18-2.058 5.569zM363.894 97.269q0-8.655 5.145-13.074 4.115-3.57 10.41-3.57 7.323 0 11.5 4.66 3.995 4.358 3.995 11.984 0 8.534-5.024 13.013-4.116 3.632-10.531 3.632-7.324 0-11.561-4.842-3.934-4.419-3.934-11.803m6.052 0q0 6.053 3.087 9.26 2.543 2.664 6.477 2.664 4.6 0 7.081-3.45 2.3-3.148 2.3-8.474 0-6.174-3.026-9.321-2.482-2.603-6.416-2.603-4.54 0-7.082 3.45-2.421 3.148-2.421 8.474M357.579 76.266h-6.537v-6.84h6.537zm-.363 36.74h-5.811V81.532h5.811zM345.942 108.345v4.963q-2.24.606-4.297.606-4.359 0-6.537-2.724-1.876-2.24-1.876-5.992V86.495h-4.661v-4.963h4.661l.363-7.566h5.447v7.566h6.779v4.963h-6.779v18.824q0 3.51 3.329 3.51 1.573 0 3.571-.484M318.904 102.898h6.356q-.728 5.084-4.782 8.171-3.692 2.844-9.018 2.845-6.961 0-11.077-4.782-3.813-4.419-3.813-11.621 0-8.352 4.6-12.953 3.935-3.933 10.229-3.934 5.81 0 9.563 3.087 3.329 2.724 4.055 7.142h-6.415q-.606-2.542-2.482-3.934-1.816-1.392-4.6-1.392-4.298 0-6.597 3.39-2.18 3.147-2.179 8.776 0 5.87 2.905 8.897 2.3 2.421 5.932 2.421 3.147 0 5.144-1.816 1.755-1.573 2.179-4.297M284.761 103.927h6.295q-1.332 4.782-5.266 7.505-3.692 2.481-8.837 2.482-7.444 0-11.621-4.721-3.813-4.42-3.813-11.924 0-8.534 4.842-12.953 3.995-3.692 10.29-3.692 7.384 0 11.137 4.782 3.631 4.599 3.631 13.134h-23.968q.363 5.568 3.389 8.292 2.482 2.18 6.295 2.179 2.966 0 5.145-1.634 1.815-1.392 2.481-3.45m-7.989-18.642q-3.875 0-6.234 2.42-2.24 2.24-2.845 6.235h17.795q-.303-4.54-3.027-6.779-2.178-1.876-5.689-1.876M248.162 113.006h-5.81V81.532h4.781l.787 4.66q2.664-5.568 7.99-5.568 1.755 0 3.45.424v5.81q-2.058-.544-3.692-.544-3.511 0-5.508 2.844-1.998 2.845-1.998 8.05zM234.221 76.266h-6.537v-6.84h6.537zm-.363 36.74h-5.81V81.532h5.81zM219.551 113.006h-4.781l-1.029-4.419q-3.632 5.327-10.471 5.327-6.598 0-10.411-4.782-3.51-4.419-3.51-11.681 0-8.777 4.479-13.195 3.752-3.632 9.805-3.632 6.537 0 10.108 4.903v-16.1h5.81zm-24.15-15.434q0 5.87 2.906 8.897 2.421 2.481 6.234 2.482 4.72 0 7.323-3.572 2.18-3.086 2.179-7.747 0-6.113-2.905-9.32-2.481-2.725-6.597-2.725-4.6 0-6.961 3.33-2.179 3.025-2.179 8.655"/><path fill="url(#a)" d="M150 50.976C150 22.913 127.146.144 99.102.144H48.303v48.435C21.457 49.877 0 72.148 0 99.311c0 28.063 22.755 50.833 50.798 50.833h50.799v-48.436C128.543 100.51 150 78.239 150 50.976M96.607 96.815H53.293V53.473h43.314zM48.303 53.572v43.343H5.09c1.197-23.37 19.96-42.144 43.213-43.343m2.495 91.678c-24.45 0-44.41-19.274-45.808-43.342h91.617v43.342zm50.799-48.435V48.479H53.293V5.137h45.809c25.249 0 45.808 20.572 45.808 45.839.1 24.467-19.161 44.54-43.313 45.839"/><defs><linearGradient id="a" x1="15.483" x2="120.483" y1="126.143" y2="21.258" gradientUnits="userSpaceOnUse"><stop stop-color="#DB1F2E"/><stop offset=".12" stop-color="#F26B1D"/><stop offset=".249" stop-color="#F2990A"/><stop offset=".396" stop-color="#73A321"/><stop offset=".525" stop-color="#00A3B5"/><stop offset=".668" stop-color="#0A78CC"/><stop offset=".828" stop-color="#643ABD"/><stop offset="1" stop-color="#C233C4"/></linearGradient></defs></svg>