<svg xmlns="http://www.w3.org/2000/svg" width="150" height="151" fill="none" viewBox="0 0 150 151"><path fill="url(#a)" d="M150 50.976C150 22.913 127.146.144 99.102.144H48.303v48.435C21.457 49.877 0 72.148 0 99.311c0 28.063 22.755 50.833 50.798 50.833h50.799v-48.436C128.543 100.51 150 78.239 150 50.976M96.607 96.815H53.293V53.473h43.314zM48.303 53.572v43.343H5.09c1.197-23.37 19.96-42.144 43.213-43.343m2.495 91.678c-24.45 0-44.41-19.274-45.808-43.342h91.617v43.342zm50.799-48.435V48.479H53.293V5.137h45.809c25.249 0 45.808 20.572 45.808 45.839.1 24.467-19.161 44.54-43.313 45.839"/><defs><linearGradient id="a" x1="15.483" x2="120.483" y1="126.143" y2="21.258" gradientUnits="userSpaceOnUse"><stop stop-color="#DB1F2E"/><stop offset=".12" stop-color="#F26B1D"/><stop offset=".249" stop-color="#F2990A"/><stop offset=".396" stop-color="#73A321"/><stop offset=".525" stop-color="#00A3B5"/><stop offset=".668" stop-color="#0A78CC"/><stop offset=".828" stop-color="#643ABD"/><stop offset="1" stop-color="#C233C4"/></linearGradient></defs></svg>