<svg xmlns="http://www.w3.org/2000/svg" width="32" height="32" viewBox="0 0 32 32"><path d="M11 10a1 1 0 0 1 1-1h12a1 1 0 1 1 0 2H12a1 1 0 0 1-1-1M12 15a1 1 0 1 0 0 2h12a1 1 0 1 0 0-2zM7.5 11.505a1.5 1.5 0 1 0 0-3 1.5 1.5 0 0 0 0 3M9 16.005a1.5 1.5 0 1 1-3 0 1.5 1.5 0 0 1 3 0M2 8a5 5 0 0 1 5-5h18a5 5 0 0 1 5 5v10a5 5 0 0 1-5 5H7a5 5 0 0 1-5-5zm5-3a3 3 0 0 0-3 3v10a3 3 0 0 0 3 3h18a3 3 0 0 0 3-3V8a3 3 0 0 0-3-3zM11 27a1 1 0 0 1 1-1h12a1 1 0 1 1 0 2H12a1 1 0 0 1-1-1M7.5 28.505a1.5 1.5 0 1 0 0-3 1.5 1.5 0 0 0 0 3"/></svg>