<svg xmlns="http://www.w3.org/2000/svg" width="32" height="32" viewBox="0 0 32 32"><path d="M2.25 8A4.75 4.75 0 0 1 7 3.25h18A4.75 4.75 0 0 1 29.75 8v10A4.75 4.75 0 0 1 25 22.75H7A4.75 4.75 0 0 1 2.25 18zM7 4.75A3.25 3.25 0 0 0 3.75 8v10A3.25 3.25 0 0 0 7 21.25h18A3.25 3.25 0 0 0 28.25 18V8A3.25 3.25 0 0 0 25 4.75zm4 5.257a.75.75 0 0 1 .75-.75h12.5a.75.75 0 0 1 0 1.5h-12.5a.75.75 0 0 1-.75-.75m.75 5.25a.75.75 0 0 0 0 1.5h12.5a.75.75 0 0 0 0-1.5zM11 27.007a.75.75 0 0 1 .75-.75h12.5a.75.75 0 0 1 0 1.5h-12.5a.75.75 0 0 1-.75-.75m-3.5-15.75a1.251 1.251 0 1 0 0-2.504 1.251 1.251 0 0 0 0 2.503m1.251 4.748a1.251 1.251 0 1 1-2.502 0 1.251 1.251 0 0 1 2.502 0M7.5 28.256a1.251 1.251 0 1 0 0-2.503 1.251 1.251 0 0 0 0 2.503"/></svg>