<svg xmlns="http://www.w3.org/2000/svg" width="32" height="32" viewBox="0 0 32 32"><path d="M21.003 14.25H10.997A2.753 2.753 0 0 0 8.247 17v4a2.753 2.753 0 0 0 2.75 2.75h10.006a2.752 2.752 0 0 0 2.75-2.75v-4a2.752 2.752 0 0 0-2.75-2.75Zm1.25 6.75a1.251 1.251 0 0 1-1.25 1.25H10.997A1.251 1.251 0 0 1 9.747 21v-4a1.251 1.251 0 0 1 1.25-1.25h10.006a1.251 1.251 0 0 1 1.25 1.25v4Z"/><path d="M19 18.25h-3a.75.75 0 1 0 0 1.5h3a.75.75 0 1 0 0-1.5Z"/><path d="M25.791 9.194 18.794 4.16a4.736 4.736 0 0 0-5.585-.002L6.206 9.196a4.766 4.766 0 0 0-1.956 3.84V24A4.756 4.756 0 0 0 9 28.75h14A4.755 4.755 0 0 0 27.75 24V13.037a4.766 4.766 0 0 0-1.959-3.843ZM26.251 24A3.254 3.254 0 0 1 23 27.25H9A3.254 3.254 0 0 1 5.75 24V13.037a3.259 3.259 0 0 1 1.334-2.627l7.004-5.038a3.24 3.24 0 0 1 3.826.002l6.996 5.035a3.256 3.256 0 0 1 1.34 2.627V24Z"/></svg>