<svg xmlns="http://www.w3.org/2000/svg" width="32" height="32" viewBox="0 0 32 32"><path d="M21.003 14H10.997a3.003 3.003 0 0 0-3 3v4a3.003 3.003 0 0 0 3 3h10.006a3.003 3.003 0 0 0 3-3v-4a3.003 3.003 0 0 0-3-3m1 7a1 1 0 0 1-1 1H10.997a1 1 0 0 1-1-1v-4a1 1 0 0 1 1-1h10.006a1 1 0 0 1 1 1zM19 18h-3a1 1 0 0 0 0 2h3a1 1 0 0 0 0-2M25.937 8.99 18.94 3.958a4.985 4.985 0 0 0-5.878-.002L6.06 8.994A5.02 5.02 0 0 0 4 13.037V24a5.006 5.006 0 0 0 5 5h14a5.006 5.006 0 0 0 5-5V13.037a5.01 5.01 0 0 0-2.063-4.046M26 24a3.003 3.003 0 0 1-3 3H9a3.003 3.003 0 0 1-3-3V13.037a3 3 0 0 1 1.231-2.423l7.005-5.04a2.99 2.99 0 0 1 3.533.004l6.996 5.033A3.01 3.01 0 0 1 26 13.036z"/></svg>