<svg xmlns="http://www.w3.org/2000/svg" width="32" height="32" viewBox="0 0 32 32"><path d="M21.003 14.5H10.997a2.503 2.503 0 0 0-2.5 2.5v4a2.503 2.503 0 0 0 2.5 2.5h10.006a2.5 2.5 0 0 0 2.5-2.5v-4a2.5 2.5 0 0 0-2.5-2.5m1.5 6.5a1.5 1.5 0 0 1-1.5 1.5H10.997a1.5 1.5 0 0 1-1.5-1.5v-4a1.5 1.5 0 0 1 1.5-1.5h10.006a1.5 1.5 0 0 1 1.5 1.5zM19 18.5h-3a.5.5 0 0 0 0 1h3a.5.5 0 0 0 0-1M25.645 9.396l-6.998-5.034a4.49 4.49 0 0 0-5.292-.002L6.353 9.398A4.52 4.52 0 0 0 4.5 13.037V24A4.505 4.505 0 0 0 9 28.5h14a4.505 4.505 0 0 0 4.5-4.5V13.037a4.51 4.51 0 0 0-1.855-3.641M26.5 24a3.504 3.504 0 0 1-3.5 3.5H9A3.504 3.504 0 0 1 5.5 24V13.037a3.5 3.5 0 0 1 1.44-2.829L13.94 5.17a3.49 3.49 0 0 1 4.12.002l6.998 5.035a3.51 3.51 0 0 1 1.441 2.83z"/></svg>