<svg xmlns="http://www.w3.org/2000/svg" width="32" height="32" viewBox="0 0 32 32"><path d="M4 5.5a.5.5 0 0 0-.5.5v20a.5.5 0 0 0 .5.5h14.5a.5.5 0 0 0 0-1h-14v-16h23v7a.5.5 0 0 0 1 0V6a.5.5 0 0 0-.5-.5zm23.5 3h-23v-2h23zM17.325 13.026a.5.5 0 0 1 .316.632l-2.333 7a.5.5 0 0 1-.949-.316l2.333-7a.5.5 0 0 1 .633-.316M12.854 13.146a.5.5 0 0 1 0 .708L9.707 17l3.147 3.146a.5.5 0 0 1-.708.708l-3.5-3.5a.5.5 0 0 1 0-.708l3.5-3.5a.5.5 0 0 1 .708 0M19.146 20.146a.5.5 0 0 0 .708.708l3.5-3.5a.5.5 0 0 0 0-.708l-3.5-3.5a.5.5 0 0 0-.708.708L22.293 17zM28 23.5a.5.5 0 0 1 .5.5v2a.5.5 0 0 1-.5.5h-2a.5.5 0 0 1 0-1h1.5V24a.5.5 0 0 1 .5-.5M27.086 18a1.92 1.92 0 0 0-1.354.56l-5.488 5.49a.83.83 0 0 0-.244.588v1.529a.833.833 0 0 0 .833.833h1.529c.22 0 .433-.088.59-.244l5.487-5.488A1.915 1.915 0 0 0 27.086 18m-.35 1.07a.913.913 0 0 1 1.194 1.194.9.9 0 0 1-.198.297L22.293 26H21v-1.293l5.44-5.44a.9.9 0 0 1 .296-.197"/></svg>