<svg xmlns="http://www.w3.org/2000/svg" width="32" height="32" viewBox="0 0 32 32"><path d="M4 5a1 1 0 0 0-1 1v20a1 1 0 0 0 1 1h13a1 1 0 1 0 0-2H5V10h22v5a1 1 0 1 0 2 0V6a1 1 0 0 0-1-1zm23 3H5V7h22zM17.483 12.551a1 1 0 0 1 .632 1.265l-2.333 7a1 1 0 1 1-1.897-.632l2.333-7a1 1 0 0 1 1.265-.633M13.207 14.207a1 1 0 0 0-1.414-1.414l-3.5 3.5a1 1 0 0 0 0 1.414l3.5 3.5a1 1 0 0 0 1.414-1.414L10.414 17zM18.793 19.793a1 1 0 0 0 1.414 1.414l3.5-3.5a1 1 0 0 0 0-1.414l-3.5-3.5a1 1 0 0 0-1.414 1.414L21.586 17zM29 25a1 1 0 1 0-2 0 1 1 0 1 0 0 2h1a1 1 0 0 0 1-1zM27.086 19.5a.41.41 0 0 0-.293.121L21.5 24.915v.585h.586l5.293-5.293a.415.415 0 0 0-.293-.707m-.924-1.816a2.414 2.414 0 0 1 2.63 3.937l-5.488 5.49c-.25.25-.59.39-.943.389h-1.528a1.334 1.334 0 0 1-1.333-1.333v-1.529c0-.353.14-.692.39-.942l5.488-5.489c.225-.224.49-.402.784-.523"/></svg>