<svg xmlns="http://www.w3.org/2000/svg" width="32" height="32" viewBox="0 0 32 32"><path d="M4 5.25a.75.75 0 0 0-.75.75v20c0 .414.336.75.75.75h13.5a.75.75 0 0 0 0-1.5H4.75V9.75h22.5V16a.75.75 0 0 0 1.5 0V6a.75.75 0 0 0-.75-.75zm23.25 3H4.75v-1.5h22.5zM17.404 12.789a.75.75 0 0 1 .474.948l-2.333 7a.75.75 0 1 1-1.423-.474l2.333-7a.75.75 0 0 1 .949-.474M13.03 12.97a.75.75 0 0 1 0 1.06L10.06 17l2.97 2.97a.75.75 0 1 1-1.06 1.06l-3.5-3.5a.75.75 0 0 1 0-1.06l3.5-3.5a.75.75 0 0 1 1.06 0M18.97 19.97a.75.75 0 1 0 1.06 1.06l3.5-3.5a.75.75 0 0 0 0-1.06l-3.5-3.5a.75.75 0 1 0-1.06 1.06L21.94 17zM28 23.75a.75.75 0 0 1 .75.75V26a.75.75 0 0 1-.75.75h-1.5a.75.75 0 0 1 0-1.5h.75v-.75a.75.75 0 0 1 .75-.75M27.086 17.75a2.16 2.16 0 0 0-1.53.634l-5.489 5.488a1.08 1.08 0 0 0-.317.766v1.529a1.083 1.083 0 0 0 1.083 1.083h1.528c.287 0 .564-.114.767-.317l5.488-5.488a2.163 2.163 0 0 0-1.53-3.695m-.255 1.55a.664.664 0 0 1 .724 1.084L22.19 25.75h-.94v-.939l5.366-5.366a.7.7 0 0 1 .215-.144"/></svg>