<svg xmlns="http://www.w3.org/2000/svg" width="32" height="32" viewBox="0 0 32 32"><path d="M10 2a1 1 0 0 1 1 1v2h10V3a1 1 0 1 1 2 0v2a5 5 0 0 1 4.997 5v4.589l.296-.296a1 1 0 0 1 1.414 1.414l-2 2a1 1 0 0 1-1.414 0l-2-2a1 1 0 0 1 1.414-1.414l.29.29V10a3 3 0 0 0-3-3h-14a3 3 0 0 0-3 3v3a1 1 0 1 1-2 0v-3a5 5 0 0 1 5-5H9V3a1 1 0 0 1 1-1m.444 12.92h1.63q.1-.43.36-.67.27-.24.65-.24.37 0 .6.19.27.23.27.65 0 .4-.25.75-.24.35-1.14 1.24l-.23.23-1.69 1.66V20h4.85v-1.27h-2.8l.97-.94q1.09-1.06 1.4-1.47.48-.66.48-1.47 0-.82-.6-1.37-.68-.63-1.81-.63-.94 0-1.65.46-.89.57-1.04 1.61M20.92 13h-1.57l-2.94 4.36v1.32h3.03V20h1.48v-1.32h.79v-1.15h-.79zm-1.48 4.53h-1.58l1.58-2.44zM4.293 16.293a1 1 0 0 1 1.414 0l2 2a1 1 0 1 1-1.414 1.414l-.296-.296V24a3 3 0 0 0 3 3h14a3 3 0 0 0 3-3v-3a1 1 0 1 1 2 0v3a5 5 0 0 1-5 5h-14a5 5 0 0 1-5-5v-4.583l-.29.29a1 1 0 0 1-1.414-1.414z"/></svg>