<svg xmlns="http://www.w3.org/2000/svg" width="32" height="32" viewBox="0 0 32 32"><path d="M10.5 3a.5.5 0 0 0-1 0v2.5h-.503a4.5 4.5 0 0 0-4.5 4.5v3a.5.5 0 0 0 1 0v-3a3.5 3.5 0 0 1 3.5-3.5h14a3.5 3.5 0 0 1 3.5 3.5v5.79l-1.143-1.144a.5.5 0 0 0-.708.708l2 2a.5.5 0 0 0 .708 0l2-2a.5.5 0 0 0-.708-.708l-1.149 1.15V10a4.5 4.5 0 0 0-4.5-4.5H22.5V3a.5.5 0 0 0-1 0v2.5h-11V3Zm1.114 11.83h-1.01c.08-.62.367-1.113.86-1.48.44-.333.973-.5 1.6-.5.713 0 1.283.2 1.71.6.38.367.57.83.57 1.39 0 .493-.14.95-.42 1.37-.227.353-.643.817-1.25 1.39l-1.6 1.52h3.24V20h-4.54v-.88l2.28-2.19c.507-.487.85-.873 1.03-1.16.187-.293.28-.6.28-.92 0-.387-.133-.687-.4-.9-.233-.193-.54-.29-.92-.29-.427 0-.77.117-1.03.35-.227.207-.36.48-.4.82ZM19.44 13h1v4.86h1.13v.82h-1.13V20h-.93v-1.32h-3.07v-.89l3-4.79Zm-1.93 4.86h2v-3.31l-2 3.31ZM4.646 16.646a.5.5 0 0 1 .708 0l2 2a.5.5 0 0 1-.708.708l-1.149-1.15V24a3.5 3.5 0 0 0 3.5 3.5h14a3.5 3.5 0 0 0 3.5-3.5v-3a.5.5 0 1 1 1 0v3a4.5 4.5 0 0 1-4.5 4.5h-14a4.5 4.5 0 0 1-4.5-4.5v-5.79l-1.143 1.144a.5.5 0 0 1-.708-.708l2-2Z"/></svg>