<svg xmlns="http://www.w3.org/2000/svg" width="32" height="32" viewBox="0 0 32 32"><path d="M10 2.25a.75.75 0 0 1 .75.75v2.25h10.5V3a.75.75 0 0 1 1.5 0v2.25h.247a4.75 4.75 0 0 1 4.75 4.75v5.192l.723-.722a.75.75 0 1 1 1.06 1.06l-2 2a.75.75 0 0 1-1.06 0l-2-2a.75.75 0 1 1 1.06-1.06l.717.716V10a3.25 3.25 0 0 0-3.25-3.25h-14A3.25 3.25 0 0 0 5.747 10v3a.75.75 0 0 1-1.5 0v-3a4.75 4.75 0 0 1 4.75-4.75h.253V3a.75.75 0 0 1 .75-.75M5.53 16.47a.75.75 0 0 0-1.06 0l-2 2a.75.75 0 1 0 1.06 1.06l.717-.716V24a4.75 4.75 0 0 0 4.75 4.75h14a4.75 4.75 0 0 0 4.75-4.75v-3a.75.75 0 0 0-1.5 0v3a3.25 3.25 0 0 1-3.25 3.25h-14A3.25 3.25 0 0 1 5.747 24v-5.192l.723.722a.75.75 0 0 0 1.06-1.06zm5.014-1.6h1.26q.07-.47.38-.76.34-.31.88-.31.49 0 .8.25.34.29.34.8 0 .46-.28.87-.27.41-1.16 1.26l-2.04 1.98V20h4.67v-1.04h-3.07l1.35-1.29q.97-.93 1.31-1.42.45-.64.45-1.4 0-.84-.59-1.39-.65-.61-1.75-.61-.94 0-1.62.49a2.14 2.14 0 0 0-.93 1.53M20.63 13H19.4l-2.97 4.62v1.06h3.05V20h1.15v-1.32h1v-.95h-1zm-1.15 4.73h-1.83l1.83-2.96z"/></svg>