<svg xmlns="http://www.w3.org/2000/svg" width="32" height="32" viewBox="0 0 32 32"><path d="M10 2.25a.75.75 0 0 1 .75.75v2.25h10.5V3a.75.75 0 0 1 1.5 0v2.25h.247a4.75 4.75 0 0 1 4.75 4.75v5.192l.723-.722a.75.75 0 1 1 1.06 1.06l-2 2a.75.75 0 0 1-1.06 0l-2-2a.75.75 0 1 1 1.06-1.06l.717.716V10a3.25 3.25 0 0 0-3.25-3.25h-14A3.25 3.25 0 0 0 5.747 10v3a.75.75 0 0 1-1.5 0v-3a4.75 4.75 0 0 1 4.75-4.75h.253V3a.75.75 0 0 1 .75-.75ZM5.53 16.47a.75.75 0 0 0-1.06 0l-2 2a.75.75 0 1 0 1.06 1.06l.717-.716V24a4.75 4.75 0 0 0 4.75 4.75h14a4.75 4.75 0 0 0 4.75-4.75v-3a.75.75 0 0 0-1.5 0v3a3.25 3.25 0 0 1-3.25 3.25h-14A3.25 3.25 0 0 1 5.747 24v-5.192l.723.722a.75.75 0 0 0 1.06-1.06l-2-2Zm5.014-1.6h1.26c.047-.313.173-.567.38-.76.227-.207.52-.31.88-.31.327 0 .593.083.8.25.227.193.34.46.34.8 0 .307-.093.597-.28.87-.18.273-.567.693-1.16 1.26l-2.04 1.98V20h4.67v-1.04h-3.07l1.35-1.29c.647-.62 1.083-1.093 1.31-1.42.3-.427.45-.893.45-1.4 0-.56-.197-1.023-.59-1.39-.433-.407-1.017-.61-1.75-.61-.627 0-1.167.163-1.62.49a2.139 2.139 0 0 0-.93 1.53ZM20.63 13H19.4l-2.97 4.62v1.06h3.05V20h1.15v-1.32h1v-.95h-1V13Zm-1.15 4.73h-1.83l1.83-2.96v2.96Z"/></svg>