<svg xmlns="http://www.w3.org/2000/svg" width="32" height="32" viewBox="0 0 32 32"><path d="M11.99 3.5h-6A2.5 2.5 0 0 0 3.49 6v3a2.5 2.5 0 0 0 2.5 2.5h6a2.5 2.5 0 0 0 2.5-2.5V6a2.5 2.5 0 0 0-2.5-2.5M11.989 14.5h-6a2.5 2.5 0 0 0-2.5 2.5v9a2.5 2.5 0 0 0 2.5 2.5h6a2.5 2.5 0 0 0 2.5-2.5v-9a2.5 2.5 0 0 0-2.5-2.5M25.99 20.5h-6a2.5 2.5 0 0 0-2.5 2.5v3a2.5 2.5 0 0 0 2.5 2.5h6a2.5 2.5 0 0 0 2.5-2.5v-3a2.5 2.5 0 0 0-2.5-2.5M26.01 3.5h-6a2.5 2.5 0 0 0-2.5 2.5v9a2.5 2.5 0 0 0 2.5 2.5h6a2.5 2.5 0 0 0 2.5-2.5V6a2.5 2.5 0 0 0-2.5-2.5"/></svg>