<svg xmlns="http://www.w3.org/2000/svg" width="32" height="32" viewBox="0 0 32 32"><path d="M12 15.481H6a2.5 2.5 0 0 0-2.5 2.504v8.011A2.51 2.51 0 0 0 6 28.5h6a2.5 2.5 0 0 0 2.5-2.504v-8.011A2.51 2.51 0 0 0 12 15.48m1.5 10.515A1.505 1.505 0 0 1 12 27.5H6a1.5 1.5 0 0 1-1.5-1.503v-8.011A1.505 1.505 0 0 1 6 16.483h6a1.5 1.5 0 0 1 1.5 1.502zM26 20.489h-6a2.5 2.5 0 0 0-2.5 2.503v3.004A2.51 2.51 0 0 0 20 28.5h6a2.5 2.5 0 0 0 2.5-2.504v-3.004a2.51 2.51 0 0 0-2.5-2.504m1.5 5.507A1.505 1.505 0 0 1 26 27.5h-6a1.5 1.5 0 0 1-1.5-1.503v-3.004A1.505 1.505 0 0 1 20 21.49h6a1.5 1.5 0 0 1 1.5 1.502zM26 3.5h-6a2.5 2.5 0 0 0-2.5 2.504v8.011A2.51 2.51 0 0 0 20 16.52h6a2.5 2.5 0 0 0 2.5-2.504V6.004A2.51 2.51 0 0 0 26 3.5m1.5 10.515a1.505 1.505 0 0 1-1.5 1.502h-6a1.5 1.5 0 0 1-1.5-1.502V6.004A1.505 1.505 0 0 1 20 4.5h6a1.5 1.5 0 0 1 1.5 1.503zM12 3.5H6a2.5 2.5 0 0 0-2.5 2.504v3.004A2.51 2.51 0 0 0 6 11.512h6a2.5 2.5 0 0 0 2.5-2.504V6.004A2.51 2.51 0 0 0 12 3.5m1.5 5.508A1.505 1.505 0 0 1 12 10.51H6a1.5 1.5 0 0 1-1.5-1.502V6.004A1.505 1.505 0 0 1 6 4.5h6a1.5 1.5 0 0 1 1.5 1.503z"/></svg>