<svg xmlns="http://www.w3.org/2000/svg" width="32" height="32" viewBox="0 0 32 32"><path d="M12 15.231H6a2.75 2.75 0 0 0-2.75 2.754v8.011A2.759 2.759 0 0 0 6 28.75h6a2.758 2.758 0 0 0 2.75-2.754v-8.011A2.758 2.758 0 0 0 12 15.23Zm1.25 10.765A1.254 1.254 0 0 1 12 27.248H6a1.25 1.25 0 0 1-1.25-1.252v-8.011A1.254 1.254 0 0 1 6 16.733h6a1.25 1.25 0 0 1 1.25 1.252v8.011ZM26 20.238h-6a2.75 2.75 0 0 0-2.75 2.754v3.004A2.758 2.758 0 0 0 20 28.75h6a2.758 2.758 0 0 0 2.75-2.754v-3.004A2.758 2.758 0 0 0 26 20.238Zm1.25 5.758A1.254 1.254 0 0 1 26 27.248h-6a1.25 1.25 0 0 1-1.25-1.252v-3.004A1.254 1.254 0 0 1 20 21.74h6a1.25 1.25 0 0 1 1.25 1.252v3.004ZM26 3.25h-6a2.75 2.75 0 0 0-2.75 2.754v8.011A2.758 2.758 0 0 0 20 16.77h6a2.758 2.758 0 0 0 2.75-2.754V6.004A2.758 2.758 0 0 0 26 3.25Zm1.25 10.765A1.253 1.253 0 0 1 26 15.267h-6a1.25 1.25 0 0 1-1.25-1.252V6.004A1.254 1.254 0 0 1 20 4.752h6a1.25 1.25 0 0 1 1.25 1.252v8.011ZM12 3.25H6a2.75 2.75 0 0 0-2.75 2.754v3.004A2.759 2.759 0 0 0 6 11.762h6a2.75 2.75 0 0 0 2.75-2.754V6.004A2.758 2.758 0 0 0 12 3.25Zm1.25 5.758A1.254 1.254 0 0 1 12 10.26H6a1.25 1.25 0 0 1-1.25-1.252V6.004A1.254 1.254 0 0 1 6 4.752h6a1.25 1.25 0 0 1 1.25 1.252v3.004Z"/></svg>