<svg xmlns="http://www.w3.org/2000/svg" width="32" height="32" viewBox="0 0 32 32"><path d="M5.75 9c0 .906.842 1.97 2.782 2.853 1.873.85 4.512 1.397 7.468 1.397 2.956 0 5.595-.546 7.468-1.397C25.408 10.97 26.25 9.906 26.25 9c0-.906-.842-1.97-2.782-2.853C21.595 5.297 18.956 4.75 16 4.75c-2.956 0-5.595.546-7.468 1.397C6.592 7.03 5.75 8.094 5.75 9Zm-1.5 0c0-1.856 1.62-3.29 3.661-4.218 2.11-.959 4.97-1.532 8.089-1.532 3.12 0 5.98.573 8.088 1.532C26.13 5.709 27.75 7.144 27.75 9v14c0 1.856-1.62 3.29-3.662 4.218-2.108.959-4.969 1.532-8.088 1.532-3.12 0-5.98-.573-8.089-1.532C5.871 26.291 4.25 24.856 4.25 23V9Zm1.5 9.875V23c0 .906.842 1.97 2.782 2.853 1.873.85 4.512 1.397 7.468 1.397 2.956 0 5.595-.546 7.468-1.397 1.94-.882 2.782-1.947 2.782-2.853v-4.125c-.603.524-1.35.974-2.162 1.343-2.108.959-4.969 1.532-8.088 1.532-3.12 0-5.98-.573-8.089-1.532-.812-.369-1.558-.819-2.161-1.343ZM26.25 16v-4.125c-.603.524-1.35.974-2.162 1.343-2.108.959-4.969 1.532-8.088 1.532-3.12 0-5.98-.573-8.089-1.532-.812-.369-1.558-.819-2.161-1.343V16c0 .906.842 1.97 2.782 2.853 1.873.85 4.512 1.397 7.468 1.397 2.956 0 5.595-.546 7.468-1.397 1.94-.882 2.782-1.947 2.782-2.853Z"/></svg>