<svg xmlns="http://www.w3.org/2000/svg" width="32" height="32" viewBox="0 0 32 32"><path d="M5.75 9c0 .906.842 1.97 2.782 2.853 1.873.85 4.512 1.397 7.468 1.397s5.595-.546 7.468-1.397C25.408 10.97 26.25 9.906 26.25 9s-.842-1.97-2.782-2.853C21.595 5.297 18.956 4.75 16 4.75s-5.595.546-7.468 1.397C6.592 7.03 5.75 8.094 5.75 9m-1.5 0c0-1.856 1.62-3.29 3.661-4.218 2.11-.959 4.97-1.532 8.089-1.532s5.98.573 8.089 1.532c2.04.927 3.661 2.362 3.661 4.218v14c0 1.856-1.62 3.29-3.661 4.218-2.11.959-4.97 1.532-8.089 1.532s-5.98-.573-8.089-1.532C5.871 26.291 4.25 24.856 4.25 23zm1.5 9.875V23c0 .906.842 1.97 2.782 2.853 1.873.85 4.512 1.397 7.468 1.397s5.595-.546 7.468-1.397c1.94-.882 2.782-1.947 2.782-2.853v-4.125c-.603.524-1.35.974-2.161 1.343-2.11.959-4.97 1.532-8.089 1.532s-5.98-.573-8.089-1.532C7.1 19.85 6.353 19.4 5.75 18.875M26.25 16v-4.125c-.603.524-1.35.974-2.161 1.343-2.11.959-4.97 1.532-8.089 1.532s-5.98-.573-8.089-1.532C7.1 12.85 6.353 12.4 5.75 11.875V16c0 .906.842 1.97 2.782 2.853 1.873.85 4.512 1.397 7.468 1.397s5.595-.546 7.468-1.397c1.94-.882 2.782-1.947 2.782-2.853"/></svg>