<svg xmlns="http://www.w3.org/2000/svg" width="32" height="32" viewBox="0 0 32 32"><path d="M5.5 9c0 1.064.972 2.19 2.929 3.08 1.912.87 4.588 1.42 7.571 1.42s5.66-.55 7.571-1.42C25.528 11.19 26.5 10.064 26.5 9s-.972-2.19-2.929-3.08C21.66 5.05 18.983 4.5 16 4.5s-5.66.55-7.571 1.42C6.472 6.81 5.5 7.936 5.5 9m-1 0c0-1.697 1.49-3.07 3.515-3.99C10.085 4.068 12.908 3.5 16 3.5s5.916.569 7.985 1.51C26.01 5.93 27.5 7.302 27.5 9v14c0 1.697-1.49 3.07-3.515 3.99-2.07.941-4.893 1.51-7.985 1.51s-5.916-.569-7.985-1.51C5.99 26.07 4.5 24.698 4.5 23zm1 9.289V23c0 1.064.972 2.19 2.929 3.08 1.912.87 4.588 1.42 7.571 1.42s5.66-.55 7.571-1.42c1.957-.89 2.929-2.016 2.929-3.08v-4.711c-.626.67-1.504 1.242-2.515 1.702-2.07.94-4.893 1.509-7.985 1.509s-5.916-.569-7.985-1.51c-1.011-.459-1.89-1.032-2.515-1.701M26.5 16v-4.711c-.626.67-1.504 1.242-2.515 1.702-2.07.94-4.893 1.509-7.985 1.509s-5.916-.569-7.985-1.51c-1.011-.459-1.89-1.032-2.515-1.701V16c0 1.064.972 2.19 2.929 3.08 1.912.87 4.588 1.42 7.571 1.42s5.66-.55 7.571-1.42c1.957-.89 2.929-2.016 2.929-3.08"/></svg>