<svg xmlns="http://www.w3.org/2000/svg" width="32" height="32" viewBox="0 0 32 32"><path d="M10.75 3.75a.75.75 0 0 0-1.5 0v2.156H9c-2.6 0-4.75 2.049-4.75 4.625v13.563c0 2.576 2.15 4.625 4.75 4.625h14c2.6 0 4.75-2.049 4.75-4.625V10.53c0-2.576-2.15-4.625-4.75-4.625h-.25V3.75a.75.75 0 0 0-1.5 0v2.156h-10.5V3.75ZM23 7.406c1.817 0 3.25 1.422 3.25 3.125v13.563c0 1.703-1.433 3.125-3.25 3.125H9c-1.818 0-3.25-1.422-3.25-3.125V10.53c0-1.703 1.432-3.125 3.25-3.125h14Zm-.522 6.997a.75.75 0 1 0-.956-1.156l-7.882 6.51-3.118-3.019a.75.75 0 0 0-1.044 1.078l3.6 3.486a.75.75 0 0 0 1 .04l8.4-6.939Z"/></svg>