<svg xmlns="http://www.w3.org/2000/svg" width="32" height="32" viewBox="0 0 32 32"><path d="M6 9c0 .747.712 1.75 2.636 2.625C10.469 12.458 13.072 13 16 13s5.531-.542 7.364-1.375C25.288 10.751 26 9.747 26 9s-.712-1.75-2.636-2.625C21.531 5.542 18.928 5 16 5s-5.531.542-7.364 1.375C6.712 7.249 6 8.253 6 9M4 9c0-2.014 1.75-3.51 3.808-4.446C9.956 3.578 12.853 3 16 3s6.044.578 8.192 1.554C26.25 5.49 28 6.986 28 9v14c0 2.014-1.75 3.51-3.808 4.446C22.044 28.422 19.147 29 16 29s-6.044-.578-8.192-1.554C5.75 26.51 4 25.014 4 23zm2 10.396V23c0 .747.712 1.75 2.636 2.625C10.469 26.458 13.072 27 16 27s5.531-.542 7.364-1.375C25.288 24.751 26 23.747 26 23v-3.604a10 10 0 0 1-1.808 1.05C22.044 21.422 19.147 22 16 22s-6.044-.578-8.192-1.554A10 10 0 0 1 6 19.396M26 16v-3.604a10 10 0 0 1-1.808 1.05C22.044 14.422 19.147 15 16 15s-6.044-.578-8.192-1.554A10 10 0 0 1 6 12.396V16c0 .747.712 1.75 2.636 2.625C10.469 19.458 13.072 20 16 20s5.531-.542 7.364-1.375C25.288 17.751 26 16.747 26 16"/></svg>