<svg xmlns="http://www.w3.org/2000/svg" width="32" height="32" viewBox="0 0 32 32"><path d="M7.808 4.554C9.956 3.578 12.853 3 16 3s6.044.578 8.192 1.554C26.25 5.49 28 6.986 28 9c0 .312-.16.72-.694 1.206-.535.486-1.364.97-2.473 1.396C22.622 12.452 19.5 13 16 13s-6.622-.547-8.833-1.398c-1.11-.426-1.938-.91-2.473-1.396S4 9.312 4 9c0-2.014 1.75-3.51 3.808-4.446M4 12.206V17c0 .312.16.72.694 1.206.535.486 1.364.97 2.473 1.396C9.378 20.452 12.5 21 16 21s6.622-.547 8.833-1.398c1.11-.426 1.938-.91 2.473-1.396S28 17.312 28 17v-4.794c-.688.485-1.521.906-2.449 1.263C23.058 14.428 19.681 15 16 15s-7.058-.572-9.551-1.531C5.52 13.112 4.688 12.69 4 12.206M28 20.206c-.688.485-1.521.906-2.449 1.263C23.058 22.428 19.681 23 16 23s-7.058-.572-9.551-1.531C5.52 21.112 4.688 20.69 4 20.206V25c0 2 5.5 4 12 4s12-2 12-4z"/></svg>