<svg xmlns="http://www.w3.org/2000/svg" width="32" height="32" viewBox="0 0 32 32"><path d="M10.75 3.023A.76.76 0 0 0 10 2.25a.76.76 0 0 0-.75.773v2.222H9c-2.6 0-4.75 2.11-4.75 4.765v13.975A4.76 4.76 0 0 0 9 28.75h14c2.6 0 4.75-2.11 4.75-4.765V10.01A4.76 4.76 0 0 0 23 5.245h-.25V3.023A.76.76 0 0 0 22 2.25a.76.76 0 0 0-.75.773v2.222h-10.5zM23 6.79c1.817 0 3.25 1.465 3.25 3.22v13.975c0 1.755-1.433 3.22-3.25 3.22H9c-1.818 0-3.25-1.465-3.25-3.22V10.01c0-1.755 1.432-3.22 3.25-3.22zM22.478 14a.79.79 0 0 0 .1-1.088.735.735 0 0 0-1.056-.104l-7.882 6.709-3.118-3.111a.734.734 0 0 0-1.06.017.79.79 0 0 0 .016 1.093l3.6 3.592a.734.734 0 0 0 1 .04z"/></svg>