<svg xmlns="http://www.w3.org/2000/svg" width="32" height="32" viewBox="0 0 32 32"><path d="M7.808 4.554C9.956 3.578 12.853 3 16 3c3.147 0 6.044.578 8.192 1.554C26.25 5.49 28 6.986 28 9c0 .312-.16.72-.694 1.206-.535.486-1.364.97-2.473 1.396C22.622 12.452 19.5 13 16 13c-3.5 0-6.622-.547-8.833-1.398-1.11-.426-1.938-.91-2.473-1.396C4.16 9.721 4 9.312 4 9c0-2.014 1.75-3.51 3.808-4.446Z"/><path d="M4 12.206V17c0 .312.16.72.694 1.206.535.486 1.364.97 2.473 1.396C9.378 20.452 12.5 21 16 21c3.5 0 6.622-.547 8.833-1.398 1.11-.426 1.938-.91 2.473-1.396.534-.485.694-.894.694-1.206v-4.794c-.688.485-1.521.906-2.449 1.263C23.058 14.428 19.681 15 16 15c-3.68 0-7.058-.572-9.551-1.531-.928-.357-1.761-.778-2.449-1.263Z"/><path d="M28 20.206c-.688.485-1.521.906-2.449 1.263C23.058 22.428 19.681 23 16 23c-3.68 0-7.058-.572-9.551-1.531-.928-.357-1.761-.778-2.449-1.263V25c0 2 5.5 4 12 4s12-2 12-4v-4.794Z"/></svg>