<svg xmlns="http://www.w3.org/2000/svg" width="32" height="32" viewBox="0 0 32 32"><path d="M3.59 22.53h3.968a3.27 3.27 0 0 0 3.265-3.27s-.016-1.868-.018-2.539a7.48 7.48 0 0 1 10.426 0c-.002.67-.018 2.539-.017 2.545a3.26 3.26 0 0 0 3.264 3.264h3.968a3.354 3.354 0 0 0 3.277-3.277v-2.121c0-2.782-4.606-7.98-15.705-7.98-5.997 0-9.734 1.54-11.813 2.834a11.6 11.6 0 0 0-2.082 1.63 5.3 5.3 0 0 0-1.81 3.516v2.121a3.277 3.277 0 0 0 3.277 3.278m-1.866-3.277v-2.121c0-.936 1.01-2.57 3.227-3.948 1.923-1.196 5.402-2.621 11.067-2.621 10.182 0 14.294 4.636 14.294 6.569v2.121a1.91 1.91 0 0 1-1.866 1.866h-3.968a1.85 1.85 0 0 1-1.853-1.847s.018-2.15.017-2.672a1.56 1.56 0 0 0-.571-1.05 9.18 9.18 0 0 0-6.053-2.357c-3.287 0-6.625 2.184-6.625 3.406 0 .523.018 2.667.018 2.667a1.855 1.855 0 0 1-1.853 1.853H3.589a1.87 1.87 0 0 1-1.865-1.866"/></svg>