<svg xmlns="http://www.w3.org/2000/svg" width="32" height="32" viewBox="0 0 32 32"><path d="m3.581 22.752 3.971.003a3.5 3.5 0 0 0 3.5-3.507s-.016-1.73-.02-2.459a7.3 7.3 0 0 1 9.962.007c-.001.727-.015 2.458-.015 2.465a3.506 3.506 0 0 0 3.504 3.504l3.971.003a3.59 3.59 0 0 0 3.512-3.512l-.001-2.122c-.002-2.866-4.684-8.224-15.957-8.232-6.057-.004-9.837 1.554-11.943 2.864a11.8 11.8 0 0 0-2.117 1.658 5.54 5.54 0 0 0-1.885 3.689v2.122a3.523 3.523 0 0 0 3.518 3.517m-1.634-3.515-.001-2.124c0-.87.972-2.416 3.115-3.748 1.897-1.179 5.336-2.584 10.948-2.58 10.021.007 14.072 4.483 14.073 6.347l.001 2.123a1.67 1.67 0 0 1-1.63 1.63l-3.971-.003a1.62 1.62 0 0 1-1.62-1.612s.017-2.151.016-2.675a1.77 1.77 0 0 0-.642-1.218 9.46 9.46 0 0 0-6.224-2.43c-3.473-.004-6.866 2.3-6.863 3.638 0 .524.02 2.67.02 2.67a1.62 1.62 0 0 1-1.618 1.617l-3.97-.003a1.636 1.636 0 0 1-1.634-1.632"/></svg>