<svg xmlns="http://www.w3.org/2000/svg" width="32" height="32" viewBox="0 0 32 32"><path d="M3.585 22.287h3.968a3.035 3.035 0 0 0 3.03-3.032s-.019-2.142-.03-2.588a7.57 7.57 0 0 1 5.46-2.306 7.86 7.86 0 0 1 5.449 2.23c0 .524-.018 2.663-.018 2.667a3.026 3.026 0 0 0 3.03 3.029h3.968a3.115 3.115 0 0 0 3.04-3.042l.002-2.121c0-1.576-1.485-3.517-3.782-4.946-2.053-1.277-5.747-2.799-11.689-2.8s-9.636 1.523-11.689 2.8c-.73.448-1.406.98-2.016 1.581a5.16 5.16 0 0 0-1.765 3.365v2.121a3.04 3.04 0 0 0 3.042 3.042"/></svg>