<svg xmlns="http://www.w3.org/2000/svg" width="32" height="32" viewBox="0 0 32 32"><path d="M3.59 22.287h3.968a3.034 3.034 0 0 0 3.03-3.032s-.019-2.142-.03-2.588a7.57 7.57 0 0 1 5.46-2.306 7.86 7.86 0 0 1 5.449 2.23c0 .524-.018 2.663-.018 2.667a3.03 3.03 0 0 0 3.029 3.029h3.968a3.115 3.115 0 0 0 3.042-3.042v-2.121c0-1.576-1.484-3.517-3.78-4.946-2.054-1.277-5.748-2.799-11.69-2.8s-9.636 1.523-11.689 2.8c-.73.448-1.406.98-2.016 1.581a5.16 5.16 0 0 0-1.765 3.365v2.121a3.04 3.04 0 0 0 3.042 3.042m-2.101-3.042v-2.121c0-1.032 1.032-2.712 3.337-4.148 1.949-1.212 5.472-2.657 11.192-2.657 10.35.001 14.53 4.802 14.53 6.805l-.001 2.121a2.15 2.15 0 0 1-2.1 2.1h-3.97a2.087 2.087 0 0 1-2.087-2.083s.018-2.148.017-2.672c0-.162-.052-.431-.502-.883a8.93 8.93 0 0 0-5.887-2.287c-3.3 0-6.39 2.182-6.39 3.17 0 .524.019 2.668.019 2.668a2.09 2.09 0 0 1-2.089 2.088H3.59a2.1 2.1 0 0 1-2.101-2.1"/></svg>