<svg xmlns="http://www.w3.org/2000/svg" width="32" height="32" viewBox="0 0 32 32"><path d="M24 10.5H7.999a1.5 1.5 0 0 0-1.492 1.666L7.99 25.498A4.496 4.496 0 0 0 12.46 29.5h7.076a4.495 4.495 0 0 0 4.472-4.002l1.481-13.332A1.5 1.5 0 0 0 24 10.5m-.985 14.886a3.495 3.495 0 0 1-3.478 3.114h-7.075a3.495 3.495 0 0 1-3.479-3.114L7.502 12.055a.5.5 0 0 1 .497-.555h16a.5.5 0 0 1 .497.555zM7 7.5h18a.5.5 0 1 0 0-1h-4.5V5A2.503 2.503 0 0 0 18 2.5h-4A2.503 2.503 0 0 0 11.5 5v1.5H7a.5.5 0 0 0 0 1M12.5 5A1.5 1.5 0 0 1 14 3.5h4A1.5 1.5 0 0 1 19.5 5v1.5h-7z"/></svg>