<svg xmlns="http://www.w3.org/2000/svg" width="32" height="32" viewBox="0 0 32 32"><path d="M24 10.25H7.999a1.75 1.75 0 0 0-1.74 1.943L7.74 25.525a4.745 4.745 0 0 0 4.721 4.225h7.076a4.745 4.745 0 0 0 4.72-4.225l1.482-13.332a1.75 1.75 0 0 0-1.74-1.943m-1.233 15.11a3.246 3.246 0 0 1-3.23 2.89h-7.075a3.246 3.246 0 0 1-3.23-2.89L7.75 12.026A.248.248 0 0 1 8 11.75h16a.25.25 0 0 1 .238.173q.017.052.01.104zM7 7.75h18a.75.75 0 1 0 0-1.5h-4.25V5A2.753 2.753 0 0 0 18 2.25h-4A2.753 2.753 0 0 0 11.25 5v1.25H7a.75.75 0 1 0 0 1.5M12.75 5A1.25 1.25 0 0 1 14 3.75h4A1.25 1.25 0 0 1 19.25 5v1.25h-6.5z"/></svg>