<svg xmlns="http://www.w3.org/2000/svg" width="32" height="32" viewBox="0 0 32 32"><path d="M11 3a1 1 0 1 0-2 0v2h-.003a5 5 0 0 0-5 5v3a1 1 0 1 0 2 0v-3a3 3 0 0 1 3-3h14a3 3 0 0 1 3 3v4.583l-.29-.29a1 1 0 0 0-1.414 1.414l2 2a1 1 0 0 0 1.414 0l2-2a1 1 0 0 0-1.414-1.414l-.296.296V10A5 5 0 0 0 23 5V3a1 1 0 1 0-2 0v2H11zM4.293 16.293a1 1 0 0 1 1.414 0l2 2a1 1 0 1 1-1.414 1.414l-.296-.296V24a3 3 0 0 0 3 3h14a3 3 0 0 0 3-3v-3a1 1 0 1 1 2 0v3a5 5 0 0 1-5 5h-14a5 5 0 0 1-5-5v-4.583l-.29.29a1 1 0 0 1-1.414-1.414z"/></svg>