<svg xmlns="http://www.w3.org/2000/svg" width="32" height="32" viewBox="0 0 32 32"><path d="M10.5 3a.5.5 0 0 0-1 0v2.5h-.503a4.5 4.5 0 0 0-4.5 4.5v3a.5.5 0 0 0 1 0v-3a3.5 3.5 0 0 1 3.5-3.5h14a3.5 3.5 0 0 1 3.5 3.5v5.79l-1.143-1.144a.5.5 0 0 0-.708.708l2 2a.5.5 0 0 0 .708 0l2-2a.5.5 0 0 0-.708-.708l-1.149 1.15V10a4.5 4.5 0 0 0-4.5-4.5H22.5V3a.5.5 0 0 0-1 0v2.5h-11zM4.646 16.646a.5.5 0 0 1 .708 0l2 2a.5.5 0 0 1-.708.708l-1.149-1.15V24a3.5 3.5 0 0 0 3.5 3.5h14a3.5 3.5 0 0 0 3.5-3.5v-3a.5.5 0 1 1 1 0v3a4.5 4.5 0 0 1-4.5 4.5h-14a4.5 4.5 0 0 1-4.5-4.5v-5.79l-1.143 1.144a.5.5 0 0 1-.708-.708z"/></svg>