<svg xmlns="http://www.w3.org/2000/svg" width="32" height="32" viewBox="0 0 32 32"><path d="M23 6.5a.5.5 0 1 1 0 1H7.801c-1.181 0-2.294.348-3.097.941-.8.591-1.204 1.355-1.204 2.106V21a.5.5 0 0 1-1 0V10.547c0-1.13.609-2.171 1.61-2.91C5.108 6.899 6.437 6.5 7.8 6.5H23ZM28.5 11a.5.5 0 0 1 1 0v10.096c0 1.203-.579 2.331-1.566 3.146-.985.813-2.303 1.258-3.661 1.258H9a.5.5 0 0 1 0-1h15.273c1.149 0 2.236-.378 3.024-1.029.786-.649 1.203-1.506 1.203-2.375V11Z"/><path d="M23 7V3l6 4h-6Z"/><path d="M22.764 2.56a.5.5 0 0 1 .513.024l6 4A.5.5 0 0 1 29 7.5h-6a.5.5 0 0 1-.5-.5V3a.5.5 0 0 1 .264-.44Zm.736 1.374V6.5h3.849L23.5 3.934ZM9 25v4l-6-4h6Z"/><path d="M9.236 29.44a.5.5 0 0 1-.513-.024l-6-4A.5.5 0 0 1 3 24.5h6a.5.5 0 0 1 .5.5v4a.5.5 0 0 1-.264.44ZM8.5 28.067V25.5H4.651L8.5 28.066Z"/></svg>