<svg xmlns="http://www.w3.org/2000/svg" width="32" height="32" viewBox="0 0 32 32"><path d="M10.75 3a.75.75 0 0 0-1.5 0v2.25h-.253A4.75 4.75 0 0 0 4.247 10v3a.75.75 0 0 0 1.5 0v-3a3.25 3.25 0 0 1 3.25-3.25h14a3.25 3.25 0 0 1 3.25 3.25v5.186l-.717-.716a.75.75 0 1 0-1.06 1.06l2 2a.75.75 0 0 0 1.06 0l2-2a.75.75 0 1 0-1.06-1.06l-.723.722V10a4.75 4.75 0 0 0-4.75-4.75h-.247V3a.75.75 0 0 0-1.5 0v2.25h-10.5zM4.47 16.47a.75.75 0 0 1 1.06 0l2 2a.75.75 0 1 1-1.06 1.06l-.723-.722V24a3.25 3.25 0 0 0 3.25 3.25h14a3.25 3.25 0 0 0 3.25-3.25v-3a.75.75 0 0 1 1.5 0v3a4.75 4.75 0 0 1-4.75 4.75h-14A4.75 4.75 0 0 1 4.247 24v-5.186l-.717.716a.75.75 0 0 1-1.06-1.06z"/></svg>