<svg xmlns="http://www.w3.org/2000/svg" width="32" height="32" viewBox="0 0 32 32"><path d="M23 6.25a.75.75 0 0 1 0 1.5H7.801c-1.135 0-2.195.335-2.949.892-.75.554-1.102 1.249-1.102 1.905V21a.75.75 0 0 1-1.5 0V10.547c0-1.226.66-2.335 1.711-3.111 1.047-.774 2.43-1.186 3.84-1.186zM28.25 11a.75.75 0 1 1 1.5 0v10.096c0 1.286-.62 2.482-1.657 3.339-1.033.853-2.41 1.315-3.82 1.315H9a.75.75 0 0 1 0-1.5h15.273c1.096 0 2.125-.36 2.865-.972.735-.607 1.112-1.397 1.112-2.182zM23 7V3l6 4zM22.646 2.339a.75.75 0 0 1 .77.037l6 4A.75.75 0 0 1 29 7.75h-6a.75.75 0 0 1-.75-.75V3a.75.75 0 0 1 .396-.661M23.75 4.4V6.25h2.773zM9 25v4l-6-4zM9.354 29.661a.75.75 0 0 1-.77-.037l-6-4A.75.75 0 0 1 3 24.25h6a.75.75 0 0 1 .75.75v4a.75.75 0 0 1-.396.661M8.25 27.6V25.75H5.477z"/></svg>