<svg xmlns="http://www.w3.org/2000/svg" width="32" height="32" viewBox="0 0 32 32"><path d="M23.555 2.168A1 1 0 0 0 22 3v3H7.801c-1.456 0-2.893.425-3.989 1.235C2.712 8.048 2 9.226 2 10.547V21a1 1 0 1 0 2 0V10.547c0-.561.3-1.187 1-1.704C5.707 8.323 6.712 8 7.802 8H29a1 1 0 0 0 .555-1.832zM8.445 29.832A1 1 0 0 0 10 29v-3h14.273c1.463 0 2.897-.479 3.98-1.372C29.34 23.729 30 22.465 30 21.096V11a1 1 0 1 0-2 0v10.096c0 .702-.336 1.424-1.021 1.99-.691.57-1.662.914-2.706.914H3a1 1 0 0 0-.555 1.832z"/></svg>