<svg xmlns="http://www.w3.org/2000/svg" width="32" height="32" viewBox="0 0 32 32"><path d="M23 9.25a.5.5 0 0 0 .5-.5V7.443a.5.5 0 0 0-1 0V8.75a.5.5 0 0 0 .5.5ZM23 11.75a.5.5 0 1 0 0-1 .5.5 0 0 0 0 1Z"/><path d="M16.7 13.747a1.483 1.483 0 0 0 1.301.753h9.998a1.502 1.502 0 0 0 1.302-2.246l-4.987-9.002-.006-.01a1.498 1.498 0 0 0-2.595.01l-5.008 8.992a1.482 1.482 0 0 0-.005 1.503Zm.873-1.007 5.008-8.994a.498.498 0 0 1 .861-.004l4.99 9.006a.5.5 0 0 1-.433.752h-9.998a.489.489 0 0 1-.434-.25.497.497 0 0 1 .006-.51Z"/><path d="M29 17.5a.5.5 0 0 0-.5.5v4a2.502 2.502 0 0 1-2.5 2.5H16a2.502 2.502 0 0 1-2.5-2.5V10A2.502 2.502 0 0 1 16 7.5a.5.5 0 0 0 0-1 3.504 3.504 0 0 0-3.5 3.5v12a3.504 3.504 0 0 0 3.5 3.5h10a3.504 3.504 0 0 0 3.5-3.5v-4a.5.5 0 0 0-.5-.5ZM6 6.5A3.504 3.504 0 0 0 2.5 10v12a3.5 3.5 0 1 0 7 0V10A3.504 3.504 0 0 0 6 6.5ZM8.5 22a2.5 2.5 0 1 1-5 0V10a2.5 2.5 0 0 1 5 0v12Z"/><path d="M17 17.5a.5.5 0 1 0 0-1 .5.5 0 0 0 0 1ZM21 17.5a.5.5 0 1 0 0-1 .5.5 0 0 0 0 1ZM25 17.5a.5.5 0 1 0 0-1 .5.5 0 0 0 0 1ZM17 21.5a.5.5 0 1 0 0-1 .5.5 0 0 0 0 1ZM21 21.5a.5.5 0 1 0 0-1 .5.5 0 0 0 0 1ZM25 21.5a.5.5 0 1 0 0-1 .5.5 0 0 0 0 1Z"/></svg>