<svg xmlns="http://www.w3.org/2000/svg" width="32" height="32" viewBox="0 0 32 32"><path d="M26 6H16a4.004 4.004 0 0 0-4 4v12a4.004 4.004 0 0 0 4 4h10a4.004 4.004 0 0 0 4-4V10a4.004 4.004 0 0 0-4-4ZM16 8h10a2.003 2.003 0 0 1 2 2v2H14v-2a2.003 2.003 0 0 1 2-2Zm10 16H16a2.003 2.003 0 0 1-2-2v-8h14v8a2.002 2.002 0 0 1-2 2ZM6 6a4.004 4.004 0 0 0-4 4v12a4 4 0 0 0 8 0V10a4.004 4.004 0 0 0-4-4Zm2 16a2 2 0 1 1-4 0V10a2 2 0 0 1 4 0v12Z"/><path d="M17 18a1 1 0 1 0 0-2 1 1 0 0 0 0 2ZM21 18a1 1 0 1 0 0-2 1 1 0 0 0 0 2ZM25 18a1 1 0 1 0 0-2 1 1 0 0 0 0 2ZM17 22a1 1 0 1 0 0-2 1 1 0 0 0 0 2ZM21 22a1 1 0 1 0 0-2 1 1 0 0 0 0 2ZM25 22a1 1 0 1 0 0-2 1 1 0 0 0 0 2Z"/></svg>