<svg xmlns="http://www.w3.org/2000/svg" width="32" height="32" viewBox="0 0 32 32"><path d="M23 9.5a.75.75 0 0 0 .75-.75V7.443a.75.75 0 1 0-1.5 0V8.75a.75.75 0 0 0 .75.75M23 12a.75.75 0 1 0 0-1.5.75.75 0 0 0 0 1.5M16.483 13.871a1.73 1.73 0 0 0 1.518.88h9.998a1.75 1.75 0 0 0 1.52-2.618l-4.986-9.002-.008-.015a1.75 1.75 0 0 0-3.03.013l-5.006 8.99a1.73 1.73 0 0 0-.006 1.752m1.309-1.01 5.006-8.989a.248.248 0 0 1 .428-.005l4.99 9.007a.251.251 0 0 1-.217.376h-9.998a.24.24 0 0 1-.217-.126.25.25 0 0 1 .008-.262M29 17.25a.75.75 0 0 0-.75.75v4A2.253 2.253 0 0 1 26 24.25H16A2.253 2.253 0 0 1 13.75 22V10A2.253 2.253 0 0 1 16 7.75a.75.75 0 1 0 0-1.5A3.755 3.755 0 0 0 12.25 10v12A3.755 3.755 0 0 0 16 25.75h10A3.754 3.754 0 0 0 29.75 22v-4a.75.75 0 0 0-.75-.75M6 6.25A3.755 3.755 0 0 0 2.25 10v12a3.75 3.75 0 0 0 7.5 0V10A3.755 3.755 0 0 0 6 6.25M8.25 22a2.25 2.25 0 0 1-4.5 0V10a2.25 2.25 0 0 1 4.5 0zM17 17.75a.75.75 0 1 0 0-1.5.75.75 0 0 0 0 1.5M21 17.75a.75.75 0 1 0 0-1.5.75.75 0 0 0 0 1.5M25 17.75a.75.75 0 1 0 0-1.5.75.75 0 0 0 0 1.5M17 21.75a.75.75 0 1 0 0-1.5.75.75 0 0 0 0 1.5M21 21.75a.75.75 0 1 0 0-1.5.75.75 0 0 0 0 1.5M25 21.75a.75.75 0 1 0 0-1.5.75.75 0 0 0 0 1.5"/></svg>