<svg xmlns="http://www.w3.org/2000/svg" width="32" height="32" viewBox="0 0 32 32"><path d="M26 6.5H16a3.504 3.504 0 0 0-3.5 3.5v12a3.505 3.505 0 0 0 3.5 3.5h10a3.504 3.504 0 0 0 3.5-3.5V10A3.504 3.504 0 0 0 26 6.5Zm-10 1h10a2.502 2.502 0 0 1 2.5 2.5v2.5h-15V10A2.502 2.502 0 0 1 16 7.5Zm10 17H16a2.502 2.502 0 0 1-2.5-2.5v-8.5h15V22a2.502 2.502 0 0 1-2.5 2.5ZM6 6.5A3.504 3.504 0 0 0 2.5 10v12a3.5 3.5 0 1 0 7 0V10A3.504 3.504 0 0 0 6 6.5ZM8.5 22a2.5 2.5 0 1 1-5 0V10a2.5 2.5 0 0 1 5 0v12Z"/><path d="M17 17.5a.5.5 0 1 0 0-1 .5.5 0 0 0 0 1ZM21 17.5a.5.5 0 1 0 0-1 .5.5 0 0 0 0 1ZM25 17.5a.5.5 0 1 0 0-1 .5.5 0 0 0 0 1ZM17 21.5a.5.5 0 1 0 0-1 .5.5 0 0 0 0 1ZM21 21.5a.5.5 0 1 0 0-1 .5.5 0 0 0 0 1ZM25 21.5a.5.5 0 1 0 0-1 .5.5 0 0 0 0 1Z"/></svg>