<svg xmlns="http://www.w3.org/2000/svg" width="32" height="32" viewBox="0 0 32 32"><path d="M26 6.25H16A3.755 3.755 0 0 0 12.25 10v12A3.755 3.755 0 0 0 16 25.75h10A3.754 3.754 0 0 0 29.75 22V10A3.754 3.754 0 0 0 26 6.25m-10 1.5h10A2.253 2.253 0 0 1 28.25 10v2.25h-14.5V10A2.253 2.253 0 0 1 16 7.75m10 16.5H16A2.253 2.253 0 0 1 13.75 22v-8.25h14.5V22A2.253 2.253 0 0 1 26 24.25M6 6.25A3.755 3.755 0 0 0 2.25 10v12a3.75 3.75 0 0 0 7.5 0V10A3.755 3.755 0 0 0 6 6.25M8.25 22a2.25 2.25 0 1 1-4.5 0V10a2.25 2.25 0 0 1 4.5 0zM17 17.75a.75.75 0 1 0 0-1.5.75.75 0 0 0 0 1.5M21 17.75a.75.75 0 1 0 0-1.5.75.75 0 0 0 0 1.5M25 17.75a.75.75 0 1 0 0-1.5.75.75 0 0 0 0 1.5M17 21.75a.75.75 0 1 0 0-1.5.75.75 0 0 0 0 1.5M21 21.75a.75.75 0 1 0 0-1.5.75.75 0 0 0 0 1.5M25 21.75a.75.75 0 1 0 0-1.5.75.75 0 0 0 0 1.5"/></svg>