<svg xmlns="http://www.w3.org/2000/svg" width="32" height="32" viewBox="0 0 32 32"><path d="M23 6.693a.75.75 0 0 0-.75.75V8.75a.75.75 0 1 0 1.5 0V7.443a.75.75 0 0 0-.75-.75M23 12a.75.75 0 1 0 0-1.5.75.75 0 0 0 0 1.5M16.267 13.996A1.98 1.98 0 0 0 18 15h9.998a2 2 0 0 0 1.74-2.988L24.751 3.01l-.01-.018a2 2 0 0 0-3.467.016l-5.002 8.985a1.98 1.98 0 0 0-.006 2.003M23.01 3.993 27.999 13l-9.988-.017zM29 17a1 1 0 0 0-1 1v4a2.003 2.003 0 0 1-2 2H16a2.003 2.003 0 0 1-2-2V10a2.003 2.003 0 0 1 2-2 1 1 0 1 0 0-2 4.004 4.004 0 0 0-4 4v12a4.004 4.004 0 0 0 4 4h10a4.004 4.004 0 0 0 4-4v-4a1 1 0 0 0-1-1M6 6a4.004 4.004 0 0 0-4 4v12a4 4 0 1 0 8 0V10a4.004 4.004 0 0 0-4-4m2 16a2 2 0 1 1-4 0V10a2 2 0 0 1 4 0zM17 18a1 1 0 1 0 0-2 1 1 0 0 0 0 2M21 18a1 1 0 1 0 0-2 1 1 0 0 0 0 2M25 18a1 1 0 1 0 0-2 1 1 0 0 0 0 2M17 22a1 1 0 1 0 0-2 1 1 0 0 0 0 2M21 22a1 1 0 1 0 0-2 1 1 0 0 0 0 2M25 22a1 1 0 1 0 0-2 1 1 0 0 0 0 2"/></svg>