<svg xmlns="http://www.w3.org/2000/svg" width="32" height="32" viewBox="0 0 32 32"><path d="M23 6.693a.75.75 0 0 0-.75.75V8.75a.75.75 0 1 0 1.5 0V7.443a.75.75 0 0 0-.75-.75ZM23 12a.75.75 0 1 0 0-1.5.75.75 0 0 0 0 1.5Z"/><path d="M16.267 13.996A1.977 1.977 0 0 0 18 15h9.998a2 2 0 0 0 1.74-2.988L24.751 3.01l-.01-.018a2 2 0 0 0-3.467.016l-5.002 8.985a1.979 1.979 0 0 0-.006 2.003ZM23.01 3.993 27.999 13l-9.988-.017 4.999-8.99Z"/><path d="M29 17a.998.998 0 0 0-1 1v4a2.003 2.003 0 0 1-2 2H16a2.003 2.003 0 0 1-2-2V10a2.003 2.003 0 0 1 2-2 1 1 0 1 0 0-2 4.004 4.004 0 0 0-4 4v12a4.004 4.004 0 0 0 4 4h10a4.004 4.004 0 0 0 4-4v-4a.998.998 0 0 0-1-1ZM6 6a4.004 4.004 0 0 0-4 4v12a4 4 0 1 0 8 0V10a4.004 4.004 0 0 0-4-4Zm2 16a2 2 0 1 1-4 0V10a2 2 0 0 1 4 0v12Z"/><path d="M17 18a1 1 0 1 0 0-2 1 1 0 0 0 0 2ZM21 18a1 1 0 1 0 0-2 1 1 0 0 0 0 2ZM25 18a1 1 0 1 0 0-2 1 1 0 0 0 0 2ZM17 22a1 1 0 1 0 0-2 1 1 0 0 0 0 2ZM21 22a1 1 0 1 0 0-2 1 1 0 0 0 0 2ZM25 22a1 1 0 1 0 0-2 1 1 0 0 0 0 2Z"/></svg>