<svg xmlns="http://www.w3.org/2000/svg" width="32" height="32" viewBox="0 0 32 32"><path d="M16.56 4.141a3.3 3.3 0 0 0-.885-.353v23.68l1.024-.64a.75.75 0 0 1 .795 1.272l-1.861 1.163c-.424.265-.96.278-1.395.032a19.27 19.27 0 0 1-9.544-13.532l-.183-1.068A21.6 21.6 0 0 1 4.2 11.05V8.704c0-.623.331-1.199.87-1.512l7.465-4.347a4.75 4.75 0 0 1 4.78 0l7.465 4.347c.539.313.87.889.87 1.512v1.445c0 1.823-.162 3.641-.484 5.435l-.067.37a.75.75 0 0 1-1.476-.265l.067-.37a29 29 0 0 0 .46-5.17V8.705a.25.25 0 0 0-.124-.216zm-3.27 0L5.824 8.488a.25.25 0 0 0-.124.216v2.345c0 1.137.097 2.272.29 3.393l.183 1.067a17.77 17.77 0 0 0 8.002 12.002V3.788c-.307.072-.605.19-.885.353m15.153 17.212.407 1.255a1.5 1.5 0 0 1-.838 1.843l-.57.243-.145.493.34.607a1.5 1.5 0 0 1-.413 1.936l-1.068.795a1.5 1.5 0 0 1-2.027-.217l-.422-.485h-.5l-.455.506a1.5 1.5 0 0 1-1.999.212l-1.067-.776a1.5 1.5 0 0 1-.405-1.984l.318-.53-.172-.486-.63-.292a1.5 1.5 0 0 1-.798-1.823l.405-1.254a1.5 1.5 0 0 1 1.763-1l.603.137.408-.312.082-.691a1.5 1.5 0 0 1 1.49-1.324h1.319a1.5 1.5 0 0 1 1.494 1.367l.055.617.423.291.683-.136a1.5 1.5 0 0 1 1.719 1.008m-2.765 4.014.527-1.776 1.219-.52-.408-1.254-1.303.259-1.527-1.05-.117-1.32h-1.32l-.156 1.32-1.47 1.127-1.292-.296-.405 1.254 1.204.558.618 1.746-.68 1.137 1.067.775.902-1.005 1.853.002.87.998 1.067-.795zm-1.004-1.79a1.25 1.25 0 1 1-2.5 0 1.25 1.25 0 0 1 2.5 0"/></svg>