<svg xmlns="http://www.w3.org/2000/svg" width="180" height="96" fill="none" viewBox="0 0 180 96"><g fill-rule="evenodd" clip-path="url(#a)" clip-rule="evenodd"><path fill="url(#b)" d="M85.506 8h7.987V6h-7.987z"/><path fill="url(#c)" d="M93.493 6c0 .368-1.787.667-3.993.667s-3.994-.3-3.994-.667 1.788-.667 3.994-.667 3.993.299 3.993.667"/><path fill="url(#d)" d="M92.163 2.667A2.666 2.666 0 0 0 89.5 0a2.666 2.666 0 0 0-2.662 2.667V4h5.325z"/><path fill="url(#e)" d="m65.5 94.5 1.287-5.974a.67.67 0 0 1 .652-.526h43.01c.273 0 .518.166.619.42l2.432 6.08z"/><path fill="#2F2F2F" d="M65.5 95.333c0 .368.299.667.667.667h46.666a.666.666 0 0 0 .667-.667V94.5h-48z"/><path fill="url(#f)" d="M84 91h11V59H84z"/><path fill="#E0E0E0" d="M125.345 59h-71.69C52.19 59 51 57.797 51 56.316V10.684C51 9.203 52.19 8 53.655 8h71.69C126.81 8 128 9.203 128 10.684v45.632c0 1.481-1.19 2.684-2.655 2.684"/><path fill="#222" d="M125.324 51H53.676a.67.67 0 0 1-.676-.667V11.667c0-.368.303-.667.676-.667h71.648c.373 0 .676.299.676.667v38.666a.67.67 0 0 1-.676.667"/><path fill="#222" d="M125.324 51H53.676a.67.67 0 0 1-.676-.667V11.667c0-.368.303-.667.676-.667h71.648c.373 0 .676.299.676.667v38.666a.67.67 0 0 1-.676.667"/><path fill="url(#g)" d="M125.324 51H53.676a.67.67 0 0 1-.676-.667V11.667c0-.368.303-.667.676-.667h71.648c.373 0 .676.299.676.667v38.666a.67.67 0 0 1-.676.667"/><path fill="#908E8E" d="M88.438 55.899h.198v-.88h-.198zm1.806-.627c-.007-.003-.072-.048-.168-.048-.13 0-.218.101-.218.237 0 .13.086.235.218.235.094 0 .16-.043.168-.048v.234a.5.5 0 0 1-.182.032c-.223 0-.42-.173-.42-.453 0-.264.178-.456.42-.456.093 0 .163.024.182.032zm-2.08 0c-.007-.003-.072-.048-.168-.048-.13 0-.218.101-.218.237 0 .13.086.235.218.235.094 0 .16-.043.168-.048v.234a.5.5 0 0 1-.18.032c-.225 0-.421-.173-.421-.453 0-.264.177-.456.421-.456.094 0 .163.024.18.032zm2.706-.045c-.117 0-.206.107-.206.232 0 .128.089.232.206.232.12 0 .206-.104.206-.232 0-.125-.086-.232-.206-.232m.421.232c0 .25-.175.456-.42.456-.241 0-.416-.205-.416-.456 0-.25.175-.453.417-.453.244 0 .42.203.42.453m-1.897-.24c-.003 0-.087-.026-.156-.026-.082 0-.125.03-.125.072 0 .053.06.072.094.083l.053.02c.131.046.189.145.189.252 0 .22-.173.295-.326.295-.108 0-.206-.023-.218-.026v-.2c.02.005.103.032.19.032.1 0 .145-.032.145-.083 0-.042-.04-.07-.09-.085-.01-.005-.03-.01-.041-.016-.113-.04-.206-.112-.206-.259 0-.162.112-.274.297-.274.095 0 .186.026.194.029zm-2.043-1.144c0-.06-.048-.109-.1-.109-.056 0-.099.048-.099.11v.229c0 .061.043.112.099.112.052 0 .1-.051.1-.112zm.543-.303c0-.059-.046-.11-.1-.11-.053 0-.099.051-.099.11v.533c0 .062.046.112.098.112.055 0 .101-.05.101-.112zm.543-.414c0-.061-.045-.11-.1-.11-.053 0-.099.049-.099.11v1.168c0 .058.046.109.099.109.055 0 .1-.05.1-.11zm.543.414c0-.058-.045-.11-.098-.11-.055 0-.1.052-.1.11v.533c0 .062.045.112.1.112.053 0 .098-.05.098-.112zm.545.303c0-.06-.046-.109-.1-.109-.053 0-.099.048-.099.11v.229c0 .06.046.112.098.112.055 0 .101-.051.101-.112zm.543-.303c0-.058-.046-.11-.1-.11-.053 0-.099.052-.099.11v.533c0 .062.046.112.098.112.055 0 .101-.05.101-.112zm.543-.414c0-.061-.043-.11-.098-.11s-.1.049-.1.11v1.168c0 .058.045.109.1.109s.098-.05.098-.11zm.545.414c0-.058-.046-.11-.1-.11-.056 0-.099.052-.099.11v.533c0 .062.043.112.098.112s.1-.05.1-.112zm.543.303c0-.06-.046-.109-.098-.109-.055 0-.1.048-.1.11v.229c0 .061.045.112.1.112.052 0 .098-.051.098-.112z"/><path fill="#232323" d="M92.163 4A2.666 2.666 0 0 0 89.5 1.333 2.666 2.666 0 0 0 86.838 4 2.666 2.666 0 0 0 89.5 6.667 2.666 2.666 0 0 0 92.163 4"/><path fill="#373B47" d="M90.83 4c0-.736-.596-1.333-1.33-1.333a1.333 1.333 0 0 0 0 2.666c.734 0 1.33-.597 1.33-1.333"/></g><defs><linearGradient id="b" x1="85.506" x2="93.493" y1="9" y2="9" gradientUnits="userSpaceOnUse"><stop stop-color="#DFDFDF"/><stop offset="1" stop-color="#6F6F6F"/></linearGradient><linearGradient id="c" x1="87.503" x2="87.607" y1="5.553" y2="6.499" gradientUnits="userSpaceOnUse"><stop stop-color="#F6F6F6"/><stop offset="1" stop-color="#969696"/></linearGradient><linearGradient id="d" x1="86.838" x2="92.163" y1="2.109" y2="2.109" gradientUnits="userSpaceOnUse"><stop stop-color="#B4B4B4"/><stop offset=".264" stop-color="#F5F5F5"/><stop offset=".664" stop-color="#CCC"/><stop offset="1" stop-color="gray"/></linearGradient><linearGradient id="f" x1="84" x2="84" y1="59" y2="90.998" gradientUnits="userSpaceOnUse"><stop stop-color="#CFCFCF"/><stop offset=".278" stop-color="#D9D9D9"/><stop offset=".514" stop-color="#DFDFDF"/><stop offset=".753" stop-color="#D6D6D6"/><stop offset="1" stop-color="silver"/></linearGradient><linearGradient id="g" x1="16.5" x2="50.213" y1="31" y2="92.527" gradientUnits="userSpaceOnUse"><stop stop-color="#fff" stop-opacity=".24"/><stop offset="1" stop-opacity=".5"/></linearGradient><radialGradient id="e" cx="0" cy="0" r="1" gradientTransform="matrix(32.3796 3.25 -.6751 6.7259 95.632 101.359)" gradientUnits="userSpaceOnUse"><stop stop-color="#9C9C9C"/><stop offset=".528" stop-color="#E8E8E8"/><stop offset="1" stop-color="#E8E8E8"/></radialGradient><clipPath id="a"><path fill="#fff" d="M0 0h180v96H0z"/></clipPath></defs></svg>