<svg xmlns="http://www.w3.org/2000/svg" width="180" height="96" fill="none" viewBox="0 0 180 96"><g clip-path="url(#a)"><path fill="#E9E9E9" fill-rule="evenodd" d="M92.333 8.334a.334.334 0 0 1-.324-.252L90.74 3h-1.48L87.99 8.082a.34.34 0 0 1-.405.242.336.336 0 0 1-.241-.405l1.396-5.585h2.52l1.396 5.585a.336.336 0 0 1-.323.415" clip-rule="evenodd"/><mask id="c" fill="#fff"><path fill-rule="evenodd" d="M84.667 3.334A.67.67 0 0 0 84 4v8c0 .368.3.667.667.667h10.666A.67.67 0 0 0 96 12V4c0-.368-.3-.667-.667-.667zM95.333 14H84.666c-1.103 0-2-.897-2-2V4c0-1.103.897-2 2-2h10.667c1.102 0 2 .897 2 2v8c0 1.103-.898 2-2 2" clip-rule="evenodd"/></mask><path fill="url(#b)" fill-rule="evenodd" d="M84.667 3.334A.67.67 0 0 0 84 4v8c0 .368.3.667.667.667h10.666A.67.67 0 0 0 96 12V4c0-.368-.3-.667-.667-.667zM95.333 14H84.666c-1.103 0-2-.897-2-2V4c0-1.103.897-2 2-2h10.667c1.102 0 2 .897 2 2v8c0 1.103-.898 2-2 2" clip-rule="evenodd"/><path fill="#EAEAEA" d="M84.667 2.834c-.642 0-1.167.521-1.167 1.166h1c0-.091.076-.167.167-.167zM83.5 4v8h1V4zm0 8c0 .645.525 1.167 1.167 1.167v-1A.17.17 0 0 1 84.5 12zm1.167 1.167h10.666v-1H84.667zm10.666 0c.642 0 1.167-.522 1.167-1.167h-1a.17.17 0 0 1-.167.167zM96.5 12V4h-1v8zm0-8c0-.645-.525-1.166-1.167-1.166v1c.091 0 .167.075.167.166zm-1.167-1.166H84.667v1h10.666zm0 10.666H84.666v1h10.667zm-10.667 0c-.826 0-1.5-.674-1.5-1.5h-1c0 1.379 1.121 2.5 2.5 2.5zm-1.5-1.5V4h-1v8zm0-8c0-.827.674-1.5 1.5-1.5v-1a2.5 2.5 0 0 0-2.5 2.5zm1.5-1.5h10.667v-1H84.666zm10.667 0c.826 0 1.5.673 1.5 1.5h1c0-1.379-1.121-2.5-2.5-2.5zm1.5 1.5v8h1V4zm0 8c0 .826-.674 1.5-1.5 1.5v1c1.379 0 2.5-1.121 2.5-2.5z" mask="url(#c)"/><path fill="url(#d)" fill-rule="evenodd" d="M22 57.333V88a2.67 2.67 0 0 0 2.667 2.667V92h-4l-1.333-1.333V56z" clip-rule="evenodd"/><path fill="url(#e)" fill-rule="evenodd" d="M158.001 57.333V88a2.67 2.67 0 0 1-2.667 2.667V92h4l1.333-1.333V56z" clip-rule="evenodd"/><path fill="url(#f)" fill-rule="evenodd" d="M159.333 51.406V88a2.666 2.666 0 0 1-2.666 2.666H23.333A2.667 2.667 0 0 1 20.667 88V51.406C19.08 52.33 18 54.032 18 56v32a5.334 5.334 0 0 0 5.333 5.333h133.334A5.333 5.333 0 0 0 162 88V56c0-1.968-1.08-3.67-2.667-4.594" clip-rule="evenodd"/><path fill="url(#g)" fill-rule="evenodd" d="M23.334 96v-1.333L26.001 92h4v1.333L27.334 96z" clip-rule="evenodd"/><path fill="#D3D3D3" fill-rule="evenodd" d="M27.725 94.276c-.25.25-.59.39-.943.39h-3.448V96h3.448c.353 0 .693-.141.943-.39L30 93.332V92z" clip-rule="evenodd"/><path fill="url(#h)" fill-rule="evenodd" d="M156.667 96v-1.333L154 92h-4v1.333L152.667 96z" clip-rule="evenodd"/><path fill="#D3D3D3" fill-rule="evenodd" d="M152.276 94.276c.249.25.589.39.943.39h3.448V96h-3.448c-.354 0-.694-.141-.943-.39L150 93.332V92z" clip-rule="evenodd"/><path fill="#E0E0E0" fill-rule="evenodd" d="M96.667 12c0 .736-.596 1.333-1.333 1.333H84.667A1.333 1.333 0 0 1 83.334 12V4c0-.736.596-1.333 1.333-1.333h10.667c.737 0 1.333.597 1.333 1.333zm62.666-12H20.667C19.195 0 18 1.209 18 2.698v52.604C18 56.792 19.195 58 20.667 58h138.666c1.472 0 2.667-1.209 2.667-2.698V2.698C162 1.208 160.805 0 159.333 0" clip-rule="evenodd"/><path fill="#222" fill-rule="evenodd" d="M20 53.333h68a.667.667 0 0 0 .667-.666V15.332a.667.667 0 0 0-.666-.667H20a.667.667 0 0 0-.667.667v37.334c0 .367.299.666.667.666m72 0h68.001a.666.666 0 0 0 .666-.666V15.332a.666.666 0 0 0-.666-.667h-68a.667.667 0 0 0-.667.667v37.334c0 .367.299.666.667.666" clip-rule="evenodd"/><path fill="url(#i)" fill-rule="evenodd" d="M20 53.333h68a.667.667 0 0 0 .667-.666V15.332a.667.667 0 0 0-.666-.667H20a.667.667 0 0 0-.667.667v37.334c0 .367.299.666.667.666m72 0h68.001a.666.666 0 0 0 .666-.666V15.332a.666.666 0 0 0-.666-.667h-68a.667.667 0 0 0-.667.667v37.334c0 .367.299.666.667.666" clip-rule="evenodd"/><path fill="#232323" fill-rule="evenodd" d="M92.667 8a2.668 2.668 0 0 0-5.333 0 2.668 2.668 0 0 0 5.333 0" clip-rule="evenodd"/><path fill="#373B47" fill-rule="evenodd" d="M91.333 8a1.333 1.333 0 1 0-2.666 0 1.333 1.333 0 0 0 2.666 0" clip-rule="evenodd"/><path fill="#908E8E" fill-rule="evenodd" d="M89.451 55.992h.11v-.44h-.11zM90.455 55.678c-.004-.001-.04-.024-.092-.024-.073 0-.123.05-.123.119 0 .065.047.117.123.117.05 0 .088-.021.092-.024v.118a.3.3 0 0 1-.1.016c-.127 0-.236-.086-.236-.227 0-.132.099-.228.236-.228a.3.3 0 0 1 .1.016zM89.299 55.678c-.005-.001-.04-.024-.093-.024-.074 0-.122.05-.122.119 0 .065.047.117.122.117.052 0 .088-.021.093-.024v.118a.3.3 0 0 1-.101.016c-.124 0-.235-.086-.235-.227 0-.132.099-.228.235-.228a.3.3 0 0 1 .1.016zM90.804 55.656a.115.115 0 0 0-.115.116c0 .064.05.116.115.116a.113.113 0 0 0 .115-.116.114.114 0 0 0-.115-.116m.234.116a.227.227 0 0 1-.234.228.226.226 0 0 1-.232-.228c0-.125.096-.227.232-.227s.234.102.234.227M89.981 55.652c-.001 0-.047-.013-.085-.013-.047 0-.07.015-.07.036 0 .028.032.036.051.041l.03.011c.073.023.105.072.105.125 0 .111-.096.148-.182.148a1 1 0 0 1-.12-.012v-.1c.011.002.058.015.106.015q.081-.002.081-.041c0-.022-.023-.035-.05-.043l-.025-.008c-.061-.02-.113-.056-.113-.13 0-.08.061-.137.165-.137.054 0 .104.014.107.015zM88.845 55.08a.056.056 0 0 0-.055-.055.056.056 0 0 0-.056.055v.116c0 .03.026.055.056.055s.055-.026.055-.055zM89.146 54.928a.056.056 0 0 0-.054-.054.056.056 0 0 0-.055.054v.268c0 .03.025.055.055.055s.054-.026.054-.055zM89.45 54.721a.056.056 0 0 0-.056-.054.055.055 0 0 0-.054.054v.584c0 .03.025.055.054.055.03 0 .056-.024.056-.055zM89.753 54.928a.056.056 0 0 0-.054-.054.056.056 0 0 0-.056.054v.268c0 .03.025.055.056.055.029 0 .054-.026.054-.055zM90.055 55.08a.057.057 0 0 0-.056-.055.057.057 0 0 0-.056.055v.116c0 .03.027.055.056.055s.056-.026.056-.055zM90.359 54.928a.056.056 0 0 0-.056-.054.056.056 0 0 0-.055.054v.268c0 .03.025.055.055.055s.056-.026.056-.055zM90.66 54.721a.055.055 0 0 0-.055-.054.055.055 0 0 0-.054.054v.584c0 .03.025.055.054.055.03 0 .055-.024.055-.055zM90.964 54.928a.056.056 0 0 0-.056-.054.056.056 0 0 0-.055.054v.268c0 .03.026.055.055.055s.056-.026.056-.055zM91.265 55.08a.056.056 0 0 0-.055-.055.056.056 0 0 0-.056.055v.116c0 .03.026.055.056.055s.055-.026.055-.055z" clip-rule="evenodd"/></g><defs><linearGradient id="b" x1="82.666" x2="82.666" y1="2" y2="14" gradientUnits="userSpaceOnUse"><stop stop-color="#EFEFEF"/><stop offset=".506" stop-color="#fff"/><stop offset="1" stop-color="#EFEFEF"/></linearGradient><linearGradient id="d" x1="19.336" x2="19.336" y1="56" y2="91.976" gradientUnits="userSpaceOnUse"><stop stop-color="#B1B1B1"/><stop offset=".278" stop-color="#C9C9C9"/><stop offset=".514" stop-color="#D6D6D6"/><stop offset=".744" stop-color="#C9C9C9"/><stop offset=".954" stop-color="#ECECEC"/><stop offset="1" stop-color="#B1B1B1"/></linearGradient><linearGradient id="e" x1="155.336" x2="155.336" y1="56" y2="91.976" gradientUnits="userSpaceOnUse"><stop stop-color="#B1B1B1"/><stop offset=".278" stop-color="#C9C9C9"/><stop offset=".514" stop-color="#D6D6D6"/><stop offset=".744" stop-color="#C9C9C9"/><stop offset=".954" stop-color="#ECECEC"/><stop offset="1" stop-color="#B1B1B1"/></linearGradient><linearGradient id="f" x1="18.02" x2="18.02" y1="51.406" y2="93.322" gradientUnits="userSpaceOnUse"><stop stop-color="#CFCFCF"/><stop offset=".47" stop-color="#F1F1F1"/><stop offset="1" stop-color="#D9D9D9"/></linearGradient><linearGradient id="i" x1="-69.939" x2="-66.138" y1="-9.728" y2="68.397" gradientUnits="userSpaceOnUse"><stop stop-color="#fff" stop-opacity=".24"/><stop offset="1" stop-opacity=".5"/></linearGradient><radialGradient id="g" cx="0" cy="0" r="1" gradientTransform="matrix(4.49716 2 -1.55226 3.49039 27.519 100.221)" gradientUnits="userSpaceOnUse"><stop stop-color="#9C9C9C"/><stop offset=".528" stop-color="#E8E8E8"/><stop offset="1" stop-color="#E8E8E8"/></radialGradient><radialGradient id="h" cx="0" cy="0" r="1" gradientTransform="matrix(4.49716 2 -1.55226 3.49039 154.185 100.221)" gradientUnits="userSpaceOnUse"><stop stop-color="#9C9C9C"/><stop offset=".528" stop-color="#E8E8E8"/><stop offset="1" stop-color="#E8E8E8"/></radialGradient><clipPath id="a"><path fill="#fff" d="M0 0h180v96H0z"/></clipPath></defs></svg>