<svg xmlns="http://www.w3.org/2000/svg" width="32" height="32" viewBox="0 0 32 32"><path d="M25 5.5H7A4.505 4.505 0 0 0 2.5 10v12A4.505 4.505 0 0 0 7 26.5h18a4.504 4.504 0 0 0 4.5-4.5V10A4.505 4.505 0 0 0 25 5.5M13.171 17.79a1 1 0 0 1-1.414-1.415 6 6 0 0 1 8.486 0 .999.999 0 0 1-.705 1.716 1 1 0 0 1-.71-.302 4.095 4.095 0 0 0-5.657 0m3.89 3.181a1.5 1.5 0 1 1-2.122-2.122 1.5 1.5 0 0 1 2.122 2.122m6.01-6.011a1 1 0 0 1-1.414 0 8.01 8.01 0 0 0-11.314 0 1 1 0 0 1-1.414-1.414 10.013 10.013 0 0 1 14.142 0 1 1 0 0 1 0 1.414"/></svg>