<svg xmlns="http://www.w3.org/2000/svg" width="32" height="32" viewBox="0 0 32 32"><path d="M3.53 2.47a.75.75 0 0 0-1.06 1.06l26 26a.75.75 0 1 0 1.06-1.06zM3.542 7.697c.13-.194.295-.359.487-.486L5.15 8.332l-.24.102-.006.003a.25.25 0 0 0-.154.23v14.217l10.5-4.376v-.076l1.819 1.819-.953-.398a.24.24 0 0 0-.192 0l-9.973 4.156 9.948 4.224q.044.017.091.017a.3.3 0 0 0 .099-.02l6.292-2.667 1.144 1.144-6.856 2.907a1.77 1.77 0 0 1-1.351.002L4.322 24.947a1.74 1.74 0 0 1-1.072-1.613V8.667c0-.345.1-.683.292-.97M15.25 4.042v8.026l1.5 1.5V4.051l10.346 4.385a.25.25 0 0 1 .154.23v14.208l-2.05-.856 2.771 2.771a1.74 1.74 0 0 0 .779-1.456V8.666a1.74 1.74 0 0 0-1.072-1.613L16.663 2.385a1.774 1.774 0 0 0-1.35.001l-6.84 2.905 1.144 1.144z"/></svg>