<svg xmlns="http://www.w3.org/2000/svg" width="180" height="96" fill="none" viewBox="0 0 180 96"><g clip-path="url(#a)"><g filter="url(#b)"><path fill="url(#c)" fill-rule="evenodd" d="M167.714 60H12.286A2.29 2.29 0 0 1 10 57.7V39.3a2.29 2.29 0 0 1 2.286-2.3h155.428A2.29 2.29 0 0 1 170 39.3v18.4c0 1.272-1.022 2.3-2.286 2.3" clip-rule="evenodd"/></g><path fill="#fff" fill-rule="evenodd" d="M14.49 57.216h.342V55.69h-.342zm3.103-1.087c-.012-.005-.123-.084-.288-.084-.222 0-.374.176-.374.412 0 .226.148.406.374.406.16 0 .276-.074.288-.083v.407a.9.9 0 0 1-.313.055c-.382 0-.72-.3-.72-.785 0-.458.305-.79.72-.79.16 0 .28.041.313.055zm-3.573 0c-.012-.005-.123-.084-.287-.084-.223 0-.375.176-.375.412 0 .226.148.406.374.406.16 0 .276-.074.288-.083v.407a.8.8 0 0 1-.308.055c-.387 0-.724-.3-.724-.785 0-.458.304-.79.724-.79.16 0 .28.041.308.055zm4.65-.077c-.201 0-.354.185-.354.402 0 .222.153.402.354.402.206 0 .354-.18.354-.402 0-.217-.148-.402-.354-.402m.72.402c0 .434-.3.79-.72.79-.415 0-.715-.356-.715-.79s.3-.785.716-.785c.42 0 .72.35.72.785m-3.256-.415c-.004 0-.148-.047-.267-.047-.14 0-.214.051-.214.125 0 .093.103.125.16.143l.09.037c.227.079.326.25.326.435 0 .383-.296.513-.56.513-.185 0-.353-.042-.374-.047v-.346c.033.01.177.055.325.055.173 0 .251-.055.251-.143 0-.074-.07-.12-.156-.148-.017-.009-.05-.018-.07-.027-.194-.07-.354-.195-.354-.449 0-.282.193-.476.51-.476.165 0 .32.047.333.051zm-3.508-1.984c0-.106-.082-.19-.172-.19-.095 0-.169.084-.169.19v.398c0 .106.074.194.169.194.09 0 .172-.088.172-.194zm.932-.525c0-.102-.078-.19-.173-.19-.09 0-.168.088-.168.19v.924c0 .106.078.194.168.194.095 0 .173-.088.173-.194zm.934-.718c0-.106-.078-.19-.173-.19-.09 0-.169.084-.169.19v2.024c0 .102.079.19.169.19.095 0 .173-.089.173-.19zm.931.718c0-.102-.078-.19-.168-.19-.095 0-.173.088-.173.19v.924c0 .106.078.194.173.194.09 0 .168-.088.168-.194zm.934.525c0-.106-.078-.189-.173-.189-.09 0-.168.083-.168.19v.397c0 .106.078.194.168.194.095 0 .173-.088.173-.194zm.934-.525c0-.102-.079-.19-.173-.19-.09 0-.169.088-.169.19v.924c0 .106.078.194.169.194.095 0 .173-.088.173-.194zm.933-.718c0-.106-.074-.19-.169-.19-.094 0-.172.084-.172.19v2.024c0 .102.078.19.172.19.095 0 .169-.089.169-.19zm.936.718c0-.102-.079-.19-.173-.19-.095 0-.169.088-.169.19v.924c0 .106.074.194.169.194s.173-.088.173-.194zm.931.525c0-.106-.078-.189-.168-.189-.095 0-.173.083-.173.19v.397c0 .106.078.194.173.194.09 0 .168-.088.168-.194z" clip-rule="evenodd"/><path fill="#666" fill-rule="evenodd" d="M90 52c-2.206 0-4-1.794-4-4s1.794-4 4-4 4 1.794 4 4-1.794 4-4 4" clip-rule="evenodd"/><g filter="url(#d)"><path fill="url(#e)" fill-rule="evenodd" d="M90 42.25A5.755 5.755 0 0 0 84.25 48 5.755 5.755 0 0 0 90 53.75 5.755 5.755 0 0 0 95.75 48 5.755 5.755 0 0 0 90 42.25m0 3.45c1.271 0 2.3 1.028 2.3 2.3s-1.029 2.3-2.3 2.3a2.3 2.3 0 0 1-2.3-2.3c0-1.272 1.027-2.3 2.3-2.3" clip-rule="evenodd"/></g><circle cx="90.001" cy="48" r="2.667" fill="#000" fill-opacity=".4" stroke="#fff" stroke-opacity=".08"/><circle cx="90" cy="48" r="6" stroke="#fff" stroke-opacity=".4"/></g><defs><linearGradient id="c" x1="10" x2="10" y1="37" y2="60" gradientUnits="userSpaceOnUse"><stop stop-color="#DFDFDF"/><stop offset="1" stop-color="#7E7E7E"/></linearGradient><linearGradient id="e" x1="84.25" x2="95.75" y1="53.75" y2="53.75" gradientUnits="userSpaceOnUse"><stop stop-color="#2B2B2B"/><stop offset=".564" stop-color="#4F4F4F"/><stop offset=".676" stop-color="#535353"/><stop offset=".761" stop-color="#4A4A4A"/><stop offset="1" stop-color="#1C1C1C"/></linearGradient><filter id="b" width="160" height="23" x="10" y="37" color-interpolation-filters="sRGB" filterUnits="userSpaceOnUse"><feFlood flood-opacity="0" result="BackgroundImageFix"/><feBlend in="SourceGraphic" in2="BackgroundImageFix" result="shape"/><feColorMatrix in="SourceAlpha" result="hardAlpha" values="0 0 0 0 0 0 0 0 0 0 0 0 0 0 0 0 0 0 127 0"/><feOffset dy="-1"/><feComposite in2="hardAlpha" k2="-1" k3="1" operator="arithmetic"/><feColorMatrix values="0 0 0 0 0 0 0 0 0 0 0 0 0 0 0 0 0 0 0.24 0"/><feBlend in2="shape" result="effect1_innerShadow_23746_2125"/><feColorMatrix in="SourceAlpha" result="hardAlpha" values="0 0 0 0 0 0 0 0 0 0 0 0 0 0 0 0 0 0 127 0"/><feOffset dy="1"/><feComposite in2="hardAlpha" k2="-1" k3="1" operator="arithmetic"/><feColorMatrix values="0 0 0 0 1 0 0 0 0 1 0 0 0 0 1 0 0 0 0.500906 0"/><feBlend in2="effect1_innerShadow_23746_2125" result="effect2_innerShadow_23746_2125"/><feColorMatrix in="SourceAlpha" result="hardAlpha" values="0 0 0 0 0 0 0 0 0 0 0 0 0 0 0 0 0 0 127 0"/><feOffset dy="1"/><feComposite in2="hardAlpha" k2="-1" k3="1" operator="arithmetic"/><feColorMatrix values="0 0 0 0 0 0 0 0 0 0 0 0 0 0 0 0 0 0 0.08 0"/><feBlend in2="effect2_innerShadow_23746_2125" result="effect3_innerShadow_23746_2125"/></filter><filter id="d" width="11.5" height="14.5" x="84.25" y="39.25" color-interpolation-filters="sRGB" filterUnits="userSpaceOnUse"><feFlood flood-opacity="0" result="BackgroundImageFix"/><feBlend in="SourceGraphic" in2="BackgroundImageFix" result="shape"/><feColorMatrix in="SourceAlpha" result="hardAlpha" values="0 0 0 0 0 0 0 0 0 0 0 0 0 0 0 0 0 0 127 0"/><feOffset dy="-3"/><feGaussianBlur stdDeviation="2.5"/><feComposite in2="hardAlpha" k2="-1" k3="1" operator="arithmetic"/><feColorMatrix values="0 0 0 0 0 0 0 0 0 0 0 0 0 0 0 0 0 0 0.5 0"/><feBlend in2="shape" result="effect1_innerShadow_23746_2125"/></filter><clipPath id="a"><path fill="#fff" d="M0 0h180v96H0z"/></clipPath></defs></svg>