<svg xmlns="http://www.w3.org/2000/svg" width="180" height="96" fill="none" viewBox="0 0 180 96"><g clip-path="url(#a)"><rect width="127.5" height="80.5" x="26.25" y="8.25" fill="#222" rx="2.95"/><rect width="127.5" height="80.5" x="26.25" y="8.25" stroke="#DDD" stroke-opacity=".12" stroke-width=".5" rx="2.95"/><rect width="127.5" height="80.5" x="26.25" y="8.25" stroke="#000" stroke-width=".5" rx="2.95"/><rect width="127.5" height="80.5" x="26.25" y="8.25" stroke="#979797" stroke-width=".5" rx="2.95"/><rect width="121.263" height="67.5" x="29.369" y="14.75" fill="#222" rx=".4"/><rect width="121.263" height="67.5" x="29.369" y="14.75" fill="url(#b)" rx=".4"/><rect width="128" height="81" x="26" y="8" fill="url(#c)" fill-opacity=".8" rx="3.2"/><path fill="#fff" fill-opacity=".24" fill-rule="evenodd" d="M138.335 85.036a2.4 2.4 0 0 1 1.075-.255h10a.8.8 0 0 1 .8.8v.088a.8.8 0 0 1-.8.8h-10c-.374 0-.742-.087-1.075-.254l-.82-.411a.2.2 0 0 1 0-.358z" clip-rule="evenodd"/><g filter="url(#d)"><rect width="4.632" height="2.7" x="87.475" y="10.362" fill="#535353" rx=".8"/><rect width="4.632" height="2.7" x="87.475" y="10.362" fill="url(#e)" rx=".8"/><rect width="4.632" height="2.7" x="87.475" y="10.362" fill="url(#f)" rx=".8"/><rect width="4.632" height="2.7" x="87.475" y="10.362" fill="url(#g)" rx=".8"/><rect width="4.632" height="2.7" x="87.475" y="10.362" fill="#fff" fill-opacity=".12" rx=".8"/></g><g filter="url(#h)"><ellipse cx="89.789" cy="11.586" fill="#242424" rx="1.053" ry="1.055"/><ellipse cx="89.789" cy="11.586" fill="url(#i)" rx="1.053" ry="1.055"/></g><path stroke="#000" stroke-opacity=".4" stroke-width=".5" d="M90.592 11.586a.804.804 0 1 1-1.608.002.804.804 0 0 1 1.608-.002Z"/><ellipse cx="89.789" cy="11.586" fill="#fff" fill-opacity=".08" rx="1.053" ry="1.055"/><g opacity=".8"><ellipse cx="89.999" cy="85.541" fill="#fff" fill-opacity=".24" rx="1.179" ry="1.181"/><path stroke="#fff" stroke-opacity=".8" stroke-width=".2" d="M91.078 85.54A1.08 1.08 0 1 1 90 84.46a1.08 1.08 0 0 1 1.08 1.08Z"/></g><path fill="#fff" fill-rule="evenodd" d="M90 85.003c-.063 0-.113.054-.113.121s.05.121.112.121.112-.054.112-.12c0-.068-.05-.122-.112-.122m-.413 0c-.062 0-.112.054-.112.121s.05.121.112.121.112-.054.112-.12c0-.068-.05-.122-.112-.122m.712.121c0-.067.05-.121.112-.121s.112.054.112.121-.05.121-.112.121-.112-.054-.112-.12m-.712.284c-.062 0-.112.054-.112.12 0 .068.05.122.112.122s.112-.054.112-.121-.05-.121-.112-.121m.3.12c0-.066.05-.12.112-.12s.112.054.112.12c0 .068-.05.122-.112.122s-.112-.054-.112-.121m.524-.12c-.062 0-.112.054-.112.12 0 .068.05.122.112.122s.112-.054.112-.121-.05-.121-.112-.121m-.936.526c0-.067.05-.122.112-.122s.112.055.112.122c0 .066-.05.12-.112.12s-.112-.054-.112-.12m.524-.121c-.062 0-.112.054-.112.12 0 .067.05.122.112.122s.112-.055.112-.121c0-.067-.05-.121-.112-.121m.3.12c0-.066.05-.12.112-.12s.112.054.112.12c0 .067-.05.122-.112.122S90.3 86 90.3 85.934" clip-rule="evenodd"/></g><defs><radialGradient id="e" cx="0" cy="0" r="1" gradientTransform="matrix(2.31579 0 0 1.35 89.79 11.712)" gradientUnits="userSpaceOnUse"><stop offset=".093" stop-color="#fff" stop-opacity=".243"/><stop offset=".43" stop-color="#FDFDFD" stop-opacity=".381"/><stop offset=".492" stop-color="#181818" stop-opacity=".28"/><stop offset=".641" stop-opacity=".134"/><stop offset="1" stop-color="#080808" stop-opacity=".175"/></radialGradient><radialGradient id="f" cx="0" cy="0" r="1" gradientTransform="matrix(0 1.65516 -3.00904 0 89.79 11.407)" gradientUnits="userSpaceOnUse"><stop stop-color="#fff" stop-opacity=".244"/><stop offset="1" stop-opacity=".071"/></radialGradient><radialGradient id="g" cx="0" cy="0" r="1" gradientTransform="matrix(0 1.12627 -4.18846 0 89.79 13.062)" gradientUnits="userSpaceOnUse"><stop stop-opacity=".747"/><stop offset="1" stop-opacity=".071"/></radialGradient><radialGradient id="i" cx="0" cy="0" r="1" gradientTransform="matrix(-.91303 0 0 -.5442 89.789 11.316)" gradientUnits="userSpaceOnUse"><stop offset=".038" stop-color="#fff" stop-opacity=".249"/><stop offset="1" stop-color="#fff" stop-opacity=".01"/></radialGradient><linearGradient id="b" x1="-31.262" x2="26.108" y1="48.5" y2="151.565" gradientUnits="userSpaceOnUse"><stop stop-color="#fff" stop-opacity=".06"/><stop offset="1" stop-opacity=".5"/></linearGradient><linearGradient id="c" x1="-38" x2="35.202" y1="48.5" y2="164.177" gradientUnits="userSpaceOnUse"><stop stop-color="#fff" stop-opacity=".2"/><stop offset="1" stop-opacity=".5"/></linearGradient><filter id="d" width="4.631" height="2.7" x="87.475" y="10.362" color-interpolation-filters="sRGB" filterUnits="userSpaceOnUse"><feFlood flood-opacity="0" result="BackgroundImageFix"/><feBlend in="SourceGraphic" in2="BackgroundImageFix" result="shape"/><feColorMatrix in="SourceAlpha" result="hardAlpha" values="0 0 0 0 0 0 0 0 0 0 0 0 0 0 0 0 0 0 127 0"/><feOffset/><feGaussianBlur stdDeviation=".5"/><feComposite in2="hardAlpha" k2="-1" k3="1" operator="arithmetic"/><feColorMatrix values="0 0 0 0 0 0 0 0 0 0 0 0 0 0 0 0 0 0 0.5 0"/><feBlend in2="shape" result="effect1_innerShadow_23746_2122"/></filter><filter id="h" width="2.105" height="2.109" x="88.736" y="10.531" color-interpolation-filters="sRGB" filterUnits="userSpaceOnUse"><feFlood flood-opacity="0" result="BackgroundImageFix"/><feBlend in="SourceGraphic" in2="BackgroundImageFix" result="shape"/><feColorMatrix in="SourceAlpha" result="hardAlpha" values="0 0 0 0 0 0 0 0 0 0 0 0 0 0 0 0 0 0 127 0"/><feOffset/><feGaussianBlur stdDeviation=".5"/><feComposite in2="hardAlpha" k2="-1" k3="1" operator="arithmetic"/><feColorMatrix values="0 0 0 0 1 0 0 0 0 1 0 0 0 0 1 0 0 0 0.128114 0"/><feBlend in2="shape" result="effect1_innerShadow_23746_2122"/></filter><clipPath id="a"><path fill="#fff" d="M0 0h180v96H0z"/></clipPath></defs></svg>