<svg xmlns="http://www.w3.org/2000/svg" width="32" height="32" viewBox="0 0 32 32"><path d="M2 10a5 5 0 0 1 5-5h18a5 5 0 0 1 5 5v1a1 1 0 1 1-2 0v-1a3 3 0 0 0-3-3H7a3 3 0 0 0-3 3v12a3 3 0 0 0 3 3h11a1 1 0 1 1 0 2H7a5 5 0 0 1-5-5zM18.646 12.985c-2.843-1.077-6.173-.364-8.393 2.174a1 1 0 1 1-1.506-1.318c2.778-3.174 6.994-4.095 10.607-2.727a1 1 0 1 1-.708 1.87M16 21a1 1 0 1 0 0-2 1 1 0 0 0 0 2M18.793 17.707c-1.61-1.61-3.976-1.61-5.586 0a1 1 0 1 1-1.414-1.414c2.39-2.39 6.024-2.39 8.414 0a1 1 0 0 1-1.414 1.414M22.753 13.342a1 1 0 0 0-1.506 1.316L22.5 16.09v.006l5.413 6.186.003-.003.331.38a1 1 0 0 0 1.506-1.317L28.5 19.91V15.5a3 3 0 0 0-5.416-1.78zM22.5 19.133V20.5c0 1.332.867 2.46 2.068 2.852.104.63.323 1.18.626 1.648H22a1 1 0 1 0 0 2h7a1 1 0 0 0 0-2h-.916c-.365-.111-.69-.274-.837-.442z"/></svg>