<svg xmlns="http://www.w3.org/2000/svg" width="180" height="96" fill="none" viewBox="0 0 180 96"><g clip-path="url(#a)"><path fill="url(#b)" fill-rule="evenodd" d="M19.057 56.229v31.543a2.74 2.74 0 0 0 2.739 2.742v1.372h-4.108l-1.37-1.372V54.857z" clip-rule="evenodd"/><path fill="url(#c)" fill-rule="evenodd" d="M159.866 56.229v31.543a2.74 2.74 0 0 1-2.739 2.742v1.372h4.108l1.369-1.372V54.857z" clip-rule="evenodd"/><path fill="url(#d)" fill-rule="evenodd" d="M162.222 87.371c0 1.5-1.244 2.714-2.778 2.714H20.556c-1.534 0-2.778-1.214-2.778-2.714V50.132c-1.653.94-2.778 2.672-2.778 4.675V87.37c0 2.998 2.488 5.428 5.556 5.428h138.888c3.068 0 5.556-2.43 5.556-5.428V54.807c0-2.003-1.125-3.735-2.778-4.675z" clip-rule="evenodd"/><path fill="url(#e)" fill-rule="evenodd" d="M20.428 96v-1.371l2.738-2.743h4.108v1.371L24.536 96z" clip-rule="evenodd"/><path fill="#D3D3D3" fill-rule="evenodd" d="M24.937 94.227a1.37 1.37 0 0 1-.968.402h-3.541V96h3.54c.364 0 .713-.145.969-.402l2.337-2.34v-1.372z" clip-rule="evenodd"/><path fill="url(#f)" fill-rule="evenodd" d="M157.356 96v-1.371l-2.738-2.743h-4.108v1.371L153.248 96z" clip-rule="evenodd"/><path fill="#D3D3D3" fill-rule="evenodd" d="M152.847 94.227c.256.256.605.402.968.402h3.541V96h-3.541a1.37 1.37 0 0 1-.968-.402l-2.337-2.34v-1.372z" clip-rule="evenodd"/><path fill="#E0E0E0" fill-rule="evenodd" d="M17.778 0C16.244 0 15 1.229 15 2.743v50.743c0 1.514 1.244 2.743 2.778 2.743h144.444c1.534 0 2.778-1.23 2.778-2.743V2.743C165 1.229 163.756 0 162.222 0z" clip-rule="evenodd"/><path fill="#908E8E" fill-rule="evenodd" d="M89.348 55.082h.13v-.58h-.13zm1.191-.414c-.004-.002-.047-.032-.11-.032-.086 0-.144.067-.144.157 0 .086.057.155.144.155a.2.2 0 0 0 .11-.032v.155a.3.3 0 0 1-.12.021c-.147 0-.276-.114-.276-.299 0-.174.117-.3.276-.3.062 0 .108.015.12.02zm-1.373 0c-.004-.002-.047-.032-.11-.032-.086 0-.144.067-.144.157 0 .086.057.155.144.155a.2.2 0 0 0 .11-.032v.155a.3.3 0 0 1-.118.021c-.149 0-.279-.114-.279-.299 0-.174.117-.3.279-.3.061 0 .107.015.118.02zm1.788-.03c-.077 0-.136.071-.136.154 0 .084.059.153.136.153.08 0 .136-.069.136-.153s-.057-.153-.136-.153m.275.154c0 .165-.115.3-.276.3-.16 0-.275-.135-.275-.3 0-.166.115-.3.275-.3s.276.134.276.3m-1.25-.158c-.002 0-.058-.018-.103-.018-.054 0-.083.02-.083.048 0 .035.04.047.062.054l.035.014c.087.03.125.095.125.166 0 .145-.114.195-.215.195-.071 0-.136-.016-.144-.018v-.132c.012.004.068.021.125.021q.097-.002.096-.054c0-.028-.027-.046-.06-.056-.006-.004-.019-.008-.027-.011-.074-.026-.136-.074-.136-.17 0-.108.075-.182.196-.182.064 0 .124.018.128.02zm-1.348-.755c0-.04-.031-.072-.066-.072-.037 0-.065.031-.065.072v.151c0 .04.028.074.065.074.035 0 .066-.033.066-.074zm.358-.2c0-.04-.03-.073-.067-.073-.034 0-.065.034-.065.073v.351c0 .04.03.074.065.074.037 0 .067-.033.067-.074zm.36-.274c0-.04-.03-.072-.067-.072-.035 0-.065.032-.065.072v.77c0 .04.03.073.065.073s.066-.033.066-.072zm.356.274c0-.04-.03-.073-.064-.073-.037 0-.067.034-.067.073v.351c0 .04.03.074.067.074.034 0 .064-.033.064-.074zm.36.2c0-.04-.03-.072-.067-.072-.034 0-.064.031-.064.072v.151c0 .04.03.074.064.074.037 0 .067-.033.067-.074zm.36-.2c0-.04-.03-.073-.067-.073-.035 0-.065.034-.065.073v.351c0 .04.03.074.065.074s.066-.033.066-.074zm.357-.274c0-.04-.029-.072-.065-.072s-.067.032-.067.072v.77c0 .04.03.073.067.073.036 0 .065-.033.065-.072zm.359.274c0-.04-.03-.073-.066-.073s-.065.034-.065.073v.351c0 .04.028.074.065.074.036 0 .066-.033.066-.074zm.36.2c0-.04-.03-.072-.066-.072s-.066.031-.066.072v.151c0 .04.03.074.067.074.034 0 .064-.033.064-.074z" clip-rule="evenodd"/><path fill="#222" fill-rule="evenodd" d="M17.692 52h70.616a.69.69 0 0 0 .692-.69V12.69c0-.381-.31-.69-.692-.69H17.692a.69.69 0 0 0-.692.69v38.62c0 .381.31.69.692.69m74 0h70.616a.69.69 0 0 0 .692-.69V12.69c0-.381-.31-.69-.692-.69H91.692a.69.69 0 0 0-.692.69v38.62c0 .381.31.69.692.69" clip-rule="evenodd"/><path fill="url(#g)" fill-rule="evenodd" d="M17.692 52h70.616a.69.69 0 0 0 .692-.69V12.69c0-.381-.31-.69-.692-.69H17.692a.69.69 0 0 0-.692.69v38.62c0 .381.31.69.692.69m74 0h70.616a.69.69 0 0 0 .692-.69V12.69c0-.381-.31-.69-.692-.69H91.692a.69.69 0 0 0-.692.69v38.62c0 .381.31.69.692.69" clip-rule="evenodd"/><rect width="10" height="4" x="85" y="4" fill="url(#h)" rx="2"/><rect width="5" height="2.5" x="85.75" y="4.75" fill="#232323" rx="1.25"/><circle cx="87" cy="6" r=".75" fill="#494E5C"/><rect width="2.5" height="2.5" x="91.75" y="4.75" fill="#232323" rx="1.25"/><circle cx="93" cy="6" r=".75" fill="#494E5C"/></g><defs><linearGradient id="b" x1="16.32" x2="16.32" y1="54.857" y2="91.861" gradientUnits="userSpaceOnUse"><stop stop-color="#B1B1B1"/><stop offset=".278" stop-color="#C9C9C9"/><stop offset=".514" stop-color="#D6D6D6"/><stop offset=".744" stop-color="#C9C9C9"/><stop offset=".954" stop-color="#ECECEC"/><stop offset="1" stop-color="#B1B1B1"/></linearGradient><linearGradient id="c" x1="157.129" x2="157.129" y1="54.857" y2="91.861" gradientUnits="userSpaceOnUse"><stop stop-color="#B1B1B1"/><stop offset=".278" stop-color="#C9C9C9"/><stop offset=".514" stop-color="#D6D6D6"/><stop offset=".744" stop-color="#C9C9C9"/><stop offset=".954" stop-color="#ECECEC"/><stop offset="1" stop-color="#B1B1B1"/></linearGradient><linearGradient id="d" x1="15.02" x2="15.02" y1="50.132" y2="92.787" gradientUnits="userSpaceOnUse"><stop stop-color="#CFCFCF"/><stop offset=".47" stop-color="#F1F1F1"/><stop offset="1" stop-color="#D9D9D9"/></linearGradient><linearGradient id="g" x1="-75.221" x2="-71.328" y1="-12.748" y2="67.61" gradientUnits="userSpaceOnUse"><stop stop-color="#fff" stop-opacity=".24"/><stop offset="1" stop-opacity=".5"/></linearGradient><linearGradient id="h" x1="85.365" x2="85.365" y1="4.145" y2="7.853" gradientUnits="userSpaceOnUse"><stop stop-color="#333"/><stop offset="1" stop-color="#3E3E3E"/></linearGradient><radialGradient id="e" cx="0" cy="0" r="1" gradientTransform="rotate(24.009 -223.578 108.31)scale(5.05586 3.92811)" gradientUnits="userSpaceOnUse"><stop stop-color="#9C9C9C"/><stop offset=".528" stop-color="#E8E8E8"/><stop offset="1" stop-color="#E8E8E8"/></radialGradient><radialGradient id="f" cx="0" cy="0" r="1" gradientTransform="rotate(24.009 -158.536 414.184)scale(5.05586 3.92811)" gradientUnits="userSpaceOnUse"><stop stop-color="#9C9C9C"/><stop offset=".528" stop-color="#E8E8E8"/><stop offset="1" stop-color="#E8E8E8"/></radialGradient><clipPath id="a"><path fill="#fff" d="M0 0h180v96H0z"/></clipPath></defs></svg>