<svg xmlns="http://www.w3.org/2000/svg" width="32" height="32" viewBox="0 0 32 32"><path d="M2.25 10A4.75 4.75 0 0 1 7 5.25h18A4.75 4.75 0 0 1 29.75 10v2a.75.75 0 0 1-1.5 0v-2A3.25 3.25 0 0 0 25 6.75H7A3.25 3.25 0 0 0 3.75 10v12A3.25 3.25 0 0 0 7 25.25h12a.75.75 0 0 1 0 1.5H7A4.75 4.75 0 0 1 2.25 22zM10.064 14.994c2.409-2.753 6.093-3.428 9.127-2.054a.75.75 0 1 0 .619-1.366c-3.629-1.644-8.025-.825-10.874 2.432a.75.75 0 0 0 1.128.988M22.564 13.506a.75.75 0 1 0-1.128.988l1.006 1.15q.066.049.122.112l5.994 6.85a.75.75 0 0 0 1.006-1.1l-1.314-1.502V15.5a2.75 2.75 0 0 0-5.137-1.367zM26.83 22.908l-4.08-4.662V20.5c0 1.274.866 2.346 2.042 2.658.112.848.438 1.545.896 2.092H22a.75.75 0 0 0 0 1.5h7a.75.75 0 0 0 0-1.5c-.6 0-1.3-.204-1.838-.643-.399-.327-.73-.8-.856-1.477a2.7 2.7 0 0 0 .523-.222M16 21a1 1 0 1 0 0-2 1 1 0 0 0 0 2M18.97 17.53c-1.707-1.707-4.233-1.707-5.94 0a.75.75 0 1 1-1.06-1.06c2.293-2.293 5.767-2.293 8.06 0a.75.75 0 0 1-1.06 1.06"/></svg>