<svg xmlns="http://www.w3.org/2000/svg" width="180" height="96" fill="none" viewBox="0 0 180 96"><g clip-path="url(#a)"><path fill="url(#b)" fill-rule="evenodd" d="M56.995 57.333V88a2.666 2.666 0 0 0 2.662 2.667V92h-3.994l-1.331-1.333V56z" clip-rule="evenodd"/><path fill="url(#c)" fill-rule="evenodd" d="M122.963 57.333V88a2.666 2.666 0 0 1-2.662 2.667V92h3.994l1.331-1.333V56z" clip-rule="evenodd"/><path fill="#E9E9E9" fill-rule="evenodd" d="M92.604 8.334a.335.335 0 0 1-.324-.252L91.013 3h-1.478l-1.267 5.082a.34.34 0 0 1-.405.242.336.336 0 0 1-.242-.405l1.395-5.585h2.516l1.395 5.585a.336.336 0 0 1-.323.415" clip-rule="evenodd"/><mask id="e" fill="#fff"><path fill-rule="evenodd" d="M84.95 3.333a.666.666 0 0 0-.665.667v8c0 .368.298.667.666.667H95.6a.666.666 0 0 0 .665-.667V4a.666.666 0 0 0-.665-.667zM95.6 14H84.95a2 2 0 0 1-1.997-2V4a2 2 0 0 1 1.997-2H95.6a2 2 0 0 1 1.997 2v8a2 2 0 0 1-1.997 2" clip-rule="evenodd"/></mask><path fill="url(#d)" fill-rule="evenodd" d="M84.95 3.333a.666.666 0 0 0-.665.667v8c0 .368.298.667.666.667H95.6a.666.666 0 0 0 .665-.667V4a.666.666 0 0 0-.665-.667zM95.6 14H84.95a2 2 0 0 1-1.997-2V4a2 2 0 0 1 1.997-2H95.6a2 2 0 0 1 1.997 2v8a2 2 0 0 1-1.997 2" clip-rule="evenodd"/><path fill="#EAEAEA" d="M84.95 2.833c-.644 0-1.165.524-1.165 1.167h1c0-.093.075-.167.166-.167zM83.786 4v8h1V4zm0 8c0 .643.522 1.167 1.166 1.167v-1a.166.166 0 0 1-.166-.167zm1.166 1.167H95.6v-1H84.95zm10.65 0c.644 0 1.165-.524 1.165-1.167h-1a.166.166 0 0 1-.165.167zM96.766 12V4h-1v8zm0-8c0-.643-.52-1.167-1.165-1.167v1c.09 0 .165.074.165.167zm-1.165-1.167H84.95v1H95.6zM95.6 13.5H84.95v1H95.6zm-10.65 0a1.5 1.5 0 0 1-1.497-1.5h-1a2.5 2.5 0 0 0 2.497 2.5zM83.453 12V4h-1v8zm0-8a1.5 1.5 0 0 1 1.497-1.5v-1A2.5 2.5 0 0 0 82.453 4zm1.497-1.5H95.6v-1H84.95zm10.65 0A1.5 1.5 0 0 1 97.097 4h1A2.5 2.5 0 0 0 95.6 1.5zM97.097 4v8h1V4zm0 8a1.5 1.5 0 0 1-1.497 1.5v1a2.5 2.5 0 0 0 2.497-2.5z" mask="url(#e)"/><path fill="url(#f)" fill-rule="evenodd" d="M124.357 51v36.657c0 1.476-1.184 2.672-2.643 2.672H58.286c-1.46 0-2.643-1.196-2.643-2.672V51A5.33 5.33 0 0 0 53 55.601v32.056C53 90.607 55.367 93 58.286 93h63.428c2.919 0 5.286-2.392 5.286-5.343V55.601A5.33 5.33 0 0 0 124.357 51" clip-rule="evenodd"/><path fill="#E0E0E0" fill-rule="evenodd" d="M96.932 12c0 .736-.597 1.333-1.332 1.333H84.95A1.333 1.333 0 0 1 83.62 12V4c0-.736.596-1.333 1.33-1.333H95.6c.735 0 1.332.597 1.332 1.333zm27.425-12H55.643C54.184 0 53 1.195 53 2.667v52c0 1.472 1.184 2.666 2.643 2.666h68.714c1.459 0 2.643-1.194 2.643-2.666v-52C127 1.195 125.816 0 124.357 0" clip-rule="evenodd"/><path fill="#908E8E" fill-rule="evenodd" d="M88.898 55.983h.2v-.88h-.2zm1.807-.627c-.007-.002-.072-.048-.168-.048-.13 0-.218.102-.218.238 0 .13.086.234.218.234.093 0 .16-.042.168-.048v.235a.5.5 0 0 1-.182.032c-.223 0-.42-.174-.42-.453 0-.264.178-.456.42-.456.093 0 .163.024.182.032zm-2.08 0c-.007-.002-.072-.048-.168-.048-.13 0-.218.102-.218.238 0 .13.086.234.218.234.094 0 .16-.043.168-.048v.235a.5.5 0 0 1-.18.032c-.225 0-.422-.174-.422-.453 0-.264.178-.456.422-.456.094 0 .163.024.18.032zm2.706-.044c-.117 0-.206.107-.206.232 0 .128.089.232.206.232.12 0 .206-.104.206-.232 0-.125-.086-.232-.206-.232m.421.232c0 .25-.175.456-.42.456-.241 0-.416-.205-.416-.456 0-.25.175-.453.417-.453.244 0 .42.202.42.453m-1.897-.24c-.003 0-.087-.026-.156-.026-.082 0-.125.029-.125.072 0 .053.06.072.094.082l.052.022c.132.045.19.144.19.25 0 .221-.173.296-.326.296-.108 0-.206-.024-.218-.026v-.2c.019.005.103.032.19.032.1 0 .145-.032.145-.083 0-.043-.04-.07-.09-.085-.01-.006-.03-.011-.041-.016-.113-.04-.206-.112-.206-.259 0-.163.112-.275.296-.275.096 0 .187.027.195.03zm-2.043-1.144c0-.061-.048-.11-.1-.11-.056 0-.099.049-.099.11v.23c0 .06.043.111.099.111.052 0 .1-.05.1-.112zm.543-.303c0-.059-.046-.11-.1-.11-.053 0-.099.051-.099.11v.533c0 .061.046.112.098.112.055 0 .1-.05.1-.112zm.543-.414c0-.061-.045-.11-.1-.11-.053 0-.099.049-.099.11v1.167c0 .06.046.11.098.11.056 0 .101-.05.101-.11zm.543.414c0-.059-.046-.11-.098-.11-.055 0-.1.051-.1.11v.533c0 .061.045.112.1.112.052 0 .098-.05.098-.112zm.545.303c0-.061-.046-.11-.1-.11-.053 0-.099.049-.099.11v.23c0 .06.046.111.098.111.055 0 .1-.05.1-.111zm.543-.303c0-.059-.046-.11-.1-.11-.053 0-.099.051-.099.11v.533c0 .061.046.112.098.112.055 0 .1-.05.1-.112zm.543-.414c0-.061-.043-.11-.098-.11s-.101.049-.101.11v1.167c0 .06.046.11.1.11.056 0 .099-.05.099-.11zm.545.414c0-.059-.046-.11-.1-.11-.056 0-.099.051-.099.11v.533c0 .061.043.112.098.112s.1-.05.1-.112zm.543.303c0-.061-.045-.11-.098-.11-.055 0-.1.049-.1.11v.23c0 .06.045.111.1.111.053 0 .098-.05.098-.112z" clip-rule="evenodd"/><path fill="#222" fill-rule="evenodd" d="M124.221 52H56.328a.666.666 0 0 1-.666-.667v-36c0-.368.298-.667.666-.667h67.893c.368 0 .666.3.666.667v36a.666.666 0 0 1-.666.667" clip-rule="evenodd"/><path fill="url(#g)" fill-rule="evenodd" d="M124.221 52H56.328a.666.666 0 0 1-.666-.667v-36c0-.368.298-.667.666-.667h67.893c.368 0 .666.3.666.667v36a.666.666 0 0 1-.666.667" clip-rule="evenodd"/><path fill="#232323" fill-rule="evenodd" d="M92.938 8a2.666 2.666 0 0 0-2.662-2.666A2.666 2.666 0 0 0 87.613 8a2.666 2.666 0 0 0 2.663 2.667A2.666 2.666 0 0 0 92.938 8" clip-rule="evenodd"/><path fill="#373B47" fill-rule="evenodd" d="M91.606 8c0-.736-.596-1.333-1.331-1.333a1.333 1.333 0 0 0 0 2.666c.734 0 1.33-.597 1.33-1.333" clip-rule="evenodd"/><path fill="url(#h)" fill-rule="evenodd" d="M58.324 96v-1.333L60.987 92h3.994v1.333L62.318 96z" clip-rule="evenodd"/><path fill="#D3D3D3" fill-rule="evenodd" d="M62.708 94.276c-.249.25-.588.39-.941.39h-3.443V96h3.443c.353 0 .692-.141.941-.39l2.273-2.277V92z" clip-rule="evenodd"/><path fill="url(#i)" fill-rule="evenodd" d="M121.656 96v-1.333L118.994 92H115v1.333L117.662 96z" clip-rule="evenodd"/><path fill="#D3D3D3" fill-rule="evenodd" d="M117.272 94.276c.249.25.589.39.942.39h3.442V96h-3.442c-.353 0-.693-.141-.942-.39L115 93.332V92z" clip-rule="evenodd"/></g><defs><linearGradient id="b" x1="54.334" x2="54.334" y1="56" y2="91.976" gradientUnits="userSpaceOnUse"><stop stop-color="#B1B1B1"/><stop offset=".278" stop-color="#C9C9C9"/><stop offset=".514" stop-color="#D6D6D6"/><stop offset=".744" stop-color="#C9C9C9"/><stop offset=".954" stop-color="#ECECEC"/><stop offset="1" stop-color="#B1B1B1"/></linearGradient><linearGradient id="c" x1="120.303" x2="120.303" y1="56" y2="91.976" gradientUnits="userSpaceOnUse"><stop stop-color="#B1B1B1"/><stop offset=".278" stop-color="#C9C9C9"/><stop offset=".514" stop-color="#D6D6D6"/><stop offset=".744" stop-color="#C9C9C9"/><stop offset=".954" stop-color="#ECECEC"/><stop offset="1" stop-color="#B1B1B1"/></linearGradient><linearGradient id="d" x1="82.953" x2="82.953" y1="2" y2="14" gradientUnits="userSpaceOnUse"><stop stop-color="#EFEFEF"/><stop offset=".506" stop-color="#fff"/><stop offset="1" stop-color="#EFEFEF"/></linearGradient><linearGradient id="f" x1="53.01" x2="53.01" y1="51" y2="92.989" gradientUnits="userSpaceOnUse"><stop stop-color="#CFCFCF"/><stop offset=".47" stop-color="#F1F1F1"/><stop offset="1" stop-color="#D9D9D9"/></linearGradient><linearGradient id="g" x1="21.05" x2="52.245" y1="33.333" y2="91.176" gradientUnits="userSpaceOnUse"><stop stop-color="#fff" stop-opacity=".24"/><stop offset="1" stop-opacity=".5"/></linearGradient><radialGradient id="h" cx="0" cy="0" r="1" gradientTransform="matrix(4.49013 2 -1.55389 3.48858 62.503 100.221)" gradientUnits="userSpaceOnUse"><stop stop-color="#9C9C9C"/><stop offset=".528" stop-color="#E8E8E8"/><stop offset="1" stop-color="#E8E8E8"/></radialGradient><radialGradient id="i" cx="0" cy="0" r="1" gradientTransform="rotate(24.009 -176.07 330.344)scale(4.91541 3.819)" gradientUnits="userSpaceOnUse"><stop stop-color="#9C9C9C"/><stop offset=".528" stop-color="#E8E8E8"/><stop offset="1" stop-color="#E8E8E8"/></radialGradient><clipPath id="a"><path fill="#fff" d="M0 0h180v96H0z"/></clipPath></defs></svg>