<svg xmlns="http://www.w3.org/2000/svg" width="180" height="96" fill="none" viewBox="0 0 180 96"><g clip-path="url(#a)"><path fill="#F0F0F0" fill-rule="evenodd" d="M15.665 28.751A3.76 3.76 0 0 1 17.92 28H162.08c.813 0 1.604.264 2.254.751L170 33H10z" clip-rule="evenodd"/><path fill="#F1F1F1" fill-rule="evenodd" d="M63.051 59.44a.63.63 0 0 1 .598-.44h52.702c.274 0 .516.178.598.44L119 66H61z" clip-rule="evenodd"/><path fill="#AEAEAE" fill-rule="evenodd" d="M89.11 63.14h.248v-.55h-.249zm2.26-.392c-.01-.002-.09-.03-.21-.03-.162 0-.273.063-.273.148 0 .082.108.147.273.147.117 0 .2-.026.21-.03v.147c-.03.007-.117.02-.228.02-.279 0-.525-.108-.525-.284 0-.165.222-.285.525-.285.117 0 .204.015.228.02zm-2.606 0c-.008-.002-.09-.03-.21-.03-.161 0-.272.063-.272.148 0 .082.108.147.273.147a.7.7 0 0 0 .21-.03v.147c-.03.007-.115.02-.225.02-.282 0-.528-.108-.528-.284 0-.165.222-.285.528-.285.116 0 .203.015.224.02zm3.392-.028c-.147 0-.258.067-.258.145 0 .08.111.145.258.145.15 0 .258-.065.258-.145 0-.078-.108-.145-.258-.145m.523.145c0 .157-.219.286-.524.286-.303 0-.522-.129-.522-.286s.219-.284.522-.284c.305 0 .525.127.525.284m-2.373-.15c-.003 0-.108-.017-.195-.017-.102 0-.156.019-.156.045 0 .034.075.045.117.052l.066.014c.165.028.237.09.237.157 0 .138-.216.185-.408.185-.135 0-.258-.015-.273-.017v-.125c.024.003.13.02.237.02.126 0 .183-.02.183-.052 0-.026-.05-.043-.114-.053-.012-.004-.036-.007-.05-.01-.142-.025-.259-.07-.259-.162 0-.102.141-.172.372-.172.12 0 .234.016.243.018zm-2.557-.717c0-.038-.06-.069-.126-.069-.069 0-.123.03-.123.069v.144c0 .038.054.07.123.07.066 0 .126-.032.126-.07zm.68-.19c0-.037-.058-.069-.127-.069-.065 0-.122.032-.122.069v.334c0 .038.057.07.122.07.07 0 .126-.032.126-.07zm.681-.26c0-.038-.057-.068-.126-.068-.066 0-.123.03-.123.069v.731c0 .037.057.069.123.069.07 0 .126-.032.126-.069zm.678.26c0-.037-.057-.069-.123-.069-.069 0-.126.032-.126.069v.334c0 .038.057.07.126.07.066 0 .123-.032.123-.07zm.682.19c0-.038-.057-.069-.126-.069-.066 0-.123.03-.123.069v.144c0 .038.057.07.123.07.069 0 .126-.032.126-.07zm.68-.19c0-.037-.058-.069-.127-.069-.066 0-.123.032-.123.069v.334c0 .038.057.07.123.07.07 0 .126-.032.126-.07zm.68-.26c0-.038-.053-.068-.122-.068s-.126.03-.126.069v.731c0 .037.057.069.126.069s.123-.032.123-.069zm.683.26c0-.037-.057-.069-.126-.069-.07 0-.123.032-.123.069v.334c0 .038.054.07.123.07s.126-.032.126-.07zm.68.19c0-.038-.058-.069-.124-.069-.069 0-.126.03-.126.069v.144c0 .038.057.07.126.07.066 0 .123-.032.123-.07z" clip-rule="evenodd"/><rect width="58" height="3" x="61" y="66" fill="url(#b)" rx=".626"/><rect width="58" height="3" x="61" y="66" fill="#000" fill-opacity=".04" rx=".626"/><g filter="url(#c)"><path fill="url(#d)" fill-rule="evenodd" d="M11.667 52A1.665 1.665 0 0 1 10 50.333V33.667c0-.922.745-1.667 1.667-1.667h156.666c.922 0 1.667.745 1.667 1.667v16.666c0 .922-.745 1.667-1.667 1.667z" clip-rule="evenodd"/></g><path fill="#fff" fill-rule="evenodd" d="M14.943 48.926h.25v-1.103h-.25zm2.26-.786c-.008-.004-.089-.06-.209-.06-.162 0-.273.127-.273.297 0 .164.108.294.273.294.117 0 .2-.053.21-.06v.294a.6.6 0 0 1-.228.04c-.279 0-.525-.217-.525-.568 0-.33.222-.571.525-.571.117 0 .204.03.228.04zm-2.604 0c-.01-.004-.09-.06-.21-.06-.162 0-.273.127-.273.297 0 .164.108.294.273.294a.4.4 0 0 0 .21-.06v.294a.6.6 0 0 1-.226.04c-.281 0-.527-.217-.527-.568 0-.33.222-.571.527-.571.118 0 .205.03.226.04zm3.391-.056c-.147 0-.258.134-.258.291 0 .16.111.29.258.29.15 0 .258-.13.258-.29 0-.157-.108-.29-.258-.29m.524.291c0 .314-.22.571-.525.571-.303 0-.522-.257-.522-.571s.219-.568.522-.568c.305 0 .524.254.524.568m-2.374-.3c-.003 0-.108-.034-.195-.034-.102 0-.156.037-.156.09 0 .067.075.09.117.104l.066.027c.165.057.237.18.237.314 0 .277-.216.37-.408.37-.135 0-.258-.03-.273-.033v-.25c.024.007.13.04.237.04.126 0 .183-.04.183-.104 0-.053-.05-.087-.114-.107-.012-.006-.036-.013-.05-.02-.142-.05-.259-.14-.259-.324 0-.204.141-.344.372-.344.12 0 .234.033.243.037zm-2.557-1.434c0-.077-.06-.137-.126-.137-.069 0-.123.06-.123.137v.287c0 .077.054.14.123.14.066 0 .126-.063.126-.14zm.68-.38c0-.074-.057-.138-.127-.138-.066 0-.122.064-.122.137v.669c0 .076.056.14.123.14.069 0 .125-.064.125-.14zm.681-.52c0-.076-.057-.136-.126-.136-.066 0-.123.06-.123.137v1.463c0 .073.057.137.123.137.07 0 .126-.064.126-.137zm.678.52c0-.074-.057-.138-.123-.138-.069 0-.126.064-.126.137v.669c0 .076.057.14.126.14.066 0 .123-.064.123-.14zm.682.38c0-.077-.057-.137-.126-.137-.066 0-.123.06-.123.137v.287c0 .077.057.14.123.14.069 0 .126-.063.126-.14zm.68-.38c0-.074-.058-.138-.127-.138-.066 0-.123.064-.123.137v.669c0 .076.057.14.123.14.07 0 .126-.064.126-.14zm.68-.52c0-.076-.053-.136-.122-.136s-.126.06-.126.137v1.463c0 .073.057.137.126.137s.123-.064.123-.137zm.683.52c0-.074-.057-.138-.126-.138-.07 0-.123.064-.123.137v.669c0 .076.054.14.123.14s.126-.064.126-.14zm.68.38c0-.077-.058-.137-.124-.137-.069 0-.126.06-.126.137v.287c0 .077.057.14.126.14.066 0 .123-.063.123-.14z" clip-rule="evenodd"/><g filter="url(#e)"><path fill="url(#f)" fill-rule="evenodd" d="M101.384 47.276h-23.1c-2.734 0-4.95-2.245-4.95-5.014s2.216-5.013 4.95-5.013h23.1c2.734 0 4.95 2.244 4.95 5.013 0 2.77-2.216 5.014-4.95 5.014" clip-rule="evenodd"/></g><path fill="#666" fill-rule="evenodd" d="M78.333 44.351a2.089 2.089 0 0 1 0-4.178 2.089 2.089 0 0 1 0 4.178" clip-rule="evenodd"/><path fill="#000" fill-rule="evenodd" d="M78.334 39.755a2.506 2.506 0 0 0 0 5.014 2.506 2.506 0 0 0 0-5.014m0 .836c.922 0 1.667.747 1.667 1.671a1.667 1.667 0 1 1-3.333 0c0-.924.745-1.671 1.667-1.671" clip-rule="evenodd"/><path fill="#666" fill-rule="evenodd" d="M85 44.351a2.089 2.089 0 0 1 0-4.178 2.089 2.089 0 0 1 0 4.178" clip-rule="evenodd"/><path fill="#000" fill-rule="evenodd" d="M85 39.756a2.506 2.506 0 0 0 0 5.013 2.506 2.506 0 0 0 0-5.013m0 .835c.922 0 1.667.747 1.667 1.671a1.667 1.667 0 1 1-3.333 0c0-.924.745-1.67 1.667-1.67" clip-rule="evenodd"/><path fill="#666" fill-rule="evenodd" d="M91.667 44.351a2.089 2.089 0 0 1 0-4.178 2.089 2.089 0 0 1 0 4.178" clip-rule="evenodd"/><path fill="#000" fill-rule="evenodd" d="M91.666 39.755a2.506 2.506 0 0 0 0 5.014 2.506 2.506 0 0 0 0-5.014m0 .836c.922 0 1.667.747 1.667 1.671a1.667 1.667 0 1 1-3.333 0c0-.924.745-1.671 1.667-1.671" clip-rule="evenodd"/><path fill="#666" fill-rule="evenodd" d="M101.666 44.769a2.507 2.507 0 0 1 0-5.014 2.507 2.507 0 0 1 0 5.014" clip-rule="evenodd"/><path fill="url(#g)" fill-rule="evenodd" d="M101.667 38.92a3.34 3.34 0 0 0-3.333 3.342 3.34 3.34 0 0 0 3.333 3.342 3.34 3.34 0 0 0 3.334-3.342 3.34 3.34 0 0 0-3.334-3.342m0 1.671c.921 0 1.666.747 1.666 1.671a1.667 1.667 0 1 1-3.333 0c0-.924.745-1.67 1.667-1.67" clip-rule="evenodd"/></g><defs><linearGradient id="b" x1="61" x2="119" y1="70.5" y2="70.5" gradientUnits="userSpaceOnUse"><stop stop-color="#EFEFEF"/><stop offset=".011" stop-color="#F7F7F7"/><stop offset=".03" stop-color="#ECEBEB"/><stop offset=".978" stop-color="#ECEBEB"/><stop offset=".991" stop-color="#F7F7F7"/><stop offset="1" stop-color="#EFEFEF"/></linearGradient><linearGradient id="d" x1="10" x2="10" y1="32" y2="52" gradientUnits="userSpaceOnUse"><stop stop-color="#DFDFDF"/><stop offset="1" stop-color="#7E7E7E"/></linearGradient><linearGradient id="f" x1="73.334" x2="106.334" y1="47.276" y2="47.276" gradientUnits="userSpaceOnUse"><stop stop-color="#2B2B2B"/><stop offset=".564" stop-color="#4F4F4F"/><stop offset=".676" stop-color="#535353"/><stop offset=".761" stop-color="#4A4A4A"/><stop offset="1" stop-color="#1C1C1C"/></linearGradient><linearGradient id="g" x1="98.334" x2="98.334" y1="38.92" y2="45.604" gradientUnits="userSpaceOnUse"><stop stop-color="#2B2B2B"/><stop offset=".492" stop-color="#434343"/><stop offset="1" stop-color="#1C1C1C"/></linearGradient><filter id="c" width="160" height="20" x="10" y="32" color-interpolation-filters="sRGB" filterUnits="userSpaceOnUse"><feFlood flood-opacity="0" result="BackgroundImageFix"/><feBlend in="SourceGraphic" in2="BackgroundImageFix" result="shape"/><feColorMatrix in="SourceAlpha" result="hardAlpha" values="0 0 0 0 0 0 0 0 0 0 0 0 0 0 0 0 0 0 127 0"/><feOffset dy="1"/><feComposite in2="hardAlpha" k2="-1" k3="1" operator="arithmetic"/><feColorMatrix values="0 0 0 0 1 0 0 0 0 1 0 0 0 0 1 0 0 0 0.500906 0"/><feBlend in2="shape" result="effect1_innerShadow_23746_2129"/></filter><filter id="e" width="33" height="11.027" x="73.334" y="36.249" color-interpolation-filters="sRGB" filterUnits="userSpaceOnUse"><feFlood flood-opacity="0" result="BackgroundImageFix"/><feBlend in="SourceGraphic" in2="BackgroundImageFix" result="shape"/><feColorMatrix in="SourceAlpha" result="hardAlpha" values="0 0 0 0 0 0 0 0 0 0 0 0 0 0 0 0 0 0 127 0"/><feOffset dy="-1"/><feGaussianBlur stdDeviation="2"/><feComposite in2="hardAlpha" k2="-1" k3="1" operator="arithmetic"/><feColorMatrix values="0 0 0 0 0 0 0 0 0 0 0 0 0 0 0 0 0 0 0.5 0"/><feBlend in2="shape" result="effect1_innerShadow_23746_2129"/></filter><clipPath id="a"><path fill="#fff" d="M0 0h180v96H0z"/></clipPath></defs></svg>