<svg xmlns="http://www.w3.org/2000/svg" width="180" height="96" fill="none" viewBox="0 0 180 96"><g clip-path="url(#a)"><path fill="url(#b)" d="M47.295 92h-7.497c-1.132 0-2.048-1.111-2.048-2.48V70.917h14.334L49.311 89.95c-.172 1.186-1.023 2.05-2.016 2.05"/><g filter="url(#c)"><path fill="#000" d="M47.295 92h-7.497c-1.132 0-2.048-1.111-2.048-2.48V70.917h14.334L49.311 89.95c-.172 1.186-1.023 2.05-2.016 2.05"/></g><path fill="url(#d)" d="M133.289 92h7.497c1.132 0 2.048-1.111 2.048-2.48V70.916H128.5l2.773 19.034c.172 1.186 1.023 2.049 2.016 2.049"/><g filter="url(#e)"><path fill="#000" d="M133.289 92h7.497c1.132 0 2.048-1.111 2.048-2.48V70.916H128.5l2.773 19.034c.172 1.186 1.023 2.049 2.016 2.049"/></g><path fill="#C5C5C5" d="M35 74h110v14.167c0 1.564-1.231 2.833-2.75 2.833H37.75C36.231 91 35 89.731 35 88.167z"/><g filter="url(#f)"><path fill="#000" d="M35 74h110v14.167c0 1.564-1.231 2.833-2.75 2.833H37.75C36.231 91 35 89.731 35 88.167z"/></g><path fill="url(#g)" d="M35 74h110v14.73a2.28 2.28 0 0 1-2.292 2.27H37.292A2.28 2.28 0 0 1 35 88.73z"/><path fill="url(#h)" d="M35 74h110v14.73a2.28 2.28 0 0 1-2.292 2.27H37.292A2.28 2.28 0 0 1 35 88.73z"/><path fill="url(#i)" fill-rule="evenodd" d="M145 74v14.937c0 .57-.227 1.085-.594 1.459a2 2 0 0 1-1.433.604H37.027c-.56 0-1.067-.23-1.433-.604A2.08 2.08 0 0 1 35 88.937V74z" clip-rule="evenodd"/><path fill="url(#j)" fill-rule="evenodd" d="M144.4 88.937V74.6H35.6v14.337c0 .408.162.774.422 1.038.26.265.614.425 1.005.425h105.946a1.4 1.4 0 0 0 1.005-.425c.26-.264.422-.63.422-1.038M145 74H35v14.937c0 .57.227 1.085.594 1.459.366.373.873.604 1.433.604h105.946a2 2 0 0 0 1.433-.604c.367-.374.594-.89.594-1.459z" clip-rule="evenodd"/><path fill="#999" fill-opacity=".48" fill-rule="evenodd" d="M144.5 88.937V74.5h-109v14.437c0 .435.173.826.45 1.108.278.283.658.455 1.077.455h105.946c.419 0 .799-.172 1.077-.455.277-.282.45-.673.45-1.108M145 74H35v14.937c0 .57.227 1.085.594 1.459.366.373.873.604 1.433.604h105.946a2 2 0 0 0 1.433-.604c.367-.374.594-.89.594-1.459z" clip-rule="evenodd"/><path fill="#151B1E" fill-opacity=".12" fill-rule="evenodd" d="M144.6 88.937V74.4H35.4v14.537c0 .462.183.878.479 1.178.295.301.7.485 1.148.485h105.946c.447 0 .853-.184 1.148-.485.296-.3.479-.716.479-1.178M145 74H35v14.937c0 .57.227 1.085.594 1.459.366.373.873.604 1.433.604h105.946a2 2 0 0 0 1.433-.604c.367-.374.594-.89.594-1.459z" clip-rule="evenodd"/><path fill="#1A1A1A" d="M145 74.583H35V7.003C35 5.347 36.332 4 37.973 4h104.054C143.668 4 145 5.346 145 7.004z"/><g filter="url(#k)"><path fill="#000" d="M145 74.583H35V7.003C35 5.347 36.332 4 37.973 4h104.054C143.668 4 145 5.346 145 7.004z"/></g><path stroke="#474747" stroke-width=".3" d="M142.536 71.792a1.22 1.22 0 1 1-2.44 0 1.22 1.22 0 1 1 2.44 0ZM131.554 73.014h4.882a1.221 1.221 0 0 0 0-2.445h-4.882c-.673 0-1.22.547-1.22 1.223 0 .675.547 1.222 1.22 1.222Z" clip-rule="evenodd"/><path fill="#232323" d="M90 8.125a1.375 1.375 0 1 0 0-2.75 1.375 1.375 0 0 0 0 2.75"/><path fill="#555B6C" d="M90 7.667a.917.917 0 1 0 0-1.834.917.917 0 0 0 0 1.834"/><path fill="#fff" fill-rule="evenodd" d="M91.598 83.729c.286 0 .49.209.49.467 0 .259-.204.47-.49.47a.47.47 0 0 1-.487-.47c0-.258.204-.467.487-.467m-1.954-.002c.112 0 .218.027.227.03v.192c-.003 0-.101-.027-.182-.027-.095 0-.146.03-.146.074 0 .055.07.074.11.085l.06.022c.155.047.222.149.222.259 0 .228-.201.305-.38.305-.127 0-.242-.025-.256-.028v-.206c.023.006.12.033.222.033.117 0 .17-.033.17-.085 0-.044-.047-.072-.106-.088-.011-.006-.033-.011-.047-.017-.132-.04-.241-.115-.241-.266 0-.168.131-.284.347-.284m1.008 0c.11 0 .19.026.213.034v.242c-.008-.003-.084-.05-.196-.05-.151 0-.255.105-.255.245 0 .135.1.242.255.242.11 0 .188-.044.196-.05v.242a.7.7 0 0 1-.213.033c-.26 0-.49-.178-.49-.467 0-.272.207-.47.49-.47m-2.43 0c.109 0 .19.026.21.034v.242c-.009-.003-.084-.05-.196-.05-.151 0-.255.105-.255.245 0 .135.1.242.255.242.109 0 .187-.044.196-.05v.242a.6.6 0 0 1-.21.033c-.264 0-.493-.178-.493-.467 0-.272.207-.47.493-.47m.763.015v.907h-.233v-.907zm2.613.215a.24.24 0 1 0 0 .479c.14 0 .241-.108.241-.24 0-.129-.1-.239-.24-.239m-2.963-2.04c.065 0 .118.05.118.112v1.205c0 .06-.053.112-.118.112a.116.116 0 0 1-.114-.112V82.03c0-.064.053-.113.114-.113m2.545 0c.064 0 .115.05.115.112v1.205c0 .06-.05.112-.115.112a.117.117 0 0 1-.118-.112V82.03c0-.064.053-.113.118-.113m-3.18.427c.064 0 .117.052.117.112v.55a.117.117 0 0 1-.117.116.117.117 0 0 1-.115-.116v-.55c0-.06.053-.112.115-.112m1.273 0c.062 0 .115.052.115.112v.55a.117.117 0 0 1-.115.116.117.117 0 0 1-.118-.116v-.55c0-.06.054-.112.118-.112m1.268 0c.064 0 .118.052.118.112v.55a.117.117 0 0 1-.118.116.117.117 0 0 1-.115-.116v-.55c0-.06.053-.112.115-.112m1.273 0c.065 0 .118.052.118.112v.55a.117.117 0 0 1-.118.116.115.115 0 0 1-.115-.116v-.55c0-.06.05-.112.115-.112m-4.45.313c.063 0 .118.049.118.112v.237a.12.12 0 0 1-.117.115.115.115 0 0 1-.115-.115v-.237c0-.063.05-.112.115-.112m2.542 0c.064 0 .118.049.118.112v.237a.117.117 0 0 1-.118.115.117.117 0 0 1-.115-.115v-.237c0-.063.053-.112.115-.112m2.546 0c.061 0 .115.049.115.112v.237a.117.117 0 0 1-.115.115.117.117 0 0 1-.118-.115v-.237c0-.063.053-.112.118-.112" clip-rule="evenodd"/><path stroke="#fff" stroke-opacity=".6" stroke-width=".3" d="M90 73.208a1.375 1.375 0 1 0 0-2.75 1.375 1.375 0 0 0 0 2.75Z"/><path fill="#222" d="M142.362 69.083H37.64a.817.817 0 0 1-.806-.827V10.328c0-.457.36-.828.805-.828h104.723c.444 0 .805.37.805.828v57.928a.817.817 0 0 1-.805.827"/><path fill="url(#l)" d="M142.362 69.083H37.64a.817.817 0 0 1-.806-.827V10.328c0-.457.36-.828.805-.828h104.723c.444 0 .805.37.805.828v57.928a.817.817 0 0 1-.805.827"/></g><defs><linearGradient id="b" x1="44.917" x2="44.917" y1="81.458" y2="91.84" gradientUnits="userSpaceOnUse"><stop stop-color="#CACACA"/><stop offset="1" stop-color="#989898"/></linearGradient><linearGradient id="d" x1="135.667" x2="135.667" y1="81.458" y2="91.84" gradientUnits="userSpaceOnUse"><stop stop-color="#CACACA"/><stop offset="1" stop-color="#989898"/></linearGradient><linearGradient id="g" x1="35" x2="145" y1="83.819" y2="83.819" gradientUnits="userSpaceOnUse"><stop stop-color="#E4E4E4"/><stop offset="1" stop-color="#A8A8A8"/></linearGradient><linearGradient id="h" x1="90" x2="90" y1="87.818" y2="91" gradientUnits="userSpaceOnUse"><stop stop-opacity="0"/><stop offset="1" stop-opacity=".08"/></linearGradient><linearGradient id="i" x1="90" x2="90" y1="78.611" y2="91" gradientUnits="userSpaceOnUse"><stop stop-opacity="0"/><stop offset="1" stop-opacity=".08"/></linearGradient><linearGradient id="j" x1="90" x2="90" y1="74" y2="91" gradientUnits="userSpaceOnUse"><stop stop-color="#E9E9E8"/><stop offset="1" stop-color="#E0E2E5"/></linearGradient><linearGradient id="l" x1="36.834" x2="125.736" y1="29.938" y2="79.754" gradientUnits="userSpaceOnUse"><stop stop-color="#fff" stop-opacity=".24"/><stop offset="1" stop-opacity=".5"/></linearGradient><filter id="c" width="14.334" height="21.083" x="37.75" y="70.917" color-interpolation-filters="sRGB" filterUnits="userSpaceOnUse"><feFlood flood-opacity="0" result="BackgroundImageFix"/><feBlend in="SourceGraphic" in2="BackgroundImageFix" result="shape"/><feColorMatrix in="SourceAlpha" result="hardAlpha" values="0 0 0 0 0 0 0 0 0 0 0 0 0 0 0 0 0 0 127 0"/><feOffset/><feGaussianBlur stdDeviation="2"/><feComposite in2="hardAlpha" k2="-1" k3="1" operator="arithmetic"/><feColorMatrix values="0 0 0 0 0 0 0 0 0 0 0 0 0 0 0 0 0 0 0.08 0"/><feBlend in2="shape" result="effect1_innerShadow_23745_11700"/></filter><filter id="e" width="14.334" height="21.083" x="128.5" y="70.916" color-interpolation-filters="sRGB" filterUnits="userSpaceOnUse"><feFlood flood-opacity="0" result="BackgroundImageFix"/><feBlend in="SourceGraphic" in2="BackgroundImageFix" result="shape"/><feColorMatrix in="SourceAlpha" result="hardAlpha" values="0 0 0 0 0 0 0 0 0 0 0 0 0 0 0 0 0 0 127 0"/><feOffset/><feGaussianBlur stdDeviation="2"/><feComposite in2="hardAlpha" k2="-1" k3="1" operator="arithmetic"/><feColorMatrix values="0 0 0 0 0 0 0 0 0 0 0 0 0 0 0 0 0 0 0.08 0"/><feBlend in2="shape" result="effect1_innerShadow_23745_11700"/></filter><filter id="f" width="110" height="17" x="35" y="74" color-interpolation-filters="sRGB" filterUnits="userSpaceOnUse"><feFlood flood-opacity="0" result="BackgroundImageFix"/><feBlend in="SourceGraphic" in2="BackgroundImageFix" result="shape"/><feColorMatrix in="SourceAlpha" result="hardAlpha" values="0 0 0 0 0 0 0 0 0 0 0 0 0 0 0 0 0 0 127 0"/><feOffset/><feGaussianBlur stdDeviation="2"/><feComposite in2="hardAlpha" k2="-1" k3="1" operator="arithmetic"/><feColorMatrix values="0 0 0 0 0 0 0 0 0 0 0 0 0 0 0 0 0 0 0.08 0"/><feBlend in2="shape" result="effect1_innerShadow_23745_11700"/><feColorMatrix in="SourceAlpha" result="hardAlpha" values="0 0 0 0 0 0 0 0 0 0 0 0 0 0 0 0 0 0 127 0"/><feOffset/><feGaussianBlur stdDeviation="2"/><feComposite in2="hardAlpha" k2="-1" k3="1" operator="arithmetic"/><feColorMatrix values="0 0 0 0 0 0 0 0 0 0 0 0 0 0 0 0 0 0 0.04 0"/><feBlend in2="effect1_innerShadow_23745_11700" result="effect2_innerShadow_23745_11700"/><feColorMatrix in="SourceAlpha" result="hardAlpha" values="0 0 0 0 0 0 0 0 0 0 0 0 0 0 0 0 0 0 127 0"/><feOffset/><feGaussianBlur stdDeviation="2"/><feComposite in2="hardAlpha" k2="-1" k3="1" operator="arithmetic"/><feColorMatrix values="0 0 0 0 0 0 0 0 0 0 0 0 0 0 0 0 0 0 0.08 0"/><feBlend in2="effect2_innerShadow_23745_11700" result="effect3_innerShadow_23745_11700"/><feColorMatrix in="SourceAlpha" result="hardAlpha" values="0 0 0 0 0 0 0 0 0 0 0 0 0 0 0 0 0 0 127 0"/><feOffset/><feGaussianBlur stdDeviation="2"/><feComposite in2="hardAlpha" k2="-1" k3="1" operator="arithmetic"/><feColorMatrix values="0 0 0 0 0 0 0 0 0 0 0 0 0 0 0 0 0 0 0.04 0"/><feBlend in2="effect3_innerShadow_23745_11700" result="effect4_innerShadow_23745_11700"/></filter><filter id="k" width="110" height="70.583" x="35" y="4" color-interpolation-filters="sRGB" filterUnits="userSpaceOnUse"><feFlood flood-opacity="0" result="BackgroundImageFix"/><feBlend in="SourceGraphic" in2="BackgroundImageFix" result="shape"/><feColorMatrix in="SourceAlpha" result="hardAlpha" values="0 0 0 0 0 0 0 0 0 0 0 0 0 0 0 0 0 0 127 0"/><feOffset/><feGaussianBlur stdDeviation="2"/><feComposite in2="hardAlpha" k2="-1" k3="1" operator="arithmetic"/><feColorMatrix values="0 0 0 0 1 0 0 0 0 1 0 0 0 0 1 0 0 0 0.6 0"/><feBlend in2="shape" result="effect1_innerShadow_23745_11700"/></filter><clipPath id="a"><path fill="#fff" d="M0 0h180v96H0z"/></clipPath></defs></svg>