<svg xmlns="http://www.w3.org/2000/svg" width="32" height="32" viewBox="0 0 32 32"><path d="M2.5 10A4.5 4.5 0 0 1 7 5.5h18a4.5 4.5 0 0 1 4.5 4.5v3a.5.5 0 0 1-1 0v-3A3.5 3.5 0 0 0 25 6.5H7A3.5 3.5 0 0 0 3.5 10v12A3.5 3.5 0 0 0 7 25.5h13a.5.5 0 0 1 0 1H7A4.5 4.5 0 0 1 2.5 22zM20.123 13.148c-3.268-1.964-7.542-1.41-10.247 1.681a.5.5 0 1 1-.752-.658c3.026-3.46 7.835-4.092 11.514-1.88a.5.5 0 1 1-.516.857M12.854 17.354c1.804-1.805 4.488-1.805 6.292 0a.5.5 0 0 0 .708-.707c-2.196-2.196-5.512-2.196-7.708 0a.5.5 0 0 0 .708.707M22.376 15.17a.5.5 0 0 0-.082-.074l-.67-.767a.5.5 0 0 1 .752-.658l.798.911A2.5 2.5 0 0 1 28 15.5v4.598l1.376 1.573a.5.5 0 0 1-.67.733zM23 17.402l4.262 4.871c-.333.332-.76.57-1.237.672.1.857.489 1.454.98 1.855.586.48 1.345.7 1.995.7a.5.5 0 0 1 0 1h-7a.5.5 0 0 1 0-1h4.283c-.67-.583-1.158-1.426-1.262-2.546A2.5 2.5 0 0 1 23 20.5zM16 21a1 1 0 1 0 0-2 1 1 0 0 0 0 2"/></svg>