<svg xmlns="http://www.w3.org/2000/svg" width="32" height="32" viewBox="0 0 32 32"><path d="M16.485 4.407a3 3 0 0 0-.51-.235v22.896a1 1 0 0 1 1.03 1.714l-1.19.878c-.501.314-.965.465-1.655 0C9 26.183 5.492 21.647 4.498 15.855l-.184-1.067A22 22 0 0 1 4 11.098V8.755a2 2 0 0 1 .994-1.728l7.465-4.347a5 5 0 0 1 5.032 0l7.465 4.347a2 2 0 0 1 .994 1.728v2.085c0 1.412-.125 2.82-.375 4.21a1 1 0 1 1-1.968-.354 22 22 0 0 0 .343-3.856V8.754zm-3.02 0L6 8.754v2.345c0 1.123.096 2.243.286 3.35l.183 1.068c.807 4.699 3.945 8.755 7.506 11.484V4.171a3 3 0 0 0-.51.236m15.83 19.543a2 2 0 0 1-1.037 1.012l-.353.15-.02.065.238.423a2 2 0 0 1-.55 2.58l-1.068.796a2 2 0 0 1-2.703-.29l-.273-.313h-.05l-.305.34a2 2 0 0 1-2.664.282l-1.068-.775a2 2 0 0 1-.54-2.646l.197-.329-.023-.065-.44-.204a2 2 0 0 1-1.063-2.43l.406-1.254a2 2 0 0 1 2.35-1.334l.373.086.054-.042.057-.481a2 2 0 0 1 1.986-1.765h1.32a2 2 0 0 1 1.992 1.823l.034.382.056.039.475-.095a2 2 0 0 1 2.292 1.344l.408 1.255a2 2 0 0 1-.082 1.446m-3.567 1.467.527-1.776 1.219-.52-.408-1.254-1.303.259-1.527-1.05-.117-1.32h-1.32l-.156 1.32-1.47 1.127-1.291-.296-.406 1.254 1.204.557.618 1.747-.68 1.137 1.067.775.902-1.005 1.852.002.87.998 1.068-.795zm-.754-1.79a1.5 1.5 0 1 1-3 0 1.5 1.5 0 0 1 3 0"/></svg>