<svg xmlns="http://www.w3.org/2000/svg" width="180" height="96" fill="none" viewBox="0 0 180 96"><g fill-rule="evenodd" clip-path="url(#a)" clip-rule="evenodd"><path fill="url(#b)" d="M53.345 96H43.65A2.66 2.66 0 0 1 41 93.334v-20h18.54l-3.587 20.463A2.65 2.65 0 0 1 53.345 96"/><path fill="url(#c)" d="M126.654 96h9.697A2.66 2.66 0 0 0 139 93.334v-20h-18.541l3.588 20.463A2.65 2.65 0 0 0 126.654 96"/><path fill="#1A1A1A" d="M139 66.667H41v-60A2.66 2.66 0 0 1 43.649 4h92.702A2.66 2.66 0 0 1 139 6.667z"/><path fill="#E0E0E0" d="M136.351 88H43.649A2.66 2.66 0 0 1 41 85.333V66.667h98v18.666A2.66 2.66 0 0 1 136.351 88"/><path fill="#908E8E" d="M89.953 82.65h.198v-.88h-.198zm1.797-.627c-.007-.003-.071-.048-.166-.048-.129 0-.217.101-.217.237 0 .13.086.235.217.235.093 0 .16-.043.166-.048v.234a.5.5 0 0 1-.18.032c-.222 0-.418-.173-.418-.453 0-.264.177-.456.417-.456.093 0 .162.024.181.032zm-2.068 0c-.007-.003-.071-.048-.167-.048-.128 0-.216.101-.216.237 0 .13.085.235.216.235.093 0 .16-.043.167-.048v.234a.5.5 0 0 1-.179.032c-.224 0-.419-.173-.419-.453 0-.264.176-.456.42-.456.092 0 .161.024.178.032zm2.693-.044c-.117 0-.205.106-.205.231 0 .128.088.232.205.232.12 0 .205-.104.205-.232 0-.125-.086-.231-.205-.231m.418.231c0 .251-.174.456-.417.456-.241 0-.415-.205-.415-.456 0-.25.174-.453.415-.453.243 0 .417.203.417.453m-1.889-.24c-.002 0-.085-.026-.154-.026-.081 0-.124.03-.124.072 0 .053.06.072.093.083l.052.021c.131.045.188.144.188.25 0 .222-.171.297-.324.297-.107 0-.205-.024-.217-.027v-.2c.02.005.103.032.189.032.1 0 .145-.032.145-.083 0-.042-.04-.069-.09-.085-.01-.005-.03-.01-.041-.016-.112-.04-.205-.112-.205-.258 0-.163.112-.275.296-.275.095 0 .185.026.192.03zm-2.03-1.143c0-.062-.048-.11-.1-.11-.055 0-.098.048-.098.11v.229c0 .061.043.112.097.112.053 0 .1-.05.1-.112zm.539-.304c0-.058-.046-.109-.1-.109-.053 0-.098.05-.098.11v.532c0 .062.045.112.097.112.055 0 .1-.05.1-.112zm.54-.414c0-.061-.045-.109-.1-.109-.052 0-.097.048-.097.11v1.167c0 .059.045.11.098.11s.1-.051.1-.11zm.542.414c0-.058-.046-.109-.098-.109-.055 0-.1.05-.1.11v.532c0 .062.045.112.1.112.052 0 .098-.05.098-.112zm.54.304c0-.062-.045-.11-.1-.11-.052 0-.097.048-.097.11v.229c0 .061.045.112.097.112.055 0 .1-.05.1-.112zm.54-.304c0-.058-.046-.109-.1-.109-.053 0-.098.05-.098.11v.532c0 .062.045.112.098.112.055 0 .1-.05.1-.112zm.54-.414c0-.061-.042-.109-.097-.109s-.1.048-.1.11v1.167c0 .059.045.11.1.11s.098-.051.098-.11zm.544.414c0-.058-.045-.109-.1-.109s-.098.05-.098.11v.532c0 .062.043.112.098.112s.1-.05.1-.112zm.54.304c0-.062-.044-.11-.097-.11-.055 0-.1.048-.1.11v.229c0 .061.045.112.1.112.052 0 .098-.05.098-.112z"/><path fill="#fff" fill-opacity=".6" d="M133.703 81.333c0 .738-.593 1.334-1.324 1.334a1.33 1.33 0 0 1-1.324-1.334c0-.737.593-1.333 1.324-1.333s1.324.596 1.324 1.333"/><path fill="url(#d)" d="M93.973 4c0-2.21-1.778-4-3.973-4s-3.973 1.79-3.973 4S87.806 8 90 8s3.973-1.79 3.973-4"/><path fill="#232323" d="M92.649 4A2.66 2.66 0 0 0 90 1.334 2.66 2.66 0 0 0 87.352 4 2.66 2.66 0 0 0 90 6.667 2.66 2.66 0 0 0 92.65 4"/><path fill="#222" d="M133.04 60H46.959a.665.665 0 0 1-.662-.667V12.667c0-.368.297-.667.662-.667h86.081c.366 0 .662.299.662.667v46.666a.664.664 0 0 1-.662.667"/><path fill="url(#e)" d="M133.04 60H46.959a.665.665 0 0 1-.662-.667V12.667c0-.368.297-.667.662-.667h86.081c.366 0 .662.299.662.667v46.666a.664.664 0 0 1-.662.667"/><path fill="#494E5C" d="M91.324 4c0-.737-.593-1.333-1.324-1.333-.73 0-1.324.596-1.324 1.333S89.269 5.333 90 5.333 91.324 4.737 91.324 4"/></g><defs><linearGradient id="b" x1="45.706" x2="45.706" y1="84.667" y2="95.828" gradientUnits="userSpaceOnUse"><stop stop-color="#CFCFCF"/><stop offset="1" stop-color="#E6E6E6"/></linearGradient><linearGradient id="c" x1="125.164" x2="125.164" y1="84.667" y2="95.828" gradientUnits="userSpaceOnUse"><stop stop-color="#CFCFCF"/><stop offset="1" stop-color="#E6E6E6"/></linearGradient><linearGradient id="d" x1="86.317" x2="86.317" y1=".29" y2="7.706" gradientUnits="userSpaceOnUse"><stop stop-color="#424242"/><stop offset="1" stop-color="#656565"/></linearGradient><linearGradient id="e" x1="2.594" x2="43.099" y1="36" y2="109.756" gradientUnits="userSpaceOnUse"><stop stop-color="#fff" stop-opacity=".24"/><stop offset="1" stop-opacity=".5"/></linearGradient><clipPath id="a"><path fill="#fff" d="M0 0h180v96H0z"/></clipPath></defs></svg>