<svg xmlns="http://www.w3.org/2000/svg" width="180" height="96" fill="none" viewBox="0 0 180 96"><g clip-path="url(#a)"><path fill="#222" fill-rule="evenodd" d="M113.999 94.997h-1.333v.752c0 .139.149.251.333.251h.667c.184 0 .333-.112.333-.25zM67.333 94.997H66v.752c0 .139.15.251.333.251H67c.184 0 .333-.112.333-.25zM109.999 85.63h-1.333v.753c0 .139.149.251.333.251h.667c.184 0 .333-.112.333-.25zM71.333 85.63H70v.753c0 .139.15.251.333.251H71c.184 0 .333-.112.333-.25z" clip-rule="evenodd"/><path fill="#D5D5D5" fill-rule="evenodd" d="M66 94.996h1.333v-1.338H66z" clip-rule="evenodd"/><g filter="url(#b)"><path fill="#000" fill-opacity=".01" fill-rule="evenodd" d="M89.832 88.217 110 84.149v-.297l-22.822 3.813-18.512-4.175 17.263 4.737-19.66 4.776-2.292.36h2.291l21.814-4.444v.05l24.756 4.177v-.348z" clip-rule="evenodd"/></g><path fill="#D4D4D4" fill-rule="evenodd" d="M88.667 86.969 70 84.293v1.338l18.667 4.014z" clip-rule="evenodd"/><path fill="#D6D6D6" fill-rule="evenodd" d="M112.666 94.996h1.333v-1.338h-1.333z" clip-rule="evenodd"/><g filter="url(#c)"><path fill="#FDFDFD" fill-rule="evenodd" d="m110.001 84.293-18.667 2.676v2.676l18.667-4.014z" clip-rule="evenodd"/></g><path fill="url(#d)" d="M88.666 48.167h4v40.139h-4z"/><path fill="url(#e)" fill-rule="evenodd" d="m90 86.969-22.666 6.738v1.338l22.667-5.352z" clip-rule="evenodd"/><path fill="url(#f)" fill-rule="evenodd" d="m90 86.969 22.666 6.738v1.338l-22.667-5.352z" clip-rule="evenodd"/><path fill="url(#g)" fill-rule="evenodd" d="m66 93.659 22.667-6.69H90l-22.667 6.69z" clip-rule="evenodd"/><path fill="url(#h)" fill-rule="evenodd" d="m114 93.659-22.667-6.69H90l22.667 6.69z" clip-rule="evenodd"/><path fill="#E0E0E0" fill-rule="evenodd" d="M124.667 48.167H55.333A1.335 1.335 0 0 1 54 46.83V1.338C54 .598 54.597 0 55.333 0h69.334c.736 0 1.333.598 1.333 1.338v45.491c0 .74-.597 1.338-1.333 1.338" clip-rule="evenodd"/><path fill="#908E8E" fill-rule="evenodd" d="M89.309 46.82h.1v-.44h-.1zm.904-.314c-.003-.001-.036-.024-.084-.024-.065 0-.109.05-.109.12 0 .065.043.117.11.117.046 0 .08-.022.083-.024v.117a.3.3 0 0 1-.091.017c-.112 0-.21-.087-.21-.228 0-.132.089-.229.21-.229.047 0 .082.013.091.017zm-1.04 0c-.004-.001-.037-.024-.085-.024-.065 0-.109.05-.109.12 0 .065.043.117.11.117.046 0 .08-.022.083-.024v.117a.2.2 0 0 1-.09.017c-.112 0-.21-.087-.21-.228 0-.132.088-.229.21-.229.047 0 .082.013.09.017zm1.356-.022c-.059 0-.103.053-.103.116 0 .064.044.117.103.117.06 0 .103-.053.103-.117 0-.063-.043-.116-.103-.116m.21.116c0 .126-.088.229-.21.229-.121 0-.209-.103-.209-.229 0-.125.088-.227.209-.227.122 0 .21.102.21.227m-.95-.12c-.001 0-.043-.013-.078-.013q-.061.002-.062.036c0 .026.03.036.046.041l.027.011c.066.023.095.072.095.126 0 .11-.087.148-.164.148-.054 0-.103-.012-.109-.013v-.1c.01.002.052.015.095.015q.074-.002.073-.041c0-.021-.02-.035-.046-.043l-.02-.008c-.056-.02-.103-.056-.103-.13 0-.081.056-.137.149-.137.048 0 .093.013.097.014zm-1.023-.574c0-.03-.024-.055-.05-.055-.028 0-.05.024-.05.055v.115c0 .03.022.056.05.056.026 0 .05-.025.05-.056zm.271-.153c0-.03-.023-.055-.05-.055s-.05.026-.05.055v.268c0 .03.023.056.05.056s.05-.026.05-.056zm.272-.207c0-.03-.023-.055-.05-.055s-.05.024-.05.055v.586c0 .03.023.055.05.055s.05-.026.05-.055zm.273.207c0-.03-.023-.055-.05-.055s-.05.026-.05.055v.268c0 .03.023.056.05.056s.05-.026.05-.056zm.272.153c0-.03-.023-.055-.05-.055s-.05.024-.05.055v.115c0 .03.023.056.05.056s.05-.025.05-.056zm.271-.153c0-.03-.023-.055-.05-.055s-.05.026-.05.055v.268c0 .03.023.056.05.056s.05-.026.05-.056zm.273-.207c0-.03-.021-.055-.049-.055s-.05.024-.05.055v.586c0 .03.022.055.05.055s.05-.026.05-.055zm.274.207c0-.03-.023-.055-.05-.055s-.05.026-.05.055v.268c0 .03.022.056.05.056.027 0 .05-.026.05-.056zm.271.153c0-.03-.022-.055-.049-.055s-.05.024-.05.055v.115c0 .03.023.056.05.056.026 0 .05-.025.05-.056z" clip-rule="evenodd"/><path fill="#222" fill-rule="evenodd" d="M123.837 44.5H56.164a.67.67 0 0 1-.664-.679V7.18c0-.375.297-.679.663-.679h67.674c.366 0 .663.304.663.679V43.82a.67.67 0 0 1-.663.679" clip-rule="evenodd"/><path fill="url(#i)" fill-rule="evenodd" d="M123.837 44.5H56.164a.67.67 0 0 1-.664-.679V7.18c0-.375.297-.679.663-.679h67.674c.366 0 .663.304.663.679V43.82a.67.67 0 0 1-.663.679" clip-rule="evenodd"/><path fill="#232323" fill-rule="evenodd" d="M91.25 3.75a1.25 1.25 0 1 0-2.5 0 1.25 1.25 0 0 0 2.5 0" clip-rule="evenodd"/><path fill="#555B6C" fill-rule="evenodd" d="M90.75 3.75a.75.75 0 1 0-1.5 0 .75.75 0 0 0 1.5 0" clip-rule="evenodd"/></g><defs><linearGradient id="d" x1="88.78" x2="92.666" y1="87.734" y2="87.734" gradientUnits="userSpaceOnUse"><stop stop-color="#C6C6C6"/><stop offset=".26" stop-color="#EAEAEA"/><stop offset=".289" stop-color="#fff"/><stop offset=".333" stop-color="#E9E9E9"/><stop offset=".596" stop-color="#B9B9B9"/><stop offset=".823" stop-color="#fff"/><stop offset="1" stop-color="#fff"/></linearGradient><linearGradient id="e" x1="80.685" x2="74.751" y1="84.351" y2="98.131" gradientUnits="userSpaceOnUse"><stop stop-color="#DCDBDB"/><stop offset=".165" stop-color="#F4F4F4"/><stop offset="1" stop-color="#fff"/></linearGradient><linearGradient id="f" x1="99.724" x2="105.541" y1="84.605" y2="98.113" gradientUnits="userSpaceOnUse"><stop stop-color="#C2C1C1"/><stop offset=".165" stop-color="#D6D6D6"/><stop offset="1" stop-color="#DFDFDF"/></linearGradient><linearGradient id="g" x1="80.072" x2="75.95" y1="84.779" y2="97.011" gradientUnits="userSpaceOnUse"><stop stop-color="#C2C2C2"/><stop offset=".165" stop-color="#E6E6E6"/><stop offset="1" stop-color="#EFEFEF"/></linearGradient><linearGradient id="h" x1="123.928" x2="121.461" y1="91.469" y2="80.768" gradientUnits="userSpaceOnUse"><stop stop-color="#EFEFEF"/><stop offset=".882" stop-color="#E6E6E6"/><stop offset="1" stop-color="#C2C2C2"/></linearGradient><linearGradient id="i" x1="21" x2="53.115" y1="25.5" y2="83.814" gradientUnits="userSpaceOnUse"><stop stop-color="#fff" stop-opacity=".24"/><stop offset="1" stop-opacity=".5"/></linearGradient><filter id="b" width="50.861" height="13.874" x="62.977" y="83.49" color-interpolation-filters="sRGB" filterUnits="userSpaceOnUse"><feFlood flood-opacity="0" result="BackgroundImageFix"/><feColorMatrix in="SourceAlpha" result="hardAlpha" values="0 0 0 0 0 0 0 0 0 0 0 0 0 0 0 0 0 0 127 0"/><feOffset dy="3"/><feGaussianBlur stdDeviation=".5"/><feColorMatrix values="0 0 0 0 0 0 0 0 0 0 0 0 0 0 0 0 0 0 0.4 0"/><feBlend in2="BackgroundImageFix" result="effect1_dropShadow_23746_2128"/><feBlend in="SourceGraphic" in2="effect1_dropShadow_23746_2128" result="shape"/></filter><filter id="c" width="18.666" height="5.352" x="91.334" y="84.293" color-interpolation-filters="sRGB" filterUnits="userSpaceOnUse"><feFlood flood-opacity="0" result="BackgroundImageFix"/><feBlend in="SourceGraphic" in2="BackgroundImageFix" result="shape"/><feColorMatrix in="SourceAlpha" result="hardAlpha" values="0 0 0 0 0 0 0 0 0 0 0 0 0 0 0 0 0 0 127 0"/><feOffset/><feGaussianBlur stdDeviation=".5"/><feComposite in2="hardAlpha" k2="-1" k3="1" operator="arithmetic"/><feColorMatrix values="0 0 0 0 0 0 0 0 0 0 0 0 0 0 0 0 0 0 0.08 0"/><feBlend in2="shape" result="effect1_innerShadow_23746_2128"/></filter><clipPath id="a"><path fill="#fff" d="M0 0h180v96H0z"/></clipPath></defs></svg>