<svg xmlns="http://www.w3.org/2000/svg" width="180" height="96" fill="none" viewBox="0 0 180 96"><g clip-path="url(#a)"><path fill="url(#b)" fill-rule="evenodd" d="M19.484 35.297a1 1 0 0 1 .712-.297h139.608a1 1 0 0 1 .712.297L170 44.9H10z" clip-rule="evenodd"/><path fill="#3F3F3F" fill-rule="evenodd" d="M88.67 40.389h.344v-.594h-.344zm3.127-.423c-.013-.002-.125-.033-.29-.033-.225 0-.378.069-.378.16 0 .088.15.159.377.159.162 0 .278-.03.29-.033v.159a2 2 0 0 1-.315.021c-.385 0-.725-.117-.725-.306 0-.178.307-.307.725-.307.162 0 .282.016.316.021zm-3.602 0c-.012-.002-.124-.033-.29-.033-.224 0-.377.069-.377.16 0 .088.149.159.377.159.162 0 .278-.03.29-.033v.159a2 2 0 0 1-.31.021c-.39 0-.73-.117-.73-.306 0-.178.306-.307.73-.307.16 0 .281.016.31.021zm4.687-.03c-.203 0-.356.072-.356.156 0 .087.153.157.356.157.207 0 .357-.07.357-.157 0-.084-.15-.156-.357-.156m.725.156c0 .17-.302.308-.725.308-.42 0-.722-.139-.722-.308s.303-.306.722-.306c.423 0 .725.137.725.306m-3.282-.162c-.005 0-.15-.018-.27-.018-.14 0-.216.02-.216.049 0 .036.104.049.162.056l.091.014c.228.03.328.097.328.17 0 .149-.299.2-.564.2-.186 0-.356-.017-.377-.019v-.135c.033.004.178.022.327.022.175 0 .253-.022.253-.056 0-.029-.07-.047-.157-.058l-.07-.01c-.196-.027-.357-.076-.357-.175 0-.11.195-.185.514-.185.166 0 .323.018.336.02zm-3.535-.772c0-.041-.083-.074-.175-.074-.095 0-.17.033-.17.074v.155c0 .041.075.075.17.075.092 0 .175-.034.175-.075zm.94-.205c0-.04-.08-.074-.175-.074-.091 0-.17.035-.17.074v.36c0 .041.079.076.17.076.095 0 .174-.035.174-.076zm.94-.28c0-.04-.078-.073-.174-.073-.091 0-.17.032-.17.074v.788c0 .04.079.074.17.074.096 0 .174-.034.174-.074zm.94.28c0-.04-.079-.074-.17-.074-.096 0-.174.035-.174.074v.36c0 .041.078.076.174.076.091 0 .17-.035.17-.076zm.941.205c0-.041-.079-.074-.174-.074-.091 0-.17.033-.17.074v.155c0 .041.079.075.17.075.096 0 .174-.034.174-.075zm.94-.205c0-.04-.08-.074-.174-.074-.092 0-.17.035-.17.074v.36c0 .041.078.076.17.076.095 0 .174-.035.174-.076zm.941-.28c0-.04-.075-.073-.17-.073s-.174.032-.174.074v.788c0 .04.079.074.174.074s.17-.034.17-.074zm.943.28c0-.04-.078-.074-.174-.074s-.17.035-.17.074v.36c0 .041.075.076.17.076s.174-.035.174-.076zm.94.205c0-.041-.079-.074-.17-.074-.096 0-.174.033-.174.074v.155c0 .041.078.075.174.075.091 0 .17-.034.17-.075z" clip-rule="evenodd"/><rect width="160" height="18" x="10" y="44" fill="url(#c)" rx="1"/><g filter="url(#d)"><path fill="#0F100F" fill-rule="evenodd" d="M21.26 53.45a1 1 0 0 1 .834-.45h135.812a1 1 0 0 1 .835.45l2.238 3.4a1 1 0 0 1-.835 1.55H19.856a1 1 0 0 1-.836-1.55z" clip-rule="evenodd"/></g><path fill="url(#e)" fill-rule="evenodd" d="M22.256 55.098a1 1 0 0 1 .712-.298h134.064c.267 0 .524.107.712.298L161 58.4H19z" clip-rule="evenodd"/><path fill="#fff" fill-rule="evenodd" d="M88.705 51.172h.35v-1.485h-.35zm3.18-1.058c-.014-.005-.127-.081-.296-.081-.227 0-.383.17-.383.4 0 .22.151.396.383.396a.57.57 0 0 0 .295-.08v.395a.9.9 0 0 1-.32.054c-.392 0-.738-.292-.738-.765 0-.445.312-.77.738-.77.164 0 .286.041.32.055zm-3.661 0c-.013-.005-.127-.081-.295-.081-.228 0-.384.17-.384.4 0 .22.152.396.384.396a.57.57 0 0 0 .295-.08v.395a.9.9 0 0 1-.316.054c-.396 0-.742-.292-.742-.765 0-.445.312-.77.742-.77.164 0 .287.041.316.055zm4.763-.075c-.206 0-.362.18-.362.391 0 .216.156.392.362.392.211 0 .363-.176.363-.392 0-.211-.152-.391-.362-.391m.738.391c0 .423-.308.77-.738.77-.425 0-.733-.347-.733-.77 0-.422.308-.764.733-.764.43 0 .738.342.738.764m-3.335-.404c-.005 0-.152-.045-.275-.045-.143 0-.219.05-.219.121 0 .09.106.122.165.14l.092.036c.232.076.333.243.333.423 0 .373-.303.499-.573.499-.19 0-.362-.04-.383-.045v-.337c.033.009.18.054.333.054.177 0 .257-.054.257-.14 0-.072-.072-.117-.16-.144-.017-.009-.051-.018-.072-.027-.198-.067-.363-.189-.363-.436 0-.275.198-.464.523-.464.169 0 .329.045.341.05zm-3.595-1.931a.183.183 0 0 0-.177-.184c-.097 0-.173.08-.173.184v.387c0 .103.076.189.173.189.093 0 .177-.086.177-.19zm.955-.512a.183.183 0 0 0-.177-.184c-.092 0-.173.085-.173.184v.9c0 .103.08.189.173.189.097 0 .177-.086.177-.19zm.957-.698a.18.18 0 0 0-.177-.185c-.093 0-.173.081-.173.185v1.97c0 .099.08.184.173.184a.183.183 0 0 0 .177-.184zm.955.698c0-.099-.08-.184-.173-.184a.183.183 0 0 0-.177.184v.9c0 .103.08.189.177.189.093 0 .173-.086.173-.19zm.957.512a.18.18 0 0 0-.177-.184c-.092 0-.172.08-.172.184v.387c0 .103.08.189.172.189.097 0 .177-.086.177-.189zm.956-.512a.183.183 0 0 0-.178-.184c-.092 0-.172.085-.172.184v.9c0 .103.08.189.172.189.097 0 .177-.086.177-.19zm.956-.698c0-.104-.076-.185-.172-.185a.18.18 0 0 0-.178.185v1.97c0 .099.08.184.178.184.096 0 .172-.085.172-.184zm.96.698a.183.183 0 0 0-.178-.184c-.097 0-.172.085-.172.184v.9c0 .103.075.189.172.189s.177-.086.177-.19zm.954.512c0-.103-.08-.184-.172-.184a.18.18 0 0 0-.177.184v.387c0 .103.08.189.177.189.093 0 .172-.086.172-.189z" clip-rule="evenodd"/></g><defs><linearGradient id="c" x1="10" x2="10" y1="44" y2="62" gradientUnits="userSpaceOnUse"><stop stop-color="#D8D8DB"/><stop offset="1" stop-color="#D2D3D7"/></linearGradient><linearGradient id="e" x1="161" x2="161" y1="58.4" y2="54.8" gradientUnits="userSpaceOnUse"><stop stop-color="#EAEAEC"/><stop offset="1" stop-color="#929292"/></linearGradient><radialGradient id="b" cx="0" cy="0" r="1" gradientTransform="matrix(-69.0538 0 0 -1.25661 90 39.95)" gradientUnits="userSpaceOnUse"><stop stop-color="#5B5B5C"/><stop offset="1" stop-color="#505050"/></radialGradient><clipPath id="a"><path fill="#fff" d="M0 0h180v96H0z"/></clipPath><filter id="d" width="142.293" height="5.9" x="18.854" y="52.5" color-interpolation-filters="sRGB" filterUnits="userSpaceOnUse"><feFlood flood-opacity="0" result="BackgroundImageFix"/><feColorMatrix in="SourceAlpha" result="hardAlpha" values="0 0 0 0 0 0 0 0 0 0 0 0 0 0 0 0 0 0 127 0"/><feOffset dy="-.5"/><feColorMatrix values="0 0 0 0 1 0 0 0 0 1 0 0 0 0 1 0 0 0 0.5 0"/><feBlend in2="BackgroundImageFix" result="effect1_dropShadow_23745_11699"/><feBlend in="SourceGraphic" in2="effect1_dropShadow_23745_11699" result="shape"/></filter></defs></svg>