<svg xmlns="http://www.w3.org/2000/svg" width="180" height="96" fill="none" viewBox="0 0 180 96"><g clip-path="url(#a)"><path fill="#F1F1F1" fill-rule="evenodd" d="M15.645 35.17c.235-.699.89-1.17 1.628-1.17h145.454c.738 0 1.393.471 1.628 1.17L170 52H10z" clip-rule="evenodd"/><path fill="#AEAEAE" fill-rule="evenodd" d="M87.555 45.786h.682V44.27h-.682zm6.203-1.08c-.024-.005-.246-.083-.575-.083-.445 0-.75.175-.75.41 0 .224.297.403.75.403.32 0 .55-.073.575-.083v.404c-.082.019-.32.056-.625.056-.765 0-1.44-.299-1.44-.78 0-.456.61-.786 1.44-.786.321 0 .56.041.625.055zm-7.144 0c-.025-.004-.247-.083-.576-.083-.444 0-.749.175-.749.41 0 .224.296.403.749.403.32 0 .55-.073.576-.082v.404a3 3 0 0 1-.617.055c-.774 0-1.448-.299-1.448-.78 0-.455.609-.786 1.448-.786.32 0 .559.041.617.055zm9.299-.076c-.403 0-.708.183-.708.4 0 .22.305.399.708.399.41 0 .707-.18.707-.4 0-.216-.296-.4-.707-.4m1.439.4c0 .43-.601.784-1.44.784-.83 0-1.431-.353-1.431-.785 0-.431.6-.78 1.43-.78.84 0 1.44.349 1.44.78m-6.513-.413c-.008 0-.296-.046-.535-.046-.28 0-.428.05-.428.123 0 .092.206.124.321.143l.181.037c.453.078.65.247.65.431 0 .381-.592.51-1.119.51-.37 0-.707-.042-.748-.046v-.344c.066.009.353.055.65.055.345 0 .501-.055.501-.143 0-.073-.14-.12-.312-.147-.033-.009-.099-.018-.14-.027-.387-.07-.707-.193-.707-.445 0-.28.386-.473 1.02-.473.329 0 .641.046.666.05zm-7.014-1.971c0-.106-.164-.188-.345-.188-.19 0-.337.082-.337.188v.395c0 .105.148.193.337.193.18 0 .345-.088.345-.193zm1.864-.523c0-.1-.157-.188-.346-.188-.18 0-.337.087-.337.188v.919c0 .105.156.193.337.193.19 0 .346-.088.346-.193zm1.867-.713c0-.105-.156-.188-.346-.188-.18 0-.337.083-.337.188v2.011c0 .101.156.189.337.189.19 0 .346-.088.346-.189zm1.865.714c0-.102-.156-.189-.337-.189-.19 0-.346.087-.346.188v.919c0 .105.157.193.346.193.18 0 .337-.088.337-.193zm1.867.522c0-.106-.156-.188-.345-.188-.181 0-.337.082-.337.188v.395c0 .105.156.193.337.193.189 0 .345-.088.345-.193zm1.864-.523c0-.1-.157-.188-.346-.188-.18 0-.337.087-.337.188v.919c0 .105.156.193.337.193.19 0 .346-.088.346-.193zm1.869-.713c0-.105-.148-.188-.338-.188-.189 0-.345.083-.345.188v2.011c0 .101.156.189.345.189.19 0 .338-.088.338-.189zm1.87.714c0-.102-.156-.189-.345-.189-.19 0-.337.087-.337.188v.919c0 .105.148.192.337.192s.346-.087.346-.192zm1.864.522c0-.106-.156-.188-.337-.188-.19 0-.346.082-.346.188v.395c0 .105.157.193.346.193.18 0 .337-.088.337-.193z" clip-rule="evenodd"/><rect width="160" height="11" x="10" y="51" fill="url(#b)" rx="1.717"/><rect width="160" height="11" x="10" y="51" fill="#000" fill-opacity=".04" rx="1.717"/></g><defs><linearGradient id="b" x1="10" x2="170" y1="67.5" y2="67.5" gradientUnits="userSpaceOnUse"><stop stop-color="#EFEFEF"/><stop offset=".011" stop-color="#F7F7F7"/><stop offset=".03" stop-color="#ECEBEB"/><stop offset=".978" stop-color="#ECEBEB"/><stop offset=".991" stop-color="#F7F7F7"/><stop offset="1" stop-color="#EFEFEF"/></linearGradient><clipPath id="a"><path fill="#fff" d="M0 0h180v96H0z"/></clipPath></defs></svg>