<svg xmlns="http://www.w3.org/2000/svg" width="180" height="96" fill="none" viewBox="0 0 180 96"><g clip-path="url(#a)"><g filter="url(#b)"><path fill="#E0E0E0" fill-rule="evenodd" d="M131.2 96H48.663C47.192 96 46 94.857 46 93.45V66.666h87.863v26.782c0 1.408-1.193 2.551-2.663 2.551" clip-rule="evenodd"/></g><path fill="#908E8E" fill-rule="evenodd" d="M88.555 93.316h.198v-.88h-.198zm1.806-.627c-.007-.002-.072-.048-.168-.048-.13 0-.218.102-.218.238 0 .13.087.234.218.234.094 0 .16-.042.168-.048v.235a.5.5 0 0 1-.182.032c-.223 0-.42-.173-.42-.453 0-.264.178-.456.42-.456.093 0 .163.024.182.032zm-2.08 0c-.007-.002-.072-.048-.168-.048-.13 0-.218.102-.218.238 0 .13.087.234.218.234.094 0 .16-.043.168-.048v.235a.5.5 0 0 1-.18.032c-.225 0-.421-.173-.421-.453 0-.264.177-.456.421-.456.094 0 .163.024.18.032zm2.706-.044c-.117 0-.206.107-.206.232 0 .128.089.232.206.232.12 0 .206-.104.206-.232 0-.125-.086-.232-.206-.232m.421.232c0 .25-.175.456-.419.456-.242 0-.417-.205-.417-.456 0-.25.175-.453.417-.453.244 0 .42.202.42.453m-1.897-.24c-.003 0-.086-.026-.156-.026-.081 0-.124.029-.124.072 0 .053.06.072.093.082l.053.022c.131.045.189.144.189.25 0 .221-.173.296-.326.296-.108 0-.206-.024-.218-.026v-.2c.02.005.103.032.19.032.1 0 .145-.032.145-.083 0-.043-.04-.07-.09-.085-.01-.006-.03-.011-.041-.016-.113-.04-.206-.112-.206-.259 0-.163.112-.275.297-.275a.7.7 0 0 1 .194.03zm-2.043-1.144c0-.061-.048-.11-.1-.11-.055 0-.099.049-.099.11v.23c0 .06.044.111.099.111.052 0 .1-.05.1-.112zm.543-.303c0-.059-.045-.11-.1-.11-.053 0-.099.051-.099.11v.533c0 .061.046.112.099.112.055 0 .1-.05.1-.112zm.543-.414c0-.061-.045-.11-.1-.11-.053 0-.098.049-.098.11v1.168c0 .058.045.109.098.109.055 0 .1-.05.1-.11zm.543.414c0-.059-.045-.11-.098-.11-.055 0-.1.051-.1.11v.533c0 .061.045.112.1.112.053 0 .098-.05.098-.112zm.545.303c0-.061-.045-.11-.1-.11-.053 0-.099.049-.099.11v.23c0 .06.046.111.099.111.055 0 .1-.05.1-.112zm.543-.303c0-.059-.045-.11-.1-.11-.053 0-.099.051-.099.11v.533c0 .061.046.112.099.112.055 0 .1-.05.1-.112zm.543-.414c0-.061-.043-.11-.098-.11s-.1.049-.1.11v1.168c0 .058.045.109.1.109s.098-.05.098-.11zm.545.414c0-.059-.045-.11-.1-.11s-.099.051-.099.11v.533c0 .061.043.112.098.112s.101-.05.101-.112zm.543.303c0-.061-.045-.11-.098-.11-.055 0-.1.049-.1.11v.23c0 .06.045.111.1.111.053 0 .098-.05.098-.112z" clip-rule="evenodd"/><path fill="#1A1A1A" fill-rule="evenodd" d="M133.863 66.667H46v-56A2.666 2.666 0 0 1 48.663 8H131.2a2.666 2.666 0 0 1 2.663 2.667z" clip-rule="evenodd"/><path fill="url(#c)" fill-rule="evenodd" d="M95.256 5.333A5.33 5.33 0 0 0 89.93 0a5.33 5.33 0 0 0-5.324 5.333 5.33 5.33 0 0 0 5.325 5.334 5.33 5.33 0 0 0 5.325-5.334" clip-rule="evenodd"/><path fill="#222" fill-rule="evenodd" d="M129.204 58.667H50.66a.666.666 0 0 1-.666-.667V15.333c0-.368.298-.667.666-.667h78.544c.367 0 .665.3.665.667V58a.666.666 0 0 1-.665.666" clip-rule="evenodd"/><path fill="url(#d)" fill-rule="evenodd" d="M129.204 58.667H50.66a.666.666 0 0 1-.666-.667V15.333c0-.368.298-.667.666-.667h78.544c.367 0 .665.3.665.667V58a.666.666 0 0 1-.665.666" clip-rule="evenodd"/><path fill="#232323" fill-rule="evenodd" d="M93.925 5.333c0-2.21-1.788-4-3.994-4a3.997 3.997 0 0 0-3.993 4c0 2.21 1.787 4 3.993 4a3.997 3.997 0 0 0 3.994-4" clip-rule="evenodd"/><path fill="#494E5C" fill-rule="evenodd" d="M91.596 6.667h-3.328a1 1 0 0 1-.999-1V5a1 1 0 0 1 .999-1h3.328a1 1 0 0 1 .998 1v.667a1 1 0 0 1-.998 1" clip-rule="evenodd"/><path stroke="#474747" stroke-width=".667" d="M131.2 62.667a1.332 1.332 0 1 1-2.665.002 1.332 1.332 0 0 1 2.665-.002Z" clip-rule="evenodd"/><path fill="#fff" fill-opacity=".6" fill-rule="evenodd" d="M131.2 92a1.332 1.332 0 1 1-2.665.002A1.332 1.332 0 0 1 131.2 92" clip-rule="evenodd"/><path stroke="#474747" stroke-width=".667" d="M119.218 64h5.325c.735 0 1.331-.596 1.331-1.333 0-.738-.596-1.334-1.331-1.334h-5.325c-.735 0-1.331.596-1.331 1.334 0 .737.596 1.333 1.331 1.333Z" clip-rule="evenodd"/></g><defs><linearGradient id="c" x1="84.994" x2="84.994" y1=".386" y2="10.275" gradientUnits="userSpaceOnUse"><stop stop-color="#424242"/><stop offset="1" stop-color="#656565"/></linearGradient><linearGradient id="d" x1="10.057" x2="47.247" y1="36.666" y2="104.18" gradientUnits="userSpaceOnUse"><stop stop-color="#fff" stop-opacity=".24"/><stop offset="1" stop-opacity=".5"/></linearGradient><clipPath id="a"><path fill="#fff" d="M0 0h180v96H0z"/></clipPath><filter id="b" width="87.863" height="29.333" x="46" y="66.667" color-interpolation-filters="sRGB" filterUnits="userSpaceOnUse"><feFlood flood-opacity="0" result="BackgroundImageFix"/><feBlend in="SourceGraphic" in2="BackgroundImageFix" result="shape"/><feColorMatrix in="SourceAlpha" result="hardAlpha" values="0 0 0 0 0 0 0 0 0 0 0 0 0 0 0 0 0 0 127 0"/><feOffset dx="1"/><feComposite in2="hardAlpha" k2="-1" k3="1" operator="arithmetic"/><feColorMatrix values="0 0 0 0 0 0 0 0 0 0 0 0 0 0 0 0 0 0 0.08 0"/><feBlend in2="shape" result="effect1_innerShadow_23745_11667"/><feColorMatrix in="SourceAlpha" result="hardAlpha" values="0 0 0 0 0 0 0 0 0 0 0 0 0 0 0 0 0 0 127 0"/><feOffset dx="-1"/><feComposite in2="hardAlpha" k2="-1" k3="1" operator="arithmetic"/><feColorMatrix values="0 0 0 0 0 0 0 0 0 0 0 0 0 0 0 0 0 0 0.04 0"/><feBlend in2="effect1_innerShadow_23745_11667" result="effect2_innerShadow_23745_11667"/></filter></defs></svg>