<svg xmlns="http://www.w3.org/2000/svg" width="180" height="96" fill="none" viewBox="0 0 180 96"><g clip-path="url(#a)"><path fill="#303030" d="M46.514 26.962s-2.055 0-2.506.702c-.45.701-.5.802-.702 2.756s-3.081 52.346-3.081 52.346-.351 2.155.952 3.007a4.82 4.82 0 0 0 3.007.701l87.602-.05c.5 0 1.603 0 2.307-.902.703-.902.751-1.503.701-3.107s-1.453-32.124-1.453-32.124-.05-1.503-.602-2.105-1.403-1.154-2.104-1.203-61.141-.1-61.141-.1-1.604.1-2.28-.626a2.16 2.16 0 0 1-.602-1.805c0-.35.375-14.96.375-14.96s.1-1.153-.4-1.804c-.502-.65-1.604-.651-1.905-.651h-1.503a1.1 1.1 0 0 0-.802.25 1.7 1.7 0 0 1-1.203.652c-.551 0-13.832-.902-13.982-.902a3 3 0 0 0-.678-.075"/><path fill="url(#b)" d="M46.514 26.21s-2.055 0-2.506.702-.5.802-.702 2.756-3.081 52.347-3.081 52.347-.351 2.153.952 3.007a4.82 4.82 0 0 0 3.007.702l87.602-.05c.5 0 1.603 0 2.307-.902.703-.902.751-1.504.701-3.107s-1.453-32.124-1.453-32.124-.05-1.504-.602-2.105c-.551-.602-1.403-1.154-2.104-1.203s-61.141-.1-61.141-.1-1.604.1-2.28-.627a2.16 2.16 0 0 1-.602-1.806c0-.35.375-14.959.375-14.959s.1-1.153-.4-1.804c-.502-.651-1.604-.651-1.905-.651h-1.503a1.1 1.1 0 0 0-.802.25 1.7 1.7 0 0 1-1.204.653c-.552 0-13.832-.902-13.983-.902a3 3 0 0 0-.676-.077"/><path fill="url(#c)" d="M65.261 26.287a5 5 0 0 0-.531-.026h-1.503a1.1 1.1 0 0 0-.802.25 1.7 1.7 0 0 1-1.203.652c-.112 0-.757-.039-1.712-.098L58.49 40.62l5.914.3z"/><path fill="url(#d)" stroke="#000" stroke-miterlimit="10" stroke-opacity=".7" stroke-width=".301" d="M47.917 26.16s-2.506-.1-3.208.3c-.701.402-.952 1.654-1.002 3.158S40.7 82.04 40.7 82.04s-.45 3.144 2.525 3.144h18.119s3.312.063 3.412-2.994l1.754-53.723s0-1.504-.25-1.905c-.252-.4-1.403-.423-1.804-.412-.402.01-1.204.011-1.204.011s.15-.102.15.451c0 .654-.15 3.96-.15 4.56 0 .602-.15 3.86-.2 5.213-.006.16-.2 3.107-2.606 3.408-4.326.54-11.877-8.77-11.877-8.77z"/><path stroke="url(#e)" stroke-miterlimit="10" stroke-width=".401" d="m48.789 67.657 9.406.2a2.747 2.747 0 0 1 2.688 2.805l-.145 6.794a4.294 4.294 0 0 1-4.384 4.2l-7.95-.169a2.487 2.487 0 0 1-2.433-2.539l.187-8.771a2.576 2.576 0 0 1 2.63-2.521z"/><path fill="#3D3D3D" stroke="url(#f)" stroke-miterlimit="10" stroke-width=".251" d="m49.158 67.964 9.09.194a2.51 2.51 0 0 1 2.454 2.561l-.14 6.556a4.386 4.386 0 0 1-4.481 4.296l-7.858-.167a1.93 1.93 0 0 1-1.886-1.968l.19-8.951a2.576 2.576 0 0 1 2.63-2.52Z"/><path fill="url(#g)" d="M65.123 55.898c.833-16.851-3.582-30.763-9.86-31.073-6.28-.31-12.045 13.098-12.878 29.949s3.582 30.762 9.86 31.072c6.28.31 12.045-13.098 12.878-29.949"/><path fill="url(#h)" d="M50.222 91.423s-.89.84-.827 1.592c.109.85.092 1.71-.05 2.555a1.16 1.16 0 0 1-1.027.426c-.702-.05-.827-.125-.877-.375a2 2 0 0 1-.077-.577 4 4 0 0 1-.45.702c-.172.084-.363.118-.552.1a5.3 5.3 0 0 1-1.053-.1.75.75 0 0 1-.35-.452.416.416 0 0 1-.426.276 8 8 0 0 1-.852-.1 1.23 1.23 0 0 1-.777-.426 2.3 2.3 0 0 1-.476.075c-.506-.009-1-.156-1.428-.426q-.25.043-.5 0a2.66 2.66 0 0 1-1.404-.651c-.201.027-.407.01-.601-.05-.401-.1-1.103-.452-1.203-.652 0 0-.601.05-1.453-.652a2.4 2.4 0 0 1-1.453-.902s-.602-.15-1.303-1.102c-.702-.952 0-.072 0-.072a2.8 2.8 0 0 1-.702-.78 3.7 3.7 0 0 1-.326-.727s-.3-.15-.601-1.103c0 0-.351-.35-.351-1.653 0 0-.276-.325.075-1.628.028-.573.23-1.123.577-1.579.134-.489.414-.926.802-1.253.207-.435.516-.814.902-1.104.275-.454.675-.82 1.153-1.052 0 0 .2-.552 1.303-1.053a2.67 2.67 0 0 1 1.203-.752s.653-.801 1.303-.801a.83.83 0 0 1 .3-.401 7 7 0 0 1 .803-.401q.117-.158.25-.3c.077-.078.827-.5.827-.5l-.299 5.186s-.227.376-.428.426a1.23 1.23 0 0 1-.35.551q-.23.343-.552.602a5 5 0 0 1-.651.5 2.06 2.06 0 0 1-.902.751 2.3 2.3 0 0 1-.551.601 4.2 4.2 0 0 1-.5.752s-.15.301-.25.451q-.03.354-.101.702c.225.283.394.606.5.952q.208.2.35.451c.304.147.576.351.803.601.411.107.79.313 1.102.602q.334.042.651.15.304.132.552.351l-.05-.05q.408.068.802.2c.25.073.475.212.653.401.304-.024.61.01.902.1.237.052.46.155.654.301.324-.014.648.037.952.15a2.5 2.5 0 0 1 .802.301c.28-.055.567-.072.852-.05.302.041.593.142.855.296.217-.107.457-.157.698-.146q.454-.012.902.05c.301.1.301.201.301.201.237-.202.54-.31.852-.3.551 0 .802.003.802.003z"/><path fill="url(#i)" fill-opacity=".2" d="M50.222 91.423s-.89.84-.827 1.591c.109.85.092 1.711-.05 2.556a1.16 1.16 0 0 1-1.027.426c-.702-.05-.827-.125-.877-.376a2 2 0 0 1-.077-.576 4 4 0 0 1-.45.701c-.172.084-.363.119-.552.1a5.3 5.3 0 0 1-1.053-.1.75.75 0 0 1-.35-.451.415.415 0 0 1-.426.276 8 8 0 0 1-.852-.1 1.22 1.22 0 0 1-.777-.426 2.3 2.3 0 0 1-.476.075c-.506-.01-1-.156-1.428-.426q-.25.043-.5 0a2.66 2.66 0 0 1-1.404-.652c-.201.028-.407.011-.601-.05-.401-.1-1.103-.451-1.203-.651 0 0-.601.05-1.453-.652a2.4 2.4 0 0 1-1.453-.902s-.602-.15-1.303-1.102c-.702-.952 0-.072 0-.072a2.8 2.8 0 0 1-.702-.78 3.7 3.7 0 0 1-.326-.727s-.3-.15-.601-1.103c0 0-.351-.35-.351-1.653 0 0-.276-.326.075-1.629.028-.572.23-1.122.577-1.578.134-.49.414-.926.802-1.253.207-.435.516-.814.902-1.104.275-.455.675-.82 1.153-1.052 0 0 .2-.552 1.303-1.053a2.67 2.67 0 0 1 1.203-.752s.653-.801 1.303-.801a.83.83 0 0 1 .3-.401q.39-.226.803-.401a4 4 0 0 1 .25-.301c.075-.075.754-.458.754-.458l-.226 5.144s-.227.376-.428.426a1.23 1.23 0 0 1-.35.55q-.23.344-.552.602a5 5 0 0 1-.651.5 2.06 2.06 0 0 1-.902.752 2.3 2.3 0 0 1-.551.601 4.2 4.2 0 0 1-.5.752s-.15.3-.25.451q-.03.354-.101.701c.225.284.394.607.5.953q.208.2.35.45c.304.148.576.352.803.602.411.106.79.313 1.102.601q.334.043.651.15.304.132.552.352l-.05-.05q.408.068.802.2c.25.073.475.212.653.401.304-.024.61.01.902.1.237.052.46.154.654.301.324-.014.648.037.952.15a2.5 2.5 0 0 1 .802.301c.28-.055.567-.072.852-.05.302.04.593.141.855.296a1.4 1.4 0 0 1 .698-.146q.454-.012.902.05c.301.1.301.2.301.2.237-.202.54-.309.852-.3.551 0 .802.004.802.004z"/><path fill="url(#j)" stroke="#515051" stroke-miterlimit="10" stroke-opacity=".5" stroke-width=".15" d="M51.174 80.61s-1.053 5.915-1.203 8.32-.15 5.964-.15 6.214 0 .349.676.35c.677.001 1.178-.05 1.128-.45s-.05-5.388.3-7.33c.351-1.942.802-7.103.802-7.103z"/><g fill="#1A1A1B" opacity=".5"><path d="M48.217 90.96s-.952.902-.902 4.009c0 0-.401.852-.551.752-.243-.162-.2-.5-.1-1.855s.954-3.008 1.553-2.906M46.262 90.809s-1.805 2.005-1.303 4.41c0 0-.351.301-.5.2-.243-.161-.363-.734-.05-2.054.247-1.05.848-2.353 1.853-2.556M44.458 90.609s-2.105 1.955-1.604 4.36a.39.39 0 0 1-.35 0c-.244-.162-.451-1.052-.1-2.155.253-.802.901-2.255 2.054-2.205M42.403 90.308s-2.406 2.105-1.453 4.26a.51.51 0 0 1-.402 0c-.242-.162-.45-1.002-.1-2.105.255-.8 1.103-2.054 1.955-2.155M41 89.757s-2.556 1.052-2.005 4.16a.26.26 0 0 1-.25-.05c-.244-.163-.401-1.204-.05-2.256A2.48 2.48 0 0 1 41 89.757M39.697 89.205s-2.957.852-2.456 4.01a.26.26 0 0 1-.25-.05c-.243-.163-.456-1.022-.05-2.105.45-1.201 1.804-1.954 2.756-1.855M37.993 88.554s-3.058 1.154-2.256 3.96a.26.26 0 0 1-.25-.05c-.243-.162-.607-.922-.2-2.004.45-1.204 1.753-2.006 2.706-1.906M36.29 88.052s-2.757.852-1.956 3.658c0 0 0 .05-.15-.05-.243-.162-.506-.871-.1-1.954a2.42 2.42 0 0 1 2.205-1.654M35.388 87.201s-2.706.652-2.455 3.307a.8.8 0 0 1-.2-.25c-.05-.101-.251-.703.2-1.705.424-.941 1.805-1.552 2.455-1.352" opacity=".5"/><path d="M35.237 86.399A2.61 2.61 0 0 0 32.63 87.4a2.3 2.3 0 0 0-.607 1.795 1.1 1.1 0 0 1-.195-.292c-.228-.456.179-1.637.902-2.205.701-.55 1.798-.767 2.506-.3" opacity=".5"/><path d="M34.536 85.447a2.72 2.72 0 0 0-2.605.951 1.97 1.97 0 0 0-.5 1.554s-.089-.035-.15-.25c-.1-.352-.351-1.003.751-1.955.673-.583 1.795-.767 2.504-.3" opacity=".5"/><path d="M34.485 84.545a2.93 2.93 0 0 0-2.656.5 1.73 1.73 0 0 0-.751 1.504s-.026-.179-.05-.402a1.615 1.615 0 0 1 .952-1.653 2.56 2.56 0 0 1 2.505.051" opacity=".5"/><path d="M34.786 83.843c-.03.042-1.454-1.004-2.957.049a1.9 1.9 0 0 0-.649.853h-.002c.027-.367.167-.717.4-1.002a2.33 2.33 0 0 1 3.208.1" opacity=".5"/><path d="M35.137 83.142a2.26 2.26 0 0 0-1.754-.704c-1.203 0-1.617.65-1.617.65s.163-.9 1.366-.95 2.005 1.003 2.005 1.003M35.687 82.39a2.58 2.58 0 0 0-1.904-.902c-1.203 0-1.203.35-1.203.35s.1-.65 1.203-.65 1.904 1.202 1.904 1.202M36.49 81.739s-.801-1.203-2.153-1.203c-.801 0-.801.15-.801.15s-.05-.456.902-.451c.951.005 1.551.55 2.052 1.504M37.391 81.187s-.75-1.603-2.155-1.603c-.55 0-.601.05-.601.05s.05-.251.651-.251c.602 0 1.556.3 2.105 1.804M35.79 78.732c.175-.069.366-.086.55-.05.351.05 1.154.35 1.805 1.453 0 0-.5-1.504-1.504-1.654-.7-.105-.852.25-.852.25" opacity=".5"/></g><path fill="#2D2D2D" d="M130.581 51.84V8.563a3.47 3.47 0 0 0-2.145-3.212 3.5 3.5 0 0 0-1.331-.264h-24.518a3.286 3.286 0 0 1-4.27 1.067 3.3 3.3 0 0 1-1.182-1.067H72.702a3.46 3.46 0 0 0-3.46 3.46V51.57a2.7 2.7 0 0 0 .35 1.474c.755 1.282 2.35 1.35 2.477 1.353h55.952c.087-.003 1.659-.072 2.31-1.303a2.33 2.33 0 0 0 .25-1.255"/><path fill="url(#k)" d="M130.581 51.488V8.212a3.475 3.475 0 0 0-3.476-3.476H102.79a3.29 3.29 0 0 1-2.93 1.804 3.28 3.28 0 0 1-2.931-1.804H72.702a3.46 3.46 0 0 0-3.46 3.46V51.22a2.7 2.7 0 0 0 .35 1.474c.755 1.282 2.35 1.35 2.477 1.353h55.952c.087-.003 1.659-.072 2.31-1.303.199-.387.285-.822.25-1.255"/><path fill="url(#l)" d="M72.299 53.548h55.339c.077 0 1.557-.02 2.217-1.178.222-.4.318-.859.276-1.315v-4.773h-60.39v4.71c-.032.481.082.962.327 1.379.692 1.146 2.127 1.177 2.23 1.177"/><path fill="url(#m)" d="M127.083 5.087h-24.495a3.28 3.28 0 0 1-2.726 1.453 3.28 3.28 0 0 1-2.726-1.453H72.79a3.05 3.05 0 0 0-3.049 3.048v38.147h60.389V8.135a3.05 3.05 0 0 0-3.048-3.048"/><path fill="#353434" d="M125.42 40.92H74.402V10.95h51.018z"/><path fill="url(#n)" stroke="#fff" stroke-miterlimit="10" stroke-width=".192" d="M99.912 52.446c1.245 0 2.255-.909 2.255-2.03s-1.01-2.03-2.255-2.03c-1.246 0-2.256.91-2.256 2.03 0 1.121 1.01 2.03 2.256 2.03Z"/><path fill="#C7C7C7" d="M99.936 50.767c.139 0 .251-.1.251-.225s-.112-.226-.25-.226c-.14 0-.251.101-.251.226 0 .124.112.225.25.225"/><path fill="url(#o)" stroke="#3F3F3F" stroke-miterlimit="10" stroke-width=".05" d="M99.837 6.49c1.632 0 2.956-1.447 2.956-3.232S101.469.025 99.837.025c-1.633 0-2.956 1.448-2.956 3.233s1.323 3.232 2.956 3.232Z"/><path fill="url(#p)" d="M99.887 6.515a3.057 3.057 0 1 0 0-6.115 3.057 3.057 0 0 0 0 6.115"/><path fill="url(#q)" d="M99.886 6.515a2.957 2.957 0 1 0 0-5.914 2.957 2.957 0 0 0 0 5.914"/><path fill="url(#r)" d="M99.886 6.414a2.807 2.807 0 1 0 0-5.613 2.807 2.807 0 0 0 0 5.613"/><path fill="url(#s)" d="M99.861 6.264a2.656 2.656 0 1 0 0-5.311 2.656 2.656 0 0 0 0 5.311"/><path fill="#000" d="M99.861 6.114a2.506 2.506 0 1 0 0-5.012 2.506 2.506 0 0 0 0 5.012"/><path fill="url(#t)" d="M99.986 4.36a.752.752 0 1 0 0-1.504.752.752 0 0 0 0 1.504"/><path fill="#131312" d="M99.986 4.21a.601.601 0 1 0 0-1.203.601.601 0 0 0 0 1.202"/><path fill="#FCFFF5" d="M100.137 3.758a.05.05 0 1 0 0-.1.05.05 0 0 0 0 .1M99.812 3.56a.076.076 0 1 0 0-.152.076.076 0 0 0 0 .151"/><path fill="url(#u)" d="M99.44 3.313a.175.175 0 0 0 .345-.007.175.175 0 0 0-.173-.198l-.024.002a.6.6 0 0 0-.148.203"/><path stroke="#fff" stroke-miterlimit="10" stroke-width=".05" d="M98.672 4.912a.113.113 0 1 0 0-.226.113.113 0 0 0 0 .226Z"/><path fill="#fff" d="M101.127 4.912a.113.113 0 0 0 0-.226.113.113 0 0 0-.113.113c0 .062.05.113.113.113M101.045 4.947l-.066-.042a1.68 1.68 0 0 1-2.133 0l-.067.042a1.75 1.75 0 0 0 2.266 0"/><path fill="url(#v)" d="M55.258 19.971s3.182.025 4.009.15c.692.105 2.606.552 2.606 2.606 0 2.055-1.002 17.541-1.027 19.37-.026 1.879-.877 24.684-.978 34.805-.012 1.262-.526 4.01-4.51 4.01s-5.851.069-6.767.05c-2.406-.05-3.803-1.143-4.135-4.035-.332-2.908 1.811-45.291 2.882-52.897.405-2.871 1.278-3.733 3.157-3.909 1.286-.12 3.51-.15 4.763-.15"/><path fill="url(#w)" d="M54.739 20.197s3.034.024 3.823.148c.661.104 2.485.545 2.485 2.574s-.956 17.323-.98 19.13c-.025 1.855-.836 24.375-.932 34.374-.012 1.246-.502 3.96-4.3 3.96-3.8 0-5.58.069-6.452.05-2.293-.05-3.626-1.129-3.942-3.985-.317-2.872 1.727-44.732 2.748-52.242.384-2.835 1.219-3.687 3.01-3.86 1.225-.12 3.345-.15 4.54-.15"/><path fill="url(#x)" fill-opacity=".45" d="m53.24 72.111 5.628 4.703a2.049 2.049 0 0 1-1.314 3.622H46.297a2.049 2.049 0 0 1-1.313-3.622l5.628-4.703a2.05 2.05 0 0 1 2.627 0"/><path fill="#AE000E" d="M54.38 20.499c0 .05-.25 1.403-.45 4.21 0 0 0 .169.225.169s.326-.07.326-.17.25-2.656.5-4.16c0 0 .05-.2-.25-.2-.35-.001-.35.15-.35.15"/><path fill="#1B1B1B" fill-opacity=".25" d="M91.573 60.69h3.401a1.153 1.153 0 0 1 1.153 1.153v2.019a1.19 1.19 0 0 1-1.189 1.189h-3.524a1 1 0 0 1-1-1V61.85a1.157 1.157 0 0 1 1.16-1.16"/><path fill="url(#y)" d="M91.564 60.515h3.393a1.16 1.16 0 0 1 1.159 1.158v2.438a.764.764 0 0 1-.764.763H91.08a.677.677 0 0 1-.677-.676v-2.522a1.16 1.16 0 0 1 1.162-1.162"/><path fill="url(#z)" stroke="#999" stroke-miterlimit="10" stroke-opacity=".5" stroke-width=".05" d="M91.486 60.59h3.49a.89.89 0 0 1 .888.887v2.108a.763.763 0 0 1-.763.763h-3.772a.677.677 0 0 1-.677-.676v-2.249a.834.834 0 0 1 .834-.834Z"/><path fill="#1B1B1B" fill-opacity=".25" d="M98.388 60.69h3.4a1.154 1.154 0 0 1 1.154 1.153v2.019a1.19 1.19 0 0 1-1.189 1.189h-3.525a1 1 0 0 1-1-1V61.85a1.16 1.16 0 0 1 1.16-1.16"/><path fill="url(#A)" d="M98.38 60.515h3.393a1.16 1.16 0 0 1 1.071.715c.058.14.088.291.088.443v2.438a.765.765 0 0 1-.764.763h-4.273a.677.677 0 0 1-.676-.676v-2.522a1.16 1.16 0 0 1 1.161-1.162"/><path fill="url(#B)" stroke="#999" stroke-miterlimit="10" stroke-opacity=".5" stroke-width=".05" d="M98.303 60.59h3.49a.89.89 0 0 1 .888.887v2.108a.765.765 0 0 1-.764.763h-3.772a.677.677 0 0 1-.676-.676v-2.249a.83.83 0 0 1 .834-.834Z"/><path fill="#1B1B1B" fill-opacity=".25" d="M105.204 60.69h3.401a1.15 1.15 0 0 1 1.153 1.153v2.019a1.19 1.19 0 0 1-1.189 1.189h-3.524a1 1 0 0 1-1-1V61.85a1.17 1.17 0 0 1 .715-1.071 1.2 1.2 0 0 1 .444-.088"/><path fill="url(#C)" d="M105.195 60.515h3.392a1.16 1.16 0 0 1 1.159 1.158v2.438a.764.764 0 0 1-.763.763h-4.273a.677.677 0 0 1-.677-.676v-2.522a1.16 1.16 0 0 1 1.162-1.162"/><path fill="url(#D)" stroke="#999" stroke-miterlimit="10" stroke-opacity=".5" stroke-width=".05" d="M105.117 60.59h3.49a.886.886 0 0 1 .888.887v2.108a.764.764 0 0 1-.763.763h-3.772a.677.677 0 0 1-.677-.676v-2.249a.833.833 0 0 1 .834-.834Z"/><path fill="#1B1B1B" fill-opacity=".25" d="M91.573 65.952h3.401a1.153 1.153 0 0 1 1.153 1.154v2.016a1.19 1.19 0 0 1-1.189 1.19h-3.524a1 1 0 0 1-1-1v-2.203a1.157 1.157 0 0 1 1.16-1.157"/><path fill="url(#E)" d="M91.564 65.777h3.393a1.16 1.16 0 0 1 1.159 1.158v2.438a.764.764 0 0 1-.764.764H91.08a.677.677 0 0 1-.677-.677v-2.522a1.16 1.16 0 0 1 1.162-1.161"/><path fill="url(#F)" stroke="#999" stroke-miterlimit="10" stroke-opacity=".5" stroke-width=".05" d="M91.486 65.852h3.49a.89.89 0 0 1 .888.887v2.108a.763.763 0 0 1-.763.763h-3.772a.677.677 0 0 1-.677-.676v-2.249a.834.834 0 0 1 .834-.833Z"/><path fill="#1B1B1B" fill-opacity=".25" d="M98.388 65.952h3.4a1.154 1.154 0 0 1 1.154 1.154v2.016a1.19 1.19 0 0 1-1.189 1.19h-3.525a1 1 0 0 1-1-1v-2.203a1.16 1.16 0 0 1 1.16-1.157"/><path fill="url(#G)" d="M98.38 65.777h3.393a1.16 1.16 0 0 1 1.159 1.158v2.438a.765.765 0 0 1-.764.764h-4.273a.677.677 0 0 1-.676-.677v-2.522a1.16 1.16 0 0 1 1.161-1.161"/><path fill="url(#H)" stroke="#999" stroke-miterlimit="10" stroke-opacity=".5" stroke-width=".05" d="M98.303 65.852h3.49a.89.89 0 0 1 .888.887v2.108a.765.765 0 0 1-.764.763h-3.772a.677.677 0 0 1-.676-.676v-2.249a.83.83 0 0 1 .834-.833Z"/><path fill="#1B1B1B" fill-opacity=".25" d="M105.204 65.952h3.401a1.15 1.15 0 0 1 1.153 1.154v2.016a1.19 1.19 0 0 1-1.189 1.19h-3.524a1 1 0 0 1-1-1v-2.203a1.16 1.16 0 0 1 .34-.819 1.15 1.15 0 0 1 .819-.338"/><path fill="url(#I)" d="M105.195 65.777h3.392a1.16 1.16 0 0 1 1.159 1.158v2.438a.764.764 0 0 1-.763.764h-4.273a.677.677 0 0 1-.677-.677v-2.522a1.16 1.16 0 0 1 1.162-1.161"/><path fill="url(#J)" stroke="#999" stroke-miterlimit="10" stroke-opacity=".5" stroke-width=".05" d="M105.117 65.852h3.49a.886.886 0 0 1 .888.887v2.108a.764.764 0 0 1-.763.763h-3.772a.677.677 0 0 1-.677-.676v-2.249a.83.83 0 0 1 .515-.77.8.8 0 0 1 .319-.063Z"/><path fill="#1B1B1B" fill-opacity=".25" d="M72.502 72.116H83.79a.615.615 0 0 1 .615.615v1.862a.63.63 0 0 1-.632.632H72.419a.53.53 0 0 1-.531-.532v-1.96a.616.616 0 0 1 .615-.617"/><path fill="url(#K)" d="M72.477 71.99h11.28a.615.615 0 0 1 .616.616v2.086a.406.406 0 0 1-.406.406H72.22a.36.36 0 0 1-.36-.36v-2.13a.616.616 0 0 1 .618-.617"/><path fill="url(#L)" stroke="#999" stroke-miterlimit="10" stroke-opacity=".5" stroke-width=".027" d="M72.541 72.045h11.163a.47.47 0 0 1 .472.471v1.802a.407.407 0 0 1-.406.405H72.457a.36.36 0 0 1-.36-.36v-1.876a.443.443 0 0 1 .444-.442Z"/><path fill="#1B1B1B" fill-opacity=".25" d="M72.485 64.649h4.334a.615.615 0 0 1 .615.615v1.862a.63.63 0 0 1-.631.632h-4.4a.53.53 0 0 1-.532-.532v-1.96a.615.615 0 0 1 .614-.617"/><path fill="url(#M)" d="M72.389 64.524h4.48a.615.615 0 0 1 .614.615v2.086a.405.405 0 0 1-.405.406H72.13a.36.36 0 0 1-.36-.36v-2.13a.615.615 0 0 1 .618-.617"/><path fill="url(#N)" stroke="#999" stroke-miterlimit="10" stroke-opacity=".5" stroke-width=".027" d="M72.408 64.577h4.38a.47.47 0 0 1 .471.472v1.801a.405.405 0 0 1-.406.406h-4.529a.36.36 0 0 1-.36-.36V65.02a.443.443 0 0 1 .444-.443Z"/><path fill="#1B1B1B" fill-opacity=".25" d="M79.603 64.649h4.335a.615.615 0 0 1 .615.615v1.862a.63.63 0 0 1-.632.632H79.52a.53.53 0 0 1-.532-.532v-1.96a.614.614 0 0 1 .615-.617"/><path fill="url(#O)" d="M79.506 64.524h4.48a.615.615 0 0 1 .616.615v2.086a.405.405 0 0 1-.406.406h-4.948a.36.36 0 0 1-.36-.36v-2.13a.615.615 0 0 1 .618-.617"/><path fill="url(#P)" stroke="#999" stroke-miterlimit="10" stroke-opacity=".5" stroke-width=".027" d="M79.525 64.577h4.38a.47.47 0 0 1 .471.472v1.801a.405.405 0 0 1-.405.406h-4.53a.36.36 0 0 1-.359-.36V65.02a.443.443 0 0 1 .443-.443Z"/><path fill="#1B1B1B" fill-opacity=".25" d="M76.196 60.69h4.334a.615.615 0 0 1 .615.615v1.862a.63.63 0 0 1-.631.631H76.11a.53.53 0 0 1-.53-.531v-1.96a.616.616 0 0 1 .615-.617"/><path fill="url(#Q)" d="M76.1 60.565h4.48a.615.615 0 0 1 .615.615v2.086a.406.406 0 0 1-.406.406H75.84a.36.36 0 0 1-.36-.36v-2.13a.616.616 0 0 1 .62-.617"/><path fill="url(#R)" stroke="#999" stroke-miterlimit="10" stroke-opacity=".5" stroke-width=".027" d="M76.117 60.619h4.38a.47.47 0 0 1 .471.471v1.802a.406.406 0 0 1-.406.405h-4.529a.36.36 0 0 1-.36-.36v-1.876a.443.443 0 0 1 .444-.443Z"/><path fill="#1B1B1B" fill-opacity=".25" d="M116.137 64.649h4.334a.615.615 0 0 1 .615.615v1.862a.63.63 0 0 1-.631.632h-4.402a.533.533 0 0 1-.532-.532v-1.96a.616.616 0 0 1 .616-.617"/><path fill="url(#S)" d="M116.039 64.524h4.481a.616.616 0 0 1 .615.615v2.086a.406.406 0 0 1-.406.406h-4.948a.36.36 0 0 1-.359-.36v-2.13a.617.617 0 0 1 .617-.617"/><path fill="url(#T)" stroke="#999" stroke-miterlimit="10" stroke-opacity=".5" stroke-width=".027" d="M116.058 64.577h4.38a.47.47 0 0 1 .472.472v1.801a.406.406 0 0 1-.406.406h-4.529a.36.36 0 0 1-.254-.105.36.36 0 0 1-.106-.255V65.02a.443.443 0 0 1 .443-.443Z"/><path fill="#1B1B1B" fill-opacity=".25" d="M123.254 64.649h4.334a.613.613 0 0 1 .616.615v1.862a.634.634 0 0 1-.632.632h-4.402a.533.533 0 0 1-.531-.532v-1.96a.62.62 0 0 1 .615-.617"/><path fill="url(#U)" d="M123.156 64.524h4.48a.613.613 0 0 1 .616.615v2.086a.406.406 0 0 1-.406.406h-4.947a.36.36 0 0 1-.36-.36v-2.13a.616.616 0 0 1 .617-.617"/><path fill="url(#V)" stroke="#999" stroke-miterlimit="10" stroke-opacity=".5" stroke-width=".027" d="M123.175 64.577h4.38a.474.474 0 0 1 .472.472v1.801a.406.406 0 0 1-.406.406h-4.529a.36.36 0 0 1-.36-.36V65.02a.443.443 0 0 1 .443-.443Z"/><path fill="#1B1B1B" fill-opacity=".25" d="M119.846 60.69h4.335a.617.617 0 0 1 .615.615v1.862a.633.633 0 0 1-.632.631h-4.402a.53.53 0 0 1-.532-.531v-1.96a.616.616 0 0 1 .616-.617"/><path fill="url(#W)" d="M119.748 60.565h4.48a.615.615 0 0 1 .615.615v2.086a.405.405 0 0 1-.405.406h-4.948a.36.36 0 0 1-.359-.36v-2.13a.62.62 0 0 1 .617-.617"/><path fill="url(#X)" stroke="#999" stroke-miterlimit="10" stroke-opacity=".5" stroke-width=".027" d="M119.767 60.619h4.38a.47.47 0 0 1 .471.471v1.802a.405.405 0 0 1-.405.405h-4.529a.358.358 0 0 1-.36-.36v-1.876a.443.443 0 0 1 .443-.443Z"/><path fill="#1B1B1B" fill-opacity=".25" d="M116.588 72.066h4.334a.613.613 0 0 1 .616.615v1.862a.634.634 0 0 1-.632.632h-4.402a.533.533 0 0 1-.531-.531v-1.961a.62.62 0 0 1 .615-.617"/><path fill="url(#Y)" d="M116.491 71.94h4.48a.616.616 0 0 1 .615.616v2.086a.406.406 0 0 1-.406.406h-4.947a.36.36 0 0 1-.36-.36v-2.13a.617.617 0 0 1 .618-.617"/><path fill="url(#Z)" stroke="#999" stroke-miterlimit="10" stroke-opacity=".5" stroke-width=".027" d="M116.508 71.994h4.383a.47.47 0 0 1 .472.472v1.801a.406.406 0 0 1-.406.406h-4.529a.36.36 0 0 1-.36-.36v-1.877a.445.445 0 0 1 .44-.441Z"/><path fill="#1B1B1B" fill-opacity=".25" d="M123.705 72.066h4.335a.616.616 0 0 1 .615.615v1.862a.634.634 0 0 1-.632.632h-4.402a.533.533 0 0 1-.531-.531v-1.961a.615.615 0 0 1 .615-.617"/><path fill="url(#aa)" d="M123.607 71.94h4.481a.616.616 0 0 1 .615.616v2.086a.406.406 0 0 1-.406.406h-4.947a.358.358 0 0 1-.36-.36v-2.13a.616.616 0 0 1 .617-.617"/><path fill="url(#ab)" stroke="#999" stroke-miterlimit="10" stroke-opacity=".5" stroke-width=".027" d="M123.625 71.994h4.378a.474.474 0 0 1 .472.472v1.801a.406.406 0 0 1-.406.406h-4.526a.36.36 0 0 1-.359-.36v-1.877a.444.444 0 0 1 .441-.442Z"/><path fill="#1B1B1B" fill-opacity=".25" d="M120.197 76.276h4.335a.616.616 0 0 1 .615.615v1.862a.634.634 0 0 1-.632.631h-4.402a.54.54 0 0 1-.491-.328.6.6 0 0 1-.04-.203v-1.96q0-.124.046-.237a.62.62 0 0 1 .569-.38"/><path fill="url(#ac)" d="M120.1 76.15h4.48a.615.615 0 0 1 .615.616v2.086a.405.405 0 0 1-.405.405h-4.948a.36.36 0 0 1-.36-.36v-2.13a.618.618 0 0 1 .618-.617"/><path fill="url(#ad)" stroke="#999" stroke-miterlimit="10" stroke-opacity=".5" stroke-width=".027" d="M120.119 76.204h4.379a.474.474 0 0 1 .472.471v1.802a.406.406 0 0 1-.406.405h-4.529a.36.36 0 0 1-.359-.36v-1.876a.4.4 0 0 1 .034-.17.446.446 0 0 1 .409-.273Z"/><path fill="#1B1B1B" fill-opacity=".25" d="M98.388 71.214h3.4a1.154 1.154 0 0 1 1.154 1.154v2.016a1.19 1.19 0 0 1-1.189 1.189h-3.525a1 1 0 0 1-1-1v-2.202a1.16 1.16 0 0 1 1.16-1.157"/><path fill="url(#ae)" d="M98.38 71.039h3.393a1.16 1.16 0 0 1 1.159 1.159v2.437a.765.765 0 0 1-.764.764h-4.273a.677.677 0 0 1-.676-.677V72.2a1.16 1.16 0 0 1 1.161-1.161"/><path fill="url(#af)" stroke="#999" stroke-miterlimit="10" stroke-opacity=".5" stroke-width=".05" d="M98.303 71.114h3.49a.89.89 0 0 1 .888.887v2.108a.765.765 0 0 1-.764.763h-3.772a.677.677 0 0 1-.676-.676v-2.249a.83.83 0 0 1 .834-.833Z"/><path fill="#1B1B1B" fill-opacity=".25" d="M91.573 71.214h3.401a1.153 1.153 0 0 1 1.153 1.154v2.016a1.19 1.19 0 0 1-1.189 1.189h-3.524a1 1 0 0 1-1-1v-2.202a1.156 1.156 0 0 1 1.16-1.157"/><path fill="url(#ag)" d="M91.564 71.039h3.393a1.16 1.16 0 0 1 1.159 1.159v2.437a.764.764 0 0 1-.764.764H91.08a.677.677 0 0 1-.677-.677V72.2a1.16 1.16 0 0 1 1.162-1.161"/><path fill="url(#ah)" stroke="#999" stroke-miterlimit="10" stroke-opacity=".5" stroke-width=".05" d="M91.486 71.114h3.49a.89.89 0 0 1 .888.887v2.108a.763.763 0 0 1-.763.763h-3.772a.677.677 0 0 1-.677-.676v-2.249a.834.834 0 0 1 .834-.833Z"/><path fill="#1B1B1B" fill-opacity=".25" d="M105.204 71.214h3.401a1.15 1.15 0 0 1 1.153 1.154v2.016a1.19 1.19 0 0 1-1.189 1.189h-3.524a1 1 0 0 1-1-1v-2.202a1.16 1.16 0 0 1 .716-1.07c.14-.057.291-.087.443-.087"/><path fill="url(#ai)" d="M105.195 71.039h3.392a1.16 1.16 0 0 1 1.159 1.159v2.437a.764.764 0 0 1-.763.764h-4.273a.677.677 0 0 1-.677-.677V72.2a1.16 1.16 0 0 1 1.162-1.161"/><path fill="url(#aj)" stroke="#999" stroke-miterlimit="10" stroke-opacity=".5" stroke-width=".05" d="M105.117 71.114h3.49a.886.886 0 0 1 .888.887v2.108a.764.764 0 0 1-.763.763h-3.772a.677.677 0 0 1-.677-.676v-2.249a.833.833 0 0 1 .834-.833Z"/><path fill="#1B1B1B" fill-opacity=".25" d="M91.573 76.576h3.401a1.153 1.153 0 0 1 1.153 1.154v2.016a1.19 1.19 0 0 1-1.189 1.19h-3.524a1 1 0 0 1-1-1v-2.203a1.156 1.156 0 0 1 1.16-1.157"/><path fill="url(#ak)" d="M91.564 76.401h3.393a1.16 1.16 0 0 1 1.159 1.16v2.437a.764.764 0 0 1-.764.763H91.08a.677.677 0 0 1-.677-.676v-2.522a1.16 1.16 0 0 1 1.162-1.162"/><path fill="url(#al)" stroke="#999" stroke-miterlimit="10" stroke-opacity=".5" stroke-width=".05" d="M91.486 76.476h3.49a.89.89 0 0 1 .888.888v2.108a.763.763 0 0 1-.763.763h-3.772a.677.677 0 0 1-.677-.676V77.31a.834.834 0 0 1 .834-.834Z"/><path fill="#1B1B1B" fill-opacity=".25" d="M98.388 76.576h3.4a1.154 1.154 0 0 1 1.154 1.154v2.016a1.19 1.19 0 0 1-1.189 1.19h-3.525a1 1 0 0 1-1-1v-2.203a1.16 1.16 0 0 1 1.16-1.157"/><path fill="url(#am)" d="M98.38 76.401h3.393a1.16 1.16 0 0 1 1.159 1.16v2.437a.765.765 0 0 1-.764.763h-4.273a.677.677 0 0 1-.676-.676v-2.522A1.16 1.16 0 0 1 98.38 76.4"/><path fill="url(#an)" stroke="#999" stroke-miterlimit="10" stroke-opacity=".5" stroke-width=".05" d="M98.303 76.476h3.49a.89.89 0 0 1 .888.888v2.108a.765.765 0 0 1-.764.763h-3.772a.677.677 0 0 1-.676-.676V77.31a.83.83 0 0 1 .834-.834Z"/><path fill="#1B1B1B" fill-opacity=".25" d="M105.204 76.576h3.401a1.15 1.15 0 0 1 1.153 1.154v2.016a1.19 1.19 0 0 1-1.189 1.19h-3.524a1 1 0 0 1-1-1v-2.203a1.16 1.16 0 0 1 .716-1.069c.14-.058.291-.088.443-.088"/><path fill="url(#ao)" d="M105.195 76.401h3.392a1.16 1.16 0 0 1 1.159 1.16v2.437a.764.764 0 0 1-.763.763h-4.273a.677.677 0 0 1-.677-.676v-2.522a1.16 1.16 0 0 1 1.162-1.162"/><path fill="url(#ap)" stroke="#999" stroke-miterlimit="10" stroke-opacity=".5" stroke-width=".05" d="M105.117 76.476h3.49a.887.887 0 0 1 .888.888v2.108a.764.764 0 0 1-.763.763h-3.772a.677.677 0 0 1-.677-.676V77.31a.833.833 0 0 1 .834-.834Z"/><path fill="#C6C5C5" d="m93.152 61.653-.406.208v-.358l.408-.215h.393v1.775h-.395z"/><path fill="#B3B2B2" d="M99.373 61.774a.644.644 0 0 1 .682-.525.54.54 0 0 1 .611.508c0 .279-.127.406-.477.745l-.246.238h.71v.323h-1.23v-.323l.429-.42c.309-.308.41-.403.41-.563a.2.2 0 0 0-.013-.086.2.2 0 0 0-.047-.072.2.2 0 0 0-.16-.055.26.26 0 0 0-.256.23zM106.659 62.609a.23.23 0 0 0 .249.205.237.237 0 0 0 .253-.258.3.3 0 0 0-.015-.12.27.27 0 0 0-.292-.172h-.154v-.271h.175a.24.24 0 0 0 .235-.148.24.24 0 0 0 .018-.096.2.2 0 0 0-.057-.154.199.199 0 0 0-.153-.06.207.207 0 0 0-.226.174h-.384a.58.58 0 0 1 .634-.46c.314 0 .588.145.588.467a.42.42 0 0 1-.367.393.456.456 0 0 1 .408.439c0 .332-.261.553-.657.553a.585.585 0 0 1-.646-.492z"/><path fill="#BCBCBC" d="M93.744 66.55v1.148h.2v.292h-.2v.335h-.375v-.335h-.77v-.335l.746-1.105zm-.375 1.148v-.618l-.401.618zM99.862 67.868a.23.23 0 0 0 .243.208c.15 0 .267-.109.267-.34 0-.23-.102-.334-.272-.334a.36.36 0 0 0-.24.109h-.313l.046-.961h1.06v.278h-.705l-.023.399a.56.56 0 0 1 .299-.084.53.53 0 0 1 .556.576.63.63 0 0 1-.423.608.6.6 0 0 1-.259.034.57.57 0 0 1-.621-.495zM107.158 66.9a.173.173 0 0 0-.182-.122c-.142 0-.272.112-.308.533a.48.48 0 0 1 .39-.198.53.53 0 0 1 .414.168.54.54 0 0 1 .137.425.624.624 0 0 1-.657.657c-.423 0-.684-.297-.684-.867 0-.796.364-.984.709-.984a.58.58 0 0 1 .609.388zm-.215 1.184c.16 0 .269-.147.269-.353 0-.228-.089-.34-.251-.34-.178 0-.274.158-.274.347 0 .128.053.346.255.346zM93.222 73.637h-.416l.684-1.476h-.842v-.3h1.23v.31zM100.41 72.691a.53.53 0 0 1 .335.46c0 .311-.238.524-.667.524s-.677-.208-.677-.51a.45.45 0 0 1 .325-.451.44.44 0 0 1-.282-.413c0-.35.308-.477.634-.477.271 0 .621.104.621.451a.47.47 0 0 1-.289.416m-.388.147a.32.32 0 0 0-.203.312.24.24 0 0 0 .154.233.24.24 0 0 0 .098.016.24.24 0 0 0 .238-.15.3.3 0 0 0 .018-.099c0-.205-.168-.268-.304-.312zm.081-.269a.32.32 0 0 0 .208-.281.24.24 0 0 0-.4-.153.24.24 0 0 0-.079.153c-.001.178.155.246.271.281M106.715 73.25a.19.19 0 0 0 .201.159c.139 0 .254-.107.289-.52a.44.44 0 0 1-.365.185.55.55 0 0 1-.577-.623q0-.13.05-.25a.63.63 0 0 1 .361-.341.6.6 0 0 1 .251-.036c.411 0 .682.254.682.867 0 .77-.334.984-.694.984a.595.595 0 0 1-.627-.426zm.219-1.147c-.192 0-.272.157-.272.335 0 .233.092.357.261.357.183 0 .267-.152.267-.346 0-.161-.054-.346-.256-.346M93.251 78.338l-.436.692-.205-.154.526-.637-.802-.205.08-.24.762.3-.055-.822h.26l-.055.827.767-.306.08.24-.802.206.527.637-.206.153zM99.498 78.167c0-.659.258-.93.674-.93s.675.271.675.93c0 .642-.264.92-.675.92-.41 0-.674-.278-.674-.92m.94 0c0-.512-.098-.664-.266-.664-.167 0-.266.153-.266.664 0 .51.099.652.266.652.168 0 .266-.14.266-.652M83.044 72.914v.4h.396v.313h-.396v.403h-.326v-.403h-.394v-.312h.394v-.4zM73.692 73.627h-.963v-.312h.963zM106.428 77.681h.216l.038-.457h.213l-.038.457h.535l.04-.457h.213l-.04.457h.192v.19h-.21l-.039.482h.2v.192h-.218l-.038.456h-.213l.038-.456h-.535l-.038.456h-.213l.038-.456h-.192v-.192h.208l.038-.482h-.197zm.37.672h.536l.038-.482h-.535z"/><path fill="#fff" d="M96.865 56.724a.2.2 0 0 1 .026-.045.1.1 0 0 1 .039-.032.1.1 0 0 1 .055-.013q.03 0 .058.013a.17.17 0 0 1 .077.077.13.13 0 0 1 .013.058v.336a.13.13 0 0 1-.013.058.2.2 0 0 1-.032.049.1.1 0 0 1-.045.032.16.16 0 0 1-.113 0 .1.1 0 0 1-.039-.032.169.169 0 0 1-.036-.106v-.337q0-.03.01-.058m.591 2.016a.55.55 0 0 0 .304.29.6.6 0 0 0 .307.032l.13-.026a.1.1 0 0 1 .034-.006v-.297q0 .006-.019.016a.558.558 0 0 1-.213.042.3.3 0 0 1-.123-.023.26.26 0 0 1-.142-.151.343.343 0 0 1 0-.228.25.25 0 0 1 .145-.155.3.3 0 0 1 .12-.023.4.4 0 0 1 .094.01l.07.018a1 1 0 0 1 .069.03v-.291a.1.1 0 0 0-.03-.013 1 1 0 0 0-.129-.023q-.043-.002-.093-.003a.6.6 0 0 0-.231.042.5.5 0 0 0-.18.115.5.5 0 0 0-.116.178.64.64 0 0 0 .003.465m.136-2.404a.2.2 0 0 1 .035-.045.2.2 0 0 1 .052-.032.14.14 0 0 1 .117 0 .2.2 0 0 1 .048.032.2.2 0 0 1 .032.046.13.13 0 0 1 .013.058v.723q0 .03-.013.058a.2.2 0 0 1-.032.049.1.1 0 0 1-.048.032.175.175 0 0 1-.117 0 .1.1 0 0 1-.051-.032.2.2 0 0 1-.036-.049.1.1 0 0 1-.013-.058v-.723q0-.03.013-.059m.76-.487a.156.156 0 0 1 .09-.077.17.17 0 0 1 .112 0 .2.2 0 0 1 .049.028.1.1 0 0 1 .032.049q.01.026.01.055v1.46q0 .03-.01.059a.1.1 0 0 1-.032.045.2.2 0 0 1-.049.032.132.132 0 0 1-.113 0 .2.2 0 0 1-.09-.077.1.1 0 0 1-.016-.058v-1.461q0-.03.016-.055m.57 3.22v-1.105h-.277v1.105zm.188-2.733a.14.14 0 0 1 .036-.045.2.2 0 0 1 .051-.032.136.136 0 0 1 .116 0 .2.2 0 0 1 .05.032.2.2 0 0 1 .032.046.13.13 0 0 1 .012.058v.723a.13.13 0 0 1-.012.058.3.3 0 0 1-.033.049.1.1 0 0 1-.049.032.17.17 0 0 1-.116 0 .1.1 0 0 1-.051-.032.2.2 0 0 1-.036-.049.13.13 0 0 1-.013-.058v-.723q0-.03.013-.059m.197 2.061a.3.3 0 0 0 .061.09.4.4 0 0 0 .091.065 1 1 0 0 0 .123.049l.013.006.016.007.016.003q.024.006.048.016a.2.2 0 0 1 .039.023.1.1 0 0 1 .035.07.06.06 0 0 1-.016.039.1.1 0 0 1-.042.032.2.2 0 0 1-.068.02 1 1 0 0 1-.094.006q-.045 0-.086-.003a.7.7 0 0 1-.177-.036v.252l.032.006a1 1 0 0 0 .068.01q.043.001.094.01a.703.703 0 0 0 .271-.013.5.5 0 0 0 .154-.062.321.321 0 0 0 .158-.287.3.3 0 0 0-.064-.184.3.3 0 0 0-.081-.074.4.4 0 0 0-.12-.052l-.07-.026-.043-.013a.1.1 0 0 1-.042-.019.1.1 0 0 1-.032-.03.06.06 0 0 1-.013-.041q0-.02.01-.036a.1.1 0 0 1 .029-.029.14.14 0 0 1 .051-.019.4.4 0 0 1 .148 0q.04.006.068.013.03.007.074.013v-.23l-.087-.02a1 1 0 0 0-.084-.01q-.048-.002-.1-.003a.6.6 0 0 0-.171.023.3.3 0 0 0-.126.067.3.3 0 0 0-.077.11.38.38 0 0 0-.006.257m.559-1.673a.14.14 0 0 1 .036-.045.2.2 0 0 1 .048-.032.14.14 0 0 1 .115 0q.027.013.049.032a.1.1 0 0 1 .035.045.1.1 0 0 1 .013.058v.336a.1.1 0 0 1-.013.058.2.2 0 0 1-.035.049.13.13 0 0 1-.049.032.17.17 0 0 1-.115 0 .1.1 0 0 1-.048-.032.2.2 0 0 1-.036-.049.13.13 0 0 1-.013-.058v-.336q0-.03.013-.058m.494 2.016a.6.6 0 0 0 .133.177q.085.075.192.114a.65.65 0 0 0 .313.032l.071-.014.058-.013a.2.2 0 0 1 .039-.006v-.297l-.026.016a.4.4 0 0 1-.119.035 1 1 0 0 1-.094.007.33.33 0 0 1-.223-.084.27.27 0 0 1-.068-.32.3.3 0 0 1 .068-.093.335.335 0 0 1 .223-.084q.048 0 .094.01.042.01.071.02l.048.019a.1.1 0 0 0 .026.01v-.291l-.036-.013a1 1 0 0 0-.129-.023q-.042-.002-.094-.003a.65.65 0 0 0-.424.157.55.55 0 0 0-.172.404.55.55 0 0 0 .049.24m.262-2.404a.2.2 0 0 1 .032-.045.17.17 0 0 1 .104-.045q.031 0 .061.013a.161.161 0 0 1 .087.078.13.13 0 0 1 .013.058v.723a.13.13 0 0 1-.013.058.2.2 0 0 1-.035.049.13.13 0 0 1-.052.032.168.168 0 0 1-.116 0 .1.1 0 0 1-.049-.032.2.2 0 0 1-.032-.049.1.1 0 0 1-.013-.058v-.723a.1.1 0 0 1 .013-.059m.762-.487a.13.13 0 0 1 .036-.049.2.2 0 0 1 .052-.029.2.2 0 0 1 .116 0 .13.13 0 0 1 .08.078.13.13 0 0 1 .013.055v1.46a.1.1 0 0 1-.013.059.156.156 0 0 1-.135.09.188.188 0 0 1-.113-.045.13.13 0 0 1-.049-.103v-1.461a.2.2 0 0 1 .013-.055m.1 2.871a.55.55 0 0 0 .304.304c.151.06.32.06.471 0a.56.56 0 0 0 .304-.304.6.6 0 0 0 0-.439.5.5 0 0 0-.12-.177.61.61 0 0 0-.839 0 .5.5 0 0 0-.12.177.6.6 0 0 0 0 .44m.275-.33a.24.24 0 0 1 .058-.09.282.282 0 0 1 .206-.084.3.3 0 0 1 .206.085.3.3 0 0 1 .058.09.334.334 0 0 1 0 .223.26.26 0 0 1-.149.155.3.3 0 0 1-.115.022.29.29 0 0 1-.206-.084.25.25 0 0 1-.058-.093.33.33 0 0 1 0-.223m.381-2.053a.2.2 0 0 1 .032-.046.16.16 0 0 1 .11-.045q.029 0 .055.013.028.013.052.032a.14.14 0 0 1 .035.046.1.1 0 0 1 .013.058v.723a.1.1 0 0 1-.013.058.2.2 0 0 1-.035.049.13.13 0 0 1-.052.032.17.17 0 0 1-.116 0 .1.1 0 0 1-.049-.032.3.3 0 0 1-.032-.049.13.13 0 0 1-.013-.058v-.723q0-.03.013-.059m.756.387a.17.17 0 0 1 .077-.077.1.1 0 0 1 .058-.013q.03 0 .055.013a.1.1 0 0 1 .039.032q.017.021.026.045a.2.2 0 0 1 .009.058v.336a.16.16 0 0 1-.035.107.1.1 0 0 1-.039.032.169.169 0 0 1-.113 0 .1.1 0 0 1-.045-.032.2.2 0 0 1-.032-.049.13.13 0 0 1-.013-.058v-.336q0-.03.013-.058"/><path fill="#B0AFAF" d="M79.222 61.364a.08.08 0 0 1 .023.054v1.101a.077.077 0 0 1-.08.078H77.44a.08.08 0 0 1-.074-.048.1.1 0 0 1-.006-.03v-1.1a.07.07 0 0 1 .023-.055.08.08 0 0 1 .057-.023h1.726a.08.08 0 0 1 .057.023m-.37.877a.314.314 0 0 0 0-.545.31.31 0 0 0-.43.115.31.31 0 0 0 0 .314h-.238a.3.3 0 0 0 .041-.157.31.31 0 0 0-.156-.272.313.313 0 0 0-.43.116.313.313 0 0 0 .115.43.3.3 0 0 0 .158.042h.785q.085 0 .157-.043zm-.832-.162a.154.154 0 1 1 .046-.11.15.15 0 0 1-.044.11zm.786 0a.157.157 0 0 1-.265-.08.156.156 0 0 1 .154-.187.15.15 0 0 1 .111.047.155.155 0 0 1 0 .22M82.377 65.055a.07.07 0 0 1 .02.05v1.53a.07.07 0 0 1-.02.051.07.07 0 0 1-.05.02h-.975a.07.07 0 0 1-.07-.07v-.174h-.069a.07.07 0 0 1-.066-.043.1.1 0 0 1-.004-.027v-1.044a.07.07 0 0 1 .043-.065.1.1 0 0 1 .027-.005h.068v-.174a.07.07 0 0 1 .07-.07h.976a.07.07 0 0 1 .05.021m-.16 1.199-.025-.143a.04.04 0 0 0-.014-.018l-.22-.129-.014-.016-.024-.06a.16.16 0 0 0 .042-.073.3.3 0 0 0 .017-.087v-.095a.14.14 0 0 0-.042-.1.13.13 0 0 0-.1-.042.14.14 0 0 0-.102.042.14.14 0 0 0-.042.1v.096q0 .046.015.088a.13.13 0 0 0 .045.07l-.025.06q0 .01-.013.017l-.221.129q-.014.009-.013.018l-.024.143zM124.688 66.143a.2.2 0 0 0-.064.06.2.2 0 0 0-.034.082l-.005.023h-.286l.031-.184q0-.007.003-.013a.03.03 0 0 1 .011-.01l.283-.16a.05.05 0 0 0 .018-.022l.036-.074a.17.17 0 0 1-.058-.091.3.3 0 0 1-.02-.112v-.121a.17.17 0 0 1 .053-.13.174.174 0 0 1 .128-.053.18.18 0 0 1 .13.054.173.173 0 0 1 .054.13v.121a.3.3 0 0 1-.025.11.2.2 0 0 1-.055.088l.034.08q.007.014.019.023l.049.028zm1.545.462-1.552-.008.048-.291a.1.1 0 0 1 .008-.023l.008-.01.011-.004.448-.261a.1.1 0 0 0 .033-.038l.054-.116a.27.27 0 0 1-.088-.142.6.6 0 0 1-.032-.178v-.192a.29.29 0 1 1 .58.003v.192a.65.65 0 0 1-.074.262.2.2 0 0 1-.049.056l.052.122q.019.028.014.023a.04.04 0 0 0 .019.017l.446.265q.025.023.025.039zm.39-.285h-.286l-.005-.023a.2.2 0 0 0-.033-.082.2.2 0 0 0-.064-.06l-.299-.177.048-.028a.05.05 0 0 0 .019-.023l.036-.074a.17.17 0 0 1-.058-.091.4.4 0 0 1-.018-.112v-.121a.2.2 0 0 1 .052-.13.17.17 0 0 1 .128-.053.183.183 0 0 1 .183.185v.12a.3.3 0 0 1-.023.108.2.2 0 0 1-.054.09l.032.08q.006.014.018.023l.281.162q.016.014.016.024zM121.601 61.185l-.009 1.364h-.238a.1.1 0 0 1-.027-.005.1.1 0 0 1-.021-.015.1.1 0 0 1-.016-.022.1.1 0 0 1-.005-.027l.006-1.226a.07.07 0 0 1 .07-.068zm.627.024a.07.07 0 0 1 .02.048l-.006 1.227a.1.1 0 0 1-.006.026.1.1 0 0 1-.015.022.07.07 0 0 1-.048.02h-.239l.007-1.364h.239q.014 0 .026.006a.1.1 0 0 1 .022.015M119.249 73.726a.33.33 0 0 1-.182.12.586.586 0 0 1-.416.342.13.13 0 0 1-.05.06.13.13 0 0 1-.076.023.14.14 0 0 1-.077-.024.15.15 0 0 1-.05-.062.14.14 0 0 1-.007-.08.14.14 0 0 1 .038-.07.13.13 0 0 1 .097-.039.13.13 0 0 1 .109.057.44.44 0 0 0 .296-.242.4.4 0 0 0 .045-.192l.002-.413a.45.45 0 0 0-.896-.005l-.003.654a.345.345 0 0 1-.134-.66.58.58 0 0 1 .293-.5.586.586 0 0 1 .877.505.343.343 0 0 1 .134.526M125.588 73.101l.609-.567-.009 1.828-.603-.574h-.231a.07.07 0 0 1-.053-.023.08.08 0 0 1-.022-.054l.003-.534q0-.015.006-.029a.1.1 0 0 1 .016-.024.068.068 0 0 1 .053-.023zM121.885 77.998a.07.07 0 0 1-.074.012.1.1 0 0 1-.03-.024.07.07 0 0 1 .009-.086l.323-.32.003-.548a.3.3 0 0 1 .041-.154.305.305 0 0 1 .565.1l.231-.231a.06.06 0 0 1 .047-.02q.014 0 .026.006a.1.1 0 0 1 .022.014.1.1 0 0 1 .015.022.05.05 0 0 1 .005.027.1.1 0 0 1-.005.026.1.1 0 0 1-.014.022zm.821.276.012.018a.1.1 0 0 1 .003.02.04.04 0 0 1-.004.02.04.04 0 0 1-.011.016.055.055 0 0 1-.039.015l-.511-.003a.1.1 0 0 1-.02-.004.05.05 0 0 1-.027-.027.04.04 0 0 1-.003-.02.04.04 0 0 1 .003-.02.1.1 0 0 1 .012-.018.046.046 0 0 1 .035-.015l.188-.024v-.077h.136v.077l.188.026a.1.1 0 0 1 .021.004zm-.425-.286a.3.3 0 0 1-.105-.087l.549-.544v.358a.31.31 0 0 1-.307.306.3.3 0 0 1-.135-.033zM75.195 65.783l.285.172-.056.233-.329.03-.014.02-.015.02-.017.021a.1.1 0 0 1-.02.019l.045.33-.216.103-.227-.24-.006-.002-.006.001-.006.002q-.003 0-.006-.002h-.012a.02.02 0 0 1-.012 0 .02.02 0 0 1-.014 0h-.013a.02.02 0 0 1-.014 0 .01.01 0 0 0-.014 0l-.226.24-.217-.103.045-.332-.015-.02-.018-.02-.015-.02-.014-.02-.33-.03-.054-.231.288-.175.003-.024.005-.024.013-.048-.186-.279.151-.185.313.115.02-.01a.1.1 0 0 1 .023-.01l.024-.01.022-.011.103-.32.24.004.1.313a.1.1 0 0 0 .026.013l.022.01.023.013a.1.1 0 0 1 .022.015l.307-.124.151.192-.185.272.01.028.004.025.005.028.005.025zm-.612.505a.5.5 0 0 0 .16-.035.4.4 0 0 0 .13-.09.404.404 0 0 0 .09-.455.4.4 0 0 0-.09-.13.5.5 0 0 0-.13-.087.34.34 0 0 0-.16-.031.35.35 0 0 0-.161.031.5.5 0 0 0-.13.088.403.403 0 0 0-.088.453q.031.074.088.132.055.06.13.09.077.03.161.034M118.554 65.261q.024 0 .047.01a.1.1 0 0 1 .04.029l.712.71-.719.703a.124.124 0 0 1-.175 0h-.003a.2.2 0 0 1-.027-.04.13.13 0 0 1 0-.094.2.2 0 0 1 .027-.04l.532-.526-.523-.539a.123.123 0 0 1 .088-.21z"/><path fill="#B0AFAF" d="M118.93 65.852h-1.153a.15.15 0 0 0 0 .3h1.153a.15.15 0 0 0 0-.3"/></g><defs><linearGradient id="b" x1="87.494" x2="87.494" y1="26.316" y2="85.449" gradientUnits="userSpaceOnUse"><stop stop-color="#848383"/><stop offset=".512" stop-color="#7E7D7D"/><stop offset=".971" stop-color="#797979"/><stop offset=".977" stop-color="#747474"/><stop offset=".986" stop-color="#646464"/><stop offset=".995" stop-color="#4B4A4A"/><stop offset="1" stop-color="#393838"/></linearGradient><linearGradient id="d" x1="53.2" x2="53.995" y1="26.519" y2="85.113" gradientUnits="userSpaceOnUse"><stop stop-color="#717070"/><stop offset=".006" stop-color="#6C6B6B"/><stop offset=".042" stop-color="#515050"/><stop offset=".075" stop-color="#414040"/><stop offset=".1" stop-color="#3B3A3A"/><stop offset=".412" stop-color="#3D3C3C"/><stop offset=".594" stop-color="#464545"/><stop offset=".742" stop-color="#545353"/><stop offset=".871" stop-color="#686767"/><stop offset=".955" stop-color="#797878"/><stop offset=".967" stop-color="#757474"/><stop offset=".979" stop-color="#696868"/><stop offset=".991" stop-color="#555454"/><stop offset="1" stop-color="#3F3E3E"/></linearGradient><linearGradient id="e" x1="45.729" x2="61.047" y1="74.665" y2="74.673" gradientUnits="userSpaceOnUse"><stop stop-color="#1B1B1B"/><stop offset=".58" stop-color="#1B1B1B"/><stop offset=".676" stop-color="#1B1B1B"/><stop offset=".875" stop-color="#1D1D1D"/><stop offset=".949" stop-color="#242424"/><stop offset="1" stop-color="#2F2F2F"/></linearGradient><linearGradient id="f" x1="46.202" x2="60.817" y1="74.749" y2="74.755" gradientUnits="userSpaceOnUse"><stop stop-color="#171616" stop-opacity="0"/><stop offset=".417" stop-color="#191818" stop-opacity=".013"/><stop offset=".567" stop-color="#1E1D1D" stop-opacity=".059"/><stop offset=".674" stop-color="#282727" stop-opacity=".14"/><stop offset=".761" stop-color="#363535" stop-opacity=".256"/><stop offset=".835" stop-color="#494848" stop-opacity=".407"/><stop offset=".9" stop-color="#605E5E" stop-opacity=".593"/><stop offset=".958" stop-color="#7A7979" stop-opacity=".809"/><stop offset="1" stop-color="#929090"/></linearGradient><linearGradient id="i" x1="40.611" x2="40.611" y1="76.557" y2="94.748" gradientUnits="userSpaceOnUse"><stop offset=".262" stop-color="#1A1A1B"/><stop offset=".588" stop-color="#8E8E8E" stop-opacity=".744"/><stop offset=".857" stop-color="#DEDEDE" stop-opacity=".567"/><stop offset="1" stop-color="#FCFCFC" stop-opacity=".5"/></linearGradient><linearGradient id="j" x1="51.274" x2="51.274" y1="81.204" y2="95.329" gradientUnits="userSpaceOnUse"><stop stop-color="#292929"/><stop offset=".278" stop-color="#6E6C6D"/><stop offset=".468" stop-color="#989697"/><stop offset=".543" stop-color="#949293"/><stop offset=".618" stop-color="#888687"/><stop offset=".693" stop-color="#747374"/><stop offset=".767" stop-color="#585859"/><stop offset=".837" stop-color="#373738"/><stop offset=".918" stop-color="#494949"/><stop offset="1" stop-color="#565656"/></linearGradient><linearGradient id="k" x1="99.913" x2="99.913" y1="6.258" y2="53.828" gradientUnits="userSpaceOnUse"><stop stop-color="#555454"/><stop offset=".756" stop-color="#494949"/><stop offset=".838" stop-color="#474747"/><stop offset=".848" stop-color="#535353"/><stop offset=".871" stop-color="#696969"/><stop offset=".894" stop-color="#767676"/><stop offset=".915" stop-color="#7A7A7A"/><stop offset=".923" stop-color="#7B7B7B"/><stop offset="1" stop-color="#7D7D7D"/></linearGradient><linearGradient id="l" x1="99.938" x2="99.938" y1="46.282" y2="53.548" gradientUnits="userSpaceOnUse"><stop stop-color="#696665"/><stop offset=".19" stop-color="#7C7978"/><stop offset=".53" stop-color="#A6A5A4"/><stop offset="1" stop-color="#CBCAC9"/></linearGradient><linearGradient id="m" x1="72.225" x2="129.528" y1="7.494" y2="46.594" gradientUnits="userSpaceOnUse"><stop stop-color="#0F0F0F"/><stop offset=".973" stop-color="#010101"/></linearGradient><linearGradient id="o" x1="96.881" x2="102.793" y1="3.258" y2="3.258" gradientUnits="userSpaceOnUse"><stop stop-color="#282726"/><stop offset=".474" stop-color="#4B4B4C"/><stop offset=".973" stop-color="#57585D"/></linearGradient><linearGradient id="p" x1="99.887" x2="99.887" y1=".372" y2="6.496" gradientUnits="userSpaceOnUse"><stop stop-color="#7D7C7D"/><stop offset=".966" stop-color="#3F3C3B"/></linearGradient><linearGradient id="q" x1="99.886" x2="99.886" y1=".574" y2="6.496" gradientUnits="userSpaceOnUse"><stop stop-color="#E2E2E1"/><stop offset=".484" stop-color="#625F5D"/><stop offset=".966" stop-color="#323130"/></linearGradient><linearGradient id="r" x1="99.886" x2="99.886" y1=".776" y2="6.397" gradientUnits="userSpaceOnUse"><stop stop-color="#797776"/><stop offset=".494" stop-color="#777574"/><stop offset=".966" stop-color="#6A6867"/></linearGradient><linearGradient id="s" x1="99.861" x2="99.861" y1=".928" y2="6.248" gradientUnits="userSpaceOnUse"><stop stop-color="#292826"/><stop offset=".496" stop-color="#6A6A6B"/><stop offset=".966" stop-color="#D4D3D3"/></linearGradient><linearGradient id="t" x1="99.405" x2="100.591" y1="3.119" y2="4.118" gradientUnits="userSpaceOnUse"><stop stop-color="#211429"/><stop offset=".372" stop-color="#0B0B0B"/><stop offset=".692" stop-color="#131312"/><stop offset=".966" stop-color="#BAB9B3"/></linearGradient><linearGradient id="u" x1="99.478" x2="99.775" y1="3.197" y2="3.387" gradientUnits="userSpaceOnUse"><stop stop-color="#4F3257"/><stop offset=".966" stop-color="#4A3B4D"/></linearGradient><linearGradient id="v" x1="63.882" x2="43.49" y1="19.174" y2="81.41" gradientUnits="userSpaceOnUse"><stop offset=".015" stop-color="#656566"/><stop offset=".11" stop-color="#74757B"/><stop offset=".143" stop-color="#707177"/><stop offset=".313" stop-color="#606064"/><stop offset=".432" stop-color="#5A5A5D"/><stop offset=".828" stop-color="#5E5F60"/><stop offset=".888" stop-color="#4A4A4B"/><stop offset=".952" stop-color="#585858"/><stop offset=".958" stop-color="#535353"/><stop offset=".977" stop-color="#494848"/><stop offset=".999" stop-color="#464545"/></linearGradient><linearGradient id="y" x1="88.78" x2="94.551" y1="54.939" y2="54.819" gradientUnits="userSpaceOnUse"><stop stop-color="#1B1B1B"/><stop offset=".58" stop-color="#1B1B1B"/><stop offset=".676" stop-color="#1B1B1B"/><stop offset=".875" stop-color="#1D1D1D"/><stop offset=".949" stop-color="#242424"/><stop offset="1" stop-color="#2F2F2F"/></linearGradient><linearGradient id="z" x1="90.638" x2="95.869" y1="62.469" y2="62.469" gradientUnits="userSpaceOnUse"><stop stop-color="#626262"/><stop offset=".982" stop-color="#797979"/></linearGradient><linearGradient id="A" x1="95.665" x2="101.435" y1="54.789" y2="54.669" gradientUnits="userSpaceOnUse"><stop stop-color="#1B1B1B"/><stop offset=".58" stop-color="#1B1B1B"/><stop offset=".676" stop-color="#1B1B1B"/><stop offset=".875" stop-color="#1D1D1D"/><stop offset=".949" stop-color="#242424"/><stop offset="1" stop-color="#2F2F2F"/></linearGradient><linearGradient id="B" x1="97.455" x2="102.686" y1="62.469" y2="62.469" gradientUnits="userSpaceOnUse"><stop stop-color="#626262"/><stop offset=".982" stop-color="#797979"/></linearGradient><linearGradient id="C" x1="102.547" x2="108.318" y1="54.639" y2="54.519" gradientUnits="userSpaceOnUse"><stop stop-color="#1B1B1B"/><stop offset=".58" stop-color="#1B1B1B"/><stop offset=".676" stop-color="#1B1B1B"/><stop offset=".875" stop-color="#1D1D1D"/><stop offset=".949" stop-color="#242424"/><stop offset="1" stop-color="#2F2F2F"/></linearGradient><linearGradient id="D" x1="104.27" x2="109.501" y1="62.469" y2="62.469" gradientUnits="userSpaceOnUse"><stop stop-color="#626262"/><stop offset=".982" stop-color="#797979"/></linearGradient><linearGradient id="E" x1="88.891" x2="94.661" y1="60.269" y2="60.15" gradientUnits="userSpaceOnUse"><stop stop-color="#1B1B1B"/><stop offset=".58" stop-color="#1B1B1B"/><stop offset=".676" stop-color="#1B1B1B"/><stop offset=".875" stop-color="#1D1D1D"/><stop offset=".949" stop-color="#242424"/><stop offset="1" stop-color="#2F2F2F"/></linearGradient><linearGradient id="F" x1="90.638" x2="95.869" y1="67.731" y2="67.731" gradientUnits="userSpaceOnUse"><stop stop-color="#626262"/><stop offset=".982" stop-color="#797979"/></linearGradient><linearGradient id="G" x1="95.775" x2="101.545" y1="60.119" y2="60" gradientUnits="userSpaceOnUse"><stop stop-color="#1B1B1B"/><stop offset=".58" stop-color="#1B1B1B"/><stop offset=".676" stop-color="#1B1B1B"/><stop offset=".875" stop-color="#1D1D1D"/><stop offset=".949" stop-color="#242424"/><stop offset="1" stop-color="#2F2F2F"/></linearGradient><linearGradient id="H" x1="97.455" x2="102.686" y1="67.731" y2="67.731" gradientUnits="userSpaceOnUse"><stop stop-color="#626262"/><stop offset=".982" stop-color="#797979"/></linearGradient><linearGradient id="I" x1="102.658" x2="108.428" y1="59.969" y2="59.85" gradientUnits="userSpaceOnUse"><stop stop-color="#1B1B1B"/><stop offset=".58" stop-color="#1B1B1B"/><stop offset=".676" stop-color="#1B1B1B"/><stop offset=".875" stop-color="#1D1D1D"/><stop offset=".949" stop-color="#242424"/><stop offset="1" stop-color="#2F2F2F"/></linearGradient><linearGradient id="J" x1="104.27" x2="109.501" y1="67.731" y2="67.731" gradientUnits="userSpaceOnUse"><stop stop-color="#626262"/><stop offset=".982" stop-color="#797979"/></linearGradient><linearGradient id="K" x1="70.279" x2="82.919" y1="66.338" y2="66.076" gradientUnits="userSpaceOnUse"><stop stop-color="#1B1B1B"/><stop offset=".58" stop-color="#1B1B1B"/><stop offset=".676" stop-color="#1B1B1B"/><stop offset=".875" stop-color="#1D1D1D"/><stop offset=".949" stop-color="#242424"/><stop offset="1" stop-color="#2F2F2F"/></linearGradient><linearGradient id="L" x1="72.066" x2="84.188" y1="73.384" y2="73.384" gradientUnits="userSpaceOnUse"><stop stop-color="#626262"/><stop offset=".982" stop-color="#797979"/></linearGradient><linearGradient id="M" x1="70.034" x2="75.805" y1="58.775" y2="58.656" gradientUnits="userSpaceOnUse"><stop stop-color="#1B1B1B"/><stop offset=".58" stop-color="#1B1B1B"/><stop offset=".676" stop-color="#1B1B1B"/><stop offset=".875" stop-color="#1D1D1D"/><stop offset=".949" stop-color="#242424"/><stop offset="1" stop-color="#2F2F2F"/></linearGradient><linearGradient id="N" x1="71.951" x2="77.264" y1="65.917" y2="65.917" gradientUnits="userSpaceOnUse"><stop stop-color="#626262"/><stop offset=".982" stop-color="#797979"/></linearGradient><linearGradient id="O" x1="77.222" x2="82.993" y1="58.619" y2="58.499" gradientUnits="userSpaceOnUse"><stop stop-color="#1B1B1B"/><stop offset=".58" stop-color="#1B1B1B"/><stop offset=".676" stop-color="#1B1B1B"/><stop offset=".875" stop-color="#1D1D1D"/><stop offset=".949" stop-color="#242424"/><stop offset="1" stop-color="#2F2F2F"/></linearGradient><linearGradient id="P" x1="79.068" x2="84.381" y1="65.917" y2="65.917" gradientUnits="userSpaceOnUse"><stop stop-color="#626262"/><stop offset=".982" stop-color="#797979"/></linearGradient><linearGradient id="Q" x1="73.697" x2="79.467" y1="54.683" y2="54.564" gradientUnits="userSpaceOnUse"><stop stop-color="#1B1B1B"/><stop offset=".58" stop-color="#1B1B1B"/><stop offset=".676" stop-color="#1B1B1B"/><stop offset=".875" stop-color="#1D1D1D"/><stop offset=".949" stop-color="#242424"/><stop offset="1" stop-color="#2F2F2F"/></linearGradient><linearGradient id="R" x1="75.66" x2="80.973" y1="61.958" y2="61.958" gradientUnits="userSpaceOnUse"><stop stop-color="#626262"/><stop offset=".982" stop-color="#797979"/></linearGradient><linearGradient id="S" x1="114.121" x2="119.891" y1="57.815" y2="57.696" gradientUnits="userSpaceOnUse"><stop stop-color="#1B1B1B"/><stop offset=".58" stop-color="#1B1B1B"/><stop offset=".676" stop-color="#1B1B1B"/><stop offset=".875" stop-color="#1D1D1D"/><stop offset=".949" stop-color="#242424"/><stop offset="1" stop-color="#2F2F2F"/></linearGradient><linearGradient id="T" x1="115.601" x2="120.915" y1="65.917" y2="65.917" gradientUnits="userSpaceOnUse"><stop stop-color="#626262"/><stop offset=".982" stop-color="#797979"/></linearGradient><linearGradient id="U" x1="121.309" x2="127.079" y1="57.659" y2="57.539" gradientUnits="userSpaceOnUse"><stop stop-color="#1B1B1B"/><stop offset=".58" stop-color="#1B1B1B"/><stop offset=".676" stop-color="#1B1B1B"/><stop offset=".875" stop-color="#1D1D1D"/><stop offset=".949" stop-color="#242424"/><stop offset="1" stop-color="#2F2F2F"/></linearGradient><linearGradient id="V" x1="122.718" x2="128.032" y1="65.917" y2="65.917" gradientUnits="userSpaceOnUse"><stop stop-color="#626262"/><stop offset=".982" stop-color="#797979"/></linearGradient><linearGradient id="W" x1="117.784" x2="123.554" y1="53.723" y2="53.603" gradientUnits="userSpaceOnUse"><stop stop-color="#1B1B1B"/><stop offset=".58" stop-color="#1B1B1B"/><stop offset=".676" stop-color="#1B1B1B"/><stop offset=".875" stop-color="#1D1D1D"/><stop offset=".949" stop-color="#242424"/><stop offset="1" stop-color="#2F2F2F"/></linearGradient><linearGradient id="X" x1="119.31" x2="124.624" y1="61.958" y2="61.958" gradientUnits="userSpaceOnUse"><stop stop-color="#626262"/><stop offset=".982" stop-color="#797979"/></linearGradient><linearGradient id="Y" x1="114.732" x2="120.503" y1="65.319" y2="65.199" gradientUnits="userSpaceOnUse"><stop stop-color="#1B1B1B"/><stop offset=".58" stop-color="#1B1B1B"/><stop offset=".676" stop-color="#1B1B1B"/><stop offset=".875" stop-color="#1D1D1D"/><stop offset=".949" stop-color="#242424"/><stop offset="1" stop-color="#2F2F2F"/></linearGradient><linearGradient id="Z" x1="116.053" x2="121.366" y1="73.334" y2="73.334" gradientUnits="userSpaceOnUse"><stop stop-color="#626262"/><stop offset=".982" stop-color="#797979"/></linearGradient><linearGradient id="aa" x1="121.921" x2="127.691" y1="65.162" y2="65.043" gradientUnits="userSpaceOnUse"><stop stop-color="#1B1B1B"/><stop offset=".58" stop-color="#1B1B1B"/><stop offset=".676" stop-color="#1B1B1B"/><stop offset=".875" stop-color="#1D1D1D"/><stop offset=".949" stop-color="#242424"/><stop offset="1" stop-color="#2F2F2F"/></linearGradient><linearGradient id="ab" x1="123.169" x2="128.482" y1="73.334" y2="73.334" gradientUnits="userSpaceOnUse"><stop stop-color="#626262"/><stop offset=".982" stop-color="#797979"/></linearGradient><linearGradient id="ac" x1="118.466" x2="124.237" y1="69.504" y2="69.384" gradientUnits="userSpaceOnUse"><stop stop-color="#1B1B1B"/><stop offset=".58" stop-color="#1B1B1B"/><stop offset=".676" stop-color="#1B1B1B"/><stop offset=".875" stop-color="#1D1D1D"/><stop offset=".949" stop-color="#242424"/><stop offset="1" stop-color="#2F2F2F"/></linearGradient><linearGradient id="ad" x1="119.662" x2="124.975" y1="77.543" y2="77.543" gradientUnits="userSpaceOnUse"><stop stop-color="#626262"/><stop offset=".982" stop-color="#797979"/></linearGradient><linearGradient id="ae" x1="95.886" x2="101.656" y1="65.45" y2="65.33" gradientUnits="userSpaceOnUse"><stop stop-color="#1B1B1B"/><stop offset=".58" stop-color="#1B1B1B"/><stop offset=".676" stop-color="#1B1B1B"/><stop offset=".875" stop-color="#1D1D1D"/><stop offset=".949" stop-color="#242424"/><stop offset="1" stop-color="#2F2F2F"/></linearGradient><linearGradient id="af" x1="97.455" x2="102.686" y1="72.993" y2="72.993" gradientUnits="userSpaceOnUse"><stop stop-color="#626262"/><stop offset=".982" stop-color="#797979"/></linearGradient><linearGradient id="ag" x1="89.001" x2="94.772" y1="65.6" y2="65.48" gradientUnits="userSpaceOnUse"><stop stop-color="#1B1B1B"/><stop offset=".58" stop-color="#1B1B1B"/><stop offset=".676" stop-color="#1B1B1B"/><stop offset=".875" stop-color="#1D1D1D"/><stop offset=".949" stop-color="#242424"/><stop offset="1" stop-color="#2F2F2F"/></linearGradient><linearGradient id="ah" x1="90.638" x2="95.869" y1="72.993" y2="72.993" gradientUnits="userSpaceOnUse"><stop stop-color="#626262"/><stop offset=".982" stop-color="#797979"/></linearGradient><linearGradient id="ai" x1="102.768" x2="108.539" y1="65.3" y2="65.18" gradientUnits="userSpaceOnUse"><stop stop-color="#1B1B1B"/><stop offset=".58" stop-color="#1B1B1B"/><stop offset=".676" stop-color="#1B1B1B"/><stop offset=".875" stop-color="#1D1D1D"/><stop offset=".949" stop-color="#242424"/><stop offset="1" stop-color="#2F2F2F"/></linearGradient><linearGradient id="aj" x1="104.27" x2="109.501" y1="72.993" y2="72.993" gradientUnits="userSpaceOnUse"><stop stop-color="#626262"/><stop offset=".982" stop-color="#797979"/></linearGradient><linearGradient id="ak" x1="89.114" x2="94.884" y1="71.032" y2="70.912" gradientUnits="userSpaceOnUse"><stop stop-color="#1B1B1B"/><stop offset=".58" stop-color="#1B1B1B"/><stop offset=".676" stop-color="#1B1B1B"/><stop offset=".875" stop-color="#1D1D1D"/><stop offset=".949" stop-color="#242424"/><stop offset="1" stop-color="#2F2F2F"/></linearGradient><linearGradient id="al" x1="90.638" x2="95.869" y1="78.356" y2="78.356" gradientUnits="userSpaceOnUse"><stop stop-color="#626262"/><stop offset=".982" stop-color="#797979"/></linearGradient><linearGradient id="am" x1="95.998" x2="101.768" y1="70.882" y2="70.762" gradientUnits="userSpaceOnUse"><stop stop-color="#1B1B1B"/><stop offset=".58" stop-color="#1B1B1B"/><stop offset=".676" stop-color="#1B1B1B"/><stop offset=".875" stop-color="#1D1D1D"/><stop offset=".949" stop-color="#242424"/><stop offset="1" stop-color="#2F2F2F"/></linearGradient><linearGradient id="an" x1="97.455" x2="102.686" y1="78.356" y2="78.356" gradientUnits="userSpaceOnUse"><stop stop-color="#626262"/><stop offset=".982" stop-color="#797979"/></linearGradient><linearGradient id="ao" x1="102.881" x2="108.651" y1="70.732" y2="70.612" gradientUnits="userSpaceOnUse"><stop stop-color="#1B1B1B"/><stop offset=".58" stop-color="#1B1B1B"/><stop offset=".676" stop-color="#1B1B1B"/><stop offset=".875" stop-color="#1D1D1D"/><stop offset=".949" stop-color="#242424"/><stop offset="1" stop-color="#2F2F2F"/></linearGradient><linearGradient id="ap" x1="104.27" x2="109.501" y1="78.356" y2="78.356" gradientUnits="userSpaceOnUse"><stop stop-color="#626262"/><stop offset=".982" stop-color="#797979"/></linearGradient><radialGradient id="c" cx="0" cy="0" r="1" gradientTransform="rotate(172.129 28.55 14.821)scale(4.11528 15.4635)" gradientUnits="userSpaceOnUse"><stop stop-color="#141414"/><stop offset=".431" stop-color="#161616"/><stop offset=".587" stop-color="#1D1C1C"/><stop offset=".697" stop-color="#282727"/><stop offset=".743" stop-color="#302E2E"/><stop offset=".791" stop-color="#333131"/><stop offset=".833" stop-color="#3E3C3C"/><stop offset=".872" stop-color="#4F4E4E"/><stop offset=".909" stop-color="#676666"/><stop offset=".945" stop-color="#868686"/><stop offset=".947" stop-color="#888"/></radialGradient><radialGradient id="g" cx="0" cy="0" r="1" gradientTransform="rotate(1.268 -2472.783 2455.988)scale(10.904 30.3406)" gradientUnits="userSpaceOnUse"><stop offset=".281"/><stop offset="1" stop-opacity="0"/></radialGradient><radialGradient id="h" cx="0" cy="0" r="1" gradientTransform="rotate(-163.012 28.715 38.972)scale(17.1558 11.3743)" gradientUnits="userSpaceOnUse"><stop offset=".42" stop-color="#1A1A1B"/><stop offset=".507" stop-color="#4C4B4C"/><stop offset=".58" stop-color="#706E6F"/><stop offset=".619" stop-color="#7D7B7C"/><stop offset=".691" stop-color="#514F50"/><stop offset=".754" stop-color="#2E2C2D"/><stop offset=".795" stop-color="#323132"/><stop offset=".843" stop-color="#3F3E40"/><stop offset=".857" stop-color="#444345"/></radialGradient><radialGradient id="n" cx="0" cy="0" r="1" gradientTransform="translate(100.108 50.956)scale(2.87628)" gradientUnits="userSpaceOnUse"><stop offset=".28" stop-color="#B4B2B0"/><stop offset=".478" stop-color="#A8A6A4"/><stop offset=".836" stop-color="#888785"/><stop offset="1" stop-color="#777675"/></radialGradient><radialGradient id="w" cx="0" cy="0" r="1" gradientTransform="matrix(9.21095 0 0 65.9043 52.98 51.521)" gradientUnits="userSpaceOnUse"><stop stop-color="#AFAFAF"/><stop offset=".463" stop-color="#878584"/><stop offset=".656" stop-color="#767473"/><stop offset=".825" stop-color="#6D6A69"/><stop offset=".996" stop-color="#636261"/></radialGradient><radialGradient id="x" cx="0" cy="0" r="1" gradientTransform="matrix(.16097 7.93268 -5.68592 .11538 51.847 79.492)" gradientUnits="userSpaceOnUse"><stop offset=".693" stop-color="#575656"/><stop offset=".751" stop-color="#595858" stop-opacity=".938"/><stop offset=".823" stop-color="#5F5E5E" stop-opacity=".76"/><stop offset=".904" stop-color="#696767" stop-opacity=".466"/><stop offset=".989" stop-color="#767474" stop-opacity=".059"/><stop offset="1" stop-color="#787676" stop-opacity="0"/></radialGradient><clipPath id="a"><path fill="#fff" d="M31 0h103.806v96H31z"/></clipPath></defs></svg>