<svg xmlns="http://www.w3.org/2000/svg" width="32" height="32" viewBox="0 0 32 32"><path d="M25 5.5H7A4.505 4.505 0 0 0 2.5 10v12A4.505 4.505 0 0 0 7 26.5h18a4.505 4.505 0 0 0 4.5-4.5V10A4.505 4.505 0 0 0 25 5.5M28.5 22a3.504 3.504 0 0 1-3.5 3.5H7A3.504 3.504 0 0 1 3.5 22V10A3.504 3.504 0 0 1 7 6.5h18a3.505 3.505 0 0 1 3.5 3.5zM16 15.118a5.46 5.46 0 0 0-3.889 1.61.5.5 0 0 0 .707.708 4.5 4.5 0 0 1 6.364 0 .5.5 0 0 0 .707-.707A5.46 5.46 0 0 0 16 15.118M15.293 19.203a1 1 0 1 0 1.416 1.415 1 1 0 0 0-1.416-1.415M16 11.114A9.44 9.44 0 0 0 9.282 13.9a.5.5 0 1 0 .707.707 8.49 8.49 0 0 1 12.021 0 .5.5 0 0 0 .707-.707A9.44 9.44 0 0 0 16 11.114"/></svg>