<svg xmlns="http://www.w3.org/2000/svg" width="32" height="32" viewBox="0 0 32 32"><path d="M14.475 3.536v24.336q0 .079.023.15a18.02 18.02 0 0 1-8.522-12.42l-.183-1.068a20.3 20.3 0 0 1-.293-3.435V8.754a.5.5 0 0 1 .248-.432l7.466-4.347c.395-.23.823-.376 1.261-.44m1 0c.438.063.866.21 1.261.44l7.465 4.346a.5.5 0 0 1 .249.432V10.2a29.5 29.5 0 0 1-.464 5.213l-.246 1.37a.5.5 0 1 0 .984.177l.246-1.37a30.5 30.5 0 0 0 .48-5.39V8.754a1.5 1.5 0 0 0-.745-1.296L17.239 3.11a4.5 4.5 0 0 0-4.528 0L5.245 7.458A1.5 1.5 0 0 0 4.5 8.754v2.345c0 1.208.103 2.413.307 3.604l.184 1.068a19.02 19.02 0 0 0 9.42 13.357c.356.2.793.19 1.14-.027l2.689-1.68a.5.5 0 0 0-.53-.849l-2.246 1.404a.5.5 0 0 0 .011-.104zm12.95 19.277-.408-1.255a1 1 0 0 0-1.146-.672l-.89.177-.79-.545-.076-.85a1 1 0 0 0-.996-.912h-1.32a1 1 0 0 0-.993.883l-.106.9-.762.584-.833-.19a1 1 0 0 0-1.175.667l-.405 1.254a1 1 0 0 0 .531 1.215l.822.38.32.906-.438.733a1 1 0 0 0 .27 1.323l1.067.775a1 1 0 0 0 1.332-.14l.604-.674.951.001.572.656a1 1 0 0 0 1.351.145l1.068-.795a1 1 0 0 0 .275-1.29l-.443-.792.273-.92.786-.335a1 1 0 0 0 .559-1.23m-2.17.828-.526 1.776.648 1.16-1.067.795-.87-.998-1.853-.002-.902 1.005-1.067-.775.68-1.137-.618-1.746-1.204-.558.406-1.254 1.29.296 1.47-1.127.157-1.32h1.32l.117 1.32 1.527 1.05 1.303-.26.408 1.256zm-2.781.987a1 1 0 1 0 0-2 1 1 0 0 0 0 2"/></svg>