<svg xmlns="http://www.w3.org/2000/svg" width="32" height="32" viewBox="0 0 32 32"><path d="M25 5H7a5.006 5.006 0 0 0-5 5v12a5.006 5.006 0 0 0 5 5h18a5.006 5.006 0 0 0 5-5V10a5.005 5.005 0 0 0-5-5m3 17a3.003 3.003 0 0 1-3 3H7a3.003 3.003 0 0 1-3-3V10a3.003 3.003 0 0 1 3-3h18a3.003 3.003 0 0 1 3 3zM16 14.618a5.96 5.96 0 0 0-4.243 1.757 1 1 0 0 0 1.415 1.415 4.095 4.095 0 0 1 5.657 0 1 1 0 0 0 1.414-1.415A5.96 5.96 0 0 0 16 14.618M16 21.41a1.5 1.5 0 1 0 0-3 1.5 1.5 0 0 0 0 3M16 10.614a9.93 9.93 0 0 0-7.071 2.932 1 1 0 1 0 1.414 1.414 7.99 7.99 0 0 1 11.314 0 1 1 0 0 0 1.414-1.414A9.93 9.93 0 0 0 16 10.614"/></svg>