<svg xmlns="http://www.w3.org/2000/svg" width="32" height="32" viewBox="0 0 32 32"><path d="m4.42 24.717 10.994 4.668c.37.153.787.152 1.157 0l11.005-4.667a1.5 1.5 0 0 0 .924-1.385V8.667a1.495 1.495 0 0 0-.92-1.384L16.566 2.616a1.5 1.5 0 0 0-1.157 0L4.423 7.284A1.495 1.495 0 0 0 3.5 8.668v14.666a1.495 1.495 0 0 0 .92 1.383m11.765 3.745a.5.5 0 0 1-.383 0L5.306 24.008l10.522-4.385a.5.5 0 0 1 .385 0l10.492 4.38zM27.193 8.205a.5.5 0 0 1 .307.462v14.582L16.599 18.7c-.032-.013-.066-.019-.099-.03V3.673zm-22.385.001.003-.001L15.5 3.665v15.017q-.028.009-.056.017L4.5 23.259V8.669a.5.5 0 0 1 .308-.462"/></svg>