<svg xmlns="http://www.w3.org/2000/svg" width="32" height="32" viewBox="0 0 32 32"><path d="M3.707 2.293a1 1 0 0 0-1.414 1.414l26 26a1 1 0 0 0 1.414-1.414zM15 4.416v6.341l2 2V4.43l10 4.238-.006 13.83-.438-.184 2.117 2.118c.214-.326.328-.708.327-1.098V8.667a1.99 1.99 0 0 0-1.225-1.844L16.76 2.154a2 2 0 0 0-.768-.152c-.267 0-.53.052-.777.154L9.027 4.784l1.524 1.524zM3 8.668c0-.39.113-.772.327-1.098L5 9.243V22.51l9.365-3.903 1.529 1.53-9.299 3.875 9.402 3.99 5.45-2.312 1.524 1.524-6.205 2.63a2.02 2.02 0 0 1-1.546.001L4.224 25.178A1.99 1.99 0 0 1 3 23.333z"/></svg>