<svg xmlns="http://www.w3.org/2000/svg" width="180" height="96" fill="none" viewBox="0 0 180 96"><g clip-path="url(#a)"><path fill="url(#b)" fill-rule="evenodd" d="M164.798 60.974H15.202A5.2 5.2 0 0 1 10 55.772v-15.57A5.2 5.2 0 0 1 15.203 35h149.595A5.2 5.2 0 0 1 170 40.203v15.569a5.2 5.2 0 0 1-5.202 5.202" clip-rule="evenodd"/><path fill="url(#c)" fill-rule="evenodd" d="M164.804 59.935H15.196a4.157 4.157 0 0 1-4.157-4.157V40.196a4.157 4.157 0 0 1 4.157-4.157h149.608a4.157 4.157 0 0 1 4.157 4.157v15.582a4.157 4.157 0 0 1-4.157 4.157" clip-rule="evenodd"/><path fill="url(#d)" fill-rule="evenodd" d="M83.248 47.988a6.76 6.76 0 0 0 6.753 6.753 6.76 6.76 0 0 0 6.753-6.753 6.76 6.76 0 0 0-6.753-6.754 6.76 6.76 0 0 0-6.753 6.754" clip-rule="evenodd"/><path fill="#3A3E49" fill-rule="evenodd" d="M92.597 47.987A2.6 2.6 0 0 1 90 50.584a2.6 2.6 0 0 1-2.598-2.597A2.6 2.6 0 0 1 90 45.389a2.6 2.6 0 0 1 2.597 2.598" clip-rule="evenodd"/><path fill="#fff" fill-rule="evenodd" d="M89.696 46.215c.202.202.037.695-.368 1.1s-.9.571-1.101.37c-.202-.203-.037-.697.368-1.102s.9-.57 1.101-.368" clip-rule="evenodd" opacity=".5"/><path stroke="#000" stroke-miterlimit="10" stroke-width=".52" d="M90 45.39a2.595 2.595 0 0 1 2.597 2.597A2.595 2.595 0 0 1 90 50.584a2.595 2.595 0 0 1-2.598-2.597A2.595 2.595 0 0 1 90 45.39Z" clip-rule="evenodd"/><path fill="#000" d="M90.001 41.962a6.033 6.033 0 0 1 6.026 6.026 6.033 6.033 0 0 1-6.026 6.026 6.033 6.033 0 0 1-6.026-6.026 6.033 6.033 0 0 1 6.026-6.026m0-.728a6.76 6.76 0 0 0-6.753 6.754 6.76 6.76 0 0 0 6.753 6.753 6.76 6.76 0 0 0 6.753-6.753 6.76 6.76 0 0 0-6.753-6.754" opacity=".2"/><path fill="url(#e)" d="M90 41.234a6.76 6.76 0 0 1 6.753 6.753A6.76 6.76 0 0 1 90 54.74a6.76 6.76 0 0 1-6.753-6.753A6.76 6.76 0 0 1 90 41.234m0-.728c-4.125 0-7.48 3.356-7.48 7.48 0 4.126 3.355 7.481 7.48 7.481s7.48-3.355 7.48-7.48-3.355-7.48-7.48-7.48" opacity=".5"/><path fill="#fff" d="M23.782 48.392h-.456v1.805h.456zM27.456 48.91c-.02-.01-.166-.097-.384-.097-.294 0-.499.205-.499.481 0 .269.196.482.5.482.213 0 .363-.085.383-.095v.484c-.058.016-.213.065-.416.065-.512 0-.962-.354-.962-.935 0-.54.407-.935.962-.935.214 0 .372.052.416.065zM22.7 48.91c-.017-.01-.164-.097-.382-.097-.295 0-.499.205-.499.481 0 .269.196.482.5.482.213 0 .362-.085.382-.095v.484c-.057.016-.212.065-.415.065-.513 0-.962-.354-.962-.935 0-.54.407-.935.962-.935.214 0 .372.052.415.065zM29.843 49.294a.927.927 0 0 1-.954.935.927.927 0 0 1-.953-.935c0-.515.398-.934.953-.934s.954.419.954.934m-.954-.474a.467.467 0 0 0-.47.474c0 .263.2.475.47.475s.471-.212.471-.475a.467.467 0 0 0-.47-.474M25.51 48.802a1.6 1.6 0 0 0-.357-.055c-.182 0-.282.062-.282.148 0 .11.134.149.21.172l.125.04c.296.094.43.297.43.517 0 .453-.398.605-.747.605-.242 0-.47-.044-.492-.049v-.415c.04.01.231.067.43.067.227 0 .331-.066.331-.169 0-.091-.09-.144-.203-.18l-.097-.03c-.254-.081-.465-.23-.465-.529 0-.338.252-.564.672-.564.222 0 .43.053.444.057zM20.842 46.452a.226.226 0 0 0-.453 0v.474a.226.226 0 0 0 .453 0zM22.083 45.83a.226.226 0 0 0-.452 0v1.096a.226.226 0 0 0 .452 0zM23.325 44.979a.226.226 0 0 0-.452 0v2.397a.226.226 0 0 0 .452 0zM24.568 45.83a.226.226 0 0 0-.453 0v1.096a.226.226 0 0 0 .453 0zM25.809 46.452a.225.225 0 1 0-.452 0v.474a.226.226 0 1 0 .451 0zM27.053 45.83a.225.225 0 0 0-.451 0v1.096a.226.226 0 1 0 .45 0zM28.295 44.979a.225.225 0 0 0-.451 0v2.397a.225.225 0 1 0 .45 0zM29.538 45.83c0-.124-.101-.225-.229-.225a.225.225 0 0 0-.225.225v1.096c0 .125.1.226.225.226.128 0 .229-.101.229-.226zM30.778 46.452a.226.226 0 0 0-.452 0v.474a.226.226 0 1 0 .452 0z"/><path fill="#666" d="M89.999 44.264a.355.355 0 0 1-.355-.355v-.764a.355.355 0 0 1 .71 0v.764a.354.354 0 0 1-.355.355"/></g><defs><linearGradient id="b" x1="90" x2="90" y1="35" y2="60.974" gradientUnits="userSpaceOnUse"><stop offset="0" stop-color="#EEEDED"/><stop offset="1" stop-color="#C6C6C5"/></linearGradient><linearGradient id="c" x1="90" x2="90" y1="36.039" y2="59.935" gradientUnits="userSpaceOnUse"><stop offset="0" stop-color="#D8D8D7"/><stop offset="1" stop-color="#898889"/></linearGradient><linearGradient id="d" x1="90.001" x2="90.001" y1="54.741" y2="41.234" gradientUnits="userSpaceOnUse"><stop stop-color="#2B2B2B"/><stop offset=".42" stop-color="#535353"/><stop offset=".58" stop-color="#535353"/><stop offset="1" stop-color="#1C1C1C"/></linearGradient><linearGradient id="e" x1="82.519" x2="97.481" y1="47.987" y2="47.987" gradientUnits="userSpaceOnUse"><stop offset="0" stop-color="#fff"/><stop offset=".695" stop-color="#191919"/><stop offset="1" stop-color="#898889"/></linearGradient><clipPath id="a"><path fill="#fff" d="M0 0h180v96H0z"/></clipPath></defs></svg>