<svg xmlns="http://www.w3.org/2000/svg" width="32" height="32" viewBox="0 0 32 32"><path d="M3.354 2.646a.5.5 0 1 0-.708.708l26 26a.5.5 0 0 0 .708-.708zM4.423 7.283l.519-.22.762.763-.892.379-.004.001a.5.5 0 0 0-.308.462V23.26l10.944-4.561.03-.01.026-.007v-1.06l1 1v.047q.02.007.04.012l.027.007 1.856 1.856-2.21-.922a.5.5 0 0 0-.385 0L5.306 24.007l10.496 4.456a.5.5 0 0 0 .383 0l7.132-3.025.763.763-7.509 3.183c-.37.153-.786.154-1.157 0L4.419 24.718a1.5 1.5 0 0 1-.919-1.383V8.668a1.495 1.495 0 0 1 .923-1.385M15.5 3.665v9.714l1 1V3.673l10.693 4.532a.5.5 0 0 1 .307.462v14.582l-3.655-1.525 1.86 1.86 1 .417-.409.174.763.763.517-.22a1.5 1.5 0 0 0 .924-1.385V8.667a1.5 1.5 0 0 0-.92-1.384L16.566 2.616a1.5 1.5 0 0 0-1.157 0L7.92 5.799l.763.763z"/></svg>