<svg xmlns="http://www.w3.org/2000/svg" width="180" height="96" fill="none" viewBox="0 0 180 96"><g clip-path="url(#a)"><path fill="#000" fill-rule="evenodd" d="M12.963 77.222a1 1 0 0 1 1-1h152.074a1 1 0 0 1 1 1v3.882c0 .57-.444 1.025-1.013 1.001-7.323-.31-52.544-2.179-76.024-2.179s-68.7 1.87-76.024 2.18c-.569.023-1.013-.433-1.013-1.002z" clip-rule="evenodd"/><path fill="#E0E0E0" fill-rule="evenodd" d="M10 18.015c0-2.231 1.801-4.031 4.031-4.002 12.998.17 54.214.687 75.969.687s62.971-.517 75.968-.687A3.983 3.983 0 0 1 170 18.015v58.443c0 2.273-1.866 4.092-4.138 4.002-13.109-.515-54.131-2.056-75.862-2.056s-62.753 1.541-75.862 2.056C11.866 80.55 10 78.732 10 76.458z" clip-rule="evenodd"/><g filter="url(#b)"><path fill="url(#c)" fill-rule="evenodd" d="M10 18.015c0-2.231 1.801-4.031 4.031-4.002 12.998.17 54.214.687 75.969.687s62.971-.517 75.968-.687A3.983 3.983 0 0 1 170 18.015v58.443c0 2.273-1.866 4.092-4.138 4.002-13.109-.515-54.131-2.056-75.862-2.056s-62.753 1.541-75.862 2.056C11.866 80.55 10 78.732 10 76.458z" clip-rule="evenodd"/></g><mask id="d" width="160" height="67" x="10" y="14" maskUnits="userSpaceOnUse" style="mask-type:luminance"><path fill="#fff" fill-rule="evenodd" d="M10 18.015c0-2.231 1.801-4.031 4.032-4.002 12.998.172 54.213.692 75.968.692s62.97-.52 75.968-.692c2.231-.03 4.032 1.771 4.032 4.002v58.94c0 2.274-1.867 4.093-4.14 4.003-13.11-.52-54.13-2.072-75.86-2.072s-62.75 1.553-75.86 2.072c-2.273.09-4.14-1.729-4.14-4.003z" clip-rule="evenodd"/></mask><g mask="url(#d)"><path fill="url(#e)" d="M10 49.556h53.333v32.593H10z"/><g filter="url(#f)"><path fill="url(#g)" d="M63.334 49.556h53.333v32.593H63.334z"/></g><path fill="url(#h)" d="M116.666 49.556h53.333v32.593h-53.333z"/><g filter="url(#i)"><path fill="#000" fill-rule="evenodd" d="M10 29.111a4 4 0 0 1 4-4h152a4 4 0 0 1 4 4V53.49a3.993 3.993 0 0 1-4.166 4.002c-10.097-.444-36.029-1.534-49.455-1.655-8.743-.079-17.636.003-26.379.003-8.838 0-17.526-.08-26.364 0-13.355.121-39.357 1.21-49.471 1.653A3.99 3.99 0 0 1 10 53.49z" clip-rule="evenodd"/></g><path fill="#222" fill-rule="evenodd" d="M11.48 25.111h51.112V53.03a1 1 0 0 1-.971 1l-49.112 1.423a1 1 0 0 1-1.029-1zm52.926 0h51.112V53a1 1 0 0 1-1 1H65.406a1 1 0 0 1-1-1zm103.705 0H117V53.03a1 1 0 0 0 .971 1l49.111 1.423a1 1 0 0 0 1.029-1z" clip-rule="evenodd"/><path fill="url(#j)" fill-rule="evenodd" d="M11.48 25.111h51.112V53.03a1 1 0 0 1-.971 1l-49.112 1.423a1 1 0 0 1-1.029-1zm52.926 0h51.112V53a1 1 0 0 1-1 1H65.406a1 1 0 0 1-1-1zm103.705 0H117V53.03a1 1 0 0 0 .971 1l49.111 1.423a1 1 0 0 0 1.029-1z" clip-rule="evenodd"/></g><path fill="#EEE" fill-rule="evenodd" d="M11.48 18.524c0-1.675 1.342-3.027 3.017-3.001 11.576.173 53.593.777 75.502.777s63.926-.604 75.502-.777c1.674-.025 3.017 1.326 3.017 3v3.639s-52.909.493-78.519.493-78.518-.493-78.518-.493z" clip-rule="evenodd"/><rect width="3.463" height="1.241" x="86.787" y="23.38" fill="#000" stroke="#BABABA" stroke-width=".5" rx=".62"/></g><defs><linearGradient id="c" x1="77.445" x2="77.445" y1="67.823" y2="78.26" gradientUnits="userSpaceOnUse"><stop stop-opacity=".01"/><stop offset="1" stop-opacity=".04"/></linearGradient><linearGradient id="e" x1="60.106" x2="8.034" y1="49.556" y2="59.867" gradientUnits="userSpaceOnUse"><stop stop-opacity=".01"/><stop offset="1" stop-opacity=".01"/></linearGradient><linearGradient id="g" x1="116.667" x2="63.334" y1="49.556" y2="49.556" gradientUnits="userSpaceOnUse"><stop stop-opacity=".02"/><stop offset=".491" stop-opacity=".01"/><stop offset="1" stop-opacity=".02"/></linearGradient><linearGradient id="h" x1="114.664" x2="167.501" y1="82.148" y2="88.638" gradientUnits="userSpaceOnUse"><stop stop-opacity=".01"/><stop offset="1" stop-opacity=".01"/></linearGradient><linearGradient id="j" x1="-87.455" x2="-85.341" y1="5.969" y2="67.345" gradientUnits="userSpaceOnUse"><stop stop-color="#fff" stop-opacity=".24"/><stop offset="1" stop-opacity=".5"/></linearGradient><filter id="b" width="160" height="66.451" x="10" y="14.013" color-interpolation-filters="sRGB" filterUnits="userSpaceOnUse"><feFlood flood-opacity="0" result="BackgroundImageFix"/><feBlend in="SourceGraphic" in2="BackgroundImageFix" result="shape"/><feColorMatrix in="SourceAlpha" result="hardAlpha" values="0 0 0 0 0 0 0 0 0 0 0 0 0 0 0 0 0 0 127 0"/><feOffset dy="-.25"/><feComposite in2="hardAlpha" k2="-1" k3="1" operator="arithmetic"/><feColorMatrix values="0 0 0 0 0 0 0 0 0 0 0 0 0 0 0 0 0 0 0.04 0"/><feBlend in2="shape" result="effect1_innerShadow_23745_11707"/><feColorMatrix in="SourceAlpha" result="hardAlpha" values="0 0 0 0 0 0 0 0 0 0 0 0 0 0 0 0 0 0 127 0"/><feOffset dx="-.25"/><feComposite in2="hardAlpha" k2="-1" k3="1" operator="arithmetic"/><feColorMatrix values="0 0 0 0 0 0 0 0 0 0 0 0 0 0 0 0 0 0 0.04 0"/><feBlend in2="effect1_innerShadow_23745_11707" result="effect2_innerShadow_23745_11707"/><feColorMatrix in="SourceAlpha" result="hardAlpha" values="0 0 0 0 0 0 0 0 0 0 0 0 0 0 0 0 0 0 127 0"/><feOffset dx=".25"/><feComposite in2="hardAlpha" k2="-1" k3="1" operator="arithmetic"/><feColorMatrix values="0 0 0 0 0 0 0 0 0 0 0 0 0 0 0 0 0 0 0.04 0"/><feBlend in2="effect2_innerShadow_23745_11707" result="effect3_innerShadow_23745_11707"/><feColorMatrix in="SourceAlpha" result="hardAlpha" values="0 0 0 0 0 0 0 0 0 0 0 0 0 0 0 0 0 0 127 0"/><feOffset dy=".25"/><feComposite in2="hardAlpha" k2="-1" k3="1" operator="arithmetic"/><feColorMatrix values="0 0 0 0 1 0 0 0 0 1 0 0 0 0 1 0 0 0 0.24 0"/><feBlend in2="effect3_innerShadow_23745_11707" result="effect4_innerShadow_23745_11707"/></filter><filter id="f" width="53.334" height="32.593" x="63.334" y="49.556" color-interpolation-filters="sRGB" filterUnits="userSpaceOnUse"><feFlood flood-opacity="0" result="BackgroundImageFix"/><feBlend in="SourceGraphic" in2="BackgroundImageFix" result="shape"/><feColorMatrix in="SourceAlpha" result="hardAlpha" values="0 0 0 0 0 0 0 0 0 0 0 0 0 0 0 0 0 0 127 0"/><feOffset dx="-.5"/><feComposite in2="hardAlpha" k2="-1" k3="1" operator="arithmetic"/><feColorMatrix values="0 0 0 0 1 0 0 0 0 1 0 0 0 0 1 0 0 0 0.08 0"/><feBlend in2="shape" result="effect1_innerShadow_23745_11707"/><feColorMatrix in="SourceAlpha" result="hardAlpha" values="0 0 0 0 0 0 0 0 0 0 0 0 0 0 0 0 0 0 127 0"/><feOffset dx=".5"/><feComposite in2="hardAlpha" k2="-1" k3="1" operator="arithmetic"/><feColorMatrix values="0 0 0 0 1 0 0 0 0 1 0 0 0 0 1 0 0 0 0.08 0"/><feBlend in2="effect1_innerShadow_23745_11707" result="effect2_innerShadow_23745_11707"/></filter><filter id="i" width="160" height="32.634" x="10" y="24.861" color-interpolation-filters="sRGB" filterUnits="userSpaceOnUse"><feFlood flood-opacity="0" result="BackgroundImageFix"/><feColorMatrix in="SourceAlpha" result="hardAlpha" values="0 0 0 0 0 0 0 0 0 0 0 0 0 0 0 0 0 0 127 0"/><feOffset dy="-.25"/><feColorMatrix values="0 0 0 0 0 0 0 0 0 0 0 0 0 0 0 0 0 0 0.08 0"/><feBlend in2="BackgroundImageFix" result="effect1_dropShadow_23745_11707"/><feBlend in="SourceGraphic" in2="effect1_dropShadow_23745_11707" result="shape"/></filter><clipPath id="a"><path fill="#fff" d="M0 0h180v96H0z"/></clipPath></defs></svg>