<svg xmlns="http://www.w3.org/2000/svg" width="180" height="96" fill="none" viewBox="0 0 180 96"><g clip-path="url(#a)"><mask id="c" fill="#fff"><path fill-rule="evenodd" d="M98.322 3.333a.667.667 0 0 0-.666.667v8c0 .368.3.667.666.667h10.65a.667.667 0 0 0 .665-.667V4a.667.667 0 0 0-.665-.667zM108.97 14h-10.65a2 2 0 0 1-1.997-2V4a2 2 0 0 1 1.997-2h10.65a2 2 0 0 1 1.997 2v8a2 2 0 0 1-1.997 2" clip-rule="evenodd"/></mask><path fill="url(#b)" fill-rule="evenodd" d="M98.322 3.333a.667.667 0 0 0-.666.667v8c0 .368.3.667.666.667h10.65a.667.667 0 0 0 .665-.667V4a.667.667 0 0 0-.665-.667zM108.97 14h-10.65a2 2 0 0 1-1.997-2V4a2 2 0 0 1 1.997-2h10.65a2 2 0 0 1 1.997 2v8a2 2 0 0 1-1.997 2" clip-rule="evenodd"/><path fill="#EAEAEA" d="M98.322 2.833c-.642 0-1.166.523-1.166 1.167h1c0-.092.076-.167.166-.167zM97.156 4v8h1V4zm0 8c0 .644.524 1.167 1.166 1.167v-1a.167.167 0 0 1-.166-.167zm1.166 1.167h10.65v-1h-10.65zm10.65 0c.642 0 1.165-.523 1.165-1.167h-1a.167.167 0 0 1-.165.167zM110.137 12V4h-1v8zm0-8c0-.644-.523-1.167-1.165-1.167v1c.09 0 .165.075.165.167zm-1.165-1.167h-10.65v1h10.65zm-.001 10.667h-10.65v1h10.65zm-10.65 0a1.5 1.5 0 0 1-1.497-1.5h-1a2.5 2.5 0 0 0 2.497 2.5zM96.824 12V4h-1v8zm0-8a1.5 1.5 0 0 1 1.497-1.5v-1A2.5 2.5 0 0 0 95.824 4zm1.497-1.5h10.65v-1h-10.65zm10.65 0c.824 0 1.497.673 1.497 1.5h1a2.5 2.5 0 0 0-2.497-2.5zm1.497 1.5v8h1V4zm0 8c0 .827-.673 1.5-1.497 1.5v1a2.5 2.5 0 0 0 2.497-2.5z" mask="url(#c)"/><path fill="#E9E9E9" fill-rule="evenodd" d="M77.853 8.334a.334.334 0 0 1-.324-.252L76.262 3h-1.478l-1.267 5.082a.34.34 0 0 1-.405.242.336.336 0 0 1-.24-.405l1.393-5.585h2.516l1.394 5.585a.336.336 0 0 1-.322.415" clip-rule="evenodd"/><mask id="e" fill="#fff"><path fill-rule="evenodd" d="M70.199 3.333a.667.667 0 0 0-.666.667v8c0 .368.3.667.666.667h10.65a.667.667 0 0 0 .665-.667V4c0-.368-.3-.667-.665-.667zM80.848 14h-10.65a2 2 0 0 1-1.997-2V4a2 2 0 0 1 1.997-2h10.65a2 2 0 0 1 1.997 2v8a2 2 0 0 1-1.997 2" clip-rule="evenodd"/></mask><path fill="url(#d)" fill-rule="evenodd" d="M70.199 3.333a.667.667 0 0 0-.666.667v8c0 .368.3.667.666.667h10.65a.667.667 0 0 0 .665-.667V4c0-.368-.3-.667-.665-.667zM80.848 14h-10.65a2 2 0 0 1-1.997-2V4a2 2 0 0 1 1.997-2h10.65a2 2 0 0 1 1.997 2v8a2 2 0 0 1-1.997 2" clip-rule="evenodd"/><path fill="#EAEAEA" d="M70.199 2.833c-.642 0-1.166.523-1.166 1.167h1c0-.092.076-.167.166-.167zM69.033 4v8h1V4zm0 8c0 .644.523 1.167 1.166 1.167v-1a.167.167 0 0 1-.166-.167zm1.166 1.167h10.65v-1h-10.65zm10.65 0c.642 0 1.165-.523 1.165-1.167h-1a.167.167 0 0 1-.165.167zM82.014 12V4h-1v8zm0-8c0-.644-.523-1.167-1.165-1.167v1c.09 0 .165.075.165.167zM80.85 2.833h-10.65v1h10.65zM80.848 13.5h-10.65v1h10.65zm-10.65 0a1.5 1.5 0 0 1-1.497-1.5h-1a2.5 2.5 0 0 0 2.497 2.5zM68.701 12V4h-1v8zm0-8a1.5 1.5 0 0 1 1.497-1.5v-1A2.5 2.5 0 0 0 67.701 4zm1.497-1.5h10.65v-1h-10.65zm10.65 0A1.5 1.5 0 0 1 82.345 4h1a2.5 2.5 0 0 0-2.497-2.5zM82.345 4v8h1V4zm0 8a1.5 1.5 0 0 1-1.497 1.5v1a2.5 2.5 0 0 0 2.497-2.5z" mask="url(#e)"/><path fill="#E9E9E9" fill-rule="evenodd" d="M105.976 8.334a.334.334 0 0 1-.324-.252L104.385 3h-1.478l-1.267 5.082a.34.34 0 0 1-.405.242.336.336 0 0 1-.241-.405l1.394-5.585h2.516l1.394 5.585a.336.336 0 0 1-.322.415" clip-rule="evenodd"/><path fill="url(#f)" fill-rule="evenodd" d="M21.608 57.333V88a2.666 2.666 0 0 0 2.662 2.667V92h-3.993l-1.332-1.333V56z" clip-rule="evenodd"/><path fill="url(#g)" fill-rule="evenodd" d="M157.395 57.333V88a2.666 2.666 0 0 1-2.663 2.667V92h3.994l1.331-1.333V56z" clip-rule="evenodd"/><path fill="url(#h)" fill-rule="evenodd" d="M158.726 51.406V88a2.665 2.665 0 0 1-2.663 2.666H22.938A2.665 2.665 0 0 1 20.276 88V51.406c-1.584.924-2.663 2.626-2.663 4.594v32a5.33 5.33 0 0 0 5.325 5.333h133.125A5.33 5.33 0 0 0 161.388 88V56c0-1.968-1.078-3.67-2.662-4.594" clip-rule="evenodd"/><path fill="url(#i)" fill-rule="evenodd" d="M22.938 96v-1.333L25.6 92h3.994v1.333L26.93 96z" clip-rule="evenodd"/><path fill="#D3D3D3" fill-rule="evenodd" d="M27.321 94.276c-.249.25-.588.39-.94.39h-3.443V96h3.442c.353 0 .692-.141.941-.39l2.273-2.277V92z" clip-rule="evenodd"/><path fill="url(#j)" fill-rule="evenodd" d="M156.062 96v-1.333L153.4 92h-3.994v1.333L152.069 96z" clip-rule="evenodd"/><path fill="#D3D3D3" fill-rule="evenodd" d="M151.679 94.276c.249.25.588.39.941.39h3.442V96h-3.442c-.353 0-.692-.141-.941-.39l-2.273-2.277V92z" clip-rule="evenodd"/><path fill="#E0E0E0" fill-rule="evenodd" d="M110.301 12c0 .736-.595 1.333-1.331 1.333H98.32A1.33 1.33 0 0 1 96.988 12V4c0-.736.595-1.333 1.332-1.333h10.65c.736 0 1.331.597 1.331 1.333zM82.18 12c0 .736-.595 1.333-1.332 1.333h-10.65A1.33 1.33 0 0 1 68.868 12V4c0-.736.594-1.333 1.33-1.333h10.65c.737 0 1.332.597 1.332 1.333zm76.546-12H20.276a2.666 2.666 0 0 0-2.663 2.667v52a2.666 2.666 0 0 0 2.663 2.666h138.45a2.666 2.666 0 0 0 2.662-2.666v-52A2.666 2.666 0 0 0 158.726 0" clip-rule="evenodd"/><path fill="#222" fill-rule="evenodd" d="M19.61 53.333h67.895a.666.666 0 0 0 .665-.666V15.332a.666.666 0 0 0-.665-.667H19.61a.666.666 0 0 0-.666.667v37.334c0 .367.299.666.666.666m71.888 0h67.893a.666.666 0 0 0 .666-.666V15.332a.666.666 0 0 0-.666-.667H91.498a.666.666 0 0 0-.666.667v37.334c0 .367.298.666.666.666" clip-rule="evenodd"/><path fill="url(#k)" fill-rule="evenodd" d="M19.61 53.333h67.895a.666.666 0 0 0 .665-.666V15.332a.666.666 0 0 0-.665-.667H19.61a.666.666 0 0 0-.666.667v37.334c0 .367.299.666.666.666m71.888 0h67.893a.666.666 0 0 0 .666-.666V15.332a.666.666 0 0 0-.666-.667H91.498a.666.666 0 0 0-.666.667v37.334c0 .367.298.666.666.666" clip-rule="evenodd"/><path fill="#232323" fill-rule="evenodd" d="M78.184 8a2.666 2.666 0 0 0-2.662-2.666A2.666 2.666 0 0 0 72.859 8a2.666 2.666 0 0 0 2.663 2.667A2.666 2.666 0 0 0 78.184 8" clip-rule="evenodd"/><path fill="#373B47" fill-rule="evenodd" d="M76.854 8a1.332 1.332 0 1 0-2.663 0 1.332 1.332 0 1 0 2.663 0" clip-rule="evenodd"/><path fill="#232323" fill-rule="evenodd" d="M106.307 8a2.665 2.665 0 0 0-2.662-2.666A2.666 2.666 0 0 0 100.982 8a2.666 2.666 0 0 0 2.663 2.667A2.665 2.665 0 0 0 106.307 8" clip-rule="evenodd"/><path fill="#373B47" fill-rule="evenodd" d="M104.977 8a1.332 1.332 0 1 0-2.663 0 1.333 1.333 0 1 0 2.663 0" clip-rule="evenodd"/><path fill="#908E8E" fill-rule="evenodd" d="M88.953 55.992h.11v-.44h-.11zM89.957 55.678c-.004-.001-.04-.024-.092-.024-.073 0-.123.05-.123.119 0 .065.047.117.123.117.05 0 .088-.021.092-.024v.118a.3.3 0 0 1-.1.016c-.127 0-.236-.086-.236-.227 0-.132.099-.228.236-.228a.3.3 0 0 1 .1.016zM88.8 55.678c-.005-.001-.04-.024-.093-.024-.073 0-.121.05-.121.119 0 .065.047.117.121.117.052 0 .088-.021.093-.024v.118a.3.3 0 0 1-.1.016c-.125 0-.235-.086-.235-.227 0-.132.098-.228.234-.228a.3.3 0 0 1 .101.016zM90.304 55.656a.115.115 0 0 0-.115.116c0 .064.05.116.115.116a.113.113 0 0 0 .114-.116.114.114 0 0 0-.114-.116m.233.116a.226.226 0 0 1-.233.228.225.225 0 0 1-.232-.228c0-.125.096-.226.232-.226s.233.101.233.226M89.483 55.652c-.002 0-.047-.013-.086-.013-.046 0-.069.015-.069.036 0 .028.032.036.05.041l.03.011c.073.023.105.072.105.125 0 .111-.096.148-.18.148a.6.6 0 0 1-.12-.012v-.1c.01.002.056.015.104.015q.082-.002.082-.041c0-.022-.023-.035-.05-.043l-.025-.008c-.061-.02-.113-.056-.113-.13 0-.08.061-.137.165-.137.053 0 .104.014.106.015zM88.347 55.08a.056.056 0 0 0-.055-.055.056.056 0 0 0-.056.055v.116c0 .03.026.055.056.055s.055-.026.055-.055zM88.65 54.928a.056.056 0 0 0-.054-.054.056.056 0 0 0-.055.054v.268c0 .03.025.055.055.055s.054-.025.054-.055zM88.952 54.721a.056.056 0 0 0-.056-.054.055.055 0 0 0-.054.054v.584c0 .031.025.055.054.055.03 0 .056-.024.056-.055zM89.253 54.928a.056.056 0 0 0-.055-.054.056.056 0 0 0-.055.054v.268c0 .03.025.055.055.055s.055-.025.055-.055zM89.557 55.08a.057.057 0 0 0-.056-.055.057.057 0 0 0-.056.055v.116c0 .03.027.055.056.055s.056-.026.056-.055zM89.859 54.928a.056.056 0 0 0-.056-.054.056.056 0 0 0-.055.054v.268c0 .03.025.055.055.055s.056-.025.056-.055zM90.16 54.721a.055.055 0 0 0-.055-.054.055.055 0 0 0-.054.054v.584c0 .031.025.055.054.055.03 0 .055-.024.055-.055zM90.462 54.928a.056.056 0 0 0-.056-.054.056.056 0 0 0-.054.054v.268c0 .03.025.055.054.055.03 0 .056-.025.056-.055zM90.765 55.08a.056.056 0 0 0-.055-.055.056.056 0 0 0-.056.055v.116c0 .03.026.055.056.055s.055-.026.055-.055z" clip-rule="evenodd"/></g><defs><linearGradient id="b" x1="96.324" x2="96.324" y1="2" y2="14" gradientUnits="userSpaceOnUse"><stop stop-color="#EFEFEF"/><stop offset=".506" stop-color="#fff"/><stop offset="1" stop-color="#EFEFEF"/></linearGradient><linearGradient id="d" x1="68.201" x2="68.201" y1="2" y2="14" gradientUnits="userSpaceOnUse"><stop stop-color="#EFEFEF"/><stop offset=".506" stop-color="#fff"/><stop offset="1" stop-color="#EFEFEF"/></linearGradient><linearGradient id="f" x1="18.947" x2="18.947" y1="56" y2="91.976" gradientUnits="userSpaceOnUse"><stop stop-color="#B1B1B1"/><stop offset=".278" stop-color="#C9C9C9"/><stop offset=".514" stop-color="#D6D6D6"/><stop offset=".744" stop-color="#C9C9C9"/><stop offset=".954" stop-color="#ECECEC"/><stop offset="1" stop-color="#B1B1B1"/></linearGradient><linearGradient id="g" x1="154.734" x2="154.734" y1="56" y2="91.976" gradientUnits="userSpaceOnUse"><stop stop-color="#B1B1B1"/><stop offset=".278" stop-color="#C9C9C9"/><stop offset=".514" stop-color="#D6D6D6"/><stop offset=".744" stop-color="#C9C9C9"/><stop offset=".954" stop-color="#ECECEC"/><stop offset="1" stop-color="#B1B1B1"/></linearGradient><linearGradient id="h" x1="17.633" x2="17.633" y1="51.406" y2="93.322" gradientUnits="userSpaceOnUse"><stop stop-color="#CFCFCF"/><stop offset=".47" stop-color="#F1F1F1"/><stop offset="1" stop-color="#D9D9D9"/></linearGradient><linearGradient id="k" x1="-70.188" x2="-66.381" y1="-9.728" y2="68.396" gradientUnits="userSpaceOnUse"><stop stop-color="#fff" stop-opacity=".24"/><stop offset="1" stop-opacity=".5"/></linearGradient><radialGradient id="i" cx="0" cy="0" r="1" gradientTransform="rotate(24.009 -222.1 113.87)scale(4.91541 3.819)" gradientUnits="userSpaceOnUse"><stop stop-color="#9C9C9C"/><stop offset=".528" stop-color="#E8E8E8"/><stop offset="1" stop-color="#E8E8E8"/></radialGradient><radialGradient id="j" cx="0" cy="0" r="1" gradientTransform="matrix(4.49013 2 -1.55389 3.48858 153.585 100.221)" gradientUnits="userSpaceOnUse"><stop stop-color="#9C9C9C"/><stop offset=".528" stop-color="#E8E8E8"/><stop offset="1" stop-color="#E8E8E8"/></radialGradient><clipPath id="a"><path fill="#fff" d="M0 0h180v96H0z"/></clipPath></defs></svg>