<svg xmlns="http://www.w3.org/2000/svg" width="180" height="96" fill="none" viewBox="0 0 180 96"><g clip-path="url(#a)"><path fill="url(#b)" d="M50 5h120v70H50z"/><path fill="url(#c)" fill-rule="evenodd" d="M166.418 8.59 170 5v70l-3.582-3.59z" clip-rule="evenodd" opacity=".2"/><path fill="url(#d)" fill-rule="evenodd" d="M53.582 8.59 50 5v70l3.582-3.59z" clip-rule="evenodd" opacity=".6"/><path stroke="#000" stroke-opacity=".24" stroke-width=".527" d="M50.264 5.264h119.473v69.473H50.264z"/><path stroke="url(#e)" stroke-width=".527" d="M50.264 5.264h119.473v69.473H50.264z"/><path fill="#222" d="M53.582 8.59h112.836v62.821H53.582z"/><path fill="url(#f)" d="M53.582 8.59h112.836v62.821H53.582z"/><path stroke="#fff" stroke-opacity=".24" stroke-width=".557" d="M53.582 8.59h112.836v62.821H53.582z"/><path fill="url(#g)" d="M50 5h120v70H50z"/><g filter="url(#h)"><ellipse cx="48.687" cy="90.738" fill="#B9BABF" rx="39.687" ry=".163"/></g><g filter="url(#i)"><rect width="64.311" height="44.594" x="16.4" y="45" fill="url(#j)" rx="2.483"/></g><g filter="url(#k)"><rect width="63.656" height="43.94" x="16.729" y="45.327" fill="#000" rx="2.191"/></g><rect width="63.114" height="43.398" x="16.999" y="45.597" stroke="#000" stroke-width=".542" rx="1.92"/><g filter="url(#l)"><path fill="url(#m)" fill-rule="evenodd" d="M29.997 86.782h50.038a2.97 2.97 0 0 1-2.816 2.027H19.894a2.97 2.97 0 0 1-2.816-2.027z" clip-rule="evenodd"/></g><circle cx="48.555" cy="46.766" r=".262" fill="#070B0C"/><circle cx="48.554" cy="46.83" r=".065" fill="#232428"/><g opacity=".6"><rect width="63.656" height="43.94" x="16.4" y="45" fill="#222" rx="2.191"/><rect width="63.656" height="43.94" x="16.4" y="45" fill="url(#n)" rx="2.191"/></g><rect width="60.447" height="37.793" x="18.299" y="48.008" fill="#222" rx=".073"/><rect width="60.447" height="37.793" x="18.299" y="48.008" fill="url(#o)" rx=".073"/><mask id="p" width="61" height="38" x="18" y="48" maskUnits="userSpaceOnUse" style="mask-type:luminance"><rect width="60.447" height="37.793" x="18.299" y="48.008" fill="#fff" rx=".073"/><rect width="60.447" height="37.793" x="18.299" y="48.008" stroke="#fff" rx=".073"/></mask><path fill="url(#q)" fill-rule="evenodd" d="M25.596 91C11.362 91.032 9 89.528 9 89.528h39.556V91s-8.725-.032-22.96 0m45.919 0c14.235.032 16.596-1.472 16.596-1.472H48.556V91s8.724-.032 22.959 0" clip-rule="evenodd"/><mask id="r" fill="#fff"><ellipse cx="60.901" cy="90.28" rx=".491" ry=".098"/></mask><ellipse cx="60.901" cy="90.28" fill="#E4E5E9" rx=".491" ry=".098"/><path fill="#D7D8DB" d="M60.85 90.28c0-.19.1-.315.154-.368a.4.4 0 0 1 .119-.083c.033-.016.046-.016.02-.01a1.4 1.4 0 0 1-.242.018v1.083c.16 0 .32-.013.454-.04.062-.012.147-.033.23-.072a.6.6 0 0 0 .176-.12.57.57 0 0 0 .173-.408zm.051-.443c-.11 0-.196-.01-.24-.019-.028-.005-.014-.005.019.01a.4.4 0 0 1 .118.084.51.51 0 0 1 .154.368h-1.084c0 .204.106.342.174.408a.6.6 0 0 0 .175.12c.083.04.169.06.23.073.134.026.294.039.454.039zm.05.443c0 .19-.098.315-.153.368a.4.4 0 0 1-.118.084c-.033.016-.047.015-.02.01.045-.009.13-.018.241-.018V89.64c-.16 0-.32.013-.453.04a1 1 0 0 0-.23.072.6.6 0 0 0-.176.12.57.57 0 0 0-.174.408zm-.05.444c.111 0 .197.01.242.018.026.005.013.005-.02-.01a.4.4 0 0 1-.119-.084.51.51 0 0 1-.153-.368h1.083a.57.57 0 0 0-.173-.407.6.6 0 0 0-.176-.12 1 1 0 0 0-.23-.073 2.4 2.4 0 0 0-.454-.04z" mask="url(#r)"/><ellipse cx="60.901" cy="90.295" fill="#C5C7CD" rx=".098" ry=".048"/><mask id="s" fill="#fff"><ellipse cx="36.276" cy="90.28" rx=".491" ry=".098"/></mask><ellipse cx="36.276" cy="90.28" fill="#E4E5E9" rx=".491" ry=".098"/><path fill="#D7D8DB" d="M36.226 90.28c0-.19.099-.315.153-.368a.4.4 0 0 1 .119-.083c.033-.016.046-.016.02-.01a1.4 1.4 0 0 1-.242.018v1.083c.16 0 .32-.013.454-.04.062-.012.147-.033.23-.072a.6.6 0 0 0 .176-.12.57.57 0 0 0 .173-.408zm.05-.443c-.11 0-.196-.01-.24-.019-.028-.005-.014-.005.019.01a.4.4 0 0 1 .118.084.51.51 0 0 1 .154.368h-1.084c0 .204.106.342.174.408a.6.6 0 0 0 .175.12c.083.04.169.06.23.073.134.026.294.039.454.039zm.05.443c0 .19-.098.315-.153.368a.4.4 0 0 1-.118.084c-.033.016-.047.015-.02.01.045-.009.13-.018.241-.018V89.64c-.16 0-.32.013-.453.04a1 1 0 0 0-.23.072.6.6 0 0 0-.176.12.57.57 0 0 0-.174.408zm-.05.444c.111 0 .197.01.242.018.026.005.013.005-.02-.01a.4.4 0 0 1-.119-.084.51.51 0 0 1-.153-.368h1.083a.57.57 0 0 0-.173-.407.6.6 0 0 0-.176-.12 1 1 0 0 0-.23-.073 2.4 2.4 0 0 0-.454-.04z" mask="url(#s)"/><ellipse cx="36.276" cy="90.295" fill="#C5C7CD" rx=".098" ry=".048"/><path fill="url(#t)" fill-rule="evenodd" d="M9 88.163c0-.04.033-.073.073-.073h33.025l.196.065h12.614l.262-.065h32.868c.04 0 .073.032.073.073v1.365H9z" clip-rule="evenodd"/><g filter="url(#u)"><path fill="url(#v)" fill-rule="evenodd" d="M54.12 89.07H43.119a1.047 1.047 0 0 1-1.047-.98l.262.065h12.57l.262-.065c-.033.547-.489.98-1.046.98" clip-rule="evenodd"/></g><path fill="#fff" fill-opacity=".24" d="M105.258 46.965V36.661h3.781v-.97h-8.625v.97h3.781v10.304zm10.328 0 4.211-11.273h-1.125l-3.57 9.875H115l-3.57-9.875h-1.125l4.218 11.273z"/></g><defs><linearGradient id="b" x1="50" x2="163.868" y1="38.212" y2="38.212" gradientUnits="userSpaceOnUse"><stop stop-color="#9A9EA1"/><stop offset="1" stop-color="#D3D3D3"/></linearGradient><linearGradient id="c" x1="166.418" x2="166.418" y1="5" y2="75" gradientUnits="userSpaceOnUse"><stop stop-color="#666"/><stop offset=".294" stop-color="#A0A0A2"/><stop offset="1" stop-color="#696969"/></linearGradient><linearGradient id="d" x1="51.791" x2="51.791" y1="5" y2="75" gradientUnits="userSpaceOnUse"><stop stop-color="#AAABAD"/><stop offset=".157" stop-color="#DCDCDC"/><stop offset="1" stop-color="#AAABAD"/></linearGradient><linearGradient id="e" x1="-10" x2="50.933" y1="40" y2="144.456" gradientUnits="userSpaceOnUse"><stop stop-color="#fff" stop-opacity=".4"/><stop offset=".542" stop-color="#fff" stop-opacity=".01"/><stop offset="1" stop-color="#fff" stop-opacity=".4"/></linearGradient><linearGradient id="f" x1="-2.836" x2="50.562" y1="40" y2="135.912" gradientUnits="userSpaceOnUse"><stop stop-color="#fff" stop-opacity=".16"/><stop offset="1" stop-opacity=".5"/></linearGradient><linearGradient id="g" x1="-10" x2="50.933" y1="40" y2="144.456" gradientUnits="userSpaceOnUse"><stop stop-color="#fff" stop-opacity=".08"/><stop offset="1" stop-color="#fff" stop-opacity=".01"/></linearGradient><linearGradient id="j" x1="17.574" x2="17.574" y1="45" y2="87.966" gradientUnits="userSpaceOnUse"><stop stop-color="#4B4D4C"/><stop offset="1" stop-color="#636466"/></linearGradient><linearGradient id="m" x1="28.177" x2="28.177" y1="87.497" y2="88.809" gradientUnits="userSpaceOnUse"><stop stop-color="#1D1D1D"/><stop offset="1" stop-color="#0D0D0D"/></linearGradient><linearGradient id="n" x1="-15.427" x2="25.657" y1="66.97" y2="126.49" gradientUnits="userSpaceOnUse"><stop stop-color="#fff" stop-opacity=".24"/><stop offset="1" stop-opacity=".5"/></linearGradient><linearGradient id="o" x1="-11.925" x2="22.053" y1="66.904" y2="121.247" gradientUnits="userSpaceOnUse"><stop stop-color="#fff" stop-opacity=".24"/><stop offset="1" stop-opacity=".5"/></linearGradient><linearGradient id="q" x1="88.111" x2="88.111" y1="91" y2="89.528" gradientUnits="userSpaceOnUse"><stop stop-color="#F6F6F6"/><stop offset=".147" stop-color="#F8F8F9"/><stop offset=".445" stop-color="#E7E7E8"/><stop offset=".826" stop-color="#C6C7CD"/><stop offset="1" stop-color="#B8B9BD"/></linearGradient><linearGradient id="t" x1="9" x2="88.111" y1="89.528" y2="89.528" gradientUnits="userSpaceOnUse"><stop stop-color="#27282C"/><stop offset=".008" stop-color="#ABACB0"/><stop offset=".025" stop-color="#3E3F43"/><stop offset=".132" stop-color="#88898D"/><stop offset=".506" stop-color="#A2A3A7"/><stop offset=".876" stop-color="#88898D"/><stop offset=".975" stop-color="#3E3F43"/><stop offset=".992" stop-color="#ABACB0"/><stop offset="1" stop-color="#27282C"/></linearGradient><linearGradient id="v" x1="42.072" x2="55.166" y1="89.07" y2="89.07" gradientUnits="userSpaceOnUse"><stop stop-color="#4E5457"/><stop offset=".151" stop-color="#83888B"/><stop offset=".506" stop-color="#9D9FA4"/><stop offset=".85" stop-color="#83888B"/><stop offset="1" stop-color="#4E5457"/></linearGradient><filter id="h" width="81.278" height="2.232" x="8.047" y="89.622" color-interpolation-filters="sRGB" filterUnits="userSpaceOnUse"><feFlood flood-opacity="0" result="BackgroundImageFix"/><feBlend in="SourceGraphic" in2="BackgroundImageFix" result="shape"/><feGaussianBlur result="effect1_foregroundBlur_23746_2135" stdDeviation=".476"/></filter><filter id="i" width="64.311" height="44.593" x="16.4" y="45" color-interpolation-filters="sRGB" filterUnits="userSpaceOnUse"><feFlood flood-opacity="0" result="BackgroundImageFix"/><feBlend in="SourceGraphic" in2="BackgroundImageFix" result="shape"/><feColorMatrix in="SourceAlpha" result="hardAlpha" values="0 0 0 0 0 0 0 0 0 0 0 0 0 0 0 0 0 0 127 0"/><feOffset/><feGaussianBlur stdDeviation=".5"/><feComposite in2="hardAlpha" k2="-1" k3="1" operator="arithmetic"/><feColorMatrix values="0 0 0 0 0.257004 0 0 0 0 0.261685 0 0 0 0 0.271046 0 0 0 1 0"/><feBlend in2="shape" result="effect1_innerShadow_23746_2135"/></filter><filter id="k" width="63.656" height="43.94" x="16.729" y="45.327" color-interpolation-filters="sRGB" filterUnits="userSpaceOnUse"><feFlood flood-opacity="0" result="BackgroundImageFix"/><feBlend in="SourceGraphic" in2="BackgroundImageFix" result="shape"/><feColorMatrix in="SourceAlpha" result="hardAlpha" values="0 0 0 0 0 0 0 0 0 0 0 0 0 0 0 0 0 0 127 0"/><feOffset/><feGaussianBlur stdDeviation=".5"/><feComposite in2="hardAlpha" k2="-1" k3="1" operator="arithmetic"/><feColorMatrix values="0 0 0 0 0.708679 0 0 0 0 0.708679 0 0 0 0 0.708679 0 0 0 1 0"/><feBlend in2="shape" result="effect1_innerShadow_23746_2135"/></filter><filter id="l" width="62.957" height="2.027" x="17.078" y="86.782" color-interpolation-filters="sRGB" filterUnits="userSpaceOnUse"><feFlood flood-opacity="0" result="BackgroundImageFix"/><feBlend in="SourceGraphic" in2="BackgroundImageFix" result="shape"/><feColorMatrix in="SourceAlpha" result="hardAlpha" values="0 0 0 0 0 0 0 0 0 0 0 0 0 0 0 0 0 0 127 0"/><feOffset/><feGaussianBlur stdDeviation=".5"/><feComposite in2="hardAlpha" k2="-1" k3="1" operator="arithmetic"/><feColorMatrix values="0 0 0 0 1 0 0 0 0 1 0 0 0 0 1 0 0 0 0.03 0"/><feBlend in2="shape" result="effect1_innerShadow_23746_2135"/></filter><filter id="u" width="15.094" height="2.981" x="41.072" y="87.09" color-interpolation-filters="sRGB" filterUnits="userSpaceOnUse"><feFlood flood-opacity="0" result="BackgroundImageFix"/><feColorMatrix in="SourceAlpha" result="hardAlpha" values="0 0 0 0 0 0 0 0 0 0 0 0 0 0 0 0 0 0 127 0"/><feOffset/><feGaussianBlur stdDeviation=".5"/><feColorMatrix values="0 0 0 0 1 0 0 0 0 1 0 0 0 0 1 0 0 0 0.242584 0"/><feBlend in2="BackgroundImageFix" result="effect1_dropShadow_23746_2135"/><feBlend in="SourceGraphic" in2="effect1_dropShadow_23746_2135" result="shape"/><feColorMatrix in="SourceAlpha" result="hardAlpha" values="0 0 0 0 0 0 0 0 0 0 0 0 0 0 0 0 0 0 127 0"/><feOffset/><feGaussianBlur stdDeviation=".5"/><feComposite in2="hardAlpha" k2="-1" k3="1" operator="arithmetic"/><feColorMatrix values="0 0 0 0 0 0 0 0 0 0 0 0 0 0 0 0 0 0 0.434471 0"/><feBlend in2="shape" result="effect2_innerShadow_23746_2135"/></filter><clipPath id="a"><path fill="#fff" d="M0 0h180v96H0z"/></clipPath></defs></svg>