<svg xmlns="http://www.w3.org/2000/svg" width="32" height="32" viewBox="0 0 32 32"><path d="M25 5.25H7A4.755 4.755 0 0 0 2.25 10v12A4.756 4.756 0 0 0 7 26.75h18A4.755 4.755 0 0 0 29.75 22V10A4.755 4.755 0 0 0 25 5.25M28.25 22A3.254 3.254 0 0 1 25 25.25H7A3.254 3.254 0 0 1 3.75 22V10A3.254 3.254 0 0 1 7 6.75h18A3.254 3.254 0 0 1 28.25 10zM16 14.868a5.71 5.71 0 0 0-4.066 1.684.75.75 0 1 0 1.06 1.06 4.25 4.25 0 0 1 6.012 0 .75.75 0 0 0 1.06-1.06A5.71 5.71 0 0 0 16 14.868M16 21.16a1.25 1.25 0 1 0 0-2.5 1.25 1.25 0 0 0 0 2.5M16 10.864a9.7 9.7 0 0 0-6.894 2.86.75.75 0 1 0 1.06 1.06 8.24 8.24 0 0 1 11.668 0 .75.75 0 0 0 1.06-1.06A9.69 9.69 0 0 0 16 10.863"/></svg>