<svg xmlns="http://www.w3.org/2000/svg" width="180" height="96" fill="none" viewBox="0 0 180 96"><g clip-path="url(#a)"><path fill="url(#b)" fill-rule="evenodd" d="M55.063 54.667V88a2.666 2.666 0 0 0 2.662 2.667V92h-3.993L52.4 90.667V53.333z" clip-rule="evenodd"/><path fill="url(#c)" fill-rule="evenodd" d="M124.963 54.667V88a2.666 2.666 0 0 1-2.662 2.667V92h3.994l1.331-1.333V53.333z" clip-rule="evenodd"/><path fill="url(#d)" fill-rule="evenodd" d="M126.214 87.769c0 1.465-1.248 2.652-2.785 2.652H56.571c-1.537 0-2.785-1.187-2.785-2.652V46.073c-1.658.919-2.786 2.61-2.786 4.568V87.77c0 2.93 2.495 5.304 5.571 5.304h66.858c3.076 0 5.571-2.375 5.571-5.304V50.641c0-1.957-1.128-3.65-2.786-4.568z" clip-rule="evenodd"/><path fill="#E0E0E0" fill-rule="evenodd" d="M126.214 0H53.786C52.248 0 51 1.167 51 2.605v50.79C51 54.833 52.248 56 53.786 56h72.428c1.538 0 2.786-1.167 2.786-2.605V2.605C129 1.167 127.752 0 126.214 0" clip-rule="evenodd"/><rect width="6.656" height="2.667" x="88.168" y="2.667" fill="url(#e)" rx="1.333"/><rect width="2.912" height="1.778" x="88.584" y="3.111" fill="#232323" rx=".889"/><ellipse cx="89.416" cy="4" fill="#494E5C" rx=".416" ry=".444"/><rect width="1.664" height="1.778" x="92.328" y="3.111" fill="#232323" rx=".832"/><ellipse cx="93.109" cy="4" fill="#494E5C" rx=".416" ry=".444"/><path fill="#908E8E" fill-rule="evenodd" d="M89.453 53.317h.199v-.88h-.199zm1.806-.627c-.007-.003-.072-.048-.167-.048-.13 0-.218.1-.218.237 0 .13.086.235.218.235.093 0 .16-.043.167-.048v.234a.5.5 0 0 1-.182.032c-.222 0-.419-.173-.419-.453 0-.264.177-.456.42-.456.093 0 .162.024.181.032zm-2.08 0c-.007-.003-.072-.048-.167-.048-.13 0-.218.101-.218.237 0 .13.086.235.218.235.093 0 .16-.043.167-.048v.234a.5.5 0 0 1-.18.032c-.224 0-.42-.173-.42-.453 0-.264.176-.456.42-.456.094 0 .164.024.18.032zm2.707-.045c-.118 0-.206.107-.206.232 0 .128.088.232.206.232.12 0 .206-.104.206-.232 0-.125-.087-.232-.206-.232m.42.232c0 .25-.174.456-.418.456-.242 0-.417-.205-.417-.456 0-.25.175-.453.416-.453.245 0 .42.203.42.453m-1.897-.24c-.002 0-.086-.026-.156-.026-.08 0-.124.03-.124.072 0 .053.06.072.093.083l.053.02c.132.046.19.145.19.252 0 .22-.173.295-.327.295-.107 0-.206-.024-.218-.026v-.2c.02.005.103.032.19.032.1 0 .146-.032.146-.083 0-.042-.04-.07-.091-.085-.01-.005-.029-.01-.04-.016-.113-.04-.207-.112-.207-.259 0-.162.113-.274.297-.274.096 0 .187.026.194.029zm-2.042-1.144c0-.06-.048-.109-.1-.109-.056 0-.099.048-.099.11v.229c0 .061.043.112.098.112.053 0 .1-.051.1-.112zm.543-.303c0-.059-.046-.11-.101-.11-.053 0-.098.051-.098.11v.533c0 .062.045.112.098.112.055 0 .1-.05.1-.112zm.543-.414c0-.061-.046-.11-.1-.11s-.1.049-.1.11v1.168c0 .058.046.109.1.109s.1-.05.1-.11zm.543.414c0-.058-.046-.11-.099-.11-.055 0-.1.052-.1.11v.533c0 .062.045.112.1.112.053 0 .099-.05.099-.112zm.545.303c0-.061-.046-.109-.101-.109-.053 0-.098.048-.098.11v.229c0 .06.045.112.098.112.055 0 .1-.051.1-.112zm.543-.303c0-.058-.046-.11-.101-.11-.053 0-.098.052-.098.11v.533c0 .062.045.112.098.112.055 0 .1-.05.1-.112zm.543-.414c0-.061-.044-.11-.099-.11s-.1.049-.1.11v1.168c0 .058.045.109.1.109s.099-.05.099-.11zm.544.414c0-.058-.045-.11-.1-.11s-.098.052-.098.11v.533c0 .062.043.112.098.112s.1-.05.1-.112zm.544.303c0-.06-.046-.109-.099-.109-.055 0-.1.048-.1.11v.229c0 .061.045.112.1.112.053 0 .099-.051.099-.112z" clip-rule="evenodd"/><path fill="#222" fill-rule="evenodd" d="M127.39 48H54.274a.716.716 0 0 1-.717-.714V8.714c0-.394.32-.714.716-.714h73.117c.396 0 .717.32.717.714v38.572a.716.716 0 0 1-.717.714" clip-rule="evenodd"/><path fill="url(#f)" fill-rule="evenodd" d="M127.39 48H54.274a.716.716 0 0 1-.717-.714V8.714c0-.394.32-.714.716-.714h73.117c.396 0 .717.32.717.714v38.572a.716.716 0 0 1-.717.714" clip-rule="evenodd"/><path fill="url(#g)" fill-rule="evenodd" d="M58 96v-1.333L60.663 92h3.993v1.333L61.994 96z" clip-rule="evenodd"/><path fill="#D3D3D3" fill-rule="evenodd" d="M62.384 94.276c-.25.25-.589.39-.941.39H58V96h3.443c.352 0 .692-.141.94-.39l2.273-2.277V92z" clip-rule="evenodd"/><path fill="url(#h)" fill-rule="evenodd" d="M121.996 96v-1.333L119.334 92h-3.994v1.333L118.002 96z" clip-rule="evenodd"/><path fill="#D3D3D3" fill-rule="evenodd" d="M117.612 94.276c.249.25.589.39.941.39h3.443V96h-3.443c-.352 0-.692-.141-.941-.39l-2.272-2.277V92z" clip-rule="evenodd"/></g><defs><linearGradient id="b" x1="52.402" x2="52.402" y1="53.333" y2="91.974" gradientUnits="userSpaceOnUse"><stop stop-color="#B1B1B1"/><stop offset=".278" stop-color="#C9C9C9"/><stop offset=".514" stop-color="#D6D6D6"/><stop offset=".744" stop-color="#C9C9C9"/><stop offset=".954" stop-color="#ECECEC"/><stop offset="1" stop-color="#B1B1B1"/></linearGradient><linearGradient id="c" x1="122.303" x2="122.303" y1="53.333" y2="91.974" gradientUnits="userSpaceOnUse"><stop stop-color="#B1B1B1"/><stop offset=".278" stop-color="#C9C9C9"/><stop offset=".514" stop-color="#D6D6D6"/><stop offset=".744" stop-color="#C9C9C9"/><stop offset=".954" stop-color="#ECECEC"/><stop offset="1" stop-color="#B1B1B1"/></linearGradient><linearGradient id="d" x1="51.011" x2="51.011" y1="46.073" y2="93.06" gradientUnits="userSpaceOnUse"><stop stop-color="#CFCFCF"/><stop offset=".47" stop-color="#F1F1F1"/><stop offset="1" stop-color="#D9D9D9"/></linearGradient><linearGradient id="e" x1="88.411" x2="88.411" y1="2.763" y2="5.235" gradientUnits="userSpaceOnUse"><stop stop-color="#333"/><stop offset="1" stop-color="#3E3E3E"/></linearGradient><linearGradient id="f" x1="16.282" x2="49.611" y1="28" y2="90.117" gradientUnits="userSpaceOnUse"><stop stop-color="#fff" stop-opacity=".24"/><stop offset="1" stop-opacity=".5"/></linearGradient><radialGradient id="g" cx="0" cy="0" r="1" gradientTransform="matrix(4.49013 2 -1.55389 3.48858 62.178 100.221)" gradientUnits="userSpaceOnUse"><stop stop-color="#9C9C9C"/><stop offset=".528" stop-color="#E8E8E8"/><stop offset="1" stop-color="#E8E8E8"/></radialGradient><radialGradient id="h" cx="0" cy="0" r="1" gradientTransform="rotate(24.009 -175.9 331.144)scale(4.91541 3.819)" gradientUnits="userSpaceOnUse"><stop stop-color="#9C9C9C"/><stop offset=".528" stop-color="#E8E8E8"/><stop offset="1" stop-color="#E8E8E8"/></radialGradient><clipPath id="a"><path fill="#fff" d="M0 0h180v96H0z"/></clipPath></defs></svg>