<svg xmlns="http://www.w3.org/2000/svg" width="180" height="96" fill="none" viewBox="0 0 180 96"><g clip-path="url(#a)"><mask id="c" fill="#fff"><path fill-rule="evenodd" d="M29 19a6 6 0 0 0-6 6v46a6 6 0 0 0 6 6h122a6 6 0 0 0 6-6V25a6 6 0 0 0-6-6zm51.563 25.133c-7.475 0-13.534 6.06-13.534 13.534S73.09 71.2 80.563 71.2h18.876c7.474 0 13.533-6.06 13.533-13.533 0-7.475-6.059-13.534-13.533-13.534z" clip-rule="evenodd"/></mask><path fill="url(#b)" fill-rule="evenodd" d="M29 19a6 6 0 0 0-6 6v46a6 6 0 0 0 6 6h122a6 6 0 0 0 6-6V25a6 6 0 0 0-6-6zm51.563 25.133c-7.475 0-13.534 6.06-13.534 13.534S73.09 71.2 80.563 71.2h18.876c7.474 0 13.533-6.06 13.533-13.533 0-7.475-6.059-13.534-13.533-13.534z" clip-rule="evenodd"/><path fill="#000" fill-opacity=".4" d="M23.5 25a5.5 5.5 0 0 1 5.5-5.5v-1a6.5 6.5 0 0 0-6.5 6.5zm0 46V25h-1v46zm5.5 5.5a5.5 5.5 0 0 1-5.5-5.5h-1a6.5 6.5 0 0 0 6.5 6.5zm122 0H29v1h122zm5.5-5.5a5.5 5.5 0 0 1-5.5 5.5v1a6.5 6.5 0 0 0 6.5-6.5zm0-46v46h1V25zm-5.5-5.5a5.5 5.5 0 0 1 5.5 5.5h1a6.5 6.5 0 0 0-6.5-6.5zm-122 0h122v-1H29zm38.53 38.167c0-7.199 5.835-13.034 13.033-13.034v-1c-7.75 0-14.034 6.283-14.034 14.034zM80.562 70.7c-7.198 0-13.034-5.835-13.034-13.033h-1c0 7.75 6.283 14.033 14.034 14.033zm18.876 0H80.563v1h18.876zm13.033-13.033c0 7.198-5.835 13.033-13.033 13.033v1c7.75 0 14.033-6.283 14.033-14.033zM99.439 44.633c7.198 0 13.033 5.835 13.033 13.034h1c0-7.75-6.283-14.034-14.033-14.034zm-18.876 0h18.876v-1H80.563z" mask="url(#c)"/><path fill="#323232" fill-rule="evenodd" d="M80.428 42.2H99.57v17.4H80.428z" clip-rule="evenodd"/><path stroke="#fff" stroke-opacity=".8" stroke-width=".5" d="M80.428 41.95h-.25v17.9H99.82v-17.9H80.428Z"/><g stroke-width="1.92" filter="url(#d)"><rect width="47.851" height="29.013" x="66.075" y="43.16" stroke="url(#e)" rx="14.4"/><rect width="47.851" height="29.013" x="66.075" y="43.16" stroke="#fff" stroke-opacity=".8" rx="14.4"/></g><g filter="url(#f)"><ellipse cx="89.999" cy="59.6" fill="#323232" rx="11.486" ry="11.6"/><path stroke="#fff" stroke-opacity=".6" stroke-width=".5" d="M90 71.45c6.483 0 11.735-5.308 11.735-11.85s-5.252-11.85-11.736-11.85c-6.483 0-11.735 5.308-11.735 11.85s5.252 11.85 11.735 11.85Z"/></g><ellipse cx="90.001" cy="59.6" fill="#00222C" rx="7.657" ry="7.733"/><path stroke="#fff" stroke-opacity=".16" stroke-width=".5" d="M97.408 59.6c0 4.135-3.319 7.483-7.407 7.483-4.089 0-7.407-3.348-7.407-7.483s3.318-7.483 7.407-7.483c4.088 0 7.407 3.348 7.407 7.483Z"/><ellipse cx="90" cy="59.6" fill="#000" rx="3.829" ry="3.867"/><path stroke="#fff" stroke-opacity=".231" stroke-width=".5" d="M90 63.717c2.255 0 4.079-1.846 4.079-4.117S92.255 55.483 90 55.483s-4.078 1.846-4.078 4.117 1.824 4.117 4.078 4.117Z"/><ellipse cx="147.428" cy="67.334" fill="#000" fill-opacity=".08" rx="3.829" ry="3.867"/><ellipse cx="147.428" cy="67.333" fill="#000" fill-opacity=".08" rx="1.914" ry="1.933"/><path stroke="#fff" stroke-opacity=".4" stroke-width=".5" d="M147.428 69.517c1.198 0 2.164-.98 2.164-2.184a2.173 2.173 0 0 0-2.164-2.183c-1.198 0-2.164.98-2.164 2.183 0 1.204.966 2.184 2.164 2.184Z"/><path fill="#908E8E" fill-rule="evenodd" d="M87.451 34.418h.593v-2.551h-.593zm5.387-1.818c-.021-.008-.214-.14-.5-.14-.386 0-.65.294-.65.688 0 .38.257.68.65.68a.96.96 0 0 0 .5-.138v.68a1.5 1.5 0 0 1-.543.093c-.664 0-1.25-.503-1.25-1.315 0-.765.529-1.322 1.25-1.322.279 0 .486.07.543.093zm-6.205 0c-.021-.008-.214-.14-.5-.14-.386 0-.65.294-.65.689 0 .378.257.68.65.68a.96.96 0 0 0 .5-.14v.681c-.071.031-.271.093-.536.093-.671 0-1.257-.503-1.257-1.314 0-.766.529-1.322 1.257-1.322.28 0 .486.07.536.092zm8.075-.129c-.35 0-.614.31-.614.673 0 .371.264.672.614.672.357 0 .615-.301.615-.672 0-.363-.258-.673-.615-.673m1.252.673c0 .727-.521 1.322-1.25 1.322-.722 0-1.243-.595-1.243-1.322s.521-1.314 1.243-1.314c.729 0 1.25.587 1.25 1.314m-5.658-.695c-.007 0-.257-.077-.464-.077-.243 0-.371.085-.371.208 0 .155.178.21.278.24l.157.062c.393.131.565.417.565.727 0 .641-.515.858-.972.858-.321 0-.614-.07-.65-.078v-.58c.057.016.307.093.564.093.3 0 .436-.092.436-.24 0-.123-.121-.2-.271-.247-.029-.015-.086-.03-.122-.046-.335-.116-.614-.325-.614-.75 0-.471.336-.796.886-.796.285 0 .557.077.578.085zm-6.09-3.318a.313.313 0 0 0-.3-.317c-.164 0-.293.139-.293.317v.665c0 .178.129.324.293.324.157 0 .3-.146.3-.324zm1.62-.88c0-.17-.136-.317-.3-.317-.158 0-.294.147-.294.317v1.546c0 .178.136.325.293.325.164 0 .3-.147.3-.325zm1.62-1.2a.31.31 0 0 0-.3-.318c-.157 0-.293.14-.293.317v3.387c0 .17.136.316.293.316.165 0 .3-.146.3-.316zm1.62 1.2c0-.17-.136-.317-.293-.317-.165 0-.3.147-.3.317v1.546c0 .178.135.325.3.325.157 0 .293-.147.293-.325zm1.62.88a.31.31 0 0 0-.3-.317c-.157 0-.292.139-.292.317v.665c0 .178.135.324.293.324.164 0 .3-.146.3-.324zm1.62-.88c0-.17-.136-.317-.3-.317-.157 0-.293.147-.293.317v1.546c0 .178.136.325.293.325.164 0 .3-.147.3-.325zm1.623-1.2c0-.178-.13-.318-.293-.318-.165 0-.3.14-.3.317v3.387c0 .17.135.316.3.316s.293-.146.293-.316zm1.625 1.2c0-.17-.136-.317-.3-.317-.165 0-.293.147-.293.317v1.546c0 .178.128.325.293.325s.3-.147.3-.325zm1.619.88c0-.178-.136-.317-.293-.317-.165 0-.3.139-.3.317v.665c0 .178.135.324.3.324.157 0 .293-.146.293-.324z" clip-rule="evenodd"/></g><defs><linearGradient id="b" x1="157" x2="157" y1="77" y2="19" gradientUnits="userSpaceOnUse"><stop stop-color="#B9B9B9"/><stop offset="1" stop-color="#F2F2F2"/></linearGradient><linearGradient id="e" x1="65.115" x2="65.115" y1="42.2" y2="73.133" gradientUnits="userSpaceOnUse"><stop stop-color="#F4F4F4"/><stop offset="1" stop-color="#EBEBEB"/></linearGradient><filter id="d" width="49.772" height="30.933" x="65.115" y="42.2" color-interpolation-filters="sRGB" filterUnits="userSpaceOnUse"><feFlood flood-opacity="0" result="BackgroundImageFix"/><feBlend in="SourceGraphic" in2="BackgroundImageFix" result="shape"/><feColorMatrix in="SourceAlpha" result="hardAlpha" values="0 0 0 0 0 0 0 0 0 0 0 0 0 0 0 0 0 0 127 0"/><feOffset dy="-4"/><feComposite in2="hardAlpha" k2="-1" k3="1" operator="arithmetic"/><feColorMatrix values="0 0 0 0 0 0 0 0 0 0 0 0 0 0 0 0 0 0 0.5 0"/><feBlend in2="shape" result="effect1_innerShadow_23745_11698"/></filter><filter id="f" width="23.971" height="26.2" x="78.014" y="45.5" color-interpolation-filters="sRGB" filterUnits="userSpaceOnUse"><feFlood flood-opacity="0" result="BackgroundImageFix"/><feColorMatrix in="SourceAlpha" result="hardAlpha" values="0 0 0 0 0 0 0 0 0 0 0 0 0 0 0 0 0 0 127 0"/><feOffset dy="-2"/><feColorMatrix values="0 0 0 0 1 0 0 0 0 1 0 0 0 0 1 0 0 0 0.8 0"/><feBlend in2="BackgroundImageFix" result="effect1_dropShadow_23745_11698"/><feBlend in="SourceGraphic" in2="effect1_dropShadow_23745_11698" result="shape"/></filter><clipPath id="a"><path fill="#fff" d="M0 0h180v96H0z"/></clipPath></defs></svg>