<svg xmlns="http://www.w3.org/2000/svg" width="180" height="96" fill="none" viewBox="0 0 180 96"><g clip-path="url(#a)"><g clip-path="url(#b)"><path fill="url(#c)" d="M30 8h120v70H30z"/><path fill="url(#d)" fill-rule="evenodd" d="m147 11 3-3v70l-3-3z" clip-rule="evenodd" opacity=".2"/><path fill="url(#e)" fill-rule="evenodd" d="m33 11-3-3v70l3-3z" clip-rule="evenodd" opacity=".6"/><path stroke="#000" stroke-opacity=".24" stroke-width=".5" d="M30.25 8.25h119.5v69.5H30.25z"/><path stroke="url(#f)" stroke-width=".5" d="M30.25 8.25h119.5v69.5H30.25z"/><path fill="#222" d="M33 11h114v64H33z"/><path fill="url(#g)" d="M33 11h114v64H33z"/><path stroke="#fff" stroke-opacity=".24" stroke-width=".5" d="M33 11h114v64H33z"/><path fill="url(#h)" d="M30 8h120v70H30z"/><path fill="#fff" fill-opacity=".24" d="M86.428 48h-.93v-9.017h-3.309v-.847h7.547v.847h-3.308zm9.037 0h-.93l-3.691-9.864h.984l3.124 8.64h.089l3.124-8.64h.984z"/></g><g filter="url(#i)"><rect width="5.578" height="16.675" x="52.887" y="46" fill="url(#j)" rx=".417"/></g><path fill="url(#k)" fill-rule="evenodd" d="M68.979 72.318c-4-7.034-8.5-11.727-13.432-11.727s-9.432 4.693-13.431 11.726c-4 7.033-5.942 13.198-3.476 17.455S45.089 95.5 55.547 95.5s14.44-1.47 16.907-5.728c2.466-4.257.524-10.422-3.475-17.455" clip-rule="evenodd"/><path fill="url(#l)" fill-rule="evenodd" d="M68.225 80.045c0 6.907-5.619 12.506-12.55 12.506s-12.55-5.6-12.55-12.506 5.619-12.506 12.55-12.506 12.55 5.599 12.55 12.506" clip-rule="evenodd"/><path fill="#908E8E" fill-rule="evenodd" d="M53.78 82.793h.38v-1.605h-.38zm3.462-1.143c-.014-.005-.138-.088-.321-.088-.248 0-.418.185-.418.433 0 .238.165.428.418.428a.6.6 0 0 0 .321-.088v.428a1 1 0 0 1-.349.058c-.427 0-.803-.316-.803-.826 0-.481.34-.831.803-.831.18 0 .313.043.35.058zm-3.988 0c-.014-.005-.138-.088-.321-.088-.248 0-.418.185-.418.433 0 .238.165.428.418.428.179 0 .307-.078.321-.088v.428a1 1 0 0 1-.344.058c-.432 0-.808-.316-.808-.826 0-.481.34-.831.808-.831.179 0 .312.043.344.058zm5.19-.08c-.225 0-.395.194-.395.422 0 .234.17.423.395.423.23 0 .395-.19.395-.423 0-.228-.166-.423-.395-.423m.803.422c0 .457-.335.831-.803.831-.464 0-.8-.374-.8-.831s.336-.827.8-.827c.468 0 .803.37.803.827m-3.634-.437c-.004 0-.165-.05-.298-.05-.156 0-.239.054-.239.132 0 .097.115.131.18.15l.1.04c.253.082.363.262.363.457 0 .403-.33.54-.625.54-.206 0-.395-.044-.418-.05v-.364c.037.01.198.059.363.059.193 0 .28-.059.28-.151 0-.078-.078-.127-.174-.156-.019-.01-.055-.02-.078-.029-.216-.073-.395-.204-.395-.472 0-.296.216-.5.57-.5.183 0 .358.048.371.053zm-3.916-2.088c0-.111-.091-.199-.192-.199-.106 0-.189.088-.189.2v.418c0 .111.083.204.189.204.1 0 .192-.093.192-.204zm1.042-.553c0-.107-.088-.2-.193-.2-.101 0-.189.093-.189.2v.973c0 .111.088.204.189.204.105 0 .193-.093.193-.204zm1.04-.754c0-.112-.087-.2-.192-.2a.195.195 0 0 0-.189.2v2.13c0 .106.088.199.189.199a.2.2 0 0 0 .193-.2zm1.042.754c0-.107-.087-.2-.188-.2a.2.2 0 0 0-.193.2v.973c0 .111.087.204.193.204.1 0 .188-.093.188-.204zm1.043.553c0-.111-.088-.199-.193-.199a.195.195 0 0 0-.189.2v.418c0 .111.088.204.189.204.105 0 .193-.093.193-.204zm1.04-.553c0-.107-.087-.2-.192-.2-.101 0-.189.093-.189.2v.973c0 .111.088.204.189.204.105 0 .193-.093.193-.204zm1.042-.754c0-.112-.083-.2-.189-.2a.196.196 0 0 0-.192.2v2.13c0 .106.087.199.192.199s.189-.093.189-.2zm1.044.754c0-.107-.087-.2-.192-.2s-.189.093-.189.2v.973c0 .111.083.204.189.204.105 0 .192-.093.192-.204zm1.042.553c0-.111-.088-.199-.189-.199a.196.196 0 0 0-.193.2v.418c0 .111.088.204.193.204.101 0 .189-.093.189-.204z" clip-rule="evenodd"/></g><defs><linearGradient id="c" x1="30" x2="143.868" y1="41.212" y2="41.212" gradientUnits="userSpaceOnUse"><stop stop-color="#9A9EA1"/><stop offset="1" stop-color="#D3D3D3"/></linearGradient><linearGradient id="d" x1="147" x2="147" y1="8" y2="78" gradientUnits="userSpaceOnUse"><stop stop-color="#666"/><stop offset=".294" stop-color="#A0A0A2"/><stop offset="1" stop-color="#696969"/></linearGradient><linearGradient id="e" x1="31.5" x2="31.5" y1="8" y2="78" gradientUnits="userSpaceOnUse"><stop stop-color="#AAABAD"/><stop offset=".157" stop-color="#DCDCDC"/><stop offset="1" stop-color="#AAABAD"/></linearGradient><linearGradient id="f" x1="-30" x2="30.933" y1="43" y2="147.456" gradientUnits="userSpaceOnUse"><stop stop-color="#fff" stop-opacity=".4"/><stop offset=".542" stop-color="#fff" stop-opacity=".01"/><stop offset="1" stop-color="#fff" stop-opacity=".4"/></linearGradient><linearGradient id="g" x1="-24" x2="30.639" y1="43" y2="140.326" gradientUnits="userSpaceOnUse"><stop stop-color="#fff" stop-opacity=".16"/><stop offset="1" stop-opacity=".5"/></linearGradient><linearGradient id="h" x1="-30" x2="30.933" y1="43" y2="147.456" gradientUnits="userSpaceOnUse"><stop stop-color="#fff" stop-opacity=".08"/><stop offset="1" stop-color="#fff" stop-opacity=".01"/></linearGradient><linearGradient id="j" x1="53.197" x2="53.197" y1="46" y2="60.822" gradientUnits="userSpaceOnUse"><stop stop-color="#979797"/><stop offset=".511" stop-color="#959595"/><stop offset=".991" stop-color="#666"/></linearGradient><linearGradient id="k" x1="24.988" x2="47.729" y1="68.989" y2="107.658" gradientUnits="userSpaceOnUse"><stop stop-color="#FBFBFB"/><stop offset="1" stop-color="#CACACA"/></linearGradient><clipPath id="a"><path fill="#fff" d="M0 0h180v96H0z"/></clipPath><clipPath id="b"><path fill="#fff" d="M30 8h120v70H30z"/></clipPath><radialGradient id="l" cx="0" cy="0" r="1" gradientTransform="matrix(-10.8563 -6.40737 6.39654 -10.83796 55.276 79.812)" gradientUnits="userSpaceOnUse"><stop stop-color="#EEE"/><stop offset="1" stop-color="#E1E1E1"/></radialGradient><filter id="i" width="5.578" height="16.675" x="52.887" y="46" color-interpolation-filters="sRGB" filterUnits="userSpaceOnUse"><feFlood flood-opacity="0" result="BackgroundImageFix"/><feBlend in="SourceGraphic" in2="BackgroundImageFix" result="shape"/><feColorMatrix in="SourceAlpha" result="hardAlpha" values="0 0 0 0 0 0 0 0 0 0 0 0 0 0 0 0 0 0 127 0"/><feOffset/><feGaussianBlur stdDeviation=".5"/><feComposite in2="hardAlpha" k2="-1" k3="1" operator="arithmetic"/><feColorMatrix values="0 0 0 0 0 0 0 0 0 0 0 0 0 0 0 0 0 0 0.24 0"/><feBlend in2="shape" result="effect1_innerShadow_23746_2133"/><feColorMatrix in="SourceAlpha" result="hardAlpha" values="0 0 0 0 0 0 0 0 0 0 0 0 0 0 0 0 0 0 127 0"/><feOffset/><feGaussianBlur stdDeviation=".5"/><feComposite in2="hardAlpha" k2="-1" k3="1" operator="arithmetic"/><feColorMatrix values="0 0 0 0 1 0 0 0 0 1 0 0 0 0 1 0 0 0 0.32 0"/><feBlend in2="effect1_innerShadow_23746_2133" result="effect2_innerShadow_23746_2133"/></filter></defs></svg>