<svg xmlns="http://www.w3.org/2000/svg" width="32" height="32" viewBox="0 0 32 32"><path d="M25 5.25H7A4.755 4.755 0 0 0 2.25 10v12A4.756 4.756 0 0 0 7 26.75h18A4.755 4.755 0 0 0 29.75 22V10A4.755 4.755 0 0 0 25 5.25ZM28.25 22A3.254 3.254 0 0 1 25 25.25H7A3.254 3.254 0 0 1 3.75 22V10A3.254 3.254 0 0 1 7 6.75h18A3.254 3.254 0 0 1 28.25 10v12Z"/><path d="M16 14.868a5.714 5.714 0 0 0-4.066 1.684.75.75 0 1 0 1.06 1.06 4.249 4.249 0 0 1 6.012 0 .75.75 0 0 0 1.06-1.06A5.714 5.714 0 0 0 16 14.868ZM16 21.16a1.25 1.25 0 1 0 0-2.5 1.25 1.25 0 0 0 0 2.5Z"/><path d="M16 10.864a9.689 9.689 0 0 0-6.894 2.86.75.75 0 1 0 1.06 1.06 8.242 8.242 0 0 1 11.668 0 .75.75 0 0 0 1.06-1.06A9.688 9.688 0 0 0 16 10.863Z"/></svg>