<svg xmlns="http://www.w3.org/2000/svg" width="180" height="96" fill="none" viewBox="0 0 180 96"><g clip-path="url(#a)"><rect width="159" height="26" x="10.5" y="34.5" fill="url(#b)" rx="4.5"/><rect width="159" height="26" x="10.5" y="34.5" fill="url(#c)" rx="4.5"/><rect width="159" height="26" x="10.5" y="34.5" fill="url(#d)" rx="4.5"/><rect width="159" height="26" x="10.5" y="34.5" stroke="#151B1E" stroke-opacity=".48" rx="4.5"/><rect width="159" height="26" x="10.5" y="34.5" stroke="#151B1E" stroke-opacity=".12" rx="4.5"/><rect width="159" height="26" x="10.5" y="34.5" stroke="url(#e)" rx="4.5"/><rect width="157.6" height="24.6" x="11.2" y="35.2" stroke="#151B1E" stroke-opacity=".32" stroke-width=".4" rx="3.8"/><circle cx="90" cy="47.5" r="6.875" fill="url(#f)"/><circle cx="90" cy="47.5" r="6.875" stroke="#21242D" stroke-opacity=".659" stroke-width=".75"/><circle cx="90" cy="47.5" r="6.875" stroke="url(#g)" stroke-width=".75"/><path fill="url(#h)" d="M90 50.7c1.755 0 3.167-1.439 3.167-3.2s-1.412-3.2-3.166-3.2-3.167 1.439-3.167 3.2 1.412 3.2 3.167 3.2"/><path stroke="url(#i)" d="M90 50.7c1.755 0 3.167-1.439 3.167-3.2s-1.412-3.2-3.166-3.2-3.167 1.439-3.167 3.2 1.412 3.2 3.167 3.2Z"/><path stroke="#16181C" stroke-opacity=".64" d="M90 50.7c1.755 0 3.167-1.439 3.167-3.2s-1.412-3.2-3.166-3.2-3.167 1.439-3.167 3.2 1.412 3.2 3.167 3.2Z"/><path fill="#2A2A35" fill-opacity=".48" fill-rule="evenodd" d="M91.606 45.344c.5.382.861.937 1 1.577-.367.18-1.139.423-2.639.423-1.372 0-2.146-.263-2.557-.488.145-.6.487-1.12.954-1.488l1.415.621z" clip-rule="evenodd"/><path fill="#fff" fill-rule="evenodd" d="M92.153 45.908c.258.357.431.782.49 1.242l-.497.092a3.6 3.6 0 0 0-.369-1.075zM87.342 47.292q.028-.356.14-.68l.313.074s-.24.92-.18 1.104c0 0-.217.056-.225 0a3 3 0 0 1-.048-.498M89.996 42.104c-.137.002-.246.104-.246.23v.74c0 .127.112.23.25.23s.25-.103.25-.23v-.74c0-.129-.115-.232-.254-.23" clip-rule="evenodd" opacity=".96"/></g><defs><linearGradient id="b" x1="10" x2="170" y1="63.095" y2="63.095" gradientUnits="userSpaceOnUse"><stop stop-color="#C1C5C7"/><stop offset="1" stop-color="#9CA1A7"/></linearGradient><linearGradient id="c" x1="75.026" x2="75.026" y1="55.947" y2="61" gradientUnits="userSpaceOnUse"><stop stop-opacity=".01"/><stop offset="1" stop-opacity=".08"/></linearGradient><linearGradient id="d" x1="31.698" x2="31.698" y1="41.323" y2="61" gradientUnits="userSpaceOnUse"><stop stop-opacity=".01"/><stop offset="1" stop-opacity=".08"/></linearGradient><linearGradient id="e" x1="10" x2="10" y1="34" y2="61" gradientUnits="userSpaceOnUse"><stop stop-color="#E9E9E8"/><stop offset="1" stop-color="#E0E2E5"/></linearGradient><linearGradient id="f" x1="88.051" x2="96.399" y1="51.674" y2="51.674" gradientUnits="userSpaceOnUse"><stop stop-color="#4F5A6A"/><stop offset="1" stop-color="#555858"/></linearGradient><linearGradient id="g" x1="82.75" x2="82.75" y1="40.25" y2="54.75" gradientUnits="userSpaceOnUse"><stop stop-color="#D9D9DD"/><stop offset="1" stop-color="#C7C9CE"/></linearGradient><linearGradient id="h" x1="87.334" x2="87.334" y1="44.8" y2="50.2" gradientUnits="userSpaceOnUse"><stop stop-color="#767687"/><stop offset="1" stop-color="#626772"/></linearGradient><linearGradient id="i" x1="87.334" x2="87.334" y1="44.8" y2="50.2" gradientUnits="userSpaceOnUse"><stop stop-color="#353A43"/><stop offset="1" stop-color="#353A43"/></linearGradient><clipPath id="a"><path fill="#fff" d="M0 0h180v96H0z"/></clipPath></defs></svg>