<svg xmlns="http://www.w3.org/2000/svg" width="32" height="32" viewBox="0 0 32 32"><path d="m4.322 24.947 10.996 4.669a1.77 1.77 0 0 0 1.35-.002l11.004-4.665a1.745 1.745 0 0 0 1.078-1.616V8.666a1.74 1.74 0 0 0-1.072-1.613L16.663 2.385a1.774 1.774 0 0 0-1.35.001L4.324 7.053A1.74 1.74 0 0 0 3.25 8.667v14.667a1.74 1.74 0 0 0 1.072 1.613m11.767 3.284a.26.26 0 0 1-.19.002l-9.948-4.224 9.973-4.157a.24.24 0 0 1 .192.001l9.944 4.15zM27.25 8.666v14.208l-10.5-4.382V4.05l10.346 4.385a.25.25 0 0 1 .154.23m-22.346-.23.005-.002L15.25 4.042v14.466l-10.5 4.376V8.667a.25.25 0 0 1 .154-.23"/></svg>