<svg xmlns="http://www.w3.org/2000/svg" width="180" height="96" fill="none" viewBox="0 0 180 96"><g clip-path="url(#a)"><g clip-path="url(#b)"><path fill="url(#c)" d="M30 6h120v70H30z"/><path fill="url(#d)" fill-rule="evenodd" d="m147 9 3-3v70l-3-3z" clip-rule="evenodd" opacity=".2"/><path fill="url(#e)" fill-rule="evenodd" d="m33 9-3-3v70l3-3z" clip-rule="evenodd" opacity=".6"/><path stroke="#000" stroke-opacity=".24" stroke-width=".5" d="M30.25 6.25h119.5v69.5H30.25z"/><path stroke="url(#f)" stroke-width=".5" d="M30.25 6.25h119.5v69.5H30.25z"/><path fill="#222" d="M33 9h114v64H33z"/><path fill="url(#g)" d="M33 9h114v64H33z"/><path stroke="#fff" stroke-opacity=".24" stroke-width=".5" d="M33 9h114v64H33z"/><path fill="url(#h)" d="M30 6h120v70H30z"/><path fill="#fff" fill-opacity=".24" d="M86.428 46v-9.017h3.308v-.847H82.19v.847h3.309V46zm9.037 0 3.684-9.864h-.984l-3.124 8.64h-.089l-3.124-8.64h-.984L94.535 46z"/></g><g filter="url(#i)"><path fill="url(#j)" fill-rule="evenodd" d="M67.992 93.857S67.992 96 56.5 96s-11.492-2.143-11.492-2.143V46.714S44.29 46 56.5 46s11.492.714 11.492.714z" clip-rule="evenodd"/></g><g filter="url(#k)"><path fill="url(#l)" fill-rule="evenodd" d="M67.984 93.174s0 2.112-11.492 2.112S45 93.174 45 93.174v-46.46h22.984z" clip-rule="evenodd"/></g><path fill="url(#m)" fill-rule="evenodd" d="M67.984 92.584s0 1.987-11.492 1.987S45 92.585 45 92.585V80.286s2.155 1.428 11.492 1.428 11.492-1.428 11.492-1.428z" clip-rule="evenodd"/><path fill="#C5C5C5" fill-rule="evenodd" d="M55.246 80.091h.196v-.824h-.196zm1.785-.588c-.007-.002-.07-.045-.165-.045-.128 0-.216.095-.216.223 0 .122.086.22.216.22.092 0 .158-.04.165-.045v.22a.5.5 0 0 1-.18.03.41.41 0 0 1-.413-.425c0-.248.174-.428.413-.428.093 0 .161.023.18.03zm-2.054 0c-.008-.002-.071-.045-.166-.045-.128 0-.215.095-.215.223 0 .122.085.22.215.22.092 0 .158-.04.166-.045v.22a.5.5 0 0 1-.178.03.41.41 0 0 1-.416-.425c0-.248.175-.428.416-.428.092 0 .16.023.178.03zm2.674-.041c-.116 0-.204.1-.204.217 0 .12.088.218.204.218.118 0 .203-.098.203-.218 0-.117-.085-.217-.203-.217m.413.217a.414.414 0 0 1-.414.428.413.413 0 0 1-.412-.428.41.41 0 0 1 .412-.425c.241 0 .414.19.414.425m-1.872-.224c-.002 0-.085-.025-.154-.025-.08 0-.123.027-.123.067 0 .05.06.068.092.078l.052.02c.13.042.187.135.187.235 0 .207-.17.277-.321.277-.107 0-.204-.022-.216-.025v-.187c.02.005.102.03.187.03.1 0 .145-.03.145-.078 0-.04-.04-.065-.09-.08-.01-.005-.029-.01-.04-.015-.112-.037-.204-.105-.204-.242 0-.153.111-.258.293-.258.095 0 .185.025.192.028zm-2.017-1.073a.1.1 0 0 0-.1-.103c-.054 0-.097.046-.097.103v.215c0 .057.043.105.097.105.052 0 .1-.048.1-.105zm.535-.284a.1.1 0 0 0-.1-.103c-.051 0-.096.048-.096.103v.5c0 .057.045.104.097.104.054 0 .099-.047.099-.105zm.537-.389a.1.1 0 0 0-.1-.102.1.1 0 0 0-.096.102v1.095c0 .055.045.102.097.102.054 0 .1-.047.1-.102zm.537.389c0-.055-.045-.103-.097-.103-.054 0-.1.048-.1.103v.5c0 .057.046.104.1.104.052 0 .097-.047.097-.105zm.537.284a.1.1 0 0 0-.099-.103.1.1 0 0 0-.097.103v.215c0 .057.045.105.097.105.054 0 .1-.048.1-.105zm.535-.284a.1.1 0 0 0-.099-.103c-.052 0-.097.048-.097.103v.5c0 .057.045.104.097.104.054 0 .1-.047.1-.105zm.538-.389c0-.057-.043-.102-.097-.102a.1.1 0 0 0-.1.102v1.095c0 .055.045.102.1.102.054 0 .097-.047.097-.102zm.537.389a.1.1 0 0 0-.1-.103c-.054 0-.097.048-.097.103v.5c0 .057.043.104.097.104s.1-.047.1-.105zm.537.284a.1.1 0 0 0-.097-.103.1.1 0 0 0-.1.103v.215c0 .057.045.105.1.105.052 0 .097-.048.097-.105z" clip-rule="evenodd"/><path fill="url(#n)" fill-rule="evenodd" d="M59.014 67.786c0 1.38-1.125 2.5-2.514 2.5a2.507 2.507 0 0 1-2.514-2.5c0-1.381 1.126-2.5 2.514-2.5a2.507 2.507 0 0 1 2.514 2.5" clip-rule="evenodd"/></g><defs><linearGradient id="c" x1="30" x2="143.868" y1="39.212" y2="39.212" gradientUnits="userSpaceOnUse"><stop stop-color="#9A9EA1"/><stop offset="1" stop-color="#D3D3D3"/></linearGradient><linearGradient id="d" x1="147" x2="147" y1="6" y2="76" gradientUnits="userSpaceOnUse"><stop stop-color="#666"/><stop offset=".294" stop-color="#A0A0A2"/><stop offset="1" stop-color="#696969"/></linearGradient><linearGradient id="e" x1="31.5" x2="31.5" y1="6" y2="76" gradientUnits="userSpaceOnUse"><stop stop-color="#AAABAD"/><stop offset=".157" stop-color="#DCDCDC"/><stop offset="1" stop-color="#AAABAD"/></linearGradient><linearGradient id="f" x1="-30" x2="30.933" y1="41" y2="145.456" gradientUnits="userSpaceOnUse"><stop stop-color="#fff" stop-opacity=".4"/><stop offset=".542" stop-color="#fff" stop-opacity=".01"/><stop offset="1" stop-color="#fff" stop-opacity=".4"/></linearGradient><linearGradient id="g" x1="-24" x2="30.639" y1="41" y2="138.326" gradientUnits="userSpaceOnUse"><stop stop-color="#fff" stop-opacity=".16"/><stop offset="1" stop-opacity=".5"/></linearGradient><linearGradient id="h" x1="-30" x2="30.933" y1="41" y2="145.456" gradientUnits="userSpaceOnUse"><stop stop-color="#fff" stop-opacity=".08"/><stop offset="1" stop-color="#fff" stop-opacity=".01"/></linearGradient><linearGradient id="j" x1="45" x2="45" y1="46" y2="96" gradientUnits="userSpaceOnUse"><stop stop-color="#F5F5F5"/><stop offset="1" stop-color="#D5D5D5"/></linearGradient><linearGradient id="l" x1="45.407" x2="67.984" y1="94.855" y2="94.855" gradientUnits="userSpaceOnUse"><stop stop-color="#F5F5F5"/><stop offset=".196" stop-color="#F5F5F5"/><stop offset=".774" stop-color="#E6E6E6"/><stop offset="1" stop-color="#C8C8C8"/></linearGradient><linearGradient id="m" x1="49.062" x2="49.062" y1="85.335" y2="94.572" gradientUnits="userSpaceOnUse"><stop stop-color="#fff" stop-opacity=".2"/><stop offset="1" stop-color="#707070" stop-opacity=".08"/></linearGradient><linearGradient id="n" x1="59.374" x2="55.293" y1="66.954" y2="64.417" gradientUnits="userSpaceOnUse"><stop stop-color="#F5F5F5"/><stop offset="1" stop-color="#DADADA"/></linearGradient><clipPath id="a"><path fill="#fff" d="M0 0h180v96H0z"/></clipPath><clipPath id="b"><path fill="#fff" d="M30 6h120v70H30z"/></clipPath><filter id="i" width="24" height="50" x="45" y="46" color-interpolation-filters="sRGB" filterUnits="userSpaceOnUse"><feFlood flood-opacity="0" result="BackgroundImageFix"/><feBlend in="SourceGraphic" in2="BackgroundImageFix" result="shape"/><feColorMatrix in="SourceAlpha" result="hardAlpha" values="0 0 0 0 0 0 0 0 0 0 0 0 0 0 0 0 0 0 127 0"/><feOffset dx="1"/><feGaussianBlur stdDeviation=".5"/><feComposite in2="hardAlpha" k2="-1" k3="1" operator="arithmetic"/><feColorMatrix values="0 0 0 0 0 0 0 0 0 0 0 0 0 0 0 0 0 0 0.04 0"/><feBlend in2="shape" result="effect1_innerShadow_23746_2134"/></filter><filter id="k" width="23.984" height="49.571" x="44.5" y="46.214" color-interpolation-filters="sRGB" filterUnits="userSpaceOnUse"><feFlood flood-opacity="0" result="BackgroundImageFix"/><feColorMatrix in="SourceAlpha" result="hardAlpha" values="0 0 0 0 0 0 0 0 0 0 0 0 0 0 0 0 0 0 127 0"/><feOffset/><feGaussianBlur stdDeviation=".25"/><feColorMatrix values="0 0 0 0 0 0 0 0 0 0 0 0 0 0 0 0 0 0 0.24 0"/><feBlend in2="BackgroundImageFix" result="effect1_dropShadow_23746_2134"/><feBlend in="SourceGraphic" in2="effect1_dropShadow_23746_2134" result="shape"/></filter></defs></svg>