<svg xmlns="http://www.w3.org/2000/svg" width="180" height="96" fill="none" viewBox="0 0 180 96"><g clip-path="url(#a)"><path fill="url(#b)" fill-rule="evenodd" d="M22.718 66.53A1 1 0 0 1 23.6 66h132.8c.369 0 .709.204.882.53L165 81H15z" clip-rule="evenodd"/><mask id="c" width="150" height="15" x="15" y="66" maskUnits="userSpaceOnUse" style="mask-type:luminance"><path fill="#fff" fill-rule="evenodd" d="M15 66h150v15H15z" clip-rule="evenodd"/></mask><g mask="url(#c)"><path fill="url(#d)" fill-rule="evenodd" d="M23.6 66h132.8a1 1 0 0 1 .882.529L165 81H15l7.718-14.471A1 1 0 0 1 23.6 66" clip-rule="evenodd"/></g><path fill="#C8C8C8" fill-rule="evenodd" d="M86.39 73.806h.525v-.932h-.524zm4.77-.664c-.02-.003-.19-.051-.444-.051-.34 0-.575.107-.575.251 0 .139.228.249.575.249.247 0 .424-.045.443-.051v.248a3 3 0 0 1-.48.034c-.588 0-1.107-.183-1.107-.48 0-.28.468-.482 1.107-.482.246 0 .43.025.48.034zm-5.493 0c-.019-.003-.19-.05-.443-.05-.341 0-.575.106-.575.25 0 .139.228.249.575.249.247 0 .424-.045.443-.051v.248c-.063.012-.24.034-.474.034-.594 0-1.113-.183-1.113-.48 0-.28.468-.482 1.113-.482.246 0 .43.025.474.034zm7.148-.047c-.31 0-.543.113-.543.246 0 .135.233.245.543.245.316 0 .544-.11.544-.245 0-.133-.228-.246-.544-.246m1.106.246c0 .265-.461.482-1.106.482-.639 0-1.1-.217-1.1-.482 0-.266.461-.48 1.1-.48.645 0 1.106.214 1.106.48m-5.006-.254c-.006 0-.227-.028-.41-.028-.216 0-.33.03-.33.076 0 .056.159.076.247.087l.14.023c.347.048.499.152.499.265 0 .234-.456.313-.86.313-.285 0-.544-.025-.575-.028v-.211c.05.005.271.034.499.034.266 0 .386-.034.386-.088 0-.045-.108-.073-.24-.09-.026-.006-.076-.012-.108-.017-.297-.043-.544-.119-.544-.274 0-.172.297-.29.784-.29.253 0 .493.027.512.03zm-5.39-1.212c0-.065-.127-.115-.266-.115-.145 0-.259.05-.259.115v.243c0 .065.114.119.26.119.138 0 .265-.054.265-.119zm1.433-.32c0-.063-.12-.117-.265-.117-.14 0-.26.054-.26.116v.565c0 .065.12.118.26.118.145 0 .265-.053.265-.118zm1.434-.44c0-.064-.12-.115-.266-.115-.139 0-.259.05-.259.116v1.236c0 .062.12.116.26.116.145 0 .265-.054.265-.116zm1.434.44c0-.063-.12-.117-.26-.117-.145 0-.265.054-.265.116v.565c0 .065.12.118.265.118.14 0 .26-.053.26-.118zm1.435.32c0-.065-.12-.115-.265-.115-.14 0-.26.05-.26.115v.243c0 .065.12.119.26.119.145 0 .265-.054.265-.119zm1.432-.32c0-.063-.12-.117-.266-.117-.139 0-.259.054-.259.116v.565c0 .065.12.118.26.118.145 0 .265-.053.265-.118zm1.435-.44c0-.064-.114-.115-.259-.115s-.266.05-.266.116v1.236c0 .062.12.116.266.116.145 0 .26-.054.26-.116zm1.44.44c0-.063-.12-.117-.266-.117-.145 0-.259.054-.259.116v.565c0 .065.114.118.26.118.145 0 .265-.053.265-.118zm1.431.32c0-.065-.12-.115-.259-.115-.145 0-.265.05-.265.115v.243c0 .065.12.119.265.119.14 0 .26-.054.26-.119z" clip-rule="evenodd"/><rect width="150" height="16" x="15" y="80" fill="url(#e)" rx="1"/><mask id="f" width="102" height="16" x="39" y="41" maskUnits="userSpaceOnUse" style="mask-type:luminance"><path fill="#fff" fill-rule="evenodd" d="M39 41h102v16H39z" clip-rule="evenodd"/></mask><g filter="url(#g)" mask="url(#f)"><path fill="#555" fill-rule="evenodd" d="M45.607 41h88.769l5.807 4.26c.618.453.923 1.217.785 1.969l-1.033 5.666A5.016 5.016 0 0 1 134.997 57H45.005a5.015 5.015 0 0 1-4.939-4.105l-1.033-5.668a2 2 0 0 1 .783-1.967z" clip-rule="evenodd"/></g><mask id="h" width="100" height="13" x="40" y="41" maskUnits="userSpaceOnUse" style="mask-type:luminance"><path fill="#fff" fill-rule="evenodd" d="M40.5 41h99v13h-99z" clip-rule="evenodd"/></mask><g filter="url(#i)" mask="url(#h)"><path fill="url(#j)" fill-rule="evenodd" d="M46.226 41h87.549l5.01 4.196a2.01 2.01 0 0 1 .656 2.022l-.745 2.995A4.98 4.98 0 0 1 133.87 54H46.13a4.98 4.98 0 0 1-4.826-3.787l-.745-2.995a2.01 2.01 0 0 1 .657-2.022z" clip-rule="evenodd"/></g><path fill="#908E8E" fill-rule="evenodd" d="M88.602 52.18h.247v-1.056h-.247zm2.25-.753c-.008-.003-.089-.057-.208-.057-.161 0-.272.121-.272.285 0 .156.108.281.272.281.116 0 .2-.051.209-.057v.281a.6.6 0 0 1-.227.038.52.52 0 0 1-.523-.543c0-.317.222-.547.523-.547.116 0 .203.028.227.038zm-2.593 0c-.009-.003-.09-.057-.209-.057-.161 0-.272.121-.272.285 0 .156.108.281.272.281.117 0 .2-.051.21-.058v.282a.6.6 0 0 1-.225.038.52.52 0 0 1-.525-.544c0-.316.22-.547.525-.547.117 0 .203.03.224.039zm3.375-.053c-.147 0-.257.128-.257.279 0 .153.11.278.257.278.149 0 .257-.125.257-.278 0-.15-.108-.279-.257-.279m.523.279c0 .3-.218.547-.522.547-.302 0-.52-.247-.52-.547s.218-.544.52-.544c.304 0 .522.243.522.544m-2.363-.288c-.003 0-.108-.032-.194-.032-.102 0-.156.035-.156.087 0 .063.075.086.117.099l.065.025c.165.055.236.173.236.3 0 .267-.215.356-.406.356-.134 0-.256-.029-.271-.032v-.24c.023.007.128.039.236.039.125 0 .182-.039.182-.1 0-.05-.051-.083-.114-.102-.012-.006-.036-.013-.05-.02-.14-.047-.257-.134-.257-.31 0-.195.14-.329.37-.329.12 0 .233.032.242.035zm-2.546-1.373a.13.13 0 0 0-.126-.131c-.068 0-.122.057-.122.131v.275c0 .074.054.134.122.134.066 0 .126-.06.126-.134zm.676-.364c0-.07-.057-.131-.126-.131-.066 0-.122.06-.122.131v.64c0 .073.056.134.122.134.069 0 .126-.06.126-.134zm.677-.497a.13.13 0 0 0-.125-.131c-.066 0-.123.058-.123.131v1.401c0 .07.057.132.123.132.069 0 .125-.061.125-.132zm.678.497c0-.07-.057-.131-.122-.131-.069 0-.126.06-.126.131v.64c0 .073.057.134.126.134.065 0 .122-.06.122-.134zm.678.364a.13.13 0 0 0-.126-.131c-.065 0-.122.057-.122.131v.275c0 .074.057.134.122.134.07 0 .126-.06.126-.134zm.676-.364c0-.07-.057-.131-.126-.131-.066 0-.122.06-.122.131v.64c0 .073.056.134.122.134.069 0 .126-.06.126-.134zm.677-.497c0-.073-.053-.131-.122-.131a.13.13 0 0 0-.126.131v1.401c0 .07.057.132.126.132s.122-.061.122-.132zm.68.497c0-.07-.057-.131-.125-.131-.069 0-.123.06-.123.131v.64c0 .073.054.134.123.134.068 0 .125-.06.125-.134zm.676.364c0-.074-.057-.131-.123-.131a.13.13 0 0 0-.125.131v.275c0 .074.057.134.125.134.066 0 .123-.06.123-.134z" clip-rule="evenodd"/><g filter="url(#k)"><path fill="#1C1B1B" fill-rule="evenodd" d="M80.5 28h-1l2.694 14.369A2 2 0 0 0 84.16 44h11.68a2 2 0 0 0 1.966-1.631L100.5 28h-1l-2.642 11.45A2 2 0 0 1 94.909 41h-9.818a2 2 0 0 1-1.949-1.55z" clip-rule="evenodd"/></g><g filter="url(#l)"><circle cx="90" cy="18" r="18" fill="#3B3A3A"/></g><g filter="url(#m)"><circle cx="90" cy="18" r="13" fill="#172029"/></g><g filter="url(#n)"><circle cx="90" cy="18" r="8" fill="#232122"/></g><g filter="url(#o)"><circle cx="90" cy="18" r="4" fill="#10151C"/></g><g filter="url(#p)"><circle cx="90" cy="18" r="1" fill="#000" fill-opacity=".01"/></g></g><defs><filter id="g" width="102" height="16.5" x="39" y="40.5" color-interpolation-filters="sRGB" filterUnits="userSpaceOnUse"><feFlood flood-opacity="0" result="BackgroundImageFix"/><feBlend in="SourceGraphic" in2="BackgroundImageFix" result="shape"/><feColorMatrix in="SourceAlpha" result="hardAlpha" values="0 0 0 0 0 0 0 0 0 0 0 0 0 0 0 0 0 0 127 0"/><feOffset dy="-.5"/><feGaussianBlur stdDeviation="1"/><feComposite in2="hardAlpha" k2="-1" k3="1" operator="arithmetic"/><feColorMatrix values="0 0 0 0 0 0 0 0 0 0 0 0 0 0 0 0 0 0 0.8 0"/><feBlend in2="shape" result="effect1_innerShadow_23746_2130"/></filter><filter id="i" width="100" height="14" x="40" y="41" color-interpolation-filters="sRGB" filterUnits="userSpaceOnUse"><feFlood flood-opacity="0" result="BackgroundImageFix"/><feColorMatrix in="SourceAlpha" result="hardAlpha" values="0 0 0 0 0 0 0 0 0 0 0 0 0 0 0 0 0 0 127 0"/><feOffset dy=".5"/><feGaussianBlur stdDeviation=".25"/><feColorMatrix values="0 0 0 0 0 0 0 0 0 0 0 0 0 0 0 0 0 0 0.6 0"/><feBlend in2="BackgroundImageFix" result="effect1_dropShadow_23746_2130"/><feBlend in="SourceGraphic" in2="effect1_dropShadow_23746_2130" result="shape"/><feColorMatrix in="SourceAlpha" result="hardAlpha" values="0 0 0 0 0 0 0 0 0 0 0 0 0 0 0 0 0 0 127 0"/><feOffset dy="-.5"/><feComposite in2="hardAlpha" k2="-1" k3="1" operator="arithmetic"/><feColorMatrix values="0 0 0 0 1 0 0 0 0 1 0 0 0 0 1 0 0 0 0.24 0"/><feBlend in2="shape" result="effect2_innerShadow_23746_2130"/></filter><filter id="k" width="21" height="17" x="79.5" y="28" color-interpolation-filters="sRGB" filterUnits="userSpaceOnUse"><feFlood flood-opacity="0" result="BackgroundImageFix"/><feBlend in="SourceGraphic" in2="BackgroundImageFix" result="shape"/><feColorMatrix in="SourceAlpha" result="hardAlpha" values="0 0 0 0 0 0 0 0 0 0 0 0 0 0 0 0 0 0 127 0"/><feOffset dy="1"/><feGaussianBlur stdDeviation=".5"/><feComposite in2="hardAlpha" k2="-1" k3="1" operator="arithmetic"/><feColorMatrix values="0 0 0 0 1 0 0 0 0 1 0 0 0 0 1 0 0 0 0.5 0"/><feBlend in2="shape" result="effect1_innerShadow_23746_2130"/></filter><filter id="l" width="36" height="36" x="72" y="0" color-interpolation-filters="sRGB" filterUnits="userSpaceOnUse"><feFlood flood-opacity="0" result="BackgroundImageFix"/><feBlend in="SourceGraphic" in2="BackgroundImageFix" result="shape"/><feColorMatrix in="SourceAlpha" result="hardAlpha" values="0 0 0 0 0 0 0 0 0 0 0 0 0 0 0 0 0 0 127 0"/><feMorphology in="SourceAlpha" radius="1" result="effect1_innerShadow_23746_2130"/><feOffset/><feGaussianBlur stdDeviation=".5"/><feComposite in2="hardAlpha" k2="-1" k3="1" operator="arithmetic"/><feColorMatrix values="0 0 0 0 0 0 0 0 0 0 0 0 0 0 0 0 0 0 0.4 0"/><feBlend in2="shape" result="effect1_innerShadow_23746_2130"/></filter><filter id="m" width="26" height="26" x="77" y="5" color-interpolation-filters="sRGB" filterUnits="userSpaceOnUse"><feFlood flood-opacity="0" result="BackgroundImageFix"/><feBlend in="SourceGraphic" in2="BackgroundImageFix" result="shape"/><feColorMatrix in="SourceAlpha" result="hardAlpha" values="0 0 0 0 0 0 0 0 0 0 0 0 0 0 0 0 0 0 127 0"/><feMorphology in="SourceAlpha" radius="2" result="effect1_innerShadow_23746_2130"/><feOffset/><feGaussianBlur stdDeviation="1"/><feComposite in2="hardAlpha" k2="-1" k3="1" operator="arithmetic"/><feColorMatrix values="0 0 0 0 0 0 0 0 0 0 0 0 0 0 0 0 0 0 0.6 0"/><feBlend in2="shape" result="effect1_innerShadow_23746_2130"/></filter><filter id="n" width="16" height="16" x="82" y="10" color-interpolation-filters="sRGB" filterUnits="userSpaceOnUse"><feFlood flood-opacity="0" result="BackgroundImageFix"/><feBlend in="SourceGraphic" in2="BackgroundImageFix" result="shape"/><feColorMatrix in="SourceAlpha" result="hardAlpha" values="0 0 0 0 0 0 0 0 0 0 0 0 0 0 0 0 0 0 127 0"/><feMorphology in="SourceAlpha" radius="2" result="effect1_innerShadow_23746_2130"/><feOffset/><feGaussianBlur stdDeviation="1"/><feComposite in2="hardAlpha" k2="-1" k3="1" operator="arithmetic"/><feColorMatrix values="0 0 0 0 0 0 0 0 0 0 0 0 0 0 0 0 0 0 0.6 0"/><feBlend in2="shape" result="effect1_innerShadow_23746_2130"/></filter><filter id="o" width="10" height="10" x="85" y="13" color-interpolation-filters="sRGB" filterUnits="userSpaceOnUse"><feFlood flood-opacity="0" result="BackgroundImageFix"/><feColorMatrix in="SourceAlpha" result="hardAlpha" values="0 0 0 0 0 0 0 0 0 0 0 0 0 0 0 0 0 0 127 0"/><feMorphology in="SourceAlpha" operator="dilate" radius=".5" result="effect1_dropShadow_23746_2130"/><feOffset/><feGaussianBlur stdDeviation=".25"/><feColorMatrix values="0 0 0 0 1 0 0 0 0 1 0 0 0 0 1 0 0 0 0.08 0"/><feBlend in2="BackgroundImageFix" result="effect1_dropShadow_23746_2130"/><feBlend in="SourceGraphic" in2="effect1_dropShadow_23746_2130" result="shape"/></filter><filter id="p" width="2.5" height="2.5" x="88.75" y="16.75" color-interpolation-filters="sRGB" filterUnits="userSpaceOnUse"><feFlood flood-opacity="0" result="BackgroundImageFix"/><feColorMatrix in="SourceAlpha" result="hardAlpha" values="0 0 0 0 0 0 0 0 0 0 0 0 0 0 0 0 0 0 127 0"/><feOffset/><feGaussianBlur stdDeviation=".125"/><feColorMatrix values="0 0 0 0 0.0922915 0 0 0 0 0.16284 0 0 0 0 0.150571 0 0 0 1 0"/><feBlend in2="BackgroundImageFix" result="effect1_dropShadow_23746_2130"/><feBlend in="SourceGraphic" in2="effect1_dropShadow_23746_2130" result="shape"/></filter><radialGradient id="b" cx="0" cy="0" r="1" gradientTransform="matrix(-70.8008 0 0 -.40915 90 73.5)" gradientUnits="userSpaceOnUse"><stop stop-color="#F5F6F7"/><stop offset="1" stop-color="#EFEFEF"/></radialGradient><radialGradient id="d" cx="0" cy="0" r="1" gradientTransform="matrix(-70.8008 0 0 -.40915 90 73.5)" gradientUnits="userSpaceOnUse"><stop stop-color="#F5F6F7"/><stop offset="1" stop-color="#EFEFEF"/></radialGradient><linearGradient id="e" x1="15" x2="165" y1="96.372" y2="96.372" gradientUnits="userSpaceOnUse"><stop stop-color="#E9EAEB"/><stop offset=".013" stop-color="#D3D4D5"/><stop offset=".501" stop-color="#DADBDC"/><stop offset=".968" stop-color="#D8D8D9"/><stop offset=".984" stop-color="#E2E2E2"/><stop offset="1" stop-color="#F7F7F7"/></linearGradient><linearGradient id="j" x1="40.5" x2="40.5" y1="41" y2="54" gradientUnits="userSpaceOnUse"><stop stop-color="#DBDCDD"/><stop offset=".316" stop-color="#E0E0E1"/><stop offset=".409" stop-color="#F7F7F7"/><stop offset=".524" stop-color="#D7D9DB"/><stop offset="1" stop-color="#CFD1D3"/></linearGradient><clipPath id="a"><path fill="#fff" d="M0 0h180v96H0z"/></clipPath></defs></svg>