<svg xmlns="http://www.w3.org/2000/svg" width="32" height="32" viewBox="0 0 32 32"><path d="M23 4H9a5.006 5.006 0 0 0-5 5v14a5.006 5.006 0 0 0 5 5h14a5.027 5.027 0 0 0 5-5.043v-14A4.984 4.984 0 0 0 23 4ZM9 6h14a2.982 2.982 0 0 1 3 2.957V17h-5.204a1.997 1.997 0 0 0-1.951 1.576l-.732 3.293a.265.265 0 0 1-.234.131.249.249 0 0 1-.238-.145L13.947 9.522a2.252 2.252 0 0 0-2.14-1.523L11.78 8a2.264 2.264 0 0 0-2.145 1.601l-2.19 7.4H6V9a3.003 3.003 0 0 1 3-3Zm14 20H9a3.003 3.003 0 0 1-3-3v-4h1.445a2.014 2.014 0 0 0 1.916-1.442l2.183-7.356a.261.261 0 0 1 .259-.203h.004a.245.245 0 0 1 .24.146l3.694 12.333A2.262 2.262 0 0 0 17.885 24a2.263 2.263 0 0 0 2.11-1.441c.02-.05.036-.102.048-.154L20.796 19H26v3.957A3.025 3.025 0 0 1 23 26Z"/></svg>