<svg xmlns="http://www.w3.org/2000/svg" width="32" height="32" viewBox="0 0 32 32"><path d="M23 4.25H9A4.755 4.755 0 0 0 4.25 9v14A4.756 4.756 0 0 0 9 27.75h14a4.777 4.777 0 0 0 4.75-4.793v-14A4.734 4.734 0 0 0 23 4.25M9 5.75h14a3.23 3.23 0 0 1 3.25 3.207v8.293h-5.454a1.75 1.75 0 0 0-1.707 1.38l-.74 3.326a.47.47 0 0 1-.475.294.495.495 0 0 1-.473-.323l-3.69-12.321a2.005 2.005 0 0 0-1.904-1.357l-.023.001a2.01 2.01 0 0 0-1.908 1.422l-2.193 7.39a.254.254 0 0 1-.238.188H5.75V9A3.254 3.254 0 0 1 9 5.75m14 20.5H9A3.254 3.254 0 0 1 5.75 23v-4.25h1.695a1.76 1.76 0 0 0 1.676-1.263l2.186-7.365a.51.51 0 0 1 .493-.373.46.46 0 0 1 .487.324l3.69 12.321a2.01 2.01 0 0 0 1.87 1.355l.038.001a2.01 2.01 0 0 0 1.878-1.284 1 1 0 0 0 .036-.115l.754-3.393a.255.255 0 0 1 .243-.207h5.454v4.206A3.276 3.276 0 0 1 23 26.25"/></svg>