<svg xmlns="http://www.w3.org/2000/svg" width="32" height="32" viewBox="0 0 32 32"><path d="M23 4H9a5.006 5.006 0 0 0-5 5v14a5.006 5.006 0 0 0 5 5h14a5.027 5.027 0 0 0 5-5.043v-14A4.984 4.984 0 0 0 23 4M9 6h14a2.98 2.98 0 0 1 3 2.957V17h-5.204a2 2 0 0 0-1.951 1.576l-.732 3.293a.27.27 0 0 1-.234.131.25.25 0 0 1-.238-.145L13.947 9.522a2.25 2.25 0 0 0-2.14-1.523L11.78 8a2.26 2.26 0 0 0-2.145 1.601l-2.19 7.4H6V9a3.003 3.003 0 0 1 3-3m14 20H9a3.003 3.003 0 0 1-3-3v-4h1.445a2.01 2.01 0 0 0 1.916-1.442l2.183-7.356a.26.26 0 0 1 .259-.203h.004a.245.245 0 0 1 .24.146l3.694 12.333A2.26 2.26 0 0 0 17.885 24a2.26 2.26 0 0 0 2.11-1.441q.03-.075.048-.154L20.796 19H26v3.957A3.025 3.025 0 0 1 23 26"/></svg>