<svg xmlns="http://www.w3.org/2000/svg" width="32" height="32" viewBox="0 0 32 32"><path d="M23 4.5H9A4.505 4.505 0 0 0 4.5 9v14A4.505 4.505 0 0 0 9 27.5h14a4.527 4.527 0 0 0 4.5-4.543v-14A4.484 4.484 0 0 0 23 4.5m-14 1h14a3.483 3.483 0 0 1 3.5 3.457V17.5h-5.704a1.5 1.5 0 0 0-1.463 1.184l-.731 3.318a.76.76 0 0 1-.733.498.75.75 0 0 1-.708-.502L13.477 9.69a1.76 1.76 0 0 0-1.67-1.19h-.02a1.765 1.765 0 0 0-1.672 1.243l-2.192 7.39a.51.51 0 0 1-.478.367H5.5V9A3.504 3.504 0 0 1 9 5.5m14 21H9A3.504 3.504 0 0 1 5.5 23v-4.5h1.945a1.51 1.51 0 0 0 1.437-1.084l2.187-7.373a.76.76 0 0 1 .728-.544h.008a.755.755 0 0 1 .722.502l3.685 12.309a1.77 1.77 0 0 0 1.673 1.19 1.78 1.78 0 0 0 1.67-1.204l.754-3.393a.5.5 0 0 1 .487-.402H26.5v4.456A3.526 3.526 0 0 1 23 26.5"/></svg>