<svg xmlns="http://www.w3.org/2000/svg" width="32" height="32" viewBox="0 0 32 32"><path fill-rule="evenodd" d="M8 8a2.5 2.5 0 1 0 0-5 2.5 2.5 0 0 0 0 5m0 7a2.5 2.5 0 1 0 0-5 2.5 2.5 0 0 0 0 5m8-7a2.5 2.5 0 1 0 0-5 2.5 2.5 0 0 0 0 5m0 7a2.5 2.5 0 1 0 0-5 2.5 2.5 0 0 0 0 5m-8 7a2.5 2.5 0 1 0 0-5 2.5 2.5 0 0 0 0 5m8 0a2.5 2.5 0 1 0 0-5 2.5 2.5 0 0 0 0 5m0 7a2.5 2.5 0 1 0 0-5 2.5 2.5 0 0 0 0 5m8-21a2.5 2.5 0 1 0 0-5 2.5 2.5 0 0 0 0 5m0 7a2.5 2.5 0 1 0 0-5 2.5 2.5 0 0 0 0 5m0 7a2.5 2.5 0 1 0 0-5 2.5 2.5 0 0 0 0 5" clip-rule="evenodd"/></svg>