<svg xmlns="http://www.w3.org/2000/svg" width="32" height="32" viewBox="0 0 32 32"><path d="M8.5 6.25a1.5 1.5 0 1 0 0-3 1.5 1.5 0 0 0 0 3ZM8.5 13.75a1.5 1.5 0 1 0 0-3 1.5 1.5 0 0 0 0 3ZM16 6.25a1.5 1.5 0 1 0 0-3 1.5 1.5 0 0 0 0 3ZM16 13.75a1.5 1.5 0 1 0 0-3 1.5 1.5 0 0 0 0 3ZM8.5 21.25a1.5 1.5 0 1 0 0-3 1.5 1.5 0 0 0 0 3ZM16 21.25a1.5 1.5 0 1 0 0-3 1.5 1.5 0 0 0 0 3ZM16 28.75a1.5 1.5 0 1 0 0-3 1.5 1.5 0 0 0 0 3ZM23.5 6.25a1.5 1.5 0 1 0 0-3 1.5 1.5 0 0 0 0 3ZM23.5 13.75a1.5 1.5 0 1 0 0-3 1.5 1.5 0 0 0 0 3ZM23.5 21.25a1.5 1.5 0 1 0 0-3 1.5 1.5 0 0 0 0 3Z"/></svg>