<svg xmlns="http://www.w3.org/2000/svg" width="32" height="32" viewBox="0 0 32 32"><path fill-rule="evenodd" d="M8 7a1.5 1.5 0 1 0 0-3 1.5 1.5 0 0 0 0 3m0 7a1.5 1.5 0 1 0 0-3 1.5 1.5 0 0 0 0 3m8-7a1.5 1.5 0 1 0 0-3 1.5 1.5 0 0 0 0 3m0 7a1.5 1.5 0 1 0 0-3 1.5 1.5 0 0 0 0 3m-8 7a1.5 1.5 0 1 0 0-3 1.5 1.5 0 0 0 0 3m8 0a1.5 1.5 0 1 0 0-3 1.5 1.5 0 0 0 0 3m0 7a1.5 1.5 0 1 0 0-3 1.5 1.5 0 0 0 0 3m8-21a1.5 1.5 0 1 0 0-3 1.5 1.5 0 0 0 0 3m0 7a1.5 1.5 0 1 0 0-3 1.5 1.5 0 0 0 0 3m0 7a1.5 1.5 0 1 0 0-3 1.5 1.5 0 0 0 0 3" clip-rule="evenodd"/></svg>