<svg xmlns="http://www.w3.org/2000/svg" width="32" height="32" viewBox="0 0 32 32"><path d="M8.5 6a1.25 1.25 0 1 0 0-2.5 1.25 1.25 0 0 0 0 2.5ZM8.5 13.5a1.25 1.25 0 1 0 0-2.5 1.25 1.25 0 0 0 0 2.5ZM16 6a1.25 1.25 0 1 0 0-2.5A1.25 1.25 0 0 0 16 6ZM16 13.5a1.25 1.25 0 1 0 0-2.5 1.25 1.25 0 0 0 0 2.5ZM8.5 21a1.25 1.25 0 1 0 0-2.5 1.25 1.25 0 0 0 0 2.5ZM16 21a1.25 1.25 0 1 0 0-2.5 1.25 1.25 0 0 0 0 2.5ZM16 28.5a1.25 1.25 0 1 0 0-2.5 1.25 1.25 0 0 0 0 2.5ZM23.5 6a1.25 1.25 0 1 0 0-2.5 1.25 1.25 0 0 0 0 2.5ZM23.5 13.5a1.25 1.25 0 1 0 0-2.5 1.25 1.25 0 0 0 0 2.5ZM23.5 21a1.25 1.25 0 1 0 0-2.5 1.25 1.25 0 0 0 0 2.5Z"/></svg>