<svg xmlns="http://www.w3.org/2000/svg" width="32" height="32" viewBox="0 0 32 32"><path d="M15.293 27.707a1 1 0 0 0 1.414 0l4-4A1 1 0 0 0 20 22h-8a1 1 0 0 0-.707 1.707zM14.414 24h3.172L16 25.586zM27.707 16.707a1 1 0 0 0 0-1.414l-4-4A1 1 0 0 0 22 12v8a1 1 0 0 0 1.707.707zM24 17.586v-3.172L25.586 16zM16 17a1 1 0 1 0 0-2 1 1 0 0 0 0 2M4.293 15.293a1 1 0 0 0 0 1.414l4 4A1 1 0 0 0 10 20v-8a1 1 0 0 0-1.707-.707zM8 14.414v3.172L6.414 16zM16.707 4.293a1 1 0 0 0-1.414 0l-4 4A1 1 0 0 0 12 10h8a1 1 0 0 0 .707-1.707zM17.586 8h-3.172L16 6.414z"/></svg>