<svg xmlns="http://www.w3.org/2000/svg" width="32" height="32" viewBox="0 0 32 32"><path d="M16.354 4.646a.5.5 0 0 0-.707 0l-4 4A.5.5 0 0 0 12 9.5h8a.5.5 0 0 0 .354-.854zM16 5.707 18.793 8.5h-5.586zM23.354 20.354l4-4a.5.5 0 0 0 0-.708l-4-4A.5.5 0 0 0 22.5 12v8a.5.5 0 0 0 .854.354m.146-1.561v-5.586L26.293 16zM16.5 16a.5.5 0 1 1-1 0 .5.5 0 0 1 1 0M16.354 27.354l4-4A.5.5 0 0 0 20 22.5h-8a.5.5 0 0 0-.354.854l4 4a.5.5 0 0 0 .708 0M16 26.293 13.207 23.5h5.586zM8.646 11.646l-4 4a.5.5 0 0 0 0 .708l4 4A.5.5 0 0 0 9.5 20v-8a.5.5 0 0 0-.854-.354M5.707 16 8.5 13.207v5.586z"/></svg>