<svg xmlns="http://www.w3.org/2000/svg" width="32" height="32" viewBox="0 0 32 32"><path d="M16.53 4.47a.75.75 0 0 0-1.06 0l-4 4A.75.75 0 0 0 12 9.75h8a.75.75 0 0 0 .53-1.28zM16 6.06l2.19 2.19h-4.38zM23.53 20.53l4-4a.75.75 0 0 0 0-1.06l-4-4a.75.75 0 0 0-1.28.53v8a.75.75 0 0 0 1.28.53m.22-2.34v-4.38L25.94 16zM4.47 15.47a.75.75 0 0 0 0 1.06l4 4A.75.75 0 0 0 9.75 20v-8a.75.75 0 0 0-1.28-.53zm1.59.53 2.19-2.19v4.38zM16 16.75a.75.75 0 1 0 0-1.5.75.75 0 0 0 0 1.5M15.47 27.53a.75.75 0 0 0 1.06 0l4-4a.75.75 0 0 0-.53-1.28h-8a.75.75 0 0 0-.53 1.28zm.53-1.59-2.19-2.19h4.38z"/></svg>