<svg xmlns="http://www.w3.org/2000/svg" width="32" height="32" viewBox="0 0 32 32"><path d="M22.734 4.094a.5.5 0 0 0-.643-.292 4.7 4.7 0 0 0-1.685 1.085l-.093.093a.5.5 0 1 0 .707.707l.093-.093c.38-.38.827-.668 1.33-.857a.5.5 0 0 0 .291-.643M17.574 7.719a.5.5 0 1 1 .707.707L4.644 22.063a.5.5 0 0 0-.144.347V27c0 .275.225.5.5.5h4.59a.5.5 0 0 0 .347-.144l5.417-5.417a.5.5 0 1 1 .707.707l-5.417 5.417a1.5 1.5 0 0 1-1.054.437H5c-.827 0-1.5-.673-1.5-1.5v-4.59c0-.393.16-.776.437-1.054zM18.11 19.184l1.37-1.37a.5.5 0 1 1 .706.706l-1.37 1.37a.5.5 0 0 1-.707 0 .5.5 0 0 1 0-.706M22.22 15.073l1.37-1.37a.5.5 0 1 1 .707.707l-1.37 1.37a.5.5 0 0 1-.707 0 .5.5 0 0 1 0-.707M27.91 9.242a.5.5 0 0 0-.641.296 3.7 3.7 0 0 1-.863 1.349l-.077.077a.5.5 0 1 0 .707.707l.078-.078a4.7 4.7 0 0 0 1.092-1.71.5.5 0 0 0-.296-.64M27.353 6.49a.5.5 0 0 1-.424-.234 4 4 0 0 0-.525-.664 3.8 3.8 0 0 0-.675-.531.5.5 0 0 1-.163-.689.503.503 0 0 1 .689-.163c.307.19.596.417.857.676q.38.385.664.84a.5.5 0 0 1-.424.765"/></svg>