<svg xmlns="http://www.w3.org/2000/svg" width="32" height="32" viewBox="0 0 32 32"><path d="m29.359 28.658-3.482-3.504A13.465 13.465 0 0 0 6.837 6.131L3.353 2.647a.5.5 0 1 0-.707.707l6 6a.5.5 0 0 0 .706-.706l-1.81-1.812a12.47 12.47 0 0 1 17.632 17.611l-1.793-1.803a.5.5 0 1 0-.709.705l5.978 6.014a.5.5 0 1 0 .709-.705M16 28.5A12.48 12.48 0 0 1 6.175 8.298l-.713-.714a13.484 13.484 0 0 0 18.954 18.954l-.714-.713A12.43 12.43 0 0 1 16 28.5M11.646 20.354a.5.5 0 0 0 .707 0L16 16.707l3.646 3.647a.5.5 0 0 0 .707-.707L16.707 16l3.646-3.646a.5.5 0 1 0-.707-.707L16 15.293l-3.647-3.646a.5.5 0 0 0-.707.707L15.293 16l-3.647 3.647a.5.5 0 0 0-.108.545q.038.09.108.162"/></svg>