<svg xmlns="http://www.w3.org/2000/svg" width="32" height="32" viewBox="0 0 32 32"><path d="M16 8a8 8 0 0 1 8 8 1 1 0 0 0 2 0A10 10 0 0 0 16 6a1 1 0 1 0 0 2M26.557 25.142a13.962 13.962 0 0 0-19.7-19.699l-3.15-3.15a1 1 0 0 0-1.414 1.414l3.14 3.139-.014.014a1 1 0 0 1 .08.053l22.794 22.794a1 1 0 0 0 1.414-1.415zM16 4a11.97 11.97 0 0 1 9.144 19.73l-5.708-5.709a3.978 3.978 0 0 0-5.457-5.456l-5.708-5.71A11.9 11.9 0 0 1 16 4m1.926 12.511-2.438-2.437a1.974 1.974 0 0 1 2.438 2.437M16 28A11.976 11.976 0 0 1 5.674 9.917L4.22 8.463A13.977 13.977 0 0 0 23.536 27.78l-1.453-1.453A11.9 11.9 0 0 1 16 28"/></svg>