<svg xmlns="http://www.w3.org/2000/svg" width="32" height="32" viewBox="0 0 32 32"><path d="m29.537 28.483-3.31-3.33A13.723 13.723 0 0 0 6.84 5.78L3.53 2.47a.75.75 0 1 0-1.06 1.06l5.998 6.001a.75.75 0 1 0 1.061-1.06L7.903 6.844a12.22 12.22 0 0 1 17.263 17.24l-1.607-1.616a.75.75 0 1 0-1.064 1.056l5.977 6.015a.75.75 0 0 0 1.065-1.056M16 28.25A12.24 12.24 0 0 1 5.9 9.081l-1.07-1.07A13.727 13.727 0 0 0 23.988 27.17l-1.07-1.07A12.18 12.18 0 0 1 16 28.25M11.47 20.53a.75.75 0 0 0 1.06 0L16 17.06l3.47 3.47a.75.75 0 0 0 1.06-1.06L17.06 16l3.47-3.47a.75.75 0 0 0-1.06-1.06L16 14.94l-3.47-3.47a.75.75 0 0 0-1.06 1.06L14.94 16l-3.47 3.47a.75.75 0 0 0 0 1.06"/></svg>