<svg xmlns="http://www.w3.org/2000/svg" width="32" height="32" viewBox="0 0 32 32"><path d="M16 7.5a8.5 8.5 0 0 1 8.5 8.5.5.5 0 0 0 1 0A9.5 9.5 0 0 0 16 6.5a.5.5 0 1 0 0 1M25.87 25.162A13.465 13.465 0 0 0 6.837 6.13L3.354 2.646a.5.5 0 0 0-.707.707l26 26a.499.499 0 1 0 .707-.707zM16 3.5a12.469 12.469 0 0 1 9.164 20.957l-6.37-6.37c.456-.601.704-1.334.706-2.088a3.504 3.504 0 0 0-3.5-3.5 3.46 3.46 0 0 0-2.087.707l-6.37-6.37A12.42 12.42 0 0 1 16 3.5m2.086 13.878-3.463-3.463a2.5 2.5 0 0 1 3.463 3.463M16 28.5A12.48 12.48 0 0 1 6.176 8.296l-.713-.714a13.484 13.484 0 0 0 18.954 18.955l-.713-.714A12.43 12.43 0 0 1 16 28.5"/></svg>