<svg xmlns="http://www.w3.org/2000/svg" width="32" height="32" viewBox="0 0 32 32"><path d="M16 7.75A8.25 8.25 0 0 1 24.25 16a.75.75 0 1 0 1.5 0A9.75 9.75 0 0 0 16 6.25a.75.75 0 1 0 0 1.5M26.22 25.16A13.723 13.723 0 0 0 6.84 5.78L3.53 2.47a.75.75 0 0 0-1.06 1.06l26 26a.75.75 0 0 0 1.06-1.06zM16 3.75a12.22 12.22 0 0 1 9.157 20.346l-6.028-6.028a3.75 3.75 0 0 0-5.195-5.195l-6.03-6.03A12.16 12.16 0 0 1 16 3.75m2.025 13.214-2.99-2.99a2.23 2.23 0 0 1 2.053.05 2.237 2.237 0 0 1 .937 2.94M16 28.25A12.239 12.239 0 0 1 5.9 9.08L4.83 8.01A13.727 13.727 0 0 0 23.99 27.17l-1.07-1.07A12.18 12.18 0 0 1 16 28.249"/></svg>