<svg xmlns="http://www.w3.org/2000/svg" width="32" height="32" viewBox="0 0 32 32"><path d="M3.707 2.293A1 1 0 0 0 2.2 3.599q.057.043.108.094l6 6a1 1 0 1 1-1.414 1.414L4.219 8.433A13.93 13.93 0 0 0 2 16c0 7.732 6.268 14 14 14 2.788 0 5.385-.815 7.567-2.219l-2.674-2.674a1 1 0 0 1 1.414-1.414l6 6q.051.051.094.108a1 1 0 0 0 1.306-1.508l-3.126-3.126A13.95 13.95 0 0 0 30 16c0-7.732-6.268-14-14-14a13.95 13.95 0 0 0-9.167 3.419zm17 10.414L17.414 16l3.293 3.293a1 1 0 0 1-1.414 1.414L16 17.414l-3.293 3.293a1 1 0 0 1-1.414-1.414L14.586 16l-3.293-3.293a1 1 0 0 1 1.414-1.414L16 14.586l3.293-3.293a1 1 0 0 1 1.414 1.414"/></svg>