<svg xmlns="http://www.w3.org/2000/svg" width="32" height="32" viewBox="0 0 32 32"><path d="M26.565 25.133A13.96 13.96 0 0 0 6.856 5.445l-3.15-3.15a1 1 0 1 0-1.414 1.413l6 6a1 1 0 1 0 1.414-1.414L8.269 6.857a11.97 11.97 0 0 1 16.887 16.858l-1.427-1.435a1 1 0 0 0-1.418 1.41l5.98 6.015a1 1 0 0 0 1.418-1.41zM16 28A11.976 11.976 0 0 1 5.674 9.917L4.22 8.464A13.977 13.977 0 0 0 23.536 27.78l-1.453-1.454A11.9 11.9 0 0 1 16 28M11.293 20.707a1 1 0 0 0 1.414 0L16 17.414l3.293 3.293a1 1 0 0 0 1.414-1.414L17.414 16l3.293-3.293a1 1 0 0 0-1.414-1.414L16 14.586l-3.293-3.293a1 1 0 0 0-1.414 1.414L14.586 16l-3.293 3.293a1 1 0 0 0 0 1.414"/></svg>