<svg xmlns="http://www.w3.org/2000/svg" width="32" height="32" viewBox="0 0 32 32"><path d="M25 4H11a8 8 0 0 0-8 8v5a4 4 0 0 0 4 4l7.001-.001-.001 4a2.933 2.933 0 0 0 2.606 2.971q.212.028.425.028a2.93 2.93 0 0 0 2.868-2.23 2221 2221 0 0 1 2.096-7.77L25 18a4.004 4.004 0 0 0 4-4V8a4.004 4.004 0 0 0-4-4m-7.032 21.25A1 1 0 0 1 16 24.998l.001-4.4A1.5 1.5 0 0 0 14.504 19L7 19A2 2 0 0 1 5 17v-5a6 6 0 0 1 6-6h9v11.711c-.396 1.459-1.187 4.378-2.032 7.539M27 14a2 2 0 0 1-1.999 2L22 15.998V6h3a2 2 0 0 1 2 2z"/></svg>