<svg xmlns="http://www.w3.org/2000/svg" width="32" height="32" viewBox="0 0 32 32"><path d="M25 4.25H11A7.75 7.75 0 0 0 3.25 12v5A3.75 3.75 0 0 0 7 20.75l7.251-.001-.001 4.25a2.69 2.69 0 0 0 2.389 2.724q.194.025.39.025a2.686 2.686 0 0 0 2.63-2.045c.935-3.496 1.805-6.704 2.145-7.955L25 17.75A3.755 3.755 0 0 0 28.75 14V8A3.755 3.755 0 0 0 25 4.25m-6.791 21.065a1.25 1.25 0 0 1-2.459-.317l-.004-4.356a1.25 1.25 0 0 0-1.242-1.393L7 19.25A2.253 2.253 0 0 1 4.75 17v-5A6.25 6.25 0 0 1 11 5.75h9.25v11.995a2243 2243 0 0 0-2.041 7.57M27.25 14a2.253 2.253 0 0 1-2.249 2.25l-3.251-.003V5.75H25A2.253 2.253 0 0 1 27.25 8z"/></svg>