<svg xmlns="http://www.w3.org/2000/svg" width="32" height="32" viewBox="0 0 32 32"><path d="M25 4.5H11A7.5 7.5 0 0 0 3.5 12v5A3.5 3.5 0 0 0 7 20.5l7.501.056-.001 4.442a2.45 2.45 0 0 0 2.17 2.476q.167.021.333.021a2.44 2.44 0 0 0 2.414-1.857c.985-3.685 1.9-7.05 2.195-8.14L25 17.5a3.504 3.504 0 0 0 3.5-3.5V8A3.504 3.504 0 0 0 25 4.5m-6.55 20.88a1.5 1.5 0 0 1-2.95-.382l-.002-4.385a1 1 0 0 0-.994-1.114L7 19.5A2.5 2.5 0 0 1 4.5 17v-5A6.5 6.5 0 0 1 11 5.5h9.5v12.278a2198 2198 0 0 0-2.05 7.601M27.5 14a2.503 2.503 0 0 1-2.5 2.5l-3.5-.003V5.5H25A2.503 2.503 0 0 1 27.5 8z"/></svg>