<svg xmlns="http://www.w3.org/2000/svg" width="32" height="32" viewBox="0 0 32 32"><path d="M25 4.25H7A4.755 4.755 0 0 0 2.25 9v9.015l.002.05-.002.047V19A4.756 4.756 0 0 0 7 23.75h4.5l-.9 1.2a1.75 1.75 0 0 0 1.4 2.8h8A1.749 1.749 0 0 0 21.4 24.95l-.9-1.201H25A4.755 4.755 0 0 0 29.75 19V9A4.756 4.756 0 0 0 25 4.25M20.2 25.85a.25.25 0 0 1-.199.4h-8a.25.25 0 0 1-.2-.4l1.575-2.1h5.25zM28.25 19A3.254 3.254 0 0 1 25 22.25H7A3.254 3.254 0 0 1 3.75 19v-.888q0-.024-.002-.048l.002-.049V9A3.254 3.254 0 0 1 7 5.75h18A3.254 3.254 0 0 1 28.25 9z"/></svg>