<svg xmlns="http://www.w3.org/2000/svg" width="32" height="32" viewBox="0 0 32 32"><path d="M25 4H7a5.006 5.006 0 0 0-5 5v1.015a1 1 0 1 0 2 0V9a3.003 3.003 0 0 1 3-3h18a3.003 3.003 0 0 1 3 3v10a3.004 3.004 0 0 1-3 3H7a3.003 3.003 0 0 1-3-3v-.888a1 1 0 1 0-2 0V19a5.006 5.006 0 0 0 5 5h4l-.599.8A1.999 1.999 0 0 0 12 28h8a1.999 1.999 0 0 0 1.599-3.2l-.6-.8h4a5.006 5.006 0 0 0 5-5V9a5.005 5.005 0 0 0-5-5m-5 22h-8l1.5-2h5zM2 14a1 1 0 0 0 1 1h7.586l-2.293 2.293a1 1 0 1 0 1.414 1.414l4-4a1.003 1.003 0 0 0 0-1.415l-4-3.999a1 1 0 1 0-1.414 1.414L10.586 13H3a1 1 0 0 0-1 1"/></svg>