<svg xmlns="http://www.w3.org/2000/svg" width="32" height="32" viewBox="0 0 32 32"><path d="M29 17a.997.997 0 0 0-1 1v1a3.003 3.003 0 0 1-3 3H7a3.003 3.003 0 0 1-3-3V9a3.003 3.003 0 0 1 3-3h8.968a1 1 0 1 0 0-2H7a5.006 5.006 0 0 0-5 5v10a5.006 5.006 0 0 0 5 5H11l-.6.8A1.998 1.998 0 0 0 12 28h8a2 2 0 0 0 1.598-3.2l-.6-.8H25a5.006 5.006 0 0 0 5-5v-1a1 1 0 0 0-1-1m-17 9 1.5-2h5l1.5 2zM23 9.5a.75.75 0 0 0 .75-.75V7.442a.75.75 0 0 0-1.5 0V8.75a.75.75 0 0 0 .75.75M23 12a.75.75 0 1 0 0-1.5.75.75 0 0 0 0 1.5M16.266 13.995A1.98 1.98 0 0 0 18.001 15H28a2 2 0 0 0 1.738-2.988L24.753 3.01l-.012-.02a2 2 0 0 0-3.466.018l-5.001 8.984a1.98 1.98 0 0 0-.008 2.003m6.745-10.001L28 13l-9.989-.018z"/></svg>