<svg xmlns="http://www.w3.org/2000/svg" width="32" height="32" viewBox="0 0 32 32"><path d="M25 4.25H7A4.755 4.755 0 0 0 2.25 9v1.015a.75.75 0 1 0 1.5 0V9A3.254 3.254 0 0 1 7 5.75h18A3.254 3.254 0 0 1 28.25 9v10A3.254 3.254 0 0 1 25 22.25H7A3.254 3.254 0 0 1 3.75 19v-.888a.75.75 0 1 0-1.5 0V19A4.756 4.756 0 0 0 7 23.75h4.5l-.899 1.2A1.749 1.749 0 0 0 12 27.75h8a1.75 1.75 0 0 0 1.4-2.8l-.9-1.2H25A4.755 4.755 0 0 0 29.75 19V9A4.755 4.755 0 0 0 25 4.25m-4.802 21.6a.25.25 0 0 1-.198.4h-8a.247.247 0 0 1-.249-.272.25.25 0 0 1 .05-.127l1.574-2.101h5.25zM2.25 14a.75.75 0 0 0 .75.75h8.19l-2.72 2.72a.75.75 0 1 0 1.06 1.06l4-4a.753.753 0 0 0 0-1.06l-4-4a.75.75 0 1 0-1.06 1.06l2.72 2.72H3a.75.75 0 0 0-.75.75"/></svg>