<svg xmlns="http://www.w3.org/2000/svg" width="32" height="32" viewBox="0 0 32 32"><path d="M29 17.5a.5.5 0 0 0-.5.5v1a3.504 3.504 0 0 1-3.5 3.5H7A3.504 3.504 0 0 1 3.5 19V9A3.504 3.504 0 0 1 7 5.5h8.968a.5.5 0 1 0 0-1H7A4.505 4.505 0 0 0 2.5 9v10A4.505 4.505 0 0 0 7 23.5h5l-1.2 1.6a1.5 1.5 0 0 0 1.2 2.4h8a1.499 1.499 0 0 0 1.199-2.4l-1.2-1.6h5a4.505 4.505 0 0 0 4.5-4.5v-1a.497.497 0 0 0-.5-.5m-8.602 8.2a.499.499 0 0 1-.398.8h-8a.499.499 0 0 1-.399-.8l1.649-2.2h5.5zM23 9.25a.5.5 0 0 0 .5-.5V7.442a.5.5 0 1 0-1 0V8.75a.5.5 0 0 0 .5.5M23 11.75a.5.5 0 1 0 0-1 .5.5 0 0 0 0 1M18 14.5h10a1.5 1.5 0 0 0 1.3-2.246l-4.985-9.002-.006-.01a1.5 1.5 0 0 0-2.597.009l-5.006 8.992A1.5 1.5 0 0 0 18 14.5m-.426-1.76 5.007-8.994a.5.5 0 0 1 .863-.004l4.987 9.006A.5.5 0 0 1 28 13.5H18a.49.49 0 0 1-.433-.251.5.5 0 0 1 .007-.51"/></svg>