<svg xmlns="http://www.w3.org/2000/svg" width="32" height="32" viewBox="0 0 32 32"><path d="M25 4.5H7A4.505 4.505 0 0 0 2.5 9v1.015a.5.5 0 0 0 1 0V9A3.504 3.504 0 0 1 7 5.5h18A3.505 3.505 0 0 1 28.5 9v10a3.504 3.504 0 0 1-3.5 3.5H7A3.504 3.504 0 0 1 3.5 19v-.888a.5.5 0 0 0-1 0V19A4.505 4.505 0 0 0 7 23.5h5l-1.198 1.6A1.498 1.498 0 0 0 12 27.5h8a1.499 1.499 0 0 0 1.199-2.4l-1.2-1.6h5a4.505 4.505 0 0 0 4.5-4.5V9A4.505 4.505 0 0 0 25 4.5m-4.602 21.2a.499.499 0 0 1-.398.8h-8a.498.498 0 0 1-.399-.8l1.649-2.2h5.5zM2.5 14a.5.5 0 0 0 .5.5h8.793l-3.147 3.146a.5.5 0 1 0 .707.707l4-3.999a.5.5 0 0 0 0-.708l-4-4a.5.5 0 0 0-.707.707l3.147 3.147H3a.5.5 0 0 0-.5.5"/></svg>