<svg xmlns="http://www.w3.org/2000/svg" width="32" height="32" viewBox="0 0 32 32"><path d="M29 17.25a.75.75 0 0 0-.75.75v1A3.254 3.254 0 0 1 25 22.25H7A3.254 3.254 0 0 1 3.75 19V9A3.254 3.254 0 0 1 7 5.75h8.968a.75.75 0 1 0 0-1.5H7A4.755 4.755 0 0 0 2.25 9v10A4.756 4.756 0 0 0 7 23.75h4.5l-.9 1.2a1.75 1.75 0 0 0 1.4 2.8h8a1.75 1.75 0 0 0 1.399-2.8l-.9-1.2H25A4.755 4.755 0 0 0 29.75 19v-1a.75.75 0 0 0-.75-.75m-8.802 8.6a.248.248 0 0 1-.198.4h-8a.248.248 0 0 1-.199-.4l1.574-2.1h5.25zM23 9.5a.75.75 0 0 0 .75-.75V7.442a.75.75 0 1 0-1.5 0V8.75a.75.75 0 0 0 .75.75M23 12a.75.75 0 1 0 0-1.5.75.75 0 0 0 0 1.5M16.483 13.87a1.73 1.73 0 0 0 1.518.88H28a1.75 1.75 0 0 0 1.52-2.617L24.533 3.13l-.009-.015a1.75 1.75 0 0 0-3.031.013l-5.004 8.988a1.73 1.73 0 0 0-.007 1.754m1.31-1.01 5.004-8.988a.25.25 0 0 1 .43-.005l4.988 9.006a.25.25 0 0 1-.09.343.25.25 0 0 1-.125.034H18a.24.24 0 0 1-.216-.126.25.25 0 0 1 .009-.263"/></svg>