<svg xmlns="http://www.w3.org/2000/svg" width="32" height="32" viewBox="0 0 32 32"><path d="M20 19.504h-3.5v-3.5a.5.5 0 0 0-1 0v3.5H12a.5.5 0 0 0 0 1h3.5v3.5a.5.5 0 0 0 1 0v-3.5H20a.5.5 0 0 0 0-1M27.186 11.878 20.36 3.08a1.5 1.5 0 0 0-1.184-.581H9A4.505 4.505 0 0 0 4.5 7v18A4.505 4.505 0 0 0 9 29.5h14a4.505 4.505 0 0 0 4.5-4.5V12.797c0-.333-.111-.656-.314-.92m-.79.613.002.008H20a.5.5 0 0 1-.5-.5V3.637q.04.025.071.058zM23 28.5H9A3.504 3.504 0 0 1 5.5 25V7A3.504 3.504 0 0 1 9 3.5h9.5V12a1.5 1.5 0 0 0 1.5 1.5h6.5V25a3.504 3.504 0 0 1-3.5 3.5"/></svg>