<svg xmlns="http://www.w3.org/2000/svg" width="32" height="32" viewBox="0 0 32 32"><path d="M16.707 15.293a.999.999 0 1 0-1.414 1.414L17.586 19H12a1 1 0 1 0 0 2h5.586l-2.293 2.293a.999.999 0 1 0 1.414 1.414l4-4a1 1 0 0 0 0-1.415zM27.58 11.57l-6.823-8.796A2.01 2.01 0 0 0 19.177 2H9a5.006 5.006 0 0 0-5 5v18a5.006 5.006 0 0 0 5 5h14a5.006 5.006 0 0 0 5-5V12.797c0-.444-.148-.875-.42-1.226m-2.199.43H20V5.062zM23 28H9a3.003 3.003 0 0 1-3-3V7a3.003 3.003 0 0 1 3-3h9v8a2.003 2.003 0 0 0 2 2h6v11a3.003 3.003 0 0 1-3 3"/></svg>