<svg xmlns="http://www.w3.org/2000/svg" width="32" height="32" viewBox="0 0 32 32"><path d="M20 19.004h-3v-3a1 1 0 0 0-2 0v3h-3a1 1 0 0 0 0 2h3v3a1 1 0 0 0 2 0v-3h3a1 1 0 1 0 0-2Z"/><path d="m27.58 11.57-6.823-8.796A2.014 2.014 0 0 0 19.177 2H9a5.006 5.006 0 0 0-5 5v18a5.006 5.006 0 0 0 5 5h14a5.006 5.006 0 0 0 5-5V12.797c0-.444-.148-.875-.42-1.226Zm-2.199.43H20V5.061l5.381 6.937ZM23 28H9a3.003 3.003 0 0 1-3-3V7a3.003 3.003 0 0 1 3-3h9v8a2.003 2.003 0 0 0 2 2h6v11a3.003 3.003 0 0 1-3 3Z"/></svg>