<svg xmlns="http://www.w3.org/2000/svg" width="32" height="32" viewBox="0 0 32 32"><path d="M24 28.25H8a.75.75 0 1 0 0 1.5h16a.75.75 0 1 0 0-1.5M20 2.25h-8A4.755 4.755 0 0 0 7.25 7v8A4.755 4.755 0 0 0 12 19.75h.213l-1.797 2.756a1.55 1.55 0 0 0 1.386 2.244H20.2a1.54 1.54 0 0 0 1.546-1.523 1.57 1.57 0 0 0-.203-.796l-1.76-2.681H20A4.755 4.755 0 0 0 24.75 15V7A4.755 4.755 0 0 0 20 2.25m.2 21-8.485.003 2.289-3.503h3.979zM23.25 15A3.253 3.253 0 0 1 20 18.25h-8A3.254 3.254 0 0 1 8.75 15V7A3.254 3.254 0 0 1 12 3.75h8A3.254 3.254 0 0 1 23.25 7z"/></svg>