<svg xmlns="http://www.w3.org/2000/svg" width="32" height="32" viewBox="0 0 32 32"><path d="M24 28.5H8a.5.5 0 0 0 0 1h16a.5.5 0 1 0 0-1M29.354 28.646l-9.166-9.166A4.495 4.495 0 0 0 24.5 15V7A4.505 4.505 0 0 0 20 2.5h-8a4.495 4.495 0 0 0-4.48 4.312L3.353 2.646a.5.5 0 1 0-.707.707l26 26a.5.5 0 0 0 .707-.707M19.207 18.5 8.5 7.793V7A3.504 3.504 0 0 1 12 3.5h8A3.505 3.505 0 0 1 23.5 7v8a3.504 3.504 0 0 1-3.5 3.5zM7.5 9.62V15a4.505 4.505 0 0 0 4.5 4.5h.675l-2.036 3.119a1.3 1.3 0 0 0 1.163 1.88h10.579l-.999-1h-9.58a.3.3 0 0 1-.255-.142.29.29 0 0 1-.042-.241L13.87 19.5h3.51l-1-1H12A3.504 3.504 0 0 1 8.5 15v-4.38z"/></svg>