<svg xmlns="http://www.w3.org/2000/svg" width="32" height="32" viewBox="0 0 32 32"><path d="M24 28H8a1 1 0 0 0 0 2h16a1 1 0 1 0 0-2ZM20 2h-8a5.006 5.006 0 0 0-5 5v8a4.995 4.995 0 0 0 4.766 4.976l-1.516 2.32c-.021.031-.04.064-.058.098A1.8 1.8 0 0 0 11.802 25H20.2a1.799 1.799 0 0 0 1.552-2.706l-1.52-2.318A4.994 4.994 0 0 0 25 15V7a5.005 5.005 0 0 0-5-5Zm-7.821 21 1.96-3h3.716l1.968 3H12.18Zm10.82-8a3.003 3.003 0 0 1-3 3h-8a3.003 3.003 0 0 1-3-3V7a3.003 3.003 0 0 1 3-3h8a3.003 3.003 0 0 1 3 3v8Z"/></svg>