<svg xmlns="http://www.w3.org/2000/svg" width="32" height="32" viewBox="0 0 32 32"><path d="M20 19.254h-3.25v-3.25a.75.75 0 1 0-1.5 0v3.25H12a.75.75 0 1 0 0 1.5h3.25v3.25a.75.75 0 1 0 1.5 0v-3.25H20a.75.75 0 1 0 0-1.5M27.383 11.724 20.56 2.927a1.77 1.77 0 0 0-1.383-.677H9A4.755 4.755 0 0 0 4.25 7v18A4.755 4.755 0 0 0 9 29.75h14A4.755 4.755 0 0 0 27.75 25V12.797c0-.388-.13-.765-.367-1.073m-1.492.525H20a.25.25 0 0 1-.25-.25V4.333zM23 28.25H9A3.254 3.254 0 0 1 5.75 25V7A3.254 3.254 0 0 1 9 3.75h9.25V12A1.75 1.75 0 0 0 20 13.75h6.25V25A3.254 3.254 0 0 1 23 28.25"/></svg>