<svg xmlns="http://www.w3.org/2000/svg" width="32" height="32" viewBox="0 0 32 32"><path d="M21.114 12h5.826a.57.57 0 0 0 .442-.918c-1.437-1.89-4.731-6.217-6.39-8.365a.554.554 0 0 0-.992.357v7.785c0 .81.194 1.14 1.114 1.14M18.586 13.414A2 2 0 0 0 20 14h7a.5.5 0 0 1 .5.5V25a4.5 4.5 0 0 1-4.5 4.5H9A4.5 4.5 0 0 1 4.5 25V7A4.5 4.5 0 0 1 9 2.5h8.5a.5.5 0 0 1 .5.5v9a2 2 0 0 0 .586 1.414m-2.203 1.66a1 1 0 0 0-1.09 1.633L17.586 19H12a1 1 0 1 0 0 2h5.586l-2.293 2.293a.999.999 0 1 0 1.414 1.414l4-4a1 1 0 0 0 0-1.415l-4-4a1 1 0 0 0-.325-.219"/></svg>