<svg xmlns="http://www.w3.org/2000/svg" width="32" height="32" viewBox="0 0 32 32"><path d="M24 28H8a1 1 0 0 0 0 2h16a1 1 0 1 0 0-2M29.707 28.293l-8.47-8.47A4.99 4.99 0 0 0 25 14.998V7a5.005 5.005 0 0 0-5-5h-8a4.996 4.996 0 0 0-4.825 3.76L3.707 2.293a1 1 0 0 0-1.414 1.415l26 26a1 1 0 0 0 1.414-1.415M9 7.586V7a3.003 3.003 0 0 1 3-3h8a3.003 3.003 0 0 1 3 3v8a3.004 3.004 0 0 1-3 3h-.586zM7 11.243V15a4.994 4.994 0 0 0 4.766 4.977l-1.517 2.32a1 1 0 0 0-.057.1A1.8 1.8 0 0 0 11.802 25h8.399q.247-.002.485-.07L18.756 23h-6.578l1.961-3h1.617l-2-2H12a3.003 3.003 0 0 1-3-3v-1.757z"/></svg>