<svg xmlns="http://www.w3.org/2000/svg" width="32" height="32" viewBox="0 0 32 32"><path d="M24 28.5H8a.5.5 0 0 0 0 1h16a.5.5 0 1 0 0-1M20 2.5h-8A4.505 4.505 0 0 0 7.5 7v8a4.505 4.505 0 0 0 4.5 4.5h.674l-2.034 3.119a1.298 1.298 0 0 0 1.162 1.88H20.2a1.29 1.29 0 0 0 1.297-1.27 1.3 1.3 0 0 0-.163-.661L19.32 19.5H20a4.505 4.505 0 0 0 4.5-4.5V7A4.505 4.505 0 0 0 20 2.5m.469 20.566a.3.3 0 0 1-.269.434h-8.398a.3.3 0 0 1-.255-.142.3.3 0 0 1-.041-.242l2.363-3.616h4.256zM23.499 15a3.505 3.505 0 0 1-3.5 3.5h-8A3.504 3.504 0 0 1 8.5 15V7A3.504 3.504 0 0 1 12 3.5h8A3.504 3.504 0 0 1 23.5 7z"/></svg>