<svg xmlns="http://www.w3.org/2000/svg" width="32" height="32" viewBox="0 0 32 32"><path d="M16.354 15.646a.5.5 0 0 0-.707 0l-4 4a.5.5 0 1 0 .707.707l3.146-3.147V24a.5.5 0 0 0 1 0v-6.794l3.147 3.147a.499.499 0 1 0 .707-.707l-4-4Z"/><path d="m27.186 11.877-6.824-8.796a1.507 1.507 0 0 0-1.185-.581H9A4.505 4.505 0 0 0 4.5 7v18A4.505 4.505 0 0 0 9 29.5h14a4.505 4.505 0 0 0 4.5-4.5V12.797c0-.333-.111-.656-.314-.92Zm-.79.614.003.008H20a.5.5 0 0 1-.5-.5V3.636c.026.017.05.036.072.058l6.824 8.797ZM23 28.5H9A3.504 3.504 0 0 1 5.5 25V7A3.504 3.504 0 0 1 9 3.5h9.5V12a1.502 1.502 0 0 0 1.5 1.5h6.5V25a3.505 3.505 0 0 1-3.5 3.5Z"/></svg>