<svg xmlns="http://www.w3.org/2000/svg" width="32" height="32" viewBox="0 0 32 32"><path d="M24 28.25H8a.75.75 0 1 0 0 1.5h16a.75.75 0 1 0 0-1.5M29.53 28.47l-8.794-8.795A4.745 4.745 0 0 0 24.75 15V7A4.755 4.755 0 0 0 20 2.25h-8a4.745 4.745 0 0 0-4.675 4.014L3.53 2.47A.75.75 0 0 0 2.47 3.53l26 26a.75.75 0 0 0 1.06-1.06M8.75 7.688v-.69A3.254 3.254 0 0 1 12 3.75h8A3.254 3.254 0 0 1 23.25 7v8A3.253 3.253 0 0 1 20 18.25h-.69zM20.068 23.25l-8.354.003 2.29-3.503h2.564l-1.5-1.5H12A3.254 3.254 0 0 1 8.75 15V11.93l-1.5-1.5V15A4.755 4.755 0 0 0 12 19.75h.214l-1.799 2.757a1.55 1.55 0 0 0 1.387 2.242h9.768"/></svg>