<svg xmlns="http://www.w3.org/2000/svg" width="32" height="32" viewBox="0 0 32 32"><path d="M15 3.25c0-.69.565-1.26 1.27-1.247 7.518.142 13.585 6.21 13.727 13.727A1.247 1.247 0 0 1 28.75 17h-5.5c-.701 0-1.23-.564-1.254-1.215a6 6 0 0 0-5.78-5.781A1.257 1.257 0 0 1 15 8.75zm2 .791v4.02A8.004 8.004 0 0 1 23.938 15h4.021C27.479 9.17 22.829 4.522 17 4.041M12.943 4.35a1 1 0 0 1-.61 1.276C8.06 7.136 5 11.212 5 16c0 6.075 4.925 11 11 11 4.788 0 8.864-3.06 10.374-7.333a1 1 0 1 1 1.886.666C26.476 25.381 21.662 29 16 29 8.82 29 3 23.18 3 16c0-5.662 3.619-10.476 8.667-12.26a1 1 0 0 1 1.276.61M13 9.595a1 1 0 0 1-.288 1.385 6 6 0 1 0 8.319 8.291 1 1 0 0 1 1.675 1.093A8 8 0 1 1 11.615 9.308a1 1 0 0 1 1.384.287"/></svg>