<svg xmlns="http://www.w3.org/2000/svg" width="32" height="32" viewBox="0 0 32 32"><path d="M15.25 3.5c0-.684.56-1.267 1.279-1.24 7.174.272 12.94 6.037 13.211 13.211a1.236 1.236 0 0 1-1.24 1.279h-5c-.704 0-1.221-.564-1.266-1.197a6.25 6.25 0 0 0-5.787-5.787c-.633-.045-1.197-.562-1.197-1.266zm1.5.273v4.513a7.75 7.75 0 0 1 6.964 6.964h4.513c-.372-6.168-5.31-11.105-11.477-11.477M12.707 4.433a.75.75 0 0 1-.457.957C7.88 6.935 4.75 11.103 4.75 16c0 6.213 5.037 11.25 11.25 11.25 4.897 0 9.065-3.13 10.61-7.5a.75.75 0 1 1 1.414.5c-1.75 4.951-6.471 8.5-12.024 8.5-7.042 0-12.75-5.708-12.75-12.75 0-5.553 3.549-10.274 8.5-12.024a.75.75 0 0 1 .957.457M12.79 9.733a.75.75 0 0 1-.215 1.038 6.25 6.25 0 1 0 8.665 8.637.75.75 0 1 1 1.257.82 7.75 7.75 0 1 1-10.745-10.71.75.75 0 0 1 1.038.215"/></svg>