<svg xmlns="http://www.w3.org/2000/svg" width="32" height="32" viewBox="0 0 32 32"><path d="M28.75 16c.138 0 .25-.113.248-.25C28.865 8.768 23.23 3.134 16.25 3.001A.247.247 0 0 0 16 3.25v5.5c0 .138.112.25.25.254a7 7 0 0 1 6.746 6.746c.005.138.116.25.254.25zM15 3.25c0-.69.565-1.26 1.27-1.247 7.518.142 13.585 6.21 13.727 13.727A1.247 1.247 0 0 1 28.75 17h-5.5c-.701 0-1.23-.564-1.254-1.215a6 6 0 0 0-5.78-5.781A1.257 1.257 0 0 1 15 8.75zm2 .791v4.02A8.004 8.004 0 0 1 23.938 15h4.021C27.479 9.17 22.829 4.522 17 4.041M12.943 4.35a1 1 0 0 0-1.276-.61C6.619 5.524 3 10.338 3 16c0 7.18 5.82 13 13 13 5.662 0 10.476-3.619 12.26-8.667a1 1 0 1 0-1.886-.666C24.864 23.94 20.788 27 16 27 9.925 27 5 22.075 5 16c0-4.788 3.06-8.864 7.333-10.374a1 1 0 0 0 .61-1.276M13 9.595a1 1 0 0 1-.288 1.385 6 6 0 1 0 8.319 8.291 1 1 0 0 1 1.675 1.093A8 8 0 1 1 11.615 9.308a1 1 0 0 1 1.384.287"/></svg>