<svg xmlns="http://www.w3.org/2000/svg" width="32" height="32" viewBox="0 0 32 32"><path d="M15.5 3.5a.986.986 0 0 1 1.02-.99c7.042.267 12.704 5.928 12.97 12.97a.986.986 0 0 1-.99 1.02h-5c-.561 0-.98-.45-1.016-.965a6.5 6.5 0 0 0-6.02-6.019c-.513-.036-.964-.455-.964-1.016zm1 .01V8.5l.004.005a.05.05 0 0 0 .031.014 7.5 7.5 0 0 1 6.946 6.946.05.05 0 0 0 .014.031q.004.004.005.004h4.99C28.234 8.994 23.006 3.766 16.5 3.51M12.471 4.516a.5.5 0 0 1-.304.638C7.699 6.734 4.5 10.994 4.5 16c0 6.351 5.149 11.5 11.5 11.5 5.006 0 9.267-3.2 10.846-7.667a.5.5 0 1 1 .943.334C26.073 25.02 21.443 28.5 16 28.5 9.096 28.5 3.5 22.904 3.5 16c0-5.443 3.48-10.073 8.333-11.789a.5.5 0 0 1 .638.305M12.581 9.87a.5.5 0 0 1-.143.692 6.5 6.5 0 1 0 9.012 8.983.5.5 0 0 1 .837.546A7.5 7.5 0 1 1 11.89 9.726a.5.5 0 0 1 .692.144"/></svg>