<svg xmlns="http://www.w3.org/2000/svg" width="32" height="32" viewBox="0 0 32 32"><path d="m28.707 15.293-4-4a1 1 0 1 0-1.414 1.414L25.585 15 17 14.997V6.414l2.293 2.293a1 1 0 1 0 1.414-1.414l-4-4a1 1 0 0 0-1.414 0l-4 4a1 1 0 0 0 1.415 1.413L15 6.414v8.583L6.415 15l2.292-2.293a1 1 0 1 0-1.414-1.414l-4 4a1 1 0 0 0 0 1.414l4 4a1 1 0 1 0 1.414-1.414L6.413 17 15 16.997v8.59l-2.293-2.294a1 1 0 0 0-1.414 1.414l4 4a1 1 0 0 0 1.414 0l4-4a1 1 0 0 0-1.414-1.414L17 25.586v-8.59l8.587.004-2.294 2.293a1 1 0 1 0 1.414 1.414l4-4a1 1 0 0 0 0-1.414"/></svg>