<svg xmlns="http://www.w3.org/2000/svg" width="32" height="32" viewBox="0 0 32 32"><path d="m28.354 15.647-4-4a.5.5 0 0 0-.707.707l3.146 3.146-10.293-.003V5.207l3.147 3.147a.5.5 0 1 0 .707-.707l-4-4a.5.5 0 0 0-.707 0l-4 3.999a.5.5 0 0 0 .707.707L15.5 5.207v10.29L5.207 15.5l3.147-3.146a.5.5 0 0 0-.707-.707l-4 4a.5.5 0 0 0 0 .707l4 4a.5.5 0 1 0 .707-.707L5.207 16.5l10.293-.003v10.296l-3.146-3.146a.5.5 0 0 0-.707.707l4 4a.5.5 0 0 0 .707 0l4-4a.5.5 0 0 0-.707-.707L16.5 26.793V16.497l10.293.003-3.146 3.147a.499.499 0 1 0 .707.707l4-4a.5.5 0 0 0 .108-.545.5.5 0 0 0-.108-.162"/></svg>