<svg xmlns="http://www.w3.org/2000/svg" width="32" height="32" viewBox="0 0 32 32"><path d="m28.53 15.47-4-4a.75.75 0 0 0-1.06 1.06l2.719 2.72-9.439-.003V5.81l2.72 2.72a.75.75 0 1 0 1.06-1.06l-4-4a.75.75 0 0 0-1.06 0l-4 3.998a.75.75 0 0 0 1.06 1.06l2.72-2.718v9.436l-9.439.003 2.72-2.72a.75.75 0 1 0-1.061-1.06l-4 4a.75.75 0 0 0 0 1.06l4 4a.75.75 0 0 0 1.06-1.06l-2.72-2.72 9.44-.003v9.443l-2.72-2.72a.75.75 0 0 0-1.061 0 .75.75 0 0 0 0 1.06l4 4a.75.75 0 0 0 1.061 0l4-4a.75.75 0 1 0-1.06-1.06l-2.72 2.72v-9.443l9.44.003-2.72 2.72a.75.75 0 1 0 1.06 1.06l4-4a.75.75 0 0 0 0-1.06"/></svg>