<svg xmlns="http://www.w3.org/2000/svg" width="32" height="32" viewBox="0 0 32 32"><path d="M8 14.5a2.5 2.5 0 1 0 0 5 2.5 2.5 0 0 0 0-5M6.5 17a1.5 1.5 0 1 1 3 0 1.5 1.5 0 0 1-3 0M21.5 17a2.5 2.5 0 1 1 5 0 2.5 2.5 0 0 1-5 0m2.5-1.5a1.5 1.5 0 1 0 0 3 1.5 1.5 0 0 0 0-3M10.28 4.5a4.5 4.5 0 0 0-4.413 3.617l-.692 3.458A4.5 4.5 0 0 0 1.5 16v2a4.5 4.5 0 0 0 3 4.244V25A2.5 2.5 0 0 0 7 27.5h1a2.5 2.5 0 0 0 2.5-2.5v-2.5h11V25a2.5 2.5 0 0 0 2.5 2.5h1a2.5 2.5 0 0 0 2.5-2.5v-2.756a4.5 4.5 0 0 0 3-4.244v-2a4.5 4.5 0 0 0-3.675-4.424l-.691-3.459A4.5 4.5 0 0 0 21.72 4.5zM26.5 22.473V25a1.5 1.5 0 0 1-1.5 1.5h-1a1.5 1.5 0 0 1-1.5-1.5v-2.5H26q.254 0 .5-.027M5.5 25v-2.527q.246.027.5.027h3.5V25A1.5 1.5 0 0 1 8 26.5H7A1.5 1.5 0 0 1 5.5 25m20.29-13.5H6.21l.637-3.186A3.5 3.5 0 0 1 10.28 5.5h11.442a3.5 3.5 0 0 1 3.432 2.814zM2.5 16A3.5 3.5 0 0 1 6 12.5h20a3.5 3.5 0 0 1 3.5 3.5v2a3.5 3.5 0 0 1-3.5 3.5H6A3.5 3.5 0 0 1 2.5 18z"/></svg>