<svg xmlns="http://www.w3.org/2000/svg" width="32" height="32" viewBox="0 0 32 32"><path d="M8 14.25a2.75 2.75 0 1 0 0 5.5 2.75 2.75 0 0 0 0-5.5M6.75 17a1.25 1.25 0 1 1 2.5 0 1.25 1.25 0 0 1-2.5 0M21.25 17a2.75 2.75 0 1 1 5.5 0 2.75 2.75 0 0 1-5.5 0M24 15.75a1.25 1.25 0 1 0 0 2.5 1.25 1.25 0 0 0 0-2.5M10.28 4.25a4.75 4.75 0 0 0-4.658 3.818l-.66 3.296A4.75 4.75 0 0 0 1.25 16v2a4.75 4.75 0 0 0 3 4.417V25A2.75 2.75 0 0 0 7 27.75h1A2.75 2.75 0 0 0 10.75 25v-2.25h10.5V25A2.75 2.75 0 0 0 24 27.75h1A2.75 2.75 0 0 0 27.75 25v-2.583a4.75 4.75 0 0 0 3-4.417v-2a4.75 4.75 0 0 0-3.712-4.636l-.66-3.296a4.75 4.75 0 0 0-4.657-3.818zm15.97 18.494V25c0 .69-.56 1.25-1.25 1.25h-1c-.69 0-1.25-.56-1.25-1.25v-2.25H26q.126 0 .25-.006M5.75 25v-2.256q.124.006.25.006h3.25V25c0 .69-.56 1.25-1.25 1.25H7c-.69 0-1.25-.56-1.25-1.25m19.735-13.75H6.515l.578-2.887a3.25 3.25 0 0 1 3.186-2.613h11.442a3.25 3.25 0 0 1 3.187 2.613zM2.75 16A3.25 3.25 0 0 1 6 12.75h20A3.25 3.25 0 0 1 29.25 16v2A3.25 3.25 0 0 1 26 21.25H6A3.25 3.25 0 0 1 2.75 18z"/></svg>