<svg xmlns="http://www.w3.org/2000/svg" width="32" height="32" viewBox="0 0 32 32"><path d="M8 14a3 3 0 1 0 0 6 3 3 0 0 0 0-6m-1 3a1 1 0 1 1 2 0 1 1 0 0 1-2 0M21 17a3 3 0 1 1 6 0 3 3 0 0 1-6 0m3-1a1 1 0 1 0 0 2 1 1 0 0 0 0-2M10.28 4a5 5 0 0 0-4.903 4.02l-.628 3.138A5 5 0 0 0 1 16v2a5 5 0 0 0 3 4.584V25a3 3 0 0 0 3 3h1a3 3 0 0 0 3-3v-2h10v2a3 3 0 0 0 3 3h1a3 3 0 0 0 3-3v-2.416A5 5 0 0 0 31 18v-2a5 5 0 0 0-3.748-4.842l-.628-3.139A5 5 0 0 0 21.72 4zM26 23v2a1 1 0 0 1-1 1h-1a1 1 0 0 1-1-1v-2zM6 25v-2h3v2a1 1 0 0 1-1 1H7a1 1 0 0 1-1-1m19.18-14H6.82l.518-2.588A3 3 0 0 1 10.279 6h11.442a3 3 0 0 1 2.942 2.412zM3 16a3 3 0 0 1 3-3h20a3 3 0 0 1 3 3v2a3 3 0 0 1-3 3H6a3 3 0 0 1-3-3z"/></svg>