<svg xmlns="http://www.w3.org/2000/svg" width="32" height="32" viewBox="0 0 32 32"><path d="M25 6H7a5.006 5.006 0 0 0-5 5v16.5A2.5 2.5 0 0 0 4.5 30h.884a2.52 2.52 0 0 0 1.767-.733L9.42 27h13.135l2.311 2.28a2.49 2.49 0 0 0 1.755.72h.88a2.5 2.5 0 0 0 2.5-2.5V11a5.006 5.006 0 0 0-5-5M7 8h18a3.003 3.003 0 0 1 3 3v9H4v-9a3.003 3.003 0 0 1 3-3m20.5 20h-.88a.5.5 0 0 1-.35-.144l-2.313-2.281A2 2 0 0 0 22.553 25H9.42a1.99 1.99 0 0 0-1.414.586l-2.268 2.267a.5.5 0 0 1-.353.147H4.5a.5.5 0 0 1-.5-.5V22h24v5.5a.5.5 0 0 1-.5.5M15 4h2a1 1 0 1 0 0-2h-2a1 1 0 1 0 0 2"/></svg>