<svg xmlns="http://www.w3.org/2000/svg" width="32" height="32" viewBox="0 0 32 32"><path d="M25 6.25H7A4.755 4.755 0 0 0 2.25 11v16.5a2.253 2.253 0 0 0 2.25 2.25h.884a2.27 2.27 0 0 0 1.59-.66l2.268-2.267a.25.25 0 0 1 .177-.073h13.135a.25.25 0 0 1 .175.072l2.312 2.28c.42.416.988.65 1.579.648h.88a2.253 2.253 0 0 0 2.25-2.25V11A4.755 4.755 0 0 0 25 6.25M7 7.75h18A3.254 3.254 0 0 1 28.25 11v9.25H3.75V11A3.254 3.254 0 0 1 7 7.75m20.5 20.5h-.88a.75.75 0 0 1-.526-.216l-2.312-2.28a1.74 1.74 0 0 0-1.229-.504H9.42a1.74 1.74 0 0 0-1.238.512L5.914 28.03a.76.76 0 0 1-.53.22H4.5a.75.75 0 0 1-.75-.75v-5.75h24.5v5.75a.75.75 0 0 1-.75.75M15 3.75h2a.75.75 0 1 0 0-1.5h-2a.75.75 0 1 0 0 1.5"/></svg>