<svg xmlns="http://www.w3.org/2000/svg" width="32" height="32" viewBox="0 0 32 32"><path d="M25 6.5H7A4.505 4.505 0 0 0 2.5 11v16.5a2.003 2.003 0 0 0 2 2h.884a2.01 2.01 0 0 0 1.414-.586l2.267-2.268a.5.5 0 0 1 .354-.146h13.135a.5.5 0 0 1 .35.143l2.313 2.282c.373.37.878.576 1.403.575h.88a2.003 2.003 0 0 0 2-2V11A4.505 4.505 0 0 0 25 6.5m-18 1h18a3.504 3.504 0 0 1 3.5 3.5v9.5h-25V11A3.504 3.504 0 0 1 7 7.5m20.5 21h-.88c-.262 0-.514-.104-.701-.287l-2.313-2.282a1.5 1.5 0 0 0-1.053-.431H9.42a1.5 1.5 0 0 0-1.06.44L6.09 28.206a1 1 0 0 1-.707.293H4.5a1 1 0 0 1-1-1v-6h25v6a1 1 0 0 1-1 1M15 3.5h2a.5.5 0 0 0 0-1h-2a.5.5 0 1 0 0 1"/></svg>