<svg xmlns="http://www.w3.org/2000/svg" width="32" height="32" viewBox="0 0 32 32"><path d="M25 6H7a5.006 5.006 0 0 0-5 5v16.5A2.502 2.502 0 0 0 4.5 30h.884a2.516 2.516 0 0 0 1.767-.733L9.42 27h13.134l2.312 2.28a2.486 2.486 0 0 0 1.755.72h.88a2.502 2.502 0 0 0 2.5-2.5V11a5.006 5.006 0 0 0-5-5ZM7 8h18a3.003 3.003 0 0 1 3 3v9H4v-9a3.003 3.003 0 0 1 3-3Zm20.5 20h-.88a.506.506 0 0 1-.35-.144l-2.313-2.281A1.989 1.989 0 0 0 22.553 25H9.42a1.986 1.986 0 0 0-1.414.586l-2.268 2.267a.504.504 0 0 1-.353.147H4.5a.501.501 0 0 1-.5-.5V22h24v5.5a.5.5 0 0 1-.5.5ZM15 4h2a1 1 0 1 0 0-2h-2a1 1 0 1 0 0 2Z"/></svg>