<svg xmlns="http://www.w3.org/2000/svg" width="32" height="32" viewBox="0 0 32 32"><path d="M18.795 9.808a1.36 1.36 0 0 0-1.329.714l-4.775 8.98.562 1.837 1.836-.561 4.775-8.981a1.36 1.36 0 0 0-1.069-1.99m-.82-.904a2.358 2.358 0 0 1 2.772 3.362l-4.787 9.002a.94.94 0 0 1-.553.458l-1.921.587a.937.937 0 0 1-1.172-.622l-.587-1.92a.94.94 0 0 1 .069-.716l4.787-9.003a2.36 2.36 0 0 1 1.393-1.148M8 5.5A2.5 2.5 0 0 0 5.5 8v4.448a3.5 3.5 0 0 1-.767 2.186L3.64 16l1.093 1.366a3.5 3.5 0 0 1 .767 2.186V24A2.5 2.5 0 0 0 8 26.5h16a2.5 2.5 0 0 0 2.5-2.5v-4.448a3.5 3.5 0 0 1 .767-2.186L28.36 16l-1.093-1.366a3.5 3.5 0 0 1-.767-2.186V8A2.5 2.5 0 0 0 24 5.5h-3.5a.5.5 0 0 1 0-1H24A3.5 3.5 0 0 1 27.5 8v4.448a2.5 2.5 0 0 0 .548 1.561l1.342 1.679a.5.5 0 0 1 0 .624l-1.342 1.679a2.5 2.5 0 0 0-.548 1.561V24a3.5 3.5 0 0 1-3.5 3.5H8A3.5 3.5 0 0 1 4.5 24v-4.448a2.5 2.5 0 0 0-.548-1.561L2.61 16.312a.5.5 0 0 1 0-.624l1.342-1.679a2.5 2.5 0 0 0 .548-1.561V8A3.5 3.5 0 0 1 8 4.5h3.5a.5.5 0 0 1 0 1z"/></svg>