<svg xmlns="http://www.w3.org/2000/svg" width="32" height="32" viewBox="0 0 32 32"><path d="M8 6a2 2 0 0 0-2 2v4.448a4 4 0 0 1-.877 2.498L4.281 16l.842 1.054A4 4 0 0 1 6 19.552V24a2 2 0 0 0 2 2h16a2 2 0 0 0 2-2v-4.448a4 4 0 0 1 .877-2.498L27.719 16l-.843-1.054A4 4 0 0 1 26 12.448V8a2 2 0 0 0-2-2h-3.5a1 1 0 1 1 0-2H24a4 4 0 0 1 4 4v4.448a2 2 0 0 0 .438 1.249l1.343 1.678a1 1 0 0 1 0 1.25l-1.343 1.678a2 2 0 0 0-.438 1.25V24a4 4 0 0 1-4 4H8a4 4 0 0 1-4-4v-4.448a2 2 0 0 0-.438-1.249l-1.343-1.678a1 1 0 0 1 0-1.25l1.343-1.678A2 2 0 0 0 4 12.447V8a4 4 0 0 1 4-4h3.5a1 1 0 1 1 0 2zM18.747 10.305a.86.86 0 0 0-.84.451l-4.677 8.798.354 1.16 1.16-.354 4.679-8.798a.86.86 0 0 0-.355-1.16M17.83 8.426a2.857 2.857 0 0 1 3.359 4.075L16.4 21.504a1.44 1.44 0 0 1-.848.7l-1.921.587a1.44 1.44 0 0 1-1.796-.954l-.587-1.92a1.44 1.44 0 0 1 .105-1.097m0 0 4.788-9.002a2.86 2.86 0 0 1 1.688-1.392m.917 1.88q.17.016.32.096z"/></svg>