<svg xmlns="http://www.w3.org/2000/svg" width="32" height="32" viewBox="0 0 32 32"><path d="M15.665 5.33a.75.75 0 0 1 .67 0l12 6a.75.75 0 0 1 .043 1.318l-12 7a.75.75 0 0 1-.756 0l-12-7a.75.75 0 0 1 .043-1.319zm-10.09 6.72L16 18.133l10.424-6.081L16 6.839zM8.5 14.25a.75.75 0 0 1 .75.75v6.55l6.75 3.6 6.75-3.6V15a.75.75 0 0 1 1.5 0v7a.75.75 0 0 1-.397.662l-7.5 4a.75.75 0 0 1-.706 0l-7.5-4A.75.75 0 0 1 7.75 22v-7a.75.75 0 0 1 .75-.75M28 11.25a.75.75 0 0 1 .75.75v10a.75.75 0 0 1-1.5 0V12a.75.75 0 0 1 .75-.75"/></svg>