<svg xmlns="http://www.w3.org/2000/svg" width="32" height="32" viewBox="0 0 32 32"><path d="M16 6 4 12l12 7 12-7zM15.553 5.106a1 1 0 0 1 .894 0l12 6a1 1 0 0 1 .057 1.758l-12 7a1 1 0 0 1-1.008 0l-12-7a1 1 0 0 1 .057-1.758zM6.1 12.068 16 17.842l9.9-5.774-9.9-4.95zM8.5 22v-7l7.5 4 7.5-4v7L16 26zM7.986 14.143a1 1 0 0 1 .985-.025L16 17.867l7.03-3.75A1 1 0 0 1 24.5 15v7a1 1 0 0 1-.53.882l-7.5 4a1 1 0 0 1-.94 0l-7.5-4A1 1 0 0 1 7.5 22v-7a1 1 0 0 1 .486-.857M9.5 16.667V21.4l6.5 3.467 6.5-3.467v-4.733l-6.03 3.215a1 1 0 0 1-.94 0zM28 11a1 1 0 0 1 1 1v10a1 1 0 1 1-2 0V12a1 1 0 0 1 1-1"/></svg>