<svg xmlns="http://www.w3.org/2000/svg" width="32" height="32" viewBox="0 0 32 32"><path d="M27.395 9.406c-2.03-1.271-8.792-5.51-10.584-6.67a1.49 1.49 0 0 0-1.622 0c-1.793 1.161-8.554 5.399-10.585 6.67A4.47 4.47 0 0 0 2.5 13.215V25A4.505 4.505 0 0 0 7 29.5h18a4.505 4.505 0 0 0 4.5-4.5V13.215a4.47 4.47 0 0 0-2.105-3.81m-22.26.847c2.604-1.63 8.847-5.545 10.598-6.677a.48.48 0 0 1 .535 0c1.75 1.132 7.993 5.047 10.596 6.677a3.5 3.5 0 0 1 1.154 1.19l-11.714 8.954a.5.5 0 0 1-.608 0L3.981 11.446a3.5 3.5 0 0 1 1.155-1.193M28.5 25a3.504 3.504 0 0 1-3.5 3.5H7A3.504 3.504 0 0 1 3.5 25V13.215q.001-.407.096-.804l11.493 8.781a1.504 1.504 0 0 0 1.822 0l11.493-8.784q.094.398.096.807z"/></svg>