<svg xmlns="http://www.w3.org/2000/svg" width="32" height="32" viewBox="0 0 32 32"><path d="M7.249 5.25H24.75a5.12 5.12 0 0 1 5 5.2v4.117L29.75 18a.75.75 0 0 1-1.5 0V10.431a3.61 3.61 0 0 0-.053-.686l-11.205 8.64a1.751 1.751 0 0 1-2.139 0L3.79 9.83c-.03.198-.043.399-.04.601v11.133A3.64 3.64 0 0 0 7.34 25.25H13a.75.75 0 0 1 0 1.5H7.324a5.14 5.14 0 0 1-5.073-5.2v-11.1a5.121 5.121 0 0 1 4.998-5.2Zm19.993 2.612a3.62 3.62 0 0 0-2.518-1.112H7.276a3.62 3.62 0 0 0-2.923 1.62l11.417 8.827a.25.25 0 0 0 .306 0l11.53-8.89a3.617 3.617 0 0 0-.364-.445ZM23.75 22.445a.75.75 0 0 0-1.5 0v1.308a.75.75 0 0 0 1.5 0v-1.308ZM23 27a.75.75 0 1 0 0-1.5.75.75 0 0 0 0 1.5Zm-.113-8.217a.25.25 0 0 1 .338.087l4.98 8.99.008.012a.251.251 0 0 1-.092.342.25.25 0 0 1-.124.033H18a.25.25 0 0 1-.215-.375l.005-.01 5.009-8.992a.251.251 0 0 1 .089-.087Zm.125-1.533a1.75 1.75 0 0 0-1.513.87l-.007.012-5.01 8.996a1.75 1.75 0 0 0 1.515 2.62H28a1.75 1.75 0 0 0 1.515-2.62l-4.983-8.994-.008-.014a1.75 1.75 0 0 0-1.512-.87Z"/></svg>