<svg xmlns="http://www.w3.org/2000/svg" width="32" height="32" viewBox="0 0 32 32"><path d="M7.267 5h-.024A5.37 5.37 0 0 0 2 10.452v11.097A5.39 5.39 0 0 0 7.32 27H16a1 1 0 1 0 0-2H7.34A3.39 3.39 0 0 1 4 21.568V10.427q-.002-.09.001-.178l10.778 8.334a2 2 0 0 0 2.444 0L28 10.273q.002.078 0 .154V15a1 1 0 1 0 2 0v-4.548A5.37 5.37 0 0 0 24.758 5H7.267m20.021 3.297-11.286 8.702L4.726 8.28A3.37 3.37 0 0 1 7.279 7h17.442a3.37 3.37 0 0 1 2.567 1.297M27.207 19.793a1 1 0 0 0-1.414 1.414L27.586 23H20a1 1 0 1 0 0 2h7.586l-1.793 1.793a1 1 0 0 0 1.414 1.414l3.5-3.5a.997.997 0 0 0 .011-1.403l-.012-.012z"/></svg>