<svg xmlns="http://www.w3.org/2000/svg" width="32" height="32" viewBox="0 0 32 32"><path d="M7.267 5.5h17.479a4.87 4.87 0 0 1 4.755 4.948V15a.5.5 0 1 1-1 0v-4.565a3.9 3.9 0 0 0-.134-1.076l-11.449 8.828a1.5 1.5 0 0 1-1.833 0L3.64 9.337a3.9 3.9 0 0 0-.14 1.098v11.126000000000001A3.89 3.89 0 0 0 7.338 25.5H16a.5.5 0 1 1 0 1H7.327a4.89 4.89 0 0 1-4.826-4.948V10.448A4.87 4.87 0 0 1 7.255 5.5zm-3.22 2.887 11.65 9.008a.5.5 0 0 0 .61 0l11.659-8.99A3.88 3.88 0 0 0 24.728 6.5H7.273a3.87 3.87 0 0 0-3.227 1.887M26.146 20.146a.5.5 0 0 1 .708 0l3.5 3.5a.5.5 0 0 1 0 .708l-3.5 3.5a.5.5 0 0 1-.708-.708l2.647-2.646H20a.5.5 0 0 1 0-1h8.793l-2.647-2.646a.5.5 0 0 1 0-.708"/></svg>