<svg xmlns="http://www.w3.org/2000/svg" width="32" height="32" viewBox="0 0 32 32"><path d="M7.249 5.25H24.75a5.12 5.12 0 0 1 5 5.2v4.117L29.75 18a.75.75 0 0 1-1.5 0v-7.569a3.6 3.6 0 0 0-.053-.686l-11.205 8.64a1.75 1.75 0 0 1-2.139 0L3.79 9.83q-.045.298-.04.601v11.133A3.64 3.64 0 0 0 7.34 25.25H15a.75.75 0 0 1 0 1.5H7.324a5.14 5.14 0 0 1-5.073-5.2v-11.1a5.12 5.12 0 0 1 4.998-5.2m19.993 2.612a3.62 3.62 0 0 0-2.518-1.112H7.276a3.62 3.62 0 0 0-2.923 1.62l11.417 8.827a.25.25 0 0 0 .306 0l11.53-8.89a3.6 3.6 0 0 0-.364-.445m2.246 15.707a.75.75 0 1 0-.976-1.138l-6.473 5.548-2.509-2.51a.75.75 0 1 0-1.06 1.061l3 3a.75.75 0 0 0 1.018.04z"/></svg>