<svg xmlns="http://www.w3.org/2000/svg" width="32" height="32" viewBox="0 0 32 32"><path d="M24.733 5.25H7.266a5.113 5.113 0 0 0-5.016 5.195v11.111a5.146 5.146 0 0 0 5.084 5.194h17.333a5.145 5.145 0 0 0 5.083-5.194V10.445a5.113 5.113 0 0 0-5.017-5.195M7.266 6.75h17.467a3.47 3.47 0 0 1 2.894 1.603l-11.471 8.845a.25.25 0 0 1-.307 0L4.387 8.335a3.47 3.47 0 0 1 2.88-1.585M28.25 21.556a3.644 3.644 0 0 1-3.583 3.694H7.334a3.644 3.644 0 0 1-3.584-3.694V10.445q.003-.33.063-.657l11.12 8.597a1.754 1.754 0 0 0 2.138.001L28.19 9.813q.057.314.06.632z"/></svg>