<svg xmlns="http://www.w3.org/2000/svg" width="32" height="32" viewBox="0 0 32 32"><path d="M7.249 5.25H24.75a5.12 5.12 0 0 1 5 5.2V15a.75.75 0 0 1-1.5 0v-4.569a3.6 3.6 0 0 0-.045-.632l-11.135 8.586a1.75 1.75 0 0 1-2.139 0L3.8 9.776a3.6 3.6 0 0 0-.048.655v11.133a3.64 3.64 0 0 0 3.588 3.686H16a.75.75 0 1 1 0 1.5H7.324a5.14 5.14 0 0 1-5.073-5.2v-11.1a5.12 5.12 0 0 1 4.998-5.2m-2.87 3.08 11.47 8.867a.25.25 0 0 0 .305 0l11.48-8.85a3.63 3.63 0 0 0-2.91-1.597H7.276A3.62 3.62 0 0 0 4.38 8.33M25.97 19.97a.75.75 0 0 1 1.06 0l3.5 3.5a.75.75 0 0 1 0 1.06l-3.5 3.5a.75.75 0 1 1-1.06-1.06l2.22-2.22H20a.75.75 0 0 1 0-1.5h8.19l-2.22-2.22a.75.75 0 0 1 0-1.06"/></svg>