<svg xmlns="http://www.w3.org/2000/svg" width="32" height="32" viewBox="0 0 32 32"><path d="M7.267 5.5h17.479a4.87 4.87 0 0 1 4.755 4.948v4.119L29.5 18a.5.5 0 0 1-1 0v-7.565a3.9 3.9 0 0 0-.147-1.126l-11.514 8.878a1.5 1.5 0 0 1-1.833 0l-11.38-8.8a3.9 3.9 0 0 0-.125 1.048v11.126A3.89 3.89 0 0 0 7.337 25.5H13a.5.5 0 0 1 0 1H7.327a4.89 4.89 0 0 1-4.826-4.948V10.448A4.87 4.87 0 0 1 7.255 5.5zm20.156 2.189A3.87 3.87 0 0 0 24.728 6.5H7.273a3.87 3.87 0 0 0-3.251 1.929l11.595 8.966a.5.5 0 0 0 .611 0l11.713-9.031a4 4 0 0 0-.518-.675M23.5 22.445a.5.5 0 0 0-1 0v1.308a.5.5 0 1 0 1 0zm-.5 4.308a.5.5 0 1 0 0-1 .5.5 0 0 0 0 1m-.238-8.186a.5.5 0 0 1 .68.178l4.983 8.995.004.007a.5.5 0 0 1-.432.75H18a.5.5 0 0 1-.432-.75l.004-.006 5.01-8.996a.5.5 0 0 1 .181-.178m.25-1.067a1.5 1.5 0 0 0-1.297.746l-.005.008-5.011 8.997a1.5 1.5 0 0 0 1.298 2.246h10.002a1.5 1.5 0 0 0 1.298-2.245l-4.984-8.997-.005-.009a1.5 1.5 0 0 0-1.296-.746"/></svg>