<svg xmlns="http://www.w3.org/2000/svg" width="32" height="32" viewBox="0 0 32 32"><path d="M24.733 5H7.266A5.364 5.364 0 0 0 2 10.445v11.111A5.396 5.396 0 0 0 7.334 27h17.333A5.396 5.396 0 0 0 30 21.556V10.445A5.364 5.364 0 0 0 24.733 5M7.266 7h17.467a3.2 3.2 0 0 1 2.542 1.308L16.002 17 4.738 8.291A3.19 3.19 0 0 1 7.266 7M28 21.556A3.394 3.394 0 0 1 24.667 25H7.334A3.394 3.394 0 0 1 4 21.556V10.445c0-.063.014-.122.018-.184l10.761 8.321a2.004 2.004 0 0 0 2.445.002l10.76-8.297c.003.053.016.104.016.158z"/></svg>