<svg xmlns="http://www.w3.org/2000/svg" width="32" height="32" viewBox="0 0 32 32"><path d="M25.536 7.595H25.5V7A4.505 4.505 0 0 0 21 2.5H11A4.505 4.505 0 0 0 6.5 7v.595h-.033A3.994 3.994 0 0 0 2.5 11.607v13.125A4.773 4.773 0 0 0 7.268 29.5h17.465a4.773 4.773 0 0 0 4.767-4.767V11.607a3.993 3.993 0 0 0-3.964-4.012m-.002 1a2.98 2.98 0 0 1 2.909 2.443l-2.943 2.27V8.595zM7.5 7A3.504 3.504 0 0 1 11 3.5h10A3.505 3.505 0 0 1 24.5 7v7a1 1 0 0 0 .014.068l-8.206 6.329a.5.5 0 0 1-.612-.002L7.49 14.05 7.5 14zM6.464 8.595H6.5v4.69l-2.941-2.274a2.98 2.98 0 0 1 2.905-2.416m18.269 19.904H7.267A3.77 3.77 0 0 1 3.5 24.732V12.23l11.585 8.957a1.5 1.5 0 0 0 1.834.001l11.581-8.93v12.475a3.77 3.77 0 0 1-3.767 3.767"/></svg>