<svg xmlns="http://www.w3.org/2000/svg" width="32" height="32" viewBox="0 0 32 32"><path d="M24.733 5.5H7.266A4.864 4.864 0 0 0 2.5 10.445v11.111A4.896 4.896 0 0 0 7.334 26.5h17.333a4.895 4.895 0 0 0 4.833-4.944V10.445A4.864 4.864 0 0 0 24.733 5.5m-17.467 1h17.467a3.73 3.73 0 0 1 3.216 1.92l-11.64 8.976a.5.5 0 0 1-.613 0L4.061 8.4a3.73 3.73 0 0 1 3.205-1.9M28.5 21.556a3.894 3.894 0 0 1-3.833 3.944H7.334A3.895 3.895 0 0 1 3.5 21.556V10.445c.005-.369.06-.735.164-1.089l11.42 8.83a1.5 1.5 0 0 0 1.835.002L28.343 9.38c.099.346.152.704.157 1.065z"/></svg>