<svg xmlns="http://www.w3.org/2000/svg" width="32" height="32" viewBox="0 0 32 32"><path d="M27.528 9.194c-2.03-1.271-8.79-5.508-10.58-6.667a1.74 1.74 0 0 0-1.894 0C13.262 3.686 6.5 7.923 4.473 9.194a4.71 4.71 0 0 0-2.223 4.02V25A4.756 4.756 0 0 0 7 29.75h18A4.755 4.755 0 0 0 29.75 25V13.215a4.71 4.71 0 0 0-2.222-4.021m-22.26 1.271c2.604-1.63 8.849-5.546 10.6-6.68a.24.24 0 0 1 .132-.04q.072.001.132.04c1.75 1.134 7.996 5.05 10.6 6.68.374.242.693.56.937.932l-11.518 8.802a.25.25 0 0 1-.303 0l-11.518-8.8c.244-.374.564-.691.938-.934M28.25 25A3.254 3.254 0 0 1 25 28.25H7A3.254 3.254 0 0 1 3.75 25V13.215a3 3 0 0 1 .043-.34l11.143 8.515a1.75 1.75 0 0 0 2.126 0l11.145-8.518a3 3 0 0 1 .043.342z"/></svg>