<svg xmlns="http://www.w3.org/2000/svg" width="32" height="32" viewBox="0 0 32 32"><path d="M7.267 5.5h17.479a4.87 4.87 0 0 1 4.755 4.948v4.119L29.5 18a.5.5 0 0 1-1 0v-7.565a3.9 3.9 0 0 0-.147-1.126l-11.514 8.878a1.5 1.5 0 0 1-1.833 0l-11.38-8.8a3.9 3.9 0 0 0-.125 1.048v11.126A3.89 3.89 0 0 0 7.337 25.5H15a.5.5 0 0 1 0 1H7.327a4.89 4.89 0 0 1-4.826-4.948V10.448A4.87 4.87 0 0 1 7.255 5.5zm20.156 2.189A3.87 3.87 0 0 0 24.728 6.5H7.273a3.87 3.87 0 0 0-3.251 1.929l11.595 8.966a.5.5 0 0 0 .611 0l11.713-9.031a4 4 0 0 0-.518-.675m1.902 15.69a.5.5 0 1 0-.65-.759l-6.649 5.699-2.672-2.673a.5.5 0 0 0-.708.708l3 3a.5.5 0 0 0 .68.026z"/></svg>