<svg xmlns="http://www.w3.org/2000/svg" width="32" height="32" viewBox="0 0 32 32"><path d="M7.243 5h17.514a5.37 5.37 0 0 1 5.244 5.452v4.116L30 18a1 1 0 1 1-2 0v-7.573a3 3 0 0 0-.002-.213l-10.853 8.368a2 2 0 0 1-2.444 0L4 10.31v11.259A3.39 3.39 0 0 0 7.34 25H15a1 1 0 1 1 0 2H7.32A5.39 5.39 0 0 1 2 21.549V10.452A5.37 5.37 0 0 1 7.244 5m19.819 3.035A3.37 3.37 0 0 0 24.722 7H7.278a3.37 3.37 0 0 0-2.583 1.318l11.227 8.68 11.335-8.74a3 3 0 0 0-.196-.223m2.589 15.724a1 1 0 0 0-1.302-1.518l-6.297 5.397-2.345-2.345a1 1 0 0 0-1.414 1.414l3 3a1 1 0 0 0 1.358.052z"/></svg>