<svg xmlns="http://www.w3.org/2000/svg" width="32" height="32" viewBox="0 0 32 32"><path d="m16.002 17 12.04-9.278a.51.51 0 0 0 .05-.754 4.63 4.63 0 0 0-3.36-1.468H7.268A4.63 4.63 0 0 0 3.93 6.946a.507.507 0 0 0 .046.755zM17.223 18.584a2.004 2.004 0 0 1-2.444-.002L3.322 9.724a.5.5 0 0 0-.805.394L2.5 21.556A4.897 4.897 0 0 0 7.334 26.5H18.34A3 3 0 0 1 20 21h3.542a3 3 0 0 1 5.08-2.621l.88.881.011-9.133a.5.5 0 0 0-.805-.396zM27.207 19.793a1 1 0 0 0-1.414 1.414L27.586 23H20a1 1 0 1 0 0 2h7.586l-1.793 1.793a1 1 0 0 0 1.414 1.414l3.5-3.5a.997.997 0 0 0 .009-1.405l-.01-.01z"/></svg>