<svg xmlns="http://www.w3.org/2000/svg" width="32" height="32" viewBox="0 0 32 32"><path d="M27.661 8.982c-2.03-1.27-8.789-5.507-10.577-6.665a1.99 1.99 0 0 0-2.166 0C13.128 3.475 6.368 7.71 4.34 8.982A4.96 4.96 0 0 0 2 13.215V25a5.006 5.006 0 0 0 5 5h18a5.006 5.006 0 0 0 5-5V13.215a4.96 4.96 0 0 0-2.339-4.233m-22.26 1.695c2.604-1.631 8.85-5.547 10.595-6.682 1.752 1.135 7.999 5.05 10.604 6.683.277.18.522.405.724.667L16 20 4.675 11.347c.203-.263.448-.49.726-.67M25 28H7a3.003 3.003 0 0 1-3-3V13.349l10.784 8.24a2.004 2.004 0 0 0 2.43.001L28 13.346V25a3.003 3.003 0 0 1-3 3"/></svg>