<svg xmlns="http://www.w3.org/2000/svg" width="32" height="32" viewBox="0 0 32 32"><path d="M26 7.143V7a5.006 5.006 0 0 0-5-5H11a5.006 5.006 0 0 0-5 5v.144a4.486 4.486 0 0 0-3.999 4.464v13.125A5.27 5.27 0 0 0 7.267 30h17.467a5.27 5.27 0 0 0 5.267-5.267V11.608a4.485 4.485 0 0 0-4-4.465m1.873 3.703L26 12.29V9.144a2.48 2.48 0 0 1 1.872 1.702M11 4h10a3.003 3.003 0 0 1 3 3v6.833L16.002 20 8 13.81V7a3.003 3.003 0 0 1 3-3M6 9.144v3.12l-1.864-1.441A2.48 2.48 0 0 1 6 9.143M24.734 28H7.267A3.27 3.27 0 0 1 4 24.733V13.245l10.778 8.337a2 2 0 0 0 2.445.002L28 13.273v11.46A3.27 3.27 0 0 1 24.734 28"/></svg>