<svg xmlns="http://www.w3.org/2000/svg" width="32" height="32" viewBox="0 0 32 32"><path d="M16 2.5A13.5 13.5 0 1 0 29.5 16 13.515 13.515 0 0 0 16 2.5m0 26A12.5 12.5 0 1 1 28.5 16 12.514 12.514 0 0 1 16 28.5m-4.5-14a1 1 0 1 0 0-2 1 1 0 0 0 0 2m10-1a1 1 0 1 1-2 0 1 1 0 0 1 2 0m-9.668 5.05c1.235-.687 2.687-1.053 4.172-1.05s2.936.37 4.17 1.059c1.235.688 2.197 1.665 2.766 2.807a.7.7 0 0 1-.03.63.95.95 0 0 1-.55.432c-.244.079-.354.071-.354.071-.136 0-.384-.062-.743-.152-.96-.24-2.712-.68-5.26-.669-2.543.01-4.295.44-5.25.674-.358.088-.604.148-.737.148a1.2 1.2 0 0 1-.385-.059q-.184-.06-.327-.177a.85.85 0 0 1-.222-.268.72.72 0 0 1-.011-.638c.565-1.143 1.526-2.12 2.76-2.808"/></svg>