<svg xmlns="http://www.w3.org/2000/svg" width="32" height="32" viewBox="0 0 32 32"><path d="M16 2.25A13.75 13.75 0 1 0 29.75 16 13.766 13.766 0 0 0 16 2.25m0 26A12.25 12.25 0 1 1 28.25 16 12.264 12.264 0 0 1 16 28.25m-4.5-13.5a1.25 1.25 0 1 0 0-2.5 1.25 1.25 0 0 0 0 2.5m10.25-1.25a1.25 1.25 0 1 1-2.5 0 1.25 1.25 0 0 1 2.5 0m.322 4.758c.07-.003.093-.004.288.065q.186.066.33.19a.9.9 0 0 1 .225.292.85.85 0 0 1 .018.7c-.566 1.256-1.527 2.33-2.76 3.085a8 8 0 0 1-4.168 1.16 8 8 0 0 1-4.17-1.155c-1.234-.755-2.196-1.827-2.764-3.081a.85.85 0 0 1 .004-.706.9.9 0 0 1 .221-.297q.144-.128.33-.196c.123-.045.255-.067.387-.065.138.002.44.075.868.178 1.083.262 2.979.721 5.124.726 1.901.004 3.402-.357 4.5-.622.631-.151 1.13-.271 1.495-.271q.044 0 .072-.003"/></svg>