<svg xmlns="http://www.w3.org/2000/svg" width="32" height="32" viewBox="0 0 32 32"><path d="M16 2.25A13.75 13.75 0 1 0 29.75 16 13.766 13.766 0 0 0 16 2.25m0 26A12.25 12.25 0 1 1 28.25 16 12.264 12.264 0 0 1 16 28.25m-4.5-13.5a1.25 1.25 0 1 0 0-2.5 1.25 1.25 0 0 0 0 2.5m10.25-1.25a1.25 1.25 0 1 1-2.5 0 1.25 1.25 0 0 1 2.5 0m-9.918 4.905a8 8 0 0 1 4.172-1.155 8 8 0 0 1 4.17 1.165c1.235.757 2.197 1.831 2.766 3.088a.85.85 0 0 1-.03.692.97.97 0 0 1-.55.476c-.244.086-.354.078-.354.078-.136 0-.384-.068-.743-.167-.96-.265-2.712-.748-5.26-.736-2.543.012-4.295.484-5.25.741-.358.097-.604.163-.737.163a1.1 1.1 0 0 1-.385-.065 1 1 0 0 1-.327-.194.9.9 0 0 1-.222-.295.85.85 0 0 1-.011-.702c.565-1.258 1.526-2.333 2.76-3.089"/></svg>