<svg xmlns="http://www.w3.org/2000/svg" width="32" height="32" viewBox="0 0 32 32"><path d="M16 2.5A13.5 13.5 0 1 0 29.5 16 13.515 13.515 0 0 0 16 2.5Zm0 26A12.5 12.5 0 1 1 28.5 16 12.514 12.514 0 0 1 16 28.5Zm-4.5-14a1 1 0 1 0 0-2 1 1 0 0 0 0 2Zm10-1a1 1 0 1 1-2 0 1 1 0 0 1 2 0Zm.572 5.008c.07-.003.093-.005.288.058.123.04.235.098.33.174a.849.849 0 0 1 .225.265.707.707 0 0 1 .018.637c-.566 1.14-1.527 2.116-2.76 2.803-1.233.687-2.684 1.054-4.168 1.055-1.484 0-2.936-.365-4.17-1.05-1.234-.686-2.196-1.66-2.764-2.801a.711.711 0 0 1 .004-.642.844.844 0 0 1 .221-.27 1.04 1.04 0 0 1 .33-.178c.123-.04.255-.06.387-.059.138.002.44.068.868.162 1.083.238 2.979.655 5.124.66 1.901.004 3.402-.325 4.5-.565.631-.138 1.13-.248 1.495-.248l.072-.001Z"/></svg>