<svg xmlns="http://www.w3.org/2000/svg" width="32" height="32" viewBox="0 0 32 32"><path d="M16 30c7.732 0 14-6.268 14-14S23.732 2 16 2 2 8.268 2 16s6.268 14 14 14m-4.5-15a1.5 1.5 0 1 1 0-3 1.5 1.5 0 0 1 0 3m9 0a1.5 1.5 0 1 1 0-3 1.5 1.5 0 0 1 0 3m-8.67 3.26A7.5 7.5 0 0 1 16 17a7.52 7.52 0 0 1 6.933 4.64 1 1 0 0 1-.58 1.275C22.11 23.009 22 23 22 23c-.137 0-.384-.075-.744-.183-.958-.288-2.71-.815-5.256-.802-2.543.013-4.294.528-5.248.808-.359.106-.605.178-.738.178a1 1 0 0 1-.944-1.37 7.48 7.48 0 0 1 2.76-3.37"/></svg>