<svg xmlns="http://www.w3.org/2000/svg" width="32" height="32" viewBox="0 0 32 32"><path d="M16 2.5A13.5 13.5 0 1 0 29.5 16 13.515 13.515 0 0 0 16 2.5m0 26A12.5 12.5 0 1 1 28.5 16 12.514 12.514 0 0 1 16 28.5m-4.5-14a1 1 0 1 0 0-2 1 1 0 0 0 0 2m10-1a1 1 0 1 1-2 0 1 1 0 0 1 2 0m.572 5.008c.07-.003.093-.005.288.058q.186.06.33.174a.85.85 0 0 1 .225.265q.08.152.085.317a.7.7 0 0 1-.067.32c-.566 1.14-1.527 2.116-2.76 2.803S17.49 23.5 16.005 23.5s-2.936-.365-4.17-1.05c-1.234-.686-2.196-1.66-2.764-2.801a.71.71 0 0 1 .004-.642.84.84 0 0 1 .221-.27 1 1 0 0 1 .33-.178c.123-.04.255-.06.387-.059.138.002.44.068.868.162 1.083.238 2.979.656 5.124.66 1.901.004 3.402-.325 4.5-.565.631-.138 1.13-.248 1.495-.248z"/></svg>