<svg xmlns="http://www.w3.org/2000/svg" width="32" height="32" viewBox="0 0 32 32"><path d="M16 29.296c.229 0 .546-.102.838-.267 7.11-4.113 9.458-5.662 9.458-10.029V9.352c0-1.359-.508-1.803-1.676-2.273a220.898 220.898 0 0 0-7.617-2.83A3.114 3.114 0 0 0 16 4.057c-.343 0-.685.088-1.016.19-1.802.584-5.814 2.12-7.617 2.831-1.168.457-1.676.914-1.676 2.273V19c0 4.367 2.374 5.878 9.458 10.03.292.164.61.266.851.266Zm0-1.765c-.216 0-.444-.101-.749-.279-5.89-3.669-7.998-4.723-7.998-8.582V9.63c0-.634.114-.875.597-1.066 1.688-.672 5.84-2.145 7.54-2.818.23-.101.445-.152.61-.152.152 0 .355.063.61.152 1.688.673 5.814 2.196 7.528 2.818.482.178.596.432.596 1.067v9.039c0 3.86-2.132 4.888-7.998 8.582-.304.178-.533.28-.736.28Z"/></svg>