<svg xmlns="http://www.w3.org/2000/svg" width="32" height="32" viewBox="0 0 32 32"><path d="M10.003 12.704v-.56c0-.478.255-.919.67-1.156l4.041-2.32a2.64 2.64 0 0 1 1.289-.335c.455 0 .9.117 1.288.335l4.043 2.32c.414.237.67.678.67 1.156v.5730000000000001a12.25 12.25 0 0 1-1.629 6.327 12.84 12.84 0 0 1-4.023 4.29.63.63 0 0 1-.698 0 12.84 12.84 0 0 1-4.022-4.29 12.25 12.25 0 0 1-1.63-6.327zm7.236-2.689a2.4 2.4 0 0 0-1.238-.348c-.436 0-.863.12-1.24.348l-3.025 1.87a.86.86 0 0 0-.295.32.9.9 0 0 0-.106.43v.931a9.9 9.9 0 0 0 1.149 4.807 9.43 9.43 0 0 0 3.306 3.569.41.41 0 0 0 .422 0 9.43 9.43 0 0 0 3.306-3.569 9.9 9.9 0 0 0 1.148-4.807v-.93a.9.9 0 0 0-.105-.43.86.86 0 0 0-.295-.32zM16.001 29.504c7.459 0 13.505-6.046 13.505-13.504S23.46 2.496 16.001 2.496 2.496 8.542 2.496 16s6.046 13.504 13.505 13.504M14.055 7.51A3.97 3.97 0 0 1 16.003 7c.684 0 1.356.176 1.947.509l4.758 2.73c.194.114.353.275.464.467.11.191.167.407.165.626v1.36c.047 2.45-.576 4.87-1.805 7.015a14.2 14.2 0 0 1-5.196 5.208.69.69 0 0 1-.665 0 14.2 14.2 0 0 1-5.196-5.209 13.6 13.6 0 0 1-1.805-7.014v-1.36c-.002-.219.055-.435.165-.626.11-.192.27-.353.464-.467z"/></svg>