<svg xmlns="http://www.w3.org/2000/svg" width="32" height="32" viewBox="0 0 32 32"><path d="m22.397 9.829-4.54-2.806A3.578 3.578 0 0 0 16 6.5c-.653 0-1.294.18-1.858.523L9.603 9.829a1.287 1.287 0 0 0-.443.48c-.105.197-.16.418-.158.644v1.397a14.815 14.815 0 0 0 1.723 7.21 14.144 14.144 0 0 0 4.958 5.352.618.618 0 0 0 .634 0 14.143 14.143 0 0 0 4.958-5.352 14.813 14.813 0 0 0 1.723-7.21v-1.397a1.347 1.347 0 0 0-.158-.644 1.287 1.287 0 0 0-.443-.48Z"/><path d="m5.948 7.358 7.134-4.095a5.953 5.953 0 0 1 2.92-.763c1.027 0 2.035.263 2.922.763l7.136 4.095c.29.172.53.413.695.7.166.288.251.612.249.94v2.04a20.379 20.379 0 0 1-2.708 10.522c-1.843 3.218-4.531 5.912-7.794 7.812a1.029 1.029 0 0 1-.996 0c-3.264-1.9-5.952-4.594-7.795-7.812a20.38 20.38 0 0 1-2.707-10.522v-2.04a1.855 1.855 0 0 1 .248-.94 1.94 1.94 0 0 1 .696-.7Zm1.055 3.717a18.38 18.38 0 0 0 2.444 9.49A19.26 19.26 0 0 0 15.48 27a.942.942 0 0 0 1.047 0 19.26 19.26 0 0 0 6.034-6.434 18.379 18.379 0 0 0 2.443-9.49v-.86a2 2 0 0 0-1.005-1.735l-6.063-3.48a3.953 3.953 0 0 0-1.933-.501c-.684 0-1.35.175-1.933.502l-6.062 3.48a2 2 0 0 0-1.004 1.734v.86Z"/></svg>