<svg xmlns="http://www.w3.org/2000/svg" width="32" height="32" viewBox="0 0 32 32"><path d="M16 29.296c.229 0 .546-.102.838-.267 7.11-4.113 9.458-5.662 9.458-10.029V9.352c0-1.359-.508-1.803-1.676-2.273a220.898 220.898 0 0 0-7.617-2.83A3.114 3.114 0 0 0 16 4.057c-.343 0-.685.088-1.016.19-1.802.584-5.814 2.12-7.617 2.831-1.168.457-1.676.914-1.676 2.273V19c0 4.367 2.374 5.878 9.458 10.03.292.164.61.266.851.266Zm0-1.765c-.216 0-.444-.101-.749-.279-5.89-3.669-7.998-4.723-7.998-8.582V9.63c0-.634.114-.875.597-1.066 1.688-.672 5.84-2.145 7.54-2.818.23-.101.445-.152.61-.152.152 0 .355.063.61.152 1.688.673 5.814 2.196 7.528 2.818.482.178.596.432.596 1.067v9.039c0 3.86-2.132 4.888-7.998 8.582-.304.178-.533.28-.736.28Zm-4.532-6.627c0 .978.431 1.422 1.345 1.422h6.36c.915 0 1.347-.444 1.347-1.422v-5.078c0-.914-.369-1.346-1.143-1.409v-1.65c0-2.235-1.358-3.733-3.377-3.733-2.031 0-3.39 1.498-3.39 3.733v1.65c-.774.076-1.142.508-1.142 1.41v5.077Zm2.234-6.5v-1.726c0-1.55.914-2.577 2.298-2.577 1.371 0 2.285 1.028 2.285 2.577v1.714l-4.583.012Z"/></svg>