<svg xmlns="http://www.w3.org/2000/svg" width="32" height="32" viewBox="0 0 32 32"><path d="M20.458 17.214h.23a.607.607 0 0 1 .607.606v1.17h-1.444v-1.17a.607.607 0 0 1 .607-.607M16 29.504c7.458 0 13.504-6.046 13.504-13.504S23.458 2.496 16 2.496 2.496 8.542 2.496 16 8.542 29.504 16 29.504M9.882 13v.012a11.15 11.15 0 0 0 1.483 5.758 11.7 11.7 0 0 0 3.66 3.904.57.57 0 0 0 .636 0q.223-.148.439-.307v.613c0 .266.044.527.128.774q-.286.188-.582.36a.62.62 0 0 1-.605 0 12.94 12.94 0 0 1-4.73-4.74 12.37 12.37 0 0 1-1.642-6.385V11.75c-.002-.199.05-.395.15-.57s.246-.32.423-.425l4.329-2.485a3.6 3.6 0 0 1 1.772-.463c.623 0 1.235.16 1.772.463l4.33 2.485c.177.104.322.25.422.425s.153.371.151.57v1.238q.02 1.03-.132 2.042a3 3 0 0 0-1.19-.245q.125-.88.109-1.774v-.522c0-.434-.233-.836-.61-1.052l-3.68-2.112a2.4 2.4 0 0 0-1.172-.304c-.415 0-.82.106-1.173.304l-3.678 2.112c-.377.216-.61.617-.61 1.052zm6.586-2.447 2.755 1.702a.8.8 0 0 1 .268.291c.064.12.097.255.096.391v.848q.01.577-.052 1.147a3.035 3.035 0 0 0-2.106 2.887v.221a2.43 2.43 0 0 0-1.33 2.163v.816a8 8 0 0 1-.565.389.38.38 0 0 1-.385 0 8.6 8.6 0 0 1-3.009-3.248 9 9 0 0 1-1.045-4.375v-.848a.8.8 0 0 1 .096-.39.8.8 0 0 1 .269-.292l2.753-1.702a2.17 2.17 0 0 1 2.255 0m7.02 13.283a1.22 1.22 0 0 1-.858.356h-4.103a1.215 1.215 0 0 1-1.214-1.214v-2.774a1.215 1.215 0 0 1 1.214-1.213h.115v-1.17A1.823 1.823 0 0 1 20.463 16h.232a1.82 1.82 0 0 1 1.82 1.82v1.17h.116a1.215 1.215 0 0 1 1.213 1.214v2.774c0 .322-.128.63-.355.858"/></svg>