<svg xmlns="http://www.w3.org/2000/svg" width="32" height="32" viewBox="0 0 32 32"><path d="M19.707 10.293a1.001 1.001 0 0 0-1.414 0L16 12.586l-2.293-2.293a1 1 0 1 0-1.415 1.414L14.585 14l-2.293 2.293a1 1 0 0 0 1.415 1.414L16 15.414l2.293 2.293a1 1 0 0 0 1.414-1.414L17.414 14l2.293-2.293a.999.999 0 0 0 0-1.414Z"/><path d="M25 4H7a5.006 5.006 0 0 0-5 5v10a5.006 5.006 0 0 0 5 5h4l-.599.8A2 2 0 0 0 12 28h8a2 2 0 0 0 1.598-3.2l-.6-.8H25a5.006 5.006 0 0 0 5-5V9a5.006 5.006 0 0 0-5-5Zm-5 22h-8l1.5-2h5l1.5 2Zm8-7a3.003 3.003 0 0 1-3 3H7a3.003 3.003 0 0 1-3-3V9a3.003 3.003 0 0 1 3-3h18a3.003 3.003 0 0 1 3 3v10Z"/></svg>