<svg xmlns="http://www.w3.org/2000/svg" width="32" height="32" viewBox="0 0 32 32"><path d="M7.004 11.056v.02a18.4 18.4 0 0 0 2.443 9.49A19.26 19.26 0 0 0 15.48 27a.94.94 0 0 0 1.047 0q.368-.246.723-.506v1.009c0 .438.073.869.211 1.277q-.471.307-.96.592a1.03 1.03 0 0 1-.995 0c-3.264-1.9-5.952-4.594-7.795-7.812a20.4 20.4 0 0 1-2.707-10.522v-2.04a1.86 1.86 0 0 1 .248-.94 1.94 1.94 0 0 1 .696-.7l7.134-4.095a5.95 5.95 0 0 1 2.92-.763c1.027 0 2.035.263 2.922.763l7.136 4.095c.29.172.53.413.695.7.166.288.251.612.249.94v2.04a20 20 0 0 1-.218 3.365A5 5 0 0 0 24.824 14c.138-.966.198-1.944.18-2.925v-.859a2 2 0 0 0-1.005-1.735l-6.063-3.48a3.95 3.95 0 0 0-1.933-.501c-.684 0-1.35.175-1.933.502l-6.062 3.48a2 2 0 0 0-1.004 1.734zM17.858 7.023l4.54 2.806c.184.117.337.283.442.48s.16.418.158.644v1.397q.016.951-.087 1.89a5 5 0 0 0-3.47 4.758v.364a4 4 0 0 0-2.191 3.564v1.346q-.453.34-.933.64a.62.62 0 0 1-.634 0 14.14 14.14 0 0 1-4.958-5.352 14.8 14.8 0 0 1-1.723-7.21v-1.397a1.35 1.35 0 0 1 .158-.644c.106-.197.258-.363.443-.48l4.538-2.806A3.6 3.6 0 0 1 16 6.5c.653 0 1.295.18 1.859.523M30.012 27.5a2.003 2.003 0 0 1-2 2H21.25a2.003 2.003 0 0 1-2-2v-4.571a2.003 2.003 0 0 1 2-2h.19V19a3.003 3.003 0 0 1 3-3h.381a3.004 3.004 0 0 1 3 3v1.929h.19a2.003 2.003 0 0 1 2 2zm-5.2-9.5h-.38a1 1 0 0 0-1 1v1.929h2.38V19a1 1 0 0 0-1-1"/></svg>