<svg xmlns="http://www.w3.org/2000/svg" width="32" height="32" viewBox="0 0 32 32"><path d="M16 29.08c.229 0 .546-.114.838-.266 7.11-3.936 9.356-5.6 9.356-9.916v-9.56c0-1.345-.495-1.79-1.663-2.246-1.79-.724-5.738-2.196-7.528-2.806-.343-.114-.66-.19-1.003-.19-.343 0-.673.076-1.003.19-1.79.622-5.738 2.095-7.54 2.806-1.156.444-1.651.901-1.651 2.247v9.56c0 4.316 2.348 5.801 9.356 9.915.292.165.61.266.838.266Zm-4.52-8.176v-5.078c0-.901.369-1.333 1.13-1.409v-1.65c0-2.235 1.371-3.733 3.39-3.733s3.377 1.498 3.377 3.733v1.65c.774.063 1.143.495 1.143 1.41v5.077c0 .978-.432 1.422-1.334 1.422h-6.373c-.9 0-1.333-.444-1.333-1.422Zm2.222-6.5 4.583-.012v-1.714c0-1.55-.914-2.577-2.285-2.577s-2.298 1.028-2.298 2.577v1.726Z"/></svg>