<svg xmlns="http://www.w3.org/2000/svg" width="32" height="32" viewBox="0 0 32 32"><path d="M7.004 11.056v.02a18.38 18.38 0 0 0 2.443 9.49A19.26 19.26 0 0 0 15.48 27a.942.942 0 0 0 1.047 0c.245-.164.486-.333.723-.506v1.009c0 .438.073.869.211 1.277-.314.205-.634.402-.96.592a1.029 1.029 0 0 1-.995 0c-3.264-1.9-5.952-4.594-7.795-7.812a20.38 20.38 0 0 1-2.707-10.522v-2.04a1.855 1.855 0 0 1 .248-.94 1.94 1.94 0 0 1 .696-.7l7.134-4.095a5.953 5.953 0 0 1 2.92-.763c1.027 0 2.035.263 2.922.763l7.136 4.095c.29.172.53.413.695.7.166.288.251.612.249.94v2.04a20.23 20.23 0 0 1-.218 3.365A5.004 5.004 0 0 0 24.824 14c.138-.966.198-1.944.18-2.925v-.859a2 2 0 0 0-1.005-1.735l-6.063-3.48a3.953 3.953 0 0 0-1.933-.501c-.684 0-1.35.175-1.933.502l-6.062 3.48a2 2 0 0 0-1.004 1.734v.84Z"/><path d="m17.858 7.023 4.54 2.806c.184.117.337.283.442.48.105.197.16.418.158.644v1.397c.01.633-.018 1.265-.087 1.89a5.002 5.002 0 0 0-3.47 4.758v.364a4.005 4.005 0 0 0-2.191 3.564v1.346c-.302.226-.613.44-.933.64a.618.618 0 0 1-.634 0 14.143 14.143 0 0 1-4.958-5.352 14.815 14.815 0 0 1-1.723-7.21v-1.397a1.347 1.347 0 0 1 .158-.644c.106-.197.258-.363.443-.48l4.538-2.806A3.578 3.578 0 0 1 16 6.5c.653 0 1.295.18 1.859.523ZM30.012 27.5a2.003 2.003 0 0 1-2 2H21.25a2.003 2.003 0 0 1-2-2v-4.571a2.003 2.003 0 0 1 2-2h.19V19a3.003 3.003 0 0 1 3-3h.381a3.004 3.004 0 0 1 3 3v1.929h.19a2.003 2.003 0 0 1 2 2V27.5Zm-5.2-9.5h-.38a1 1 0 0 0-1 1v1.929h2.38V19a1 1 0 0 0-1-1Z"/></svg>