<svg xmlns="http://www.w3.org/2000/svg" width="32" height="32" viewBox="0 0 32 32"><path d="M20.457 17.213h.232a.607.607 0 0 1 .606.607v1.17h-1.444v-1.17a.607.607 0 0 1 .607-.607Z"/><path d="M16 29.504c7.458 0 13.504-6.046 13.504-13.504 0-7.458-6.046-13.504-13.504-13.504C8.542 2.496 2.496 8.542 2.496 16c0 7.458 6.046 13.504 13.504 13.504ZM9.882 13v.012a11.153 11.153 0 0 0 1.483 5.758 11.687 11.687 0 0 0 3.66 3.904.572.572 0 0 0 .636 0c.149-.099.295-.201.439-.307v.613c0 .266.044.527.128.774-.19.125-.385.245-.582.36a.623.623 0 0 1-.605 0 12.943 12.943 0 0 1-4.73-4.74 12.366 12.366 0 0 1-1.642-6.385V11.75c-.002-.199.05-.395.15-.57.1-.174.246-.32.423-.425l4.329-2.485a3.612 3.612 0 0 1 1.772-.463c.623 0 1.235.16 1.772.463l4.33 2.485c.177.104.322.25.422.425.1.175.153.371.151.57v1.238c.013.685-.031 1.368-.132 2.042a3.036 3.036 0 0 0-1.19-.245c.083-.586.12-1.179.109-1.774v-.522c0-.434-.233-.836-.61-1.052l-3.68-2.112a2.398 2.398 0 0 0-1.172-.304c-.415 0-.82.106-1.173.304l-3.678 2.112c-.377.216-.61.617-.61 1.052V13Zm6.586-2.447 2.755 1.702a.781.781 0 0 1 .268.291c.064.12.097.255.096.391v.848c.007.384-.01.768-.052 1.147a3.035 3.035 0 0 0-2.106 2.887v.221a2.429 2.429 0 0 0-1.33 2.163v.816a8.407 8.407 0 0 1-.565.389.375.375 0 0 1-.385 0 8.582 8.582 0 0 1-3.009-3.248 8.989 8.989 0 0 1-1.045-4.375v-.848a.818.818 0 0 1 .096-.39.78.78 0 0 1 .269-.292l2.753-1.702a2.171 2.171 0 0 1 2.255 0Zm7.02 13.283a1.215 1.215 0 0 1-.858.356h-4.103a1.215 1.215 0 0 1-1.214-1.214v-2.774a1.215 1.215 0 0 1 1.214-1.213h.115v-1.17A1.823 1.823 0 0 1 20.462 16h.232a1.822 1.822 0 0 1 1.82 1.82v1.17h.116a1.215 1.215 0 0 1 1.213 1.214v2.774c0 .322-.128.63-.355.858Z"/></svg>