<svg xmlns="http://www.w3.org/2000/svg" width="32" height="32" viewBox="0 0 32 32"><path d="M29 19.53a.499.499 0 0 0-.5.5v1.47h-25V12A3.504 3.504 0 0 1 7 8.5h9a.5.5 0 0 0 0-1H7A4.505 4.505 0 0 0 2.5 12v12A4.505 4.505 0 0 0 7 28.5h18a4.505 4.505 0 0 0 4.5-4.5v-3.97a.5.5 0 0 0-.5-.5ZM28.5 24a3.504 3.504 0 0 1-3.5 3.5H7A3.504 3.504 0 0 1 3.5 24v-1.5h25V24ZM14 4.5h2a.5.5 0 0 0 0-1h-2a.5.5 0 0 0 0 1ZM23 11.25a.5.5 0 0 0 .5-.5V9.442a.5.5 0 0 0-1 0v1.308a.5.5 0 0 0 .5.5Z"/><path d="M23 13.75a.5.5 0 1 0 0-1 .5.5 0 0 0 0 1Z"/><path d="M16.7 15.747a1.483 1.483 0 0 0 1.301.753h9.998a1.5 1.5 0 0 0 1.302-2.246l-4.987-9.002-.006-.01a1.499 1.499 0 0 0-2.595.009l-5.008 8.993a1.482 1.482 0 0 0-.005 1.503Zm.873-1.008 5.008-8.993a.5.5 0 0 1 .861-.004l4.99 9.006a.5.5 0 0 1-.433.752h-9.998a.49.49 0 0 1-.434-.25.496.496 0 0 1 .006-.51Z"/></svg>