<svg xmlns="http://www.w3.org/2000/svg" width="32" height="32" viewBox="0 0 32 32"><path d="M29 19.03a1 1 0 0 0-1 1V21H4v-9a3.003 3.003 0 0 1 3-3h9a1 1 0 1 0 0-2H7a5.006 5.006 0 0 0-5 5v12a5.006 5.006 0 0 0 5 5h18a5.005 5.005 0 0 0 5-5v-3.97a.997.997 0 0 0-1-1M28 24a3.003 3.003 0 0 1-3 3H7a3.003 3.003 0 0 1-3-3v-1h24zM14 5h2a1 1 0 1 0 0-2h-2a1 1 0 1 0 0 2M23 8.692a.75.75 0 0 0-.75.75v1.308a.75.75 0 1 0 1.5 0V9.442a.75.75 0 0 0-.75-.75M23 14a.75.75 0 1 0 0-1.5.75.75 0 0 0 0 1.5M16.267 15.996A1.98 1.98 0 0 0 18 17.001h9.998a2 2 0 0 0 1.74-2.99L24.751 5.01l-.01-.02a2 2 0 0 0-3.467.018l-5.002 8.984a1.98 1.98 0 0 0-.006 2.004M23.01 5.994 27.999 15l-9.988-.018z"/></svg>