<svg xmlns="http://www.w3.org/2000/svg" width="32" height="32" viewBox="0 0 32 32"><path d="M29 18.53a.5.5 0 0 0-.5.5v2.47h-25V12A3.504 3.504 0 0 1 7 8.5h6a.5.5 0 0 0 0-1H7A4.505 4.505 0 0 0 2.5 12v12A4.505 4.505 0 0 0 7 28.5h18a4.505 4.505 0 0 0 4.5-4.5v-4.97a.5.5 0 0 0-.5-.5m-4 8.97H7A3.504 3.504 0 0 1 3.5 24v-1.5h25V24a3.505 3.505 0 0 1-3.5 3.5M14 4.5h2a.5.5 0 0 0 0-1h-2a.5.5 0 1 0 0 1M23.014 17.498a6.5 6.5 0 1 0-6.5-6.5 6.51 6.51 0 0 0 6.5 6.5m0-1A5.506 5.506 0 0 1 17.54 11.5h10.949a5.507 5.507 0 0 1-5.475 4.997m0-11A5.506 5.506 0 0 1 28.49 10.5H17.54a5.506 5.506 0 0 1 5.475-5.003"/></svg>