<svg xmlns="http://www.w3.org/2000/svg" width="32" height="32" viewBox="0 0 32 32"><path d="M14 5h2a1 1 0 0 0 0-2h-2a1 1 0 1 0 0 2M29 18.03a1 1 0 0 0-1 1V21H4v-9a3.003 3.003 0 0 1 3-3h6a1 1 0 0 0 0-2H7a5.006 5.006 0 0 0-5 5v12a5.006 5.006 0 0 0 5 5h18a5.006 5.006 0 0 0 5-5v-4.97a1 1 0 0 0-1-1M28 24a3.004 3.004 0 0 1-3 3H7a3.003 3.003 0 0 1-3-3v-1h24zM23.014 17.998a7 7 0 1 0-7-7 7.01 7.01 0 0 0 7 7m0-2A5.01 5.01 0 0 1 18.116 12h9.797a5.01 5.01 0 0 1-4.899 3.998m0-10a5.01 5.01 0 0 1 4.9 4.002h-9.799a5.01 5.01 0 0 1 4.9-4.003"/></svg>