<svg xmlns="http://www.w3.org/2000/svg" width="32" height="32" viewBox="0 0 32 32"><path d="M29 19.28a.75.75 0 0 0-.75.75v1.22H3.75V12A3.254 3.254 0 0 1 7 8.75h9a.75.75 0 1 0 0-1.5H7A4.755 4.755 0 0 0 2.25 12v12A4.755 4.755 0 0 0 7 28.75h18A4.755 4.755 0 0 0 29.75 24v-3.97a.75.75 0 0 0-.75-.75M28.25 24A3.254 3.254 0 0 1 25 27.25H7A3.254 3.254 0 0 1 3.75 24v-1.25h24.5zM14 4.75h2a.75.75 0 1 0 0-1.5h-2a.75.75 0 1 0 0 1.5M23 11.5a.75.75 0 0 0 .75-.75V9.442a.75.75 0 1 0-1.5 0v1.308a.75.75 0 0 0 .75.75M23 14a.75.75 0 1 0 0-1.5.75.75 0 0 0 0 1.5M16.483 15.872a1.73 1.73 0 0 0 1.518.879h9.998a1.75 1.75 0 0 0 1.52-2.618L24.534 5.13l-.009-.015a1.75 1.75 0 0 0-3.03.014l-5.005 8.988a1.73 1.73 0 0 0-.006 1.754m1.309-1.011 5.005-8.989a.25.25 0 0 1 .43-.005l4.989 9.007a.25.25 0 0 1-.217.376h-9.998a.24.24 0 0 1-.217-.125.25.25 0 0 1 .008-.264"/></svg>