<svg xmlns="http://www.w3.org/2000/svg" width="32" height="32" viewBox="0 0 32 32"><path d="M29 18.28a.75.75 0 0 0-.75.75v2.22H3.75V12A3.254 3.254 0 0 1 7 8.75h6a.75.75 0 0 0 0-1.5H7A4.755 4.755 0 0 0 2.25 12v12A4.756 4.756 0 0 0 7 28.75h18A4.755 4.755 0 0 0 29.75 24v-4.97a.75.75 0 0 0-.75-.75m-4 8.97H7A3.254 3.254 0 0 1 3.75 24v-1.25h24.5V24A3.254 3.254 0 0 1 25 27.25M14 4.75h2a.75.75 0 0 0 0-1.5h-2a.75.75 0 1 0 0 1.5M23.014 17.748a6.75 6.75 0 1 0-6.75-6.75 6.76 6.76 0 0 0 6.75 6.75m0-1.5a5.24 5.24 0 0 1-5.174-4.498h10.348a5.24 5.24 0 0 1-5.174 4.497m0-10.5a5.24 5.24 0 0 1 5.175 4.502H17.84a5.24 5.24 0 0 1 5.174-4.503"/></svg>