<svg xmlns="http://www.w3.org/2000/svg" width="32" height="32" viewBox="0 0 32 32"><path d="M14 5h2a1 1 0 0 0 0-2h-2a1 1 0 1 0 0 2ZM29 18.03a1 1 0 0 0-1 1V21H4v-9a3.003 3.003 0 0 1 3-3h6a1 1 0 0 0 0-2H7a5.006 5.006 0 0 0-5 5v12a5.006 5.006 0 0 0 5 5h18a5.006 5.006 0 0 0 5-5v-4.97a1.001 1.001 0 0 0-1-1ZM28 24a3.004 3.004 0 0 1-3 3H7a3.003 3.003 0 0 1-3-3v-1h24v1Z"/><path d="M23.014 17.997a7 7 0 1 0-7-7 7.009 7.009 0 0 0 7 7Zm0-2A5.008 5.008 0 0 1 18.116 12h9.797a5.008 5.008 0 0 1-4.899 3.998Zm0-10a5.008 5.008 0 0 1 4.9 4.003h-9.799a5.009 5.009 0 0 1 4.9-4.003Z"/></svg>