<svg xmlns="http://www.w3.org/2000/svg" width="32" height="32" viewBox="0 0 32 32"><path d="M25 23.71a.5.5 0 0 0-.5.5V25a3.504 3.504 0 0 1-3.5 3.5H11A3.504 3.504 0 0 1 7.5 25V7A3.504 3.504 0 0 1 11 3.5h10A3.505 3.505 0 0 1 24.5 7v.705a.5.5 0 0 0 1 0V7A4.505 4.505 0 0 0 21 2.5H11A4.505 4.505 0 0 0 6.5 7v18a4.505 4.505 0 0 0 4.5 4.5h10a4.505 4.505 0 0 0 4.5-4.5v-.79a.497.497 0 0 0-.5-.5M29 15.5h-6.793l3.146-3.147a.5.5 0 1 0-.707-.707l-4 4a.5.5 0 0 0 0 .707l4 4a.5.5 0 1 0 .707-.707L22.207 16.5H29a.5.5 0 0 0 0-1"/></svg>