<svg xmlns="http://www.w3.org/2000/svg" width="32" height="32" viewBox="0 0 32 32"><path d="m22.385 2.586 7.029 7.029c.374.376.584.884.586 1.414v9.942a2 2 0 0 1-.587 1.414l-7.03 7.03a2 2 0 0 1-1.412.585h-9.943a1.98 1.98 0 0 1-1.412-.585l-7.031-7.031A2 2 0 0 1 2 20.97v-9.943a2 2 0 0 1 .583-1.41l7.033-7.033A2 2 0 0 1 11.028 2h9.943a1.99 1.99 0 0 1 1.413.586m-2.001 8.491a1 1 0 0 0-1.09.217l-3.293 3.293-3.293-3.293a1.001 1.001 0 1 0-1.414 1.414l3.293 3.293-3.293 3.293a1 1 0 1 0 1.414 1.414l3.293-3.293 3.293 3.293a.999.999 0 1 0 1.414-1.414l-3.293-3.293 3.293-3.293a1 1 0 0 0-.324-1.63"/></svg>