<svg xmlns="http://www.w3.org/2000/svg" width="32" height="32" viewBox="0 0 32 32"><path d="m22.384 2.586 7.03 7.029c.374.376.584.884.586 1.414v9.942a2.008 2.008 0 0 1-.587 1.414l-7.03 7.03a2.006 2.006 0 0 1-1.412.585h-9.943a1.984 1.984 0 0 1-1.412-.585l-7.031-7.031A2.01 2.01 0 0 1 2 20.97v-9.943a1.988 1.988 0 0 1 .583-1.41l7.033-7.033A1.989 1.989 0 0 1 11.028 2h9.943a1.986 1.986 0 0 1 1.413.586Zm-2 8.491a1 1 0 0 0-1.09.217l-3.293 3.293-3.293-3.293a1.001 1.001 0 1 0-1.414 1.414l3.293 3.293-3.293 3.293a1 1 0 1 0 1.414 1.414l3.293-3.293 3.293 3.293a.999.999 0 1 0 1.414-1.414l-3.293-3.293 3.293-3.293a1.001 1.001 0 0 0-.324-1.63Z"/></svg>