<svg xmlns="http://www.w3.org/2000/svg" width="32" height="32" viewBox="0 0 32 32"><path d="m29.414 9.615-7.03-7.03A1.986 1.986 0 0 0 20.971 2h-9.943a1.989 1.989 0 0 0-1.412.585L2.583 9.618A1.988 1.988 0 0 0 2 11.028v9.943a2.01 2.01 0 0 0 .585 1.413l7.031 7.03a1.985 1.985 0 0 0 1.412.586h9.943a2.006 2.006 0 0 0 1.413-.585l7.029-7.03c.375-.375.586-.883.587-1.414V11.03a2.014 2.014 0 0 0-.586-1.414ZM20.97 28H11.03L4 20.972l-.001-9.941L11.028 4h9.942L28 11.029v9.94L20.972 28Z"/><path d="M20.707 11.293a1 1 0 0 0-1.414 0L16 14.586l-3.293-3.293a.997.997 0 0 0-1.416-.002 1.002 1.002 0 0 0 .002 1.416L14.586 16l-3.293 3.293a1 1 0 1 0 1.414 1.414L16 17.414l3.293 3.293a1.002 1.002 0 0 0 1.632-.324.999.999 0 0 0-.218-1.09L17.414 16l3.293-3.293a1 1 0 0 0 0-1.414Z"/></svg>