<svg xmlns="http://www.w3.org/2000/svg" width="32" height="32" viewBox="0 0 32 32"><path d="M29.06 9.968 22.031 2.94a1.5 1.5 0 0 0-1.06-.44h-9.943a1.5 1.5 0 0 0-1.059.44L2.937 9.97a1.5 1.5 0 0 0-.437 1.058v9.943c0 .397.158.778.438 1.059l7.031 7.031a1.49 1.49 0 0 0 1.06.439h9.942a1.49 1.49 0 0 0 1.059-.439l7.03-7.03a1.5 1.5 0 0 0 .44-1.06V11.03a1.5 1.5 0 0 0-.44-1.06m-.56 11.003a.5.5 0 0 1-.146.352l-7.032 7.032a.5.5 0 0 1-.35.145h-9.944a.5.5 0 0 1-.351-.146l-7.032-7.031a.5.5 0 0 1-.145-.352v-9.943a.5.5 0 0 1 .145-.352l7.03-7.03a.5.5 0 0 1 .353-.146h9.943a.5.5 0 0 1 .353.146l7.03 7.03a.5.5 0 0 1 .146.353zM20.353 11.646a.5.5 0 0 0-.707 0L16 15.293l-3.647-3.647a.499.499 0 1 0-.707.707L15.293 16l-3.647 3.646a.5.5 0 1 0 .707.707L16 16.707l3.646 3.646a.5.5 0 1 0 .707-.707L16.707 16l3.646-3.647a.5.5 0 0 0 0-.707"/></svg>