<svg xmlns="http://www.w3.org/2000/svg" width="32" height="32" viewBox="0 0 32 32"><path d="m29.237 9.792-7.03-7.03a1.735 1.735 0 0 0-1.236-.512h-9.943a1.742 1.742 0 0 0-1.235.511L2.76 9.794a1.741 1.741 0 0 0-.511 1.234v9.943c.001.463.185.907.511 1.236l7.032 7.031a1.734 1.734 0 0 0 1.235.512h9.943c.464 0 .908-.185 1.236-.512l7.03-7.03c.328-.328.512-.773.513-1.237V11.03a1.76 1.76 0 0 0-.513-1.237Zm-.987 11.18a.246.246 0 0 1-.073.174l-7.032 7.032a.245.245 0 0 1-.174.072h-9.943a.244.244 0 0 1-.175-.073l-7.031-7.03a.249.249 0 0 1-.072-.176v-9.943a.25.25 0 0 1 .072-.175l7.03-7.03a.25.25 0 0 1 .176-.073h9.943a.25.25 0 0 1 .176.073l7.03 7.03c.046.046.073.11.073.176v9.942Z"/><path d="M20.53 11.47a.75.75 0 0 0-1.06 0L16 14.94l-3.47-3.47a.752.752 0 0 0-1.062-.002.75.75 0 0 0 .002 1.062L14.94 16l-3.47 3.47a.75.75 0 1 0 1.06 1.06L16 17.06l3.47 3.47a.75.75 0 0 0 1.06-1.06L17.06 16l3.47-3.47a.749.749 0 0 0 0-1.06Z"/></svg>