<svg xmlns="http://www.w3.org/2000/svg" width="32" height="32" viewBox="0 0 32 32"><path d="M27 15H17v-3h.993a2.003 2.003 0 0 0 2-2V6a2 2 0 0 0-2-2h-4a2.003 2.003 0 0 0-2 2v4a2.003 2.003 0 0 0 2 2H15v3H5a1.001 1.001 0 0 0 0 2h3v3H6.993a2.003 2.003 0 0 0-2 2v4a2.003 2.003 0 0 0 2 2h4a2.003 2.003 0 0 0 2-2v-4a2.003 2.003 0 0 0-2-2H10v-3h12v3h-1.007a2.003 2.003 0 0 0-2 2v4a2.003 2.003 0 0 0 2 2h4a2.003 2.003 0 0 0 2-2v-4a2.003 2.003 0 0 0-2-2H24v-3h3a1 1 0 0 0 0-2M13.993 6h4l.001 4h-4zm-2.999 20h-4v-4h4zm14 0h-4v-4h4z"/></svg>