<svg xmlns="http://www.w3.org/2000/svg" width="32" height="32" viewBox="0 0 32 32"><path d="M27 15.25H16.75v-3.5h1.243a1.75 1.75 0 0 0 1.75-1.75V6a1.75 1.75 0 0 0-1.75-1.75h-4A1.75 1.75 0 0 0 12.243 6v4a1.75 1.75 0 0 0 1.75 1.75h1.257v3.5H5a.75.75 0 1 0 0 1.5h3.25v3.5H6.993A1.75 1.75 0 0 0 5.243 22v4a1.75 1.75 0 0 0 1.75 1.75h4a1.75 1.75 0 0 0 1.75-1.75v-4a1.75 1.75 0 0 0-1.75-1.75H9.75v-3.5h12.5v3.5h-1.257a1.75 1.75 0 0 0-1.75 1.75v4a1.75 1.75 0 0 0 1.75 1.75h4a1.75 1.75 0 0 0 1.75-1.75v-4a1.75 1.75 0 0 0-1.75-1.75H23.75v-3.5H27a.75.75 0 1 0 0-1.5M13.743 10V6a.25.25 0 0 1 .25-.25h4a.25.25 0 0 1 .25.25v4a.25.25 0 0 1-.25.25h-4a.25.25 0 0 1-.25-.25m-2.5 12v4a.25.25 0 0 1-.25.25h-4a.25.25 0 0 1-.25-.25v-4a.25.25 0 0 1 .25-.25h4a.25.25 0 0 1 .25.25m14 0v4a.25.25 0 0 1-.25.25h-4a.25.25 0 0 1-.25-.25v-4a.25.25 0 0 1 .25-.25h4a.25.25 0 0 1 .25.25"/></svg>