<svg xmlns="http://www.w3.org/2000/svg" width="32" height="32" viewBox="0 0 32 32"><path fill-rule="evenodd" d="M6 2a4 4 0 0 0-4 4v20a4 4 0 0 0 4 4h20a4 4 0 0 0 4-4V6a4 4 0 0 0-4-4H6Zm11 13h10a1 1 0 0 1 0 2h-3v3h.993a2.003 2.003 0 0 1 2 2v4a2.003 2.003 0 0 1-2 2h-4a2.003 2.003 0 0 1-2-2v-4a2.003 2.003 0 0 1 2-2H22v-3H10v3h.993a2.003 2.003 0 0 1 2 2v4a2.003 2.003 0 0 1-2 2h-4a2.003 2.003 0 0 1-2-2v-4a2.003 2.003 0 0 1 2-2H8v-3H5a1.001 1.001 0 0 1 0-2h10v-3h-1.007a2.003 2.003 0 0 1-2-2V6a2.003 2.003 0 0 1 2-2h4a2.002 2.002 0 0 1 2 2v4a2.003 2.003 0 0 1-2 2H17v3Zm.993-9h-4v4h4.001V6Zm-11 20h4.001v-4h-4v4Zm14 0h4.001v-4h-4v4Z" clip-rule="evenodd"/></svg>