<svg xmlns="http://www.w3.org/2000/svg" width="32" height="32" viewBox="0 0 32 32"><path d="M27 15.5H16.5v-4h1.493a1.5 1.5 0 0 0 1.5-1.5V6a1.5 1.5 0 0 0-1.5-1.5h-4a1.5 1.5 0 0 0-1.5 1.5v4a1.5 1.5 0 0 0 1.5 1.5H15.5v4H5a.5.5 0 0 0 0 1h3.5v4H6.993a1.5 1.5 0 0 0-1.5 1.5v4a1.5 1.5 0 0 0 1.5 1.5h4a1.5 1.5 0 0 0 1.5-1.5v-4a1.5 1.5 0 0 0-1.5-1.5H9.5v-4h13v4h-1.507a1.5 1.5 0 0 0-1.5 1.5v4a1.5 1.5 0 0 0 1.5 1.5h4a1.5 1.5 0 0 0 1.5-1.5v-4a1.5 1.5 0 0 0-1.5-1.5H23.5v-4H27a.5.5 0 0 0 0-1M13.493 10V6a.5.5 0 0 1 .5-.5h4a.5.5 0 0 1 .5.5v4a.5.5 0 0 1-.5.5h-4a.5.5 0 0 1-.5-.5m-2 12v4a.5.5 0 0 1-.5.5h-4a.5.5 0 0 1-.5-.5v-4a.5.5 0 0 1 .5-.5h4a.5.5 0 0 1 .5.5m14 0v4a.5.5 0 0 1-.5.5h-4a.5.5 0 0 1-.5-.5v-4a.5.5 0 0 1 .5-.5h4a.5.5 0 0 1 .5.5"/></svg>