<svg xmlns="http://www.w3.org/2000/svg" width="32" height="32" viewBox="0 0 32 32"><path d="M10.5 3.5a.5.5 0 0 0-1 0V6H9a4.5 4.5 0 0 0-4.5 4.5v14A4.5 4.5 0 0 0 9 29h14a4.5 4.5 0 0 0 4.5-4.5v-14A4.5 4.5 0 0 0 23 6h-.5V3.5a.5.5 0 0 0-1 0V6h-11V3.5ZM23 7a3.5 3.5 0 0 1 3.5 3.5v14A3.5 3.5 0 0 1 23 28H9a3.5 3.5 0 0 1-3.5-3.5v-14A3.5 3.5 0 0 1 9 7h14Zm-8.19 7.523L16 11.078l1.218 3.448.003.007a.962.962 0 0 0 .865.628h3.347l-2.626 2.254a.961.961 0 0 0-.32 1.008l.002.008 1.131 3.512-3.082-2.102-.004-.003a.962.962 0 0 0-1.068 0l-.004.003-3.082 2.102 1.12-3.468.002-.009a1.027 1.027 0 0 0-.343-1.079l-2.592-2.226h3.376a.962.962 0 0 0 .863-.628l.003-.01ZM16 10a.962.962 0 0 0-.903.63l-.004.009-1.217 3.522h-3.453a.961.961 0 0 0-.567 1.708l2.666 2.29.008.006a.027.027 0 0 1 .01.025l-1.155 3.581-.003.01a.961.961 0 0 0 1.46 1.058l.004-.003L16 20.685l3.154 2.15.004.004a.961.961 0 0 0 1.46-1.058l-.003-.01-1.158-3.596 2.687-2.306a.961.961 0 0 0-.566-1.708H18.15l-1.246-3.526-.003-.006A.961.961 0 0 0 16 10Z"/></svg>