<svg xmlns="http://www.w3.org/2000/svg" width="32" height="32" viewBox="0 0 32 32"><path d="M11 3.5a1 1 0 1 0-2 0v2a5 5 0 0 0-5 5v14a5 5 0 0 0 5 5h14a5 5 0 0 0 5-5v-14a5 5 0 0 0-5-5v-2a1 1 0 1 0-2 0v2H11v-2Zm12 4a3 3 0 0 1 3 3v14a3 3 0 0 1-3 3H9a3 3 0 0 1-3-3v-14a3 3 0 0 1 3-3h14Zm-6.253 7.193.005.013a1.46 1.46 0 0 0 1.315.954h2.016l-1.597 1.371a1.46 1.46 0 0 0-.481 1.527l.005.018.687 2.133-1.877-1.28-.008-.006a1.462 1.462 0 0 0-1.624 0l-1.884 1.285.674-2.088.005-.018a1.526 1.526 0 0 0-.504-1.598l-1.563-1.343h2.027l.02-.001a1.462 1.462 0 0 0 1.312-.954l.003-.01.727-2.103.742 2.1ZM15.999 9.5a1.462 1.462 0 0 0-1.372.957l-.003.009-1.104 3.195h-3.118a1.461 1.461 0 0 0-.867 2.591l2.431 2.089-1.06 3.287-.006.02a1.46 1.46 0 0 0 2.219 1.607l.009-.006L16 21.289l2.872 1.96.01.006a1.461 1.461 0 0 0 2.218-1.608l-.006-.02-1.06-3.29 2.43-2.084a1.462 1.462 0 0 0-.866-2.591l-.02-.001h-3.075l-1.128-3.192-.004-.012a1.46 1.46 0 0 0-1.372-.957Z"/></svg>