<svg xmlns="http://www.w3.org/2000/svg" width="32" height="32" viewBox="0 0 32 32"><path d="M10.75 3.5a.75.75 0 0 0-1.5 0v2.25H9a4.75 4.75 0 0 0-4.75 4.75v14A4.75 4.75 0 0 0 9 29.25h14a4.75 4.75 0 0 0 4.75-4.75v-14A4.75 4.75 0 0 0 23 5.75h-.25V3.5a.75.75 0 0 0-1.5 0v2.25h-10.5V3.5ZM23 7.25a3.25 3.25 0 0 1 3.25 3.25v14A3.25 3.25 0 0 1 23 27.75H9a3.25 3.25 0 0 1-3.25-3.25v-14A3.25 3.25 0 0 1 9 7.25h14Zm-6.017 7.36.003.01a1.21 1.21 0 0 0 1.09.79h2.682l-2.112 1.813a1.212 1.212 0 0 0-.4 1.267l.003.014.91 2.822-2.48-1.691-.006-.004a1.212 1.212 0 0 0-1.346 0l-2.485 1.695.896-2.779.004-.013a1.277 1.277 0 0 0-.423-1.338L11.24 15.41h2.712a1.212 1.212 0 0 0 1.087-.791l.003-.008.96-2.776.98 2.774Zm-.984-4.86a1.212 1.212 0 0 0-1.137.793l-.003.007-1.16 3.36h-3.271l-.016.002a1.212 1.212 0 0 0-.716 2.149l2.56 2.198-1.11 3.44-.005.015a1.211 1.211 0 0 0 1.84 1.333l.006-.005L16 20.987l3.013 2.055.007.005a1.212 1.212 0 0 0 1.839-1.333l-.004-.014-1.11-3.444 2.559-2.195a1.212 1.212 0 0 0-.716-2.15h-3.261l-1.188-3.359-.003-.01A1.211 1.211 0 0 0 16 9.75Z"/></svg>