<svg xmlns="http://www.w3.org/2000/svg" width="32" height="32" viewBox="0 0 32 32"><path d="M17.875 15.125a1.875 1.875 0 1 0-2.947 1.535l-.777 3.447c-.104.41.112.643.443.643h2.812a.495.495 0 0 0 .455-.63l-.788-3.46a1.87 1.87 0 0 0 .802-1.535M24.008 11.433A9.03 9.03 0 0 0 16 6.25a8.94 8.94 0 0 0-8.85 8.296 5.635 5.635 0 0 0-4.783 6.752 5.71 5.71 0 0 0 5.644 4.452H22.18a7.5 7.5 0 0 0 7.525-6.462 7.237 7.237 0 0 0-5.697-7.855m4.205 7.697a5.986 5.986 0 0 1-6.033 5.12H8.01a4.204 4.204 0 0 1-4.174-3.253 4.16 4.16 0 0 1 .839-3.475A4.11 4.11 0 0 1 7.872 16h.75v-.75A7.54 7.54 0 0 1 16 7.75a7.53 7.53 0 0 1 6.795 4.642l.162.386.414.063a5.74 5.74 0 0 1 4.842 6.29"/></svg>