<svg xmlns="http://www.w3.org/2000/svg" width="32" height="32" viewBox="0 0 32 32"><path d="M17.75 15.25A1.75 1.75 0 1 0 15 16.683l-.726 3.217c-.096.383.104.6.414.6h2.624a.462.462 0 0 0 .425-.589l-.735-3.23a1.746 1.746 0 0 0 .748-1.431Z"/><path d="M23.835 11.654A8.784 8.784 0 0 0 16 6.5a8.693 8.693 0 0 0-8.615 8.272 5.388 5.388 0 0 0-4.774 6.476 5.457 5.457 0 0 0 5.4 4.252H22.18a7.246 7.246 0 0 0 7.276-6.238 6.986 6.986 0 0 0-5.621-7.608Zm4.627 7.503A6.239 6.239 0 0 1 22.18 24.5H8.01a4.453 4.453 0 0 1-4.418-3.453 4.383 4.383 0 0 1 4.28-5.297h.5v-.5A7.698 7.698 0 0 1 16 7.5a7.782 7.782 0 0 1 7.024 4.794l.11.257.275.043a5.99 5.99 0 0 1 5.053 6.563Z"/></svg>