<svg xmlns="http://www.w3.org/2000/svg" width="32" height="32" viewBox="0 0 32 32"><path d="M23 21.942a.497.497 0 0 0-.5.5v1.308a.5.5 0 1 0 1 0v-1.308a.499.499 0 0 0-.5-.5ZM23 26.75a.5.5 0 1 0 0-1 .5.5 0 0 0 0 1Z"/><path d="m29.3 27.254-4.985-9.002-.006-.01a1.499 1.499 0 0 0-2.596.009l-5.008 8.993a1.5 1.5 0 0 0 1.296 2.256H28a1.5 1.5 0 0 0 1.302-2.246Zm-.867.995a.49.49 0 0 1-.434.25h-9.998a.491.491 0 0 1-.434-.25.498.498 0 0 1 .006-.51l5.008-8.993a.5.5 0 0 1 .861-.004l4.99 9.006a.492.492 0 0 1 0 .5ZM14 14.5a10.95 10.95 0 0 1 4.792 1.09.5.5 0 0 0 .434-.9 11.94 11.94 0 0 0-2.469-.867 6.001 6.001 0 1 0-5.498.008C6.299 14.999 2.5 19.218 2.5 24.09c0 3.716 5.655 5.238 10.498 5.412h.018a.5.5 0 0 0 .017-1C8.441 28.339 3.5 26.887 3.5 24.09 3.5 18.892 8.31 14.5 14 14.5Zm-5-6a5 5 0 1 1 10 0 5 5 0 0 1-10 0Z"/></svg>