<svg xmlns="http://www.w3.org/2000/svg" width="32" height="32" viewBox="0 0 32 32"><path d="M22.25 22.442v1.308a.75.75 0 1 0 1.5 0v-1.308a.75.75 0 0 0-1.5 0M23 27a.75.75 0 1 0 0-1.5.75.75 0 0 0 0 1.5M29.738 27.011l-4.986-9.002-.012-.02a2 2 0 0 0-3.464.018l-5.003 8.985A2 2 0 0 0 18 30H28a2 2 0 0 0 1.74-2.989m-11.727.971 5-8.988L27.999 28zM19.444 14.239a12 12 0 0 0-1.49-.592 6.5 6.5 0 1 0-7.898.007C5.422 15.202 2 19.35 2 24.092c0 4.072 5.915 5.729 10.98 5.91h.037a1 1 0 0 0 .035-1.998C7.807 27.815 4 26.17 4 24.092 4 19.162 8.58 15 14 15c1.584-.005 3.148.35 4.574 1.04a1 1 0 1 0 .87-1.801M9.5 8.499a4.5 4.5 0 1 1 9 0 4.5 4.5 0 0 1-9 0"/></svg>