<svg xmlns="http://www.w3.org/2000/svg" width="32" height="32" viewBox="0 0 32 32"><path d="M17.75 15.25A1.75 1.75 0 1 0 15 16.683l-.726 3.217c-.096.383.104.6.414.6h2.624a.462.462 0 0 0 .425-.589l-.735-3.23a1.75 1.75 0 0 0 .748-1.431M23.835 11.654A8.78 8.78 0 0 0 16 6.5a8.693 8.693 0 0 0-8.615 8.272 5.388 5.388 0 0 0-4.774 6.476 5.46 5.46 0 0 0 5.4 4.252H22.18a7.25 7.25 0 0 0 7.276-6.238 6.986 6.986 0 0 0-5.621-7.608m4.627 7.503A6.24 6.24 0 0 1 22.18 24.5H8.01a4.45 4.45 0 0 1-4.418-3.453 4.383 4.383 0 0 1 4.28-5.297h.5v-.5A7.7 7.7 0 0 1 16 7.5a7.78 7.78 0 0 1 7.025 4.794l.109.257.275.043a5.99 5.99 0 0 1 5.053 6.563"/></svg>