<svg xmlns="http://www.w3.org/2000/svg" width="32" height="32" viewBox="0 0 32 32"><path d="M18 15a2 2 0 1 0-3.144 1.637l-.828 3.677c-.11.438.119.686.473.686H17.5a.528.528 0 0 0 .485-.673l-.84-3.69A2 2 0 0 0 18 15M24.18 11.215A9.28 9.28 0 0 0 16 6a9.19 9.19 0 0 0-9.083 8.328 5.89 5.89 0 0 0-4.795 7.02A5.96 5.96 0 0 0 8.011 26H22.18a7.75 7.75 0 0 0 7.773-6.684 7.486 7.486 0 0 0-5.773-8.1m3.785 7.889A5.735 5.735 0 0 1 22.18 24H8.01a3.95 3.95 0 0 1-3.929-3.052 3.885 3.885 0 0 1 3.791-4.698h1v-1A7.286 7.286 0 0 1 16 8a7.28 7.28 0 0 1 6.565 4.489l.216.514.552.085a5.49 5.49 0 0 1 4.632 6.016"/></svg>