<svg xmlns="http://www.w3.org/2000/svg" width="32" height="32" viewBox="0 0 32 32"><path d="M23 21.692a.75.75 0 0 0-.75.75v1.308a.75.75 0 1 0 1.5 0v-1.308a.75.75 0 0 0-.75-.75M23 27a.75.75 0 1 0 0-1.5.75.75 0 0 0 0 1.5M29.52 27.133l-4.987-9.002-.009-.015a1.75 1.75 0 0 0-3.03.013l-5.006 8.989a1.75 1.75 0 0 0 1.513 2.632H28a1.75 1.75 0 0 0 1.52-2.617m-1.304.99a.24.24 0 0 1-.217.127h-9.998a.24.24 0 0 1-.217-.125.25.25 0 0 1 .008-.264l5.005-8.99a.25.25 0 0 1 .43-.004l4.988 9.007a.24.24 0 0 1 0 .25M14 14.75c1.622-.005 3.223.36 4.683 1.065a.75.75 0 1 0 .652-1.351 12 12 0 0 0-1.947-.72 6.25 6.25 0 1 0-6.79-.009C5.826 15.12 2.25 19.301 2.25 24.092c0 3.894 5.785 5.483 10.74 5.66h.026a.75.75 0 0 0 .026-1.5c-4.474-.16-9.292-1.53-9.292-4.16 0-5.064 4.694-9.342 10.25-9.342M9.25 8.5a4.75 4.75 0 1 1 9.5 0 4.75 4.75 0 0 1-9.5 0"/></svg>