<svg xmlns="http://www.w3.org/2000/svg" width="32" height="32" viewBox="0 0 32 32"><path d="M28.82 8.412a6.405 6.405 0 0 0-3.46-4.578 7.037 7.037 0 0 0-6.165-.117A7.643 7.643 0 0 0 16 6.52a7.643 7.643 0 0 0-3.195-2.804 7.037 7.037 0 0 0-6.164.117A6.405 6.405 0 0 0 3.18 8.412c-1.89 10.25 11.664 19.99 12.242 20.398a.997.997 0 0 0 1.156 0c.578-.409 14.131-10.147 12.242-20.398ZM16 26.745C13.483 24.8 3.691 16.665 5.146 8.775A4.395 4.395 0 0 1 7.52 5.63a5.295 5.295 0 0 1 2.348-.572c.724.003 1.44.163 2.095.471a5.726 5.726 0 0 1 3.067 3.714 1 1 0 0 0 1.94 0 5.725 5.725 0 0 1 3.067-3.714 4.994 4.994 0 0 1 4.444.1 4.396 4.396 0 0 1 2.372 3.145c1.455 7.89-8.336 16.026-10.853 17.97Z"/></svg>