<svg xmlns="http://www.w3.org/2000/svg" width="32" height="32" viewBox="0 0 32 32"><path d="M23.998 29.499c-.297 0-.586-.09-.833-.255l-6.892-4.703a.49.49 0 0 0-.55.003L8.84 29.24a1.5 1.5 0 0 1-2.282-1.65l2.513-7.792a.64.64 0 0 0-.227-.662l-5.788-4.974a1.5 1.5 0 0 1 .887-2.663H11.5a.49.49 0 0 0 .428-.323l2.661-7.705A1.49 1.49 0 0 1 16 2.482a1.49 1.49 0 0 1 1.407.98l2.727 7.718a.49.49 0 0 0 .446.32h7.458a1.5 1.5 0 0 1 .889 2.676l-5.83 5.007a.51.51 0 0 0-.187.541l2.526 7.848a1.502 1.502 0 0 1-1.438 1.927m-7.997-6.04c.296 0 .586.088.832.253l6.892 4.703a.5.5 0 0 0 .754-.554l-2.527-7.848a1.5 1.5 0 0 1 .51-1.601l5.83-5.007a.5.5 0 0 0 .182-.56.49.49 0 0 0-.455-.345H20.56a1.5 1.5 0 0 1-1.367-.98l-2.728-7.718a.48.48 0 0 0-.466-.32.49.49 0 0 0-.47.327l-2.663 7.712a1.5 1.5 0 0 1-1.347.979H3.962a.48.48 0 0 0-.436.344.49.49 0 0 0 .166.547l5.788 4.975a1.63 1.63 0 0 1 .548 1.722l-2.513 7.79a.48.48 0 0 0 .193.522.49.49 0 0 0 .573.012l6.881-4.697c.248-.167.54-.256.84-.256"/></svg>