<svg xmlns="http://www.w3.org/2000/svg" width="32" height="32" viewBox="0 0 32 32"><path d="M28.82 8.412a6.4 6.4 0 0 0-3.46-4.578 7.04 7.04 0 0 0-6.165-.117A7.64 7.64 0 0 0 16 6.52a7.64 7.64 0 0 0-3.195-2.804 7.04 7.04 0 0 0-6.164.117A6.4 6.4 0 0 0 3.18 8.412c-1.89 10.25 11.664 19.99 12.242 20.398a1 1 0 0 0 1.156 0c.578-.409 14.131-10.147 12.242-20.398M16 26.745C13.483 24.8 3.691 16.665 5.146 8.775A4.4 4.4 0 0 1 7.52 5.63a5.3 5.3 0 0 1 2.348-.572c.724.003 1.44.163 2.095.471a5.73 5.73 0 0 1 3.067 3.714 1 1 0 0 0 1.94 0 5.73 5.73 0 0 1 3.067-3.714 5 5 0 0 1 4.444.1 4.4 4.4 0 0 1 2.372 3.145c1.455 7.89-8.336 16.026-10.853 17.97"/></svg>