<svg xmlns="http://www.w3.org/2000/svg" width="32" height="32" viewBox="0 0 32 32"><path d="M28.33 8.503a5.9 5.9 0 0 0-3.19-4.22 6.55 6.55 0 0 0-5.733-.113A7.16 7.16 0 0 0 16 7.544a7.16 7.16 0 0 0-3.406-3.374 6.55 6.55 0 0 0-5.733.113 5.9 5.9 0 0 0-3.19 4.22c-1.831 9.94 11.474 19.498 12.04 19.9a.5.5 0 0 0 .579 0c.567-.402 13.87-9.96 12.04-19.9M16 27.373C14.059 25.914 3.082 17.222 4.655 8.685A4.9 4.9 0 0 1 7.3 5.181c.8-.4 1.681-.61 2.575-.616.794 0 1.579.176 2.298.512a6.15 6.15 0 0 1 3.342 4.045.52.52 0 0 0 .97 0 6.15 6.15 0 0 1 3.342-4.045 5.57 5.57 0 0 1 4.872.104 4.9 4.9 0 0 1 2.646 3.503c1.573 8.537-9.403 17.229-11.345 18.69"/></svg>