<svg xmlns="http://www.w3.org/2000/svg" width="32" height="32" viewBox="0 0 32 32"><path d="M28.574 8.458a6.15 6.15 0 0 0-3.324-4.4 6.8 6.8 0 0 0-5.95-.115A7.4 7.4 0 0 0 16 7.005a7.4 7.4 0 0 0-3.3-3.062 6.8 6.8 0 0 0-5.95.115 6.15 6.15 0 0 0-3.324 4.4C1.564 18.552 14.994 28.2 15.566 28.608a.75.75 0 0 0 .868 0c.572-.407 14-10.056 12.14-20.15M16 27.06C13.729 25.327 3.389 16.928 4.9 8.73a4.65 4.65 0 0 1 2.51-3.324 5.55 5.55 0 0 1 2.457-.598 5.2 5.2 0 0 1 2.201.495 5.9 5.9 0 0 1 3.205 3.88.75.75 0 0 0 1.454 0 5.9 5.9 0 0 1 3.205-3.88 5.25 5.25 0 0 1 4.658.103 4.65 4.65 0 0 1 2.51 3.323c1.51 8.199-8.829 16.598-11.1 18.331"/></svg>