<svg xmlns="http://www.w3.org/2000/svg" width="32" height="32" viewBox="0 0 32 32"><path d="M28.574 8.458a6.153 6.153 0 0 0-3.324-4.4 6.804 6.804 0 0 0-5.95-.115A7.402 7.402 0 0 0 16 7.005a7.402 7.402 0 0 0-3.3-3.062 6.802 6.802 0 0 0-5.95.115 6.153 6.153 0 0 0-3.324 4.4C1.564 18.552 14.994 28.2 15.566 28.608a.751.751 0 0 0 .868 0c.572-.407 14-10.056 12.14-20.15ZM16 27.06C13.729 25.327 3.389 16.927 4.9 8.73a4.646 4.646 0 0 1 2.51-3.324 5.553 5.553 0 0 1 2.457-.598 5.228 5.228 0 0 1 2.201.495 5.902 5.902 0 0 1 3.205 3.88.75.75 0 0 0 1.454 0 5.901 5.901 0 0 1 3.205-3.88 5.246 5.246 0 0 1 4.658.103 4.648 4.648 0 0 1 2.51 3.323c1.51 8.198-8.829 16.598-11.1 18.331Z"/></svg>