<svg xmlns="http://www.w3.org/2000/svg" width="32" height="32" viewBox="0 0 32 32"><path d="M23.998 30a2 2 0 0 1-1.111-.34l-6.895-4.706-6.87 4.7a2.001 2.001 0 0 1-3.046-2.2l2.518-7.808a.15.15 0 0 0-.06-.116L2.73 14.543A2 2 0 0 1 3.922 11l7.54-.001 2.655-7.69A1.99 1.99 0 0 1 16 1.981a1.985 1.985 0 0 1 1.876 1.308l2.73 7.724L28.038 11a1.998 1.998 0 0 1 1.199 3.569l-5.815 4.994 2.49 7.856a2.006 2.006 0 0 1-1.914 2.58M15.994 3.968l-2.658 7.727a1.99 1.99 0 0 1-1.797 1.304H3.962l5.843 4.987a2.12 2.12 0 0 1 .704 2.237l-2.518 7.809 6.89-4.73a1.995 1.995 0 0 1 2.23-.005l6.895 4.705-2.53-7.835a2.01 2.01 0 0 1 .675-2.147l5.815-4.995L20.561 13a2.005 2.005 0 0 1-1.837-1.307z"/></svg>