<svg xmlns="http://www.w3.org/2000/svg" width="32" height="32" viewBox="0 0 32 32"><path d="M28.922 14.203a1.498 1.498 0 0 0-.93-2.676h-7.418a.52.52 0 0 1-.45-.32L17.406 3.5a1.49 1.49 0 0 0-1.41-.999 1.5 1.5 0 0 0-1.409.999l-2.659 7.698a.49.49 0 0 1-.43.32H3.94a1.5 1.5 0 0 0-1.37.998 1.47 1.47 0 0 0 .49 1.618l5.778 4.992a.62.62 0 0 1 .23.66l-2.51 7.808a1.496 1.496 0 0 0 1.418 1.9 1.5 1.5 0 0 0 .862-.253l6.878-4.693a.5.5 0 0 1 .55 0l6.898 4.693c.244.168.533.258.83.26a1.51 1.51 0 0 0 1.474-1.238c.042-.23.03-.465-.035-.69l-2.53-7.838a.49.49 0 0 1 .19-.539z"/></svg>