<svg xmlns="http://www.w3.org/2000/svg" width="32" height="32" viewBox="0 0 32 32"><path d="M23.998 29.75a1.75 1.75 0 0 1-.971-.298l-6.895-4.705a.25.25 0 0 0-.27.004L8.98 29.447a1.75 1.75 0 0 1-2.663-1.925l2.514-7.8a.39.39 0 0 0-.143-.388l-5.796-4.982a1.749 1.749 0 0 1 1.039-3.101l7.568-.001a.25.25 0 0 0 .194-.159l2.659-7.7A1.74 1.74 0 0 1 16 2.231a1.74 1.74 0 0 1 1.642 1.144l2.727 7.721a.25.25 0 0 0 .221.154l7.448-.001a1.75 1.75 0 0 1 1.044 3.123l-5.823 5a.265.265 0 0 0-.11.284l2.525 7.839a1.755 1.755 0 0 1-1.676 2.254m-7.997-6.541c.346 0 .684.103.971.296l6.893 4.704a.25.25 0 0 0 .373-.28l-2.524-7.84a1.75 1.75 0 0 1 .592-1.873l5.823-5.002a.25.25 0 0 0 .107-.293.235.235 0 0 0-.228-.172h-7.447a1.75 1.75 0 0 1-1.603-1.142l-2.727-7.722a.23.23 0 0 0-.23-.153.235.235 0 0 0-.236.163l-2.663 7.713a1.74 1.74 0 0 1-1.572 1.14l-7.568.002a.23.23 0 0 0-.198.172.23.23 0 0 0 .083.273l5.796 4.982a1.88 1.88 0 0 1 .625 1.979l-2.515 7.8a.23.23 0 0 0 .103.242.234.234 0 0 0 .286.006l6.88-4.695c.29-.195.63-.3.98-.3"/></svg>