<svg xmlns="http://www.w3.org/2000/svg" width="32" height="32" viewBox="0 0 32 32"><path d="m3.414 13.753 11.005-7.998a2.75 2.75 0 0 1 4.33 2.25v2.893l6.616-5.104a2.75 2.75 0 0 1 4.386 2.21v15.993A2.756 2.756 0 0 1 27 26.749a2.77 2.77 0 0 1-1.648-.55l-6.605-5.1v2.897a2.751 2.751 0 0 1-4.34 2.243l-10.989-7.99a2.75 2.75 0 0 1-.005-4.496m15.335 5.451 7.507 5.798a1.25 1.25 0 0 0 1.994-1.005V8.005a1.23 1.23 0 0 0-.687-1.118 1.26 1.26 0 0 0-.57-.137c-.261 0-.515.084-.724.24l-7.52 5.802zM4.292 17.03l10.988 7.99a1.25 1.25 0 0 0 1.969-1.023V8.005a1.23 1.23 0 0 0-.674-1.11 1.26 1.26 0 0 0-.582-.144c-.252 0-.497.078-.702.223L4.28 14.977a1.25 1.25 0 0 0 .01 2.052"/></svg>