<svg xmlns="http://www.w3.org/2000/svg" width="32" height="32" viewBox="0 0 32 32"><path d="m3.56 13.956 11.002-7.998A2.5 2.5 0 0 1 18.5 8.004v3.403l7.015-5.414A2.5 2.5 0 0 1 29.5 8.004v15.992a2.507 2.507 0 0 1-2.5 2.502A2.5 2.5 0 0 1 25.505 26L18.5 20.59v3.405a2.5 2.5 0 0 1-3.944 2.041L3.563 18.044a2.5 2.5 0 0 1-.004-4.088m14.939 5.37 7.609 5.876a1.501 1.501 0 0 0 2.392-1.206V8.004a1.47 1.47 0 0 0-.825-1.34 1.47 1.47 0 0 0-1.559.127L18.5 12.67zM4.143 17.232l10.992 7.992a1.5 1.5 0 0 0 2.363-1.228V8.005a1.48 1.48 0 0 0-.809-1.332 1.471 1.471 0 0 0-1.547.099L4.144 14.767l-.007.005a1.5 1.5 0 0 0 .007 2.459"/></svg>