<svg xmlns="http://www.w3.org/2000/svg" width="32" height="32" viewBox="0 0 32 32"><path d="M28.351 5.324a2.98 2.98 0 0 0-3.135.268l-6.218 4.797V8.004a3 3 0 0 0-4.724-2.455l-11.006 8a3 3 0 0 0 .008 4.904l10.985 7.988a2.99 2.99 0 0 0 3.121.216 2.99 2.99 0 0 0 1.616-2.662v-2.387l6.202 4.789c.52.388 1.153.6 1.802.601a3.004 3.004 0 0 0 2.999-3.002V8.004a2.99 2.99 0 0 0-1.65-2.68M17 23.995a1 1 0 0 1-1.575.819L4.438 16.826a1 1 0 0 1-.014-1.645l.014-.01 11-7.995A.96.96 0 0 1 15.991 7a1.02 1.02 0 0 1 .864.483 1 1 0 0 1 .143.521zM28 23.996a1 1 0 0 1-1.595.804l-7.407-5.719v-6.165l7.423-5.728a.95.95 0 0 1 .57-.189 1.02 1.02 0 0 1 .863.479c.097.158.147.34.145.526z"/></svg>