<svg xmlns="http://www.w3.org/2000/svg" width="105" height="131" fill="none" viewBox="0 0 105 131"><path fill="#D9002F" d="M8.44 109.76v5.28h6.2v1.66h-6.2v6.49H6.4V108.1h9.3v1.66zm18.09 11.93a3.6 3.6 0 0 1-.83.73c-.33.21-.67.38-1.04.51q-.555.195-1.14.3c-.39.07-.78.1-1.17.1-.7.01-1.39-.12-2.04-.37-.61-.24-1.16-.62-1.61-1.1a5.1 5.1 0 0 1-1.06-1.78 7.2 7.2 0 0 1-.38-2.44c-.01-.71.11-1.41.34-2.09.21-.62.55-1.19.99-1.68.44-.48.97-.86 1.57-1.12.66-.28 1.37-.42 2.09-.4.61-.01 1.21.1 1.77.32.53.21 1.01.52 1.41.93.41.43.73.94.93 1.5.23.65.35 1.34.34 2.03.02.2-.01.4-.09.59-.09.11-.22.16-.36.15h-7.13c.01.6.1 1.19.28 1.76.14.46.38.88.69 1.25.29.33.65.58 1.05.75.44.17.9.25 1.37.25.41.01.82-.05 1.22-.16.3-.09.6-.21.88-.35.21-.11.42-.22.61-.35.12-.09.27-.15.43-.16.14-.01.28.06.36.18zm-1.52-5q0-.615-.18-1.2c-.11-.35-.3-.66-.54-.94a2.5 2.5 0 0 0-.86-.61 3 3 0 0 0-1.15-.22c-.79-.04-1.56.24-2.13.78-.56.6-.9 1.36-.97 2.18zm12.8-9.01v15.51H36.7a.47.47 0 0 1-.5-.39l-.17-1.3c-.44.53-.96.98-1.56 1.33-.62.34-1.31.52-2.02.5-.57.01-1.14-.11-1.67-.35-.5-.24-.94-.59-1.27-1.04-.38-.51-.65-1.09-.81-1.71-.2-.77-.3-1.56-.28-2.35-.01-.75.1-1.49.32-2.2.19-.64.5-1.24.91-1.76.39-.49.88-.9 1.45-1.17.6-.29 1.26-.44 1.93-.43.58-.02 1.15.1 1.68.33.47.22.9.54 1.25.92v-5.91zm-1.88 7.38c-.29-.42-.68-.76-1.14-.99-.43-.19-.9-.29-1.37-.28-.89-.05-1.75.35-2.29 1.06-.59.9-.87 1.96-.8 3.03-.01.6.05 1.2.18 1.79.09.44.27.85.53 1.22.22.31.51.55.85.7.36.15.75.23 1.15.22.57.01 1.13-.13 1.62-.42.49-.31.92-.72 1.27-1.19zm16.44 8.13h-1.81a.9.9 0 0 1-.82-.43l-3.92-5.39c-.1-.15-.23-.27-.38-.36-.2-.09-.42-.12-.64-.11h-1.55v6.3h-2.03v-15.1h4.26c.83-.01 1.67.08 2.47.29.63.16 1.21.44 1.72.84.44.35.79.8 1.01 1.32.22.55.34 1.14.33 1.73.01.51-.08 1.02-.25 1.5-.17.46-.41.88-.73 1.25-.33.38-.73.7-1.17.94-.49.27-1.02.47-1.56.59.27.16.5.38.67.64zm-6.97-7.78c.53.01 1.06-.06 1.56-.22.42-.12.8-.33 1.14-.61.3-.26.54-.58.69-.94.16-.38.24-.8.23-1.21.05-.78-.28-1.54-.89-2.03-.79-.51-1.72-.75-2.65-.68h-2.23v5.7zm21.29 7.78h-1.58a.63.63 0 0 1-.44-.14.8.8 0 0 1-.25-.35L63 119.06h-6.77l-1.41 3.64c-.05.13-.13.25-.24.34a.7.7 0 0 1-.44.15h-1.58l6.03-15.09h2.06zm-4.26-5.6-2.37-6.14c-.07-.18-.14-.4-.22-.64s-.15-.5-.22-.77c-.12.48-.27.96-.45 1.42l-2.37 6.12zm21.95-9.49v15.09h-1.79V112.1c0-.15.01-.31.02-.47s.02-.34.04-.52l-5.18 9.44c-.13.29-.42.48-.74.47h-.29a.79.79 0 0 1-.74-.47l-5.29-9.48c.04.34.06.69.06 1.03v11.09h-1.79V108.1h1.51c.14-.01.29.01.42.05.13.06.23.17.28.29l5.21 9.29c.08.17.17.34.25.53.08.18.16.37.23.56a8.602 8.602 0 0 1 .47-1.09l5.12-9.28a.53.53 0 0 1 .28-.29c.14-.04.28-.06.43-.05zm8.31 0a8.4 8.4 0 0 1 2.49.33c.64.19 1.24.51 1.75.94.46.4.81.91 1.04 1.47.24.61.35 1.27.34 1.93.01.66-.12 1.32-.37 1.93-.24.58-.61 1.09-1.08 1.51-.51.44-1.11.78-1.76.99-.78.25-1.6.37-2.42.35h-2.42v5.65h-2.03v-15.1zm0 7.82c.52.01 1.04-.07 1.54-.23.42-.14.8-.36 1.13-.65.3-.27.54-.61.69-.99.16-.41.24-.84.23-1.27a2.87 2.87 0 0 0-.89-2.25 3.87 3.87 0 0 0-2.7-.81h-2.42v6.21z"/><path fill="#032340" d="M98.32 7H6.4v91.92h91.92z"/><path fill="#032340" d="M52.36 98.92c25.383 0 45.96-20.577 45.96-45.96S77.743 7 52.36 7 6.4 27.577 6.4 52.96s20.577 45.96 45.96 45.96"/><path fill="#032340" d="M52.361 96.53c24.063 0 43.57-19.507 43.57-43.57S76.424 9.39 52.361 9.39 8.791 28.897 8.791 52.96s19.507 43.57 43.57 43.57"/><path fill="#032340" d="M52.36 94.14c22.743 0 41.18-18.437 41.18-41.18S75.103 11.78 52.36 11.78 11.18 30.217 11.18 52.96s18.437 41.18 41.18 41.18"/><path fill="#032341" d="M52.36 93.69c22.495 0 40.73-18.235 40.73-40.73S74.856 12.23 52.36 12.23 11.63 30.465 11.63 52.96s18.236 40.73 40.73 40.73"/><path fill="#032441" d="M52.36 93.23c22.24 0 40.27-18.03 40.27-40.27S74.6 12.69 52.36 12.69 12.09 30.72 12.09 52.96s18.03 40.27 40.27 40.27"/><path fill="#032442" d="M52.36 92.77c21.987 0 39.81-17.823 39.81-39.81 0-21.986-17.823-39.81-39.81-39.81-21.986 0-39.81 17.824-39.81 39.81s17.824 39.81 39.81 39.81"/><path fill="#032443" d="M52.36 92.31c21.732 0 39.35-17.618 39.35-39.35S74.092 13.61 52.36 13.61 13.01 31.228 13.01 52.96s17.617 39.35 39.35 39.35"/><path fill="#032543" d="M52.36 91.86c21.485 0 38.9-17.416 38.9-38.9s-17.415-38.9-38.9-38.9c-21.483 0-38.9 17.416-38.9 38.9s17.417 38.9 38.9 38.9"/><path fill="#032544" d="M52.36 91.4c21.23 0 38.44-17.21 38.44-38.44S73.59 14.52 52.36 14.52 13.92 31.73 13.92 52.96 31.13 91.4 52.36 91.4"/><path fill="#032544" d="M52.36 90.94c20.977 0 37.98-17.004 37.98-37.98S73.338 14.98 52.36 14.98c-20.975 0-37.98 17.004-37.98 37.98s17.005 37.98 37.98 37.98"/><path fill="#032645" d="M52.36 90.48c20.722 0 37.52-16.798 37.52-37.52S73.082 15.44 52.36 15.44 14.84 32.238 14.84 52.96s16.798 37.52 37.52 37.52"/><path fill="#032646" d="M52.361 90.03c20.473 0 37.07-16.597 37.07-37.07s-16.597-37.07-37.07-37.07-37.07 16.597-37.07 37.07 16.597 37.07 37.07 37.07"/><path fill="#032746" d="M52.36 89.57c20.22 0 36.61-16.39 36.61-36.61S72.58 16.35 52.36 16.35 15.75 32.74 15.75 52.96s16.39 36.61 36.61 36.61"/><path fill="#032747" d="M52.36 89.11c19.966 0 36.15-16.185 36.15-36.15S72.327 16.81 52.36 16.81c-19.964 0-36.15 16.185-36.15 36.15s16.186 36.15 36.15 36.15"/><path fill="#032748" d="M52.36 88.65c19.711 0 35.69-15.979 35.69-35.69S72.07 17.27 52.36 17.27 16.67 33.249 16.67 52.96s15.979 35.69 35.69 35.69"/><path fill="#032848" d="M52.361 88.2c19.463 0 35.24-15.778 35.24-35.24s-15.777-35.24-35.24-35.24c-19.462 0-35.24 15.778-35.24 35.24S32.9 88.2 52.361 88.2"/><path fill="#042849" d="M52.36 87.74c19.209 0 34.78-15.571 34.78-34.78 0-19.208-15.571-34.78-34.78-34.78-19.208 0-34.78 15.572-34.78 34.78s15.572 34.78 34.78 34.78"/><path fill="#04284A" d="M52.361 87.28c18.954 0 34.32-15.366 34.32-34.32s-15.366-34.32-34.32-34.32-34.32 15.366-34.32 34.32 15.366 34.32 34.32 34.32"/><path fill="#04294A" d="M52.36 86.82c18.7 0 33.86-15.16 33.86-33.86S71.06 19.1 52.36 19.1 18.5 34.26 18.5 52.96s15.16 33.86 33.86 33.86"/><path fill="#04294B" d="M52.36 86.36c18.447 0 33.4-14.954 33.4-33.4s-14.953-33.4-33.4-33.4c-18.445 0-33.4 14.954-33.4 33.4s14.955 33.4 33.4 33.4"/><path fill="#04294C" d="M52.36 85.91c18.198 0 32.95-14.752 32.95-32.95S70.558 20.01 52.36 20.01 19.41 34.762 19.41 52.96s14.752 32.95 32.95 32.95"/><path fill="#042A4C" d="M52.361 85.45c17.944 0 32.49-14.546 32.49-32.49s-14.546-32.49-32.49-32.49-32.49 14.546-32.49 32.49 14.546 32.49 32.49 32.49"/><path fill="#042A4D" d="M52.36 84.99c17.69 0 32.03-14.34 32.03-32.03S70.05 20.93 52.36 20.93 20.33 35.27 20.33 52.96s14.34 32.03 32.03 32.03"/><path fill="#042A4E" d="M52.361 84.54c17.441 0 31.58-14.139 31.58-31.58s-14.139-31.58-31.58-31.58-31.58 14.139-31.58 31.58 14.14 31.58 31.58 31.58"/><path fill="#042B4E" d="M52.36 84.08c17.187 0 31.12-13.933 31.12-31.12S69.547 21.84 52.36 21.84 21.24 35.773 21.24 52.96s13.933 31.12 31.12 31.12"/><path fill="#042B4F" d="M52.361 83.62c16.933 0 30.66-13.727 30.66-30.66S69.294 22.3 52.361 22.3s-30.66 13.727-30.66 30.66 13.727 30.66 30.66 30.66"/><path fill="#042C50" d="M52.36 83.16c16.68 0 30.2-13.521 30.2-30.2s-13.52-30.2-30.2-30.2c-16.679 0-30.2 13.521-30.2 30.2s13.521 30.2 30.2 30.2"/><path fill="#042C50" d="M52.361 82.7c16.425 0 29.74-13.315 29.74-29.74s-13.315-29.74-29.74-29.74-29.74 13.315-29.74 29.74S35.936 82.7 52.361 82.7"/><path fill="#042C51" d="M52.36 82.25c16.177 0 29.29-13.114 29.29-29.29S68.537 23.67 52.36 23.67c-16.176 0-29.29 13.114-29.29 29.29s13.114 29.29 29.29 29.29"/><path fill="#042D52" d="M52.361 81.79c15.923 0 28.83-12.908 28.83-28.83s-12.907-28.83-28.83-28.83-28.83 12.908-28.83 28.83 12.908 28.83 28.83 28.83"/><path fill="#042D53" d="M52.36 81.33c15.669 0 28.37-12.702 28.37-28.37S68.03 24.59 52.36 24.59c-15.668 0-28.37 12.702-28.37 28.37s12.702 28.37 28.37 28.37"/><path fill="#042D53" d="M52.361 80.87c15.414 0 27.91-12.496 27.91-27.91s-12.496-27.91-27.91-27.91-27.91 12.496-27.91 27.91 12.496 27.91 27.91 27.91"/><path fill="#042E54" d="M52.36 80.42c15.166 0 27.46-12.294 27.46-27.46S67.526 25.5 52.36 25.5c-15.165 0-27.46 12.294-27.46 27.46s12.295 27.46 27.46 27.46"/><path fill="#032E55" d="M52.361 79.96c14.912 0 27-12.088 27-27s-12.088-27-27-27c-14.911 0-27 12.088-27 27s12.089 27 27 27"/><path fill="#032E55" d="M52.36 79.5c14.658 0 26.54-11.882 26.54-26.54S67.018 26.42 52.36 26.42 25.82 38.302 25.82 52.96 37.703 79.5 52.36 79.5"/><path fill="#032F56" d="M52.361 79.04c14.404 0 26.08-11.676 26.08-26.08s-11.676-26.08-26.08-26.08-26.08 11.676-26.08 26.08 11.677 26.08 26.08 26.08"/><path fill="#032F57" d="M52.36 78.59c14.156 0 25.63-11.475 25.63-25.63S66.517 27.33 52.36 27.33 26.73 38.805 26.73 52.96s11.475 25.63 25.63 25.63"/><path fill="#033058" d="M52.36 78.13c13.9 0 25.17-11.269 25.17-25.17S66.26 27.79 52.36 27.79c-13.902 0-25.17 11.269-25.17 25.17s11.268 25.17 25.17 25.17"/><path fill="#023058" d="M52.36 77.67c13.647 0 24.71-11.063 24.71-24.71S66.007 28.25 52.36 28.25 27.65 39.313 27.65 52.96s11.063 24.71 24.71 24.71"/><path fill="#023059" d="M52.361 77.21c13.393 0 24.25-10.857 24.25-24.25s-10.857-24.25-24.25-24.25-24.25 10.857-24.25 24.25 10.857 24.25 24.25 24.25"/><path fill="#02315A" d="M52.36 76.76c13.145 0 23.8-10.656 23.8-23.8s-10.655-23.8-23.8-23.8c-13.144 0-23.8 10.656-23.8 23.8s10.656 23.8 23.8 23.8"/><path fill="#01315A" d="M52.36 76.3c12.89 0 23.34-10.45 23.34-23.34S65.25 29.62 52.36 29.62 29.02 40.07 29.02 52.96 39.47 76.3 52.36 76.3"/><path fill="#00315B" d="M52.36 75.84c12.637 0 22.88-10.244 22.88-22.88S64.998 30.08 52.36 30.08 29.48 40.324 29.48 52.96s10.244 22.88 22.88 22.88"/><path fill="#00325C" d="M52.36 75.38c12.382 0 22.42-10.038 22.42-22.42S64.741 30.54 52.36 30.54 29.94 40.578 29.94 52.96s10.037 22.42 22.42 22.42"/><path fill="#00325D" d="M52.36 74.93c12.134 0 21.97-9.836 21.97-21.97s-9.836-21.97-21.97-21.97-21.97 9.836-21.97 21.97 9.837 21.97 21.97 21.97"/><path fill="#00325D" d="M52.36 74.47c11.88 0 21.51-9.63 21.51-21.51s-9.63-21.51-21.51-21.51-21.51 9.63-21.51 21.51 9.63 21.51 21.51 21.51"/><path fill="#00335E" d="M52.36 74.01c11.626 0 21.05-9.424 21.05-21.05s-9.424-21.05-21.05-21.05c-11.625 0-21.05 9.424-21.05 21.05s9.425 21.05 21.05 21.05"/><path fill="#00335F" d="M52.36 73.55c11.371 0 20.59-9.218 20.59-20.59S63.73 32.37 52.36 32.37s-20.59 9.219-20.59 20.59 9.218 20.59 20.59 20.59"/><path fill="#003460" d="M52.36 73.1c11.124 0 20.14-9.017 20.14-20.14s-9.016-20.14-20.14-20.14c-11.122 0-20.14 9.017-20.14 20.14S41.239 73.1 52.36 73.1"/><path fill="#003460" d="M52.36 72.64c10.869 0 19.68-8.811 19.68-19.68s-8.811-19.68-19.68-19.68-19.68 8.811-19.68 19.68 8.81 19.68 19.68 19.68"/><path fill="#003461" d="M52.36 72.18c10.615 0 19.22-8.605 19.22-19.22s-8.605-19.22-19.22-19.22-19.22 8.605-19.22 19.22 8.606 19.22 19.22 19.22"/><path fill="#003562" d="M52.36 71.72c10.36 0 18.76-8.4 18.76-18.76S62.72 34.2 52.36 34.2 33.6 42.6 33.6 52.96s8.399 18.76 18.76 18.76"/><path fill="#003563" d="M52.36 71.26c10.107 0 18.3-8.193 18.3-18.3s-8.193-18.3-18.3-18.3c-10.106 0-18.3 8.193-18.3 18.3s8.194 18.3 18.3 18.3"/><path fill="#003563" d="M52.36 70.81c9.858 0 17.85-7.992 17.85-17.85s-7.992-17.85-17.85-17.85-17.85 7.992-17.85 17.85 7.992 17.85 17.85 17.85"/><path fill="#003664" d="M52.36 70.35c9.605 0 17.39-7.786 17.39-17.39s-7.785-17.39-17.39-17.39c-9.603 0-17.39 7.786-17.39 17.39s7.787 17.39 17.39 17.39"/><path fill="#003665" d="M52.36 69.89c9.35 0 16.93-7.58 16.93-16.93s-7.58-16.93-16.93-16.93-16.93 7.58-16.93 16.93 7.58 16.93 16.93 16.93"/><path fill="#003766" d="M52.36 69.43c9.097 0 16.47-7.374 16.47-16.47s-7.373-16.47-16.47-16.47-16.47 7.374-16.47 16.47 7.374 16.47 16.47 16.47"/><path fill="#003766" d="M52.36 68.98c8.847 0 16.02-7.172 16.02-16.02s-7.173-16.02-16.02-16.02c-8.848 0-16.02 7.172-16.02 16.02s7.172 16.02 16.02 16.02"/><path fill="#003767" d="M52.36 68.52c8.594 0 15.56-6.966 15.56-15.56 0-8.593-6.966-15.56-15.56-15.56-8.593 0-15.56 6.967-15.56 15.56s6.967 15.56 15.56 15.56"/><path fill="#003868" d="M52.36 68.06c8.34 0 15.1-6.76 15.1-15.1s-6.76-15.1-15.1-15.1-15.1 6.76-15.1 15.1 6.76 15.1 15.1 15.1"/><path fill="#003869" d="M52.36 67.6C60.447 67.6 67 61.046 67 52.96s-6.554-14.64-14.64-14.64-14.64 6.555-14.64 14.64S44.276 67.6 52.36 67.6"/><path fill="#00386A" d="M52.36 67.15c7.837 0 14.19-6.353 14.19-14.19s-6.353-14.19-14.19-14.19-14.19 6.353-14.19 14.19 6.353 14.19 14.19 14.19"/><path fill="#00396A" d="M52.36 66.69c7.584 0 13.73-6.147 13.73-13.73s-6.146-13.73-13.73-13.73c-7.582 0-13.73 6.147-13.73 13.73s6.148 13.73 13.73 13.73"/><path fill="#00396B" d="M52.36 66.23c7.329 0 13.27-5.941 13.27-13.27s-5.941-13.27-13.27-13.27-13.27 5.941-13.27 13.27 5.941 13.27 13.27 13.27"/><path fill="#003A6C" d="M52.36 65.77c7.076 0 12.81-5.735 12.81-12.81s-5.734-12.81-12.81-12.81c-7.074 0-12.81 5.735-12.81 12.81s5.736 12.81 12.81 12.81"/><path fill="#003A6D" d="M52.36 65.31c6.82 0 12.35-5.53 12.35-12.35s-5.53-12.35-12.35-12.35-12.35 5.53-12.35 12.35 5.53 12.35 12.35 12.35"/><path fill="#003A6E" d="M52.36 64.86c6.573 0 11.9-5.328 11.9-11.9s-5.327-11.9-11.9-11.9c-6.571 0-11.9 5.328-11.9 11.9s5.329 11.9 11.9 11.9"/><path fill="#003B6E" d="M52.36 64.4c6.318 0 11.44-5.122 11.44-11.44s-5.122-11.44-11.44-11.44-11.44 5.122-11.44 11.44S46.042 64.4 52.36 64.4"/><path fill="#003B6F" d="M52.36 63.94c6.065 0 10.98-4.916 10.98-10.98s-4.915-10.98-10.98-10.98c-6.063 0-10.98 4.916-10.98 10.98s4.917 10.98 10.98 10.98"/><path fill="#003B70" d="M52.36 63.48c5.81 0 10.52-4.71 10.52-10.52s-4.71-10.52-10.52-10.52-10.52 4.71-10.52 10.52 4.71 10.52 10.52 10.52"/><path fill="#003C71" d="M52.361 63.03c5.562 0 10.07-4.508 10.07-10.07s-4.508-10.07-10.07-10.07c-5.561 0-10.07 4.508-10.07 10.07s4.509 10.07 10.07 10.07"/><path fill="#003C72" d="M52.36 62.57a9.61 9.61 0 1 0 0-19.22 9.61 9.61 0 0 0 0 19.22"/><path fill="#003D72" d="M52.36 62.11a9.15 9.15 0 1 0 0-18.3 9.15 9.15 0 0 0 0 18.3"/><path fill="#003D73" d="M52.36 61.65a8.69 8.69 0 1 0 0-17.38 8.69 8.69 0 0 0 0 17.38"/><path fill="#003D74" d="M52.361 61.2a8.24 8.24 0 1 0 0-16.48 8.24 8.24 0 0 0 0 16.48"/><path fill="#003E75" d="M52.36 60.74a7.78 7.78 0 1 0 0-15.56 7.78 7.78 0 0 0 0 15.56"/><path fill="#003E76" d="M52.361 60.28a7.32 7.32 0 1 0 0-14.64 7.32 7.32 0 0 0 0 14.64"/><path fill="#003F77" d="M52.36 59.82a6.86 6.86 0 1 0 0-13.72 6.86 6.86 0 0 0 0 13.72"/><path fill="#003F77" d="M52.361 59.37a6.41 6.41 0 1 0 0-12.82 6.41 6.41 0 0 0 0 12.82"/><path fill="#003F78" d="M52.36 58.91a5.95 5.95 0 1 0 0-11.9 5.95 5.95 0 0 0 0 11.9"/><path fill="#004079" d="M52.361 58.45a5.49 5.49 0 1 0 0-10.98 5.49 5.49 0 0 0 0 10.98"/><path fill="#00407A" d="M52.36 57.99a5.03 5.03 0 1 0 0-10.06 5.03 5.03 0 0 0 0 10.06"/><path fill="#00417B" d="M52.361 57.54a4.58 4.58 0 1 0 0-9.16 4.58 4.58 0 0 0 0 9.16"/><path fill="#00417C" d="M52.36 57.08a4.12 4.12 0 1 0 0-8.24 4.12 4.12 0 0 0 0 8.24"/><path fill="#00417D" d="M52.361 56.62a3.66 3.66 0 1 0 0-7.32 3.66 3.66 0 0 0 0 7.32"/><path fill="#00427E" d="M52.36 56.16a3.2 3.2 0 1 0 0-6.4 3.2 3.2 0 0 0 0 6.4"/><path fill="#00427E" d="M52.361 55.71a2.75 2.75 0 1 0 0-5.5 2.75 2.75 0 0 0 0 5.5"/><path fill="#00437F" d="M52.36 55.25a2.29 2.29 0 1 0 0-4.58 2.29 2.29 0 0 0 0 4.58"/><path fill="#004380" d="M52.361 54.79a1.83 1.83 0 1 0 0-3.66 1.83 1.83 0 0 0 0 3.66"/><path fill="#004381" d="M52.36 54.33a1.37 1.37 0 1 0 0-2.74 1.37 1.37 0 0 0 0 2.74"/><path fill="#004482" d="M52.36 53.88a.92.92 0 1 0 0-1.84.92.92 0 0 0 0 1.84"/><path fill="#004483" d="M52.36 53.42a.46.46 0 1 0 0-.92.46.46 0 0 0 0 .92"/><path fill="#fff" d="M77.47 58.52 87.83 78.5h-12.8L65.5 60.31h-6.62v18.18H47.31l-.01-25.11c0-.06-.01-.11-.01-.17s.01-.11.01-.17v-.27h.01a4.31 4.31 0 0 1 3.6-3.82v-.04h.24c.15-.02.3-.02.45-.02.13 0 .26.01.4.02h.88c.1-.01.2-.01.3-.01l18.88-.01c1.04-.08 2.02-.49 2.82-1.16a5.025 5.025 0 0 0 .6-7.08 5.07 5.07 0 0 0-3.73-1.79l-1.52-.03h-42.4V48.9h14.8v11.37h-14.8V78.5H16.26V32.72c0-3.02 2.45-5.47 5.47-5.47H71.9c8.91.03 16.11 7.27 16.09 16.18a16.13 16.13 0 0 1-10.52 15.09"/></svg>