<svg xmlns="http://www.w3.org/2000/svg" width="32" height="32" viewBox="0 0 32 32"><path d="M28.586 13.752 17.582 5.754a2.75 2.75 0 0 0-4.33 2.25v2.894L6.635 5.793A2.75 2.75 0 0 0 2.25 8.004v15.992a2.756 2.756 0 0 0 2.749 2.752 2.77 2.77 0 0 0 1.648-.55l6.604-5.1v2.897a2.751 2.751 0 0 0 4.341 2.244l10.989-7.99a2.75 2.75 0 0 0 .005-4.497m-15.334 5.452-7.508 5.797a1.25 1.25 0 0 1-1.994-1.005V8.004a1.23 1.23 0 0 1 .687-1.117 1.26 1.26 0 0 1 .57-.138c.261 0 .515.085.724.24l7.52 5.803zm14.457-2.175-10.989 7.99a1.251 1.251 0 0 1-1.968-1.024V8.005a1.23 1.23 0 0 1 .673-1.11c.18-.094.38-.144.582-.145.252 0 .497.078.702.224l11.01 8.003a1.25 1.25 0 0 1-.01 2.052"/></svg>