<svg xmlns="http://www.w3.org/2000/svg" width="32" height="32" viewBox="0 0 32 32"><path d="M28.44 13.956 17.439 5.958a2.5 2.5 0 0 0-3.936 2.046v3.402L6.486 5.993A2.5 2.5 0 0 0 2.5 8.004v15.992A2.507 2.507 0 0 0 5 26.498 2.51 2.51 0 0 0 6.495 26l7.006-5.41v3.405a2.498 2.498 0 0 0 3.944 2.041l10.992-7.992a2.5 2.5 0 0 0 .004-4.088Zm-14.939 5.37-7.609 5.876A1.501 1.501 0 0 1 3.5 23.996V8.004a1.474 1.474 0 0 1 .826-1.34 1.47 1.47 0 0 1 1.559.127l7.618 5.878v6.658Zm14.355-2.095-10.992 7.992a1.5 1.5 0 0 1-2.363-1.228V8.005a1.475 1.475 0 0 1 .81-1.332 1.471 1.471 0 0 1 1.547.099l10.998 7.995.007.005a1.5 1.5 0 0 1-.007 2.459Z"/></svg>