<svg xmlns="http://www.w3.org/2000/svg" width="32" height="32" viewBox="0 0 32 32"><path d="m28.732 13.55-11.006-8a3 3 0 0 0-4.724 2.454v2.385L6.784 5.592A3 3 0 0 0 2 8.004v15.992a3.004 3.004 0 0 0 2.998 3.002 3.03 3.03 0 0 0 1.802-.601l6.201-4.79v2.388a3.002 3.002 0 0 0 4.738 2.446l10.985-7.988a3 3 0 0 0 .008-4.904m-15.73 5.531L5.594 24.8A1 1 0 0 1 4 23.996V8.004a.98.98 0 0 1 .55-.893c.141-.073.298-.11.457-.112.206 0 .406.066.57.189l7.425 5.728zm14.56-2.255-10.986 7.988A1 1 0 0 1 15 23.995V8.005a.98.98 0 0 1 .54-.889c.144-.075.304-.115.467-.116.199 0 .393.062.555.176l10.999 7.995.014.01a1 1 0 0 1-.014 1.645"/></svg>