<svg xmlns="http://www.w3.org/2000/svg" width="32" height="32" viewBox="0 0 32 32"><path d="M25 7.25h-8.077a1.29 1.29 0 0 1-.95-.476l-.716-.843a4.741 4.741 0 0 0-3.625-1.681H7A4.755 4.755 0 0 0 2.25 9v14A4.755 4.755 0 0 0 7 27.75h18A4.755 4.755 0 0 0 29.75 23V11.96A4.736 4.736 0 0 0 25 7.25ZM7 5.75h4.632a3.243 3.243 0 0 1 2.48 1.15l.718.846a2.768 2.768 0 0 0 2.093 1.004H25a3.235 3.235 0 0 1 3.25 3.211v1.3l-24.5-.019V9A3.254 3.254 0 0 1 7 5.75Zm18 20.5H7A3.254 3.254 0 0 1 3.75 23v-8.258l24.5.019V23A3.254 3.254 0 0 1 25 26.25Z"/></svg>