<svg xmlns="http://www.w3.org/2000/svg" width="32" height="32" viewBox="0 0 32 32"><path d="M23 2.5H9A4.505 4.505 0 0 0 4.5 7v18A4.505 4.505 0 0 0 9 29.5h14a4.505 4.505 0 0 0 4.5-4.5V7A4.505 4.505 0 0 0 23 2.5M26.5 25a3.504 3.504 0 0 1-3.5 3.5H9A3.504 3.504 0 0 1 5.5 25V7A3.504 3.504 0 0 1 9 3.5h14A3.505 3.505 0 0 1 26.5 7zM16 12.5a.5.5 0 0 0-.5.5v.524a5.5 5.5 0 1 0 5.975 5.976H22a.5.5 0 0 0 .5-.5 6.507 6.507 0 0 0-6.5-6.5m0 10.999a4.488 4.488 0 0 1-.5-8.95V19a.5.5 0 0 0 .5.5h4.45a4.49 4.49 0 0 1-4.45 4m.5-5v-4.977a5.51 5.51 0 0 1 4.978 4.978z"/></svg>