<svg xmlns="http://www.w3.org/2000/svg" width="32" height="32" viewBox="0 0 32 32"><path d="M23 2H9a5.006 5.006 0 0 0-5 5v18a5.006 5.006 0 0 0 5 5h14a5.005 5.005 0 0 0 5-5V7a5.006 5.006 0 0 0-5-5Zm3 23a3.004 3.004 0 0 1-3 3H9a3.003 3.003 0 0 1-3-3V7a3.003 3.003 0 0 1 3-3h14a3.003 3.003 0 0 1 3 3v18Z"/><path d="M21 22h-1.522s1.444-3.614 1.453-3.653a2.003 2.003 0 0 0-.257-1.61l-.028-.04-3.837-5.285a1 1 0 0 0-1.618 0l-3.86 5.314a1.997 1.997 0 0 0-.259 1.629c.01.036 1.45 3.645 1.45 3.645H11a1 1 0 0 0 0 2h10a1 1 0 1 0 0-2Zm-6.323 0-1.671-4.178L15 15.078v1.96a1.219 1.219 0 0 0-.25.712 1.25 1.25 0 0 0 2.5 0 1.219 1.219 0 0 0-.25-.712V15.08l1.994 2.747L17.323 22h-2.646Z"/></svg>