<svg xmlns="http://www.w3.org/2000/svg" width="32" height="32" viewBox="0 0 32 32"><path d="M23 2.48H9a4.505 4.505 0 0 0-4.5 4.5v18a4.505 4.505 0 0 0 4.5 4.5h14a4.505 4.505 0 0 0 4.5-4.5v-18a4.505 4.505 0 0 0-4.5-4.5m-1.448 17.436a5.9 5.9 0 0 1-5.931 4.229 5.98 5.98 0 0 1-5.612-5.615 5.9 5.9 0 0 1 4.229-5.929.507.507 0 0 1 .662.476v5.177a1 1 0 0 0 1 1h5.176a.506.506 0 0 1 .476.662m.732-2.662H17.4a.5.5 0 0 1-.5-.5V11.87a.496.496 0 0 1 .563-.497 6.51 6.51 0 0 1 5.317 5.318.495.495 0 0 1-.497.563"/></svg>