<svg xmlns="http://www.w3.org/2000/svg" width="32" height="32" viewBox="0 0 32 32"><path d="M9 2.5h14A4.505 4.505 0 0 1 27.5 7v18a4.505 4.505 0 0 1-4.5 4.5H9A4.505 4.505 0 0 1 4.5 25V7A4.505 4.505 0 0 1 9 2.5m11.693 19.25c.122-.285.274-.6.397-.851.67-1.388 1.43-2.96.424-3.968-1.107-1.108-2.608.111-4.344 1.527-.223.181-.495.402-.774.62.214-.307.437-.616.63-.882l.018-.024c1.561-2.159 3.175-4.39 1.71-5.734a1.72 1.72 0 0 0-1.277-.437c-2.37.106-6.888 4.868-8.216 6.325a1.002 1.002 0 0 0 .783 1.68 1 1 0 0 0 .695-.333c2.526-2.771 5.379-5.204 6.53-5.614A16.3 16.3 0 0 1 15.423 17c-1.423 1.965-2.546 3.518-1.484 4.582 1.147 1.148 2.773-.172 4.492-1.573a30 30 0 0 1 1.348-1.053c-.153.374-.354.789-.491 1.074-.648 1.339-1.259 2.603-.396 3.467a1.67 1.67 0 0 0 1.219.505 4.14 4.14 0 0 0 2.576-1.276 1 1 0 0 0-1.377-1.451 4 4 0 0 1-.618.476"/></svg>