<svg xmlns="http://www.w3.org/2000/svg" width="32" height="32" viewBox="0 0 32 32"><path d="M23 2.5H9A4.505 4.505 0 0 0 4.5 7v18A4.505 4.505 0 0 0 9 29.5h14a4.505 4.505 0 0 0 4.5-4.5V7A4.505 4.505 0 0 0 23 2.5M26.5 25a3.504 3.504 0 0 1-3.5 3.5H9A3.504 3.504 0 0 1 5.5 25V7A3.504 3.504 0 0 1 9 3.5h14A3.504 3.504 0 0 1 26.5 7zM20.842 13.743a1.55 1.55 0 0 0-1.515-1.244h-6.654a1.546 1.546 0 0 0-1.513 1.236l-.63 2.915a1.545 1.545 0 0 0 1.516 1.85H15.5v4H15a.5.5 0 0 0 0 1h2a.5.5 0 0 0 0-1h-.5v-4h3.454a1.544 1.544 0 0 0 1.513-1.857zm-.465 3.556a.55.55 0 0 1-.423.2h-7.908a.547.547 0 0 1-.536-.645l.628-2.916a.55.55 0 0 1 .535-.439h6.654a.55.55 0 0 1 .537.447l.625 2.901a.55.55 0 0 1-.113.452"/></svg>