<svg xmlns="http://www.w3.org/2000/svg" width="32" height="32" viewBox="0 0 32 32"><path d="M23 2H9a5.006 5.006 0 0 0-5 5v18a5.006 5.006 0 0 0 5 5h14a5.006 5.006 0 0 0 5-5V7a5.006 5.006 0 0 0-5-5m3 23a3.003 3.003 0 0 1-3 3H9a3.003 3.003 0 0 1-3-3V7a3.003 3.003 0 0 1 3-3h14a3.003 3.003 0 0 1 3 3zM16 24a1.25 1.25 0 1 0 0-2.5 1.25 1.25 0 0 0 0 2.5M16 10a4.017 4.017 0 0 0-4 4.024 1 1 0 1 0 2 0 2 2 0 1 1 4 0 1.99 1.99 0 0 1-2 1.978 1 1 0 0 0-1 1V19a1 1 0 1 0 2 0v-1.124A4.002 4.002 0 0 0 16 10"/></svg>