<svg xmlns="http://www.w3.org/2000/svg" width="32" height="32" viewBox="0 0 32 32"><path d="M21.483 21.456a3.65 3.65 0 0 1-1.24.794q.255-.754.621-1.46c.666-1.376 1.354-2.801.474-3.682-.953-.948-2.369.204-4.01 1.543q-.881.748-1.844 1.389.626-1.043 1.357-2.015c1.498-2.07 3.046-4.21 1.744-5.402a1.43 1.43 0 0 0-1.097-.372c-2.333.104-7.108 5.22-8.043 6.244a.75.75 0 1 0 1.11 1.01c2.975-3.264 6.238-5.973 7.008-5.79.185.498-1.249 2.479-1.937 3.431-1.406 1.941-2.421 3.345-1.51 4.258.987.987 2.458-.205 4.16-1.59a16 16 0 0 1 1.962-1.447 10 10 0 0 1-.725 1.77c-.633 1.312-1.18 2.445-.443 3.182a1.44 1.44 0 0 0 1.049.43 3.9 3.9 0 0 0 2.397-1.205.75.75 0 1 0-1.033-1.088M23 2.25H9A4.755 4.755 0 0 0 4.25 7v18A4.755 4.755 0 0 0 9 29.75h14A4.755 4.755 0 0 0 27.75 25V7A4.756 4.756 0 0 0 23 2.25M26.25 25A3.254 3.254 0 0 1 23 28.25H9A3.254 3.254 0 0 1 5.75 25V7A3.254 3.254 0 0 1 9 3.75h14A3.254 3.254 0 0 1 26.25 7z"/></svg>