<svg xmlns="http://www.w3.org/2000/svg" width="32" height="32" viewBox="0 0 32 32"><path d="M23 2.25H9A4.755 4.755 0 0 0 4.25 7v18A4.755 4.755 0 0 0 9 29.75h14A4.755 4.755 0 0 0 27.75 25V7A4.755 4.755 0 0 0 23 2.25M26.25 25A3.254 3.254 0 0 1 23 28.25H9A3.254 3.254 0 0 1 5.75 25V7A3.254 3.254 0 0 1 9 3.75h14A3.254 3.254 0 0 1 26.25 7zM22.75 13.5a.7.7 0 0 0-.052-.26c-.004-.01-.002-.02-.006-.029-.006-.014-.018-.023-.025-.037a.7.7 0 0 0-.119-.174q-.02-.025-.042-.048a.7.7 0 0 0-.217-.145l-5.98-2.5a.76.76 0 0 0-.577 0l-6.02 2.5a.7.7 0 0 0-.217.144q-.024.025-.045.05a.7.7 0 0 0-.116.172c-.008.014-.02.024-.027.038-.003.01-.002.02-.005.029a.7.7 0 0 0-.052.26v8a.75.75 0 0 0 .462.692l6 2.5a.75.75 0 0 0 .576 0l6-2.5a.75.75 0 0 0 .462-.692zm-6.73-1.688 4.033 1.686L16 15.187l-4.047-1.686zm-5.27 2.812 4.5 1.875v6.376L10.75 21zm6 8.25V16.5l4.5-1.876V21z"/></svg>