<svg xmlns="http://www.w3.org/2000/svg" width="32" height="32" viewBox="0 0 32 32"><path d="M23 2.5H9A4.505 4.505 0 0 0 4.5 7v18A4.505 4.505 0 0 0 9 29.5h14a4.504 4.504 0 0 0 4.5-4.5V7A4.505 4.505 0 0 0 23 2.5M26.5 25a3.504 3.504 0 0 1-3.5 3.5H9A3.504 3.504 0 0 1 5.5 25V7A3.504 3.504 0 0 1 9 3.5h14A3.504 3.504 0 0 1 26.5 7zM19.99 15.501h-.49V14a3.499 3.499 0 1 0-6.999.001v1.5l-.504-.001a1.51 1.51 0 0 0-1.497 1.52v4.984a1.48 1.48 0 0 0 .45 1.062c.282.28.663.435 1.06.435l7.992-.001a1.49 1.49 0 0 0 1.064-.452c.28-.284.435-.667.434-1.065v-4.985a1.506 1.506 0 0 0-1.51-1.497m-6.489-1.5A2.5 2.5 0 1 1 18.5 14v1.5h-4.998zm6.999 7.983a.517.517 0 0 1-.5.516l-7.988.001a.513.513 0 0 1-.512-.498v-4.984a.515.515 0 0 1 .498-.519l7.99.001a.515.515 0 0 1 .512.498z"/></svg>