<svg xmlns="http://www.w3.org/2000/svg" width="32" height="32" viewBox="0 0 32 32"><path d="M23 2.5H9A4.505 4.505 0 0 0 4.5 7v18A4.505 4.505 0 0 0 9 29.5h14a4.505 4.505 0 0 0 4.5-4.5V7A4.505 4.505 0 0 0 23 2.5M26.5 25a3.505 3.505 0 0 1-3.5 3.5H9A3.504 3.504 0 0 1 5.5 25V7A3.504 3.504 0 0 1 9 3.5h14A3.505 3.505 0 0 1 26.5 7zM22.5 13.5l-.001-.004a.5.5 0 0 0-.037-.189 1 1 0 0 0-.037-.053.492.492 0 0 0-.223-.207l-.01-.008-5.978-2.5a.5.5 0 0 0-.385-.001l-6.02 2.5-.006.004a.5.5 0 0 0-.193.158l-.072.107a.5.5 0 0 0-.037.19l-.001.002v8a.5.5 0 0 0 .307.463l6 2.5c.124.05.262.05.385 0l6-2.5a.5.5 0 0 0 .308-.462zm-6.48-1.959L20.7 13.5 16 15.457 11.302 13.5zM10.5 14.25l5 2.083v6.916l-5-2.082zm6 9v-6.917l5-2.083v6.917z"/></svg>