<svg xmlns="http://www.w3.org/2000/svg" width="32" height="32" viewBox="0 0 32 32"><path d="m14.677 22-1.671-4.178L15 15.078v1.96a1.2 1.2 0 0 0-.25.712 1.25 1.25 0 1 0 2.5 0 1.2 1.2 0 0 0-.25-.712V15.08l1.994 2.747L17.324 22zM9 2.5h14A4.505 4.505 0 0 1 27.5 7v18a4.505 4.505 0 0 1-4.5 4.5H9A4.505 4.505 0 0 1 4.5 25V7A4.505 4.505 0 0 1 9 2.5m1.293 19.792a1 1 0 0 0-.293.692v.031A1 1 0 0 0 11 24h10a1 1 0 1 0 0-2h-1.522s1.444-3.614 1.453-3.653a2 2 0 0 0-.257-1.61l-.014-.02-.014-.02-3.837-5.285a1 1 0 0 0-1.618 0l-3.86 5.314a2 2 0 0 0-.259 1.629c.01.036 1.45 3.645 1.45 3.645H11a1 1 0 0 0-.707.292"/></svg>