<svg xmlns="http://www.w3.org/2000/svg" width="32" height="32" viewBox="0 0 32 32"><path d="M9 2.5h14A4.505 4.505 0 0 1 27.5 7v18a4.505 4.505 0 0 1-4.5 4.5H9A4.505 4.505 0 0 1 4.5 25V7A4.505 4.505 0 0 1 9 2.5m3.383 13.576a1 1 0 0 0-1.09.216l-3 3a1 1 0 0 0 0 1.415l3 3a1 1 0 0 0 1.414-1.415L10.414 20l2.293-2.293a1 1 0 0 0-.324-1.63m8.324.216a1 1 0 1 0-1.414 1.415L21.586 20l-2.293 2.293A.998.998 0 0 0 20 24a1 1 0 0 0 .707-.293l3-3a1 1 0 0 0 0-1.414zm-3.778-.29a1 1 0 0 0-.877.681l-2 6a1 1 0 0 0 1.896.633l2-6a.998.998 0 0 0-1.019-1.314"/></svg>