<svg xmlns="http://www.w3.org/2000/svg" width="32" height="32" viewBox="0 0 32 32"><path d="m11.998 16.96 7.956.04a.043.043 0 0 0 .036-.017l-.615-2.932L12.673 14l-.675 2.96Z"/><path fill-rule="evenodd" d="M23 2.5H9A4.505 4.505 0 0 0 4.5 7v18A4.505 4.505 0 0 0 9 29.5h14a4.505 4.505 0 0 0 4.5-4.5V7A4.505 4.505 0 0 0 23 2.5Zm-2.377 9.964c.365.3.616.717.71 1.18l.623 2.894A2.043 2.043 0 0 1 19.954 19H17v3a1 1 0 0 1 0 2h-2a1 1 0 1 1 0-2v-3h-2.954a2.044 2.044 0 0 1-2.005-2.448l.63-2.923A2.047 2.047 0 0 1 12.672 12h6.654c.472.002.93.166 1.296.465Z" clip-rule="evenodd"/></svg>