<svg xmlns="http://www.w3.org/2000/svg" width="32" height="32" viewBox="0 0 32 32"><path d="M19.5 15.001a3.5 3.5 0 1 0 0-7 3.5 3.5 0 0 0 0 7Zm0-5a1.5 1.5 0 1 1 0 3 1.5 1.5 0 0 1 0-3Z"/><path d="M23 2H9a5.006 5.006 0 0 0-5 5v18a5.006 5.006 0 0 0 5 5h14a5.006 5.006 0 0 0 5-5V7a5.005 5.005 0 0 0-5-5ZM9 4h14a3.003 3.003 0 0 1 3 3v18a2.972 2.972 0 0 1-.588 1.767l-7.904-9.106a5 5 0 0 0-7.687.297L6 22.885V7a3.003 3.003 0 0 1 3-3Zm0 24a2.993 2.993 0 0 1-2.836-2.064l5.24-6.757a2.994 2.994 0 0 1 2.267-1.175 2.942 2.942 0 0 1 2.338.98l7.735 8.911A2.97 2.97 0 0 1 23 28H9Z"/></svg>