<svg xmlns="http://www.w3.org/2000/svg" width="32" height="32" viewBox="0 0 32 32"><path d="M22.996 2H8.98a4.963 4.963 0 0 0-3.555 1.481A4.877 4.877 0 0 0 4 6.981v17.99A4.968 4.968 0 0 0 8.98 30h14.016A5.008 5.008 0 0 0 28 25V7a5.008 5.008 0 0 0-5.005-5ZM6.847 4.888A2.98 2.98 0 0 1 8.98 4h14.016A3.006 3.006 0 0 1 26 7v13.847a1.742 1.742 0 0 1-1.018-.962l-1.78-4.415a4.122 4.122 0 0 0-7.566.028l-1.756 4.37a1.747 1.747 0 0 1-1.864 1.131 2.209 2.209 0 0 1-2.066-1.229l-1.125-3.094A4.095 4.095 0 0 0 6 14.146V6.97a2.898 2.898 0 0 1 .847-2.083ZM22.996 28H8.98A2.969 2.969 0 0 1 6 24.981v-8.709c.441.236.78.626.95 1.096l1.125 3.096a4.102 4.102 0 0 0 3.888 2.535 3.798 3.798 0 0 0 3.762-2.358l1.756-4.369a2.123 2.123 0 0 1 3.879-.027l1.78 4.414A3.824 3.824 0 0 0 26 22.91V25a3.006 3.006 0 0 1-3.004 3Z"/></svg>