<svg xmlns="http://www.w3.org/2000/svg" width="32" height="32" viewBox="0 0 32 32"><path d="M19.9 7a3 3 0 1 0 0 6 3 3 0 0 0 0-6m-2 3a2 2 0 1 1 4 0 2 2 0 0 1-4 0M2.673.622a.5.5 0 0 1 .705.05L6.11 3.826A4.98 4.98 0 0 1 9.5 2.5h13a5 5 0 0 1 5 5v17c0 1.09-.349 2.099-.94 2.92l2.818 3.252a.5.5 0 0 1-.707.705L3.378 2.192a1 1 0 0 0-.05-.05l-.706-.815a.5.5 0 0 1 .05-.705m4.092 3.959 11.819 13.637 2.561-1.94a2.5 2.5 0 0 1 3.462.43l1.893 2.367V7.5a4 4 0 0 0-4-4h-13c-1.058 0-2.02.41-2.735 1.081M19.24 18.976l6.641 7.662A4 4 0 0 0 26.5 24.5v-3.825l-2.674-3.342a1.5 1.5 0 0 0-2.077-.258zM4.918 5.496A5 5 0 0 0 4.5 7.5v17a5 5 0 0 0 5 5h13c.95 0 1.837-.265 2.594-.724l-.667-.77a4 4 0 0 1-1.927.494h-13c-.758 0-1.466-.21-2.07-.577l10.217-7.74-.657-.757-3.048 2.309-2.674-2.674a2.5 2.5 0 0 0-3.536 0L5.5 21.293V7.5c0-.397.058-.78.165-1.142zm5.643 14.272 2.576 2.576-6.514 4.935A3.99 3.99 0 0 1 5.5 24.5v-1.793l2.94-2.94a1.5 1.5 0 0 1 2.12 0"/></svg>