<svg xmlns="http://www.w3.org/2000/svg" width="32" height="32" viewBox="0 0 32 32"><path d="M23 2.5H9A4.505 4.505 0 0 0 4.5 7v18A4.505 4.505 0 0 0 9 29.5h14a4.505 4.505 0 0 0 4.5-4.5V7A4.505 4.505 0 0 0 23 2.5ZM15 24a1.001 1.001 0 0 1-1 1h-4a1 1 0 0 1-1-1v-5a1 1 0 0 1 1-1h4a1.001 1.001 0 0 1 1 1v5Zm0-9a1.001 1.001 0 0 1-1 1h-4a1 1 0 0 1-1-1v-3a1 1 0 0 1 1-1h4a1.001 1.001 0 0 1 1 1v3Zm8 9a1.001 1.001 0 0 1-1 1h-4a1 1 0 0 1-1-1v-3a.999.999 0 0 1 1-1h4a1.001 1.001 0 0 1 1 1v3Zm0-7a1.001 1.001 0 0 1-1 1h-4a1 1 0 0 1-1-1v-5a.999.999 0 0 1 1-1h4a1.001 1.001 0 0 1 1 1v5Z"/></svg>