<svg xmlns="http://www.w3.org/2000/svg" width="32" height="32" viewBox="0 0 32 32"><path d="M10 14.25a.75.75 0 0 0 0 1.5h2a.75.75 0 0 0 0-1.5h-2ZM16 14.25a.75.75 0 0 0 0 1.5h6a.75.75 0 0 0 0-1.5h-6ZM10 18.25a.75.75 0 0 0 0 1.5h2a.75.75 0 0 0 0-1.5h-2ZM16 18.25a.75.75 0 0 0 0 1.5h6a.75.75 0 0 0 0-1.5h-6ZM10 22.25a.75.75 0 0 0 0 1.5h2a.75.75 0 0 0 0-1.5h-2ZM16 22.25a.75.75 0 0 0 0 1.5h6a.75.75 0 0 0 0-1.5h-6Z"/><path fill-rule="evenodd" d="M9 2.25A4.75 4.75 0 0 0 4.25 7v18A4.75 4.75 0 0 0 9 29.75h14A4.75 4.75 0 0 0 27.75 25V7A4.75 4.75 0 0 0 23 2.25H9ZM5.75 7A3.25 3.25 0 0 1 9 3.75h14A3.25 3.25 0 0 1 26.25 7v18A3.25 3.25 0 0 1 23 28.25H9A3.25 3.25 0 0 1 5.75 25V7Z" clip-rule="evenodd"/></svg>