<svg xmlns="http://www.w3.org/2000/svg" width="32" height="32" viewBox="0 0 32 32"><path d="M23 2.5H9A4.505 4.505 0 0 0 4.5 7v18A4.505 4.505 0 0 0 9 29.5h14a4.505 4.505 0 0 0 4.5-4.5V7A4.505 4.505 0 0 0 23 2.5M26.5 25a3.504 3.504 0 0 1-3.5 3.5H9A3.504 3.504 0 0 1 5.5 25V7A3.504 3.504 0 0 1 9 3.5h14A3.504 3.504 0 0 1 26.5 7zM12.354 16.646a.5.5 0 0 0-.707 0l-3 3a.5.5 0 0 0 0 .707l3 3a.5.5 0 1 0 .707-.707L9.707 20l2.646-2.647a.5.5 0 0 0 0-.707M20.354 16.646a.5.5 0 0 0-.707.707l2.646 2.646-2.646 2.647a.5.5 0 1 0 .707.707l3-3a.5.5 0 0 0 0-.707zM17.158 16.525a.504.504 0 0 0-.633.316l-2 6a.501.501 0 0 0 .95.317l2-6a.5.5 0 0 0-.317-.633"/></svg>