<svg xmlns="http://www.w3.org/2000/svg" width="32" height="32" viewBox="0 0 32 32"><path d="M19.9 6.5a3.5 3.5 0 1 0 0 7 3.5 3.5 0 0 0 0-7m0 2a1.5 1.5 0 1 1 0 3 1.5 1.5 0 0 1 0-3M28.996 32h.01a1 1 0 0 0 .75-1.655l-2.57-2.965A5.47 5.47 0 0 0 28 24.5v-17A5.5 5.5 0 0 0 22.5 2h-13c-1.254 0-2.41.42-3.334 1.126L3.756.346a1 1 0 0 0-1.41-.102 1 1 0 0 0-.102 1.411l1.462 1.687q.026.025.05.053l24.538 28.313c.192.192.446.29.702.292M7.48 4.642A3.5 3.5 0 0 1 9.5 4h13A3.5 3.5 0 0 1 26 7.5v10.15l-1.002-1.254a3 3 0 0 0-4.155-.517l-2.188 1.658zM25.77 25.748l-5.803-6.696 2.083-1.579a1 1 0 0 1 1.385.173L26 20.85V24.5c0 .44-.081.86-.229 1.247M4.046 6.784Q4 7.135 4 7.5v17A5.5 5.5 0 0 0 9.5 30h13c.516 0 1.016-.071 1.49-.204L22.434 28H9.5c-.387 0-.76-.063-1.108-.179l8.383-6.35-1.313-1.515-1.475 1.117-2.366-2.366a3 3 0 0 0-4.242 0L6 20.086V9.038zm8.332 15.508-5.681 4.304A3.5 3.5 0 0 1 6 24.5v-1.586l2.793-2.793a1 1 0 0 1 1.414 0z"/></svg>