<svg xmlns="http://www.w3.org/2000/svg" width="32" height="32" viewBox="0 0 32 32"><path d="M23 2.25H9A4.755 4.755 0 0 0 4.25 7v18A4.755 4.755 0 0 0 9 29.75h14A4.755 4.755 0 0 0 27.75 25V7A4.755 4.755 0 0 0 23 2.25M26.25 25A3.254 3.254 0 0 1 23 28.25H9A3.254 3.254 0 0 1 5.75 25V7A3.254 3.254 0 0 1 9 3.75h14A3.254 3.254 0 0 1 26.25 7zM8.77 18.242h1.953q2.35 0 2.351 1.895 0 1.864-2.351 1.864h-.928v2H8.77zm1.025 2.991h.944q1.27 0 1.271-1.096 0-.59-.367-.88-.329-.248-.905-.248h-.943zM13.927 18.242h1.984q1.455 0 2.184.8.663.727.664 2.08 0 1.503-.888 2.256-.744.624-1.984.624h-1.96zm1.024 4.983h.984q.92 0 1.376-.591.416-.537.416-1.512 0-1.13-.552-1.672-.456-.449-1.256-.448h-.968zM22.965 20.834v.776h-2.288v2.392h-1.024v-5.76h3.576v.8h-2.552v1.791z"/></svg>