<svg xmlns="http://www.w3.org/2000/svg" width="32" height="32" viewBox="0 0 32 32"><path d="M23 2.5H9A4.505 4.505 0 0 0 4.5 7v18A4.505 4.505 0 0 0 9 29.5h14a4.505 4.505 0 0 0 4.5-4.5V7A4.505 4.505 0 0 0 23 2.5ZM26.5 25a3.504 3.504 0 0 1-3.5 3.5H9A3.504 3.504 0 0 1 5.5 25V7A3.504 3.504 0 0 1 9 3.5h14A3.504 3.504 0 0 1 26.5 7v18Z"/><path d="M8.89 18.239h1.873c.773 0 1.354.181 1.744.544.341.32.512.763.512 1.328 0 .63-.219 1.101-.656 1.416-.39.277-.934.416-1.632.416H9.707v2.056H8.89v-5.76Zm1.889.664H9.707v2.376h1.04c.528 0 .906-.115 1.136-.344.192-.187.288-.461.288-.824 0-.41-.136-.72-.408-.928-.24-.187-.568-.28-.984-.28ZM14.018 18.239h1.871c.945 0 1.662.267 2.152.8.454.49.68 1.184.68 2.08 0 .97-.303 1.715-.912 2.232-.512.432-1.17.648-1.976.648h-1.816v-5.76Zm1.88.648h-1.064v4.44h1.08c.682 0 1.191-.213 1.528-.64.303-.373.456-.896.456-1.568 0-.79-.203-1.373-.608-1.752-.342-.32-.806-.48-1.392-.48ZM23.01 20.887v.68h-2.432v2.432h-.816v-5.76h3.528v.688h-2.712v1.96h2.432Z"/></svg>