<svg xmlns="http://www.w3.org/2000/svg" width="32" height="32" viewBox="0 0 32 32"><path d="M21.483 21.456a3.647 3.647 0 0 1-1.24.794c.17-.502.377-.99.621-1.46.666-1.377 1.354-2.801.474-3.682-.953-.948-2.369.204-4.01 1.543-.587.498-1.203.962-1.844 1.389.417-.695.87-1.368 1.357-2.015 1.498-2.07 3.046-4.21 1.744-5.402a1.434 1.434 0 0 0-1.097-.372c-2.333.104-7.108 5.22-8.043 6.244a.75.75 0 1 0 1.11 1.01c2.975-3.264 6.238-5.973 7.008-5.79.185.498-1.249 2.479-1.937 3.431-1.406 1.941-2.421 3.345-1.51 4.258.987.987 2.458-.205 4.16-1.59a15.688 15.688 0 0 1 1.962-1.447 9.854 9.854 0 0 1-.725 1.77c-.633 1.312-1.18 2.445-.443 3.182a1.435 1.435 0 0 0 1.049.43 3.894 3.894 0 0 0 2.397-1.205.75.75 0 1 0-1.033-1.088Z"/><path d="M23 2.25H9A4.755 4.755 0 0 0 4.25 7v18A4.755 4.755 0 0 0 9 29.75h14A4.755 4.755 0 0 0 27.75 25V7A4.756 4.756 0 0 0 23 2.25ZM26.25 25A3.254 3.254 0 0 1 23 28.25H9A3.254 3.254 0 0 1 5.75 25V7A3.254 3.254 0 0 1 9 3.75h14A3.254 3.254 0 0 1 26.25 7v18Z"/></svg>