<svg xmlns="http://www.w3.org/2000/svg" width="32" height="32" viewBox="0 0 32 32"><path d="M23 2.25H9A4.755 4.755 0 0 0 4.25 7v18A4.755 4.755 0 0 0 9 29.75h14A4.755 4.755 0 0 0 27.75 25V7A4.756 4.756 0 0 0 23 2.25ZM26.25 25A3.254 3.254 0 0 1 23 28.25H9A3.254 3.254 0 0 1 5.75 25V7A3.254 3.254 0 0 1 9 3.75h14A3.254 3.254 0 0 1 26.25 7v18Z"/><path d="M23.137 21.843a2.239 2.239 0 0 0-2.134-1.593H19.75v-1.5h1.351a1.72 1.72 0 0 0 1.226-.503.754.754 0 0 0 .084-.1l1.203-1.707a.75.75 0 1 0-1.227-.863l-1.151 1.634a.248.248 0 0 1-.135.039h-1.35v-.42a2.568 2.568 0 0 0-.818-1.874l.75-1.646a.75.75 0 0 0-1.365-.621l-.73 1.603a2.552 2.552 0 0 0-.418-.043h-2.34a2.565 2.565 0 0 0-.42.043l-.727-1.602a.75.75 0 0 0-1.365.62l.748 1.648a2.568 2.568 0 0 0-.816 1.873v.416H10.9a.23.23 0 0 1-.133-.042l-1.153-1.637a.751.751 0 1 0-1.227.863L9.59 18.14a.733.733 0 0 0 .083.099 1.725 1.725 0 0 0 1.227.509h1.35v1.503h-1.254a2.241 2.241 0 0 0-2.133 1.591l-.581 1.944a.751.751 0 0 0 1.437.43l.581-1.945a.722.722 0 0 1 .696-.52h1.474a3.125 3.125 0 0 0 2.905 1.994h1.25a3.125 3.125 0 0 0 2.905-1.994h1.473a.73.73 0 0 1 .697.521l.582 1.943a.75.75 0 0 0 1.437-.43l-.582-1.94Zm-6.513.4h-1.249a1.627 1.627 0 0 1-1.625-1.624V16.83a1.082 1.082 0 0 1 1.08-1.082h2.34a1.082 1.082 0 0 1 1.08 1.082v3.788a1.628 1.628 0 0 1-1.626 1.625Z"/></svg>