<svg xmlns="http://www.w3.org/2000/svg" width="32" height="32" viewBox="0 0 32 32"><path d="M23 2.5H9A4.505 4.505 0 0 0 4.5 7v18A4.505 4.505 0 0 0 9 29.5h14a4.504 4.504 0 0 0 4.5-4.5V7A4.505 4.505 0 0 0 23 2.5M26.5 25a3.504 3.504 0 0 1-3.5 3.5H9A3.504 3.504 0 0 1 5.5 25V7A3.504 3.504 0 0 1 9 3.5h14A3.504 3.504 0 0 1 26.5 7zM12.904 15.358h2.808q1.74 0 2.616.816.768.72.768 1.992 0 1.416-.984 2.124-.876.624-2.448.624h-1.536v3.084h-1.224zm2.832.996h-1.608v3.564h1.56q1.188 0 1.704-.516.432-.42.432-1.236 0-.924-.612-1.392-.54-.42-1.476-.42"/></svg>