<svg xmlns="http://www.w3.org/2000/svg" width="32" height="32" viewBox="0 0 32 32"><path d="M19.5 8.501a3 3 0 1 0 0 6 3 3 0 0 0 0-6m0 5a2 2 0 1 1 0-4 2 2 0 0 1 0 4M23 2.5H9A4.505 4.505 0 0 0 4.5 7v18A4.505 4.505 0 0 0 9 29.5h14a4.505 4.505 0 0 0 4.5-4.5V7A4.505 4.505 0 0 0 23 2.5m-14 26a3.5 3.5 0 0 1-3.389-2.666l5.397-6.959a3.5 3.5 0 0 1 2.643-1.371 3.55 3.55 0 0 1 2.735 1.153l8.2 9.445A3.45 3.45 0 0 1 23 28.5zM26.5 25a3.48 3.48 0 0 1-1.09 2.526l-8.274-9.53a4.5 4.5 0 0 0-6.92.269L5.5 24.345V7A3.504 3.504 0 0 1 9 3.5h14A3.505 3.505 0 0 1 26.5 7z"/></svg>