<svg xmlns="http://www.w3.org/2000/svg" width="32" height="32" viewBox="0 0 32 32"><path d="M23 2.5H9A4.505 4.505 0 0 0 4.5 7v18A4.505 4.505 0 0 0 9 29.5h14a4.505 4.505 0 0 0 4.5-4.5V7A4.505 4.505 0 0 0 23 2.5M26.5 25a3.505 3.505 0 0 1-3.5 3.5H9A3.504 3.504 0 0 1 5.5 25V7A3.504 3.504 0 0 1 9 3.5h14A3.504 3.504 0 0 1 26.5 7zM20.915 10.812a1.5 1.5 0 0 0-1.305-.26l-5.993 1.68a1.5 1.5 0 0 0-1.117 1.451v6.095a1.98 1.98 0 0 0-2.11.059 2 2 0 1 0 3.11 1.667v-7.821a.5.5 0 0 1 .38-.485l5.992-1.68a.5.5 0 0 1 .628.481v5.778a2 2 0 0 0-1-.277 2 2 0 1 0 2 2c0-.017-.005-.032-.005-.05 0-.008.005-.016.005-.026V12a1.49 1.49 0 0 0-.585-1.188"/></svg>