<svg xmlns="http://www.w3.org/2000/svg" width="32" height="32" viewBox="0 0 32 32"><path d="M22.996 2H8.98a4.96 4.96 0 0 0-3.555 1.481 4.88 4.88 0 0 0-1.424 3.5v17.99A4.97 4.97 0 0 0 8.98 30h14.016A5.01 5.01 0 0 0 28 25V7a5.01 5.01 0 0 0-5.005-5M6.847 4.888A2.98 2.98 0 0 1 8.98 4h14.016A3.006 3.006 0 0 1 26 7v13.847a1.74 1.74 0 0 1-1.018-.962l-1.78-4.415a4.122 4.122 0 0 0-7.566.028l-1.756 4.37a1.75 1.75 0 0 1-1.864 1.131 2.21 2.21 0 0 1-2.066-1.229l-1.125-3.094A4.1 4.1 0 0 0 6 14.146V6.97a2.9 2.9 0 0 1 .847-2.083M22.996 28H8.98A2.97 2.97 0 0 1 6 24.981v-8.709c.441.236.78.626.95 1.096l1.125 3.096a4.1 4.1 0 0 0 3.888 2.535 3.8 3.8 0 0 0 3.762-2.358l1.756-4.369a2.123 2.123 0 0 1 3.879-.027l1.78 4.414A3.82 3.82 0 0 0 26 22.91V25a3.006 3.006 0 0 1-3.004 3"/></svg>