<svg xmlns="http://www.w3.org/2000/svg" width="32" height="32" viewBox="0 0 32 32"><path d="M23 2.25H9A4.755 4.755 0 0 0 4.25 7v18A4.755 4.755 0 0 0 9 29.75h14A4.755 4.755 0 0 0 27.75 25V7A4.755 4.755 0 0 0 23 2.25M26.25 25A3.254 3.254 0 0 1 23 28.25H9A3.254 3.254 0 0 1 5.75 25V7A3.254 3.254 0 0 1 9 3.75h14A3.254 3.254 0 0 1 26.25 7zM21 22.25H11a.75.75 0 1 0 0 1.5h10a.75.75 0 1 0 0-1.5M12 19.75a.75.75 0 0 0 .75-.75v-5a.75.75 0 1 0-1.5 0v5a.75.75 0 0 0 .75.75M16 19.75a.75.75 0 0 0 .75-.75v-2a.75.75 0 1 0-1.5 0v2a.75.75 0 0 0 .75.75M20 19.75a.75.75 0 0 0 .75-.75v-8a.75.75 0 1 0-1.5 0v8a.75.75 0 0 0 .75.75"/></svg>