<svg xmlns="http://www.w3.org/2000/svg" width="32" height="32" viewBox="0 0 32 32"><path d="M23 2.5H9A4.505 4.505 0 0 0 4.5 7v18A4.505 4.505 0 0 0 9 29.5h14a4.504 4.504 0 0 0 4.5-4.5V7A4.505 4.505 0 0 0 23 2.5ZM26.5 25a3.504 3.504 0 0 1-3.5 3.5H9A3.504 3.504 0 0 1 5.5 25V7A3.504 3.504 0 0 1 9 3.5h14A3.504 3.504 0 0 1 26.5 7v18Z"/><path d="m20.675 16.661-7.999-3.999a1.501 1.501 0 0 0-2.175 1.339v7.998a1.495 1.495 0 0 0 2.173 1.34l8.002-4a1.5 1.5 0 0 0 0-2.678Zm-.448 1.784-8.002 4a.485.485 0 0 1-.486-.02.493.493 0 0 1-.239-.426v-7.998a.492.492 0 0 1 .239-.426.496.496 0 0 1 .488-.02l7.999 3.999a.5.5 0 0 1 .001.891Z"/></svg>