<svg xmlns="http://www.w3.org/2000/svg" width="32" height="32" viewBox="0 0 32 32"><path fill-rule="evenodd" d="M9 2.5h14A4.505 4.505 0 0 1 27.5 7v18a4.505 4.505 0 0 1-4.5 4.5H9A4.505 4.505 0 0 1 4.5 25V7A4.505 4.505 0 0 1 9 2.5Zm11.387 7.538c.303.06.588.189.833.378a1.982 1.982 0 0 1 .78 1.583v7.425l-.002.014a.05.05 0 0 0-.003.013l.002.023A2.5 2.5 0 1 1 20 17.05V12l-5.986 1.68L14 21.5v.004a2.5 2.5 0 1 1-2-2.454v-5.367a2 2 0 0 1 1.49-1.934l5.984-1.678c.298-.082.61-.093.913-.033Z" clip-rule="evenodd"/></svg>