<svg xmlns="http://www.w3.org/2000/svg" width="32" height="32" viewBox="0 0 32 32"><path d="M15.376 21.994h1.249A1.377 1.377 0 0 0 18 20.619V16.83a.832.832 0 0 0-.83-.832h-2.34a.831.831 0 0 0-.83.832v3.788a1.377 1.377 0 0 0 1.376 1.375Z"/><path d="M9 2.5h14A4.505 4.505 0 0 1 27.5 7v18a4.505 4.505 0 0 1-4.5 4.5H9A4.505 4.505 0 0 1 4.5 25V7A4.505 4.505 0 0 1 9 2.5Zm13.483 17.994a2.49 2.49 0 0 0-1.48-.494H20v-1h1.101a1.974 1.974 0 0 0 1.401-.575c.041-.04 1.316-1.84 1.316-1.84a1 1 0 1 0-1.635-1.153L21.079 17H20v-.17a2.813 2.813 0 0 0-.768-1.926l.679-1.49a1 1 0 1 0-1.82-.829l-.657 1.441a2.384 2.384 0 0 1-.093-.011c-.056-.008-.112-.016-.17-.016h-2.34c-.06 0-.117.008-.174.016a2.18 2.18 0 0 1-.093.011l-.653-1.44a1 1 0 0 0-1.82.827l.677 1.492A2.814 2.814 0 0 0 12 16.831v.168L10.928 17l-1.11-1.578a1 1 0 0 0-1.635 1.153s1.273 1.799 1.314 1.839a1.974 1.974 0 0 0 1.403.582H12V20h-1.004a2.49 2.49 0 0 0-2.373 1.77l-.58 1.943a1 1 0 1 0 1.915.573l.582-1.945a.475.475 0 0 1 .457-.341h1.306a3.374 3.374 0 0 0 3.072 1.994h1.25A3.376 3.376 0 0 0 19.697 22h1.305a.48.48 0 0 1 .457.343l.582 1.944a1 1 0 1 0 1.916-.575l-.58-1.94a2.49 2.49 0 0 0-.895-1.278Z"/></svg>