<svg xmlns="http://www.w3.org/2000/svg" width="32" height="32" viewBox="0 0 32 32"><path d="M23 2H9a5.006 5.006 0 0 0-5 5v18a5.006 5.006 0 0 0 5 5h14a5.005 5.005 0 0 0 5-5V7a5.005 5.005 0 0 0-5-5m3 23a3.003 3.003 0 0 1-3 3H9a3.003 3.003 0 0 1-3-3V7a3.003 3.003 0 0 1 3-3h14a3.003 3.003 0 0 1 3 3zM21.333 13.644A2.05 2.05 0 0 0 19.327 12h-6.654a2.05 2.05 0 0 0-2.003 1.63l-.63 2.923A2.045 2.045 0 0 0 12.047 19H15v3a1 1 0 0 0 0 2h2a1 1 0 1 0 0-2v-3h2.954a2.045 2.045 0 0 0 2.002-2.462zM19.953 17 12 16.96l.674-2.96 6.702.051.615 2.932a.04.04 0 0 1-.036.017"/></svg>