<svg xmlns="http://www.w3.org/2000/svg" width="32" height="32" viewBox="0 0 32 32"><path d="M23 2.25H9A4.755 4.755 0 0 0 4.25 7v18A4.756 4.756 0 0 0 9 29.75h14A4.755 4.755 0 0 0 27.75 25V7A4.756 4.756 0 0 0 23 2.25M26.25 25A3.254 3.254 0 0 1 23 28.25H9A3.254 3.254 0 0 1 5.75 25V7A3.254 3.254 0 0 1 9 3.75h14A3.254 3.254 0 0 1 26.25 7zM22 20.25h-4a.75.75 0 0 0-.75.75v3a.75.75 0 0 0 .75.75h4a.75.75 0 0 0 .75-.75v-3a.75.75 0 0 0-.75-.75m-.75 3h-2.5v-1.5h2.5zM14 18.25h-4a.75.75 0 0 0-.75.75v5a.75.75 0 0 0 .75.75h4a.75.75 0 0 0 .75-.75v-5a.75.75 0 0 0-.75-.75m-.75 5h-2.5v-3.5h2.5zM22 11.25h-4a.75.75 0 0 0-.75.75v5a.75.75 0 0 0 .75.75h4a.75.75 0 0 0 .75-.75v-5a.75.75 0 0 0-.75-.75m-.75 5h-2.5v-3.5h2.5zM14 11.25h-4a.75.75 0 0 0-.75.75v3a.75.75 0 0 0 .75.75h4a.75.75 0 0 0 .75-.75v-3a.75.75 0 0 0-.75-.75m-.75 3h-2.5v-1.5h2.5z"/></svg>