<svg xmlns="http://www.w3.org/2000/svg" width="32" height="32" viewBox="0 0 32 32"><path d="M23 2H9a5.006 5.006 0 0 0-5 5v18a5.006 5.006 0 0 0 5 5h14a5.005 5.005 0 0 0 5-5V7a5.005 5.005 0 0 0-5-5m3 23a3.003 3.003 0 0 1-3 3H9a3.003 3.003 0 0 1-3-3V7a3.003 3.003 0 0 1 3-3h14a3.003 3.003 0 0 1 3 3zM22.386 12.577l-5.98-2.5a1 1 0 0 0-.77-.001l-6.02 2.5a1 1 0 0 0-.616.923v8a1 1 0 0 0 .615.923l6 2.5a1 1 0 0 0 .77 0l6-2.5A1 1 0 0 0 23 21.5v-8a1 1 0 0 0-.614-.923m-6.367-.495 3.386 1.416L16 14.916l-3.396-1.415zM11 15l4 1.667V22.5l-4-1.668zm6 7.5v-5.833L21 15v5.833z"/></svg>