<svg xmlns="http://www.w3.org/2000/svg" width="32" height="32" viewBox="0 0 32 32"><path d="M16.2 19.22h-.8v3.9h.8c1 0 1.5-.7 1.6-2 0-.7-.2-1.2-.5-1.5s-.7-.4-1.1-.4M10.7 19.22h-.8v2h.8c.7 0 1.1-.4 1.1-1 0-.7-.4-1-1.1-1M23 2.5H9c-2.5 0-4.5 2-4.5 4.5v18c0 2.5 2 4.5 4.5 4.5h14c2.5 0 4.5-2 4.5-4.5V7c0-2.5-2-4.5-4.5-4.5M12.5 21.7c-.4.3-1 .4-1.8.4h-.8V24H8.6v-5.8h2.1c.9 0 1.5.2 2 .6.3.3.5.8.5 1.4 0 .7-.2 1.2-.7 1.5m3.7 2.3H14v-5.8h2.2c1.9 0 2.9 1 2.9 2.9s-1 2.9-2.9 2.9m7.5-4.8h-2.3v1.5h2v1h-2V24H20v-5.8h3.7z"/></svg>