<svg xmlns="http://www.w3.org/2000/svg" width="32" height="32" viewBox="0 0 32 32"><path d="M23 2H9a5.006 5.006 0 0 0-5 5v18a5.006 5.006 0 0 0 5 5h14a5.006 5.006 0 0 0 5-5V7a5.006 5.006 0 0 0-5-5m3 23a3.003 3.003 0 0 1-3 3H9a3.003 3.003 0 0 1-3-3V7a3.003 3.003 0 0 1 3-3h14a3.003 3.003 0 0 1 3 3zM21.22 10.416a2 2 0 0 0-1.746-.345l-5.983 1.678A2 2 0 0 0 12 13.683v5.367A2.5 2.5 0 1 0 14 21.504V21.5l.014-7.82L20 12v5.05a2.5 2.5 0 1 0 2 2.45c0-.017-.005-.032-.005-.05 0-.009.005-.016.005-.026V12a1.98 1.98 0 0 0-.78-1.585"/></svg>