<svg xmlns="http://www.w3.org/2000/svg" width="32" height="32" viewBox="0 0 32 32"><path d="M22.996 2.5H8.98a4.468 4.468 0 0 0-3.2 1.333A4.382 4.382 0 0 0 4.5 6.981v17.995A4.469 4.469 0 0 0 8.98 29.5h14.016A4.507 4.507 0 0 0 27.5 25V7a4.507 4.507 0 0 0-4.505-4.5ZM6.492 4.536A3.476 3.476 0 0 1 8.98 3.5h14.016A3.506 3.506 0 0 1 26.5 7v14.474a2.37 2.37 0 0 1-1.982-1.402l-1.773-4.401a3.623 3.623 0 0 0-6.645.014l-1.762 4.382a2.27 2.27 0 0 1-2.335 1.432 2.69 2.69 0 0 1-2.523-1.558l-1.124-3.09A3.605 3.605 0 0 0 5.5 14.546v-7.57a3.397 3.397 0 0 1 .992-2.44ZM22.996 28.5H8.98a3.47 3.47 0 0 1-3.48-3.519v-9.417a2.546 2.546 0 0 1 1.92 1.633l1.123 3.091a3.643 3.643 0 0 0 3.434 2.211 3.266 3.266 0 0 0 3.284-2.045l1.762-4.383a2.624 2.624 0 0 1 4.8-.013l1.774 4.401a3.389 3.389 0 0 0 2.903 2.017V25a3.507 3.507 0 0 1-3.504 3.5Z"/></svg>