<svg xmlns="http://www.w3.org/2000/svg" width="32" height="32" viewBox="0 0 32 32"><path d="M23 2H9a5.006 5.006 0 0 0-5 5v18a5.006 5.006 0 0 0 5 5h14a5.006 5.006 0 0 0 5-5V7a5.006 5.006 0 0 0-5-5m3 23a3.003 3.003 0 0 1-3 3H9a3.003 3.003 0 0 1-3-3V7a3.003 3.003 0 0 1 3-3h14a3.003 3.003 0 0 1 3 3zM20 15.002V14a4 4 0 1 0-7.998 0v1h-.006a1.98 1.98 0 0 0-1.406.589 2.01 2.01 0 0 0-.59 1.43v4.987a2.007 2.007 0 0 0 2.01 1.996L20.005 24A2.01 2.01 0 0 0 22 21.983v-4.988a2.007 2.007 0 0 0-2-1.993M14.002 14A2 2 0 0 1 18 14V15h-3.998zm5.988 8-7.99.004L11.999 17 20 16.999z"/></svg>