<svg xmlns="http://www.w3.org/2000/svg" width="32" height="32" viewBox="0 0 32 32"><path d="M23 2.5H9A4.505 4.505 0 0 0 4.5 7v18A4.505 4.505 0 0 0 9 29.5h14a4.505 4.505 0 0 0 4.5-4.5V7A4.505 4.505 0 0 0 23 2.5M26.5 25a3.504 3.504 0 0 1-3.5 3.5H9A3.504 3.504 0 0 1 5.5 25V7A3.504 3.504 0 0 1 9 3.5h14A3.504 3.504 0 0 1 26.5 7zM8.89 18.239h1.873q1.16 0 1.744.544.512.48.512 1.328 0 .944-.656 1.416-.585.416-1.632.416H9.707v2.056H8.89zm1.889.664H9.707v2.376h1.04q.792 0 1.136-.344.288-.28.288-.824 0-.616-.408-.928-.36-.28-.984-.28M14.018 18.239h1.871q1.417 0 2.153.8.68.735.68 2.08 0 1.456-.913 2.232-.768.648-1.976.648h-1.815zm1.88.648h-1.064v4.44h1.08q1.023 0 1.528-.64.455-.56.456-1.568 0-1.184-.608-1.752-.513-.48-1.392-.48M23.01 20.887v.68h-2.432v2.432h-.816v-5.76h3.528v.688h-2.712v1.96z"/></svg>