<svg xmlns="http://www.w3.org/2000/svg" width="32" height="32" viewBox="0 0 32 32"><path d="M23 2.25H9A4.755 4.755 0 0 0 4.25 7v18A4.755 4.755 0 0 0 9 29.75h14A4.755 4.755 0 0 0 27.75 25V7A4.755 4.755 0 0 0 23 2.25M26.25 25A3.254 3.254 0 0 1 23 28.25H9A3.254 3.254 0 0 1 5.75 25V7A3.254 3.254 0 0 1 9 3.75h14A3.254 3.254 0 0 1 26.25 7zM21.087 13.693a1.8 1.8 0 0 0-1.76-1.444h-6.654a1.8 1.8 0 0 0-1.758 1.433l-.63 2.92a1.795 1.795 0 0 0 1.761 2.148h3.204v3.5H15a.75.75 0 1 0 0 1.5h2a.75.75 0 1 0 0-1.5h-.25v-3.5h3.204a1.795 1.795 0 0 0 1.758-2.16zm-.904 3.448a.29.29 0 0 1-.23.109h-7.907a.3.3 0 0 1-.23-.109.28.28 0 0 1-.062-.234l.63-2.92a.296.296 0 0 1 .29-.238h6.653a.3.3 0 0 1 .292.25l.625 2.897a.3.3 0 0 1-.06.245"/></svg>