<svg xmlns="http://www.w3.org/2000/svg" width="32" height="32" viewBox="0 0 32 32"><path d="M23 2.25H9A4.755 4.755 0 0 0 4.25 7v18A4.756 4.756 0 0 0 9 29.75h14A4.755 4.755 0 0 0 27.75 25V7A4.755 4.755 0 0 0 23 2.25M26.25 25A3.254 3.254 0 0 1 23 28.25H9A3.254 3.254 0 0 1 5.75 25V7A3.254 3.254 0 0 1 9 3.75h14A3.254 3.254 0 0 1 26.25 7zM16 12.25a.75.75 0 0 0-.75.75v.304a5.747 5.747 0 1 0 6.445 6.446H22a.75.75 0 0 0 .75-.75A6.757 6.757 0 0 0 16 12.25m0 10.999a4.245 4.245 0 0 1-.75-8.424V19a.75.75 0 0 0 .75.75h4.174A4.25 4.25 0 0 1 16 23.249m.75-5v-4.445a5.26 5.26 0 0 1 4.446 4.446z"/></svg>