<svg xmlns="http://www.w3.org/2000/svg" width="32" height="32" viewBox="0 0 32 32"><path d="M23 2.25H9A4.755 4.755 0 0 0 4.25 7v18A4.755 4.755 0 0 0 9 29.75h14A4.755 4.755 0 0 0 27.75 25V7A4.755 4.755 0 0 0 23 2.25ZM26.25 25A3.254 3.254 0 0 1 23 28.25H9A3.254 3.254 0 0 1 5.75 25V7A3.254 3.254 0 0 1 9 3.75h14A3.254 3.254 0 0 1 26.25 7v18Z"/><path d="M8.77 18.241h1.953c1.567 0 2.351.633 2.351 1.896 0 1.243-.784 1.864-2.351 1.864h-.928v2H8.77v-5.76Zm1.025 2.992h.944c.847 0 1.271-.365 1.271-1.096 0-.394-.122-.688-.367-.88-.22-.165-.52-.248-.905-.248h-.943v2.224ZM13.927 18.241h1.984c.97 0 1.698.267 2.184.8.442.486.664 1.18.664 2.08 0 1.003-.296 1.755-.888 2.257-.496.416-1.158.623-1.984.623h-1.96v-5.76Zm1.024 4.985h.984c.613 0 1.072-.198 1.376-.592.277-.358.416-.862.416-1.512 0-.753-.184-1.31-.552-1.672-.304-.3-.723-.448-1.256-.448h-.968v4.224ZM22.965 20.834v.776h-2.288v2.392h-1.024v-5.76h3.576v.8h-2.552v1.791h2.288Z"/></svg>