<svg xmlns="http://www.w3.org/2000/svg" width="32" height="32" viewBox="0 0 32 32"><path d="M23 2H9a5.006 5.006 0 0 0-5 5v18a5.006 5.006 0 0 0 5 5h14a5.006 5.006 0 0 0 5-5V7a5.005 5.005 0 0 0-5-5Zm3 23a3.003 3.003 0 0 1-3 3H9a3.003 3.003 0 0 1-3-3V7a3.003 3.003 0 0 1 3-3h14a3.003 3.003 0 0 1 3 3v18Z"/><path d="M16 12a1.001 1.001 0 0 0-1 1v.09A5.997 5.997 0 1 0 21.91 20H22a.998.998 0 0 0 1-1 7.008 7.008 0 0 0-7-7Zm1 2.1a5.015 5.015 0 0 1 3.9 3.9H17v-3.9ZM16 23a3.992 3.992 0 0 1-1-7.858V19a1 1 0 0 0 1 1h3.858A3.996 3.996 0 0 1 16 22.999Z"/></svg>