<svg xmlns="http://www.w3.org/2000/svg" width="32" height="32" viewBox="0 0 32 32"><path d="M23 2H9a5.006 5.006 0 0 0-5 5v18a5.006 5.006 0 0 0 5 5h14a5.006 5.006 0 0 0 5-5V7a5.006 5.006 0 0 0-5-5m3 23a3.003 3.003 0 0 1-3 3H9a3.003 3.003 0 0 1-3-3V7a3.003 3.003 0 0 1 3-3h14a3.003 3.003 0 0 1 3 3zM22 20h-4a1 1 0 0 0-1 1v3a1 1 0 0 0 1 1h4a.997.997 0 0 0 1-1v-3a1 1 0 0 0-1-1m-1 3h-2v-1h2zM14 18h-4a1 1 0 0 0-1 1v5a1 1 0 0 0 1 1h4a1 1 0 0 0 1-1v-5a1 1 0 0 0-1-1m-1 5h-2v-3h2zM22 11h-4a1 1 0 0 0-1 1v5a1 1 0 0 0 1 1h4a.997.997 0 0 0 1-1v-5a1 1 0 0 0-1-1m-1 5h-2v-3h2zM14 11h-4a1 1 0 0 0-1 1v3a1 1 0 0 0 1 1h4a1 1 0 0 0 1-1v-3a1 1 0 0 0-1-1m-1 3h-2v-1h2z"/></svg>