<svg xmlns="http://www.w3.org/2000/svg" width="32" height="32" viewBox="0 0 32 32"><path d="M22.996 2.25H8.98a4.716 4.716 0 0 0-3.377 1.407A4.634 4.634 0 0 0 4.25 6.981v17.993a4.718 4.718 0 0 0 4.73 4.776h14.016A4.758 4.758 0 0 0 27.75 25V7a4.758 4.758 0 0 0-4.755-4.75ZM6.669 4.712A3.227 3.227 0 0 1 8.98 3.75h14.016A3.256 3.256 0 0 1 26.25 7v14.183a2.022 2.022 0 0 1-1.5-1.204l-1.776-4.409a3.873 3.873 0 0 0-7.106.022l-1.76 4.375a2.025 2.025 0 0 1-2.099 1.282 2.449 2.449 0 0 1-2.294-1.393l-1.125-3.092a3.849 3.849 0 0 0-2.84-2.424V6.973a3.143 3.143 0 0 1 .918-2.261ZM22.996 28.25H8.98a3.22 3.22 0 0 1-3.23-3.269v-9.09a2.279 2.279 0 0 1 1.434 1.391l1.125 3.094a3.889 3.889 0 0 0 3.661 2.373l.132.002a3.504 3.504 0 0 0 3.392-2.204l1.758-4.375a2.374 2.374 0 0 1 4.34-.02l1.776 4.407a3.607 3.607 0 0 0 2.883 2.144V25a3.256 3.256 0 0 1-3.255 3.25Z"/></svg>