<svg xmlns="http://www.w3.org/2000/svg" width="32" height="32" viewBox="0 0 32 32"><path d="M23 2H9C6.2 2 4 4.2 4 7v18c0 2.8 2.2 5 5 5h14c2.8 0 5-2.2 5-5V7c0-2.8-2.2-5-5-5Zm3 23c0 1.7-1.3 3-3 3H9c-1.7 0-3-1.3-3-3V7c0-1.7 1.3-3 3-3h14c1.7 0 3 1.3 3 3v18Z"/><path d="M10.7 18.2H8.6V24h1.3v-1.9h.8c.8 0 1.4-.1 1.8-.4.5-.3.7-.8.7-1.5 0-.6-.2-1.1-.5-1.4-.5-.4-1.1-.6-2-.6Zm0 3h-.8v-2h.8c.7 0 1.1.3 1.1 1 0 .6-.4 1-1.1 1ZM16.2 18.2H14V24h2.2c1.9 0 2.9-1 2.9-2.9s-1-2.9-2.9-2.9Zm0 4.9h-.8v-3.9h.8c.4 0 .8.1 1.1.4.3.3.5.8.5 1.5-.1 1.3-.6 2-1.6 2ZM20 24h1.4v-2.3h2v-1h-2v-1.5h2.3v-1H20V24Z"/></svg>