<svg xmlns="http://www.w3.org/2000/svg" width="32" height="32" viewBox="0 0 32 32"><path d="M25 7h-8.077a1.037 1.037 0 0 1-.76-.388l-.716-.843a4.993 4.993 0 0 0-3.815-1.77H7a5.006 5.006 0 0 0-5 5v14a5.006 5.006 0 0 0 5 5h18a5.007 5.007 0 0 0 5-5V11.962A4.987 4.987 0 0 0 25 7ZM7 6h4.632a2.993 2.993 0 0 1 2.29 1.063l.718.846a3.017 3.017 0 0 0 2.283 1.09H25a2.985 2.985 0 0 1 3 2.962v1.05l-24-.019V9a3.003 3.003 0 0 1 3-3Zm18 20H7a3.003 3.003 0 0 1-3-3v-8.008l24 .018V23a3.003 3.003 0 0 1-3 3Z"/></svg>