<svg xmlns="http://www.w3.org/2000/svg" width="32" height="32" viewBox="0 0 32 32"><path d="M23 2.5H9A4.505 4.505 0 0 0 4.5 7v18A4.505 4.505 0 0 0 9 29.5h14a4.505 4.505 0 0 0 4.5-4.5V7A4.505 4.505 0 0 0 23 2.5ZM26.5 25a3.505 3.505 0 0 1-3.5 3.5H9A3.504 3.504 0 0 1 5.5 25V7A3.504 3.504 0 0 1 9 3.5h14A3.504 3.504 0 0 1 26.5 7v18Z"/><path d="M21 22.5h-2.262l1.711-4.282a1.5 1.5 0 0 0-.194-1.207l-.014-.02-3.837-5.285a.502.502 0 0 0-.809 0L11.748 17a1.52 1.52 0 0 0-.176 1.276l1.69 4.224H11a.5.5 0 1 0 0 1h10a.5.5 0 0 0 0-1Zm-3.34 0h-3.322l-1.82-4.543a.49.49 0 0 1 .052-.387l2.93-4.032V17.2a.741.741 0 0 0-.03 1.081.75.75 0 0 0 1.214-.832.741.741 0 0 0-.184-.249v-3.66l2.924 4.028c.064.1.091.219.078.337L17.66 22.5Z"/></svg>