<svg xmlns="http://www.w3.org/2000/svg" width="32" height="32" viewBox="0 0 32 32"><path d="M25 7.5h-8.077a1.54 1.54 0 0 1-1.141-.564l-.716-.844A4.5 4.5 0 0 0 11.632 4.5H7A4.505 4.505 0 0 0 2.5 9v14A4.505 4.505 0 0 0 7 27.5h18a4.505 4.505 0 0 0 4.5-4.5V11.962A4.486 4.486 0 0 0 25 7.5m-18-2h4.632a3.5 3.5 0 0 1 2.672 1.239l.717.845a2.52 2.52 0 0 0 1.902.915H25a3.485 3.485 0 0 1 3.5 3.462v1.55l-25-.019V9A3.504 3.504 0 0 1 7 5.5m18 21H7A3.504 3.504 0 0 1 3.5 23v-8.508l25 .019V23a3.504 3.504 0 0 1-3.5 3.5"/></svg>