<svg xmlns="http://www.w3.org/2000/svg" width="32" height="32" viewBox="0 0 32 32"><path d="M21.656 21.637c-.522.496-1.447 1.052-1.68.831.112-.63.337-1.236.663-1.787.627-1.298 1.277-2.64.522-3.396-.792-.788-2.127.297-3.676 1.56-.737.68-1.56 1.261-2.448 1.727h-.005c-.07-.378.94-1.772 1.606-2.694 1.434-1.98 2.915-4.028 1.778-5.07a1.2 1.2 0 0 0-.917-.307c-2.281.102-7.304 5.542-7.868 6.162a.5.5 0 0 0 .738.673c2.027-2.223 5.768-5.773 7.175-5.836.14-.002.182.032.196.043.481.442-1.075 2.593-1.912 3.75-1.332 1.841-2.296 3.172-1.534 3.934.83.83 2.217-.299 3.823-1.606a9.7 9.7 0 0 1 2.337-1.63c.252.254-.402 1.605-.715 2.256-.593 1.225-1.105 2.284-.492 2.895a1.2 1.2 0 0 0 .875.36 4 4 0 0 0 2.221-1.14.5.5 0 0 0-.14-.82.5.5 0 0 0-.547.095M23 2.5H9A4.505 4.505 0 0 0 4.5 7v18A4.505 4.505 0 0 0 9 29.5h14a4.505 4.505 0 0 0 4.5-4.5V7A4.505 4.505 0 0 0 23 2.5M26.5 25a3.505 3.505 0 0 1-3.5 3.5H9A3.504 3.504 0 0 1 5.5 25V7A3.504 3.504 0 0 1 9 3.5h14A3.504 3.504 0 0 1 26.5 7z"/></svg>