<svg xmlns="http://www.w3.org/2000/svg" width="32" height="32" viewBox="0 0 32 32"><path d="M23 2.5H9A4.505 4.505 0 0 0 4.5 7v18A4.505 4.505 0 0 0 9 29.5h14a4.504 4.504 0 0 0 4.5-4.5V7A4.505 4.505 0 0 0 23 2.5M26.5 25a3.504 3.504 0 0 1-3.5 3.5H9A3.504 3.504 0 0 1 5.5 25V7A3.504 3.504 0 0 1 9 3.5h14A3.504 3.504 0 0 1 26.5 7zM16 23.5a.75.75 0 1 0 0-1.5.75.75 0 0 0 0 1.5M16 10.5a3.516 3.516 0 0 0-3.5 3.524.5.5 0 0 0 1 0 2.5 2.5 0 1 1 2.5 2.478.5.5 0 0 0-.5.5V19a.5.5 0 0 0 1 0v-1.533A3.5 3.5 0 0 0 16 10.5"/></svg>