<svg xmlns="http://www.w3.org/2000/svg" width="32" height="32" viewBox="0 0 32 32"><path d="M23 2.25H9A4.755 4.755 0 0 0 4.25 7v18A4.755 4.755 0 0 0 9 29.75h14A4.755 4.755 0 0 0 27.75 25V7A4.756 4.756 0 0 0 23 2.25M26.25 25A3.254 3.254 0 0 1 23 28.25H9A3.254 3.254 0 0 1 5.75 25V7A3.254 3.254 0 0 1 9 3.75h14A3.254 3.254 0 0 1 26.25 7zM21 22.25h-1.893l1.583-3.967a1.75 1.75 0 0 0-.225-1.41l-.022-.029-3.837-5.285a.748.748 0 0 0-1.213 0l-3.853 5.305a1.78 1.78 0 0 0-.2 1.505l1.552 3.88H11a.75.75 0 1 0 0 1.5h10a.75.75 0 0 0 0-1.5m-6.493 0-1.748-4.358a.25.25 0 0 1 .013-.176l2.478-3.408v2.799a.98.98 0 0 0-.25.643 1 1 0 0 0 2 0 .99.99 0 0 0-.25-.644V14.31l2.465 3.397c.034.056.046.117.054.105l-1.777 4.439z"/></svg>