<svg xmlns="http://www.w3.org/2000/svg" width="32" height="32" viewBox="0 0 32 32"><path d="M23 2.25H9A4.755 4.755 0 0 0 4.25 7v18A4.755 4.755 0 0 0 9 29.75h14A4.755 4.755 0 0 0 27.75 25V7A4.755 4.755 0 0 0 23 2.25M26.25 25A3.253 3.253 0 0 1 23 28.25H9A3.254 3.254 0 0 1 5.75 25V7A3.254 3.254 0 0 1 9 3.75h14A3.254 3.254 0 0 1 26.25 7zM12.53 16.47a.75.75 0 0 0-1.06 0l-3 3a.75.75 0 0 0 0 1.06l3 3a.75.75 0 0 0 1.06-1.06L10.06 20l2.47-2.47a.75.75 0 0 0 0-1.06M20.53 16.47a.75.75 0 0 0-1.06 1.06L21.94 20l-2.47 2.47a.748.748 0 0 0 .242 1.224.75.75 0 0 0 .818-.164l3-3a.75.75 0 0 0 0-1.06zM17.237 16.288a.75.75 0 0 0-.949.474l-2 6a.751.751 0 0 0 1.424.475l2-6a.75.75 0 0 0-.475-.95"/></svg>