<svg xmlns="http://www.w3.org/2000/svg" width="32" height="32" viewBox="0 0 32 32"><path d="M23 2.25H9A4.755 4.755 0 0 0 4.25 7v18A4.756 4.756 0 0 0 9 29.75h14A4.755 4.755 0 0 0 27.75 25V7A4.755 4.755 0 0 0 23 2.25M26.25 25A3.254 3.254 0 0 1 23 28.25H9A3.254 3.254 0 0 1 5.75 25V7A3.254 3.254 0 0 1 9 3.75h14A3.254 3.254 0 0 1 26.25 7zM19.99 15.251h-.24V14a3.749 3.749 0 1 0-7.499.001v1.25l-.254-.001a1.76 1.76 0 0 0-1.747 1.77v4.984a1.73 1.73 0 0 0 .524 1.241c.33.325.773.506 1.236.506l7.992-.001a1.73 1.73 0 0 0 1.243-.528 1.76 1.76 0 0 0 .505-1.239v-4.985a1.73 1.73 0 0 0-.524-1.24 1.75 1.75 0 0 0-1.236-.507m-6.24-1.25a2.25 2.25 0 1 1 4.5-.001v1.25h-4.498zm6.5 7.983a.27.27 0 0 1-.156.246.2.2 0 0 1-.093.02l-7.99.001a.27.27 0 0 1-.241-.155.2.2 0 0 1-.02-.093v-4.984a.267.267 0 0 1 .248-.269l7.99.001a.27.27 0 0 1 .242.155q.02.045.02.093z"/></svg>