<svg xmlns="http://www.w3.org/2000/svg" width="32" height="32" viewBox="0 0 32 32"><path fill-rule="evenodd" d="M9 2.5h14A4.505 4.505 0 0 1 27.5 7v18a4.505 4.505 0 0 1-4.5 4.5H9A4.505 4.505 0 0 1 4.5 25V7A4.505 4.505 0 0 1 9 2.5Zm11.693 19.25a4.16 4.16 0 0 0 .618-.476 1 1 0 1 1 1.377 1.451A4.141 4.141 0 0 1 20.112 24a1.665 1.665 0 0 1-1.219-.504c-.863-.864-.252-2.128.396-3.467.137-.285.338-.7.491-1.074-.445.319-.97.746-1.348 1.053-1.72 1.4-3.345 2.721-4.492 1.573-1.062-1.064.06-2.617 1.484-4.581a16.337 16.337 0 0 0 1.844-2.94c-1.15.41-4.003 2.842-6.529 5.613a1.002 1.002 0 0 1-1.745-.625 1 1 0 0 1 .267-.722c1.328-1.457 5.845-6.219 8.216-6.325a1.722 1.722 0 0 1 1.277.437c1.465 1.344-.149 3.575-1.71 5.734l-.018.024c-.193.266-.416.575-.63.883.279-.22.551-.44.774-.621 1.736-1.415 3.237-2.635 4.344-1.527 1.006 1.007.247 2.58-.424 3.968a20.92 20.92 0 0 0-.397.85Z" clip-rule="evenodd"/></svg>