<svg xmlns="http://www.w3.org/2000/svg" width="32" height="32" viewBox="0 0 32 32"><path d="M23 2.25H9A4.755 4.755 0 0 0 4.25 7v18A4.755 4.755 0 0 0 9 29.75h14A4.755 4.755 0 0 0 27.75 25V7A4.755 4.755 0 0 0 23 2.25M26.25 25A3.254 3.254 0 0 1 23 28.25H9A3.254 3.254 0 0 1 5.75 25V7A3.254 3.254 0 0 1 9 3.75h14A3.254 3.254 0 0 1 26.25 7zM21.068 10.614a1.74 1.74 0 0 0-1.526-.302l-5.988 1.679a1.75 1.75 0 0 0-1.304 1.692v5.705a2.245 2.245 0 1 0 1.5 2.116v-7.821a.255.255 0 0 1 .197-.245l5.99-1.68a.25.25 0 0 1 .313.242v5.388a2.245 2.245 0 1 0 1.5 2.112c0-.017-.005-.033-.005-.05 0-.009.005-.016.005-.026V12a1.74 1.74 0 0 0-.682-1.386"/></svg>