<svg xmlns="http://www.w3.org/2000/svg" width="32" height="32" viewBox="0 0 32 32"><path d="M23 2H9a5.006 5.006 0 0 0-5 5v18a5.006 5.006 0 0 0 5 5h14a5.005 5.005 0 0 0 5-5V7a5.005 5.005 0 0 0-5-5m3 23a3.003 3.003 0 0 1-3 3H9a3.003 3.003 0 0 1-3-3V7a3.003 3.003 0 0 1 3-3h14a3.003 3.003 0 0 1 3 3zM22 14h-6a1 1 0 1 0 0 2h6a1 1 0 0 0 0-2M12 14h-2a1 1 0 1 0 0 2h2a1 1 0 0 0 0-2M12 18h-2a1 1 0 1 0 0 2h2a1 1 0 0 0 0-2M12 22h-2a1 1 0 1 0 0 2h2a1 1 0 0 0 0-2M22 18h-6a1 1 0 1 0 0 2h6a1 1 0 0 0 0-2M22 22h-6a1 1 0 1 0 0 2h6a1 1 0 0 0 0-2"/></svg>