<svg xmlns="http://www.w3.org/2000/svg" width="32" height="32" viewBox="0 0 32 32"><path d="M19.5 8.251a3.25 3.25 0 1 0 0 6.5 3.25 3.25 0 0 0 0-6.5m0 5a1.75 1.75 0 1 1 0-3.5 1.75 1.75 0 0 1 0 3.5M23 2.25H9A4.755 4.755 0 0 0 4.25 7v18A4.756 4.756 0 0 0 9 29.75h14A4.755 4.755 0 0 0 27.75 25V7A4.755 4.755 0 0 0 23 2.25m-14 26a3.244 3.244 0 0 1-3.112-2.365l5.319-6.858a3.24 3.24 0 0 1 3.84-1.018c.437.184.83.46 1.15.811l7.986 9.2c-.376.15-.778.228-1.183.23zM26.25 25a3.22 3.22 0 0 1-.834 2.152l-8.094-9.324a4.75 4.75 0 0 0-7.304.283L5.75 23.615V7A3.254 3.254 0 0 1 9 3.75h14A3.254 3.254 0 0 1 26.25 7z"/></svg>