<svg xmlns="http://www.w3.org/2000/svg" width="32" height="32" viewBox="0 0 32 32"><path d="M23 2H9a5.006 5.006 0 0 0-5 5v18a5.006 5.006 0 0 0 5 5h14a5.005 5.005 0 0 0 5-5V7a5.006 5.006 0 0 0-5-5Zm3 23a3.004 3.004 0 0 1-3 3H9a3.003 3.003 0 0 1-3-3V7a3.003 3.003 0 0 1 3-3h14a3.003 3.003 0 0 1 3 3v18Z"/><path d="M23.377 21.772A2.49 2.49 0 0 0 21.003 20H20v-1h1.101a1.972 1.972 0 0 0 1.401-.575c.041-.04 1.316-1.84 1.316-1.84a1 1 0 0 0-1.635-1.153L21.078 17H20v-.17a2.814 2.814 0 0 0-.768-1.926l.678-1.49a1 1 0 1 0-1.82-.829l-.656 1.441c-.088-.008-.173-.027-.264-.027h-2.34c-.09 0-.177.019-.266.027l-.653-1.44a1 1 0 0 0-1.82.827l.677 1.492A2.813 2.813 0 0 0 12 16.831v.168L10.928 17l-1.11-1.578a1 1 0 0 0-1.635 1.153s1.272 1.799 1.313 1.839a1.973 1.973 0 0 0 1.404.582H12V20h-1.004a2.492 2.492 0 0 0-2.373 1.77l-.58 1.943a1 1 0 1 0 1.915.573l.581-1.945a.476.476 0 0 1 .457-.341h1.307a3.375 3.375 0 0 0 3.072 1.994h1.25A3.376 3.376 0 0 0 19.696 22h1.306a.48.48 0 0 1 .457.343l.582 1.944a1 1 0 0 0 1.916-.575l-.58-1.94Zm-6.753.222h-1.249A1.378 1.378 0 0 1 14 20.619V16.83a.832.832 0 0 1 .83-.832h2.34a.832.832 0 0 1 .83.832v3.788a1.377 1.377 0 0 1-1.376 1.375Z"/></svg>