<svg xmlns="http://www.w3.org/2000/svg" width="32" height="32" viewBox="0 0 32 32"><path d="M23 2.25H9A4.755 4.755 0 0 0 4.25 7v18A4.756 4.756 0 0 0 9 29.75h14A4.755 4.755 0 0 0 27.75 25V7A4.755 4.755 0 0 0 23 2.25M26.25 25A3.254 3.254 0 0 1 23 28.25H9A3.254 3.254 0 0 1 5.75 25V7A3.254 3.254 0 0 1 9 3.75h14A3.254 3.254 0 0 1 26.25 7zM20.789 16.438l-8-4a1.75 1.75 0 0 0-2.538 1.563v7.998a1.745 1.745 0 0 0 2.535 1.564l8.003-4.001a1.75 1.75 0 0 0 0-3.125m-.673 1.784-8.003 4a.25.25 0 0 1-.362-.223v-7.998a.24.24 0 0 1 .119-.213.25.25 0 0 1 .13-.038q.061 0 .116.03l7.999 3.998a.25.25 0 0 1 .099.351.25.25 0 0 1-.098.093"/></svg>