<svg xmlns="http://www.w3.org/2000/svg" width="32" height="32" viewBox="0 0 32 32"><path d="M23 2H9a5.006 5.006 0 0 0-5 5v18a5.006 5.006 0 0 0 5 5h14a5.005 5.005 0 0 0 5-5V7a5.006 5.006 0 0 0-5-5m3 23a3.003 3.003 0 0 1-3 3H9a3.003 3.003 0 0 1-3-3V7a3.003 3.003 0 0 1 3-3h14a3.003 3.003 0 0 1 3 3zM12.707 16.293a1 1 0 0 0-1.414 0l-3 3a1 1 0 0 0 0 1.414l3 3a1 1 0 0 0 1.414-1.415L10.414 20l2.293-2.293a1 1 0 0 0 0-1.413M20.707 16.293a1 1 0 1 0-1.414 1.414L21.586 20l-2.293 2.293a1 1 0 0 0 1.414 1.414l3-3a.997.997 0 0 0 0-1.414zM17.316 16.051a.997.997 0 0 0-1.264.632l-2 6a1 1 0 1 0 1.896.633l2-6a1 1 0 0 0-.632-1.265"/></svg>