<svg xmlns="http://www.w3.org/2000/svg" width="32" height="32" viewBox="0 0 32 32"><path d="M9 2.5h14A4.505 4.505 0 0 1 27.5 7v18a4.505 4.505 0 0 1-4.5 4.5H9A4.505 4.505 0 0 1 4.5 25V7A4.505 4.505 0 0 1 9 2.5Zm11.387 7.538a1.996 1.996 0 0 0-.913.033l-5.983 1.678A2 2 0 0 0 12 13.683v5.367a2.5 2.5 0 1 0 1.998 2.454L14 21.5l.014-7.82L20 12v5.05a2.5 2.5 0 1 0 2 2.45.166.166 0 0 0-.003-.026l-.002-.023a.05.05 0 0 1 .003-.013l.002-.014V12a1.983 1.983 0 0 0-.78-1.583 1.995 1.995 0 0 0-.832-.378Z"/></svg>