<svg xmlns="http://www.w3.org/2000/svg" width="32" height="32" viewBox="0 0 32 32"><path d="M23 2.5H9A4.505 4.505 0 0 0 4.5 7v18A4.505 4.505 0 0 0 9 29.5h14a4.505 4.505 0 0 0 4.5-4.5V7A4.505 4.505 0 0 0 23 2.5M26.5 25a3.505 3.505 0 0 1-3.5 3.5H9A3.504 3.504 0 0 1 5.5 25V7A3.504 3.504 0 0 1 9 3.5h14A3.504 3.504 0 0 1 26.5 7zM22.898 21.915a1.99 1.99 0 0 0-1.895-1.415H19.5v-2h1.601a1.5 1.5 0 0 0 1.105-.495l1.204-1.709a.5.5 0 0 0-.819-.576l-1.146 1.642a.48.48 0 0 1-.344.138h-1.6v-.67a2.32 2.32 0 0 0-.874-1.804l.828-1.82a.5.5 0 0 0-.91-.413l-.812 1.783a2.3 2.3 0 0 0-.563-.076h-2.34q-.286.003-.565.077l-.81-1.784a.498.498 0 0 0-.824-.14.5.5 0 0 0-.086.554l.827 1.82a2.32 2.32 0 0 0-.872 1.804v.666h-1.6a.6.6 0 0 1-.287-.078L9.41 15.712a.5.5 0 0 0-.819.577L9.85 18.06a1.48 1.48 0 0 0 1.05.436h1.6V20.5h-1.504a1.99 1.99 0 0 0-1.894 1.413l-.581 1.943a.5.5 0 0 0 .959.287l.58-1.944a.97.97 0 0 1 .936-.7h1.657a2.87 2.87 0 0 0 2.722 1.995h1.25a2.87 2.87 0 0 0 2.723-1.994h1.655a.98.98 0 0 1 .937.7l.582 1.943a.5.5 0 1 0 .957-.287zm-6.274.579h-1.249a1.877 1.877 0 0 1-1.875-1.875V16.83a1.33 1.33 0 0 1 1.33-1.332h2.34a1.33 1.33 0 0 1 1.33 1.332v3.788a1.88 1.88 0 0 1-1.876 1.875"/></svg>