<svg xmlns="http://www.w3.org/2000/svg" width="32" height="32" viewBox="0 0 32 32"><path d="M22.996 2.25H8.98a4.72 4.72 0 0 0-3.377 1.407A4.63 4.63 0 0 0 4.25 6.981v17.993a4.72 4.72 0 0 0 4.73 4.776h14.016A4.76 4.76 0 0 0 27.75 25V7a4.76 4.76 0 0 0-4.755-4.75M6.669 4.712A3.23 3.23 0 0 1 8.98 3.75h14.016A3.256 3.256 0 0 1 26.25 7v14.183a2.02 2.02 0 0 1-1.5-1.204l-1.776-4.409a3.873 3.873 0 0 0-7.106.022l-1.76 4.375a2.025 2.025 0 0 1-2.099 1.282 2.45 2.45 0 0 1-2.294-1.393l-1.125-3.092a3.85 3.85 0 0 0-2.84-2.424V6.973a3.14 3.14 0 0 1 .918-2.261M22.996 28.25H8.98a3.22 3.22 0 0 1-3.23-3.269v-9.09a2.28 2.28 0 0 1 1.434 1.391l1.125 3.094a3.89 3.89 0 0 0 3.661 2.373l.132.002a3.5 3.5 0 0 0 3.392-2.204l1.758-4.375a2.374 2.374 0 0 1 4.34-.02l1.776 4.407a3.61 3.61 0 0 0 2.883 2.144V25a3.256 3.256 0 0 1-3.255 3.25"/></svg>