<svg xmlns="http://www.w3.org/2000/svg" width="32" height="32" viewBox="0 0 32 32"><path d="M5 14.084a4.06 4.06 0 0 1 3.825 2.675l1.123 3.077A2.13 2.13 0 0 0 12 21.084a1.82 1.82 0 0 0 1.882-1.143l1.746-4.336a4.123 4.123 0 0 1 7.576-.052l1.767 4.388A2.05 2.05 0 0 0 27 21.084h.5v-14a4.507 4.507 0 0 0-4.506-4.5H8.98a4.47 4.47 0 0 0-3.2 1.334A4.38 4.38 0 0 0 4.5 7.065v7.019zM27 23.084a3.98 3.98 0 0 1-3.861-2.341l-1.788-4.439a2.125 2.125 0 0 0-3.87.052l-1.767 4.387A3.82 3.82 0 0 1 12 23.083a4.08 4.08 0 0 1-3.925-2.545l-1.129-3.094A2.08 2.08 0 0 0 5 16.084h-.5v8.975a4.47 4.47 0 0 0 4.48 4.525h14.015a4.507 4.507 0 0 0 4.505-4.5v-2z"/></svg>