<svg xmlns="http://www.w3.org/2000/svg" width="32" height="32" viewBox="0 0 32 32"><path d="M23 2H9a5.006 5.006 0 0 0-5 5v18a5.006 5.006 0 0 0 5 5h14a5.005 5.005 0 0 0 5-5V7a5.005 5.005 0 0 0-5-5Zm3 23a3.003 3.003 0 0 1-3 3H9a3.003 3.003 0 0 1-3-3V7a3.003 3.003 0 0 1 3-3h14a3.003 3.003 0 0 1 3 3v18Z"/><path d="M21.332 13.644A2.05 2.05 0 0 0 19.328 12h-6.654a2.047 2.047 0 0 0-2.003 1.63l-.63 2.923A2.045 2.045 0 0 0 12.046 19H15v3a1 1 0 0 0 0 2h2a1 1 0 1 0 0-2v-3h2.954a2.045 2.045 0 0 0 2.002-2.462l-.623-2.894ZM19.954 17l-7.956-.04.675-2.96 6.702.051.615 2.932a.043.043 0 0 1-.036.017Z"/></svg>