<svg xmlns="http://www.w3.org/2000/svg" width="32" height="32" viewBox="0 0 32 32"><path d="M13.304 7.687 9.97 4.354l.707-.708 14.365 14.365-9.263 9.263a2.5 2.5 0 0 1-3.536 0l-7.495-7.495a2.5 2.5 0 0 1 0-3.536l8.556-8.556Zm.707.707L5.455 16.95c-.16.161-.278.35-.35.55h18.012L14.01 8.394ZM5.455 19.071l7.495 7.496a1.5 1.5 0 0 0 2.122 0l8.066-8.067H5.098c.071.209.19.405.357.571Zm20.399 1.575-.354-.353-.353.353-.053.053c-.278.277-.883.879-1.432 1.616-.572.767-1.162 1.78-1.162 2.782 0 1.987 1.438 3.403 3 3.403 1.547 0 3-1.265 3-3.403 0-1.049-.587-2.06-1.164-2.822-.512-.676-1.076-1.23-1.37-1.518l-.112-.11Zm-2.354 4.45c0-.655.41-1.441.963-2.183.36-.483.748-.904 1.04-1.206.294.295.678.7 1.036 1.172.548.723.961 1.51.961 2.218 0 1.628-1.047 2.403-2 2.403-.937 0-2-.893-2-2.403Z"/></svg>