<svg xmlns="http://www.w3.org/2000/svg" width="32" height="32" viewBox="0 0 32 32"><path d="M10.324 4a1 1 0 0 0 0 1.414l2.273 2.273-8.203 8.202a3 3 0 0 0 0 4.243l7.496 7.495a3 3 0 0 0 4.242 0l8.91-8.91a1 1 0 0 0 0-1.413L11.738 4a1 1 0 0 0-1.414 0M21.91 17H6.112l7.899-7.899zM24.793 20.293a1 1 0 0 1 1.414 0l.105.103.001.001c.292.287.885.868 1.422 1.577.591.78 1.265 1.903 1.265 3.123C29 27.489 27.345 29 25.5 29c-1.875 0-3.5-1.678-3.5-3.903 0-1.176.68-2.302 1.261-3.08.572-.768 1.2-1.394 1.479-1.671z"/></svg>