<svg xmlns="http://www.w3.org/2000/svg" width="32" height="32" viewBox="0 0 32 32"><path d="M12.95 7.687 9.794 4.53l1.06-1.06 14.541 14.54-9.44 9.44a2.75 2.75 0 0 1-3.889 0l-7.495-7.495a2.75 2.75 0 0 1 0-3.889l8.38-8.379Zm1.06 1.06-8.378 8.38c-.04.04-.075.08-.108.123h16.99L14.01 8.748ZM5.633 18.896l7.495 7.495a1.25 1.25 0 0 0 1.768 0l7.64-7.64H5.507c.038.05.079.099.125.145ZM26.03 20.47l-.53-.53-.53.53-.053.052a15 15 0 0 0-1.456 1.644c-.576.773-1.21 1.842-1.21 2.93 0 2.107 1.53 3.654 3.25 3.654 1.695 0 3.25-1.388 3.25-3.653 0-1.135-.631-2.201-1.216-2.973a14.218 14.218 0 0 0-1.395-1.547l-.11-.107Zm-2.28 4.627c0-.57.365-1.299.914-2.035.283-.38.584-.721.842-.996.256.266.553.594.834.965.54.713.91 1.444.91 2.066 0 1.501-.945 2.153-1.75 2.153-.781 0-1.75-.762-1.75-2.153Z"/></svg>