<svg xmlns="http://www.w3.org/2000/svg" width="32" height="32" viewBox="0 0 32 32"><path d="m12.95 7.687-2.626-2.626A.75.75 0 0 1 11.384 4l13.304 13.304a1 1 0 0 1 0 1.414l-8.732 8.733a2.75 2.75 0 0 1-3.89 0l-7.495-7.496a2.75 2.75 0 0 1 0-3.889zm1.06 1.06-8.378 8.38q-.06.06-.108.123h16.99zM5.633 18.896l7.495 7.495a1.25 1.25 0 0 0 1.768 0l7.64-7.64H5.507q.056.076.125.145M26.03 20.47a.75.75 0 0 0-1.061 0l-.053.052a15 15 0 0 0-1.456 1.644c-.576.773-1.21 1.842-1.21 2.93 0 2.107 1.53 3.654 3.25 3.654 1.695 0 3.25-1.388 3.25-3.653 0-1.135-.631-2.201-1.216-2.972a14 14 0 0 0-1.395-1.548zm-2.28 4.627c0-.57.364-1.299.913-2.035.283-.38.584-.721.842-.996.256.266.553.594.834.965.54.713.91 1.444.91 2.066 0 1.501-.945 2.153-1.75 2.153-.781 0-1.75-.762-1.75-2.153"/></svg>