<svg xmlns="http://www.w3.org/2000/svg" width="32" height="32" viewBox="0 0 32 32"><path d="m12.597 7.687-2.98-2.98 1.414-1.414L25.749 18.01l-9.617 9.616a3 3 0 0 1-4.242 0l-7.496-7.495a3 3 0 0 1 0-4.243l8.203-8.202ZM6.112 17H21.91l-7.9-7.899L6.113 17Zm15.82 2H6.09l7.213 7.213a1 1 0 0 0 1.414 0L21.931 19ZM25.5 19.586l.707.707.105.103.001.001c.292.287.885.868 1.422 1.577.591.78 1.265 1.903 1.265 3.123C29 27.489 27.345 29 25.5 29c-1.875 0-3.5-1.678-3.5-3.903 0-1.176.68-2.302 1.261-3.08.572-.768 1.2-1.394 1.479-1.671l.053-.053.707-.707Zm-.636 3.626c-.544.73-.864 1.402-.864 1.885 0 1.272.875 1.903 1.5 1.903.656 0 1.5-.53 1.5-1.903 0-.536-.326-1.212-.86-1.916a9.963 9.963 0 0 0-.632-.748c-.207.229-.43.493-.644.779Z"/></svg>