<svg xmlns="http://www.w3.org/2000/svg" width="32" height="32" viewBox="0 0 32 32"><path d="m12.597 7.687-2.273-2.273A1 1 0 1 1 11.738 4l13.304 13.304a1 1 0 0 1 0 1.414l-8.91 8.91a3 3 0 0 1-4.242 0l-7.496-7.496a3 3 0 0 1 0-4.243zM6.112 17H21.91l-7.9-7.899zm15.82 2H6.09l7.213 7.213a1 1 0 0 0 1.414 0zM24.793 20.293a1 1 0 0 1 1.414 0l.105.103.001.001c.292.287.885.868 1.422 1.577.591.78 1.265 1.903 1.265 3.123C29 27.489 27.345 29 25.5 29c-1.875 0-3.5-1.678-3.5-3.903 0-1.176.68-2.302 1.261-3.08.572-.768 1.2-1.394 1.479-1.671zm.071 2.919c-.544.73-.864 1.402-.864 1.885 0 1.272.875 1.903 1.5 1.903.656 0 1.5-.53 1.5-1.903 0-.536-.326-1.212-.86-1.916a10 10 0 0 0-.632-.748c-.207.229-.43.493-.644.779"/></svg>