<svg xmlns="http://www.w3.org/2000/svg" width="32" height="32" viewBox="0 0 32 32"><path d="M10.998 20.5H5a.5.5 0 0 0 0 1h4.793l-5.146 5.146a.5.5 0 1 0 .707.707l5.144-5.144.002 4.79a.5.5 0 0 0 1 0l-.002-6a.5.5 0 0 0-.5-.5ZM11 4.5a.5.5 0 0 0-.5.5l-.002 4.79-5.144-5.144a.5.5 0 0 0-.707.707l5.146 5.146H5a.5.5 0 0 0 0 1h5.998a.5.5 0 0 0 .5-.5l.002-6a.5.5 0 0 0-.5-.5ZM27.5 21a.496.496 0 0 0-.5-.5h-5.998a.501.501 0 0 0-.5.5l-.002 6a.5.5 0 0 0 1 0l.002-4.79 5.145 5.143a.5.5 0 1 0 .707-.707L22.206 21.5H27a.5.5 0 0 0 .5-.5ZM27 10.5h-4.793l5.147-5.147a.5.5 0 1 0-.707-.707L21.502 9.79 21.5 5a.5.5 0 0 0-1 0l.002 6a.5.5 0 0 0 .5.5H27a.5.5 0 0 0 0-1Z"/></svg>