<svg xmlns="http://www.w3.org/2000/svg" width="32" height="32" viewBox="0 0 32 32"><path d="M10.998 20H5a1 1 0 0 0 0 2h3.586l-4.293 4.293a1 1 0 0 0 1.414 1.414L10 23.415 10 27a1 1 0 1 0 2 0l-.002-6a1 1 0 0 0-1-1M11 4a1 1 0 0 0-1 1L10 8.584 5.707 4.292a1 1 0 1 0-1.414 1.415L8.586 10H5a1 1 0 0 0 0 2h5.998a1 1 0 0 0 1-1L12 5a1 1 0 0 0-1-1M28 21a1 1 0 0 0-1-1h-5.998a1 1 0 0 0-1 1L20 27a1 1 0 0 0 2 0l.002-3.584 4.291 4.29a1 1 0 0 0 1.414-1.413L23.413 22H27a1 1 0 0 0 1-1M27 10h-3.586l4.293-4.293a1 1 0 0 0-1.414-1.415l-4.291 4.292L22 5a1 1 0 1 0-2 0l.002 6a1 1 0 0 0 1 1H27a1 1 0 1 0 0-2"/></svg>