<svg xmlns="http://www.w3.org/2000/svg" width="32" height="32" viewBox="0 0 32 32"><path d="M11.707 20.293a1 1 0 0 0-1.414 0l-4.292 4.292V21a1 1 0 1 0-2 0l.001 6a1 1 0 0 0 1 1H11a1 1 0 1 0 0-2H7.415l4.292-4.294a1 1 0 0 0 0-1.413ZM12 5a1 1 0 0 0-1-1H5.002a1 1 0 0 0-1 1L4 11a1 1 0 1 0 2 0l.001-3.585 4.292 4.292a1 1 0 1 0 1.414-1.415L7.414 6H11a1 1 0 0 0 1-1ZM27 20a1.002 1.002 0 0 0-1 1L26 24.584l-4.292-4.291a1 1 0 0 0-1.414 1.414L24.586 26H21a1 1 0 0 0 0 2h5.998a1 1 0 0 0 1-1L28 21a1 1 0 0 0-1-1ZM20.293 11.707a.999.999 0 0 0 1.414 0L26 7.415 26 10.999a.999.999 0 1 0 2 0l-.002-6a1 1 0 0 0-1-1H21a1 1 0 0 0 0 2h3.587l-4.294 4.294a.998.998 0 0 0 0 1.414Z"/></svg>