<svg xmlns="http://www.w3.org/2000/svg" width="32" height="32" viewBox="0 0 32 32"><path d="M11.354 20.646a.5.5 0 0 0-.707 0l-5.145 5.145L5.5 21a.5.5 0 1 0-1 0l.002 6a.5.5 0 0 0 .5.5H11a.5.5 0 0 0 0-1H6.208l5.146-5.147a.5.5 0 0 0 0-.707M11.5 5a.497.497 0 0 0-.5-.5H5.002a.5.5 0 0 0-.5.5L4.5 11a.5.5 0 0 0 1 0l.002-4.791 5.145 5.144a.5.5 0 0 0 .707-.707L6.207 5.5H11a.5.5 0 0 0 .5-.5M27 20.5a.5.5 0 0 0-.5.5l-.002 4.79-5.144-5.144a.5.5 0 0 0-.707.707l5.146 5.147H21a.5.5 0 0 0 0 1h5.998a.5.5 0 0 0 .5-.5l.002-6a.5.5 0 0 0-.5-.5M20.647 11.353a.5.5 0 0 0 .707 0l5.144-5.143L26.5 11a.5.5 0 1 0 1 0l-.002-6a.5.5 0 0 0-.5-.5H21a.5.5 0 1 0 0 1h4.794l-5.147 5.146a.5.5 0 0 0 0 .707"/></svg>