<svg xmlns="http://www.w3.org/2000/svg" width="32" height="32" viewBox="0 0 32 32"><path d="M11.53 20.47a.75.75 0 0 0-1.06 0L5.75 25.187V21a.75.75 0 1 0-1.5 0l.001 6a.75.75 0 0 0 .75.75H11a.75.75 0 0 0 0-1.5H6.811l4.72-4.72a.75.75 0 0 0 0-1.06M11.75 5a.75.75 0 0 0-.75-.75H5.002a.75.75 0 0 0-.75.75l-.002 6a.75.75 0 1 0 1.5 0l.001-4.188 4.719 4.718a.75.75 0 0 0 1.06-1.06L6.81 5.75H11a.75.75 0 0 0 .75-.75M27 20.25a.75.75 0 0 0-.75.75l-.002 4.187-4.718-4.718a.75.75 0 0 0-1.06 1.06l4.72 4.72H21a.75.75 0 1 0 0 1.5h5.998a.75.75 0 0 0 .75-.75l.002-6a.75.75 0 0 0-.75-.75M20.47 11.53a.75.75 0 0 0 1.06 0l4.718-4.718L26.25 11a.75.75 0 0 0 1.5 0l-.002-6a.75.75 0 0 0-.75-.75H21a.75.75 0 1 0 0 1.5h4.19l-4.72 4.72a.75.75 0 0 0 0 1.06"/></svg>