<svg xmlns="http://www.w3.org/2000/svg" width="32" height="32" viewBox="0 0 32 32"><path d="M10.998 20.25H5a.75.75 0 1 0 0 1.5h4.19l-4.72 4.72a.75.75 0 0 0 1.06 1.06l4.719-4.718L10.25 27a.75.75 0 0 0 1.5 0l-.002-6a.75.75 0 0 0-.75-.75M11 4.25a.75.75 0 0 0-.75.75l-.002 4.188L5.53 4.469a.75.75 0 1 0-1.06 1.06l4.72 4.72H5a.75.75 0 1 0 0 1.5h5.998a.75.75 0 0 0 .75-.75l.002-6a.75.75 0 0 0-.75-.75M27.75 21a.75.75 0 0 0-.75-.75h-5.998a.75.75 0 0 0-.75.75l-.002 6a.75.75 0 1 0 1.5 0l.002-4.188 4.718 4.718a.75.75 0 0 0 1.06 0 .75.75 0 0 0 0-1.06l-4.72-4.72H27a.75.75 0 0 0 .75-.75M27 10.25h-4.19l4.72-4.72a.75.75 0 0 0-1.06-1.06l-4.718 4.717L21.75 5a.75.75 0 1 0-1.5 0l.002 6a.75.75 0 0 0 .75.75H27a.75.75 0 1 0 0-1.5"/></svg>