<svg xmlns="http://www.w3.org/2000/svg" width="32" height="32" viewBox="0 0 32 32"><path d="M20.593 14.423a2 2 0 0 0 1.412.582h.003l6-.012a2 2 0 0 0 1.996-2.004l-.008-4a2.004 2.004 0 0 0-2-1.996h-.004l-.002-1A3.003 3.003 0 0 0 24.989 3h-.006a3.003 3.003 0 0 0-2.993 3.006l.002 1a2 2 0 0 0-1.995 2.004l.008 4a2 2 0 0 0 .588 1.413m7.403-5.43.01 4h-.002l-6 .013-.008-4zM23.989 6a1 1 0 0 1 .998-1.002h.001a1 1 0 0 1 1.001.998l.003 1-2 .004zM29 17a1 1 0 0 0-1 1v5a3.004 3.004 0 0 1-3 3H7a3.003 3.003 0 0 1-3-3v-8h13a1 1 0 0 0 0-2H4V9a3.003 3.003 0 0 1 3-3h4.631a3 3 0 0 1 2.29 1.062l.72.846A2.8 2.8 0 0 0 17 9a1 1 0 1 0 0-2 .86.86 0 0 1-.838-.39l-.715-.84A4.99 4.99 0 0 0 11.632 4H7a5.006 5.006 0 0 0-5 5v14a5.006 5.006 0 0 0 5 5h18a5.006 5.006 0 0 0 5-5v-5a1 1 0 0 0-1-1"/></svg>