<svg xmlns="http://www.w3.org/2000/svg" width="32" height="32" viewBox="0 0 32 32"><path d="M25 7.25h-8.044a1.25 1.25 0 0 1-.951-.44l-.748-.878a4.74 4.74 0 0 0-3.625-1.682H7A4.755 4.755 0 0 0 2.25 9v14A4.755 4.755 0 0 0 7 27.75h18A4.755 4.755 0 0 0 29.75 23V12A4.756 4.756 0 0 0 25 7.25M7 5.75h4.631a3.24 3.24 0 0 1 2.48 1.15l.751.884a2.75 2.75 0 0 0 2.093.966H25A3.254 3.254 0 0 1 28.25 12v1.25H3.75V9A3.254 3.254 0 0 1 7 5.75m18 20.5H7A3.254 3.254 0 0 1 3.75 23v-8.25h24.5V23A3.254 3.254 0 0 1 25 26.25"/></svg>