<svg xmlns="http://www.w3.org/2000/svg" width="32" height="32" viewBox="0 0 32 32"><path d="M19 14.75h2.424a.75.75 0 0 0 .53-.22l7.086-7.085a2.465 2.465 0 0 0-3.485-3.485l-7.085 7.07a.747.747 0 0 0-.22.53V14a.75.75 0 0 0 .75.75Zm.75-2.879 6.865-6.85a.964.964 0 0 1 1.364 1.363l-6.866 6.866H19.75v-1.379Z"/><path d="M29 12.25a.75.75 0 0 0-.75.75v10A3.254 3.254 0 0 1 25 26.25H7A3.254 3.254 0 0 1 3.75 23v-8.25H14a.75.75 0 1 0 0-1.5H3.75V9A3.254 3.254 0 0 1 7 5.75h4.631a3.241 3.241 0 0 1 2.48 1.15l.719.845A2.574 2.574 0 0 0 17 8.75a.75.75 0 1 0 0-1.5 1.096 1.096 0 0 1-1.028-.478l-.715-.84a4.741 4.741 0 0 0-3.625-1.682H7A4.755 4.755 0 0 0 2.25 9v14A4.756 4.756 0 0 0 7 27.75h18A4.756 4.756 0 0 0 29.75 23V13a.75.75 0 0 0-.75-.75Z"/></svg>