<svg xmlns="http://www.w3.org/2000/svg" width="32" height="32" viewBox="0 0 32 32"><path d="M18 14a1 1 0 0 0 1 1h2.424a1 1 0 0 0 .707-.293l7.086-7.085a2.714 2.714 0 1 0-3.839-3.839l-7.084 7.069a1 1 0 0 0-.294.708zm2-2.025 6.791-6.777a.714.714 0 0 1 1.01 1.01L21.01 13H20zM29 12a1 1 0 0 0-1 1v10a3.004 3.004 0 0 1-3 3H7a3.003 3.003 0 0 1-3-3v-8h10a1 1 0 0 0 0-2H4V9a3.003 3.003 0 0 1 3-3h4.631a3 3 0 0 1 2.29 1.062l.719.845A2.8 2.8 0 0 0 17 9a1 1 0 1 0 0-2 .86.86 0 0 1-.838-.39l-.715-.84A4.99 4.99 0 0 0 11.632 4H7a5.006 5.006 0 0 0-5 5v14a5.007 5.007 0 0 0 5 5h18a5.007 5.007 0 0 0 5-5V13a1 1 0 0 0-1-1"/></svg>