<svg xmlns="http://www.w3.org/2000/svg" width="32" height="32" viewBox="0 0 32 32"><path d="M20.945 14.068a1.493 1.493 0 0 0 1.06.437h.002l6-.012a1.502 1.502 0 0 0 1.497-1.503l-.008-4a1.502 1.502 0 0 0-1.5-1.497h-.003l-.5.001-.003-1.5a2.504 2.504 0 0 0-2.501-2.495h-.005a2.5 2.5 0 0 0-2.495 2.505l.004 1.5-.5.001a1.5 1.5 0 0 0-1.497 1.503l.008 4a1.489 1.489 0 0 0 .441 1.06Zm2.544-8.065a1.501 1.501 0 0 1 1.497-1.504h.002a1.503 1.503 0 0 1 1.501 1.497l.004 1.5-3 .007-.004-1.5Zm-1.848 2.65a.498.498 0 0 1 .354-.148l6-.013a.503.503 0 0 1 .5.5l.009 4a.5.5 0 0 1-.499.5l-6 .013a.503.503 0 0 1-.463-.308.497.497 0 0 1-.038-.191l-.008-4a.494.494 0 0 1 .145-.354Z"/><path d="M29 17.5a.5.5 0 0 0-.5.5v5a3.504 3.504 0 0 1-3.5 3.5H7A3.504 3.504 0 0 1 3.5 23v-8.5H17a.5.5 0 0 0 0-1H3.5V9A3.504 3.504 0 0 1 7 5.5h4.631a3.492 3.492 0 0 1 2.672 1.239l.717.845A2.325 2.325 0 0 0 17 8.5a.5.5 0 0 0 0-1 1.34 1.34 0 0 1-1.219-.566l-.715-.841A4.491 4.491 0 0 0 11.632 4.5H7A4.505 4.505 0 0 0 2.5 9v14A4.505 4.505 0 0 0 7 27.5h18a4.504 4.504 0 0 0 4.5-4.5v-5a.5.5 0 0 0-.5-.5Z"/></svg>