<svg xmlns="http://www.w3.org/2000/svg" width="32" height="32" viewBox="0 0 32 32"><path d="M24 10.5c2.977 0 5.322-3.07 5.42-3.2a.5.5 0 0 0 0-.602C29.321 6.567 26.976 3.5 24 3.5c-2.98 0-5.285 3.07-5.381 3.201a.5.5 0 0 0 0 .595c.096.13 2.402 3.204 5.381 3.204m0-6c1.981 0 3.738 1.776 4.372 2.5-.632.723-2.385 2.5-4.372 2.5-1.981 0-3.714-1.78-4.334-2.501.62-.72 2.353-2.499 4.334-2.499M24 7.75a.75.75 0 1 0 0-1.5.75.75 0 0 0 0 1.5M29 13.5l-25.5-.001V9A3.504 3.504 0 0 1 7 5.5h7a.5.5 0 0 0 0-1H7A4.505 4.505 0 0 0 2.5 9v14A4.505 4.505 0 0 0 7 27.5h18a4.504 4.504 0 0 0 4.5-4.5v-9a.5.5 0 0 0-.5-.5m-.5 9.5a3.504 3.504 0 0 1-3.5 3.5H7A3.504 3.504 0 0 1 3.5 23v-8.501l25 .001z"/></svg>