<svg xmlns="http://www.w3.org/2000/svg" width="32" height="32" viewBox="0 0 32 32"><path d="M24 11c3.2 0 5.7-3.3 5.8-3.4q.45-.6 0-1.2C29.7 6.3 27.2 3 24 3s-5.7 3.3-5.8 3.4q-.45.6 0 1.2c.1.1 2.6 3.4 5.8 3.4m0-6c1.5 0 2.8.9 3.7 2-.7.8-2.2 2-3.7 2-1.4 0-2.7-.9-3.7-2 1-1.1 2.2-2 3.7-2M24 8.2a1.2 1.2 0 1 0 0-2.4 1.2 1.2 0 0 0 0 2.4M29 13H4V9c0-1.7 1.3-3 3-3h7c.6 0 1-.4 1-1s-.4-1-1-1H7C4.2 4 2 6.2 2 9v14c0 2.8 2.2 5 5 5h18c2.8 0 5-2.2 5-5v-9c0-.6-.4-1-1-1m-4 13H7c-1.7 0-3-1.3-3-3v-8h24v8c0 1.7-1.3 3-3 3"/></svg>