<svg xmlns="http://www.w3.org/2000/svg" width="32" height="32" viewBox="0 0 32 32"><path d="M20.77 14.246a1.74 1.74 0 0 0 1.235.51h.002l6-.013a1.75 1.75 0 0 0 1.747-1.753l-.008-4a1.753 1.753 0 0 0-1.75-1.747h-.253l-.003-1.25a2.754 2.754 0 0 0-2.75-2.744h-.006a2.753 2.753 0 0 0-2.744 2.756l.003 1.25h-.25a1.75 1.75 0 0 0-1.746 1.753l.008 4a1.74 1.74 0 0 0 .514 1.238m2.97-8.244a1.25 1.25 0 0 1 1.246-1.253h.002a1.25 1.25 0 0 1 1.251 1.248l.003 1.25-2.5.005zm-1.921 2.827a.25.25 0 0 1 .176-.074l6-.012a.25.25 0 0 1 .25.25l.008 4a.25.25 0 0 1-.25.25l-6 .012a.25.25 0 0 1-.25-.25l-.008-4a.25.25 0 0 1 .073-.176M29 17.25a.75.75 0 0 0-.75.75v5A3.254 3.254 0 0 1 25 26.25H7A3.254 3.254 0 0 1 3.75 23v-8.25H17a.75.75 0 1 0 0-1.5H3.75V9A3.254 3.254 0 0 1 7 5.75h4.631a3.24 3.24 0 0 1 2.48 1.15l.72.845A2.58 2.58 0 0 0 17 8.75a.75.75 0 1 0 0-1.5 1.1 1.1 0 0 1-1.028-.478l-.715-.84a4.74 4.74 0 0 0-3.625-1.682H7A4.755 4.755 0 0 0 2.25 9v14A4.756 4.756 0 0 0 7 27.75h18A4.755 4.755 0 0 0 29.75 23v-5a.75.75 0 0 0-.75-.75"/></svg>