<svg xmlns="http://www.w3.org/2000/svg" width="32" height="32" viewBox="0 0 32 32"><path d="M24 10.75c3.1 0 5.518-3.165 5.62-3.3a.75.75 0 0 0 0-.902C29.518 6.413 27.1 3.25 24 3.25c-3.104 0-5.483 3.168-5.582 3.303a.75.75 0 0 0 0 .891c.1.135 2.478 3.306 5.582 3.306m0-6c1.749 0 3.335 1.484 4.04 2.253-.81.886-2.404 2.247-4.04 2.247-1.747 0-3.31-1.484-4.001-2.25.691-.767 2.254-2.25 4.001-2.25M24 8a1 1 0 1 0 0-2 1 1 0 0 0 0 2M29 13.25l-.007.001-.006-.001-25.237-.001V9A3.254 3.254 0 0 1 7 5.75h7a.75.75 0 1 0 0-1.5H7A4.756 4.756 0 0 0 2.25 9v14A4.756 4.756 0 0 0 7 27.75h18A4.755 4.755 0 0 0 29.75 23v-9a.75.75 0 0 0-.75-.75m-4 13H7A3.254 3.254 0 0 1 3.75 23v-8.251l24.5.001V23A3.254 3.254 0 0 1 25 26.25"/></svg>