<svg xmlns="http://www.w3.org/2000/svg" width="32" height="32" viewBox="0 0 32 32"><path d="M19 14.5h2.424a.5.5 0 0 0 .354-.146l7.085-7.085a2.214 2.214 0 0 0-3.131-3.132l-7.085 7.069a.5.5 0 0 0-.147.354V14a.5.5 0 0 0 .5.5m.5-2.732 6.938-6.923a1.214 1.214 0 0 1 1.717 1.717L21.217 13.5H19.5zM29 12.5a.5.5 0 0 0-.5.5v10a3.504 3.504 0 0 1-3.5 3.5H7A3.504 3.504 0 0 1 3.5 23v-8.5H14a.5.5 0 0 0 0-1H3.5V9A3.504 3.504 0 0 1 7 5.5h4.631a3.5 3.5 0 0 1 2.672 1.239l.717.844A2.32 2.32 0 0 0 17 8.5a.5.5 0 0 0 0-1 1.34 1.34 0 0 1-1.219-.566l-.715-.841A4.49 4.49 0 0 0 11.632 4.5H7A4.505 4.505 0 0 0 2.5 9v14A4.505 4.505 0 0 0 7 27.5h18a4.505 4.505 0 0 0 4.5-4.5V13a.5.5 0 0 0-.5-.5"/></svg>