<svg xmlns="http://www.w3.org/2000/svg" width="32" height="32" viewBox="0 0 32 32"><path d="M4.43 4.426a2.28 2.28 0 0 0-.679 1.622v7.62c0 .431.124.854.356 1.219s.564.66.959.848l.037.018a.75.75 0 0 1 .429.678v.043a.75.75 0 0 1-.09.354 4.8 4.8 0 0 1-1.144 1.407c.829.077 2.068-.12 3.147-.93l.02-.014c.125-.088.279-.22.481-.395l.304-.263v-.585c0-1.01.405-1.976 1.123-2.688a3.84 3.84 0 0 1 2.704-1.11H22.25V6.048c0-.607-.244-1.19-.68-1.622a2.34 2.34 0 0 0-1.647-.676H6.078c-.62 0-1.212.244-1.648.676m3.82 14.149c-1.442 1.04-3.083 1.277-4.218 1.14a3.6 3.6 0 0 1-.814-.19 1.75 1.75 0 0 1-.68-.428c-.215-.233-.383-.613-.23-1.042.124-.347.405-.56.635-.688.304-.187.575-.42.801-.69a3.778 3.778 0 0 1-1.493-3.006V6.047c0-1.01.405-1.976 1.123-2.688a3.84 3.84 0 0 1 2.704-1.11h13.845c1.013 0 1.985.398 2.704 1.11a3.78 3.78 0 0 1 1.123 2.688v6.202h2.172c1.013 0 1.985.399 2.703 1.11a3.78 3.78 0 0 1 1.124 2.688v7.62a3.78 3.78 0 0 1-1.493 3.008c.226.27.497.504.8.69.231.13.512.342.636.689.153.429-.015.809-.23 1.042-.193.21-.45.342-.68.428a3.6 3.6 0 0 1-.814.19c-1.157.14-2.84-.11-4.303-1.203a7 7 0 0 1-.473-.379l-.128-.11a15 15 0 0 0-.32-.272 3 3 0 0 0-.35-.254l-.056-.03H12.077a3.84 3.84 0 0 1-2.704-1.11A3.78 3.78 0 0 1 8.25 23.67zm3.827-4.825c-.62 0-1.212.244-1.648.676a2.28 2.28 0 0 0-.679 1.622v7.62c0 .608.243 1.192.679 1.624a2.34 2.34 0 0 0 1.648.675H22.37c.32-.004.596.129.773.23.196.114.386.259.55.393.124.101.25.211.366.311l.058.05.052.045a5 5 0 0 0 .385.31c1.08.809 2.318 1.006 3.147.928a4.8 4.8 0 0 1-1.145-1.406.75.75 0 0 1-.089-.354v-.043a.75.75 0 0 1 .429-.678l.037-.018c.395-.188.727-.482.96-.848.231-.365.354-.788.355-1.218v-7.62c0-.608-.244-1.192-.68-1.623a2.34 2.34 0 0 0-1.647-.676zM28.37 28.705v.001l-.006-.005zM22.19 20.5l-2.72 2.72a.75.75 0 1 0 1.061 1.06l4-4a.75.75 0 0 0 0-1.06l-4-4a.75.75 0 0 0-1.06 1.06l2.72 2.72H14a.75.75 0 0 0 0 1.5z"/></svg>