<svg xmlns="http://www.w3.org/2000/svg" width="32" height="32" viewBox="0 0 32 32"><path d="M4.606 4.603a2.03 2.03 0 0 0-.605 1.445v7.62c0 .384.11.76.317 1.085.207.326.503.589.856.757l.037.017a1 1 0 0 1 .57.904v.043a1 1 0 0 1-.118.472c-.203.38-.454.731-.745 1.044a4.5 4.5 0 0 0 2.404-.904c.112-.079.255-.201.46-.379L8 16.518v-.47c0-1.076.432-2.107 1.197-2.866A4.1 4.1 0 0 1 12.077 12H22V6.048c0-.54-.216-1.06-.605-1.445A2.1 2.1 0 0 0 19.923 4H6.078c-.554 0-1.083.218-1.472.603M8 19.042c-1.396.857-2.912 1.052-3.998.92a3.8 3.8 0 0 1-.872-.202c-.248-.093-.545-.243-.776-.494-.26-.281-.473-.756-.281-1.295.152-.427.492-.679.744-.82a3 3 0 0 0 .565-.448 4.027 4.027 0 0 1-1.38-3.033V6.048c0-1.076.431-2.107 1.197-2.866A4.1 4.1 0 0 1 6.078 2h13.845c1.079 0 2.114.424 2.88 1.182A4.03 4.03 0 0 1 24 6.048V12h1.922c1.078 0 2.114.424 2.88 1.182a4.03 4.03 0 0 1 1.197 2.866v7.622a4.03 4.03 0 0 1-1.38 3.033q.253.256.564.448c.252.141.592.393.744.82.193.54-.022 1.014-.28 1.295-.232.251-.53.4-.777.494a3.8 3.8 0 0 1-.871.202c-1.213.147-2.961-.113-4.481-1.247a7 7 0 0 1-.49-.392l-.13-.113c-.109-.094-.209-.181-.311-.265a3 3 0 0 0-.31-.228h-10.2a4.1 4.1 0 0 1-2.88-1.182A4.03 4.03 0 0 1 8 23.669zM12.077 14a2.1 2.1 0 0 0-1.472.603A2.03 2.03 0 0 0 10 16.048v7.62c0 .541.217 1.061.605 1.446a2.1 2.1 0 0 0 1.472.603H22.37c.387-.005.71.155.9.264.213.123.415.279.583.416.126.103.258.217.373.317l.107.093a5 5 0 0 0 .373.299c.786.59 1.662.835 2.377.884a5 5 0 0 1-.746-1.044 1 1 0 0 1-.119-.472v-.043a1 1 0 0 1 .571-.904l.037-.017c.353-.168.65-.431.856-.757.207-.326.317-.701.317-1.085v-7.62c0-.54-.217-1.06-.605-1.445A2.1 2.1 0 0 0 25.922 14zm-8.304 4.91q0 0 .012-.009zm24.454 10q0 0-.012-.009zm-6.64-10.16-2.292-2.293a1 1 0 0 1 1.414-1.414l4 4a1 1 0 0 1 0 1.414l-4 4a1 1 0 0 1-1.414-1.414l2.293-2.293H14a1 1 0 1 1 0-2z"/></svg>