<svg xmlns="http://www.w3.org/2000/svg" width="32" height="32" viewBox="0 0 32 32"><path d="M4.254 4.248a2.53 2.53 0 0 0-.753 1.8v7.62c0 .479.137.948.395 1.353a2.57 2.57 0 0 0 1.062.94l.038.018a.5.5 0 0 1 .286.452v.043a.5.5 0 0 1-.06.236 4.53 4.53 0 0 1-1.526 1.66c.126.042.29.08.486.103.882.107 2.238-.086 3.412-.968l.014-.01c.138-.096.303-.238.502-.41l.378-.328.012.015v-.724c0-.942.378-1.845 1.05-2.51a3.6 3.6 0 0 1 2.527-1.038H22.5V6.048c0-.674-.27-1.322-.753-1.8a2.6 2.6 0 0 0-1.824-.748H6.078c-.685 0-1.341.27-1.824.748M8.5 18.068c-.105.087-.21.171-.312.242-1.405 1.052-3.023 1.29-4.126 1.156a3.3 3.3 0 0 1-.757-.175 1.5 1.5 0 0 1-.583-.364c-.17-.184-.292-.47-.179-.788.095-.265.316-.44.526-.557a3.5 3.5 0 0 0 1.032-.959 3.6 3.6 0 0 1-1.05-1.066 3.53 3.53 0 0 1-.55-1.888V6.05c0-.943.378-1.846 1.05-2.511A3.6 3.6 0 0 1 6.077 2.5h13.845c.947 0 1.857.373 2.528 1.038a3.53 3.53 0 0 1 1.049 2.51V12.5h2.422c.947 0 1.856.373 2.528 1.038a3.53 3.53 0 0 1 1.049 2.51v7.62c0 .67-.192 1.324-.55 1.89-.272.426-.63.789-1.05 1.065.274.384.624.71 1.032.96.21.116.431.29.525.556.114.318-.008.604-.178.788-.156.17-.371.285-.583.364-.22.083-.478.141-.757.175-1.103.134-2.721-.105-4.126-1.156a6 6 0 0 1-.457-.366l-.122-.105-.003-.003q-.166-.145-.327-.278a3 3 0 0 0-.384-.278c-.08-.047-.123-.059-.134-.062H12.077a3.6 3.6 0 0 1-2.528-1.038 3.53 3.53 0 0 1-1.05-2.511zm3.577-4.568c-.685 0-1.341.27-1.824.748a2.53 2.53 0 0 0-.753 1.8v7.62c0 .675.27 1.323.753 1.801a2.6 2.6 0 0 0 1.824.748h10.296c.252-.004.48.102.646.197.178.103.356.238.517.37.12.098.243.205.358.304l.046.04.067.058q.224.196.385.31l.013.01c1.175.881 2.53 1.074 3.413.967q.296-.036.486-.104a4.53 4.53 0 0 1-1.526-1.659.5.5 0 0 1-.06-.236v-.043a.5.5 0 0 1 .286-.452l.037-.018a2.57 2.57 0 0 0 1.063-.94c.258-.405.394-.874.395-1.352v-7.62c0-.675-.27-1.323-.753-1.801a2.6 2.6 0 0 0-1.824-.748zm10.718 6.75-3.147 3.146a.5.5 0 0 0 .707.708l4-4a.5.5 0 0 0 0-.708l-4-4a.5.5 0 0 0-.707.708l3.147 3.146H14a.5.5 0 0 0 0 1z"/></svg>