<svg xmlns="http://www.w3.org/2000/svg" width="32" height="32" viewBox="0 0 32 32"><path d="M22.328 7.753q.085-.003.172-.003A5.5 5.5 0 0 1 24 18.543V25a3 3 0 0 1-3 3H11a3 3 0 0 1-3-3v-6.457a5.5 5.5 0 0 1 1.672-10.79 7 7 0 0 1 12.656 0M22.5 9.75c-.553 0-1.076.128-1.541.357a5 5 0 0 0-.654-1.902A5 5 0 0 0 16 5.75a5 5 0 0 0-4.959 4.357 3.5 3.5 0 0 0-1.974-.33 3.5 3.5 0 1 0 3.684 4.773 4.99 4.99 0 0 0 4.74.974 5 5 0 0 0 1.759-.974 3.51 3.51 0 0 0 3.25 2.2 3.5 3.5 0 1 0 0-7M10 18.728V25a1 1 0 0 0 1 1h10a1 1 0 0 0 1-1v-6.272a5.48 5.48 0 0 1-3.312-1.513A7 7 0 0 1 16 17.75a7 7 0 0 1-2.688-.535A5.48 5.48 0 0 1 10 18.728"/></svg>