<svg xmlns="http://www.w3.org/2000/svg" width="32" height="32" viewBox="0 0 32 32"><path d="M22.328 7.753A5.5 5.5 0 0 1 24 18.543V25a3 3 0 0 1-3 3H11a3 3 0 0 1-3-3v-6.457a5.5 5.5 0 0 1 1.672-10.79 7 7 0 0 1 12.656 0ZM22.5 9.75c-.553 0-1.076.128-1.541.357a4.966 4.966 0 0 0-.654-1.902A4.998 4.998 0 0 0 16 5.75a4.998 4.998 0 0 0-4.959 4.357 3.486 3.486 0 0 0-1.974-.33 3.5 3.5 0 1 0 3.684 4.773 4.99 4.99 0 0 0 4.74.974 4.99 4.99 0 0 0 1.759-.974 3.509 3.509 0 0 0 3.25 2.2 3.5 3.5 0 1 0 0-7ZM10 18.728V25a1 1 0 0 0 1 1h10a1 1 0 0 0 1-1v-6.272a5.481 5.481 0 0 1-3.312-1.513A6.978 6.978 0 0 1 16 17.75a6.98 6.98 0 0 1-2.688-.535A5.48 5.48 0 0 1 10 18.728Z"/></svg>