<svg xmlns="http://www.w3.org/2000/svg" width="32" height="32" viewBox="0 0 32 32"><path d="M8.5 17.639a4.502 4.502 0 0 1 1.816-8.815 6.003 6.003 0 0 1 11.368 0 4.5 4.5 0 0 1 1.816 8.815V25a2.5 2.5 0 0 1-2.5 2.5H11A2.5 2.5 0 0 1 8.5 25v-7.361Zm10.75-3.089a3.493 3.493 0 0 0 3.25 2.2 3.5 3.5 0 1 0-1.541-6.643 5.002 5.002 0 0 0-9.918 0A3.476 3.476 0 0 0 9.5 9.75a3.5 3.5 0 1 0 3.25 4.8 4.969 4.969 0 0 0 .839.581A4.978 4.978 0 0 0 16 15.75a4.978 4.978 0 0 0 3.25-1.2ZM16 16.75a5.973 5.973 0 0 1-2.928-.762A4.493 4.493 0 0 1 9.5 17.75V25a1.5 1.5 0 0 0 1.5 1.5h10a1.5 1.5 0 0 0 1.5-1.5v-7.25a4.493 4.493 0 0 1-3.572-1.762A5.973 5.973 0 0 1 16 16.75Z"/></svg>