<svg xmlns="http://www.w3.org/2000/svg" width="32" height="32" viewBox="0 0 32 32"><path d="M8.5 17.639a4.502 4.502 0 0 1 1.816-8.815 6.003 6.003 0 0 1 11.368 0q.397-.074.816-.074a4.5 4.5 0 0 1 1 8.889V25a2.5 2.5 0 0 1-2.5 2.5H11A2.5 2.5 0 0 1 8.5 25zm10.75-3.089a3.493 3.493 0 0 0 3.25 2.2 3.5 3.5 0 1 0-1.541-6.643 5.002 5.002 0 0 0-9.918 0A3.5 3.5 0 0 0 9.5 9.75a3.5 3.5 0 1 0 3.25 4.8 5 5 0 0 0 .839.581A5 5 0 0 0 16 15.75a4.98 4.98 0 0 0 3.25-1.2M16 16.75a6 6 0 0 1-2.928-.762A4.5 4.5 0 0 1 9.5 17.75V25a1.5 1.5 0 0 0 1.5 1.5h10a1.5 1.5 0 0 0 1.5-1.5v-7.25a4.5 4.5 0 0 1-3.572-1.762A6 6 0 0 1 16 16.75"/></svg>