<svg xmlns="http://www.w3.org/2000/svg" width="32" height="32" viewBox="0 0 32 32"><path d="M9.5 8.25c.165 0 .328.008.488.024a6.502 6.502 0 0 1 12.024 0 5 5 0 0 1 1.738 9.819V25A2.75 2.75 0 0 1 21 27.75H11A2.75 2.75 0 0 1 8.25 25v-6.907A5 5 0 0 1 9.5 8.25Zm.25 9.994V25c0 .69.56 1.25 1.25 1.25h10c.69 0 1.25-.56 1.25-1.25v-6.756a4.987 4.987 0 0 1-3.447-1.628c-.849.407-1.8.634-2.803.634a6.475 6.475 0 0 1-2.803-.634 4.987 4.987 0 0 1-3.447 1.628Zm9.536-3.605A3.506 3.506 0 0 0 22.5 16.75a3.5 3.5 0 1 0-1.541-6.643 5.001 5.001 0 0 0-9.918 0A3.476 3.476 0 0 0 9.5 9.75a3.5 3.5 0 1 0 3.25 4.8 4.986 4.986 0 0 0 3.25 1.2 4.982 4.982 0 0 0 3.25-1.2c.011.03.024.06.036.089Z"/></svg>