<svg xmlns="http://www.w3.org/2000/svg" width="32" height="32" viewBox="0 0 32 32"><path d="M10 9.5h18a.5.5 0 0 0 0-1H10a.5.5 0 0 0 0 1ZM28 22.5H10a.5.5 0 0 0 0 1h18a.5.5 0 1 0 0-1ZM4.25 23.75a.75.75 0 1 0 0-1.5.75.75 0 0 0 0 1.5ZM4.25 9.75a.75.75 0 1 0 0-1.5.75.75 0 0 0 0 1.5ZM27.003 12.5h-22a1.502 1.502 0 0 0-1.5 1.5v4a1.502 1.502 0 0 0 1.5 1.5h22a1.502 1.502 0 0 0 1.5-1.5v-4a1.501 1.501 0 0 0-1.5-1.5Zm.5 5.5a.5.5 0 0 1-.5.5h-22a.5.5 0 0 1-.5-.5v-4a.5.5 0 0 1 .5-.5h22a.5.5 0 0 1 .5.5v4Z"/></svg>