<svg xmlns="http://www.w3.org/2000/svg" width="32" height="32" viewBox="0 0 32 32"><path d="M10 9.75h18a.75.75 0 0 0 0-1.5H10a.75.75 0 0 0 0 1.5M28 22.25H10a.75.75 0 0 0 0 1.5h18a.75.75 0 0 0 0-1.5M4.25 24a1 1 0 1 0 0-2 1 1 0 0 0 0 2M4.25 10a1 1 0 1 0 0-2 1 1 0 0 0 0 2M27.004 12.25h-22A1.753 1.753 0 0 0 3.254 14v4a1.75 1.75 0 0 0 1.75 1.75h22a1.75 1.75 0 0 0 1.75-1.75v-4a1.75 1.75 0 0 0-1.75-1.75m.25 5.75a.25.25 0 0 1-.25.25h-22a.25.25 0 0 1-.25-.25v-4a.25.25 0 0 1 .25-.25h22a.25.25 0 0 1 .25.25z"/></svg>