<svg xmlns="http://www.w3.org/2000/svg" width="32" height="32" viewBox="0 0 32 32"><path d="M10 22.25a.75.75 0 0 0-.75.75v5a.75.75 0 1 0 1.5 0v-5a.75.75 0 0 0-.75-.75ZM22 22.25a.75.75 0 0 0-.75.75v5a.75.75 0 1 0 1.5 0v-5a.75.75 0 0 0-.75-.75ZM10 13.25a.75.75 0 0 0-.75.75v4a.75.75 0 1 0 1.5 0v-4a.75.75 0 0 0-.75-.75ZM22 13.25a.75.75 0 0 0-.75.75v4a.75.75 0 1 0 1.5 0v-4a.75.75 0 0 0-.75-.75ZM10 3.25a.75.75 0 0 0-.75.75v5a.75.75 0 0 0 1.5 0V4a.75.75 0 0 0-.75-.75ZM22 3.25a.75.75 0 0 0-.75.75v5a.75.75 0 1 0 1.5 0V4a.75.75 0 0 0-.75-.75Z"/></svg>