<svg xmlns="http://www.w3.org/2000/svg" width="32" height="32" viewBox="0 0 32 32"><path d="M29 26.25h-3.857a13.737 13.737 0 1 0-16.475 1.384.75.75 0 1 0 .8-1.268 12.262 12.262 0 1 1 14.282-.893V21a.75.75 0 1 0-1.5 0v6a.75.75 0 0 0 .75.75h6a.75.75 0 1 0 0-1.5M13.36 20v-9.1h-1.222l-2.054 1.066v1.287l2.041-1.053V20zM18.75 20.195c1.846 0 3.25-1.508 3.25-4.771 0-3.354-1.417-4.719-3.25-4.719s-3.25 1.365-3.25 4.719c0 3.263 1.404 4.771 3.25 4.771m0-1.04c-1.326 0-1.976-1.183-1.976-3.731 0-2.535.65-3.679 1.976-3.679s1.976 1.144 1.976 3.679c0 2.548-.65 3.731-1.976 3.731"/></svg>