<svg xmlns="http://www.w3.org/2000/svg" width="32" height="32" viewBox="0 0 32 32"><path d="M29 26.5h-4.541a13.484 13.484 0 1 0-15.657.923.495.495 0 0 0 .567-.023.5.5 0 0 0-.034-.823A12.524 12.524 0 1 1 23.5 25.97V21a.5.5 0 0 0-1 0v6a.5.5 0 0 0 .5.5h6a.5.5 0 0 0 0-1M13.243 20v-9.1h-.949l-2.08 1.144v1.001l2.067-1.131V20zM18.75 20.195c1.807 0 3.185-1.469 3.185-4.758 0-3.341-1.391-4.732-3.185-4.732s-3.185 1.391-3.185 4.732c0 3.289 1.378 4.758 3.185 4.758m0-.819c-1.417 0-2.197-1.248-2.197-3.939 0-2.678.78-3.913 2.197-3.913s2.197 1.235 2.197 3.913c0 2.691-.78 3.939-2.197 3.939"/></svg>