<svg xmlns="http://www.w3.org/2000/svg" width="32" height="32" viewBox="0 0 32 32"><path d="M16.354 2.647a.5.5 0 0 0-.707 0L11.65 6.643a.5.5 0 0 0 .707.707L16 3.707l3.65 3.65a.5.5 0 1 0 .707-.707zM19.65 24.643 16 28.293l-3.642-3.643a.5.5 0 0 0-.708.707l3.997 3.997a.5.5 0 0 0 .707 0l4.004-4.004a.5.5 0 1 0-.708-.707M7.357 11.643a.5.5 0 0 0-.707 0l-4.003 4.004a.5.5 0 0 0 0 .707l3.996 3.996a.5.5 0 0 0 .707-.707L3.707 16l3.65-3.65a.5.5 0 0 0 0-.707M29.354 15.647l-4.004-4.004a.498.498 0 0 0-.82.16.5.5 0 0 0 .113.547l3.65 3.65-3.643 3.643a.498.498 0 0 0 .16.82.5.5 0 0 0 .547-.113l3.997-3.996a.5.5 0 0 0 0-.707M16 17.5a1.5 1.5 0 1 0 0-3 1.5 1.5 0 0 0 0 3"/></svg>