<svg xmlns="http://www.w3.org/2000/svg" width="32" height="32" viewBox="0 0 32 32"><path d="M16.53 2.47a.75.75 0 0 0-1.06 0l-3.996 3.996a.75.75 0 0 0 1.06 1.06L16 4.062l3.474 3.473a.75.75 0 1 0 1.06-1.061zM19.474 24.466 16 27.94l-3.466-3.467a.75.75 0 0 0-1.06 1.06l3.996 3.998a.75.75 0 0 0 1.06 0l4.004-4.004a.749.749 0 1 0-1.06-1.06M7.534 11.466a.75.75 0 0 0-1.06 0L2.47 15.47a.75.75 0 0 0 0 1.06l3.996 3.997a.748.748 0 0 0 1.282-.53.75.75 0 0 0-.221-.53L4.06 16l3.473-3.473a.75.75 0 0 0 0-1.06M29.53 15.47l-4.003-4.004a.75.75 0 1 0-1.06 1.06L27.94 16l-3.467 3.466a.75.75 0 1 0 1.06 1.06l3.997-3.995a.75.75 0 0 0 0-1.06M16 17.75a1.75 1.75 0 1 0 0-3.5 1.75 1.75 0 0 0 0 3.5"/></svg>