<svg xmlns="http://www.w3.org/2000/svg" width="32" height="32" viewBox="0 0 32 32"><path d="M16.708 2.293a1 1 0 0 0-1.414 0L11.297 6.29a1 1 0 0 0 1.414 1.415l3.29-3.29 3.296 3.296a1 1 0 0 0 1.414-1.414zM19.297 24.29 16 27.585l-3.289-3.29a1 1 0 0 0-1.414 1.414l3.996 3.997a1 1 0 0 0 1.415 0l4.003-4.004a1 1 0 1 0-1.414-1.414M7.71 11.29a1 1 0 0 0-1.414 0l-4.003 4.003a1 1 0 0 0 0 1.414l3.997 3.996a1 1 0 1 0 1.414-1.414L4.414 16l3.297-3.296a1 1 0 0 0 0-1.415M29.707 15.293l-4.003-4.004a1 1 0 0 0-1.414 1.415L27.586 16l-3.29 3.29a1 1 0 0 0 1.415 1.413l3.996-3.996a.997.997 0 0 0 0-1.414M16 18a2 2 0 1 0 0-4 2 2 0 0 0 0 4"/></svg>