<svg xmlns="http://www.w3.org/2000/svg" width="32" height="32" viewBox="0 0 32 32"><path d="M4.88 7.879A3 3 0 0 1 7.001 7h18a3 3 0 0 1 3 3v10a3 3 0 0 1-3 3H11.618c-.425-.006-.79.172-1.02.306-.258.15-.506.341-.72.518-.16.133-.326.278-.476.409l-.142.124a7 7 0 0 1-.5.405C7.38 25.806 5.8 26.07 4.732 25.979a6.3 6.3 0 0 0 1.468-1.83 1 1 0 0 0 .116-.468v-.057a1 1 0 0 0-.567-.902L5.7 22.7h-.001A3 3 0 0 1 4 19.999V10a3 3 0 0 1 .88-2.121m-1.044 18.74.009-.007zM7 5a5 5 0 0 0-5 5v10.001a5 5 0 0 0 1.937 3.947c-.291.35-.638.65-1.028.892-.303.171-.672.454-.834.913-.2.565.019 1.067.302 1.377.254.28.592.455.893.569.318.12.682.202 1.066.25 1.513.184 3.71-.145 5.617-1.583.21-.15.426-.333.617-.499l.166-.145c.143-.125.278-.243.415-.356q.28-.232.452-.331l.065-.035H25a5 5 0 0 0 5-5V10a5 5 0 0 0-5-5zm5.576 11.599 1.228-4.137 2.177 7.273.012.037a1.816 1.816 0 0 0 3.412.066 1 1 0 0 0 .043-.143l.424-1.912h3.697a1 1 0 1 0 0-2h-3.993a1.65 1.65 0 0 0-1.596 1.294v.003l-.3 1.353-2.147-7.168-.012-.038a1.817 1.817 0 0 0-3.449.04l-.005.017-1.336 4.502H9.43a1 1 0 1 0 0 2h1.577a1.64 1.64 0 0 0 1.57-1.187"/></svg>