<svg xmlns="http://www.w3.org/2000/svg" width="32" height="32" viewBox="0 0 32 32"><path d="M4.703 7.702a3.25 3.25 0 0 1 2.298-.952h18a3.25 3.25 0 0 1 3.25 3.25v10a3.25 3.25 0 0 1-3.25 3.25H11.616c-.357-.005-.674.145-.893.273-.24.139-.475.32-.686.494-.157.13-.32.272-.468.402l-.146.127a6.75 6.75 0 0 1-.512.415c-1.504 1.14-3.239 1.388-4.362 1.25a3.44 3.44 0 0 1-.424-.077 6.022 6.022 0 0 0 1.854-2.101.75.75 0 0 0 .087-.352v-.057a.75.75 0 0 0-.426-.676l-.048-.024A3.25 3.25 0 0 1 3.752 20V10c0-.862.342-1.689.951-2.298ZM7.001 5.25A4.75 4.75 0 0 0 2.251 10v10a4.752 4.752 0 0 0 2.043 3.9 4.52 4.52 0 0 1-1.257 1.156c-.282.158-.592.403-.725.78-.161.456.012.864.25 1.126.218.238.514.396.798.503.295.111.638.19 1.007.235 1.458.178 3.59-.14 5.44-1.536.2-.142.408-.319.6-.485l.163-.143c.144-.126.283-.247.422-.362a3.91 3.91 0 0 1 .486-.355c.084-.05.129-.065.141-.069h13.382a4.75 4.75 0 0 0 4.75-4.75V10a4.75 4.75 0 0 0-4.75-4.75h-18Zm6.802 6.5a.065.065 0 0 1 .06.038l2.359 7.876a1.565 1.565 0 0 0 2.95.084.743.743 0 0 0 .032-.107l.468-2.108h3.898a.75.75 0 0 0 0-1.5h-3.992a1.397 1.397 0 0 0-1.353 1.098v.002l-.466 2.096a.065.065 0 0 1-.107-.017l-2.358-7.876a1.565 1.565 0 0 0-2.983.005l-.004.014-1.389 4.68H9.43a.75.75 0 0 0 0 1.5h1.575a1.392 1.392 0 0 0 1.332-1.007l1.405-4.735a.066.066 0 0 1 .061-.043Z"/></svg>