<svg xmlns="http://www.w3.org/2000/svg" width="32" height="32" viewBox="0 0 32 32"><path d="M4.527 7.525A3.5 3.5 0 0 1 7.002 6.5h18a3.5 3.5 0 0 1 3.5 3.5v10a3.5 3.5 0 0 1-3.5 3.5H11.614c-.288-.005-.557.117-.765.238-.222.13-.445.3-.652.472-.155.127-.313.265-.461.395l-.001.001-.148.129a7 7 0 0 1-.512.416l-.013.01C7.5 26.342 5.698 26.603 4.519 26.46a3.2 3.2 0 0 1-.718-.165 1.3 1.3 0 0 1-.223-.106 1 1 0 0 1 .1-.06 5.77 5.77 0 0 0 2.08-2.214.5.5 0 0 0 .058-.234v-.057a.5.5 0 0 0-.283-.45l-.05-.024A3.5 3.5 0 0 1 3.502 20V10a3.5 3.5 0 0 1 1.025-2.475M7.002 5.5a4.5 4.5 0 0 0-4.5 4.5v10a4.5 4.5 0 0 0 2.145 3.83 4.8 4.8 0 0 1-1.483 1.441c-.262.146-.512.353-.616.648-.123.347.005.661.2.874.18.198.435.338.7.438.273.103.596.178.95.221 1.402.172 3.468-.135 5.26-1.49.19-.134.392-.305.585-.472l.16-.14a20 20 0 0 1 .43-.37c.195-.16.369-.29.519-.377q.111-.065.18-.087c.047-.016.067-.016.066-.016h13.404a4.5 4.5 0 0 0 4.5-4.5V10a4.5 4.5 0 0 0-4.5-4.5zm6.799 6a.32.32 0 0 1 .3.206l2.36 7.886.006.018a1.316 1.316 0 0 0 2.472.048 1 1 0 0 0 .022-.072l.485-2.185v-.002a.15.15 0 0 1 .141-.116h3.983a.5.5 0 1 0 0-1h-3.989a1.15 1.15 0 0 0-1.111.902l-.476 2.14a.314.314 0 0 1-.468.114.3.3 0 0 1-.11-.145l-2.361-7.886-.006-.019a1.315 1.315 0 0 0-2.499.029l-.003.009-1.41 4.75-.001.005a.14.14 0 0 1-.136.104H9.43a.5.5 0 1 0 0 1h1.574a1.144 1.144 0 0 0 1.093-.828l1.407-4.741a.32.32 0 0 1 .297-.217"/></svg>