<svg xmlns="http://www.w3.org/2000/svg" width="32" height="32" viewBox="0 0 32 32"><path d="M25.007 12.75H29a.75.75 0 1 0 0-1.5h-3.993a2.235 2.235 0 0 1-2.25-2.215V6a.75.75 0 0 0-1.5 0v3.035a3.736 3.736 0 0 0 3.75 3.715M10.007 5.25a.75.75 0 0 0-.75.75v3.01a2.253 2.253 0 0 1-2.25 2.25H3a.75.75 0 1 0 0 1.5h4.007a3.755 3.755 0 0 0 3.75-3.75V6a.75.75 0 0 0-.75-.75M7.007 19.26H3a.75.75 0 1 0 0 1.5h4.007a2.253 2.253 0 0 1 2.25 2.25V26a.75.75 0 1 0 1.5 0v-2.99a3.755 3.755 0 0 0-3.75-3.75M29 19.25h-3.993a3.773 3.773 0 0 0-3.75 3.786V26a.75.75 0 1 0 1.5 0v-2.964a2.27 2.27 0 0 1 2.25-2.286H29a.75.75 0 1 0 0-1.5"/></svg>