<svg xmlns="http://www.w3.org/2000/svg" width="32" height="32" viewBox="0 0 32 32"><path d="M25.007 13H29a1 1 0 1 0 0-2h-3.993a1.986 1.986 0 0 1-2-1.965V6a1 1 0 0 0-2 0v3.035a3.986 3.986 0 0 0 4 3.965M10.007 5a1 1 0 0 0-1 1v3.01a2 2 0 0 1-2 2H3a1 1 0 1 0 0 2h4.007a4.004 4.004 0 0 0 4-4V6a1 1 0 0 0-1-1M7.007 19.01H3a1 1 0 1 0 0 2h4.007a2.003 2.003 0 0 1 2 2V26a1 1 0 1 0 2 0v-2.99a4.004 4.004 0 0 0-4-4M29 19h-3.993a4.02 4.02 0 0 0-4 4.036V26a1 1 0 1 0 2 0v-2.964a2.02 2.02 0 0 1 2-2.036H29a1 1 0 1 0 0-2"/></svg>