<svg xmlns="http://www.w3.org/2000/svg" width="32" height="32" viewBox="0 0 32 32"><path d="M26 5h-3.993a1 1 0 1 0 0 2H26a2.003 2.003 0 0 1 2 2v3.07a1 1 0 0 0 2 0V9a4.004 4.004 0 0 0-4-4M10.007 5H6a4.004 4.004 0 0 0-4 4v3.01a1 1 0 0 0 2 0V9a2.003 2.003 0 0 1 2-2h4.007a1 1 0 0 0 0-2M10.007 25H6a2.003 2.003 0 0 1-2-2v-2.99a1 1 0 1 0-2 0V23a4.004 4.004 0 0 0 4 4h4.007a1 1 0 1 0 0-2M29 19.07a1 1 0 0 0-1 1V23a2.003 2.003 0 0 1-2 2h-3.993a1 1 0 0 0 0 2H26a4.004 4.004 0 0 0 4-4v-2.93a1 1 0 0 0-1-1"/></svg>