<svg xmlns="http://www.w3.org/2000/svg" width="32" height="32" viewBox="0 0 32 32"><path d="M26 5.5h-3.993a.5.5 0 1 0 0 1H26A2.5 2.5 0 0 1 28.5 9v3.07a.5.5 0 0 0 1 0V9A3.504 3.504 0 0 0 26 5.5M10.007 5.5H6A3.504 3.504 0 0 0 2.5 9v3.01a.5.5 0 0 0 1 0V9A2.5 2.5 0 0 1 6 6.5h4.007a.5.5 0 0 0 0-1M10.007 25.5H6A2.5 2.5 0 0 1 3.5 23v-2.99a.5.5 0 0 0-1 0V23A3.505 3.505 0 0 0 6 26.5h4.007a.5.5 0 0 0 0-1M29 19.57a.5.5 0 0 0-.5.5V23a2.5 2.5 0 0 1-2.5 2.5h-3.993a.5.5 0 1 0 0 1H26a3.505 3.505 0 0 0 3.5-3.5v-2.93a.497.497 0 0 0-.5-.5"/></svg>