<svg xmlns="http://www.w3.org/2000/svg" width="32" height="32" viewBox="0 0 32 32"><path d="M25.007 12.5H29a.5.5 0 0 0 0-1h-3.993a2.485 2.485 0 0 1-2.5-2.465V6a.5.5 0 0 0-1 0v3.035a3.487 3.487 0 0 0 3.5 3.465M10.007 5.5a.5.5 0 0 0-.5.5v3.01a2.5 2.5 0 0 1-2.5 2.5H3a.5.5 0 0 0 0 1h4.007a3.504 3.504 0 0 0 3.5-3.5V6a.5.5 0 0 0-.5-.5M7.007 19.51H3a.5.5 0 0 0 0 1h4.007a2.5 2.5 0 0 1 2.5 2.5V26a.5.5 0 0 0 1 0v-2.99a3.505 3.505 0 0 0-3.5-3.5M29 19.5h-3.993a3.52 3.52 0 0 0-3.5 3.536V26a.5.5 0 1 0 1 0v-2.964a2.52 2.52 0 0 1 2.5-2.536H29a.5.5 0 0 0 0-1"/></svg>