<svg xmlns="http://www.w3.org/2000/svg" width="32" height="32" viewBox="0 0 32 32"><path d="M26 5.25h-3.993a.75.75 0 1 0 0 1.5H26A2.253 2.253 0 0 1 28.25 9v3.07a.75.75 0 1 0 1.5 0V9A3.754 3.754 0 0 0 26 5.25M10.007 5.25H6A3.755 3.755 0 0 0 2.25 9v3.01a.75.75 0 0 0 1.5 0V9A2.253 2.253 0 0 1 6 6.75h4.007a.75.75 0 0 0 0-1.5M10.007 25.25H6A2.253 2.253 0 0 1 3.75 23v-2.99a.75.75 0 1 0-1.5 0V23A3.755 3.755 0 0 0 6 26.75h4.007a.75.75 0 0 0 0-1.5M29 19.32a.75.75 0 0 0-.75.75V23A2.253 2.253 0 0 1 26 25.25h-3.993a.75.75 0 1 0 0 1.5H26A3.754 3.754 0 0 0 29.75 23v-2.93a.75.75 0 0 0-.75-.75"/></svg>