<svg xmlns="http://www.w3.org/2000/svg" width="32" height="32" viewBox="0 0 32 32"><path d="M28 9a3 3 0 0 0-3-3H7a3 3 0 0 0-3 3v14a3 3 0 0 0 3 3h18a3 3 0 0 0 3-3zm-3-5a5 5 0 0 1 5 5v14a5 5 0 0 1-5 5H7a5 5 0 0 1-5-5V9a5 5 0 0 1 5-5zM11.88 16.82a1.31 1.31 0 0 1 1.41 1.04h1.67a2.56 2.56 0 0 0-.94-1.55 3.36 3.36 0 0 0-2.14-.66 3.48 3.48 0 0 0-2.42.82 3.7 3.7 0 0 0-1.09 2.9c-.053.979.24 1.945.83 2.729a2.93 2.93 0 0 0 2.37 1.05 2.63 2.63 0 0 0 2.07-.82l.24.67h1.08V18.99h-3.15v1.09h1.7v.51a1.23 1.23 0 0 1-.41.94 1.68 1.68 0 0 1-1.21.44 1.49 1.49 0 0 1-1.19-.53 3.1 3.1 0 0 1-.58-2.07 3.35 3.35 0 0 1 .44-1.88 1.49 1.49 0 0 1 1.32-.67M17.87 15.8h-1.68V23h1.68zM19.167 22.999h1.68v-2.91h2.58v-1.16h-2.58v-1.92h2.89v-1.21h-4.57z"/></svg>