<svg xmlns="http://www.w3.org/2000/svg" width="32" height="32" viewBox="0 0 32 32"><path d="M23 2H9a5.006 5.006 0 0 0-5 5v18a5.006 5.006 0 0 0 5 5h14a5.006 5.006 0 0 0 5-5V7a5.006 5.006 0 0 0-5-5Zm3 23a3.004 3.004 0 0 1-3 3H9a3.003 3.003 0 0 1-3-3V7a3.003 3.003 0 0 1 3-3h14a3.003 3.003 0 0 1 3 3v18Z"/><path d="M11.88 18.82a1.312 1.312 0 0 1 1.41 1.04h1.67a2.558 2.558 0 0 0-.94-1.55 3.361 3.361 0 0 0-2.14-.66 3.48 3.48 0 0 0-2.42.82 3.7 3.7 0 0 0-1.09 2.9c-.053.979.24 1.945.83 2.729a2.93 2.93 0 0 0 2.37 1.05 2.625 2.625 0 0 0 2.07-.82l.24.67h1.08V20.99h-3.15v1.09h1.7v.51a1.23 1.23 0 0 1-.41.94 1.678 1.678 0 0 1-1.21.44 1.486 1.486 0 0 1-1.19-.53 3.108 3.108 0 0 1-.58-2.07 3.352 3.352 0 0 1 .44-1.88 1.488 1.488 0 0 1 1.32-.67ZM17.87 17.8h-1.68V25h1.68v-7.2ZM19.167 24.999h1.68v-2.91h2.58v-1.16h-2.58v-1.92h2.89v-1.21h-4.57v7.2Z"/></svg>