<svg xmlns="http://www.w3.org/2000/svg" width="32" height="32" viewBox="0 0 32 32"><path d="M23 2.25H9A4.755 4.755 0 0 0 4.25 7v18A4.755 4.755 0 0 0 9 29.75h14A4.755 4.755 0 0 0 27.75 25V7A4.756 4.756 0 0 0 23 2.25ZM26.25 25A3.254 3.254 0 0 1 23 28.25H9A3.254 3.254 0 0 1 5.75 25V7A3.254 3.254 0 0 1 9 3.75h14A3.254 3.254 0 0 1 26.25 7v18Z"/><path d="M11.892 22h1.95v.54a1.48 1.48 0 0 1-.49 1.12 1.958 1.958 0 0 1-1.4.51 1.794 1.794 0 0 1-1.37-.59 3.136 3.136 0 0 1-.7-2.2 3.365 3.365 0 0 1 .52-2 1.8 1.8 0 0 1 1.54-.75c.383-.014.762.083 1.09.28a1.509 1.509 0 0 1 .67.979h1.261c-.089-.6-.4-1.146-.87-1.53a3.24 3.24 0 0 0-2.15-.71 3.25 3.25 0 0 0-2.29.82 3.753 3.753 0 0 0-1.09 2.91 4.14 4.14 0 0 0 .82 2.69 2.897 2.897 0 0 0 2.37 1.08c.43.006.855-.077 1.25-.245.356-.15.668-.385.91-.685l.18.78h.88V21.07h-3.08l-.001.93ZM17.595 17.8h-1.28V25h1.28v-7.2ZM19.015 24.999h1.28v-2.99h2.859v-.97h-2.859v-2.24h3.19v-1h-4.47v7.2Z"/></svg>