<svg xmlns="http://www.w3.org/2000/svg" width="32" height="32" viewBox="0 0 32 32"><path d="M28.5 9A3.5 3.5 0 0 0 25 5.5H7A3.5 3.5 0 0 0 3.5 9v14A3.5 3.5 0 0 0 7 26.5h18a3.5 3.5 0 0 0 3.5-3.5zM25 4.5A4.5 4.5 0 0 1 29.5 9v14a4.5 4.5 0 0 1-4.5 4.5H7A4.5 4.5 0 0 1 2.5 23V9A4.5 4.5 0 0 1 7 4.5zM11.921 19.95h2.11v.56a1.61 1.61 0 0 1-.54 1.23 2.12 2.12 0 0 1-1.52.57 1.98 1.98 0 0 1-1.49-.64 3.13 3.13 0 0 1-.78-2.28 3.38 3.38 0 0 1 .58-2.08 1.99 1.99 0 0 1 1.68-.81c.44-.015.875.1 1.25.33a1.58 1.58 0 0 1 .73 1.08h1a2.37 2.37 0 0 0-.84-1.521 3.14 3.14 0 0 0-2.14-.74 3.12 3.12 0 0 0-2.21.82 3.8 3.8 0 0 0-1.09 2.92 4.15 4.15 0 0 0 .81 2.66 2.9 2.9 0 0 0 2.38 1.101c.42.006.835-.076 1.22-.24.398-.156.742-.424.99-.77l.14.86h.75v-3.87h-3.03zM17.417 15.8h-1.02V23h1.02zM18.936 22.999h1.019v-3.04h3.04v-.849h-3.04v-2.45h3.391v-.861h-4.41z"/></svg>