<svg xmlns="http://www.w3.org/2000/svg" width="32" height="32" viewBox="0 0 32 32"><path d="M23 2.5H9A4.505 4.505 0 0 0 4.5 7v18A4.505 4.505 0 0 0 9 29.5h14a4.504 4.504 0 0 0 4.5-4.5V7A4.505 4.505 0 0 0 23 2.5M26.5 25a3.504 3.504 0 0 1-3.5 3.5H9A3.504 3.504 0 0 1 5.5 25V7A3.504 3.504 0 0 1 9 3.5h14A3.504 3.504 0 0 1 26.5 7zM11.921 21.95h2.11v.56a1.61 1.61 0 0 1-.54 1.23 2.12 2.12 0 0 1-1.52.57 1.98 1.98 0 0 1-1.49-.64 3.13 3.13 0 0 1-.78-2.28 3.38 3.38 0 0 1 .58-2.08 1.99 1.99 0 0 1 1.68-.81c.44-.015.875.1 1.25.33a1.58 1.58 0 0 1 .73 1.08h1a2.37 2.37 0 0 0-.84-1.521 3.14 3.14 0 0 0-2.14-.74 3.12 3.12 0 0 0-2.21.82 3.8 3.8 0 0 0-1.09 2.92 4.15 4.15 0 0 0 .81 2.66 2.9 2.9 0 0 0 2.38 1.101c.42.006.835-.076 1.22-.24.398-.156.742-.424.99-.77l.14.86h.75v-3.87h-3.03zM17.417 17.8h-1.02V25h1.02zM18.936 24.999h1.019v-3.04h3.04v-.849h-3.04v-2.45h3.391v-.861h-4.41z"/></svg>