<svg xmlns="http://www.w3.org/2000/svg" width="32" height="32" viewBox="0 0 32 32"><path d="M23 2.5H9A4.505 4.505 0 0 0 4.5 7v18c0 2.482 2.019 4.5 4.5 4.5h14c2.482 0 4.5-2.018 4.5-4.5V7c0-2.482-2.018-4.5-4.5-4.5m.736 16.51h-2.89v1.92h2.581v1.16h-2.58V25h-1.68v-7.2h4.57zM17.87 17.8V25h-1.68v-7.2zm-5.99-.15q1.3 0 2.14.659.74.58.94 1.55h-1.67q-.28-1.04-1.41-1.04-.87 0-1.32.67-.44.65-.44 1.88 0 1.401.58 2.07.45.53 1.19.53.75 0 1.21-.44.41-.38.41-.94v-.51h-1.7v-1.09h3.15V25h-1.08l-.24-.67q-.73.82-2.07.82-1.491 0-2.37-1.05-.83-1.01-.83-2.73 0-1.92 1.09-2.9.91-.82 2.42-.82"/></svg>