<svg xmlns="http://www.w3.org/2000/svg" width="32" height="32" viewBox="0 0 32 32"><path d="M23 2.5H9A4.505 4.505 0 0 0 4.5 7v18c0 2.482 2.019 4.5 4.5 4.5h14c2.482 0 4.5-2.018 4.5-4.5V7c0-2.482-2.018-4.5-4.5-4.5Zm.736 16.51h-2.89v1.92h2.581v1.16h-2.58V25h-1.68v-7.2h4.57v1.21ZM17.87 17.8V25h-1.68v-7.2h1.68Zm-5.99-.15c.866 0 1.58.22 2.14.659.494.387.806.904.94 1.55h-1.67c-.186-.693-.657-1.04-1.41-1.04-.58 0-1.02.224-1.32.67-.293.434-.44 1.06-.44 1.88 0 .934.194 1.624.58 2.07.3.353.697.53 1.19.53.5 0 .903-.146 1.21-.44.273-.253.41-.566.41-.94v-.51h-1.7v-1.09h3.15V25h-1.08l-.24-.67c-.486.547-1.177.82-2.07.82-.994 0-1.784-.35-2.37-1.05-.553-.673-.83-1.583-.83-2.73 0-1.28.364-2.247 1.09-2.9.607-.546 1.413-.82 2.42-.82Z"/></svg>