<svg xmlns="http://www.w3.org/2000/svg" width="32" height="32" viewBox="0 0 32 32"><path d="M8.25 6.5A4.25 4.25 0 0 1 16 4.088a4.25 4.25 0 1 1 6.74 5.162H28c.966 0 1.75.784 1.75 1.75v4A1.75 1.75 0 0 1 28 16.75h-.25V26A3.75 3.75 0 0 1 24 29.75H8A3.75 3.75 0 0 1 4.25 26v-9.25H4A1.75 1.75 0 0 1 2.25 15v-4c0-.966.784-1.75 1.75-1.75h5.26A4.23 4.23 0 0 1 8.25 6.5m8.5 4.25v4.5H28a.25.25 0 0 0 .25-.25v-4a.25.25 0 0 0-.25-.25zm-1.5-1.5V6.5a2.75 2.75 0 1 0-2.75 2.75zm0 1.5H4a.25.25 0 0 0-.25.25v4c0 .138.112.25.25.25h11.25zm4.25-1.5a2.75 2.75 0 1 0-2.75-2.75v2.75zm-2.75 7.5v11.5H24A2.25 2.25 0 0 0 26.25 26v-9.25zm-1.5 0h-9.5V26A2.25 2.25 0 0 0 8 28.25h7.25z"/></svg>