<svg xmlns="http://www.w3.org/2000/svg" width="32" height="32" viewBox="0 0 32 32"><path d="M8.5 6.5A4 4 0 0 1 16 4.562 4 4 0 1 1 22.146 9.5H28a1.5 1.5 0 0 1 1.5 1.5v4a1.5 1.5 0 0 1-1.5 1.5h-.5V26a3.5 3.5 0 0 1-3.5 3.5H8A3.5 3.5 0 0 1 4.5 26v-9.5H4A1.5 1.5 0 0 1 2.5 15v-4A1.5 1.5 0 0 1 4 9.5h5.854a4 4 0 0 1-1.354-3m8 4v5H28a.5.5 0 0 0 .5-.5v-4a.5.5 0 0 0-.5-.5zm-1-1v-3a3 3 0 1 0-3 3zm0 1H4a.5.5 0 0 0-.5.5v4a.5.5 0 0 0 .5.5h11.5zm4-1a3 3 0 1 0-3-3v3zm-3 7v12H24a2.5 2.5 0 0 0 2.5-2.5v-9.5zm-1 0h-10V26A2.5 2.5 0 0 0 8 28.5h7.5z"/></svg>