<svg xmlns="http://www.w3.org/2000/svg" width="33" height="33" fill="none" viewBox="0 0 33 33"><path fill="#188038" d="m18.695 16.77 2.73 3.12 3.67 2.32.64-5.42-.64-5.324-3.74 2.06z"/><path fill="#1967D2" d="M2.855 21.73v4.64c0 1.061.86 1.92 1.92 1.92h4.64l.96-3.507-.96-3.053-3.183-.96z"/><path fill="#EA4335" d="m9.416 5.25-6.56 6.56 3.376.96 3.184-.96.944-3.013z"/><path fill="#4285F4" d="M9.416 11.81h-6.56v9.92h6.56z"/><path fill="#34A853" d="m29.286 8.027-4.19 3.439V22.21l4.208 3.579a.96.96 0 0 0 1.552-.757V8.77a.96.96 0 0 0-1.57-.743"/><path fill="#34A853" d="M18.696 16.77v4.96h-9.28v6.56h13.76c1.06 0 1.92-.86 1.92-1.92v-4.16z"/><path fill="#FBBC04" d="M23.176 5.25H9.416v6.56h9.28v4.96l6.4-5.304V7.17c0-1.061-.86-1.92-1.92-1.92"/></svg>