<svg xmlns="http://www.w3.org/2000/svg" width="32" height="32" fill="none" viewBox="0 0 32 32"><path fill="#188038" d="m17.84 16 2.73 3.12 3.67 2.32.64-5.42-.64-5.324-3.741 2.06z"/><path fill="#1967D2" d="M2 20.96v4.64c0 1.06.859 1.92 1.92 1.92h4.64l.96-3.507-.96-3.053L5.376 20z"/><path fill="#EA4335" d="M8.56 4.48 2 11.04l3.376.96 3.184-.96.944-3.013z"/><path fill="#4285F4" d="M8.56 11.04H2v9.92h6.56z"/><path fill="#34A853" d="m28.43 7.257-4.19 3.439V21.44l4.208 3.58A.96.96 0 0 0 30 24.261V8a.96.96 0 0 0-1.57-.743"/><path fill="#34A853" d="M17.84 16v4.96H8.56v6.56h13.76c1.06 0 1.92-.86 1.92-1.92v-4.16z"/><path fill="#FBBC04" d="M22.32 4.48H8.56v6.56h9.28V16l6.4-5.304V6.4c0-1.061-.86-1.92-1.92-1.92"/></svg>