<svg xmlns="http://www.w3.org/2000/svg" width="26" height="26" fill="none" viewBox="0 0 26 26"><path fill="#188038" d="m14.388 13 2.06 2.354 2.768 1.75.483-4.088-.483-4.018-2.822 1.555L14.388 13Z"/><path fill="#1967D2" d="M2.438 16.742v3.5c0 .801.648 1.45 1.448 1.45h3.5l.725-2.646-.724-2.304-2.402-.724-2.548.724Z"/><path fill="#EA4335" d="m7.387 4.309-4.95 4.949 2.548.724 2.402-.724.712-2.273-.712-2.676Z"/><path fill="#4285F4" d="M7.387 9.258h-4.95v7.484h4.95V9.258Z"/><path fill="#34A853" d="m22.378 6.404-3.161 2.594v8.106l3.174 2.7a.725.725 0 0 0 1.171-.57V6.963a.725.725 0 0 0-1.184-.56Z"/><path fill="#34A853" d="M14.388 13v3.742H7.387v4.95h10.381c.8 0 1.449-.649 1.449-1.45v-3.138L14.388 13Z"/><path fill="#FBBC04" d="M17.768 4.309H7.387v4.949h7.001V13l4.829-4.002v-3.24c0-.801-.648-1.45-1.449-1.45Z"/></svg>