<svg xmlns="http://www.w3.org/2000/svg" width="32" height="32" fill="none" viewBox="0 0 32 32"><path fill="#188038" d="m17.708 16 2.535 2.897 3.408 2.154.594-5.032-.594-4.944-3.474 1.913L17.708 16Z"/><path fill="#1967D2" d="M3 20.606v4.308c0 .985.798 1.783 1.783 1.783H9.09l.892-3.256-.892-2.835-2.956-.892L3 20.606Z"/><path fill="#EA4335" d="M9.091 5.303 3 11.394l3.135.892 2.956-.892.877-2.797-.877-3.294Z"/><path fill="#4285F4" d="M9.091 11.394H3v9.212h6.091v-9.212Z"/><path fill="#34A853" d="m27.542 7.882-3.89 3.193v9.976l3.907 3.324a.892.892 0 0 0 1.44-.703v-15.1a.892.892 0 0 0-1.457-.69ZM17.709 16v4.606H9.09v6.09H21.87c.985 0 1.782-.797 1.782-1.782v-3.863L17.71 16Z"/><path fill="#FBBC04" d="M21.868 5.303H9.091v6.091h8.618V16l5.942-4.925v-3.99c0-.984-.797-1.782-1.783-1.782Z"/></svg>