<svg xmlns="http://www.w3.org/2000/svg" width="32" height="32" viewBox="0 0 32 32"><path d="M14.91 6.975c.43-.93 1.75-.93 2.18 0l1.276 2.768 3.027.359c1.017.12 1.426 1.377.674 2.072l-2.238 2.07.594 2.99c.2 1.004-.87 1.781-1.763 1.28L16 17.027l-2.66 1.489c-.893.5-1.963-.277-1.763-1.281l.594-2.99-2.238-2.07c-.752-.695-.343-1.952.674-2.072l3.027-.36 1.276-2.767ZM16 9.388l-.738 1.6a1.2 1.2 0 0 1-.948.688l-1.75.208 1.294 1.196a1.2 1.2 0 0 1 .362 1.115l-.343 1.728 1.537-.86a1.2 1.2 0 0 1 1.172 0l1.537.86-.343-1.728a1.2 1.2 0 0 1 .362-1.115l1.294-1.196-1.75-.208a1.2 1.2 0 0 1-.948-.689L16 9.387ZM11 21.5a1 1 0 0 0 1 1h8a1 1 0 1 0 0-2h-8a1 1 0 0 0-1 1Z"/><path d="M4 7a5 5 0 0 1 5-5h14a5 5 0 0 1 5 5v18a5 5 0 0 1-5 5H9a5 5 0 0 1-5-5V7Zm5-3a3 3 0 0 0-3 3v18a3 3 0 0 0 3 3h14a3 3 0 0 0 3-3V7a3 3 0 0 0-3-3H9Z"/></svg>