<svg xmlns="http://www.w3.org/2000/svg" width="32" height="32" viewBox="0 0 32 32"><path d="M15.364 7.184a.7.7 0 0 1 1.272 0l1.394 3.023 3.305.391a.7.7 0 0 1 .392 1.21l-2.443 2.259.649 3.264a.7.7 0 0 1-1.029.748L16 16.453l-2.904 1.626a.7.7 0 0 1-1.029-.748l.649-3.264-2.443-2.26a.7.7 0 0 1 .392-1.209l3.305-.392zM16 8.194l-1.192 2.584a.7.7 0 0 1-.553.402l-2.826.335 2.09 1.932a.7.7 0 0 1 .21.65l-.554 2.791 2.483-1.39a.7.7 0 0 1 .684 0l2.483 1.39-.555-2.79a.7.7 0 0 1 .212-.651l2.089-1.932-2.826-.335a.7.7 0 0 1-.553-.402zM11.5 21.5a.5.5 0 0 0 .5.5h8a.5.5 0 0 0 0-1h-8a.5.5 0 0 0-.5.5M4.5 7A4.5 4.5 0 0 1 9 2.5h14A4.5 4.5 0 0 1 27.5 7v18a4.5 4.5 0 0 1-4.5 4.5H9A4.5 4.5 0 0 1 4.5 25zM9 3.5A3.5 3.5 0 0 0 5.5 7v18A3.5 3.5 0 0 0 9 28.5h14a3.5 3.5 0 0 0 3.5-3.5V7A3.5 3.5 0 0 0 23 3.5z"/></svg>