<svg xmlns="http://www.w3.org/2000/svg" width="32" height="32" viewBox="0 0 32 32"><path d="M18.904 4.785c2.143.62 4.112 1.525 5.45 2.862 2.627 2.627 3.403 6.035 3.144 9.144-.24 2.87-1.365 5.548-2.803 7.197l3.659 3.658a.5.5 0 0 1-.708.708l-3.658-3.66c-1.65 1.44-4.326 2.565-7.197 2.804-3.11.26-6.517-.517-9.145-3.144-1.337-1.337-2.242-3.306-2.861-5.45-.622-2.151-.97-4.53-1.159-6.736a61 61 0 0 1-.128-8.155l.002-.034v-.011L4 4l-.033-.499h.012l.033-.003a21 21 0 0 1 .621-.03 60.997 60.997 0 0 1 7.534.16c2.206.188 4.585.536 6.737 1.157m7.598 11.924c.24-2.891-.484-5.983-2.856-8.355-1.163-1.164-2.944-2.008-5.02-2.608-2.066-.597-4.375-.937-6.544-1.123a60 60 0 0 0-7.607-.148l-.009.2a60.002 60.002 0 0 0 .157 7.407c.186 2.17.526 4.479 1.123 6.545.6 2.076 1.444 3.857 2.607 5.02 2.372 2.372 5.464 3.096 8.355 2.855 2.669-.223 5.105-1.263 6.57-2.516L20.794 21.5H13a.5.5 0 0 1 0-1h6.793l-3-3H10a.5.5 0 0 1 0-1h5.793l-3-3H8a.5.5 0 0 1 0-1h3.793L7.646 8.354a.5.5 0 1 1 .708-.708l4.146 4.147V8a.5.5 0 0 1 1 0v4.793l3 3V10a.5.5 0 0 1 1 0v6.793l3 3V13a.5.5 0 0 1 1 0v7.793l2.486 2.486c1.253-1.466 2.293-3.902 2.515-6.57M3.967 3.501a.5.5 0 0 0-.466.466L3.999 4z"/></svg>