<svg xmlns="http://www.w3.org/2000/svg" width="32" height="32" viewBox="0 0 32 32"><path d="m16 9.387-.738 1.6a1.2 1.2 0 0 1-.948.69l-1.75.207 1.294 1.196a1.2 1.2 0 0 1 .362 1.115l-.343 1.727 1.537-.86a1.2 1.2 0 0 1 1.172 0l1.537.86-.343-1.727a1.2 1.2 0 0 1 .362-1.115l1.294-1.196-1.75-.208a1.2 1.2 0 0 1-.948-.689zM8.5 2.5a4 4 0 0 0-4 4v19a4 4 0 0 0 4 4h15a4 4 0 0 0 4-4v-19a4 4 0 0 0-4-4zm6.41 4.475c.43-.93 1.75-.93 2.18 0l1.276 2.768 3.028.359c1.016.12 1.425 1.377.673 2.072l-2.238 2.07.594 2.99c.2 1.004-.87 1.781-1.763 1.28L16 17.027l-2.66 1.489c-.893.5-1.963-.277-1.763-1.281l.594-2.99-2.238-2.07c-.752-.695-.343-1.952.674-2.072l3.027-.36zM20 22.5h-8a1 1 0 0 1 0-2h8a1 1 0 1 1 0 2"/></svg>