<svg xmlns="http://www.w3.org/2000/svg" width="32" height="32" viewBox="0 0 32 32"><path d="M18.973 4.545c2.16.624 4.177 1.545 5.557 2.925 2.691 2.691 3.48 6.178 3.217 9.342-.234 2.813-1.307 5.456-2.713 7.162l3.496 3.496a.75.75 0 1 1-1.06 1.06l-3.496-3.496c-1.706 1.407-4.349 2.48-7.162 2.714-3.164.263-6.651-.526-9.343-3.218-1.38-1.38-2.3-3.396-2.924-5.556-.628-2.173-.978-4.57-1.168-6.785a61 61 0 0 1-.129-8.191l.002-.035.001-.009v-.003l.749.05-.05-.75h.013000000000000001l.034-.002a22 22 0 0 1 .626-.031 61.252 61.252 0 0 1 7.566.16c2.214.19 4.61.54 6.784 1.167m7.28 12.143c.236-2.836-.475-5.85-2.784-8.158-1.12-1.12-2.854-1.95-4.912-2.544-2.045-.59-4.336-.928-6.496-1.114a60 60 0 0 0-7.346-.157 59.75 59.75 0 0 0 .157 7.346c.185 2.16.523 4.451 1.114 6.497.594 2.058 1.424 3.792 2.544 4.912 2.308 2.308 5.321 3.019 8.157 2.783 2.502-.209 4.783-1.148 6.22-2.285l-2.218-2.218H13a.75.75 0 0 1 0-1.5h6.19l-2.5-2.5H10a.75.75 0 0 1 0-1.5h5.19l-2.5-2.5H8a.75.75 0 0 1 0-1.5h3.19L7.47 8.53a.75.75 0 0 1 1.06-1.06l3.72 3.72V8a.75.75 0 0 1 1.5 0v4.69l2.5 2.5V10a.75.75 0 0 1 1.5 0v6.69l2.5 2.5V13a.75.75 0 0 1 1.5 0v7.69l2.218 2.217c1.136-1.437 2.076-3.718 2.284-6.22M3.95 3.252a.75.75 0 0 0-.699.698L4 4z"/></svg>