<svg xmlns="http://www.w3.org/2000/svg" width="32" height="32" viewBox="0 0 32 32"><path d="M19.043 4.305c2.177.629 4.24 1.564 5.664 2.988 2.755 2.756 3.558 6.321 3.29 9.54-.23 2.76-1.255 5.37-2.628 7.122l3.338 3.338a1 1 0 0 1-1.414 1.414l-3.338-3.337c-1.753 1.373-4.363 2.397-7.122 2.627-3.22.268-6.785-.535-9.54-3.29-1.424-1.423-2.36-3.486-2.988-5.664-.635-2.194-.986-4.609-1.177-6.832a61.5 61.5 0 0 1-.13-8.229l.003-.035v-.012L4 4l-.997-.066a1 1 0 0 1 .932-.932L3.999 4l-.065-.998h.013l.035-.003a22 22 0 0 1 .63-.031 61.497 61.497 0 0 1 7.598.161c2.224.19 4.638.542 6.833 1.176m6.96 12.362c.232-2.781-.466-5.715-2.71-7.96-1.077-1.076-2.764-1.89-4.805-2.48-2.024-.585-4.297-.921-6.449-1.106a60 60 0 0 0-7.084-.165 59.503 59.503 0 0 0 .166 7.084c.184 2.151.52 4.425 1.105 6.448.59 2.042 1.404 3.729 2.48 4.805 2.245 2.244 5.18 2.942 7.96 2.71 2.334-.194 4.462-1.036 5.862-2.06L20.586 22H13a1 1 0 1 1 0-2h5.586l-2-2H10a1 1 0 1 1 0-2h4.586l-2-2H8a1 1 0 1 1 0-2h2.586L7.293 8.707a1 1 0 0 1 1.414-1.414L12 10.586V8a1 1 0 1 1 2 0v4.586l2 2V10a1 1 0 1 1 2 0v6.586l2 2V13a1 1 0 1 1 2 0v7.586l1.942 1.942c1.025-1.4 1.867-3.527 2.061-5.861"/></svg>