<svg xmlns="http://www.w3.org/2000/svg" width="32" height="32" viewBox="0 0 32 32"><path d="M15.137 7.08a.95.95 0 0 1 1.726 0l1.335 2.895 3.166.375a.95.95 0 0 1 .533 1.64l-2.34 2.166.62 3.127a.95.95 0 0 1-1.395 1.014L16 16.739l-2.782 1.558a.95.95 0 0 1-1.396-1.014l.622-3.127-2.341-2.165a.95.95 0 0 1 .533-1.64l3.166-.376zM16 8.79l-.965 2.093a.95.95 0 0 1-.75.545l-2.288.271 1.691 1.564a.95.95 0 0 1 .287.883l-.45 2.26 2.011-1.126a.95.95 0 0 1 .928 0l2.01 1.125-.449-2.26a.95.95 0 0 1 .287-.882l1.691-1.564-2.287-.271a.95.95 0 0 1-.751-.546zM11.25 21.5c0 .414.336.75.75.75h8a.75.75 0 0 0 0-1.5h-8a.75.75 0 0 0-.75.75M4.25 7A4.75 4.75 0 0 1 9 2.25h14A4.75 4.75 0 0 1 27.75 7v18A4.75 4.75 0 0 1 23 29.75H9A4.75 4.75 0 0 1 4.25 25zM9 3.75A3.25 3.25 0 0 0 5.75 7v18A3.25 3.25 0 0 0 9 28.25h14A3.25 3.25 0 0 0 26.25 25V7A3.25 3.25 0 0 0 23 3.75z"/></svg>