<svg xmlns="http://www.w3.org/2000/svg" width="32" height="32" viewBox="0 0 32 32"><path d="M18.5 3.828a.5.5 0 0 1 .5-.5h6.364a.5.5 0 0 1 .5.5v6.364a.5.5 0 0 1-1 0V5.035l-3.39 3.39a.5.5 0 1 1-.706-.708l3.389-3.389H19a.5.5 0 0 1-.5-.5Zm-3 9.922a.75.75 0 1 1-1.5 0 .75.75 0 0 1 1.5 0Zm2.25-2.25a.75.75 0 1 0 0-1.5.75.75 0 0 0 0 1.5ZM2.5 24.304C2.5 21.931 6.46 17.5 16 17.5s13.5 4.431 13.5 6.804v1.467a2.73 2.73 0 0 1-2.728 2.729h-3.44a2.81 2.81 0 0 1-2.832-2.71v-1.867A7.024 7.024 0 0 0 16 22.5a7.004 7.004 0 0 0-4.5 1.428v1.853A2.713 2.713 0 0 1 8.799 28.5H5.23A2.731 2.731 0 0 1 2.5 25.77v-1.467Zm25.494 2.689a1.73 1.73 0 0 0 .506-1.222v-1.467c0-1.708-3.596-5.804-12.5-5.804-8.903 0-12.5 4.096-12.5 5.804v1.467A1.73 1.73 0 0 0 5.23 27.5h3.57a1.713 1.713 0 0 0 1.702-1.72v-1.938c0-1 2.718-2.342 5.5-2.342 2.78 0 5.5 1.337 5.5 2.337l-.002 1.953a1.82 1.82 0 0 0 1.832 1.71h3.441a1.73 1.73 0 0 0 1.222-.507Z"/></svg>