<svg xmlns="http://www.w3.org/2000/svg" width="32" height="32" viewBox="0 0 32 32"><path d="M19 2a1 1 0 1 0 0 2h4.586l-3.293 3.293a1 1 0 0 0 1.414 1.414L25 5.414V10a1 1 0 1 0 2 0V3a1 1 0 0 0-1-1h-7Zm.5 9.25a1.25 1.25 0 1 1-2.5 0 1.25 1.25 0 0 1 2.5 0Zm-3 3a1.25 1.25 0 1 1-2.5 0 1.25 1.25 0 0 1 2.5 0ZM16 17.5c-9.54 0-13.5 4.432-13.5 6.805v1.466A2.731 2.731 0 0 0 5.229 28.5h3.569A2.713 2.713 0 0 0 11.5 25.78v-1.853A7.006 7.006 0 0 1 16 22.5a7.024 7.024 0 0 1 4.5 1.423l-.001 1.867a2.81 2.81 0 0 0 2.832 2.71h3.44A2.73 2.73 0 0 0 29.5 25.77v-1.466c0-2.373-3.96-6.805-13.5-6.805Z"/></svg>