<svg xmlns="http://www.w3.org/2000/svg" width="32" height="32" viewBox="0 0 32 32"><path d="m29.483 20.836-1.46-1.226a.75.75 0 0 0-1.057.092l-.246.293a.77.77 0 0 1-1.092.096.774.774 0 0 1-.093-1.092l.244-.292a.75.75 0 0 0-.092-1.056l-1.46-1.226a.74.74 0 0 0-.547-.172.75.75 0 0 0-.509.264l-6.37 7.591a.75.75 0 0 0 .093 1.057l1.459 1.224a.75.75 0 0 0 1.056-.091l.245-.292a.775.775 0 0 1 1.188.995l-.245.292a.75.75 0 0 0 .092 1.056l1.46 1.225a.75.75 0 0 0 1.056-.092l6.37-7.59a.75.75 0 0 0-.092-1.056m-6.945 7.107-.333-.28a2.275 2.275 0 0 0-3.44-2.885l-.332-.28 5.404-6.442.334.28a2.275 2.275 0 0 0 3.439 2.886l.334.28zM15.955 28.18c-4.799.358-9.47-.605-11.342-2.344a2.35 2.35 0 0 1-.863-1.76c0-5.055 4.694-9.326 10.25-9.326a10.7 10.7 0 0 1 4.677 1.06.75.75 0 0 0 .648-1.354 12 12 0 0 0-1.932-.715 6.25 6.25 0 1 0-6.796-.006C5.826 15.117 2.25 19.293 2.25 24.077a3.82 3.82 0 0 0 1.343 2.858c2.15 1.995 6.491 2.816 10.44 2.816.695 0 1.377-.026 2.034-.075a.75.75 0 0 0-.112-1.496M9.25 8.5a4.75 4.75 0 1 1 9.5 0 4.75 4.75 0 0 1-9.5 0"/></svg>