<svg xmlns="http://www.w3.org/2000/svg" width="32" height="32" viewBox="0 0 32 32"><path d="m29.321 21.027-1.46-1.226a.498.498 0 0 0-.704.062l-.245.292a1.023 1.023 0 1 1-1.568-1.317l.244-.292a.5.5 0 0 0-.063-.704l-1.458-1.225a.501.501 0 0 0-.704.061l-6.37 7.591a.499.499 0 0 0 .062.704l1.459 1.225a.497.497 0 0 0 .704-.062l.245-.292a1.017 1.017 0 0 1 .695-.361.998.998 0 0 1 .748.235 1.025 1.025 0 0 1 .127 1.444l-.245.292a.498.498 0 0 0 .062.704l1.46 1.224a.5.5 0 0 0 .704-.061l6.369-7.59a.498.498 0 0 0-.062-.704Zm-6.752 7.268-.696-.583a2.025 2.025 0 0 0-3.097-2.599l-.696-.584 5.727-6.824.696.585a2.024 2.024 0 0 0 3.096 2.597l.697.584-5.727 6.825Z"/><path d="M15.974 28.43c-4.87.36-9.612-.63-11.53-2.41a2.622 2.622 0 0 1-.944-1.943C3.5 18.885 8.31 14.5 14 14.5a10.97 10.97 0 0 1 4.785 1.084.5.5 0 0 0 .432-.903 11.976 11.976 0 0 0-2.454-.86 6 6 0 1 0-5.505.01C6.3 14.996 2.5 19.21 2.5 24.076a3.58 3.58 0 0 0 1.263 2.675c2.1 1.949 6.366 2.749 10.259 2.749.691 0 1.372-.026 2.026-.074a.5.5 0 0 0 .462-.536.51.51 0 0 0-.536-.462ZM9 8.5a5 5 0 1 1 10 0 5 5 0 0 1-10 0Z"/></svg>