<svg xmlns="http://www.w3.org/2000/svg" width="32" height="32" viewBox="0 0 32 32"><path d="m29.643 20.644-1.46-1.225a1 1 0 0 0-1.408.123l-.247.292a.52.52 0 0 1-.355.185.523.523 0 0 1-.445-.86l.244-.292a1 1 0 0 0-.124-1.407l-1.46-1.226a1 1 0 0 0-1.408.123l-6.37 7.59a1 1 0 0 0 .124 1.41l1.459 1.224a.997.997 0 0 0 1.408-.123l.245-.292a.52.52 0 0 1 .356-.185.5.5 0 0 1 .383.121.524.524 0 0 1 .066.739l-.246.292a1 1 0 0 0 .123 1.409l1.46 1.224a1 1 0 0 0 1.409-.124l6.369-7.59a1 1 0 0 0-.123-1.408m-7.091 6.894a2.523 2.523 0 0 0-2.302-3.558c-.507 0-1.002.15-1.422.435l4.996-5.953a2.526 2.526 0 0 0 3.724 3.123zM19.434 14.231a13 13 0 0 0-1.476-.587 6.5 6.5 0 1 0-7.903.01C5.42 15.198 2 19.342 2 24.076a4.12 4.12 0 0 0 1.423 3.042c2.2 2.042 6.615 2.88 10.621 2.88.697 0 1.383-.025 2.041-.073a1 1 0 0 0 .923-1.072.983.983 0 0 0-1.071-.923c-4.742.354-9.328-.585-11.154-2.278A2.12 2.12 0 0 1 4 24.077C4 19.157 8.58 15 14 15a10.5 10.5 0 0 1 4.569 1.034 1 1 0 0 0 .865-1.803M9.5 8.5a4.5 4.5 0 1 1 9 0 4.5 4.5 0 0 1-9 0"/></svg>