<svg xmlns="http://www.w3.org/2000/svg" width="32" height="32" viewBox="0 0 32 32"><path d="M23 2.25H9A4.755 4.755 0 0 0 4.25 7v18A4.756 4.756 0 0 0 9 29.75h14A4.756 4.756 0 0 0 27.75 25V7A4.755 4.755 0 0 0 23 2.25M5.75 25V7A3.254 3.254 0 0 1 9 3.75h1.25v24.5H9A3.254 3.254 0 0 1 5.75 25m20.5 0A3.254 3.254 0 0 1 23 28.25H11.75V3.75H23A3.254 3.254 0 0 1 26.25 7zM18.75 13a1 1 0 1 0 0-2 1 1 0 0 0 0 2M21 20.25h-1.25V16a.75.75 0 0 0-.75-.75h-1a.75.75 0 1 0 0 1.5h.25v3.5H17a.75.75 0 1 0 0 1.5h4a.75.75 0 1 0 0-1.5"/></svg>