<svg xmlns="http://www.w3.org/2000/svg" width="32" height="32" viewBox="0 0 32 32"><path d="M24.862 18.876a3.082 3.082 0 0 0-4.26.003s-1.473 1.497-1.762 1.806a5.584 5.584 0 0 1-2.77-.513l-3.861 3.862c4.039 3.333 7.686 4.482 10.308 4.482a5.169 5.169 0 0 0 3.626-1.141l1.472-1.472a3.022 3.022 0 0 0 0-4.274l-2.753-2.753ZM4.707 28.707l24-24a1 1 0 1 0-1.414-1.414L12.84 17.747a7.472 7.472 0 0 1-1.578-4.514c.362-.362 1.86-1.835 1.863-1.838a3.011 3.011 0 0 0 0-4.257l-2.753-2.752a3.094 3.094 0 0 0-4.274 0L4.625 5.857c-1.102 1.102-1.423 3.492-.818 6.09.508 2.18 1.877 5.521 5.481 9.35l-5.995 5.996a1 1 0 0 0 1.414 1.414Z"/></svg>