<svg xmlns="http://www.w3.org/2000/svg" width="32" height="32" viewBox="0 0 32 32"><path d="m4.119 6.391-.003.002a3.2 3.2 0 1 1 5.8-2.705l1.854 3.976a2.588 2.588 0 0 1 3.705-.257 2.588 2.588 0 0 1 3.848-.443 2.587 2.587 0 0 1 4.466.39l4.657 9.99a8.71 8.71 0 0 1-4.213 11.574c-3.004 1.401-5.627 1.066-7.935.226-1.139-.414-2.21-.954-3.2-1.458l-.1-.05c-.966-.492-1.843-.94-2.693-1.248l-3.484-1.27-2.21-.804c-1.34-.487-1.587-1.91-1.262-2.995.338-1.133 1.324-2.218 2.856-2.515 1.148-.222 2.296-.053 3.26.2q.319.085.62.18zm1.336-.68.023.047 6.728 14.429a.75.75 0 0 1-.936 1.021q-.21-.076-.446-.167c-.499-.19-1.081-.413-1.74-.586-.86-.225-1.758-.34-2.593-.178-.948.183-1.516.837-1.705 1.47-.203.68.049 1.052.337 1.157l2.219.808 3.477 1.266c.937.342 1.889.826 2.825 1.303l.135.069c.996.507 1.99 1.006 3.032 1.385 2.05.746 4.243 1.01 6.788-.176a7.21 7.21 0 0 0 3.488-9.582l-4.638-9.945-.022-.043a1.087 1.087 0 1 0-1.955.952l1.278 2.741a.75.75 0 1 1-1.36.634l-1.81-3.885-.01-.02a1.087 1.087 0 0 0-1.962.935l.001.004 1.553 3.33a.75.75 0 1 1-1.36.634l-1.55-3.326-.002-.004-.003-.006-.505-1.083-.006-.012-.004-.009a1.087 1.087 0 0 0-1.987.88l1.57 3.369a.75.75 0 1 1-1.36.634l-1.537-3.299a1 1 0 0 1-.042-.09l-2.82-6.046a1.7 1.7 0 0 0-3.101 1.39"/></svg>