<svg xmlns="http://www.w3.org/2000/svg" width="32" height="32" viewBox="0 0 32 32"><path d="m28.548 22.105-2.982-2.982a3.225 3.225 0 0 0-4.556.003s-1.596 1.623-1.922 1.966a8.043 8.043 0 0 1-5.837-2.37 8.354 8.354 0 0 1-2.419-5.77c.394-.395 2.015-1.989 2.018-1.992a3.217 3.217 0 0 0 0-4.552L9.867 3.426a3.31 3.31 0 0 0-4.57 0L3.7 5.019c-1.184 1.185-1.527 3.76-.875 6.559C3.41 14.08 5.042 18 9.507 22.466s8.386 6.098 10.888 6.682c.886.21 1.793.32 2.704.326a5.487 5.487 0 0 0 3.854-1.202l1.595-1.594a3.234 3.234 0 0 0 0-4.573Z"/></svg>