<svg xmlns="http://www.w3.org/2000/svg" width="32" height="32" viewBox="0 0 32 32"><path d="M28.53 3.47a.75.75 0 0 1 0 1.06l-24 24a.75.75 0 0 1-1.06-1.06l24-24a.75.75 0 0 1 1.06 0M15.367 17.692a7 7 0 0 1-.544-.515 7.13 7.13 0 0 1-2.105-3.905l1.25-1.25a3.063 3.063 0 0 0-.086-4.272l-2.433-2.432a2.98 2.98 0 0 0-4.212 0L6.2 6.355c-1.74 1.74-2.137 7.84 4.734 14.71q.27.27.536.524l1.061-1.061a28 28 0 0 1-.536-.523c-6.17-6.17-5.89-11.434-4.735-12.59l1.038-1.037a1.48 1.48 0 0 1 2.09 0l2.433 2.433a1.565 1.565 0 0 1 .087 2.151l-1.382 1.38c-.872.872.299 3.958 2.236 5.896q.264.263.553.506zM16.63 18.552l-1.082 1.08c1.68 1.03 3.48 1.472 4.114.838l1.37-1.37a1.46 1.46 0 0 1 2.066-.013l2.524 2.524a1.48 1.48 0 0 1 0 2.091l-1.038 1.038c-1.05 1.05-5.497 1.377-10.934-3.21l-1.064 1.065c6.178 5.269 11.46 4.804 13.06 3.205l1.036-1.037a2.98 2.98 0 0 0 0-4.212l-2.524-2.524a2.964 2.964 0 0 0-4.186.012l-1.24 1.24a7.1 7.1 0 0 1-2.103-.727"/></svg>