<svg xmlns="http://www.w3.org/2000/svg" width="32" height="32" viewBox="0 0 32 32"><path d="m26.615 22.629-2.753-2.753a3.082 3.082 0 0 0-4.26.003s-1.472 1.497-1.761 1.806a7.279 7.279 0 0 1-5.346-2.18 7.653 7.653 0 0 1-2.233-5.272 628.08 628.08 0 0 1 1.863-1.838 3.015 3.015 0 0 0 0-4.257L9.372 5.386a3.095 3.095 0 0 0-4.275 0L3.625 6.857c-1.883 1.883-2.243 8.556 5.36 16.16 4.912 4.913 9.437 6.5 12.532 6.5a5.169 5.169 0 0 0 3.626-1.142l1.472-1.472a3.027 3.027 0 0 0 0-4.274Z"/><path d="m29.3 12.254-4.986-9.002-.006-.01a1.5 1.5 0 0 0-2.595.009l-5.008 8.993A1.501 1.501 0 0 0 18 14.5h9.998a1.501 1.501 0 0 0 1.302-2.246Zm-7.05-4.812a.75.75 0 1 1 1.5 0V8.75a.75.75 0 1 1-1.5 0V7.442ZM23 12a.75.75 0 1 1 0-1.5.75.75 0 0 1 0 1.5Z"/></svg>