<svg xmlns="http://www.w3.org/2000/svg" width="32" height="32" viewBox="0 0 32 32"><path d="m27.983 21.577-2.806-2.806a3.27 3.27 0 0 0-4.621.004s-1.31 1.332-1.783 1.808A7.48 7.48 0 0 1 11.4 13.21c.476-.474 1.809-1.783 1.812-1.787a3.26 3.26 0 0 0 0-4.617l-2.806-2.806a3.354 3.354 0 0 0-4.634 0l-1.5 1.5c-1.967 1.967-2.386 8.9 5.462 16.748 4.24 4.24 7.973 5.794 10.358 6.349.86.206 1.74.313 2.624.32a5.3 5.3 0 0 0 3.766-1.207l1.5-1.5a3.28 3.28 0 0 0 0-4.634m-.998 3.637-1.5 1.5c-.662.66-2.532 1.104-5.074.51-2.205-.515-5.673-1.967-9.679-5.972-7.199-7.2-6.829-13.386-5.462-14.753l1.5-1.5a1.91 1.91 0 0 1 2.638 0l2.806 2.806a1.85 1.85 0 0 1 .005 2.616s-1.533 1.507-1.902 1.878a1.55 1.55 0 0 0-.339 1.146 9.18 9.18 0 0 0 2.614 5.946c2.324 2.324 6.23 3.14 7.093 2.277.37-.37 1.874-1.9 1.874-1.9a1.856 1.856 0 0 1 2.62 0l2.806 2.807a1.87 1.87 0 0 1 0 2.639"/></svg>