<svg xmlns="http://www.w3.org/2000/svg" width="32" height="32" viewBox="0 0 32 32"><path d="M22.25 7.442V8.75a.75.75 0 1 0 1.5 0V7.442a.75.75 0 0 0-1.5 0ZM23 12a.75.75 0 1 0 0-1.5.75.75 0 0 0 0 1.5Z"/><path d="m29.738 12.011-4.986-9-.012-.019a2 2 0 0 0-3.465.018l-5.002 8.982A2.001 2.001 0 0 0 18.002 15h9.997a2 2 0 0 0 1.74-2.989Zm-11.726.971 4.999-8.986L27.999 13l-9.987-.018Z"/><path d="M9.107 22.843c6.996 6.995 13.264 6.535 15.065 4.734l1.037-1.037a3.232 3.232 0 0 0 0-4.566l-2.524-2.524a3.214 3.214 0 0 0-4.54.012l-1.157 1.157A6.995 6.995 0 0 1 13.35 18.6a7.017 7.017 0 0 1-2.023-3.634l1.168-1.166a3.317 3.317 0 0 0-.086-4.626L9.976 6.74a3.232 3.232 0 0 0-4.566 0L4.373 7.778c-1.8 1.8-2.261 8.069 4.734 15.065ZM6.824 8.155a1.23 1.23 0 0 1 1.738 0l2.433 2.433a1.308 1.308 0 0 1 .087 1.796l-1.383 1.382c-1.08 1.08.327 4.338 2.237 6.248 2.101 2.102 5.257 3.229 6.253 2.233l1.37-1.371a1.212 1.212 0 0 1 1.712-.012l2.524 2.524a1.23 1.23 0 0 1 0 1.738l-1.037 1.037c-1.068 1.067-6.275 1.227-12.236-4.735C4.56 15.468 4.72 10.26 5.786 9.192l1.037-1.037Z"/></svg>