<svg xmlns="http://www.w3.org/2000/svg" width="32" height="32" viewBox="0 0 32 32"><path d="M28.53 4.53a.75.75 0 1 0-1.06-1.06L12.761 18.177a7.12 7.12 0 0 1-1.224-3.867c.478-.474 1.76-1.734 1.764-1.739a3.258 3.258 0 0 0 0-4.61l-2.753-2.753a3.35 3.35 0 0 0-4.627 0L4.449 6.68c-1.18 1.18-1.52 3.603-.886 6.324a20.768 20.768 0 0 0 5.24 9.133L3.47 27.47a.75.75 0 1 0 1.06 1.061l24-24ZM5.025 12.664c-.576-2.474-.152-4.285.485-4.923l1.472-1.472a1.815 1.815 0 0 1 2.507 0l2.753 2.753a1.76 1.76 0 0 1 .005 2.485s-1.504 1.478-1.868 1.842c-.732.732-.263 3.64 1.303 5.91l-1.817 1.817a19.24 19.24 0 0 1-4.84-8.412ZM25.039 19.699a3.333 3.333 0 0 0-4.615.004s-1.261 1.282-1.736 1.76a7.166 7.166 0 0 1-3.791-1.176l-1.089 1.089a9.691 9.691 0 0 0 2.846 1.317c.54.148 2.349.577 2.998-.071.363-.364 1.837-1.863 1.837-1.863a1.804 1.804 0 0 1 2.49 0l2.752 2.753a1.774 1.774 0 0 1 0 2.507l-1.472 1.472c-1.258 1.259-6.726 1.624-13.268-4.298l-1.064 1.064c4.522 4.119 8.666 5.495 11.594 5.495a5.413 5.413 0 0 0 3.799-1.2l1.472-1.472a3.275 3.275 0 0 0 0-4.628l-2.753-2.753Z"/></svg>