<svg xmlns="http://www.w3.org/2000/svg" width="32" height="32" viewBox="0 0 32 32"><path d="m3.893 6.497-.003.001a3.45 3.45 0 1 1 6.253-2.915l1.7 3.646a2.836 2.836 0 0 1 3.59-.178c.258-.3.581-.553.963-.731a2.84 2.84 0 0 1 2.886.289 2.837 2.837 0 0 1 4.733.64l4.658 9.989a8.96 8.96 0 0 1-4.333 11.907c-3.081 1.437-5.776 1.09-8.127.234-1.155-.42-2.239-.967-3.227-1.47l-.093-.047c-.973-.495-1.838-.935-2.673-1.24l-3.48-1.267-2.214-.806c-1.514-.551-1.76-2.148-1.416-3.302.363-1.215 1.418-2.372 3.048-2.688 1.2-.233 2.39-.054 3.37.204l.096.025zm1.789-.892.023.047 6.729 14.43a1 1 0 0 1-1.249 1.361q-.218-.08-.458-.172c-.497-.189-1.062-.405-1.707-.574-.84-.221-1.698-.327-2.481-.175-.85.165-1.348.746-1.513 1.297-.183.612.07.81.183.85l2.2.801 3.496 1.273c.952.347 1.916.838 2.849 1.313l.139.07c.997.508 1.979 1.001 3.004 1.374 2.008.73 4.129.983 6.597-.168a6.96 6.96 0 0 0 3.367-9.25L22.225 8.14l-.023-.046a.837.837 0 1 0-1.5.746l1.275 2.736a1 1 0 1 1-1.812.846l-1.812-3.885-.009-.02a.837.837 0 0 0-1.509.723l.002.004 1.553 3.33a1 1 0 1 1-1.813.845l-1.55-3.325-.003-.004-.003-.008-.503-1.078-.012-.024a.837.837 0 0 0-1.532.673l1.569 3.364a1 1 0 1 1-1.813.845l-1.536-3.293a1 1 0 0 1-.046-.099L8.33 4.428a1.45 1.45 0 0 0-2.648 1.177"/></svg>