<svg xmlns="http://www.w3.org/2000/svg" width="32" height="32" viewBox="0 0 32 32"><path d="m28.897 21.753-2.983-2.986a3.72 3.72 0 0 0-5.265.006s-1.288 1.311-1.833 1.862a7.758 7.758 0 0 1-7.482-7.492c.548-.545 1.859-1.835 1.865-1.841a3.726 3.726 0 0 0 0-5.267L10.216 3.05a3.818 3.818 0 0 0-5.278 0L3.343 4.645C1.191 6.8.683 14.345 9.15 22.823c4.549 4.555 8.561 6.225 11.128 6.823.93.223 1.88.338 2.837.345a5.89 5.89 0 0 0 4.188-1.356l1.595-1.595a3.745 3.745 0 0 0 0-5.287Zm-1.414 3.87-1.595 1.597c-.654.655-2.547 1.085-5.158.476-2.312-.54-5.952-2.068-10.167-6.288C3.037 13.87 3.357 7.463 4.757 6.06l1.595-1.596a1.773 1.773 0 0 1 2.45 0l2.982 2.986a1.722 1.722 0 0 1 .006 2.43s-1.63 1.603-2.022 1.998a1.878 1.878 0 0 0-.434 1.397 10.055 10.055 0 0 0 2.852 6.505c2.607 2.612 6.888 3.431 7.891 2.423.394-.394 1.99-2.02 1.991-2.021a1.72 1.72 0 0 1 2.432 0l2.983 2.986a1.74 1.74 0 0 1 0 2.455Z"/></svg>