<svg xmlns="http://www.w3.org/2000/svg" width="32" height="32" viewBox="0 0 32 32"><path d="M28.707 3.293a1 1 0 0 1 0 1.414l-24 24a1 1 0 0 1-1.414-1.414l24-24a1 1 0 0 1 1.414 0M12.985 23.249c6.065 4.875 11.23 4.335 12.837 2.728l1.038-1.037a3.23 3.23 0 0 0 0-4.566l-2.524-2.524a3.214 3.214 0 0 0-4.54.012l-1.158 1.157a7 7 0 0 1-1.099-.324zM11.472 21.934l4.265-4.265A7 7 0 0 1 15 17a7 7 0 0 1-2.022-3.634l1.168-1.166a3.317 3.317 0 0 0-.087-4.626L11.627 5.14a3.23 3.23 0 0 0-4.566 0L6.023 6.178c-1.8 1.8-2.261 8.069 4.735 15.065q.358.358.714.69"/></svg>