<svg xmlns="http://www.w3.org/2000/svg" width="32" height="32" viewBox="0 0 32 32"><path d="M27.187 5.813A8.76 8.76 0 0 0 16 4.829 8.746 8.746 0 0 0 4.813 18.187s5.104 5.108 8.842 8.844c.894.908 2.343.96 3.299.116.18-.18.33-.39.44-.62l.67.669c.38.364.889.563 1.415.553a2.34 2.34 0 0 0 1.646-.673c.225-.225.4-.494.514-.791a2.249 2.249 0 0 0 2.913-3 2.236 2.236 0 0 0 .971-3.435l1.664-1.663a8.76 8.76 0 0 0 0-12.374m-3.965 15.934-4.692-4.693a.75.75 0 1 0-1.06 1.06l5.56 5.561a.75.75 0 1 1-1.057 1.066l-5.442-5.45a.75.75 0 1 0-1.062 1.06l4.596 4.603a.76.76 0 0 1-.016 1.076c-.249.241-.804.226-1.144-.114l-4.447-4.447a.75.75 0 1 0-1.063 1.058l2.518 2.517a.75.75 0 0 1-.02 1.043c-.304.304-.866.203-1.178-.118-5.072-5.068-8.841-8.843-8.841-8.843a7.248 7.248 0 0 1 8.924-11.298L8.31 12.316a1.67 1.67 0 0 0-.566 1.477 2.07 2.07 0 0 0 1.275 1.475c1.67.88 3.723.52 4.994-.877l2.011-2.013c.031.052 8.233 8.284 8.233 8.284.303.282.303.794.056 1.04-.267.268-.795.314-1.092.045m1.263-2.98-6.177-6.176a5.72 5.72 0 0 0 4.54-1.735.75.75 0 0 0-1.06-1.06 4.47 4.47 0 0 1-5.287.767l-.006-.002a.75.75 0 0 0-.897.122l-2.645 2.648c-.991.99-2.16 1.192-3.25.602a1.7 1.7 0 0 1-.513-.375l6.684-6.684c.06-.061.126-.113.189-.171a7.246 7.246 0 0 1 10.063 10.424z"/></svg>