<svg xmlns="http://www.w3.org/2000/svg" width="32" height="32" viewBox="0 0 32 32"><path d="m29.3 12.254-4.986-9.002-.006-.01a1.5 1.5 0 0 0-2.595.009l-5.008 8.993a1.5 1.5 0 0 0 1.296 2.256h9.998a1.5 1.5 0 0 0 1.302-2.246m-7.05-4.812a.75.75 0 1 1 1.5 0V8.75a.75.75 0 0 1-1.5 0zM23 12a.75.75 0 1 1 0-1.5.75.75 0 0 1 0 1.5M24.172 27.577c-1.8 1.8-8.069 2.261-15.065-4.734C2.112 15.847 2.572 9.579 4.373 7.778L5.41 6.741a3.23 3.23 0 0 1 4.566 0l2.433 2.433a3.317 3.317 0 0 1 .086 4.626l-1.168 1.166A7 7 0 0 0 13.35 18.6a7 7 0 0 0 3.638 2.02l1.157-1.158a3.214 3.214 0 0 1 4.54-.012l2.524 2.524a3.23 3.23 0 0 1 0 4.566z"/></svg>