<svg xmlns="http://www.w3.org/2000/svg" width="32" height="32" viewBox="0 0 32 32"><path d="M23 9.888a.5.5 0 0 0 .5-.5V7.442a.5.5 0 0 0-1 0v1.946a.499.499 0 0 0 .5.5ZM23 11.75a.5.5 0 1 0 0-1 .5.5 0 0 0 0 1Z"/><path d="m29.3 12.254-4.986-9-.006-.01a1.5 1.5 0 0 0-2.595.009l-5.007 8.99a1.5 1.5 0 0 0 1.296 2.257h9.997a1.501 1.501 0 0 0 1.302-2.246Zm-.867.995a.49.49 0 0 1-.434.25h-9.997a.49.49 0 0 1-.434-.25.496.496 0 0 1 .006-.51l5.007-8.991a.5.5 0 0 1 .861-.004l4.99 9.004a.491.491 0 0 1 0 .5Z"/><path d="M23.861 19.876a3.082 3.082 0 0 0-4.26.003s-1.472 1.497-1.761 1.806a7.28 7.28 0 0 1-5.346-2.18 7.653 7.653 0 0 1-2.233-5.272c.362-.362 1.86-1.835 1.863-1.838a3.01 3.01 0 0 0 0-4.257L9.37 5.386a3.095 3.095 0 0 0-4.275 0L3.624 6.857C1.74 8.74 1.38 15.413 8.984 23.017c4.912 4.913 9.437 6.5 12.533 6.5a5.169 5.169 0 0 0 3.625-1.142l1.472-1.472a3.022 3.022 0 0 0 0-4.274l-2.753-2.753Zm2.046 6.32-1.472 1.472c-1.382 1.38-7.586 1.8-14.745-5.359C2.531 15.15 2.95 8.945 4.33 7.564l1.473-1.471a2.025 2.025 0 0 1 2.86 0l2.754 2.752a2.01 2.01 0 0 1 .003 2.84s-1.502 1.477-1.866 1.841c-.58.58-.067 2.532-.006 2.754a9.031 9.031 0 0 0 2.239 3.933c2.303 2.302 5.99 2.93 6.687 2.233.364-.365 1.837-1.863 1.837-1.863a2.057 2.057 0 0 1 2.843 0l2.753 2.753a2.026 2.026 0 0 1 0 2.86Z"/></svg>