<svg xmlns="http://www.w3.org/2000/svg" width="32" height="32" viewBox="0 0 32 32"><path d="M28.707 4.707a1 1 0 0 0-1.414-1.414L14.327 16.259a7 7 0 0 1-1.35-2.893l1.168-1.166a3.317 3.317 0 0 0-.086-4.626L11.627 5.14a3.23 3.23 0 0 0-4.566 0L6.023 6.178c-1.739 1.739-2.228 7.643 4.04 14.346l-6.77 6.769a1 1 0 1 0 1.414 1.414zm-17.23 14.401C6.225 13.452 6.413 8.617 7.437 7.592l1.038-1.037a1.23 1.23 0 0 1 1.737 0l2.433 2.433a1.31 1.31 0 0 1 .087 1.797l-1.382 1.38c-.95.95.022 3.582 1.568 5.503zM25.822 25.977c-1.607 1.607-6.772 2.147-12.837-2.728l1.426-1.426c4.984 3.911 9.066 3.671 9.997 2.74l1.037-1.037a1.23 1.23 0 0 0 0-1.738l-2.523-2.524a1.21 1.21 0 0 0-1.712.012l-1.371 1.37c-.65.65-2.216.397-3.81-.44l1.51-1.51a7 7 0 0 0 1.1.323l1.157-1.157a3.214 3.214 0 0 1 4.54-.012l2.524 2.524a3.23 3.23 0 0 1 0 4.566z"/></svg>