<svg xmlns="http://www.w3.org/2000/svg" width="32" height="32" viewBox="0 0 32 32"><path d="M28.354 4.354a.5.5 0 0 0-.708-.708L14.293 17a7.02 7.02 0 0 1-1.823-3.835l1.321-1.32a2.81 2.81 0 0 0-.086-3.918l-2.433-2.433a2.73 2.73 0 0 0-3.858 0L6.376 6.532c-1.648 1.648-1.999 7.403 4.384 14l-7.114 7.114a.5.5 0 0 0 .708.708zM11.467 19.826C5.536 13.682 5.9 8.424 7.084 7.239L8.12 6.2a1.73 1.73 0 0 1 2.444 0l2.433 2.433a1.82 1.82 0 0 1 .086 2.505l-1.381 1.38c-.664.664.158 3.238 1.893 5.178zM24.761 24.916c-1.137 1.138-6.03 1.518-11.856-3.704l-.709.709c6.289 5.674 11.685 5.29 13.272 3.702l1.038-1.037a2.73 2.73 0 0 0 0-3.858l-2.524-2.524a2.713 2.713 0 0 0-3.834.011l-1.31 1.31a7 7 0 0 1-3.058-1.188l-.695.695c1.795 1.294 3.82 1.84 4.4 1.261l1.37-1.37a1.713 1.713 0 0 1 2.42-.012l2.523 2.524a1.73 1.73 0 0 1 0 2.444z"/></svg>