<svg xmlns="http://www.w3.org/2000/svg" width="32" height="32" viewBox="0 0 32 32"><path d="M28.354 3.646a.5.5 0 0 0-.707 0l-14.929 14.93a7.408 7.408 0 0 1-1.457-4.343c.363-.362 1.86-1.835 1.864-1.838a3.01 3.01 0 0 0 0-4.257l-2.753-2.752a3.094 3.094 0 0 0-4.275 0L4.626 6.857c-1.103 1.102-1.424 3.492-.819 6.09a20.663 20.663 0 0 0 5.342 9.198l-5.502 5.501a.5.5 0 1 0 .707.707l24-24a.5.5 0 0 0 0-.707ZM9.855 21.438a19.648 19.648 0 0 1-5.074-8.717c-.602-2.58-.156-4.45.552-5.157l1.471-1.471a2.072 2.072 0 0 1 2.86 0l2.754 2.752a2.01 2.01 0 0 1 .003 2.84s-1.502 1.477-1.867 1.841c-.608.608-.198 3.501 1.454 5.759l-2.153 2.153ZM24.862 19.876a3.082 3.082 0 0 0-4.26.003s-1.473 1.497-1.762 1.806a7.095 7.095 0 0 1-4.75-1.653l-.708.71c2.296 1.864 5.454 2.341 6.093 1.704.363-.365 1.837-1.863 1.837-1.863a2.058 2.058 0 0 1 2.843 0l2.753 2.753a2.026 2.026 0 0 1 0 2.86l-1.472 1.472c-1.346 1.343-7.256 1.756-14.168-4.814l-.712.713c4.69 4.475 8.986 5.95 11.961 5.95a5.169 5.169 0 0 0 3.626-1.142l1.472-1.472a3.022 3.022 0 0 0 0-4.274l-2.753-2.753Z"/></svg>