<svg xmlns="http://www.w3.org/2000/svg" width="32" height="32" viewBox="0 0 32 32"><path d="M9.026 3.552a.5.5 0 0 1 .665.242l4.399 9.434a.5.5 0 0 1-.906.423l-4.4-9.434a.5.5 0 0 1 .242-.665M15.202 8.104a.5.5 0 0 1 .664.242l2.07 4.44a.5.5 0 0 1-.906.422l-2.07-4.44a.5.5 0 0 1 .242-.664M19.049 7.661a.5.5 0 0 1 .664.242l1.812 3.885a.5.5 0 0 1-.907.422l-1.811-3.884a.5.5 0 0 1 .242-.665M6.193 3.274a1.95 1.95 0 0 1 2.591.943l.907-.423a2.95 2.95 0 0 0-5.347 2.493l.906-.423a1.95 1.95 0 0 1 .943-2.59M13.183 8.122a1.337 1.337 0 0 0-.647 1.777.5.5 0 1 1-.906.422 2.337 2.337 0 1 1 4.236-1.975.5.5 0 0 1-.906.422 1.337 1.337 0 0 0-1.777-.646M17.03 7.68a1.337 1.337 0 0 0-.646 1.776.5.5 0 0 1-.906.422 2.337 2.337 0 0 1 4.235-1.975.5.5 0 1 1-.906.423 1.336 1.336 0 0 0-1.776-.647M20.878 7.236a1.337 1.337 0 0 0-.646 1.777.5.5 0 1 1-.907.423 2.337 2.337 0 0 1 4.236-1.976.5.5 0 1 1-.906.423 1.337 1.337 0 0 0-1.777-.647M4.588 5.622a.5.5 0 0 1 .664.242l6.728 14.428a.5.5 0 0 1-.624.681l-.434-.163c-.501-.19-1.101-.42-1.775-.597-.876-.23-1.816-.354-2.704-.182-1.044.203-1.682.928-1.896 1.645-.223.748.028 1.295.491 1.463l2.216.807 3.48 1.267c.922.336 1.861.814 2.802 1.293l.13.066c.995.507 2.002 1.013 3.06 1.398 2.093.761 4.358 1.038 6.98-.184a7.46 7.46 0 0 0 3.608-9.914l-4.659-9.989a.5.5 0 0 1 .906-.423l4.66 9.989a8.46 8.46 0 0 1-4.093 11.243c-2.928 1.365-5.48 1.041-7.744.217-1.123-.408-2.181-.941-3.172-1.445l-.107-.055c-.96-.489-1.85-.942-2.714-1.256l-3.478-1.267-2.217-.807c-1.163-.424-1.411-1.67-1.107-2.689.313-1.05 1.23-2.062 2.664-2.34 1.096-.213 2.202-.053 3.148.196.411.108.803.236 1.157.362L4.346 6.286a.5.5 0 0 1 .242-.664"/></svg>