<svg xmlns="http://www.w3.org/2000/svg" width="32" height="32" viewBox="0 0 32 32"><path d="M28.707 4.707a1 1 0 1 0-1.414-1.414L13.2 17.386a7.286 7.286 0 0 1-1.432-3.976c.52-.515 1.696-1.674 1.702-1.68a3.519 3.519 0 0 0 0-4.973L10.715 4a3.607 3.607 0 0 0-4.984 0L4.26 5.474c-1.946 1.947-2.44 8.604 4.68 16.173l-5.646 5.646a1 1 0 0 0 1.414 1.414l24-24ZM5.674 6.89l1.472-1.442a1.521 1.521 0 0 1 2.155 0l2.754 2.726a1.514 1.514 0 0 1 .006 2.134s-1.506 1.482-1.871 1.848c-1.144 1.148.08 4.62 1.59 6.65l-1.409 1.409C4.164 13.607 4.44 8.126 5.674 6.89ZM25.213 18.516a3.512 3.512 0 0 0-4.972.006s-1.157 1.179-1.672 1.698a5.998 5.998 0 0 1-2.11-.436L14.93 21.31a10.08 10.08 0 0 0 1.65.623c.911.25 2.543.564 3.242-.135.363-.363 1.838-1.866 1.838-1.866a1.513 1.513 0 0 1 2.137 0l2.754 2.759a1.526 1.526 0 0 1 0 2.157l-1.472 1.437c-1.137 1.136-5.894 1.464-11.79-3.335l-1.444 1.445C15.986 27.82 19.765 29 22.521 29c1.437.1 2.857-.35 3.974-1.26l1.472-1.474a3.53 3.53 0 0 0 0-4.991l-2.754-2.759Z"/></svg>