<svg xmlns="http://www.w3.org/2000/svg" width="32" height="32" viewBox="0 0 32 32"><path d="M27.806 21.744 25 18.938a3.035 3.035 0 0 0-4.286.003s-1.502 1.527-1.808 1.85a7.57 7.57 0 0 1-5.492-2.23 7.86 7.86 0 0 1-2.276-5.43c.37-.37 1.895-1.87 1.898-1.873a3.027 3.027 0 0 0 0-4.284L10.23 4.17a3.115 3.115 0 0 0-4.301 0l-1.5 1.5c-1.116 1.114-1.438 3.536-.824 6.17.548 2.355 2.085 6.043 6.286 10.245s7.89 5.738 10.244 6.287a11.3 11.3 0 0 0 2.544.306 5.16 5.16 0 0 0 3.627-1.13l1.5-1.5a3.04 3.04 0 0 0 0-4.303"/></svg>