<svg xmlns="http://www.w3.org/2000/svg" width="32" height="32" viewBox="0 0 32 32"><path d="m28.735 21.927-2.982-2.982a3.473 3.473 0 0 0-4.912.004s-1.391 1.415-1.894 1.921a7.948 7.948 0 0 1-7.836-7.835c.506-.503 1.922-1.894 1.926-1.899a3.468 3.468 0 0 0 0-4.906l-2.983-2.983a3.564 3.564 0 0 0-4.924 0L3.535 4.841C1.445 6.931 1 14.3 9.34 22.641c4.506 4.508 8.473 6.158 11.007 6.748.914.219 1.85.333 2.79.34a5.64 5.64 0 0 0 4.002-1.282l1.595-1.594a3.482 3.482 0 0 0 0-4.926Zm-1.06 3.865-1.595 1.594c-.703.703-2.69 1.174-5.392.542-2.343-.546-6.03-2.09-10.287-6.347C2.75 13.93 3.143 7.355 4.595 5.901L6.19 4.309a2.028 2.028 0 0 1 2.804 0l2.982 2.982a1.969 1.969 0 0 1 .005 2.78s-1.629 1.602-2.021 1.996a1.652 1.652 0 0 0-.36 1.219 9.761 9.761 0 0 0 2.778 6.32c2.47 2.47 6.62 3.337 7.538 2.42.394-.394 1.991-2.02 1.991-2.02a1.972 1.972 0 0 1 2.785 0l2.983 2.983a1.985 1.985 0 0 1 0 2.804Z"/></svg>