<svg xmlns="http://www.w3.org/2000/svg" width="32" height="32" viewBox="0 0 32 32"><path d="M27.364 5.636A9.01 9.01 0 0 0 15.998 4.52 8.998 8.998 0 0 0 4.636 18.364l.503.502c.095.1 2.9 2.907 8.34 8.342a2.655 2.655 0 0 0 3.652.116q.179-.18.319-.389l.438.438c.427.41 1 .634 1.592.622a2.6 2.6 0 0 0 1.822-.743c.192-.19.351-.412.473-.654a2.499 2.499 0 0 0 3.096-3.182 2.495 2.495 0 0 0 .978-3.537l1.515-1.515c3.514-3.518 3.518-9.214 0-12.728m-3.281 15.91a.5.5 0 0 1-.688.019l-4.688-4.688a1 1 0 0 0-1.414 1.415l5.56 5.56a.5.5 0 1 1-.703.712l-5.443-5.441a1 1 0 0 0-1.414 1.414l4.61 4.609a.5.5 0 0 1-.015.691.55.55 0 0 1-.786-.078l-4.464-4.467a1 1 0 0 0-1.415 1.414l2.428 2.43c.236.236.261.578.066.774-.231.23-.554.154-.825-.118a5818 5818 0 0 1-8.318-8.319l-.524-.523a6.998 6.998 0 0 1 8.342-11.07l-6.258 6.26a1.91 1.91 0 0 0-.636 1.692 2.31 2.31 0 0 0 1.408 1.659 4.385 4.385 0 0 0 5.285-.923L16 12.757l8.08 8.081a.5.5 0 0 1 .002.707m.402-3.132-5.564-5.564a5.95 5.95 0 0 0 4.105-1.817 1 1 0 1 0-1.415-1.414 4.23 4.23 0 0 1-4.985.727 1 1 0 0 0-.161-.06.99.99 0 0 0-1.044.22l-2.645 2.648a2.4 2.4 0 0 1-2.959.556 1.6 1.6 0 0 1-.263-.163L16.05 7.05q.024-.021.047-.042a6.998 6.998 0 0 1 9.853 9.942z"/></svg>