<svg xmlns="http://www.w3.org/2000/svg" width="32" height="32" viewBox="0 0 32 32"><path d="m28.552 22.105-2.982-2.982a3.224 3.224 0 0 0-4.556.003s-1.595 1.623-1.921 1.966a8.048 8.048 0 0 1-5.837-2.37 8.354 8.354 0 0 1-2.42-5.77c.394-.395 2.015-1.989 2.018-1.992a3.218 3.218 0 0 0 0-4.552L9.872 3.426a3.31 3.31 0 0 0-4.572 0L3.706 5.019C2.52 6.204 2.178 8.78 2.83 11.578 3.414 14.08 5.046 18 9.51 22.466s8.386 6.098 10.888 6.682c.886.21 1.793.32 2.704.326a5.487 5.487 0 0 0 3.854-1.202l1.595-1.594a3.23 3.23 0 0 0 0-4.573Zm-.707 3.866-1.595 1.593c-.775.776-2.813 1.263-5.625.61-2.375-.554-6.108-2.116-10.407-6.415-7.777-7.778-7.31-14.528-5.805-16.033l1.594-1.593a2.286 2.286 0 0 1 3.158 0l2.982 2.982a2.218 2.218 0 0 1 .003 3.136s-1.627 1.6-2.02 1.994c-.123.122-.286.363-.287 1.04a9.492 9.492 0 0 0 2.705 6.143c2.48 2.48 6.442 3.164 7.185 2.42.393-.393 1.991-2.018 1.991-2.018a2.222 2.222 0 0 1 3.139 0l2.982 2.982a2.232 2.232 0 0 1 0 3.159Z"/></svg>