<svg xmlns="http://www.w3.org/2000/svg" width="32" height="32" viewBox="0 0 32 32"><path d="M27.01 5.99a8.505 8.505 0 0 0-11.008-.853A8.496 8.496 0 0 0 4.99 18.01s5.105 5.11 8.841 8.843a2.146 2.146 0 0 0 2.946.117c.25-.247.428-.557.519-.896l.945.945c.332.319.777.492 1.238.483.55 0 1.078-.217 1.47-.604.266-.265.453-.6.536-.968a2 2 0 0 0 2.705-2.793 1.994 1.994 0 0 0 .997-3.304l1.823-1.823c3.287-3.316 3.265-8.683 0-12.02M24.435 21.9c-.381.38-1.066.347-1.494-.08l-4.588-4.588a.5.5 0 0 0-.707.707l5.56 5.56a1 1 0 0 1-1.407 1.422l-.007-.008-5.439-5.436a.5.5 0 0 0-.707.707l4.619 4.617c.377.41.35 1.048-.06 1.425-.347.32-.969.375-1.46-.117l-4.462-4.463a.5.5 0 1 0-.707.707l2.5 2.5c.385.393.382 1.021-.006 1.41-.405.406-1.125.305-1.532-.117-5.166-5.162-8.841-8.843-8.841-8.843a7.497 7.497 0 0 1 9.508-11.508c-.071.066-.146.125-.215.195l-6.503 6.502c-.366.311-.552.785-.495 1.262.15.59.575 1.07 1.142 1.292a3.9 3.9 0 0 0 4.702-.832L16 12.05l8.436 8.436c.39.39.39 1.024 0 1.415m.05-2.779-6.889-6.889a5.44 5.44 0 0 0 5.076-1.553.5.5 0 1 0-.707-.707 4.71 4.71 0 0 1-5.59.807.5.5 0 0 0-.223-.043.48.48 0 0 0-.377.124l-2.646 2.647c-.998.998-2.352 1.277-3.54.649-.419-.214-.59-.428-.61-.557-.022-.139.125-.31.215-.4l6.503-6.502c.09-.091.19-.171.284-.257a7.495 7.495 0 0 1 10.322 10.863z"/></svg>