<svg xmlns="http://www.w3.org/2000/svg" width="32" height="32" viewBox="0 0 32 32"><path d="M23 9.5a.75.75 0 0 0 .75-.75V7.442a.75.75 0 1 0-1.5 0V8.75a.75.75 0 0 0 .75.75ZM23 12a.75.75 0 1 0 0-1.5.75.75 0 0 0 0 1.5Z"/><path d="m29.52 12.133-4.987-9-.009-.015a1.75 1.75 0 0 0-3.03.013l-5.005 8.987a1.75 1.75 0 0 0 1.513 2.632h9.997a1.75 1.75 0 0 0 1.52-2.617Zm-1.304.992a.24.24 0 0 1-.217.125h-9.997a.24.24 0 0 1-.217-.125.25.25 0 0 1 .008-.264l5.004-8.987a.25.25 0 0 1 .43-.005l4.988 9.005a.24.24 0 0 1 0 .25Z"/><path d="M24.038 19.699a3.333 3.333 0 0 0-4.614.004s-1.263 1.283-1.737 1.76a7.293 7.293 0 0 1-7.151-7.152c.479-.474 1.76-1.734 1.765-1.739a3.26 3.26 0 0 0 0-4.61L9.548 5.209a3.278 3.278 0 0 0-4.63 0L3.449 6.68c-1.945 1.945-2.369 8.785 5.359 16.513 4.955 4.955 9.545 6.559 12.713 6.559a5.414 5.414 0 0 0 3.8-1.2l1.471-1.472a3.275 3.275 0 0 0 0-4.628l-2.753-2.753Zm1.692 6.32-1.471 1.472c-1.331 1.33-7.36 1.674-14.392-5.358C2.834 15.098 3.18 9.07 4.507 7.74L5.98 6.269a1.775 1.775 0 0 1 2.508 0l2.753 2.753a1.76 1.76 0 0 1 .005 2.485s-1.504 1.478-1.868 1.842c-.648.648-.218 2.457-.07 2.997a9.286 9.286 0 0 0 2.303 4.044c2.297 2.296 6.175 3.093 7.041 2.232.364-.364 1.837-1.862 1.837-1.862a1.804 1.804 0 0 1 2.49 0l2.752 2.752a1.774 1.774 0 0 1 0 2.507Z"/></svg>