<svg xmlns="http://www.w3.org/2000/svg" width="32" height="32" viewBox="0 0 32 32"><path d="M7.143 11.357a10 10 0 0 0-1.102 3.735A5.002 5.002 0 0 0 7 25a1 1 0 0 0 1-1v-8c0-1.09.223-2.159.643-3.143zM6 17.171v5.658a3.001 3.001 0 0 1 0-5.658M26.035 27.449l1.258 1.258a1 1 0 0 0 1.414-1.414l-2.452-2.452a5.002 5.002 0 0 0-.296-9.75A10 10 0 0 0 9.67 8.258L4.707 3.293A1 1 0 0 0 3.165 4.55l22.742 22.742q.073.072.128.156M24 22.586 11.095 9.68A8 8 0 0 1 24 16zM28 20a3 3 0 0 1-2 2.83v-5.66c1.165.412 2 1.524 2 2.83"/></svg>