<svg xmlns="http://www.w3.org/2000/svg" width="32" height="32" viewBox="0 0 32 32"><path d="M16 3.5q.474 0 .945.052a.507.507 0 0 0 .552-.443.5.5 0 0 0-.442-.551 9.516 9.516 0 0 0-10.441 7.97 4.498 4.498 0 0 0 .389 8.98.5.5 0 0 0 .5-.501L7.5 12A8.51 8.51 0 0 1 16 3.5M6.5 18.472a3.497 3.497 0 0 1 .01-6.923zM25 18.503a.504.504 0 0 0-.552.442 8.48 8.48 0 0 1-6.1 7.227 2.5 2.5 0 1 0 .135.995 9.475 9.475 0 0 0 6.96-8.112.5.5 0 0 0-.443-.552M16 28.5a1.5 1.5 0 1 1 0-3 1.5 1.5 0 0 1 0 3M23 9.889a.5.5 0 0 0 .5-.5V7.442a.5.5 0 1 0-1 0V9.39a.5.5 0 0 0 .5.5M23 11.75a.5.5 0 1 0 0-1 .5.5 0 0 0 0 1M29.3 12.254l-4.986-9-.006-.01a1.49 1.49 0 0 0-1.293-.744 1.5 1.5 0 0 0-1.302.753l-5.007 8.991a1.5 1.5 0 0 0 1.296 2.256H28a1.5 1.5 0 0 0 1.3-2.246m-.867.995a.49.49 0 0 1-.433.25h-9.998a.49.49 0 0 1-.434-.25.5.5 0 0 1 .006-.51l5.007-8.99a.5.5 0 0 1 .861-.005l4.99 9.004a.49.49 0 0 1 0 .5"/></svg>