<svg xmlns="http://www.w3.org/2000/svg" width="32" height="32" viewBox="0 0 32 32"><path d="M22.25 7.442V8.75a.75.75 0 1 0 1.5 0V7.442a.75.75 0 1 0-1.5 0ZM23 12a.75.75 0 1 0 0-1.5.75.75 0 0 0 0 1.5Z"/><path d="m29.738 12.012-4.986-9-.012-.02A1.979 1.979 0 0 0 23.014 2a1.997 1.997 0 0 0-1.739 1.01l-5.002 8.982A2 2 0 0 0 18.002 15H28a2 2 0 0 0 1.738-2.988Zm-11.727.97 5-8.986L28 13l-9.989-.018ZM16 4c.297 0 .595.016.89.049a1 1 0 0 0 .219-1.989 10.017 10.017 0 0 0-10.925 8.021 4.996 4.996 0 0 0 .819 9.927 1.002 1.002 0 0 0 1-1.003L8 12a8.01 8.01 0 0 1 8-8ZM6 17.836a2.99 2.99 0 0 1 0-5.645v5.645ZM25.054 18.006a1.006 1.006 0 0 0-1.103.884 7.973 7.973 0 0 1-5.338 6.666 2.986 2.986 0 1 0 .33 1.998 9.973 9.973 0 0 0 6.996-8.445 1 1 0 0 0-.885-1.103ZM16 28a1 1 0 1 1 0-2.002A1 1 0 0 1 16 28Z"/></svg>