<svg xmlns="http://www.w3.org/2000/svg" width="32" height="32" viewBox="0 0 32 32"><path d="M28.432 17.091c-.768-.951-1.811-1.51-3.128-1.674 2.433-.585 3.65-2.095 3.65-4.53 0-1.39-.476-2.525-1.427-3.403C26.466 6.495 25.03 6 23.217 6c-1.574 0-2.9.357-3.98 1.071-1.227.842-1.995 2.031-2.306 3.569h1.18c.238-1.08.741-1.94 1.51-2.58.915-.714 2.096-1.071 3.54-1.071 1.3 0 2.362.311 3.185.933.989.732 1.483 1.757 1.483 3.075 0 1.098-.34 1.994-1.016 2.69-.787.823-1.885 1.235-3.294 1.235h-1.976v1.043h2.086c1.335 0 2.416.33 3.239.989.988.805 1.482 1.958 1.482 3.459 0 1.335-.42 2.415-1.262 3.238-.953.933-2.27 1.4-3.954 1.4-1.28 0-2.378-.274-3.293-.824-1.08-.658-1.739-1.61-1.977-2.854h-1.18c.256 1.373.914 2.47 1.976 3.294 1.172.915 2.663 1.373 4.474 1.373 1.776 0 3.23-.44 4.366-1.319 1.335-1.043 2.003-2.497 2.003-4.364 0-1.299-.357-2.388-1.07-3.267ZM13.498 15.993v-8.99a.5.5 0 1 0-1 0v8.5h-9v-8.5a.5.5 0 1 0-1 0v18a.5.5 0 1 0 1 0v-8.5h9v8.5a.5.5 0 1 0 1 0v-8.991l.002-.01-.002-.01Z"/></svg>