<svg xmlns="http://www.w3.org/2000/svg" width="32" height="32" viewBox="0 0 32 32"><path d="M23.919 23.212a9.401 9.401 0 0 0 1.461-3.756 4.466 4.466 0 0 0-.002-8.905A9.475 9.475 0 0 0 7.856 7.148L4.353 3.646a.5.5 0 0 0-.707.707l24 24a.5.5 0 0 0 .707-.707l-4.434-4.434Zm4.582-8.204a3.509 3.509 0 0 1-3.021 3.438c.005.033-.002-6.885-.002-6.885a3.514 3.514 0 0 1 3.023 3.447Zm-5.304 7.482L8.587 7.88A8.486 8.486 0 0 1 24.5 12v6c0 1.59-.453 3.146-1.303 4.49ZM6.964 9.086a9.395 9.395 0 0 0-.35 1.443 4.498 4.498 0 0 0 .389 8.98.5.5 0 0 0 .5-.502L7.5 12c.003-.71.095-1.416.274-2.103l-.81-.81Zm-.463 9.386a3.496 3.496 0 0 1 .01-6.923c-.008.149-.01 6.923-.01 6.923ZM18.346 26.163a2.5 2.5 0 0 0-4.427-.57 2.502 2.502 0 1 0 4.565 1.566c1.568-.43 3-1.254 4.16-2.394l-.704-.704a8.515 8.515 0 0 1-3.595 2.102ZM16 28.5a1.5 1.5 0 1 1 0-3 1.5 1.5 0 0 1 0 3Z"/></svg>