<svg xmlns="http://www.w3.org/2000/svg" width="32" height="32" viewBox="0 0 32 32"><path d="M25.657 18.297q2.296-2.352 3.108-3.808t.812-3.192q0-2.24-1.483-3.696-1.652-1.596-4.34-1.596-2.325 0-3.948 1.148-1.933 1.372-2.325 3.892h1.26q.224-1.68 1.4-2.744 1.4-1.26 3.585-1.26 1.988 0 3.248 1.008 1.455 1.176 1.456 3.248 0 1.456-.756 2.772-.672 1.205-2.52 3.107l-7.56 7.757v1.092H29.55v-1.092H19.134zM13.498 15.992v-8.99a.5.5 0 1 0-1 0v8.5h-9v-8.5a.5.5 0 1 0-1 0v18a.5.5 0 1 0 1 0v-8.5h9v8.5a.5.5 0 1 0 1 0v-8.99l.002-.01z"/></svg>