<svg xmlns="http://www.w3.org/2000/svg" width="32" height="32" viewBox="0 0 32 32"><path d="M25.686 18.913q2.352-2.268 3.247-3.696 1.148-1.736 1.148-3.752 0-2.295-1.567-3.78-1.738-1.68-4.592-1.68-2.52 0-4.284 1.316-2.017 1.456-2.38 4.032h2.212q.195-1.54 1.26-2.492 1.203-1.092 3.135-1.092 1.764 0 2.857.896 1.23 1.008 1.23 2.828 0 1.4-.74 2.618-.742 1.218-2.76 3.206l-6.859 6.776v1.932h12.432v-1.932h-9.632zM12.998 6.002a1 1 0 0 0-1 1v8h-8v-8a1 1 0 1 0-2 0v18a1 1 0 1 0 2 0v-8h8v8a1 1 0 1 0 2 0v-18a1 1 0 0 0-1-1"/></svg>