<svg xmlns="http://www.w3.org/2000/svg" width="32" height="32" viewBox="0 0 32 32"><path d="M24 13.5A5.5 5.5 0 1 0 18.5 8a5.506 5.506 0 0 0 5.5 5.5m0-10a4.49 4.49 0 0 1 4.45 4h-8.9a4.49 4.49 0 0 1 4.45-4m4.45 5a4.474 4.474 0 0 1-8.9 0zM16.5 3a.5.5 0 0 0-.5-.5 9.514 9.514 0 0 0-9.385 8.02A4.498 4.498 0 0 0 7 19.5a.5.5 0 0 0 .5-.5v-7A8.51 8.51 0 0 1 16 3.5a.5.5 0 0 0 .5-.5m-10 15.465a3.497 3.497 0 0 1 .01-6.924zM28.71 16.57a.5.5 0 0 0-.685.176 3.59 3.59 0 0 1-2.545 1.717c.008-.154.02-.307.02-.463v-.992a.5.5 0 0 0-1 0V18a8.51 8.51 0 0 1-6.154 8.163 2.5 2.5 0 0 0-2.95-1.595 2.502 2.502 0 1 0 3.088 2.591 9.52 9.52 0 0 0 6.896-7.68 4.59 4.59 0 0 0 3.507-2.225.5.5 0 0 0-.177-.685M16 28.5a1.5 1.5 0 1 1 0-3 1.5 1.5 0 0 1 0 3"/></svg>