<svg xmlns="http://www.w3.org/2000/svg" width="32" height="32" viewBox="0 0 32 32"><path d="M24.543 23.128a9.874 9.874 0 0 0 1.266-3.215 4.97 4.97 0 0 0 .004-9.818A9.985 9.985 0 0 0 7.765 6.35L4.707 3.293a1 1 0 0 0-1.414 1.414l24 24a1 1 0 0 0 1.414-1.415l-4.164-4.164ZM26 12.203a2.96 2.96 0 0 1 0 5.602v-5.601ZM16 4a8.01 8.01 0 0 1 8 8v6c0 1.28-.315 2.54-.915 3.67L9.209 7.794A7.989 7.989 0 0 1 16 4ZM5.913 10.154a4.985 4.985 0 0 0 1.09 9.854 1 1 0 0 0 1-1.003L8 12.242l-2.087-2.088ZM6 17.837a2.992 2.992 0 0 1 0-5.645v5.645ZM18.612 25.553a2.986 2.986 0 1 0 .332 2.003 9.922 9.922 0 0 0 2.897-1.474l-1.44-1.44a7.973 7.973 0 0 1-1.79.91ZM16 28a1 1 0 1 1 0-2 1 1 0 0 1 0 2Z"/></svg>