<svg xmlns="http://www.w3.org/2000/svg" width="32" height="32" viewBox="0 0 32 32"><path d="M25.657 18.297c1.53-1.568 2.567-2.837 3.108-3.808.541-.97.812-2.034.812-3.192 0-1.493-.494-2.725-1.483-3.696-1.102-1.064-2.548-1.596-4.34-1.596-1.55 0-2.866.383-3.948 1.148-1.289.915-2.063 2.212-2.325 3.892h1.26c.15-1.12.616-2.034 1.4-2.744.933-.84 2.129-1.26 3.585-1.26 1.325 0 2.408.336 3.248 1.008.97.784 1.456 1.867 1.456 3.248 0 .97-.252 1.895-.756 2.772-.448.803-1.288 1.839-2.52 3.107l-7.56 7.757v1.092H29.55v-1.092H19.134l6.523-6.636ZM13.498 15.992v-8.99a.5.5 0 1 0-1 0v8.5h-9v-8.5a.5.5 0 1 0-1 0v18a.5.5 0 1 0 1 0v-8.5h9v8.5a.5.5 0 1 0 1 0v-8.99l.002-.01-.002-.01Z"/></svg>