<svg xmlns="http://www.w3.org/2000/svg" width="32" height="32" viewBox="0 0 32 32"><path d="M25.686 18.521c1.437-1.437 2.435-2.594 2.996-3.472.727-1.158 1.091-2.39 1.091-3.696 0-1.512-.503-2.754-1.511-3.724-1.12-1.083-2.595-1.624-4.424-1.624-1.587 0-2.95.402-4.089 1.204-1.307.952-2.09 2.268-2.352 3.948h1.624c.15-1.082.598-1.96 1.344-2.632.897-.802 2.034-1.204 3.416-1.204 1.27 0 2.306.327 3.109.98.914.728 1.372 1.755 1.372 3.08 0 .933-.244 1.83-.729 2.688-.467.822-1.344 1.876-2.632 3.164l-7.28 7.392v1.4h12.124v-1.4H19.638l6.047-6.104ZM12.998 6.252a.75.75 0 0 0-.75.75v8.25h-8.5v-8.25a.75.75 0 0 0-1.5 0v18a.75.75 0 0 0 1.5 0v-8.25h8.5v8.25a.75.75 0 0 0 1.5 0v-18a.75.75 0 0 0-.75-.75Z"/></svg>