<svg xmlns="http://www.w3.org/2000/svg" width="32" height="32" viewBox="0 0 32 32"><path d="M29.5 15.008a4.51 4.51 0 0 0-4.123-4.457 9.494 9.494 0 0 0-18.764-.022 4.498 4.498 0 0 0 .39 8.98.5.5 0 0 0 .5-.502L7.5 12a8.5 8.5 0 1 1 17 0v6a8.51 8.51 0 0 1-6.155 8.164 2.502 2.502 0 1 0 .139.996 9.52 9.52 0 0 0 6.899-7.703 4.507 4.507 0 0 0 4.117-4.448M6.501 18.472a3.496 3.496 0 0 1 .01-6.923zM16 28.5a1.499 1.499 0 1 1 0-2.998 1.499 1.499 0 0 1 0 2.998m9.48-10.054c.008-.149.02-.296.02-.447v-6c0-.147-.016-.292-.023-.438a3.472 3.472 0 0 1 .004 6.885"/></svg>