<svg xmlns="http://www.w3.org/2000/svg" width="32" height="32" viewBox="0 0 32 32"><path d="M29.75 15.008a4.76 4.76 0 0 0-4.155-4.685 9.745 9.745 0 0 0-19.197-.02 4.747 4.747 0 0 0 .605 9.455.75.75 0 0 0 .75-.752L7.75 12a8.25 8.25 0 1 1 16.5 0v6a8.26 8.26 0 0 1-5.754 7.862 2.759 2.759 0 1 0 .218 1.496 9.78 9.78 0 0 0 6.888-7.673 4.756 4.756 0 0 0 4.148-4.676M6.25 18.17a3.244 3.244 0 0 1 .001-6.315zM16 28.25a1.25 1.25 0 1 1 0-2.5 1.25 1.25 0 0 1 0 2.5m9.744-10.108v-6.277a3.218 3.218 0 0 1 0 6.277"/></svg>