<svg xmlns="http://www.w3.org/2000/svg" width="32" height="32" viewBox="0 0 32 32"><path d="M23 9.5a.75.75 0 0 0 .75-.75V7.442a.75.75 0 0 0-1.5 0V8.75a.75.75 0 0 0 .75.75M23 12a.75.75 0 1 0 0-1.5.75.75 0 0 0 0 1.5M29.52 12.133l-4.987-9-.009-.015a1.73 1.73 0 0 0-1.51-.868 1.75 1.75 0 0 0-1.52.88l-5.005 8.988A1.75 1.75 0 0 0 18 14.75H28a1.75 1.75 0 0 0 1.52-2.617m-1.305.992a.24.24 0 0 1-.215.125h-9.998a.24.24 0 0 1-.217-.126.25.25 0 0 1 .008-.263l5.004-8.986a.25.25 0 0 1 .43-.006l4.988 9.005a.24.24 0 0 1 0 .25M16 3.75q.46 0 .918.05a.734.734 0 0 0 .827-.663.75.75 0 0 0-.663-.828q-.54-.06-1.082-.06a9.766 9.766 0 0 0-9.602 8.053 4.746 4.746 0 0 0 .605 9.456.75.75 0 0 0 .75-.752L7.75 12A8.26 8.26 0 0 1 16 3.75M6.25 18.17a3.244 3.244 0 0 1 0-6.316zM25.027 18.255a.75.75 0 0 0-.827.663 8.22 8.22 0 0 1-5.705 6.942 2.758 2.758 0 1 0 .217 1.508 9.73 9.73 0 0 0 6.978-8.286.75.75 0 0 0-.663-.827M16 28.25a1.25 1.25 0 1 1 0-2.5 1.25 1.25 0 0 1 0 2.5"/></svg>