<svg xmlns="http://www.w3.org/2000/svg" width="32" height="32" viewBox="0 0 32 32"><path d="M22.25 7.442V8.75a.75.75 0 1 0 1.5 0V7.442a.75.75 0 1 0-1.5 0M23 12a.75.75 0 1 0 0-1.5.75.75 0 0 0 0 1.5M29.738 12.012l-4.986-9-.012-.02A1.98 1.98 0 0 0 23.014 2a2 2 0 0 0-1.739 1.01l-5.002 8.982A2 2 0 0 0 18.002 15H28a2 2 0 0 0 1.738-2.988m-11.727.97 5-8.986L28 13zM16 4q.446 0 .89.049a1 1 0 0 0 .219-1.989Q16.556 2 15.999 2a10.02 10.02 0 0 0-9.815 8.082 4.996 4.996 0 0 0 .819 9.926 1 1 0 0 0 1-1.003L8 12a8.01 8.01 0 0 1 8-8M6 17.836a2.99 2.99 0 0 1 0-5.645zM25.054 18.006a1.006 1.006 0 0 0-1.103.884 7.97 7.97 0 0 1-5.338 6.666 2.986 2.986 0 1 0 .33 1.998 9.97 9.97 0 0 0 6.996-8.445 1 1 0 0 0-.885-1.103M16 28a1 1 0 1 1 0-2.002A1 1 0 0 1 16 28"/></svg>