<svg xmlns="http://www.w3.org/2000/svg" width="32" height="32" viewBox="0 0 32 32"><path d="M24.234 23.173a9.6 9.6 0 0 0 1.368-3.49 4.714 4.714 0 0 0-.007-9.36 9.73 9.73 0 0 0-17.79-3.579L4.53 3.47a.75.75 0 1 0-1.06 1.06l24 24a.75.75 0 1 0 1.06-1.06zm4.016-8.165a3.25 3.25 0 0 1-2.506 3.134l-.001-6.277a3.26 3.26 0 0 1 2.507 3.143M8.906 7.845A8.23 8.23 0 0 1 24.25 12v6a8.1 8.1 0 0 1-1.11 4.08zM6.399 10.294a4.747 4.747 0 0 0 .6 9.456.75.75 0 0 0 .75-.75v-7q0-.447.048-.89l.006-.052q.006-.031.01-.062L6.53 9.712c-.046.193-.095.385-.13.582M6.249 12v6.163a3.244 3.244 0 0 1 .001-6.315zM18.496 25.861a2.758 2.758 0 1 0 .218 1.497 9.75 9.75 0 0 0 3.558-1.907l-1.078-1.079a8.2 8.2 0 0 1-2.698 1.49M16 28.25a1.25 1.25 0 1 1 0-2.5 1.25 1.25 0 0 1 0 2.5"/></svg>