<svg xmlns="http://www.w3.org/2000/svg" width="32" height="32" viewBox="0 0 32 32"><path d="M29.5 15.008a4.511 4.511 0 0 0-4.122-4.457 9.494 9.494 0 0 0-18.764-.022 4.498 4.498 0 0 0 .389 8.98.498.498 0 0 0 .5-.502L7.5 12a8.5 8.5 0 0 1 17 0v6a8.51 8.51 0 0 1-6.155 8.164 2.501 2.501 0 1 0 .139.996 9.52 9.52 0 0 0 6.9-7.703 4.507 4.507 0 0 0 4.116-4.448ZM6.501 18.472a3.496 3.496 0 0 1 .01-6.923l-.01 6.923ZM16 28.5a1.5 1.5 0 1 1 0-2.999 1.5 1.5 0 0 1 0 3Zm9.481-10.053c.007-.149.019-.296.019-.447v-6c0-.147-.015-.292-.022-.438a3.472 3.472 0 0 1 .003 6.885Z"/></svg>