<svg xmlns="http://www.w3.org/2000/svg" width="32" height="32" viewBox="0 0 32 32"><path d="M25.686 18.521q2.155-2.155 2.996-3.472 1.09-1.737 1.091-3.696 0-2.269-1.511-3.724-1.68-1.624-4.424-1.624-2.38 0-4.089 1.204-1.96 1.428-2.352 3.948h1.624q.225-1.623 1.344-2.632 1.344-1.203 3.416-1.204 1.905 0 3.109.98 1.372 1.092 1.372 3.08 0 1.4-.729 2.688-.7 1.232-2.632 3.164l-7.28 7.392v1.4h12.124v-1.4H19.638zM12.998 6.252a.75.75 0 0 0-.75.75v8.25h-8.5v-8.25a.75.75 0 0 0-1.5 0v18a.75.75 0 0 0 1.5 0v-8.25h8.5v8.25a.75.75 0 0 0 1.5 0v-18a.75.75 0 0 0-.75-.75"/></svg>