<svg xmlns="http://www.w3.org/2000/svg" width="32" height="32" viewBox="0 0 32 32"><path d="M28.432 17.091q-1.152-1.427-3.128-1.674 3.65-.877 3.65-4.53 0-2.085-1.427-3.403Q25.935 6 23.217 6q-2.36 0-3.98 1.071-1.84 1.262-2.306 3.569h1.18q.357-1.62 1.51-2.58 1.373-1.071 3.54-1.071 1.95 0 3.185.933 1.483 1.098 1.483 3.075-.001 1.646-1.016 2.69-1.18 1.235-3.294 1.235h-1.976v1.043h2.086q2.004 0 3.239.989 1.482 1.207 1.482 3.459 0 2.003-1.262 3.238-1.429 1.4-3.954 1.4-1.92 0-3.293-.824-1.62-.987-1.977-2.854h-1.18q.384 2.059 1.976 3.294 1.758 1.373 4.474 1.373 2.663 0 4.366-1.319 2.003-1.564 2.003-4.364 0-1.948-1.07-3.267M13.498 15.993v-8.99a.5.5 0 1 0-1 0v8.5h-9v-8.5a.5.5 0 1 0-1 0v18a.5.5 0 1 0 1 0v-8.5h9v8.5a.5.5 0 1 0 1 0v-8.991l.002-.01z"/></svg>