<svg xmlns="http://www.w3.org/2000/svg" width="32" height="32" viewBox="0 0 32 32"><path d="M24 14a6 6 0 1 0-6-6 6.006 6.006 0 0 0 6 6m0-10a3.996 3.996 0 0 1 3.858 3h-7.716A3.995 3.995 0 0 1 24 4m3.858 5a3.981 3.981 0 0 1-7.716 0zM17 3a1 1 0 0 0-1-1 10.016 10.016 0 0 0-9.813 8.074A4.996 4.996 0 0 0 7 20a1 1 0 0 0 1-1v-7a8.01 8.01 0 0 1 8-8 1 1 0 0 0 1-1M6 17.83a3 3 0 0 1-2-2.822 3.06 3.06 0 0 1 2-2.815zM28.964 16.139a1 1 0 0 0-1.37.353A3.07 3.07 0 0 1 26 17.794v-.786a1 1 0 0 0-2 0V18a8.01 8.01 0 0 1-5.388 7.553 2.986 2.986 0 1 0 .332 2.003 10.03 10.03 0 0 0 6.863-7.632 5.1 5.1 0 0 0 3.51-2.416 1 1 0 0 0-.353-1.37M16 28a1 1 0 1 1 0-2 1 1 0 0 1 0 2"/></svg>