<svg xmlns="http://www.w3.org/2000/svg" width="32" height="32" viewBox="0 0 32 32"><path d="M28.625 17.119c-.769-.951-1.803-1.519-3.102-1.702 1.08-.274 1.921-.76 2.526-1.455.713-.805 1.07-1.82 1.07-3.047 0-1.409-.494-2.561-1.482-3.458C26.539 6.487 25.084 6 23.272 6c-1.61 0-2.965.367-4.062 1.098-1.282.842-2.059 2.05-2.334 3.624h1.538c.2-1.025.677-1.84 1.427-2.443.86-.677 1.976-1.016 3.348-1.016 1.227 0 2.233.284 3.02.851.952.696 1.427 1.674 1.427 2.937 0 1.062-.329 1.931-.988 2.608-.75.769-1.775 1.153-3.074 1.153h-1.866v1.318h1.975c1.245 0 2.261.31 3.047.933.97.75 1.455 1.857 1.455 3.321 0 1.245-.402 2.26-1.208 3.047-.915.879-2.168 1.318-3.76 1.318-1.245 0-2.288-.265-3.13-.797-1.006-.603-1.628-1.5-1.866-2.689h-1.564c.256 1.39.905 2.507 1.948 3.349 1.19.952 2.727 1.427 4.613 1.427 1.793 0 3.275-.448 4.446-1.345 1.354-1.043 2.031-2.489 2.031-4.337 0-1.281-.356-2.36-1.07-3.24ZM12.998 6.252a.75.75 0 0 0-.75.75v8.25h-8.5v-8.25a.75.75 0 0 0-1.5 0v18a.75.75 0 0 0 1.5 0v-8.25h8.5v8.25a.75.75 0 0 0 1.5 0v-18a.75.75 0 0 0-.75-.75Z"/></svg>