<svg xmlns="http://www.w3.org/2000/svg" width="32" height="32" viewBox="0 0 32 32"><path d="M24 13.75A5.75 5.75 0 1 0 18.25 8 5.756 5.756 0 0 0 24 13.75Zm0-1.5a4.25 4.25 0 0 1-4.174-3.5h8.348A4.25 4.25 0 0 1 24 12.25Zm0-8.5a4.25 4.25 0 0 1 4.174 3.5h-8.348A4.25 4.25 0 0 1 24 3.75ZM16.75 3a.75.75 0 0 0-.75-.75 9.766 9.766 0 0 0-9.6 8.044A4.746 4.746 0 0 0 7 19.75a.75.75 0 0 0 .75-.75v-7A8.26 8.26 0 0 1 16 3.75a.75.75 0 0 0 .75-.75ZM6.25 18.163a3.244 3.244 0 0 1 .001-6.315l-.001 6.315ZM28.837 16.354a.75.75 0 0 0-1.027.265 3.338 3.338 0 0 1-2.066 1.537c0-.052.006-.104.006-.156v-.992a.75.75 0 1 0-1.5 0V18a8.264 8.264 0 0 1-5.754 7.862 2.758 2.758 0 1 0 .218 1.496 9.778 9.778 0 0 0 6.882-7.646 4.85 4.85 0 0 0 3.507-2.331.752.752 0 0 0-.266-1.027ZM16 28.25a1.25 1.25 0 1 1 0-2.5 1.25 1.25 0 0 1 0 2.5Z"/></svg>