<svg xmlns="http://www.w3.org/2000/svg" width="32" height="32" viewBox="0 0 32 32"><path d="M25.686 18.913c1.568-1.512 2.65-2.744 3.247-3.696.765-1.157 1.148-2.408 1.148-3.752 0-1.53-.523-2.79-1.567-3.78-1.159-1.12-2.689-1.68-4.592-1.68-1.68 0-3.109.439-4.284 1.316-1.344.97-2.138 2.315-2.38 4.032h2.212c.13-1.026.55-1.857 1.26-2.492.802-.728 1.847-1.092 3.135-1.092 1.176 0 2.128.299 2.857.896.82.672 1.23 1.615 1.23 2.828 0 .934-.246 1.806-.74 2.618-.495.812-1.414 1.88-2.76 3.206l-6.859 6.776v1.932h12.432v-1.932h-9.632l5.293-5.18ZM12.998 6.002a1 1 0 0 0-1 1v8h-8v-8a1 1 0 1 0-2 0v18a1 1 0 1 0 2 0v-8h8v8a1 1 0 1 0 2 0v-18a1 1 0 0 0-1-1Z"/></svg>