<svg xmlns="http://www.w3.org/2000/svg" width="32" height="32" viewBox="0 0 32 32"><path d="M28.927 17.146q-1.154-1.4-3.075-1.73 1.538-.411 2.471-1.482 1.07-1.206 1.07-2.964 0-2.196-1.591-3.54Q26.099 6 23.354 6q-2.47 0-4.2 1.154-2.004 1.29-2.388 3.678h2.141q.247-1.345 1.263-2.169 1.18-.933 3.075-.933 1.619 0 2.717.741 1.345.934 1.345 2.663 0 1.51-.96 2.47-1.016 1.017-2.664 1.016h-1.7v1.784h1.783q1.62 0 2.717.823 1.428 1.07 1.428 3.13 0 1.675-1.07 2.718-1.263 1.235-3.514 1.235-1.729 0-2.882-.741-1.29-.824-1.647-2.498h-2.17q.359 2.142 1.923 3.431 1.811 1.51 4.803 1.51 2.773 0 4.584-1.346 2.06-1.564 2.059-4.282 0-1.92-1.07-3.24M12.998 6.002a1 1 0 0 0-1 1v8h-8v-8a1 1 0 1 0-2 0v18a1 1 0 1 0 2 0v-8h8v8a1 1 0 1 0 2 0v-18a1 1 0 0 0-1-1"/></svg>