<svg xmlns="http://www.w3.org/2000/svg" width="32" height="32" viewBox="0 0 32 32"><path d="M28.625 17.119q-1.154-1.427-3.102-1.702 1.62-.412 2.526-1.455 1.07-1.207 1.07-3.047 0-2.113-1.482-3.458Q25.99 6.002 23.272 6q-2.416 0-4.062 1.098-1.922 1.263-2.334 3.624h1.538q.301-1.538 1.427-2.443 1.29-1.016 3.348-1.016 1.84 0 3.02.851 1.428 1.043 1.427 2.937 0 1.593-.988 2.608-1.125 1.153-3.074 1.153h-1.866v1.318h1.975q1.868 0 3.047.933 1.455 1.125 1.455 3.321 0 1.867-1.208 3.047-1.372 1.318-3.76 1.318-1.867 0-3.13-.797-1.509-.905-1.866-2.689h-1.564q.384 2.086 1.948 3.349 1.785 1.427 4.613 1.427 2.69 0 4.446-1.345 2.031-1.565 2.031-4.337 0-1.92-1.07-3.24M12.998 6.252a.75.75 0 0 0-.75.75v8.25h-8.5v-8.25a.75.75 0 0 0-1.5 0v18a.75.75 0 0 0 1.5 0v-8.25h8.5v8.25a.75.75 0 0 0 1.5 0v-18a.75.75 0 0 0-.75-.75"/></svg>