<svg xmlns="http://www.w3.org/2000/svg" width="32" height="32" viewBox="0 0 32 32"><path d="M28.927 17.146c-.769-.933-1.794-1.51-3.075-1.73 1.025-.274 1.849-.768 2.471-1.482.714-.804 1.07-1.792 1.07-2.964 0-1.464-.53-2.644-1.591-3.54C26.667 6.476 25.184 6 23.354 6c-1.646 0-3.047.385-4.2 1.154-1.336.86-2.132 2.086-2.388 3.678h2.141c.165-.897.586-1.62 1.263-2.169.787-.622 1.812-.933 3.075-.933 1.079 0 1.985.247 2.717.741.896.623 1.345 1.51 1.345 2.663 0 1.006-.32 1.83-.96 2.47-.678.678-1.565 1.016-2.664 1.016h-1.7v1.784h1.783c1.08 0 1.986.274 2.717.823.952.714 1.428 1.757 1.428 3.13 0 1.117-.357 2.022-1.07 2.718-.842.823-2.014 1.235-3.514 1.235-1.153 0-2.113-.247-2.882-.741-.86-.549-1.41-1.382-1.647-2.498h-2.17c.239 1.428.88 2.571 1.923 3.431 1.208 1.006 2.808 1.51 4.803 1.51 1.849 0 3.376-.448 4.584-1.346 1.373-1.043 2.059-2.47 2.059-4.282 0-1.28-.357-2.36-1.07-3.24ZM12.998 6.002a1 1 0 0 0-1 1v8h-8v-8a1 1 0 1 0-2 0v18a1 1 0 1 0 2 0v-8h8v8a1 1 0 1 0 2 0v-18a1 1 0 0 0-1-1Z"/></svg>