<svg xmlns="http://www.w3.org/2000/svg" width="32" height="32" viewBox="0 0 32 32"><path d="M8.312 10.42a9.5 9.5 0 0 0-1.8 5.106A4.5 4.5 0 0 0 7 24.5a.5.5 0 0 0 .5-.5v-8a8.5 8.5 0 0 1 1.53-4.864zM3.5 20a3.5 3.5 0 0 1 3-3.465v6.93A3.5 3.5 0 0 1 3.5 20M27.018 27.725l.628.629a.5.5 0 0 0 .708-.708l-3.151-3.15a4.5 4.5 0 0 0 .285-8.97A9.5 9.5 0 0 0 9.645 8.938L4.354 3.646a.5.5 0 0 0-.772.63l23.372 23.37q.036.037.064.079M10.354 9.646A8.5 8.5 0 0 1 24.5 16v7.793zM28.5 20a3.5 3.5 0 0 1-3 3.465v-6.93c1.696.243 3 1.702 3 3.465"/></svg>