<svg xmlns="http://www.w3.org/2000/svg" width="32" height="32" viewBox="0 0 32 32"><path fill-rule="evenodd" d="M5.5 13C5.5 7.201 10.201 2.5 16 2.5S26.5 7.201 26.5 13c0 2.871-1.17 4.636-2.39 6.152q-.241.298-.488.596c-.452.545-.903 1.09-1.26 1.638-.5.77-.862 1.61-.862 2.614 0 3.214-2.452 5.5-5.5 5.5a5.5 5.5 0 0 1-5.5-5.5.5.5 0 0 0-1 0 6.5 6.5 0 0 0 6.5 6.5c3.58 0 6.5-2.714 6.5-6.5 0-.745.263-1.396.7-2.068.324-.498.719-.975 1.157-1.503q.257-.31.533-.65c1.28-1.59 2.61-3.575 2.61-6.779 0-6.351-5.149-11.5-11.5-11.5S4.5 6.649 4.5 13a.5.5 0 0 0 1 0M16 7.5a5.5 5.5 0 0 0-5.48 5.03A4.5 4.5 0 0 1 10 21.5a.5.5 0 0 1 0-1 3.5 3.5 0 1 0 0-7 .5.5 0 0 1-.5-.5 6.5 6.5 0 1 1 13 0 .5.5 0 0 1-1 0A5.5 5.5 0 0 0 16 7.5" clip-rule="evenodd"/></svg>