<svg xmlns="http://www.w3.org/2000/svg" width="32" height="32" viewBox="0 0 32 32"><path fill-rule="evenodd" d="M5.75 13C5.75 7.34 10.34 2.75 16 2.75S26.25 7.34 26.25 13c0 2.788-1.13 4.498-2.334 5.995q-.234.289-.478.582c-.454.55-.92 1.11-1.285 1.673-.516.793-.903 1.68-.903 2.75 0 3.07-2.335 5.25-5.25 5.25A5.25 5.25 0 0 1 10.75 24a.75.75 0 0 0-1.5 0A6.75 6.75 0 0 0 16 30.75c3.712 0 6.75-2.82 6.75-6.75 0-.68.238-1.283.66-1.932.315-.485.697-.945 1.13-1.469q.26-.312.544-.663c1.295-1.61 2.666-3.65 2.666-6.936 0-6.49-5.26-11.75-11.75-11.75S4.25 6.51 4.25 13a.75.75 0 0 0 1.5 0M16 7.75a5.25 5.25 0 0 0-5.206 4.566A4.751 4.751 0 0 1 10 21.75a.75.75 0 0 1 0-1.5 3.25 3.25 0 0 0 0-6.5.75.75 0 0 1-.75-.75 6.75 6.75 0 0 1 13.5 0 .75.75 0 0 1-1.5 0c0-2.9-2.35-5.25-5.25-5.25" clip-rule="evenodd"/></svg>