<svg xmlns="http://www.w3.org/2000/svg" width="32" height="32" viewBox="0 0 32 32"><path d="M16 2.75C10.34 2.75 5.75 7.34 5.75 13a.75.75 0 0 1-1.5 0C4.25 6.51 9.51 1.25 16 1.25c3.122 0 5.961 1.219 8.065 3.205a.75.75 0 1 1-1.03 1.09A10.2 10.2 0 0 0 16 2.75M25.977 8.301a.75.75 0 0 1 .972.426c.517 1.326.801 2.767.801 4.273 0 3.287-1.37 5.327-2.666 6.936q-.283.351-.543.663c-.434.524-.816.984-1.131 1.469-.422.649-.66 1.252-.66 1.932 0 3.93-3.038 6.75-6.75 6.75a6.75 6.75 0 0 1-6.657-5.626.75.75 0 0 1 1.48-.248A5.25 5.25 0 0 0 16 29.25c2.915 0 5.25-2.18 5.25-5.25 0-1.07.387-1.957.902-2.75.366-.562.831-1.123 1.286-1.672q.244-.294.478-.583C25.12 17.498 26.25 15.788 26.25 13c0-1.316-.248-2.573-.698-3.727a.75.75 0 0 1 .425-.972M10.794 12.316a5.251 5.251 0 0 1 9.12-2.816.75.75 0 1 0 1.117-1A6.75 6.75 0 0 0 9.25 13c0 .414.336.75.75.75 1.202 0 2.253.652 2.816 1.626a.75.75 0 1 0 1.298-.751 4.75 4.75 0 0 0-3.32-2.309M29.53 3.53a.75.75 0 0 0-1.06-1.06l-26 26a.75.75 0 1 0 1.06 1.06z"/></svg>