<svg xmlns="http://www.w3.org/2000/svg" width="32" height="32" viewBox="0 0 32 32"><path fill-rule="evenodd" d="M16 3C10.477 3 6 7.477 6 13a1 1 0 1 1-2 0C4 6.373 9.373 1 16 1c3.188 0 6.088 1.245 8.236 3.273a1 1 0 1 1-1.373 1.454A9.96 9.96 0 0 0 16 3m9.909 5.06a1 1 0 0 1 1.281.599l.003.008.008.023.03.082.096.273c.071.207.164.482.221.683A12 12 0 0 1 28 13c0 3.37-1.41 5.465-2.721 7.093q-.293.361-.555.676v.001c-.43.518-.798.963-1.105 1.434C23.214 22.83 23 23.384 23 24c0 4.073-3.155 7-7 7a7 7 0 0 1-6.601-4.667 1 1 0 1 1 1.885-.666A5 5 0 0 0 16 29c2.782 0 5-2.073 5-5 0-1.135.412-2.07.943-2.886.374-.576.854-1.154 1.311-1.707q.242-.29.467-.568C24.911 17.36 26 15.705 26 13c0-.947-.131-1.862-.376-2.728-.04-.139-.115-.364-.187-.572l-.09-.256-.027-.076-.008-.02-.002-.006zm-14.831 4.057a5 5 0 0 1 7.686-3.284 1 1 0 0 0 1.108-1.666A7 7 0 0 0 9 13a1 1 0 0 0 1 1c1.11 0 2.079.601 2.6 1.5a1 1 0 1 0 1.73-1 5 5 0 0 0-3.252-2.383m18.63-8.41a1 1 0 0 0-1.415-1.414l-26 26a1 1 0 1 0 1.414 1.414z" clip-rule="evenodd"/></svg>