<svg xmlns="http://www.w3.org/2000/svg" width="32" height="32" viewBox="0 0 32 32"><path fill-rule="evenodd" d="M6 13C6 7.477 10.477 3 16 3s10 4.477 10 10c0 2.705-1.09 4.36-2.279 5.839q-.226.278-.467.569c-.457.552-.937 1.13-1.311 1.706C21.412 21.93 21 22.865 21 24c0 2.927-2.218 5-5 5a5 5 0 0 1-5-5 1 1 0 1 0-2 0 7 7 0 0 0 7 7c3.845 0 7-2.927 7-7 0-.615.213-1.171.62-1.796.306-.471.674-.916 1.103-1.434q.262-.315.556-.677C26.589 18.465 28 16.37 28 13c0-6.627-5.373-12-12-12S4 6.373 4 13a1 1 0 1 0 2 0m10-5a5 5 0 0 0-4.922 4.117A5.002 5.002 0 0 1 10 22a1 1 0 1 1 0-2 3 3 0 1 0 0-6 1 1 0 0 1-1-1 7 7 0 1 1 14 0 1 1 0 1 1-2 0 5 5 0 0 0-5-5" clip-rule="evenodd"/></svg>