<svg xmlns="http://www.w3.org/2000/svg" width="32" height="32" viewBox="0 0 32 32"><path fill-rule="evenodd" d="M16 2.5C10.201 2.5 5.5 7.201 5.5 13a.5.5 0 0 1-1 0C4.5 6.649 9.649 1.5 16 1.5c3.056 0 5.834 1.192 7.893 3.136a.5.5 0 1 1-.686.728A10.46 10.46 0 0 0 16 2.5m10.068 6.034a.5.5 0 0 1 .648.284c.506 1.297.784 2.708.784 4.182 0 3.204-1.33 5.189-2.61 6.78a59 59 0 0 1-.533.649c-.438.528-.833 1.005-1.157 1.503-.437.672-.7 1.323-.7 2.068 0 3.786-2.92 6.5-6.5 6.5A6.5 6.5 0 0 1 9.5 24a.5.5 0 0 1 1 0 5.5 5.5 0 0 0 5.5 5.5c3.048 0 5.5-2.286 5.5-5.5 0-1.005.362-1.845.862-2.614.357-.549.808-1.093 1.26-1.638q.247-.298.488-.596c1.22-1.516 2.39-3.28 2.39-6.152 0-1.348-.254-2.635-.716-3.818a.5.5 0 0 1 .284-.648M10.52 12.53a5.5 5.5 0 0 1 9.58-3.197.5.5 0 0 0 .745-.666A6.5 6.5 0 0 0 9.5 13a.5.5 0 0 0 .5.5 3.5 3.5 0 0 1 3.39 2.625.5.5 0 1 0 .968-.25 4.5 4.5 0 0 0-3.838-3.345m18.834-9.176a.5.5 0 0 0-.708-.708l-26 26a.5.5 0 0 0 .708.708z" clip-rule="evenodd"/></svg>