<svg xmlns="http://www.w3.org/2000/svg" width="32" height="32" viewBox="0 0 32 32"><path d="m18.61 4.467-.245-.086A7.505 7.505 0 0 0 8.5 11.5a.5.5 0 0 1-1 0 8.507 8.507 0 0 1 9.488-8.443c.019 0 .038.001.057.004a8.506 8.506 0 0 1 1.645.374l.039.013a20.202 20.202 0 0 0 .425.15.5.5 0 0 1 .116.055 8.507 8.507 0 0 1 4.398 11.508l-.036.071-.184.368a.498.498 0 0 1-.062.1 8.53 8.53 0 0 1-6.886 4.285V23.5a.5.5 0 0 1-1 0v-4a.5.5 0 0 1 .5-.5 7.52 7.52 0 0 0 6.563-3.877.534.534 0 0 1 .029-.046l.177-.355A7.504 7.504 0 0 0 18.61 4.466ZM16 27.5a.75.75 0 1 0 0 1.5.75.75 0 0 0 0-1.5Z"/></svg>