<svg xmlns="http://www.w3.org/2000/svg" width="32" height="32" viewBox="0 0 32 32"><path d="M22.65 15.087c.018-.06.04-.117.058-.176A4.08 4.08 0 0 0 26 10.995a4.02 4.02 0 0 0-3.293-3.918 7.13 7.13 0 0 0-1.743-2.986 6.937 6.937 0 0 0-9.928 0 7.14 7.14 0 0 0-1.74 2.97 4.001 4.001 0 0 0 .704 7.94 1 1 0 0 0 1-1v-4.87a5.4 5.4 0 0 1 .092-.993c.187-1 .665-1.922 1.376-2.65a4.937 4.937 0 0 1 7.064 0A5.19 5.19 0 0 1 21 9.13v3.73a5.2 5.2 0 0 1-1.468 3.644 5 5 0 0 1-1.058.804 3.012 3.012 0 1 0 .492 2.02 7 7 0 0 0 1.999-1.428q.45-.465.81-1.003c2.53.9 5.228 2.784 5.228 6.732C27.003 26.121 22.273 28 16 28S4.998 26.121 4.998 23.63a6.49 6.49 0 0 1 3.501-5.95 1.001 1.001 0 1 0-.998-1.733 8.48 8.48 0 0 0-4.503 7.682c0 1.467.76 3.518 4.38 4.958A24.2 24.2 0 0 0 16.002 30c6.472 0 13.002-1.97 13.002-6.37 0-4.014-2.248-7.013-6.354-8.543M23 9.305a1.935 1.935 0 0 1 0 3.39zM9 12.734a2.002 2.002 0 0 1 0-3.467zm6.999 7.265a1 1 0 1 1 0-2 1 1 0 0 1 0 2"/></svg>