<svg xmlns="http://www.w3.org/2000/svg" width="32" height="32" viewBox="0 0 32 32"><path d="M16.973 2.803A8.757 8.757 0 0 0 7.25 11.5a.75.75 0 1 0 1.5 0 7.256 7.256 0 0 1 9.722-6.817 7.254 7.254 0 0 1 4.064 9.924l-.232.466v.002A7.27 7.27 0 0 1 16 18.75a.75.75 0 0 0-.75.75v4a.75.75 0 1 0 1.5 0v-3.282a8.78 8.78 0 0 0 6.905-4.488 1 1 0 0 0 .047-.101l.182-.363a8.756 8.756 0 0 0-4.5-11.836.8.8 0 0 0-.152-.07l-.263-.092-.15-.053-.05-.018q-.09-.03-.181-.058a9 9 0 0 0-1.521-.33 1 1 0 0 0-.094-.006M16 27.25a1 1 0 1 0 0 2 1 1 0 0 0 0-2"/></svg>