<svg xmlns="http://www.w3.org/2000/svg" width="32" height="32" viewBox="0 0 32 32"><path d="M22.002 15.392c.122-.303.223-.613.301-.93a3.582 3.582 0 0 0 3.197-3.467 3.579 3.579 0 0 0-3.194-3.456 6.634 6.634 0 0 0-1.7-3.098 6.438 6.438 0 0 0-9.213 0 6.643 6.643 0 0 0-1.7 3.072A3.501 3.501 0 0 0 10 14.5a.5.5 0 0 0 .5-.5v-4.87a5.852 5.852 0 0 1 .098-1.072 5.645 5.645 0 0 1 1.512-2.921 5.438 5.438 0 0 1 7.78 0A5.685 5.685 0 0 1 21.5 9.13v3.73a5.689 5.689 0 0 1-1.61 3.994 5.438 5.438 0 0 1-1.612 1.128 2.49 2.49 0 1 0 .22 1.017 6.478 6.478 0 0 0 2.108-1.448c.362-.377.677-.795.94-1.246 3.835 1.238 5.957 3.82 5.957 7.324 0 3.198-5.786 4.871-11.502 4.871-5.717 0-11.503-1.673-11.503-4.87a6.962 6.962 0 0 1 3.75-6.383.5.5 0 0 0-.497-.867 8.001 8.001 0 0 0-4.253 7.25c0 1.88 1.406 3.435 4.066 4.492a23.632 23.632 0 0 0 8.437 1.378c6.021 0 12.502-1.837 12.502-5.87 0-3.935-2.306-6.841-6.501-8.238Zm.471-6.822a2.562 2.562 0 0 1 2.027 2.436 2.56 2.56 0 0 1-2.027 2.426c.015-.19.015-4.677 0-4.862ZM9.5 13.45a2.501 2.501 0 0 1 .025-4.906c-.016.193-.025 4.906-.025 4.906Zm6.5 7.048a1.5 1.5 0 1 1 0-3 1.5 1.5 0 0 1 0 3Z"/></svg>