<svg xmlns="http://www.w3.org/2000/svg" width="32" height="32" viewBox="0 0 32 32"><path d="m18.61 4.467-.245-.086A7.505 7.505 0 0 0 8.5 11.5a.5.5 0 0 1-1 0 8.507 8.507 0 0 1 9.488-8.443q.028 0 .057.004a8.5 8.5 0 0 1 1.645.374l.039.013q.101.035.202.072l.222.078a.5.5 0 0 1 .117.055 8.507 8.507 0 0 1 4.398 11.508l-.036.071-.184.368a.5.5 0 0 1-.062.1 8.53 8.53 0 0 1-6.886 4.285V23.5a.5.5 0 0 1-1 0v-4a.5.5 0 0 1 .5-.5 7.52 7.52 0 0 0 6.563-3.877l.029-.046.177-.355A7.504 7.504 0 0 0 18.61 4.467M16 27.5a.75.75 0 1 0 0 1.5.75.75 0 0 0 0-1.5"/></svg>