<svg xmlns="http://www.w3.org/2000/svg" width="32" height="32" viewBox="0 0 32 32"><path d="M22.323 15.233c.065-.182.134-.362.183-.549a3.83 3.83 0 0 0 3.244-3.689 3.825 3.825 0 0 0-3.241-3.677 6.9 6.9 0 0 0-1.724-3.052 6.69 6.69 0 0 0-9.57 0 6.9 6.9 0 0 0-1.722 3.017A3.751 3.751 0 0 0 10 14.751a.75.75 0 0 0 .75-.75v-4.87a5.6 5.6 0 0 1 .096-1.033 5.4 5.4 0 0 1 1.443-2.785 5.19 5.19 0 0 1 7.422 0 5.44 5.44 0 0 1 1.54 3.817v3.73a5.44 5.44 0 0 1-1.54 3.819 5.2 5.2 0 0 1-1.333.965 2.746 2.746 0 1 0 .355 1.519 6.7 6.7 0 0 0 2.052-1.437 7 7 0 0 0 .878-1.136c2.664.9 5.59 2.844 5.59 7.04 0 3.001-5.798 4.62-11.252 4.62S4.748 26.631 4.748 23.63a6.73 6.73 0 0 1 3.626-6.166.75.75 0 1 0-.748-1.3 8.24 8.24 0 0 0-4.378 7.465c0 1.39.733 3.337 4.224 4.726a23.9 23.9 0 0 0 8.53 1.395c6.346 0 12.751-1.892 12.751-6.12 0-3.977-2.277-6.933-6.43-8.397m.417-6.322a2.29 2.29 0 0 1 1.51 2.095 2.28 2.28 0 0 1-1.51 2.085c.002-.077.01-.153.01-.23 0 0-.008-3.877-.01-3.95M9.25 13.123a2.252 2.252 0 0 1 .005-4.247c-.003.084-.005 4.247-.005 4.247M16 20.25a1.25 1.25 0 1 1 0-2.5 1.25 1.25 0 0 1 0 2.5"/></svg>