<svg xmlns="http://www.w3.org/2000/svg" width="32" height="32" viewBox="0 0 32 32"><path d="M22.002 15.392q.184-.454.301-.93a3.58 3.58 0 0 0 3.197-3.467 3.58 3.58 0 0 0-3.194-3.456 6.63 6.63 0 0 0-1.7-3.098 6.44 6.44 0 0 0-9.213 0 6.64 6.64 0 0 0-1.7 3.072A3.501 3.501 0 0 0 10 14.5a.5.5 0 0 0 .5-.5v-4.87a6 6 0 0 1 .098-1.072 5.65 5.65 0 0 1 1.512-2.921 5.44 5.44 0 0 1 7.78 0A5.69 5.69 0 0 1 21.5 9.13v3.73a5.7 5.7 0 0 1-1.61 3.994 5.4 5.4 0 0 1-1.612 1.128 2.49 2.49 0 1 0 .22 1.017 6.5 6.5 0 0 0 2.108-1.448c.362-.377.677-.795.94-1.246 3.835 1.238 5.957 3.82 5.957 7.324 0 3.198-5.786 4.871-11.502 4.871S4.498 26.827 4.498 23.63a6.96 6.96 0 0 1 3.75-6.383.5.5 0 0 0-.497-.867 8 8 0 0 0-4.253 7.25c0 1.88 1.406 3.435 4.066 4.492a23.6 23.6 0 0 0 8.437 1.378c6.021 0 12.502-1.837 12.502-5.87 0-3.935-2.306-6.841-6.501-8.238m.471-6.822a2.56 2.56 0 0 1 2.027 2.436 2.56 2.56 0 0 1-2.027 2.426c.015-.19.015-4.677 0-4.862M9.5 13.45a2.501 2.501 0 0 1 .025-4.906c-.016.193-.025 4.906-.025 4.906m6.5 7.048a1.5 1.5 0 1 1 0-3 1.5 1.5 0 0 1 0 3"/></svg>