<svg xmlns="http://www.w3.org/2000/svg" width="32" height="32" viewBox="0 0 32 32"><path d="M16 22.5c-5.531 0-10.242-5.178-11.354-6.5a23.3 23.3 0 0 1 4.89-4.34l-.731-.732a23.6 23.6 0 0 0-5.201 4.768.5.5 0 0 0 0 .607C3.828 16.597 9.193 23.5 16 23.5c1.525-.02 3.03-.342 4.43-.947l-.775-.774c-1.164.46-2.403.705-3.655.72M28.354 27.646l-6.034-6.033a23.2 23.2 0 0 0 6.077-5.31.5.5 0 0 0 0-.607C28.172 15.402 22.807 8.5 16 8.5a12.1 12.1 0 0 0-5.402 1.39L4.354 3.646a.5.5 0 0 0-.707.707l6.033 6.033-.002.002.74.74.003-.001 10.228 10.229h-.002l.753.753h.002l6.245 6.244a.5.5 0 1 0 .707-.707M11.352 10.645A10.85 10.85 0 0 1 16 9.5c5.532 0 10.242 5.177 11.356 6.5a22.6 22.6 0 0 1-5.775 4.874z"/></svg>