<svg xmlns="http://www.w3.org/2000/svg" width="32" height="32" viewBox="0 0 32 32"><path d="M16 22c-4.946 0-9.255-4.365-10.695-6a23.5 23.5 0 0 1 3.34-3.112l-1.432-1.431a24 24 0 0 0-4.007 3.934 1 1 0 0 0 0 1.217C3.438 16.91 8.948 24 16 24c1.103-.01 2.198-.18 3.252-.505l-1.651-1.651c-.528.1-1.064.152-1.6.155M28.707 27.293l-5.58-5.58a23.9 23.9 0 0 0 5.667-5.105 1 1 0 0 0 0-1.217C28.563 15.09 23.05 8 16 8c-1.84.03-3.65.47-5.298 1.287L4.707 3.292a1 1 0 0 0-1.414 1.415l5.58 5.58h-.001l1.464 1.464 9.448 9.446h-.002l1.515 1.515h.001l5.995 5.994a.999.999 0 0 0 1.63-1.09 1 1 0 0 0-.216-.323M12.22 10.804A10 10 0 0 1 16 10c4.947 0 9.256 4.366 10.696 6a22.1 22.1 0 0 1-5.03 4.252z"/></svg>