<svg xmlns="http://www.w3.org/2000/svg" width="32" height="32" viewBox="0 0 32 32"><path d="M16 22.25c-5.223 0-9.724-4.74-11.026-6.25a23.4 23.4 0 0 1 4.107-3.735l-1.086-1.086a23.8 23.8 0 0 0-4.59 4.365.75.75 0 0 0 0 .912C3.633 16.753 9.07 23.75 16 23.75a11.5 11.5 0 0 0 3.861-.705l-1.195-1.195a9.6 9.6 0 0 1-2.666.4M22.725 21.663a23.6 23.6 0 0 0 5.87-5.207.75.75 0 0 0 0-.912C28.368 15.246 22.93 8.25 16 8.25c-1.862.032-3.692.49-5.35 1.339l-6.12-6.12a.75.75 0 0 0-1.06 1.06l5.806 5.806-.002.001 1.102 1.102h.002l9.84 9.84-.001.002 1.132 1.131h.002l6.119 6.119a.749.749 0 1 0 1.06-1.06zM11.783 10.722A10.4 10.4 0 0 1 16 9.75c5.224 0 9.726 4.74 11.028 6.25a22.3 22.3 0 0 1-5.403 4.564z"/></svg>