<svg xmlns="http://www.w3.org/2000/svg" width="32" height="32" viewBox="0 0 32 32"><path d="M16 22.5c-5.531 0-10.242-5.178-11.354-6.5a23.263 23.263 0 0 1 4.89-4.34l-.731-.732a23.561 23.561 0 0 0-5.201 4.768.498.498 0 0 0 0 .607C3.828 16.597 9.193 23.5 16 23.5c1.525-.02 3.03-.342 4.43-.947l-.775-.774c-1.164.46-2.403.705-3.655.72ZM28.354 27.646l-6.034-6.034a23.222 23.222 0 0 0 6.077-5.309.498.498 0 0 0 0-.607C28.172 15.402 22.807 8.5 16 8.5a12.076 12.076 0 0 0-5.402 1.39L4.354 3.646a.5.5 0 0 0-.707.707l6.033 6.033-.002.002.74.74.003-.001 10.228 10.229h-.002l.753.753h.002l6.245 6.244a.5.5 0 1 0 .707-.707ZM11.352 10.645A10.848 10.848 0 0 1 16 9.5c5.532 0 10.242 5.177 11.356 6.5a22.566 22.566 0 0 1-5.775 4.873L11.352 10.646Z"/></svg>