<svg xmlns="http://www.w3.org/2000/svg" width="32" height="32" viewBox="0 0 32 32"><path d="M25.791 9.193 18.793 4.16a4.74 4.74 0 0 0-5.585-.002L6.206 9.195a4.77 4.77 0 0 0-1.956 3.842V24A4.755 4.755 0 0 0 9 28.75h3A1.75 1.75 0 0 0 13.75 27v-6a.25.25 0 0 1 .25-.25h4a.25.25 0 0 1 .25.25v6A1.75 1.75 0 0 0 20 28.75h3A4.755 4.755 0 0 0 27.75 24V13.037a4.77 4.77 0 0 0-1.959-3.844M26.25 24A3.254 3.254 0 0 1 23 27.25h-3a.25.25 0 0 1-.25-.25v-6A1.75 1.75 0 0 0 18 19.25h-4A1.75 1.75 0 0 0 12.25 21v6a.25.25 0 0 1-.25.25H9A3.254 3.254 0 0 1 5.75 24V13.037a3.26 3.26 0 0 1 1.335-2.627l7.002-5.038a3.25 3.25 0 0 1 3.827.002l6.997 5.034a3.26 3.26 0 0 1 1.339 2.63z"/></svg>