<svg xmlns="http://www.w3.org/2000/svg" width="32" height="32" viewBox="0 0 32 32"><path d="M25.937 8.99 18.94 3.957a4.99 4.99 0 0 0-5.878-.003l-7.005 5.04A5.02 5.02 0 0 0 4 13.036V24a5.006 5.006 0 0 0 5 5h3a2.003 2.003 0 0 0 2-2v-6h4v6a2.003 2.003 0 0 0 2 2h3a5.006 5.006 0 0 0 5-5V13.037a5.02 5.02 0 0 0-2.063-4.047M26 24a3.004 3.004 0 0 1-3 3h-3v-6a2.003 2.003 0 0 0-2-2h-4a2.003 2.003 0 0 0-2 2v6H9a3.003 3.003 0 0 1-3-3V13.037a3.01 3.01 0 0 1 1.23-2.424l7.004-5.039a3 3 0 0 1 3.535.003l6.996 5.033A3.01 3.01 0 0 1 26 13.037z"/></svg>