<svg xmlns="http://www.w3.org/2000/svg" width="32" height="32" viewBox="0 0 32 32"><path d="M25.645 9.396 18.647 4.36a4.49 4.49 0 0 0-5.292-.002L6.353 9.398a4.52 4.52 0 0 0-1.853 3.64V24A4.505 4.505 0 0 0 9 28.5h3a1.5 1.5 0 0 0 1.5-1.5v-6a.5.5 0 0 1 .5-.5h4a.5.5 0 0 1 .5.5v6a1.5 1.5 0 0 0 1.5 1.5h3a4.504 4.504 0 0 0 4.5-4.5V13.037a4.51 4.51 0 0 0-1.855-3.641M26.5 24a3.504 3.504 0 0 1-3.5 3.5h-3a.5.5 0 0 1-.5-.5v-6a1.5 1.5 0 0 0-1.5-1.5h-4a1.5 1.5 0 0 0-1.5 1.5v6a.5.5 0 0 1-.5.5H9A3.504 3.504 0 0 1 5.5 24V13.037a3.51 3.51 0 0 1 1.439-2.829L13.94 5.17a3.495 3.495 0 0 1 4.12.002l6.998 5.034a3.51 3.51 0 0 1 1.441 2.831z"/></svg>