<svg xmlns="http://www.w3.org/2000/svg" width="32" height="32" viewBox="0 0 32 32"><path d="M27 20.25H5A1.752 1.752 0 0 0 3.25 22v3A1.752 1.752 0 0 0 5 26.75h22A1.752 1.752 0 0 0 28.75 25v-3A1.752 1.752 0 0 0 27 20.25Zm.25 4.75a.251.251 0 0 1-.25.25H5a.25.25 0 0 1-.25-.25v-3a.25.25 0 0 1 .25-.25h22a.25.25 0 0 1 .25.25v3ZM27 5.25H5A1.752 1.752 0 0 0 3.25 7v3A1.752 1.752 0 0 0 5 11.75h22A1.752 1.752 0 0 0 28.75 10V7A1.753 1.753 0 0 0 27 5.25Zm.25 4.75a.251.251 0 0 1-.25.25H5a.25.25 0 0 1-.25-.25V7A.25.25 0 0 1 5 6.75h22a.25.25 0 0 1 .25.25v3ZM28 15.25H4a.75.75 0 1 0 0 1.5h24a.75.75 0 0 0 0-1.5Z"/></svg>