<svg xmlns="http://www.w3.org/2000/svg" width="32" height="32" viewBox="0 0 32 32"><path d="M27 20.5H5A1.5 1.5 0 0 0 3.5 22v3A1.5 1.5 0 0 0 5 26.5h22a1.5 1.5 0 0 0 1.5-1.5v-3a1.5 1.5 0 0 0-1.5-1.5m.5 4.5a.5.5 0 0 1-.5.5H5a.5.5 0 0 1-.5-.5v-3a.5.5 0 0 1 .5-.5h22a.5.5 0 0 1 .5.5zM27 5.5H5A1.5 1.5 0 0 0 3.5 7v3A1.5 1.5 0 0 0 5 11.5h22a1.5 1.5 0 0 0 1.5-1.5V7A1.5 1.5 0 0 0 27 5.5m.5 4.5a.5.5 0 0 1-.5.5H5a.5.5 0 0 1-.5-.5V7a.5.5 0 0 1 .5-.5h22a.5.5 0 0 1 .5.5zM28 15.5H4a.5.5 0 0 0 0 1h24a.5.5 0 0 0 0-1"/></svg>