<svg xmlns="http://www.w3.org/2000/svg" width="32" height="32" viewBox="0 0 32 32"><path d="M10 8.999V12a1 1 0 0 1-1 1H3a1 1 0 0 1-1-1V8.975a2 2 0 0 1 .008-.175 4.686 4.686 0 0 1 .472-1.747 3.63 3.63 0 0 1 1.23-1.416C4.316 5.234 5.076 5 6 5s1.685.234 2.29.637c.597.398.983.922 1.23 1.416A4.7 4.7 0 0 1 10 8.975V9M3 19a1 1 0 0 0-1 1v3.025a2 2 0 0 0 .008.175 4.685 4.685 0 0 0 .472 1.747 3.63 3.63 0 0 0 1.23 1.416C4.316 26.766 5.076 27 6 27s1.685-.234 2.29-.637a3.63 3.63 0 0 0 1.23-1.416 4.7 4.7 0 0 0 .479-1.88v-.042L10 23.01V20a1 1 0 0 0-1-1zm9-11a3 3 0 0 1 3-3h12a3 3 0 0 1 3 3v16a3 3 0 0 1-3 3H15a3 3 0 0 1-3-3v-2a1 1 0 0 1 .263-.676l4.261-4.648a1 1 0 0 0 0-1.352l-4.261-4.648A1 1 0 0 1 12 10zm5 5a1 1 0 0 0 1 1h9a1 1 0 1 0 0-2h-9a1 1 0 0 0-1 1m9.768 3.36a1 1 0 0 0-1.408-.128l-5.299 4.415-1.854-1.854a1 1 0 0 0-1.414 1.414l2.5 2.5a1 1 0 0 0 1.347.061l6-5a1 1 0 0 0 .128-1.408m-15.975-3.567a1 1 0 0 1 1.414 0l2.5 2.5a1 1 0 0 1 0 1.414l-2.5 2.5a1 1 0 0 1-1.414-1.414l.793-.793H3a1 1 0 1 1 0-2h8.586l-.793-.793a1 1 0 0 1 0-1.414"/></svg>