<svg xmlns="http://www.w3.org/2000/svg" width="32" height="32" viewBox="0 0 32 32"><path d="M27 26.5H15a2.5 2.5 0 0 1-2.5-2.5v-4c0-.28.22-.5.5-.5s.5.22.5.5v4c0 .83.67 1.5 1.5 1.5h12c.83 0 1.5-.67 1.5-1.5V13.5H15c-.28 0-.5-.22-.5-.5s.22-.5.5-.5h13.5V8c0-.83-.67-1.5-1.5-1.5H15c-.83 0-1.5.67-1.5 1.5v4c0 .28-.22.5-.5.5s-.5-.22-.5-.5V8A2.5 2.5 0 0 1 15 5.5h12A2.5 2.5 0 0 1 29.5 8v16a2.5 2.5 0 0 1-2.5 2.5m-21 0c-2.77 0-3.5-2.29-3.5-3.5v-4c0-.28.22-.5.5-.5s.5.22.5.5v4c0 .25.09 2.5 2.5 2.5s2.5-2.25 2.5-2.5v-2c0-.28.22-.5.5-.5s.5.22.5.5v2c0 1.21-.73 3.5-3.5 3.5m14-4a.47.47 0 0 1-.35-.15l-3-3c-.2-.2-.2-.51 0-.71s.51-.2.71 0l2.68 2.68 5.65-4.71c.21-.18.53-.15.7.06.18.21.15.53-.06.7l-6 5a.5.5 0 0 1-.32.12zm-9-3a.47.47 0 0 1-.35-.15c-.2-.2-.2-.51 0-.71l2.15-2.15H3c-.28 0-.5-.22-.5-.5s.22-.5.5-.5h9.79l-2.15-2.15c-.2-.2-.2-.51 0-.71s.51-.2.71 0l3 3h.01c.04.06.07.11.1.16.02.05.04.11.04.18v.04c0 .06-.02.12-.04.18a.36.36 0 0 1-.1.15h-.01l-3 3.01c-.1.1-.23.15-.35.15m-8-6c-.28 0-.5-.22-.5-.5V9c0-1.21.73-3.5 3.5-3.5S9.5 7.79 9.5 9v2c0 .28-.22.5-.5.5s-.5-.22-.5-.5V9c0-.25-.09-2.5-2.5-2.5S3.5 8.75 3.5 9v4c0 .28-.22.5-.5.5"/></svg>