<svg xmlns="http://www.w3.org/2000/svg" width="32" height="32" viewBox="0 0 32 32"><path d="M3.75 9.003V13a.75.75 0 0 1-1.5 0V8.979a2 2 0 0 1 .008-.161c.007-.102.021-.243.05-.41.054-.33.166-.782.396-1.243.232-.464.592-.951 1.146-1.32.558-.373 1.269-.595 2.15-.595s1.592.222 2.15.595c.554.369.914.856 1.146 1.32a4.4 4.4 0 0 1 .454 1.814V9v-.004V11a.75.75 0 0 1-1.5 0V8.991l-.004-.066a2.938 2.938 0 0 0-.292-1.09 1.9 1.9 0 0 0-.636-.742c-.285-.19-.7-.343-1.318-.343s-1.033.153-1.318.343c-.29.193-.493.456-.636.742a2.9 2.9 0 0 0-.296 1.156zM15 6.75c-.69 0-1.25.56-1.25 1.25v4a.75.75 0 0 1-1.5 0V8A2.75 2.75 0 0 1 15 5.25h12A2.75 2.75 0 0 1 29.75 8v16A2.75 2.75 0 0 1 27 26.75H15A2.75 2.75 0 0 1 12.25 24v-4a.75.75 0 0 1 1.5 0v4c0 .69.56 1.25 1.25 1.25h12c.69 0 1.25-.56 1.25-1.25V13.75H15a.75.75 0 0 1 0-1.5h13.25V8c0-.69-.56-1.25-1.25-1.25zm-4.53 5.72a.75.75 0 0 1 1.06 0l3 3a.75.75 0 0 1 0 1.06l-3 3a.75.75 0 1 1-1.06-1.06l1.72-1.72H3a.75.75 0 0 1 0-1.5h9.19l-1.72-1.72a.75.75 0 0 1 0-1.06m16.106 4.05a.75.75 0 0 1-.096 1.056l-6 5a.75.75 0 0 1-1.01-.046l-3-3a.75.75 0 1 1 1.06-1.06l2.516 2.515 5.474-4.561a.75.75 0 0 1 1.056.096M3 18.25a.75.75 0 0 1 .75.75v3.999-.002.012l.004.067a2.939 2.939 0 0 0 .292 1.09c.143.285.346.548.636.741.285.19.7.343 1.318.343s1.033-.152 1.318-.343c.29-.193.493-.456.636-.742a2.9 2.9 0 0 0 .296-1.156V21a.75.75 0 0 1 1.5 0v2.021a2 2 0 0 1-.008.161 4.435 4.435 0 0 1-.446 1.653c-.232.464-.592.951-1.146 1.32-.558.372-1.269.595-2.15.595s-1.592-.223-2.15-.595a3.4 3.4 0 0 1-1.146-1.32 4.4 4.4 0 0 1-.454-1.814V19a.75.75 0 0 1 .75-.75"/></svg>