<svg xmlns="http://www.w3.org/2000/svg" width="32" height="32" viewBox="0 0 32 32"><path d="M4 9.006V13a1 1 0 1 1-2 0V8.975a2 2 0 0 1 .008-.175 4.686 4.686 0 0 1 .472-1.747 3.63 3.63 0 0 1 1.23-1.416C4.316 5.234 5.076 5 6 5s1.685.234 2.29.637c.597.398.983.922 1.23 1.416A4.7 4.7 0 0 1 10 8.975V11a1 1 0 1 1-2 0V9l-.003-.058a2.689 2.689 0 0 0-.266-.995 1.64 1.64 0 0 0-.551-.646C6.94 7.14 6.575 7 6 7s-.94.14-1.18.3c-.246.165-.422.39-.55.647A2.7 2.7 0 0 0 4 9zM15 7a1 1 0 0 0-1 1v3a1 1 0 1 1-2 0V8a3 3 0 0 1 3-3h12a3 3 0 0 1 3 3v16a3 3 0 0 1-3 3H15a3 3 0 0 1-3-3v-3a1 1 0 1 1 2 0v3a1 1 0 0 0 1 1h12a1 1 0 0 0 1-1V8a1 1 0 0 0-1-1zM26.768 16.36a1 1 0 0 1-.128 1.408l-6 5a1 1 0 0 1-1.347-.06l-3-3a1 1 0 0 1 1.414-1.415l2.354 2.354 5.299-4.415a1 1 0 0 1 1.408.128M15 13c0-.552.418-1 .933-1h12.134c.515 0 .933.448.933 1s-.418 1-.933 1H15.933c-.515 0-.933-.448-.933-1M3 18a1 1 0 0 1 1 1v4l.003.058a2.69 2.69 0 0 0 .266.995c.129.256.305.482.551.646.24.16.605.301 1.18.301s.94-.14 1.18-.3c.246-.165.422-.39.55-.647A2.7 2.7 0 0 0 8 23v-2a1 1 0 1 1 2 0v2.025a2 2 0 0 1-.008.175 4.685 4.685 0 0 1-.472 1.747 3.63 3.63 0 0 1-1.23 1.416C7.684 26.766 6.924 27 6 27s-1.685-.234-2.29-.637a3.63 3.63 0 0 1-1.23-1.416A4.7 4.7 0 0 1 2 23.025V19a1 1 0 0 1 1-1M11.707 12.293a1 1 0 0 0-1.414 1.414L11.586 15H2.923c-.51 0-.923.448-.923 1s.413 1 .923 1h8.663l-1.293 1.293a1 1 0 1 0 1.414 1.414l3-3a1 1 0 0 0 0-1.414z"/></svg>