<svg xmlns="http://www.w3.org/2000/svg" width="32" height="32" viewBox="0 0 32 32"><path d="M12.378 7.409a1.5 1.5 0 0 0-2.756 0l-.002.003-4.588 10.914a6.604 6.604 0 0 0 .784 6.542 6.501 6.501 0 0 0 10.45 0c.05-.067.097-.156.158-.257a6.517 6.517 0 0 0 .545-6.282L12.38 7.41Zm3.064 16.842c-.04.076-.085.149-.134.218a5.497 5.497 0 0 1-8.691-.201 5.6 5.6 0 0 1-.664-5.552L10.54 7.802a.5.5 0 0 1 .919-.003l4.59 10.921a6.347 6.347 0 0 1-.607 5.531ZM27.171 10.912l-2.624-5.711a1.154 1.154 0 0 0-1.064-.7 1.105 1.105 0 0 0-1.027.666l-2.633 5.757a4.01 4.01 0 0 0 1.886 5.157 3.966 3.966 0 0 0 1.79.418 3.972 3.972 0 0 0 3.202-1.6 4.015 4.015 0 0 0 .47-3.986ZM25.9 14.3a3 3 0 0 1-5.162-2.97l2.63-5.752.006-.01a.103.103 0 0 1 .108-.068.173.173 0 0 1 .151.106l2.624 5.713A3.004 3.004 0 0 1 25.9 14.3Z"/></svg>