<svg xmlns="http://www.w3.org/2000/svg" width="32" height="32" viewBox="0 0 32 32"><path d="M12.378 7.409a1.5 1.5 0 0 0-2.756 0l-.002.003-4.588 10.914a6.6 6.6 0 0 0 .784 6.542 6.5 6.5 0 0 0 10.45 0c.05-.067.097-.156.158-.257a6.52 6.52 0 0 0 .545-6.282zm3.064 16.842q-.06.114-.134.218a5.497 5.497 0 0 1-8.691-.201 5.6 5.6 0 0 1-.664-5.552L10.54 7.802a.5.5 0 0 1 .919-.003l4.59 10.921a6.35 6.35 0 0 1-.607 5.531M27.171 10.913 24.547 5.2a1.15 1.15 0 0 0-1.064-.7 1.11 1.11 0 0 0-1.027.666l-2.633 5.757a4.01 4.01 0 0 0 1.886 5.157 4 4 0 0 0 1.79.418 3.97 3.97 0 0 0 3.202-1.6 4.01 4.01 0 0 0 .47-3.986M25.9 14.3a3 3 0 0 1-5.162-2.97l2.63-5.752.006-.01a.1.1 0 0 1 .108-.068.17.17 0 0 1 .151.106l2.624 5.713A3 3 0 0 1 25.9 14.3"/></svg>