<svg xmlns="http://www.w3.org/2000/svg" width="32" height="32" viewBox="0 0 32 32"><path d="M12.838 7.211a2 2 0 0 0-3.677 0l-.002.007L4.573 18.13a7.102 7.102 0 0 0 .843 7.04A6.986 6.986 0 0 0 11.042 28a6.717 6.717 0 0 0 5.623-2.833c.072-.105.2-.318.2-.318a7.116 7.116 0 0 0 .565-6.714L12.838 7.211Zm2.173 16.794c-.063.095-.105.15-.165.236a4.998 4.998 0 0 1-7.83-.273 5.1 5.1 0 0 1-.603-5.058L11 8l4.59 10.917a5.391 5.391 0 0 1-.579 5.088ZM27.626 10.704l-2.619-5.7a1.655 1.655 0 0 0-2.41-.743c-.263.171-.47.415-.597.702l-2.636 5.765a4.507 4.507 0 0 0 2.122 5.8 4.46 4.46 0 0 0 2.013.471 4.465 4.465 0 0 0 3.601-1.8 4.522 4.522 0 0 0 .526-4.495ZM25.5 14a2.5 2.5 0 0 1-4.308-2.462l2.303-5.034 2.303 5.012a2.509 2.509 0 0 1-.298 2.484Z"/></svg>