<svg xmlns="http://www.w3.org/2000/svg" width="32" height="32" viewBox="0 0 32 32"><path d="M12.609 7.31a1.751 1.751 0 0 0-3.218 0l-.002.005-4.587 10.913a6.85 6.85 0 0 0 .815 6.79 6.75 6.75 0 0 0 10.848 0c.063-.082.12-.199.18-.288.636-.947.965-2.031 1.073-3.168a6.85 6.85 0 0 0-.518-3.33zm2.676 16.803c-.054.072-.127.144-.212.247a5.247 5.247 0 0 1-8.257-.242 5.35 5.35 0 0 1-.633-5.304L10.771 7.9a.25.25 0 0 1 .457-.003l4.59 10.922c.369.861.504 1.804.392 2.734s-.364 1.81-.925 2.56M27.4 10.808l-2.623-5.706a1.4 1.4 0 0 0-1.294-.852 1.35 1.35 0 0 0-1.254.815l-2.636 5.76a4.26 4.26 0 0 0 2.005 5.48 4.2 4.2 0 0 0 1.902.444A4.22 4.22 0 0 0 26.9 15.05a4.27 4.27 0 0 0 .498-4.242M25.7 14.15a2.751 2.751 0 0 1-4.736-2.717l2.53-5.53 2.533 5.514a2.76 2.76 0 0 1-.327 2.733"/></svg>