<svg xmlns="http://www.w3.org/2000/svg" width="32" height="32" viewBox="0 0 32 32"><path d="M12.838 7.211a2 2 0 0 0-3.677 0l-.002.007L4.573 18.13a7.1 7.1 0 0 0 .843 7.04A6.99 6.99 0 0 0 11.042 28a6.72 6.72 0 0 0 5.623-2.833c.072-.105.2-.318.2-.318a7.12 7.12 0 0 0 .565-6.714zm2.173 16.794c-.063.095-.105.15-.165.236a4.998 4.998 0 0 1-7.83-.273 5.1 5.1 0 0 1-.603-5.058L11 8l4.59 10.917a5.39 5.39 0 0 1-.579 5.088M27.626 10.705l-2.619-5.702a1.655 1.655 0 0 0-2.41-.742c-.263.171-.47.415-.597.702l-2.636 5.765a4.507 4.507 0 0 0 2.122 5.8 4.46 4.46 0 0 0 2.013.471 4.47 4.47 0 0 0 3.601-1.8 4.52 4.52 0 0 0 .526-4.494M25.5 13.999a2.5 2.5 0 0 1-4.308-2.462l2.303-5.034 2.303 5.012a2.51 2.51 0 0 1-.298 2.484"/></svg>