<svg xmlns="http://www.w3.org/2000/svg" width="32" height="32" viewBox="0 0 32 32"><path d="M16 2.25c-9.716 0-13.75 4.595-13.75 7.055v1.467A2.98 2.98 0 0 0 5.23 13.75h3.57a2.963 2.963 0 0 0 2.952-2.969V9.027A7.1 7.1 0 0 1 16 7.75a7.13 7.13 0 0 1 4.25 1.272l-.002 1.768a3.064 3.064 0 0 0 3.082 2.96h3.44a2.98 2.98 0 0 0 2.98-2.979V9.306c0-2.46-4.034-7.055-13.75-7.055m12.25 8.522a1.48 1.48 0 0 1-1.478 1.478h-3.44a1.565 1.565 0 0 1-1.582-1.46V8.837c0-1.234-3.01-2.587-5.75-2.587s-5.75 1.357-5.75 2.593v1.938a1.46 1.46 0 0 1-1.452 1.469H5.23a1.48 1.48 0 0 1-1.479-1.479V9.306C3.75 7.67 7.275 3.75 16 3.75c8.726 0 12.25 3.92 12.25 5.555zM13.792 21.451l-8.008-4.013a1.746 1.746 0 0 0-2.534 1.56v8.004a1.743 1.743 0 0 0 2.532 1.56l8.01-4.013a1.732 1.732 0 0 0 0-3.098m-.675 1.758-8.01 4.014a.245.245 0 0 1-.325-.101.25.25 0 0 1-.032-.12v-8.004a.24.24 0 0 1 .118-.21.25.25 0 0 1 .128-.038q.06 0 .114.03l8.005 4.01a.23.23 0 0 1 .002.419M27.79 21.451l-8.005-4.013a1.75 1.75 0 0 0-2.312.708c-.146.26-.222.554-.223.852v8.004a1.744 1.744 0 0 0 2.533 1.56l8.008-4.013a1.73 1.73 0 0 0 0-3.098m-.673 1.758-8.008 4.014a.25.25 0 0 1-.241-.011.24.24 0 0 1-.117-.21v-8.004a.24.24 0 0 1 .117-.21.25.25 0 0 1 .129-.038q.06 0 .114.03l8.004 4.01a.23.23 0 0 1 .002.419"/></svg>