<svg xmlns="http://www.w3.org/2000/svg" width="32" height="32" viewBox="0 0 32 32"><path d="M16 2.5C6.46 2.5 2.5 6.932 2.5 9.305v1.467A2.73 2.73 0 0 0 5.23 13.5h3.57a2.713 2.713 0 0 0 2.702-2.719V8.93A7 7 0 0 1 16 7.5a7.02 7.02 0 0 1 4.5 1.423l-.002 1.867a2.81 2.81 0 0 0 2.832 2.71h3.44a2.73 2.73 0 0 0 2.73-2.729V9.306C29.5 6.932 25.54 2.5 16 2.5m12.5 8.272a1.73 1.73 0 0 1-1.728 1.728h-3.44a1.82 1.82 0 0 1-1.832-1.71V8.837c0-1-2.718-2.337-5.5-2.337-2.78 0-5.5 1.342-5.5 2.343v1.938A1.713 1.713 0 0 1 8.799 12.5H5.23A1.73 1.73 0 0 1 3.5 10.771V9.306C3.5 7.597 7.097 3.5 16 3.5s12.5 4.097 12.5 5.805zM13.678 21.674l-8.007-4.012a1.496 1.496 0 0 0-2.17 1.336v8.004a1.494 1.494 0 0 0 2.168 1.337l8.01-4.013a1.481 1.481 0 0 0 0-2.652m-.449 1.759L5.22 27.445a.495.495 0 0 1-.72-.443v-8.004a.49.49 0 0 1 .237-.423.494.494 0 0 1 .485-.02l8.006 4.011a.482.482 0 0 1 .001.867M27.678 21.674l-8.006-4.012a1.5 1.5 0 0 0-2.172 1.336v8.004a1.495 1.495 0 0 0 2.17 1.337l8.008-4.013a1.48 1.48 0 0 0 0-2.652m-.449 1.759-8.008 4.012a.497.497 0 0 1-.72-.443v-8.004a.49.49 0 0 1 .236-.423.492.492 0 0 1 .486-.02l8.004 4.011a.48.48 0 0 1 .002.867"/></svg>