<svg xmlns="http://www.w3.org/2000/svg" width="32" height="32" viewBox="0 0 32 32"><path d="M16 2.25c-9.716 0-13.75 4.595-13.75 7.055v1.466A2.982 2.982 0 0 0 5.23 13.75h3.57a2.963 2.963 0 0 0 2.952-2.969V9.027A7.107 7.107 0 0 1 16 7.75a7.128 7.128 0 0 1 4.25 1.272l-.002 1.768a3.064 3.064 0 0 0 3.082 2.96h3.44a2.981 2.981 0 0 0 2.98-2.979V9.306c0-2.46-4.034-7.055-13.75-7.055Zm12.25 8.521a1.48 1.48 0 0 1-1.478 1.479h-3.44a1.565 1.565 0 0 1-1.582-1.46V8.837c0-1.234-3.01-2.587-5.75-2.587s-5.75 1.357-5.75 2.593v1.938a1.462 1.462 0 0 1-1.452 1.469H5.23a1.48 1.48 0 0 1-1.479-1.479V9.306C3.75 7.67 7.275 3.75 16 3.75c8.726 0 12.25 3.92 12.25 5.555v1.466ZM13.791 21.451l-8.007-4.013a1.746 1.746 0 0 0-2.534 1.56v8.004a1.743 1.743 0 0 0 2.532 1.56l8.01-4.013a1.732 1.732 0 0 0 0-3.098Zm-.674 1.758-8.01 4.014a.245.245 0 0 1-.325-.101.246.246 0 0 1-.032-.12v-8.004a.238.238 0 0 1 .118-.21.248.248 0 0 1 .128-.038c.04 0 .079.01.114.03l8.005 4.01a.23.23 0 0 1 .002.419ZM27.79 21.451l-8.005-4.013a1.75 1.75 0 0 0-2.312.708c-.146.26-.222.554-.223.852v8.004a1.744 1.744 0 0 0 2.533 1.56l8.008-4.013a1.73 1.73 0 0 0 0-3.098Zm-.673 1.758-8.008 4.014a.246.246 0 0 1-.241-.011.238.238 0 0 1-.117-.21v-8.004a.24.24 0 0 1 .117-.21.248.248 0 0 1 .129-.038c.04 0 .079.01.114.03l8.004 4.01a.23.23 0 0 1 .002.419Z"/></svg>