<svg xmlns="http://www.w3.org/2000/svg" width="32" height="32" viewBox="0 0 32 32"><path d="M16 2C6.107 2 2 6.758 2 9.305v1.467A3.23 3.23 0 0 0 5.23 14h3.57A3.214 3.214 0 0 0 12 10.781V9.144A7 7 0 0 1 16 8a7 7 0 0 1 4 1.14l-.002 1.65A3.316 3.316 0 0 0 23.332 14h3.44a3.23 3.23 0 0 0 3.23-3.229V9.306C30 6.758 25.893 2 16 2M13.904 21.228l-8.007-4.012A1.996 1.996 0 0 0 3 18.998v8.004a1.993 1.993 0 0 0 2.894 1.784l8.01-4.014a1.981 1.981 0 0 0 0-3.544M27.904 21.228l-8.006-4.012A1.996 1.996 0 0 0 17 18.998v8.004a1.993 1.993 0 0 0 2.895 1.783l8.009-4.013a1.98 1.98 0 0 0 0-3.544"/></svg>