<svg xmlns="http://www.w3.org/2000/svg" width="32" height="32" viewBox="0 0 32 32"><path d="M16 2C6.107 2 2 6.758 2 9.305v1.467A3.23 3.23 0 0 0 5.23 14h3.57A3.214 3.214 0 0 0 12 10.781V9.144A7 7 0 0 1 16 8a7 7 0 0 1 4 1.14l-.002 1.65A3.316 3.316 0 0 0 23.332 14h3.44a3.23 3.23 0 0 0 3.23-3.229V9.306C30 6.758 25.893 2 16 2m12 8.772A1.23 1.23 0 0 1 26.772 12h-3.44A1.31 1.31 0 0 1 22 10.791V8.837C22 7.309 18.703 6 16 6c-2.971 0-6 1.435-6 2.843v1.938A1.21 1.21 0 0 1 8.799 12H5.23A1.23 1.23 0 0 1 4 10.771V9.306C4 7.795 7.57 4 16 4s12 3.795 12 5.305zM13.904 21.228l-8.007-4.012A1.996 1.996 0 0 0 3 18.998v8.004a1.993 1.993 0 0 0 2.894 1.784l8.01-4.014a1.981 1.981 0 0 0 0-3.544M5 27.002l-.002-8L12.976 23zM27.904 21.228l-8.006-4.012A1.996 1.996 0 0 0 17 18.998v8.004a1.993 1.993 0 0 0 2.895 1.783l8.009-4.013a1.98 1.98 0 0 0 0-3.544M19 27.002l-.002-8L26.977 23z"/></svg>