<svg xmlns="http://www.w3.org/2000/svg" width="32" height="32" viewBox="0 0 32 32"><path d="M16 10c-9.54 0-13.5 4.432-13.5 6.805v1.467A2.73 2.73 0 0 0 5.23 21h3.57a2.713 2.713 0 0 0 2.702-2.719V16.43A7 7 0 0 1 16 15a7.02 7.02 0 0 1 4.5 1.423l-.002 1.867A2.81 2.81 0 0 0 23.332 21h3.44a2.73 2.73 0 0 0 2.73-2.729v-1.466C29.5 14.432 25.54 10 16 10m12.5 8.272A1.73 1.73 0 0 1 26.772 20h-3.44a1.82 1.82 0 0 1-1.832-1.71v-1.953c0-1-2.718-2.337-5.5-2.337-2.78 0-5.5 1.342-5.5 2.343v1.938A1.713 1.713 0 0 1 8.799 20H5.23A1.73 1.73 0 0 1 3.5 18.271v-1.466C3.5 15.097 7.097 11 16 11s12.5 4.097 12.5 5.805z"/></svg>