<svg xmlns="http://www.w3.org/2000/svg" width="32" height="32" viewBox="0 0 32 32"><path d="M16 10c-9.893 0-14 4.758-14 7.305v1.467A3.23 3.23 0 0 0 5.23 22h3.57A3.214 3.214 0 0 0 12 18.781v-1.636A7 7 0 0 1 16 16a7 7 0 0 1 4 1.14l-.002 1.65A3.316 3.316 0 0 0 23.332 22h3.44a3.23 3.23 0 0 0 3.23-3.229v-1.466C30 14.758 25.893 10 16 10m12 8.772A1.23 1.23 0 0 1 26.772 20h-3.44A1.31 1.31 0 0 1 22 18.791v-1.954C22 15.309 18.703 14 16 14c-2.971 0-6 1.435-6 2.843v1.938A1.21 1.21 0 0 1 8.799 20H5.23A1.23 1.23 0 0 1 4 18.771v-1.466C4 15.795 7.57 12 16 12s12 3.795 12 5.305z"/></svg>