<svg xmlns="http://www.w3.org/2000/svg" width="32" height="32" viewBox="0 0 32 32"><path d="M10.5 3a.5.5 0 0 0-1 0v2.5H9A4.5 4.5 0 0 0 4.5 10v14A4.5 4.5 0 0 0 9 28.5h14a4.5 4.5 0 0 0 4.5-4.5V10A4.5 4.5 0 0 0 23 5.5h-.5V3a.5.5 0 0 0-1 0v2.5h-11zM23 6.5a3.5 3.5 0 0 1 3.5 3.5v14a3.5 3.5 0 0 1-3.5 3.5H9A3.5 3.5 0 0 1 5.5 24V10A3.5 3.5 0 0 1 9 6.5zm-4.666 3.576a.5.5 0 0 0-.891-.38l-6.496 8.458a.5.5 0 0 0 .397.804h3.089l-.76 4.966a.5.5 0 0 0 .892.38l6.495-8.458a.5.5 0 0 0-.396-.804h-3.09zm-3.319 7.882h-2.657l4.693-6.11-.553 3.618a.5.5 0 0 0 .494.576h2.657l-4.693 6.11.553-3.618a.5.5 0 0 0-.494-.576"/></svg>