<svg xmlns="http://www.w3.org/2000/svg" width="32" height="32" viewBox="0 0 32 32"><path d="M11 3a1 1 0 1 0-2 0v2a5 5 0 0 0-5 5v14a5 5 0 0 0 5 5h14a5 5 0 0 0 5-5V10a5 5 0 0 0-5-5V3a1 1 0 1 0-2 0v2H11zm12 4a3 3 0 0 1 3 3v14a3 3 0 0 1-3 3H9a3 3 0 0 1-3-3V10a3 3 0 0 1 3-3zm-4.172 3.151a1 1 0 0 0-1.782-.76l-6.495 8.458a1 1 0 0 0 .793 1.61h2.507l-.671 4.39a1 1 0 0 0 1.781.76l6.496-8.458a1 1 0 0 0-.793-1.61h-2.507zm-3.813 7.307h-1.642l2.89-3.763-.26 1.695a1 1 0 0 0 .99 1.152h1.642l-2.89 3.763.259-1.695a1 1 0 0 0-.989-1.152"/></svg>