<svg xmlns="http://www.w3.org/2000/svg" width="32" height="32" viewBox="0 0 32 32"><path d="M10.75 3a.75.75 0 0 0-1.5 0v2.25H9A4.75 4.75 0 0 0 4.25 10v14A4.75 4.75 0 0 0 9 28.75h14A4.75 4.75 0 0 0 27.75 24V10A4.75 4.75 0 0 0 23 5.25h-.25V3a.75.75 0 0 0-1.5 0v2.25h-10.5zM23 6.75A3.25 3.25 0 0 1 26.25 10v14A3.25 3.25 0 0 1 23 27.25H9A3.25 3.25 0 0 1 5.75 24V10A3.25 3.25 0 0 1 9 6.75zm-4.42 3.363a.75.75 0 0 0-1.335-.57l-6.496 8.459a.75.75 0 0 0 .595 1.206h2.798l-.715 4.679a.75.75 0 0 0 1.336.57l6.496-8.458a.75.75 0 0 0-.595-1.207h-2.798zm-3.565 7.595h-2.15l3.792-4.937-.406 2.657a.75.75 0 0 0 .741.864h2.15l-3.792 4.937.407-2.657a.75.75 0 0 0-.742-.864"/></svg>