<svg xmlns="http://www.w3.org/2000/svg" width="32" height="32" viewBox="0 0 32 32"><path fill-rule="evenodd" d="M11 3a1 1 0 1 0-2 0v2a5 5 0 0 0-5 5v14a5 5 0 0 0 5 5h14a5 5 0 0 0 5-5V10a5 5 0 0 0-5-5V3a1 1 0 1 0-2 0v2H11V3Zm-5 7a3 3 0 0 1 3-3h14a3 3 0 0 1 3 3v14a3 3 0 0 1-3 3H9a3 3 0 0 1-3-3V10Zm5.344 8.458L17.84 10l-.848 5.542h3.672L14.168 24l.847-5.542h-3.671Z" clip-rule="evenodd"/><path d="M9 5v1a1 1 0 0 0 1-1H9Zm14 0h-1a1 1 0 0 0 1 1V5Zm-2 0v1a1 1 0 0 0 1-1h-1ZM11 5h-1a1 1 0 0 0 1 1V5Zm6.84 5 .988.151a1 1 0 0 0-1.782-.76l.794.609Zm-6.496 8.458-.793-.609a1 1 0 0 0 .793 1.61v-1Zm5.648-2.916-.988-.152a1 1 0 0 0 .988 1.152v-1Zm3.672 0 .793.609a1 1 0 0 0-.793-1.61v1ZM14.168 24l-.988-.151a1 1 0 0 0 1.781.76L14.168 24Zm.847-5.542.989.152a1 1 0 0 0-.989-1.152v1ZM10 3h2a2 2 0 0 0-2-2v2Zm0 0V1a2 2 0 0 0-2 2h2Zm0 2V3H8v2h2Zm-5 5a4 4 0 0 1 4-4V4a6 6 0 0 0-6 6h2Zm0 14V10H3v14h2Zm4 4a4 4 0 0 1-4-4H3a6 6 0 0 0 6 6v-2Zm14 0H9v2h14v-2Zm4-4a4 4 0 0 1-4 4v2a6 6 0 0 0 6-6h-2Zm0-14v14h2V10h-2Zm-4-4a4 4 0 0 1 4 4h2a6 6 0 0 0-6-6v2Zm-1-3v2h2V3h-2Zm0 0h2a2 2 0 0 0-2-2v2Zm0 0V1a2 2 0 0 0-2 2h2Zm0 2V3h-2v2h2ZM11 6h10V4H11v2Zm-1-3v2h2V3h-2ZM9 6a4 4 0 0 0-4 4h2a2 2 0 0 1 2-2V6Zm14 0H9v2h14V6Zm4 4a4 4 0 0 0-4-4v2a2 2 0 0 1 2 2h2Zm0 14V10h-2v14h2Zm-4 4a4 4 0 0 0 4-4h-2a2 2 0 0 1-2 2v2ZM9 28h14v-2H9v2Zm-4-4a4 4 0 0 0 4 4v-2a2 2 0 0 1-2-2H5Zm0-14v14h2V10H5Zm12.046-.61-6.495 8.46 1.586 1.217 6.496-8.458-1.587-1.218Zm.935 6.303.847-5.542-1.977-.302-.847 5.541 1.977.303Zm2.683-1.151h-3.672v2h3.672v-2ZM14.96 24.609l6.496-8.458-1.586-1.218-6.496 8.458 1.586 1.218Zm-.934-6.302-.847 5.542 1.976.302.848-5.541-1.977-.303Zm-2.683 1.151h3.671v-2h-3.671v2Z"/></svg>