<svg xmlns="http://www.w3.org/2000/svg" width="32" height="32" viewBox="0 0 32 32"><path d="M27.413 4.134a.74.74 0 0 0-.52.216l-5.866 5.877-1.955 2.07.153-3.783V6.152a.713.713 0 0 0-.686-.71.715.715 0 0 0-.736.71v7.554c0 .495.254.762.774.762h7.605c.406 0 .736-.33.723-.737a.716.716 0 0 0-.723-.685h-2.425l-3.796.152 2.082-1.955 5.865-5.865c.165-.178.241-.343.241-.559 0-.393-.317-.685-.736-.685ZM21.802 28.42c2.031 0 3.516-.571 4.799-1.955.076-.089.152-.165.215-.241.762-.826 1.13-1.663 1.13-2.438 0-.825-.47-1.587-1.434-2.247L22.83 19c-1.04-.724-2.272-.838-3.377.241l-.927.914c-.279.28-.584.33-.926.14-.623-.38-2.032-1.536-3.11-2.615-1.181-1.181-2.02-2.133-2.527-3.022-.19-.343-.14-.647.14-.927l.914-.926c1.079-1.105.964-2.336.24-3.377L10.72 5.746c-.66-.965-1.422-1.41-2.247-1.434-.775-.013-1.625.368-2.438 1.13-.076.063-.152.14-.241.215-1.371 1.27-1.955 2.742-1.955 4.748 0 3.568 2.31 7.859 6.233 11.781 3.91 3.898 8.189 6.234 11.73 6.234Zm.012-1.536c-3.237.038-7.287-2.4-10.613-5.739-3.351-3.338-5.865-7.49-5.827-10.74.013-1.409.495-2.653 1.523-3.605.077-.051.127-.102.19-.153.47-.431.953-.647 1.36-.647.406 0 .748.165 1.015.584l2.463 3.669c.317.47.368 1.003-.152 1.523l-1.042 1.029c-.761.761-.736 1.739-.215 2.5.609.89 1.79 2.26 2.932 3.416 1.155 1.168 2.616 2.412 3.504 3.021.762.52 1.74.546 2.501-.216l1.028-1.04c.521-.521 1.054-.47 1.524-.153l3.669 2.463c.419.267.584.61.584 1.015 0 .42-.216.89-.648 1.359-.063.076-.101.114-.152.19-.952 1.029-2.209 1.511-3.643 1.524Z"/></svg>