<svg xmlns="http://www.w3.org/2000/svg" width="32" height="32" viewBox="0 0 32 32"><path d="M29.53 2.47a.75.75 0 0 0-1.06 0l-8.72 8.72V5a.75.75 0 1 0-1.5 0v8a.75.75 0 0 0 .75.75h8a.75.75 0 1 0 0-1.5h-6.188l8.719-8.72a.749.749 0 0 0 0-1.06ZM24.038 19.699a3.265 3.265 0 0 0-4.616.004s-1.26 1.282-1.734 1.76a7.293 7.293 0 0 1-7.152-7.151c.48-.476 1.76-1.736 1.765-1.74a3.265 3.265 0 0 0 0-4.61L9.547 5.207a3.349 3.349 0 0 0-4.627 0L3.448 6.68c-1.945 1.945-2.37 8.785 5.359 16.513 4.17 4.17 7.842 5.697 10.189 6.244.847.202 1.715.308 2.586.314a5.263 5.263 0 0 0 3.737-1.2l1.472-1.471a3.27 3.27 0 0 0 0-4.628l-2.753-2.753Zm1.692 6.32-1.472 1.472c-.638.637-2.449 1.06-4.922.485-2.156-.503-5.549-1.924-9.469-5.844C2.834 15.1 3.18 9.07 4.508 7.741L5.98 6.269a1.772 1.772 0 0 1 2.507 0l2.753 2.753a1.76 1.76 0 0 1 .005 2.484s-1.503 1.479-1.868 1.843c-.648.647-.218 2.457-.07 2.997a9.295 9.295 0 0 0 2.303 4.043c2.3 2.299 6.179 3.095 7.04 2.233.363-.363 1.838-1.863 1.838-1.863a1.804 1.804 0 0 1 2.49 0l2.752 2.753a1.772 1.772 0 0 1 0 2.507Z"/></svg>