<svg xmlns="http://www.w3.org/2000/svg" width="32" height="32" viewBox="0 0 32 32"><path d="M11.553 3.776a.5.5 0 0 1 .568-.261l3.879.97 3.879-.97a.5.5 0 0 1 .568.261l3 6A.5.5 0 0 1 23 10.5H9a.5.5 0 0 1-.447-.724zm.715.806L9.809 9.5h12.382l-2.459-4.918-3.61.903a.5.5 0 0 1-.243 0zM7 12.5a.5.5 0 0 0-.3.1l-4 3a.5.5 0 0 0 .3.9h26a.5.5 0 0 0 .3-.9l-4-3a.5.5 0 0 0-.3-.1zm-2.5 3 2.667-2h17.666l2.667 2zM5.5 23a4.5 4.5 0 0 1 8.532-2h3.936a4.5 4.5 0 1 1-.357 1H14.39q.11.483.111 1a4.5 4.5 0 1 1-9 0m4.5-3.5a3.5 3.5 0 1 0 0 7 3.5 3.5 0 0 0 0-7m12 0a3.5 3.5 0 1 0 0 7 3.5 3.5 0 0 0 0-7"/></svg>