<svg xmlns="http://www.w3.org/2000/svg" width="32" height="32" viewBox="0 0 32 32"><path d="M26.993 14h-8a1 1 0 0 1-1-1V5a1 1 0 1 1 2 0v5.583l8.293-8.29a.997.997 0 0 1 1.414 0 1 1 0 0 1 0 1.414L21.404 12h5.59a1 1 0 1 1 0 2Zm-7.391 5.88c1.142-1.141 3.123-1.14 4.26-.003l2.752 2.753a3.025 3.025 0 0 1 0 4.274l-1.472 1.472c-.732.732-2.033 1.12-3.585 1.12a11.11 11.11 0 0 1-2.504-.302c-2.315-.54-5.94-2.05-10.069-6.178-4.128-4.128-5.638-7.754-6.177-10.068-.605-2.598-.285-4.988.818-6.09l1.472-1.472a3.026 3.026 0 0 1 4.275 0l2.752 2.753c.57.569.882 1.325.882 2.129a2.99 2.99 0 0 1-.882 2.128l-.192.19a444.82 444.82 0 0 0-1.67 1.648c-.119.359.178 3.218 2.233 5.272 2.054 2.054 4.913 2.352 5.345 2.18.29-.31 1.762-1.806 1.762-1.806Z"/></svg>