<svg xmlns="http://www.w3.org/2000/svg" width="32" height="32" viewBox="0 0 32 32"><path d="M11.33 3.665a.75.75 0 0 1 .852-.393L16 4.227l3.818-.955a.75.75 0 0 1 .853.393l3 6A.75.75 0 0 1 23 10.75H9a.75.75 0 0 1-.67-1.085zm1.072 1.209L10.214 9.25h11.573l-2.189-4.376-3.416.854a.75.75 0 0 1-.364 0zM7 12.25a.75.75 0 0 0-.45.15l-4 3A.75.75 0 0 0 3 16.75h26a.75.75 0 0 0 .45-1.35l-4-3a.75.75 0 0 0-.45-.15zm-1.75 3 2-1.5h17.5l2 1.5zM5.25 23a4.75 4.75 0 0 1 8.934-2.25h3.632a4.75 4.75 0 1 1-.507 1.5H14.69q.059.367.059.75a4.75 4.75 0 1 1-9.5 0M10 19.75a3.25 3.25 0 1 0 0 6.5 3.25 3.25 0 0 0 0-6.5m12 0a3.25 3.25 0 1 0 0 6.5 3.25 3.25 0 0 0 0-6.5"/></svg>