<svg xmlns="http://www.w3.org/2000/svg" width="32" height="32" viewBox="0 0 32 32"><path d="M29.354 2.647a.5.5 0 0 0-.707 0l-9.146 9.147V5a.5.5 0 1 0-1 0v8a.5.5 0 0 0 .5.5h8a.5.5 0 0 0 0-1h-6.792l9.145-9.146a.498.498 0 0 0 0-.707ZM23.861 19.875a3.015 3.015 0 0 0-4.26.003s-1.472 1.498-1.761 1.807a7.27 7.27 0 0 1-5.346-2.18 7.653 7.653 0 0 1-2.233-5.272c.363-.363 1.86-1.835 1.863-1.838a3.014 3.014 0 0 0 0-4.257L9.371 5.385a3.093 3.093 0 0 0-4.275 0L3.625 6.857C1.742 8.74 1.38 15.414 8.984 23.016c4.128 4.128 7.754 5.638 10.068 6.177.82.195 1.66.296 2.503.301a5.104 5.104 0 0 0 3.587-1.12l1.472-1.471a3.02 3.02 0 0 0 0-4.275l-2.753-2.753Zm2.046 6.32-1.472 1.472c-.707.71-2.576 1.156-5.156.552-2.188-.51-5.627-1.95-9.588-5.91-7.16-7.16-6.74-13.363-5.36-14.745l1.472-1.472a2.022 2.022 0 0 1 2.86 0l2.754 2.753a2.013 2.013 0 0 1 .003 2.84s-1.501 1.476-1.866 1.84c-.579.58-.067 2.534-.006 2.755a9.032 9.032 0 0 0 2.24 3.932c2.303 2.304 5.989 2.928 6.685 2.234.364-.364 1.838-1.864 1.838-1.864a2.058 2.058 0 0 1 2.843 0l2.753 2.753a2.02 2.02 0 0 1 0 2.86Z"/></svg>