<svg xmlns="http://www.w3.org/2000/svg" width="32" height="32" viewBox="0 0 32 32"><path d="M25.87 25.162A13.465 13.465 0 0 0 6.837 6.131L3.353 2.646a.5.5 0 0 0-.707.707l6 6a.5.5 0 0 0 .707-.707l-1.81-1.81a12.469 12.469 0 0 1 17.621 17.621l-5.81-5.81a.5.5 0 1 0-.707.706l10 10a.5.5 0 0 0 .707-.707zM16 28.5A12.505 12.505 0 0 1 3.525 16.499h11.267l-3.145 3.147a.499.499 0 1 0 .707.707l3.999-4a.5.5 0 0 0 0-.707l-4-4a.5.5 0 0 0-.707.707l3.146 3.147-11.27-.001a12.43 12.43 0 0 1 2.654-7.203l-.713-.713a13.484 13.484 0 0 0 18.954 18.954l-.713-.713A12.43 12.43 0 0 1 16 28.5"/></svg>