<svg xmlns="http://www.w3.org/2000/svg" width="32" height="32" viewBox="0 0 32 32"><path d="M26.556 25.142A13.961 13.961 0 0 0 6.857 5.443l-3.15-3.15a1 1 0 0 0-1.414 1.414l6 6a1 1 0 0 0 1.414-1.414L8.27 6.856A11.97 11.97 0 0 1 25.144 23.73l-5.437-5.436a1 1 0 0 0-1.414 1.414l10 10a1 1 0 0 0 1.414-1.414zM16 28A12.01 12.01 0 0 1 4.05 16.999h9.535l-2.292 2.294a1 1 0 1 0 1.414 1.414l3.999-4a1 1 0 0 0 0-1.414l-3.999-4a1 1 0 0 0-1.414 1.414L13.585 15l-9.538-.001a11.94 11.94 0 0 1 1.627-5.082L4.22 8.463A13.977 13.977 0 0 0 23.536 27.78l-1.453-1.453A11.9 11.9 0 0 1 16 28"/></svg>