<svg xmlns="http://www.w3.org/2000/svg" width="32" height="32" viewBox="0 0 32 32"><path d="M26.22 25.16A13.722 13.722 0 0 0 6.84 5.78l-3.31-3.31A.75.75 0 1 0 2.47 3.53l6 6a.75.75 0 0 0 1.06-1.06L7.904 6.843a12.22 12.22 0 0 1 17.253 17.253L19.53 18.47a.75.75 0 0 0-1.06 1.06l10 10a.75.75 0 0 0 1.061.001.75.75 0 0 0 0-1.061zM16 28.25A12.255 12.255 0 0 1 3.788 16.749h10.4l-2.718 2.72a.75.75 0 1 0 1.06 1.061l4-4a.75.75 0 0 0 0-1.06l-4-4a.751.751 0 0 0-1.281.53.75.75 0 0 0 .22.53l2.72 2.72-10.41-.001c.133-2.21.866-4.343 2.12-6.167l-1.07-1.07A13.727 13.727 0 0 0 23.989 27.17l-1.07-1.07A12.18 12.18 0 0 1 16 28.25"/></svg>