<svg xmlns="http://www.w3.org/2000/svg" width="32" height="32" viewBox="0 0 32 32"><path d="M20.053 10.612c.524.578.92 1.258 1.164 1.996.244.738.329 1.518.251 2.29a5.388 5.388 0 0 1-.395 1.594l-.005.012-1.608 3.327.003 4.457v.002a3.382 3.382 0 0 1-.934 2.383 3.465 3.465 0 0 1-2.349 1.07c-.06.002-.12.004-.18.004h-.002v-.25a3.196 3.196 0 0 1-2.301-.925 3.084 3.084 0 0 1-.913-2.28l7.27-13.68Zm0 0-.002-.003a5.417 5.417 0 0 0-1.852-1.296 5.477 5.477 0 0 0-2.223-.433 5.446 5.446 0 0 0-2.2.44 5.386 5.386 0 0 0-1.831 1.29l-.002.003a5.579 5.579 0 0 0-1.164 1.996 5.53 5.53 0 0 0-.251 2.29 5.39 5.39 0 0 0 .406 1.616l.005.011 1.595 3.303v4.46l7.52-13.677Zm-4.05 15.633h-.01a1.912 1.912 0 0 1-1.21-.405 1.869 1.869 0 0 1-.58-.765h3.59c-.122.299-.32.563-.58.765a1.912 1.912 0 0 1-1.21.405Zm3.957-11.49v.006a3.853 3.853 0 0 1-.272 1.124l-1.601 3.314a1.414 1.414 0 0 0-.14.58h-.001V20.9h-1.19v-3.924c0-.2-.081-.392-.224-.532a.761.761 0 0 0-1.068 0 .748.748 0 0 0-.223.532V20.9h-1.193v-1.148a1.389 1.389 0 0 0-.14-.553l-1.59-3.293a3.856 3.856 0 0 1-.281-1.145v-.006a3.981 3.981 0 0 1 .174-1.674c.176-.539.466-1.036.851-1.457.374-.401.831-.72 1.34-.934a3.958 3.958 0 0 1 1.612-.31h.008a3.932 3.932 0 0 1 1.591.316c.502.214.952.53 1.32.927a3.984 3.984 0 0 1 1.026 3.132ZM16 7.25c.414 0 .75-.332.75-.75V5.004a.75.75 0 1 0-1.5 0V6.5c0 .418.336.75.75.75Zm-1.951 15.152h3.898v1.171H14.05v-1.17Zm7.63-12.822a.748.748 0 0 0 1.06 0l1.059-1.058a.75.75 0 1 0-1.06-1.06L21.678 8.52a.748.748 0 0 0 0 1.06Zm-12.419 0a.748.748 0 0 0 1.061 0 .748.748 0 0 0 0-1.06L9.263 7.462a.75.75 0 1 0-1.06 1.06L9.26 9.58Zm16.99 4.676a.748.748 0 0 0-.75-.75h-1.496a.75.75 0 1 0 0 1.5H25.5c.418 0 .75-.336.75-.75Zm-17.5 0a.748.748 0 0 0-.75-.75H6.504a.75.75 0 1 0 0 1.5H8c.418 0 .75-.336.75-.75Zm13.99 4.677a.748.748 0 0 0-1.061 0 .748.748 0 0 0 0 1.06l1.058 1.059a.75.75 0 1 0 1.06-1.061l-1.057-1.058Zm-12.412 1.06a.748.748 0 0 0 0-1.06.748.748 0 0 0-1.06 0L8.208 19.99a.75.75 0 1 0 1.061 1.06l1.058-1.057Z"/></svg>