<svg xmlns="http://www.w3.org/2000/svg" width="32" height="32" viewBox="0 0 32 32"><path d="M16 27.623c.058 0 .117 0 .174-.004a3.34 3.34 0 0 0 2.264-1.03c.59-.621.913-1.444.9-2.296v-.001l-.003-4.48c0-.006.002-.01.005-.016l1.615-3.344.003-.006a5.262 5.262 0 0 0 .386-1.558 5.406 5.406 0 0 0-.246-2.239 5.457 5.457 0 0 0-1.137-1.951l-.002-.002A5.293 5.293 0 0 0 18.15 9.43a5.352 5.352 0 0 0-2.174-.423 5.32 5.32 0 0 0-2.152.43c-.679.291-1.288.72-1.787 1.26l-.001.001c-.513.566-.9 1.23-1.138 1.952a5.404 5.404 0 0 0-.245 2.24 5.26 5.26 0 0 0 .396 1.579l.003.005 1.603 3.32a.154.154 0 0 1 .004.01v4.488c-.012.438.066.873.229 1.28.163.408.408.78.72 1.09a3.29 3.29 0 0 0 1.097.723c.41.165.85.246 1.294.238Zm0 0-.002-.125v.125H16Zm0-1.251h-.004a2.037 2.037 0 0 1-1.29-.431 1.99 1.99 0 0 1-.68-.989h3.944a1.99 1.99 0 0 1-.68.989c-.366.286-.822.439-1.29.43Zm4.084-11.6v.002c-.035.4-.13.792-.282 1.164l-1.603 3.317c-.08.166-.123.346-.128.529V21.027h-1.44V16.98a.623.623 0 0 0-.186-.443.636.636 0 0 0-.894 0 .623.623 0 0 0-.185.443v4.049h-1.443V19.76a1.263 1.263 0 0 0-.127-.504l-1.591-3.296a3.98 3.98 0 0 1-.293-1.186v-.002a4.106 4.106 0 0 1 .18-1.727 4.145 4.145 0 0 1 .878-1.503 4.034 4.034 0 0 1 1.383-.964 4.082 4.082 0 0 1 1.664-.32h.004a4.06 4.06 0 0 1 1.641.326c.518.22.983.547 1.364.957.396.435.696.947.878 1.504.182.556.244 1.145.18 1.726ZM16 7.126a.623.623 0 0 0 .625-.625V5.006a.626.626 0 1 0-1.25 0v1.496c0 .349.28.625.625.625Zm-2.076 15.152h4.148V23.7h-4.148v-1.42Zm7.843-12.785a.623.623 0 0 0 .884 0l1.058-1.058a.626.626 0 1 0-.883-.884L21.767 8.61a.623.623 0 0 0 0 .884Zm-12.418 0c.246.247.64.244.884 0a.623.623 0 0 0 0-.884L9.174 7.552a.626.626 0 1 0-.883.884l1.058 1.058Zm16.776 4.764a.623.623 0 0 0-.625-.625h-1.496a.626.626 0 1 0 0 1.25H25.5c.349 0 .625-.28.625-.625Zm-17.5 0A.623.623 0 0 0 8 13.633H6.504a.626.626 0 1 0 0 1.25H8c.349 0 .625-.28.625-.625Zm14.026 4.765a.623.623 0 0 0-.884 0 .623.623 0 0 0 0 .884l1.059 1.058a.626.626 0 1 0 .883-.884l-1.058-1.058Zm-12.411.884a.623.623 0 0 0 0-.884.623.623 0 0 0-.884 0l-1.058 1.058a.626.626 0 1 0 .884.884l1.058-1.058Z"/></svg>