<svg xmlns="http://www.w3.org/2000/svg" width="32" height="32" viewBox="0 0 32 32"><path d="M16.5 6.502c0 .28-.223.5-.5.5s-.5-.22-.5-.5V5.006a.5.5 0 1 1 1 0v1.496Zm1.601 3.043c.671.284 1.273.706 1.767 1.237.5.552.879 1.202 1.112 1.907.232.704.314 1.45.24 2.187a5.14 5.14 0 0 1-.377 1.522l-1.616 3.344a.168.168 0 0 0-.017.066l.003 4.486a3.132 3.132 0 0 1-.866 2.208 3.215 3.215 0 0 1-2.349.997 3.2 3.2 0 0 1-1.246-.23 3.163 3.163 0 0 1-1.055-.695 3.083 3.083 0 0 1-.913-2.28v-4.508a.29.29 0 0 0-.015-.043l-1.605-3.323a5.134 5.134 0 0 1-.387-1.543 5.28 5.28 0 0 1 .24-2.188 5.33 5.33 0 0 1 1.111-1.907 5.136 5.136 0 0 1 1.746-1.23 5.195 5.195 0 0 1 2.102-.42 5.227 5.227 0 0 1 2.125.413Zm.097 14.28-.001-1.67h-4.398v1.67h4.399Zm-3.57 2.214c.39.304.874.466 1.37.458.497.008.98-.153 1.37-.458.39-.304.659-.733.764-1.212h-4.267c.105.48.375.907.764 1.212Zm5.288-10.05c.158-.385.256-.79.292-1.204.066-.6.003-1.206-.185-1.78a4.272 4.272 0 0 0-.905-1.548 4.137 4.137 0 0 0-1.406-.988 4.186 4.186 0 0 0-1.693-.336 4.207 4.207 0 0 0-1.714.33 4.16 4.16 0 0 0-1.427.994 4.268 4.268 0 0 0-.905 1.55 4.231 4.231 0 0 0-.185 1.778c.037.422.139.835.303 1.227l1.593 3.299c.069.142.108.296.114.454v1.388h1.693v-4.174c0-.133.053-.26.148-.354a.511.511 0 0 1 .718 0 .498.498 0 0 1 .149.354v4.174h1.69v-1.366c.004-.165.043-.328.116-.477l1.604-3.321Zm1.94-6.583c.195.195.51.197.707 0l1.058-1.059a.5.5 0 1 0-.707-.707L21.856 8.7a.498.498 0 0 0 0 .707Zm-12.419 0a.498.498 0 0 0 .707 0 .498.498 0 0 0 0-.707L9.086 7.64a.5.5 0 1 0-.707.707l1.058 1.059ZM26 14.258c0-.277-.22-.5-.5-.5h-1.496a.5.5 0 1 0 0 1H25.5c.28 0 .5-.224.5-.5Zm-18-.5c.28 0 .5.223.5.5 0 .276-.22.5-.5.5H6.504a.5.5 0 1 1 0-1H8Zm13.856 5.354a.498.498 0 0 1 .707 0l1.058 1.058a.5.5 0 1 1-.707.707l-1.058-1.058a.498.498 0 0 1 0-.707Zm-11.705.707a.498.498 0 0 0 0-.707.498.498 0 0 0-.707 0L8.386 20.17a.5.5 0 1 0 .707.707l1.058-1.058Z"/></svg>