<svg xmlns="http://www.w3.org/2000/svg" width="32" height="32" viewBox="0 0 32 32"><path d="m17.999 25.498-8.55.002a3.5 3.5 0 1 0 0 1l8.55-.002a.5.5 0 0 0 0-1ZM6 28.5a2.5 2.5 0 1 1 0-5 2.5 2.5 0 0 1 0 5ZM14 6.498l8.55.002a3.5 3.5 0 1 0 0-1L14 5.498a.5.5 0 1 0 0 1ZM26 3.5a2.5 2.5 0 1 1 0 5 2.5 2.5 0 0 1 0-5ZM26.5 22.557l.002-8.549a.5.5 0 0 0-1 0l-.002 8.549a3.5 3.5 0 1 0 1 0Zm-.5 5.95a2.5 2.5 0 1 1 0-5 2.5 2.5 0 0 1 0 5ZM5.5 9.458l.002 8.548a.5.5 0 0 0 1 0L6.5 9.458a3.5 3.5 0 1 0-1 0Zm.5-5.95a2.5 2.5 0 1 1 0 5 2.5 2.5 0 0 1 0-5Z"/></svg>