<svg xmlns="http://www.w3.org/2000/svg" width="32" height="32" viewBox="0 0 32 32"><path d="m17.998 25.249-8.324.001a3.75 3.75 0 1 0 0 1.5l8.324-.002a.75.75 0 1 0 0-1.5M6 28.25a2.25 2.25 0 1 1 0-4.5 2.25 2.25 0 0 1 0 4.5M14 6.749l8.324.001a3.75 3.75 0 1 0 0-1.5L14 5.248a.75.75 0 1 0 0 1.5M25.998 3.75a2.25 2.25 0 1 1 0 4.5 2.25 2.25 0 0 1 0-4.5M26.75 22.332l.002-8.324a.75.75 0 1 0-1.5 0l-.003 8.324a3.75 3.75 0 1 0 1.5 0M26 28.256a2.25 2.25 0 1 1 0-4.5 2.25 2.25 0 0 1 0 4.5M5.25 9.682l.002 8.324a.75.75 0 1 0 1.5 0l-.003-8.324a3.75 3.75 0 1 0-1.5 0M6 3.758a2.25 2.25 0 1 1 0 4.5 2.25 2.25 0 0 1 0-4.5"/></svg>