<svg xmlns="http://www.w3.org/2000/svg" width="32" height="32" viewBox="0 0 32 32"><path d="m17.999 25.499-8.55.001a3.5 3.5 0 1 0 0 1l8.55-.002a.5.5 0 0 0 0-1M6 28.5a2.5 2.5 0 1 1 0-5 2.5 2.5 0 0 1 0 5M14 6.499l8.55.001a3.5 3.5 0 1 0 0-1L14 5.498a.5.5 0 1 0 0 1M26 3.5a2.5 2.5 0 1 1 0 5 2.5 2.5 0 0 1 0-5M26.5 22.557l.002-8.549a.5.5 0 0 0-1 0l-.002 8.549a3.5 3.5 0 1 0 1 0m-.5 5.95a2.5 2.5 0 1 1 0-5 2.5 2.5 0 0 1 0 5M5.5 9.458l.002 8.548a.5.5 0 0 0 1 0L6.5 9.458a3.5 3.5 0 1 0-1 0m.5-5.95a2.5 2.5 0 1 1 0 5 2.5 2.5 0 0 1 0-5"/></svg>