<svg xmlns="http://www.w3.org/2000/svg" width="32" height="32" viewBox="0 0 32 32"><path d="M28 19.25h-8A1.75 1.75 0 0 0 18.25 21v6A1.75 1.75 0 0 0 20 28.75h8A1.75 1.75 0 0 0 29.75 27v-6A1.75 1.75 0 0 0 28 19.25m0 1.5a.2.2 0 0 1 .096.04l-3.917 3.384a.25.25 0 0 1-.178.074.32.32 0 0 1-.22-.114l-3.876-3.344a.2.2 0 0 1 .095-.04zm0 6.5h-8a.25.25 0 0 1-.25-.25v-4.363l3.007 2.592a1.74 1.74 0 0 0 1.238.518l.006.001a1.7 1.7 0 0 0 1.198-.475l3.051-2.635V27a.25.25 0 0 1-.25.25M14 28.253c-4.968 0-10.25-1.464-10.25-4.177 0-5.055 4.695-9.326 10.25-9.326a10.7 10.7 0 0 1 6.078 1.87.75.75 0 1 0 .847-1.24 12.1 12.1 0 0 0-3.517-1.648 6.25 6.25 0 1 0-6.811.003C5.826 15.117 2.25 19.293 2.25 24.076c0 3.922 5.902 5.677 11.75 5.677a.75.75 0 0 0 0-1.5M9.25 8.5a4.75 4.75 0 1 1 9.5 0 4.75 4.75 0 0 1-9.5 0"/></svg>