<svg xmlns="http://www.w3.org/2000/svg" width="32" height="32" viewBox="0 0 32 32"><path d="M28 19.5h-8a1.5 1.5 0 0 0-1.5 1.5v6a1.5 1.5 0 0 0 1.5 1.5h8a1.5 1.5 0 0 0 1.5-1.5v-6a1.5 1.5 0 0 0-1.5-1.5m-8 1h8a.5.5 0 0 1 .46.305l-4.105 3.547c-.096.093-.222.192-.356.146a.54.54 0 0 1-.382-.176l-4.077-3.517A.5.5 0 0 1 20 20.5m8 7h-8a.5.5 0 0 1-.5-.5v-4.909l3.435 2.962a1.5 1.5 0 0 0 1.061.444l.005.001a1.47 1.47 0 0 0 1.034-.414l3.465-2.99V27a.5.5 0 0 1-.5.5M14 28.503c-5.217 0-10.5-1.52-10.5-4.427C3.5 18.886 8.31 14.5 14 14.5c2.22-.007 4.388.66 6.22 1.912a.5.5 0 0 0 .564-.824 11.9 11.9 0 0 0-4.018-1.769 6 6 0 1 0-5.508.012C6.3 14.997 2.5 19.21 2.5 24.076c0 3.729 5.961 5.427 11.5 5.427a.5.5 0 0 0 0-1M9 8.5a5 5 0 1 1 10 0 5 5 0 0 1-10 0"/></svg>