<svg xmlns="http://www.w3.org/2000/svg" width="32" height="32" viewBox="0 0 32 32"><path d="M28 19.003h-8a2.003 2.003 0 0 0-2 1.999v5.997a2 2 0 0 0 2 1.999h8a2.003 2.003 0 0 0 2-2v-5.996a2 2 0 0 0-2-1.999m-.53 2-3.415 2.946c-.005.003-.04.027-.045.026-.028 0-.004.012-.066-.03l-3.413-2.943zM20 26.999v-3.817l2.58 2.222a1.99 1.99 0 0 0 1.415.592l.006.001c.506.006.995-.186 1.36-.535l2.64-2.277v3.814zM14 28.001c-5.607 0-10-1.724-10-3.925 0-4.917 4.58-9.07 10-9.07a10.45 10.45 0 0 1 5.936 1.823 1.002 1.002 0 0 0 1.55-1.008 1 1 0 0 0-.42-.641 12.4 12.4 0 0 0-3.104-1.532 6.497 6.497 0 0 0-7.756-10.426 6.497 6.497 0 0 0-.15 10.438C5.421 15.205 2 19.346 2 24.077 2 28.168 8.028 30 14 30a1 1 0 1 0 0-1.999M9.5 8.51a4.5 4.5 0 0 1 2.778-4.155 4.502 4.502 0 0 1 6.136 3.277 4.495 4.495 0 0 1-1.913 4.618 4.5 4.5 0 0 1-5.681-.561 4.5 4.5 0 0 1-1.32-3.18"/></svg>