<svg xmlns="http://www.w3.org/2000/svg" width="32" height="32" viewBox="0 0 32 32"><path d="M24 28h-1.979a4.876 4.876 0 0 1-4.935-4.104A6.006 6.006 0 0 0 22 18V8a6.001 6.001 0 0 0-11.5-2.4.999.999 0 1 0 1.832.8A4.001 4.001 0 0 1 20 8v10a4 4 0 0 1-7.2 2.4 1 1 0 0 0-1.6 1.2 5.944 5.944 0 0 0 3.865 2.32 6.917 6.917 0 0 0 2 4.08H8a1 1 0 0 0 0 2h16a1 1 0 1 0 0-2Z"/><path d="M8.293 17.293a1 1 0 1 0 1.415 1.414l4-4a1 1 0 0 0 0-1.414l-4-4a1 1 0 1 0-1.415 1.414L10.586 13H5a1 1 0 1 0 0 2h5.586l-2.293 2.293Z"/></svg>