<svg xmlns="http://www.w3.org/2000/svg" width="32" height="32" viewBox="0 0 32 32"><path d="M24 28.25h-1.98a5.113 5.113 0 0 1-5.204-4.565A5.75 5.75 0 0 0 21.75 18V8A5.75 5.75 0 0 0 10.73 5.699a.75.75 0 1 0 1.375.602A4.25 4.25 0 0 1 20.25 8v10a4.25 4.25 0 0 1-7.65 2.55.75.75 0 1 0-1.2.9 5.7 5.7 0 0 0 3.886 2.254 6.67 6.67 0 0 0 2.435 4.546h-9.72a.75.75 0 1 0 0 1.5h16a.75.75 0 1 0 0-1.5M8.47 17.47A.748.748 0 0 0 9 18.75a.75.75 0 0 0 .53-.22l4-4a.75.75 0 0 0 0-1.06l-4-4a.75.75 0 1 0-1.06 1.06l2.72 2.72H5a.75.75 0 1 0 0 1.5h6.19z"/></svg>