<svg xmlns="http://www.w3.org/2000/svg" width="28" height="28" viewBox="0 0 28 28"><path d="M14 0a1 1 0 0 1 .984.821c.504 2.77.87 4.775 1.305 6.294.433 1.507.904 2.413 1.543 3.053.64.64 1.546 1.11 3.053 1.543 1.52.436 3.523.801 6.294 1.305a1 1 0 0 1 0 1.968c-2.77.504-4.775.87-6.294 1.305-1.507.433-2.413.904-3.053 1.543-.64.64-1.11 1.546-1.543 3.053-.436 1.52-.801 3.523-1.305 6.294a1 1 0 0 1-1.968 0c-.504-2.77-.87-4.775-1.305-6.294-.433-1.507-.904-2.413-1.543-3.053-.64-.64-1.546-1.11-3.053-1.543-1.52-.436-3.523-.801-6.294-1.305a1 1 0 0 1 0-1.968c2.77-.504 4.775-.87 6.294-1.305 1.507-.433 2.413-.904 3.053-1.543.64-.64 1.11-1.546 1.543-3.053.436-1.52.801-3.523 1.305-6.294A1 1 0 0 1 14 0Zm0 6.228c-.119.516-.24.995-.367 1.439-.473 1.649-1.065 2.93-2.05 3.915-.986.986-2.267 1.577-3.916 2.051-.444.127-.923.248-1.44.367.517.119.996.24 1.44.367 1.649.473 2.93 1.065 3.915 2.05.986.986 1.577 2.267 2.051 3.916.127.444.248.923.367 1.44.119-.517.24-.996.367-1.44.473-1.649 1.065-2.93 2.05-3.915.986-.986 2.267-1.577 3.916-2.051.444-.127.923-.248 1.44-.367-.517-.119-.996-.24-1.44-.367-1.649-.473-2.93-1.065-3.915-2.05-.986-.986-1.577-2.267-2.051-3.916A27.645 27.645 0 0 1 14 6.227Z"/></svg>