<svg xmlns="http://www.w3.org/2000/svg" width="32" height="32" viewBox="0 0 32 32"><path d="M16 2.5a.5.5 0 0 1 .492.41c.502 2.76.872 4.794 1.317 6.343.443 1.542.944 2.542 1.67 3.268s1.726 1.227 3.268 1.67c1.549.445 3.582.815 6.342 1.317a.5.5 0 0 1 0 .984c-2.76.502-4.793.872-6.342 1.317-1.542.443-2.542.944-3.268 1.67s-1.227 1.726-1.67 3.268c-.445 1.549-.815 3.582-1.317 6.342a.5.5 0 0 1-.984 0c-.502-2.76-.872-4.793-1.317-6.342-.443-1.542-.944-2.542-1.67-3.268s-1.726-1.227-3.268-1.67c-1.549-.445-3.582-.815-6.342-1.317a.5.5 0 0 1 0-.984c2.76-.502 4.793-.872 6.342-1.317 1.542-.443 2.542-.944 3.268-1.67s1.227-1.726 1.67-3.268c.445-1.549.815-3.582 1.317-6.342A.5.5 0 0 1 16 2.5m0 3.255c-.284 1.49-.549 2.733-.848 3.774-.463 1.613-1.024 2.8-1.923 3.7-.9.899-2.087 1.46-3.7 1.924-1.04.298-2.284.563-3.774.847 1.49.284 2.733.549 3.774.848 1.613.463 2.8 1.024 3.7 1.923.899.9 1.46 2.087 1.924 3.7.298 1.04.563 2.284.847 3.774.284-1.49.549-2.733.848-3.774.463-1.613 1.024-2.8 1.923-3.7.9-.899 2.087-1.46 3.7-1.924 1.04-.298 2.284-.563 3.774-.847-1.49-.284-2.733-.549-3.774-.848-1.613-.463-2.8-1.024-3.7-1.923-.899-.9-1.46-2.087-1.924-3.7-.298-1.04-.563-2.284-.847-3.774"/></svg>