<svg xmlns="http://www.w3.org/2000/svg" width="32" height="32" viewBox="0 0 32 32"><path d="M16 2.25a.75.75 0 0 1 .738.616c.503 2.765.87 4.784 1.311 6.318.438 1.525.924 2.478 1.606 3.16.683.683 1.636 1.17 3.161 1.607 1.534.44 3.553.808 6.318 1.311a.75.75 0 0 1 0 1.476c-2.765.503-4.784.87-6.318 1.311-1.524.438-2.478.924-3.16 1.606-.683.683-1.17 1.636-1.607 3.161-.44 1.534-.808 3.553-1.311 6.318a.75.75 0 0 1-1.476 0c-.503-2.765-.87-4.784-1.311-6.318-.438-1.524-.924-2.478-1.606-3.16-.683-.683-1.636-1.17-3.161-1.607-1.534-.44-3.553-.808-6.318-1.311a.75.75 0 0 1 0-1.476c2.765-.503 4.784-.87 6.318-1.311 1.525-.438 2.478-.924 3.16-1.606.683-.683 1.17-1.636 1.607-3.161.44-1.534.808-3.553 1.311-6.318A.75.75 0 0 1 16 2.25m0 4.796a35 35 0 0 1-.607 2.552c-.469 1.631-1.045 2.865-1.988 3.807-.942.943-2.176 1.52-3.807 1.988-.745.213-1.59.41-2.552.607.962.198 1.808.394 2.552.607 1.631.469 2.865 1.045 3.807 1.988.943.942 1.52 2.176 1.988 3.807.213.744.41 1.59.607 2.552.198-.962.394-1.808.607-2.552.469-1.631 1.045-2.865 1.988-3.807.942-.943 2.176-1.52 3.807-1.988.744-.213 1.59-.41 2.552-.607a35 35 0 0 1-2.552-.607c-1.631-.469-2.865-1.045-3.807-1.988-.943-.942-1.52-2.176-1.988-3.807-.213-.745-.41-1.59-.607-2.552"/></svg>