<svg xmlns="http://www.w3.org/2000/svg" width="28" height="28" viewBox="0 0 28 28"><path d="M14 0a1 1 0 0 1 .984.821c.504 2.77.87 4.775 1.305 6.294.433 1.507.904 2.413 1.543 3.053.64.64 1.546 1.11 3.053 1.543 1.52.436 3.523.801 6.294 1.305a1 1 0 0 1 0 1.968c-2.77.504-4.775.87-6.294 1.305-1.507.433-2.413.904-3.053 1.543-.64.64-1.11 1.546-1.543 3.053-.436 1.52-.802 3.523-1.305 6.294a1 1 0 0 1-1.968 0c-.504-2.77-.87-4.775-1.305-6.294-.433-1.507-.904-2.413-1.543-3.053-.64-.64-1.546-1.11-3.053-1.543-1.519-.436-3.523-.801-6.294-1.305a1 1 0 0 1 0-1.968c2.77-.504 4.775-.87 6.294-1.305 1.507-.433 2.413-.904 3.053-1.543.64-.64 1.11-1.546 1.543-3.053.436-1.52.801-3.523 1.305-6.294A1 1 0 0 1 14 0Z"/></svg>