<svg xmlns="http://www.w3.org/2000/svg" width="32" height="32" viewBox="0 0 32 32"><path d="M25 5.5H7A4.505 4.505 0 0 0 2.5 10v11.784A4.72 4.72 0 0 0 7.216 26.5h17.568a4.722 4.722 0 0 0 4.716-4.716V10A4.505 4.505 0 0 0 25 5.5Zm3.5 16.284a3.72 3.72 0 0 1-3.716 3.716H7.216A3.72 3.72 0 0 1 3.5 21.784V10A3.504 3.504 0 0 1 7 6.5h18a3.504 3.504 0 0 1 3.5 3.5v11.784Z"/><path d="M12.002 12.506a.75.75 0 1 0 0-1.5.75.75 0 0 0 0 1.5ZM8.001 12.51a.75.75 0 1 0 0-1.5.75.75 0 0 0 0 1.5ZM20 12.505a.75.75 0 1 0 0-1.5.75.75 0 0 0 0 1.5ZM24 12.508a.75.75 0 1 0 0-1.5.75.75 0 0 0 0 1.5ZM16 12.505a.75.75 0 1 0 0-1.5.75.75 0 0 0 0 1.5ZM13.998 16.5a.75.75 0 1 0 0-1.5.75.75 0 0 0 0 1.5ZM9.997 16.505a.75.75 0 1 0 0-1.5.75.75 0 0 0 0 1.5ZM21.996 16.5a.75.75 0 1 0 0-1.5.75.75 0 0 0 0 1.5ZM17.997 16.5a.75.75 0 1 0 0-1.5.75.75 0 0 0 0 1.5ZM20 20.5h-8a.5.5 0 0 0 0 1h8a.5.5 0 1 0 0-1Z"/></svg>