<svg xmlns="http://www.w3.org/2000/svg" width="32" height="32" viewBox="0 0 32 32"><path d="M18.722 26.584 16 28.399l-2.723-1.815a.5.5 0 0 0-.555.832l3 2a.5.5 0 0 0 .555 0l3-2a.5.5 0 1 0-.555-.832M25 2.5H7A4.505 4.505 0 0 0 2.5 7v11.783A4.723 4.723 0 0 0 7.217 23.5h17.567a4.72 4.72 0 0 0 4.716-4.717V7A4.505 4.505 0 0 0 25 2.5m3.5 16.283a3.72 3.72 0 0 1-3.716 3.717H7.217A3.72 3.72 0 0 1 3.5 18.783V7A3.504 3.504 0 0 1 7 3.5h18A3.504 3.504 0 0 1 28.5 7zM12.001 9.506a.75.75 0 1 0 0-1.5.75.75 0 0 0 0 1.5M8 9.51a.75.75 0 1 0 0-1.5.75.75 0 0 0 0 1.5M19.999 9.505a.75.75 0 1 0 0-1.5.75.75 0 0 0 0 1.5M23.999 9.508a.75.75 0 1 0 0-1.5.75.75 0 0 0 0 1.5M16 9.505a.75.75 0 1 0 0-1.5.75.75 0 0 0 0 1.5M13.997 13.5a.75.75 0 1 0 0-1.5.75.75 0 0 0 0 1.5M9.996 13.505a.75.75 0 1 0 0-1.5.75.75 0 0 0 0 1.5M21.995 13.5a.75.75 0 1 0 0-1.5.75.75 0 0 0 0 1.5M17.996 13.5a.75.75 0 1 0 0-1.5.75.75 0 0 0 0 1.5M20 17.497h-8a.5.5 0 1 0 0 1h8a.5.5 0 0 0 0-1"/></svg>