<svg xmlns="http://www.w3.org/2000/svg" width="32" height="32" viewBox="0 0 32 32"><path d="M18.445 26.168 16 27.798l-2.446-1.63a1 1 0 0 0-1.109 1.664l3 2a1 1 0 0 0 1.11 0l3-2a1 1 0 1 0-1.11-1.664M25 2H7a5.006 5.006 0 0 0-5 5v11.783A5.22 5.22 0 0 0 7.217 24h17.567A5.22 5.22 0 0 0 30 18.783V7a5.006 5.006 0 0 0-5-5m3 16.783A3.22 3.22 0 0 1 24.784 22H7.217A3.22 3.22 0 0 1 4 18.783V7a3.003 3.003 0 0 1 3-3h18a3.003 3.003 0 0 1 3 3zM12.001 10.006a1.25 1.25 0 1 0 0-2.5 1.25 1.25 0 0 0 0 2.5M8 10.01a1.25 1.25 0 1 0 0-2.5 1.25 1.25 0 0 0 0 2.5M19.999 10.005a1.25 1.25 0 1 0 0-2.5 1.25 1.25 0 0 0 0 2.5M23.999 10.008a1.25 1.25 0 1 0 0-2.5 1.25 1.25 0 0 0 0 2.5M16 10.005a1.25 1.25 0 1 0 0-2.5 1.25 1.25 0 0 0 0 2.5M13.997 14a1.25 1.25 0 1 0 0-2.5 1.25 1.25 0 0 0 0 2.5M9.996 14.005a1.25 1.25 0 1 0 0-2.5 1.25 1.25 0 0 0 0 2.5M21.995 14a1.25 1.25 0 1 0 0-2.5 1.25 1.25 0 0 0 0 2.5M17.996 14a1.25 1.25 0 1 0 0-2.5 1.25 1.25 0 0 0 0 2.5M20 16.997h-8a1 1 0 0 0 0 2h8a1 1 0 1 0 0-2"/></svg>