<svg xmlns="http://www.w3.org/2000/svg" width="32" height="32" viewBox="0 0 32 32"><path d="M18.584 26.376 16 28.099l-2.584-1.723a.751.751 0 1 0-.832 1.248l3 2a.75.75 0 0 0 .832 0l3-2a.75.75 0 1 0-.832-1.248M25 2.25H7A4.755 4.755 0 0 0 2.25 7v11.783a4.973 4.973 0 0 0 4.967 4.967h17.567a4.97 4.97 0 0 0 4.966-4.967V7A4.756 4.756 0 0 0 25 2.25m3.25 16.533a3.47 3.47 0 0 1-3.466 3.467H7.217a3.47 3.47 0 0 1-3.467-3.467V7A3.254 3.254 0 0 1 7 3.75h18A3.254 3.254 0 0 1 28.25 7zM12.001 9.756a1 1 0 1 0 0-2 1 1 0 0 0 0 2M8 9.76a1 1 0 1 0 0-2 1 1 0 0 0 0 2M19.999 9.755a1 1 0 1 0 0-2 1 1 0 0 0 0 2M23.999 9.758a1 1 0 1 0 0-2 1 1 0 0 0 0 2M16 9.755a1 1 0 1 0 0-2 1 1 0 0 0 0 2M13.997 13.75a1 1 0 1 0 0-2 1 1 0 0 0 0 2M9.996 13.755a1 1 0 1 0 0-2 1 1 0 0 0 0 2M21.995 13.75a1 1 0 1 0 0-2 1 1 0 0 0 0 2M17.996 13.75a1 1 0 1 0 0-2 1 1 0 0 0 0 2M20 17.247h-8a.75.75 0 1 0 0 1.5h8a.75.75 0 0 0 0-1.5"/></svg>