<svg xmlns="http://www.w3.org/2000/svg" width="32" height="32" viewBox="0 0 32 32"><path d="M25 5H7a5.006 5.006 0 0 0-5 5v11.784A5.222 5.222 0 0 0 7.216 27h17.568A5.222 5.222 0 0 0 30 21.784V10a5.006 5.006 0 0 0-5-5Zm3 16.784A3.22 3.22 0 0 1 24.784 25H7.216A3.22 3.22 0 0 1 4 21.784V10a3.003 3.003 0 0 1 3-3h18a3.003 3.003 0 0 1 3 3v11.784Z"/><path d="M12.002 13.006a1.25 1.25 0 1 0 0-2.5 1.25 1.25 0 0 0 0 2.5ZM8.001 13.01a1.25 1.25 0 1 0 0-2.5 1.25 1.25 0 0 0 0 2.5ZM20 13.005a1.25 1.25 0 1 0 0-2.5 1.25 1.25 0 0 0 0 2.5ZM24 13.008a1.25 1.25 0 1 0 0-2.5 1.25 1.25 0 0 0 0 2.5ZM16 13.005a1.25 1.25 0 1 0 0-2.5 1.25 1.25 0 0 0 0 2.5ZM13.998 17a1.25 1.25 0 1 0 0-2.5 1.25 1.25 0 0 0 0 2.5ZM9.997 17.005a1.25 1.25 0 1 0 0-2.5 1.25 1.25 0 0 0 0 2.5ZM21.996 17a1.25 1.25 0 1 0 0-2.5 1.25 1.25 0 0 0 0 2.5ZM17.997 17a1.25 1.25 0 1 0 0-2.5 1.25 1.25 0 0 0 0 2.5ZM20 20h-8a1 1 0 1 0 0 2h8a1 1 0 1 0 0-2Z"/></svg>