<svg xmlns="http://www.w3.org/2000/svg" width="32" height="32" viewBox="0 0 32 32"><path d="M25 5H7a5.006 5.006 0 0 0-5 5v11.784A5.22 5.22 0 0 0 7.216 27h17.568A5.22 5.22 0 0 0 30 21.784V10a5.006 5.006 0 0 0-5-5m3 16.784A3.22 3.22 0 0 1 24.784 25H7.216A3.22 3.22 0 0 1 4 21.784V10a3.003 3.003 0 0 1 3-3h18a3.003 3.003 0 0 1 3 3zM12.002 13.006a1.25 1.25 0 1 0 0-2.5 1.25 1.25 0 0 0 0 2.5M8.001 13.01a1.25 1.25 0 1 0 0-2.5 1.25 1.25 0 0 0 0 2.5M20 13.005a1.25 1.25 0 1 0 0-2.5 1.25 1.25 0 0 0 0 2.5M24 13.008a1.25 1.25 0 1 0 0-2.5 1.25 1.25 0 0 0 0 2.5M16 13.005a1.25 1.25 0 1 0 0-2.5 1.25 1.25 0 0 0 0 2.5M13.998 17a1.25 1.25 0 1 0 0-2.5 1.25 1.25 0 0 0 0 2.5M9.997 17.005a1.25 1.25 0 1 0 0-2.5 1.25 1.25 0 0 0 0 2.5M21.996 17a1.25 1.25 0 1 0 0-2.5 1.25 1.25 0 0 0 0 2.5M17.997 17a1.25 1.25 0 1 0 0-2.5 1.25 1.25 0 0 0 0 2.5M20 20h-8a1 1 0 1 0 0 2h8a1 1 0 1 0 0-2"/></svg>