<svg xmlns="http://www.w3.org/2000/svg" width="32" height="32" viewBox="0 0 32 32"><path d="M25 5.25H7A4.755 4.755 0 0 0 2.25 10v11.784a4.97 4.97 0 0 0 4.966 4.966h17.568a4.97 4.97 0 0 0 4.966-4.966V10A4.756 4.756 0 0 0 25 5.25m3.25 16.534a3.47 3.47 0 0 1-3.466 3.466H7.216a3.47 3.47 0 0 1-3.466-3.466V10A3.254 3.254 0 0 1 7 6.75h18A3.254 3.254 0 0 1 28.25 10zM12.002 12.756a1 1 0 1 0 0-2 1 1 0 0 0 0 2M8.001 12.76a1 1 0 1 0 0-2 1 1 0 0 0 0 2M20 12.755a1 1 0 1 0 0-2 1 1 0 0 0 0 2M24 12.758a1 1 0 1 0 0-2 1 1 0 0 0 0 2M16 12.755a1 1 0 1 0 0-2 1 1 0 0 0 0 2M13.998 16.75a1 1 0 1 0 0-2 1 1 0 0 0 0 2M9.997 16.755a1 1 0 1 0 0-2 1 1 0 0 0 0 2M21.996 16.75a1 1 0 1 0 0-2 1 1 0 0 0 0 2M17.997 16.75a1 1 0 1 0 0-2 1 1 0 0 0 0 2M20 20.25h-8a.75.75 0 1 0 0 1.5h8a.75.75 0 0 0 0-1.5"/></svg>