<svg xmlns="http://www.w3.org/2000/svg" width="32" height="32" viewBox="0 0 32 32"><path d="M5.666 25.786a14.57 14.57 0 0 1-3.432-6.946A15 15 0 0 1 2 17.056h6.07c.15 3.973 1.365 8.381 4.45 12.942a13.9 13.9 0 0 1-5.945-3.285q-.475-.442-.909-.927M24.842 27.227a14 14 0 0 1-3.47 2.124q-.93.395-1.899.649c3.09-4.561 4.31-8.97 4.463-12.944H30a14.7 14.7 0 0 1-2.33 6.983q-.366.563-.78 1.085a14.3 14.3 0 0 1-2.048 2.103M19.526 2.07c2.399.642 4.611 1.93 6.394 3.763 2.394 2.46 3.835 5.716 4.079 9.163H23.92a24 24 0 0 0-.729-4.714c-.915-3.557-2.476-6.403-3.666-8.212M12.5 2.06c-1.174 1.777-2.713 4.567-3.638 8.057a24 24 0 0 0-.776 4.878H2a14.8 14.8 0 0 1 1.033-4.488 14.35 14.35 0 0 1 5.17-6.473A13.9 13.9 0 0 1 12.5 2.06M14.997 2.028c-1.017 1.345-3.092 4.447-4.2 8.63a22 22 0 0 0-.703 4.338h4.903zM14.997 29.988c-3.443-4.602-4.757-9.012-4.92-12.932h4.92zM21.253 10.808c.334 1.297.575 2.7.66 4.188h-4.91V2c1.03 1.36 3.151 4.533 4.25 8.808M21.93 17.056h-4.928V29.98c3.444-4.6 4.76-9.007 4.927-12.925"/></svg>