<svg xmlns="http://www.w3.org/2000/svg" width="32" height="32" viewBox="0 0 32 32"><path d="M16 2a14 14 0 1 0 14 14A14.015 14.015 0 0 0 16 2m11.95 13h-5.017a22.4 22.4 0 0 0-3.602-10.52A12.01 12.01 0 0 1 27.95 15M15 15h-3.98A20 20 0 0 1 15 4.613zm0 2v10.34A18.85 18.85 0 0 1 11.01 17zm2 0h3.995A18.85 18.85 0 0 1 17 27.33zm0-2V4.586A20 20 0 0 1 20.985 15zM12.692 4.475A22.4 22.4 0 0 0 9.073 15H4.051a12.01 12.01 0 0 1 8.641-10.525M4.051 17h5.004a20.15 20.15 0 0 0 3.636 10.526A12.01 12.01 0 0 1 4.05 17m15.254 10.527A20.15 20.15 0 0 0 22.95 17h5a12.01 12.01 0 0 1-8.645 10.527"/></svg>