<svg xmlns="http://www.w3.org/2000/svg" width="32" height="32" viewBox="0 0 32 32"><path d="M16 2a14 14 0 1 0 14 14A14.015 14.015 0 0 0 16 2Zm11.95 13h-5.017a22.431 22.431 0 0 0-3.602-10.52A12.014 12.014 0 0 1 27.95 15ZM15 15h-3.98A20.002 20.002 0 0 1 15 4.613V15Zm0 2v10.34A18.851 18.851 0 0 1 11.01 17H15Zm2 0h3.995A18.85 18.85 0 0 1 17 27.33V17Zm0-2V4.586A20.016 20.016 0 0 1 20.985 15H17ZM12.692 4.475A22.424 22.424 0 0 0 9.073 15H4.051a12.014 12.014 0 0 1 8.641-10.525ZM4.051 17h5.004a20.148 20.148 0 0 0 3.636 10.526A12.013 12.013 0 0 1 4.05 17Zm15.254 10.527A20.154 20.154 0 0 0 22.95 17h5a12.013 12.013 0 0 1-8.645 10.527Z"/></svg>