<svg xmlns="http://www.w3.org/2000/svg" width="32" height="32" viewBox="0 0 32 32"><path d="M29.75 16A13.76 13.76 0 0 0 17.1 2.306h-.016A13.762 13.762 0 0 0 16 2.25c-.35 0-.693.027-1.036.053a13.736 13.736 0 0 0-.018 27.394c.014 0 .028.01.043.01.01 0 .022-.006.033-.006.324.023.648.05.978.05.337 0 .668-.027.999-.051l.01.002.014-.003A13.759 13.759 0 0 0 29.75 16Zm-1.538-.75h-5.516a22.244 22.244 0 0 0-3.929-11.173 12.257 12.257 0 0 1 9.445 11.173Zm-12.962 0h-4.442A20.686 20.686 0 0 1 15.25 3.895V15.25Zm0 1.5V28.07a19.144 19.144 0 0 1-4.454-11.319h4.454Zm1.5 0h4.516a19.307 19.307 0 0 1-4.516 11.312V16.75Zm0-1.5V3.862a20.284 20.284 0 0 1 4.513 11.388H16.75ZM13.253 4.072A22.112 22.112 0 0 0 9.295 15.25H3.788a12.258 12.258 0 0 1 9.465-11.178ZM3.788 16.75h5.494a20.087 20.087 0 0 0 3.987 11.183 12.258 12.258 0 0 1-9.48-11.183Zm14.937 11.184A20.059 20.059 0 0 0 22.71 16.75h5.503a12.258 12.258 0 0 1-9.487 11.184Z"/></svg>