<svg xmlns="http://www.w3.org/2000/svg" width="32" height="32" viewBox="0 0 32 32"><path d="M16 2.5A13.5 13.5 0 1 0 29.5 16 13.515 13.515 0 0 0 16 2.5m12.475 13h-6.023a22.04 22.04 0 0 0-4.254-11.794A12.504 12.504 0 0 1 28.475 15.5M16.5 28.475V16.5h5.03a19.58 19.58 0 0 1-4.774 11.962q-.127.008-.256.013m-1.262-.013a19.4 19.4 0 0 1-4.7-11.962H15.5v11.975zM15.5 3.526V15.5h-4.953A20.92 20.92 0 0 1 15.22 3.54q.14-.008.281-.014m1 11.974V3.526q.155.006.308.015a20.52 20.52 0 0 1 4.718 11.96zM13.823 3.703A21.9 21.9 0 0 0 9.538 15.5H3.526A12.504 12.504 0 0 1 13.823 3.703M3.526 16.5h6.002a20 20 0 0 0 4.323 11.802A12.5 12.5 0 0 1 3.526 16.5m14.617 11.803a19.98 19.98 0 0 0 4.32-11.803h6.012a12.5 12.5 0 0 1-10.332 11.803"/></svg>