<svg xmlns="http://www.w3.org/2000/svg" width="32" height="32" viewBox="0 0 32 32"><path d="M29.75 16A13.76 13.76 0 0 0 17.1 2.306h-.016A14 14 0 0 0 16 2.25c-.35 0-.693.027-1.036.053l-.047.002a13.736 13.736 0 0 0 .029 27.392c.014 0 .028.01.043.01.01 0 .022-.006.033-.006.324.023.648.05.978.05.337 0 .668-.027.999-.051l.01.002.014-.003A13.76 13.76 0 0 0 29.75 16m-1.538-.75h-5.516a22.24 22.24 0 0 0-3.929-11.173 12.26 12.26 0 0 1 9.445 11.173m-12.962 0h-4.442A20.7 20.7 0 0 1 15.25 3.895zm0 1.5V28.07a19.14 19.14 0 0 1-4.453-11.319zm1.5 0h4.516a19.3 19.3 0 0 1-4.516 11.312zm0-1.5V3.862a20.3 20.3 0 0 1 4.513 11.388zM13.253 4.072A22.1 22.1 0 0 0 9.295 15.25H3.788a12.26 12.26 0 0 1 9.465-11.178M3.788 16.75h5.494a20.1 20.1 0 0 0 3.987 11.183 12.26 12.26 0 0 1-9.48-11.183m14.937 11.184A20.06 20.06 0 0 0 22.71 16.75h5.503a12.26 12.26 0 0 1-9.487 11.184"/></svg>