<svg xmlns="http://www.w3.org/2000/svg" width="32" height="32" viewBox="0 0 32 32"><path d="M16 2.5A13.5 13.5 0 1 0 29.5 16 13.515 13.515 0 0 0 16 2.5Zm12.475 13h-6.023a22.043 22.043 0 0 0-4.254-11.794A12.504 12.504 0 0 1 28.475 15.5ZM16.5 28.475V16.5h5.03a19.576 19.576 0 0 1-4.774 11.962c-.085.005-.17.01-.256.013Zm-1.262-.013a19.397 19.397 0 0 1-4.7-11.962H15.5v11.975a11.921 11.921 0 0 1-.262-.013ZM15.5 3.526V15.5h-4.953a20.922 20.922 0 0 1 4.671-11.96c.094-.006.188-.01.282-.014Zm1 11.974V3.526c.103.004.206.009.308.015a20.523 20.523 0 0 1 4.718 11.96H16.5ZM13.823 3.703A21.916 21.916 0 0 0 9.538 15.5H3.526A12.504 12.504 0 0 1 13.823 3.703ZM3.526 16.5h6.002a20.003 20.003 0 0 0 4.323 11.802A12.502 12.502 0 0 1 3.526 16.5Zm14.617 11.803a19.978 19.978 0 0 0 4.32-11.803h6.012a12.503 12.503 0 0 1-10.332 11.803Z"/></svg>