<svg xmlns="http://www.w3.org/2000/svg" width="32" height="32" viewBox="0 0 32 32"><path d="M5.666 25.786a14.57 14.57 0 0 1-3.432-6.946A14.796 14.796 0 0 1 2 17.056h6.07c.15 3.973 1.365 8.381 4.45 12.942a13.919 13.919 0 0 1-5.945-3.285c-.316-.294-.62-.604-.909-.927ZM24.842 27.227a13.961 13.961 0 0 1-3.47 2.124c-.62.263-1.254.48-1.899.649 3.09-4.561 4.31-8.97 4.463-12.944H30a14.686 14.686 0 0 1-2.33 6.983 14.322 14.322 0 0 1-2.829 3.188ZM19.526 2.07c2.399.642 4.611 1.93 6.394 3.763 2.394 2.46 3.835 5.716 4.079 9.162H23.92a23.937 23.937 0 0 0-.729-4.713c-.915-3.558-2.476-6.403-3.666-8.212ZM12.5 2.06c-1.174 1.777-2.713 4.567-3.638 8.057a23.988 23.988 0 0 0-.776 4.878H2a14.752 14.752 0 0 1 1.033-4.488 14.345 14.345 0 0 1 5.17-6.473A13.854 13.854 0 0 1 12.5 2.06ZM14.997 2.028c-1.017 1.345-3.092 4.447-4.2 8.63a21.893 21.893 0 0 0-.703 4.338h4.903V2.027ZM14.997 29.988c-3.443-4.602-4.757-9.012-4.92-12.932h4.92v12.932ZM21.253 10.808c.334 1.297.575 2.7.66 4.188h-4.91V2c1.03 1.36 3.151 4.533 4.25 8.808ZM21.93 17.056h-4.928V29.98c3.444-4.6 4.76-9.007 4.927-12.925Z"/></svg>