<svg xmlns="http://www.w3.org/2000/svg" width="32" height="32" viewBox="0 0 32 32"><path d="M6.971 25.5a3.55 3.55 0 0 1-3.462-2.653.27.27 0 0 1 .05-.234.3.3 0 0 1 .236-.113h16.582l-1-1H5.5V10.135c0-.69.194-1.367.558-1.954l-.72-.72a4.7 4.7 0 0 0-.838 2.674V21.5h-.705a1.29 1.29 0 0 0-1.268 1.02c-.04.19-.035.385.013.573A4.55 4.55 0 0 0 6.97 26.5h17.406l-1-1zM26.828 26.122a4.5 4.5 0 0 0 2.633-3.03A1.26 1.26 0 0 0 29.23 22a1.29 1.29 0 0 0-1.025-.5H27.5V10.135A4.574 4.574 0 0 0 23 5.5H9a4.35 4.35 0 0 0-2.185.608L3.353 2.647a.5.5 0 0 0-.707.707L6 6.706l-.001.001.706.706h.001L20.793 21.5h-.002l1 1h.002l3 3h-.002l.941.942h.002l2.912 2.912a.499.499 0 1 0 .707-.707zM7.546 6.839c.453-.22.95-.337 1.454-.339h14a3.574 3.574 0 0 1 3.5 3.635V21.5h-4.293zM23.206 22.5h5a.3.3 0 0 1 .236.113.27.27 0 0 1 .05.234 3.52 3.52 0 0 1-2.44 2.497z"/></svg>