<svg xmlns="http://www.w3.org/2000/svg" width="32" height="32" viewBox="0 0 32 32"><path d="M6.971 25a3.06 3.06 0 0 1-2.893-2h14.69l-2-2H6V10.232l-1.72-1.72A5.19 5.19 0 0 0 4 10.135V21h-.205a1.788 1.788 0 0 0-1.758 1.417c-.055.264-.049.537.018.799A5.049 5.049 0 0 0 6.971 27h15.797l-2-2H6.971ZM27.668 26.254a4.985 4.985 0 0 0 2.277-3.038 1.76 1.76 0 0 0-.32-1.524 1.788 1.788 0 0 0-1.42-.692H28V10.135A5.075 5.075 0 0 0 23 5H9a4.84 4.84 0 0 0-2.097.49L3.707 2.292A.996.996 0 0 0 2.27 3.675c.01.01.012.023.022.032l26 26a1 1 0 0 0 1.414-1.414l-2.039-2.039ZM8.47 7.056c.174-.035.352-.054.53-.056h14a3.073 3.073 0 0 1 3 3.135V21h-3.586L8.47 7.056Zm17.715 17.715L24.413 23h3.508a3.02 3.02 0 0 1-1.738 1.77Z"/></svg>