<svg xmlns="http://www.w3.org/2000/svg" width="32" height="32" viewBox="0 0 32 32"><path d="M6.971 25.25a3.208 3.208 0 0 1-3.176-2.5h15.774l-1.5-1.5H5.75V10.135c.005-.351.063-.7.172-1.033L4.773 7.954a4.933 4.933 0 0 0-.523 2.18V21.25h-.455a1.542 1.542 0 0 0-1.513 1.218c-.047.227-.042.462.016.686A4.799 4.799 0 0 0 6.97 26.75H23.57l-1.5-1.5H6.971ZM27.264 26.203a4.749 4.749 0 0 0 2.439-3.049 1.51 1.51 0 0 0-.275-1.308 1.54 1.54 0 0 0-1.222-.596h-.456V10.135A4.824 4.824 0 0 0 23 5.25H9a4.587 4.587 0 0 0-2.141.549L3.53 2.469a.75.75 0 0 0-1.063 1.058l.002.003 26 26a.75.75 0 0 0 1.061-1.06l-2.266-2.267ZM7.994 6.933A3.092 3.092 0 0 1 9 6.75h14a3.323 3.323 0 0 1 3.25 3.385V21.25h-3.94L7.993 6.933ZM23.81 22.75h4.396l.044.035a3.272 3.272 0 0 1-2.122 2.283L23.81 22.75Z"/></svg>