<svg xmlns="http://www.w3.org/2000/svg" width="32" height="32" viewBox="0 0 32 32"><path d="M29.232 22.001a1.291 1.291 0 0 0-1.027-.5H27.5V10.134A4.574 4.574 0 0 0 23 5.5H9a4.574 4.574 0 0 0-4.5 4.635V21.5h-.705a1.29 1.29 0 0 0-1.268 1.02c-.04.19-.035.386.013.573A4.548 4.548 0 0 0 6.97 26.5h18.06a4.548 4.548 0 0 0 4.43-3.406 1.26 1.26 0 0 0-.229-1.093ZM5.5 10.135A3.573 3.573 0 0 1 9 6.5h14a3.573 3.573 0 0 1 3.5 3.635V21.5h-21V10.135ZM25.03 25.5H6.97a3.55 3.55 0 0 1-3.461-2.654.265.265 0 0 1 .049-.232.299.299 0 0 1 .237-.114h24.41a.298.298 0 0 1 .237.114.267.267 0 0 1 .05.233 3.55 3.55 0 0 1-3.463 2.653Z"/></svg>