<svg xmlns="http://www.w3.org/2000/svg" width="32" height="32" viewBox="0 0 32 32"><path d="M29.43 21.848a1.54 1.54 0 0 0-1.225-.598h-.455V10.135A4.824 4.824 0 0 0 23 5.25H9a4.824 4.824 0 0 0-4.75 4.885V21.25h-.455a1.54 1.54 0 0 0-1.514 1.22c-.047.226-.041.46.017.684A4.797 4.797 0 0 0 6.97 26.75h18.058a4.798 4.798 0 0 0 4.673-3.595 1.508 1.508 0 0 0-.272-1.307ZM5.75 10.135A3.323 3.323 0 0 1 9 6.75h14a3.323 3.323 0 0 1 3.25 3.385V21.25H5.75V10.135ZM25.03 25.25H6.97a3.207 3.207 0 0 1-3.175-2.5h24.41l.044.035a3.3 3.3 0 0 1-3.22 2.465Z"/></svg>