<svg xmlns="http://www.w3.org/2000/svg" width="32" height="32" viewBox="0 0 32 32"><path d="M29.627 21.695A1.786 1.786 0 0 0 28.205 21H28V10.135A5.074 5.074 0 0 0 23 5H9a5.074 5.074 0 0 0-5 5.135V21h-.205a1.786 1.786 0 0 0-1.422.695 1.759 1.759 0 0 0-.318 1.521A5.049 5.049 0 0 0 6.97 27h18.058a5.047 5.047 0 0 0 4.915-3.782 1.757 1.757 0 0 0-.317-1.523ZM6 10.135A3.073 3.073 0 0 1 9 7h14a3.073 3.073 0 0 1 3 3.135V21H6V10.135ZM25.03 25H6.97a3.06 3.06 0 0 1-2.892-2h23.844a3.058 3.058 0 0 1-2.893 2Z"/></svg>