<svg xmlns="http://www.w3.org/2000/svg" width="32" height="32" viewBox="0 0 32 32"><path d="M6.971 25.25a3.21 3.21 0 0 1-3.176-2.5h15.774l-1.5-1.5H5.75V10.135c.005-.351.063-.7.172-1.033L4.773 7.954a4.9 4.9 0 0 0-.523 2.18V21.25h-.455a1.54 1.54 0 0 0-1.513 1.218c-.047.227-.042.462.016.686A4.8 4.8 0 0 0 6.97 26.75H23.57l-1.5-1.5zM27.264 26.204a4.75 4.75 0 0 0 2.439-3.05 1.51 1.51 0 0 0-.275-1.308 1.54 1.54 0 0 0-1.222-.596h-.456V10.135A4.824 4.824 0 0 0 23 5.25H9a4.6 4.6 0 0 0-2.141.549L3.53 2.469a.75.75 0 0 0-1.063 1.058l.002.003 26 26a.75.75 0 0 0 1.061-1.06zM7.994 6.933A3.1 3.1 0 0 1 9 6.75h14a3.323 3.323 0 0 1 3.25 3.385V21.25h-3.94zM23.81 22.75h4.396l.044.035a3.27 3.27 0 0 1-2.122 2.283z"/></svg>