<svg xmlns="http://www.w3.org/2000/svg" width="32" height="32" viewBox="0 0 32 32"><path d="M16 2a14 14 0 1 0 14 14A14.016 14.016 0 0 0 16 2m1 25.95V16a1 1 0 1 0-2 0v11.95a12 12 0 1 1 2 0M16 6a1 1 0 0 0-1 1v5a1 1 0 1 0 2 0V7a1 1 0 0 0-1-1M25 15h-5a1 1 0 0 0 0 2h5a1 1 0 1 0 0-2M13 16a1 1 0 0 0-1-1H7a1 1 0 0 0 0 2h5a1 1 0 0 0 1-1M11.293 12.707a1 1 0 0 0 1.414-1.414l-2-2a1 1 0 0 0-1.414 1.414zM20 13a1 1 0 0 0 .707-.293l2-2a1 1 0 1 0-1.414-1.414l-2 2A1 1 0 0 0 20 13M11.293 19.295l-2 1.997a1 1 0 0 0 1.414 1.416l2-1.997a1 1 0 0 0-1.414-1.416M20.707 19.293a1 1 0 0 0-1.414 1.414l2 2a1 1 0 0 0 1.414-1.414z"/></svg>