<svg xmlns="http://www.w3.org/2000/svg" width="32" height="32" viewBox="0 0 32 32"><path d="M16 2.25A13.75 13.75 0 1 0 29.75 16 13.765 13.765 0 0 0 16 2.25m.75 25.962V16a.75.75 0 0 0-1.5 0v12.212a12.25 12.25 0 1 1 1.5 0M16 6.25a.75.75 0 0 0-.75.75v5a.75.75 0 1 0 1.5 0V7a.75.75 0 0 0-.75-.75M25 15.25h-5a.75.75 0 0 0 0 1.5h5a.75.75 0 0 0 0-1.5M12 15.25H7a.75.75 0 0 0 0 1.5h5a.75.75 0 0 0 0-1.5M10.53 9.47a.75.75 0 1 0-1.06 1.06l2 2a.75.75 0 0 0 1.06-1.06zM20 12.75a.75.75 0 0 0 .53-.22l2-2a.75.75 0 1 0-1.06-1.06l-2 2a.751.751 0 0 0 .53 1.28M11.47 19.472l-2 1.997a.75.75 0 1 0 1.06 1.061l2-1.997a.75.75 0 0 0-1.06-1.06M20.53 19.47a.75.75 0 0 0-1.06 1.06l2 2a.75.75 0 1 0 1.06-1.06z"/></svg>