<svg xmlns="http://www.w3.org/2000/svg" width="32" height="32" viewBox="0 0 32 32"><path d="M16 2.5A13.5 13.5 0 1 0 29.5 16 13.515 13.515 0 0 0 16 2.5m.5 25.974V16a.5.5 0 0 0-1 0v12.474a12.5 12.5 0 1 1 1 0M16 6.5a.5.5 0 0 0-.5.5v5a.5.5 0 0 0 1 0V7a.497.497 0 0 0-.5-.5M25 15.5h-5a.5.5 0 1 0 0 1h5a.5.5 0 1 0 0-1M12 15.5H7a.5.5 0 0 0 0 1h5a.5.5 0 1 0 0-1M10.354 9.646a.5.5 0 0 0-.707.707l2 2a.5.5 0 0 0 .707-.707zM20 12.5a.5.5 0 0 0 .354-.147l2-2a.498.498 0 0 0-.16-.82.5.5 0 0 0-.547.113l-2 2A.5.5 0 0 0 20 12.5M11.647 19.65l-2 1.996a.5.5 0 1 0 .707.707l2-1.997a.5.5 0 0 0-.707-.707M20.354 19.646a.5.5 0 0 0-.707.707l2 2a.5.5 0 1 0 .707-.707z"/></svg>