<svg xmlns="http://www.w3.org/2000/svg" width="32" height="32" viewBox="0 0 32 32"><path d="M21.665 11.585a1.25 1.25 0 1 0 0-2.5 1.25 1.25 0 0 0 0 2.5M9.53 22.47a.75.75 0 0 0-1.06 0l-4 4a.75.75 0 1 0 1.06 1.06l4-4a.75.75 0 0 0 0-1.06M11.47 24.47l-2 2a.75.75 0 1 0 1.06 1.06l2-2a.75.75 0 1 0-1.06-1.06M5 22.75a.75.75 0 0 0 .53-.22l2-2a.75.75 0 0 0-1.06-1.06l-2 2A.75.75 0 0 0 5 22.75M27.247 4.77a1.75 1.75 0 0 0-1.48-.496l-2.871.4a15.1 15.1 0 0 0-8.423 3.793 9 9 0 0 0-1.56 2.15 3.67 3.67 0 0 0-2.817-1.362c-1.668.087-2.852 1.665-3.904 3.395l-1.048 1.97a1.85 1.85 0 0 0 .267 2.277l.336.344a1.72 1.72 0 0 0 1.225.506c.407-.002.802-.14 1.122-.392L10.9 14.87l-1.486 3.24a1.76 1.76 0 0 0 .349 1.98l2.147 2.147c.33.328.776.513 1.242.512.251 0 .5-.055.728-.162l4.232-1.918-2.496 2.897a1.753 1.753 0 0 0 .153 2.314l.332.325c.351.351.827.548 1.323.55.325 0 .643-.088.92-.256l2.047-1.09c1.616-.986 3.28-2.222 3.361-3.923a3.82 3.82 0 0 0-1.485-2.933q.684-.45 1.266-1.026a15.07 15.07 0 0 0 3.81-8.407l.4-2.873a1.74 1.74 0 0 0-.496-1.478M7.137 16.2a.25.25 0 0 1-.323-.014l-.336-.344a.376.376 0 0 1-.032-.48l1.048-1.969c.733-1.202 1.699-2.589 2.68-2.64l.057-.002c.723.122 1.37.522 1.801 1.115zm12.51 7.907-2.044 1.09a.36.36 0 0 1-.449-.058l-.331-.325a.25.25 0 0 1-.046-.299l4.316-5.008a2.78 2.78 0 0 1 1.161 1.907c-.049 1.007-1.438 1.98-2.606 2.693m6.21-15.193a13.55 13.55 0 0 1-3.39 7.559 11.4 11.4 0 0 1-3.499 2.16l-5.716 2.594a.25.25 0 0 1-.281-.05l-2.148-2.147a.25.25 0 0 1-.047-.288l2.68-5.846a10.9 10.9 0 0 1 2.072-3.362 13.6 13.6 0 0 1 7.575-3.373l2.872-.4a.247.247 0 0 1 .282.28z"/></svg>