<svg xmlns="http://www.w3.org/2000/svg" width="32" height="32" viewBox="0 0 32 32"><path d="M20.488 9.158a1.665 1.665 0 1 0 2.355 2.355 1.665 1.665 0 0 0-2.355-2.355M9.707 22.293a1 1 0 0 0-1.414 0l-4 4a1 1 0 1 0 1.414 1.414l4-4a1 1 0 0 0 0-1.414M11.293 24.293l-2 2a1 1 0 1 0 1.414 1.414l2-2a1 1 0 0 0-1.414-1.414M5 23a1 1 0 0 0 .707-.293l2-2a1 1 0 0 0-1.414-1.414l-2 2A1 1 0 0 0 5 23M27.424 4.593a1.98 1.98 0 0 0-1.69-.566l-2.873.4a15.36 15.36 0 0 0-8.564 3.861 8.8 8.8 0 0 0-1.447 1.916 3.73 3.73 0 0 0-2.768-1.199C8.3 9.1 7.067 10.732 5.971 12.533L4.93 14.49a2.1 2.1 0 0 0 .302 2.582l.337.345a1.97 1.97 0 0 0 1.397.578c.47-.002.925-.162 1.293-.453l1.919-1.699-.991 2.163a2.01 2.01 0 0 0 .398 2.261l2.147 2.148c.377.375.887.585 1.418.585.288 0 .572-.062.832-.183l3.199-1.45-1.764 2.046a2.005 2.005 0 0 0 .175 2.646l.33.324c.4.399.94.623 1.504.624.365.002.723-.097 1.035-.286l2.059-1.099c1.671-1.018 3.393-2.305 3.481-4.123a3.87 3.87 0 0 0-1.334-2.911q.557-.4 1.043-.885a15.3 15.3 0 0 0 3.879-8.547l.4-2.872a1.98 1.98 0 0 0-.566-1.69M6.992 16.011l-.338-.346c-.036-.036-.043-.091.013-.185l1.04-1.957c.701-1.15 1.615-2.475 2.48-2.52l.046-.002c.572.087 1.089.39 1.444.847zm12.538 7.875-2.056 1.098a.12.12 0 0 1-.144-.023l-.363-.283 4.148-4.813a2.29 2.29 0 0 1 .889 1.537c-.048 1.005-1.847 2.1-2.474 2.484m6.48-17.88-.4 2.874a13.3 13.3 0 0 1-3.32 7.417 11.2 11.2 0 0 1-3.427 2.109L13.148 21l-2.145-2.155 2.679-5.844a10.7 10.7 0 0 1 2.021-3.29 13.34 13.34 0 0 1 7.434-3.303l2.873-.404z"/></svg>