<svg xmlns="http://www.w3.org/2000/svg" width="32" height="32" viewBox="0 0 32 32"><path d="M20.958 9.628a1 1 0 1 0 1.413 1.414 1 1 0 0 0-1.413-1.414ZM9.354 22.647a.498.498 0 0 0-.707 0l-4 4a.5.5 0 1 0 .707.707l4-4a.5.5 0 0 0 0-.707ZM11.647 24.647l-2 2a.5.5 0 1 0 .707.707l2-2a.5.5 0 0 0-.707-.707ZM5 22.5a.497.497 0 0 0 .354-.146l2-2a.5.5 0 0 0-.707-.707l-2 2A.5.5 0 0 0 5 22.5Z"/><path d="M27.07 4.947a1.483 1.483 0 0 0-1.268-.425l-2.872.4a14.845 14.845 0 0 0-8.281 3.723 9.142 9.142 0 0 0-1.68 2.397 3.68 3.68 0 0 0-2.86-1.537c-1.552.081-2.687 1.604-3.697 3.262L5.358 14.75a1.603 1.603 0 0 0 .232 1.972l.334.342a1.482 1.482 0 0 0 1.052.434c.345 0 .68-.117.952-.33l3.692-3.27-1.98 4.32a1.507 1.507 0 0 0 .3 1.696l2.147 2.147c.283.282.665.44 1.064.44.216 0 .43-.048.626-.14l5.264-2.387-3.227 3.745a1.504 1.504 0 0 0 .13 1.984l.333.327c.304.302.715.473 1.144.473.285.001.564-.076.807-.223l2.032-1.084c1.56-.95 3.166-2.136 3.243-3.722a3.787 3.787 0 0 0-1.64-2.954 8.298 8.298 0 0 0 1.493-1.168 14.813 14.813 0 0 0 3.739-8.265l.4-2.873a1.487 1.487 0 0 0-.424-1.267ZM7.29 16.397a.498.498 0 0 1-.655-.036l-.334-.342a.62.62 0 0 1-.075-.773l1.055-1.984c.811-1.332 1.789-2.701 2.88-2.759a1.65 1.65 0 0 1 .072-.002 3.13 3.13 0 0 1 2.151 1.387l-5.094 4.51Zm15.214 5.03c-.053 1.117-1.428 2.1-2.74 2.9l-2.031 1.083a.61.61 0 0 1-.753-.092l-.333-.327a.495.495 0 0 1-.059-.64l4.479-5.196c.987.817 1.47 1.58 1.437 2.271Zm3.6-12.478a13.81 13.81 0 0 1-3.46 7.7 11.574 11.574 0 0 1-3.57 2.21l-5.715 2.593a.496.496 0 0 1-.565-.098l-2.147-2.148a.501.501 0 0 1-.098-.569l2.68-5.847a11.068 11.068 0 0 1 2.123-3.434 13.834 13.834 0 0 1 7.717-3.444l2.872-.4a.5.5 0 0 1 .564.563l-.4 2.874Z"/></svg>