<svg xmlns="http://www.w3.org/2000/svg" width="32" height="32" viewBox="0 0 32 32"><path d="M20.958 9.628a1 1 0 1 0 1.413 1.414 1 1 0 0 0-1.413-1.414M9.354 22.647a.5.5 0 0 0-.707 0l-4 4a.5.5 0 1 0 .707.707l4-4a.5.5 0 0 0 0-.707M11.647 24.647l-2 2a.5.5 0 1 0 .707.707l2-2a.5.5 0 0 0-.707-.707M5 22.5a.5.5 0 0 0 .354-.146l2-2a.5.5 0 0 0-.707-.707l-2 2A.5.5 0 0 0 5 22.5M27.07 4.947a1.48 1.48 0 0 0-1.268-.425l-2.872.4a14.85 14.85 0 0 0-8.281 3.723 9.1 9.1 0 0 0-1.68 2.397 3.68 3.68 0 0 0-2.86-1.537c-1.552.081-2.687 1.604-3.697 3.262L5.358 14.75a1.6 1.6 0 0 0 .232 1.972l.334.342a1.48 1.48 0 0 0 1.052.434c.345 0 .68-.117.952-.33l3.692-3.27-1.98 4.32a1.51 1.51 0 0 0 .3 1.696l2.147 2.147c.283.282.665.44 1.064.44.216 0 .43-.048.626-.14l5.264-2.387-3.227 3.745a1.504 1.504 0 0 0 .13 1.984l.333.327c.304.302.715.473 1.144.473.285.001.564-.076.807-.223l2.032-1.084c1.56-.95 3.166-2.136 3.243-3.722a3.79 3.79 0 0 0-1.64-2.954 8.3 8.3 0 0 0 1.493-1.168 14.8 14.8 0 0 0 3.739-8.265l.4-2.873a1.49 1.49 0 0 0-.424-1.267M7.29 16.397a.5.5 0 0 1-.655-.036l-.334-.342a.62.62 0 0 1-.075-.773l1.055-1.984c.811-1.332 1.789-2.701 2.88-2.759l.072-.002a3.13 3.13 0 0 1 2.151 1.387zm15.214 5.03c-.053 1.117-1.428 2.1-2.74 2.9l-2.031 1.083a.61.61 0 0 1-.753-.092l-.333-.327a.495.495 0 0 1-.059-.64l4.479-5.196c.987.817 1.47 1.58 1.437 2.271m3.6-12.478a13.8 13.8 0 0 1-3.46 7.7 11.6 11.6 0 0 1-3.57 2.21l-5.715 2.593a.5.5 0 0 1-.565-.098l-2.147-2.148a.5.5 0 0 1-.098-.569l2.68-5.847a11.1 11.1 0 0 1 2.123-3.434 13.83 13.83 0 0 1 7.717-3.444l2.872-.4a.5.5 0 0 1 .564.563z"/></svg>