<svg xmlns="http://www.w3.org/2000/svg" width="32" height="32" viewBox="0 0 32 32"><path d="M19 2.25A2.75 2.75 0 0 0 16.25 5v7.5a.75.75 0 0 0 1.5 0V5c0-.69.56-1.25 1.25-1.25h8c.69 0 1.25.56 1.25 1.25v6.5a.75.75 0 0 0 1.5 0V5A2.75 2.75 0 0 0 27 2.25h-8ZM17.75 21a.75.75 0 0 0-1.5 0v6A2.75 2.75 0 0 0 19 29.75h6A2.75 2.75 0 0 0 27.75 27v-4a.75.75 0 0 0-1.5 0v4c0 .69-.56 1.25-1.25 1.25h-6c-.69 0-1.25-.56-1.25-1.25v-6Z"/><path d="M18.25 17a.75.75 0 0 1 .75-.75h7.69l-2.72-2.72a.75.75 0 1 1 1.06-1.06l4 4a.75.75 0 0 1 0 1.06l-4 4a.75.75 0 1 1-1.06-1.06l2.72-2.72H19a.75.75 0 0 1-.75-.75ZM2.25 7A2.75 2.75 0 0 1 5 4.25h6A2.75 2.75 0 0 1 13.75 7v6A2.75 2.75 0 0 1 11 15.75H5A2.75 2.75 0 0 1 2.25 13V7ZM5 5.75c-.69 0-1.25.56-1.25 1.25v6c0 .69.56 1.25 1.25 1.25h6c.69 0 1.25-.56 1.25-1.25V7c0-.69-.56-1.25-1.25-1.25H5ZM5 18.25A2.75 2.75 0 0 0 2.25 21v6A2.75 2.75 0 0 0 5 29.75h6A2.75 2.75 0 0 0 13.75 27v-6A2.75 2.75 0 0 0 11 18.25H5ZM3.75 21c0-.69.56-1.25 1.25-1.25h6c.69 0 1.25.56 1.25 1.25v6c0 .69-.56 1.25-1.25 1.25H5c-.69 0-1.25-.56-1.25-1.25v-6Z"/></svg>