<svg xmlns="http://www.w3.org/2000/svg" width="32" height="32" viewBox="0 0 32 32"><path d="M17 14.75a.75.75 0 0 0 .75-.75V5.102c0-.35.144-.69.41-.946a1.48 1.48 0 0 1 1.022-.406h7.636c.389 0 .756.149 1.023.406.265.256.409.597.409.946V14a.75.75 0 0 0 1.5 0V5.102c0-.766-.316-1.494-.869-2.027a2.97 2.97 0 0 0-2.063-.825h-7.636c-.769 0-1.511.294-2.063.825a2.81 2.81 0 0 0-.869 2.027V14c0 .414.336.75.75.75M11.75 19a.75.75 0 0 1-.75.75H4.778c-.267 0-.527.108-.721.307a1.1 1.1 0 0 0-.307.761v6.364c0 .289.112.562.307.761.194.199.454.307.72.307H11a.75.75 0 0 1 0 1.5H4.778c-.676 0-1.32-.275-1.794-.758a2.6 2.6 0 0 1-.734-1.81v-6.364c0-.676.262-1.327.734-1.81a2.5 2.5 0 0 1 1.794-.758H11a.75.75 0 0 1 .75.75M13.75 6.818a2.57 2.57 0 0 0-2.568-2.568H4.818A2.57 2.57 0 0 0 2.25 6.818v6.364a2.57 2.57 0 0 0 2.568 2.568h6.364a2.57 2.57 0 0 0 2.568-2.568zm-1.813-.755c.2.2.313.472.313.755v6.364a1.07 1.07 0 0 1-1.068 1.068H4.818a1.07 1.07 0 0 1-1.068-1.068V6.818A1.07 1.07 0 0 1 4.818 5.75h6.364c.283 0 .555.113.755.313M14.25 23a.75.75 0 0 1 .75-.75h12.19l-4.72-4.72a.75.75 0 1 1 1.06-1.06l6 6a.75.75 0 0 1 0 1.06l-6 6a.75.75 0 1 1-1.06-1.06l4.72-4.72H15a.75.75 0 0 1-.75-.75"/></svg>