<svg xmlns="http://www.w3.org/2000/svg" width="32" height="32" viewBox="0 0 32 32"><path d="M17 15a1 1 0 0 0 1-1V5.102c0-.28.115-.556.333-.766.219-.211.524-.336.849-.336h7.636c.325 0 .63.125.85.336.217.21.332.486.332.766V14a1 1 0 1 0 2 0V5.102c0-.835-.345-1.628-.945-2.207A3.23 3.23 0 0 0 26.818 2h-7.636c-.832 0-1.637.318-2.237.895A3.06 3.06 0 0 0 16 5.102V14a1 1 0 0 0 1 1M12 19a1 1 0 0 1-1 1H4.778a.76.76 0 0 0-.542.232.84.84 0 0 0-.236.586v6.364a.84.84 0 0 0 .236.586.76.76 0 0 0 .542.232H11a1 1 0 1 1 0 2H4.778a2.76 2.76 0 0 1-1.972-.833A2.84 2.84 0 0 1 2 27.182v-6.364c0-.74.287-1.454.806-1.985A2.76 2.76 0 0 1 4.778 18H11a1 1 0 0 1 1 1M14 6.818A2.82 2.82 0 0 0 11.182 4H4.818A2.82 2.82 0 0 0 2 6.818v6.364A2.82 2.82 0 0 0 4.818 16h6.364A2.82 2.82 0 0 0 14 13.182zm-2.24-.578c.154.153.24.361.24.578v6.364a.82.82 0 0 1-.818.818H4.818A.82.82 0 0 1 4 13.182V6.818A.82.82 0 0 1 4.818 6h6.364c.217 0 .425.086.578.24M14 23c0-.552.42-1 .938-1h11.648l-4.293-4.293a1 1 0 0 1 1.414-1.414l6 6a1 1 0 0 1 0 1.414l-6 6a1 1 0 0 1-1.414-1.414L26.586 24H14.938c-.518 0-.938-.448-.938-1"/></svg>