<svg xmlns="http://www.w3.org/2000/svg" width="32" height="32" viewBox="0 0 32 32"><path d="M7 5h18a5.006 5.006 0 0 1 5 5v.015a1 1 0 1 1-2 0V10a3.003 3.003 0 0 0-3-3H7a3.003 3.003 0 0 0-3 3v12a3.003 3.003 0 0 0 3 3h18a3.004 3.004 0 0 0 3-3v.112a1 1 0 0 1 2-.036A5.005 5.005 0 0 1 25 27H7a5.006 5.006 0 0 1-5-5V10a5.006 5.006 0 0 1 5-5M30 22.076V22v.112zM14 9a1 1 0 0 1 1-1h2a1 1 0 1 1 0 2h-2a1 1 0 0 1-1-1M20.076 16.387A1 1 0 0 1 21 15.004h5.586l-2.293-2.293a1 1 0 1 1 1.414-1.414l4 4a1.003 1.003 0 0 1 0 1.415l-4 3.999a1 1 0 1 1-1.414-1.414l2.293-2.293H21a1 1 0 0 1-.924-.617"/></svg>