<svg xmlns="http://www.w3.org/2000/svg" width="32" height="32" viewBox="0 0 32 32"><path d="M19 2a3 3 0 0 0-3 3v7.5a1 1 0 1 0 2 0V5a1 1 0 0 1 1-1h8a1 1 0 0 1 1 1v6.5a1 1 0 1 0 2 0V5a3 3 0 0 0-3-3h-8ZM18 21a1 1 0 1 0-2 0v6a3 3 0 0 0 3 3h6a3 3 0 0 0 3-3v-4a1 1 0 1 0-2 0v4a1 1 0 0 1-1 1h-6a1 1 0 0 1-1-1v-6Z"/><path d="M18 17a1 1 0 0 1 1-1h7.086l-2.293-2.293a1 1 0 0 1 1.414-1.414l4 4a1 1 0 0 1 0 1.414l-4 4a1 1 0 0 1-1.414-1.414L26.086 18H19a1 1 0 0 1-1-1ZM2 7a3 3 0 0 1 3-3h6a3 3 0 0 1 3 3v6a3 3 0 0 1-3 3H5a3 3 0 0 1-3-3V7Zm3-1a1 1 0 0 0-1 1v6a1 1 0 0 0 1 1h6a1 1 0 0 0 1-1V7a1 1 0 0 0-1-1H5ZM5 18a3 3 0 0 0-3 3v6a3 3 0 0 0 3 3h6a3 3 0 0 0 3-3v-6a3 3 0 0 0-3-3H5Zm-1 3a1 1 0 0 1 1-1h6a1 1 0 0 1 1 1v6a1 1 0 0 1-1 1H5a1 1 0 0 1-1-1v-6Z"/></svg>