<svg xmlns="http://www.w3.org/2000/svg" width="32" height="32" viewBox="0 0 32 32"><path d="M19 2.5A2.5 2.5 0 0 0 16.5 5v7.5a.5.5 0 0 0 1 0V5A1.5 1.5 0 0 1 19 3.5h8A1.5 1.5 0 0 1 28.5 5v6.5a.5.5 0 0 0 1 0V5A2.5 2.5 0 0 0 27 2.5h-8ZM17.5 21a.5.5 0 0 0-1 0v6a2.5 2.5 0 0 0 2.5 2.5h6a2.5 2.5 0 0 0 2.5-2.5v-4a.5.5 0 0 0-1 0v4a1.5 1.5 0 0 1-1.5 1.5h-6a1.5 1.5 0 0 1-1.5-1.5v-6ZM18.5 17a.5.5 0 0 1 .5-.5h8.293l-3.147-3.146a.5.5 0 0 1 .708-.708l4 4a.5.5 0 0 1 0 .708l-4 4a.5.5 0 0 1-.708-.708l3.147-3.146H19a.5.5 0 0 1-.5-.5ZM2.5 7A2.5 2.5 0 0 1 5 4.5h6A2.5 2.5 0 0 1 13.5 7v6a2.5 2.5 0 0 1-2.5 2.5H5A2.5 2.5 0 0 1 2.5 13V7ZM5 5.5A1.5 1.5 0 0 0 3.5 7v6A1.5 1.5 0 0 0 5 14.5h6a1.5 1.5 0 0 0 1.5-1.5V7A1.5 1.5 0 0 0 11 5.5H5ZM5 18.5A2.5 2.5 0 0 0 2.5 21v6A2.5 2.5 0 0 0 5 29.5h6a2.5 2.5 0 0 0 2.5-2.5v-6a2.5 2.5 0 0 0-2.5-2.5H5ZM3.5 21A1.5 1.5 0 0 1 5 19.5h6a1.5 1.5 0 0 1 1.5 1.5v6a1.5 1.5 0 0 1-1.5 1.5H5A1.5 1.5 0 0 1 3.5 27v-6Z"/></svg>