<svg xmlns="http://www.w3.org/2000/svg" width="32" height="32" viewBox="0 0 32 32"><path d="M17.5 14a.5.5 0 0 1-1 0V5.102c0-.696.287-1.36.792-1.846a2.73 2.73 0 0 1 1.89-.756h7.636c.705 0 1.386.27 1.89.756.505.486.792 1.15.792 1.846V14a.5.5 0 0 1-1 0V5.102c0-.419-.172-.824-.486-1.126a1.73 1.73 0 0 0-1.196-.476h-7.636c-.452 0-.882.173-1.196.476a1.56 1.56 0 0 0-.486 1.126zM11 19.5a.5.5 0 0 0 0-1H4.778c-.608 0-1.189.247-1.615.683a2.34 2.34 0 0 0-.663 1.635v6.364c0 .611.237 1.2.663 1.635a2.26 2.26 0 0 0 1.615.683H11a.5.5 0 0 0 0-1H4.778c-.335 0-.66-.136-.9-.382a1.34 1.34 0 0 1-.378-.936v-6.364c0-.353.137-.69.378-.936.24-.246.565-.382.9-.382zM12.821 5.179c.435.435.679 1.024.679 1.64v6.363a2.32 2.32 0 0 1-2.318 2.318H4.818A2.32 2.32 0 0 1 2.5 13.182V6.818A2.32 2.32 0 0 1 4.818 4.5h6.364c.615 0 1.204.244 1.639.679m-.321 1.64A1.32 1.32 0 0 0 11.182 5.5H4.818A1.32 1.32 0 0 0 3.5 6.818v6.364A1.32 1.32 0 0 0 4.818 14.5h6.364a1.32 1.32 0 0 0 1.318-1.318zM23.354 16.646a.5.5 0 0 0-.708.708l5.147 5.146H14.967c-.258 0-.467.224-.467.5s.209.5.467.5h12.826l-5.147 5.146a.5.5 0 0 0 .708.708l6-6a.5.5 0 0 0 0-.708z"/></svg>