<svg xmlns="http://www.w3.org/2000/svg" width="32" height="32" viewBox="0 0 32 32"><path d="M7 5.25h18A4.755 4.755 0 0 1 29.75 10v.015a.75.75 0 0 1-1.5 0V10A3.254 3.254 0 0 0 25 6.75H7A3.254 3.254 0 0 0 3.75 10v12A3.254 3.254 0 0 0 7 25.25h18A3.254 3.254 0 0 0 28.25 22v.112a.75.75 0 0 1 1.499-.033 4.755 4.755 0 0 1-4.75 4.671H7A4.755 4.755 0 0 1 2.25 22V10A4.755 4.755 0 0 1 7 5.25M29.749 22.079V22v.112zM14.25 9a.75.75 0 0 1 .75-.75h2a.75.75 0 0 1 0 1.5h-2a.75.75 0 0 1-.75-.75M20.47 16.531a.75.75 0 0 1 .53-1.28h6.19l-2.72-2.72a.75.75 0 1 1 1.06-1.06l4 4a.753.753 0 0 1 0 1.06l-4 4a.75.75 0 1 1-1.06-1.06l2.72-2.72H21a.75.75 0 0 1-.53-.22"/></svg>