<svg xmlns="http://www.w3.org/2000/svg" width="32" height="32" viewBox="0 0 32 32"><path d="M25 11.247h-7.251L17.75 7a2.75 2.75 0 0 0-5.408-.705c-.935 3.497-1.806 6.705-2.146 7.956L7 14.247a3.755 3.755 0 0 0-3.75 3.75v6A3.754 3.754 0 0 0 7 27.747h14.001a7.75 7.75 0 0 0 7.749-7.75v-5a3.755 3.755 0 0 0-3.75-3.75M4.75 23.997v-6a2.253 2.253 0 0 1 2.249-2.25l3.251.003v10.497H7a2.253 2.253 0 0 1-2.25-2.25m22.5-4a6.25 6.25 0 0 1-6.25 6.25h-9.25V14.253c.393-1.447 1.19-4.386 2.04-7.571a1.25 1.25 0 0 1 2.46.317l.004 4.359a1.25 1.25 0 0 0 1.242 1.39L25 12.747a2.253 2.253 0 0 1 2.25 2.25z"/></svg>