<svg xmlns="http://www.w3.org/2000/svg" width="32" height="32" viewBox="0 0 32 32"><path d="m25 11.497-7.501-.056.001-4.442a2.5 2.5 0 0 0-4.917-.64 1923.6 1923.6 0 0 1-2.195 8.14L7 14.497a3.504 3.504 0 0 0-3.5 3.5v6a3.504 3.504 0 0 0 3.5 3.5h14.001a7.5 7.5 0 0 0 7.499-7.5v-5a3.504 3.504 0 0 0-3.5-3.5Zm-20.5 12.5v-6a2.503 2.503 0 0 1 2.5-2.5l3.5.003v10.997H7a2.503 2.503 0 0 1-2.5-2.5Zm23-4a6.501 6.501 0 0 1-6.499 6.5H11.5V14.22c.39-1.434 1.191-4.393 2.05-7.602a1.5 1.5 0 0 1 2.95.381l.002 4.387a1 1 0 0 0 .994 1.112L25 12.497a2.503 2.503 0 0 1 2.5 2.5v5Z"/></svg>