<svg xmlns="http://www.w3.org/2000/svg" width="32" height="32" viewBox="0 0 32 32"><path d="M10.647 21.353a.5.5 0 0 0 .707 0l10-10a.5.5 0 0 0-.707-.707l-10 10a.5.5 0 0 0 0 .707Z"/><path d="M18.02 20.5a.505.505 0 0 0-.538.459 5.99 5.99 0 0 1-1.733 3.752l-2.038 2.037a5.983 5.983 0 0 1-10.21-4.23c0-1.586.63-3.107 1.751-4.229l2.037-2.037a5.983 5.983 0 0 1 3.751-1.733.5.5 0 1 0-.08-.997 6.98 6.98 0 0 0-4.378 2.023l-2.037 2.037a6.981 6.981 0 0 0 9.873 9.873l2.037-2.037a6.984 6.984 0 0 0 2.023-4.38.5.5 0 0 0-.458-.538ZM27.455 4.545a6.99 6.99 0 0 0-9.873 0l-2.024 2.024a6.542 6.542 0 0 0-2.036 4.4.5.5 0 0 0 .467.532.518.518 0 0 0 .53-.467 5.556 5.556 0 0 1 1.733-3.745l2.037-2.037a5.981 5.981 0 0 1 8.46 8.46l-2.038 2.036a5.984 5.984 0 0 1-3.75 1.733.5.5 0 1 0 .08.997 6.985 6.985 0 0 0 4.377-2.023l2.037-2.037a6.989 6.989 0 0 0 0-9.873Z"/></svg>