<svg xmlns="http://www.w3.org/2000/svg" width="32" height="32" viewBox="0 0 32 32"><path d="M10.47 21.53a.75.75 0 0 0 1.06 0l10-10a.75.75 0 0 0-1.06-1.06l-10 10a.75.75 0 0 0 0 1.06M18.04 20.25a.755.755 0 0 0-.808.689 5.73 5.73 0 0 1-1.66 3.596l-2.037 2.036a5.731 5.731 0 0 1-8.106-8.105l2.037-2.037a5.73 5.73 0 0 1 3.594-1.661.749.749 0 0 0 .175-1.465.8.8 0 0 0-.294-.03 7.23 7.23 0 0 0-4.535 2.095l-2.038 2.037a7.23 7.23 0 1 0 10.227 10.227l2.037-2.037a7.24 7.24 0 0 0 2.096-4.537.75.75 0 0 0-.689-.807M27.632 4.368a7.23 7.23 0 0 0-10.227 0l-2.017 2.019a6.8 6.8 0 0 0-2.115 4.567.75.75 0 0 0 .699.796.76.76 0 0 0 .797-.7 5.32 5.32 0 0 1 1.66-3.584l2.037-2.037a5.732 5.732 0 0 1 8.105 8.106l-2.037 2.036a5.73 5.73 0 0 1-3.593 1.66.75.75 0 0 0 .119 1.496 7.23 7.23 0 0 0 4.535-2.095l2.037-2.037a7.23 7.23 0 0 0 0-10.227"/></svg>