<svg xmlns="http://www.w3.org/2000/svg" width="32" height="32" viewBox="0 0 32 32"><path d="M10.293 21.707a1 1 0 0 0 1.414 0l10-10a1 1 0 1 0-1.414-1.414l-10 10a1 1 0 0 0 0 1.414M18.059 20.001a1.01 1.01 0 0 0-1.076.918 5.5 5.5 0 0 1-1.588 3.439l-2.037 2.036a5.481 5.481 0 1 1-7.752-7.751l2.037-2.038a5.48 5.48 0 0 1 3.437-1.588.999.999 0 0 0 .233-1.954q-.192-.06-.393-.04a7.48 7.48 0 0 0-4.691 2.168l-2.037 2.037a7.481 7.481 0 0 0 10.58 10.58l2.037-2.036a7.5 7.5 0 0 0 2.168-4.694A1 1 0 0 0 18.059 20M27.809 4.191a7.49 7.49 0 0 0-10.58 0l-2.012 2.013a7.04 7.04 0 0 0-2.194 4.733 1.002 1.002 0 0 0 1.658.816 1 1 0 0 0 .338-.687 5.07 5.07 0 0 1 1.587-3.424l2.037-2.037a5.482 5.482 0 0 1 7.752 7.753l-2.037 2.036a5.48 5.48 0 0 1-3.437 1.588 1 1 0 1 0 .158 1.995 7.48 7.48 0 0 0 4.693-2.169l2.037-2.036a7.49 7.49 0 0 0 0-10.58"/></svg>