<svg xmlns="http://www.w3.org/2000/svg" width="32" height="32" viewBox="0 0 32 32"><path d="M12 10.5h16a.5.5 0 1 0 0-1H12a.5.5 0 1 0 0 1ZM28 21.5H12a.5.5 0 1 0 0 1h16a.5.5 0 1 0 0-1ZM7.17 21.714c.273-.413.41-.859.41-1.34 0-.545-.188-.995-.56-1.349-.414-.4-.96-.6-1.64-.6-.6 0-1.11.157-1.53.47-.48.347-.764.826-.85 1.44h.79c.046-.367.196-.663.45-.89.286-.26.66-.39 1.12-.39.42 0 .76.107 1.02.32.293.24.44.577.44 1.01 0 .333-.089.645-.265.935-.177.29-.505.672-.986 1.145l-2.45 2.42v.69h4.44v-.69H4.12l1.89-1.85c.56-.54.947-.98 1.16-1.32ZM5.59 13.645h.74v-7H5.6l-1.6.88v.77l1.59-.87v6.22Z"/></svg>