<svg xmlns="http://www.w3.org/2000/svg" width="32" height="32" viewBox="0 0 32 32"><path d="M12 11h16a1 1 0 1 0 0-2H12a1 1 0 1 0 0 2ZM28 21H12a1 1 0 1 0 0 2h16a1 1 0 1 0 0-2ZM7.44 21.825c.3-.427.45-.893.45-1.4 0-.56-.197-1.023-.59-1.39-.434-.406-1.017-.61-1.75-.61-.627 0-1.167.163-1.62.49a2.142 2.142 0 0 0-.93 1.53h1.26c.047-.314.174-.566.38-.76.226-.207.52-.31.88-.31.327 0 .593.084.8.25.227.194.34.46.34.8 0 .307-.092.597-.275.87-.184.274-.572.693-1.165 1.26l-2.04 1.98v1.04h4.67v-1.04H4.78l1.35-1.29c.646-.62 1.083-1.093 1.31-1.42ZM5.59 13.645h1.19v-7H5.6l-1.6.83v1.16l1.59-.81v5.82Z"/></svg>