<svg xmlns="http://www.w3.org/2000/svg" width="32" height="32" viewBox="0 0 32 32"><path d="M12 10.75h16a.75.75 0 0 0 0-1.5H12a.75.75 0 0 0 0 1.5ZM28 21.25H12a.75.75 0 0 0 0 1.5h16a.75.75 0 0 0 0-1.5ZM7.32 21.785c.28-.42.42-.876.42-1.37 0-.56-.19-1.023-.57-1.39-.426-.4-.996-.6-1.71-.6-.626 0-1.16.166-1.6.5-.493.367-.78.86-.86 1.48h1.01c.04-.34.174-.613.4-.82.26-.233.604-.35 1.03-.35.38 0 .687.097.92.29.267.214.4.514.4.9 0 .32-.091.624-.275.915-.183.29-.528.678-1.035 1.165l-2.28 2.19v.88h4.54v-.88H4.47l1.6-1.52c.607-.574 1.024-1.037 1.25-1.39ZM5.57 13.645h.95v-7h-.94L4 7.465v.99l1.57-.81v6Z"/></svg>