<svg xmlns="http://www.w3.org/2000/svg" width="32" height="32" viewBox="0 0 32 32"><path d="M7.53 12.4H6.5v7.2h4.42v-.91H7.53zM13.038 12.4h-1.02v7.2h1.02zM19.257 12.4h1l-2.58 7.2h-1.27l-2.62-7.2h1.08l2.18 6.24zM25.212 16.36v-.84h-3.18v-2.26h3.47v-.86h-4.49v7.2h4.49v-.86h-3.47v-2.38zM7 6.5h18a4.505 4.505 0 0 1 4.5 4.5v10a4.505 4.505 0 0 1-4.5 4.5H7A4.505 4.505 0 0 1 2.5 21V11A4.505 4.505 0 0 1 7 6.5m20.474 16.973A3.5 3.5 0 0 0 28.5 21V11A3.504 3.504 0 0 0 25 7.5H7A3.504 3.504 0 0 0 3.5 11v10A3.504 3.504 0 0 0 7 24.5h18a3.5 3.5 0 0 0 2.474-1.027"/></svg>