<svg xmlns="http://www.w3.org/2000/svg" width="32" height="32" viewBox="0 0 32 32"><path d="M2.5 6A2.5 2.5 0 0 1 5 3.5h22A2.5 2.5 0 0 1 29.5 6v20a2.5 2.5 0 0 1-2.5 2.5H5A2.5 2.5 0 0 1 2.5 26V6ZM5 4.5A1.5 1.5 0 0 0 3.5 6v20A1.5 1.5 0 0 0 5 27.5h22a1.5 1.5 0 0 0 1.5-1.5V6A1.5 1.5 0 0 0 27 4.5H5ZM6.5 8a.5.5 0 0 1 .5-.5c.783 0 1.427.126 1.875.485.044.035.086.072.125.11.039-.038.08-.075.125-.11C9.573 7.626 10.217 7.5 11 7.5a.5.5 0 0 1 0 1c-.717 0-1.073.124-1.25.265-.147.118-.25.315-.25.735v3c0 .42.103.617.25.735.177.141.533.265 1.25.265a.5.5 0 0 1 0 1c-.783 0-1.427-.126-1.875-.485a1.59 1.59 0 0 1-.125-.11c-.039.038-.08.075-.125.11-.448.359-1.092.485-1.875.485a.5.5 0 0 1 0-1c.717 0 1.073-.124 1.25-.265.147-.118.25-.315.25-.735v-3c0-.42-.103-.617-.25-.735C8.073 8.624 7.717 8.5 7 8.5a.5.5 0 0 1-.5-.5Z"/></svg>