<svg xmlns="http://www.w3.org/2000/svg" width="32" height="32" viewBox="0 0 32 32"><path d="M2 6a3 3 0 0 1 3-3h22a3 3 0 0 1 3 3v20a3 3 0 0 1-3 3H5a3 3 0 0 1-3-3zm3-1a1 1 0 0 0-1 1v20a1 1 0 0 0 1 1h22a1 1 0 0 0 1-1V6a1 1 0 0 0-1-1zm1 3a1 1 0 0 1 1-1c.732 0 1.44.102 2 .46.56-.358 1.268-.46 2-.46a1 1 0 1 1 0 2c-.683 0-.897.123-.938.156-.007.006-.014.01-.024.039A.9.9 0 0 0 10 9.5v3c0 .172.022.264.038.305.01.028.017.033.023.038l.001.001c.041.033.255.156.938.156a1 1 0 1 1 0 2c-.732 0-1.44-.102-2-.46-.56.358-1.268.46-2 .46a1 1 0 1 1 0-2c.683 0 .897-.123.938-.156.007-.006.014-.01.024-.039A.9.9 0 0 0 8 12.5v-3a.9.9 0 0 0-.038-.305c-.01-.028-.017-.033-.023-.038l-.001-.001C7.897 9.123 7.683 9 7 9a1 1 0 0 1-1-1"/></svg>