<svg xmlns="http://www.w3.org/2000/svg" width="32" height="32" viewBox="0 0 32 32"><path d="M2.25 6A2.75 2.75 0 0 1 5 3.25h22A2.75 2.75 0 0 1 29.75 6v20A2.75 2.75 0 0 1 27 28.75H5A2.75 2.75 0 0 1 2.25 26zM5 4.75c-.69 0-1.25.56-1.25 1.25v20c0 .69.56 1.25 1.25 1.25h22c.69 0 1.25-.56 1.25-1.25V6c0-.69-.56-1.25-1.25-1.25zM6.25 8A.75.75 0 0 1 7 7.25c.784 0 1.487.122 2 .515.513-.393 1.216-.515 2-.515a.75.75 0 0 1 0 1.5c-.7 0-.985.123-1.094.21-.065.052-.156.16-.156.54v3c0 .38.091.488.156.54.109.087.394.21 1.094.21a.75.75 0 0 1 0 1.5c-.784 0-1.487-.121-2-.515-.513.394-1.216.515-2 .515a.75.75 0 0 1 0-1.5c.7 0 .985-.123 1.094-.21.065-.052.156-.16.156-.54v-3c0-.38-.091-.488-.156-.54C7.985 8.874 7.7 8.75 7 8.75A.75.75 0 0 1 6.25 8"/></svg>