<svg xmlns="http://www.w3.org/2000/svg" width="32" height="32" viewBox="0 0 32 32"><path d="M3.354 2.646a.5.5 0 1 0-.708.708l26 26a.5.5 0 0 0 .708-.708l-5.523-5.522q.166-.8.167-1.628v-5.218L24 14.643c0-1.2 0-2.461-.004-2.654-.01-.469-.16-.83-.353-1.04l-.01-.01a1.26 1.26 0 0 0-.446-.326c-.273-.117-.613-.146-1.031-.042a2.35 2.35 0 0 0-1.157.661V5.5a2 2 0 0 0-3.111-1.662 2 2 0 0 0-3.773 0A1.999 1.999 0 0 0 11.003 5.5v1.267a2 2 0 0 0-2.755.774zM9.02 8.313a1.01 1.01 0 0 1 .984-.814 1 1 0 0 1 1 1v1.797zm2.983 2.983V5.5a1 1 0 0 1 1.999 0v7.498a.5.5 0 1 0 1 0V4.5A1 1 0 1 1 17 4.5v8.498a.5.5 0 0 0 1 0V5.5a1 1 0 0 1 1.998 0v11.037a4.5 4.5 0 0 0-2.012.743zm6.709 6.708a3.5 3.5 0 0 1 1.789-.497.5.5 0 0 0 .498-.5v-2.44c0-.883.128-1.603.371-2.12.237-.501.572-.796 1.022-.904l.003-.001c.249-.062.361-.026.4-.01.041.018.06.038.108.09l.005.006v.001c.01.014.083.126.088.379.004.18.004 1.424.004 2.635l-.001 1.634v5.22q-.001.379-.041.753zM8.002 10.119l1 1L9 15.495v4.1l.001.28v.08l.001.026v1.516c0 1.856.74 3.64 2.052 4.953a6.996 6.996 0 0 0 11.288-1.991l.746.746a7.99 7.99 0 0 1-7.087 4.295 8 8 0 0 1-5.655-2.343 8.01 8.01 0 0 1-2.344-5.66V20c-.003-.258-.002-3.859 0-7.227zM16.001 21.005c.003-.804.22-1.585.62-2.267l.738.738A3.5 3.5 0 0 0 17 21.008a.5.5 0 1 1-1-.003"/></svg>