<svg xmlns="http://www.w3.org/2000/svg" width="32" height="32" viewBox="0 0 32 32"><path fill-rule="evenodd" d="m16.88 17.94-.002.003 1.066 1.066.002-.003 4.497 4.498v.003l1.169 1.17v-.003l4.858 4.856a.75.75 0 1 0 1.06-1.06l-5.428-5.428a8.264 8.264 0 0 0 .146-1.546v-5.218l.002-1.635c0-1.199 0-2.463-.004-2.66-.01-.515-.176-.939-.42-1.203l-.01-.01c-.053-.06-.232-.26-.531-.387-.331-.141-.728-.17-1.189-.055-.318.077-.6.203-.847.37V5.5a2.25 2.25 0 0 0-3.242-2.019 2.25 2.25 0 0 0-4.011 0A2.249 2.249 0 0 0 10.753 5.5v.878a2.248 2.248 0 0 0-2.546.768L3.53 2.47a.75.75 0 0 0-1.06 1.06l5.282 5.283v.004l1.5 1.5v-.004l1.501 1.5v.005l1.5 1.5v-.004l4.627 4.627ZM16 3.75a.75.75 0 0 0-.75.75v8.498a.75.75 0 0 1-.489.704l3.26 3.259a4.762 4.762 0 0 1 1.727-.642V5.499a.75.75 0 1 0-1.498 0V13a.75.75 0 0 1-1.5 0v-8.5A.75.75 0 0 0 16 3.75Zm-3.748 7.443 1.499 1.498V5.5a.75.75 0 1 0-1.499 0v5.693Zm-1.5-1.5V8.498a.75.75 0 0 0-1.453-.26l1.453 1.453Zm11.992 11.992a6.95 6.95 0 0 0 .003-.189v-5.22l.002-1.633c0-1.213 0-2.453-.004-2.63a.692.692 0 0 0-.041-.237l-.014-.015a.723.723 0 0 0-.235.023l-.005.002c-.362.087-.644.32-.855.768-.222.47-.347 1.15-.347 2.014v2.44a.75.75 0 0 1-.747.75c-.48 0-.949.108-1.375.308l3.619 3.619Z" clip-rule="evenodd"/><path d="m9.251 12.437-1.5-1.5v1.789c-.001 3.35-.002 6.95.001 7.272v1.498c0 2.188.871 4.291 2.418 5.838a8.246 8.246 0 0 0 12.704-1.274l-1.087-1.088a6.746 6.746 0 0 1-10.556 1.301 6.763 6.763 0 0 1-1.979-4.777v-1.621l-.001-.28v-7.158Z"/><path d="m16.084 19.27 1.212 1.211c-.03.174-.044.35-.045.528a.75.75 0 1 1-1.5-.005c.002-.6.117-1.187.333-1.734Z"/></svg>