<svg xmlns="http://www.w3.org/2000/svg" width="32" height="32" viewBox="0 0 32 32"><path d="M16.5 28.5a7.008 7.008 0 0 1-7-7v-9.88l-1-1V21.5a7.993 7.993 0 0 0 14.904 4.023l-.73-.73A7.004 7.004 0 0 1 16.5 28.5Z"/><path d="M12 15.5a.497.497 0 0 0 .5-.5v-.38l-1-1V15a.5.5 0 0 0 .5.5ZM17.5 21.006c.004-.4.077-.796.216-1.17l-.76-.761a4.447 4.447 0 0 0-.456 1.93.5.5 0 1 0 1 0ZM29.354 28.646l-5.124-5.123c.177-.66.268-1.34.27-2.023V12a1.374 1.374 0 0 0-1.841-1.433c-.441.103-.843.33-1.159.654V5.5a1.998 1.998 0 0 0-3.112-1.661 2 2 0 0 0-3.775 0 1.999 1.999 0 0 0-3.113 1.66v1.27a1.99 1.99 0 0 0-2.898 1.126L3.354 2.646a.5.5 0 0 0-.707.707l26 26a.5.5 0 0 0 .707-.707ZM21 17.506a.5.5 0 0 0 .5-.5v-2.44c0-1.227.241-2.749 1.393-3.026a.616.616 0 0 1 .473.022.57.57 0 0 1 .134.438v9.5a6.8 6.8 0 0 1-.105 1.188l-4.467-4.468A3.425 3.425 0 0 1 21 17.506ZM13.5 4.5a1 1 0 0 1 1 1V13a.5.5 0 0 0 1 0V4.5a1 1 0 0 1 2 0V13a.5.5 0 0 0 1 0V5.5a1 1 0 0 1 2 0v11.033a4.411 4.411 0 0 0-2.288.972L12.5 11.793V5.5a1 1 0 0 1 1-1Zm-4 3.996a1 1 0 1 1 2 .005v2.292l-2-2.001v-.296Z"/></svg>