<svg xmlns="http://www.w3.org/2000/svg" width="32" height="32" viewBox="0 0 32 32"><path fill-rule="evenodd" d="M3.354 2.646a.5.5 0 1 0-.708.708l26 26a.5.5 0 0 0 .708-.708l-5.523-5.522c.11-.532.167-1.077.167-1.628v-5.218L24 14.643c0-1.2 0-2.461-.004-2.654-.01-.469-.16-.83-.353-1.04l-.01-.01a1.258 1.258 0 0 0-.446-.326c-.273-.117-.613-.146-1.031-.042a2.347 2.347 0 0 0-1.157.661V5.5a2 2 0 0 0-3.111-1.662 2 2 0 0 0-3.773 0A1.999 1.999 0 0 0 11.003 5.5v1.267a1.999 1.999 0 0 0-2.755.774L3.354 2.646ZM9.02 8.313l1.983 1.983V8.499a1 1 0 0 0-1.983-.186Zm2.983 2.983 5.984 5.984c.6-.405 1.29-.66 2.012-.744V5.5a1 1 0 1 0-1.998 0v7.498a.5.5 0 1 1-1 0V4.5a1 1 0 1 0-2 0v8.498a.5.5 0 0 1-1 0V5.5a1 1 0 1 0-1.998 0v5.796Zm6.709 6.708 4.245 4.246c.027-.249.041-.5.041-.754v-5.22L23 14.644c0-1.21 0-2.455-.004-2.635-.005-.253-.078-.365-.087-.379l-.006-.007c-.048-.052-.066-.072-.109-.09-.038-.016-.15-.052-.399.01h-.003c-.45.11-.785.404-1.022.905-.244.517-.37 1.237-.37 2.12v2.44a.5.5 0 0 1-.499.5 3.51 3.51 0 0 0-1.79.497Z" clip-rule="evenodd"/><path d="m8.002 10.119 1 1L9 15.495a6324.413 6324.413 0 0 0 0 4.1l.001.28v.08l.001.026v1.516c0 1.856.74 3.64 2.052 4.953a6.996 6.996 0 0 0 11.288-1.991l.746.746a7.99 7.99 0 0 1-7.087 4.295 7.996 7.996 0 0 1-5.655-2.343 8.013 8.013 0 0 1-2.344-5.66V20c-.003-.258-.002-3.859 0-7.227v-2.654Z"/><path d="M16.001 21.005c.003-.804.22-1.585.62-2.267l.738.738A3.513 3.513 0 0 0 17 21.008a.5.5 0 1 1-1-.003Z"/></svg>