<svg xmlns="http://www.w3.org/2000/svg" width="32" height="32" viewBox="0 0 32 32"><path d="m16.88 17.94-.002.003 1.066 1.066.002-.003 4.497 4.498v.003l1.169 1.17v-.003l4.858 4.856a.75.75 0 1 0 1.06-1.06l-5.428-5.428a8.3 8.3 0 0 0 .146-1.546v-5.218l.002-1.635c0-1.199 0-2.463-.004-2.66-.01-.515-.176-.939-.42-1.203l-.01-.01c-.053-.06-.232-.26-.531-.387-.331-.141-.728-.17-1.189-.055q-.477.117-.847.37V5.5a2.25 2.25 0 0 0-3.242-2.019 2.25 2.25 0 0 0-4.011 0A2.25 2.25 0 0 0 10.753 5.5v.878a2.25 2.25 0 0 0-2.546.768L3.53 2.47a.75.75 0 0 0-1.06 1.06l5.282 5.283v.004l1.5 1.5v-.004l1.501 1.5v.005l1.5 1.5v-.004zM16 3.75a.75.75 0 0 1 .75.75v8.498a.75.75 0 0 0 1.5 0V5.5a.75.75 0 1 1 1.498 0v10.819c-.613.1-1.2.318-1.727.642l-3.26-3.26a.75.75 0 0 0 .49-.703V4.5a.75.75 0 0 1 .75-.75m-3.748 7.443V5.5a.75.75 0 1 1 1.499 0v7.191zm-1.5-1.5L9.3 8.238a.75.75 0 0 1 1.453.26zm11.993 11.992-3.62-3.619c.427-.2.896-.307 1.376-.309a.75.75 0 0 0 .747-.75v-2.44c0-.864.125-1.543.347-2.013.211-.448.493-.681.855-.768l.005-.002a.7.7 0 0 1 .235-.023l.014.015.008.02a.7.7 0 0 1 .033.217c.003.177.004 1.417.004 2.63l-.001 1.634v5.22zM9.251 12.437l-1.5-1.5v1.789c-.001 3.35-.002 6.95.001 7.272v1.498c0 2.188.871 4.291 2.418 5.838a8.246 8.246 0 0 0 12.704-1.274l-1.087-1.088a6.746 6.746 0 0 1-10.556 1.301 6.76 6.76 0 0 1-1.979-4.777v-1.621l-.001-.28v-7.158M16.084 19.27l1.212 1.211q-.044.261-.045.528a.75.75 0 1 1-1.5-.005c.002-.6.117-1.187.333-1.734"/></svg>