<svg xmlns="http://www.w3.org/2000/svg" width="32" height="32" viewBox="0 0 32 32"><path fill-rule="evenodd" d="M24.372 22.957c.083-.479.126-.968.126-1.46v-5.219l.002-1.635c0-1.196 0-2.464-.004-2.664-.011-.563-.192-1.05-.486-1.368l-.009-.01c-.055-.062-.266-.298-.618-.448-.39-.166-.843-.192-1.346-.068-.191.046-.37.11-.538.186V5.5a2.5 2.5 0 0 0-3.386-2.337 2.5 2.5 0 0 0-4.223 0A2.499 2.499 0 0 0 10.502 5.5v.55a2.499 2.499 0 0 0-2.311.727L3.707 2.293a1 1 0 0 0-1.414 1.414l26 26a1 1 0 0 0 1.414-1.414l-5.335-5.335ZM16.002 4a.5.5 0 0 0-.5.5v8.498a.998.998 0 0 1-.34.75l2.9 2.9a5.013 5.013 0 0 1 1.437-.537V5.5a.5.5 0 1 0-.998 0v7.498a1 1 0 1 1-2 0V4.5A.5.5 0 0 0 16 4Zm3.57 14.158 2.926 2.926v-4.808l.002-1.633c0-1.186 0-2.393-.004-2.611-.268.068-.491.241-.673.628-.2.425-.324 1.062-.324 1.908v2.44a1 1 0 0 1-.996 1c-.32 0-.633.052-.93.15ZM9.608 8.194l.895.895v-.59a.5.5 0 0 0-.895-.305Zm2.895 2.895.999.999V5.5a.5.5 0 1 0-.999 0v5.589Z" clip-rule="evenodd"/><path d="m9.5 13.665-1.999-2v1.059c-.001 3.324-.002 6.898.001 7.273v1.5a8.496 8.496 0 0 0 15.138 5.308l-1.425-1.426A6.486 6.486 0 0 1 16 28a6.496 6.496 0 0 1-4.594-1.903 6.513 6.513 0 0 1-1.905-4.6v-1.623l-.001-.28v-5.929Z"/><path d="m15.648 19.813 1.71 1.71a1 1 0 0 1-1.857-.52c.001-.404.052-.804.147-1.19Z"/></svg>