<svg xmlns="http://www.w3.org/2000/svg" width="32" height="32" viewBox="0 0 32 32"><path d="M20.662 26.182A6.716 6.716 0 0 1 16.004 28h-.006a6.394 6.394 0 0 1-6.51-6.046c-.006-.227-.042-8.266-.042-8.266l-1.999-1.999s.035 10.087.042 10.338A8.305 8.305 0 0 0 16.017 30h.007a8.692 8.692 0 0 0 6.013-2.366c.232-.22.45-.455.654-.701l-1.423-1.423a6.328 6.328 0 0 1-.606.672Z"/><path d="M16.91 23.205a3.345 3.345 0 0 1 .407-1.646l-1.437-1.437a5.202 5.202 0 0 0-.97 3.083 1 1 0 1 0 2 0ZM29.707 28.293l-5.251-5.252c.065-.393.1-.79.103-1.188V13.74a1.964 1.964 0 0 0-.91-1.64 2.395 2.395 0 0 0-1.23-.4V6.138a2.978 2.978 0 0 0-.851-2.104 2.497 2.497 0 0 0-1.769-.746c-.325.014-.646.08-.95.194a2.824 2.824 0 0 0-.53-.735A2.465 2.465 0 0 0 16.542 2a2.57 2.57 0 0 0-2.144 1.232 2.443 2.443 0 0 0-1.08-.252h-.01A2.688 2.688 0 0 0 10.763 5.2a2.215 2.215 0 0 0-.704-.102 2.577 2.577 0 0 0-2.204 1.344L3.707 2.293a1 1 0 1 0-1.414 1.414l26 26a1 1 0 0 0 1.414-1.414Zm-7.55-14.567a.603.603 0 0 1 .402.013v7.405l-2.199-2.198a.96.96 0 0 0 .023-.134l.006-2.703a2.449 2.449 0 0 1 1.768-2.383Zm-6.225-.509V4.85c0-.46.283-.85.617-.85h.002a.516.516 0 0 1 .358.163.972.972 0 0 1 .261.688l.01 7.435a1 1 0 0 0 2-.001V6.137c0-.46.283-.85.617-.85h.002a.516.516 0 0 1 .358.163.971.971 0 0 1 .261.687v6.247a4.268 4.268 0 0 0-2.029 3.725l-.002.864-2.928-2.928a.983.983 0 0 0 .473-.828ZM13.315 4.98h.002a.514.514 0 0 1 .358.163.94.94 0 0 1 .257.581v6.793l-1.241-1.241.008-5.445c0-.46.282-.85.616-.85ZM9.449 8.035v-.087c0-.46.284-.85.618-.85h.002a.516.516 0 0 1 .357.163.97.97 0 0 1 .262.687v1.325L9.449 8.035Z"/></svg>