<svg xmlns="http://www.w3.org/2000/svg" width="32" height="32" viewBox="0 0 32 32"><path d="M24.372 22.957c.083-.479.126-.968.126-1.46v-5.219l.002-1.635c0-1.196 0-2.464-.004-2.664-.011-.563-.192-1.05-.486-1.368l-.009-.01c-.055-.062-.266-.298-.618-.448-.39-.166-.843-.192-1.346-.068-.191.046-.37.11-.538.186V5.5a2.5 2.5 0 0 0-3.386-2.337 2.5 2.5 0 0 0-4.223 0A2.499 2.499 0 0 0 10.502 5.5v.55a2.499 2.499 0 0 0-2.311.727L3.707 2.293a1 1 0 0 0-1.414 1.414l26 26a1 1 0 0 0 1.414-1.414l-5.335-5.335ZM16.002 4a.5.5 0 0 1 .499.5v8.498a1 1 0 1 0 2 0V5.5a.5.5 0 0 1 .998 0v10.61c-.504.105-.99.286-1.437.538l-2.9-2.9a.998.998 0 0 0 .34-.75V4.5a.5.5 0 0 1 .5-.5Zm3.57 14.158c.298-.098.611-.15.93-.15a1 1 0 0 0 .997-1v-2.44c0-.846.123-1.483.324-1.908.182-.387.405-.56.673-.628.003.218.004 1.425.004 2.61l-.001 1.634v4.808l-2.927-2.926ZM9.608 8.194a.5.5 0 0 1 .895.305v.59l-.895-.895Zm2.895 2.895v-5.59a.5.5 0 1 1 .999 0v6.589l-.999-1ZM9.5 13.665l-1.999-2v1.059c-.001 3.324-.002 6.898.001 7.273v1.5a8.496 8.496 0 0 0 15.138 5.308l-1.425-1.426A6.486 6.486 0 0 1 16 28a6.496 6.496 0 0 1-4.594-1.903 6.513 6.513 0 0 1-1.905-4.6v-1.623l-.001-.28v-5.929Z"/><path d="m15.648 19.813 1.71 1.71a1 1 0 0 1-1.857-.52c.001-.404.052-.804.147-1.19Z"/></svg>