<svg xmlns="http://www.w3.org/2000/svg" width="32" height="32" viewBox="0 0 32 32"><path d="M16.5 28.25a6.758 6.758 0 0 1-6.75-6.75v-8.57l-1.5-1.5V21.5a8.24 8.24 0 0 0 14.914 4.844l-1.07-1.07A6.75 6.75 0 0 1 16.5 28.25Z"/><path d="M17.75 21.006c0-.024.007-.045.007-.068l-1.29-1.29c-.138.44-.211.897-.217 1.358a.75.75 0 1 0 1.5 0ZM29.53 28.47l-5.023-5.024a8.09 8.09 0 0 0 .243-1.946V12a1.621 1.621 0 0 0-2.15-1.676c-.303.073-.59.2-.85.374V5.5a2.25 2.25 0 0 0-3.244-2.019 2.249 2.249 0 0 0-4.011 0A2.25 2.25 0 0 0 11.25 5.5v.879a2.236 2.236 0 0 0-2.733 1.077L3.531 2.469A.75.75 0 0 0 2.47 3.53l26 26a.75.75 0 1 0 1.06-1.06Zm-7.78-11.464v-2.44c0-1.139.208-2.544 1.201-2.784a.885.885 0 0 1 .207-.027c.029 0 .042.002.05 0 .034.077.049.161.042.245v9.5c0 .218-.012.437-.034.655l-3.91-3.91a3.191 3.191 0 0 1 1.694-.49.75.75 0 0 0 .75-.75ZM15 13.75a.75.75 0 0 0 .75-.75V4.5a.75.75 0 1 1 1.5 0V13a.75.75 0 0 0 1.5 0V5.5a.75.75 0 1 1 1.5 0v10.815c-.729.123-1.418.42-2.009.865l-3.478-3.478a.734.734 0 0 0 .237.048Zm-1.5-9a.752.752 0 0 1 .75.75V13a.732.732 0 0 0 .048.237L12.75 11.69V5.5a.751.751 0 0 1 .75-.75ZM9.75 8.496a.75.75 0 0 1 1.5.005v1.688l-1.5-1.5v-.193Z"/></svg>