<svg xmlns="http://www.w3.org/2000/svg" width="32" height="32" viewBox="0 0 32 32"><path d="M11 2.5a1 1 0 0 1 1 1V5h1.5a1 1 0 1 1 0 2H12v1.5a1 1 0 1 1-2 0V7H8.5a1 1 0 0 1 0-2H10V3.5a1 1 0 0 1 1-1m12.757 1.003a4.75 4.75 0 0 1 4.382 2.925 4.74 4.74 0 0 1-1.028 5.168L10.647 28.061a1.5 1.5 0 0 1-1.062.44H5A1.5 1.5 0 0 1 3.5 27v-4.586a1.49 1.49 0 0 1 .44-1.062L20.405 4.89a4.75 4.75 0 0 1 3.353-1.386M25 21a1 1 0 0 1 1 1v2h2a1 1 0 1 1 0 2h-2v2a1 1 0 1 1-2 0v-2h-2a1 1 0 1 1 0-2h2v-2a1 1 0 0 1 1-1M6 11a1 1 0 1 0-2 0v1H3a1 1 0 1 0 0 2h1v1a1 1 0 1 0 2 0v-1h1a1 1 0 1 0 0-2H6z"/></svg>