<svg xmlns="http://www.w3.org/2000/svg" width="32" height="32" viewBox="0 0 32 32"><path d="M11 2.75a.75.75 0 0 1 .75.75v1.75h1.75a.75.75 0 0 1 0 1.5h-1.75V8.5a.75.75 0 0 1-1.5 0V6.75H8.5a.75.75 0 0 1 0-1.5h1.75V3.5a.75.75 0 0 1 .75-.75m14.668.88c.606.251 1.156.619 1.62 1.082a5 5 0 0 1 0 7.06L10.823 28.238a1.74 1.74 0 0 1-1.237.513H5A1.75 1.75 0 0 1 3.25 27v-4.586a1.74 1.74 0 0 1 .513-1.237L20.227 4.712a4.99 4.99 0 0 1 5.441-1.082M9.763 27.177l16.464-16.465a3.492 3.492 0 1 0-4.939-4.94L4.823 22.238a.25.25 0 0 0-.073.177V27a.25.25 0 0 0 .25.25h4.586a.25.25 0 0 0 .177-.073M25.75 22a.75.75 0 0 0-1.5 0v2.25H22a.75.75 0 0 0 0 1.5h2.25V28a.75.75 0 0 0 1.5 0v-2.25H28a.75.75 0 0 0 0-1.5h-2.25zM5 10.25a.75.75 0 0 1 .75.75v1.25H7a.75.75 0 0 1 0 1.5H5.75V15a.75.75 0 0 1-1.5 0v-1.25H3a.75.75 0 0 1 0-1.5h1.25V11a.75.75 0 0 1 .75-.75"/></svg>