<svg xmlns="http://www.w3.org/2000/svg" width="32" height="32" viewBox="0 0 32 32"><path d="M11 2.5a1 1 0 0 1 1 1V5h1.5a1 1 0 1 1 0 2H12v1.5a1 1 0 1 1-2 0V7H8.5a1 1 0 0 1 0-2H10V3.5a1 1 0 0 1 1-1m14.764.9c.636.263 1.214.649 1.7 1.136a5.25 5.25 0 0 1 0 7.414L11 28.414A1.99 1.99 0 0 1 9.586 29H5a2.003 2.003 0 0 1-2-2v-4.586A1.99 1.99 0 0 1 3.586 21L20.05 4.536a5.24 5.24 0 0 1 5.713-1.137M9.586 27 26.05 10.536a3.243 3.243 0 0 0-4.586-4.586L5 22.414V27zM25 21a1 1 0 0 1 1 1v2h2a1 1 0 1 1 0 2h-2v2a1 1 0 1 1-2 0v-2h-2a1 1 0 1 1 0-2h2v-2a1 1 0 0 1 1-1M6 11a1 1 0 1 0-2 0v1H3a1 1 0 1 0 0 2h1v1a1 1 0 1 0 2 0v-1h1a1 1 0 1 0 0-2H6z"/></svg>