<svg xmlns="http://www.w3.org/2000/svg" width="32" height="32" viewBox="0 0 32 32"><path d="M11 3a.5.5 0 0 1 .5.5v2h2a.5.5 0 0 1 0 1h-2v2a.5.5 0 0 1-1 0v-2h-2a.5.5 0 0 1 0-1h2v-2A.5.5 0 0 1 11 3m14.573.861a4.743 4.743 0 0 1 1.538 7.735L10.646 28.06a1.5 1.5 0 0 1-1.06.44H5A1.5 1.5 0 0 1 3.5 27v-4.586a1.5 1.5 0 0 1 .44-1.06L20.403 4.889a4.74 4.74 0 0 1 5.169-1.028M9.939 27.354l16.465-16.465a3.743 3.743 0 0 0-5.293-5.293L4.647 22.061a.5.5 0 0 0-.147.353V27a.5.5 0 0 0 .5.5h4.586a.5.5 0 0 0 .353-.146M25.5 22a.5.5 0 0 0-1 0v2.5H22a.5.5 0 0 0 0 1h2.5V28a.5.5 0 0 0 1 0v-2.5H28a.5.5 0 0 0 0-1h-2.5zM5 10.5a.5.5 0 0 1 .5.5v1.5H7a.5.5 0 0 1 0 1H5.5V15a.5.5 0 0 1-1 0v-1.5H3a.5.5 0 0 1 0-1h1.5V11a.5.5 0 0 1 .5-.5"/></svg>