<svg xmlns="http://www.w3.org/2000/svg" width="32" height="32" viewBox="0 0 32 32"><path d="M25 11a4 4 0 1 0 0-8 4 4 0 0 0 0 8Z"/><path d="M28.82 13.835a1 1 0 0 0-1.972.33 11.005 11.005 0 0 1-16.001 11.557 1 1 0 0 0-1.05.067 6.62 6.62 0 0 1-5.135 1.086 7.22 7.22 0 0 0 2.496-3.567 1.002 1.002 0 0 0-.122-.931A11.001 11.001 0 0 1 17.835 5.152a1 1 0 0 0 .33-1.972 13.002 13.002 0 0 0-13.069 19.9 4.705 4.705 0 0 1-2.071 2.483 7.149 7.149 0 0 0-.416.277 1.475 1.475 0 0 0-.6 1.355 1.51 1.51 0 0 0 .875 1.213c.98.406 2.032.608 3.093.594a8.517 8.517 0 0 0 4.468-1.246 13.006 13.006 0 0 0 18.376-13.92Z"/></svg>