<svg xmlns="http://www.w3.org/2000/svg" width="32" height="32" viewBox="0 0 32 32"><path d="m22.47 19.47-.72.72V10a.75.75 0 0 0-1.306-.504L16 14.396l-4.444-4.9A.75.75 0 0 0 10.25 10v10a.75.75 0 1 0 1.5 0v-8.057l3.694 4.073a.777.777 0 0 0 1.112 0l3.694-4.073v8.246l-.72-.719a.751.751 0 0 0-1.23.817.8.8 0 0 0 .17.244l2.001 2a.75.75 0 0 0 1.06 0l2-2a.75.75 0 0 0-1.061-1.061M23 4.25H9A4.755 4.755 0 0 0 4.25 9v14A4.755 4.755 0 0 0 9 27.75h14A4.755 4.755 0 0 0 27.75 23V9A4.756 4.756 0 0 0 23 4.25M26.25 23A3.254 3.254 0 0 1 23 26.25H9A3.254 3.254 0 0 1 5.75 23V9A3.254 3.254 0 0 1 9 5.75h14A3.254 3.254 0 0 1 26.25 9z"/></svg>