<svg xmlns="http://www.w3.org/2000/svg" width="32" height="32" viewBox="0 0 32 32"><path d="M25 10.5a3.5 3.5 0 1 0 0-7 3.5 3.5 0 0 0 0 7M28.575 13.877a.75.75 0 1 0-1.48.247q.155.931.155 1.876a11.255 11.255 0 0 1-16.521 9.942.75.75 0 0 0-.787.05 6.89 6.89 0 0 1-5.883.988 6.73 6.73 0 0 0 2.865-3.76.75.75 0 0 0-.092-.698A11.251 11.251 0 0 1 17.876 4.906a.75.75 0 1 0 .248-1.48A12.76 12.76 0 0 0 3.25 16a12.66 12.66 0 0 0 2.128 7.054 5.05 5.05 0 0 1-2.22 2.72c-.149.095-.283.18-.402.267a1.23 1.23 0 0 0-.5 1.127 1.24 1.24 0 0 0 .73 1.012 7.55 7.55 0 0 0 2.99.573 8.27 8.27 0 0 0 4.454-1.281 12.756 12.756 0 0 0 18.145-13.596"/></svg>