<svg xmlns="http://www.w3.org/2000/svg" width="32" height="32" viewBox="0 0 32 32"><path d="M27.359 5.984 26.01 4.636a4.71 4.71 0 0 0-3.352-1.39h-.003a4.7 4.7 0 0 0-3.35 1.388L5.76 18.18a1.73 1.73 0 0 0-.51 1.235v2.172c0 .046.01.09.013.135L3.78 23.168a1.76 1.76 0 0 0-.529 1.254V27A1.75 1.75 0 0 0 5 28.75h2.57a1.76 1.76 0 0 0 1.27-.544l1.4-1.473c.058.006.114.017.174.017h2.172a1.76 1.76 0 0 0 1.237-.513l13.536-13.535a4.75 4.75 0 0 0 0-6.718M7.754 27.171a.25.25 0 0 1-.183.079H5a.25.25 0 0 1-.25-.25v-2.578a.25.25 0 0 1 .075-.18l1.196-1.16 2.882 2.88zm18.544-15.53L12.763 25.177a.25.25 0 0 1-.177.073h-2.172a.25.25 0 0 1-.176-.073l-3.415-3.414a.25.25 0 0 1-.073-.177v-2.172a.24.24 0 0 1 .07-.174L20.365 5.695a3.22 3.22 0 0 1 2.29-.949h.002a3.22 3.22 0 0 1 2.292.95l1.349 1.349a3.253 3.253 0 0 1 0 4.596"/></svg>