<svg xmlns="http://www.w3.org/2000/svg" width="32" height="32" viewBox="0 0 32 32"><path d="m27.182 6.161-1.349-1.348a4.463 4.463 0 0 0-3.175-1.317h-.003a4.46 4.46 0 0 0-3.173 1.315L5.937 18.356a1.487 1.487 0 0 0-.437 1.058v2.172c.002.078.01.155.023.232l-1.57 1.53a1.506 1.506 0 0 0-.453 1.074V27A1.502 1.502 0 0 0 5 28.5h2.57a1.513 1.513 0 0 0 1.088-.466l1.484-1.56c.09.016.18.025.272.026h2.172a1.51 1.51 0 0 0 1.06-.44l13.536-13.535a4.505 4.505 0 0 0 0-6.364ZM7.935 27.344a.507.507 0 0 1-.364.156H5a.5.5 0 0 1-.5-.5v-2.578a.504.504 0 0 1 .15-.359l1.37-1.335 3.23 3.23-1.315 1.386Zm18.54-15.526L12.94 25.353a.501.501 0 0 1-.354.147h-2.172a.499.499 0 0 1-.353-.147L6.647 21.94a.505.505 0 0 1-.147-.353v-2.172a.492.492 0 0 1 .144-.351L20.189 5.518a3.466 3.466 0 0 1 2.466-1.022h.002a3.47 3.47 0 0 1 2.47 1.024l1.348 1.348a3.505 3.505 0 0 1 0 4.95Z"/></svg>