<svg xmlns="http://www.w3.org/2000/svg" width="32" height="32" viewBox="0 0 32 32"><path d="m27.535 5.808-1.348-1.349a4.96 4.96 0 0 0-3.529-1.463h-.003a4.957 4.957 0 0 0-3.527 1.461L5.583 18.002A1.983 1.983 0 0 0 5 19.414v2.172c0 .013.003.025.004.038l-1.4 1.365A2.011 2.011 0 0 0 3 24.422V27a2.003 2.003 0 0 0 2 2h2.57a2.011 2.011 0 0 0 1.45-.622l1.317-1.386c.026.002.05.008.077.008h2.171A2.013 2.013 0 0 0 14 26.414l13.535-13.535a5 5 0 0 0 0-7.071ZM7.57 27 5 27.001v-2.58l1.017-.991 2.536 2.536L7.57 27Zm18.551-15.535L12.586 25h-2.172L7 21.586l-.003-2.17L20.542 5.872a2.97 2.97 0 0 1 2.113-.876h.002a2.975 2.975 0 0 1 2.116.877l1.348 1.349a3.003 3.003 0 0 1 0 4.243Z"/></svg>