<svg xmlns="http://www.w3.org/2000/svg" width="32" height="32" viewBox="0 0 32 32"><path d="M25 10.5a3.5 3.5 0 1 0 0-7 3.5 3.5 0 0 0 0 7Z"/><path d="M28.575 13.877a.75.75 0 1 0-1.48.247 11.255 11.255 0 0 1-16.366 11.818.748.748 0 0 0-.787.05 6.888 6.888 0 0 1-5.883.988 6.734 6.734 0 0 0 2.865-3.76.75.75 0 0 0-.092-.698A11.251 11.251 0 0 1 17.876 4.906a.75.75 0 1 0 .248-1.48A12.76 12.76 0 0 0 3.25 16a12.657 12.657 0 0 0 2.128 7.054 5.05 5.05 0 0 1-2.22 2.72c-.149.095-.283.18-.402.267a1.228 1.228 0 0 0-.5 1.127 1.243 1.243 0 0 0 .73 1.012 7.547 7.547 0 0 0 2.99.573 8.272 8.272 0 0 0 4.454-1.281 12.756 12.756 0 0 0 18.145-13.596Z"/></svg>