<svg xmlns="http://www.w3.org/2000/svg" width="32" height="32" viewBox="0 0 32 32"><path d="m22.293 19.293-.293.294V10a1 1 0 0 0-1.74-.672L16 14.024l-4.26-4.696A1 1 0 0 0 10 10v10a1 1 0 0 0 2 0v-7.409l3.26 3.593a1.03 1.03 0 0 0 1.48 0L20 12.591v6.995l-.293-.293a1 1 0 1 0-1.414 1.414l2 2a1 1 0 0 0 1.415 0l1.999-2a1 1 0 0 0-1.414-1.414M23 4H9a5.006 5.006 0 0 0-5 5v14a5.006 5.006 0 0 0 5 5h14a5.006 5.006 0 0 0 5-5V9a5.006 5.006 0 0 0-5-5m3 19a3.004 3.004 0 0 1-3 3H9a3.003 3.003 0 0 1-3-3V9a3.003 3.003 0 0 1 3-3h14a3.003 3.003 0 0 1 3 3z"/></svg>