<svg xmlns="http://www.w3.org/2000/svg" width="32" height="32" viewBox="0 0 32 32"><path d="m27.182 6.161-1.349-1.348a4.46 4.46 0 0 0-3.175-1.317h-.003a4.46 4.46 0 0 0-3.173 1.315L5.937 18.356a1.49 1.49 0 0 0-.437 1.058v2.172q.003.117.023.232l-1.57 1.53a1.5 1.5 0 0 0-.453 1.074V27A1.5 1.5 0 0 0 5 28.5h2.57a1.51 1.51 0 0 0 1.088-.466l1.484-1.56q.134.024.272.026h2.172a1.5 1.5 0 0 0 1.06-.44l13.536-13.535a4.505 4.505 0 0 0 0-6.364M7.935 27.344a.5.5 0 0 1-.364.156H5a.5.5 0 0 1-.5-.5v-2.578a.5.5 0 0 1 .15-.359l1.37-1.335 3.23 3.23zm18.54-15.526L12.94 25.353a.5.5 0 0 1-.354.147h-2.172a.5.5 0 0 1-.353-.147L6.647 21.94a.5.5 0 0 1-.147-.353v-2.172a.5.5 0 0 1 .144-.351L20.189 5.518a3.47 3.47 0 0 1 2.467-1.022h.001a3.47 3.47 0 0 1 2.47 1.024l1.348 1.348a3.505 3.505 0 0 1 0 4.95"/></svg>