<svg xmlns="http://www.w3.org/2000/svg" width="32" height="32" viewBox="0 0 32 32"><path d="M25 10a3 3 0 1 0 0-6 3 3 0 0 0 0 6M28.328 13.918a.5.5 0 0 0-.987.164q.159.952.159 1.918a11.506 11.506 0 0 1-16.888 10.163.5.5 0 0 0-.525.033 7.11 7.11 0 0 1-6.59.853c.096-.071.207-.14.329-.217a6.42 6.42 0 0 0 2.865-3.7.5.5 0 0 0-.062-.465A11.5 11.5 0 0 1 17.917 4.659a.5.5 0 0 0 .166-.986A12.51 12.51 0 0 0 3.5 16a12.4 12.4 0 0 0 2.16 7.025 5.33 5.33 0 0 1-2.368 2.961c-.143.09-.273.173-.387.257a.98.98 0 0 0-.4.9 1 1 0 0 0 .587.81 7.3 7.3 0 0 0 2.884.552 8.03 8.03 0 0 0 4.438-1.32 12.506 12.506 0 0 0 17.914-13.267"/></svg>