<svg xmlns="http://www.w3.org/2000/svg" width="32" height="32" viewBox="0 0 32 32"><path d="M22.647 19.647 21.5 20.794V10a.5.5 0 0 0-.87-.336L16 14.768l-4.63-5.104a.5.5 0 0 0-.87.336v10a.5.5 0 0 0 1 0v-8.705l4.13 4.553a.514.514 0 0 0 .74 0l4.13-4.553v9.498l-1.146-1.146a.5.5 0 0 0-.707.707l2 2a.5.5 0 0 0 .708 0l1.999-2a.5.5 0 0 0-.707-.707M23 4.5H9A4.505 4.505 0 0 0 4.5 9v14A4.505 4.505 0 0 0 9 27.5h14a4.504 4.504 0 0 0 4.5-4.5V9A4.505 4.505 0 0 0 23 4.5M26.5 23a3.504 3.504 0 0 1-3.5 3.5H9A3.504 3.504 0 0 1 5.5 23V9A3.504 3.504 0 0 1 9 5.5h14A3.504 3.504 0 0 1 26.5 9z"/></svg>