<svg xmlns="http://www.w3.org/2000/svg" width="32" height="32" viewBox="0 0 32 32"><path d="M25 10a3 3 0 1 0 0-6 3 3 0 0 0 0 6Z"/><path d="M28.328 13.918a.5.5 0 0 0-.987.164 11.506 11.506 0 0 1-16.73 12.08.503.503 0 0 0-.524.034 7.114 7.114 0 0 1-6.59.853c.096-.071.207-.14.329-.217a6.415 6.415 0 0 0 2.865-3.7.502.502 0 0 0-.062-.465A11.5 11.5 0 0 1 17.917 4.659a.5.5 0 0 0 .166-.986A12.51 12.51 0 0 0 3.5 16a12.415 12.415 0 0 0 2.16 7.025 5.329 5.329 0 0 1-2.368 2.961c-.143.09-.273.173-.387.257a.981.981 0 0 0-.4.9.996.996 0 0 0 .587.81 7.28 7.28 0 0 0 2.884.552 8.025 8.025 0 0 0 4.438-1.32 12.506 12.506 0 0 0 17.914-13.267Z"/></svg>