<svg xmlns="http://www.w3.org/2000/svg" width="32" height="32" viewBox="0 0 32 32"><path d="M11.995 10.509h-6a2.502 2.502 0 0 0-2.5 2.5v6a2.502 2.502 0 0 0 2.5 2.5h6a2.502 2.502 0 0 0 2.5-2.5v-6a2.502 2.502 0 0 0-2.5-2.5Zm1.5 8.5a1.502 1.502 0 0 1-1.5 1.5h-6a1.502 1.502 0 0 1-1.5-1.5v-6a1.502 1.502 0 0 1 1.5-1.5h6a1.502 1.502 0 0 1 1.5 1.5v6ZM25.995 3.509h-6a2.502 2.502 0 0 0-2.5 2.5v20a2.502 2.502 0 0 0 2.5 2.5h6a2.502 2.502 0 0 0 2.5-2.5v-20a2.502 2.502 0 0 0-2.5-2.5Zm1.5 22.5a1.502 1.502 0 0 1-1.5 1.5h-6a1.502 1.502 0 0 1-1.5-1.5v-20a1.502 1.502 0 0 1 1.5-1.5h6a1.502 1.502 0 0 1 1.5 1.5v20Z"/><path d="M23.354 7.646a.5.5 0 0 0-.707 0l-2 2a.502.502 0 0 0-.003.711.5.5 0 0 0 .71-.004L23 8.707l1.647 1.646a.5.5 0 0 0 .707-.707l-2-2ZM24.647 12.646l-1.646 1.647-1.647-1.647a.498.498 0 0 0-.82.16.501.501 0 0 0 .113.547l2 2a.501.501 0 0 0 .707 0l2-2a.5.5 0 0 0-.707-.707ZM24 18.5h-2a.5.5 0 0 0 0 1h2a.5.5 0 0 0 0-1ZM24 22.5h-2a.5.5 0 0 0 0 1h2a.5.5 0 0 0 0-1Z"/></svg>