<svg xmlns="http://www.w3.org/2000/svg" width="32" height="32" viewBox="0 0 32 32"><path d="M11.995 10.009h-6a3.003 3.003 0 0 0-3 3v6a3.003 3.003 0 0 0 3 3h6a3.003 3.003 0 0 0 3-3v-6a3.003 3.003 0 0 0-3-3m1 9a1 1 0 0 1-1 1h-6a1 1 0 0 1-1-1v-6a1 1 0 0 1 1-1h6a1 1 0 0 1 1 1zM25.995 3.009h-6a3.003 3.003 0 0 0-3 3v20a3.003 3.003 0 0 0 3 3h6a3.003 3.003 0 0 0 3-3v-20a3.003 3.003 0 0 0-3-3m1 23a1 1 0 0 1-1 1h-6a1 1 0 0 1-1-1v-20a1 1 0 0 1 1-1h6a1 1 0 0 1 1 1zM23.708 7.293a1 1 0 0 0-1.414 0l-2 2a1 1 0 1 0 1.413 1.414L23 9.414l1.294 1.293a1 1 0 0 0 1.414-1.414zM24.294 12.293 23 13.586l-1.293-1.293a1 1 0 1 0-1.413 1.414l2 2a1 1 0 0 0 1.413 0l2-2a1 1 0 1 0-1.413-1.414M24 18h-2a1 1 0 0 0 0 2h2a1 1 0 1 0 0-2M24 22h-2a1 1 0 0 0 0 2h2a1 1 0 1 0 0-2"/></svg>