<svg xmlns="http://www.w3.org/2000/svg" width="32" height="32" viewBox="0 0 32 32"><path d="M11.995 10.259h-6a2.753 2.753 0 0 0-2.75 2.75v6a2.753 2.753 0 0 0 2.75 2.75h6a2.753 2.753 0 0 0 2.75-2.75v-6a2.753 2.753 0 0 0-2.75-2.75m1.25 8.75a1.25 1.25 0 0 1-1.25 1.25h-6a1.25 1.25 0 0 1-1.25-1.25v-6a1.25 1.25 0 0 1 1.25-1.25h6a1.25 1.25 0 0 1 1.25 1.25zM25.995 3.259h-6a2.753 2.753 0 0 0-2.75 2.75v20a2.753 2.753 0 0 0 2.75 2.75h6a2.753 2.753 0 0 0 2.75-2.75v-20a2.753 2.753 0 0 0-2.75-2.75m1.25 22.75a1.25 1.25 0 0 1-1.25 1.25h-6a1.25 1.25 0 0 1-1.25-1.25v-20a1.25 1.25 0 0 1 1.25-1.25h6a1.25 1.25 0 0 1 1.25 1.25zM23.53 7.47a.75.75 0 0 0-1.06 0l-2 2a.751.751 0 0 0 .53 1.28.75.75 0 0 0 .53-.22L23 9.06l1.47 1.47a.75.75 0 0 0 1.06-1.06zM24.47 12.47 23 13.94l-1.47-1.47a.75.75 0 1 0-1.06 1.06l2 2a.75.75 0 0 0 1.06 0l2-2a.75.75 0 0 0-1.06-1.06M24 18.25h-2a.75.75 0 1 0 0 1.5h2a.75.75 0 1 0 0-1.5M24 22.25h-2a.75.75 0 1 0 0 1.5h2a.75.75 0 1 0 0-1.5"/></svg>