<svg xmlns="http://www.w3.org/2000/svg" width="32" height="32" viewBox="0 0 32 32"><path d="M11.995 10.509h-6a2.5 2.5 0 0 0-2.5 2.5v6a2.5 2.5 0 0 0 2.5 2.5h6a2.5 2.5 0 0 0 2.5-2.5v-6a2.5 2.5 0 0 0-2.5-2.5m1.5 8.5a1.5 1.5 0 0 1-1.5 1.5h-6a1.5 1.5 0 0 1-1.5-1.5v-6a1.5 1.5 0 0 1 1.5-1.5h6a1.5 1.5 0 0 1 1.5 1.5zM25.995 3.509h-6a2.5 2.5 0 0 0-2.5 2.5v20a2.5 2.5 0 0 0 2.5 2.5h6a2.5 2.5 0 0 0 2.5-2.5v-20a2.5 2.5 0 0 0-2.5-2.5m1.5 22.5a1.5 1.5 0 0 1-1.5 1.5h-6a1.5 1.5 0 0 1-1.5-1.5v-20a1.5 1.5 0 0 1 1.5-1.5h6a1.5 1.5 0 0 1 1.5 1.5zM23.354 7.646a.5.5 0 0 0-.707 0l-2 2a.5.5 0 0 0-.003.711.5.5 0 0 0 .71-.004L23 8.707l1.647 1.646a.5.5 0 0 0 .707-.707zM24.647 12.646l-1.646 1.647-1.647-1.647a.498.498 0 0 0-.82.16.5.5 0 0 0 .113.547l2 2a.5.5 0 0 0 .707 0l2-2a.5.5 0 0 0-.707-.707M24 18.5h-2a.5.5 0 0 0 0 1h2a.5.5 0 0 0 0-1M24 22.5h-2a.5.5 0 0 0 0 1h2a.5.5 0 0 0 0-1"/></svg>