<svg xmlns="http://www.w3.org/2000/svg" width="32" height="32" viewBox="0 0 32 32"><path d="M16.016 24.5c-4.206 0-7.5-1.067-7.5-2.429a6.734 6.734 0 0 1 5.187-6.248l-.774-.773a8.9 8.9 0 0 0-1.795.832 5.144 5.144 0 0 0-1.838-1.076 2.622 2.622 0 0 0 .895-2.494l-2.265-2.266a2.73 2.73 0 0 0-.44-.044 2.74 2.74 0 0 0-1.81 4.803 4.387 4.387 0 0 0-3.19 4.015c0 .509.305 1.21 1.757 1.664 1.055.295 2.147.436 3.243.418l.141-.002a6.747 6.747 0 0 0-.112 1.171c0 .797.494 1.907 2.845 2.672a19.04 19.04 0 0 0 5.656.757 17.25 17.25 0 0 0 6.34-1.024l-.768-.767a17.356 17.356 0 0 1-5.572.79Zm-8.53-13.498a1.75 1.75 0 1 1 0 3.5 1.75 1.75 0 0 1 0-3.5Zm.392 8.888c-.131.003-.255.012-.392.012-2.478 0-4-.63-4-1.082 0-1.83 1.794-3.318 4-3.318a4.434 4.434 0 0 1 2.826.972 7.532 7.532 0 0 0-2.434 3.416ZM24.026 23.319c.307-.345.48-.787.49-1.248a6.747 6.747 0 0 0-.114-1.176c.038 0 .075.003.113.003 2.417 0 5-.547 5-2.08a4.386 4.386 0 0 0-3.19-4.015 2.751 2.751 0 1 0-3.62 0 5.15 5.15 0 0 0-1.83 1.066 8.945 8.945 0 0 0-2.485-1.063 4.49 4.49 0 1 0-6.857-3.98l-8.18-8.18a.5.5 0 1 0-.706.707l26 26a.499.499 0 1 0 .707-.707l-5.328-5.327Zm.489-12.32a1.75 1.75 0 1 1 0 3.501 1.75 1.75 0 0 1 0-3.501Zm-2.812 5.462a4.434 4.434 0 0 1 2.812-.962c2.206 0 4 1.488 4 3.318 0 .451-1.522 1.081-4 1.081-.128 0-.241-.008-.364-.011a7.535 7.535 0 0 0-2.448-3.426Zm1.813 5.61a.965.965 0 0 1-.195.542l-7.105-7.104c4.043.094 7.3 2.998 7.3 6.562ZM12.516 11a3.5 3.5 0 1 1 3.5 3.5 3.451 3.451 0 0 1-.96-.15l-2.39-2.392a3.456 3.456 0 0 1-.15-.958Z"/></svg>