<svg xmlns="http://www.w3.org/2000/svg" width="32" height="32" viewBox="0 0 32 32"><path d="M16.015 24c-4.337 0-7-1.123-7-1.929a5.99 5.99 0 0 1 3.541-5.271l-3.858-3.86a1.235 1.235 0 0 1-1.212 1.062 1.25 1.25 0 0 1-1.25-1.25 1.235 1.235 0 0 1 1.06-1.212l-1.533-1.533a3.225 3.225 0 0 0-.939 4.6 4.77 4.77 0 0 0-2.838 4.213c0 .676.366 1.597 2.108 2.14.963.273 1.959.417 2.96.429a7 7 0 0 0-.039.682c0 .962.554 2.289 3.19 3.147 1.887.551 3.845.815 5.81.782 1.733.016 3.46-.186 5.142-.6l-1.674-1.673c-1.146.188-2.306.279-3.468.273M7.532 19.4l-.046.001a6.55 6.55 0 0 1-3.498-.675c.06-1.51 1.606-2.725 3.498-2.725a4.06 4.06 0 0 1 2.01.52 8 8 0 0 0-1.964 2.88M24.688 23.273c.215-.364.328-.78.327-1.202 0-.23-.017-.456-.038-.681 1.617-.05 5.037-.412 5.037-2.573a4.77 4.77 0 0 0-2.838-4.213 3.25 3.25 0 1 0-5.324 0q-.55.271-1.029.656a9.4 9.4 0 0 0-1.372-.646 4.99 4.99 0 1 0-8.265-4.842l-7.479-7.48a1 1 0 1 0-1.414 1.415l26 26a1 1 0 0 0 1.414-1.414zM24.514 11.5a1.25 1.25 0 1 1 0 2.498 1.25 1.25 0 0 1 0-2.498m-1.994 5.01a4.1 4.1 0 0 1 1.994-.51c1.892 0 3.437 1.214 3.498 2.725a6.56 6.56 0 0 1-3.498.674h-.017a8 8 0 0 0-1.977-2.89m.466 5.063-5.416-5.416a6.43 6.43 0 0 1 5.416 5.416M13.016 11a3.036 3.036 0 1 1 2.31 2.912l-2.224-2.224a3 3 0 0 1-.087-.688"/></svg>