<svg xmlns="http://www.w3.org/2000/svg" width="32" height="32" viewBox="0 0 32 32"><path d="M24.988 1.844a1 1 0 0 0-1.976 0c-.204 1.294-.382 2.198-.595 2.858-.208.647-.425.981-.66 1.197-.242.221-.596.406-1.243.583-.615.168-1.392.305-2.454.492l-.234.041a1 1 0 0 0 0 1.97l.234.041c1.062.187 1.84.324 2.454.492.647.177 1 .362 1.242.583.236.216.453.55.661 1.197.213.66.39 1.564.595 2.858a1 1 0 0 0 1.976 0c.204-1.294.382-2.198.595-2.858.208-.647.425-.981.66-1.197.242-.221.596-.406 1.243-.583.615-.168 1.392-.305 2.454-.492l.234-.041a1 1 0 0 0 0-1.97l-.234-.041c-1.062-.187-1.84-.324-2.454-.492-.647-.177-1-.362-1.242-.583-.236-.216-.453-.55-.661-1.197-.213-.66-.39-1.564-.595-2.858m-1.88 6.782A3.9 3.9 0 0 0 22.173 8c.339-.165.652-.367.935-.626.379-.348.664-.761.892-1.238.228.477.513.89.892 1.238.283.259.596.461.935.626a3.9 3.9 0 0 0-.935.626c-.379.348-.664.761-.892 1.238a3.95 3.95 0 0 0-.892-1.238M9 6a3 3 0 0 0-3 3v14a3 3 0 0 0 3 3h14a3 3 0 0 0 3-3v-7a1 1 0 1 1 2 0v7a5 5 0 0 1-5 5H9a5 5 0 0 1-5-5V9a5 5 0 0 1 5-5h7a1 1 0 1 1 0 2zm0 4a1 1 0 0 1 1-1h5a1 1 0 1 1 0 2h-5a1 1 0 0 1-1-1m1 4a1 1 0 1 0 0 2h11a1 1 0 1 0 0-2zm-1 6a1 1 0 0 1 1-1h5a1 1 0 1 1 0 2h-5a1 1 0 0 1-1-1"/></svg>