<svg xmlns="http://www.w3.org/2000/svg" width="32" height="32" viewBox="0 0 32 32"><path d="m18.753 13.218-.01-.011-.02-.015a1 1 0 0 0-.085-.047 3 3 0 0 0-.52-.18c-.532-.146-1.228-.27-2.318-.462l-.235-.041a2.5 2.5 0 0 1 0-4.924c.435-.077.435-.55 0-.55L7 7a4 4 0 0 0-4 4v14a4 4 0 0 0 4 4h14a4 4 0 0 0 4-4v-8.5c0-.344-.328-.344-.5 0-.5 1-1.27 2-2.5 2a2.5 2.5 0 0 1-2.47-2.11c-.204-1.292-.367-2.094-.54-2.633a2.5 2.5 0 0 0-.194-.473 1 1 0 0 0-.043-.066M25 11.672l.006-.002q.208-.077.48-.152c.615-.168 1.392-.305 2.454-.492l.234-.041a1 1 0 0 0 0-1.97l-.234-.041c-1.062-.187-1.84-.324-2.454-.492-.647-.177-1-.362-1.242-.583-.236-.216-.453-.55-.661-1.197-.213-.66-.39-1.564-.595-2.858a1 1 0 0 0-1.976 0c-.204 1.294-.382 2.198-.595 2.858q-.052.162-.104.298c-.177.457-.36.719-.557.9-.241.22-.595.405-1.242.582-.615.168-1.392.305-2.454.492l-.234.041a1 1 0 0 0 0 1.97l.234.041c1.062.187 1.84.324 2.454.492.647.177 1 .362 1.242.583.236.216.453.55.661 1.197.213.66.39 1.564.595 2.858a1 1 0 0 0 1.976 0c.204-1.294.382-2.198.595-2.858.208-.647.425-.981.66-1.197.173-.158.404-.298.757-.429M7 12a1 1 0 0 1 1-1h3a1 1 0 1 1 0 2H8a1 1 0 0 1-1-1m0 5a1 1 0 0 1 1-1h9a1 1 0 1 1 0 2H8a1 1 0 0 1-1-1m1 4h5a1 1 0 1 1 0 2H8a1 1 0 1 1 0-2"/></svg>