<svg xmlns="http://www.w3.org/2000/svg" width="32" height="32" viewBox="0 0 32 32"><path d="M25.897 17.525a.5.5 0 0 0-.59.39 9.5 9.5 0 0 1-4.87 6.47 4.477 4.477 0 0 0-8.876.009 9.395 9.395 0 0 1-4.925-9.93c.122.01.239.037.364.037A4.505 4.505 0 0 0 11.5 10a4.44 4.44 0 0 0-.518-2.052 9.47 9.47 0 0 1 7.868-1.014.5.5 0 1 0 .3-.953 10.46 10.46 0 0 0-8.724 1.136 4.483 4.483 0 1 0-4.771 7.155 10.386 10.386 0 0 0 5.895 11.225 4.475 4.475 0 0 0 8.9.004 10.52 10.52 0 0 0 5.837-7.385.5.5 0 0 0-.39-.59M3.5 10a3.5 3.5 0 1 1 7 0 3.5 3.5 0 0 1-7 0M16 28.5a3.5 3.5 0 1 1 0-7 3.5 3.5 0 0 1 0 7M29 9.5h-3.5V6a.5.5 0 0 0-1 0v3.5H21a.5.5 0 1 0 0 1h3.5V14a.5.5 0 0 0 1 0v-3.5H29a.5.5 0 0 0 0-1"/></svg>