<svg xmlns="http://www.w3.org/2000/svg" width="32" height="32" viewBox="0 0 32 32"><path d="M30.014 18.817a4.768 4.768 0 0 0-2.838-4.213 3.25 3.25 0 1 0-5.324 0c-.366.18-.711.4-1.029.656a9.376 9.376 0 0 0-1.372-.646 5 5 0 1 0-6.872 0c-.481.18-.947.4-1.392.657-.32-.26-.67-.482-1.04-.664a3.249 3.249 0 1 0-5.323 0 4.767 4.767 0 0 0-2.838 4.213c0 .676.366 1.597 2.108 2.14.963.273 1.959.417 2.96.429a7.268 7.268 0 0 0-.039.682c0 .962.554 2.289 3.19 3.147 1.887.551 3.845.815 5.81.782 4.152 0 9-1.029 9-3.929 0-.23-.017-.456-.038-.681 1.617-.05 5.037-.412 5.037-2.573Zm-5.5-7.318a1.25 1.25 0 1 1 0 2.498 1.25 1.25 0 0 1 0-2.498Zm-11.499-.5a3 3 0 1 1 6 0 3 3 0 0 1-6 0Zm-5.53.503A1.25 1.25 0 1 1 7.487 14a1.25 1.25 0 0 1 0-2.5Zm.047 7.9h-.046a6.552 6.552 0 0 1-3.498-.675c.06-1.51 1.606-2.725 3.498-2.725a4.064 4.064 0 0 1 2.01.52 7.981 7.981 0 0 0-1.964 2.88ZM16.015 24c-4.337 0-7-1.123-7-1.929 0-3.348 3.14-6.071 7-6.071s7 2.723 7 6.071c0 .806-2.663 1.929-7 1.929Zm8.5-4.602h-.018a7.984 7.984 0 0 0-1.977-2.89 4.071 4.071 0 0 1 1.994-.51c1.892 0 3.437 1.215 3.498 2.726a6.557 6.557 0 0 1-3.498.674Z"/></svg>