<svg xmlns="http://www.w3.org/2000/svg" width="32" height="32" viewBox="0 0 32 32"><path d="M29.765 18.817a4.567 4.567 0 0 0-2.997-4.109 3 3 0 1 0-4.506 0 5.384 5.384 0 0 0-1.396.858 9.171 9.171 0 0 0-1.921-.856 4.736 4.736 0 0 0-.66-7.886 4.734 4.734 0 0 0-6.975 3.736L3.54 2.48a.75.75 0 1 0-1.08 1.04l11.907 12.4.015-.002L27.459 29.52a.751.751 0 0 0 1.241-.792.748.748 0 0 0-.16-.247l-4.547-4.73a2.281 2.281 0 0 0 .773-1.679 7.01 7.01 0 0 0-.067-.926c2.483-.029 5.066-.65 5.066-2.328Zm-5.25-7.568a1.5 1.5 0 1 1 0 3 1.5 1.5 0 0 1 0-3Zm-11.75-.25a3.251 3.251 0 1 1 3.25 3.25 3.209 3.209 0 0 1-1.557-.414l-1.342-1.396a3.209 3.209 0 0 1-.35-1.44Zm3.547 4.764c3.86.137 6.954 2.91 6.954 6.308a.873.873 0 0 1-.313.598l-6.64-6.906Zm8.203 3.885c-.067 0-.122-.005-.187-.006a7.763 7.763 0 0 0-2.21-3.165 4.23 4.23 0 0 1 2.397-.728c2.065 0 3.747 1.374 3.75 3.063-.1.25-1.308.836-3.75.836ZM16.016 24.25c-4.338 0-7.25-1.126-7.25-2.179a6.302 6.302 0 0 1 4.006-5.645l-1.085-1.13c-.182.092-.37.177-.543.282a5.384 5.384 0 0 0-1.405-.867c.228-.261.41-.56.54-.883L8.954 12.45a1.5 1.5 0 1 1-1.47-1.198c.125.001.249.018.369.05l-1.325-1.38a2.967 2.967 0 0 0-1.296 4.79 4.566 4.566 0 0 0-2.997 4.108c0 .593.335 1.403 1.932 1.902 1.03.29 2.095.432 3.164.425a7.016 7.016 0 0 0-.067.924c0 .88.524 2.099 3.018 2.91 1.862.543 3.794.802 5.733.769 1.73.018 3.456-.182 5.136-.595l-1.212-1.262a20.176 20.176 0 0 1-3.924.357ZM7.7 19.646c-.074 0-.139.006-.215.006-2.456 0-3.662-.594-3.75-.832 0-1.692 1.682-3.068 3.75-3.068a4.226 4.226 0 0 1 2.41.738 7.758 7.758 0 0 0-2.195 3.156Z"/></svg>