<svg xmlns="http://www.w3.org/2000/svg" width="32" height="32" viewBox="0 0 32 32"><path d="M29.765 18.817a4.57 4.57 0 0 0-2.997-4.109 3 3 0 1 0-4.506 0 5.4 5.4 0 0 0-1.396.858 9.2 9.2 0 0 0-1.921-.856 4.736 4.736 0 0 0-.66-7.886 4.734 4.734 0 0 0-6.975 3.736L3.54 2.48a.75.75 0 1 0-1.08 1.04l11.907 12.4.015-.002L27.459 29.52a.751.751 0 0 0 1.241-.792.8.8 0 0 0-.16-.247l-4.547-4.73a2.28 2.28 0 0 0 .773-1.679 7 7 0 0 0-.067-.926c2.483-.029 5.066-.65 5.066-2.328m-5.25-7.568a1.5 1.5 0 1 1 0 3 1.5 1.5 0 0 1 0-3m-11.75-.25a3.251 3.251 0 1 1 3.25 3.25 3.2 3.2 0 0 1-1.557-.414l-1.342-1.396a3.2 3.2 0 0 1-.35-1.44m3.547 4.764c3.86.137 6.954 2.91 6.954 6.308a.87.87 0 0 1-.313.598zm8.203 3.885c-.067 0-.122-.005-.187-.006a7.76 7.76 0 0 0-2.21-3.165 4.23 4.23 0 0 1 2.397-.728c2.065 0 3.747 1.374 3.75 3.063-.1.25-1.308.836-3.75.836M16.016 24.25c-4.338 0-7.25-1.126-7.25-2.179a6.3 6.3 0 0 1 4.006-5.645l-1.085-1.13c-.182.092-.37.177-.543.282a5.4 5.4 0 0 0-1.405-.867c.228-.261.41-.56.54-.883L8.954 12.45a1.5 1.5 0 1 1-1.47-1.198q.188.002.369.05l-1.325-1.38a2.967 2.967 0 0 0-1.296 4.79 4.57 4.57 0 0 0-2.997 4.108c0 .593.335 1.403 1.932 1.902 1.03.29 2.095.432 3.164.425a7 7 0 0 0-.067.924c0 .88.524 2.099 3.018 2.91 1.862.543 3.794.802 5.733.769 1.73.018 3.456-.182 5.136-.595l-1.212-1.262a20 20 0 0 1-3.924.357M7.7 19.646c-.074 0-.139.006-.215.006-2.456 0-3.662-.594-3.75-.832 0-1.692 1.682-3.068 3.75-3.068a4.23 4.23 0 0 1 2.41.738 7.76 7.76 0 0 0-2.195 3.156"/></svg>