<svg xmlns="http://www.w3.org/2000/svg" width="32" height="32" viewBox="0 0 32 32"><path d="M25 5.25H7A4.755 4.755 0 0 0 2.25 10v12A4.755 4.755 0 0 0 7 26.75h18A4.755 4.755 0 0 0 29.75 22V10A4.755 4.755 0 0 0 25 5.25M28.25 22A3.254 3.254 0 0 1 25 25.25H7A3.254 3.254 0 0 1 3.75 22V10A3.254 3.254 0 0 1 7 6.75h18A3.254 3.254 0 0 1 28.25 10zM19 10.25h-6A2.753 2.753 0 0 0 10.25 13v6A2.753 2.753 0 0 0 13 21.75h6A2.753 2.753 0 0 0 21.75 19v-6A2.753 2.753 0 0 0 19 10.25M20.25 19A1.25 1.25 0 0 1 19 20.25h-6A1.25 1.25 0 0 1 11.75 19v-6A1.25 1.25 0 0 1 13 11.75h6A1.25 1.25 0 0 1 20.25 13z"/></svg>