<svg xmlns="http://www.w3.org/2000/svg" width="32" height="32" viewBox="0 0 32 32"><path d="M25.947 17.28a.744.744 0 0 0-.885.585 9.25 9.25 0 0 1-4.425 6.127 4.745 4.745 0 0 0-9.274-.001 9.12 9.12 0 0 1-4.516-9.257c.052.002.1.015.153.015A4.755 4.755 0 0 0 11.75 10a4.7 4.7 0 0 0-.436-1.961 9.21 9.21 0 0 1 7.461-.865.75.75 0 0 0 .45-1.432A10.8 10.8 0 0 0 16 5.25a10.67 10.67 0 0 0-5.52 1.542 4.737 4.737 0 1 0-5.105 7.653 10.61 10.61 0 0 0 5.941 11.216 4.727 4.727 0 0 0 9.367 0 10.76 10.76 0 0 0 5.848-7.496.747.747 0 0 0-.584-.884M3.75 10a3.25 3.25 0 1 1 6.5 0 3.25 3.25 0 0 1-6.5 0M16 28.25a3.25 3.25 0 1 1 0-6.5 3.25 3.25 0 0 1 0 6.5M29 9.25h-3.25V6a.75.75 0 1 0-1.5 0v3.25H21a.75.75 0 0 0 0 1.5h3.25V14a.75.75 0 0 0 1.5 0v-3.25H29a.75.75 0 1 0 0-1.5"/></svg>