<svg xmlns="http://www.w3.org/2000/svg" width="32" height="32" viewBox="0 0 32 32"><path d="M24.74 1.883a.75.75 0 0 0-1.48 0c-.205 1.294-.386 2.215-.605 2.896-.216.67-.45 1.049-.73 1.305-.283.26-.68.457-1.345.639-.627.171-1.415.31-2.47.496l-.24.042a.75.75 0 0 0 0 1.478l.24.042c1.055.186 1.843.325 2.47.496.664.182 1.062.38 1.345.64.28.255.514.634.73 1.304.22.681.4 1.602.604 2.896a.75.75 0 0 0 1.482 0c.204-1.294.384-2.215.604-2.896.216-.67.45-1.049.73-1.305.283-.26.68-.457 1.345-.639.627-.171 1.415-.31 2.47-.496l.24-.042a.75.75 0 0 0 0-1.478l-.24-.042c-1.055-.186-1.843-.325-2.47-.496-.664-.182-1.062-.38-1.345-.64-.28-.255-.514-.634-.73-1.304-.22-.681-.4-1.602-.604-2.896M22.94 8.811c-.404-.37-.878-.62-1.417-.811.539-.19 1.013-.44 1.417-.81.483-.444.81-1.009 1.061-1.707.25.698.578 1.263 1.061 1.706.404.37.878.62 1.417.811-.539.19-1.013.44-1.417.81-.483.444-.81 1.009-1.061 1.707-.25-.698-.578-1.263-1.061-1.706M9 5.75A3.25 3.25 0 0 0 5.75 9v14A3.25 3.25 0 0 0 9 26.25h14A3.25 3.25 0 0 0 26.25 23v-7a.75.75 0 0 1 1.5 0v7A4.75 4.75 0 0 1 23 27.75H9A4.75 4.75 0 0 1 4.25 23V9A4.75 4.75 0 0 1 9 4.25h7a.75.75 0 0 1 0 1.5zM9.25 10a.75.75 0 0 1 .75-.75h6a.75.75 0 0 1 0 1.5h-6a.75.75 0 0 1-.75-.75m.75 4.25a.75.75 0 0 0 0 1.5h11a.75.75 0 0 0 0-1.5zM9.25 20a.75.75 0 0 1 .75-.75h5a.75.75 0 0 1 0 1.5h-5a.75.75 0 0 1-.75-.75"/></svg>