<svg xmlns="http://www.w3.org/2000/svg" width="32" height="32" viewBox="0 0 32 32"><path d="M25.997 17.036a1 1 0 0 0-1.18.779 8.986 8.986 0 0 1-4.039 5.794 4.968 4.968 0 0 0-9.558.003 8.928 8.928 0 0 1-4.16-8.618 4.979 4.979 0 0 0 4.572-6.857 8.992 8.992 0 0 1 7.068-.725 1 1 0 0 0 .6-1.909 10.965 10.965 0 0 0-8.765.964 4.997 4.997 0 1 0-5.44 8.152 10.872 10.872 0 0 0 5.988 11.207 4.982 4.982 0 0 0 9.833-.004 11.007 11.007 0 0 0 5.86-7.607.997.997 0 0 0-.78-1.18ZM4 10a3 3 0 1 1 6 0 3 3 0 0 1-6 0Zm12 18a3 3 0 1 1 0-6 3 3 0 0 1 0 6Z"/><path d="M29 9h-3V6a1 1 0 1 0-2 0v3h-3a1 1 0 0 0 0 2h3v3a1 1 0 0 0 2 0v-3h3a1 1 0 1 0 0-2Z"/></svg>