<svg xmlns="http://www.w3.org/2000/svg" width="32" height="32" viewBox="0 0 32 32"><path d="M29.765 18.817a4.567 4.567 0 0 0-2.997-4.109 3 3 0 1 0-4.506 0 5.384 5.384 0 0 0-1.396.858 9.171 9.171 0 0 0-1.921-.856 4.75 4.75 0 1 0-5.86 0 9.176 9.176 0 0 0-1.94.867 5.386 5.386 0 0 0-1.406-.866 3 3 0 1 0-4.506 0 4.566 4.566 0 0 0-2.997 4.109c0 .593.335 1.403 1.932 1.902 1.03.29 2.095.432 3.164.425a7.016 7.016 0 0 0-.067.924c0 .88.524 2.099 3.018 2.91 1.862.543 3.794.802 5.733.769 4.036 0 8.75-.963 8.75-3.679a7.01 7.01 0 0 0-.067-.926c2.483-.029 5.066-.65 5.066-2.328Zm-5.25-7.568a1.5 1.5 0 1 1 0 3 1.5 1.5 0 0 1 0-3Zm-11.75-.25a3.251 3.251 0 1 1 6.502 0 3.251 3.251 0 0 1-6.502 0Zm-5.28.253a1.5 1.5 0 1 1 0 3 1.5 1.5 0 0 1 0-3Zm.216 8.394c-.074 0-.139.006-.215.006-2.456 0-3.662-.594-3.75-.832 0-1.692 1.682-3.068 3.75-3.068a4.226 4.226 0 0 1 2.41.738 7.759 7.759 0 0 0-2.195 3.156Zm8.315 4.604c-4.338 0-7.25-1.126-7.25-2.179 0-3.485 3.252-6.321 7.25-6.321 3.997 0 7.25 2.836 7.25 6.321 0 1.053-2.913 2.179-7.25 2.179Zm8.499-4.602c-.067 0-.122-.005-.187-.006a7.764 7.764 0 0 0-2.21-3.165 4.23 4.23 0 0 1 2.397-.728c2.065 0 3.747 1.374 3.75 3.063-.1.25-1.308.836-3.75.836Z"/></svg>