<svg xmlns="http://www.w3.org/2000/svg" width="32" height="32" viewBox="0 0 32 32"><path d="M24.494 1.922a.5.5 0 0 0-.988 0c-.204 1.295-.387 2.232-.613 2.933-.223.695-.477 1.117-.799 1.413-.325.298-.767.51-1.448.696-.638.175-1.438.316-2.487.5l-.246.044a.5.5 0 0 0 0 .984l.246.044c1.049.184 1.849.325 2.487.5.681.187 1.123.398 1.448.696.322.296.576.718.8 1.413.225.7.408 1.638.612 2.933a.5.5 0 0 0 .988 0c.204-1.295.387-2.232.613-2.933.223-.695.477-1.117.799-1.413.325-.298.767-.51 1.448-.696.638-.175 1.438-.316 2.487-.5l.246-.044a.5.5 0 0 0 0-.984l-.246-.044c-1.049-.184-1.849-.325-2.487-.5-.681-.187-1.123-.398-1.448-.696-.322-.296-.576-.718-.8-1.413-.225-.7-.408-1.638-.612-2.933m-3.584 6.15q-.134-.037-.276-.072.143-.034.276-.072c.751-.205 1.367-.471 1.86-.923.495-.454.821-1.055 1.075-1.843q.081-.252.155-.536.074.285.155.536c.254.788.58 1.389 1.075 1.843.493.452 1.109.718 1.86.923q.134.038.276.072-.143.035-.276.072c-.751.205-1.367.471-1.86.923-.495.454-.821 1.055-1.075 1.843a10 10 0 0 0-.155.536q-.074-.284-.155-.536c-.254-.788-.58-1.389-1.075-1.843-.493-.452-1.109-.718-1.86-.923M9 5.5A3.5 3.5 0 0 0 5.5 9v14A3.5 3.5 0 0 0 9 26.5h14a3.5 3.5 0 0 0 3.5-3.5v-7a.5.5 0 0 1 1 0v7a4.5 4.5 0 0 1-4.5 4.5H9A4.5 4.5 0 0 1 4.5 23V9A4.5 4.5 0 0 1 9 4.5h7a.5.5 0 0 1 0 1zM9.5 10a.5.5 0 0 1 .5-.5h7a.5.5 0 0 1 0 1h-7a.5.5 0 0 1-.5-.5M10 14.5a.5.5 0 0 0 0 1h11a.5.5 0 0 0 0-1zM9.5 20a.5.5 0 0 1 .5-.5h5a.5.5 0 0 1 0 1h-5a.5.5 0 0 1-.5-.5"/></svg>