<svg xmlns="http://www.w3.org/2000/svg" width="32" height="32" viewBox="0 0 32 32"><path d="M29.75 10a4.734 4.734 0 0 0-8.23-3.208 10.65 10.65 0 0 0-11.039 0 4.737 4.737 0 1 0-5.105 7.653 10.61 10.61 0 0 0 5.941 11.216 4.726 4.726 0 0 0 9.366 0 10.61 10.61 0 0 0 5.942-11.216A4.74 4.74 0 0 0 29.75 10m-26 0a3.25 3.25 0 1 1 6.5 0 3.25 3.25 0 0 1-6.5 0M16 28.25a3.25 3.25 0 1 1 0-6.5 3.25 3.25 0 0 1 0 6.5m4.637-4.259a4.744 4.744 0 0 0-9.274 0 9.12 9.12 0 0 1-4.516-9.257c.052.002.1.015.153.015A4.755 4.755 0 0 0 11.75 10a4.7 4.7 0 0 0-.436-1.961 9.16 9.16 0 0 1 9.372 0A4.7 4.7 0 0 0 20.25 10 4.755 4.755 0 0 0 25 14.75c.052 0 .101-.014.153-.015a9.12 9.12 0 0 1-4.516 9.256M25 13.25a3.25 3.25 0 1 1 0-6.5 3.25 3.25 0 0 1 0 6.5"/></svg>