<svg xmlns="http://www.w3.org/2000/svg" width="32" height="32" viewBox="0 0 32 32"><path d="M30 10a4.998 4.998 0 0 0-8.535-3.533 10.91 10.91 0 0 0-10.93 0 4.997 4.997 0 1 0-5.439 8.152 10.87 10.87 0 0 0 5.987 11.207 4.982 4.982 0 0 0 9.833 0 10.87 10.87 0 0 0 5.987-11.207A5 5 0 0 0 30 10M4 10a3 3 0 1 1 6 0 3 3 0 0 1-6 0m12 18a3 3 0 1 1 0-5.999A3 3 0 0 1 16 28m4.78-4.388a4.969 4.969 0 0 0-9.56 0 8.93 8.93 0 0 1-4.16-8.618 4.98 4.98 0 0 0 4.572-6.857 8.96 8.96 0 0 1 8.736 0 4.978 4.978 0 0 0 4.572 6.856 8.93 8.93 0 0 1-4.16 8.619M25 13a3 3 0 1 1 0-5.999A3 3 0 0 1 25 13"/></svg>