<svg xmlns="http://www.w3.org/2000/svg" width="32" height="32" viewBox="0 0 32 32"><path d="M29.5 10a4.48 4.48 0 0 0-7.926-2.883 10.413 10.413 0 0 0-11.148 0 4.483 4.483 0 1 0-4.771 7.155 10.386 10.386 0 0 0 5.895 11.224 4.474 4.474 0 0 0 8.9 0 10.387 10.387 0 0 0 5.896-11.225A4.49 4.49 0 0 0 29.5 10Zm-26 0a3.5 3.5 0 1 1 7 0 3.5 3.5 0 0 1-7 0ZM16 28.5a3.5 3.5 0 1 1 0-7 3.5 3.5 0 0 1 0 7Zm4.439-4.107a4.477 4.477 0 0 0-8.878 0 9.395 9.395 0 0 1-4.925-9.93c.122.01.24.037.364.037a4.505 4.505 0 0 0 4.5-4.5 4.442 4.442 0 0 0-.518-2.052 9.417 9.417 0 0 1 10.036 0A4.444 4.444 0 0 0 20.5 10a4.504 4.504 0 0 0 4.5 4.5c.125 0 .242-.027.364-.037a9.396 9.396 0 0 1-4.925 9.93ZM25 13.5a3.5 3.5 0 1 1 0-7 3.5 3.5 0 0 1 0 7Z"/></svg>