<svg xmlns="http://www.w3.org/2000/svg" width="32" height="32" viewBox="0 0 32 32"><path d="M11 3.5a1 1 0 1 0-2 0v2a5 5 0 0 0-5 5v14a5 5 0 0 0 5 5h14a5 5 0 0 0 5-5v-14a5 5 0 0 0-5-5v-2a1 1 0 1 0-2 0v2H11v-2Zm-1 4h13a3 3 0 0 1 3 3v14a3 3 0 0 1-3 3H9a3 3 0 0 1-3-3v-14a3 3 0 0 1 3-3h1Zm3.77 12.307a1 1 0 0 0-2 0v.36a4.997 4.997 0 0 1 2.173-7.224 5 5 0 1 1 2.058 9.557 1 1 0 1 0 0 2 7 7 0 1 0-5.692-2.924h-.308a1 1 0 1 0 0 2h2.77a1 1 0 0 0 1-1v-2.77ZM17 14a1 1 0 1 0-2 0l.001 3.5a1 1 0 0 0 .293.706l2.308 2.308a1 1 0 1 0 1.414-1.415L17 17.085 17 14Z"/></svg>