<svg xmlns="http://www.w3.org/2000/svg" width="32" height="32" viewBox="0 0 32 32"><path d="M10.75 3a.75.75 0 0 0-1.5 0v2.25H9A4.75 4.75 0 0 0 4.25 10v14A4.75 4.75 0 0 0 9 28.75h14A4.75 4.75 0 0 0 27.75 24V10A4.75 4.75 0 0 0 23 5.25h-.25V3a.75.75 0 0 0-1.5 0v2.25h-10.5zM10 6.75h13A3.25 3.25 0 0 1 26.25 10v14A3.25 3.25 0 0 1 23 27.25H9A3.25 3.25 0 0 1 5.75 24V10A3.25 3.25 0 0 1 9 6.75zm3.52 12.557a.75.75 0 0 0-1.5 0v1.117A5.25 5.25 0 1 1 16 22.25a.75.75 0 0 0 0 1.5 6.75 6.75 0 1 0-5.182-2.424h-.817a.75.75 0 1 0 0 1.5h2.77a.75.75 0 0 0 .75-.75zm3.23-5.807a.75.75 0 0 0-1.5 0l.001 3.5c0 .198.079.389.22.53l2.307 2.307a.75.75 0 0 0 1.061-1.06l-2.088-2.089z"/></svg>