<svg xmlns="http://www.w3.org/2000/svg" width="32" height="32" viewBox="0 0 32 32"><path d="M11 3a1 1 0 1 0-2 0v2a5 5 0 0 0-5 5v14a5 5 0 0 0 5 5h14a5 5 0 0 0 5-5V10a5 5 0 0 0-5-5V3a1 1 0 1 0-2 0v2H11zm-1 4h13a3 3 0 0 1 3 3v14a3 3 0 0 1-3 3H9a3 3 0 0 1-3-3V10a3 3 0 0 1 3-3zm3.77 12.307a1 1 0 0 0-2 0v.36a4.997 4.997 0 0 1 2.173-7.224A5 5 0 1 1 16.001 22a1 1 0 1 0 0 2 7 7 0 1 0-5.692-2.924h-.308a1 1 0 1 0 0 2h2.77a1 1 0 0 0 1-1zM17 13.5a1 1 0 1 0-2 0l.001 3.5a1 1 0 0 0 .293.706l2.308 2.308a1 1 0 1 0 1.414-1.415L17 16.586z"/></svg>