<svg xmlns="http://www.w3.org/2000/svg" width="32" height="32" viewBox="0 0 32 32"><path d="M10 3a.5.5 0 0 1 .5.5V6h11V3.5a.5.5 0 0 1 1 0V6h.5a4.5 4.5 0 0 1 4.5 4.5v14A4.5 4.5 0 0 1 23 29H9a4.5 4.5 0 0 1-4.5-4.5v-14A4.5 4.5 0 0 1 9 6h.5V3.5A.5.5 0 0 1 10 3ZM9 7a3.5 3.5 0 0 0-3.5 3.5v14A3.5 3.5 0 0 0 9 28h14a3.5 3.5 0 0 0 3.5-3.5v-14A3.5 3.5 0 0 0 23 7H9Zm8.568 5.228a5.5 5.5 0 0 0-5.298 9.314v-1.735a.5.5 0 0 1 1 0v2.769a.5.5 0 0 1-.5.5h-2.769a.5.5 0 0 1 0-1h1.383A6.5 6.5 0 1 1 16 24a.5.5 0 0 1 0-1 5.5 5.5 0 0 0 1.567-10.772ZM16 13.5a.5.5 0 0 1 .5.5v3.292l2.162 2.161a.5.5 0 1 1-.707.707l-2.308-2.308a.5.5 0 0 1-.146-.353L15.5 14a.5.5 0 0 1 .5-.5Z"/></svg>