<svg xmlns="http://www.w3.org/2000/svg" width="32" height="32" viewBox="0 0 32 32"><path d="M10 2.5a.5.5 0 0 1 .5.5v2.5h11V3a.5.5 0 0 1 1 0v2.5h.5a4.5 4.5 0 0 1 4.5 4.5v14a4.5 4.5 0 0 1-4.5 4.5H9A4.5 4.5 0 0 1 4.5 24V10A4.5 4.5 0 0 1 9 5.5h.5V3a.5.5 0 0 1 .5-.5m-1 4A3.5 3.5 0 0 0 5.5 10v14A3.5 3.5 0 0 0 9 27.5h14a3.5 3.5 0 0 0 3.5-3.5V10A3.5 3.5 0 0 0 23 6.5zm8.568 5.228a5.5 5.5 0 0 0-5.298 9.314v-1.735a.5.5 0 0 1 1 0v2.769a.5.5 0 0 1-.5.5h-2.769a.5.5 0 0 1 0-1h1.383A6.5 6.5 0 1 1 16 23.5a.5.5 0 0 1 0-1 5.5 5.5 0 0 0 1.567-10.772M16 13a.5.5 0 0 1 .5.5v3.292l2.162 2.161a.5.5 0 1 1-.707.707l-2.308-2.308a.5.5 0 0 1-.146-.353L15.5 13.5a.5.5 0 0 1 .5-.5"/></svg>