<svg xmlns="http://www.w3.org/2000/svg" width="32" height="32" viewBox="0 0 32 32"><path d="M18 23.749a.75.75 0 0 1-.53-.219l-15-15a.75.75 0 0 1 1.06-1.06l1.72 1.72V8a5.75 5.75 0 1 1 11.5 0v10a5.6 5.6 0 0 1-.475 2.215l2.255 2.255a.75.75 0 0 1-.53 1.279M7.993 4.995A4.25 4.25 0 0 0 6.75 8v2.69l8.353 8.352A4 4 0 0 0 15.249 18V8a4.25 4.25 0 0 0-7.255-3.005M17.021 28.25H19a.75.75 0 1 1 0 1.5H3a.75.75 0 1 1 0-1.5h9.72a6.67 6.67 0 0 1-2.436-4.55A5.755 5.755 0 0 1 5.25 18v-4.547l1.5 1.5V18a4.243 4.243 0 0 0 6.59 3.542l1.063 1.064c-.76.57-1.65.94-2.588 1.08a5.115 5.115 0 0 0 5.206 4.564M27.75 11.25H28A1.75 1.75 0 0 1 29.75 13v4A1.75 1.75 0 0 1 28 18.75h-6A1.75 1.75 0 0 1 20.25 17v-4A1.75 1.75 0 0 1 22 11.25h.25V10a2.75 2.75 0 1 1 5.5 0zm-3.634-2.134a1.25 1.25 0 0 0-.366.884v1.25h2.5V10a1.25 1.25 0 0 0-2.134-.884m4.06 8.06A.25.25 0 0 0 28.25 17v-4a.25.25 0 0 0-.25-.25h-6a.25.25 0 0 0-.25.25v4a.25.25 0 0 0 .25.25h6a.25.25 0 0 0 .176-.073"/></svg>