<svg xmlns="http://www.w3.org/2000/svg" width="32" height="32" viewBox="0 0 32 32"><path d="M5.25 8a5.75 5.75 0 1 1 11.5 0v10a5.75 5.75 0 0 1-4.957 5.696c.117.935.477 1.93 1.203 2.741.894.999 2.423 1.813 5.004 1.813h1a.75.75 0 0 1 0 1.5H3a.75.75 0 0 1 0-1.5h9.765a6 6 0 0 1-.886-.812c-1.015-1.135-1.471-2.504-1.594-3.732A5.75 5.75 0 0 1 5.25 18zm1.5 4.75V15h8.5v-2.25zm8.5-1.5V8a4.25 4.25 0 0 0-8.5 0v3.25zM22.5 13.75a.75.75 0 0 1 .75.75v1.75H25a.75.75 0 0 1 0 1.5h-1.75v1.75a.75.75 0 0 1-1.5 0v-1.75H20a.75.75 0 0 1 0-1.5h1.75V14.5a.75.75 0 0 1 .75-.75M26.5 6.25a.75.75 0 0 1 .75.75v1.75H29a.75.75 0 0 1 0 1.5h-1.75V12a.75.75 0 0 1-1.5 0v-1.75H24a.75.75 0 0 1 0-1.5h1.75V7a.75.75 0 0 1 .75-.75"/></svg>