<svg xmlns="http://www.w3.org/2000/svg" width="32" height="32" fill="none" viewBox="0 0 32 32"><path fill="#DB1F2E" d="M24.003 28.5h-1.98a5.361 5.361 0 0 1-5.476-5.028 5.465 5.465 0 0 0 3.264-1.539l-.697-.697A4.49 4.49 0 0 1 11.5 18v-4.378l-1-1V18a5.505 5.505 0 0 0 5.026 5.476 6.409 6.409 0 0 0 2.987 5.024H8.003a.5.5 0 1 0 0 1h16a.5.5 0 1 0 0-1ZM28.354 27.646l-7.375-7.375c.34-.71.517-1.485.521-2.271V8a5.5 5.5 0 1 0-11 0v1.793L4.354 3.646a.5.5 0 0 0-.707.707l24 24a.5.5 0 1 0 .707-.707ZM11.5 10.793V8a4.5 4.5 0 1 1 9 0v10a4.417 4.417 0 0 1-.277 1.515L11.5 10.793Z"/></svg>