<svg xmlns="http://www.w3.org/2000/svg" width="32" height="32" viewBox="0 0 32 32"><path d="M17.023 28.25h1.98a.75.75 0 1 1 0 1.5h-16a.75.75 0 1 1 0-1.5h9.72a6.67 6.67 0 0 1-2.436-4.55A5.754 5.754 0 0 1 5.25 18V8a5.75 5.75 0 1 1 11.5 0v10a5.75 5.75 0 0 1-4.932 5.685 5.114 5.114 0 0 0 5.205 4.565M6.75 12.75v2.238h8.5V12.75zm0-1.5h8.5V8A4.254 4.254 0 0 0 11 3.75 4.254 4.254 0 0 0 6.75 8zM25.048 7.9a.75.75 0 0 1 .658-.121l3.5 1a.75.75 0 0 1-.412 1.442l-2.544-.727V16.5a3.25 3.25 0 1 1-1.5-2.74V8.5a.75.75 0 0 1 .298-.6M23 14.75a1.75 1.75 0 1 0 0 3.5 1.75 1.75 0 0 0 0-3.5"/></svg>