<svg xmlns="http://www.w3.org/2000/svg" width="32" height="32" viewBox="0 0 32 32"><path d="M17.023 28h1.98a1 1 0 1 1 0 2h-16a1 1 0 0 1 0-2h9.065a6.92 6.92 0 0 1-2-4.08A6.004 6.004 0 0 1 5 18V8a6 6 0 1 1 12 0v10a6.006 6.006 0 0 1-4.912 5.896A4.876 4.876 0 0 0 17.023 28M7 13v1.988h8V13zm0-2h8V8a4.004 4.004 0 0 0-4-4 4.004 4.004 0 0 0-4 4zM24.898 7.701a1 1 0 0 1 .877-.163l3.5 1a1 1 0 1 1-.55 1.923L26.5 9.825V16.5a3.5 3.5 0 1 1-2-3.164V8.5a1 1 0 0 1 .398-.799M23 15a1.5 1.5 0 1 0 0 3 1.5 1.5 0 0 0 0-3"/></svg>