<svg xmlns="http://www.w3.org/2000/svg" width="32" height="32" viewBox="0 0 32 32"><path fill-rule="evenodd" d="M5 8a6 6 0 1 1 12 0v10a6 6 0 0 1-4.924 5.904c.14.821.481 1.668 1.107 2.367C14.02 27.206 15.476 28 18 28h1a1 1 0 1 1 0 2H3a1 1 0 1 1 0-2h9.079a6 6 0 0 1-.387-.396c-1.003-1.12-1.479-2.458-1.633-3.677A6 6 0 0 1 5 18zm2 5v2h8v-2zm8-2H7V8a4 4 0 1 1 8 0z" clip-rule="evenodd"/><path d="M22.5 13.5a1 1 0 0 1 1 1V16H25a1 1 0 1 1 0 2h-1.5v1.5a1 1 0 1 1-2 0V18H20a1 1 0 1 1 0-2h1.5v-1.5a1 1 0 0 1 1-1M26.5 6a1 1 0 0 1 1 1v1.5H29a1 1 0 1 1 0 2h-1.5V12a1 1 0 1 1-2 0v-1.5H24a1 1 0 1 1 0-2h1.5V7a1 1 0 0 1 1-1"/></svg>