<svg xmlns="http://www.w3.org/2000/svg" width="32" height="32" fill="none" viewBox="0 0 32 32"><path fill="#DB1F2E" d="M24.002 28h-1.98a4.876 4.876 0 0 1-4.934-4.104 5.962 5.962 0 0 0 1.874-.691l-1.493-1.493A3.983 3.983 0 0 1 12 18v-1.758l-2-2V18a6.004 6.004 0 0 0 5.068 5.92 6.917 6.917 0 0 0 2 4.08H8.003a1 1 0 0 0 0 2h16a1 1 0 1 0 0-2ZM28.707 27.293l-7.121-7.122A5.904 5.904 0 0 0 22 18V8a6 6 0 0 0-12 0v.586L4.707 3.293a1 1 0 0 0-1.414 1.414l24 24a1 1 0 0 0 1.414-1.414ZM20 18c-.003.18-.02.36-.048.537L12 10.586V8a4 4 0 0 1 8 0v10Z"/></svg>