<svg xmlns="http://www.w3.org/2000/svg" width="32" height="32" viewBox="0 0 32 32"><path fill-rule="evenodd" d="M16 2.5A13.5 13.5 0 1 0 29.5 16 13.515 13.515 0 0 0 16 2.5Zm4.955 16.217-2.07-2.212v-5.41a3.095 3.095 0 0 0-6.019-1.019l-.711-.76a1 1 0 1 0-1.46 1.367l8.8 9.4a1 1 0 1 0 1.46-1.366Zm-8.26-3.703v1.701c0 1.42.956 2.617 2.26 2.981A3.889 3.889 0 0 0 15.842 22h-4.117a1 1 0 1 0 0 2h8.85a1 1 0 1 0 0-2c-.267 0-1.35-.107-2.278-.579-.452-.23-.812-.518-1.042-.868a1.895 1.895 0 0 1-.303-.968l.016-.007-4.273-4.564Z" clip-rule="evenodd"/></svg>