<svg xmlns="http://www.w3.org/2000/svg" width="32" height="32" fill="none" viewBox="0 0 32 32"><path fill="#DB1F2E" d="M17.646 23.353a.502.502 0 0 0 .71.004.5.5 0 0 0-.003-.71l-2.375-2.375A5.33 5.33 0 0 0 16.5 18V8a5.5 5.5 0 0 0-11 0v1.793L3.353 7.646a.5.5 0 1 0-.707.707l15 15ZM6.5 8a4.5 4.5 0 0 1 9 0v10a4.419 4.419 0 0 1-.277 1.516L6.5 10.793V8ZM19 28.5H17.02a5.362 5.362 0 0 1-5.477-5.028 5.465 5.465 0 0 0 3.266-1.539l-.697-.697A4.49 4.49 0 0 1 6.5 18v-4.378l-1-1V18a5.506 5.506 0 0 0 5.023 5.476A6.407 6.407 0 0 0 13.51 28.5H3a.5.5 0 0 0 0 1h16a.5.5 0 1 0 0-1Z"/><path fill="#0F0F0F" d="M28 11.5h-.5V10a2.5 2.5 0 0 0-5 0v1.5H22a1.502 1.502 0 0 0-1.5 1.5v4a1.502 1.502 0 0 0 1.5 1.5h6a1.502 1.502 0 0 0 1.5-1.5v-4a1.501 1.501 0 0 0-1.5-1.5ZM23.5 10a1.5 1.5 0 1 1 3 0v1.5h-3V10Zm5 7a.501.501 0 0 1-.5.5h-6a.5.5 0 0 1-.5-.5v-4a.5.5 0 0 1 .5-.5h6a.501.501 0 0 1 .5.5v4Z"/></svg>