<svg xmlns="http://www.w3.org/2000/svg" width="32" height="32" fill="none" viewBox="0 0 32 32"><path fill="#DB1F2E" d="M17.47 23.53a.75.75 0 0 0 1.06-1.06l-2.255-2.256A5.57 5.57 0 0 0 16.75 18V8a5.75 5.75 0 0 0-11.5 0v1.19L3.53 7.47a.75.75 0 0 0-1.06 1.06l15 15ZM6.75 8a4.25 4.25 0 1 1 8.5 0v10a4.099 4.099 0 0 1-.148 1.042L6.75 10.69V8ZM19 28.25H17.02a5.114 5.114 0 0 1-5.206-4.565c.939-.14 1.829-.51 2.588-1.08l-1.064-1.063A4.244 4.244 0 0 1 6.75 18v-3.047l-1.5-1.5V18a5.755 5.755 0 0 0 5.035 5.7 6.664 6.664 0 0 0 2.437 4.55H3a.75.75 0 1 0 0 1.5h16a.75.75 0 1 0 0-1.5Z"/><path fill="#0F0F0F" d="M28 11.25h-.25V10a2.75 2.75 0 1 0-5.5 0v1.25H22A1.752 1.752 0 0 0 20.25 13v4A1.752 1.752 0 0 0 22 18.75h6A1.752 1.752 0 0 0 29.75 17v-4A1.752 1.752 0 0 0 28 11.25ZM23.75 10a1.25 1.25 0 0 1 2.5 0v1.25h-2.5V10Zm4.5 7a.25.25 0 0 1-.25.25h-6a.25.25 0 0 1-.25-.25v-4a.25.25 0 0 1 .25-.25h6a.25.25 0 0 1 .25.25v4Z"/></svg>