<svg xmlns="http://www.w3.org/2000/svg" width="32" height="32" viewBox="0 0 32 32"><path d="M17.023 28.5h1.98a.5.5 0 0 1 0 1h-16a.5.5 0 0 1 0-1h10.51a6.41 6.41 0 0 1-2.987-5.024A5.506 5.506 0 0 1 5.5 18V8a5.5 5.5 0 1 1 11 0v10a5.51 5.51 0 0 1-4.953 5.472 5.36 5.36 0 0 0 5.476 5.028M6.5 12.5v2.488h9V12.5zm0-1h9V8A4.505 4.505 0 0 0 11 3.5 4.505 4.505 0 0 0 6.5 8zM25.199 8.1a.5.5 0 0 1 .438-.081l3.5 1a.5.5 0 0 1-.274.961L26 9.163V16.5a3 3 0 1 1-1-2.236V8.5a.5.5 0 0 1 .199-.4M23 14.5a2 2 0 1 0 0 4 2 2 0 0 0 0-4"/></svg>