<svg xmlns="http://www.w3.org/2000/svg" width="32" height="32" viewBox="0 0 32 32"><path d="M11 2a6 6 0 0 0-6 6v10a6 6 0 0 0 5.059 5.927c.154 1.219.63 2.556 1.633 3.677q.183.206.387.396H3a1 1 0 1 0 0 2h16a1 1 0 1 0 0-2h-1c-2.524 0-3.98-.794-4.817-1.73-.626-.698-.967-1.545-1.107-2.366A6 6 0 0 0 17 18V8a6 6 0 0 0-6-6m4 16a4 4 0 0 1-8 0V8a4 4 0 1 1 8 0zM24.5 13.337V8.524l.01-.166a1 1 0 0 1 1.288-.813l3.477.993a1 1 0 0 1-.55 1.923L26.5 9.827V16.5a3.5 3.5 0 1 1-2-3.163m0 3.163a1.5 1.5 0 1 0-3 0 1.5 1.5 0 0 0 3 0M24.51 8.358q-.01.07-.01.142v.024a1 1 0 0 1 .01-.166"/></svg>