<svg xmlns="http://www.w3.org/2000/svg" width="32" height="32" fill="none" viewBox="0 0 32 32"><path fill-rule="evenodd" d="M25.637 8.02A.5.5 0 0 0 25 8.5v5.764a3 3 0 1 0 1 2.236V9.163l2.863.818a.5.5 0 0 0 .274-.962l-3.5-1ZM25 16.5a2 2 0 1 0-4 0 2 2 0 0 0 4 0Z" clip-rule="evenodd"/><path d="M19.002 28.5h-1.979a5.361 5.361 0 0 1-5.476-5.027A5.508 5.508 0 0 0 16.5 18V8a5.5 5.5 0 0 0-11 0v10a5.506 5.506 0 0 0 5.026 5.476 6.41 6.41 0 0 0 2.987 5.024H3.003a.5.5 0 0 0 0 1h16a.5.5 0 0 0 0-1ZM6.5 14.988V12.5h9v2.488h-9ZM11 3.5A4.505 4.505 0 0 1 15.5 8v3.5h-9V8A4.505 4.505 0 0 1 11 3.5Z"/><path fill="#27A17A" d="M15.5 11.5h-9v1h9v-1ZM15.5 15h-9v3a4 4 0 0 0 4 4h1a4 4 0 0 0 4-4v-3Z"/></svg>