<svg xmlns="http://www.w3.org/2000/svg" width="32" height="32" fill="none" viewBox="0 0 32 32"><path fill-rule="evenodd" d="M25.706 7.779a.75.75 0 0 0-.956.721v5.26a3.25 3.25 0 1 0 1.5 2.74V9.494l2.544.727a.75.75 0 1 0 .412-1.442l-3.5-1ZM24.75 16.5a1.75 1.75 0 1 0-3.5 0 1.75 1.75 0 0 0 3.5 0Z" clip-rule="evenodd"/><path d="M19.002 28.25h-1.979a5.114 5.114 0 0 1-5.205-4.565A5.754 5.754 0 0 0 16.75 18V8a5.75 5.75 0 0 0-11.5 0v10a5.755 5.755 0 0 0 5.037 5.701 6.668 6.668 0 0 0 2.436 4.55h-9.72a.75.75 0 1 0 0 1.5h16a.75.75 0 1 0 0-1.5ZM6.75 14.988V12.75h8.5v2.238h-8.5ZM11 3.75A4.254 4.254 0 0 1 15.25 8v3.25h-8.5V8A4.254 4.254 0 0 1 11 3.75Z"/><path fill="#27A17A" d="M15.25 11.25h-8.5v1.5h8.5v-1.5ZM15.25 15h-8.5v3a4 4 0 0 0 4 4h.5a4 4 0 0 0 4-4v-3Z"/></svg>