<svg xmlns="http://www.w3.org/2000/svg" width="32" height="32" viewBox="0 0 32 32"><path d="M17.808 23.464a.5.5 0 0 1-.162-.11l-15-15a.5.5 0 1 1 .707-.708L5.5 9.793V8a5.5 5.5 0 0 1 11 0v10a5.3 5.3 0 0 1-.521 2.272l2.374 2.375a.5.5 0 0 1-.545.817M7.818 4.818A4.5 4.5 0 0 0 6.5 8v2.793l8.723 8.723c.18-.485.274-.998.277-1.516V8a4.5 4.5 0 0 0-7.682-3.182M17.021 28.5H19a.5.5 0 0 1 0 1H3a.5.5 0 0 1 0-1h10.51a6.4 6.4 0 0 1-2.987-5.024A5.506 5.506 0 0 1 5.5 18v-5.377l1 1V18a4.49 4.49 0 0 0 7.613 3.236l.697.698a5.47 5.47 0 0 1-3.266 1.538 5.36 5.36 0 0 0 5.477 5.028M27.5 11.5h.5a1.5 1.5 0 0 1 1.5 1.5v4a1.5 1.5 0 0 1-1.5 1.5h-6a1.5 1.5 0 0 1-1.5-1.5v-4a1.5 1.5 0 0 1 1.5-1.5h.5V10a2.5 2.5 0 0 1 5 0zm-3.561-2.56a1.5 1.5 0 0 0-.44 1.06v1.5h3V10a1.5 1.5 0 0 0-2.56-1.06m4.414 8.413a.5.5 0 0 0 .146-.353v-4a.5.5 0 0 0-.5-.5h-6a.5.5 0 0 0-.5.5v4a.5.5 0 0 0 .5.5h6c.133 0 .26-.053.354-.147"/></svg>