<svg xmlns="http://www.w3.org/2000/svg" width="32" height="32" viewBox="0 0 32 32"><path d="M11 2.25A5.75 5.75 0 0 0 5.25 8v10a5.75 5.75 0 0 0 5.035 5.706c.123 1.228.579 2.597 1.594 3.732q.391.439.886.812H3a.75.75 0 0 0 0 1.5h16a.75.75 0 0 0 0-1.5h-1c-2.58 0-4.11-.814-5.004-1.813-.726-.811-1.087-1.806-1.203-2.741A5.75 5.75 0 0 0 16.75 18V8A5.75 5.75 0 0 0 11 2.25M15.25 18a4.25 4.25 0 0 1-8.5 0V8a4.25 4.25 0 0 1 8.5 0zM24.75 13.76V8.516l.005-.103a.75.75 0 0 1 .965-.63l3.486.997a.75.75 0 1 1-.412 1.442l-2.544-.727V16.5a3.25 3.25 0 1 1-1.5-2.74m0 2.74a1.75 1.75 0 1 0-3.5 0 1.75 1.75 0 0 0 3.5 0M24.755 8.412a1 1 0 0 0-.005.088v.015q0-.05.005-.103"/></svg>