<svg xmlns="http://www.w3.org/2000/svg" width="32" height="32" fill="none" viewBox="0 0 32 32"><path fill-rule="evenodd" d="M25.775 7.538A1 1 0 0 0 24.5 8.5v4.837a3.5 3.5 0 1 0 2 3.163V9.826l2.225.635a1 1 0 1 0 .55-1.923l-3.5-1ZM24.5 16.5a1.5 1.5 0 1 0-3 0 1.5 1.5 0 0 0 3 0Z" clip-rule="evenodd"/><path d="M19.002 28h-1.979a4.876 4.876 0 0 1-4.935-4.104A6.006 6.006 0 0 0 17 18V8A6 6 0 1 0 5 8v10a6.004 6.004 0 0 0 5.067 5.92 6.917 6.917 0 0 0 2 4.08H3.003a1 1 0 0 0 0 2h16a1 1 0 1 0 0-2ZM7 14.988V13h8v1.988H7ZM11 4a4.004 4.004 0 0 1 4 4v3H7V8a4.004 4.004 0 0 1 4-4Z"/><path fill="#27A17A" d="M15 11H7v2h8v-2ZM15 15H7v3a4 4 0 0 0 8 0v-3Z"/></svg>