<svg xmlns="http://www.w3.org/2000/svg" width="32" height="32" viewBox="0 0 32 32"><path d="M24.002 28.25h-1.979a5.114 5.114 0 0 1-5.205-4.565 5.716 5.716 0 0 0 2.597-1.087l-1.063-1.063A4.245 4.245 0 0 1 11.75 18v-3.067l-1.5-1.5V18a5.755 5.755 0 0 0 5.037 5.7 6.665 6.665 0 0 0 2.437 4.55H8.002a.75.75 0 1 0 0 1.5h16a.75.75 0 1 0 0-1.5ZM28.53 27.47l-7.255-7.256c.308-.698.47-1.451.475-2.214V8a5.75 5.75 0 0 0-11.5 0v1.19L4.53 3.47a.75.75 0 0 0-1.06 1.06l24 24a.75.75 0 0 0 1.06-1.06ZM11.75 10.69V8a4.25 4.25 0 0 1 8.5 0v10a4.104 4.104 0 0 1-.147 1.042L11.75 10.69Z"/></svg>