<svg xmlns="http://www.w3.org/2000/svg" width="32" height="32" viewBox="0 0 32 32"><path d="M17.293 23.707a1 1 0 0 0 1.413-1.414l-2.121-2.122A5.907 5.907 0 0 0 17 18V8A5.999 5.999 0 0 0 5.457 5.704 6 6 0 0 0 5 8v.586L3.707 7.293a1 1 0 0 0-1.415 1.414l15 15h.001ZM7 8a4 4 0 0 1 8 0v10c-.004.18-.02.36-.05.537L7 10.586V8Zm12 20h-1.98a4.877 4.877 0 0 1-4.936-4.104 5.958 5.958 0 0 0 1.878-.692l-1.493-1.493A3.984 3.984 0 0 1 7 18v-1.76l-2-2V18a6.004 6.004 0 0 0 5.064 5.92 6.916 6.916 0 0 0 2 4.08H3a1 1 0 0 0 0 2h16a1 1 0 0 0 0-2Zm9-17v-1a3 3 0 0 0-6 0v1a2.003 2.003 0 0 0-2 2v4a2.002 2.002 0 0 0 2 2h6a2.003 2.003 0 0 0 2-2v-4a2.003 2.003 0 0 0-2-2Zm-4-1a1 1 0 0 1 2 0v1h-2v-1Zm-2 7v-4h6l.002 4H22Z"/></svg>