<svg xmlns="http://www.w3.org/2000/svg" width="32" height="32" viewBox="0 0 32 32"><path d="M18 24a1 1 0 0 1-.707-.293l-15-15a1 1 0 1 1 1.414-1.414L5 8.586V8a6 6 0 1 1 12 0v10c0 .743-.142 1.48-.415 2.171l2.121 2.122A1 1 0 0 1 18 24M8.17 5.172A4 4 0 0 0 7 8v2.586l7.95 7.951q.044-.266.05-.537V8A4 4 0 0 0 8.17 5.172M17.021 28H19a1 1 0 0 1 0 2H3a1 1 0 0 1 0-2h9.065a6.9 6.9 0 0 1-2.001-4.08A6.004 6.004 0 0 1 5 18v-3.76l2 2V18a3.983 3.983 0 0 0 5.47 3.712l1.493 1.492a6 6 0 0 1-1.878.693A4.88 4.88 0 0 0 17.02 28M28 10v1a2.003 2.003 0 0 1 2 2v4a2.003 2.003 0 0 1-2 2h-6a2.003 2.003 0 0 1-2-2v-4a2.003 2.003 0 0 1 2-2v-1a3 3 0 0 1 6 0m-3.708-.707A1 1 0 0 0 24 10v1h2v-1a1 1 0 0 0-1.707-.707M22 13v4h6.003L28 13z"/></svg>