<svg xmlns="http://www.w3.org/2000/svg" width="32" height="32" viewBox="0 0 32 32"><path d="M16 3a1 1 0 0 0-1 1v24a1 1 0 0 0 2 0V4a1 1 0 0 0-1-1M12.282 8.04a.99.99 0 0 0-1.123.419l-9 14A1 1 0 0 0 3 23.999h9a1 1 0 0 0 1-1V9a1 1 0 0 0-.718-.958M11 22H4.832L11 12.405zM29.841 22.459l-9-14a1 1 0 0 0-1.84.54v14a1 1 0 0 0 1 1h9a1 1 0 0 0 .84-1.54m-8.84-.46v-9.594L27.167 22zM16 3a1 1 0 0 0-1 1v24a1 1 0 0 0 2 0V4a1 1 0 0 0-1-1M12.282 8.04a.99.99 0 0 0-1.123.419l-9 14A1 1 0 0 0 3 23.999h9a1 1 0 0 0 1-1V9a1 1 0 0 0-.718-.958M11 22H4.832L11 12.405zM29.841 22.459l-9-14a1 1 0 0 0-1.84.54v14a1 1 0 0 0 1 1h9a1 1 0 0 0 .84-1.54m-8.84-.46v-9.594L27.167 22z"/></svg>