<svg xmlns="http://www.w3.org/2000/svg" width="32" height="32" viewBox="0 0 32 32"><path d="M26.5 19.5a2 2 0 1 0 0 4 2 2 0 0 0 0-4m-3 2a3 3 0 1 1 6 0 3 3 0 0 1-6 0M24.146 23.146l.708.708-2.647 2.646 1.147 1.146a.5.5 0 0 1 0 .708l-1 1a.5.5 0 0 1-.708 0l-1.5-1.5a.5.5 0 0 1 0-.708zM21.5 27.207l-.293.293.793.793.293-.293zM16 3.5a5 5 0 1 0 0 10 5 5 0 0 0 0-10m-6 5a6 6 0 1 1 12 0 6 6 0 0 1-12 0M16 14.5c-5.835 0-10.5 4.501-10.5 9.57 0 1.313 1.1 2.424 3.122 3.228 1.986.79 4.668 1.195 7.378 1.195a.5.5 0 1 1 0 1c-2.79 0-5.608-.415-7.747-1.266C6.15 27.391 4.5 26.04 4.5 24.07 4.5 18.38 9.685 13.5 16 13.5c2.537 0 4.883.785 6.786 2.087a.5.5 0 1 1-.566.825A11 11 0 0 0 16 14.5"/></svg>