<svg xmlns="http://www.w3.org/2000/svg" width="32" height="32" viewBox="0 0 32 32"><path d="M11.25 8.5a4.75 4.75 0 1 0 9.5 0 4.75 4.75 0 0 0-9.5 0m11 0a6.25 6.25 0 0 1-2.828 5.231c1.273.367 2.455.931 3.505 1.65a.75.75 0 1 1-.848 1.238A10.75 10.75 0 0 0 16 14.75c-5.716 0-10.25 4.407-10.25 9.32 0 1.148.963 2.2 2.965 2.996 1.947.774 4.595 1.177 7.285 1.177a.75.75 0 0 1 0 1.5c-2.81 0-5.662-.417-7.84-1.283-2.123-.845-3.91-2.256-3.91-4.39 0-4.768 3.535-8.955 8.33-10.338A6.25 6.25 0 1 1 22.25 8.5m4.25 11.25a1.75 1.75 0 1 0 0 3.5 1.75 1.75 0 0 0 0-3.5m-3.25 1.75a3.25 3.25 0 1 1 1.544 2.767L22.56 26.5l.97.97a.75.75 0 0 1 0 1.06l-1 1a.75.75 0 0 1-1.061 0l-1.5-1.5a.75.75 0 0 1 0-1.06l3.763-3.764a3.23 3.23 0 0 1-.483-1.706"/></svg>