<svg xmlns="http://www.w3.org/2000/svg" width="32" height="32" viewBox="0 0 32 32"><path d="M22.5 8.5a6.49 6.49 0 0 1-2.523 5.142c1.115.37 2.154.891 3.091 1.533a1 1 0 1 1-1.13 1.65A10.5 10.5 0 0 0 16 15c-5.596 0-10 4.313-10 9.07 0 .984.825 1.975 2.807 2.764 1.909.759 4.523 1.16 7.193 1.16a1 1 0 1 1 0 2c-2.83 0-5.716-.42-7.932-1.302C5.925 27.839 4 26.369 4 24.07c0-4.73 3.383-8.88 8.025-10.427A6.5 6.5 0 1 1 22.5 8.5m-11 0a4.5 4.5 0 1 0 9 0 4.5 4.5 0 0 0-9 0M23 21.5a3.5 3.5 0 1 1 1.835 3.08l-1.92 1.92.792.793a1 1 0 0 1 0 1.414l-1 1a1 1 0 0 1-1.414 0l-1.5-1.5a1 1 0 0 1 0-1.414l3.628-3.628A3.5 3.5 0 0 1 23 21.5m3.5-1.5a1.5 1.5 0 1 0 0 3 1.5 1.5 0 0 0 0-3"/></svg>