<svg xmlns="http://www.w3.org/2000/svg" width="150" height="151" fill="none" viewBox="0 0 150 151"><path fill="url(#a)" fill-rule="evenodd" d="M101.499.144v48.45c27.595 1.222 49.144 24.316 48.486 51.96s-23.281 49.684-50.903 49.589H48.337v-48.39H0V.143zM8.251 4.984l42.503 42.55 42.494-42.55zm88.453 3.42v40.13H56.588zm-.039 45H53.212l-.04 43.51h43.493zm-91.83 43.51V8.403l43.503 43.55v45zm48.296 48.389h45.91c24.548-.488 44.375-20.209 45.022-44.779s-18.117-45.31-42.605-47.09v48.319H53.131z" clip-rule="evenodd"/><defs><linearGradient id="a" x1="15.483" x2="120.483" y1="126.143" y2="21.258" gradientUnits="userSpaceOnUse"><stop stop-color="#DB1F2E"/><stop offset=".12" stop-color="#F26B1D"/><stop offset=".249" stop-color="#F2990A"/><stop offset=".396" stop-color="#73A321"/><stop offset=".525" stop-color="#00A3B5"/><stop offset=".668" stop-color="#0A78CC"/><stop offset=".828" stop-color="#643ABD"/><stop offset="1" stop-color="#C233C4"/></linearGradient></defs></svg>