<svg xmlns="http://www.w3.org/2000/svg" width="500" height="151" fill="none" viewBox="0 0 500 151"><path fill="#fff" fill-rule="evenodd" d="M101.499.144v48.45c27.595 1.222 49.144 24.316 48.486 51.96s-23.281 49.684-50.903 49.589H48.337v-48.39H0V.143zM8.251 4.984l42.503 42.55 42.494-42.55zm88.453 3.42v40.13H56.588zm-.039 45H53.212l-.04 43.51h43.493zm-91.83 43.51V8.403l43.503 43.55v45zm48.296 48.389h45.91c24.548-.488 44.375-20.209 45.022-44.779s-18.117-45.31-42.604-47.09v48.319H53.131z" clip-rule="evenodd"/><path fill="#fff" d="M460.979 57.497h-5.811V26.023h4.782l.605 3.692q3.209-4.6 9.261-4.6 6.597 0 9.26 4.964 3.147-4.964 10.229-4.964 5.266 0 8.111 3.208 2.541 2.966 2.542 8.11v21.064h-5.811v-20.64q0-6.778-6.113-6.778-3.632 0-5.81 2.844-1.756 2.301-1.756 5.387v19.187h-5.81v-20.64q0-6.778-6.113-6.778-3.39 0-5.629 2.663-1.937 2.239-1.937 5.387zM420.76 26.023h5.811v20.64q0 6.78 6.537 6.779 3.995 0 6.113-2.845 1.634-2.179 1.634-5.387V26.023h5.811v31.474h-4.782l-.666-3.632q-3.328 4.54-9.442 4.54-5.387 0-8.292-3.33-2.724-3.086-2.724-8.533zM415.6 52.837V57.8q-2.24.605-4.298.605-4.357 0-6.537-2.724-1.875-2.24-1.876-5.992V30.987h-4.66v-4.964h4.66l.363-7.565h5.448v7.565h6.779v4.964H408.7V49.81q0 3.51 3.329 3.51 1.573 0 3.571-.483M373.026 57.497h-5.81V26.023h4.782l.665 3.995q3.511-4.903 9.563-4.903 5.57 0 8.535 3.45 2.602 3.087 2.602 8.414v20.518h-5.81V37.039q0-6.96-6.719-6.96-3.51 0-5.75 2.42-2.058 2.18-2.058 5.57zM353.591 48.418h6.295q-1.332 4.782-5.266 7.505-3.692 2.482-8.837 2.482-7.444 0-11.621-4.721-3.813-4.419-3.813-11.924 0-8.535 4.842-12.952 3.995-3.693 10.29-3.693 7.384 0 11.137 4.782 3.631 4.6 3.631 13.134h-23.968q.363 5.569 3.389 8.292 2.482 2.18 6.295 2.18 2.966 0 5.145-1.635 1.816-1.392 2.481-3.45m-7.989-18.642q-3.875 0-6.234 2.421-2.24 2.24-2.845 6.234h17.795q-.303-4.54-3.027-6.779-2.178-1.875-5.689-1.876M285.015 57.497h-5.81V26.023h4.781l.605 3.692q3.208-4.6 9.261-4.6 6.597 0 9.26 4.964 3.148-4.964 10.229-4.964 5.266 0 8.111 3.208 2.542 2.966 2.542 8.11v21.064h-5.811v-20.64q0-6.778-6.113-6.778-3.632 0-5.81 2.844-1.755 2.301-1.755 5.387v19.187h-5.811v-20.64q0-6.778-6.113-6.778-3.39 0-5.629 2.663-1.937 2.239-1.937 5.387zM241.51 41.76q0-8.655 5.145-13.073 4.116-3.572 10.411-3.572 7.323 0 11.5 4.66 3.994 4.358 3.994 11.985 0 8.535-5.023 13.013-4.116 3.632-10.532 3.632-7.324 0-11.56-4.842-3.935-4.419-3.935-11.803m6.053 0q0 6.053 3.087 9.26 2.542 2.664 6.476 2.664 4.6 0 7.082-3.45 2.3-3.147 2.3-8.474 0-6.174-3.027-9.32-2.481-2.604-6.415-2.603-4.54 0-7.082 3.45-2.421 3.147-2.421 8.473M196.176 57.497h-5.81V26.023h4.781l.605 3.692q3.208-4.6 9.261-4.6 6.597 0 9.26 4.964 3.148-4.964 10.229-4.964 5.266 0 8.111 3.208 2.542 2.966 2.542 8.11v21.064h-5.81v-20.64q0-6.778-6.114-6.778-3.632 0-5.81 2.844-1.755 2.301-1.755 5.387v19.187h-5.811v-20.64q0-6.778-6.113-6.778-3.39 0-5.629 2.663-1.937 2.239-1.937 5.387zM350.211 111.242H344.4V79.768h4.782l.666 3.995q3.51-4.903 9.563-4.903 5.568 0 8.534 3.45 2.603 3.087 2.603 8.414v20.518h-5.811V90.784q0-6.96-6.718-6.96-3.511 0-5.75 2.42-2.058 2.18-2.058 5.569zM307.154 113.36h6.234q.425 2.421 2.421 3.753 2.058 1.332 5.387 1.332 4.66 0 6.961-2.422 1.936-2.057 1.936-5.75v-4.055q-3.51 4.116-10.471 4.116-6.294 0-10.229-4.539-3.692-4.238-3.692-11.016 0-7.869 4.479-12.166 3.813-3.753 9.806-3.753 6.778 0 10.228 5.085l.908-4.177h4.782v30.808q0 5.933-4.297 9.321-3.875 3.147-10.229 3.148-6.599 0-10.35-2.966-3.148-2.482-3.874-6.719m4.6-18.46q0 5.145 3.026 8.05 2.482 2.421 6.113 2.421 4.782 0 7.324-3.148 2.18-2.663 2.179-7.142 0-5.75-2.966-8.776-2.481-2.481-6.537-2.482-4.479 0-6.9 3.087-2.24 2.905-2.239 7.99M299.387 74.502h-6.537v-6.839h6.537zm-.363 36.74h-5.811V79.768h5.811zM280.7 102.708q0-2.663-2.784-3.995-1.635-.726-6.356-1.816-5.81-1.27-8.292-3.692-2.058-2.058-2.058-5.387 0-4.418 3.571-6.779 3.208-2.178 8.656-2.179 5.628 0 9.139 2.784 3.026 2.422 3.753 6.416h-5.932q-1.029-4.6-7.021-4.6-3.329 0-4.963 1.21-1.332 1.03-1.332 2.603 0 1.938 1.453 2.906 1.514.968 5.871 1.937 6.658 1.452 9.261 3.57 2.904 2.36 2.905 6.598 0 4.72-3.874 7.445-3.51 2.421-9.26 2.421-6.296 0-9.987-3.027-3.208-2.663-3.571-6.9h5.931q.969 5.327 7.687 5.327 3.631 0 5.629-1.574 1.574-1.271 1.574-3.268M248.675 102.163h6.295q-1.332 4.782-5.266 7.505-3.692 2.482-8.837 2.482-7.445 0-11.621-4.721-3.813-4.418-3.813-11.924 0-8.535 4.842-12.953 3.995-3.692 10.29-3.692 7.384 0 11.136 4.782 3.632 4.6 3.632 13.134h-23.968q.363 5.568 3.389 8.292 2.481 2.18 6.295 2.179 2.965 0 5.145-1.634 1.815-1.392 2.481-3.45m-7.989-18.642q-3.874 0-6.235 2.42-2.24 2.24-2.844 6.235h17.794q-.302-4.54-3.026-6.779-2.179-1.876-5.689-1.876M218.752 111.242h-4.781l-1.029-4.418q-3.631 5.325-10.471 5.326-6.597 0-10.411-4.782-3.51-4.418-3.51-11.681 0-8.777 4.479-13.195 3.753-3.632 9.805-3.632 6.537 0 10.108 4.903v-16.1h5.81zm-24.15-15.434q0 5.871 2.906 8.897 2.421 2.481 6.234 2.482 4.721 0 7.324-3.571 2.178-3.087 2.179-7.748 0-6.113-2.906-9.32-2.481-2.725-6.597-2.725-4.6 0-6.961 3.33-2.178 3.025-2.179 8.655"/></svg>