<svg xmlns="http://www.w3.org/2000/svg" width="500" height="151" fill="none" viewBox="0 0 500 151"><path fill="#000" fill-rule="evenodd" d="M101.499.344v48.45c27.595 1.223 49.144 24.316 48.486 51.96s-23.281 49.684-50.903 49.589H48.337v-48.389H0V.344zM8.251 5.184l42.503 42.55 42.494-42.55zm88.453 3.42v40.13H56.588zm-.039 45H53.212l-.04 43.51h43.493zm-91.83 43.51V8.604l43.503 43.55v45zm48.296 48.39h45.91c24.548-.488 44.375-20.209 45.022-44.78.646-24.57-18.117-45.31-42.604-47.09v48.32H53.131z" clip-rule="evenodd"/><path fill="#000" d="M460.979 57.697h-5.811V26.224h4.782l.605 3.692q3.209-4.6 9.261-4.6 6.597 0 9.26 4.963 3.147-4.963 10.229-4.963 5.266 0 8.111 3.207 2.541 2.967 2.542 8.111v21.063h-5.811v-20.64q0-6.778-6.113-6.778-3.632 0-5.81 2.845-1.756 2.3-1.756 5.386v19.187h-5.81v-20.64q0-6.778-6.113-6.778-3.39 0-5.629 2.663-1.937 2.239-1.937 5.387zM420.76 26.224h5.811v20.639q0 6.78 6.537 6.779 3.995 0 6.113-2.845 1.634-2.178 1.634-5.387V26.224h5.811v31.473h-4.782l-.666-3.631q-3.328 4.54-9.442 4.54-5.387 0-8.292-3.33-2.724-3.087-2.724-8.534zM415.6 53.037V58q-2.24.605-4.298.605-4.357 0-6.537-2.724-1.875-2.24-1.876-5.992V31.187h-4.66v-4.963h4.66l.363-7.566h5.448v7.566h6.779v4.963H408.7V50.01q0 3.51 3.329 3.51 1.573 0 3.571-.483M373.026 57.697h-5.81V26.224h4.782l.665 3.994q3.511-4.902 9.563-4.902 5.57 0 8.535 3.45 2.602 3.087 2.602 8.413v20.518h-5.81V37.24q0-6.96-6.719-6.96-3.51 0-5.75 2.42-2.058 2.18-2.058 5.57zM353.591 48.618h6.295q-1.332 4.782-5.266 7.505-3.692 2.482-8.837 2.482-7.444 0-11.621-4.721-3.813-4.418-3.813-11.924 0-8.535 4.842-12.952 3.995-3.692 10.29-3.692 7.384 0 11.137 4.781 3.631 4.6 3.631 13.134h-23.968q.363 5.57 3.389 8.292 2.482 2.18 6.295 2.18 2.966 0 5.145-1.635 1.816-1.392 2.481-3.45m-7.989-18.642q-3.875 0-6.234 2.421-2.24 2.24-2.845 6.234h17.795q-.303-4.54-3.027-6.779-2.178-1.876-5.689-1.876M285.015 57.697h-5.81V26.224h4.781l.605 3.692q3.208-4.6 9.261-4.6 6.597 0 9.26 4.963 3.148-4.963 10.229-4.963 5.266 0 8.111 3.207 2.542 2.967 2.542 8.111v21.063h-5.811v-20.64q0-6.778-6.113-6.778-3.632 0-5.81 2.845-1.755 2.3-1.755 5.386v19.187h-5.811v-20.64q0-6.778-6.113-6.778-3.39 0-5.629 2.663-1.937 2.239-1.937 5.387zM241.51 41.96q0-8.655 5.145-13.073 4.116-3.571 10.411-3.571 7.323 0 11.5 4.66 3.994 4.358 3.994 11.984 0 8.534-5.023 13.014-4.116 3.63-10.532 3.631-7.324 0-11.56-4.842-3.935-4.419-3.935-11.803m6.053 0q0 6.053 3.087 9.26 2.542 2.664 6.476 2.664 4.6 0 7.082-3.45 2.3-3.147 2.3-8.474 0-6.174-3.027-9.32-2.481-2.604-6.415-2.603-4.54 0-7.082 3.45-2.421 3.147-2.421 8.473M196.176 57.697h-5.81V26.224h4.781l.605 3.692q3.208-4.6 9.261-4.6 6.597 0 9.26 4.963 3.148-4.963 10.229-4.963 5.266 0 8.111 3.207 2.542 2.967 2.542 8.111v21.063h-5.81v-20.64q0-6.778-6.114-6.778-3.632 0-5.81 2.845-1.755 2.3-1.755 5.386v19.187h-5.811v-20.64q0-6.778-6.113-6.778-3.39 0-5.629 2.663-1.937 2.239-1.937 5.387zM350.211 111.442H344.4V79.968h4.782l.666 3.995q3.51-4.902 9.563-4.902 5.568 0 8.534 3.45 2.603 3.086 2.603 8.413v20.518h-5.811V90.984q0-6.96-6.718-6.96-3.511 0-5.75 2.42-2.058 2.18-2.058 5.57zM307.154 113.561h6.234q.425 2.42 2.421 3.752 2.058 1.332 5.387 1.332 4.66 0 6.961-2.421 1.936-2.058 1.936-5.75v-4.056q-3.51 4.116-10.471 4.116-6.294 0-10.229-4.539-3.692-4.237-3.692-11.016 0-7.868 4.479-12.166 3.813-3.752 9.806-3.752 6.778 0 10.228 5.084l.908-4.177h4.782v30.808q0 5.933-4.297 9.321-3.875 3.148-10.229 3.148-6.599 0-10.35-2.966-3.148-2.481-3.874-6.718m4.6-18.461q0 5.145 3.026 8.05 2.482 2.421 6.113 2.421 4.782 0 7.324-3.147 2.18-2.664 2.179-7.142 0-5.751-2.966-8.777-2.481-2.481-6.537-2.481-4.479 0-6.9 3.087-2.24 2.905-2.239 7.989M299.387 74.703h-6.537v-6.84h6.537zm-.363 36.739h-5.811V79.968h5.811zM280.7 102.908q0-2.663-2.784-3.995-1.635-.727-6.356-1.816-5.81-1.27-8.292-3.692-2.058-2.058-2.058-5.387 0-4.418 3.571-6.778 3.208-2.18 8.656-2.18 5.628 0 9.139 2.785 3.026 2.42 3.753 6.415h-5.932q-1.029-4.6-7.021-4.6-3.329 0-4.963 1.211-1.332 1.03-1.332 2.603 0 1.936 1.453 2.905 1.514.968 5.871 1.937 6.658 1.453 9.261 3.57 2.904 2.362 2.905 6.598 0 4.722-3.874 7.445-3.51 2.421-9.26 2.421-6.296 0-9.987-3.026-3.208-2.664-3.571-6.9h5.931q.969 5.326 7.687 5.326 3.631 0 5.629-1.574 1.574-1.271 1.574-3.268M248.675 102.363h6.295q-1.332 4.782-5.266 7.505-3.692 2.482-8.837 2.482-7.445 0-11.621-4.721-3.813-4.419-3.813-11.924 0-8.535 4.842-12.952 3.995-3.692 10.29-3.692 7.384 0 11.136 4.781 3.632 4.6 3.632 13.134h-23.968q.363 5.57 3.389 8.292 2.481 2.18 6.295 2.179 2.965 0 5.145-1.634 1.815-1.392 2.481-3.45m-7.989-18.642q-3.874 0-6.235 2.421-2.24 2.24-2.844 6.234h17.794q-.302-4.54-3.026-6.779-2.179-1.876-5.689-1.876M218.752 111.442h-4.781l-1.029-4.418q-3.631 5.326-10.471 5.326-6.597 0-10.411-4.782-3.51-4.418-3.51-11.681 0-8.777 4.479-13.195 3.753-3.63 9.805-3.631 6.537 0 10.108 4.902v-16.1h5.81zm-24.15-15.434q0 5.871 2.906 8.897 2.421 2.482 6.234 2.482 4.721 0 7.324-3.571 2.178-3.087 2.179-7.748 0-6.113-2.906-9.32-2.481-2.724-6.597-2.724-4.6 0-6.961 3.329-2.178 3.025-2.179 8.655"/></svg>