<svg xmlns="http://www.w3.org/2000/svg" width="312" height="287" fill="none" viewBox="0 0 312 287"><path fill="#000" fill-rule="evenodd" d="M102.602.344v48.448c27.594 1.223 49.143 24.316 48.485 51.96-.658 27.643-23.281 49.682-50.902 49.588H49.441v-48.389H1.105V.344zM9.356 5.184l42.503 42.549L94.35 5.183zm88.451 3.42v40.129H57.692zm-.039 44.998H54.317l-.04 43.51h43.491zM5.941 97.112V8.603l43.501 43.548v45zM54.235 145.5h45.909c24.547-.488 44.374-20.209 45.021-44.779s-18.116-45.308-42.604-47.089v48.319H54.235z" clip-rule="evenodd"/><path fill="#000" d="M272.422 220.772h-5.81v-31.473h4.781l.605 3.692q3.209-4.6 9.261-4.6 6.597 0 9.26 4.963 3.147-4.963 10.229-4.963 5.265 0 8.11 3.208 2.542 2.965 2.542 8.11v21.063h-5.81v-20.639q0-6.779-6.113-6.779-3.631 0-5.811 2.845-1.755 2.3-1.755 5.386v19.187h-5.81v-20.639q0-6.779-6.113-6.779-3.39 0-5.629 2.663-1.937 2.24-1.937 5.387zM232.205 189.299h5.81v20.639q0 6.778 6.537 6.778 3.995 0 6.113-2.844 1.634-2.179 1.634-5.387v-19.186h5.81v31.473h-4.781l-.666-3.632q-3.328 4.54-9.442 4.54-5.387 0-8.292-3.329-2.723-3.087-2.723-8.534zM227.044 216.111v4.963q-2.24.606-4.297.606-4.358 0-6.537-2.724-1.876-2.24-1.876-5.992v-18.702h-4.661v-4.963h4.661l.363-7.566h5.447v7.566h6.779v4.963h-6.779v18.823q0 3.51 3.329 3.51 1.574 0 3.571-.484M184.472 220.772h-5.81v-31.473h4.781l.666 3.994q3.51-4.902 9.563-4.902 5.568 0 8.534 3.45 2.602 3.087 2.602 8.413v20.518h-5.81v-20.458q0-6.96-6.718-6.96-3.511 0-5.75 2.421-2.058 2.18-2.058 5.568zM165.037 211.693h6.295q-1.332 4.781-5.266 7.505-3.692 2.482-8.836 2.482-7.445 0-11.621-4.721-3.813-4.418-3.813-11.924 0-8.534 4.842-12.952 3.995-3.692 10.289-3.692 7.384 0 11.137 4.781 3.631 4.6 3.631 13.134h-23.968q.363 5.568 3.39 8.292 2.481 2.18 6.294 2.179 2.966 0 5.145-1.634 1.816-1.392 2.481-3.45m-7.989-18.642q-3.873 0-6.234 2.421-2.24 2.24-2.845 6.234h17.795q-.303-4.539-3.027-6.778-2.178-1.877-5.689-1.877M96.463 220.772h-5.81v-31.473h4.78l.606 3.692q3.208-4.6 9.26-4.6 6.598 0 9.261 4.963 3.147-4.963 10.228-4.963 5.266 0 8.111 3.208 2.541 2.965 2.542 8.11v21.063h-5.811v-20.639q0-6.779-6.113-6.779-3.631 0-5.81 2.845-1.755 2.3-1.755 5.386v19.187h-5.811v-20.639q0-6.779-6.113-6.779-3.39 0-5.628 2.663-1.937 2.24-1.937 5.387zM52.96 205.035q0-8.655 5.144-13.073 4.116-3.571 10.41-3.571 7.323 0 11.5 4.66 3.994 4.358 3.994 11.984 0 8.534-5.023 13.013-4.116 3.632-10.531 3.632-7.324 0-11.56-4.842-3.935-4.419-3.935-11.803m6.052 0q0 6.053 3.086 9.26 2.542 2.664 6.477 2.664 4.6 0 7.081-3.45 2.3-3.148 2.3-8.474 0-6.172-3.026-9.321-2.482-2.602-6.416-2.602-4.54 0-7.081 3.45-2.421 3.147-2.421 8.473M7.626 220.772h-5.81v-31.473h4.781l.605 3.692q3.209-4.6 9.26-4.6 6.599 0 9.261 4.963 3.147-4.963 10.229-4.963 5.265 0 8.11 3.208 2.542 2.965 2.542 8.11v21.063h-5.81v-20.639q0-6.779-6.113-6.779-3.632 0-5.81 2.845-1.756 2.3-1.756 5.386v19.187h-5.81v-20.639q0-6.779-6.113-6.779-3.39 0-5.63 2.663-1.936 2.24-1.936 5.387zM161.657 274.515h-5.81v-31.473h4.781l.666 3.995q3.51-4.903 9.563-4.903 5.568 0 8.534 3.45 2.602 3.087 2.602 8.413v20.518h-5.81v-20.457q0-6.96-6.718-6.961-3.511 0-5.75 2.421-2.058 2.18-2.058 5.569zM118.601 276.634h6.234q.425 2.42 2.421 3.752 2.058 1.332 5.387 1.332 4.66 0 6.96-2.421 1.937-2.058 1.937-5.75v-4.055q-3.51 4.115-10.471 4.115-6.294 0-10.228-4.539-3.693-4.237-3.692-11.016 0-7.868 4.478-12.165 3.813-3.753 9.805-3.753 6.78 0 10.229 5.085l.908-4.177h4.781v30.807q0 5.932-4.297 9.321-3.873 3.148-10.229 3.148-6.597 0-10.349-2.966-3.148-2.482-3.874-6.718m4.6-18.461q0 5.145 3.026 8.05 2.482 2.421 6.113 2.421 4.782 0 7.324-3.147 2.179-2.663 2.179-7.142 0-5.75-2.966-8.776-2.481-2.481-6.537-2.482-4.479 0-6.9 3.087-2.24 2.906-2.239 7.989M110.834 237.777h-6.537v-6.84h6.537zm-.363 36.738h-5.81v-31.473h5.81zM92.148 265.981q0-2.663-2.785-3.994-1.633-.727-6.355-1.816-5.81-1.272-8.292-3.692-2.057-2.058-2.057-5.387 0-4.418 3.57-6.779 3.209-2.179 8.656-2.179 5.628 0 9.139 2.785 3.026 2.42 3.752 6.415h-5.931q-1.029-4.6-7.02-4.6-3.33 0-4.964 1.211-1.332 1.029-1.332 2.602 0 1.938 1.453 2.906 1.513.968 5.871 1.936 6.658 1.453 9.26 3.571 2.906 2.36 2.906 6.598 0 4.72-3.874 7.444-3.51 2.421-9.26 2.421-6.296 0-9.987-3.026-3.208-2.664-3.571-6.9h5.932q.967 5.326 7.686 5.326 3.631 0 5.629-1.573 1.574-1.272 1.574-3.269M60.124 265.436h6.294q-1.331 4.782-5.265 7.506-3.693 2.481-8.837 2.481-7.444 0-11.62-4.721-3.814-4.418-3.814-11.923 0-8.534 4.842-12.953 3.995-3.692 10.29-3.692 7.383 0 11.136 4.782 3.631 4.599 3.631 13.134H42.814q.363 5.568 3.39 8.292 2.48 2.178 6.294 2.179 2.966 0 5.144-1.635 1.815-1.392 2.482-3.45m-7.99-18.641q-3.873 0-6.233 2.421-2.24 2.24-2.845 6.234H60.85q-.302-4.54-3.026-6.779-2.18-1.876-5.69-1.876M30.202 274.515H25.42l-1.029-4.418q-3.63 5.326-10.47 5.326-6.598 0-10.41-4.781Q0 266.223 0 258.96q0-8.776 4.479-13.194 3.753-3.632 9.805-3.632 6.537 0 10.108 4.903v-16.1h5.81zm-24.15-15.434q0 5.871 2.906 8.898 2.421 2.481 6.234 2.481 4.72 0 7.323-3.571 2.18-3.087 2.18-7.747-.001-6.113-2.906-9.321-2.482-2.724-6.597-2.724-4.6 0-6.96 3.329-2.18 3.027-2.18 8.655"/></svg>