<svg xmlns="http://www.w3.org/2000/svg" width="32" height="32" viewBox="0 0 32 32"><path d="M16 17a3 3 0 1 0 0-6 3 3 0 0 0 0 6m0-2a1 1 0 1 1 0-2 1 1 0 0 1 0 2m-5.195-4.94C12.082 8.962 13.825 8 16 8s3.918.962 5.195 2.06c1.271 1.094 2.134 2.368 2.583 3.125a1.61 1.61 0 0 1 0 1.632c-.45.756-1.312 2.03-2.583 3.123C19.918 19.038 18.175 20 16 20s-3.918-.962-5.195-2.06c-1.271-1.094-2.134-2.368-2.583-3.125a1.61 1.61 0 0 1 0-1.632c.45-.756 1.312-2.03 2.583-3.123M10.067 14c.411.66 1.1 1.613 2.043 2.424C13.15 17.32 14.449 18 16 18s2.849-.68 3.89-1.576c.943-.811 1.631-1.764 2.043-2.424-.412-.66-1.1-1.613-2.043-2.424C18.85 10.68 17.551 10 16 10s-2.849.68-3.89 1.576c-.943.811-1.632 1.764-2.043 2.424m18.93 7.181a1.786 1.786 0 0 1 .947 2.037A5.046 5.046 0 0 1 25.03 27H6.971a5.05 5.05 0 0 1-4.916-3.784 1.76 1.76 0 0 1 .318-1.522A1.79 1.79 0 0 1 3.795 21H4V10.135A5.074 5.074 0 0 1 9 5h14a5.074 5.074 0 0 1 5 5.135V21h.205c.275-.001.546.06.792.181M6.852 7.947A3.07 3.07 0 0 0 6 10.135V21h20V10.135A3.073 3.073 0 0 0 23 7H9c-.813.02-1.586.36-2.148.947M6.971 25h18.058a3.06 3.06 0 0 0 2.893-2H4.078a3.06 3.06 0 0 0 2.893 2"/></svg>