<svg xmlns="http://www.w3.org/2000/svg" width="32" height="32" viewBox="0 0 32 32"><path d="M16 17a3 3 0 1 0 0-6 3 3 0 0 0 0 6m0-1.5a1.5 1.5 0 1 1 0-3 1.5 1.5 0 0 1 0 3m-5.031-5.25c1.247-1.074 2.934-2 5.031-2 2.098 0 3.785.926 5.032 2 1.243 1.07 2.089 2.317 2.53 3.061a1.31 1.31 0 0 1 .001 1.377c-.441.744-1.288 1.992-2.531 3.062-1.247 1.074-2.934 2-5.032 2s-3.784-.926-5.031-2c-1.244-1.07-2.09-2.318-2.532-3.062a1.36 1.36 0 0 1 0-1.377c.442-.744 1.289-1.992 2.532-3.062M9.774 14c.407.673 1.14 1.724 2.173 2.613 1.07.922 2.424 1.637 4.053 1.637s2.983-.715 4.053-1.637c1.034-.889 1.766-1.94 2.174-2.613-.408-.673-1.14-1.724-2.174-2.613C18.983 10.465 17.63 9.75 16 9.75s-2.982.715-4.053 1.636c-1.034.89-1.766 1.94-2.173 2.614m19.113 7.406a1.54 1.54 0 0 1 .832 1.064c.047.226.041.461-.017.685a4.8 4.8 0 0 1-4.673 3.595H6.971a4.8 4.8 0 0 1-4.673-3.596 1.5 1.5 0 0 1 .272-1.306 1.54 1.54 0 0 1 1.225-.598h.455V10.135A4.824 4.824 0 0 1 9 5.25h14a4.824 4.824 0 0 1 4.75 4.885V21.25h.455c.237-.001.47.052.682.156M6.676 7.77a3.32 3.32 0 0 0-.926 2.364V21.25h20.5V10.135A3.323 3.323 0 0 0 23 6.75H9c-.88.02-1.715.386-2.324 1.02M6.97 25.25h18.058a3.3 3.3 0 0 0 3.22-2.465l-.044-.035H3.795a3.21 3.21 0 0 0 3.176 2.5"/></svg>