<svg xmlns="http://www.w3.org/2000/svg" width="32" height="32" viewBox="0 0 32 32"><path d="M19 14a3 3 0 1 1-6 0 3 3 0 0 1 6 0m-1 0a2 2 0 1 0-4 0 2 2 0 0 0 4 0m-6.868-3.561C12.349 9.391 13.98 8.5 16 8.5s3.65.891 4.869 1.939c1.215 1.046 2.045 2.27 2.479 3 .203.34.202.782 0 1.122-.434.731-1.265 1.954-2.48 3C19.652 18.609 18.02 19.5 16 19.5s-3.65-.891-4.868-1.939c-1.216-1.046-2.046-2.27-2.48-3a1.11 1.11 0 0 1 0-1.122c.435-.731 1.265-1.954 2.48-3m.652.758c-1.103.949-1.868 2.072-2.272 2.753l-.001.002a.11.11 0 0 0 0 .096l.001.002c.404.68 1.17 1.804 2.272 2.753 1.1.947 2.508 1.697 4.216 1.697 1.707 0 3.116-.75 4.216-1.697 1.103-.949 1.868-2.072 2.272-2.753l.001-.002a.11.11 0 0 0 0-.096l-.001-.002c-.404-.68-1.17-1.804-2.272-2.753C19.116 10.25 17.707 9.5 16 9.5s-3.116.75-4.216 1.697M29.23 22.001a1.29 1.29 0 0 0-1.026-.501H27.5V10.135A4.574 4.574 0 0 0 23 5.5H9a4.574 4.574 0 0 0-4.5 4.635V21.5h-.705a1.29 1.29 0 0 0-1.268 1.02c-.04.19-.035.386.013.573A4.55 4.55 0 0 0 6.97 26.5h18.06a4.55 4.55 0 0 0 4.43-3.406A1.26 1.26 0 0 0 29.231 22M5.5 10.135A3.573 3.573 0 0 1 9 6.5h14a3.573 3.573 0 0 1 3.5 3.635V21.5h-21zM25.03 25.5H6.97a3.55 3.55 0 0 1-3.461-2.654.27.27 0 0 1 .049-.232.3.3 0 0 1 .237-.114h24.41a.3.3 0 0 1 .237.114.27.27 0 0 1 .05.233 3.55 3.55 0 0 1-3.463 2.653"/></svg>