<svg xmlns="http://www.w3.org/2000/svg" width="32" height="32" viewBox="0 0 32 32"><path d="M10 2a1 1 0 0 1 1 1v2h10V3a1 1 0 1 1 2 0v2a5 5 0 0 1 4.997 5v4.589l.296-.296a1 1 0 0 1 1.414 1.414l-2 2a1 1 0 0 1-1.414 0l-2-2a1 1 0 0 1 1.414-1.414l.29.29V10a3 3 0 0 0-3-3h-14a3 3 0 0 0-3 3v3a1 1 0 1 1-2 0v-3a5 5 0 0 1 5-5H9V3a1 1 0 0 1 1-1m3.634 16.73q-.27.29-.75.29-.41 0-.67-.21a.97.97 0 0 1-.31-.6h-1.55q.07.78.68 1.31.71.63 1.87.63 1.09 0 1.79-.52.8-.61.8-1.66 0-.61-.42-1.1a1.77 1.77 0 0 0-1.19-.63q.57-.09.98-.48.47-.46.47-1.07 0-.85-.61-1.33-.64-.51-1.71-.51-.96 0-1.62.43a1.95 1.95 0 0 0-.88 1.38h1.52q.15-.69.89-.69a.85.85 0 0 1 .56.19q.27.24.27.66 0 .41-.27.67a1 1 0 0 1-.73.29h-.69v1.07h.61q1.21 0 1.21 1.15 0 .46-.25.73m4.956-4.29V20h1.56v-7H18.6l-1.61.85v1.41zM4.293 16.293a1 1 0 0 1 1.414 0l2 2a1 1 0 1 1-1.414 1.414l-.296-.296V24a3 3 0 0 0 3 3h14a3 3 0 0 0 3-3v-3a1 1 0 1 1 2 0v3a5 5 0 0 1-5 5h-14a5 5 0 0 1-5-5v-4.583l-.29.29a1 1 0 0 1-1.414-1.414z"/></svg>