<svg xmlns="http://www.w3.org/2000/svg" width="32" height="32" viewBox="0 0 32 32"><path d="M10 2.5a.5.5 0 0 1 .5.5v2.5h11V3a.5.5 0 0 1 1 0v2.5h.497a4.5 4.5 0 0 1 4.5 4.5v5.796l1.15-1.15a.5.5 0 0 1 .707.708l-2 2a.5.5 0 0 1-.708 0l-2-2a.5.5 0 0 1 .708-.708l1.143 1.144V10a3.5 3.5 0 0 0-3.5-3.5h-14a3.5 3.5 0 0 0-3.5 3.5v3a.5.5 0 0 1-1 0v-3a4.5 4.5 0 0 1 4.5-4.5H9.5V3a.5.5 0 0 1 .5-.5M5.354 16.646a.5.5 0 0 0-.708 0l-2 2a.5.5 0 0 0 .708.708l1.143-1.144V24a4.5 4.5 0 0 0 4.5 4.5h14a4.5 4.5 0 0 0 4.5-4.5v-3a.5.5 0 0 0-1 0v3a3.5 3.5 0 0 1-3.5 3.5h-14a3.5 3.5 0 0 1-3.5-3.5v-5.796l1.15 1.15a.5.5 0 0 0 .707-.708zm9.37 2.994q.77-.58.77-1.55 0-.69-.4-1.17-.41-.49-1.1-.64.52-.16.86-.55.4-.45.4-1.05 0-.83-.61-1.32-.64-.51-1.66-.51-.93 0-1.58.43-.75.49-.89 1.37h1.01q.07-.42.4-.69.39-.31 1.01-.31.51 0 .87.23.47.31.47.87 0 .53-.34.85-.33.32-.82.32h-.56v.83h.58q.51 0 .88.26.5.36.5 1.06 0 .53-.35.87-.41.4-1.17.4-1.23 0-1.48-1.08h-1.02q.11.8.69 1.29.68.59 1.83.59 1.04 0 1.71-.5M18.9 20h.95v-7h-.94l-1.58.82v.99L18.9 14z"/></svg>