<svg xmlns="http://www.w3.org/2000/svg" width="32" height="32" viewBox="0 0 32 32"><path d="M10 2.5a.5.5 0 0 1 .5.5v2.5h11V3a.5.5 0 0 1 1 0v2.5h.497a4.5 4.5 0 0 1 4.5 4.5v5.796l1.15-1.15a.5.5 0 0 1 .707.708l-2 2a.5.5 0 0 1-.708 0l-2-2a.5.5 0 0 1 .708-.708l1.143 1.144V10a3.5 3.5 0 0 0-3.5-3.5h-14a3.5 3.5 0 0 0-3.5 3.5v3a.5.5 0 0 1-1 0v-3a4.5 4.5 0 0 1 4.5-4.5H9.5V3a.5.5 0 0 1 .5-.5ZM5.354 16.646a.5.5 0 0 0-.708 0l-2 2a.5.5 0 0 0 .708.708l1.143-1.144V24a4.5 4.5 0 0 0 4.5 4.5h14a4.5 4.5 0 0 0 4.5-4.5v-3a.5.5 0 0 0-1 0v3a3.5 3.5 0 0 1-3.5 3.5h-14a3.5 3.5 0 0 1-3.5-3.5v-5.796l1.15 1.15a.5.5 0 0 0 .707-.708l-2-2Zm9.37 2.994c.513-.387.77-.903.77-1.55 0-.46-.133-.85-.4-1.17-.273-.327-.64-.54-1.1-.64.347-.107.633-.29.86-.55.267-.3.4-.65.4-1.05 0-.553-.203-.993-.61-1.32-.427-.34-.98-.51-1.66-.51-.62 0-1.147.143-1.58.43-.5.327-.797.783-.89 1.37h1.01c.047-.28.18-.51.4-.69.26-.207.597-.31 1.01-.31.34 0 .63.077.87.23.313.207.47.497.47.87 0 .353-.113.637-.34.85-.22.213-.493.32-.82.32h-.56v.83h.58c.34 0 .633.087.88.26.333.24.5.593.5 1.06 0 .353-.117.643-.35.87-.273.267-.663.4-1.17.4-.82 0-1.313-.36-1.48-1.08h-1.02c.073.533.303.963.69 1.29.453.393 1.063.59 1.83.59.693 0 1.263-.167 1.71-.5ZM18.9 20h.95v-7h-.94l-1.58.82v.99L18.9 14v6Z"/></svg>