<svg xmlns="http://www.w3.org/2000/svg" width="32" height="32" viewBox="0 0 32 32"><path d="M10 2.25a.75.75 0 0 1 .75.75v2.25h10.5V3a.75.75 0 0 1 1.5 0v2.25h.247a4.75 4.75 0 0 1 4.75 4.75v5.192l.723-.722a.75.75 0 1 1 1.06 1.06l-2 2a.75.75 0 0 1-1.06 0l-2-2a.75.75 0 1 1 1.06-1.06l.717.716V10a3.25 3.25 0 0 0-3.25-3.25h-14A3.25 3.25 0 0 0 5.747 10v3a.75.75 0 0 1-1.5 0v-3a4.75 4.75 0 0 1 4.75-4.75h.253V3a.75.75 0 0 1 .75-.75M5.53 16.47a.75.75 0 0 0-1.06 0l-2 2a.75.75 0 1 0 1.06 1.06l.717-.716V24a4.75 4.75 0 0 0 4.75 4.75h14a4.75 4.75 0 0 0 4.75-4.75v-3a.75.75 0 0 0-1.5 0v3a3.25 3.25 0 0 1-3.25 3.25h-14A3.25 3.25 0 0 1 5.747 24v-5.192l.723.722a.75.75 0 0 0 1.06-1.06zm9.554.43a1.82 1.82 0 0 0-1.14-.64q.54-.13.91-.52.43-.46.43-1.06 0-.83-.61-1.32-.64-.51-1.68-.51-.94 0-1.6.43-.75.49-.88 1.37h1.21a1 1 0 0 1 .35-.61q.32-.26.85-.26.44 0 .75.22.39.27.39.78 0 .48-.31.77-.32.31-.79.31h-.61v.93h.59q.53 0 .87.25.45.33.45 1 0 .5-.31.81-.36.36-1.01.36-1.08 0-1.28-.97h-1.23q.1.79.68 1.3.7.6 1.85.6 1.06 0 1.75-.51.78-.59.78-1.59 0-.66-.41-1.14M18.78 20h1.19v-7h-1.18l-1.6.83v1.16l1.59-.81z"/></svg>