<svg xmlns="http://www.w3.org/2000/svg" width="32" height="32" viewBox="0 0 32 32"><path d="M10 2a1 1 0 0 1 1 1v2h10V3a1 1 0 1 1 2 0v2a5 5 0 0 1 4.997 5v4.589l.296-.296a1 1 0 0 1 1.414 1.414l-2 2a1 1 0 0 1-1.414 0l-2-2a1 1 0 0 1 1.414-1.414l.29.29V10a3 3 0 0 0-3-3h-14a3 3 0 0 0-3 3v3a1 1 0 1 1-2 0v-3a5 5 0 0 1 5-5H9V3a1 1 0 0 1 1-1Zm3.634 16.73c-.18.193-.43.29-.75.29-.273 0-.497-.07-.67-.21a.97.97 0 0 1-.31-.6h-1.55c.047.52.273.957.68 1.31.473.42 1.097.63 1.87.63.727 0 1.323-.173 1.79-.52.533-.407.8-.96.8-1.66 0-.407-.14-.773-.42-1.1a1.769 1.769 0 0 0-1.19-.63c.38-.06.707-.22.98-.48.313-.307.47-.663.47-1.07 0-.567-.203-1.01-.61-1.33-.427-.34-.997-.51-1.71-.51-.64 0-1.18.143-1.62.43a1.948 1.948 0 0 0-.88 1.38h1.52c.1-.46.397-.69.89-.69a.85.85 0 0 1 .56.19c.18.16.27.38.27.66 0 .273-.09.497-.27.67a.99.99 0 0 1-.73.29h-.69v1.07h.61c.807 0 1.21.383 1.21 1.15 0 .307-.083.55-.25.73Zm4.956-4.29V20h1.56v-7H18.6l-1.61.85v1.41l1.6-.82ZM4.293 16.293a1 1 0 0 1 1.414 0l2 2a1 1 0 1 1-1.414 1.414l-.296-.296V24a3 3 0 0 0 3 3h14a3 3 0 0 0 3-3v-3a1 1 0 1 1 2 0v3a5 5 0 0 1-5 5h-14a5 5 0 0 1-5-5v-4.583l-.29.29a1 1 0 0 1-1.414-1.414l2-2Z"/></svg>