<svg xmlns="http://www.w3.org/2000/svg" width="32" height="32" viewBox="0 0 32 32"><path d="M10 2.25a.75.75 0 0 1 .75.75v2.25h10.5V3a.75.75 0 0 1 1.5 0v2.25h.247a4.75 4.75 0 0 1 4.75 4.75v5.192l.723-.722a.75.75 0 1 1 1.06 1.06l-2 2a.75.75 0 0 1-1.06 0l-2-2a.75.75 0 1 1 1.06-1.06l.717.716V10a3.25 3.25 0 0 0-3.25-3.25h-14A3.25 3.25 0 0 0 5.747 10v3a.75.75 0 0 1-1.5 0v-3a4.75 4.75 0 0 1 4.75-4.75h.253V3a.75.75 0 0 1 .75-.75ZM5.53 16.47a.75.75 0 0 0-1.06 0l-2 2a.75.75 0 1 0 1.06 1.06l.717-.716V24a4.75 4.75 0 0 0 4.75 4.75h14a4.75 4.75 0 0 0 4.75-4.75v-3a.75.75 0 0 0-1.5 0v3a3.25 3.25 0 0 1-3.25 3.25h-14A3.25 3.25 0 0 1 5.747 24v-5.192l.723.722a.75.75 0 0 0 1.06-1.06l-2-2Zm9.554.43a1.82 1.82 0 0 0-1.14-.64c.36-.087.663-.26.91-.52.287-.307.43-.66.43-1.06 0-.553-.203-.993-.61-1.32-.427-.34-.987-.51-1.68-.51-.627 0-1.16.143-1.6.43-.5.327-.793.783-.88 1.37h1.21a.995.995 0 0 1 .35-.61c.213-.173.497-.26.85-.26.293 0 .543.073.75.22.26.18.39.44.39.78 0 .32-.103.577-.31.77-.213.207-.477.31-.79.31h-.61v.93h.59c.353 0 .643.083.87.25.3.22.45.553.45 1 0 .333-.103.603-.31.81-.24.24-.577.36-1.01.36-.72 0-1.147-.323-1.28-.97h-1.23c.067.527.293.96.68 1.3.467.4 1.083.6 1.85.6.707 0 1.29-.17 1.75-.51.52-.393.78-.923.78-1.59 0-.44-.137-.82-.41-1.14ZM18.78 20h1.19v-7h-1.18l-1.6.83v1.16l1.59-.81V20Z"/></svg>