<svg xmlns="http://www.w3.org/2000/svg" width="32" height="32" viewBox="0 0 32 32"><path d="m20.47 14.53 4 4a.75.75 0 0 0 1.061 0 .75.75 0 0 0 0-1.06l-2.72-2.72H29a.75.75 0 1 0 0-1.5h-6.19l2.72-2.72a.75.75 0 0 0-1.061-1.06l-4 4a.75.75 0 0 0 0 1.06M28.205 21.25H5.75V10.135A3.324 3.324 0 0 1 9 6.75h14a.75.75 0 1 0 0-1.5H9a4.825 4.825 0 0 0-4.75 4.885V21.25h-.455a1.54 1.54 0 0 0-1.513 1.22c-.048.226-.042.46.016.685A4.8 4.8 0 0 0 6.97 26.75h18.058a4.8 4.8 0 0 0 4.673-3.594 1.5 1.5 0 0 0-.273-1.309 1.54 1.54 0 0 0-1.224-.597m-3.176 4H6.971a3.21 3.21 0 0 1-3.176-2.5h24.41l.044.036a3.3 3.3 0 0 1-3.22 2.464"/></svg>