<svg xmlns="http://www.w3.org/2000/svg" width="32" height="32" viewBox="0 0 32 32"><path d="M27.794 13.5H21a.5.5 0 0 0 0 1h6.794l-3.147 3.146a.499.499 0 1 0 .707.707l4-4a.5.5 0 0 0 0-.707l-4-4a.5.5 0 0 0-.707.707zM28.206 21.5H5.5V10.135A3.574 3.574 0 0 1 9 6.5h14a.5.5 0 0 0 0-1H9a4.575 4.575 0 0 0-4.5 4.635V21.5h-.705a1.29 1.29 0 0 0-1.268 1.02c-.04.189-.035.386.013.573A4.55 4.55 0 0 0 6.972 26.5h18.057a4.55 4.55 0 0 0 4.432-3.407A1.26 1.26 0 0 0 29.23 22a1.29 1.29 0 0 0-1.025-.5m-3.177 4H6.972a3.55 3.55 0 0 1-3.463-2.653.27.27 0 0 1 .05-.234.3.3 0 0 1 .236-.113h24.41a.3.3 0 0 1 .237.113.27.27 0 0 1 .05.234 3.55 3.55 0 0 1-3.463 2.653"/></svg>