<svg xmlns="http://www.w3.org/2000/svg" width="32" height="32" viewBox="0 0 32 32"><path d="M26 22H7V7a3.003 3.003 0 0 1 3-3h12a3.003 3.003 0 0 1 3 3 1 1 0 0 0 2 0 5.006 5.006 0 0 0-5-5H10a5.006 5.006 0 0 0-5 5v18a5.006 5.006 0 0 0 5 5h12a5.006 5.006 0 0 0 5-5v-2a1 1 0 0 0-1-1m-1 3a3.003 3.003 0 0 1-3 3H10a3.003 3.003 0 0 1-3-3v-1h18zM15 27h2a1 1 0 1 0 0-2h-2a1 1 0 0 0 0 2M29.707 14.293l-4-4a1 1 0 0 0-1.414 1.414L26.586 14H21a1 1 0 0 0 0 2h5.586l-2.293 2.293a1 1 0 0 0 1.414 1.414l4-4a1 1 0 0 0 0-1.414"/></svg>