<svg xmlns="http://www.w3.org/2000/svg" width="32" height="32" viewBox="0 0 32 32"><path d="m20.47 14.53 4 4A.751.751 0 0 0 25.75 18a.752.752 0 0 0-.22-.53l-2.72-2.72H29a.75.75 0 1 0 0-1.5h-6.19l2.72-2.72a.75.75 0 0 0-1.061-1.06l-4 4a.751.751 0 0 0 0 1.06Z"/><path d="M28.205 21.25H5.75V10.135A3.324 3.324 0 0 1 9 6.75h14a.75.75 0 0 0 0-1.5H9a4.825 4.825 0 0 0-4.75 4.885V21.25h-.455a1.537 1.537 0 0 0-1.513 1.22c-.048.226-.042.46.016.685a4.798 4.798 0 0 0 4.673 3.595h18.058a4.799 4.799 0 0 0 4.673-3.594 1.508 1.508 0 0 0-.273-1.309 1.538 1.538 0 0 0-1.224-.597Zm-3.175 4H6.97a3.207 3.207 0 0 1-3.175-2.5h24.41l.044.036a3.3 3.3 0 0 1-3.22 2.464Z"/></svg>