<svg xmlns="http://www.w3.org/2000/svg" width="32" height="32" viewBox="0 0 32 32"><path d="M12 6.5a.5.5 0 0 0 0 1h4a.5.5 0 1 0 0-1zM20 7.5a.5.5 0 1 0 0-1 .5.5 0 0 0 0 1M25 24.5a.5.5 0 0 0-.5.5 3.504 3.504 0 0 1-3.5 3.5H11A3.504 3.504 0 0 1 7.5 25V7A3.504 3.504 0 0 1 11 3.5h10A3.504 3.504 0 0 1 24.5 7v1a.5.5 0 0 0 1 0V7A4.505 4.505 0 0 0 21 2.5H11A4.505 4.505 0 0 0 6.5 7v18a4.505 4.505 0 0 0 4.5 4.5h10a4.504 4.504 0 0 0 4.5-4.5.5.5 0 0 0-.5-.5M22.354 10.353a.5.5 0 0 0-.707-.707l-3 3.001a.5.5 0 0 0 0 .707l3 3a.5.5 0 0 0 .707-.708l-2.146-2.145H28a.5.5 0 0 0 0-1h-7.794zM29.354 18.646l-3-3a.499.499 0 1 0-.707.707l2.147 2.147H20a.5.5 0 1 0 0 1h7.794l-2.147 2.146a.5.5 0 1 0 .707.707l3-3a.5.5 0 0 0 0-.707"/></svg>