<svg xmlns="http://www.w3.org/2000/svg" width="32" height="32" viewBox="0 0 32 32"><path d="M12 6.5a.5.5 0 0 0 0 1h4a.5.5 0 1 0 0-1zM20 7.5a.5.5 0 1 0 0-1 .5.5 0 0 0 0 1M25 23.45a.5.5 0 0 0-.5.5V25a3.504 3.504 0 0 1-3.5 3.5H11A3.504 3.504 0 0 1 7.5 25V7A3.504 3.504 0 0 1 11 3.5h10A3.504 3.504 0 0 1 24.5 7v1a.5.5 0 0 0 1 0V7A4.505 4.505 0 0 0 21 2.5H11A4.505 4.505 0 0 0 6.5 7v18a4.505 4.505 0 0 0 4.5 4.5h10a4.505 4.505 0 0 0 4.5-4.5v-1.05a.5.5 0 0 0-.5-.5M28.354 15.646l-4-4a.5.5 0 1 0-.707.707l3.146 3.147H20a.5.5 0 1 0 0 1h6.793l-3.146 3.146a.5.5 0 1 0 .707.707l4-4a.5.5 0 0 0 0-.707"/></svg>