<svg xmlns="http://www.w3.org/2000/svg" width="32" height="32" viewBox="0 0 32 32"><path d="M2.25 10A4.75 4.75 0 0 1 7 5.25h18A4.75 4.75 0 0 1 29.75 10v3a.75.75 0 0 1-1.5 0v-3A3.25 3.25 0 0 0 25 6.75H7A3.25 3.25 0 0 0 3.75 10v12A3.25 3.25 0 0 0 7 25.25h6a.75.75 0 0 1 0 1.5H7A4.75 4.75 0 0 1 2.25 22zm10.78 1.47a.75.75 0 0 1 0 1.06l-2.72 2.72H16a.75.75 0 0 1 0 1.5h-5.69l2.72 2.72a.75.75 0 1 1-1.06 1.06l-4-4a.75.75 0 0 1 0-1.06l4-4a.75.75 0 0 1 1.06 0M23 14.75a2.75 2.75 0 1 1 0 5.5 2.75 2.75 0 0 1 0-5.5m2.72 6.015a4.25 4.25 0 1 0-5.442 0c-2.341.928-4.028 3.022-4.028 5.55 0 1.388 1.162 2.239 2.348 2.71 1.24.494 2.842.725 4.402.725s3.162-.23 4.402-.724c1.186-.472 2.348-1.323 2.348-2.711 0-2.528-1.687-4.622-4.03-5.55M23 21.75c2.988 0 5.25 2.126 5.25 4.565 0 .402-.338.893-1.402 1.317-1.01.401-2.408.618-3.848.618s-2.838-.217-3.848-.618c-1.064-.424-1.402-.915-1.402-1.317 0-2.439 2.262-4.565 5.25-4.565"/></svg>