<svg xmlns="http://www.w3.org/2000/svg" width="32" height="32" viewBox="0 0 32 32"><path d="M25 22.5H7.5V7A3.504 3.504 0 0 1 11 3.5h10A3.504 3.504 0 0 1 24.5 7a.5.5 0 1 0 1 0A4.505 4.505 0 0 0 21 2.5H11A4.505 4.505 0 0 0 6.5 7v18a4.505 4.505 0 0 0 4.5 4.5h10a4.505 4.505 0 0 0 4.5-4.5v-2a.5.5 0 0 0-.5-.5m-.5 2.5a3.505 3.505 0 0 1-3.5 3.5H11A3.504 3.504 0 0 1 7.5 25v-1.5h17zM15 26.5h2a.5.5 0 0 0 0-1h-2a.5.5 0 0 0 0 1M29 14.5h-6.793l3.146-3.147a.5.5 0 0 0-.707-.707l-4 4a.5.5 0 0 0 0 .707l4 4a.5.5 0 0 0 .707-.707L22.207 15.5H29a.5.5 0 1 0 0-1"/></svg>