<svg xmlns="http://www.w3.org/2000/svg" width="32" height="32" viewBox="0 0 32 32"><path d="M26.587 13H21a1 1 0 0 0 0 2h5.587l-2.293 2.293a1.002 1.002 0 0 0 .324 1.63 1 1 0 0 0 1.09-.216l4-4a1 1 0 0 0 0-1.414l-4-4a1 1 0 1 0-1.414 1.414zM28.206 21H6V10.135A3.073 3.073 0 0 1 9 7h14a1 1 0 1 0 0-2H9a5.075 5.075 0 0 0-5 5.135V21h-.205a1.787 1.787 0 0 0-1.74 2.217A5.05 5.05 0 0 0 6.973 27h18.057a5.05 5.05 0 0 0 4.917-3.784 1.76 1.76 0 0 0-.32-1.524 1.79 1.79 0 0 0-1.42-.692m-3.177 4H6.972a3.06 3.06 0 0 1-2.894-2h23.845a3.06 3.06 0 0 1-2.894 2"/></svg>