<svg xmlns="http://www.w3.org/2000/svg" width="32" height="32" viewBox="0 0 32 32"><path d="M12 6.25a.75.75 0 1 0 0 1.5h4a.75.75 0 1 0 0-1.5zM20 7.75a.75.75 0 1 0 0-1.5.75.75 0 0 0 0 1.5M25 23.2a.75.75 0 0 0-.75.75V25A3.254 3.254 0 0 1 21 28.25H11A3.254 3.254 0 0 1 7.75 25V7A3.254 3.254 0 0 1 11 3.75h10A3.254 3.254 0 0 1 24.25 7v1a.75.75 0 1 0 1.5 0V7A4.755 4.755 0 0 0 21 2.25H11A4.755 4.755 0 0 0 6.25 7v18A4.756 4.756 0 0 0 11 29.75h10A4.755 4.755 0 0 0 25.75 25v-1.05a.75.75 0 0 0-.75-.75M29 15.25h-6.19l2.72-2.72a.75.75 0 0 0-1.06-1.06l-4 4a.75.75 0 0 0 0 1.06l4 4a.75.75 0 0 0 1.061 0 .75.75 0 0 0 0-1.06l-2.72-2.72H29a.75.75 0 1 0 0-1.5"/></svg>