<svg xmlns="http://www.w3.org/2000/svg" width="32" height="32" viewBox="0 0 32 32"><path d="M15 26.496h2a.5.5 0 0 0 0-1h-2a.5.5 0 0 0 0 1Z"/><path d="M26 22.5H6.5V7A3.504 3.504 0 0 1 10 3.5h12A3.504 3.504 0 0 1 25.5 7a.5.5 0 0 0 1 0A4.505 4.505 0 0 0 22 2.5H10A4.505 4.505 0 0 0 5.5 7v18a4.505 4.505 0 0 0 4.5 4.5h12a4.504 4.504 0 0 0 4.5-4.5v-2a.5.5 0 0 0-.5-.5Zm-.5 2.5a3.504 3.504 0 0 1-3.5 3.5H10A3.504 3.504 0 0 1 6.5 25v-1.5h19V25Z"/><path d="M29.001 14.5h-6.794l3.146-3.147a.5.5 0 0 0-.707-.707l-4 4a.498.498 0 0 0 0 .707l4 4a.5.5 0 0 0 .707-.707L22.207 15.5h6.794a.5.5 0 0 0 0-1Z"/></svg>