<svg xmlns="http://www.w3.org/2000/svg" width="32" height="32" viewBox="0 0 32 32"><path d="M25 22.25H7.75V7A3.254 3.254 0 0 1 11 3.75h10A3.254 3.254 0 0 1 24.25 7a.75.75 0 1 0 1.5 0A4.756 4.756 0 0 0 21 2.25H11A4.755 4.755 0 0 0 6.25 7v18A4.756 4.756 0 0 0 11 29.75h10A4.755 4.755 0 0 0 25.75 25v-2a.75.75 0 0 0-.75-.75M24.25 25A3.254 3.254 0 0 1 21 28.25H11A3.254 3.254 0 0 1 7.75 25v-1.25h16.5zM15 26.75h2a.75.75 0 0 0 0-1.5h-2a.75.75 0 1 0 0 1.5M29 14.25h-6.19l2.72-2.72a.75.75 0 1 0-1.06-1.06l-4 4a.75.75 0 0 0 0 1.06l4 4a.75.75 0 1 0 1.06-1.06l-2.72-2.72H29a.75.75 0 1 0 0-1.5"/></svg>