<svg xmlns="http://www.w3.org/2000/svg" width="32" height="32" viewBox="0 0 32 32"><path d="m20.647 14.353 4 4a.5.5 0 0 0 .707-.707L22.207 14.5h6.794a.5.5 0 0 0 0-1h-6.794l3.146-3.147a.499.499 0 1 0-.707-.707l-4 4a.5.5 0 0 0 0 .707M28.205 21.5H5.5V10.135A3.574 3.574 0 0 1 9 6.5h14a.5.5 0 1 0 0-1H9a4.575 4.575 0 0 0-4.5 4.635V21.5h-.705a1.29 1.29 0 0 0-1.268 1.02c-.04.19-.035.386.013.573A4.55 4.55 0 0 0 6.97 26.5h18.06a4.55 4.55 0 0 0 4.43-3.406 1.26 1.26 0 0 0-.229-1.093 1.29 1.29 0 0 0-1.026-.501m-3.176 4H6.971a3.55 3.55 0 0 1-3.462-2.654.26.26 0 0 1 .05-.232.3.3 0 0 1 .236-.114h24.41a.3.3 0 0 1 .29.225.3.3 0 0 1-.004.122A3.55 3.55 0 0 1 25.03 25.5"/></svg>