<svg xmlns="http://www.w3.org/2000/svg" width="32" height="32" viewBox="0 0 32 32"><path d="M12 6a1 1 0 1 0 0 2h4a1 1 0 1 0 0-2zM20 8a1 1 0 1 0 0-2 1 1 0 0 0 0 2M25 24a1 1 0 0 0-1 1 3.003 3.003 0 0 1-3 3H11a3.003 3.003 0 0 1-3-3V7a3.003 3.003 0 0 1 3-3h10a3.003 3.003 0 0 1 3 3v1a1 1 0 1 0 2 0V7a5.006 5.006 0 0 0-5-5H11a5.006 5.006 0 0 0-5 5v18a5.006 5.006 0 0 0 5 5h10a5.006 5.006 0 0 0 5-5 1 1 0 0 0-1-1M22.708 10.707a.999.999 0 1 0-1.414-1.414l-3 3a1 1 0 0 0 0 1.415l3 2.999a1 1 0 1 0 1.413-1.414L21.415 14h6.586a1 1 0 0 0 0-2h-6.587zM29.708 18.293l-3-3a1 1 0 1 0-1.414 1.414L26.587 18H20a1 1 0 0 0 0 2h6.586l-1.293 1.293a1 1 0 0 0 1.415 1.414l3-3a1 1 0 0 0 0-1.414"/></svg>