<svg xmlns="http://www.w3.org/2000/svg" width="32" height="32" viewBox="0 0 32 32"><path d="M12 6.25a.75.75 0 1 0 0 1.5h4a.75.75 0 1 0 0-1.5zM20 7.75a.75.75 0 1 0 0-1.5.75.75 0 0 0 0 1.5M25 24.25a.75.75 0 0 0-.75.75A3.254 3.254 0 0 1 21 28.25H11A3.254 3.254 0 0 1 7.75 25V7A3.254 3.254 0 0 1 11 3.75h10A3.254 3.254 0 0 1 24.25 7v1a.75.75 0 1 0 1.5 0V7A4.755 4.755 0 0 0 21 2.25H11A4.755 4.755 0 0 0 6.25 7v18A4.756 4.756 0 0 0 11 29.75h10A4.755 4.755 0 0 0 25.75 25a.75.75 0 0 0-.75-.75M22.53 10.53a.75.75 0 0 0-1.06-1.06l-3 3a.75.75 0 0 0 0 1.06l3 3a.75.75 0 0 0 1.06-1.06l-1.719-1.72h7.19a.75.75 0 1 0 0-1.5h-7.19zM29.53 18.47l-3-3a.75.75 0 0 0-1.06-.002.75.75 0 0 0 0 1.062l1.72 1.72H20a.75.75 0 1 0 0 1.5h7.19l-1.72 1.72a.75.75 0 0 0 0 1.06.75.75 0 0 0 1.06 0l3-3a.75.75 0 0 0 0-1.06"/></svg>