<svg xmlns="http://www.w3.org/2000/svg" width="32" height="32" viewBox="0 0 32 32"><path d="m20.293 14.707 4 4a1 1 0 1 0 1.414-1.414L23.414 15H29a1 1 0 0 0 0-2h-5.587l2.293-2.293a.998.998 0 0 0-.321-1.637 1 1 0 0 0-1.093.223l-4 4a.998.998 0 0 0 0 1.414Z"/><path d="M28.205 21H6V10.135A3.073 3.073 0 0 1 9 7h14a1 1 0 1 0 0-2H9a5.075 5.075 0 0 0-5 5.135V21h-.205a1.786 1.786 0 0 0-1.421.693 1.756 1.756 0 0 0-.318 1.523A5.047 5.047 0 0 0 6.97 27h18.058a5.047 5.047 0 0 0 4.915-3.783 1.757 1.757 0 0 0-.318-1.524A1.786 1.786 0 0 0 28.205 21Zm-3.176 4H6.971a3.057 3.057 0 0 1-2.893-2h23.844a3.058 3.058 0 0 1-2.893 2Z"/></svg>