<svg xmlns="http://www.w3.org/2000/svg" width="32" height="32" viewBox="0 0 32 32"><path d="M25 22.5H7.5V7A3.504 3.504 0 0 1 11 3.5h10a3.5 3.5 0 0 1 3.39 2.623.5.5 0 1 0 .968-.25A4.5 4.5 0 0 0 21 2.5H11A4.505 4.505 0 0 0 6.5 7v18a4.505 4.505 0 0 0 4.5 4.5h10a4.505 4.505 0 0 0 4.5-4.5v-2a.5.5 0 0 0-.5-.5m-.5 2.5a3.504 3.504 0 0 1-3.5 3.5H11A3.504 3.504 0 0 1 7.5 25v-1.5h17zM22.354 8.353a.5.5 0 0 0-.707-.707l-3 3.001a.5.5 0 0 0 0 .707l3 3a.5.5 0 0 0 .707-.708l-2.146-2.145H28a.5.5 0 0 0 0-1h-7.792zM29.354 16.646l-3-3a.499.499 0 1 0-.707.707l2.146 2.147h-7.792a.5.5 0 1 0 0 1h7.792l-2.146 2.146a.5.5 0 1 0 .707.707l3-3a.5.5 0 0 0 0-.707M15 26.5h2a.5.5 0 0 0 0-1h-2a.5.5 0 0 0 0 1"/></svg>