<svg xmlns="http://www.w3.org/2000/svg" width="32" height="32" viewBox="0 0 32 32"><path d="M25 22H8V7a3.003 3.003 0 0 1 3-3h10a3 3 0 0 1 2.906 2.248 1 1 0 0 0 1.936-.5A5 5 0 0 0 21 2H11a5.006 5.006 0 0 0-5 5v18a5.006 5.006 0 0 0 5 5h10a5.006 5.006 0 0 0 5-5v-2a.997.997 0 0 0-1-1m-1 3a3.004 3.004 0 0 1-3 3H11a3.003 3.003 0 0 1-3-3v-1h16zM22.707 8.707a1 1 0 0 0-1.414-1.414l-2.999 3a1 1 0 0 0 0 1.415l2.999 2.999a1 1 0 1 0 1.414-1.414L21.415 12H28a1 1 0 0 0 0-2h-6.586zM29.707 16.293l-3-3a1 1 0 0 0-1.414 1.414L26.586 16h-6.585a1 1 0 0 0 0 2h6.585l-1.293 1.293a1 1 0 1 0 1.414 1.414l3-3a1 1 0 0 0 0-1.414M15 27h2a1 1 0 0 0 0-2h-2a1 1 0 0 0 0 2"/></svg>