<svg xmlns="http://www.w3.org/2000/svg" width="32" height="32" viewBox="0 0 32 32"><path d="M12 6a1 1 0 1 0 0 2h4a1 1 0 1 0 0-2h-4ZM20 8a1 1 0 1 0 0-2 1 1 0 0 0 0 2Z"/><path d="M25 22.95a.998.998 0 0 0-1 1V25a3.003 3.003 0 0 1-3 3H11a3.003 3.003 0 0 1-3-3V7a3.003 3.003 0 0 1 3-3h10a3.003 3.003 0 0 1 3 3v1a1 1 0 1 0 2 0V7a5.006 5.006 0 0 0-5-5H11a5.006 5.006 0 0 0-5 5v18a5.006 5.006 0 0 0 5 5h10a5.006 5.006 0 0 0 5-5v-1.05a1 1 0 0 0-1-1Z"/><path d="m28.707 15.293-4-4a1 1 0 1 0-1.413 1.414L25.587 15H20a1 1 0 0 0 0 2h5.586l-2.293 2.293a1 1 0 0 0 1.415 1.414l4-4a.998.998 0 0 0 0-1.414Z"/></svg>