<svg xmlns="http://www.w3.org/2000/svg" width="32" height="32" viewBox="0 0 32 32"><path d="M26 22.25H6.75V7A3.254 3.254 0 0 1 10 3.75h12A3.254 3.254 0 0 1 25.25 7a.75.75 0 0 0 1.5 0A4.755 4.755 0 0 0 22 2.25H10A4.755 4.755 0 0 0 5.25 7v18A4.756 4.756 0 0 0 10 29.75h12A4.755 4.755 0 0 0 26.75 25v-2a.75.75 0 0 0-.75-.75M25.25 25A3.254 3.254 0 0 1 22 28.25H10A3.254 3.254 0 0 1 6.75 25v-1.25h18.5zM15 26.75h2a.75.75 0 1 0 0-1.5h-2a.75.75 0 0 0 0 1.5M29.53 14.47l-4-4a.75.75 0 0 0-1.06 1.06l2.72 2.72H21a.75.75 0 0 0 0 1.5h6.19l-2.72 2.72a.75.75 0 1 0 1.06 1.06l4-4a.75.75 0 0 0 0-1.06"/></svg>