<svg xmlns="http://www.w3.org/2000/svg" width="32" height="32" viewBox="0 0 32 32"><path d="M2.5 10A4.5 4.5 0 0 1 7 5.5h18a4.5 4.5 0 0 1 4.5 4.5v3a.5.5 0 0 1-1 0v-3A3.5 3.5 0 0 0 25 6.5H7A3.5 3.5 0 0 0 3.5 10v12A3.5 3.5 0 0 0 7 25.5h6a.5.5 0 0 1 0 1H7A4.5 4.5 0 0 1 2.5 22zm10.354 1.646a.5.5 0 0 1 0 .708L9.707 15.5H16a.5.5 0 0 1 0 1H9.707l3.147 3.146a.5.5 0 0 1-.708.708l-4-4a.5.5 0 0 1 0-.708l4-4a.5.5 0 0 1 .708 0M23 14.5a3 3 0 1 1 0 6 3 3 0 0 1 0-6m2.198 6.342a4 4 0 1 0-4.397 0c-2.483.8-4.301 2.916-4.301 5.473 0 1.223 1.025 2.015 2.19 2.478 1.202.479 2.77.707 4.31.707s3.108-.229 4.31-.707c1.165-.463 2.19-1.255 2.19-2.478 0-2.557-1.819-4.674-4.302-5.473M23 21.5c3.096 0 5.5 2.21 5.5 4.815 0 .566-.475 1.118-1.56 1.55-1.048.416-2.48.635-3.94.635s-2.892-.219-3.94-.636c-1.085-.431-1.56-.983-1.56-1.55 0-2.604 2.404-4.814 5.5-4.814"/></svg>