<svg xmlns="http://www.w3.org/2000/svg" width="32" height="32" viewBox="0 0 32 32"><path d="M25 22H8V7a3.003 3.003 0 0 1 3-3h10a3.003 3.003 0 0 1 3 3 1 1 0 0 0 2 0 5.005 5.005 0 0 0-5-5H11a5.006 5.006 0 0 0-5 5v18a5.006 5.006 0 0 0 5 5h10a5.006 5.006 0 0 0 5-5v-2a.998.998 0 0 0-1-1Zm-1 3a3.004 3.004 0 0 1-3 3H11a3.003 3.003 0 0 1-3-3v-1h16v1Z"/><path d="M15 27h2a1 1 0 0 0 0-2h-2a1 1 0 0 0 0 2ZM29 14h-5.586l2.293-2.293a1 1 0 0 0-1.415-1.415l-4 4a1 1 0 0 0 0 1.415l4 4a1 1 0 0 0 1.415-1.415L23.414 16H29a1 1 0 1 0 0-2Z"/></svg>