<svg xmlns="http://www.w3.org/2000/svg" width="32" height="32" viewBox="0 0 32 32"><path d="m20.293 14.707 4 4a1 1 0 1 0 1.414-1.414L23.414 15H29a1 1 0 0 0 0-2h-5.587l2.293-2.293a.998.998 0 0 0-.321-1.637 1 1 0 0 0-1.093.223l-4 4a1 1 0 0 0 0 1.414M28.205 21H6V10.135A3.073 3.073 0 0 1 9 7h14a1 1 0 1 0 0-2H9a5.075 5.075 0 0 0-5 5.135V21h-.205a1.79 1.79 0 0 0-1.421.693 1.76 1.76 0 0 0-.318 1.523A5.05 5.05 0 0 0 6.97 27h18.058a5.05 5.05 0 0 0 4.915-3.783 1.76 1.76 0 0 0-.318-1.524A1.79 1.79 0 0 0 28.205 21m-3.176 4H6.971a3.06 3.06 0 0 1-2.893-2h23.844a3.06 3.06 0 0 1-2.893 2"/></svg>