<svg xmlns="http://www.w3.org/2000/svg" width="32" height="32" viewBox="0 0 32 32"><path d="M2 10a5 5 0 0 1 5-5h18a5 5 0 0 1 5 5v3a1 1 0 1 1-2 0v-3a3 3 0 0 0-3-3H7a3 3 0 0 0-3 3v12a3 3 0 0 0 3 3h6a1 1 0 1 1 0 2H7a5 5 0 0 1-5-5zm11.207 1.293a1 1 0 0 1 0 1.414L10.914 15H16a1 1 0 1 1 0 2h-5.086l2.293 2.293a1 1 0 0 1-1.414 1.414l-4-4a1 1 0 0 1 0-1.414l4-4a1 1 0 0 1 1.414 0M23 15a2.5 2.5 0 1 1 0 5 2.5 2.5 0 0 1 0-5m3.175 5.689a4.5 4.5 0 1 0-6.35 0C17.588 21.715 16 23.799 16 26.315c0 1.552 1.3 2.463 2.505 2.943 1.28.509 2.915.742 4.495.742s3.216-.233 4.495-.742C28.7 28.778 30 27.867 30 26.315c0-2.516-1.588-4.6-3.825-5.626M23 22c2.879 0 5 2.042 5 4.315 0 .237-.2.669-1.245 1.084-.97.387-2.335.601-3.755.601s-2.784-.214-3.755-.6C18.2 26.984 18 26.552 18 26.315 18 24.042 20.121 22 23 22"/></svg>