<svg xmlns="http://www.w3.org/2000/svg" width="32" height="32" viewBox="0 0 32 32"><path d="M25 22.25H7.75V7A3.254 3.254 0 0 1 11 3.75h10a3.25 3.25 0 0 1 3.148 2.435.76.76 0 0 0 .913.54.75.75 0 0 0 .54-.915A4.75 4.75 0 0 0 21 2.25H11A4.755 4.755 0 0 0 6.25 7v18A4.756 4.756 0 0 0 11 29.75h10A4.755 4.755 0 0 0 25.75 25v-2a.75.75 0 0 0-.75-.75M24.25 25A3.254 3.254 0 0 1 21 28.25H11A3.254 3.254 0 0 1 7.75 25v-1.25h16.5zM22.53 8.53a.75.75 0 0 0-1.06-1.06l-3 3a.75.75 0 0 0 0 1.06l3 3a.75.75 0 0 0 1.061 0 .75.75 0 0 0 0-1.06l-1.72-1.72H28a.75.75 0 1 0 0-1.5h-7.19zM29.53 16.47l-3-3a.75.75 0 0 0-1.06 1.06l1.72 1.72H20a.75.75 0 1 0 0 1.5h7.188l-1.72 1.72a.75.75 0 1 0 1.061 1.06l3-3a.75.75 0 0 0 0-1.06M15 26.75h2a.75.75 0 1 0 0-1.5h-2a.75.75 0 1 0 0 1.5"/></svg>