<svg xmlns="http://www.w3.org/2000/svg" width="32" height="32" viewBox="0 0 32 32"><path d="M27.19 13.25H21a.75.75 0 1 0 0 1.5h6.19l-2.72 2.72a.75.75 0 0 0 0 1.06.75.75 0 0 0 1.061 0l4-4a.75.75 0 0 0 0-1.06l-4-4a.75.75 0 0 0-1.06 1.06zM28.206 21.25H5.75V10.135A3.324 3.324 0 0 1 9 6.75h14a.75.75 0 1 0 0-1.5H9a4.825 4.825 0 0 0-4.75 4.885V21.25h-.455a1.54 1.54 0 0 0-1.513 1.218c-.047.227-.042.462.016.687A4.8 4.8 0 0 0 6.97 26.75H25.03a4.8 4.8 0 0 0 4.674-3.595 1.51 1.51 0 0 0-.275-1.31 1.54 1.54 0 0 0-1.222-.595m-3.177 4H6.971a3.21 3.21 0 0 1-3.176-2.5h24.41l.045.036a3.3 3.3 0 0 1-3.221 2.464"/></svg>