<svg xmlns="http://www.w3.org/2000/svg" width="32" height="32" fill="none" viewBox="0 0 32 32"><path fill="#5059C9" d="M21.086 12.818h7.069a1.21 1.21 0 0 1 1.208 1.21v6.437a4.444 4.444 0 0 1-4.443 4.444h-.021a4.444 4.444 0 0 1-4.445-4.443V13.45c0-.349.283-.632.632-.632M25.864 11.546a2.864 2.864 0 1 0 0-5.728 2.864 2.864 0 0 0 0 5.728"/><path fill="#7B83EB" d="M16.954 11.546a4.136 4.136 0 1 0 0-8.273 4.136 4.136 0 0 0 0 8.273M22.47 12.818H10.803a1.196 1.196 0 0 0-1.167 1.224v7.343a7.18 7.18 0 0 0 7 7.342 7.18 7.18 0 0 0 7-7.342v-7.343a1.196 1.196 0 0 0-1.166-1.224"/><path fill="#000" d="M17.272 12.818v10.29a1.17 1.17 0 0 1-1.164 1.165h-5.912q-.126-.313-.223-.637a7.8 7.8 0 0 1-.337-2.252V14.04a1.194 1.194 0 0 1 1.165-1.222z" opacity=".1"/><path fill="#000" d="M16.636 12.818v10.927a1.171 1.171 0 0 1-1.165 1.164h-4.976a8 8 0 0 1-.299-.636c-.089-.217-.159-.42-.223-.637a7.8 7.8 0 0 1-.337-2.252V14.04a1.194 1.194 0 0 1 1.165-1.222z" opacity=".2"/><path fill="#000" d="M16.636 12.818v9.654a1.174 1.174 0 0 1-1.164 1.164H9.973a7.8 7.8 0 0 1-.337-2.252V14.04a1.194 1.194 0 0 1 1.165-1.222z" opacity=".2"/><path fill="#000" d="M16 12.818v9.654a1.173 1.173 0 0 1-1.165 1.164H9.973a7.8 7.8 0 0 1-.337-2.252V14.04a1.194 1.194 0 0 1 1.165-1.222z" opacity=".2"/><path fill="#000" d="M17.272 9.528v2.005c-.108.006-.21.012-.318.012s-.21-.006-.318-.012A3.5 3.5 0 0 1 16 11.43 4.14 4.14 0 0 1 13.136 9a3.5 3.5 0 0 1-.204-.637h3.176a1.17 1.17 0 0 1 1.164 1.165" opacity=".1"/><path fill="#000" d="M16.637 10.165v1.368A3.5 3.5 0 0 1 16 11.43 4.14 4.14 0 0 1 13.137 9h2.335a1.17 1.17 0 0 1 1.165 1.165" opacity=".2"/><path fill="#000" d="M16.637 10.165v1.368A3.5 3.5 0 0 1 16 11.43 4.14 4.14 0 0 1 13.137 9h2.335a1.17 1.17 0 0 1 1.165 1.165" opacity=".2"/><path fill="#000" d="M16 10.165v1.266A4.14 4.14 0 0 1 13.137 9h1.699A1.17 1.17 0 0 1 16 10.165" opacity=".2"/><path fill="url(#a)" d="M3.166 9h11.668C15.478 9 16 9.522 16 10.166v11.668c0 .644-.522 1.166-1.166 1.166H3.166A1.167 1.167 0 0 1 2 21.834V10.167C2 9.522 2.522 9 3.166 9"/><path fill="#fff" d="M12.07 13.44H9.737v6.352H8.251V13.44H5.93v-1.232h6.14z"/><defs><linearGradient id="a" x1="4.432" x2="13.568" y1="8.089" y2="23.911" gradientUnits="userSpaceOnUse"><stop stop-color="#5A62C3"/><stop offset=".5" stop-color="#4D55BD"/><stop offset="1" stop-color="#3940AB"/></linearGradient></defs></svg>