<svg xmlns="http://www.w3.org/2000/svg" width="32" height="32" fill="none" viewBox="0 0 32 32"><path fill="#5059C9" d="M20.723 13.046h6.563c.62 0 1.123.502 1.123 1.122v5.979a4.126 4.126 0 0 1-4.126 4.126h-.02a4.126 4.126 0 0 1-4.127-4.126v-6.515c0-.324.263-.586.587-.586ZM25.16 11.864a2.659 2.659 0 1 0-.001-5.318 2.659 2.659 0 0 0 0 5.318Z"/><path fill="#7B83EB" d="M16.886 11.864a3.84 3.84 0 1 0 0-7.682 3.84 3.84 0 0 0 0 7.682ZM22.007 13.046H11.174a1.11 1.11 0 0 0-1.083 1.136V21a6.665 6.665 0 0 0 6.5 6.818A6.665 6.665 0 0 0 23.09 21v-6.818a1.111 1.111 0 0 0-1.084-1.136Z"/><path fill="#000" d="M17.181 13.046V22.6a1.088 1.088 0 0 1-1.08 1.08h-5.49a7.198 7.198 0 0 1-.52-2.683v-6.818a1.11 1.11 0 0 1 1.081-1.134h6.01Z" opacity=".1"/><path fill="#000" d="M16.59 13.046v10.146a1.088 1.088 0 0 1-1.081 1.081h-4.62c-.101-.195-.196-.39-.278-.591-.083-.201-.148-.39-.207-.591a7.198 7.198 0 0 1-.313-2.092V14.18a1.11 1.11 0 0 1 1.081-1.134h5.419Z" opacity=".2"/><path fill="#000" d="M16.59 13.046v8.964a1.09 1.09 0 0 1-1.08 1.081h-5.106a7.198 7.198 0 0 1-.313-2.092V14.18a1.11 1.11 0 0 1 1.081-1.134h5.419Z" opacity=".2"/><path fill="#000" d="M16 13.046v8.964a1.09 1.09 0 0 1-1.082 1.081h-4.514a7.198 7.198 0 0 1-.313-2.092V14.18a1.11 1.11 0 0 1 1.081-1.134H16Z" opacity=".2"/><path fill="#000" d="M17.181 9.99v1.862c-.1.005-.195.011-.295.011-.1 0-.195-.006-.295-.011a3.247 3.247 0 0 1-.591-.095A3.84 3.84 0 0 1 13.34 9.5a3.274 3.274 0 0 1-.188-.591H16.1c.596.002 1.08.485 1.081 1.081Z" opacity=".1"/><path fill="#000" d="M16.591 10.581v1.27a3.256 3.256 0 0 1-.59-.094A3.84 3.84 0 0 1 13.34 9.5h2.169c.596.002 1.079.485 1.081 1.081Z" opacity=".2"/><path fill="#000" d="M16.591 10.581v1.27a3.256 3.256 0 0 1-.59-.094A3.84 3.84 0 0 1 13.34 9.5h2.169c.596.002 1.079.485 1.081 1.081Z" opacity=".2"/><path fill="#000" d="M16 10.581v1.176A3.841 3.841 0 0 1 13.341 9.5h1.578c.596.002 1.079.485 1.081 1.081Z" opacity=".2"/><path fill="url(#a)" d="M4.083 9.5h10.834c.598 0 1.083.485 1.083 1.083v10.834c0 .598-.485 1.083-1.083 1.083H4.083A1.083 1.083 0 0 1 3 21.417V10.583C3 9.985 3.485 9.5 4.083 9.5Z"/><path fill="#fff" d="M12.35 13.623h-2.165v5.898h-1.38v-5.898H6.649V12.48h5.701v1.144Z"/><defs><linearGradient id="a" x1="5.258" x2="13.742" y1="8.654" y2="23.346" gradientUnits="userSpaceOnUse"><stop stop-color="#5A62C3"/><stop offset=".5" stop-color="#4D55BD"/><stop offset="1" stop-color="#3940AB"/></linearGradient></defs></svg>