<svg xmlns="http://www.w3.org/2000/svg" width="33" height="33" fill="none" viewBox="0 0 33 33"><path fill="#5059C9" d="M21.991 13.588h7.068c.668 0 1.21.542 1.21 1.21v6.437a4.444 4.444 0 0 1-4.444 4.444h-.021a4.444 4.444 0 0 1-4.445-4.443V14.22c0-.349.283-.632.632-.632M26.768 12.316a2.864 2.864 0 1 0 0-5.728 2.864 2.864 0 0 0 0 5.728"/><path fill="#7B83EB" d="M17.859 12.316a4.136 4.136 0 1 0 0-8.273 4.136 4.136 0 0 0 0 8.273M23.375 13.588H11.708a1.196 1.196 0 0 0-1.167 1.224v7.343a7.18 7.18 0 0 0 7 7.342 7.18 7.18 0 0 0 7-7.342v-7.343a1.196 1.196 0 0 0-1.166-1.224"/><path fill="#000" d="M18.176 13.588v10.29a1.17 1.17 0 0 1-1.165 1.165H11.1a7.753 7.753 0 0 1-.56-2.89V14.81a1.194 1.194 0 0 1 1.165-1.222z" opacity=".1"/><path fill="#000" d="M17.54 13.588v10.927a1.171 1.171 0 0 1-1.165 1.165h-4.976q-.164-.313-.3-.637a6 6 0 0 1-.222-.636 7.8 7.8 0 0 1-.338-2.253V14.81a1.194 1.194 0 0 1 1.165-1.222z" opacity=".2"/><path fill="#000" d="M17.54 13.588v9.654a1.173 1.173 0 0 1-1.165 1.165h-5.498a7.8 7.8 0 0 1-.338-2.253V14.81a1.194 1.194 0 0 1 1.165-1.222z" opacity=".2"/><path fill="#000" d="M16.903 13.588v9.654a1.173 1.173 0 0 1-1.164 1.165h-4.862a7.8 7.8 0 0 1-.338-2.253V14.81a1.194 1.194 0 0 1 1.165-1.222z" opacity=".2"/><path fill="#000" d="M18.176 10.298v2.005c-.108.006-.21.012-.318.012s-.21-.006-.318-.012a3.5 3.5 0 0 1-.637-.102A4.14 4.14 0 0 1 14.04 9.77a3.5 3.5 0 0 1-.204-.637h3.175a1.17 1.17 0 0 1 1.165 1.165" opacity=".1"/><path fill="#000" d="M17.541 10.935v1.368a3.5 3.5 0 0 1-.636-.102A4.14 4.14 0 0 1 14.04 9.77h2.335a1.17 1.17 0 0 1 1.165 1.165" opacity=".2"/><path fill="#000" d="M17.541 10.935v1.368a3.5 3.5 0 0 1-.636-.102A4.14 4.14 0 0 1 14.04 9.77h2.335a1.17 1.17 0 0 1 1.165 1.165" opacity=".2"/><path fill="#000" d="M16.905 10.935V12.2A4.14 4.14 0 0 1 14.04 9.77h1.7a1.17 1.17 0 0 1 1.164 1.165" opacity=".2"/><path fill="url(#a)" d="M4.07 9.77h11.668c.644 0 1.166.522 1.166 1.167v11.667c0 .644-.522 1.166-1.166 1.166H4.07a1.167 1.167 0 0 1-1.167-1.166V10.937c0-.645.523-1.167 1.167-1.167"/><path fill="#fff" d="M12.974 14.21H10.64v6.352H9.155V14.21H6.834v-1.232h6.14z"/><defs><linearGradient id="a" x1="5.336" x2="14.472" y1="8.859" y2="24.681" gradientUnits="userSpaceOnUse"><stop stop-color="#5A62C3"/><stop offset=".5" stop-color="#4D55BD"/><stop offset="1" stop-color="#3940AB"/></linearGradient></defs></svg>