<svg xmlns="http://www.w3.org/2000/svg" width="32" height="32" viewBox="0 0 32 32"><path d="M25 2H13a5.006 5.006 0 0 0-5 5v5H6.997a5.006 5.006 0 0 0-5 5v8a5.006 5.006 0 0 0 5 5h12a5.006 5.006 0 0 0 5-5v-5H25a5.006 5.006 0 0 0 5-5V7a5.006 5.006 0 0 0-5-5m-3.003 23a3.003 3.003 0 0 1-3 3h-12a3.003 3.003 0 0 1-3-3v-8a3.003 3.003 0 0 1 3-3h12a3.003 3.003 0 0 1 3 3zM28 15a3.003 3.003 0 0 1-3 3h-1.003v-1a5.006 5.006 0 0 0-5-5H10V7a3.003 3.003 0 0 1 3-3h12a3.003 3.003 0 0 1 3 3zM20 6h-2a1 1 0 1 0 0 2h2a1 1 0 1 0 0-2M14 16h-2a1 1 0 0 0 0 2h2a1 1 0 1 0 0-2"/></svg>