<svg xmlns="http://www.w3.org/2000/svg" width="32" height="32" viewBox="0 0 32 32"><path d="M5 4.25a.75.75 0 0 1 .75.75v21c0 .138.112.25.25.25h21a.75.75 0 0 1 0 1.5H6A1.75 1.75 0 0 1 4.25 26V5A.75.75 0 0 1 5 4.25M27.53 13.97a.75.75 0 0 1 0 1.06l-5.693 5.694a1.25 1.25 0 0 1-1.634.116l-5.133-3.85-5.54 5.54a.75.75 0 0 1-1.06-1.06l5.693-5.694a1.25 1.25 0 0 1 1.634-.116l5.133 3.85 5.54-5.54a.75.75 0 0 1 1.06 0M26.48 6.924a.75.75 0 0 1 .096 1.056l-4.73 5.675a1.25 1.25 0 0 1-1.59.28l-5.23-3.051-5.61 3.74a.75.75 0 1 1-.832-1.248l5.74-3.827a1.25 1.25 0 0 1 1.324-.04l5.182 3.024 4.594-5.513a.75.75 0 0 1 1.056-.096"/></svg>