<svg xmlns="http://www.w3.org/2000/svg" width="32" height="32" viewBox="0 0 32 32"><path d="M23 4.5H9A4.505 4.505 0 0 0 4.5 9v14A4.505 4.505 0 0 0 9 27.5h14a4.505 4.505 0 0 0 4.5-4.5V9A4.505 4.505 0 0 0 23 4.5m-14 1h14A3.504 3.504 0 0 1 26.5 9v.5h-21V9A3.504 3.504 0 0 1 9 5.5m14 21H9A3.504 3.504 0 0 1 5.5 23V10.5h21V23a3.505 3.505 0 0 1-3.5 3.5M20.676 17.167l-7-3.504A1.5 1.5 0 0 0 11.5 15V22a1.498 1.498 0 0 0 2.175 1.34l7-3.496a1.5 1.5 0 0 0 0-2.678m-.45 1.784-7 3.495a.5.5 0 0 1-.726-.447v-6.997a.49.49 0 0 1 .238-.426.497.497 0 0 1 .49-.02l6.998 3.504a.5.5 0 0 1 0 .89"/></svg>