<svg xmlns="http://www.w3.org/2000/svg" width="32" height="32" viewBox="0 0 32 32"><path d="M23 4.25H9A4.755 4.755 0 0 0 4.25 9v14A4.755 4.755 0 0 0 9 27.75h14A4.755 4.755 0 0 0 27.75 23V9A4.756 4.756 0 0 0 23 4.25M9 5.75h14A3.254 3.254 0 0 1 26.25 9v.25H5.75V9A3.254 3.254 0 0 1 9 5.75m14 20.5H9A3.254 3.254 0 0 1 5.75 23V10.75h20.5V23A3.254 3.254 0 0 1 23 26.25M20.788 16.944l-7-3.505a1.75 1.75 0 0 0-2.538 1.563V22a1.747 1.747 0 0 0 2.536 1.563l7.002-3.495a1.75 1.75 0 0 0 0-3.124m-.673 1.783-7.002 3.495a.25.25 0 0 1-.244-.01.24.24 0 0 1-.12-.212v-6.998a.24.24 0 0 1 .12-.213.25.25 0 0 1 .13-.038q.062 0 .116.029l6.998 3.503a.25.25 0 0 1 .002.444"/></svg>