<svg xmlns="http://www.w3.org/2000/svg" width="32" height="32" viewBox="0 0 32 32"><path d="M25 2.5H13A4.505 4.505 0 0 0 8.5 7v5.5H6.997a4.505 4.505 0 0 0-4.5 4.5v8a4.505 4.505 0 0 0 4.5 4.5h12a4.505 4.505 0 0 0 4.5-4.5v-5.5H25a4.505 4.505 0 0 0 4.5-4.5V7A4.505 4.505 0 0 0 25 2.5M22.497 25a3.505 3.505 0 0 1-3.5 3.5h-12a3.505 3.505 0 0 1-3.5-3.5v-8a3.504 3.504 0 0 1 3.5-3.5h12a3.504 3.504 0 0 1 3.5 3.5zM28.5 15a3.504 3.504 0 0 1-3.5 3.5h-1.503V17a4.505 4.505 0 0 0-4.5-4.5H9.5V7A3.504 3.504 0 0 1 13 3.5h12A3.504 3.504 0 0 1 28.5 7zM20 6.5h-2a.5.5 0 0 0 0 1h2a.5.5 0 0 0 0-1M14 16.5h-2a.5.5 0 0 0 0 1h2a.5.5 0 1 0 0-1"/></svg>