<svg xmlns="http://www.w3.org/2000/svg" width="32" height="32" viewBox="0 0 32 32"><path d="M5 4.5a.5.5 0 0 1 .5.5v21a.5.5 0 0 0 .5.5h21a.5.5 0 0 1 0 1H6A1.5 1.5 0 0 1 4.5 26V5a.5.5 0 0 1 .5-.5M27.354 14.146a.5.5 0 0 1 0 .708l-5.694 5.693a1 1 0 0 1-1.307.093l-5.306-3.98-5.693 5.694a.5.5 0 0 1-.708-.708l5.694-5.693a1 1 0 0 1 1.307-.093l5.306 3.98 5.693-5.694a.5.5 0 0 1 .708 0M26.32 7.116a.5.5 0 0 1 .064.704l-4.73 5.675a1 1 0 0 1-1.271.224l-5.365-3.13-5.74 3.827a.5.5 0 1 1-.555-.832l5.74-3.827a1 1 0 0 1 1.059-.032l5.365 3.13 4.729-5.675a.5.5 0 0 1 .704-.064"/></svg>