<svg xmlns="http://www.w3.org/2000/svg" width="32" height="32" viewBox="0 0 32 32"><path d="M5 4a1 1 0 0 1 1 1v21h21a1 1 0 1 1 0 2H6a2 2 0 0 1-2-2V5a1 1 0 0 1 1-1M27.707 13.793a1 1 0 0 1 0 1.414l-5.693 5.694a1.5 1.5 0 0 1-1.96.139l-4.96-3.72-5.387 5.387a1 1 0 0 1-1.414-1.414l5.693-5.693a1.5 1.5 0 0 1 1.96-.14l4.96 3.72 5.387-5.387a1 1 0 0 1 1.414 0M26.64 6.732a1 1 0 0 1 .128 1.408l-4.729 5.675a1.5 1.5 0 0 1-1.908.336l-5.096-2.973-5.48 3.654a1 1 0 0 1-1.11-1.664l5.74-3.827a1.5 1.5 0 0 1 1.588-.048l5 2.917 4.459-5.35a1 1 0 0 1 1.408-.128"/></svg>