<svg xmlns="http://www.w3.org/2000/svg" width="32" height="32" viewBox="0 0 32 32"><path d="M25 2.25H13A4.755 4.755 0 0 0 8.25 7v5.25H6.997A4.756 4.756 0 0 0 2.247 17v8a4.755 4.755 0 0 0 4.75 4.75h12a4.755 4.755 0 0 0 4.75-4.75v-5.25H25A4.755 4.755 0 0 0 29.75 15V7A4.755 4.755 0 0 0 25 2.25M22.247 25a3.254 3.254 0 0 1-3.25 3.25h-12A3.253 3.253 0 0 1 3.747 25v-8a3.253 3.253 0 0 1 3.25-3.25h12a3.254 3.254 0 0 1 3.25 3.25zm6.003-10A3.253 3.253 0 0 1 25 18.25h-1.253V17a4.756 4.756 0 0 0-4.75-4.75H9.75V7A3.254 3.254 0 0 1 13 3.75h12A3.254 3.254 0 0 1 28.25 7zM20 6.25h-2a.75.75 0 1 0 0 1.5h2a.75.75 0 1 0 0-1.5M14 16.25h-2a.75.75 0 0 0 0 1.5h2a.75.75 0 1 0 0-1.5"/></svg>