<svg xmlns="http://www.w3.org/2000/svg" width="32" height="32" viewBox="0 0 32 32"><path d="M17.47 23.53a.75.75 0 0 0 1.06-1.06l-2.255-2.256c.309-.698.47-1.451.476-2.214V8a5.75 5.75 0 0 0-11.5 0v1.19L3.53 7.47a.75.75 0 0 0-1.06 1.06zM6.75 8a4.25 4.25 0 0 1 8.5 0v10a4 4 0 0 1-.146 1.043L6.75 10.689zM19 28.25h-1.979a5.114 5.114 0 0 1-5.205-4.565 5.7 5.7 0 0 0 2.6-1.087l-1.063-1.063A4.245 4.245 0 0 1 6.75 18v-3.067l-1.5-1.5V18a5.755 5.755 0 0 0 5.035 5.7 6.67 6.67 0 0 0 2.436 4.55h-9.72a.75.75 0 1 0 0 1.5h16a.75.75 0 1 0 0-1.5M29 13.25h-6.189l2.72-2.72a.75.75 0 0 0-1.06-1.06l-4 4a.75.75 0 0 0 0 1.06l4 4a.75.75 0 0 0 1.06-1.06l-2.72-2.72h6.19a.75.75 0 1 0 0-1.5"/></svg>