<svg xmlns="http://www.w3.org/2000/svg" width="32" height="32" viewBox="0 0 32 32"><path d="M17.294 23.707a1 1 0 0 0 1.413-1.414l-2.121-2.122A5.9 5.9 0 0 0 17 18V8A6 6 0 0 0 5 8v.586L3.706 7.293a1 1 0 0 0-1.414 1.414zM7 8a4 4 0 0 1 8 0v10q-.005.27-.048.537L7 10.586zM19 28h-1.979a4.876 4.876 0 0 1-4.935-4.104 6 6 0 0 0 1.876-.691l-1.493-1.493A3.984 3.984 0 0 1 7.001 18v-1.757l-2-2V18a6.004 6.004 0 0 0 5.064 5.92 6.92 6.92 0 0 0 2 4.08H3a1 1 0 0 0 0 2h16a1 1 0 1 0 0-2M29 13h-5.585l2.293-2.293a1 1 0 0 0-1.414-1.414l-4 4a1 1 0 0 0 0 1.414l4 4a.999.999 0 1 0 1.413-1.414L23.415 15H29a1 1 0 0 0 0-2"/></svg>