<svg xmlns="http://www.w3.org/2000/svg" width="32" height="32" viewBox="0 0 32 32"><path d="m5.5 11.207 1 1.001v-.001l8.258 8.257v.001l.707.708h.001l2.181 2.18a.5.5 0 1 0 .707-.707l-2.374-2.374c.339-.71.517-1.486.52-2.272V8a5.5 5.5 0 0 0-11 0v1.793L3.354 7.646a.5.5 0 1 0-.707.707zM6.5 8a4.5 4.5 0 0 1 9 0v10a4.4 4.4 0 0 1-.277 1.516L6.5 10.793zM19 28.5h-1.979a5.36 5.36 0 0 1-5.476-5.028 5.47 5.47 0 0 0 3.266-1.539l-.697-.697A4.49 4.49 0 0 1 6.5 18v-4.378l-1-1V18a5.506 5.506 0 0 0 5.024 5.476A6.41 6.41 0 0 0 13.51 28.5H3a.5.5 0 0 0 0 1h16a.5.5 0 1 0 0-1M29 13.5h-6.792l3.146-3.147a.498.498 0 0 0-.16-.82.5.5 0 0 0-.547.113l-4 4a.5.5 0 0 0-.108.545q.038.092.108.162l4 4a.5.5 0 0 0 .71.004.5.5 0 0 0-.003-.71L22.208 14.5H29a.5.5 0 0 0 0-1"/></svg>