<svg xmlns="http://www.w3.org/2000/svg" width="32" height="32" viewBox="0 0 32 32"><path d="M17.294 23.707a1 1 0 0 0 1.413-1.414l-2.517-2.518c.202-.57.307-1.17.31-1.775V8a5.5 5.5 0 0 0-11 0v1.086L3.707 7.293a1 1 0 1 0-1.414 1.414zM19 28h-1.979a4.876 4.876 0 0 1-4.983-4.602 5.4 5.4 0 0 0 1.55-.566L5.5 14.744V18a5.51 5.51 0 0 0 4.52 5.407A6.94 6.94 0 0 0 12.067 28H3a1 1 0 0 0 0 2h16a1 1 0 1 0 0-2M29 13h-5.586l2.293-2.293a1 1 0 0 0-1.413-1.414l-4 4a1 1 0 0 0 0 1.414l4 4a.999.999 0 1 0 1.413-1.414L23.416 15 29.001 15a1 1 0 1 0 0-2"/></svg>