<svg xmlns="http://www.w3.org/2000/svg" width="32" height="32" viewBox="0 0 32 32"><path d="M18.405 10.804a4.5 4.5 0 1 0-4.81 0c-1.077.281-2.048.747-2.847 1.354C9.386 13.192 8.5 14.657 8.5 16.314c0 .63.314 1.15.772 1.551.45.396 1.065.702 1.754.937 1.381.47 3.19.698 4.974.698s3.593-.227 4.974-.698c.689-.235 1.303-.541 1.754-.937.458-.401.772-.92.772-1.55 0-1.658-.886-3.123-2.248-4.157-.8-.607-1.77-1.073-2.847-1.354M12.5 7a3.5 3.5 0 1 1 7 0 3.5 3.5 0 0 1-7 0m3.5 4.5c1.834 0 3.475.565 4.647 1.455s1.853 2.082 1.853 3.36c0 .264-.123.528-.431.798-.315.276-.794.53-1.418.742-1.244.424-2.935.645-4.651.645s-3.407-.22-4.651-.645c-.624-.212-1.103-.466-1.418-.742-.308-.27-.431-.534-.431-.799 0-1.277.68-2.47 1.853-3.36 1.172-.89 2.813-1.454 4.647-1.454M2.5 24a.5.5 0 0 1 .5-.5h26a.5.5 0 0 1 0 1H3a.5.5 0 0 1-.5-.5M5.5 29a.5.5 0 0 1 .5-.5h20a.5.5 0 0 1 0 1H6a.5.5 0 0 1-.5-.5"/></svg>