<svg xmlns="http://www.w3.org/2000/svg" width="32" height="32" viewBox="0 0 32 32"><path d="M2.5 25a.5.5 0 0 1 .5-.5h26a.5.5 0 0 1 .5.5v4a.5.5 0 0 1-1 0v-3.5h-25V29a.5.5 0 0 1-1 0zM16 21.5a.5.5 0 0 0-.5.5v7a.5.5 0 0 0 1 0v-7a.5.5 0 0 0-.5-.5M16 3.5a3.5 3.5 0 1 0 0 7 3.5 3.5 0 0 0 0-7M11.5 7a4.5 4.5 0 1 1 9 0 4.5 4.5 0 0 1-9 0M11.353 12.955c-1.172.89-1.853 2.082-1.853 3.36 0 .264.123.528.431.798.315.276.794.53 1.418.742 1.244.424 2.935.645 4.651.645s3.407-.22 4.651-.645c.624-.212 1.103-.466 1.418-.742.308-.27.431-.534.431-.799 0-1.277-.68-2.47-1.853-3.36-1.172-.89-2.813-1.454-4.647-1.454s-3.475.565-4.647 1.455m-.605-.797C12.109 11.125 13.968 10.5 16 10.5s3.89.625 5.252 1.658c1.362 1.034 2.248 2.499 2.248 4.156 0 .63-.314 1.15-.772 1.551-.45.396-1.065.702-1.754.937-1.381.47-3.19.698-4.974.698s-3.593-.227-4.974-.698c-.689-.235-1.303-.541-1.754-.937-.458-.401-.772-.92-.772-1.55 0-1.658.886-3.123 2.248-4.157"/></svg>