<svg xmlns="http://www.w3.org/2000/svg" width="32" height="32" viewBox="0 0 32 32"><path d="M18.969 10.708a4.75 4.75 0 1 0-5.937 0 8.2 8.2 0 0 0-2.435 1.251c-1.41 1.07-2.347 2.603-2.347 4.355 0 .722.362 1.305.857 1.739.485.425 1.133.745 1.838.985 1.416.483 3.254.712 5.055.712s3.639-.229 5.055-.712c.705-.24 1.353-.56 1.838-.985.495-.434.857-1.017.857-1.739 0-1.752-.938-3.285-2.347-4.355a8.2 8.2 0 0 0-2.434-1.25M12.75 7a3.25 3.25 0 1 1 6.5 0 3.25 3.25 0 0 1-6.5 0M16 11.75c1.784 0 3.371.55 4.496 1.404s1.754 1.978 1.754 3.16c0 .173-.076.374-.346.611-.28.247-.727.487-1.334.694-1.209.412-2.87.631-4.57.631s-3.361-.219-4.57-.631c-.607-.207-1.053-.447-1.334-.694-.27-.237-.346-.438-.346-.61 0-1.183.63-2.308 1.754-3.161S14.216 11.75 16 11.75M2.25 24a.75.75 0 0 1 .75-.75h26a.75.75 0 0 1 0 1.5H3a.75.75 0 0 1-.75-.75M5.25 29a.75.75 0 0 1 .75-.75h20a.75.75 0 0 1 0 1.5H6a.75.75 0 0 1-.75-.75"/></svg>