<svg xmlns="http://www.w3.org/2000/svg" width="32" height="32" viewBox="0 0 32 32"><path d="M2.25 24a.75.75 0 0 1 .75-.75h26a.75.75 0 0 1 0 1.5H3a.75.75 0 0 1-.75-.75ZM5.25 29a.75.75 0 0 1 .75-.75h20a.75.75 0 0 1 0 1.5H6a.75.75 0 0 1-.75-.75ZM16 3.75a3.25 3.25 0 1 0 0 6.5 3.25 3.25 0 0 0 0-6.5ZM11.25 7a4.75 4.75 0 1 1 9.5 0 4.75 4.75 0 0 1-9.5 0Z"/><path d="M11.504 13.154c-1.124.853-1.754 1.978-1.754 3.16 0 .173.076.374.346.611.28.247.726.487 1.334.694 1.209.412 2.87.631 4.57.631 1.7 0 3.361-.219 4.57-.631.607-.207 1.053-.447 1.334-.694.27-.237.346-.438.346-.61 0-1.183-.63-2.308-1.754-3.161C19.371 12.3 17.784 11.75 16 11.75c-1.784 0-3.371.55-4.496 1.404Zm-.907-1.195c1.409-1.07 3.321-1.709 5.403-1.709 2.082 0 3.994.64 5.403 1.71 1.41 1.069 2.347 2.602 2.347 4.354 0 .722-.362 1.305-.857 1.739-.485.425-1.133.745-1.838.985-1.416.483-3.254.712-5.055.712-1.8 0-3.639-.229-5.055-.712-.705-.24-1.353-.56-1.838-.985-.495-.434-.857-1.017-.857-1.739 0-1.752.938-3.285 2.347-4.355Z"/></svg>