<svg xmlns="http://www.w3.org/2000/svg" width="32" height="32" viewBox="0 0 32 32"><path d="M18.558 18.5h-5.116a3.495 3.495 0 1 0-2.442 1h10a3.513 3.513 0 1 0-2.442-1M8.5 16a2.5 2.5 0 1 1 5 0 2.5 2.5 0 0 1-5 0M21 13.5a2.5 2.5 0 1 1 0 5 2.5 2.5 0 0 1 0-5M29 13.5a.5.5 0 0 0-.5.5v8c0 .856-1.477 2.5-3.5 2.5H7A3.504 3.504 0 0 1 3.5 21V11A3.504 3.504 0 0 1 7 7.5h9a.5.5 0 0 0 0-1H7A4.505 4.505 0 0 0 2.5 11v10A4.505 4.505 0 0 0 7 25.5h18c2.424 0 4.5-1.924 4.5-3.5v-8a.5.5 0 0 0-.5-.5M21 7.5h3.5V11a.5.5 0 0 0 1 0V7.5H29a.5.5 0 0 0 0-1h-3.5V3a.5.5 0 0 0-1 0v3.5H21a.5.5 0 0 0 0 1"/></svg>