<svg xmlns="http://www.w3.org/2000/svg" width="32" height="32" viewBox="0 0 32 32"><path d="M17.556 18h-3.112c.36-.605.552-1.295.556-2a4 4 0 1 0-4 4h10a4 4 0 1 0-4-4c.004.705.196 1.395.556 2M9 16a2 2 0 1 1 4 0 2 2 0 0 1-4 0m12-2a2 2 0 1 1 0 4 2 2 0 0 1 0-4M29 13a1 1 0 0 0-1 1v8c0 .597-1.267 2-3 2H7a3.003 3.003 0 0 1-3-3V11a3.003 3.003 0 0 1 3-3h9a1 1 0 1 0 0-2H7a5.006 5.006 0 0 0-5 5v10a5.006 5.006 0 0 0 5 5h18c2.692 0 5-2.199 5-4v-8a1 1 0 0 0-1-1M21 8h3v3a1 1 0 0 0 2 0V8h3a1 1 0 1 0 0-2h-3V3a1 1 0 0 0-2 0v3h-3a1 1 0 1 0 0 2"/></svg>