<svg xmlns="http://www.w3.org/2000/svg" width="32" height="32" viewBox="0 0 32 32"><path d="M2 24a1 1 0 0 1 1-1h26a1 1 0 1 1 0 2H3a1 1 0 0 1-1-1M5 29a1 1 0 0 1 1-1h20a1 1 0 1 1 0 2H6a1 1 0 0 1-1-1M16 4a3 3 0 1 0 0 6 3 3 0 0 0 0-6m-5 3a5 5 0 1 1 10 0 5 5 0 0 1-10 0M11.655 13.353C10.578 14.171 10 15.227 10 16.314c0 .082.028.22.26.423.248.217.66.444 1.25.645 1.175.4 2.808.618 4.49.618s3.315-.217 4.49-.618c.59-.201 1.002-.428 1.25-.645.232-.204.26-.341.26-.423 0-1.087-.578-2.143-1.655-2.961C19.267 12.535 17.735 12 16 12s-3.267.535-4.345 1.353m-1.21-1.593C11.903 10.655 13.87 10 16 10s4.098.655 5.554 1.76C23.011 12.866 24 14.467 24 16.314c0 .814-.41 1.46-.942 1.927-.519.455-1.201.788-1.923 1.034-1.45.495-3.317.725-5.135.725s-3.685-.23-5.135-.725c-.722-.246-1.404-.579-1.923-1.034C8.41 17.774 8 17.128 8 16.314c0-1.847.989-3.448 2.446-4.554"/></svg>