<svg xmlns="http://www.w3.org/2000/svg" width="32" height="32" viewBox="0 0 32 32"><path d="M13.98 18.25a3.71 3.71 0 0 0 .138-4.333A3.75 3.75 0 1 0 11 19.75h10A3.75 3.75 0 1 0 17.25 16c.003.814.273 1.605.77 2.25zM8.75 16a2.25 2.25 0 1 1 4.5 0 2.25 2.25 0 0 1-4.5 0m10 0a2.25 2.25 0 1 1 4.5 0 2.25 2.25 0 0 1-4.5 0M29 13.25a.75.75 0 0 0-.75.75v8c0 .75-1.405 2.25-3.25 2.25H7A3.254 3.254 0 0 1 3.75 21V11A3.254 3.254 0 0 1 7 7.75h9a.75.75 0 1 0 0-1.5H7A4.755 4.755 0 0 0 2.25 11v10A4.756 4.756 0 0 0 7 25.75h18c2.559 0 4.75-2.061 4.75-3.75v-8a.75.75 0 0 0-.75-.75M21 7.75h3.25V11a.75.75 0 1 0 1.5 0V7.75H29a.75.75 0 1 0 0-1.5h-3.25V3a.75.75 0 1 0-1.5 0v3.25H21a.75.75 0 1 0 0 1.5"/></svg>