<svg xmlns="http://www.w3.org/2000/svg" width="32" height="32" viewBox="0 0 32 32"><path d="M7 25a3.003 3.003 0 0 1-3-3v-1H16.77l-2-2H4v-9a2.96 2.96 0 0 1 .365-1.404L2.91 7.141A4.961 4.961 0 0 0 2 10v12a5.006 5.006 0 0 0 5 5H22.77l-2-2H7ZM30 22V10a5.005 5.005 0 0 0-5-5H7a4.896 4.896 0 0 0-.532.054l-2.76-2.761a.996.996 0 0 0-1.436 1.382c.009.01.012.023.021.032l26 26a1 1 0 0 0 1.414-1.414l-2.065-2.066A4.988 4.988 0 0 0 30 22Zm-2 0a3.003 3.003 0 0 1-1.826 2.76L22.414 21H28v1Zm0-3h-7.586l-12-12H25a3.003 3.003 0 0 1 3 3v9Z"/><path d="M17 9h-2a1 1 0 0 0 0 2h2a1 1 0 0 0 0-2Z"/></svg>