<svg xmlns="http://www.w3.org/2000/svg" width="32" height="32" viewBox="0 0 32 32"><path d="M29.75 22V10A4.755 4.755 0 0 0 25 5.25H7a4.68 4.68 0 0 0-.626.063L3.53 2.47a.75.75 0 0 0-1.062 1.057l.002.003 26 26a.75.75 0 0 0 1.06-1.06l-2.3-2.301A4.734 4.734 0 0 0 29.75 22Zm-1.5 0a3.246 3.246 0 0 1-2.146 3.044l-4.293-4.294h6.439V22Zm0-2.75h-7.94L7.81 6.75H25A3.254 3.254 0 0 1 28.25 10v9.25ZM7 25.25A3.254 3.254 0 0 1 3.75 22v-1.25h13.82l-1.5-1.5H3.75V10a3.228 3.228 0 0 1 .871-2.198l-1.06-1.06A4.723 4.723 0 0 0 2.25 10v12A4.756 4.756 0 0 0 7 26.75h16.57l-1.5-1.5H7Z"/><path d="M17 9.25h-2a.75.75 0 1 0 0 1.5h2a.75.75 0 1 0 0-1.5Z"/></svg>