<svg xmlns="http://www.w3.org/2000/svg" width="32" height="32" viewBox="0 0 32 32"><path d="M7 25a3.003 3.003 0 0 1-3-3v-1h12.769l-2-2H4v-9a2.96 2.96 0 0 1 .365-1.404L2.909 7.141A4.96 4.96 0 0 0 2 10v12a5.006 5.006 0 0 0 5 5h15.769l-2-2zM30 22V10a5.006 5.006 0 0 0-5-5H7a5 5 0 0 0-.532.054L3.707 2.293a.996.996 0 0 0-1.435 1.382c.009.01.011.023.021.032l26 26A.998.998 0 0 0 30 29a1 1 0 0 0-.293-.707l-2.065-2.065A4.99 4.99 0 0 0 30 22m-2 0a3 3 0 0 1-1.826 2.76L22.414 21H28zm0-3h-7.586l-12-12H25a3.003 3.003 0 0 1 3 3zM17 9h-2a1 1 0 1 0 0 2h2a1 1 0 0 0 0-2"/></svg>