<svg xmlns="http://www.w3.org/2000/svg" width="32" height="32" viewBox="0 0 32 32"><path d="M7 25.5A3.504 3.504 0 0 1 3.5 22v-1.5h14.877l-1-1H3.5V10a3.495 3.495 0 0 1 1.507-2.87L4.3 6.423A4.48 4.48 0 0 0 2.5 10v12A4.505 4.505 0 0 0 7 26.5h17.377l-1-1H7ZM29.5 22V10A4.505 4.505 0 0 0 25 5.5H7c-.242.005-.482.03-.72.073L3.354 2.647a.5.5 0 0 0-.707.707L5.183 5.89v.001l.782.783h.002L18.793 19.5h-.002l1 1h.002l5 5h-.002l.927.927h.002l2.927 2.927a.5.5 0 0 0 .707-.707l-2.537-2.537A4.502 4.502 0 0 0 29.5 22ZM7.207 6.5H25a3.504 3.504 0 0 1 3.5 3.5v9.5h-8.293l-13-13Zm18.827 18.826L21.207 20.5H28.5V22a3.493 3.493 0 0 1-2.466 3.326Z"/><path d="M17 9.5h-2a.5.5 0 1 0 0 1h2a.5.5 0 0 0 0-1Z"/></svg>