<svg xmlns="http://www.w3.org/2000/svg" width="32" height="32" viewBox="0 0 32 32"><path d="M29.75 22V10A4.755 4.755 0 0 0 25 5.25H7a5 5 0 0 0-.626.063L3.53 2.47a.75.75 0 0 0-1.062 1.057l.002.003 26 26a.75.75 0 0 0 1.06-1.06l-2.3-2.301A4.73 4.73 0 0 0 29.75 22m-1.5 0a3.25 3.25 0 0 1-2.146 3.044l-4.293-4.294h6.439zm0-2.75h-7.94L7.81 6.75H25A3.254 3.254 0 0 1 28.25 10zM7 25.25A3.254 3.254 0 0 1 3.75 22v-1.25h13.82l-1.5-1.5H3.75V10a3.23 3.23 0 0 1 .871-2.198l-1.06-1.06A4.72 4.72 0 0 0 2.25 10v12A4.756 4.756 0 0 0 7 26.75h16.57l-1.5-1.5zM17 9.25h-2a.75.75 0 1 0 0 1.5h2a.75.75 0 1 0 0-1.5"/></svg>