<svg xmlns="http://www.w3.org/2000/svg" width="32" height="32" viewBox="0 0 32 32"><path d="M29 16c0 7.18-5.82 13-13 13S3 23.18 3 16 8.82 3 16 3s13 5.82 13 13M16.996 6.908a1 1 0 0 0-1.992 0l-.809 8.736-.536-4.379a1 1 0 0 0-1.972-.078l-.881 4.317-.516-1.687a1 1 0 0 0-1.928.054l-.48 1.96H6a1 1 0 1 0 0 2h2.667c.259 0 .499-.098.679-.265l.698 2.281a1 1 0 0 0 1.936-.093l.44-2.155.92 7.523a1 1 0 0 0 1.99-.03l.67-7.246.67 7.246a1 1 0 0 0 1.99.03l.92-7.523.44 2.156a1 1 0 0 0 1.936.092l.698-2.28c.18.166.42.265.68.265H26a1 1 0 1 0 0-2h-1.882l-.48-1.96a1 1 0 0 0-1.928-.055l-.516 1.687-.88-4.317a1 1 0 0 0-1.973.078l-.536 4.379z"/></svg>