<svg xmlns="http://www.w3.org/2000/svg" width="32" height="32" viewBox="0 0 32 32"><path d="M14.25 3.696c0-.384-.336-.696-.75-.696s-.75.312-.75.696v24.607c0 .385.336.697.75.697s.75-.312.75-.697zM9.25 7.75a.75.75 0 0 0-1.5 0V24a.75.75 0 1 0 1.5 0zM3.5 13a.75.75 0 0 1 .75.75v4.5a.75.75 0 1 1-1.5 0v-4.5A.75.75 0 0 1 3.5 13M19.25 9.75a.75.75 0 0 0-1.5 0v12.5a.75.75 0 0 0 1.5 0zM23.5 11a.75.75 0 0 1 .75.75V20a.75.75 0 0 1-1.5 0v-8.25a.75.75 0 0 1 .75-.75M29.25 13.75a.75.75 0 0 0-1.5 0v4.5a.75.75 0 0 0 1.5 0z"/></svg>