<svg xmlns="http://www.w3.org/2000/svg" width="32" height="32" viewBox="0 0 32 32"><path d="M29 16c0 7.18-5.82 13-13 13S3 23.18 3 16 8.82 3 16 3s13 5.82 13 13m-12.064-2.129a1 1 0 0 0-1.872 0l-.883 2.355-.629-1.198a1 1 0 0 0-1.638-.194l-1.051 1.201-.924-.703a1 1 0 0 0-1.295.071l-.377.36H6a1 1 0 0 0 0 2h2.667a1 1 0 0 0 .69-.277l.049-.046.988.753a1 1 0 0 0 1.359-.137l.706-.808.989 1.884a1 1 0 0 0 1.822-.114l.73-1.947.73 1.947a1 1 0 0 0 1.822.114l.989-1.884.706.808a1 1 0 0 0 1.359.137l.988-.753.05.046a1 1 0 0 0 .69.276H26a1 1 0 1 0 0-2h-2.267l-.377-.359a1 1 0 0 0-1.295-.071l-.924.703-1.051-1.201a1 1 0 0 0-1.638.194l-.629 1.197z"/></svg>