<svg xmlns="http://www.w3.org/2000/svg" width="32" height="32" viewBox="0 0 32 32"><path d="M29 16c0 7.18-5.82 13-13 13S3 23.18 3 16 8.82 3 16 3s13 5.82 13 13M16.996 6.908a1 1 0 0 0-1.992 0l-.566 6.116-.642-.642-.137-1.117a1 1 0 0 0-1.63-.65L9.708 8.294a1 1 0 0 0-1.54 1.26l14.28 14.28a1 1 0 0 0 1.26-1.54l-2.016-2.016a1 1 0 0 0 .265-.43l.698-2.28c.18.166.42.265.68.265H26a1 1 0 1 0 0-2h-1.882l-.48-1.96a1 1 0 0 0-1.928-.055l-.516 1.687-.88-4.317a1 1 0 0 0-1.973.078l-.536 4.379zm1.908 16.211-2.662-2.662.429 4.635a1 1 0 0 0 1.988.03zM15.8 20.014l-4.911-4.911-.082.4-.213-.695-1.628-1.628a1 1 0 0 0-.603.691l-.48 1.96H6a1 1 0 1 0 0 2h2.667c.259 0 .499-.098.679-.265l.698 2.281a1 1 0 0 0 1.936-.093l.44-2.155.92 7.523a1 1 0 0 0 1.99-.03zm3.927-1.703-.208-.207.062-.505z"/></svg>