<svg xmlns="http://www.w3.org/2000/svg" width="57" height="55" fill="none" viewBox="0 0 57 55"><g clip-path="url(#a)"><path fill="#6292AE" d="M5.25 27.42c0-8.99 10.38-16.29 23.19-16.29C12.79 11.14.16 17.73.16 27.62s12.63 16.09 28.28 16.09c-12.81 0-23.19-7.29-23.19-16.3zM28.44 11.14c12.81 0 23.19 7.29 23.19 16.29s-10.38 16.3-23.19 16.3c15.66 0 28.4-6.19 28.4-16.09s-12.75-16.49-28.4-16.49z"/><path fill="#1E4973" d="M3.81 54.32c6.2-16.28 28.28-71.01 27.33-22.35-.36-5.54 1.74-40.72-27 22.35z"/><path fill="#1E4973" d="M52.61.33c-6.52 17.02-28.01 69.74-27.08 21.7.36 5.51-1.72 40.44 26.66-21.61z"/></g><defs><clipPath id="a"><path fill="#fff" d="M0 .33h57v54H0z"/></clipPath></defs></svg>