<svg xmlns="http://www.w3.org/2000/svg" width="145" height="55" fill="none" viewBox="0 0 145 55"><g clip-path="url(#a)"><path fill="#6292AE" d="M5.25 27.42c0-8.99 10.38-16.29 23.19-16.29C12.79 11.14.16 17.73.16 27.62s12.63 16.09 28.28 16.09c-12.81 0-23.19-7.29-23.19-16.3zM28.44 11.14c12.81 0 23.19 7.29 23.19 16.29s-10.38 16.3-23.19 16.3c15.66 0 28.4-6.19 28.4-16.09s-12.75-16.49-28.4-16.49z"/><path fill="#1E4973" d="M3.81 54.32c6.2-16.28 28.28-71.01 27.33-22.35-.36-5.54 1.74-40.72-27 22.35z"/><path fill="#1E4973" d="M52.61.33c-6.52 17.02-28.01 69.74-27.08 21.7.36 5.51-1.72 40.44 26.66-21.61zM60.14 13.51l13.31 13.94V14.23h1.91v17.83L62.05 18.15v13.14h-1.91zM81.72 22.02c2.23 0 3.77 1.79 3.77 3.95s-1.54 3.95-3.77 3.95-3.77-1.77-3.77-3.95 1.53-3.95 3.77-3.95m0 9.57c3.09 0 5.59-2.46 5.59-5.59s-2.48-5.64-5.59-5.64-5.59 2.5-5.59 5.64 2.5 5.59 5.59 5.59M89.73 21.79h.05c.63-.83 1.18-1.44 2.35-1.44.61 0 1.11.2 1.63.5l-.86 1.64c-.36-.25-.61-.47-1.08-.47-1.99 0-2.08 2.56-2.08 3.95v5.33h-1.82V20.65h1.82v1.15zM97.03 31.29h-1.82V22.3H94.1v-1.66h1.11v-3.83h1.82v3.83h1.9v1.66h-1.9zM101.249 12.61v9.27l.05.05c.75-1.01 1.72-1.57 3.02-1.57 2.95 0 3.63 2.12 3.63 4.61v6.33h-1.82v-6.01c0-1.72-.13-3.27-2.23-3.27-2.48 0-2.64 2.31-2.64 4.22v5.06h-1.82V12.61h1.82zM110.89 31.29h-1.82V12.61h1.82zM117.31 22.02c2.24 0 3.58 1.73 3.58 3.86s-1.22 4.04-3.56 4.04-3.49-1.98-3.49-4.07 1.36-3.84 3.47-3.84zm5.31-1.38h-1.82v1.51h-.04c-.88-1.12-2.2-1.8-3.65-1.8-3.2 0-5.13 2.6-5.13 5.64s1.98 5.59 5.1 5.59c1.49 0 2.74-.59 3.67-1.76h.04v1.46h1.82V20.63zM125.96 21.93h.05c.74-1.01 1.72-1.57 3.03-1.57 2.95 0 3.63 2.12 3.63 4.61v6.33h-1.82v-6.01c0-1.72-.13-3.27-2.23-3.27-2.48 0-2.64 2.31-2.64 4.22v5.06h-1.82V20.65h1.82v1.28zM139.15 22.02c2.24 0 3.58 1.73 3.58 3.86s-1.22 4.04-3.56 4.04-3.49-1.98-3.49-4.07 1.36-3.84 3.47-3.84zm3.49 9.27h1.82V12.61h-1.82v9.54h-.04a4.63 4.63 0 0 0-3.65-1.8c-3.19 0-5.13 2.6-5.13 5.64s1.98 5.59 5.11 5.59c1.45 0 2.79-.61 3.67-1.76h.04v1.47"/><path fill="#6292AE" d="M64.25 37.12c-.27.79-1.07 1.4-2.05 1.4a2.23 2.23 0 0 1-2.26-2.25c0-1.23.92-2.24 2.25-2.24 1.16 0 1.85.82 2.06 1.42h-.73a1.52 1.52 0 0 0-1.34-.81c-.92 0-1.56.75-1.56 1.63s.65 1.64 1.56 1.64c.84 0 1.24-.63 1.33-.79h.74M67.01 36.3c0-1.36 1.05-2.27 2.26-2.27 1.29 0 2.27 1 2.27 2.24s-.97 2.24-2.27 2.24-2.25-1.02-2.25-2.21zm.68-.03c0 .9.67 1.64 1.59 1.64s1.57-.79 1.57-1.63-.62-1.64-1.57-1.64-1.58.76-1.58 1.63zM74.5 38.43v-4.32h.95l1.34 3.35 1.33-3.35h.94v4.32h-.64l.02-3.64-1.43 3.64h-.45l-1.43-3.64.02 3.64h-.65M82.23 38.43v-4.32h.95l1.34 3.35 1.33-3.35h.94v4.32h-.64l.02-3.64-1.43 3.64h-.45l-1.43-3.64.02 3.64h-.65M90.64 34.11v2.7c0 .27 0 .5.16.75.13.2.37.34.67.34s.54-.13.65-.33c.16-.25.16-.48.16-.76v-2.7h.68v2.7c0 .57-.09 1.01-.47 1.33-.26.23-.6.38-1.03.38-.31 0-.75-.09-1.05-.37-.43-.38-.48-.81-.47-1.33v-2.7h.69zM99.011 37.4v-3.29h.65v4.32h-.63l-2.26-3.29v3.29h-.65v-4.32h.65zM102.83 34.11h.69v4.32h-.69zM110.82 37.12c-.27.79-1.07 1.4-2.05 1.4a2.23 2.23 0 0 1-2.26-2.25c0-1.23.92-2.24 2.25-2.24 1.16 0 1.85.82 2.06 1.42h-.73a1.52 1.52 0 0 0-1.34-.81c-.92 0-1.56.75-1.56 1.63s.65 1.64 1.57 1.64c.83 0 1.24-.63 1.33-.79h.73M113.85 38.43h-.75l1.77-4.32h.62l1.75 4.32h-.75l-.41-1.02h-1.85l-.4 1.02zm1.31-3.52-.73 1.94h1.47zM120.25 34.72h-.99v-.61h2.67v.61h-.99v3.71h-.69zM124.73 34.11h.69v4.32h-.69zM128.4 36.3c0-1.36 1.05-2.27 2.26-2.27 1.29 0 2.27 1 2.27 2.24s-.97 2.24-2.27 2.24-2.25-1.02-2.25-2.21zm.68-.03c0 .9.67 1.64 1.59 1.64s1.56-.79 1.56-1.63-.62-1.64-1.57-1.64-1.58.76-1.58 1.63M138.79 37.4v-3.29h.65v4.32h-.63l-2.26-3.29v3.29h-.65v-4.32h.65zM143.08 37.15c.05.65.5.78.73.78.39 0 .72-.3.72-.69 0-.48-.41-.59-.96-.79-.34-.11-1.09-.36-1.09-1.17s.68-1.24 1.36-1.24c.55 0 1.25.3 1.3 1.19h-.68c-.05-.23-.15-.61-.65-.61-.35 0-.65.24-.65.61 0 .42.32.53 1.02.78.54.23 1.04.5 1.04 1.2s-.47 1.31-1.4 1.31c-.86 0-1.41-.53-1.42-1.36h.68z"/></g><defs><clipPath id="a"><path fill="#fff" d="M0 .33h145v54H0z"/></clipPath></defs></svg>