<svg xmlns="http://www.w3.org/2000/svg" width="32" height="32" viewBox="0 0 32 32"><path d="M25 2H11a5.002 5.002 0 0 0-4.908 4.091A5.002 5.002 0 0 0 2 11v14a5.006 5.006 0 0 0 5 5h14a5.001 5.001 0 0 0 4.908-4.092A5.002 5.002 0 0 0 30 21V7a5.006 5.006 0 0 0-5-5Zm-1 23a3.004 3.004 0 0 1-3 3H7a3.003 3.003 0 0 1-3-3V11a3.003 3.003 0 0 1 3-3h14a3.003 3.003 0 0 1 3 3v14Zm4-4a2.995 2.995 0 0 1-2 2.816V11a5.006 5.006 0 0 0-5-5H8.184A2.995 2.995 0 0 1 11 4h14a3.003 3.003 0 0 1 3 3v14Z"/><path d="M20 12.003H7.008a1 1 0 0 0 0 2H20a1 1 0 0 0 0-2ZM20 17H7a1 1 0 0 0 0 2h13a1 1 0 0 0 0-2ZM13 22H7a1 1 0 0 0 0 2h6a1 1 0 0 0 0-2Z"/></svg>