<svg xmlns="http://www.w3.org/2000/svg" width="32" height="32" viewBox="0 0 32 32"><path d="M25 2.25H11a4.743 4.743 0 0 0-4.681 4.069A4.743 4.743 0 0 0 2.25 11v14A4.756 4.756 0 0 0 7 29.75h14a4.743 4.743 0 0 0 4.681-4.069A4.742 4.742 0 0 0 29.75 21V7A4.755 4.755 0 0 0 25 2.25ZM24.25 25A3.254 3.254 0 0 1 21 28.25H7A3.254 3.254 0 0 1 3.75 25V11A3.254 3.254 0 0 1 7 7.75h14A3.254 3.254 0 0 1 24.25 11v14Zm4-4a3.25 3.25 0 0 1-2.5 3.154V11A4.755 4.755 0 0 0 21 6.25H7.846A3.25 3.25 0 0 1 11 3.75h14A3.254 3.254 0 0 1 28.25 7v14Z"/><path d="M20 12.253H7.008a.75.75 0 1 0 0 1.5H20a.75.75 0 1 0 0-1.5ZM20 17.25H7a.75.75 0 1 0 0 1.5h13a.75.75 0 1 0 0-1.5ZM13 22.25H7a.75.75 0 1 0 0 1.5h6a.75.75 0 1 0 0-1.5Z"/></svg>