<svg xmlns="http://www.w3.org/2000/svg" width="32" height="32" viewBox="0 0 32 32"><path d="M10.377 17.025H8.432v5.985h.849v-2.136h1.063q1.089 0 1.695-.433.682-.49.682-1.471 0-.88-.531-1.38-.609-.565-1.813-.565m1.164 2.801q-.357.357-1.18.357H9.28v-2.468h1.113q.648 0 1.022.29.423.325.424.965 0 .566-.299.856M15.622 17.025h-1.945v5.985h.849v-2.136h1.063q1.089 0 1.695-.433.683-.49.682-1.471 0-.88-.531-1.38-.607-.565-1.813-.565m1.164 2.801q-.357.357-1.18.357h-1.08v-2.468h1.113q.649 0 1.022.29.424.325.424.965 0 .566-.299.856M18.298 17.781h1.986v5.229h.849V17.78h2.01v-.756h-4.845zM23 4.5H9A4.505 4.505 0 0 0 4.5 9v14c0 2.481 2.019 4.5 4.5 4.5h14c2.482 0 4.5-2.019 4.5-4.5V9c0-2.481-2.018-4.5-4.5-4.5M26.5 23c0 1.93-1.57 3.5-3.5 3.5H9c-1.93 0-3.5-1.57-3.5-3.5V9c0-1.93 1.57-3.5 3.5-3.5h14c1.93 0 3.5 1.57 3.5 3.5z"/></svg>