<svg xmlns="http://www.w3.org/2000/svg" width="32" height="32" viewBox="0 0 32 32"><path d="M10.377 17.025H8.432v5.985h.849v-2.136h1.063c.726 0 1.291-.144 1.695-.433.455-.327.682-.817.682-1.471 0-.587-.177-1.047-.531-1.38-.406-.376-1.01-.565-1.813-.565Zm1.164 2.801c-.238.238-.632.357-1.18.357H9.28v-2.468h1.113c.432 0 .773.097 1.022.29.282.216.424.539.424.965 0 .377-.1.663-.299.856ZM15.622 17.025h-1.945v5.985h.849v-2.136h1.063c.726 0 1.291-.144 1.695-.433.456-.327.682-.817.682-1.471 0-.587-.177-1.047-.531-1.38-.405-.376-1.009-.565-1.813-.565Zm1.164 2.801c-.238.238-.631.357-1.18.357h-1.08v-2.468h1.113c.433 0 .773.097 1.022.29.283.216.424.539.424.965 0 .377-.1.663-.299.856ZM18.298 17.781h1.986v5.229h.849V17.78h2.01v-.756h-4.845v.756Z"/><path d="M23 4.5H9A4.505 4.505 0 0 0 4.5 9v14c0 2.481 2.019 4.5 4.5 4.5h14c2.482 0 4.5-2.019 4.5-4.5V9c0-2.481-2.018-4.5-4.5-4.5ZM26.5 23c0 1.93-1.57 3.5-3.5 3.5H9c-1.93 0-3.5-1.57-3.5-3.5V9c0-1.93 1.57-3.5 3.5-3.5h14c1.93 0 3.5 1.57 3.5 3.5v14Z"/></svg>