<svg xmlns="http://www.w3.org/2000/svg" width="32" height="32" viewBox="0 0 32 32"><path d="M23 4.25H9A4.756 4.756 0 0 0 4.25 9v14A4.756 4.756 0 0 0 9 27.75h14A4.755 4.755 0 0 0 27.75 23V9A4.755 4.755 0 0 0 23 4.25M26.25 23A3.254 3.254 0 0 1 23 26.25H9A3.254 3.254 0 0 1 5.75 23V9A3.254 3.254 0 0 1 9 5.75h14A3.254 3.254 0 0 1 26.25 9zM22 9.25H10a.75.75 0 0 0 0 1.5h12a.75.75 0 1 0 0-1.5M22 14.25H10a.75.75 0 1 0 0 1.5h12a.75.75 0 1 0 0-1.5M15 19.25h-5a.75.75 0 1 0 0 1.5h5a.75.75 0 1 0 0-1.5"/></svg>