<svg xmlns="http://www.w3.org/2000/svg" width="32" height="32" viewBox="0 0 32 32"><path d="M25 2.5H11a4.49 4.49 0 0 0-4.454 4.046A4.49 4.49 0 0 0 2.5 11v14A4.505 4.505 0 0 0 7 29.5h14a4.49 4.49 0 0 0 4.454-4.046A4.49 4.49 0 0 0 29.5 21V7A4.505 4.505 0 0 0 25 2.5M24.5 25a3.504 3.504 0 0 1-3.5 3.5H7A3.504 3.504 0 0 1 3.5 25V11A3.504 3.504 0 0 1 7 7.5h14a3.504 3.504 0 0 1 3.5 3.5zm4-4a3.495 3.495 0 0 1-3 3.45V11A4.505 4.505 0 0 0 21 6.5H7.55a3.495 3.495 0 0 1 3.45-3h14A3.504 3.504 0 0 1 28.5 7zM20 12.502H7.008a.5.5 0 0 0 0 1H20a.5.5 0 0 0 0-1M20 17.5H7a.5.5 0 0 0 0 1h13a.5.5 0 0 0 0-1M13 22.5H7a.5.5 0 0 0 0 1h6a.5.5 0 0 0 0-1"/></svg>