<svg xmlns="http://www.w3.org/2000/svg" width="32" height="32" viewBox="0 0 32 32"><path d="M10.469 17.025H8.308v5.985h1.396v-2.003h.815q1.197 0 1.82-.416.715-.482.715-1.572 0-.955-.532-1.437-.616-.557-2.053-.557m.066 3.026h-.83v-2.07h.78q1.13 0 1.13 1.038 0 1.032-1.08 1.032M16.005 17.025h-2.161v5.985h1.397v-2.003h.814q1.197 0 1.82-.416.715-.482.715-1.572 0-.955-.532-1.437-.616-.557-2.053-.557m.067 3.026h-.832v-2.07h.782q1.13 0 1.13 1.038 0 1.032-1.08 1.032M18.84 18.072h1.752v4.938h1.396v-4.938h1.78v-1.047h-4.929zM23 4H9C6.243 4 4 6.243 4 9v14c0 2.757 2.243 5 5 5h14c2.757 0 5-2.243 5-5V9c0-2.757-2.243-5-5-5m3 19c0 1.654-1.346 3-3 3H9c-1.654 0-3-1.346-3-3V9c0-1.654 1.346-3 3-3h14c1.654 0 3 1.346 3 3z"/></svg>