<svg xmlns="http://www.w3.org/2000/svg" width="32" height="32" viewBox="0 0 32 32"><path d="M10.41 17.025H8.382v5.985h1.065v-2.078h.964q2.443 0 2.443-1.937 0-1.97-2.444-1.97m.017 3.109h-.98v-2.31h.98q.599 0 .94.257.381.3.381.914 0 1.139-1.321 1.139M15.772 17.025h-2.029v5.985h1.065v-2.078h.964q2.443 0 2.443-1.937 0-1.97-2.443-1.97m.016 3.109h-.98v-2.31h.98q.599 0 .94.257.382.3.382.914 0 1.139-1.322 1.139M18.515 17.897h1.895v5.113h1.064v-5.113h1.92v-.872h-4.88zM23 4.25H9C6.381 4.25 4.25 6.38 4.25 9v14c0 2.619 2.131 4.75 4.75 4.75h14c2.62 0 4.75-2.131 4.75-4.75V9c0-2.62-2.13-4.75-4.75-4.75M26.25 23A3.254 3.254 0 0 1 23 26.25H9A3.254 3.254 0 0 1 5.75 23V9A3.254 3.254 0 0 1 9 5.75h14A3.254 3.254 0 0 1 26.25 9z"/></svg>