<svg xmlns="http://www.w3.org/2000/svg" width="32" height="32" viewBox="0 0 32 32"><path d="m27 20.237-6.009.004 1.546-8.503 4.464-.003a.75.75 0 1 0-.001-1.5l-4.19.003.928-5.104a.75.75 0 0 0-1.476-.268l-.977 5.373-8.476.006.93-5.112a.751.751 0 0 0-.605-.872.76.76 0 0 0-.872.605l-.979 5.38L6 10.25A.75.75 0 1 0 6 11.75l5.01-.004-1.545 8.503-4.466.003a.75.75 0 0 0 .001 1.5l4.192-.003-.93 5.117a.75.75 0 0 0 1.476.268l.98-5.386 8.475-.006-.931 5.124a.75.75 0 0 0 1.476.268l.98-5.393 6.283-.004a.75.75 0 0 0-.001-1.5Zm-16.01.01 1.546-8.502 8.476-.006-1.546 8.503-8.476.006Z"/></svg>