<svg xmlns="http://www.w3.org/2000/svg" width="32" height="32" viewBox="0 0 32 32"><path d="m27 20.487-6.308.004 1.637-9.003L27 11.485a.5.5 0 0 0 0-1l-4.49.003.982-5.398a.5.5 0 1 0-.984-.18l-1.014 5.579-8.985.006.983-5.405a.5.5 0 1 0-.984-.18l-1.016 5.586L6 10.5a.5.5 0 0 0 0 1l5.31-.004-1.636 9.002L5 20.503a.5.5 0 0 0 0 1l4.492-.003-.984 5.41a.5.5 0 0 0 .984.18l1.017-5.591 8.984-.006-.985 5.418a.5.5 0 0 0 .984.18l1.018-5.599 6.49-.004a.5.5 0 0 0 0-1Zm-16.31.01 1.638-9.002 8.984-.006-1.637 9.003-8.984.006Z"/></svg>