<svg xmlns="http://www.w3.org/2000/svg" width="32" height="32" viewBox="0 0 32 32"><path d="m27 19.987-5.71.004 1.455-8.003 4.256-.003a1 1 0 1 0-.001-2l-3.891.003.874-4.81a1 1 0 1 0-1.967-.357l-.94 5.168-7.969.006.876-4.817a1 1 0 1 0-1.967-.357l-.94 5.175L5.998 10a1 1 0 0 0 0 2l4.713-.004L9.257 20l-4.258.003a.997.997 0 0 0-1 1 1 1 0 0 0 1 1l3.894-.003-.877 4.822a.998.998 0 1 0 1.967.357l.942-5.18 7.97-.006-.879 4.829a.999.999 0 1 0 1.967.357l.943-5.187 6.075-.004a1 1 0 1 0-.001-2m-15.711.01 1.455-8.002 7.969-.006-1.455 8.003z"/></svg>