<svg xmlns="http://www.w3.org/2000/svg" width="32" height="32" viewBox="0 0 32 32"><path d="m27 19.987-5.71.004 1.455-8.003 4.256-.003a1 1 0 1 0-.001-2l-3.891.003.874-4.81a1 1 0 1 0-1.966-.357l-.94 5.168-7.97.006.876-4.817a1.002 1.002 0 0 0-1.194-1.155 1 1 0 0 0-.772.798l-.941 5.175L5.999 10A1 1 0 0 0 6 12l4.712-.004L9.257 20l-4.258.003a.997.997 0 0 0-1 1 1 1 0 0 0 1.001 1l3.893-.003-.876 4.822a.998.998 0 1 0 1.966.357l.942-5.18 7.97-.006-.878 4.829a.999.999 0 1 0 1.966.357l.944-5.187L27 21.987a1 1 0 1 0-.001-2Zm-15.711.01 1.455-8.002 7.97-.006-1.456 8.003-7.969.005Z"/></svg>