<svg xmlns="http://www.w3.org/2000/svg" width="32" height="32" viewBox="0 0 32 32"><path d="M30 22V10a5.006 5.006 0 0 0-5-5H7a4.894 4.894 0 0 0-.532.054l-2.761-2.76A.996.996 0 0 0 2.27 3.674c.01.01.012.023.022.032l26 26a1 1 0 0 0 1.414-1.414l-2.066-2.065A4.988 4.988 0 0 0 30 22ZM8.414 7H20v11.586L8.414 7ZM28 22a3.004 3.004 0 0 1-1.826 2.76L22 20.586V7h3a3.003 3.003 0 0 1 3 3v12ZM7 25a3.003 3.003 0 0 1-3-3v-1h12.768l-2-2H4v-9c.003-.49.129-.973.365-1.403L2.909 7.14a4.962 4.962 0 0 0-.91 2.86v12a5.006 5.006 0 0 0 5 5h15.77l-2-2H6.998Z"/><path d="M25 9a1 1 0 0 0-1 1v10a1 1 0 1 0 2 0V10a1.001 1.001 0 0 0-1-1Z"/></svg>