<svg xmlns="http://www.w3.org/2000/svg" width="32" height="32" viewBox="0 0 32 32"><path d="M24.47 9.47a.75.75 0 0 1 1.28.53v10a.75.75 0 0 1-1.5 0V10a.75.75 0 0 1 .22-.53M29.75 22V10A4.755 4.755 0 0 0 25 5.25H7q-.316.01-.626.064L3.53 2.47a.75.75 0 0 0-1.063 1.058l.002.003 26 26a.75.75 0 0 0 1.061-1.061l-2.301-2.301A4.74 4.74 0 0 0 29.749 22M7.81 6.75h12.44V18.5a.74.74 0 0 1-.196.494zM28.25 22a3.25 3.25 0 0 1-2.146 3.044l-4.987-4.987c.405-.417.632-.975.633-1.557V6.75H25A3.254 3.254 0 0 1 28.25 10zM7 25.25A3.254 3.254 0 0 1 3.75 22v-1.25h13.82l-1.5-1.5H3.75V10a3.23 3.23 0 0 1 .871-2.198l-1.06-1.06A4.72 4.72 0 0 0 2.25 10v12A4.755 4.755 0 0 0 7 26.75h16.57l-1.5-1.5z"/></svg>