<svg xmlns="http://www.w3.org/2000/svg" width="32" height="32" viewBox="0 0 32 32"><path d="M18 26.5a.506.506 0 0 1-.5.5h-3a.506.506 0 0 1-.5-.5v-8.268l-1.999-2V26.5a2.502 2.502 0 0 0 2.5 2.5h3a2.502 2.502 0 0 0 2.5-2.5V24.23l-2-2V26.5ZM29.707 28.293 20 18.585v-2.11A5.928 5.928 0 0 0 22 12a6.074 6.074 0 0 0-1.999-4.466V5.5A2.502 2.502 0 0 0 17.5 3h-3A2.502 2.502 0 0 0 12 5.5v2.026a5.954 5.954 0 0 0-1.333 1.727l-6.96-6.96a.997.997 0 0 0-1.434 1.384c.008.01.01.021.02.03l26 26a1 1 0 0 0 1.413-1.415Zm-17.5-17.5a3.954 3.954 0 0 1 1.394-1.994A1.001 1.001 0 0 0 14 8V5.5a.506.506 0 0 1 .5-.5h3a.506.506 0 0 1 .5.5v2.502a.999.999 0 0 0 .393.793A4.072 4.072 0 0 1 20 12a3.947 3.947 0 0 1-1.596 3.199 1 1 0 0 0-.404.803v.584l-5.792-5.793Z"/><path d="M16 13.25a1.25 1.25 0 1 0 0-2.5 1.25 1.25 0 0 0 0 2.5Z"/></svg>