<svg xmlns="http://www.w3.org/2000/svg" width="32" height="32" viewBox="0 0 32 32"><path d="M18.25 26.5a.75.75 0 0 1-.75.75h-3a.75.75 0 0 1-.75-.75v-9.568l-1.499-1.5V26.5a2.253 2.253 0 0 0 2.25 2.25h3a2.253 2.253 0 0 0 2.25-2.25V22.93l-1.5-1.5zM16 13a1 1 0 1 0 0-2 1 1 0 0 0 0 2M29.53 28.47l-9.78-9.781v-2.326a5.68 5.68 0 0 0 2-4.363 5.83 5.83 0 0 0-1.999-4.355V5.5a2.253 2.253 0 0 0-2.25-2.25h-3a2.253 2.253 0 0 0-2.25 2.25v2.14a5.7 5.7 0 0 0-1.512 2.038L3.53 2.469a.75.75 0 0 0-1.06 1.06l26 26a.75.75 0 1 0 1.06-1.06M11.912 10.85c.25-.9.79-1.692 1.538-2.252a.75.75 0 0 0 .3-.6V5.5a.75.75 0 0 1 .75-.75h3a.75.75 0 0 1 .75.75l.001 2.502a.75.75 0 0 0 .294.595A4.32 4.32 0 0 1 20.25 12a4.2 4.2 0 0 1-1.697 3.4.75.75 0 0 0-.303.601v1.188z"/></svg>