<svg xmlns="http://www.w3.org/2000/svg" width="32" height="32" viewBox="0 0 32 32"><path d="M18.25 26.5a.751.751 0 0 1-.75.75h-3a.751.751 0 0 1-.75-.75v-9.568l-1.499-1.5V26.5a2.253 2.253 0 0 0 2.25 2.25h3a2.253 2.253 0 0 0 2.25-2.25V22.93l-1.5-1.5V26.5ZM16 13a1 1 0 1 0 0-2 1 1 0 0 0 0 2Z"/><path d="m29.53 28.47-9.78-9.781v-2.326a5.683 5.683 0 0 0 2-4.364 5.825 5.825 0 0 0-1.999-4.354V5.5a2.253 2.253 0 0 0-2.25-2.25h-3a2.253 2.253 0 0 0-2.25 2.25v2.14a5.712 5.712 0 0 0-1.512 2.038L3.53 2.469a.75.75 0 0 0-1.06 1.06l26 26a.75.75 0 1 0 1.06-1.06ZM11.912 10.85c.25-.9.79-1.692 1.538-2.252a.75.75 0 0 0 .3-.6V5.5a.751.751 0 0 1 .75-.75h3a.751.751 0 0 1 .75.75l.001 2.502a.751.751 0 0 0 .294.595A4.322 4.322 0 0 1 20.25 12a4.198 4.198 0 0 1-1.697 3.4.749.749 0 0 0-.303.601v1.188l-6.338-6.338Z"/></svg>