<svg xmlns="http://www.w3.org/2000/svg" width="32" height="32" viewBox="0 0 32 32"><path d="M18 26.5a.506.506 0 0 1-.5.5h-3a.506.506 0 0 1-.5-.5v-8.268l-1.999-2V26.5a2.5 2.5 0 0 0 2.5 2.5h3a2.5 2.5 0 0 0 2.5-2.5V24.23l-2-2zM29.707 28.293 20 18.586v-2.11A5.93 5.93 0 0 0 22 12a6.07 6.07 0 0 0-1.999-4.466V5.5A2.5 2.5 0 0 0 17.5 3h-3A2.5 2.5 0 0 0 12 5.5v2.026a6 6 0 0 0-1.333 1.727l-6.96-6.96a.997.997 0 0 0-1.434 1.384c.008.01.01.021.02.03l26 26a1 1 0 0 0 1.413-1.415m-17.5-17.5a3.95 3.95 0 0 1 1.394-1.994A1 1 0 0 0 14 8V5.5a.506.506 0 0 1 .5-.5h3a.506.506 0 0 1 .5.5v2.502a1 1 0 0 0 .393.793A4.07 4.07 0 0 1 20 12a3.95 3.95 0 0 1-1.596 3.199 1 1 0 0 0-.404.803v.584zM16 13.25a1.25 1.25 0 1 0 0-2.5 1.25 1.25 0 0 0 0 2.5"/></svg>