<svg xmlns="http://www.w3.org/2000/svg" width="32" height="32" viewBox="0 0 32 32"><path d="M29.5 22V10A4.505 4.505 0 0 0 25 5.5H7c-.242.005-.483.03-.72.073L3.353 2.647a.5.5 0 0 0-.707.707L18.793 19.5h-.002l.974.974 8.881 8.88a.5.5 0 0 0 .707-.707l-2.537-2.537A4.502 4.502 0 0 0 29.5 22ZM7.207 6.5H20.5v12a.983.983 0 0 1-.468.825L7.207 6.5Zm18.826 18.827-5.28-5.28A1.988 1.988 0 0 0 21.5 18.5v-12H25a3.504 3.504 0 0 1 3.5 3.5v12a3.493 3.493 0 0 1-2.467 3.327ZM7 25.5A3.504 3.504 0 0 1 3.5 22v-1.5h14.877l-1-1H3.5V10a3.495 3.495 0 0 1 1.507-2.87L4.3 6.423A4.48 4.48 0 0 0 2.5 10v12A4.505 4.505 0 0 0 7 26.5h17.378l-1-1H7Z"/><path d="M25 9.5a.5.5 0 0 0-.5.5v10a.5.5 0 1 0 1 0V10a.5.5 0 0 0-.5-.5Z"/></svg>