<svg xmlns="http://www.w3.org/2000/svg" width="32" height="32" viewBox="0 0 32 32"><path d="M18.5 26.5a1 1 0 0 1-1 1h-3a1 1 0 0 1-1-1V15.623l-1-1V26.5a2 2 0 0 0 2 2h3a2 2 0 0 0 2-2v-4.878l-1-1zM16 12.75a.75.75 0 1 0 0-1.5.75.75 0 0 0 0 1.5M29.354 28.646 19.5 18.793v-2.547a5.43 5.43 0 0 0 2-4.246 5.58 5.58 0 0 0-1.999-4.24L19.5 5.5a2.003 2.003 0 0 0-2-2h-3a2 2 0 0 0-2 2l.001 2.255a5.46 5.46 0 0 0-1.671 2.367L3.354 2.646a.5.5 0 0 0-.707.707l26 26a.5.5 0 0 0 .707-.707M11.63 10.923a4.47 4.47 0 0 1 1.67-2.524.5.5 0 0 0 .2-.4V5.5a1 1 0 0 1 1-1h3a1 1 0 0 1 1 1l.001 2.502a.5.5 0 0 0 .196.397A4.57 4.57 0 0 1 20.5 12a4.44 4.44 0 0 1-1.799 3.6.5.5 0 0 0-.201.402v1.79z"/></svg>