<svg xmlns="http://www.w3.org/2000/svg" width="32" height="32" viewBox="0 0 32 32"><path d="M29.324 12.099a2.976 2.976 0 0 0-1.41-.94A4.998 4.998 0 0 0 23 7h-7.044a.997.997 0 0 1-.761-.351l-.747-.878A4.988 4.988 0 0 0 10.63 4H7a5.006 5.006 0 0 0-5 5v14a5.006 5.006 0 0 0 5 5h17.803a3.006 3.006 0 0 0 2.942-2.411l2.2-11a2.986 2.986 0 0 0-.621-2.49ZM4 23V9a3.003 3.003 0 0 1 3-3h3.632a2.992 2.992 0 0 1 2.29 1.063l.752.884A2.996 2.996 0 0 0 15.956 9H23a2.995 2.995 0 0 1 2.816 2H10.083a3.007 3.007 0 0 0-2.942 2.411l-2.2 11a3.005 3.005 0 0 0-.051.718A2.99 2.99 0 0 1 4 23Zm21.784 2.197a1.002 1.002 0 0 1-.98.803H7.882a1 1 0 0 1-.98-1.196l2.2-11.001a1.002 1.002 0 0 1 .98-.803h16.921a1.001 1.001 0 0 1 .98 1.196l-2.199 11.001Z"/></svg>