<svg xmlns="http://www.w3.org/2000/svg" width="32" height="32" viewBox="0 0 32 32"><path d="m29.4 9.867-5-6.668A3.02 3.02 0 0 0 22 2h-7a5.01 5.01 0 0 0-4.899 4H7a5.006 5.006 0 0 0-5 5v14a5.006 5.006 0 0 0 5 5h10a5.01 5.01 0 0 0 4.899-4H25a5.005 5.005 0 0 0 5-5v-9.333a3 3 0 0 0-.6-1.8M20 25a3.004 3.004 0 0 1-3 3H7a3.003 3.003 0 0 1-3-3V11a3.003 3.003 0 0 1 3-3h6.995v6a2.003 2.003 0 0 0 2 2H20zm-4.005-11V9.992L19 14zM28 21a3.004 3.004 0 0 1-3 3h-3v-8.333a3 3 0 0 0-.6-1.8l-5-6.668A3.02 3.02 0 0 0 14 6h-1.816A2.995 2.995 0 0 1 15 4h7a1 1 0 0 1 .8.4l5 6.667a1 1 0 0 1 .2.6z"/></svg>