<svg xmlns="http://www.w3.org/2000/svg" width="32" height="32" viewBox="0 0 32 32"><path d="M29.324 12.099a2.98 2.98 0 0 0-1.41-.94A5 5 0 0 0 23 7h-7.044a1 1 0 0 1-.761-.351l-.747-.878A4.99 4.99 0 0 0 10.63 4H7a5.006 5.006 0 0 0-5 5v14a5.006 5.006 0 0 0 5 5h17.803a3.006 3.006 0 0 0 2.942-2.411l2.2-11a2.99 2.99 0 0 0-.621-2.49M4 23V9a3.003 3.003 0 0 1 3-3h3.632a3 3 0 0 1 2.29 1.063l.752.884A3 3 0 0 0 15.956 9H23a2.995 2.995 0 0 1 2.816 2H10.083a3.01 3.01 0 0 0-2.942 2.411l-2.2 11a3 3 0 0 0-.051.718A3 3 0 0 1 4 23m21.784 2.197a1 1 0 0 1-.98.803H7.882a1 1 0 0 1-.98-1.196l2.2-11.001a1 1 0 0 1 .98-.803h16.921a1 1 0 0 1 .98 1.196z"/></svg>