<svg xmlns="http://www.w3.org/2000/svg" width="32" height="32" viewBox="0 0 32 32"><path d="M29.13 12.257a2.74 2.74 0 0 0-1.447-.915A4.74 4.74 0 0 0 23 7.25h-7.044a1.25 1.25 0 0 1-.952-.44l-.748-.878a4.74 4.74 0 0 0-3.625-1.682H7A4.756 4.756 0 0 0 2.25 9v14A4.756 4.756 0 0 0 7 27.75h17.803a2.76 2.76 0 0 0 2.697-2.21l2.2-11a2.74 2.74 0 0 0-.57-2.283M3.75 23V9A3.254 3.254 0 0 1 7 5.75h3.632a3.24 3.24 0 0 1 2.48 1.15l.752.884a2.74 2.74 0 0 0 2.092.966H23a3.25 3.25 0 0 1 3.154 2.5H10.083a2.76 2.76 0 0 0-2.697 2.21l-2.2 11c-.082.418-.066.85.048 1.261A3.25 3.25 0 0 1 3.75 23m24.479-8.755-2.2 11.001a1.25 1.25 0 0 1-1.226 1.004H7.883a1.25 1.25 0 0 1-1.226-1.495l2.2-11.001a1.25 1.25 0 0 1 1.226-1.004h16.92a1.25 1.25 0 0 1 1.226 1.495"/></svg>