<svg xmlns="http://www.w3.org/2000/svg" width="32" height="32" viewBox="0 0 32 32"><path d="m29.2 10.017-5-6.667a2.77 2.77 0 0 0-2.2-1.1h-7a4.746 4.746 0 0 0-4.674 4H7A4.756 4.756 0 0 0 2.25 11v14A4.756 4.756 0 0 0 7 29.75h10a4.746 4.746 0 0 0 4.674-4H25A4.755 4.755 0 0 0 29.75 21v-9.333c0-.595-.194-1.174-.55-1.65M20.25 25A3.254 3.254 0 0 1 17 28.25H7A3.254 3.254 0 0 1 3.75 25V11A3.254 3.254 0 0 1 7 7.75h7q.124.002.245.03V14a1.75 1.75 0 0 0 1.75 1.75h4.255zm-4.505-11V9.242L19.5 14.25h-3.505a.25.25 0 0 1-.25-.25m12.505 7A3.254 3.254 0 0 1 25 24.25h-3.25v-8.583c0-.595-.194-1.174-.55-1.65l-5-6.667a2.77 2.77 0 0 0-2.2-1.1h-2.154A3.25 3.25 0 0 1 15 3.75h7a1.26 1.26 0 0 1 1.001.5l5 6.667c.161.217.249.48.249.75z"/></svg>