<svg xmlns="http://www.w3.org/2000/svg" width="32" height="32" viewBox="0 0 32 32"><path d="m29 10.167-5-6.668a2.52 2.52 0 0 0-2-.999h-7a4.49 4.49 0 0 0-4.45 4H7A4.505 4.505 0 0 0 2.5 11v14A4.505 4.505 0 0 0 7 29.5h10a4.49 4.49 0 0 0 4.45-4H25a4.504 4.504 0 0 0 4.5-4.5v-9.333a2.5 2.5 0 0 0-.5-1.5M20.5 25a3.504 3.504 0 0 1-3.5 3.5H7A3.504 3.504 0 0 1 3.5 25V11A3.504 3.504 0 0 1 7 7.5h7q.256.005.495.095V14a1.5 1.5 0 0 0 1.5 1.5h4.478q.018.082.027.167zm-5.005-11V8.493L20 14.5h-4.005a.5.5 0 0 1-.5-.5M28.5 21a3.504 3.504 0 0 1-3.5 3.5h-3.5v-8.833c0-.54-.176-1.067-.499-1.5L16 7.499a2.52 2.52 0 0 0-2-.999h-2.45a3.495 3.495 0 0 1 3.45-3h7a1.5 1.5 0 0 1 1.2.6l5.001 6.668c.194.26.299.575.299.9z"/></svg>