<svg xmlns="http://www.w3.org/2000/svg" width="32" height="32" viewBox="0 0 32 32"><path d="M28.937 12.415a2.48 2.48 0 0 0-1.483-.865A4.49 4.49 0 0 0 23 7.5h-7.044a1.5 1.5 0 0 1-1.142-.526l-.748-.881A4.5 4.5 0 0 0 10.63 4.5H7A4.505 4.505 0 0 0 2.5 9v14A4.505 4.505 0 0 0 7 27.5h17.803a2.505 2.505 0 0 0 2.451-2.01l2.2-11a2.5 2.5 0 0 0-.517-2.075M3.5 23V9A3.504 3.504 0 0 1 7 5.5h3.632a3.49 3.49 0 0 1 2.67 1.24l.752.882a2.5 2.5 0 0 0 1.902.878H23a3.495 3.495 0 0 1 3.45 3H10.083a2.505 2.505 0 0 0-2.452 2.01l-2.2 10.999c-.117.6-.009 1.22.303 1.745A3.5 3.5 0 0 1 3.5 23m24.975-8.705-2.2 11a1.504 1.504 0 0 1-1.472 1.205H7.883a1.5 1.5 0 0 1-1.471-1.795l2.2-11a1.504 1.504 0 0 1 1.47-1.205h16.921a1.502 1.502 0 0 1 1.472 1.795"/></svg>