<svg xmlns="http://www.w3.org/2000/svg" width="32" height="32" viewBox="0 0 32 32"><path d="M21 23.75a1.25 1.25 0 1 0 0-2.5 1.25 1.25 0 0 0 0 2.5ZM11 18.75a1.25 1.25 0 1 0 0-2.5 1.25 1.25 0 0 0 0 2.5ZM16 18.75a1.25 1.25 0 1 0 0-2.5 1.25 1.25 0 0 0 0 2.5ZM21 18.75a1.25 1.25 0 1 0 0-2.5 1.25 1.25 0 0 0 0 2.5ZM11.75 11.782V10.03a6.497 6.497 0 0 1 3.303-1.225.75.75 0 1 0-.175-1.49c-2.185.256-4.628 1.391-4.628 2.528v1.939a1.462 1.462 0 0 1-1.452 1.468h-3.57a1.48 1.48 0 0 1-1.478-1.479v-1.466C3.75 8.67 7.275 4.75 16 4.75c.34 0 .672.006.997.018a.75.75 0 1 0 .052-1.5A29.157 29.157 0 0 0 16 3.25c-9.717 0-13.75 4.595-13.75 7.055v1.466a2.982 2.982 0 0 0 2.978 2.979h3.57a2.963 2.963 0 0 0 2.952-2.968ZM11 23.75a1.25 1.25 0 1 0 0-2.5 1.25 1.25 0 0 0 0 2.5ZM16 23.75a1.25 1.25 0 1 0 0-2.5 1.25 1.25 0 0 0 0 2.5ZM11 28.75a1.25 1.25 0 1 0 0-2.5 1.25 1.25 0 0 0 0 2.5ZM16 28.75a1.25 1.25 0 1 0 0-2.5 1.25 1.25 0 0 0 0 2.5ZM21 28.75a1.25 1.25 0 1 0 0-2.5 1.25 1.25 0 0 0 0 2.5ZM29.52 12.133l-4.986-9-.01-.015a1.75 1.75 0 0 0-3.03.013L16.49 12.12a1.75 1.75 0 0 0 1.511 2.631H28a1.75 1.75 0 0 0 1.52-2.617Zm-1.304.991a.242.242 0 0 1-.217.126h-9.998a.243.243 0 0 1-.216-.126.251.251 0 0 1 .008-.263l5.004-8.987a.25.25 0 0 1 .43-.005l4.988 9.004a.243.243 0 0 1 .001.251Z"/><path d="M23 6.692a.75.75 0 0 0-.75.75V8.75a.75.75 0 1 0 1.5 0V7.442a.75.75 0 0 0-.75-.75ZM23 12a.75.75 0 1 0 0-1.5.75.75 0 0 0 0 1.5Z"/></svg>