<svg xmlns="http://www.w3.org/2000/svg" width="32" height="32" viewBox="0 0 32 32"><path d="M21 24a1.5 1.5 0 1 0 0-3 1.5 1.5 0 0 0 0 3M11 19a1.5 1.5 0 1 0 0-3 1.5 1.5 0 0 0 0 3M16 19a1.5 1.5 0 1 0 0-3 1.5 1.5 0 0 0 0 3M21 19a1.5 1.5 0 1 0 0-3 1.5 1.5 0 0 0 0 3M12 11.782v-1.636a6.6 6.6 0 0 1 3.081-1.092 1 1 0 1 0-.232-1.987C12.867 7.3 10 8.421 10 9.843v1.939A1.21 1.21 0 0 1 8.798 13h-3.57A1.23 1.23 0 0 1 4 11.771v-1.466C4 8.795 7.57 5 16 5q.505 0 .988.018a.98.98 0 0 0 1.035-.965 1 1 0 0 0-.965-1.034A30 30 0 0 0 16 3C6.106 3 2 7.757 2 10.305v1.467A3.23 3.23 0 0 0 5.228 15h3.57A3.214 3.214 0 0 0 12 11.782M11 24a1.5 1.5 0 1 0 0-3 1.5 1.5 0 0 0 0 3M16 24a1.5 1.5 0 1 0 0-3 1.5 1.5 0 0 0 0 3M11 29a1.5 1.5 0 1 0 0-3 1.5 1.5 0 0 0 0 3M16 29a1.5 1.5 0 1 0 0-3 1.5 1.5 0 0 0 0 3M21 29a1.5 1.5 0 1 0 0-3 1.5 1.5 0 0 0 0 3M29.738 12.011l-4.987-9-.01-.019A1.98 1.98 0 0 0 23.014 2a1.99 1.99 0 0 0-1.738 1.01l-5.002 8.983A2 2 0 0 0 18 15H28a2 2 0 0 0 1.739-2.989m-11.727.971 4.999-8.986L28 13zM22.25 7.442V8.75a.75.75 0 1 0 1.5 0V7.442a.75.75 0 1 0-1.5 0M23 12a.75.75 0 1 0 0-1.5.75.75 0 0 0 0 1.5"/></svg>