<svg xmlns="http://www.w3.org/2000/svg" width="32" height="32" viewBox="0 0 32 32"><path d="M21 24a1.5 1.5 0 1 0 0-3 1.5 1.5 0 0 0 0 3ZM11 19a1.5 1.5 0 1 0 0-3 1.5 1.5 0 0 0 0 3ZM16 19a1.5 1.5 0 1 0 0-3 1.5 1.5 0 0 0 0 3ZM21 19a1.5 1.5 0 1 0 0-3 1.5 1.5 0 0 0 0 3ZM16 3C6.107 3 2 7.758 2 10.305v1.466A3.232 3.232 0 0 0 5.23 15h3.57A3.214 3.214 0 0 0 12 11.781v-1.636A6.995 6.995 0 0 1 16 9a7.017 7.017 0 0 1 4 1.14l-.002 1.65A3.316 3.316 0 0 0 23.332 15h3.44a3.232 3.232 0 0 0 3.23-3.229v-1.466C30 7.758 25.893 3 16 3Zm12 8.771A1.23 1.23 0 0 1 26.772 13h-3.44A1.309 1.309 0 0 1 22 11.791V9.837C22 8.309 18.703 7 16 7c-2.971 0-6 1.435-6 2.843v1.938A1.212 1.212 0 0 1 8.799 13H5.23A1.23 1.23 0 0 1 4 11.771v-1.466C4 8.795 7.57 5 16 5c8.431 0 12 3.795 12 5.305v1.466ZM11 24a1.5 1.5 0 1 0 0-3 1.5 1.5 0 0 0 0 3ZM16 24a1.5 1.5 0 1 0 0-3 1.5 1.5 0 0 0 0 3ZM11 29a1.5 1.5 0 1 0 0-3 1.5 1.5 0 0 0 0 3ZM16 29a1.5 1.5 0 1 0 0-3 1.5 1.5 0 0 0 0 3ZM21 29a1.5 1.5 0 1 0 0-3 1.5 1.5 0 0 0 0 3Z"/></svg>