<svg xmlns="http://www.w3.org/2000/svg" width="32" height="32" viewBox="0 0 32 32"><path d="M21 23.5a1 1 0 1 0 0-2 1 1 0 0 0 0 2M11 18.5a1 1 0 1 0 0-2 1 1 0 0 0 0 2M16 18.5a1 1 0 1 0 0-2 1 1 0 0 0 0 2M21 18.5a1 1 0 1 0 0-2 1 1 0 0 0 0 2M16 3.5c-9.54 0-13.5 4.432-13.5 6.805v1.467A2.73 2.73 0 0 0 5.23 14.5h3.57a2.713 2.713 0 0 0 2.702-2.719V9.93A7 7 0 0 1 16 8.5a7.02 7.02 0 0 1 4.5 1.423l-.002 1.867a2.81 2.81 0 0 0 2.832 2.71h3.44a2.73 2.73 0 0 0 2.73-2.729v-1.466C29.5 7.932 25.54 3.5 16 3.5m12.5 8.272a1.73 1.73 0 0 1-1.728 1.728h-3.44a1.82 1.82 0 0 1-1.832-1.71V9.837c0-1-2.718-2.337-5.5-2.337-2.78 0-5.5 1.342-5.5 2.343v1.938A1.713 1.713 0 0 1 8.799 13.5H5.23A1.73 1.73 0 0 1 3.5 11.771v-1.466C3.5 8.597 7.097 4.5 16 4.5s12.5 4.097 12.5 5.805zM11 23.5a1 1 0 1 0 0-2 1 1 0 0 0 0 2M16 23.5a1 1 0 1 0 0-2 1 1 0 0 0 0 2M11 28.5a1 1 0 1 0 0-2 1 1 0 0 0 0 2M16 28.5a1 1 0 1 0 0-2 1 1 0 0 0 0 2M21 28.5a1 1 0 1 0 0-2 1 1 0 0 0 0 2"/></svg>