<svg xmlns="http://www.w3.org/2000/svg" width="32" height="32" viewBox="0 0 32 32"><path d="M21 24a1.5 1.5 0 1 0 0-3 1.5 1.5 0 0 0 0 3M11 19a1.5 1.5 0 1 0 0-3 1.5 1.5 0 0 0 0 3M16 19a1.5 1.5 0 1 0 0-3 1.5 1.5 0 0 0 0 3M21 19a1.5 1.5 0 1 0 0-3 1.5 1.5 0 0 0 0 3M16 3C6.107 3 2 7.758 2 10.305v1.467A3.23 3.23 0 0 0 5.23 15h3.57A3.214 3.214 0 0 0 12 11.781v-1.636A7 7 0 0 1 16 9a7 7 0 0 1 4 1.14l-.002 1.65A3.316 3.316 0 0 0 23.332 15h3.44a3.23 3.23 0 0 0 3.23-3.229v-1.466C30 7.758 25.893 3 16 3M11 24a1.5 1.5 0 1 0 0-3 1.5 1.5 0 0 0 0 3M16 24a1.5 1.5 0 1 0 0-3 1.5 1.5 0 0 0 0 3M11 29a1.5 1.5 0 1 0 0-3 1.5 1.5 0 0 0 0 3M16 29a1.5 1.5 0 1 0 0-3 1.5 1.5 0 0 0 0 3M21 29a1.5 1.5 0 1 0 0-3 1.5 1.5 0 0 0 0 3"/></svg>