<svg xmlns="http://www.w3.org/2000/svg" width="32" height="32" viewBox="0 0 32 32"><path d="M21 23.5a1 1 0 1 0 0-2 1 1 0 0 0 0 2M11 18.5a1 1 0 1 0 0-2 1 1 0 0 0 0 2M16 18.5a1 1 0 1 0 0-2 1 1 0 0 0 0 2M21 18.5a1 1 0 1 0 0-2 1 1 0 0 0 0 2M11.5 11.782V9.927a6.4 6.4 0 0 1 3.523-1.371.5.5 0 1 0-.116-.993c-2.224.26-4.407 1.389-4.407 2.279v1.938A1.71 1.71 0 0 1 8.798 13.5h-3.57A1.73 1.73 0 0 1 3.5 11.771v-1.466C3.5 8.597 7.097 4.5 16 4.5q.513 0 1.004.018a.52.52 0 0 0 .518-.481.5.5 0 0 0-.481-.518Q16.53 3.499 16 3.5c-9.54 0-13.5 4.432-13.5 6.805v1.466A2.73 2.73 0 0 0 5.229 14.5h3.57a2.713 2.713 0 0 0 2.701-2.719M11 23.5a1 1 0 1 0 0-2 1 1 0 0 0 0 2M16 23.5a1 1 0 1 0 0-2 1 1 0 0 0 0 2M11 28.5a1 1 0 1 0 0-2 1 1 0 0 0 0 2M16 28.5a1 1 0 1 0 0-2 1 1 0 0 0 0 2M21 28.5a1 1 0 1 0 0-2 1 1 0 0 0 0 2M29.3 12.254l-4.985-9-.006-.01a1.5 1.5 0 0 0-2.596.009l-5.007 8.991a1.5 1.5 0 0 0 1.296 2.256h9.997a1.5 1.5 0 0 0 1.302-2.246m-.867.995a.49.49 0 0 1-.434.25h-9.997a.5.5 0 0 1-.427-.76l5.007-8.99a.5.5 0 0 1 .86-.005l4.99 9.005a.49.49 0 0 1 .001.5M23 6.942a.5.5 0 0 0-.5.5V8.75a.5.5 0 0 0 1 0V7.442a.5.5 0 0 0-.5-.5M23 11.75a.5.5 0 1 0 0-1 .5.5 0 0 0 0 1"/></svg>