<svg xmlns="http://www.w3.org/2000/svg" width="32" height="32" viewBox="0 0 32 32"><path d="M21 23.5a1 1 0 1 0 0-2 1 1 0 0 0 0 2ZM11 18.5a1 1 0 1 0 0-2 1 1 0 0 0 0 2ZM16 18.5a1 1 0 1 0 0-2 1 1 0 0 0 0 2ZM21 18.5a1 1 0 1 0 0-2 1 1 0 0 0 0 2ZM11.5 11.781V9.928a6.38 6.38 0 0 1 3.523-1.371.5.5 0 1 0-.116-.993c-2.224.26-4.407 1.389-4.407 2.279v1.938A1.712 1.712 0 0 1 8.798 13.5h-3.57A1.73 1.73 0 0 1 3.5 11.771v-1.466C3.5 8.597 7.097 4.5 16 4.5c.342 0 .677.006 1.004.018a.52.52 0 0 0 .518-.481.5.5 0 0 0-.481-.518C16.7 3.506 16.355 3.5 16 3.5c-9.54 0-13.5 4.432-13.5 6.805v1.466A2.732 2.732 0 0 0 5.229 14.5h3.57a2.713 2.713 0 0 0 2.701-2.719ZM11 23.5a1 1 0 1 0 0-2 1 1 0 0 0 0 2ZM16 23.5a1 1 0 1 0 0-2 1 1 0 0 0 0 2ZM11 28.5a1 1 0 1 0 0-2 1 1 0 0 0 0 2ZM16 28.5a1 1 0 1 0 0-2 1 1 0 0 0 0 2ZM21 28.5a1 1 0 1 0 0-2 1 1 0 0 0 0 2ZM29.3 12.254l-4.985-9-.006-.01a1.5 1.5 0 0 0-2.596.009l-5.007 8.991a1.5 1.5 0 0 0 1.296 2.256h9.997a1.499 1.499 0 0 0 1.302-2.246Zm-.867.995a.491.491 0 0 1-.434.25h-9.997a.5.5 0 0 1-.427-.76l5.007-8.99a.5.5 0 0 1 .86-.005l4.99 9.005a.493.493 0 0 1 .001.5Z"/><path d="M23 6.942a.5.5 0 0 0-.5.5V8.75a.5.5 0 0 0 1 0V7.442a.5.5 0 0 0-.5-.5ZM23 11.75a.5.5 0 1 0 0-1 .5.5 0 0 0 0 1Z"/></svg>