<svg xmlns="http://www.w3.org/2000/svg" width="32" height="32" viewBox="0 0 32 32"><path d="M29 2.5h-8a.5.5 0 1 0 0 1h6.79l-9.143 9.147a.5.5 0 1 0 .707.707l9.146-9.15V11a.5.5 0 0 0 1 0V3a.5.5 0 0 0-.5-.5ZM23.861 19.875a3.083 3.083 0 0 0-4.26.003s-1.471 1.497-1.761 1.807a7.268 7.268 0 0 1-5.346-2.18 7.653 7.653 0 0 1-2.233-5.272c.363-.363 1.86-1.835 1.863-1.838a3.014 3.014 0 0 0 0-4.257L9.371 5.385a3.093 3.093 0 0 0-4.275 0L3.625 6.857C1.742 8.74 1.38 15.414 8.984 23.016c4.128 4.128 7.754 5.638 10.068 6.177.82.195 1.66.296 2.504.301a5.106 5.106 0 0 0 3.587-1.12l1.471-1.471a3.022 3.022 0 0 0 0-4.275l-2.753-2.753Zm2.046 6.32-1.471 1.472c-.708.707-2.576 1.155-5.157.552-2.188-.51-5.627-1.95-9.588-5.91-7.16-7.16-6.74-13.363-5.36-14.745l1.472-1.472a2.022 2.022 0 0 1 2.86 0l2.754 2.753a2.013 2.013 0 0 1 .003 2.84s-1.501 1.476-1.866 1.84c-.579.58-.067 2.534-.006 2.755a9.032 9.032 0 0 0 2.24 3.932c2.303 2.304 5.988 2.929 6.685 2.234.364-.364 1.838-1.864 1.838-1.864a2.057 2.057 0 0 1 2.843 0l2.753 2.753a2.022 2.022 0 0 1 0 2.86Z"/></svg>