<svg xmlns="http://www.w3.org/2000/svg" width="32" height="32" viewBox="0 0 32 32"><path d="M29 2.25h-8a.75.75 0 1 0 0 1.5h6.187l-8.717 8.72a.751.751 0 1 0 1.06 1.06l8.72-8.722V11a.75.75 0 1 0 1.5 0V3a.75.75 0 0 0-.75-.75ZM24.038 19.699a3.334 3.334 0 0 0-4.616.004s-1.259 1.282-1.735 1.76a7.293 7.293 0 0 1-7.151-7.151c.479-.476 1.76-1.736 1.765-1.74a3.265 3.265 0 0 0 0-4.61L9.547 5.207a3.349 3.349 0 0 0-4.628 0L3.448 6.68c-1.945 1.945-2.37 8.785 5.359 16.513 4.17 4.17 7.842 5.697 10.188 6.244.848.202 1.716.308 2.587.314a5.265 5.265 0 0 0 3.737-1.2l1.472-1.471a3.273 3.273 0 0 0 0-4.628l-2.753-2.753Zm1.692 6.32-1.471 1.472c-.637.638-2.45 1.061-4.923.485-2.156-.503-5.549-1.924-9.469-5.844C2.834 15.1 3.18 9.07 4.508 7.741L5.98 6.269a1.772 1.772 0 0 1 2.507 0l2.753 2.753a1.76 1.76 0 0 1 .005 2.484s-1.503 1.479-1.868 1.843c-.648.647-.218 2.457-.07 2.997a9.295 9.295 0 0 0 2.303 4.043c2.3 2.3 6.18 3.095 7.04 2.233a494.98 494.98 0 0 0 1.838-1.863 1.805 1.805 0 0 1 2.49 0l2.752 2.753a1.773 1.773 0 0 1 0 2.507Z"/></svg>