<svg xmlns="http://www.w3.org/2000/svg" width="32" height="32" viewBox="0 0 32 32"><path d="M18.016 21a5 5 0 0 0-2.01.428 5 5 0 1 0 .003 9.143 4.995 4.995 0 0 0 6.9-3.55A4.998 4.998 0 0 0 18.016 21M17 26a2.98 2.98 0 0 1-.992 2.213 2.965 2.965 0 0 1 0-4.426A2.98 2.98 0 0 1 17 26m-6 0a3.003 3.003 0 0 1 3-3c.013 0 .024.004.037.004a4.9 4.9 0 0 0 .002 5.992q-.02.002-.04.004a3.003 3.003 0 0 1-3-3m7.016 3c-.013 0-.025-.005-.038-.005a4.9 4.9 0 0 0-.001-5.992q.019-.002.039-.004a3 3 0 0 1 0 6M25 5H7a5.006 5.006 0 0 0-5 5v12a5 5 0 0 0 3.74 4.84 1 1 0 1 0 .503-1.936A3 3 0 0 1 4 22V10a3.003 3.003 0 0 1 3-3h18a3.003 3.003 0 0 1 3 3v12a3 3 0 0 1-2.243 2.904 1 1 0 1 0 .503 1.936A5 5 0 0 0 30 22V10a5.006 5.006 0 0 0-5-5"/></svg>