<svg xmlns="http://www.w3.org/2000/svg" width="32" height="32" viewBox="0 0 32 32"><path d="M11.001 17.25A4.7 4.7 0 0 0 9 17.706a4.7 4.7 0 0 0-2-.457 4.75 4.75 0 0 0 0 9.5 4.7 4.7 0 0 0 2.002-.458 4.7 4.7 0 0 0 2 .457 4.75 4.75 0 1 0 0-9.5m-.75 4.75A3.23 3.23 0 0 1 9 24.541a3.21 3.21 0 0 1 0-5.083A3.23 3.23 0 0 1 10.25 22m-6.5 0A3.254 3.254 0 0 1 7 18.75q.256.006.51.052a4.684 4.684 0 0 0 .002 6.396q-.253.047-.513.052A3.254 3.254 0 0 1 3.75 22M11 25.25a3 3 0 0 1-.512-.053 4.684 4.684 0 0 0-.001-6.396q.254-.046.513-.052a3.25 3.25 0 1 1 0 6.5M28.92 9.51a1.77 1.77 0 0 0-1.77-.037l-3.402 2.163v-1.632a4.756 4.756 0 0 0-4.75-4.75h-12a4.755 4.755 0 0 0-4.75 4.75L2.25 15a.75.75 0 0 0 1.5 0l-.002-4.996a3.254 3.254 0 0 1 3.25-3.25h12a3.254 3.254 0 0 1 3.25 3.25v12a3.253 3.253 0 0 1-3.247 3.25l-.998-.004H18a.75.75 0 1 0-.003 1.5l1.001.004a4.755 4.755 0 0 0 4.75-4.75v-1.64l3.47 2.201A1.75 1.75 0 0 0 29.75 21V11a1.74 1.74 0 0 0-.83-1.49M28.25 21a.24.24 0 0 1-.118.213c-.045.026-.136.066-.177.049l-4.207-2.675v-5.174l4.14-2.636a.25.25 0 0 1 .33.101.25.25 0 0 1 .032.122z"/></svg>