<svg xmlns="http://www.w3.org/2000/svg" width="32" height="32" viewBox="0 0 32 32"><path d="M11.001 17A4.961 4.961 0 0 0 9 17.423a5 5 0 1 0 .002 9.152 4.999 4.999 0 1 0 2-9.577Zm-1 5a2.982 2.982 0 0 1-1 2.219 2.962 2.962 0 0 1 0-4.439A2.983 2.983 0 0 1 10 22Zm-6 0a3.003 3.003 0 0 1 3-3l.023.003a4.901 4.901 0 0 0 .001 5.995L7 25a3.003 3.003 0 0 1-3-3Zm7 3-.024-.003a4.901 4.901 0 0 0-.001-5.995c.008 0 .016-.003.025-.003a3 3 0 0 1 0 6Z"/><path d="M29.05 9.298a1.993 1.993 0 0 0-1.944-.087.87.87 0 0 0-.09.05l-3.018 1.92v-1.177a5.006 5.006 0 0 0-5-5h-12a5.006 5.006 0 0 0-5 5L2 15a1 1 0 1 0 2 0l-.002-4.996a3.003 3.003 0 0 1 3-3h12a3.003 3.003 0 0 1 3 3v12a3.003 3.003 0 0 1-2.996 3L18.004 25H18a1 1 0 1 0-.004 2l1.002.004a5.006 5.006 0 0 0 5-5v-1.185l3.019 1.92a.881.881 0 0 0 .09.05A2 2 0 0 0 30 21V11a1.987 1.987 0 0 0-.95-1.702ZM28 20.993l-4.002-2.543v-4.9L28 11.006v9.987Z"/></svg>