<svg xmlns="http://www.w3.org/2000/svg" width="32" height="32" viewBox="0 0 32 32"><path d="M11.001 17.5A4.45 4.45 0 0 0 9 17.99a4.44 4.44 0 0 0-2-.49 4.5 4.5 0 1 0 0 9 4.44 4.44 0 0 0 2.002-.49 4.44 4.44 0 0 0 2 .49 4.5 4.5 0 1 0 0-9m-4 8a3.5 3.5 0 1 1 0-7c.34.005.68.06 1.005.165a4.444 4.444 0 0 0 .002 6.67A3.5 3.5 0 0 1 7 25.5m3.5-3.5A3.5 3.5 0 0 1 9 24.864 3.485 3.485 0 0 1 9 19.135 3.5 3.5 0 0 1 10.5 22m.5 3.5a3.5 3.5 0 0 1-1.006-.166 4.444 4.444 0 0 0-.002-6.67c.326-.104.666-.16 1.008-.165a3.5 3.5 0 1 1 0 7M28.788 9.724a1.5 1.5 0 0 0-1.504-.04l-3.786 2.407v-2.087a4.505 4.505 0 0 0-4.5-4.5h-12a4.505 4.505 0 0 0-4.5 4.5L2.5 15a.5.5 0 1 0 1 0l-.002-4.996a3.504 3.504 0 0 1 3.5-3.5h12a3.504 3.504 0 0 1 3.5 3.5v12a3.503 3.503 0 0 1-3.498 3.5l-.998-.004H18a.5.5 0 0 0-.002 1l1 .004a4.505 4.505 0 0 0 4.5-4.5v-2.095l3.831 2.433a1.49 1.49 0 0 0 1.46-.066A1.49 1.49 0 0 0 29.5 21V11a1.49 1.49 0 0 0-.712-1.276M28.5 21a.49.49 0 0 1-.237.425.48.48 0 0 1-.442.048l-4.323-2.749v-5.448l4.278-2.723A.5.5 0 0 1 28.5 11z"/></svg>