<svg xmlns="http://www.w3.org/2000/svg" width="32" height="32" viewBox="0 0 32 32"><path d="M18.016 21.25a4.7 4.7 0 0 0-2.01.46A4.7 4.7 0 0 0 14 21.25a4.75 4.75 0 0 0 0 9.5 4.7 4.7 0 0 0 2.009-.462c.626.3 1.312.458 2.007.461a4.75 4.75 0 1 0 0-9.5M17.25 26a3.23 3.23 0 0 1-1.242 2.535 3.208 3.208 0 0 1 0-5.07A3.23 3.23 0 0 1 17.25 26m-6.5 0A3.254 3.254 0 0 1 14 22.75q.265.005.525.053a4.684 4.684 0 0 0 .002 6.394A3.193 3.193 0 0 1 10.75 26m7.266 3.25a3 3 0 0 1-.526-.054 4.684 4.684 0 0 0-.002-6.394 3.245 3.245 0 1 1 .528 6.447M25 5.25H7A4.755 4.755 0 0 0 2.25 10v12a4.75 4.75 0 0 0 3.553 4.598.75.75 0 0 0 .377-1.451A3.25 3.25 0 0 1 3.75 22V10A3.254 3.254 0 0 1 7 6.75h18A3.254 3.254 0 0 1 28.25 10v12a3.25 3.25 0 0 1-2.43 3.147.75.75 0 1 0 .378 1.45A4.75 4.75 0 0 0 29.75 22V10A4.755 4.755 0 0 0 25 5.25"/></svg>