<svg xmlns="http://www.w3.org/2000/svg" width="32" height="32" viewBox="0 0 32 32"><path d="M25.5 2a4.44 4.44 0 0 0-2 .49 4.44 4.44 0 0 0-2-.49 4.5 4.5 0 1 0 0 9 4.44 4.44 0 0 0 2-.49c.62.318 1.304.486 2 .49a4.5 4.5 0 1 0 0-9m-2 5.985a2.455 2.455 0 0 1 0-2.97 2.455 2.455 0 0 1 0 2.97M19 6.5A2.5 2.5 0 0 1 21.5 4q.125.006.248.025a4.47 4.47 0 0 0 0 4.95q-.123.02-.248.025A2.5 2.5 0 0 1 19 6.5M25.5 9a3 3 0 0 1-.248-.025 4.47 4.47 0 0 0 0-4.95A3 3 0 0 1 25.5 4a2.5 2.5 0 1 1 0 5M24.222 19.522a3.516 3.516 0 0 0-4.97.006s-1.156 1.176-1.67 1.695a7.35 7.35 0 0 1-4.727-2.072 7.33 7.33 0 0 1-2.072-4.726c.52-.515 1.696-1.671 1.702-1.677a3.51 3.51 0 0 0 0-4.964L9.732 5.031a3.61 3.61 0 0 0-4.982 0L3.278 6.503C1.272 8.51.784 15.517 8.637 23.37c4.997 4.998 9.652 6.618 12.894 6.618 1.436.1 2.856-.35 3.972-1.258l1.472-1.472a3.52 3.52 0 0 0 0-4.981zm1.339 6.32-1.472 1.473c-1.278 1.275-7.132 1.546-14.038-5.36S3.415 9.195 4.693 7.917l1.471-1.472a1.52 1.52 0 0 1 2.154 0l2.752 2.753a1.51 1.51 0 0 1 .006 2.13s-1.505 1.48-1.87 1.845c-1.303 1.307.468 5.626 2.235 7.393a9.54 9.54 0 0 0 4.154 2.368c.91.249 2.54.562 3.24-.135a528 528 0 0 0 1.837-1.863 1.514 1.514 0 0 1 2.136 0l2.753 2.754a1.523 1.523 0 0 1 0 2.153"/></svg>