<svg xmlns="http://www.w3.org/2000/svg" width="32" height="32" viewBox="0 0 32 32"><path d="M25.5 2a4.444 4.444 0 0 0-2 .49 4.444 4.444 0 0 0-2-.49 4.5 4.5 0 1 0 0 9 4.443 4.443 0 0 0 2-.49c.62.318 1.304.486 2 .49a4.5 4.5 0 1 0 0-9Zm-2 5.985a2.455 2.455 0 0 1 0-2.97 2.455 2.455 0 0 1 0 2.97ZM19 6.5A2.502 2.502 0 0 1 21.5 4c.083.004.166.013.248.025a4.467 4.467 0 0 0 0 4.95c-.082.013-.165.021-.248.025A2.502 2.502 0 0 1 19 6.5ZM25.5 9a2.447 2.447 0 0 1-.248-.025 4.467 4.467 0 0 0 0-4.95A2.45 2.45 0 0 1 25.5 4a2.5 2.5 0 1 1 0 5ZM24.222 19.522a3.516 3.516 0 0 0-4.97.006s-1.156 1.176-1.67 1.695a7.352 7.352 0 0 1-4.727-2.072 7.334 7.334 0 0 1-2.072-4.726c.52-.515 1.696-1.671 1.702-1.677a3.51 3.51 0 0 0 0-4.964L9.732 5.031a3.608 3.608 0 0 0-4.982 0L3.278 6.503C1.272 8.51.784 15.517 8.637 23.37c4.997 4.998 9.652 6.617 12.894 6.617 1.436.1 2.856-.349 3.972-1.257l1.472-1.472a3.52 3.52 0 0 0 0-4.981l-2.753-2.754Zm1.339 6.32-1.472 1.473c-1.278 1.275-7.132 1.546-14.038-5.36-6.907-6.907-6.636-12.76-5.359-14.038l1.472-1.472a1.522 1.522 0 0 1 2.154 0l2.752 2.753a1.51 1.51 0 0 1 .006 2.13s-1.505 1.48-1.87 1.845c-1.303 1.307.468 5.626 2.235 7.393a9.544 9.544 0 0 0 4.154 2.368c.91.249 2.54.562 3.24-.135a528.35 528.35 0 0 0 1.837-1.863 1.513 1.513 0 0 1 2.136 0l2.753 2.754a1.523 1.523 0 0 1 0 2.153Z"/></svg>