<svg xmlns="http://www.w3.org/2000/svg" width="32" height="32" viewBox="0 0 32 32"><path d="M25.5 2.25c-.7.005-1.387.185-2 .523a4.2 4.2 0 0 0-2-.523 4.25 4.25 0 1 0 0 8.5 4.2 4.2 0 0 0 2-.523c.613.338 1.3.518 2 .523a4.25 4.25 0 1 0 0-8.5m-2 6.126a2.72 2.72 0 0 1 0-3.751 2.72 2.72 0 0 1 0 3.75M18.75 6.5a2.75 2.75 0 0 1 2.75-2.75q.358.005.702.102a4.16 4.16 0 0 0 0 5.296 2.7 2.7 0 0 1-.702.102 2.753 2.753 0 0 1-2.75-2.75m6.75 2.75a2.7 2.7 0 0 1-.702-.102 4.16 4.16 0 0 0 0-5.296q.345-.097.702-.102a2.75 2.75 0 0 1 0 5.5M24.045 19.698a3.264 3.264 0 0 0-4.615.005s-1.26 1.282-1.735 1.76a7.293 7.293 0 0 1-7.152-7.152c.479-.475 1.76-1.735 1.765-1.74a3.26 3.26 0 0 0 0-4.61L9.555 5.208a3.35 3.35 0 0 0-4.628 0L3.455 6.68c-1.944 1.944-2.369 8.785 5.359 16.513 4.955 4.955 9.546 6.558 12.715 6.558a5.42 5.42 0 0 0 3.797-1.2l1.472-1.47a3.27 3.27 0 0 0 0-4.629zm1.692 6.322-1.471 1.471c-1.328 1.328-7.359 1.675-14.392-5.359S3.187 9.069 4.516 7.74L5.987 6.27a1.77 1.77 0 0 1 2.507 0l2.753 2.753a1.76 1.76 0 0 1 .005 2.484s-1.504 1.479-1.869 1.844c-.86.862-.063 4.74 2.234 7.039a9.3 9.3 0 0 0 4.044 2.303c.538.149 2.349.579 2.996-.07.364-.363 1.837-1.862 1.838-1.863a1.764 1.764 0 0 1 2.49 0l2.753 2.754a1.77 1.77 0 0 1 0 2.507"/></svg>