<svg xmlns="http://www.w3.org/2000/svg" width="32" height="32" viewBox="0 0 32 32"><path d="M25.5 2.5a3.95 3.95 0 0 0-2 .556 3.95 3.95 0 0 0-2-.556 4 4 0 0 0 0 8 3.96 3.96 0 0 0 2-.556c.605.36 1.296.552 2 .556a4 4 0 1 0 0-8m-1 4a2.98 2.98 0 0 1-1 2.22 2.964 2.964 0 0 1 0-4.44 2.98 2.98 0 0 1 1 2.22m-6 0a2.993 2.993 0 0 1 4.13-2.775 3.974 3.974 0 0 0 0 5.55A2.992 2.992 0 0 1 18.5 6.5m7 3c-.387 0-.771-.077-1.13-.225a3.973 3.973 0 0 0 0-5.55A2.999 2.999 0 1 1 25.5 9.5M23.868 19.875a3.017 3.017 0 0 0-4.26.003s-1.472 1.498-1.761 1.807a7.27 7.27 0 0 1-5.346-2.18 7.65 7.65 0 0 1-2.233-5.272c.362-.363 1.86-1.835 1.863-1.838a3.01 3.01 0 0 0 0-4.257L9.378 5.385a3.094 3.094 0 0 0-4.274 0L3.632 6.857C1.749 8.739 1.388 15.413 8.99 23.016c4.913 4.913 9.439 6.5 12.535 6.5a5.17 5.17 0 0 0 3.625-1.14l1.471-1.473a3.02 3.02 0 0 0 0-4.274zm2.046 6.321-1.472 1.472c-1.38 1.38-7.585 1.8-14.745-5.36C2.538 15.15 2.958 8.945 4.34 7.565l1.472-1.472a2.02 2.02 0 0 1 2.86 0l2.753 2.753a2.01 2.01 0 0 1 .003 2.84s-1.502 1.476-1.867 1.84c-.695.698-.068 4.385 2.234 6.687a9.03 9.03 0 0 0 3.933 2.24c.221.06 2.174.573 2.754-.007.363-.363 1.837-1.863 1.837-1.863a2.014 2.014 0 0 1 2.843 0l2.753 2.754a2.02 2.02 0 0 1 0 2.86"/></svg>