<svg xmlns="http://www.w3.org/2000/svg" width="32" height="32" viewBox="0 0 32 32"><path d="M18.016 21.5c-.7.004-1.388.173-2.01.494A4.44 4.44 0 0 0 14 21.5a4.5 4.5 0 1 0 0 9 4.44 4.44 0 0 0 2.009-.495c.62.32 1.308.49 2.007.494a4.5 4.5 0 0 0 0-9M14 29.5a3.5 3.5 0 1 1 0-7c.345.005.688.062 1.017.169a4.446 4.446 0 0 0 .002 6.662c-.33.107-.673.164-1.02.17m3.5-3.5a3.49 3.49 0 0 1-1.492 2.858 3.484 3.484 0 0 1 0-5.716A3.5 3.5 0 0 1 17.5 26m.516 3.5a3.5 3.5 0 0 1-1.017-.17 4.447 4.447 0 0 0-.002-6.662q.497-.161 1.019-.169a3.5 3.5 0 0 1 0 7M25 5.5H7A4.505 4.505 0 0 0 2.5 10v12a4.5 4.5 0 0 0 3.366 4.357.5.5 0 0 0 .252-.97A3.5 3.5 0 0 1 3.5 22V10A3.504 3.504 0 0 1 7 6.5h18a3.504 3.504 0 0 1 3.5 3.5v12a3.5 3.5 0 0 1-2.617 3.388.5.5 0 0 0 .252.969A4.5 4.5 0 0 0 29.5 22V10A4.505 4.505 0 0 0 25 5.5"/></svg>