<svg xmlns="http://www.w3.org/2000/svg" width="32" height="32" viewBox="0 0 32 32"><path d="M18.016 21.5c-.7.004-1.388.173-2.01.494A4.443 4.443 0 0 0 14 21.5a4.5 4.5 0 1 0 0 9 4.443 4.443 0 0 0 2.009-.495c.62.32 1.308.49 2.007.494a4.5 4.5 0 0 0 0-9ZM14 29.5a3.5 3.5 0 1 1 0-7c.345.005.688.062 1.017.169a4.446 4.446 0 0 0 .002 6.662c-.33.107-.673.164-1.02.17Zm3.5-3.5a3.492 3.492 0 0 1-1.492 2.858 3.484 3.484 0 0 1 0-5.716A3.494 3.494 0 0 1 17.5 26Zm.516 3.5a3.45 3.45 0 0 1-1.017-.17 4.447 4.447 0 0 0-.002-6.662c.33-.107.672-.164 1.019-.169a3.5 3.5 0 0 1 0 7Z"/><path d="M25 5.5H7A4.505 4.505 0 0 0 2.5 10v12a4.501 4.501 0 0 0 3.366 4.357.5.5 0 0 0 .252-.97A3.499 3.499 0 0 1 3.5 22V10A3.504 3.504 0 0 1 7 6.5h18a3.504 3.504 0 0 1 3.5 3.5v12a3.499 3.499 0 0 1-2.617 3.388.5.5 0 0 0 .252.969A4.5 4.5 0 0 0 29.5 22V10A4.505 4.505 0 0 0 25 5.5Z"/></svg>