<svg xmlns="http://www.w3.org/2000/svg" width="32" height="32" viewBox="0 0 32 32"><path d="M29 23.5H3a.5.5 0 0 0 0 1h26a.5.5 0 0 0 0-1M16 7.5c-9.54 0-13.5 4.432-13.5 6.805v1.467A2.73 2.73 0 0 0 5.23 18.5h3.57a2.713 2.713 0 0 0 2.702-2.719V13.93A7 7 0 0 1 16 12.5a7.02 7.02 0 0 1 4.5 1.423l-.002 1.867a2.81 2.81 0 0 0 2.832 2.71h3.44a2.73 2.73 0 0 0 2.73-2.729v-1.466C29.5 11.932 25.54 7.5 16 7.5m12.5 8.272a1.73 1.73 0 0 1-1.728 1.728h-3.44a1.82 1.82 0 0 1-1.832-1.71v-1.953c0-1-2.718-2.337-5.5-2.337-2.78 0-5.5 1.342-5.5 2.343v1.938A1.713 1.713 0 0 1 8.799 17.5H5.23A1.73 1.73 0 0 1 3.5 15.771v-1.466C3.5 12.597 7.097 8.5 16 8.5s12.5 4.097 12.5 5.805z"/></svg>