<svg xmlns="http://www.w3.org/2000/svg" width="32" height="32" viewBox="0 0 32 32"><path d="M29 23H3a1 1 0 0 0 0 2h26a1 1 0 0 0 0-2M16 7C6.107 7 2 11.758 2 14.305v1.467A3.23 3.23 0 0 0 5.23 19h3.57A3.214 3.214 0 0 0 12 15.781v-1.636A7 7 0 0 1 16 13a7 7 0 0 1 4 1.14l-.002 1.65A3.316 3.316 0 0 0 23.332 19h3.44a3.23 3.23 0 0 0 3.23-3.229v-1.466C30 11.758 25.893 7 16 7m12 8.772A1.23 1.23 0 0 1 26.772 17h-3.44A1.31 1.31 0 0 1 22 15.791v-1.954C22 12.309 18.703 11 16 11c-2.971 0-6 1.435-6 2.843v1.938A1.21 1.21 0 0 1 8.799 17H5.23A1.23 1.23 0 0 1 4 15.771v-1.466C4 12.795 7.57 9 16 9s12 3.795 12 5.305z"/></svg>