<svg xmlns="http://www.w3.org/2000/svg" width="32" height="32" viewBox="0 0 32 32"><path d="m18.47 15.47-1.717 1.715.005-4.184a.75.75 0 0 0-1.5-.002l-.005 4.191-1.722-1.72a.75.75 0 1 0-1.061 1.06l3 2.998a.73.73 0 0 0 .182.12c.02.012.036.03.057.039a.724.724 0 0 0 .582 0 .739.739 0 0 0 .065-.043.725.725 0 0 0 .175-.116l3-2.998a.75.75 0 0 0-1.061-1.06ZM27 3.25H5A1.752 1.752 0 0 0 3.25 5v3A1.752 1.752 0 0 0 5 9.75h22A1.752 1.752 0 0 0 28.75 8V5A1.752 1.752 0 0 0 27 3.25ZM27.25 8a.25.25 0 0 1-.25.25H5A.25.25 0 0 1 4.75 8V5A.25.25 0 0 1 5 4.75h22a.25.25 0 0 1 .25.25v3ZM8 22.25H5A1.752 1.752 0 0 0 3.25 24v3A1.752 1.752 0 0 0 5 28.75h3A1.752 1.752 0 0 0 9.75 27v-3A1.752 1.752 0 0 0 8 22.25ZM8.25 27a.25.25 0 0 1-.25.25H5a.25.25 0 0 1-.25-.25v-3a.25.25 0 0 1 .25-.25h3a.25.25 0 0 1 .25.25v3ZM17.5 22.25h-3A1.752 1.752 0 0 0 12.75 24v3a1.752 1.752 0 0 0 1.75 1.75h3A1.752 1.752 0 0 0 19.25 27v-3a1.752 1.752 0 0 0-1.75-1.75Zm.25 4.75a.25.25 0 0 1-.25.25h-3a.25.25 0 0 1-.25-.25v-3a.25.25 0 0 1 .25-.25h3a.25.25 0 0 1 .25.25v3ZM27 22.25h-3A1.752 1.752 0 0 0 22.25 24v3A1.752 1.752 0 0 0 24 28.75h3A1.752 1.752 0 0 0 28.75 27v-3A1.752 1.752 0 0 0 27 22.25Zm.25 4.75a.25.25 0 0 1-.25.25h-3a.25.25 0 0 1-.25-.25v-3a.25.25 0 0 1 .25-.25h3a.25.25 0 0 1 .25.25v3Z"/></svg>