<svg xmlns="http://www.w3.org/2000/svg" width="32" height="32" viewBox="0 0 32 32"><path d="m18.293 15.293-1.29 1.289.005-3.581a1 1 0 0 0-2-.002l-.005 3.589-1.296-1.295a1 1 0 1 0-1.414 1.414l3 2.998a.998.998 0 0 0 1.414 0l3-2.998a1 1 0 0 0-1.414-1.414ZM27 3H5a2.003 2.003 0 0 0-2 2v3a2.003 2.003 0 0 0 2 2h22a2.003 2.003 0 0 0 2-2V5a2.003 2.003 0 0 0-2-2ZM5 8V5h22l.001 3H5ZM8 22H5a2.003 2.003 0 0 0-2 2v3a2.003 2.003 0 0 0 2 2h3a2.003 2.003 0 0 0 2-2v-3a2.003 2.003 0 0 0-2-2Zm-3 5v-3h3l.001 3H5ZM17.5 22h-3a2.003 2.003 0 0 0-2 2v3a2.003 2.003 0 0 0 2 2h3a2.003 2.003 0 0 0 2-2v-3a2.003 2.003 0 0 0-2-2Zm-3 5v-3h3l.001 3H14.5ZM27 22h-3a2.003 2.003 0 0 0-2 2v3a2.003 2.003 0 0 0 2 2h3a2.003 2.003 0 0 0 2-2v-3a2.003 2.003 0 0 0-2-2Zm-3 5v-3h3l.001 3H24Z"/></svg>