<svg xmlns="http://www.w3.org/2000/svg" width="32" height="32" viewBox="0 0 32 32"><path d="m18.647 15.646-2.145 2.144.006-4.789a.5.5 0 0 0-1-.002l-.006 4.794-2.148-2.146a.5.5 0 1 0-.707.707l3 2.998a.5.5 0 0 0 .707 0l3-2.998a.5.5 0 0 0-.707-.708M27 3.5H5A1.5 1.5 0 0 0 3.5 5v3A1.5 1.5 0 0 0 5 9.5h22A1.5 1.5 0 0 0 28.5 8V5A1.5 1.5 0 0 0 27 3.5m.5 4.5a.5.5 0 0 1-.5.5H5a.5.5 0 0 1-.5-.5V5a.5.5 0 0 1 .5-.5h22a.5.5 0 0 1 .5.5zM8 22.5H5A1.5 1.5 0 0 0 3.5 24v3A1.5 1.5 0 0 0 5 28.5h3A1.5 1.5 0 0 0 9.5 27v-3A1.5 1.5 0 0 0 8 22.5m.5 4.5a.5.5 0 0 1-.5.5H5a.5.5 0 0 1-.5-.5v-3a.5.5 0 0 1 .5-.5h3a.5.5 0 0 1 .5.5zM17.5 22.5h-3A1.5 1.5 0 0 0 13 24v3a1.5 1.5 0 0 0 1.5 1.5h3A1.5 1.5 0 0 0 19 27v-3a1.5 1.5 0 0 0-1.5-1.5M18 27a.5.5 0 0 1-.5.5h-3a.5.5 0 0 1-.5-.5v-3a.5.5 0 0 1 .5-.5h3a.5.5 0 0 1 .5.5zM27 22.5h-3a1.5 1.5 0 0 0-1.5 1.5v3a1.5 1.5 0 0 0 1.5 1.5h3a1.5 1.5 0 0 0 1.5-1.5v-3a1.5 1.5 0 0 0-1.5-1.5m.5 4.5a.5.5 0 0 1-.5.5h-3a.5.5 0 0 1-.5-.5v-3a.5.5 0 0 1 .5-.5h3a.5.5 0 0 1 .5.5z"/></svg>