<svg xmlns="http://www.w3.org/2000/svg" width="32" height="32" viewBox="0 0 32 32"><path d="M6 8a2 2 0 0 1 2-2h3.5a1 1 0 1 0 0-2H8a4 4 0 0 0-4 4v4.448a2 2 0 0 1-.438 1.249l-1.343 1.678a1 1 0 0 0 0 1.25l1.343 1.678A2 2 0 0 1 4 19.553V24a4 4 0 0 0 4 4h16a4 4 0 0 0 4-4v-4.448a2 2 0 0 1 .438-1.249l1.343-1.678a1 1 0 0 0 0-1.25l-1.343-1.678a2 2 0 0 1-.438-1.25V8a4 4 0 0 0-4-4h-3.5a1 1 0 1 0 0 2H24a2 2 0 0 1 2 2v4.448a4 4 0 0 0 .877 2.498L27.719 16l-.843 1.054A4 4 0 0 0 26 19.552V24a2 2 0 0 1-2 2H8a2 2 0 0 1-2-2v-4.448a4 4 0 0 0-.877-2.498L4.281 16l.842-1.054A4 4 0 0 0 6 12.448zm13.894 2.447a1 1 0 1 0-1.788-.894l-6 12a1 1 0 1 0 1.788.894z"/></svg>