<svg xmlns="http://www.w3.org/2000/svg" width="32" height="32" viewBox="0 0 32 32"><path d="M27 23.25h-3.25V20a.75.75 0 1 0-1.5 0v3.25H19a.75.75 0 1 0 0 1.5h3.25V28a.75.75 0 1 0 1.5 0v-3.25H27a.75.75 0 1 0 0-1.5M17.886 27.96c-5.116.804-10.888-.08-13.147-2.01a2.42 2.42 0 0 1-.989-1.87c0-5.058 4.694-9.33 10.25-9.33 2.365 0 4.665.778 6.543 2.215a.75.75 0 1 0 .916-1.19 12.2 12.2 0 0 0-4.064-2.035 6.25 6.25 0 1 0-6.798-.005C5.826 15.117 2.25 19.295 2.25 24.08a3.94 3.94 0 0 0 1.515 3.01c2.17 1.856 6.324 2.657 10.26 2.657 1.37.004 2.739-.098 4.093-.305a.752.752 0 0 0 .524-1.132.75.75 0 0 0-.756-.35M9.25 8.5a4.75 4.75 0 1 1 9.5 0 4.75 4.75 0 0 1-9.5 0"/></svg>