<svg xmlns="http://www.w3.org/2000/svg" width="32" height="32" viewBox="0 0 32 32"><path d="M28 23h-3v-3a1 1 0 1 0-2 0v3h-3a1 1 0 1 0 0 2h3v3a1 1 0 0 0 2 0v-3h3a1 1 0 0 0 0-2M18.847 27.713c-5.049.796-10.735-.063-12.945-1.954A2.19 2.19 0 0 1 5 24.08C5 19.159 9.58 15 15 15c2.31 0 4.556.76 6.39 2.163a1 1 0 1 0 1.221-1.584 12.4 12.4 0 0 0-3.654-1.933 6.5 6.5 0 1 0-7.902.008C6.422 15.2 3 19.345 3 24.08a4.18 4.18 0 0 0 1.603 3.2c2.216 1.895 6.445 2.715 10.44 2.715a27 27 0 0 0 4.114-.306 1 1 0 0 0-.31-1.976M10.5 8.5a4.5 4.5 0 1 1 9 0 4.5 4.5 0 0 1-9 0"/></svg>