<svg xmlns="http://www.w3.org/2000/svg" width="32" height="32" viewBox="0 0 32 32"><path d="M23.5 18a6 6 0 1 0 6 6 6.006 6.006 0 0 0-6-6m4 6a3.95 3.95 0 0 1-.542 1.974l-5.527-5.38A3.96 3.96 0 0 1 23.5 20a4.004 4.004 0 0 1 4 4m-8 0c.004-.693.19-1.372.54-1.97l5.524 5.379a3.96 3.96 0 0 1-2.064.59 4.004 4.004 0 0 1-4-4M15.462 27.985c-4.473.157-8.585-.794-10.229-2.38a2.09 2.09 0 0 1-.733-1.528c0-4.92 4.579-9.077 10-9.077a10.5 10.5 0 0 1 5.48 1.529 1 1 0 0 0 1.04-1.707 12.4 12.4 0 0 0-2.56-1.18 6.5 6.5 0 1 0-7.905.011C5.92 15.2 2.5 19.343 2.5 24.077a4.09 4.09 0 0 0 1.345 2.968c2.271 2.19 6.818 2.957 10.66 2.957q.525 0 1.03-.019a1 1 0 0 0 .962-1.035 1.025 1.025 0 0 0-1.035-.963M10 8.5A4.5 4.5 0 1 1 19 8.5 4.5 4.5 0 0 1 10 8.5"/></svg>