<svg xmlns="http://www.w3.org/2000/svg" width="32" height="32" viewBox="0 0 32 32"><path d="M8.396 7.516c0-1.091.329-2.157.945-3.065a5.586 5.586 0 0 1 2.514-2.031 5.687 5.687 0 0 1 3.238-.314 5.633 5.633 0 0 1 2.87 1.51 5.49 5.49 0 0 1 1.533 2.824 5.435 5.435 0 0 1-.319 3.186 5.535 5.535 0 0 1-2.064 2.476 5.667 5.667 0 0 1-7.074-.688 5.478 5.478 0 0 1-1.643-3.898ZM18.076 21.383A1 1 0 0 1 19 20h10a1 1 0 0 1 0 2H19a1.001 1.001 0 0 1-.924-.617ZM19 24h10a1 1 0 0 1 0 2H19a1 1 0 0 1 0-2ZM29 28H19a1 1 0 0 0 0 2h10a1 1 0 0 0 0-2Z"/><path d="M15 29c-7.178 0-12-1.855-12-3.588C3 19.67 8.383 15 15 15c3.277 0 6.251 1.146 8.42 3h-3.991C17.535 18 16 19.485 16 21.316c0 .681.213 1.315.577 1.842a3.224 3.224 0 0 0 0 3.684 3.224 3.224 0 0 0-.563 2.146c-.332.008-.67.012-1.014.012Z"/></svg>