<svg xmlns="http://www.w3.org/2000/svg" width="32" height="32" viewBox="0 0 32 32"><path d="M17.885 27.96C12.777 28.767 7 27.88 4.74 25.95a2.43 2.43 0 0 1-.991-1.873c0-5.056 4.694-9.327 10.25-9.327a10.58 10.58 0 0 1 8.815 4.647.75.75 0 0 0 1.256-.82 11.88 11.88 0 0 0-6.687-4.831 6.25 6.25 0 1 0-6.788-.011c-4.77 1.382-8.346 5.558-8.346 10.342a3.94 3.94 0 0 0 1.517 3.013c2.17 1.856 6.324 2.657 10.257 2.657 1.37.004 2.74-.098 4.094-.305a.751.751 0 0 0-.233-1.482M9.249 8.5a4.75 4.75 0 1 1 9.5 0 4.75 4.75 0 0 1-9.5 0M27 23.25h-8a.75.75 0 1 0 0 1.5h8a.75.75 0 1 0 0-1.5"/></svg>