<svg xmlns="http://www.w3.org/2000/svg" width="32" height="32" viewBox="0 0 32 32"><path d="M22.266 15.252a11.9 11.9 0 0 0-3.535-1.416 5.999 5.999 0 1 0-5.473-.006C8.298 14.997 4.5 19.21 4.5 24.077A3.65 3.65 0 0 0 5.929 26.9c2.124 1.816 6.203 2.599 10.077 2.599a26.6 26.6 0 0 0 4.074-.304.5.5 0 0 0-.156-.988c-5.171.814-11.035-.093-13.346-2.068A2.7 2.7 0 0 1 5.5 24.077c0-5.192 4.809-9.577 10.5-9.577a11 11 0 0 1 5.744 1.605.5.5 0 0 0 .522-.853M11 8.5a5 5 0 1 1 9.999 0A5 5 0 0 1 11 8.5M26 28.75a.75.75 0 1 0 0-1.5.75.75 0 0 0 0 1.5M26 18.5a2.82 2.82 0 0 0-2.808 2.827.5.5 0 0 0 1 0A1.809 1.809 0 1 1 26 23.117a.5.5 0 0 0-.5.5V25a.5.5 0 0 0 1 0v-.927A2.81 2.81 0 0 0 26 18.5"/></svg>