<svg xmlns="http://www.w3.org/2000/svg" width="32" height="32" viewBox="0 0 32 32"><path d="M5.5 8A2.5 2.5 0 0 1 8 5.5h3.5a.5.5 0 0 0 0-1H8A3.5 3.5 0 0 0 4.5 8v4.448a2.5 2.5 0 0 1-.548 1.561L2.61 15.688a.5.5 0 0 0 0 .624l1.342 1.679a2.5 2.5 0 0 1 .548 1.561V24A3.5 3.5 0 0 0 8 27.5h16a3.5 3.5 0 0 0 3.5-3.5v-4.448a2.5 2.5 0 0 1 .548-1.561l1.342-1.679a.5.5 0 0 0 0-.624l-1.342-1.679a2.5 2.5 0 0 1-.548-1.561V8A3.5 3.5 0 0 0 24 4.5h-3.5a.5.5 0 0 0 0 1H24A2.5 2.5 0 0 1 26.5 8v4.448a3.5 3.5 0 0 0 .767 2.186L28.36 16l-1.093 1.366a3.5 3.5 0 0 0-.767 2.186V24a2.5 2.5 0 0 1-2.5 2.5H8A2.5 2.5 0 0 1 5.5 24v-4.448a3.5 3.5 0 0 0-.767-2.186L3.64 16l1.093-1.366a3.5 3.5 0 0 0 .767-2.186zm13.947 2.224a.5.5 0 1 0-.894-.448l-6 12a.5.5 0 1 0 .894.448z"/></svg>