<svg xmlns="http://www.w3.org/2000/svg" width="32" height="32" viewBox="0 0 32 32"><path d="M17.924 28.207c-5.172.814-11.036-.092-13.346-2.068A2.7 2.7 0 0 1 3.5 24.077C3.5 18.885 8.309 14.5 14 14.5a10.83 10.83 0 0 1 9.024 4.76.5.5 0 1 0 .838-.546 11.7 11.7 0 0 0-7.117-4.886 6 6 0 1 0-5.488.003C6.3 14.997 2.5 19.21 2.5 24.077A3.65 3.65 0 0 0 3.929 26.9c2.124 1.816 6.203 2.599 10.077 2.599a26.6 26.6 0 0 0 4.074-.304.5.5 0 1 0-.156-.988M8.999 8.5a5 5 0 1 1 10 0 5 5 0 0 1-10 0M27 23.5h-8a.5.5 0 0 0 0 1h8a.5.5 0 0 0 0-1"/></svg>