<svg xmlns="http://www.w3.org/2000/svg" width="32" height="32" viewBox="0 0 32 32"><path d="M23 18.25A5.75 5.75 0 1 0 28.75 24 5.756 5.756 0 0 0 23 18.25M27.25 24c0 .85-.255 1.68-.732 2.381l-5.986-5.827A4.235 4.235 0 0 1 27.25 24m-8.5 0c-.001-.848.253-1.676.729-2.378l5.985 5.827A4.236 4.236 0 0 1 18.75 24M14.97 28.235c-4.529.158-8.72-.821-10.41-2.45a2.32 2.32 0 0 1-.81-1.708c0-5.056 4.694-9.327 10.25-9.327 1.978-.004 3.919.539 5.61 1.566a.75.75 0 1 0 .78-1.281 12.2 12.2 0 0 0-2.98-1.304 6.25 6.25 0 1 0-6.813.004C5.826 15.117 2.25 19.293 2.25 24.077a3.8 3.8 0 0 0 1.268 2.788c2.226 2.146 6.868 2.886 10.55 2.886q.491 0 .957-.018a.75.75 0 0 0 .722-.776.71.71 0 0 0-.776-.722M9.25 8.5a4.75 4.75 0 1 1 9.5 0 4.75 4.75 0 0 1-9.5 0"/></svg>