<svg xmlns="http://www.w3.org/2000/svg" width="32" height="32" viewBox="0 0 32 32"><path d="M16.05 2.45a6 6 0 0 0-2.811 11.302C8.257 14.862 4.5 18.905 4.5 23.788c0 .687.184 1.509.787 2.32.6.807 1.591 1.57 3.15 2.193l.007.003.009.003a21.1 21.1 0 0 0 7.553 1.239c2.774 0 5.594-.411 7.74-1.305 2.128-.887 3.754-2.328 3.754-4.453 0-4.86-3.722-8.888-8.67-10.02A6 6 0 0 0 16.05 2.45m-5 6a5 5 0 1 1 10 0 5 5 0 0 1-10 0M5.5 23.789c0-5.098 4.657-9.339 10.498-9.339 5.844 0 10.502 4.241 10.502 9.338 0 1.508-1.137 2.696-3.139 3.53-1.984.826-4.662 1.228-7.36 1.228h-.01a20.1 20.1 0 0 1-7.192-1.177c-1.43-.572-2.248-1.237-2.71-1.857-.458-.618-.589-1.223-.589-1.724"/></svg>