<svg xmlns="http://www.w3.org/2000/svg" width="32" height="32" viewBox="0 0 32 32"><path d="M27 23.5h-3.5V20a.5.5 0 0 0-1 0v3.5H19a.5.5 0 0 0 0 1h3.5V28a.5.5 0 1 0 1 0v-3.5H27a.5.5 0 0 0 0-1M17.924 28.207c-5.177.814-11.04-.094-13.347-2.067A2.7 2.7 0 0 1 3.5 24.08c0-5.194 4.809-9.58 10.5-9.58 2.42 0 4.774.796 6.696 2.266a.5.5 0 1 0 .61-.793 12 12 0 0 0-4.555-2.147 6 6 0 1 0-5.493.004C6.3 14.997 2.5 19.212 2.5 24.08a3.65 3.65 0 0 0 1.428 2.82c2.123 1.816 6.202 2.598 10.078 2.598a26.6 26.6 0 0 0 4.074-.303.502.502 0 0 0 .217-.9.5.5 0 0 0-.373-.088M9 8.5a5 5 0 1 1 10 0 5 5 0 0 1-10 0"/></svg>