<svg xmlns="http://www.w3.org/2000/svg" width="32" height="32" viewBox="0 0 32 32"><path d="M5.75 8A2.25 2.25 0 0 1 8 5.75h3.5a.75.75 0 0 0 0-1.5H8A3.75 3.75 0 0 0 4.25 8v4.448a2.25 2.25 0 0 1-.493 1.405l-1.343 1.678a.75.75 0 0 0 0 .937l1.343 1.679c.32.399.493.894.493 1.405V24A3.75 3.75 0 0 0 8 27.75h16A3.75 3.75 0 0 0 27.75 24v-4.448c0-.51.174-1.006.493-1.405l1.343-1.678a.75.75 0 0 0 0-.938l-1.343-1.678a2.25 2.25 0 0 1-.493-1.405V8A3.75 3.75 0 0 0 24 4.25h-3.5a.75.75 0 0 0 0 1.5H24A2.25 2.25 0 0 1 26.25 8v4.448c0 .851.29 1.677.822 2.342L28.04 16l-.968 1.21a3.75 3.75 0 0 0-.822 2.342V24A2.25 2.25 0 0 1 24 26.25H8A2.25 2.25 0 0 1 5.75 24v-4.448a3.75 3.75 0 0 0-.822-2.342L3.96 16l.968-1.21a3.75 3.75 0 0 0 .822-2.342zm13.92 2.335a.75.75 0 1 0-1.34-.67l-6 12a.75.75 0 1 0 1.34.67z"/></svg>