<svg xmlns="http://www.w3.org/2000/svg" width="32" height="32" viewBox="0 0 32 32"><path d="M18.25 21a.75.75 0 0 0 .75.75h10a.75.75 0 1 0 0-1.5H19a.75.75 0 0 0-.75.75ZM29 24.25H19a.75.75 0 1 0 0 1.5h10a.75.75 0 1 0 0-1.5ZM29 28.25H19a.75.75 0 1 0 0 1.5h10a.75.75 0 1 0 0-1.5Z"/><path d="M14.97 28.226c-4.532.16-8.721-.82-10.41-2.45a2.32 2.32 0 0 1-.81-1.706c0-5.051 4.694-9.32 10.25-9.32a10.785 10.785 0 0 1 6.544 2.205.75.75 0 1 0 .913-1.19 12.143 12.143 0 0 0-4.064-2.028 6.25 6.25 0 1 0-6.802 0C5.823 15.118 2.25 19.291 2.25 24.07a3.792 3.792 0 0 0 1.268 2.787c2.225 2.145 6.867 2.884 10.548 2.884.329 0 .649-.006.96-.017a.75.75 0 0 0 .722-.777.724.724 0 0 0-.777-.721ZM9.244 8.5a4.75 4.75 0 1 1 9.5 0 4.75 4.75 0 0 1-9.5 0Z"/></svg>