<svg xmlns="http://www.w3.org/2000/svg" width="32" height="32" viewBox="0 0 32 32"><path d="M16.05 2.2a6.25 6.25 0 0 0-3.46 11.456c-4.782 1.311-8.34 5.309-8.34 10.132 0 .734.197 1.61.837 2.47.634.853 1.667 1.64 3.257 2.275l.012.005.012.004c2.45.88 5.039 1.305 7.64 1.254 2.794 0 5.648-.414 7.834-1.324 2.16-.9 3.908-2.405 3.908-4.684 0-4.799-3.523-8.78-8.27-10.112A6.25 6.25 0 0 0 16.05 2.2M11.3 8.45a4.75 4.75 0 1 1 9.5 0 4.75 4.75 0 0 1-9.5 0M5.75 23.789c0-4.934 4.518-9.089 10.248-9.089 5.733 0 10.252 4.155 10.252 9.088 0 1.354-1.014 2.478-2.985 3.299-1.943.81-4.586 1.209-7.264 1.209h-.015a19.9 19.9 0 0 1-7.099-1.161c-1.396-.56-2.17-1.2-2.597-1.773-.423-.568-.54-1.12-.54-1.573"/></svg>