<svg xmlns="http://www.w3.org/2000/svg" width="32" height="32" viewBox="0 0 32 32"><path d="M23 18.5a5.5 5.5 0 1 0 5.5 5.5 5.507 5.507 0 0 0-5.5-5.5Zm4.5 5.5a4.455 4.455 0 0 1-.963 2.749l-6.379-6.21A4.456 4.456 0 0 1 23 19.5a4.505 4.505 0 0 1 4.5 4.5Zm-9 0a4.456 4.456 0 0 1 .96-2.745l6.377 6.209A4.456 4.456 0 0 1 23 28.5a4.505 4.505 0 0 1-4.5-4.5Z"/><path d="M14.98 28.484c-4.592.18-8.858-.845-10.593-2.52a2.587 2.587 0 0 1-.887-1.887C3.5 18.885 8.309 14.5 14 14.5c2.024-.004 4.01.55 5.74 1.602a.5.5 0 0 0 .52-.853 11.912 11.912 0 0 0-3.53-1.413 6 6 0 1 0-5.472-.006C6.298 14.997 2.5 19.21 2.5 24.077a3.556 3.556 0 0 0 1.192 2.608c1.81 1.745 5.775 2.818 10.282 2.818.344 0 .692-.007 1.043-.019a.501.501 0 0 0 .481-.519.47.47 0 0 0-.519-.48ZM9 8.5a5 5 0 1 1 10 0 5 5 0 0 1-10 0Z"/></svg>