<svg xmlns="http://www.w3.org/2000/svg" width="32" height="32" viewBox="0 0 32 32"><path d="M18.847 27.713c-5.048.796-10.732-.063-12.944-1.954A2.2 2.2 0 0 1 5 24.078C5 19.157 9.579 15 15 15a10.33 10.33 0 0 1 8.606 4.534 1 1 0 0 0 1.674-1.094 12.1 12.1 0 0 0-6.344-4.78 6.5 6.5 0 1 0-7.882-.007C6.42 15.2 3 19.344 3 24.078a4.18 4.18 0 0 0 1.603 3.203c2.22 1.895 6.447 2.715 10.439 2.715a27 27 0 0 0 4.115-.306 1 1 0 0 0-.31-1.976M14.999 4a4.5 4.5 0 1 1 0 9 4.5 4.5 0 0 1 0-9M28 23h-8a1 1 0 1 0 0 2h8a1 1 0 0 0 0-2"/></svg>