<svg xmlns="http://www.w3.org/2000/svg" width="32" height="32" viewBox="0 0 32 32"><path d="M22.525 14.825a12.4 12.4 0 0 0-2.566-1.182 6.5 6.5 0 1 0-7.904.01C7.42 15.2 4 19.343 4 24.077a4.18 4.18 0 0 0 1.604 3.203c2.218 1.895 6.446 2.715 10.438 2.715a27 27 0 0 0 4.115-.306 1 1 0 0 0-.31-1.976c-5.048.796-10.732-.063-12.944-1.954A2.2 2.2 0 0 1 6 24.078C6 19.157 10.58 15 16 15a10.5 10.5 0 0 1 5.484 1.532 1 1 0 0 0 1.041-1.707M11.5 8.5a4.5 4.5 0 1 1 9 0 4.5 4.5 0 0 1-9 0M26 29.25a1.25 1.25 0 1 0 0-2.5 1.25 1.25 0 0 0 0 2.5M26 18a3.32 3.32 0 0 0-3.308 3.327 1 1 0 1 0 2 0 1.306 1.306 0 0 1 2.24-.937 1.3 1.3 0 0 1 .376.937A1.3 1.3 0 0 1 26 22.617a1 1 0 0 0-1 1V25a1 1 0 0 0 2 0v-.537A3.31 3.31 0 0 0 26 18"/></svg>