<svg xmlns="http://www.w3.org/2000/svg" width="32" height="32" viewBox="0 0 32 32"><path d="M8.396 7.516c0-1.091.329-2.157.945-3.065a5.6 5.6 0 0 1 2.514-2.031 5.7 5.7 0 0 1 3.238-.314 5.63 5.63 0 0 1 2.87 1.51 5.5 5.5 0 0 1 1.533 2.824 5.44 5.44 0 0 1-.319 3.186 5.54 5.54 0 0 1-2.064 2.476 5.67 5.67 0 0 1-7.074-.688 5.48 5.48 0 0 1-1.643-3.898M18.076 21.383A1 1 0 0 1 19 20h10a1 1 0 0 1 0 2H19a1 1 0 0 1-.924-.617M19 24h10a1 1 0 0 1 0 2H19a1 1 0 0 1 0-2M29 28H19a1 1 0 0 0 0 2h10a1 1 0 0 0 0-2M15 29c-7.178 0-12-1.855-12-3.588C3 19.67 8.383 15 15 15c3.277 0 6.251 1.146 8.42 3h-3.991C17.535 18 16 19.485 16 21.316c0 .681.213 1.315.577 1.842a3.22 3.22 0 0 0 0 3.684 3.22 3.22 0 0 0-.563 2.146Q15.516 29 15 29"/></svg>