<svg xmlns="http://www.w3.org/2000/svg" width="32" height="32" viewBox="0 0 32 32"><path d="M18 21a1 1 0 0 0 1 1h10a1 1 0 0 0 0-2H19a1 1 0 0 0-1 1M29 24H19a1 1 0 1 0 0 2h10a1 1 0 0 0 0-2M29 28H19a1 1 0 1 0 0 2h10a1 1 0 0 0 0-2M14.962 27.976c-4.476.16-8.586-.794-10.23-2.38A2.09 2.09 0 0 1 4 24.07C4 19.155 8.58 15 14 15a10.53 10.53 0 0 1 6.391 2.154 1 1 0 1 0 1.219-1.586 12.4 12.4 0 0 0-3.655-1.927 6.5 6.5 0 1 0-7.906.014C5.42 15.202 2 19.341 2 24.071a4.08 4.08 0 0 0 1.344 2.965c2.271 2.19 6.818 2.956 10.661 2.956q.526 0 1.03-.018a.997.997 0 0 0 .963-1.035.987.987 0 0 0-1.036-.963M13.992 4a4.5 4.5 0 1 1 0 9 4.5 4.5 0 0 1 0-9"/></svg>