<svg xmlns="http://www.w3.org/2000/svg" width="32" height="32" viewBox="0 0 32 32"><path d="M18 21a1 1 0 0 0 1 1h10a1 1 0 0 0 0-2H19a1 1 0 0 0-1 1ZM29 24H19a1 1 0 1 0 0 2h10a1 1 0 0 0 0-2ZM29 28H19a1 1 0 1 0 0 2h10a1 1 0 0 0 0-2Z"/><path d="M14.962 27.976c-4.476.16-8.586-.794-10.23-2.38A2.085 2.085 0 0 1 4 24.07C4 19.154 8.58 15 14 15a10.533 10.533 0 0 1 6.391 2.154 1 1 0 1 0 1.219-1.586 12.365 12.365 0 0 0-3.655-1.927 6.5 6.5 0 1 0-7.906.014C5.42 15.202 2 19.341 2 24.07a4.084 4.084 0 0 0 1.344 2.966c2.271 2.19 6.818 2.956 10.661 2.956.35 0 .694-.006 1.03-.018a.997.997 0 0 0 .963-1.035.987.987 0 0 0-1.036-.963ZM13.992 4a4.5 4.5 0 1 1 0 9 4.5 4.5 0 0 1 0-9Z"/></svg>