<svg xmlns="http://www.w3.org/2000/svg" width="32" height="32" viewBox="0 0 32 32"><path d="M18.5 21a.5.5 0 0 0 .5.5h10a.5.5 0 0 0 0-1H19a.497.497 0 0 0-.5.5ZM29 24.5H19a.5.5 0 0 0 0 1h10a.5.5 0 0 0 0-1ZM29 28.5H19a.5.5 0 0 0 0 1h10a.5.5 0 0 0 0-1Z"/><path d="M14.98 28.475c-4.598.182-8.86-.844-10.595-2.519A2.588 2.588 0 0 1 3.5 24.07c0-5.187 4.809-9.57 10.5-9.57a11.036 11.036 0 0 1 6.696 2.257.5.5 0 1 0 .61-.793 11.932 11.932 0 0 0-4.557-2.14 6 6 0 1 0-5.496.008C6.296 14.999 2.5 19.209 2.5 24.07a3.55 3.55 0 0 0 1.191 2.606c1.81 1.746 5.774 2.817 10.282 2.817.345 0 .693-.006 1.043-.018a.5.5 0 0 0 .482-.519.524.524 0 0 0-.518-.481ZM8.993 8.5a5 5 0 1 1 10 0 5 5 0 0 1-10 0Z"/></svg>