<svg xmlns="http://www.w3.org/2000/svg" width="32" height="32" viewBox="0 0 32 32"><path d="M16 12.5A6.507 6.507 0 0 0 9.5 19v4a6.5 6.5 0 0 0 13 0v-4a6.51 6.51 0 0 0-6.5-6.5m5.474 6H16.5v-4.975a5.506 5.506 0 0 1 4.974 4.975M15.5 13.525V18.5h-4.975a5.506 5.506 0 0 1 4.975-4.975M16 28.5a5.507 5.507 0 0 1-5.5-5.5v-3.5h11V23a5.506 5.506 0 0 1-5.5 5.5M25.353 6.647a15 15 0 0 0-4.293-3.125 13.07 13.07 0 0 0-10.141.01 15.7 15.7 0 0 0-4.272 3.115.5.5 0 1 0 .707.707 14.9 14.9 0 0 1 3.975-2.91 12.12 12.12 0 0 1 9.325-.008 14 14 0 0 1 3.992 2.918.5.5 0 1 0 .707-.707M20.088 8.326a10.53 10.53 0 0 0-8.2.011 11.6 11.6 0 0 0-3.241 2.31.5.5 0 1 0 .707.707 10.6 10.6 0 0 1 2.948-2.108 9.62 9.62 0 0 1 7.368-.012 10.9 10.9 0 0 1 2.976 2.12.499.499 0 1 0 .707-.707 11.8 11.8 0 0 0-3.265-2.32"/></svg>