<svg xmlns="http://www.w3.org/2000/svg" width="32" height="32" viewBox="0 0 32 32"><path d="M16 12.25A6.757 6.757 0 0 0 9.25 19v4a6.75 6.75 0 0 0 13.5 0v-4A6.757 6.757 0 0 0 16 12.25m5.174 6H16.75v-4.424a5.23 5.23 0 0 1 4.424 4.424m-5.924-4.424v4.424h-4.424a5.23 5.23 0 0 1 4.424-4.424M16 28.25A5.256 5.256 0 0 1 10.75 23v-3.25h10.5V23A5.256 5.256 0 0 1 16 28.25M25.53 6.47a15.2 15.2 0 0 0-4.372-3.178 13.3 13.3 0 0 0-10.348.014A16 16 0 0 0 6.47 6.47a.75.75 0 1 0 1.06 1.06 14.7 14.7 0 0 1 3.897-2.857 11.87 11.87 0 0 1 9.121-.01A13.8 13.8 0 0 1 24.47 7.53a.75.75 0 1 0 1.06-1.06M20.185 8.096a10.76 10.76 0 0 0-8.407.016A11.8 11.8 0 0 0 8.47 10.47a.75.75 0 1 0 1.06 1.06 10.3 10.3 0 0 1 2.87-2.053 9.38 9.38 0 0 1 7.158-.019 10.6 10.6 0 0 1 2.911 2.073.75.75 0 0 0 1.06-1.061 12.1 12.1 0 0 0-3.344-2.374"/></svg>