<svg xmlns="http://www.w3.org/2000/svg" width="32" height="32" viewBox="0 0 32 32"><path d="M16 12.5A6.507 6.507 0 0 0 9.5 19v4a6.5 6.5 0 0 0 13 0v-4a6.508 6.508 0 0 0-6.5-6.5Zm5.474 6H16.5v-4.975a5.506 5.506 0 0 1 4.974 4.975ZM15.5 13.525V18.5h-4.975a5.506 5.506 0 0 1 4.975-4.975ZM16 28.5a5.507 5.507 0 0 1-5.5-5.5v-3.5h11V23a5.506 5.506 0 0 1-5.5 5.5ZM25.353 6.647a14.954 14.954 0 0 0-4.293-3.125 13.068 13.068 0 0 0-10.141.01 15.735 15.735 0 0 0-4.272 3.115.5.5 0 1 0 .707.707 14.923 14.923 0 0 1 3.975-2.91 12.115 12.115 0 0 1 9.325-.008 13.995 13.995 0 0 1 3.992 2.918.5.5 0 1 0 .707-.707Z"/><path d="M20.088 8.326a10.526 10.526 0 0 0-8.2.011 11.554 11.554 0 0 0-3.241 2.31.5.5 0 1 0 .707.707 10.591 10.591 0 0 1 2.948-2.108 9.62 9.62 0 0 1 7.368-.012 10.852 10.852 0 0 1 2.976 2.12.499.499 0 1 0 .707-.707 11.825 11.825 0 0 0-3.265-2.32Z"/></svg>