<svg xmlns="http://www.w3.org/2000/svg" width="32" height="32" viewBox="0 0 32 32"><path d="M16 12.25A6.757 6.757 0 0 0 9.25 19v4a6.75 6.75 0 0 0 13.5 0v-4A6.757 6.757 0 0 0 16 12.25Zm5.174 6H16.75v-4.424a5.23 5.23 0 0 1 4.424 4.424Zm-5.924-4.424v4.424h-4.424a5.23 5.23 0 0 1 4.424-4.424ZM16 28.25A5.256 5.256 0 0 1 10.75 23v-3.25h10.5V23A5.256 5.256 0 0 1 16 28.25ZM25.53 6.47a15.205 15.205 0 0 0-4.372-3.178 13.303 13.303 0 0 0-10.348.014A15.984 15.984 0 0 0 6.47 6.47a.75.75 0 1 0 1.06 1.06 14.713 14.713 0 0 1 3.897-2.857 11.87 11.87 0 0 1 9.121-.01A13.752 13.752 0 0 1 24.47 7.53a.75.75 0 1 0 1.06-1.06Z"/><path d="M20.185 8.096a10.763 10.763 0 0 0-8.407.016A11.803 11.803 0 0 0 8.47 10.47a.75.75 0 1 0 1.06 1.06 10.333 10.333 0 0 1 2.87-2.053 9.38 9.38 0 0 1 7.158-.019 10.605 10.605 0 0 1 2.911 2.072.75.75 0 0 0 1.06-1.06 12.096 12.096 0 0 0-3.344-2.374Z"/></svg>