<svg xmlns="http://www.w3.org/2000/svg" width="32" height="32" viewBox="0 0 32 32"><path d="M16 12a7.008 7.008 0 0 0-7 7v4a7 7 0 0 0 14 0v-4a7.008 7.008 0 0 0-7-7Zm4.899 6H17v-3.899a5.015 5.015 0 0 1 3.898 3.9ZM15 14.101v3.9h-3.899a5.015 5.015 0 0 1 3.9-3.9Zm1 13.9a5.006 5.006 0 0 1-5-5v-3h10v3a5.006 5.006 0 0 1-5 5ZM25.707 6.293a15.458 15.458 0 0 0-4.451-3.231 13.533 13.533 0 0 0-10.553.02c-1.64.813-3.132 1.9-4.41 3.211a1 1 0 0 0 1.414 1.414 14.445 14.445 0 0 1 3.817-2.803 11.634 11.634 0 0 1 8.918-.015 13.504 13.504 0 0 1 3.85 2.818 1 1 0 1 0 1.415-1.414Z"/><path d="M20.282 7.865a11.003 11.003 0 0 0-8.613.023 12.217 12.217 0 0 0-3.376 2.405 1 1 0 0 0 1.415 1.414 10.074 10.074 0 0 1 2.79-2 9.167 9.167 0 0 1 6.95-.025 10.389 10.389 0 0 1 2.845 2.025 1 1 0 1 0 1.414-1.414 12.338 12.338 0 0 0-3.425-2.428Z"/></svg>