<svg xmlns="http://www.w3.org/2000/svg" width="32" height="32" viewBox="0 0 32 32"><path d="M19.25 7.5a4.75 4.75 0 1 1 4.378 4.736l-1.537 6.367a3.75 3.75 0 1 1-4.607 1.167l-3.065-3.406a5.23 5.23 0 0 1-2.919.886 5.3 5.3 0 0 1-1.042-.103l-1.287 3.605a.75.75 0 0 1-1.413-.504l1.288-3.606a5.25 5.25 0 1 1 6.488-1.282l3.065 3.407a3.73 3.73 0 0 1 2.034-.515l1.537-6.367A4.75 4.75 0 0 1 19.25 7.5M24 4.25a3.25 3.25 0 1 0 0 6.5 3.25 3.25 0 0 0 0-6.5m-12.5 4a3.75 3.75 0 1 0 0 7.5 3.75 3.75 0 0 0 0-7.5M18.25 22a2.25 2.25 0 1 0 4.5 0 2.25 2.25 0 0 0-4.5 0M3.25 26a3.25 3.25 0 1 1 6.5 0 3.25 3.25 0 0 1-6.5 0m3.25-1.75a1.75 1.75 0 1 0 0 3.5 1.75 1.75 0 0 0 0-3.5"/></svg>