<svg xmlns="http://www.w3.org/2000/svg" width="32" height="32" viewBox="0 0 32 32"><path d="M16.05 15.15a6.472 6.472 0 0 1-.42-9.948 4.496 4.496 0 1 0-6.513 5.595C5.308 11.732 2.5 14.84 2.5 18.53c0 .975.516 2.34 2.972 3.318a14.2 14.2 0 0 0 3.32.8 10.9 10.9 0 0 1 7.258-7.497M20 14.5a4.5 4.5 0 1 0 0-9 4.5 4.5 0 0 0 0 9M10.5 24.973c0-4.67 4.261-8.472 9.499-8.472 1.777 0 3.442.438 4.866 1.198A2.5 2.5 0 0 0 24.5 19v1.5H23a2.5 2.5 0 0 0 0 5h1.5V27c0 .724.308 1.376.8 1.833-1.579.451-3.443.667-5.3.667-2.17.043-4.33-.31-6.373-1.042-2.585-1.028-3.128-2.462-3.128-3.485M28 19a1 1 0 1 0-2 0v3h-3a1 1 0 1 0 0 2h3v3a1 1 0 1 0 2 0v-3h3a1 1 0 1 0 0-2h-3z"/></svg>