<svg xmlns="http://www.w3.org/2000/svg" width="32" height="32" viewBox="0 0 32 32"><path d="M24 4.5a3 3 0 1 0 0 6 3 3 0 0 0 0-6m-5 3a5 5 0 1 1 4.823 4.997l-1.442 5.972a4 4 0 1 1-5.215 1.32l-2.79-3.1a5.47 5.47 0 0 1-2.876.811 5.5 5.5 0 0 1-.877-.07l-1.217 3.406a1 1 0 0 1-1.883-.672l1.216-3.406a5.5 5.5 0 1 1 7.123-1.407l2.79 3.1a4 4 0 0 1 1.785-.45l1.441-5.972A5 5 0 0 1 19 7.5m-7.5 1a3.5 3.5 0 1 0 0 7 3.5 3.5 0 0 0 0-7m9 11.5a2 2 0 1 0 0 4 2 2 0 0 0 0-4m-14 4.5a1.5 1.5 0 1 0 0 3 1.5 1.5 0 0 0 0-3M3 26a3.5 3.5 0 1 1 7 0 3.5 3.5 0 0 1-7 0"/></svg>