<svg xmlns="http://www.w3.org/2000/svg" width="32" height="32" viewBox="0 0 32 32"><path d="M23.23 16.757a5.746 5.746 0 1 0-7.041-9.048 5 5 0 0 0 .071-.705 4.75 4.75 0 1 0-7.705 3.689 8.43 8.43 0 0 0-6.305 7.84c0 1.052.543 2.521 3.13 3.55 1.643.595 3.371.92 5.118.965a7.8 7.8 0 0 0-.248 1.926c0 1.1.57 2.636 3.285 3.716a18.1 18.1 0 0 0 6.463 1.06c4.853 0 9.75-1.476 9.75-4.776a8.86 8.86 0 0 0-6.517-8.217M20 7.755a4.25 4.25 0 0 1 .006 8.499h-.013a4.25 4.25 0 0 1 .007-8.5M8.26 7.004a3.25 3.25 0 1 1 6.5 0 3.25 3.25 0 0 1-6.5 0m2.76 14.574c-4.177-.093-7.27-1.368-7.27-3.045 0-3.737 3.478-6.778 7.752-6.778a8.7 8.7 0 0 1 2.757.45 5.75 5.75 0 0 0 2.508 4.552 9.43 9.43 0 0 0-5.747 4.82m8.978 6.672c-4.703 0-8.249-1.408-8.249-3.276 0-3.982 3.7-7.22 8.25-7.22s8.248 3.238 8.248 7.22c0 1.868-3.546 3.276-8.25 3.276"/></svg>