<svg xmlns="http://www.w3.org/2000/svg" width="32" height="32" viewBox="0 0 32 32"><path d="M16 2a14 14 0 1 0 14 14A14.016 14.016 0 0 0 16 2m0 26a12 12 0 1 1 12-12 12.013 12.013 0 0 1-12 12M19.033 15.577c.62-.716.963-1.63.967-2.577a4 4 0 1 0-8 0c.004.947.347 1.861.966 2.577A4.44 4.44 0 0 0 10 19.761c0 .649.285 1.85 2.193 2.608 1.22.44 2.51.654 3.807.63 2.767 0 6-.848 6-3.238a4.44 4.44 0 0 0-2.967-4.184M14 13a2 2 0 1 1 4 0 2 2 0 0 1-4 0m2 7.999c-2.442 0-4-.733-4-1.238C12 17.723 14.154 17 16 17c1.845 0 4 .723 4 2.761C20 20.266 18.44 21 16 21"/></svg>