<svg xmlns="http://www.w3.org/2000/svg" width="32" height="32" viewBox="0 0 32 32"><path d="M19.5 7.5a4.5 4.5 0 1 1 3.937 4.465l-1.638 6.784a3.501 3.501 0 1 1-3.988 1.01l-3.354-3.726a5.014 5.014 0 0 1-4.16.822l-1.362 3.813a.5.5 0 0 1-.942-.336l1.362-3.814a5 5 0 1 1 5.845-1.155l3.354 3.727a3.48 3.48 0 0 1 2.273-.575l1.637-6.784A4.5 4.5 0 0 1 19.5 7.5M24 4a3.5 3.5 0 1 0 0 7 3.5 3.5 0 0 0 0-7M11.5 8a4 4 0 1 0 0 8 4 4 0 0 0 0-8M18 22a2.5 2.5 0 1 0 5 0 2.5 2.5 0 0 0-5 0M3.5 26a3 3 0 1 1 6 0 3 3 0 0 1-6 0m3-2a2 2 0 1 0 0 4 2 2 0 0 0 0-4"/></svg>