<svg xmlns="http://www.w3.org/2000/svg" width="32" height="32" viewBox="0 0 32 32"><path d="M14.337 11.889a2 2 0 1 0 3.326 2.222 2 2 0 0 0-3.326-2.222M12 19.761C12 20.266 13.558 21 16 21c2.441 0 4-.733 4-1.238C20 17.723 17.846 17 16 17s-4 .723-4 2.761M8.222 4.36A14 14 0 0 1 16 2a14.016 14.016 0 0 1 14 14A14 14 0 1 1 8.222 4.36M20 13a4 4 0 0 0-8 0c.004.947.347 1.861.966 2.578A4.44 4.44 0 0 0 10 19.762c0 .648.285 1.848 2.193 2.607 1.22.44 2.51.654 3.807.63 2.767 0 6-.848 6-3.237a4.44 4.44 0 0 0-2.967-4.184c.62-.717.963-1.631.967-2.578"/></svg>