<svg xmlns="http://www.w3.org/2000/svg" width="32" height="32" viewBox="0 0 32 32"><path d="M11.509 2.5a4.5 4.5 0 0 0-2.421 8.294C5.319 11.729 2.5 14.8 2.5 18.529c0 1.597 1.337 2.668 2.971 3.318 1.492.593 3.398.914 5.33.976a7.6 7.6 0 0 0-.306 2.147c0 1.121.641 2.008 1.572 2.665.925.653 2.185 1.12 3.575 1.422 2.781.606 6.233.586 8.973-.06a.5.5 0 0 0-.23-.974c-2.591.612-5.892.631-8.53.057-1.32-.288-2.437-.716-3.211-1.262q-1.152-.815-1.15-1.848c0-4.068 3.747-7.469 8.5-7.469 1.563 0 3.024.37 4.278 1.014a.5.5 0 1 0 .456-.89 10 10 0 0 0-2.098-.794 5.5 5.5 0 1 0-6.878-8.327A4.5 4.5 0 0 0 11.509 2.5M8.009 7a3.5 3.5 0 1 1 7 0 3.5 3.5 0 0 1-7 0m3.157 14.831c-1.97-.032-3.89-.342-5.325-.913C4.288 20.3 3.5 19.468 3.5 18.529c0-3.826 3.523-7.028 8-7.028 1.064 0 2.075.18 2.997.508a5.5 5.5 0 0 0 2.867 4.822c-2.814.723-5.114 2.577-6.198 5m4.33-9.83a4.5 4.5 0 1 1 9 0 4.5 4.5 0 0 1-9 0M27.5 18.984a.5.5 0 0 0-1 0v3.5H23a.5.5 0 0 0 0 1h3.5v3.5a.5.5 0 0 0 1 0v-3.5H31a.5.5 0 0 0 0-1h-3.5z"/></svg>