<svg xmlns="http://www.w3.org/2000/svg" width="32" height="32" viewBox="0 0 32 32"><path d="M16 2.25A13.75 13.75 0 1 0 29.75 16 13.765 13.765 0 0 0 16 2.25m0 26A12.25 12.25 0 1 1 28.25 16 12.264 12.264 0 0 1 16 28.25M18.613 15.68a3.75 3.75 0 1 0-5.227 0 4.27 4.27 0 0 0-3.136 4.081c0 .585.264 1.671 2.035 2.375 1.19.43 2.45.637 3.715.613 2.862 0 5.75-.924 5.75-2.988a4.27 4.27 0 0 0-3.137-4.08M13.75 13a2.25 2.25 0 1 1 4.499 0 2.25 2.25 0 0 1-4.5 0M16 21.249c-2.542 0-4.25-.769-4.25-1.488 0-2.222 2.289-3.011 4.25-3.011s4.25.789 4.25 3.011c0 .72-1.708 1.488-4.25 1.488"/></svg>