<svg xmlns="http://www.w3.org/2000/svg" width="32" height="32" viewBox="0 0 32 32"><path d="M11.509 2a5 5 0 0 0-3.48 8.59C4.546 11.82 2 14.85 2 18.53c0 1.925 1.612 3.116 3.287 3.783 1.396.555 3.12.875 4.88.982a8.2 8.2 0 0 0-.172 1.676c0 1.213.638 2.173 1.516 2.873.864.688 2.017 1.179 3.261 1.517 2.495.677 5.635.81 8.369.42a1 1 0 1 0-.282-1.98c-2.503.357-5.365.226-7.563-.37-1.103-.3-1.969-.698-2.538-1.151-.555-.442-.763-.876-.763-1.309 0-3.737 3.464-6.969 8-6.969.952 0 1.863.145 2.706.41a1 1 0 0 0 .988-1.68 6 6 0 0 0-7.181-9.612L16.509 7a5 5 0 0 0-5-5m-3 5a3 3 0 1 1 6 0 3 3 0 0 1-6 0m2.341 14.323c-1.811-.058-3.537-.358-4.824-.87C4.513 19.851 4 19.14 4 18.53c0-3.495 3.24-6.528 7.5-6.528.887 0 1.73.132 2.508.371a6 6 0 0 0 2.214 4.293c-2.374.868-4.318 2.533-5.372 4.658m5.147-9.322a4 4 0 1 1 8 0 4 4 0 0 1-8 0M28 18.984a1 1 0 1 0-2 0v3h-3a1 1 0 1 0 0 2h3v3a1 1 0 1 0 2 0v-3h3a1 1 0 1 0 0-2h-3z"/></svg>