<svg xmlns="http://www.w3.org/2000/svg" width="32" height="32" viewBox="0 0 32 32"><path d="M16 2.5A13.5 13.5 0 1 0 29.5 16 13.515 13.515 0 0 0 16 2.5m0 26A12.5 12.5 0 1 1 28.5 16 12.514 12.514 0 0 1 16 28.5M18.106 15.777a3.5 3.5 0 1 0-4.212 0A4.14 4.14 0 0 0 10.5 19.76c0 .637.326 1.526 1.878 2.143a10.1 10.1 0 0 0 3.622.595c2.737 0 5.5-.847 5.5-2.738a4.14 4.14 0 0 0-3.394-3.984M13.5 13a2.5 2.5 0 1 1 5 0 2.5 2.5 0 0 1-5 0m2.5 8.499c-2.524 0-4.5-.763-4.5-1.738 0-2.407 2.424-3.261 4.5-3.261s4.5.854 4.5 3.261c0 .975-1.977 1.738-4.5 1.738"/></svg>