<svg xmlns="http://www.w3.org/2000/svg" width="32" height="32" viewBox="0 0 32 32"><path d="M11.259 2a4.75 4.75 0 0 0-2.989 8.442C4.663 11.542 2 14.585 2 18.279c0 1.761 1.475 2.892 3.129 3.55 1.443.575 3.254.895 5.099.981a8 8 0 0 0-.233 1.91c0 1.172.643 2.096 1.546 2.773.892.67 2.096 1.148 3.411 1.469 2.634.643 5.93.704 8.685.193a.75.75 0 1 0-.274-1.475c-2.56.476-5.64.414-8.055-.175-1.21-.296-2.199-.71-2.867-1.212-.659-.494-.946-1.019-.946-1.573 0-3.903 3.605-7.219 8.25-7.219 1.244 0 2.42.24 3.474.67a.75.75 0 0 0 .566-1.39q-.387-.157-.79-.284a5.75 5.75 0 1 0-7.033-9.074q.046-.33.047-.673A4.75 4.75 0 0 0 11.259 2m-3.25 4.75a3.25 3.25 0 1 1 6.5 0 3.25 3.25 0 0 1-6.5 0m2.747 14.578c-1.89-.046-3.712-.351-5.072-.892-1.534-.61-2.184-1.382-2.184-2.157 0-3.66 3.382-6.778 7.75-6.778.975 0 1.9.155 2.75.437a5.74 5.74 0 0 0 2.5 4.56c-2.572.813-4.676 2.566-5.744 4.83m4.74-9.577a4.25 4.25 0 1 1 8.5 0 4.25 4.25 0 0 1-8.5 0M27.5 18.734a.75.75 0 0 0-1.5 0v3.25h-3.25a.75.75 0 0 0 0 1.5H26v3.25a.75.75 0 0 0 1.5 0v-3.25h3.25a.75.75 0 0 0 0-1.5H27.5z"/></svg>