<svg xmlns="http://www.w3.org/2000/svg" width="32" height="32" viewBox="0 0 32 32"><path d="M17 25h-2a1 1 0 0 0 0 2h2a1 1 0 1 0 0-2M25 18.004a1 1 0 0 0-1 1V22H8V7a3.003 3.003 0 0 1 3-3h4a1 1 0 0 0 0-2h-4a5.006 5.006 0 0 0-5 5v18a5.006 5.006 0 0 0 5 5h10a5.005 5.005 0 0 0 5-5v-5.996a1 1 0 0 0-1-1M21 28H11a3.003 3.003 0 0 1-3-3v-1h16v1a3.004 3.004 0 0 1-3 3M23.014 1.997a7 7 0 1 0 7 7 7.01 7.01 0 0 0-7-7m0 2A5.01 5.01 0 0 1 27.914 8h-9.799a5.01 5.01 0 0 1 4.9-4.003m0 10A5.01 5.01 0 0 1 18.116 10h9.797a5.01 5.01 0 0 1-4.899 3.997"/></svg>