<svg xmlns="http://www.w3.org/2000/svg" width="32" height="32" viewBox="0 0 32 32"><path d="M14 26.5h2a.5.5 0 1 0 0-1h-2a.5.5 0 0 0 0 1M24 17.5a.5.5 0 0 0-.5.5v4.5h-17V7A3.504 3.504 0 0 1 10 3.5h8a.5.5 0 0 0 0-1h-8A4.505 4.505 0 0 0 5.5 7v18a4.505 4.505 0 0 0 4.5 4.5h10a4.505 4.505 0 0 0 4.5-4.5v-7a.5.5 0 0 0-.5-.5m-.5 7.5a3.504 3.504 0 0 1-3.5 3.5H10A3.505 3.505 0 0 1 6.5 25v-1.5h17zM23 6.942a.5.5 0 0 0-.5.5V8.75a.5.5 0 0 0 1 0V7.442a.5.5 0 0 0-.5-.5M23 11.75a.5.5 0 1 0 0-1 .5.5 0 0 0 0 1M29.3 12.254l-4.986-9.002-.005-.01a1.5 1.5 0 0 0-2.596.009l-5.008 8.993a1.5 1.5 0 0 0 1.296 2.256h9.998a1.5 1.5 0 0 0 1.302-2.246m-.867.995a.49.49 0 0 1-.434.25h-9.998a.49.49 0 0 1-.434-.25.5.5 0 0 1 .006-.51l5.008-8.993a.5.5 0 0 1 .861-.004l4.99 9.006a.49.49 0 0 1 0 .5"/></svg>