<svg xmlns="http://www.w3.org/2000/svg" width="32" height="32" viewBox="0 0 32 32"><path d="M15 25.5a.5.5 0 0 0 0 1h2a.5.5 0 1 0 0-1zM21 28.5H11A3.504 3.504 0 0 1 7.5 25v-1.5h13.878l-1-1H7.5V9.623l-1-1V25a4.505 4.505 0 0 0 4.5 4.5h10a4.49 4.49 0 0 0 3.963-2.414l-.735-.735A3.505 3.505 0 0 1 21 28.5M29.353 28.647 25.5 24.793V7A4.505 4.505 0 0 0 21 2.5H11A4.5 4.5 0 0 0 6.64 5.935L3.353 2.647a.5.5 0 0 0-.707.707L6.5 7.207v.002l1 1v-.002L21.793 22.5h-.001l.673.674v-.001l2.016 2.016 4.165 4.165a.499.499 0 1 0 .707-.707M24.5 23.793 7.519 6.813a3.495 3.495 0 0 1 3.48-3.313h10A3.504 3.504 0 0 1 24.5 7z"/></svg>