<svg xmlns="http://www.w3.org/2000/svg" width="32" height="32" viewBox="0 0 32 32"><path d="M15 25.25a.75.75 0 0 0 0 1.5h2a.75.75 0 0 0 0-1.5zM21 28.25H11A3.254 3.254 0 0 1 7.75 25v-1.25h12.82l-1.5-1.5H7.75V10.931l-1.5-1.5v15.57A4.755 4.755 0 0 0 11 29.75h10a4.72 4.72 0 0 0 3.728-1.842l-1.06-1.06A3.25 3.25 0 0 1 21 28.25M29.53 28.47l-3.78-3.78V7A4.755 4.755 0 0 0 21 2.25H11a4.74 4.74 0 0 0-4.474 3.216L3.53 2.47a.75.75 0 0 0-1.062 1.058l.002.003 26 26a.75.75 0 1 0 1.06-1.06m-5.28-5.28L7.778 6.718A3.243 3.243 0 0 1 11 3.75h10A3.254 3.254 0 0 1 24.25 7z"/></svg>