<svg xmlns="http://www.w3.org/2000/svg" width="32" height="32" viewBox="0 0 32 32"><path d="M14 26.75h2a.75.75 0 0 0 0-1.5h-2a.75.75 0 1 0 0 1.5M24 17.25a.75.75 0 0 0-.75.75v4.25H6.75V7A3.254 3.254 0 0 1 10 3.75h8a.75.75 0 1 0 0-1.5h-8A4.755 4.755 0 0 0 5.25 7v18A4.755 4.755 0 0 0 10 29.75h10A4.756 4.756 0 0 0 24.75 25v-7a.75.75 0 0 0-.75-.75M23.25 25A3.253 3.253 0 0 1 20 28.25H10A3.254 3.254 0 0 1 6.75 25v-1.25h16.5zM23 6.692a.75.75 0 0 0-.75.75V8.75a.75.75 0 1 0 1.5 0V7.442a.75.75 0 0 0-.75-.75M23 12a.75.75 0 1 0 0-1.5.75.75 0 0 0 0 1.5M29.52 12.133 24.533 3.13l-.009-.014a1.75 1.75 0 0 0-3.03.013l-5.006 8.989a1.75 1.75 0 0 0 1.513 2.632h9.998a1.75 1.75 0 0 0 1.52-2.617m-1.304.99a.24.24 0 0 1-.217.127h-9.998a.24.24 0 0 1-.217-.125.25.25 0 0 1 .008-.264l5.005-8.99a.25.25 0 0 1 .43-.004l4.988 9.007a.24.24 0 0 1 0 .25"/></svg>