<svg xmlns="http://www.w3.org/2000/svg" width="32" height="32" viewBox="0 0 32 32"><path d="M17 25.5h-2a.5.5 0 1 0 0 1h2a.5.5 0 1 0 0-1M25 18.504a.5.5 0 0 0-.5.5V22.5h-17V7A3.504 3.504 0 0 1 11 3.5h4a.5.5 0 0 0 0-1h-4A4.505 4.505 0 0 0 6.5 7v18a4.505 4.505 0 0 0 4.5 4.5h10a4.505 4.505 0 0 0 4.5-4.5v-5.996a.5.5 0 0 0-.5-.5M21 28.5H11A3.504 3.504 0 0 1 7.5 25v-1.5h17V25a3.505 3.505 0 0 1-3.5 3.5M23.014 2.497a6.5 6.5 0 1 0 6.5 6.5 6.51 6.51 0 0 0-6.5-6.5m0 1A5.506 5.506 0 0 1 28.49 8.5H17.54a5.506 5.506 0 0 1 5.475-5.003m0 11A5.507 5.507 0 0 1 17.54 9.5h10.949a5.506 5.506 0 0 1-5.475 4.997"/></svg>