<svg xmlns="http://www.w3.org/2000/svg" width="32" height="32" viewBox="0 0 32 32"><path d="M17 25.25h-2a.75.75 0 0 0 0 1.5h2a.75.75 0 0 0 0-1.5M25 18.254a.75.75 0 0 0-.75.75v3.246H7.75V7A3.254 3.254 0 0 1 11 3.75h4a.75.75 0 0 0 0-1.5h-4A4.755 4.755 0 0 0 6.25 7v18A4.755 4.755 0 0 0 11 29.75h10A4.755 4.755 0 0 0 25.75 25v-5.996a.75.75 0 0 0-.75-.75m-4 9.996H11A3.254 3.254 0 0 1 7.75 25v-1.25h16.5V25A3.254 3.254 0 0 1 21 28.25M23.014 2.247a6.75 6.75 0 1 0 6.75 6.75 6.76 6.76 0 0 0-6.75-6.75m0 1.5A5.24 5.24 0 0 1 28.19 8.25H17.84a5.24 5.24 0 0 1 5.174-4.503m0 10.5a5.24 5.24 0 0 1-5.173-4.497h10.347a5.24 5.24 0 0 1-5.174 4.497"/></svg>