<svg xmlns="http://www.w3.org/2000/svg" width="32" height="32" viewBox="0 0 32 32"><path d="M15 25a1 1 0 0 0 0 2h2a1 1 0 1 0 0-2zM21 28H11a3.003 3.003 0 0 1-3-3v-1h11.77l-2.001-2h-9.77v-9.768l-2-2V25a5.006 5.006 0 0 0 5 5h10a4.97 4.97 0 0 0 3.408-1.361l-1.413-1.414A2.98 2.98 0 0 1 21 28M29.707 28.293 26 24.586V7a5.005 5.005 0 0 0-5-5H11a5 5 0 0 0-4.58 3.007L3.707 2.293a.996.996 0 0 0-1.435 1.382c.009.01.011.023.02.032l26 26a1 1 0 0 0 1.415-1.414M24 22.586 8.038 6.624A2.994 2.994 0 0 1 11 4h10a3.003 3.003 0 0 1 3 3z"/></svg>