<svg xmlns="http://www.w3.org/2000/svg" width="32" height="32" viewBox="0 0 32 32"><path d="M14 27h2a1 1 0 1 0 0-2h-2a1 1 0 0 0 0 2M24 17a1 1 0 0 0-1 1v4H7V7a3.003 3.003 0 0 1 3-3h8a1 1 0 1 0 0-2h-8a5.006 5.006 0 0 0-5 5v18a5.006 5.006 0 0 0 5 5h10a5.006 5.006 0 0 0 5-5v-7a.997.997 0 0 0-1-1m-1 8a3.003 3.003 0 0 1-3 3H10a3.003 3.003 0 0 1-3-3v-1h16zM22.25 7.442V8.75a.75.75 0 1 0 1.5 0V7.442a.75.75 0 1 0-1.5 0M23 12a.75.75 0 1 0 0-1.5.75.75 0 0 0 0 1.5M29.738 12.011 24.752 3.01l-.012-.02a2 2 0 0 0-3.465.018l-5.003 8.985A2.002 2.002 0 0 0 18.001 15h9.998a2 2 0 0 0 1.74-2.989m-11.727.971 5-8.988L27.999 13z"/></svg>