<svg xmlns="http://www.w3.org/2000/svg" width="32" height="32" viewBox="0 0 32 32"><path d="M16.5 3.51v11.988l.002.002H28.49C28.234 8.994 23.006 3.766 16.5 3.51m-1-.009a.987.987 0 0 1 1.02-.991c7.042.267 12.704 5.928 12.97 12.97a.986.986 0 0 1-.99 1.02h-12c-.556 0-1-.455-1-1.003zM12.471 4.516a.5.5 0 0 1-.304.638C7.699 6.734 4.5 10.994 4.5 16c0 6.351 5.149 11.5 11.5 11.5 5.006 0 9.267-3.2 10.846-7.667a.5.5 0 1 1 .943.334C26.073 25.02 21.443 28.5 16 28.5 9.096 28.5 3.5 22.904 3.5 16c0-5.443 3.48-10.073 8.333-11.789a.5.5 0 0 1 .638.305"/></svg>