<svg xmlns="http://www.w3.org/2000/svg" width="32" height="32" viewBox="0 0 32 32"><path d="M16.75 3.773V15.25h11.477c-.372-6.168-5.31-11.105-11.477-11.477m-1.5-.272c0-.68.558-1.268 1.279-1.241 7.174.272 12.94 6.037 13.211 13.211a1.236 1.236 0 0 1-1.24 1.279h-12c-.696 0-1.25-.569-1.25-1.253zM12.707 4.433a.75.75 0 0 1-.457.957C7.88 6.935 4.75 11.103 4.75 16c0 6.213 5.037 11.25 11.25 11.25 4.897 0 9.065-3.13 10.61-7.5a.75.75 0 1 1 1.414.5c-1.75 4.951-6.471 8.5-12.024 8.5-7.042 0-12.75-5.708-12.75-12.75 0-5.553 3.549-10.274 8.5-12.024a.75.75 0 0 1 .957.457"/></svg>