<svg xmlns="http://www.w3.org/2000/svg" width="32" height="32" viewBox="0 0 32 32"><path d="M17 4.041V15h10.959C27.479 9.17 22.829 4.522 17 4.041m-2-.54c0-.816.67-1.524 1.538-1.49 7.305.276 13.175 6.146 13.452 13.45A1.486 1.486 0 0 1 28.5 17h-12c-.836 0-1.5-.683-1.5-1.503zM12.943 4.35a1 1 0 0 1-.61 1.276C8.06 7.136 5 11.212 5 16c0 6.075 4.925 11 11 11 4.788 0 8.864-3.06 10.374-7.333a1 1 0 0 1 1.886.666C26.476 25.381 21.662 29 16 29 8.82 29 3 23.18 3 16c0-5.662 3.619-10.476 8.667-12.26a1 1 0 0 1 1.276.61"/></svg>