<svg xmlns="http://www.w3.org/2000/svg" width="32" height="32" viewBox="0 0 32 32"><path d="M25.409 21.557a5.1 5.1 0 0 1-.46 1.98l4.756 4.756a1 1 0 1 1-1.413 1.415l-26-26a1 1 0 1 1 1.414-1.415l4.759 4.76c1.845-.832 4.057-.532 5.534.944l4.25-4.51c.96-.96 2.22-1.48 3.55-1.48 1.34 0 2.59.52 3.54 1.46l3.2 3.22a5.003 5.003 0 0 1 0 7.07l-4.56 4.27c.97.92 1.47 2.18 1.43 3.53m-21.83-7.13c-.78-.78-.78-2.05 0-2.83l1.852-1.933 16.897 16.898-1.989 1.876c-.37.38-.88.57-1.38.57-.52 0-1.03-.2-1.42-.59l-6.267-6.28-7.566 7.57a1 1 0 0 1-1.414 0 1 1 0 0 1 0-1.414l7.567-7.573z"/></svg>