<svg xmlns="http://www.w3.org/2000/svg" width="32" height="32" viewBox="0 0 32 32"><path d="M28.36 13.58a4.75 4.75 0 0 0 .002-6.715l-3.2-3.22a4.75 4.75 0 0 0-6.733.015l-4.251 4.515a.253.253 0 0 1-.355.001 4.76 4.76 0 0 0-6.73.113l-3.332 3.485a1.75 1.75 0 0 0-.001 2.473l6.454 6.473-7.744 7.75a.75.75 0 1 0 1.06 1.06l7.743-7.748 6.439 6.456a1.75 1.75 0 0 0 1.902.386c.209-.086.399-.212.559-.37l3.55-3.36a4.88 4.88 0 0 0 1.442-3.34 4.57 4.57 0 0 0-1.34-3.377.25.25 0 0 1-.007-.348zm-5.579 3.165-.017.018a1.75 1.75 0 0 0 0 2.474 3.08 3.08 0 0 1 .9 2.28 3.38 3.38 0 0 1-.987 2.303l-3.55 3.358a.25.25 0 0 1-.354 0L4.821 13.189a.254.254 0 0 1 .012-.366l3.333-3.484a3.39 3.39 0 0 1 2.391-1.002 3.1 3.1 0 0 1 2.207.901 1.76 1.76 0 0 0 2.489-.016l4.252-4.516a3.33 3.33 0 0 1 4.594-.002l3.2 3.221a3.25 3.25 0 0 1 .018 4.578z"/></svg>