<svg xmlns="http://www.w3.org/2000/svg" width="32" height="32" viewBox="0 0 32 32"><path d="M30.001 10.222a4.962 4.962 0 0 0-1.463-3.533l-3.2-3.221a5.016 5.016 0 0 0-7.093.021L14 8a4.91 4.91 0 0 0-3.56-1.414 5.143 5.143 0 0 0-3.526 1.531l-3.33 3.48a1.999 1.999 0 0 0 0 2.828L9.86 20.72l-7.568 7.573a1 1 0 0 0 1.414 1.414l7.566-7.571 6.262 6.28a2 2 0 0 0 2.81.019l3.555-3.363a5.007 5.007 0 0 0 .1-7.07l4.537-4.245A4.963 4.963 0 0 0 30 10.222Zm-2.855 2.098-4.535 4.243-.024.023a2.001 2.001 0 0 0 0 2.828 3 3 0 0 1-.082 4.224l-3.554 3.364L5.013 12.995l3.33-3.48a3.134 3.134 0 0 1 2.146-.93h.076a2.83 2.83 0 0 1 2.021.83 2.012 2.012 0 0 0 2.85-.023l4.245-4.51a3.005 3.005 0 0 1 4.241-.002l3.2 3.22a3 3 0 0 1 .024 4.22Z"/></svg>