<svg xmlns="http://www.w3.org/2000/svg" width="32" height="32" viewBox="0 0 32 32"><path d="m5.013 12.995 3.33-3.48a3.006 3.006 0 0 1 4.244-.1 2.012 2.012 0 0 0 2.849-.023l4.245-4.51a3.005 3.005 0 0 1 4.241-.002l3.2 3.22a3 3 0 0 1 .024 4.22l-4.217 3.945a1 1 0 1 0 1.367 1.46l4.24-3.968a4.998 4.998 0 0 0 .002-7.068l-3.2-3.221a5.016 5.016 0 0 0-7.093.021L14 8a5.011 5.011 0 0 0-7.087.117l-3.33 3.482a2.004 2.004 0 0 0 0 2.826l6.279 6.296-7.569 7.573a1 1 0 0 0 1.414 1.414l7.567-7.571 3.02 3.028a1 1 0 1 0 1.416-1.412L5.013 12.995Z"/><path d="M21.5 28a4.5 4.5 0 1 0 0-9 4.5 4.5 0 0 0 0 9Z"/></svg>