<svg xmlns="http://www.w3.org/2000/svg" width="32" height="32" viewBox="0 0 32 32"><path d="M4.535 13.2a.5.5 0 0 0 .109.164l10.713 10.74a.5.5 0 1 1-.71.708l-3.374-3.384-7.92 7.926a.5.5 0 1 1-.706-.707l7.92-7.926-6.631-6.65a1.504 1.504 0 0 1 0-2.12l3.339-3.489a4.51 4.51 0 0 1 6.372-.11.503.503 0 0 0 .707 0l4.256-4.52a4.51 4.51 0 0 1 6.375-.01l3.199 3.22a4.5 4.5 0 0 1-.001 6.361l-4.229 3.957a.5.5 0 1 1-.683-.73l4.216-3.945a3.5 3.5 0 0 0-.011-4.938l-3.2-3.22a3.507 3.507 0 0 0-4.949.002l-4.256 4.52a1.505 1.505 0 0 1-2.131.01 3.51 3.51 0 0 0-4.95.102L4.65 12.65a.5.5 0 0 0-.116.55M24 22.5a3.5 3.5 0 1 1-7 0 3.5 3.5 0 0 1 7 0"/></svg>