<svg xmlns="http://www.w3.org/2000/svg" width="32" height="32" viewBox="0 0 32 32"><path d="M18.95 27.002 5.014 12.995l1.828-1.91L5.427 9.67l-1.843 1.927a2 2 0 0 0-.001 2.827L9.86 20.72l-7.568 7.573a1 1 0 1 0 1.414 1.414l7.566-7.571 6.262 6.28a2 2 0 0 0 2.81.019l1.977-1.87-1.415-1.415-1.957 1.852ZM29.707 28.293l-4.754-4.753a5.092 5.092 0 0 0 .462-1.98A4.809 4.809 0 0 0 24 18.002l4.537-4.244a5.005 5.005 0 0 0 .002-7.068l-3.201-3.221a5.01 5.01 0 0 0-7.091.021L14 8a4.924 4.924 0 0 0-5.533-.945l-4.76-4.76a1 1 0 0 0-1.414 1.413l26 26a1 1 0 0 0 1.414-1.414ZM10.557 8.586a2.85 2.85 0 0 1 2.03.828 2.01 2.01 0 0 0 2.848-.022l4.247-4.51a3.002 3.002 0 0 1 4.24-.002l3.201 3.22a2.996 2.996 0 0 1 .023 4.22l-4.536 4.243-.023.023a1.998 1.998 0 0 0 0 2.828 2.831 2.831 0 0 1 .828 2.097 3.094 3.094 0 0 1-.053.437L10.05 8.636c.167-.03.337-.047.508-.05Z"/></svg>