<svg xmlns="http://www.w3.org/2000/svg" width="32" height="32" viewBox="0 0 32 32"><path d="M4.767 13.103q.018.048.054.086l10.712 10.74a.75.75 0 1 1-1.062 1.059l-3.198-3.206L3.53 29.53a.75.75 0 1 1-1.06-1.061l7.744-7.75-6.455-6.473a1.754 1.754 0 0 1 0-2.472l3.335-3.486a4.76 4.76 0 0 1 6.73-.113.253.253 0 0 0 .354-.001l4.25-4.514a4.76 4.76 0 0 1 6.733-.016l3.2 3.22a4.75 4.75 0 0 1-.002 6.715l-4.234 3.963a.75.75 0 1 1-1.025-1.096l4.216-3.945a3.25 3.25 0 0 0-.017-4.578l-3.2-3.22a3.255 3.255 0 0 0-4.595.001L15.253 9.22a1.756 1.756 0 0 1-2.49.017 2.99 2.99 0 0 0-2.28-.902 3.4 3.4 0 0 0-2.317 1.003l-3.334 3.484a.26.26 0 0 0-.065.281M25 23a4 4 0 1 1-8 0 4 4 0 0 1 8 0"/></svg>