<svg xmlns="http://www.w3.org/2000/svg" width="32" height="32" viewBox="0 0 32 32"><path d="M29 20H19a1 1 0 1 0 0 2h10a1 1 0 0 0 0-2M29 24H19a1 1 0 1 0 0 2h10a1 1 0 0 0 0-2M29 28H19a1 1 0 1 0 0 2h10a1 1 0 0 0 0-2M5.013 12.995l3.33-3.48a3.006 3.006 0 0 1 4.244-.1 2.01 2.01 0 0 0 2.849-.023l4.245-4.51a3.005 3.005 0 0 1 4.241-.002l3.2 3.22a3 3 0 0 1 .024 4.22l-4.217 3.945a1 1 0 1 0 1.367 1.46l4.24-3.968a5 5 0 0 0 .002-7.068l-3.2-3.221a5.016 5.016 0 0 0-7.093.021L14 8a5.01 5.01 0 0 0-7.087.117l-3.33 3.482a2.004 2.004 0 0 0 0 2.826l6.279 6.296-7.569 7.573a1 1 0 0 0 1.414 1.414l7.567-7.571 3.02 3.028a1 1 0 1 0 1.416-1.412z"/></svg>