<svg xmlns="http://www.w3.org/2000/svg" width="32" height="32" viewBox="0 0 32 32"><path d="M29 20.5H19a.5.5 0 0 0 0 1h10a.5.5 0 0 0 0-1M29 24.5H19a.5.5 0 0 0 0 1h10a.5.5 0 0 0 0-1M29 28.5H19a.5.5 0 0 0 0 1h10a.5.5 0 0 0 0-1M4.644 13.364a.503.503 0 0 1 .007-.714L7.99 9.16a3.507 3.507 0 0 1 4.95-.101 1.505 1.505 0 0 0 2.132-.011l4.256-4.52a3.507 3.507 0 0 1 4.95-.002l3.199 3.22a3.5 3.5 0 0 1 .011 4.938l-4.216 3.945a.5.5 0 0 0 .683.73l4.229-3.956a4.497 4.497 0 0 0 0-6.363l-3.198-3.22a4.51 4.51 0 0 0-6.375.011l-4.256 4.52a.503.503 0 0 1-.707 0 4.51 4.51 0 0 0-6.372.11L3.937 11.95a1.504 1.504 0 0 0-.001 2.122l6.631 6.649-7.92 7.926a.5.5 0 1 0 .707.707l7.92-7.926 3.374 3.384a.5.5 0 1 0 .709-.707z"/></svg>