<svg xmlns="http://www.w3.org/2000/svg" width="32" height="32" viewBox="0 0 32 32"><path d="M19.304 27.355a.5.5 0 0 1-.707 0L4.643 13.365a.49.49 0 0 1-.106-.55.5.5 0 0 1 .114-.165l2.873-3.003-.708-.707-2.88 3.01a1.5 1.5 0 0 0 0 2.122l6.63 6.648-7.92 7.927a.5.5 0 1 0 .706.707l7.92-7.926 6.615 6.634a1.5 1.5 0 0 0 2.113.01l3.057-2.892-.708-.707zM24.33 23.624c.36-.634.561-1.347.585-2.076a4.32 4.32 0 0 0-1.268-3.194.5.5 0 0 1-.005-.703l4.541-4.248a4.5 4.5 0 0 0 .001-6.362l-3.2-3.22a4.507 4.507 0 0 0-6.374.011l-4.257 4.52a.503.503 0 0 1-.707 0 4.424 4.424 0 0 0-5.265-.678L3.353 2.647a.5.5 0 0 0-.707.707l26 26a.5.5 0 0 0 .707-.707zm-.74-.74L9.12 8.413c.45-.21.94-.322 1.436-.328a3.35 3.35 0 0 1 2.382.974 1.506 1.506 0 0 0 2.132-.011l4.257-4.52a3.504 3.504 0 0 1 4.948-.002l3.2 3.22a3.5 3.5 0 0 1 .012 4.938l-4.536 4.243-.012.012a1.5 1.5 0 0 0 0 2.12 3.33 3.33 0 0 1 .975 2.463c-.016.47-.126.933-.325 1.36"/></svg>