<svg xmlns="http://www.w3.org/2000/svg" width="32" height="32" viewBox="0 0 32 32"><path d="m8.343 9.515-3.33 3.48L15.71 23.752a1 1 0 1 1-1.416 1.412l-3.02-3.028-7.567 7.571a1 1 0 1 1-1.414-1.414l7.569-7.573-6.28-6.296a2.004 2.004 0 0 1 0-2.826l3.331-3.482A5.01 5.01 0 0 1 14 8l4.246-4.51a5.016 5.016 0 0 1 7.092-.021l3.2 3.22a5 5 0 0 1-.002 7.069l-4.24 3.969a1 1 0 0 1-1.594-1.144 1 1 0 0 1 .227-.317l4.217-3.946a3 3 0 0 0-.024-4.218l-3.2-3.221a3.005 3.005 0 0 0-4.241.002l-4.245 4.51a2.01 2.01 0 0 1-2.849.022 3.006 3.006 0 0 0-4.244.1M26 23.5a4.5 4.5 0 1 1-9 0 4.5 4.5 0 0 1 9 0"/></svg>