<svg xmlns="http://www.w3.org/2000/svg" width="32" height="32" viewBox="0 0 32 32"><path d="M28.183 13.404a4.5 4.5 0 0 0 .001-6.363l-3.2-3.22a4.507 4.507 0 0 0-6.374.011l-4.257 4.52a.503.503 0 0 1-.707 0 4.51 4.51 0 0 0-6.372.11L3.937 11.95a1.5 1.5 0 0 0 0 2.122l6.63 6.648-7.92 7.927a.5.5 0 1 0 .706.707l7.92-7.926 6.615 6.634a1.5 1.5 0 0 0 2.113.01l3.545-3.354a4.63 4.63 0 0 0 1.369-3.17 4.32 4.32 0 0 0-1.268-3.194.5.5 0 0 1-.005-.703zM22.94 19.06a3.33 3.33 0 0 1 .975 2.462A3.63 3.63 0 0 1 22.848 24l-3.544 3.354a.5.5 0 0 1-.707 0L4.643 13.365a.49.49 0 0 1-.106-.55.5.5 0 0 1 .114-.165L7.99 9.16a3.64 3.64 0 0 1 2.568-1.075 3.35 3.35 0 0 1 2.382.974 1.504 1.504 0 0 0 2.132-.011l4.257-4.52a3.504 3.504 0 0 1 4.948-.002l3.2 3.22a3.5 3.5 0 0 1 .012 4.938l-4.536 4.243-.012.012a1.5 1.5 0 0 0 0 2.12"/></svg>