<svg xmlns="http://www.w3.org/2000/svg" width="32" height="32" viewBox="0 0 32 32"><path d="M29 20.25H19a.75.75 0 1 0 0 1.5h10a.75.75 0 1 0 0-1.5M29 24.25H19a.75.75 0 1 0 0 1.5h10a.75.75 0 1 0 0-1.5M29 28.25H19a.75.75 0 1 0 0 1.5h10a.75.75 0 1 0 0-1.5M4.821 13.189a.256.256 0 0 1 .011-.367l3.334-3.484a3.4 3.4 0 0 1 2.317-1.003 2.98 2.98 0 0 1 2.28.902 1.756 1.756 0 0 0 2.49-.017l4.25-4.515a3.255 3.255 0 0 1 4.596-.002l3.2 3.221a3.25 3.25 0 0 1 .017 4.578L23.1 16.447a.75.75 0 1 0 1.025 1.096l4.234-3.963a4.75 4.75 0 0 0 .002-6.715l-3.2-3.22a4.76 4.76 0 0 0-6.733.016l-4.25 4.514a.253.253 0 0 1-.355.001 4.76 4.76 0 0 0-6.73.113L3.76 11.775a1.754 1.754 0 0 0 0 2.472l6.455 6.473-7.744 7.75a.75.75 0 1 0 1.06 1.06l7.743-7.748 3.198 3.206a.75.75 0 1 0 1.062-1.06z"/></svg>