<svg xmlns="http://www.w3.org/2000/svg" width="32" height="32" fill="none" viewBox="0 0 32 32"><path d="M4.822 13.189a.256.256 0 0 1 .01-.367l3.334-3.484a3.388 3.388 0 0 1 2.318-1.003 2.984 2.984 0 0 1 2.28.902 1.757 1.757 0 0 0 2.49-.017l4.25-4.515a3.255 3.255 0 0 1 4.595-.002l3.2 3.221a3.249 3.249 0 0 1 .018 4.578L23.1 16.448a.75.75 0 1 0 1.025 1.095l4.235-3.963a4.749 4.749 0 0 0 .002-6.715l-3.2-3.22a4.76 4.76 0 0 0-6.734.016l-4.25 4.514a.253.253 0 0 1-.355.001 4.76 4.76 0 0 0-6.729.113l-3.335 3.486a1.754 1.754 0 0 0 0 2.472l6.455 6.473-7.744 7.75a.75.75 0 1 0 1.06 1.06l7.744-7.748 3.197 3.206a.75.75 0 1 0 1.062-1.06L4.822 13.189Z"/><path fill="#0353A8" d="M21 27a4 4 0 1 0 0-8 4 4 0 0 0 0 8Z"/></svg>