<svg xmlns="http://www.w3.org/2000/svg" width="32" height="32" viewBox="0 0 32 32"><path d="M11.5 13a.5.5 0 0 1-.5.5H7a.5.5 0 0 1 0-1h2.793L6.646 9.354a.5.5 0 0 1 .708-.708l3.146 3.147V9a.5.5 0 0 1 1 0zM7 5.5A3.5 3.5 0 0 0 3.5 9v10A3.5 3.5 0 0 0 7 22.5h1a.5.5 0 0 1 0 1H7A4.5 4.5 0 0 1 2.5 19V9A4.5 4.5 0 0 1 7 4.5h15A4.5 4.5 0 0 1 26.5 9v2a.5.5 0 0 1-1 0V9A3.5 3.5 0 0 0 22 5.5zM11.5 24v-6a3.5 3.5 0 0 1 3.5-3.5h11a3.5 3.5 0 0 1 3.5 3.5v6a3.5 3.5 0 0 1-3.5 3.5H15a3.5 3.5 0 0 1-3.5-3.5M26 15.5H15a2.5 2.5 0 0 0-2.5 2.5v6a2.5 2.5 0 0 0 2.5 2.5h11a2.5 2.5 0 0 0 2.5-2.5v-6a2.5 2.5 0 0 0-2.5-2.5"/></svg>