<svg xmlns="http://www.w3.org/2000/svg" width="32" height="32" viewBox="0 0 32 32"><path d="M11.75 13a.75.75 0 0 1-.75.75H7a.75.75 0 0 1 0-1.5h2.19L6.47 9.53a.75.75 0 1 1 1.06-1.06l2.72 2.72V9a.75.75 0 0 1 1.5 0zM7 5.75A3.25 3.25 0 0 0 3.75 9v10A3.25 3.25 0 0 0 7 22.25h1a.75.75 0 0 1 0 1.5H7A4.75 4.75 0 0 1 2.25 19V9A4.75 4.75 0 0 1 7 4.25h15A4.75 4.75 0 0 1 26.75 9v2a.75.75 0 0 1-1.5 0V9A3.25 3.25 0 0 0 22 5.75zM15 14.25A3.75 3.75 0 0 0 11.25 18v6A3.75 3.75 0 0 0 15 27.75h11A3.75 3.75 0 0 0 29.75 24v-6A3.75 3.75 0 0 0 26 14.25zM12.75 18A2.25 2.25 0 0 1 15 15.75h11A2.25 2.25 0 0 1 28.25 18v6A2.25 2.25 0 0 1 26 26.25H15A2.25 2.25 0 0 1 12.75 24z"/></svg>