<svg xmlns="http://www.w3.org/2000/svg" width="32" height="32" viewBox="0 0 32 32"><path d="M24.105 23.044a10.75 10.75 0 0 0 0-14.088L29.53 3.53a.75.75 0 1 0-1.06-1.06l-5.425 5.424a10.71 10.71 0 0 0-14.09 0L3.53 2.47a.75.75 0 0 0-1.06 1.06l5.425 5.426a10.75 10.75 0 0 0 0 14.088L2.47 28.47a.75.75 0 1 0 1.06 1.06l5.425-5.424a10.71 10.71 0 0 0 14.09 0l5.425 5.424a.75.75 0 0 0 1.06-1.06zm-1.06-1.06L17.06 16l5.983-5.984a9.256 9.256 0 0 1 0 11.968M16 6.75a9.18 9.18 0 0 1 5.985 2.205L16 14.939l-5.985-5.985A9.18 9.18 0 0 1 16 6.75m-7.044 3.266L14.94 16l-5.984 5.984a9.255 9.255 0 0 1 0-11.968M16 25.25a9.18 9.18 0 0 1-5.985-2.205L16 17.06l5.985 5.985A9.18 9.18 0 0 1 16 25.25"/></svg>