<svg xmlns="http://www.w3.org/2000/svg" width="32" height="32" viewBox="0 0 32 32"><path d="M23.76 23.053a10.497 10.497 0 0 0 0-14.106l5.593-5.593a.5.5 0 0 0-.707-.708L23.053 8.24a10.497 10.497 0 0 0-14.106 0L3.354 2.646a.5.5 0 0 0-.707.708L8.24 8.947a10.496 10.496 0 0 0 0 14.106l-5.593 5.593a.5.5 0 1 0 .707.707l5.593-5.593a10.463 10.463 0 0 0 14.106 0l5.594 5.593a.5.5 0 0 0 .707-.707zm-.707-.707L16.707 16l6.346-6.346a9.5 9.5 0 0 1 0 12.692M16 6.504c2.345 0 4.607.87 6.347 2.443L16 15.293 9.654 8.947A9.47 9.47 0 0 1 16 6.504m-7.053 3.15L15.293 16l-6.346 6.346a9.5 9.5 0 0 1 0-12.692m.707 13.4L16 16.707l6.346 6.346a9.5 9.5 0 0 1-12.692 0"/></svg>