<svg xmlns="http://www.w3.org/2000/svg" width="32" height="32" viewBox="0 0 32 32"><path d="M24.45 23.035a11.01 11.01 0 0 0 0-14.07l5.257-5.258a1 1 0 1 0-1.414-1.414l-5.256 5.256a10.99 10.99 0 0 0-14.074 0L3.707 2.293a1 1 0 0 0-1.414 1.414l5.258 5.257a11.01 11.01 0 0 0 0 14.071l-5.258 5.258a1 1 0 1 0 1.414 1.414l5.256-5.256a10.99 10.99 0 0 0 14.074 0l5.256 5.256a1 1 0 0 0 1.414-1.414zm-1.42-1.42L17.413 16l5.615-5.615a9.01 9.01 0 0 1 0 11.23M16 7a8.93 8.93 0 0 1 5.615 1.97L16 14.587 10.385 8.97A8.93 8.93 0 0 1 16 7m-7.03 3.384L14.586 16 8.97 21.616a9.01 9.01 0 0 1 0-11.232M16 25a8.93 8.93 0 0 1-5.615-1.97L16 17.413l5.615 5.615A8.93 8.93 0 0 1 16 25"/></svg>