<svg xmlns="http://www.w3.org/2000/svg" width="32" height="32" viewBox="0 0 32 32"><path d="m25.792 9.194-6.998-5.035a4.74 4.74 0 0 0-5.585-.002L6.207 9.195a4.76 4.76 0 0 0-1.957 3.842V24A4.756 4.756 0 0 0 9 28.75h14A4.756 4.756 0 0 0 27.75 24V13.037a4.77 4.77 0 0 0-1.959-3.843M26.25 24A3.254 3.254 0 0 1 23 27.25H9A3.254 3.254 0 0 1 5.75 24V13.037a3.26 3.26 0 0 1 1.336-2.627l7.003-5.038a3.24 3.24 0 0 1 3.826.002l6.997 5.034a3.26 3.26 0 0 1 1.338 2.63zM18.44 15.825a3.75 3.75 0 1 0-4.878 0 5.64 5.64 0 0 0-3.311 4.944c0 .585.264 1.67 2.035 2.375 1.19.429 2.45.636 3.714.612 2.863 0 5.75-.924 5.75-2.987a5.64 5.64 0 0 0-3.31-4.944M16 10.75a2.25 2.25 0 1 1 0 4.5 2.25 2.25 0 0 1 0-4.5m0 11.506c-2.541 0-4.25-.768-4.25-1.487a4.257 4.257 0 0 1 8.5 0c0 .719-1.707 1.487-4.25 1.487"/></svg>