<svg xmlns="http://www.w3.org/2000/svg" width="32" height="32" viewBox="0 0 32 32"><path d="m25.645 9.396-6.998-5.034a4.489 4.489 0 0 0-5.291-.002L6.354 9.398a4.513 4.513 0 0 0-1.854 3.64V24A4.505 4.505 0 0 0 9 28.5h14a4.504 4.504 0 0 0 4.5-4.5V13.037a4.515 4.515 0 0 0-1.855-3.641ZM26.5 24a3.504 3.504 0 0 1-3.5 3.5H9A3.504 3.504 0 0 1 5.5 24V13.037a3.508 3.508 0 0 1 1.44-2.829l7.002-5.038a3.493 3.493 0 0 1 4.12.002l6.997 5.034a3.512 3.512 0 0 1 1.441 2.831V24Z"/><path d="M17.97 15.89a3.5 3.5 0 1 0-3.938 0A5.427 5.427 0 0 0 10.5 20.77c0 .636.326 1.525 1.877 2.142a10.13 10.13 0 0 0 3.622.595c2.738 0 5.5-.847 5.5-2.737a5.428 5.428 0 0 0-3.53-4.878ZM13.5 13a2.5 2.5 0 1 1 5 0 2.5 2.5 0 0 1-5 0Zm2.5 9.506c-2.523 0-4.5-.763-4.5-1.737a4.507 4.507 0 0 1 9 0c0 .974-1.976 1.737-4.5 1.737Z"/></svg>