<svg xmlns="http://www.w3.org/2000/svg" width="32" height="32" viewBox="0 0 32 32"><path d="m25.937 8.99-6.996-5.033a4.99 4.99 0 0 0-5.877-.003L6.06 8.994A5.01 5.01 0 0 0 4 13.036V24a5.006 5.006 0 0 0 5 5h14a5.006 5.006 0 0 0 5-5V13.037a5.02 5.02 0 0 0-2.063-4.047M26 24a3.003 3.003 0 0 1-3 3H9a3.003 3.003 0 0 1-3-3V13.037a3 3 0 0 1 1.232-2.424l7.004-5.039a2.995 2.995 0 0 1 3.533.003l6.996 5.034A3.01 3.01 0 0 1 26 13.037zM18.877 15.768a4 4 0 1 0-5.753 0 5.87 5.87 0 0 0-3.123 5c0 .65.285 1.85 2.193 2.608 1.22.44 2.51.654 3.806.63 2.768 0 6-.848 6-3.237a5.87 5.87 0 0 0-3.123-5.001M16.001 11a2 2 0 1 1 0 4 2 2 0 0 1 0-4m0 11.006c-2.442 0-4-.732-4-1.237a4.008 4.008 0 0 1 8 0c0 .505-1.56 1.237-4 1.237"/></svg>