<svg xmlns="http://www.w3.org/2000/svg" width="32" height="32" viewBox="0 0 32 32"><path d="m25.645 9.396-6.998-5.034a4.49 4.49 0 0 0-5.291-.002L6.354 9.398a4.51 4.51 0 0 0-1.854 3.64V24A4.505 4.505 0 0 0 9 28.5h14a4.504 4.504 0 0 0 4.5-4.5V13.037a4.51 4.51 0 0 0-1.855-3.641M26.5 24a3.504 3.504 0 0 1-3.5 3.5H9A3.504 3.504 0 0 1 5.5 24V13.037a3.5 3.5 0 0 1 1.44-2.829l7.002-5.038a3.49 3.49 0 0 1 4.12.002l6.997 5.034a3.51 3.51 0 0 1 1.441 2.831zM17.97 15.89a3.5 3.5 0 1 0-3.938 0A5.43 5.43 0 0 0 10.5 20.77c0 .636.326 1.525 1.877 2.142a10.1 10.1 0 0 0 3.622.595c2.738 0 5.5-.847 5.5-2.737a5.43 5.43 0 0 0-3.53-4.878M13.5 13a2.5 2.5 0 1 1 5 0 2.5 2.5 0 0 1-5 0m2.5 9.506c-2.523 0-4.5-.763-4.5-1.737a4.507 4.507 0 0 1 9 0c0 .974-1.976 1.737-4.5 1.737"/></svg>