<svg xmlns="http://www.w3.org/2000/svg" width="32" height="32" viewBox="0 0 32 32"><path d="m25.937 8.99-6.996-5.033a4.987 4.987 0 0 0-5.877-.003L6.06 8.994A5.014 5.014 0 0 0 4 13.036V24a5.006 5.006 0 0 0 5 5h14a5.006 5.006 0 0 0 5-5V13.037a5.017 5.017 0 0 0-2.063-4.047ZM26 24a3.003 3.003 0 0 1-3 3H9a3.003 3.003 0 0 1-3-3V13.037a3.007 3.007 0 0 1 1.232-2.424l7.004-5.039a2.995 2.995 0 0 1 3.533.003l6.996 5.034A3.011 3.011 0 0 1 26 13.037V24Z"/><path d="M18.877 15.768a4 4 0 1 0-5.753 0 5.865 5.865 0 0 0-3.123 5c0 .65.285 1.85 2.193 2.608 1.22.44 2.51.654 3.806.63 2.768 0 6-.848 6-3.237a5.865 5.865 0 0 0-3.123-5.001ZM16 11a2 2 0 1 1 0 4 2 2 0 0 1 0-4Zm0 11.006c-2.44 0-4-.732-4-1.237a4.008 4.008 0 0 1 8 0c0 .505-1.558 1.237-4 1.237Z"/></svg>