<svg xmlns="http://www.w3.org/2000/svg" width="32" height="32" viewBox="0 0 32 32"><path d="M25 3a3.003 3.003 0 0 0-3 3V26a3.003 3.003 0 0 0 3 3 3.005 3.005 0 0 0 3-3V6A3.003 3.003 0 0 0 25 3m1 23.001a1 1 0 1 1-2 0V6a1 1 0 0 1 2 0zM15.998 11A3 3 0 0 0 13 13.998v12.004A3 3 0 0 0 15.997 29h.004A3 3 0 0 0 19 26.002V13.998A3 3 0 0 0 15.998 11M17 26.002a1 1 0 0 1-.998.998h-.004a1 1 0 0 1-.998-.998V13.998a1 1 0 0 1 2 0zM7 6a3.003 3.003 0 0 0-3 3v17a3 3 0 0 0 6 0V9a3.003 3.003 0 0 0-3-3m1 20a1 1 0 1 1-2 0V9a1 1 0 0 1 2 0z"/></svg>