<svg xmlns="http://www.w3.org/2000/svg" width="32" height="32" viewBox="0 0 32 32"><path d="M25 3.5A2.5 2.5 0 0 0 22.5 6V26a2.5 2.5 0 0 0 2.5 2.5 2.504 2.504 0 0 0 2.5-2.5V6A2.5 2.5 0 0 0 25 3.5m1.5 22.501a1.5 1.5 0 1 1-3 0V6a1.5 1.5 0 1 1 3 0zM15.998 11.5a2.5 2.5 0 0 0-2.498 2.498v12.004a2.5 2.5 0 0 0 2.498 2.498h.004a2.5 2.5 0 0 0 2.498-2.498V13.998a2.503 2.503 0 0 0-2.502-2.498M17.5 26.002a1.5 1.5 0 0 1-1.498 1.498h-.004a1.5 1.5 0 0 1-1.498-1.498V13.998a1.5 1.5 0 1 1 3 0zM7 6.5A2.5 2.5 0 0 0 4.5 9v17a2.5 2.5 0 0 0 5 0V9A2.5 2.5 0 0 0 7 6.5M8.5 26a1.5 1.5 0 0 1-3 0V9a1.5 1.5 0 0 1 3 0z"/></svg>