<svg xmlns="http://www.w3.org/2000/svg" width="32" height="32" viewBox="0 0 32 32"><path d="M25 28.75a2.755 2.755 0 0 1-2.75-2.749V6a2.75 2.75 0 1 1 5.5 0v20.002a2.75 2.75 0 0 1-2.75 2.75m0-24A1.25 1.25 0 0 0 23.75 6V26a1.25 1.25 0 0 0 2.5 0V6A1.25 1.25 0 0 0 25 4.75M16.002 28.75h-.004a2.75 2.75 0 0 1-2.748-2.748V13.998a2.75 2.75 0 1 1 5.5 0v12.004a2.75 2.75 0 0 1-2.748 2.748m0-16a1.25 1.25 0 0 0-1.252 1.248v12.004a1.25 1.25 0 0 0 1.248 1.248H16a1.25 1.25 0 0 0 1.248-1.248V13.998a1.25 1.25 0 0 0-1.247-1.248M7 28.75A2.753 2.753 0 0 1 4.25 26V9a2.75 2.75 0 1 1 5.5 0v17A2.753 2.753 0 0 1 7 28.75m0-21A1.25 1.25 0 0 0 5.75 9v17a1.25 1.25 0 0 0 2.5 0V9A1.25 1.25 0 0 0 7 7.75"/></svg>