<svg xmlns="http://www.w3.org/2000/svg" width="32" height="32" viewBox="0 0 32 32"><path d="M22.96 4.25H9.04a4.795 4.795 0 0 0-4.79 4.79V12a.75.75 0 1 0 1.5 0V9.04a3.293 3.293 0 0 1 3.29-3.29h13.92a3.293 3.293 0 0 1 3.29 3.29V22.96a3.293 3.293 0 0 1-3.29 3.289H20a.75.75 0 1 0 0 1.5h2.96a4.794 4.794 0 0 0 4.79-4.789V9.039a4.795 4.795 0 0 0-4.79-4.789M13.53 18.47a.75.75 0 0 0-1.06 0l-6.72 6.72V19a.75.75 0 1 0-1.5 0v7.998a.75.75 0 0 0 .75.75l8 .002a.75.75 0 1 0 0-1.5l-6.187-.002 6.717-6.718a.75.75 0 0 0 0-1.06"/></svg>