<svg xmlns="http://www.w3.org/2000/svg" width="32" height="32" viewBox="0 0 32 32"><path d="M26 2.25H16A3.755 3.755 0 0 0 12.25 6v6.25H6A3.755 3.755 0 0 0 2.25 16v10A3.755 3.755 0 0 0 6 29.75h10A3.754 3.754 0 0 0 19.75 26v-6.25H26A3.754 3.754 0 0 0 29.75 16V6A3.755 3.755 0 0 0 26 2.25M18.25 26A2.253 2.253 0 0 1 16 28.25H6A2.253 2.253 0 0 1 3.75 26v-8.25h14.5zm0-9.75H3.75V16A2.253 2.253 0 0 1 6 13.75h10A2.253 2.253 0 0 1 18.25 16zm10-.25A2.253 2.253 0 0 1 26 18.25h-6.25V16A3.755 3.755 0 0 0 16 12.25h-2.25v-4.5h14.5zm0-9.75h-14.5V6A2.253 2.253 0 0 1 16 3.75h10A2.253 2.253 0 0 1 28.25 6z"/></svg>