<svg xmlns="http://www.w3.org/2000/svg" width="32" height="32" viewBox="0 0 32 32"><path d="M26 2.5H16A3.504 3.504 0 0 0 12.5 6v6.5H6A3.505 3.505 0 0 0 2.5 16v10A3.505 3.505 0 0 0 6 29.5h10a3.504 3.504 0 0 0 3.5-3.5v-6.5H26a3.504 3.504 0 0 0 3.5-3.5V6A3.504 3.504 0 0 0 26 2.5M18.5 26a2.5 2.5 0 0 1-2.5 2.5H6A2.5 2.5 0 0 1 3.5 26v-8.5h15zm0-9.5h-15V16A2.5 2.5 0 0 1 6 13.5h10a2.5 2.5 0 0 1 2.5 2.5zm10-.5a2.5 2.5 0 0 1-2.5 2.5h-6.5V16a3.504 3.504 0 0 0-3.5-3.5h-2.5v-5h15zm0-9.5h-15V6A2.5 2.5 0 0 1 16 3.5h10A2.5 2.5 0 0 1 28.5 6z"/></svg>