<svg xmlns="http://www.w3.org/2000/svg" width="32" height="32" viewBox="0 0 32 32"><path d="M19.5 11a.5.5 0 0 1 .5-.5h4a4.5 4.5 0 0 1 4.5 4.5v8a4.5 4.5 0 0 1-4.5 4.5h-7a.5.5 0 0 1 0-1h7a3.5 3.5 0 0 0 3.5-3.5v-8a3.5 3.5 0 0 0-3.5-3.5h-4a.5.5 0 0 1-.5-.5M3.5 9A4.5 4.5 0 0 1 8 4.5h8A4.5 4.5 0 0 1 20.5 9v14a4.5 4.5 0 0 1-4.5 4.5H8A4.5 4.5 0 0 1 3.5 23zM8 5.5A3.5 3.5 0 0 0 4.5 9v14A3.5 3.5 0 0 0 8 26.5h8a3.5 3.5 0 0 0 3.5-3.5V9A3.5 3.5 0 0 0 16 5.5zM9.5 9a.5.5 0 0 0 .5.5h4a.5.5 0 0 0 0-1h-4a.5.5 0 0 0-.5.5"/></svg>