<svg xmlns="http://www.w3.org/2000/svg" width="32" height="32" viewBox="0 0 32 32"><path d="M19.25 11a.75.75 0 0 1 .75-.75h4A4.75 4.75 0 0 1 28.75 15v8A4.75 4.75 0 0 1 24 27.75h-7a.75.75 0 0 1 0-1.5h7A3.25 3.25 0 0 0 27.25 23v-8A3.25 3.25 0 0 0 24 11.75h-4a.75.75 0 0 1-.75-.75M3.25 9A4.75 4.75 0 0 1 8 4.25h8A4.75 4.75 0 0 1 20.75 9v14A4.75 4.75 0 0 1 16 27.75H8A4.75 4.75 0 0 1 3.25 23zM8 5.75A3.25 3.25 0 0 0 4.75 9v14A3.25 3.25 0 0 0 8 26.25h8A3.25 3.25 0 0 0 19.25 23V9A3.25 3.25 0 0 0 16 5.75zM9.25 9a.75.75 0 0 1 .75-.75h4a.75.75 0 0 1 0 1.5h-4A.75.75 0 0 1 9.25 9"/></svg>