<svg xmlns="http://www.w3.org/2000/svg" width="32" height="32" viewBox="0 0 32 32"><path d="M16 2C8.28 2 2 8.28 2 16s6.28 14 14 14 14-6.28 14-14S23.72 2 16 2m0 26C9.383 28 4 22.617 4 16S9.383 4 16 4s12 5.383 12 12-5.383 12-12 12M23.371 13.071a1 1 0 0 0-1.3.558c-.806 2.017-1.841 3.24-2.84 3.357-1.051.105-1.96-.94-2.412-1.584-1.202-1.713-2.708-2.557-4.256-2.379-1.268.148-3.075 1.066-4.491 4.606a1 1 0 0 0 1.857.742c.807-2.019 1.851-3.243 2.864-3.361.773-.083 1.64.473 2.388 1.54 1.22 1.74 2.744 2.601 4.28 2.422 1.257-.145 3.052-1.062 4.468-4.601a1 1 0 0 0-.558-1.3"/></svg>