<svg xmlns="http://www.w3.org/2000/svg" width="32" height="32" viewBox="0 0 32 32"><path d="M16 2.5A13.5 13.5 0 1 0 29.5 16 13.515 13.515 0 0 0 16 2.5m0 26A12.5 12.5 0 1 1 28.5 16 12.514 12.514 0 0 1 16 28.5M23.186 13.536a.497.497 0 0 0-.65.278c-.89 2.226-2.044 3.529-3.247 3.668-.973.12-1.99-.524-2.88-1.793-1.09-1.555-2.423-2.327-3.789-2.169-1.132.131-2.76.983-4.084 4.294a.5.5 0 0 0 .928.371c.89-2.226 2.053-3.53 3.272-3.671.981-.113 1.984.508 2.855 1.75 1.11 1.582 2.46 2.376 3.813 2.212 1.122-.13 2.736-.98 4.06-4.29a.5.5 0 0 0-.278-.65"/></svg>