<svg xmlns="http://www.w3.org/2000/svg" width="32" height="32" viewBox="0 0 32 32"><path d="M16 2.25A13.75 13.75 0 1 0 29.75 16 13.765 13.765 0 0 0 16 2.25m0 26A12.25 12.25 0 1 1 28.25 16 12.263 12.263 0 0 1 16 28.25M23.279 13.304a.753.753 0 0 0-.975.418c-.854 2.136-1.936 3.383-3.044 3.512-.884.097-1.812-.499-2.646-1.688-1.146-1.635-2.566-2.44-4.023-2.275-1.2.14-2.917 1.025-4.287 4.45a.75.75 0 1 0 1.393.557c.855-2.136 1.944-3.385 3.067-3.516.866-.105 1.806.481 2.622 1.645 1.164 1.661 2.595 2.479 4.047 2.317 1.188-.137 2.893-1.021 4.264-4.446a.75.75 0 0 0-.418-.974"/></svg>