<svg xmlns="http://www.w3.org/2000/svg" width="32" height="32" viewBox="0 0 32 32"><path fill-rule="evenodd" d="M12.25 6.5a3.75 3.75 0 1 1 4.71 3.626l3.607 5.827 4.24-2.054a3.25 3.25 0 1 1 1.842.833l-2.103 10.403-.002.013-.004.016-.805 3.985a.75.75 0 0 1-.735.601H9a.75.75 0 0 1-.735-.601l-.805-3.985-.006-.03-2.102-10.403a3.25 3.25 0 1 1 1.842-.833l4.239 2.055 3.607-5.827A3.75 3.75 0 0 1 12.25 6.5M16 4.25a2.25 2.25 0 1 0 0 4.5 2.25 2.25 0 0 0 0-4.5M3.25 11.5a1.75 1.75 0 1 1 3.5 0 1.75 1.75 0 0 1-3.5 0m6.364 16.75-.506-2.5h13.784l-.506 2.5zm-2.58-12.761 1.771 8.761h14.39l1.77-8.761-4.352 2.109a.75.75 0 0 1-.965-.28L16 11.425l-3.648 5.893a.75.75 0 0 1-.965.28zM25.25 11.5a1.75 1.75 0 1 1 3.5 0 1.75 1.75 0 0 1-3.5 0" clip-rule="evenodd"/></svg>