<svg xmlns="http://www.w3.org/2000/svg" width="32" height="32" viewBox="0 0 32 32"><path fill-rule="evenodd" d="M12 6.5a4 4 0 1 1 5.343 3.77l3.318 5.36 3.723-1.804a3.5 3.5 0 1 1 2.466 1.171L24.792 25.18l-.003.017-.005.021-.804 3.98A1 1 0 0 1 23 30H9a1 1 0 0 1-.98-.802l-.804-3.98-.008-.038L5.15 14.997 5 15a3.5 3.5 0 1 1 2.616-1.174l3.723 1.804 3.318-5.36A4 4 0 0 1 12 6.5m4-2a2 2 0 1 0 0 4 2 2 0 0 0 0-4m-12.5 7a1.5 1.5 0 1 1 3 0 1.5 1.5 0 0 1-3 0M9.818 28l-.404-2h13.172l-.404 2zM7.38 15.934 9.01 24h13.98l1.63-8.066-3.898 1.889a1 1 0 0 1-1.287-.374L16 11.9l-3.435 5.55a1 1 0 0 1-1.287.374zM25.5 11.5a1.5 1.5 0 1 1 3 0 1.5 1.5 0 0 1-3 0" clip-rule="evenodd"/></svg>