<svg xmlns="http://www.w3.org/2000/svg" width="32" height="32" viewBox="0 0 32 32"><path fill-rule="evenodd" d="M12.5 6.5a3.5 3.5 0 1 1 4.06 3.455l3.914 6.321 4.797-2.324a3 3 0 1 1 1.18.498L24.3 25.09l-.005.02-.806 3.989a.5.5 0 0 1-.49.401H9a.5.5 0 0 1-.49-.401l-.806-3.99-.002-.006-.002-.013-2.15-10.64q-.268.05-.55.05a3 3 0 1 1 1.73-.548l4.797 2.324 3.913-6.32A3.5 3.5 0 0 1 12.5 6.5M16 4a2.5 2.5 0 1 0 0 5 2.5 2.5 0 0 0 0-5M3 11.5a2 2 0 1 1 4 0 2 2 0 0 1-4 0m6.41 17-.607-3h14.394l-.606 3zm-.81-4h14.8l1.91-9.456-4.806 2.329a.5.5 0 0 1-.643-.187L16 10.95l-3.86 6.236a.5.5 0 0 1-.644.187l-4.806-2.33zm16.4-13a2 2 0 1 1 4 0 2 2 0 0 1-4 0" clip-rule="evenodd"/></svg>