<svg xmlns="http://www.w3.org/2000/svg" width="32" height="32" viewBox="0 0 32 32"><path d="M26 25.252 7 25.25a.252.252 0 0 1-.232-.154A.245.245 0 0 1 6.75 25V6a.75.75 0 0 0-1.5 0v18.998A1.748 1.748 0 0 0 7 26.75l19 .002a.75.75 0 1 0 0-1.5Z"/><path d="m10.6 19.45 4.212-5.61a.244.244 0 0 1 .18-.089c.05-.004.1.006.146.027l4.625 5.46c.328.328.773.512 1.237.512.027 0 .053 0 .08-.002a1.771 1.771 0 0 0 1.288-.658l4.232-5.64a.75.75 0 1 0-1.2-.9l-4.208 5.61a.248.248 0 0 1-.181.09.31.31 0 0 1-.147-.027l-4.623-5.459a1.726 1.726 0 0 0-1.316-.511 1.772 1.772 0 0 0-1.29.658L9.4 18.55a.75.75 0 1 0 1.2.9Z"/></svg>