<svg xmlns="http://www.w3.org/2000/svg" width="32" height="32" viewBox="0 0 32 32"><path d="M26 25.252 7 25.25a.25.25 0 0 1-.232-.154A.3.3 0 0 1 6.75 25V6a.75.75 0 0 0-1.5 0v18.999A1.75 1.75 0 0 0 7 26.75l19 .002a.75.75 0 1 0 0-1.5M10.6 19.45l4.212-5.61a.24.24 0 0 1 .18-.089q.076-.005.146.027l4.625 5.46c.328.328.773.512 1.237.512q.04 0 .08-.002a1.77 1.77 0 0 0 1.288-.658l4.232-5.64a.75.75 0 1 0-1.2-.9l-4.208 5.61a.25.25 0 0 1-.181.09.3.3 0 0 1-.147-.027l-4.623-5.459a1.73 1.73 0 0 0-1.316-.511 1.77 1.77 0 0 0-1.29.658L9.4 18.55a.75.75 0 1 0 1.2.9"/></svg>