<svg xmlns="http://www.w3.org/2000/svg" width="32" height="32" viewBox="0 0 32 32"><path d="M14.001 3.5a5 5 0 1 0 0 10 5 5 0 0 0 0-10m-6 5a6 6 0 1 1 8.775 5.32c.84.199 1.658.486 2.44.861a.5.5 0 0 1-.432.902 11.04 11.04 0 0 0-4.783-1.083C8.166 14.5 3.5 19.004 3.5 24.076c0 .745.344 1.41 1.01 2.003.675.6 1.66 1.107 2.87 1.5 2.416.783 5.601 1.073 8.594.85a.5.5 0 1 1 .074.998c-3.088.23-6.409-.064-8.977-.898-1.283-.416-2.41-.977-3.226-1.703-.823-.733-1.345-1.652-1.345-2.75 0-4.832 3.735-9.08 8.726-10.255A6 6 0 0 1 8 8.5m14.474 8.346a.5.5 0 0 0-.95 0l-1.236 3.8h-3.995a.5.5 0 0 0-.294.904l3.232 2.35-1.234 3.8a.5.5 0 0 0 .769.559L22 25.909l3.233 2.35a.5.5 0 0 0 .769-.56l-1.235-3.8L28 21.55a.5.5 0 0 0-.294-.904H23.71zM21.128 21.3 22 18.618l.871 2.682a.5.5 0 0 0 .476.346h2.82l-2.282 1.658a.5.5 0 0 0-.181.559l.872 2.682-2.282-1.658a.5.5 0 0 0-.588 0l-2.282 1.658.872-2.682a.5.5 0 0 0-.182-.56l-2.282-1.657h2.82a.5.5 0 0 0 .476-.346"/></svg>