<svg xmlns="http://www.w3.org/2000/svg" width="32" height="32" viewBox="0 0 32 32"><path d="M14.001 3.75a4.75 4.75 0 1 0 0 9.5 4.75 4.75 0 0 0 0-9.5M7.751 8.5a6.25 6.25 0 1 1 9.67 5.232q.98.282 1.903.724a.75.75 0 1 1-.648 1.353 10.8 10.8 0 0 0-4.675-1.059c-5.715 0-10.251 4.41-10.251 9.326 0 .657.3 1.259.927 1.817.639.569 1.588 1.061 2.78 1.447 2.378.772 5.53 1.06 8.498.84a.75.75 0 1 1 .112 1.496c-3.113.231-6.467-.063-9.073-.909-1.302-.422-2.464-.997-3.315-1.754-.862-.768-1.429-1.75-1.429-2.937 0-4.77 3.536-8.96 8.33-10.344A6.25 6.25 0 0 1 7.752 8.5m14.962 8.268a.75.75 0 0 0-1.427 0l-1.178 3.628h-3.814a.75.75 0 0 0-.441 1.357l3.086 2.242-1.18 3.627a.75.75 0 0 0 1.155.839L22 26.219l3.086 2.242a.75.75 0 0 0 1.154-.839l-1.179-3.627 3.086-2.242a.75.75 0 0 0-.44-1.357h-3.815zm-1.347 4.61.634-1.95.634 1.95a.75.75 0 0 0 .713.518h2.05L23.74 23.1a.75.75 0 0 0-.273.839l.634 1.95-1.66-1.205a.75.75 0 0 0-.881 0l-1.66 1.206.634-1.951a.75.75 0 0 0-.272-.839l-1.66-1.205h2.052a.75.75 0 0 0 .713-.518"/></svg>