<svg xmlns="http://www.w3.org/2000/svg" width="32" height="32" viewBox="0 0 32 32"><path d="M14.001 4a4.5 4.5 0 1 0 0 9 4.5 4.5 0 0 0 0-9m-6.5 4.5a6.5 6.5 0 1 1 10.476 5.142q.745.248 1.455.588a1 1 0 1 1-.864 1.804A10.54 10.54 0 0 0 14.001 15H14c-5.595 0-10 4.315-10 9.076 0 .57.255 1.107.843 1.63.604.538 1.518 1.016 2.69 1.397 2.342.76 5.46 1.047 8.404.828a1 1 0 0 1 .148 1.994c-3.136.233-6.524-.062-9.168-.92-1.32-.428-2.518-1.017-3.404-1.805C2.61 26.397 2 25.35 2 24.076c0-4.733 3.383-8.886 8.026-10.433A6.49 6.49 0 0 1 7.5 8.5M22 16a1 1 0 0 1 .95.691l1.123 3.455h3.633a1 1 0 0 1 .588 1.809l-2.939 2.135 1.123 3.455a1 1 0 0 1-1.54 1.118L22 26.528l-2.94 2.135a1 1 0 0 1-1.538-1.118l1.123-3.455-2.94-2.135a1 1 0 0 1 .589-1.81h3.632l1.123-3.454a1 1 0 0 1 .95-.691m0 4.236-.396 1.219a1 1 0 0 1-.951.69H19.37l1.037.754a1 1 0 0 1 .363 1.118l-.396 1.22 1.037-.754a1 1 0 0 1 1.176 0l1.036.753-.396-1.219a1 1 0 0 1 .364-1.118l1.037-.753h-1.282a1 1 0 0 1-.951-.691z"/></svg>