<svg xmlns="http://www.w3.org/2000/svg" width="32" height="32" viewBox="0 0 32 32"><path d="M25.75 7.326V7A3.754 3.754 0 0 0 22 3.25H10A3.755 3.755 0 0 0 6.25 7v.326a4.745 4.745 0 0 0-4 4.674v6A4.755 4.755 0 0 0 7 22.75h1.25V27A1.75 1.75 0 0 0 10 28.75h12A1.75 1.75 0 0 0 23.75 27v-4.25H25A4.755 4.755 0 0 0 29.75 18v-6a4.745 4.745 0 0 0-4-4.674M7.75 7A2.253 2.253 0 0 1 10 4.75h12A2.253 2.253 0 0 1 24.25 7v.25H7.75zm14.5 20a.25.25 0 0 1-.25.25H10a.25.25 0 0 1-.25-.25v-9a.25.25 0 0 1 .25-.25h12a.25.25 0 0 1 .25.25zm6-9A3.254 3.254 0 0 1 25 21.25h-1.25V18A1.75 1.75 0 0 0 22 16.25H10A1.75 1.75 0 0 0 8.25 18v3.25H7A3.254 3.254 0 0 1 3.75 18v-6A3.254 3.254 0 0 1 7 8.75h18A3.254 3.254 0 0 1 28.25 12zM19 20.25h-6a.75.75 0 1 0 0 1.5h6a.75.75 0 1 0 0-1.5M19 23.25h-6a.75.75 0 1 0 0 1.5h6a.75.75 0 1 0 0-1.5"/></svg>