<svg xmlns="http://www.w3.org/2000/svg" width="32" height="32" viewBox="0 0 32 32"><path d="M26 7.101V7a4.004 4.004 0 0 0-4-4H10a4.004 4.004 0 0 0-4 4v.101A5.008 5.008 0 0 0 2 12v6a5.006 5.006 0 0 0 5 5h1v4a2.003 2.003 0 0 0 2 2h12a2.003 2.003 0 0 0 2-2v-4h1a5.006 5.006 0 0 0 5-5v-6a5.009 5.009 0 0 0-4-4.899ZM10 5h12a2.003 2.003 0 0 1 2 2H8a2.003 2.003 0 0 1 2-2Zm0 22v-9h12l.001 9H10Zm18-9a3.004 3.004 0 0 1-3 3h-1v-3a2.003 2.003 0 0 0-2-2H10a2.003 2.003 0 0 0-2 2v3H7a3.003 3.003 0 0 1-3-3v-6a3.003 3.003 0 0 1 3-3h18a3.003 3.003 0 0 1 3 3v6Z"/><path d="M19 20h-6a1 1 0 0 0 0 2h6a1 1 0 0 0 0-2ZM19 23h-6a1 1 0 0 0 0 2h6a1 1 0 0 0 0-2Z"/></svg>