<svg xmlns="http://www.w3.org/2000/svg" width="32" height="32" viewBox="0 0 32 32"><path d="M25.5 7.55V7A3.504 3.504 0 0 0 22 3.5H10A3.504 3.504 0 0 0 6.5 7v.55a4.49 4.49 0 0 0-4 4.45v6A4.505 4.505 0 0 0 7 22.5h1.5V27a1.502 1.502 0 0 0 1.5 1.5h12a1.502 1.502 0 0 0 1.5-1.5v-4.5H25a4.504 4.504 0 0 0 4.5-4.5v-6a4.49 4.49 0 0 0-4-4.45ZM7.5 7A2.502 2.502 0 0 1 10 4.5h12A2.502 2.502 0 0 1 24.5 7v.5h-17V7Zm15 20a.501.501 0 0 1-.5.5H10a.501.501 0 0 1-.5-.5v-9a.501.501 0 0 1 .5-.5h12a.501.501 0 0 1 .5.5v9Zm6-9a3.504 3.504 0 0 1-3.5 3.5h-1.5V18a1.502 1.502 0 0 0-1.5-1.5H10A1.502 1.502 0 0 0 8.5 18v3.5H7A3.504 3.504 0 0 1 3.5 18v-6A3.504 3.504 0 0 1 7 8.5h18a3.504 3.504 0 0 1 3.5 3.5v6Z"/><path d="M19 20.5h-6a.5.5 0 0 0 0 1h6a.5.5 0 0 0 0-1ZM19 23.5h-6a.5.5 0 0 0 0 1h6a.5.5 0 0 0 0-1Z"/></svg>