<svg xmlns="http://www.w3.org/2000/svg" width="32" height="32" viewBox="0 0 32 32"><path d="M16 2.25A13.75 13.75 0 1 0 29.75 16 13.765 13.765 0 0 0 16 2.25m0 26A12.25 12.25 0 1 1 28.25 16 12.264 12.264 0 0 1 16 28.25M16 9.25a3.755 3.755 0 0 0-3.398 5.339c.233.496.574.935.998 1.284l-1.318 4.795A1.75 1.75 0 0 0 14 22.75h3.999a1.74 1.74 0 0 0 1.702-1.353 1.8 1.8 0 0 0 .001-.796l-1.327-4.7A3.75 3.75 0 0 0 16 9.252m.787 6.548 1.458 5.153a.253.253 0 0 1-.246.3H14a.25.25 0 0 1-.192-.091.26.26 0 0 1-.067-.15l1.44-5.236a.754.754 0 0 0-.34-.844 2.25 2.25 0 1 1 2.292.015l-.04.025a.75.75 0 0 0-.306.828"/></svg>