<svg xmlns="http://www.w3.org/2000/svg" width="32" height="32" viewBox="0 0 32 32"><path d="M16 2.25A13.75 13.75 0 1 0 29.75 16 13.765 13.765 0 0 0 16 2.25m0 26A12.25 12.25 0 1 1 28.25 16 12.264 12.264 0 0 1 16 28.25M18 8.25h-.003a3.737 3.737 0 0 0-2.819 6.193L9.468 20.3a.75.75 0 0 0 .002 1.061l1.884 1.878a1.74 1.74 0 0 0 1.235.51 1.74 1.74 0 0 0 1.238-.512l1.41-1.41a1.75 1.75 0 0 0-.002-2.477l-1.366-1.361 2.504-2.624a3.7 3.7 0 0 0 1.625.385h.003A3.75 3.75 0 0 0 18 8.25m-3.75 12.34a.25.25 0 0 1-.074.176l-1.41 1.411a.21.21 0 0 1-.353 0l-1.353-1.35 1.762-1.765 1.354 1.35a.25.25 0 0 1 .073.178m5.34-7a2.23 2.23 0 0 1-1.59.66h-.002a2.25 2.25 0 0 1 0-4.5H18a2.23 2.23 0 0 1 1.588.658 2.25 2.25 0 0 1 .49 2.452c-.113.273-.279.52-.488.73"/></svg>