<svg xmlns="http://www.w3.org/2000/svg" width="32" height="32" viewBox="0 0 32 32"><path d="M25.095 4.899A6.46 6.46 0 0 0 20.5 2.997h-.004a6.496 6.496 0 0 0-4.884 10.776l-9.56 9.532a1.001 1.001 0 0 0 0 1.417l3.46 3.445a2.858 2.858 0 0 0 4.034-.003l2.616-2.616a2.855 2.855 0 0 0-.003-4.042l-2.737-2.726 3.73-3.718A6.496 6.496 0 0 0 25.095 4.9ZM15 23.529a.848.848 0 0 1-.251.604l-2.616 2.617a.855.855 0 0 1-1.208 0l-2.75-2.737 3.833-3.82 2.74 2.73a.851.851 0 0 1 .252.606Zm8.685-10.85a4.5 4.5 0 1 1-3.187-7.682h.003a4.47 4.47 0 0 1 3.18 1.317 4.502 4.502 0 0 1 .004 6.364Z"/></svg>