<svg xmlns="http://www.w3.org/2000/svg" width="32" height="32" viewBox="0 0 32 32"><path d="M26 21v-1a3 3 0 0 0-6 0v1a2.003 2.003 0 0 0-2 2v4a2.003 2.003 0 0 0 2 2h6a2.003 2.003 0 0 0 2-2v-4a2.003 2.003 0 0 0-2-2m-4-1a1 1 0 0 1 2 0v1h-2zm-2 7v-4h6l.002 4zM23 5V3a1 1 0 0 0-2 0v2H11V3a1 1 0 0 0-2 0v2a5.006 5.006 0 0 0-5 5v14a5.006 5.006 0 0 0 5 5h5a1 1 0 0 0 0-2H9a3.003 3.003 0 0 1-3-3V13.002h20V15a1 1 0 0 0 2 0v-5a5.006 5.006 0 0 0-5-5M6 11.002V10a3.003 3.003 0 0 1 3-3h14a3.003 3.003 0 0 1 3 3v1.002z"/></svg>