<svg xmlns="http://www.w3.org/2000/svg" width="32" height="32" viewBox="0 0 32 32"><path d="M11.414 20.828 12.589 22 14 20.59l-1.177-1.174-1.408 1.412ZM18.766 13.848a1.997 1.997 0 0 0 .647-3.263h-.001A1.998 1.998 0 1 0 17.999 14H18c.262 0 .522-.051.765-.152Z"/><path d="M8.5 4.775A13.5 13.5 0 0 1 16 2.5 13.515 13.515 0 0 1 29.5 16a13.5 13.5 0 1 1-21-11.225Zm5.518 6.966c-.06.967.234 1.923.827 2.689l-2.749 2.881-2.804 2.813a1 1 0 0 0 .002 1.414l1.883 1.878a2.002 2.002 0 0 0 2.827-.002l1.41-1.41a1.999 1.999 0 0 0-.002-2.83l-1.193-1.19 2.204-2.31A3.974 3.974 0 0 0 18 16h.003a4 4 0 1 0-2.832-6.827 3.992 3.992 0 0 0-1.152 2.568Z"/></svg>