<svg xmlns="http://www.w3.org/2000/svg" width="32" height="32" viewBox="0 0 32 32"><path d="M24.918 5.076A6.2 6.2 0 0 0 20.5 3.247h-.004a6.246 6.246 0 0 0-4.538 10.535l-9.73 9.7a.75.75 0 0 0 0 1.062l3.46 3.447a2.607 2.607 0 0 0 3.68-.003l2.617-2.618a2.6 2.6 0 0 0-.003-3.686L13.07 18.78l4.045-4.032a6.249 6.249 0 0 0 7.804-9.673M15.25 23.53a1.1 1.1 0 0 1-.325.78l-2.616 2.618a1.107 1.107 0 0 1-1.561.001L7.82 24.013l4.187-4.172 2.917 2.905a1.1 1.1 0 0 1 .325.783m8.612-10.674a4.75 4.75 0 1 1-3.364-8.108h.003a4.751 4.751 0 0 1 3.361 8.108"/></svg>