<svg xmlns="http://www.w3.org/2000/svg" width="32" height="32" viewBox="0 0 32 32"><path d="M24.74 5.253a5.96 5.96 0 0 0-4.24-1.756h-.003a6.001 6.001 0 0 0-4.237 10.246c.016.016.035.026.05.041l-9.816 9.787-.088.088a.5.5 0 0 0 0 .709l3.459 3.446a2.36 2.36 0 0 0 3.328-.003l2.616-2.617a2.35 2.35 0 0 0-.003-3.333l-3.091-3.08 4.375-4.362a5.993 5.993 0 0 0 7.65-9.166M15.5 23.53a1.35 1.35 0 0 1-.398.958l-2.616 2.617a1.357 1.357 0 0 1-1.915 0l-3.104-3.091 4.54-4.524 3.093 3.08a1.34 1.34 0 0 1 .4.96m8.539-10.497a5 5 0 1 1-3.541-8.535h.003a5.001 5.001 0 0 1 3.538 8.535"/></svg>