<svg xmlns="http://www.w3.org/2000/svg" width="32" height="32" viewBox="0 0 32 32"><path d="M16 2a14 14 0 1 0 14 14A14.016 14.016 0 0 0 16 2m0 26a12 12 0 1 1 12-12 12.014 12.014 0 0 1-12 12M15.17 9.173a3.99 3.99 0 0 0-.325 5.257l-2.749 2.881-2.805 2.813a1 1 0 0 0 .002 1.414l1.884 1.878a2 2 0 0 0 2.826-.002l1.41-1.41a2 2 0 0 0-.001-2.83l-1.193-1.19 2.204-2.31A4 4 0 0 0 18 16H18a4 4 0 1 0-2.832-6.827M12.59 22l-1.176-1.172 1.408-1.412L14 20.59zm6.824-8.586A1.98 1.98 0 0 1 18 14h-.002a1.998 1.998 0 1 1 1.414-3.415 2 2 0 0 1 .002 2.829"/></svg>