<svg xmlns="http://www.w3.org/2000/svg" width="32" height="32" viewBox="0 0 32 32"><path d="M16 2.5A13.5 13.5 0 1 0 29.5 16 13.515 13.515 0 0 0 16 2.5Zm0 26A12.5 12.5 0 1 1 28.5 16 12.514 12.514 0 0 1 16 28.5Z"/><path d="M19.5 13a3.5 3.5 0 1 0-6.638 1.555c.24.483.59.903 1.02 1.228l-1.355 4.933A1.502 1.502 0 0 0 14 22.5h3.999a1.494 1.494 0 0 0 1.458-1.154c.053-.223.054-.454.005-.677l-1.373-4.86A3.516 3.516 0 0 0 19.499 13Zm-2.24 2.16a.5.5 0 0 0-.232.57l1.462 5.172A.5.5 0 0 1 18 21.5h-4a.49.49 0 0 1-.384-.181.474.474 0 0 1-.114-.375l1.44-5.237a.506.506 0 0 0-.228-.563A2.501 2.501 0 1 1 18.5 13a2.512 2.512 0 0 1-1.24 2.16Z"/></svg>