<svg xmlns="http://www.w3.org/2000/svg" width="32" height="32" viewBox="0 0 32 32"><path fill-rule="evenodd" d="M8.5 4.775A13.5 13.5 0 0 1 16 2.5 13.515 13.515 0 0 1 29.5 16a13.5 13.5 0 1 1-21-11.225Zm5.518 6.966c.06-.968.469-1.88 1.151-2.568A4 4 0 1 1 18.002 16H18c-.542 0-1.078-.111-1.576-.326l-2.204 2.31 1.193 1.19a2 2 0 0 1 .002 2.83l-1.41 1.41a2.001 2.001 0 0 1-2.827.002l-1.883-1.878a1 1 0 0 1-.002-1.414l2.804-2.813 2.75-2.881a3.992 3.992 0 0 1-.828-2.69Zm-2.604 9.087L12.589 22 14 20.59l-1.177-1.174-1.408 1.412Zm7.352-6.98a1.996 1.996 0 0 0 .647-3.263h-.001A1.998 1.998 0 1 0 17.999 14H18c.262 0 .522-.051.765-.152Z" clip-rule="evenodd"/></svg>