<svg xmlns="http://www.w3.org/2000/svg" width="32" height="32" viewBox="0 0 32 32"><path d="M16 2.5A13.5 13.5 0 1 0 29.5 16 13.515 13.515 0 0 0 16 2.5Zm0 26A12.5 12.5 0 1 1 28.5 16 12.514 12.514 0 0 1 16 28.5Z"/><path d="M18 8.5h-.003a3.498 3.498 0 0 0-2.486 5.958l-3.041 3.187-.005.003-2.82 2.828a.507.507 0 0 0-.107.546c.025.06.062.116.109.162l1.883 1.877a1.488 1.488 0 0 0 1.06.439 1.492 1.492 0 0 0 1.06-.44l1.41-1.41a1.5 1.5 0 0 0-.002-2.123l-1.54-1.535 2.804-2.937c.512.288 1.089.441 1.677.445H18a3.5 3.5 0 0 0-.002-7Zm-3.5 12.09a.495.495 0 0 1-.147.353l-1.41 1.41a.499.499 0 0 1-.707 0l-1.53-1.524 2.115-2.12 1.531 1.526a.5.5 0 0 1 .147.355Zm5.268-6.824A2.484 2.484 0 0 1 18 14.5h-.002a2.5 2.5 0 0 1 0-5H18a2.499 2.499 0 0 1 1.768 4.266Z"/></svg>