<svg xmlns="http://www.w3.org/2000/svg" width="32" height="32" viewBox="0 0 32 32"><path d="M26 21.25h-.25V20a2.75 2.75 0 1 0-5.5 0v1.25H20A1.75 1.75 0 0 0 18.25 23v4A1.75 1.75 0 0 0 20 28.75h6A1.75 1.75 0 0 0 27.75 27v-4A1.75 1.75 0 0 0 26 21.25M21.75 20a1.25 1.25 0 0 1 2.5 0v1.25h-2.5zm4.5 7a.25.25 0 0 1-.25.25h-6a.25.25 0 0 1-.25-.25v-4a.25.25 0 0 1 .25-.25h6a.25.25 0 0 1 .25.25zM23 5.25h-.25V3a.75.75 0 1 0-1.5 0v2.25h-10.5V3a.75.75 0 1 0-1.5 0v2.25H9A4.755 4.755 0 0 0 4.25 10v14A4.756 4.756 0 0 0 9 28.75h5a.75.75 0 1 0 0-1.5H9A3.254 3.254 0 0 1 5.75 24V12.752h20.5V15a.75.75 0 1 0 1.5 0v-5A4.755 4.755 0 0 0 23 5.25M5.75 11.252V10A3.254 3.254 0 0 1 9 6.75h14A3.254 3.254 0 0 1 26.25 10v1.252H5.75"/></svg>