<svg xmlns="http://www.w3.org/2000/svg" width="32" height="32" viewBox="0 0 32 32"><path d="M24.741 5.253a5.96 5.96 0 0 0-4.24-1.756h-.004a6 6 0 0 0-4.236 10.246c.015.016.034.026.05.041l-9.817 9.787-.088.088a.498.498 0 0 0 0 .709l3.46 3.446a2.36 2.36 0 0 0 3.327-.003l2.617-2.617a2.352 2.352 0 0 0-.004-3.333l-3.091-3.08 4.375-4.362a5.993 5.993 0 0 0 7.651-9.166ZM15.5 23.53a1.347 1.347 0 0 1-.398.958l-2.616 2.617a1.357 1.357 0 0 1-1.915 0l-3.104-3.091 4.54-4.524 3.093 3.08a1.343 1.343 0 0 1 .4.96Zm8.539-10.497a5 5 0 1 1-3.541-8.535h.003a5.001 5.001 0 0 1 3.538 8.535Z"/></svg>