<svg xmlns="http://www.w3.org/2000/svg" width="32" height="32" viewBox="0 0 32 32"><path d="M16.547 15.866 17.999 21l-4.016.076 1.44-5.236a1.004 1.004 0 0 0-.452-1.124 2.002 2.002 0 0 1 .043-3.456 2 2 0 0 1 1.993 3.469l-.05.031-.003.002a.998.998 0 0 0-.407 1.104Z"/><path fill-rule="evenodd" d="M16 2a14 14 0 1 0 14 14A14.016 14.016 0 0 0 16 2Zm0 7a4.004 4.004 0 0 0-3.659 5.62c.228.51.56.965.976 1.336l-1.28 4.665A2 2 0 0 0 14 23.001h3.999a1.994 1.994 0 0 0 1.945-1.553c.07-.301.069-.614-.002-.915l-1.283-4.545A4 4 0 0 0 16 9Z" clip-rule="evenodd"/></svg>