<svg xmlns="http://www.w3.org/2000/svg" width="32" height="32" viewBox="0 0 32 32"><path d="M26 6.25h-.25V5A2.75 2.75 0 0 0 23 2.25h-2A2.753 2.753 0 0 0 18.25 5v1.25h-4.5V5A2.75 2.75 0 0 0 11 2.25H9A2.753 2.753 0 0 0 6.25 5v1.25H6A1.75 1.75 0 0 0 4.25 8v5A1.75 1.75 0 0 0 6 14.75h20A1.75 1.75 0 0 0 27.75 13V8A1.75 1.75 0 0 0 26 6.25M19.75 5A1.25 1.25 0 0 1 21 3.75h2A1.25 1.25 0 0 1 24.25 5v1.25h-4.5zm-12 0A1.25 1.25 0 0 1 9 3.75h2A1.25 1.25 0 0 1 12.25 5v1.25h-4.5zm18.5 8a.25.25 0 0 1-.25.25H6a.25.25 0 0 1-.25-.25V8A.25.25 0 0 1 6 7.75h20a.25.25 0 0 1 .25.25zM26 21.25h-.25V20A2.75 2.75 0 0 0 23 17.25h-2A2.75 2.75 0 0 0 18.25 20v1.25h-4.5V20A2.75 2.75 0 0 0 11 17.25H9A2.753 2.753 0 0 0 6.25 20v1.25H6A1.75 1.75 0 0 0 4.25 23v5A1.75 1.75 0 0 0 6 29.75h20A1.75 1.75 0 0 0 27.75 28v-5A1.75 1.75 0 0 0 26 21.25M19.75 20A1.25 1.25 0 0 1 21 18.75h2A1.25 1.25 0 0 1 24.25 20v1.25h-4.5zm-12 0A1.25 1.25 0 0 1 9 18.75h2A1.25 1.25 0 0 1 12.25 20v1.25h-4.5zm18.5 8a.25.25 0 0 1-.25.25H6a.25.25 0 0 1-.25-.25v-5a.25.25 0 0 1 .25-.25h20a.25.25 0 0 1 .25.25z"/></svg>