<svg xmlns="http://www.w3.org/2000/svg" width="32" height="32" viewBox="0 0 32 32"><path d="M26 6.5h-.5V5A2.503 2.503 0 0 0 23 2.5h-2A2.503 2.503 0 0 0 18.5 5v1.5h-5V5A2.503 2.503 0 0 0 11 2.5H9A2.503 2.503 0 0 0 6.5 5v1.5H6A1.5 1.5 0 0 0 4.5 8v5A1.5 1.5 0 0 0 6 14.5h20a1.5 1.5 0 0 0 1.5-1.5V8A1.5 1.5 0 0 0 26 6.5M19.5 5A1.5 1.5 0 0 1 21 3.5h2A1.5 1.5 0 0 1 24.5 5v1.5h-5zm-12 0A1.5 1.5 0 0 1 9 3.5h2A1.5 1.5 0 0 1 12.5 5v1.5h-5zm19 8a.5.5 0 0 1-.5.5H6a.5.5 0 0 1-.5-.5V8a.5.5 0 0 1 .5-.5h20a.5.5 0 0 1 .5.5zM26 21.5h-.5V20a2.503 2.503 0 0 0-2.5-2.5h-2a2.503 2.503 0 0 0-2.5 2.5v1.5h-5V20a2.503 2.503 0 0 0-2.5-2.5H9A2.503 2.503 0 0 0 6.5 20v1.5H6A1.5 1.5 0 0 0 4.5 23v5A1.5 1.5 0 0 0 6 29.5h20a1.5 1.5 0 0 0 1.5-1.5v-5a1.5 1.5 0 0 0-1.5-1.5M19.5 20a1.5 1.5 0 0 1 1.5-1.5h2a1.5 1.5 0 0 1 1.5 1.5v1.5h-5zm-12 0A1.5 1.5 0 0 1 9 18.5h2a1.5 1.5 0 0 1 1.5 1.5v1.5h-5zm19 8a.5.5 0 0 1-.5.5H6a.5.5 0 0 1-.5-.5v-5a.5.5 0 0 1 .5-.5h20a.5.5 0 0 1 .5.5z"/></svg>