<svg xmlns="http://www.w3.org/2000/svg" width="32" height="32" viewBox="0 0 32 32"><path d="M26 6V5a3.003 3.003 0 0 0-3-3h-2a3.003 3.003 0 0 0-3 3v1h-4V5a3.003 3.003 0 0 0-3-3H9a3.003 3.003 0 0 0-3 3v1a2 2 0 0 0-2 2v5a2 2 0 0 0 2 2h20a2 2 0 0 0 2-2V8a2 2 0 0 0-2-2m-6-1a1 1 0 0 1 1-1h2a1 1 0 0 1 1 1v1h-4zM8 5a1 1 0 0 1 1-1h2a1 1 0 0 1 1 1v1H8zm-2 8V8h20l.001 5zM26 21v-1a3.004 3.004 0 0 0-3-3h-2a3.004 3.004 0 0 0-3 3v1h-4v-1a3.004 3.004 0 0 0-3-3H9a3.003 3.003 0 0 0-3 3v1a2 2 0 0 0-2 2v5a2 2 0 0 0 2 2h20a2 2 0 0 0 2-2v-5a2.003 2.003 0 0 0-2-2m-6-1a1 1 0 0 1 1-1h2a1 1 0 0 1 1 1v1h-4zM8 20a1 1 0 0 1 1-1h2a1 1 0 0 1 1 1v1H8zm-2 8v-5h20l.001 5z"/></svg>