<svg xmlns="http://www.w3.org/2000/svg" width="32" height="32" viewBox="0 0 32 32"><path d="M3 20.5a.5.5 0 0 0 0 1A4.505 4.505 0 0 1 7.5 26a.5.5 0 0 0 1 0A5.507 5.507 0 0 0 3 20.5ZM3.5 26.5a1 1 0 1 0 0-2 1 1 0 0 0 0 2Z"/><path d="M3 16.5a.5.5 0 0 0 0 1 8.51 8.51 0 0 1 8.5 8.5.5.5 0 0 0 1 0A9.51 9.51 0 0 0 3 16.5Z"/><path d="M28.79 9.724a1.505 1.505 0 0 0-1.506-.041l-3.786 2.408v-2.087a4.505 4.505 0 0 0-4.5-4.5h-12a4.505 4.505 0 0 0-4.5 4.5L2.5 13a.5.5 0 0 0 1 0l-.002-2.996a3.504 3.504 0 0 1 3.5-3.5h12a3.504 3.504 0 0 1 3.5 3.5v12a3.504 3.504 0 0 1-3.499 3.5l-2.998-.004a.504.504 0 0 0-.463.309.5.5 0 0 0 .461.691l3 .004a4.505 4.505 0 0 0 4.5-4.5V19.91l3.83 2.433a1.493 1.493 0 0 0 1.46-.066A1.49 1.49 0 0 0 29.5 21V11a1.49 1.49 0 0 0-.71-1.276ZM28.5 21a.492.492 0 0 1-.237.425.473.473 0 0 1-.442.048l-4.323-2.748v-5.449l4.278-2.724a.488.488 0 0 1 .487.023.492.492 0 0 1 .237.424V21Z"/></svg>