<svg xmlns="http://www.w3.org/2000/svg" width="32" height="32" viewBox="0 0 32 32"><path d="M16 26a1.5 1.5 0 1 0 0-3 1.5 1.5 0 0 0 0 3M3.293 11.264a1 1 0 1 0 1.414 1.414 16 16 0 0 1 2.037-1.7l-1.43-1.43a18 18 0 0 0-2.02 1.716M8.32 17.008a1 1 0 1 0 1.359 1.466 9.2 9.2 0 0 1 2.793-1.768l-1.515-1.515a11.2 11.2 0 0 0-2.638 1.816M17.563 16.148a9.23 9.23 0 0 1 4.755 2.322 1 1 0 1 0 1.357-1.468 11.28 11.28 0 0 0-8.218-2.96L10.434 9.02a15.98 15.98 0 0 1 16.86 3.658 1 1 0 0 0 1.413-1.414A17.99 17.99 0 0 0 8.895 7.48L4.707 3.293a1 1 0 0 0-1.414 1.414l2.19 2.19c.008.007.017.009.024.016l21.81 21.81a.997.997 0 0 0 1.39-1.43z"/></svg>