<svg xmlns="http://www.w3.org/2000/svg" width="32" height="32" viewBox="0 0 32 32"><path d="M16 25.5a1 1 0 1 0 0-2 1 1 0 0 0 0 2M3.647 11.618a.5.5 0 0 0 .707.707 16.4 16.4 0 0 1 3.31-2.538l-.728-.729a17.4 17.4 0 0 0-3.29 2.56M16.233 15.525a9.77 9.77 0 0 1 6.423 2.578.5.5 0 1 0 .68-.734 10.8 10.8 0 0 0-8.078-2.818L9.54 8.833a16.49 16.49 0 0 1 18.107 3.492.5.5 0 1 0 .707-.707A17.49 17.49 0 0 0 8.789 8.08L4.354 3.646a.5.5 0 0 0-.707.707l4.18 4.18h-.002l.747.748h.002l5.422 5.422h-.001l.882.883h.002l12.768 12.767a.5.5 0 1 0 .707-.707zM8.66 17.374a.5.5 0 0 0 .679.734 9.7 9.7 0 0 1 4.338-2.308l-.816-.816a10.7 10.7 0 0 0-4.202 2.39"/></svg>