<svg xmlns="http://www.w3.org/2000/svg" width="32" height="32" viewBox="0 0 32 32"><path d="M3 20.25a.75.75 0 1 0 0 1.5A4.254 4.254 0 0 1 7.25 26a.75.75 0 1 0 1.5 0A5.756 5.756 0 0 0 3 20.25ZM3.5 26.75a1.25 1.25 0 1 0 0-2.5 1.25 1.25 0 0 0 0 2.5Z"/><path d="M3 16.25a.75.75 0 1 0 0 1.5A8.26 8.26 0 0 1 11.25 26a.75.75 0 1 0 1.5 0A9.761 9.761 0 0 0 3 16.25Z"/><path d="M28.921 9.511a1.765 1.765 0 0 0-1.77-.039l-3.403 2.164v-1.632a4.756 4.756 0 0 0-4.75-4.75h-12a4.756 4.756 0 0 0-4.75 4.751L2.25 13a.75.75 0 1 0 1.5 0l-.002-2.996a3.254 3.254 0 0 1 3.25-3.25h12a3.254 3.254 0 0 1 3.25 3.25v12A3.254 3.254 0 0 1 19 25.254l-2.998-.004a.753.753 0 0 0-.751.75.75.75 0 0 0 .75.75l2.998.004a4.755 4.755 0 0 0 4.75-4.75v-1.64l3.47 2.202A1.749 1.749 0 0 0 29.75 21V11a1.742 1.742 0 0 0-.829-1.489Zm-.67 11.49a.244.244 0 0 1-.119.212c-.044.027-.134.067-.177.05l-4.207-2.676v-5.174l4.14-2.637a.25.25 0 0 1 .362.223V21Z"/></svg>