<svg xmlns="http://www.w3.org/2000/svg" width="32" height="32" viewBox="0 0 32 32"><path d="M16 25.75a1.25 1.25 0 1 0 0-2.5 1.25 1.25 0 0 0 0 2.5ZM3.47 11.441a.75.75 0 0 0 1.06 1.06 16.202 16.202 0 0 1 2.651-2.139l-1.08-1.08a17.717 17.717 0 0 0-2.631 2.16ZM8.49 17.19a.75.75 0 0 0 1.019 1.102 9.43 9.43 0 0 1 3.543-2.058L11.88 15.06a10.917 10.917 0 0 0-3.39 2.13ZM16.864 15.803a9.51 9.51 0 0 1 5.623 2.484.75.75 0 1 0 1.018-1.102 11.04 11.04 0 0 0-8.147-2.888L9.976 8.916a16.244 16.244 0 0 1 17.494 3.586.75.75 0 1 0 1.06-1.06A17.736 17.736 0 0 0 8.842 7.78L4.53 3.469A.75.75 0 1 0 3.47 4.53l24 24a.75.75 0 1 0 1.06-1.06L16.864 15.803Z"/></svg>