<svg xmlns="http://www.w3.org/2000/svg" width="32" height="32" viewBox="0 0 32 32"><path d="M3 20a1 1 0 0 0 0 2 4.004 4.004 0 0 1 4 4 1 1 0 1 0 2 0 6.006 6.006 0 0 0-6-6ZM3.5 27a1.5 1.5 0 1 0 0-3 1.5 1.5 0 0 0 0 3Z"/><path d="M3 16a1 1 0 0 0 0 2 8.01 8.01 0 0 1 8 8 1 1 0 0 0 2 0A10.012 10.012 0 0 0 3 16Z"/><path d="M29.052 9.298a1.983 1.983 0 0 0-2.036-.037l-3.018 1.92v-1.177a5.006 5.006 0 0 0-5-5h-12a5.006 5.006 0 0 0-5 5.001L2 13.001a1 1 0 0 0 1 1h.001a1 1 0 0 0 1-1.002l-.003-2.995a3.003 3.003 0 0 1 3-3h12a3.003 3.003 0 0 1 3 3v12a3.003 3.003 0 0 1-2.999 3L16.001 25a1.004 1.004 0 0 0-.708.293A1 1 0 0 0 15.999 27l3 .004a5.005 5.005 0 0 0 5-5V20.82l3.018 1.919a.9.9 0 0 0 .09.05A2 2 0 0 0 30 21V11a1.988 1.988 0 0 0-.948-1.702Zm-1.053 11.696-4-2.544v-4.9L28 11.006v9.989Z"/></svg>