<svg xmlns="http://www.w3.org/2000/svg" width="32" height="32" viewBox="0 0 32 32"><path d="M16 25.75a1.25 1.25 0 1 0 0-2.5 1.25 1.25 0 0 0 0 2.5M3.47 11.441a.75.75 0 0 0 1.06 1.06 16.2 16.2 0 0 1 2.651-2.139l-1.08-1.08a17.7 17.7 0 0 0-2.631 2.16M8.49 17.19a.75.75 0 0 0 1.019 1.102 9.4 9.4 0 0 1 3.543-2.058L11.88 15.06a10.9 10.9 0 0 0-3.39 2.13M16.864 15.803a9.5 9.5 0 0 1 5.624 2.484.75.75 0 1 0 1.017-1.102 11.04 11.04 0 0 0-8.147-2.888L9.977 8.916a16.24 16.24 0 0 1 17.493 3.586.748.748 0 0 0 1.224-.243.75.75 0 0 0-.163-.818 17.74 17.74 0 0 0-19.69-3.66l-4.31-4.312A.75.75 0 0 0 3.47 4.53l24 24a.75.75 0 1 0 1.06-1.06z"/></svg>