<svg xmlns="http://www.w3.org/2000/svg" width="32" height="32" viewBox="0 0 32 32"><path d="M16 26a1.5 1.5 0 1 0 0-3 1.5 1.5 0 0 0 0 3ZM3.293 11.264a1 1 0 1 0 1.414 1.414 15.939 15.939 0 0 1 2.037-1.7l-1.43-1.43a17.924 17.924 0 0 0-2.02 1.716ZM8.32 17.008a1 1 0 1 0 1.359 1.466 9.17 9.17 0 0 1 2.793-1.768l-1.515-1.515a11.16 11.16 0 0 0-2.638 1.816ZM17.563 16.148a9.232 9.232 0 0 1 4.755 2.322 1 1 0 1 0 1.357-1.468 11.283 11.283 0 0 0-8.218-2.96L10.434 9.02a15.98 15.98 0 0 1 16.86 3.658 1 1 0 0 0 1.413-1.414A17.992 17.992 0 0 0 8.895 7.48L4.707 3.293a1 1 0 0 0-1.414 1.414l2.19 2.19c.008.007.017.009.024.016l21.81 21.81a.997.997 0 0 0 1.39-1.43L17.563 16.148Z"/></svg>