<svg xmlns="http://www.w3.org/2000/svg" width="32" height="32" viewBox="0 0 32 32"><path d="M29.175 6.768a3.625 3.625 0 0 0-4.99-1.092l-6.342 4.05-6.228-4.034a2.211 2.211 0 0 0-2.873.575 2.184 2.184 0 0 0 .08 2.868l3.243 4.28-2.535 1.619a10.26 10.26 0 0 0-3.764-1.706 3.572 3.572 0 0 0-2.476.421c-1.132.727-1.184 1.573-.88 2.084l2.76 4.495 1.134 1.952a2.75 2.75 0 0 0 3.857.935l6.187-3.952.433 5.748a2.217 2.217 0 0 0 2.203 1.883h.018a2.223 2.223 0 0 0 2.216-1.872l1.475-9.807 5.384-3.44a3.618 3.618 0 0 0 1.098-5.007Zm-19.208 1.4a.721.721 0 0 1-.044-.976.708.708 0 0 1 .916-.217l5.614 3.638-3.12 1.992-3.366-4.438ZM28.2 9.177a2.104 2.104 0 0 1-.93 1.333l-5.672 3.623a.745.745 0 0 0-.338.52L19.74 24.779a.684.684 0 0 1-.744.616.707.707 0 0 1-.726-.56l-.52-6.934a.751.751 0 0 0-1.151-.576L9.354 21.95a1.251 1.251 0 0 1-1.753-.425l-1.144-1.967-2.648-4.315c.088-.089.186-.167.292-.233.45-.245.974-.314 1.472-.194 1.279.33 2.476.92 3.518 1.731a.75.75 0 0 0 .83.015l15.07-9.623a2.118 2.118 0 0 1 3.21 2.238Z"/></svg>