<svg xmlns="http://www.w3.org/2000/svg" width="32" height="32" viewBox="0 0 32 32"><path d="M29.384 6.634a3.87 3.87 0 0 0-5.334-1.168l-6.207 3.963-6.106-3.954a2.5 2.5 0 0 0-3.085 3.848l3.05 4.027-2.171 1.386a10.2 10.2 0 0 0-3.733-1.654 3.8 3.8 0 0 0-2.642.457c-1.2.77-1.35 1.768-.96 2.426l2.758 4.49 1.134 1.951a3 3 0 0 0 4.208 1.02L16.13 19.7l.403 5.353a2.464 2.464 0 0 0 2.448 2.092h.02a2.47 2.47 0 0 0 2.465-2.085l1.456-9.695 5.29-3.378a3.866 3.866 0 0 0 1.171-5.352M10.217 8.078a1 1 0 0 0-.068-.08.463.463 0 0 1-.03-.65.45.45 0 0 1 .585-.162l5.287 3.426-2.599 1.659zm17.74 1.047a1.86 1.86 0 0 1-.82 1.176l-5.674 3.623a1 1 0 0 0-.451.694l-1.52 10.115a.463.463 0 0 1-.49.412h-.005a.45.45 0 0 1-.48-.33l-.519-6.933a1 1 0 0 0-1.535-.769L9.22 21.741a1.005 1.005 0 0 1-1.404-.34L6.67 19.43l-2.538-4.135q.045-.034.104-.071c.401-.21.865-.267 1.305-.159a9.5 9.5 0 0 1 3.408 1.69 1 1 0 0 0 1.107.02l15.07-9.623a1.868 1.868 0 0 1 2.83 1.974"/></svg>