<svg xmlns="http://www.w3.org/2000/svg" width="32" height="32" viewBox="0 0 32 32"><path d="M28.965 6.904a3.38 3.38 0 0 0-4.646-1.018l-6.478 4.137-6.349-4.112a1.998 1.998 0 0 0-2.47 3.072l3.406 4.497-2.901 1.852a10.3 10.3 0 0 0-3.793-1.756 3.35 3.35 0 0 0-2.309.383c-.982.631-1.048 1.33-.802 1.743l2.762 4.5 1.135 1.952a2.5 2.5 0 0 0 3.507.85l6.539-4.177.462 6.143a1.95 1.95 0 0 0 1.958 1.674H19a1.95 1.95 0 0 0 1.97-1.66l1.492-9.92 5.48-3.5a3.37 3.37 0 0 0 1.022-4.66M9.785 8.339a1.001 1.001 0 0 1 1.19-1.573l5.94 3.848-3.642 2.326zm18.66.893a2.35 2.35 0 0 1-1.04 1.49l-5.673 3.622a.5.5 0 0 0-.225.348l-1.522 10.13a.965.965 0 0 1-.984.822h-.008a.955.955 0 0 1-.973-.792l-.52-6.933a.5.5 0 0 0-.769-.384L9.49 22.162a1.5 1.5 0 0 1-2.104-.51L6.243 19.69 3.5 15.263c.008-.047.112-.234.466-.462a2.32 2.32 0 0 1 1.64-.232c1.314.35 2.546.952 3.629 1.773a.5.5 0 0 0 .553.011l15.07-9.623a2.367 2.367 0 0 1 3.588 2.502"/></svg>