<svg xmlns="http://www.w3.org/2000/svg" width="32" height="32" viewBox="0 0 32 32"><path d="M29.444 6.01a.751.751 0 0 0-1.049.163l-2.036 2.783a9.635 9.635 0 0 0-4.398-6.615.75.75 0 0 0-.717 1.317 8.177 8.177 0 0 1 3.719 6.069l-3.618-1.873a.75.75 0 1 0-.69 1.332l4.793 2.48a.75.75 0 0 0 .95-.223l3.208-4.383a.752.752 0 0 0-.162-1.05ZM24.038 19.7a3.266 3.266 0 0 0-4.615.003s-1.26 1.281-1.736 1.76a7.292 7.292 0 0 1-7.15-7.15c.476-.475 1.76-1.736 1.763-1.74a3.26 3.26 0 0 0 0-4.611L9.547 5.208a3.277 3.277 0 0 0-4.628 0L3.448 6.68c-1.18 1.18-1.52 3.603-.885 6.324.546 2.347 2.073 6.018 6.244 10.188 4.17 4.17 7.842 5.698 10.188 6.244.848.203 1.715.309 2.586.315a5.267 5.267 0 0 0 3.738-1.2l1.472-1.471a3.275 3.275 0 0 0 0-4.628L24.038 19.7Zm1.692 6.32-1.472 1.471c-.636.637-2.454 1.062-4.922.485-2.156-.502-5.55-1.924-9.468-5.844-3.92-3.92-5.342-7.313-5.845-9.469-.576-2.473-.152-4.285.485-4.923L5.98 6.27a1.777 1.777 0 0 1 2.507 0l2.753 2.753a1.76 1.76 0 0 1 .005 2.485s-1.504 1.478-1.867 1.842a1.574 1.574 0 0 0-.35 1.166 8.842 8.842 0 0 0 8.454 8.456h.003a1.572 1.572 0 0 0 1.165-.349c.363-.363 1.838-1.862 1.838-1.862a1.763 1.763 0 0 1 2.489 0l2.753 2.753a1.774 1.774 0 0 1 0 2.506Z"/></svg>