<svg xmlns="http://www.w3.org/2000/svg" width="32" height="32" viewBox="0 0 32 32"><path d="M29.295 6.213a.5.5 0 0 0-.698.108l-2.39 3.267a9.41 9.41 0 0 0-4.365-7.027.5.5 0 0 0-.477.877 8.48 8.48 0 0 1 3.889 6.72L21.23 8.076a.5.5 0 0 0-.46.889l4.793 2.48a.5.5 0 0 0 .456 0 .5.5 0 0 0 .177-.15l3.208-4.384a.5.5 0 0 0-.109-.698M9.454 22.454c6.746 6.746 12.68 6.412 14.358 4.734l1.037-1.037a2.73 2.73 0 0 0 0-3.858l-2.524-2.524a2.714 2.714 0 0 0-3.833.011l-1.31 1.31a7 7 0 0 1-4.192-2.171 7.03 7.03 0 0 1-2.176-4.189l1.32-1.32a2.81 2.81 0 0 0-.086-3.918L9.616 7.06a2.73 2.73 0 0 0-3.86 0L4.72 8.097c-1.678 1.678-2.012 7.611 4.734 14.357M6.464 7.766a1.73 1.73 0 0 1 2.444 0l2.433 2.433a1.82 1.82 0 0 1 .087 2.505l-1.382 1.38c-.707.707.27 3.575 2.236 5.542s4.838 2.94 5.546 2.232l1.37-1.37a1.713 1.713 0 0 1 2.42-.012L24.142 23a1.73 1.73 0 0 1 0 2.444l-1.037 1.037c-1.208 1.208-6.648 1.562-12.944-4.734S4.22 10.011 5.427 8.804z"/></svg>