<svg xmlns="http://www.w3.org/2000/svg" width="32" height="32" viewBox="0 0 32 32"><path d="M29.295 6.213a.5.5 0 0 0-.698.108l-2.39 3.267a9.41 9.41 0 0 0-4.365-7.027.5.5 0 1 0-.478.877 8.482 8.482 0 0 1 3.89 6.72L21.23 8.076a.5.5 0 0 0-.46.889l4.793 2.48a.507.507 0 0 0 .456 0 .499.499 0 0 0 .177-.15l3.207-4.384a.498.498 0 0 0-.108-.698ZM23.86 19.876a3.014 3.014 0 0 0-4.26.003s-1.472 1.497-1.76 1.805a7.277 7.277 0 0 1-5.347-2.18 7.634 7.634 0 0 1-2.231-5.27c.362-.365 1.858-1.836 1.861-1.838a3.01 3.01 0 0 0 0-4.257L9.37 5.385a3.029 3.029 0 0 0-4.274 0L3.624 6.856C2.522 7.96 2.2 10.35 2.806 12.947c.539 2.315 2.049 5.94 6.178 10.069 4.127 4.129 7.754 5.637 10.068 6.177.82.196 1.66.297 2.504.302a5.103 5.103 0 0 0 3.586-1.12l1.471-1.472a3.022 3.022 0 0 0 0-4.274l-2.753-2.753Zm2.046 6.32-1.471 1.472c-.707.707-2.575 1.154-5.156.55-2.188-.51-5.627-1.948-9.588-5.91-3.962-3.96-5.402-7.4-5.912-9.588-.601-2.58-.156-4.449.552-5.157l1.472-1.471a2.026 2.026 0 0 1 2.86 0l2.753 2.754a2.01 2.01 0 0 1 .003 2.84s-1.502 1.476-1.865 1.84a1.362 1.362 0 0 0-.275.989 8.592 8.592 0 0 0 8.203 8.206h.003c.352.04.707-.058.988-.276.363-.363 1.838-1.862 1.838-1.862a2.058 2.058 0 0 1 2.843 0l2.753 2.753a2.026 2.026 0 0 1 0 2.86Z"/></svg>