<svg xmlns="http://www.w3.org/2000/svg" width="32" height="32" viewBox="0 0 32 32"><path d="M29.591 5.81a1 1 0 0 0-1.397.215L26.49 8.352a9.86 9.86 0 0 0-4.41-6.231 1 1 0 0 0-.959 1.755 7.9 7.9 0 0 1 3.518 5.403l-3.18-1.646a1 1 0 1 0-.92 1.775l4.794 2.48a1 1 0 0 0 1.265-.297l3.208-4.384a1 1 0 0 0-.216-1.397M24.172 27.577c-1.8 1.8-8.069 2.261-15.065-4.734C2.112 15.847 2.572 9.579 4.373 7.778L5.41 6.741a3.23 3.23 0 0 1 4.566 0l2.433 2.433a3.317 3.317 0 0 1 .086 4.626l-1.168 1.166A7 7 0 0 0 13.35 18.6a7 7 0 0 0 3.638 2.02l1.157-1.158a3.214 3.214 0 0 1 4.54-.012l2.524 2.524a3.23 3.23 0 0 1 0 4.566z"/></svg>