<svg xmlns="http://www.w3.org/2000/svg" width="32" height="32" viewBox="0 0 32 32"><path d="M29.444 6.01a.75.75 0 0 0-1.05.163L26.36 8.956a9.64 9.64 0 0 0-4.398-6.615.75.75 0 0 0-.717 1.317 8.18 8.18 0 0 1 3.719 6.069l-3.618-1.873a.75.75 0 1 0-.69 1.332l4.793 2.48a.75.75 0 0 0 .95-.223l3.208-4.383a.75.75 0 0 0-.162-1.05M9.277 22.616c6.871 6.87 12.972 6.474 14.711 4.734l1.038-1.037a2.98 2.98 0 0 0 0-4.212l-2.524-2.524a2.964 2.964 0 0 0-4.187.012l-1.24 1.24a7.1 7.1 0 0 1-3.909-2.102 7.13 7.13 0 0 1-2.105-3.905l1.25-1.25a3.063 3.063 0 0 0-.086-4.272L9.792 6.868a2.98 2.98 0 0 0-4.212 0L4.543 7.905c-1.74 1.74-2.137 7.84 4.734 14.71M6.641 7.928a1.48 1.48 0 0 1 2.09 0l2.433 2.433a1.565 1.565 0 0 1 .087 2.151l-1.382 1.38c-.872.873.299 3.958 2.237 5.896 1.937 1.937 5.025 3.105 5.899 2.232l1.37-1.37a1.46 1.46 0 0 1 2.066-.012l2.524 2.523a1.48 1.48 0 0 1 0 2.091l-1.037 1.038c-1.156 1.156-6.42 1.435-12.59-4.735s-5.89-11.434-4.734-12.59z"/></svg>