<svg xmlns="http://www.w3.org/2000/svg" width="32" height="32" viewBox="0 0 32 32"><path d="M24.212 19.516a3.516 3.516 0 0 0-4.972.005s-1.157 1.18-1.672 1.699a7.1 7.1 0 0 1-6.802-6.81c.52-.516 1.697-1.675 1.703-1.68a3.519 3.519 0 0 0 0-4.973L9.713 4.999a3.607 3.607 0 0 0-4.984 0L3.258 6.473C1.25 8.483.763 15.503 8.619 23.37c5 5.007 9.657 6.63 12.901 6.63 1.436.1 2.857-.35 3.974-1.26l1.472-1.475a3.531 3.531 0 0 0 0-4.99l-2.754-2.76ZM29.591 5.81a1 1 0 0 0-1.397.215L26.49 8.352a9.86 9.86 0 0 0-4.41-6.231 1 1 0 0 0-.958 1.755 7.892 7.892 0 0 1 3.517 5.403l-3.18-1.646a1 1 0 1 0-.92 1.775l4.794 2.48a1 1 0 0 0 1.265-.297l3.208-4.384a1 1 0 0 0-.216-1.397Z"/></svg>