<svg xmlns="http://www.w3.org/2000/svg" width="32" height="32" viewBox="0 0 32 32"><path d="M16.006 22.75a1 1 0 1 0 0-2 1 1 0 0 0 0 2M16 10.25A3.754 3.754 0 0 0 12.25 14a.75.75 0 1 0 1.5 0A2.25 2.25 0 1 1 16 16.25a.75.75 0 0 0-.75.75v2a.75.75 0 1 0 1.5 0v-1.325A3.75 3.75 0 0 0 16 10.25M23 4.25H9A4.755 4.755 0 0 0 4.25 9v14A4.756 4.756 0 0 0 9 27.75h14A4.756 4.756 0 0 0 27.75 23V9A4.755 4.755 0 0 0 23 4.25M26.25 23A3.254 3.254 0 0 1 23 26.25H9A3.254 3.254 0 0 1 5.75 23V9A3.254 3.254 0 0 1 9 5.75h14A3.254 3.254 0 0 1 26.25 9z"/></svg>