<svg xmlns="http://www.w3.org/2000/svg" width="32" height="32" viewBox="0 0 32 32"><path d="M8.25 7.25a1 1 0 0 0-1 1v1.5a1 1 0 0 0 1 1h1.5a1 1 0 0 0 1-1v-1.5a1 1 0 0 0-1-1zM3.25 6A2.75 2.75 0 0 1 6 3.25h6A2.75 2.75 0 0 1 14.75 6v6A2.75 2.75 0 0 1 12 14.75H6A2.75 2.75 0 0 1 3.25 12zM6 4.75c-.69 0-1.25.56-1.25 1.25v6c0 .69.56 1.25 1.25 1.25h6c.69 0 1.25-.56 1.25-1.25V6c0-.69-.56-1.25-1.25-1.25zM22.25 7.25a1 1 0 0 0-1 1v1.5a1 1 0 0 0 1 1h1.5a1 1 0 0 0 1-1v-1.5a1 1 0 0 0-1-1zM17.25 6A2.75 2.75 0 0 1 20 3.25h6A2.75 2.75 0 0 1 28.75 6v6A2.75 2.75 0 0 1 26 14.75h-6A2.75 2.75 0 0 1 17.25 12zM20 4.75c-.69 0-1.25.56-1.25 1.25v6c0 .69.56 1.25 1.25 1.25h6c.69 0 1.25-.56 1.25-1.25V6c0-.69-.56-1.25-1.25-1.25zM8.25 21.25a1 1 0 0 0-1 1v1.5a1 1 0 0 0 1 1h1.5a1 1 0 0 0 1-1v-1.5a1 1 0 0 0-1-1zM6 17.25A2.75 2.75 0 0 0 3.25 20v6A2.75 2.75 0 0 0 6 28.75h6A2.75 2.75 0 0 0 14.75 26v-6A2.75 2.75 0 0 0 12 17.25zM4.75 20c0-.69.56-1.25 1.25-1.25h6c.69 0 1.25.56 1.25 1.25v6c0 .69-.56 1.25-1.25 1.25H6c-.69 0-1.25-.56-1.25-1.25zM18.25 17.25a1 1 0 0 0-1 1v1.5a1 1 0 0 0 1 1h1.5a1 1 0 0 0 1-1v-1.5a1 1 0 0 0-1-1zM18.25 25.25a1 1 0 0 0-1 1v1.5a1 1 0 0 0 1 1h1.5a1 1 0 0 0 1-1v-1.5a1 1 0 0 0-1-1zM22.25 21.25a1 1 0 0 0-1 1v1.5a1 1 0 0 0 1 1h1.5a1 1 0 0 0 1-1v-1.5a1 1 0 0 0-1-1zM26.25 25.25a1 1 0 0 0-1 1v1.5a1 1 0 0 0 1 1h1.5a1 1 0 0 0 1-1v-1.5a1 1 0 0 0-1-1zM26.25 17.25a1 1 0 0 0-1 1v1.5a1 1 0 0 0 1 1h1.5a1 1 0 0 0 1-1v-1.5a1 1 0 0 0-1-1z"/></svg>