<svg xmlns="http://www.w3.org/2000/svg" width="32" height="32" viewBox="0 0 32 32"><path d="M1 4a3 3 0 0 1 3-3h5a1 1 0 0 1 0 2H4a1 1 0 0 0-1 1v5a1 1 0 1 1-2 0zM9.75 8.5c-.69 0-1.25.56-1.25 1.25v.5c0 .69.56 1.25 1.25 1.25h.5c.69 0 1.25-.56 1.25-1.25v-.5c0-.69-.56-1.25-1.25-1.25zM5 8a3 3 0 0 1 3-3h4a3 3 0 0 1 3 3v4a3 3 0 0 1-3 3H8a3 3 0 0 1-3-3zm3-1a1 1 0 0 0-1 1v4a1 1 0 0 0 1 1h4a1 1 0 0 0 1-1V8a1 1 0 0 0-1-1zM28 31a3 3 0 0 0 3-3v-5a1 1 0 1 0-2 0v5a1 1 0 0 1-1 1h-5a1 1 0 1 0 0 2zM28 1a3 3 0 0 1 3 3v5a1 1 0 1 1-2 0V4a1 1 0 0 0-1-1h-5a1 1 0 1 1 0-2zM1 28a3 3 0 0 0 3 3h5a1 1 0 1 0 0-2H4a1 1 0 0 1-1-1v-5a1 1 0 1 0-2 0zM21.75 8.5c-.69 0-1.25.56-1.25 1.25v.5c0 .69.56 1.25 1.25 1.25h.5c.69 0 1.25-.56 1.25-1.25v-.5c0-.69-.56-1.25-1.25-1.25zM17 8a3 3 0 0 1 3-3h4a3 3 0 0 1 3 3v4a3 3 0 0 1-3 3h-4a3 3 0 0 1-3-3zm3-1a1 1 0 0 0-1 1v4a1 1 0 0 0 1 1h4a1 1 0 0 0 1-1V8a1 1 0 0 0-1-1zM9.75 20.5c-.69 0-1.25.56-1.25 1.25v.5c0 .69.56 1.25 1.25 1.25h.5c.69 0 1.25-.56 1.25-1.25v-.5c0-.69-.56-1.25-1.25-1.25zM8 17a3 3 0 0 0-3 3v4a3 3 0 0 0 3 3h4a3 3 0 0 0 3-3v-4a3 3 0 0 0-3-3zm-1 3a1 1 0 0 1 1-1h4a1 1 0 0 1 1 1v4a1 1 0 0 1-1 1H8a1 1 0 0 1-1-1zM21.75 20.5c-.69 0-1.25.56-1.25 1.25v.5c0 .69.56 1.25 1.25 1.25h.5c.69 0 1.25-.56 1.25-1.25v-.5c0-.69-.56-1.25-1.25-1.25zM25.25 17c-.69 0-1.25.56-1.25 1.25v.5c0 .69.56 1.25 1.25 1.25h.5c.69 0 1.25-.56 1.25-1.25v-.5c0-.69-.56-1.25-1.25-1.25zM25.25 24c-.69 0-1.25.56-1.25 1.25v.5c0 .69.56 1.25 1.25 1.25h.5c.69 0 1.25-.56 1.25-1.25v-.5c0-.69-.56-1.25-1.25-1.25zM18.25 17c-.69 0-1.25.56-1.25 1.25v.5c0 .69.56 1.25 1.25 1.25h.5c.69 0 1.25-.56 1.25-1.25v-.5c0-.69-.56-1.25-1.25-1.25zM18.25 24c-.69 0-1.25.56-1.25 1.25v.5c0 .69.56 1.25 1.25 1.25h.5c.69 0 1.25-.56 1.25-1.25v-.5c0-.69-.56-1.25-1.25-1.25z"/></svg>