<svg xmlns="http://www.w3.org/2000/svg" width="32" height="32" viewBox="0 0 32 32"><path d="M1.25 4A2.75 2.75 0 0 1 4 1.25h5a.75.75 0 0 1 0 1.5H4c-.69 0-1.25.56-1.25 1.25v5a.75.75 0 0 1-1.5 0zM9.75 8.75a1 1 0 0 0-1 1v.5a1 1 0 0 0 1 1h.5a1 1 0 0 0 1-1v-.5a1 1 0 0 0-1-1zM5.25 8A2.75 2.75 0 0 1 8 5.25h4A2.75 2.75 0 0 1 14.75 8v4A2.75 2.75 0 0 1 12 14.75H8A2.75 2.75 0 0 1 5.25 12zM8 6.75c-.69 0-1.25.56-1.25 1.25v4c0 .69.56 1.25 1.25 1.25h4c.69 0 1.25-.56 1.25-1.25V8c0-.69-.56-1.25-1.25-1.25zM28 30.75A2.75 2.75 0 0 0 30.75 28v-5a.75.75 0 0 0-1.5 0v5c0 .69-.56 1.25-1.25 1.25h-5a.75.75 0 0 0 0 1.5zM28 1.25A2.75 2.75 0 0 1 30.75 4v5a.75.75 0 0 1-1.5 0V4c0-.69-.56-1.25-1.25-1.25h-5a.75.75 0 0 1 0-1.5zM1.25 28A2.75 2.75 0 0 0 4 30.75h5a.75.75 0 0 0 0-1.5H4c-.69 0-1.25-.56-1.25-1.25v-5a.75.75 0 0 0-1.5 0zM21.75 8.75a1 1 0 0 0-1 1v.5a1 1 0 0 0 1 1h.5a1 1 0 0 0 1-1v-.5a1 1 0 0 0-1-1zM17.25 8A2.75 2.75 0 0 1 20 5.25h4A2.75 2.75 0 0 1 26.75 8v4A2.75 2.75 0 0 1 24 14.75h-4A2.75 2.75 0 0 1 17.25 12zM20 6.75c-.69 0-1.25.56-1.25 1.25v4c0 .69.56 1.25 1.25 1.25h4c.69 0 1.25-.56 1.25-1.25V8c0-.69-.56-1.25-1.25-1.25zM9.75 20.75a1 1 0 0 0-1 1v.5a1 1 0 0 0 1 1h.5a1 1 0 0 0 1-1v-.5a1 1 0 0 0-1-1zM8 17.25A2.75 2.75 0 0 0 5.25 20v4A2.75 2.75 0 0 0 8 26.75h4A2.75 2.75 0 0 0 14.75 24v-4A2.75 2.75 0 0 0 12 17.25zM6.75 20c0-.69.56-1.25 1.25-1.25h4c.69 0 1.25.56 1.25 1.25v4c0 .69-.56 1.25-1.25 1.25H8c-.69 0-1.25-.56-1.25-1.25zM21.75 20.75a1 1 0 0 0-1 1v.5a1 1 0 0 0 1 1h.5a1 1 0 0 0 1-1v-.5a1 1 0 0 0-1-1zM25.25 17.25a1 1 0 0 0-1 1v.5a1 1 0 0 0 1 1h.5a1 1 0 0 0 1-1v-.5a1 1 0 0 0-1-1zM25.25 24.25a1 1 0 0 0-1 1v.5a1 1 0 0 0 1 1h.5a1 1 0 0 0 1-1v-.5a1 1 0 0 0-1-1zM18.25 17.25a1 1 0 0 0-1 1v.5a1 1 0 0 0 1 1h.5a1 1 0 0 0 1-1v-.5a1 1 0 0 0-1-1zM18.25 24.25a1 1 0 0 0-1 1v.5a1 1 0 0 0 1 1h.5a1 1 0 0 0 1-1v-.5a1 1 0 0 0-1-1z"/></svg>