<svg xmlns="http://www.w3.org/2000/svg" width="32" height="32" viewBox="0 0 32 32"><path d="M8.25 7.5a.75.75 0 0 0-.75.75v1.5c0 .414.336.75.75.75h1.5a.75.75 0 0 0 .75-.75v-1.5a.75.75 0 0 0-.75-.75h-1.5Z"/><path d="M3.5 6A2.5 2.5 0 0 1 6 3.5h6A2.5 2.5 0 0 1 14.5 6v6a2.5 2.5 0 0 1-2.5 2.5H6A2.5 2.5 0 0 1 3.5 12V6ZM6 4.5A1.5 1.5 0 0 0 4.5 6v6A1.5 1.5 0 0 0 6 13.5h6a1.5 1.5 0 0 0 1.5-1.5V6A1.5 1.5 0 0 0 12 4.5H6ZM22.25 7.5a.75.75 0 0 0-.75.75v1.5c0 .414.336.75.75.75h1.5a.75.75 0 0 0 .75-.75v-1.5a.75.75 0 0 0-.75-.75h-1.5Z"/><path d="M17.5 6A2.5 2.5 0 0 1 20 3.5h6A2.5 2.5 0 0 1 28.5 6v6a2.5 2.5 0 0 1-2.5 2.5h-6a2.5 2.5 0 0 1-2.5-2.5V6ZM20 4.5A1.5 1.5 0 0 0 18.5 6v6a1.5 1.5 0 0 0 1.5 1.5h6a1.5 1.5 0 0 0 1.5-1.5V6A1.5 1.5 0 0 0 26 4.5h-6ZM8.25 21.5a.75.75 0 0 0-.75.75v1.5c0 .414.336.75.75.75h1.5a.75.75 0 0 0 .75-.75v-1.5a.75.75 0 0 0-.75-.75h-1.5Z"/><path d="M6 17.5A2.5 2.5 0 0 0 3.5 20v6A2.5 2.5 0 0 0 6 28.5h6a2.5 2.5 0 0 0 2.5-2.5v-6a2.5 2.5 0 0 0-2.5-2.5H6ZM4.5 20A1.5 1.5 0 0 1 6 18.5h6a1.5 1.5 0 0 1 1.5 1.5v6a1.5 1.5 0 0 1-1.5 1.5H6A1.5 1.5 0 0 1 4.5 26v-6ZM18.25 17.5a.75.75 0 0 0-.75.75v1.5c0 .414.336.75.75.75h1.5a.75.75 0 0 0 .75-.75v-1.5a.75.75 0 0 0-.75-.75h-1.5ZM18.25 25.5a.75.75 0 0 0-.75.75v1.5c0 .414.336.75.75.75h1.5a.75.75 0 0 0 .75-.75v-1.5a.75.75 0 0 0-.75-.75h-1.5ZM22.25 21.5a.75.75 0 0 0-.75.75v1.5c0 .414.336.75.75.75h1.5a.75.75 0 0 0 .75-.75v-1.5a.75.75 0 0 0-.75-.75h-1.5ZM26.25 25.5a.75.75 0 0 0-.75.75v1.5c0 .414.336.75.75.75h1.5a.75.75 0 0 0 .75-.75v-1.5a.75.75 0 0 0-.75-.75h-1.5ZM26.25 17.5a.75.75 0 0 0-.75.75v1.5c0 .414.336.75.75.75h1.5a.75.75 0 0 0 .75-.75v-1.5a.75.75 0 0 0-.75-.75h-1.5Z"/></svg>