<svg xmlns="http://www.w3.org/2000/svg" width="32" height="32" viewBox="0 0 32 32"><path d="M1.5 4A2.5 2.5 0 0 1 4 1.5h5a.5.5 0 0 1 0 1H4A1.5 1.5 0 0 0 2.5 4v5a.5.5 0 0 1-1 0zM9.75 9a.75.75 0 0 0-.75.75v.5c0 .414.336.75.75.75h.5a.75.75 0 0 0 .75-.75v-.5a.75.75 0 0 0-.75-.75zM5.5 8A2.5 2.5 0 0 1 8 5.5h4A2.5 2.5 0 0 1 14.5 8v4a2.5 2.5 0 0 1-2.5 2.5H8A2.5 2.5 0 0 1 5.5 12zM8 6.5A1.5 1.5 0 0 0 6.5 8v4A1.5 1.5 0 0 0 8 13.5h4a1.5 1.5 0 0 0 1.5-1.5V8A1.5 1.5 0 0 0 12 6.5zM28 30.5a2.5 2.5 0 0 0 2.5-2.5v-5a.5.5 0 0 0-1 0v5a1.5 1.5 0 0 1-1.5 1.5h-5a.5.5 0 0 0 0 1zM28 1.5A2.5 2.5 0 0 1 30.5 4v5a.5.5 0 0 1-1 0V4A1.5 1.5 0 0 0 28 2.5h-5a.5.5 0 0 1 0-1zM1.5 28A2.5 2.5 0 0 0 4 30.5h5a.5.5 0 0 0 0-1H4A1.5 1.5 0 0 1 2.5 28v-5a.5.5 0 0 0-1 0zM21.75 9a.75.75 0 0 0-.75.75v.5c0 .414.336.75.75.75h.5a.75.75 0 0 0 .75-.75v-.5a.75.75 0 0 0-.75-.75zM17.5 8A2.5 2.5 0 0 1 20 5.5h4A2.5 2.5 0 0 1 26.5 8v4a2.5 2.5 0 0 1-2.5 2.5h-4a2.5 2.5 0 0 1-2.5-2.5zM20 6.5A1.5 1.5 0 0 0 18.5 8v4a1.5 1.5 0 0 0 1.5 1.5h4a1.5 1.5 0 0 0 1.5-1.5V8A1.5 1.5 0 0 0 24 6.5zM9.75 21a.75.75 0 0 0-.75.75v.5c0 .414.336.75.75.75h.5a.75.75 0 0 0 .75-.75v-.5a.75.75 0 0 0-.75-.75zM8 17.5A2.5 2.5 0 0 0 5.5 20v4A2.5 2.5 0 0 0 8 26.5h4a2.5 2.5 0 0 0 2.5-2.5v-4a2.5 2.5 0 0 0-2.5-2.5zM6.5 20A1.5 1.5 0 0 1 8 18.5h4a1.5 1.5 0 0 1 1.5 1.5v4a1.5 1.5 0 0 1-1.5 1.5H8A1.5 1.5 0 0 1 6.5 24zM21.75 21a.75.75 0 0 0-.75.75v.5c0 .414.336.75.75.75h.5a.75.75 0 0 0 .75-.75v-.5a.75.75 0 0 0-.75-.75zM25.25 17.5a.75.75 0 0 0-.75.75v.5c0 .414.336.75.75.75h.5a.75.75 0 0 0 .75-.75v-.5a.75.75 0 0 0-.75-.75zM25.25 24.5a.75.75 0 0 0-.75.75v.5c0 .414.336.75.75.75h.5a.75.75 0 0 0 .75-.75v-.5a.75.75 0 0 0-.75-.75zM18.25 17.5a.75.75 0 0 0-.75.75v.5c0 .414.336.75.75.75h.5a.75.75 0 0 0 .75-.75v-.5a.75.75 0 0 0-.75-.75zM18.25 24.5a.75.75 0 0 0-.75.75v.5c0 .414.336.75.75.75h.5a.75.75 0 0 0 .75-.75v-.5a.75.75 0 0 0-.75-.75z"/></svg>