<svg xmlns="http://www.w3.org/2000/svg" width="32" height="32" viewBox="0 0 32 32"><path d="M23.669 17.795a4.754 4.754 0 0 0-5.148-7.97 3.748 3.748 0 0 0-3.736-3.595 3.703 3.703 0 0 0-1.657.403c0-.025.007-.048.007-.074a3.31 3.31 0 1 0-5.674 2.307 5.14 5.14 0 0 0-3.189 4.65c0 1.737 1.572 2.857 4.337 3.156-.135.477-.205.97-.207 1.466 0 1.961 1.838 3.229 5.074 3.573a6.845 6.845 0 0 0-.67 2.945c0 .95.473 2.276 2.724 3.202a14.28 14.28 0 0 0 5.255.892c3.971 0 7.978-1.266 7.978-4.094a7.414 7.414 0 0 0-5.094-6.86Zm-2.885-7.066a3.28 3.28 0 1 1 0 6.56 3.28 3.28 0 0 1 0-6.56ZM14.785 7.73a2.251 2.251 0 1 1 .002 4.502 2.251 2.251 0 0 1-.002-4.502ZM9.826 4.75a1.81 1.81 0 1 1 0 3.618 1.81 1.81 0 0 1 0-3.618ZM9.24 15.223c-1.748-.12-3.468-.614-3.468-1.707a3.872 3.872 0 0 1 4.054-3.648c.409.011.815.062 1.213.152a3.73 3.73 0 0 0 1.206 2.703 6.274 6.274 0 0 0-3.005 2.5Zm.662 2.915a4.669 4.669 0 0 1 4.883-4.406c.414.014.826.067 1.23.157 0 .041-.011.08-.011.12a4.76 4.76 0 0 0 1.896 3.787 7.963 7.963 0 0 0-3.522 2.488c-2.226-.125-4.476-.744-4.476-2.146Zm10.883 9.112c-3.633 0-6.479-1.14-6.479-2.594 0-3.235 2.907-5.867 6.478-5.867 3.572 0 6.479 2.632 6.479 5.867 0 1.455-2.846 2.594-6.478 2.594Z"/></svg>