<svg xmlns="http://www.w3.org/2000/svg" width="32" height="32" viewBox="0 0 32 32"><path d="M5.435 4.199a2.199 2.199 0 1 0 4.397 0 2.199 2.199 0 0 0-4.397 0Zm-.903 2.83a4.199 4.199 0 1 1 7.3-2.865 4.752 4.752 0 0 1 6.741 3.975 6.038 6.038 0 0 1 6.53 10.088c3.642 1.366 6.265 4.655 6.265 8.593 0 2.033-1.652 3.323-3.443 4.06-1.852.761-4.25 1.12-6.592 1.12-2.342 0-4.74-.359-6.592-1.12-1.791-.736-3.443-2.027-3.443-4.06 0-1.293.283-2.515.791-3.623-1.208-.139-2.42-.4-3.447-.84-1.484-.636-2.851-1.783-2.851-3.684l.001-.046c.027-.586.12-1.162.275-1.719-1.052-.118-2.105-.346-2.995-.74-1.271-.563-2.437-1.587-2.437-3.27A6.769 6.769 0 0 1 4.532 7.03Zm8.74 14.263c1.095-1.358 2.58-2.423 4.29-3.064a6.026 6.026 0 0 1-2.266-4.82c-.485-.109-.98-.17-1.478-.182a5.764 5.764 0 0 0-6.026 5.468c.008.715.478 1.327 1.637 1.824 1.042.446 2.43.69 3.844.774ZM6.9 14.975a7.763 7.763 0 0 1 3.589-3.126 4.736 4.736 0 0 1-1.405-3.272 6.978 6.978 0 0 0-1.457-.18 4.769 4.769 0 0 0-4.991 4.521c.008.544.339 1.019 1.247 1.42.8.355 1.876.56 3.017.637Zm6.951-3.749a2.751 2.751 0 1 0-.033-5.502 2.751 2.751 0 0 0 .033 5.502Zm7.482-1.752a4.038 4.038 0 1 0 0 8.075 4.038 4.038 0 0 0 0-8.075ZM13.298 26.82c0 .755.607 1.554 2.204 2.21 1.536.632 3.656.97 5.831.97 2.176 0 4.295-.338 5.832-.97 1.597-.656 2.203-1.455 2.203-2.21 0-3.935-3.512-7.27-8.035-7.27s-8.035 3.335-8.035 7.27Z"/></svg>