<svg xmlns="http://www.w3.org/2000/svg" width="32" height="32" viewBox="0 0 32 32"><path d="M4.968 7.112a3.949 3.949 0 1 1 6.595-2.525 4.501 4.501 0 0 1 6.77 3.973 5.788 5.788 0 0 1 6.24 9.747c3.785 1.226 6.545 4.538 6.545 8.513 0 1.873-1.521 3.102-3.288 3.829-1.812.745-4.176 1.101-6.497 1.101-2.321 0-4.684-.356-6.497-1.101-1.767-.727-3.288-1.956-3.288-3.829 0-1.377.332-2.676.922-3.835-1.307-.124-2.631-.388-3.73-.858-1.444-.62-2.699-1.7-2.699-3.454v-.035c.032-.668.15-1.322.352-1.948-1.134-.105-2.276-.333-3.22-.751-1.227-.544-2.288-1.5-2.288-3.041a6.519 6.519 0 0 1 4.083-5.785ZM5.185 4.2a2.449 2.449 0 1 0 4.897 0 2.449 2.449 0 0 0-4.897 0Zm8.204 17.35c1.163-1.486 2.804-2.627 4.703-3.242a5.782 5.782 0 0 1-2.54-5.094 7.78 7.78 0 0 0-1.731-.237 6.014 6.014 0 0 0-6.28 5.713c.007.864.588 1.544 1.79 2.059 1.11.476 2.583.723 4.058.8Zm-6.353-6.314a7.511 7.511 0 0 1 3.916-3.302 4.492 4.492 0 0 1-1.619-3.552 7.228 7.228 0 0 0-1.705-.233 5.019 5.019 0 0 0-5.243 4.766c.007.686.44 1.23 1.396 1.653.872.387 2.042.597 3.255.668Zm6.81-3.759a3.001 3.001 0 1 0-.025-6.002 3.001 3.001 0 0 0 .025 6.002Zm7.486-2.252a4.288 4.288 0 1 0 0 8.575 4.288 4.288 0 0 0 0-8.575ZM13.048 26.82c0 .914.737 1.775 2.359 2.442 1.575.647 3.73.988 5.926.988s4.35-.34 5.927-.988c1.62-.667 2.358-1.528 2.358-2.442 0-4.093-3.645-7.52-8.285-7.52-4.64 0-8.285 3.427-8.285 7.52Z"/></svg>