<svg xmlns="http://www.w3.org/2000/svg" width="32" height="32" viewBox="0 0 32 32"><path d="M5.435 4.35a2.19 2.19 0 0 0 2.217 2.184 2.19 2.19 0 0 0 2.18-2.184 2.19 2.19 0 0 0-2.199-2.184A2.19 2.19 0 0 0 5.435 4.35M4.532 7.16A4.14 4.14 0 0 1 3.435 4.35c0-2.304 1.88-4.171 4.198-4.171 2.308 0 4.18 1.849 4.2 4.137a4.8 4.8 0 0 1 2-.438c2.512 0 4.568 1.936 4.74 4.387a6.04 6.04 0 0 1 2.76-.662c3.334 0 6.037 2.686 6.037 5.998a5.97 5.97 0 0 1-2.268 4.685c3.643 1.356 6.266 4.624 6.266 8.536 0 2.018-1.652 3.3-3.443 4.032-1.852.757-4.25 1.113-6.592 1.113s-4.74-.356-6.592-1.113c-1.791-.731-3.443-2.014-3.443-4.032 0-1.285.283-2.5.791-3.6-1.208-.138-2.42-.398-3.447-.835-1.484-.631-2.851-1.77-2.851-3.659l.001-.046c.027-.582.12-1.154.275-1.707-1.052-.117-2.105-.344-2.995-.736C1.801 15.68.635 14.663.635 12.991v-.045a6.7 6.7 0 0 1 2.189-4.65 6.8 6.8 0 0 1 1.708-1.135m8.74 14.169c1.095-1.349 2.58-2.407 4.29-3.044a5.97 5.97 0 0 1-2.266-4.788 7.6 7.6 0 0 0-1.478-.18q-.11 0-.22-.006a5.79 5.79 0 0 0-3.942 1.502A5.7 5.7 0 0 0 7.79 18.75c.01.71.48 1.319 1.638 1.812 1.042.443 2.43.685 3.844.769M6.9 15.055a7.769 7.769 0 0 1 3.589-3.106A4.7 4.7 0 0 1 9.083 8.7a7 7 0 0 0-1.457-.178q-.098 0-.194-.005a4.8 4.8 0 0 0-3.257 1.245 4.72 4.72 0 0 0-1.54 3.25c.008.54.339 1.012 1.247 1.412.8.351 1.876.554 3.017.632m6.951-3.724a2.74 2.74 0 0 0 2.735-2.733 2.74 2.74 0 0 0-2.752-2.733 2.74 2.74 0 0 0-2.751 2.733 2.74 2.74 0 0 0 2.768 2.733m7.483-1.741c-2.23 0-4.038 1.796-4.038 4.01 0 2.216 1.808 4.012 4.037 4.012s4.038-1.796 4.038-4.011-1.808-4.011-4.038-4.011m-8.035 17.232c0 .749.607 1.543 2.204 2.195 1.536.627 3.656.963 5.831.963s4.295-.336 5.832-.963c1.597-.652 2.203-1.446 2.203-2.195 0-3.91-3.512-7.224-8.035-7.224s-8.035 3.315-8.035 7.224"/></svg>