<svg xmlns="http://www.w3.org/2000/svg" width="32" height="32" viewBox="0 0 32 32"><path d="M4.935 4.199a2.699 2.699 0 1 0 5.397 0 2.699 2.699 0 0 0-5.397 0Zm.532 2.998a3.699 3.699 0 1 1 5.748-2.072 4.251 4.251 0 0 1 6.83 3.93 5.538 5.538 0 1 1 5.915 9.333c3.967 1.044 6.908 4.397 6.908 8.433 0 1.712-1.39 2.88-3.133 3.597-1.773.729-4.101 1.082-6.402 1.082-2.3 0-4.629-.353-6.402-1.082-1.742-.717-3.133-1.885-3.133-3.598 0-1.466.389-2.843 1.074-4.052-1.413-.106-2.861-.369-4.033-.871-1.406-.602-2.548-1.617-2.548-3.224v-.023a7.262 7.262 0 0 1 .443-2.182c-1.221-.089-2.461-.316-3.46-.758-1.183-.524-2.14-1.412-2.14-2.812l.001-.023a6.269 6.269 0 0 1 4.332-5.678Zm8.04 14.608c1.242-1.635 3.073-2.858 5.198-3.418a5.536 5.536 0 0 1-2.889-5.362 8.036 8.036 0 0 0-1.992-.299 6.264 6.264 0 0 0-6.533 5.958c.005 1.013.697 1.76 1.941 2.294 1.182.506 2.743.757 4.275.827Zm-6.329-6.312a7.264 7.264 0 0 1 4.307-3.473 4.247 4.247 0 0 1-1.894-3.827 7.477 7.477 0 0 0-1.96-.295 5.269 5.269 0 0 0-5.496 5.011c.005.829.541 1.443 1.545 1.887.948.42 2.215.634 3.498.697Zm6.663-3.767a3.251 3.251 0 1 0-.015-6.502 3.251 3.251 0 0 0 .015 6.502Zm7.492-2.752a4.538 4.538 0 1 0 0 9.075 4.538 4.538 0 0 0 0-9.075ZM12.797 26.82c0 1.074.868 1.996 2.514 2.673 1.615.664 3.804 1.007 6.021 1.007s4.406-.343 6.022-1.007c1.645-.677 2.513-1.599 2.513-2.672 0-4.253-3.778-7.772-8.535-7.772-4.756 0-8.535 3.52-8.535 7.771Z"/></svg>