<svg xmlns="http://www.w3.org/2000/svg" width="32" height="32" viewBox="0 0 32 32"><path d="M3.685 4.005C3.685 1.84 5.453.083 7.633.083c1.583 0 2.948.924 3.578 2.26-2.285 1-3.879 3.27-3.879 5.91 0 .998.228 1.943.635 2.786q-.44.316-.844.683a9.44 9.44 0 0 0-2.72 4.362 8 8 0 0 1-1.23-.416c-1.227-.54-2.288-1.49-2.288-3.021v-.034a6.46 6.46 0 0 1 2.108-4.478A6.5 6.5 0 0 1 4.968 6.9a3.9 3.9 0 0 1-1.283-2.895M11.563 4.391a4.464 4.464 0 0 0-2.062 5.08l.38-1.145a.75.75 0 0 0 .945-.463.744.744 0 0 0-.463-.948l-.059-.02a3.9 3.9 0 0 0 1.26-2.504M8.162 13.488l-.511 1.536a.746.746 0 0 1-.261 1.452 17 17 0 0 1-.997-.062 7.46 7.46 0 0 1 1.77-2.926M13.833 3.782c-2.486 0-4.501 2.002-4.501 4.471 0 1.381.63 2.615 1.62 3.436a7.5 7.5 0 0 0-2.478 1.499 7.44 7.44 0 0 0-2.433 5.196c0 1.742 1.255 2.816 2.7 3.43.73.312 1.562.532 2.422.68 1.16-2.538 3.396-4.51 6.12-5.506a6.97 6.97 0 0 1-2.988-5.718 6.97 6.97 0 0 1 3.077-5.78 4.5 4.5 0 0 0-3.539-1.708M18.237 7.322a4.984 4.984 0 0 0-1.58 5.814l3.972-.335-.13.94h-3.548a5.04 5.04 0 0 0 4.377 2.533h.005q.34 0 .667-.044v-2.393l.243-1.756a.74.74 0 0 0-.2-.614.75.75 0 0 0-.606-.23l-4.652.393a4.45 4.45 0 0 0 1.452-4.308M22 18.283a10 10 0 0 0-.667-.022 9.63 9.63 0 0 0-5.113 1.441h1.126l-2.457 1.016a8.3 8.3 0 0 0-1.598 2.01q.212.01.422.017a.8.8 0 0 0 .313-.056l6.762-2.796a.75.75 0 0 0 .271-.191H22zM21.333 16.274c2.782 0 5.037-2.24 5.037-5.004s-2.255-5.005-5.038-5.005c-2.782 0-5.037 2.241-5.037 5.005s2.255 5.004 5.037 5.004M30.368 26.477c0 5.536-18.07 5.536-18.07 0 0-4.538 4.045-8.216 9.035-8.216s9.035 3.678 9.035 8.216"/></svg>