<svg xmlns="http://www.w3.org/2000/svg" width="32" height="33" viewBox="0 0 32 33"><path d="M4.968 7.588a3.9 3.9 0 0 1-1.283-2.894c0-2.166 1.768-3.922 3.948-3.922 2.181 0 3.95 1.756 3.95 3.922q0 .196-.02.386a4.5 4.5 0 0 1 2.27-.61c2.486 0 4.502 2.003 4.502 4.472l-.001.085a5.8 5.8 0 0 1 2.999-.831c3.196 0 5.787 2.574 5.787 5.75 0 1.982-1.01 3.73-2.546 4.763 3.784 1.217 6.544 4.508 6.544 8.457 0 1.86-1.521 3.081-3.288 3.803-1.812.74-4.176 1.094-6.497 1.094s-4.684-.354-6.497-1.094c-1.767-.722-3.288-1.943-3.288-3.803 0-1.369.332-2.658.922-3.81-1.307-.123-2.631-.385-3.73-.853-1.444-.615-2.699-1.689-2.699-3.43v-.035c.032-.663.15-1.314.352-1.935-1.134-.104-2.276-.331-3.22-.746-1.227-.54-2.288-1.49-2.288-3.021V13.3a6.46 6.46 0 0 1 2.108-4.477 6.5 6.5 0 0 1 1.975-1.236m.217-2.894a2.44 2.44 0 0 0 2.464 2.433 2.44 2.44 0 0 0 2.433-2.433 2.44 2.44 0 0 0-2.449-2.432 2.44 2.44 0 0 0-2.448 2.432m8.204 17.235c1.163-1.476 2.804-2.609 4.703-3.22a5.73 5.73 0 0 1-2.54-5.06 7.8 7.8 0 0 0-1.731-.235q-.108 0-.216-.006a6.04 6.04 0 0 0-4.118 1.568 5.96 5.96 0 0 0-1.946 4.113c.007.858.588 1.533 1.79 2.045 1.11.472 2.583.718 4.058.795m-6.353-6.272a7.522 7.522 0 0 1 3.915-3.28A4.45 4.45 0 0 1 9.334 8.85a7.3 7.3 0 0 0-1.705-.232q-.094 0-.19-.005a5.04 5.04 0 0 0-3.432 1.31 4.97 4.97 0 0 0-1.621 3.43c.007.68.44 1.221 1.396 1.642.872.384 2.042.592 3.255.663m6.81-3.733a2.99 2.99 0 0 0 2.989-2.982 2.99 2.99 0 0 0-3.002-2.981 2.99 2.99 0 0 0-3.001 2.981 2.99 2.99 0 0 0 3.014 2.982m7.486-2.238c-2.367 0-4.287 1.907-4.287 4.26s1.92 4.258 4.287 4.258c2.369 0 4.288-1.906 4.288-4.259 0-2.352-1.92-4.259-4.288-4.259m-8.284 17.48c0 .908.737 1.763 2.359 2.425 1.575.643 3.73.982 5.926.982s4.35-.338 5.927-.982c1.62-.662 2.358-1.517 2.358-2.425 0-4.066-3.645-7.471-8.285-7.471s-8.285 3.405-8.285 7.471"/></svg>