<svg xmlns="http://www.w3.org/2000/svg" width="32" height="32" viewBox="0 0 32 32"><path d="M23.117 17.872a4.52 4.52 0 1 0-4.858-7.622c.007-.09.027-.177.027-.27a3.5 3.5 0 0 0-5.453-2.903 3.056 3.056 0 1 0-4.89 1.875 4.926 4.926 0 0 0-3.42 4.564c0 1.652 1.605 2.696 4.41 2.932a5.235 5.235 0 0 0-.28 1.69c0 1.888 1.9 3.081 5.22 3.353a6.613 6.613 0 0 0-.816 3.166c0 .873.445 2.096 2.568 2.97 1.65.612 3.4.909 5.16.874 3.847 0 7.728-1.189 7.728-3.844a7.22 7.22 0 0 0-5.396-6.785Zm-2.333-7.393a3.53 3.53 0 1 1 0 7.06 3.53 3.53 0 0 1 0-7.06ZM14.785 7.48a2.501 2.501 0 1 1 .002 5.002 2.501 2.501 0 0 1-.002-5.002Zm-7.018-.921a2.06 2.06 0 1 1 4.119 0 2.06 2.06 0 0 1-4.119 0Zm1.604 8.927c-1.192-.07-3.849-.401-3.849-1.97a4.12 4.12 0 0 1 4.304-3.898c.498.014.993.086 1.474.213-.002.051-.015.099-.015.15a3.49 3.49 0 0 0 1.457 2.83 6.045 6.045 0 0 0-3.37 2.675Zm.281 2.652a4.918 4.918 0 0 1 5.133-4.656c.507.016 1.01.089 1.5.216-.007.104-.031.204-.031.311a4.518 4.518 0 0 0 2.197 3.863 7.747 7.747 0 0 0-3.96 2.668c-2.382-.116-4.839-.8-4.839-2.402ZM20.785 27.5c-3.262 0-6.729-.997-6.729-2.844 0-3.373 3.018-6.117 6.728-6.117s6.729 2.744 6.729 6.117c0 1.847-3.467 2.844-6.728 2.844Z"/></svg>