<svg xmlns="http://www.w3.org/2000/svg" width="32" height="32" viewBox="0 0 32 32"><path d="M4.935 4.039a2.69 2.69 0 0 0 2.71 2.68 2.69 2.69 0 0 0 2.687-2.68 2.69 2.69 0 0 0-2.699-2.681 2.69 2.69 0 0 0-2.698 2.68m.532 2.978A3.66 3.66 0 0 1 3.935 4.04c0-2.03 1.656-3.675 3.698-3.675 2.043 0 3.7 1.645 3.7 3.675q-.001.477-.118.92a4.25 4.25 0 0 1 2.618-.896c2.348 0 4.252 1.891 4.252 4.224q0 .293-.04.575a5.54 5.54 0 0 1 3.287-1.073c3.059 0 5.538 2.463 5.538 5.5a5.5 5.5 0 0 1-2.91 4.844c3.967 1.038 6.908 4.369 6.908 8.378 0 1.7-1.39 2.86-3.133 3.573-1.773.724-4.101 1.075-6.402 1.075-2.3 0-4.629-.351-6.402-1.075-1.742-.712-3.133-1.872-3.133-3.573 0-1.458.389-2.825 1.074-4.026-1.413-.105-2.861-.367-4.033-.866-1.406-.598-2.548-1.606-2.548-3.202v-.023a7.2 7.2 0 0 1 .443-2.168c-1.221-.088-2.461-.313-3.46-.752-1.183-.52-2.14-1.403-2.14-2.794l.001-.023a6.2 6.2 0 0 1 2.027-4.306 6.3 6.3 0 0 1 2.305-1.334m8.04 14.511c1.242-1.624 3.073-2.838 5.198-3.395a5.5 5.5 0 0 1-2.889-5.327 8 8 0 0 0-1.992-.296q-.105 0-.21-.006a6.3 6.3 0 0 0-4.296 1.633 6.2 6.2 0 0 0-2.027 4.29c.005 1.007.697 1.75 1.941 2.28 1.182.502 2.743.752 4.275.821m-6.329-6.27a7.2 7.2 0 0 1 1.465-1.854 7.3 7.3 0 0 1 2.842-1.597 4.21 4.21 0 0 1-1.894-3.8 7.5 7.5 0 0 0-1.96-.294q-.093 0-.185-.005a5.3 5.3 0 0 0-3.609 1.376 5.22 5.22 0 0 0-1.702 3.607c.005.824.541 1.433 1.545 1.875.948.417 2.215.63 3.498.692m6.663-3.742c1.792-.004 3.244-1.448 3.244-3.23s-1.456-3.23-3.252-3.23-3.251 1.447-3.251 3.23a3.24 3.24 0 0 0 3.26 3.23m7.492-2.734c-2.506 0-4.538 2.018-4.538 4.508s2.031 4.507 4.537 4.507c2.507 0 4.538-2.018 4.538-4.507 0-2.49-2.031-4.508-4.538-4.508m-8.535 17.729c0 1.066.868 1.982 2.514 2.654 1.615.66 3.804 1 6.021 1s4.406-.34 6.022-1c1.645-.672 2.513-1.588 2.513-2.654 0-4.224-3.778-7.72-8.535-7.72s-8.535 3.496-8.535 7.72"/></svg>