<svg xmlns="http://www.w3.org/2000/svg" width="32" height="32" viewBox="0 0 32 32"><path d="M24.156 17.716a5.012 5.012 0 0 0-5.426-8.288 3.956 3.956 0 0 0-5.376-3.172 3.549 3.549 0 1 0-6.293 2.516 5.36 5.36 0 0 0-3.039 4.744c0 1.818 1.54 3.012 4.268 3.374-.092.41-.138.828-.138 1.248 0 2.034 1.79 3.373 4.961 3.785a7.072 7.072 0 0 0-.557 2.733c0 .84.374 2.403 2.879 3.432a14.52 14.52 0 0 0 5.35.912c4.095 0 8.228-1.343 8.228-4.344a7.62 7.62 0 0 0-4.857-6.94Zm-3.372-6.737a3.03 3.03 0 1 1 0 6.06 3.03 3.03 0 0 1 0-6.06ZM14.785 7.98a2.001 2.001 0 1 1 .002 4.002 2.001 2.001 0 0 1-.002-4.002ZM9.826 5a1.559 1.559 0 1 1 0 3.118 1.559 1.559 0 0 1 0-3.118Zm-.714 9.965c-1.616-.134-3.09-.607-3.09-1.45a3.622 3.622 0 0 1 3.804-3.397c.33.01.66.047.984.111.054.895.41 1.744 1.008 2.41a6.502 6.502 0 0 0-2.706 2.326Zm1.04 3.173a4.42 4.42 0 0 1 4.633-4.157c.328.011.655.048.977.112a4.997 4.997 0 0 0 1.65 3.622 8.193 8.193 0 0 0-3.143 2.307c-2.118-.141-4.117-.752-4.117-1.884ZM20.785 27c-3.435 0-6.229-1.052-6.229-2.345 0-3.096 2.794-5.616 6.228-5.616 3.434 0 6.229 2.52 6.229 5.616 0 1.294-2.794 2.345-6.228 2.345Z"/></svg>