<svg xmlns="http://www.w3.org/2000/svg" width="32" height="32" viewBox="0 0 32 32"><path d="M3.685 4.199a3.949 3.949 0 0 1 7.526-1.674 6.503 6.503 0 0 0-3.244 8.754 9.517 9.517 0 0 0-3.563 5.079 7.922 7.922 0 0 1-1.23-.419c-1.228-.544-2.29-1.5-2.29-3.041a6.519 6.519 0 0 1 4.083-5.785 3.938 3.938 0 0 1-1.282-2.914Z"/><path d="M11.563 4.587A4.5 4.5 0 0 0 9.501 9.7l.38-1.152a.75.75 0 0 0 .482-1.42l-.059-.02a3.939 3.939 0 0 0 1.26-2.52ZM8.162 13.745l-.511 1.546a.75.75 0 0 1-.261 1.461 17.116 17.116 0 0 1-.997-.062 7.514 7.514 0 0 1 1.77-2.945Z"/><path d="M13.833 3.974a4.501 4.501 0 0 0-2.881 7.96 7.514 7.514 0 0 0-4.911 6.739c0 1.754 1.255 2.835 2.7 3.454.73.313 1.562.534 2.421.684 1.162-2.555 3.397-4.54 6.12-5.543a7.029 7.029 0 0 1-2.987-5.756 7.03 7.03 0 0 1 3.077-5.819 4.493 4.493 0 0 0-3.539-1.72Z"/><path d="M18.237 7.537a5.029 5.029 0 0 0-1.942 3.975c0 .664.128 1.298.362 1.878l3.972-.337-.13.947h-3.548a5.036 5.036 0 0 0 4.377 2.55h.005c.226 0 .449-.016.667-.045v-2.409l.243-1.767a.75.75 0 0 0-.806-.85l-4.652.395a4.491 4.491 0 0 0 1.452-4.337ZM22 18.571c-.22-.014-.443-.022-.667-.022-1.898 0-3.66.536-5.113 1.451h1.126l-2.457 1.023a8.364 8.364 0 0 0-1.598 2.023l.421.018a.75.75 0 0 0 .313-.057l6.763-2.815A.748.748 0 0 0 21.06 20H22v-1.429Z"/><path d="M21.332 16.55a5.038 5.038 0 1 0 0-10.076 5.038 5.038 0 0 0 0 10.075ZM30.368 26.82c0 5.573-18.07 5.573-18.07 0 0-4.568 4.045-8.27 9.035-8.27s9.035 3.702 9.035 8.27Z"/></svg>