<svg xmlns="http://www.w3.org/2000/svg" width="32" height="32" viewBox="0 0 32 32"><path d="M28.563 23.674a4.5 4.5 0 0 0-2.208-2.835 1 1 0 0 0-.097-.043s-.857-.314-1.573-.518c-.188-.052-.564-.32-.98-1.534l-.737-2.026a7.06 7.06 0 0 0-2.54-3.335 5.4 5.4 0 0 0-1.222-.616 5.75 5.75 0 1 0-6.42.003 5.4 5.4 0 0 0-1.212.613 7.1 7.1 0 0 0-2.553 3.361l-.73 2.012c-.414 1.201-.789 1.47-.974 1.523-.717.203-1.575.517-1.575.517a1 1 0 0 0-.095.043 4.5 4.5 0 0 0-2.21 2.835 4.93 4.93 0 0 0 .39 3.678 4.3 4.3 0 0 0 2.376 2.164 4.22 4.22 0 0 0 3.247-.198l3.966-1.932A5.9 5.9 0 0 1 16 26.75c.898.012 1.781.23 2.582.635l3.968 1.934a4.22 4.22 0 0 0 3.246.197 4.3 4.3 0 0 0 2.378-2.164c.602-1.13.74-2.448.389-3.678M11.744 8a4.25 4.25 0 1 1 8.5 0 4.25 4.25 0 0 1-8.5 0m15.107 18.646a2.82 2.82 0 0 1-1.546 1.452 2.73 2.73 0 0 1-2.099-.128l-3.966-1.934a7.07 7.07 0 0 0-6.48.001L8.792 27.97a2.72 2.72 0 0 1-2.1.129 2.8 2.8 0 0 1-1.542-1.452 3.44 3.44 0 0 1-.27-2.564 3.07 3.07 0 0 1 1.429-1.896c.186-.068.848-.303 1.416-.464 1.123-.32 1.67-1.568 1.98-2.466l.714-1.974a5.6 5.6 0 0 1 2.007-2.665A7.03 7.03 0 0 1 16 13.75a7.03 7.03 0 0 1 3.573.867 5.55 5.55 0 0 1 1.996 2.639l.722 1.987c.312.91.858 2.159 1.985 2.479.566.16 1.227.396 1.415.464a3.07 3.07 0 0 1 1.428 1.896 3.44 3.44 0 0 1-.268 2.564M19 21.25h-6a.75.75 0 1 0 0 1.5h6a.75.75 0 1 0 0-1.5"/></svg>