<svg xmlns="http://www.w3.org/2000/svg" width="32" height="32" viewBox="0 0 32 32"><path d="M28.323 23.742a4.276 4.276 0 0 0-2.15-2.712s-.848-.31-1.556-.51c-.418-.12-.802-.685-1.147-1.69l-.733-2.018a6.822 6.822 0 0 0-2.452-3.223 5.59 5.59 0 0 0-1.68-.75 5.5 5.5 0 1 0-5.216.003 5.583 5.583 0 0 0-1.673.747 6.843 6.843 0 0 0-2.46 3.24l-.728 2.008c-.344.998-.729 1.564-1.144 1.682-.708.2-1.556.511-1.62.54a4.26 4.26 0 0 0-2.086 2.683 4.684 4.684 0 0 0 .37 3.492 4.055 4.055 0 0 0 2.236 2.045 3.967 3.967 0 0 0 3.056-.186l3.967-1.933A6.157 6.157 0 0 1 16 26.5a6.15 6.15 0 0 1 2.693.66l3.966 1.933a3.965 3.965 0 0 0 3.055.186 4.058 4.058 0 0 0 2.24-2.044 4.686 4.686 0 0 0 .369-3.493ZM11.494 8a4.5 4.5 0 1 1 9.002 0 4.5 4.5 0 0 1-9.002 0Zm15.577 18.764a3.05 3.05 0 0 1-1.684 1.57 2.972 2.972 0 0 1-2.29-.14l-3.967-1.932a6.813 6.813 0 0 0-6.26 0l-3.967 1.933a2.993 2.993 0 0 1-2.291.14 3.046 3.046 0 0 1-1.682-1.571 3.684 3.684 0 0 1-.29-2.75 3.288 3.288 0 0 1 1.532-2.044s.809-.297 1.486-.49c1.01-.287 1.52-1.46 1.812-2.309l.719-1.982a5.81 5.81 0 0 1 2.095-2.778 7.279 7.279 0 0 1 3.716-.91 7.279 7.279 0 0 1 3.716.91 5.793 5.793 0 0 1 2.088 2.76l.724 1.991c.294.858.801 2.03 1.815 2.32.646.182 1.411.46 1.424.46a3.306 3.306 0 0 1 1.593 2.072c.264.92.16 1.905-.29 2.75Z"/><path d="M19 21.5h-6a.5.5 0 0 0 0 1h6a.5.5 0 0 0 0-1Z"/></svg>