<svg xmlns="http://www.w3.org/2000/svg" width="32" height="32" viewBox="0 0 32 32"><path d="M29.66 21.594a1.96 1.96 0 0 0-2.152-.823 13.9 13.9 0 0 1-5.807.291A13.28 13.28 0 0 1 10.938 10.3a14 14 0 0 1 .301-5.813 1.95 1.95 0 0 0-.823-2.145 2 2 0 0 0-2.354.08 15.69 15.69 0 0 0-5.802 15.17 15.33 15.33 0 0 0 12.92 12.271 15.58 15.58 0 0 0 14.404-5.93 1.99 1.99 0 0 0 .075-2.339m-14.214 6.287A13.31 13.31 0 0 1 4.227 17.23 13.71 13.71 0 0 1 9.304 3.981a16 16 0 0 0-.336 6.663 15.28 15.28 0 0 0 12.388 12.389c2.21.358 4.472.249 6.638-.321l.001.006a13.56 13.56 0 0 1-12.55 5.163"/></svg>