<svg xmlns="http://www.w3.org/2000/svg" width="32" height="32" viewBox="0 0 32 32"><path d="M29.243 21.872a1.46 1.46 0 0 0-1.609-.616c-1.963.52-4.014.622-6.02.3a13.78 13.78 0 0 1-11.169-11.17 14.5 14.5 0 0 1 .31-6.026 1.46 1.46 0 0 0-.615-1.602 1.5 1.5 0 0 0-1.773.06 15.19 15.19 0 0 0-5.615 14.684 14.83 14.83 0 0 0 12.494 11.865 15.07 15.07 0 0 0 13.94-5.738 1.49 1.49 0 0 0 .057-1.757m-.85 1.15a14.07 14.07 0 0 1-13.014 5.355A13.82 13.82 0 0 1 3.736 17.32a14.18 14.18 0 0 1 5.24-13.709.51.51 0 0 1 .61-.02.46.46 0 0 1 .201.517c-.56 2.104-.67 4.301-.327 6.45A14.78 14.78 0 0 0 21.442 22.54c2.147.347 4.343.24 6.445-.317a.47.47 0 0 1 .523.202.5.5 0 0 1-.018.596"/></svg>