<svg xmlns="http://www.w3.org/2000/svg" width="32" height="32" viewBox="0 0 32 32"><path d="M28.8 23.606a4.744 4.744 0 0 0-2.327-2.988 1.58 1.58 0 0 0-.128-.056s-.867-.319-1.592-.524c-.062-.017-.397-.168-.813-1.38l-.74-2.035a7.3 7.3 0 0 0-2.631-3.445 5.251 5.251 0 0 0-.866-.47 6 6 0 1 0-7.413.003c-.3.128-.587.285-.858.467a7.33 7.33 0 0 0-2.646 3.481l-.731 2.016c-.412 1.196-.745 1.346-.807 1.363-.725.205-1.592.524-1.592.524a1.11 1.11 0 0 0-.127.056 4.733 4.733 0 0 0-2.33 2.986 5.175 5.175 0 0 0 .41 3.864 4.532 4.532 0 0 0 2.512 2.284 4.473 4.473 0 0 0 3.438-.209l3.967-1.933a5.322 5.322 0 0 1 4.947 0l3.968 1.933a4.4 4.4 0 0 0 5.95-2.074 5.18 5.18 0 0 0 .408-3.863ZM15.993 4a4 4 0 1 1 0 8 4 4 0 0 1 0-8ZM26.63 26.527a2.584 2.584 0 0 1-1.406 1.335 2.471 2.471 0 0 1-1.908-.118l-3.967-1.932a7.314 7.314 0 0 0-6.7 0l-3.965 1.932a2.473 2.473 0 0 1-1.91.117 2.576 2.576 0 0 1-1.404-1.333 3.19 3.19 0 0 1-.249-2.377 2.837 2.837 0 0 1 1.293-1.738 24.06 24.06 0 0 1 1.38-.451c1.236-.352 1.82-1.673 2.147-2.621l.712-1.964a5.34 5.34 0 0 1 1.916-2.555A6.789 6.789 0 0 1 16 14a6.783 6.783 0 0 1 3.431.822 5.312 5.312 0 0 1 1.903 2.52l.72 1.982c.331.964.913 2.285 2.153 2.638.542.154 1.171.377 1.38.451a2.838 2.838 0 0 1 1.292 1.736 3.195 3.195 0 0 1-.249 2.378Z"/><path d="M19 21h-6a1 1 0 0 0 0 2h6a1 1 0 1 0 0-2Z"/></svg>