<svg xmlns="http://www.w3.org/2000/svg" width="32" height="32" viewBox="0 0 32 32"><path d="M29.451 21.733a1.71 1.71 0 0 0-1.88-.72 14.175 14.175 0 0 1-5.913.295 13.528 13.528 0 0 1-10.966-10.965c-.315-1.973-.21-3.99.305-5.92a1.705 1.705 0 0 0-.719-1.873 1.757 1.757 0 0 0-2.064.07 15.444 15.444 0 0 0-5.708 14.927A14.979 14.979 0 0 0 17.249 29.75a15.299 15.299 0 0 0 12.136-5.97 1.743 1.743 0 0 0 .066-2.048Zm-1.258 1.136a13.803 13.803 0 0 1-12.78 5.26A13.563 13.563 0 0 1 3.981 17.275 13.931 13.931 0 0 1 9.128 3.81a.266.266 0 0 1 .164-.06c.056.001.11.019.157.05a.206.206 0 0 1 .097.245 15.777 15.777 0 0 0-.332 6.557A15.033 15.033 0 0 0 21.4 22.787c2.182.354 4.415.245 6.551-.322a.219.219 0 0 1 .252.098.249.249 0 0 1-.009.306Z"/></svg>