<svg xmlns="http://www.w3.org/2000/svg" width="32" height="32" viewBox="0 0 32 32"><path d="M28.8 23.606a4.74 4.74 0 0 0-2.327-2.988 2 2 0 0 0-.128-.056s-.867-.319-1.592-.524c-.062-.017-.397-.168-.813-1.38l-.74-2.035a7.3 7.3 0 0 0-2.631-3.445 5.3 5.3 0 0 0-.866-.47 6 6 0 1 0-7.413.003q-.45.193-.858.467a7.33 7.33 0 0 0-2.646 3.481l-.731 2.016c-.412 1.196-.745 1.346-.807 1.363-.725.205-1.592.524-1.592.524a1 1 0 0 0-.127.056 4.73 4.73 0 0 0-2.33 2.986 5.18 5.18 0 0 0 .41 3.864 4.53 4.53 0 0 0 2.512 2.284 4.47 4.47 0 0 0 3.438-.209l3.967-1.933a5.32 5.32 0 0 1 4.947 0l3.968 1.933a4.4 4.4 0 0 0 5.95-2.074 5.18 5.18 0 0 0 .408-3.863M15.993 4a4 4 0 1 1 0 8 4 4 0 0 1 0-8M26.63 26.528a2.58 2.58 0 0 1-1.406 1.335 2.47 2.47 0 0 1-1.908-.119l-3.967-1.932a7.31 7.31 0 0 0-6.7 0l-3.965 1.932a2.47 2.47 0 0 1-1.91.117 2.58 2.58 0 0 1-1.404-1.333 3.2 3.2 0 0 1-.249-2.377 2.84 2.84 0 0 1 1.293-1.738 24 24 0 0 1 1.38-.451c1.236-.352 1.82-1.673 2.147-2.621l.712-1.964a5.34 5.34 0 0 1 1.916-2.555A6.8 6.8 0 0 1 16 14a6.8 6.8 0 0 1 3.431.822 5.3 5.3 0 0 1 1.903 2.52l.72 1.982c.331.964.913 2.285 2.153 2.638.542.154 1.171.377 1.38.451a2.84 2.84 0 0 1 1.292 1.736 3.2 3.2 0 0 1-.249 2.378M19 21h-6a1 1 0 0 0 0 2h6a1 1 0 1 0 0-2"/></svg>