<svg xmlns="http://www.w3.org/2000/svg" width="32" height="32" viewBox="0 0 32 32"><path d="M28.563 23.674a4.504 4.504 0 0 0-2.208-2.835.72.72 0 0 0-.097-.043s-.857-.314-1.573-.518c-.188-.052-.564-.32-.98-1.534l-.737-2.026a7.06 7.06 0 0 0-2.54-3.335 5.376 5.376 0 0 0-1.222-.616 5.75 5.75 0 1 0-6.42.003 5.373 5.373 0 0 0-1.212.613 7.088 7.088 0 0 0-2.553 3.361l-.73 2.012c-.414 1.201-.789 1.47-.974 1.523-.717.203-1.575.517-1.575.517a.667.667 0 0 0-.095.043 4.501 4.501 0 0 0-2.21 2.835 4.93 4.93 0 0 0 .39 3.678 4.294 4.294 0 0 0 2.376 2.164 4.215 4.215 0 0 0 3.247-.198l3.966-1.932A5.897 5.897 0 0 1 16 26.75c.898.012 1.781.23 2.582.635l3.968 1.934a4.22 4.22 0 0 0 3.246.197 4.301 4.301 0 0 0 2.378-2.164c.602-1.13.74-2.448.389-3.678ZM11.744 8a4.25 4.25 0 1 1 8.5 0 4.25 4.25 0 0 1-8.5 0Zm15.107 18.646a2.817 2.817 0 0 1-1.546 1.452 2.732 2.732 0 0 1-2.099-.128l-3.966-1.934a7.067 7.067 0 0 0-6.48.001L8.792 27.97a2.721 2.721 0 0 1-2.1.129 2.808 2.808 0 0 1-1.542-1.452 3.435 3.435 0 0 1-.27-2.564 3.072 3.072 0 0 1 1.429-1.896c.186-.068.848-.303 1.416-.464 1.123-.32 1.67-1.568 1.98-2.466l.714-1.974a5.583 5.583 0 0 1 2.007-2.665A7.028 7.028 0 0 1 16 13.75a7.028 7.028 0 0 1 3.573.867 5.548 5.548 0 0 1 1.996 2.639l.722 1.987c.312.91.858 2.159 1.985 2.479.566.16 1.227.396 1.415.464a3.072 3.072 0 0 1 1.428 1.896 3.44 3.44 0 0 1-.268 2.564Z"/><path d="M19 21.25h-6a.75.75 0 1 0 0 1.5h6a.75.75 0 1 0 0-1.5Z"/></svg>