<svg xmlns="http://www.w3.org/2000/svg" width="32" height="32" viewBox="0 0 32 32"><path d="M29.451 21.733a1.71 1.71 0 0 0-1.88-.72 14.2 14.2 0 0 1-5.913.295 13.53 13.53 0 0 1-10.966-10.965c-.315-1.973-.21-3.99.305-5.92a1.705 1.705 0 0 0-.719-1.873 1.76 1.76 0 0 0-2.064.07 15.44 15.44 0 0 0-5.708 14.927A14.98 14.98 0 0 0 17.249 29.75a15.3 15.3 0 0 0 12.136-5.97 1.74 1.74 0 0 0 .066-2.048m-1.258 1.136a13.8 13.8 0 0 1-12.78 5.26A13.56 13.56 0 0 1 3.981 17.275 13.93 13.93 0 0 1 9.128 3.81a.27.27 0 0 1 .164-.06q.085.003.157.05a.206.206 0 0 1 .097.245 15.8 15.8 0 0 0-.332 6.557A15.03 15.03 0 0 0 21.4 22.787c2.182.354 4.415.245 6.551-.322a.22.22 0 0 1 .252.098.25.25 0 0 1-.009.306"/></svg>