<svg xmlns="http://www.w3.org/2000/svg" width="32" height="32" viewBox="0 0 32 32"><path d="M6.5 8a1.5 1.5 0 1 1 3 0 1.5 1.5 0 0 1-3 0ZM8 5.5a2.5 2.5 0 1 0 0 5 2.5 2.5 0 0 0 0-5Zm6 2a.5.5 0 0 0 0 1h12a.5.5 0 0 0 0-1H14Zm0 8a.5.5 0 0 0 0 1h12a.5.5 0 0 0 0-1H14Zm-.5 8.5a.5.5 0 0 1 .5-.5h12a.5.5 0 0 1 0 1H14a.5.5 0 0 1-.5-.5Zm-7 0a1.5 1.5 0 1 1 3 0 1.5 1.5 0 0 1-3 0ZM8 21.5a2.5 2.5 0 1 0 0 5 2.5 2.5 0 0 0 0-5Zm0-7a1.5 1.5 0 1 0 0 3 1.5 1.5 0 0 0 0-3ZM5.5 16a2.5 2.5 0 1 1 5 0 2.5 2.5 0 0 1-5 0Z"/></svg>