<svg xmlns="http://www.w3.org/2000/svg" width="32" height="32" viewBox="0 0 32 32"><path d="M6.75 8a1.25 1.25 0 1 1 2.5 0 1.25 1.25 0 0 1-2.5 0M8 5.25a2.75 2.75 0 1 0 0 5.5 2.75 2.75 0 0 0 0-5.5m6 2a.75.75 0 0 0 0 1.5h12a.75.75 0 0 0 0-1.5zm0 8a.75.75 0 0 0 0 1.5h12a.75.75 0 0 0 0-1.5zM13.25 24a.75.75 0 0 1 .75-.75h12a.75.75 0 0 1 0 1.5H14a.75.75 0 0 1-.75-.75m-6.5 0a1.25 1.25 0 1 1 2.5 0 1.25 1.25 0 0 1-2.5 0M8 21.25a2.75 2.75 0 1 0 0 5.5 2.75 2.75 0 0 0 0-5.5m0-6.5a1.25 1.25 0 1 0 0 2.5 1.25 1.25 0 0 0 0-2.5M5.25 16a2.75 2.75 0 1 1 5.5 0 2.75 2.75 0 0 1-5.5 0"/></svg>