<svg xmlns="http://www.w3.org/2000/svg" width="32" height="32" viewBox="0 0 32 32"><path fill-rule="evenodd" d="M16.001 4a.5.5 0 0 0-.5.5v8.498a1 1 0 1 1-2 0V5.5a.5.5 0 1 0-.998 0v9.498a1 1 0 1 1-2 0v-6.5a.5.5 0 0 0-1 0L9.5 12.867v2.629a6323.753 6323.753 0 0 0 0 4.1V19.968l.001.029v1.5c0 1.723.687 3.381 1.905 4.6a6.496 6.496 0 0 0 11.091-4.6V16.276l.002-1.634c0-1.186 0-2.393-.004-2.611-.268.068-.491.241-.673.628-.2.425-.324 1.062-.324 1.908v2.44a1 1 0 0 1-.996 1A3.011 3.011 0 0 0 17.5 21.01a1 1 0 1 1-2-.007 5.013 5.013 0 0 1 3.998-4.892V5.5a.5.5 0 1 0-.998 0v7.498a1 1 0 1 1-2 0V4.5A.5.5 0 0 0 16 4Zm2.112-.837a2.5 2.5 0 0 0-4.223 0A2.499 2.499 0 0 0 10.502 5.5v.55a2.499 2.499 0 0 0-2.267.681A2.502 2.502 0 0 0 7.502 8.5v4.184c-.002 3.335-.003 6.938 0 7.314v1.5a8.496 8.496 0 1 0 16.996 0V16.277l.002-1.635c0-1.196 0-2.464-.004-2.664-.011-.563-.192-1.05-.486-1.368a.41.41 0 0 1-.009-.01c-.055-.062-.266-.298-.618-.448-.39-.166-.843-.192-1.346-.068-.191.046-.37.11-.538.186V5.5a2.5 2.5 0 0 0-3.386-2.337Z" clip-rule="evenodd"/></svg>