<svg xmlns="http://www.w3.org/2000/svg" width="32" height="32" viewBox="0 0 32 32"><path d="M16.001 3.75a.75.75 0 0 1 .75.75v8.498a.75.75 0 0 0 1.5 0V5.5a.75.75 0 1 1 1.498 0v10.819a4.761 4.761 0 0 0-3.998 4.685.75.75 0 0 0 1.5.005 3.263 3.263 0 0 1 3.25-3.252.75.75 0 0 0 .748-.75v-2.44c0-.864.125-1.543.347-2.013.211-.448.493-.681.855-.768l.005-.002a.723.723 0 0 1 .235-.023l.014.015a.692.692 0 0 1 .041.236c.003.178.004 1.418.004 2.63l-.001 1.635v5.22a6.746 6.746 0 0 1-11.518 4.777 6.763 6.763 0 0 1-1.979-4.778v-1.621l-.001-.28V12.866l.001-4.367a.752.752 0 0 1 1.282-.53c.14.14.22.331.22.53v6.499a.75.75 0 0 0 1.5 0V5.5a.75.75 0 1 1 1.498 0v7.498a.75.75 0 0 0 1.5 0V4.5a.75.75 0 0 1 .75-.75Zm2.006-.269a2.25 2.25 0 0 0-4.011 0A2.249 2.249 0 0 0 10.753 5.5v.878a2.248 2.248 0 0 0-2.34.53c-.42.42-.66.992-.66 1.59l-.002 4.228c-.001 3.35-.002 6.95.001 7.272v1.498c0 2.188.871 4.291 2.418 5.838a8.246 8.246 0 0 0 14.078-5.838v-5.218l.002-1.635c0-1.199 0-2.463-.004-2.66-.01-.515-.176-.939-.42-1.203l-.01-.01c-.053-.06-.232-.26-.531-.387-.331-.141-.728-.17-1.189-.055-.318.077-.6.203-.847.37V5.5a2.25 2.25 0 0 0-3.242-2.019Z"/></svg>