<svg xmlns="http://www.w3.org/2000/svg" width="32" height="32" viewBox="0 0 32 32"><path fill-rule="evenodd" d="M16.001 3.5a1 1 0 0 0-1 1v8.498a.5.5 0 0 1-1 0V5.5a1 1 0 1 0-1.998 0v9.498a.5.5 0 1 1-1 0v-6.5a1 1 0 1 0-2 0L9 12.867v2.629a6324.413 6324.413 0 0 0 0 4.1V19.955l.001.026v1.516c0 1.856.74 3.64 2.052 4.953a6.996 6.996 0 0 0 11.944-4.954V16.276L23 14.644c0-1.21 0-2.455-.004-2.635-.005-.253-.078-.365-.087-.379-.001-.001-.001-.001 0 0l-.006-.007c-.048-.052-.066-.072-.109-.09-.038-.016-.15-.052-.399.01h-.003c-.45.11-.785.404-1.022.905-.244.517-.37 1.237-.37 2.12v2.44a.5.5 0 0 1-.499.5 3.511 3.511 0 0 0-3.5 3.501.5.5 0 1 1-1-.003A4.512 4.512 0 0 1 20 16.537V5.5a1 1 0 1 0-1.998 0v7.498a.5.5 0 1 1-1 0V4.5a1 1 0 0 0-1-1Zm1.887.338a2 2 0 0 0-3.773 0A1.999 1.999 0 0 0 11.003 5.5v1.267a1.999 1.999 0 0 0-2.413.318 2.002 2.002 0 0 0-.588 1.414v4.272C8 16.14 7.998 19.742 8.001 20v1.496c0 2.122.845 4.161 2.345 5.661a7.996 7.996 0 0 0 13.651-5.66V16.276L24 14.644c0-1.2 0-2.461-.004-2.654-.01-.469-.16-.83-.353-1.04l-.01-.01a1.258 1.258 0 0 0-.446-.326c-.273-.117-.613-.146-1.031-.042a2.347 2.347 0 0 0-1.157.661V5.5a2 2 0 0 0-3.111-1.662Z" clip-rule="evenodd"/></svg>