<svg xmlns="http://www.w3.org/2000/svg" width="32" height="32" viewBox="0 0 32 32"><path d="M16.5 29.5a8.009 8.009 0 0 1-8-8V8.496a2 2 0 0 1 3-1.728V5.5a1.999 1.999 0 0 1 3.113-1.661 2 2 0 0 1 3.775 0 2 2 0 0 1 3.112 1.66v5.722a2.365 2.365 0 0 1 1.159-.654A1.374 1.374 0 0 1 24.5 12v9.5a8.009 8.009 0 0 1-8 8Zm-6-22a1 1 0 0 0-1 .996V21.5a7 7 0 1 0 14 0V12a.57.57 0 0 0-.134-.438.615.615 0 0 0-.473-.022c-1.152.277-1.393 1.799-1.393 3.025v2.44a.497.497 0 0 1-.5.5 3.504 3.504 0 0 0-3.5 3.5.5.5 0 0 1-1 0 4.507 4.507 0 0 1 4-4.472V5.5a1 1 0 1 0-2 0V13a.5.5 0 0 1-1 0V4.5a1 1 0 1 0-2 0V13a.5.5 0 0 1-1 0V5.5a1 1 0 1 0-2 0V15a.5.5 0 0 1-1 0V8.5a1.002 1.002 0 0 0-1-1Z"/></svg>