<svg xmlns="http://www.w3.org/2000/svg" width="32" height="32" viewBox="0 0 32 32"><path d="M16.024 30h-.007a8.304 8.304 0 0 1-8.528-7.973c-.007-.25-.04-14.079-.04-14.079a2.748 2.748 0 0 1 2.61-2.85c.239-.005.476.03.704.101a2.688 2.688 0 0 1 2.544-2.219h.01c.374 0 .744.086 1.08.252A2.57 2.57 0 0 1 16.54 2a2.465 2.465 0 0 1 1.779.746c.215.215.393.463.529.735.304-.115.625-.18.95-.194a2.498 2.498 0 0 1 1.769.746c.55.562.856 1.318.85 2.104V11.7c.44.017.866.155 1.232.398a1.964 1.964 0 0 1 .909 1.641v8.114a7.91 7.91 0 0 1-2.521 5.781A8.693 8.693 0 0 1 16.024 30Zm-6.536-8.046A6.395 6.395 0 0 0 15.998 28h.006a6.716 6.716 0 0 0 4.658-1.818 5.929 5.929 0 0 0 1.897-4.329V13.74a.603.603 0 0 0-.402-.013 2.45 2.45 0 0 0-1.768 2.383l-.006 2.703a1 1 0 0 1-.75.966 3.674 3.674 0 0 0-2.723 3.427 1 1 0 0 1-2 0 5.52 5.52 0 0 1 3.475-5.103l.004-1.993a4.269 4.269 0 0 1 2.03-3.726V6.137a.971.971 0 0 0-.262-.687.516.516 0 0 0-.358-.163h-.002c-.334 0-.617.39-.617.85v6.148a1 1 0 0 1-2 0l-.01-7.434a.972.972 0 0 0-.262-.688.516.516 0 0 0-.357-.163h-.002c-.334 0-.617.39-.617.85v8.367a1 1 0 0 1-2 0V5.723a.94.94 0 0 0-.257-.58.515.515 0 0 0-.358-.164h-.002c-.334.001-.617.39-.617.85l-.01 7.357a1 1 0 0 1-1 1h-.001a1 1 0 0 1-1-1V7.947a.97.97 0 0 0-.261-.688.516.516 0 0 0-.357-.163h-.002c-.334.001-.618.391-.618.851 0 0 .033 13.78.039 14.006Z"/></svg>