<svg xmlns="http://www.w3.org/2000/svg" width="32" height="32" viewBox="0 0 32 32"><path d="M15.295 3.793A1 1 0 0 1 17 4.5v8.498a.5.5 0 1 0 1 0V5.5a1 1 0 1 1 1.998 0v11.037a4.51 4.51 0 0 0-3.998 4.468.5.5 0 1 0 1 .003 3.51 3.51 0 0 1 3.5-3.5.5.5 0 0 0 .498-.5v-2.44c0-.884.128-1.604.371-2.121.237-.501.572-.796 1.022-.904l.003-.001c.249-.062.362-.026.4-.01.041.018.06.038.108.09l.005.006v.001c.01.014.083.126.088.379.004.18.004 1.424.004 2.635l-.001 1.634v5.22a6.996 6.996 0 0 1-11.944 4.954A7.01 7.01 0 0 1 9 21.495v-1.621L9 19.595v-6.73L9.002 8.5a1.002 1.002 0 0 1 1.708-.707 1 1 0 0 1 .293.707v6.499a.5.5 0 1 0 1 0V5.5a1 1 0 1 1 1.999 0v7.498a.5.5 0 0 0 1 0V4.5a1 1 0 0 1 .293-.707"/></svg>