<svg xmlns="http://www.w3.org/2000/svg" width="32" height="32" viewBox="0 0 32 32"><path d="M25 12v9c0 2.48-1.04 4.87-2.85 6.57A8.9 8.9 0 0 1 16.01 30c-.2 0-.4-.01-.61-.02-4.71-.31-8.4-4.37-8.4-9.25V8c0-.55.45-1 1-1s1 .45 1 1v6c0 .55.45 1 1 1s1-.45 1-1V4c0-.55.45-1 1-1s1 .45 1 1v8c0 .55.45 1 1 1s1-.45 1-1V3c0-.55.45-1 1-1s1 .45 1 1v9c0 .55.45 1 1 1s1-.45 1-1V4c0-.55.45-1 1-1s1 .45 1 1v11c0 .55-.45 1-1 1-2.76 0-5 2.24-5 5 0 .55.45 1 1 1s1-.45 1-1c0-1.65 1.35-3 3-3s3-1.35 3-3v-3c0-.55.45-1 1-1s1 .45 1 1Z"/></svg>