<svg xmlns="http://www.w3.org/2000/svg" width="32" height="32" viewBox="0 0 32 32"><path d="M16 29.5C8.544 29.5 2.5 23.456 2.5 16S8.544 2.5 16 2.5 29.5 8.544 29.5 16 23.456 29.5 16 29.5m5.063-10.687V13.75a.564.564 0 0 0-.563-.562.564.564 0 0 0-.562.562v1.688c0 .928-.76 1.687-1.688 1.687s-1.687.76-1.687 1.688c0 .309-.254.562-.563.562a.564.564 0 0 1-.562-.562A2.814 2.814 0 0 1 18.25 16c.31 0 .563-.253.563-.562V9.25a.564.564 0 0 0-.563-.562.564.564 0 0 0-.562.562v4.5c0 .31-.254.563-.563.563a.564.564 0 0 1-.562-.563V8.688A.564.564 0 0 0 16 8.124a.564.564 0 0 0-.562.563v5.062c0 .31-.254.563-.563.563a.564.564 0 0 1-.562-.563v-4.5a.564.564 0 0 0-.563-.562.564.564 0 0 0-.562.562v5.625c0 .31-.254.563-.563.563a.564.564 0 0 1-.562-.563V11.5a.564.564 0 0 0-.563-.562.564.564 0 0 0-.562.562v7.16c0 2.746 2.075 5.03 4.724 5.204h.017q.167.01.327.011a5 5 0 0 0 3.453-1.367 5.09 5.09 0 0 0 1.604-3.695"/></svg>