<svg xmlns="http://www.w3.org/2000/svg" width="32" height="32" viewBox="0 0 32 32"><path fill-rule="evenodd" d="M16.001 3.75a.75.75 0 0 0-.75.75v8.498a.75.75 0 0 1-1.5 0V5.5a.75.75 0 1 0-1.498 0v9.498a.75.75 0 0 1-1.5 0v-6.5a.75.75 0 1 0-1.5 0l-.002 4.368v2.629a6202.32 6202.32 0 0 0 0 4.1v.377a.527.527 0 0 0 .001.025v1.5c0 1.79.713 3.51 1.978 4.776a6.746 6.746 0 0 0 11.518-4.777V16.277l.002-1.634c0-1.213 0-2.453-.004-2.63a.692.692 0 0 0-.041-.237l-.014-.015a.723.723 0 0 0-.235.023l-.005.002c-.362.087-.644.32-.855.768-.222.47-.347 1.15-.347 2.014v2.44a.75.75 0 0 1-.747.75 3.261 3.261 0 0 0-3.251 3.251.75.75 0 1 1-1.5-.005 4.762 4.762 0 0 1 3.998-4.685V5.499a.75.75 0 1 0-1.498 0V13a.75.75 0 0 1-1.5 0v-8.5A.75.75 0 0 0 16 3.75Zm2.006-.269a2.25 2.25 0 0 0-4.011 0A2.249 2.249 0 0 0 10.753 5.5v.878a2.248 2.248 0 0 0-2.34.53c-.42.42-.66.992-.66 1.59l-.002 4.228c-.001 3.35-.002 6.95.001 7.272v1.498c0 2.188.871 4.291 2.418 5.838a8.246 8.246 0 0 0 14.078-5.838v-5.218l.002-1.635c0-1.199 0-2.463-.004-2.66-.01-.515-.176-.939-.42-1.203l-.01-.01c-.053-.06-.232-.26-.531-.387-.331-.141-.728-.17-1.189-.055-.318.077-.6.203-.847.37V5.5a2.25 2.25 0 0 0-3.242-2.019Z" clip-rule="evenodd"/></svg>