<svg xmlns="http://www.w3.org/2000/svg" width="32" height="32" viewBox="0 0 32 32"><path d="M16.001 4a.5.5 0 0 1 .5.5v8.498a1 1 0 1 0 2 0V5.5a.5.5 0 0 1 .998 0v10.61a5.01 5.01 0 0 0-3.998 4.893 1 1 0 0 0 2 .007 3.013 3.013 0 0 1 3.002-3.003 1 1 0 0 0 .996-1v-2.44c0-.845.123-1.482.324-1.907.182-.387.405-.56.673-.628.003.218.004 1.425.004 2.61l-.001 1.634v5.22a6.496 6.496 0 0 1-11.09 4.6 6.51 6.51 0 0 1-1.907-4.6v-1.622l-.001-.28v-6.728L9.502 8.5a.502.502 0 0 1 .855-.354.5.5 0 0 1 .146.354v6.499a1 1 0 1 0 2 0V5.5a.5.5 0 1 1 .999 0v7.498a1 1 0 1 0 2 0V4.5a.5.5 0 0 1 .5-.5m2.112-.837a2.5 2.5 0 0 0-4.223 0A2.5 2.5 0 0 0 10.503 5.5v.55a2.5 2.5 0 0 0-2.267.681A2.5 2.5 0 0 0 7.502 8.5v4.184c-.002 3.335-.003 6.938 0 7.314v1.5a8.496 8.496 0 1 0 16.996 0v-5.219l.002-1.635c0-1.196 0-2.464-.004-2.664-.011-.563-.192-1.05-.486-1.368l-.009-.01c-.055-.062-.266-.298-.618-.448-.39-.166-.843-.192-1.346-.068q-.286.07-.538.186V5.5a2.5 2.5 0 0 0-3.386-2.337"/></svg>