<svg xmlns="http://www.w3.org/2000/svg" width="32" height="32" viewBox="0 0 32 32"><path d="M16.5 29.75a8.26 8.26 0 0 1-8.25-8.25V8.496a2.25 2.25 0 0 1 3-2.117v-.88a2.251 2.251 0 0 1 3.245-2.018 2.249 2.249 0 0 1 4.011 0A2.25 2.25 0 0 1 21.75 5.5v5.198c.259-.174.547-.301.85-.374A1.62 1.62 0 0 1 24.75 12v9.5a8.26 8.26 0 0 1-8.25 8.25Zm-6-22a.75.75 0 0 0-.75.746V21.5a6.75 6.75 0 1 0 13.5 0V12a.63.63 0 0 0-.025-.242c-.008.001-.038-.003-.067-.003a.884.884 0 0 0-.207.027c-.993.24-1.2 1.646-1.2 2.783v2.44a.75.75 0 0 1-.75.75 3.254 3.254 0 0 0-3.25 3.25.75.75 0 1 1-1.5 0 4.758 4.758 0 0 1 4-4.69V5.5a.75.75 0 1 0-1.5 0V13a.75.75 0 0 1-1.5 0V4.5a.75.75 0 1 0-1.5 0V13a.75.75 0 0 1-1.5 0V5.5a.75.75 0 1 0-1.5 0V15a.75.75 0 0 1-1.5 0V8.5a.752.752 0 0 0-.752-.75Z"/></svg>