<svg xmlns="http://www.w3.org/2000/svg" width="32" height="32" viewBox="0 0 32 32"><path d="M29.595 13.928a.75.75 0 1 0-1.483.225 12.235 12.235 0 1 1-9.304-10.08.75.75 0 1 0 .343-1.46 13.752 13.752 0 1 0 10.444 11.315M11.5 14.75a1.25 1.25 0 1 0 0-2.5 1.25 1.25 0 0 0 0 2.5M20.5 14.75a1.25 1.25 0 1 0 0-2.5 1.25 1.25 0 0 0 0 2.5M21 7.75h3.25V11a.75.75 0 0 0 1.5 0V7.75H29a.75.75 0 1 0 0-1.5h-3.25V3a.75.75 0 1 0-1.5 0v3.25H21a.75.75 0 0 0 0 1.5M9.723 18.303a.75.75 0 0 0-.42.974A7.25 7.25 0 0 0 22.7 19.27a.75.75 0 1 0-1.4-.541 5.75 5.75 0 0 1-10.603-.006.75.75 0 0 0-.974-.42"/></svg>