<svg xmlns="http://www.w3.org/2000/svg" width="32" height="32" viewBox="0 0 32 32"><path d="M29.842 13.891a1 1 0 0 0-1.977.299 11.987 11.987 0 1 1-9.114-9.873 1 1 0 0 0 .457-1.948 14.002 14.002 0 1 0 10.634 11.522M11.5 15a1.5 1.5 0 1 0 0-3 1.5 1.5 0 0 0 0 3M20.5 15a1.5 1.5 0 1 0 0-3 1.5 1.5 0 0 0 0 3M21 8h3v3a1 1 0 1 0 2 0V8h3a1 1 0 0 0 0-2h-3V3a1 1 0 0 0-2 0v3h-3a1 1 0 1 0 0 2M9.07 19.37a7.499 7.499 0 0 0 13.863-.009 1 1 0 1 0-1.866-.72 5.5 5.5 0 0 1-10.138-.01 1.002 1.002 0 0 0-1.636-.36 1 1 0 0 0-.222 1.099"/></svg>