<svg xmlns="http://www.w3.org/2000/svg" width="32" height="32" viewBox="0 0 32 32"><path d="M27.737 11.742a5.98 5.98 0 0 1-7.105-8.406 13.556 13.556 0 1 0 8.032 8.032q-.448.226-.927.373m-4.804 7.619a7.499 7.499 0 0 1-13.862.009 1 1 0 1 1 1.858-.738 5.5 5.5 0 0 0 10.138.008 1 1 0 0 1 1.866.72M13 13.5a1.5 1.5 0 1 1-2.999 0 1.5 1.5 0 0 1 2.999 0m7.5-1.5a1.5 1.5 0 1 1 0 3 1.5 1.5 0 0 1 0-3M29 5h-2V3a1 1 0 1 0-2 0v2h-2a1 1 0 0 0-1 1l.001.005A1 1 0 0 0 23 7h2v2a1 1 0 0 0 2 0V7h2a1 1 0 1 0 0-2"/></svg>