<svg xmlns="http://www.w3.org/2000/svg" width="32" height="32" viewBox="0 0 32 32"><path d="M29.348 13.965a.5.5 0 0 0-.989.15A12.486 12.486 0 1 1 18.865 3.83a.5.5 0 0 0 .23-.974 13.487 13.487 0 1 0 10.253 11.11Z"/><path d="M11.5 14.5a1 1 0 1 0 0-2 1 1 0 0 0 0 2ZM20.5 14.5a1 1 0 1 0 0-2 1 1 0 0 0 0 2ZM21 7.5h3.5V11a.5.5 0 0 0 1 0V7.5H29a.5.5 0 1 0 0-1h-3.5V3a.5.5 0 0 0-1 0v3.5H21a.5.5 0 0 0 0 1ZM9.815 18.535a.5.5 0 0 0-.28.65 7 7 0 0 0 12.931-.005.5.5 0 1 0-.932-.36 6 6 0 0 1-11.07-.004.502.502 0 0 0-.649-.28Z"/></svg>