<svg xmlns="http://www.w3.org/2000/svg" width="32" height="32" viewBox="0 0 32 32"><path d="M12.281 20.5h-1.853A7.008 7.008 0 0 1 9 16a7.019 7.019 0 0 1 1.423-4.5h1.867A2.81 2.81 0 0 0 15 8.668v-3.44A2.731 2.731 0 0 0 12.271 2.5h-1.466C8.432 2.5 4 6.46 4 16s4.432 13.5 6.805 13.5h1.466A2.732 2.732 0 0 0 15 26.771v-3.569a2.713 2.713 0 0 0-2.719-2.702ZM14 26.771a1.73 1.73 0 0 1-1.729 1.729h-1.466C9.097 28.5 5 24.903 5 16S9.097 3.5 10.805 3.5h1.466A1.73 1.73 0 0 1 14 5.229v3.439a1.82 1.82 0 0 1-1.71 1.832h-1.953C9.337 10.5 8 13.219 8 16s1.34 5.5 2.342 5.5h1.94A1.713 1.713 0 0 1 14 23.202v3.57ZM19.146 10.36l4 4a.5.5 0 0 0 .707-.706l-3.146-3.147H29.5a.5.5 0 0 0 0-1h-8.793l3.146-3.146a.5.5 0 1 0-.707-.707l-4 4a.498.498 0 0 0 0 .707Z"/></svg>