<svg xmlns="http://www.w3.org/2000/svg" width="32" height="32" viewBox="0 0 32 32"><path d="M12.281 20.25h-1.755A7.1 7.1 0 0 1 9.25 16a7.1 7.1 0 0 1 1.273-4.25h1.767a3.063 3.063 0 0 0 2.96-3.082v-3.44a2.98 2.98 0 0 0-2.979-2.978h-1.466C8.345 2.25 3.75 6.283 3.75 16s4.595 13.75 7.055 13.75h1.467a2.98 2.98 0 0 0 2.978-2.979v-3.569a2.964 2.964 0 0 0-2.969-2.952m1.469 6.522a1.48 1.48 0 0 1-1.479 1.478h-1.466C9.17 28.25 5.25 24.726 5.25 16S9.17 3.75 10.805 3.75h1.467a1.48 1.48 0 0 1 1.478 1.479v3.439a1.565 1.565 0 0 1-1.46 1.582h-1.953c-1.233 0-2.587 3.01-2.587 5.75s1.356 5.75 2.592 5.75h1.94a1.46 1.46 0 0 1 1.468 1.452zM18.97 10.53l4 4a.75.75 0 1 0 1.06-1.061l-2.72-2.72h8.19a.75.75 0 1 0 0-1.5h-8.19l2.72-2.72a.75.75 0 0 0-.242-1.224.75.75 0 0 0-.818.164l-4 4a.75.75 0 0 0 0 1.06"/></svg>