<svg xmlns="http://www.w3.org/2000/svg" width="32" height="32" viewBox="0 0 32 32"><path fill-rule="evenodd" d="M14.092 20.152a2.379 2.379 0 0 1-1.59.597 2.379 2.379 0 0 1-1.59-.597 1.945 1.945 0 0 1-.66-1.438v-5.43c0-.539.236-1.057.659-1.438a2.376 2.376 0 0 1 1.59-.597c.597 0 1.17.215 1.591.597.422.381.66.9.66 1.439v5.429c-.001.54-.239 1.057-.66 1.438Zm-2.12-7.347c-.141.127-.22.3-.22.48v5.429c0 .18.079.352.219.48.14.126.332.198.53.198.2 0 .39-.072.53-.199a.65.65 0 0 0 .22-.48v-5.428c0-.18-.079-.353-.22-.48a.792.792 0 0 0-.53-.199.792.792 0 0 0-.53.2ZM17.91 11.847a2.378 2.378 0 0 1 1.59-.597c.596 0 1.168.215 1.59.597.422.381.66.898.66 1.438v5.429c0 .267-.058.532-.17.779a2.035 2.035 0 0 1-.488.66 2.28 2.28 0 0 1-.73.442 2.457 2.457 0 0 1-1.722 0 2.28 2.28 0 0 1-.73-.442 2.036 2.036 0 0 1-.488-.66 1.868 1.868 0 0 1-.172-.78v-5.428c.001-.54.238-1.057.66-1.438Zm2.12 7.346c.141-.127.22-.3.22-.48v-5.428a.647.647 0 0 0-.22-.48.792.792 0 0 0-.53-.199.792.792 0 0 0-.53.2c-.14.126-.22.299-.22.479v5.429c0 .18.08.352.22.48.14.126.332.198.53.198.2 0 .39-.072.53-.199Z" clip-rule="evenodd"/><path fill-rule="evenodd" d="M8.361 4.568a13.75 13.75 0 0 1 7.64-2.318A13.765 13.765 0 0 1 29.75 16 13.75 13.75 0 1 1 8.36 4.568Zm.834 21.618A12.25 12.25 0 0 0 16 28.25 12.263 12.263 0 0 0 28.25 16 12.25 12.25 0 1 0 9.195 26.186Z" clip-rule="evenodd"/></svg>