<svg xmlns="http://www.w3.org/2000/svg" width="32" height="32" viewBox="0 0 32 32"><path d="M13.915 19.972a2.12 2.12 0 0 1-1.413.527 2.12 2.12 0 0 1-1.414-.527 1.72 1.72 0 0 1-.586-1.272v-5.4c0-.478.21-.936.585-1.273a2.12 2.12 0 0 1 1.415-.528c.53 0 1.039.19 1.414.528.375.337.585.795.585 1.272v5.4c0 .478-.211.935-.586 1.273m-2.12-7.31a.86.86 0 0 0-.293.637v5.4c0 .24.105.468.292.636.187.17.442.264.707.264.266 0 .52-.095.707-.263a.86.86 0 0 0 .293-.636v-5.4a.86.86 0 0 0-.292-.637 1.06 1.06 0 0 0-.707-.264c-.266 0-.52.095-.708.264M18.087 12.028A2.12 2.12 0 0 1 19.5 11.5c.53 0 1.038.19 1.413.527.376.338.587.795.587 1.272v5.4c0 .478-.21.936-.585 1.273a2.12 2.12 0 0 1-1.415.527c-.53 0-1.039-.19-1.414-.527a1.71 1.71 0 0 1-.585-1.272v-5.4c0-.478.21-.935.586-1.272m2.12 7.308a.86.86 0 0 0 .293-.636v-5.4a.86.86 0 0 0-.292-.637 1.06 1.06 0 0 0-.707-.264c-.266 0-.52.095-.708.264a.86.86 0 0 0-.293.636v5.4c0 .24.106.468.293.636.188.17.442.264.707.264.266 0 .52-.095.707-.263M8.5 27.225A13.5 13.5 0 0 0 16 29.5 13.515 13.515 0 0 0 29.5 16a13.5 13.5 0 1 0-21 11.225m.556-21.618A12.5 12.5 0 0 1 16 3.5 12.514 12.514 0 0 1 28.5 16 12.5 12.5 0 1 1 9.055 5.607"/></svg>