<svg xmlns="http://www.w3.org/2000/svg" width="32" height="32" viewBox="0 0 32 32"><path d="M14.269 20.333a2.64 2.64 0 0 1-1.767.666c-.663 0-1.299-.24-1.768-.666a2.17 2.17 0 0 1-.732-1.606v-5.455c0-.603.263-1.18.732-1.607a2.63 2.63 0 0 1 1.768-.666c.662 0 1.298.24 1.767.666.47.426.732 1.004.732 1.607v5.455c0 .602-.264 1.18-.732 1.606m-2.121-7.382a.43.43 0 0 0-.146.32v5.456c0 .12.052.236.146.32a.53.53 0 0 0 .354.134c.132 0 .259-.048.353-.133a.44.44 0 0 0 .146-.321v-5.455a.43.43 0 0 0-.146-.321.53.53 0 0 0-.354-.134.53.53 0 0 0-.353.134M17.733 11.666A2.64 2.64 0 0 1 19.5 11c.662 0 1.298.24 1.767.666S22 12.67 22 13.272v5.455c0 .603-.263 1.18-.732 1.607a2.63 2.63 0 0 1-1.768.665c-.663 0-1.298-.239-1.767-.665A2.17 2.17 0 0 1 17 18.727v-5.455c.001-.602.265-1.18.733-1.606m2.12 7.382a.44.44 0 0 0 .147-.321v-5.455a.44.44 0 0 0-.146-.321.53.53 0 0 0-.354-.134.53.53 0 0 0-.353.134.43.43 0 0 0-.146.32v5.456c0 .12.052.236.146.32a.53.53 0 0 0 .354.134c.132 0 .26-.048.353-.133M8.223 4.36A14 14 0 0 1 16 2a14.016 14.016 0 0 1 14 14A14 14 0 1 1 8.223 4.36m1.11 21.618A12 12 0 0 0 16 28a12.01 12.01 0 0 0 12-12 12 12 0 1 0-18.666 9.978"/></svg>