<svg xmlns="http://www.w3.org/2000/svg" width="32" height="32" viewBox="0 0 32 32"><path d="M25.6 10.644A10.925 10.925 0 0 1 27 16c-.002.616-.053 1.23-.152 1.837a1 1 0 1 0 1.972.324 12.903 12.903 0 0 0-1.767-8.97l-1.454 1.453ZM29.707 2.293a1 1 0 0 0-1.414 0l-3.858 3.858A12.924 12.924 0 0 0 6 7.71V4a1 1 0 0 0-2 0v6a1 1 0 0 0 1 1h6a1 1 0 0 0 0-2H7.528a10.946 10.946 0 0 1 15.496-1.438L7.562 23.025A10.929 10.929 0 0 1 5 16c.004-.616.056-1.232.157-1.84a1 1 0 0 0-1.974-.322A13.776 13.776 0 0 0 3 16a12.901 12.901 0 0 0 3.15 8.436l-3.857 3.857a1 1 0 0 0 1.414 1.414l26-26a.998.998 0 0 0 0-1.414ZM27 21h-6a1 1 0 1 0 0 2h3.472a10.961 10.961 0 0 1-13.828 2.6l-1.453 1.453A12.937 12.937 0 0 0 26 24.29V28a1 1 0 1 0 2 0v-6a.998.998 0 0 0-1-1Z"/></svg>