<svg xmlns="http://www.w3.org/2000/svg" width="32" height="32" viewBox="0 0 32 32"><path d="M16 3.5A13.268 13.268 0 0 0 5.5 8.69V4a.5.5 0 1 0-1 0v6a.5.5 0 0 0 .5.5h6a.5.5 0 1 0 0-1H6.137A12.213 12.213 0 0 1 16 4.5a11.513 11.513 0 0 1 11.341 13.42.498.498 0 0 0 .494.58.499.499 0 0 0 .493-.42A12.514 12.514 0 0 0 16 3.5ZM27 21.5h-6a.5.5 0 0 0 0 1h4.853a11.903 11.903 0 0 1-9.853 5A11.514 11.514 0 0 1 4.5 16c.004-.643.059-1.286.164-1.92a.5.5 0 0 0-.987-.16A13.113 13.113 0 0 0 3.5 16 12.514 12.514 0 0 0 16 28.5a12.944 12.944 0 0 0 10.5-5.203V28a.5.5 0 0 0 1 0v-6a.5.5 0 0 0-.5-.5Z"/></svg>