<svg xmlns="http://www.w3.org/2000/svg" width="32" height="32" viewBox="0 0 32 32"><path d="M25.6 10.644A10.9 10.9 0 0 1 27 16q-.003.925-.152 1.837a1 1 0 1 0 1.972.324 12.903 12.903 0 0 0-1.767-8.97zM29.707 2.293a1 1 0 0 0-1.414 0l-3.858 3.858A12.924 12.924 0 0 0 6 7.71V4a1 1 0 0 0-2 0v6a1 1 0 0 0 1 1h6a1 1 0 0 0 0-2H7.528a10.946 10.946 0 0 1 15.497-1.438L7.56 23.025A10.93 10.93 0 0 1 5 16q.006-.926.157-1.84a1 1 0 0 0-1.974-.322A14 14 0 0 0 3 16a12.9 12.9 0 0 0 3.15 8.436l-3.857 3.857a1 1 0 0 0 1.414 1.414l26-26a1 1 0 0 0 0-1.414M27 21h-6a1 1 0 1 0 0 2h3.472a10.96 10.96 0 0 1-13.827 2.6L9.19 27.053A12.94 12.94 0 0 0 26 24.29V28a1 1 0 1 0 2 0v-6a1 1 0 0 0-1-1"/></svg>