<svg xmlns="http://www.w3.org/2000/svg" width="32" height="32" viewBox="0 0 32 32"><path d="M16 3A12.966 12.966 0 0 0 6 7.71V4a1 1 0 1 0-2 0v6a1 1 0 0 0 1 1h6a1 1 0 0 0 0-2H7.529A10.991 10.991 0 0 1 27 16c-.002.616-.053 1.23-.153 1.838a1 1 0 0 0 1.636.923 1 1 0 0 0 .339-.6A13.015 13.015 0 0 0 16 3ZM27 21h-6a1 1 0 1 0 0 2h3.473A10.991 10.991 0 0 1 5 16c.004-.616.057-1.232.158-1.84a1 1 0 0 0-1.975-.322A13.777 13.777 0 0 0 3 16a12.99 12.99 0 0 0 23 8.29V28a1 1 0 1 0 2 0v-6a.998.998 0 0 0-1-1Z"/></svg>