<svg xmlns="http://www.w3.org/2000/svg" width="32" height="32" viewBox="0 0 32 32"><path d="M27 21.5h-6a.5.5 0 0 0 0 1h4.853a11.9 11.9 0 0 1-9.853 5c-2.53 0-4.987-.84-6.988-2.388l-.714.713A12.43 12.43 0 0 0 16 28.5a12.94 12.94 0 0 0 10.5-5.203V28a.5.5 0 1 0 1 0v-6a.5.5 0 0 0-.5-.5M29.354 2.647a.5.5 0 0 0-.707 0l-4.19 4.189A12.42 12.42 0 0 0 16 3.5 13.27 13.27 0 0 0 5.5 8.69V4a.5.5 0 1 0-1 0v6a.5.5 0 0 0 .5.5h6a.5.5 0 1 0 0-1H6.136A12.21 12.21 0 0 1 16 4.5a11.42 11.42 0 0 1 7.753 3.04L7.54 23.753A11.42 11.42 0 0 1 4.5 16c.004-.643.059-1.286.163-1.92a.5.5 0 0 0-.986-.16A13 13 0 0 0 3.5 16a12.42 12.42 0 0 0 3.336 8.458l-4.19 4.189a.5.5 0 1 0 .708.707l26-26a.5.5 0 0 0 0-.707M25.112 9.011a11.43 11.43 0 0 1 2.388 6.99 12 12 0 0 1-.159 1.918.498.498 0 0 0 .494.58.5.5 0 0 0 .492-.42q.169-1.032.173-2.079c0-2.795-.942-5.508-2.675-7.702z"/></svg>