<svg xmlns="http://www.w3.org/2000/svg" width="32" height="32" viewBox="0 0 32 32"><path d="M25.38 9.803A11.2 11.2 0 0 1 27.25 16q-.003.946-.156 1.88a.75.75 0 1 0 1.48.24q.173-1.053.176-2.12c.001-2.603-.8-5.143-2.293-7.274zM29.53 2.47a.75.75 0 0 0-1.06 0l-4.02 4.019a12.67 12.67 0 0 0-18.7 1.967V4a.75.75 0 0 0-1.5 0v6a.75.75 0 0 0 .75.75h6a.75.75 0 1 0 0-1.5H7.026a11.174 11.174 0 0 1 16.362-1.698L7.552 23.388A11.17 11.17 0 0 1 4.75 16q.006-.947.16-1.88a.75.75 0 0 0-1.48-.24A13.5 13.5 0 0 0 3.25 16a12.66 12.66 0 0 0 3.239 8.45l-4.02 4.02a.75.75 0 1 0 1.061 1.06l26-26a.75.75 0 0 0 0-1.06M27 21.25h-6a.75.75 0 1 0 0 1.5h3.974a11.2 11.2 0 0 1-15.17 2.63l-1.078 1.077a12.69 12.69 0 0 0 17.524-2.913V28a.75.75 0 1 0 1.5 0v-6a.75.75 0 0 0-.75-.75"/></svg>