<svg xmlns="http://www.w3.org/2000/svg" width="32" height="32" viewBox="0 0 32 32"><path d="M16.673 13.833a.765.765 0 0 0 .774-.787.81.81 0 0 0-.228-.559l-4.393-4.405c.901-.228 2.006-.343 3.161-.343 5.294 0 9.51 4.19 9.51 9.471 0 5.307-4.216 9.521-9.51 9.521-5.28 0-9.483-4.214-9.483-9.521 0-.47-.305-.813-.762-.813-.482 0-.812.343-.812.813 0 6.17 4.913 11.083 11.057 11.083 6.17 0 11.07-4.913 11.07-11.083 0-6.145-4.9-11.032-11.07-11.032-.964 0-1.917.101-2.793.292l4.037-4.025a.864.864 0 0 0 .216-.571c0-.444-.317-.8-.761-.8a.754.754 0 0 0-.584.241l-5.396 5.523c-.203.203-.305.419-.305.647 0 .216.076.42.305.648l5.408 5.472c.14.152.318.228.559.228Z"/></svg>