<svg xmlns="http://www.w3.org/2000/svg" width="32" height="32" viewBox="0 0 32 32"><path d="M23.868 19.875a3.016 3.016 0 0 0-4.26.003s-1.472 1.498-1.761 1.807a7.272 7.272 0 0 1-5.346-2.18 7.653 7.653 0 0 1-2.233-5.272c.348-.349 1.747-1.724 1.856-1.831l.007-.007a3.01 3.01 0 0 0 0-4.257L9.378 5.385a3.094 3.094 0 0 0-4.274 0L3.632 6.857C1.749 8.74 1.388 15.414 8.99 23.017c4.913 4.912 9.439 6.5 12.535 6.5a5.165 5.165 0 0 0 3.625-1.142l1.471-1.471a3.02 3.02 0 0 0 0-4.275l-2.753-2.754ZM21.25 12.5a1.25 1.25 0 1 0 0-2.5 1.25 1.25 0 0 0 0 2.5Zm-2.75-1.25a1.25 1.25 0 1 1-2.5 0 1.25 1.25 0 0 1 2.5 0Zm5.247-4.914a1 1 0 0 0-1.494 1.329l3.41 3.835-3.41 3.836a1 1 0 0 0 1.494 1.329l4-4.5a1 1 0 0 0 0-1.329l-4-4.5Z"/></svg>