<svg xmlns="http://www.w3.org/2000/svg" width="32" height="32" viewBox="0 0 32 32"><path d="M24.613 13.413 18.98 9.2a1 1 0 0 0-1.592.92l.833 6.985a1 1 0 0 0 1.493.748l1.534-.886.886 1.534a1 1 0 1 0 1.732-1l-.886-1.534 1.535-.886a1 1 0 0 0 .098-1.667m-3.497 1.32h-.002l-.001.002-1.086.627-.377-3.164 2.551 1.909zM25 4H7a5.006 5.006 0 0 0-5 5v10a5.006 5.006 0 0 0 5 5h4l-.599.799A2 2 0 0 0 12 28h8a2 2 0 0 0 1.599-3.2l-.6-.8H25a5.006 5.006 0 0 0 5-5V9a5.006 5.006 0 0 0-5-5M12.001 26l1.499-2h5l1.5 2zM28 19a3.003 3.003 0 0 1-3 3H7a3.003 3.003 0 0 1-3-3V9a3.003 3.003 0 0 1 3-3h18a3.003 3.003 0 0 1 3 3z"/></svg>