<svg xmlns="http://www.w3.org/2000/svg" width="32" height="32" viewBox="0 0 32 32"><path d="M18.83 9.4a.75.75 0 0 0-1.194.69l.833 6.984a.75.75 0 0 0 1.12.561l1.75-1.01 1.012 1.75a.75.75 0 0 0 1.298-.75l-1.01-1.75 1.75-1.011a.75.75 0 0 0 .075-1.25zm.994 6.368-.491-4.12 3.321 2.485zM25 4.25H7A4.755 4.755 0 0 0 2.25 9v10A4.756 4.756 0 0 0 7 23.75h4.5l-.898 1.2A1.75 1.75 0 0 0 12 27.75h8a1.75 1.75 0 0 0 1.398-2.8l-.899-1.2H25A4.756 4.756 0 0 0 29.75 19V9A4.755 4.755 0 0 0 25 4.25m-4.777 21.863a.24.24 0 0 1-.223.137h-8a.25.25 0 0 1-.2-.4l1.575-2.1h5.25l1.573 2.1a.24.24 0 0 1 .025.262M28.25 19A3.254 3.254 0 0 1 25 22.25H7A3.254 3.254 0 0 1 3.75 19V9A3.254 3.254 0 0 1 7 5.75h18A3.254 3.254 0 0 1 28.25 9z"/></svg>