<svg xmlns="http://www.w3.org/2000/svg" width="32" height="32" viewBox="0 0 32 32"><path d="M18.68 9.6a.5.5 0 0 0-.795.46l.833 6.985a.498.498 0 0 0 .746.373l1.967-1.136 1.136 1.968a.5.5 0 1 0 .866-.5l-1.136-1.967 1.968-1.136a.5.5 0 0 0 .05-.833zm.94 6.573-.604-5.074 4.091 3.061zM25 4.5H7A4.505 4.505 0 0 0 2.5 9v10A4.505 4.505 0 0 0 7 23.5h5l-1.198 1.6A1.5 1.5 0 0 0 12 27.5h8a1.5 1.5 0 0 0 1.2-2.4L20 23.5h5a4.504 4.504 0 0 0 4.5-4.5V9A4.505 4.505 0 0 0 25 4.5m-4.602 21.2a.5.5 0 0 1-.398.8h-8a.5.5 0 0 1-.398-.8l1.648-2.2h5.5zM28.5 19a3.504 3.504 0 0 1-3.5 3.5H7A3.504 3.504 0 0 1 3.5 19V9A3.504 3.504 0 0 1 7 5.5h18A3.504 3.504 0 0 1 28.5 9z"/></svg>