<svg xmlns="http://www.w3.org/2000/svg" width="32" height="32" viewBox="0 0 32 32"><path d="M21.736 18.497a3.516 3.516 0 0 1 2.486 1.025l2.753 2.754a3.52 3.52 0 0 1 0 4.981l-1.472 1.472a5.666 5.666 0 0 1-3.971 1.258c-3.243 0-7.898-1.62-12.895-6.617C.784 15.517 1.272 8.51 3.279 6.503L4.75 5.032a3.608 3.608 0 0 1 4.982 0l2.753 2.753a3.51 3.51 0 0 1 0 4.963l-.069.068c-.258.254-1.187 1.168-1.633 1.61a7.335 7.335 0 0 0 2.072 4.726 7.353 7.353 0 0 0 4.726 2.071c.515-.518 1.671-1.695 1.671-1.695a3.516 3.516 0 0 1 2.484-1.031Zm2.353 8.818 1.472-1.472a1.523 1.523 0 0 0 0-2.153l-2.753-2.754a1.514 1.514 0 0 0-2.136 0s-1.474 1.5-1.838 1.863c-.698.698-2.329.384-3.239.135a9.544 9.544 0 0 1-4.154-2.368c-1.767-1.767-3.537-6.086-2.235-7.393.366-.365 1.87-1.844 1.87-1.844a1.51 1.51 0 0 0-.005-2.13L8.318 6.446a1.522 1.522 0 0 0-2.154 0L4.693 7.917c-1.278 1.278-1.55 7.131 5.358 14.039 6.906 6.906 12.76 6.634 14.038 5.359ZM21.25 12.5a1.25 1.25 0 1 0 0-2.5 1.25 1.25 0 0 0 0 2.5Zm-2.75-1.25a1.25 1.25 0 1 1-2.5 0 1.25 1.25 0 0 1 2.5 0Zm5.247-4.914a1 1 0 0 0-1.494 1.329l3.41 3.835-3.41 3.836a1 1 0 0 0 1.494 1.329l4-4.5a1 1 0 0 0 0-1.329l-4-4.5Z"/></svg>