<svg xmlns="http://www.w3.org/2000/svg" width="32" height="32" viewBox="0 0 32 32"><path d="M19 20.51a.5.5 0 0 0 0 1h10a.5.5 0 0 0 0-1zM29 24.51H19a.5.5 0 0 0 0 1h10a.5.5 0 0 0 0-1M29 28.51H19a.5.5 0 0 0 0 1h10a.5.5 0 0 0 0-1M15 20.5a.5.5 0 0 0-.5.5l-.006 5.494L3.492 16.008 14.498 5.5 14.5 11a.5.5 0 0 0 .5.5h5.639a7.73 7.73 0 0 1 7.63 5.624.5.5 0 0 0 .968-.248A8.73 8.73 0 0 0 20.64 10.5H15.5l-.002-5.001a1 1 0 0 0-1.696-.718L2.794 15.292a.99.99 0 0 0-.216 1.095 1 1 0 0 0 .223.328l10.997 10.497a.996.996 0 0 0 1.534-.158 1 1 0 0 0 .167-.555L15.5 21a.5.5 0 0 0-.5-.5"/></svg>