<svg xmlns="http://www.w3.org/2000/svg" width="32" height="32" viewBox="0 0 32 32"><path d="M20.64 10.5H15.5l-.002-5a1 1 0 0 0-1.696-.719L2.792 15.294a1.005 1.005 0 0 0 .008 1.42l10.998 10.499A1 1 0 0 0 15.5 26.5l.001-5h5.085c6.615 0 7.88 4.439 7.932 4.628a.494.494 0 0 0 .548.367A.5.5 0 0 0 29.5 26v-7.011a8.588 8.588 0 0 0-8.86-8.489Zm7.86 13.485c-1.131-1.549-3.44-3.485-7.915-3.485H15a.5.5 0 0 0-.5.5l-.005 5.495L3.492 16.008 14.498 5.5l.003 5.5a.5.5 0 0 0 .5.5h5.64a7.6 7.6 0 0 1 7.86 7.49l-.001 4.995Z"/></svg>