<svg xmlns="http://www.w3.org/2000/svg" width="32" height="32" viewBox="0 0 32 32"><path d="M13.293 18.294A1 1 0 0 1 15 19v5.5a1.5 1.5 0 0 1-2.553 1.069L1.457 15.079a1.5 1.5 0 0 1-.015-2.14L12.457 2.42a1.5 1.5 0 0 1 2.54 1.08L15 8.001h6.639a9.23 9.23 0 0 1 9.083 6.752 1 1 0 1 1-1.938.496 7.23 7.23 0 0 0-7.145-5.248h-7.64a1 1 0 0 1-1-1V4.669L3.224 14l9.774 9.331v-4.331a1 1 0 0 1 .294-.707M19 16.195a4.194 4.194 0 1 1 6.744 3.328C28.217 20.505 30 22.775 30 25.51c0 .75-.35 1.362-.827 1.815-.463.438-1.068.757-1.702.99-1.27.47-2.897.685-4.471.685s-3.2-.216-4.471-.684c-.634-.234-1.24-.553-1.702-.991-.477-.453-.827-1.064-.827-1.815 0-2.832 1.91-5.165 4.518-6.087A4.18 4.18 0 0 1 19 16.194M23.193 14a2.193 2.193 0 1 0 0 4.387 2.193 2.193 0 0 0 0-4.387m-.193 7c-2.844 0-5 2.098-5 4.51 0 .079.025.194.204.364.194.184.526.384 1.017.565.98.361 2.353.561 3.779.561s2.8-.2 3.779-.56c.491-.182.823-.382 1.017-.566.179-.17.204-.285.204-.364 0-2.412-2.156-4.51-5-4.51"/></svg>