<svg xmlns="http://www.w3.org/2000/svg" width="32" height="32" viewBox="0 0 32 32"><path d="M20.64 10.25h-4.89l-.002-4.75a1.25 1.25 0 0 0-2.118-.9L2.615 15.117a1.26 1.26 0 0 0 .013 1.78L13.624 27.39a1.248 1.248 0 0 0 1.917-.199c.137-.205.21-.446.209-.692l.001-4.75h4.835c6.406 0 7.64 4.262 7.69 4.439a.76.76 0 0 0 .82.555.75.75 0 0 0 .654-.744v-7.011a8.835 8.835 0 0 0-9.11-8.739m7.61 13.03c-1.29-1.47-3.615-3.03-7.665-3.03h-5.584a.75.75 0 0 0-.75.75l-.002 4.916L3.862 16l10.387-9.917L14.25 11a.75.75 0 0 0 .75.75h5.64a7.35 7.35 0 0 1 7.61 7.24z"/></svg>