<svg xmlns="http://www.w3.org/2000/svg" width="32" height="32" viewBox="0 0 32 32"><path d="M29 20.01H19a1 1 0 0 0 0 2h10a1 1 0 0 0 0-2M29 24.01H19a1 1 0 0 0 0 2h10a1 1 0 0 0 0-2M29 28.01H19a1 1 0 0 0 0 2h10a1 1 0 0 0 0-2M15 20a1 1 0 0 0-1 1l-.001 4.331L4.225 16l9.773-9.332L14 11a1 1 0 0 0 1 1h5.639a7.23 7.23 0 0 1 7.145 5.248 1 1 0 0 0 1.938-.496A9.23 9.23 0 0 0 20.639 10h-4.64l-.001-4.501a1.5 1.5 0 0 0-2.541-1.08L2.442 14.938a1.5 1.5 0 0 0 .014 2.14l10.991 10.49A1.5 1.5 0 0 0 16 26.5V21a1 1 0 0 0-1-1"/></svg>