<svg xmlns="http://www.w3.org/2000/svg" width="32" height="32" viewBox="0 0 32 32"><path d="M19 20.26a.75.75 0 0 0 0 1.5h10a.75.75 0 1 0 0-1.5zM29 24.26H19a.75.75 0 0 0 0 1.5h10a.75.75 0 1 0 0-1.5M29 28.26H19a.75.75 0 0 0 0 1.5h10a.75.75 0 1 0 0-1.5M15 20.25a.75.75 0 0 0-.75.75l-.001 4.915L3.863 16l10.385-9.917L14.25 11a.75.75 0 0 0 .75.75h5.639a7.48 7.48 0 0 1 7.387 5.436.75.75 0 0 0 1.454-.372 8.98 8.98 0 0 0-8.841-6.564H15.75l-.002-4.751a1.25 1.25 0 0 0-2.118-.898L2.617 15.116a1.24 1.24 0 0 0-.367.883 1.25 1.25 0 0 0 .38.898L13.621 27.39a1.25 1.25 0 0 0 2.127-.89l.001-5.5a.75.75 0 0 0-.75-.75"/></svg>