<svg xmlns="http://www.w3.org/2000/svg" width="32" height="32" viewBox="0 0 32 32"><path d="M25 3H15a4.004 4.004 0 0 0-4 4v4H7a4.004 4.004 0 0 0-4 4v10a4.004 4.004 0 0 0 4 4h18a4.004 4.004 0 0 0 4-4V7a4.004 4.004 0 0 0-4-4ZM15 25a2.002 2.002 0 0 1-2 2H7a2.002 2.002 0 0 1-2-2v-.009h10V25Zm0-2.01H5V15a2.002 2.002 0 0 1 2-2h6a2.003 2.003 0 0 1 2 2v7.99ZM27 25a2.002 2.002 0 0 1-2 2h-8.556c.36-.605.552-1.296.556-2v-.009h10V25Zm0-2.01H17V15a4.004 4.004 0 0 0-4-4V9h14v13.99ZM13 7a2.003 2.003 0 0 1 2-2h10a2.003 2.003 0 0 1 2 2H13Z"/></svg>