<svg xmlns="http://www.w3.org/2000/svg" width="32" height="32" viewBox="0 0 32 32"><path d="M25 3.5H15A3.504 3.504 0 0 0 11.5 7v4.5H7A3.505 3.505 0 0 0 3.5 15v10A3.504 3.504 0 0 0 7 28.5h18a3.504 3.504 0 0 0 3.5-3.5V7A3.504 3.504 0 0 0 25 3.5m-10 1h10A2.5 2.5 0 0 1 27.5 7v.5h-15V7A2.5 2.5 0 0 1 15 4.5m-2.5 4h15V23.49h-11V15a3.504 3.504 0 0 0-3.5-3.5h-.5zM7 27.5A2.5 2.5 0 0 1 4.5 25v-.509h11V25a2.5 2.5 0 0 1-2.5 2.5zm6-15a2.5 2.5 0 0 1 2.5 2.5v8.491h-11V15A2.503 2.503 0 0 1 7 12.5zm12 15h-9.558A3.49 3.49 0 0 0 16.5 25v-.509h11V25a2.5 2.5 0 0 1-2.5 2.5"/></svg>