<svg xmlns="http://www.w3.org/2000/svg" width="32" height="32" viewBox="0 0 32 32"><path d="M25 3.5H15A3.504 3.504 0 0 0 11.5 7v4.5H7A3.505 3.505 0 0 0 3.5 15v10A3.504 3.504 0 0 0 7 28.5h18a3.504 3.504 0 0 0 3.5-3.5V7A3.504 3.504 0 0 0 25 3.5Zm-10 1h10A2.502 2.502 0 0 1 27.5 7v.5h-15V7A2.502 2.502 0 0 1 15 4.5Zm-2.5 4h15V23.49h-11V15a3.504 3.504 0 0 0-3.5-3.5h-.5v-3ZM7 27.5A2.502 2.502 0 0 1 4.5 25v-.509h11V25a2.502 2.502 0 0 1-2.5 2.5H7Zm6-15a2.502 2.502 0 0 1 2.5 2.5v8.491h-11V15A2.503 2.503 0 0 1 7 12.5h6Zm12 15h-9.558A3.486 3.486 0 0 0 16.5 25v-.509h11V25a2.502 2.502 0 0 1-2.5 2.5Z"/></svg>