<svg xmlns="http://www.w3.org/2000/svg" width="32" height="32" viewBox="0 0 32 32"><path d="M25 3.25H15A3.755 3.755 0 0 0 11.25 7v4.25H7A3.755 3.755 0 0 0 3.25 15v10A3.755 3.755 0 0 0 7 28.75h18A3.754 3.754 0 0 0 28.75 25V7A3.754 3.754 0 0 0 25 3.25M15.25 25A2.253 2.253 0 0 1 13 27.25H7A2.253 2.253 0 0 1 4.75 25v-.259h10.5zm0-1.76H4.75V15A2.253 2.253 0 0 1 7 12.75h6A2.253 2.253 0 0 1 15.25 15zm12 1.76A2.253 2.253 0 0 1 25 27.25h-9.02a3.7 3.7 0 0 0 .77-2.25v-.259h10.5zm0-1.76h-10.5V15A3.754 3.754 0 0 0 13 11.25h-.25v-2.5h14.5zm0-15.99h-14.5V7A2.253 2.253 0 0 1 15 4.75h10A2.253 2.253 0 0 1 27.25 7z"/></svg>