<svg xmlns="http://www.w3.org/2000/svg" width="32" height="32" viewBox="0 0 32 32"><path d="M20.957 2.043a1 1 0 0 1 0 1.414L18.664 5.75h3.96c.884 0 2.412 0 3.899.727 1.57.768 2.962 2.273 3.693 5.015a1 1 0 1 1-1.932.516c-.602-2.258-1.655-3.253-2.64-3.735-1.046-.511-2.16-.523-3.06-.523h-3.92l2.293 2.293a1 1 0 0 1-1.414 1.414l-4-4a1 1 0 0 1 0-1.414l4-4a1 1 0 0 1 1.414 0Zm2.113 16.712c.427.176.815.434 1.142.76l2.754 2.76a3.531 3.531 0 0 1 0 4.99l-1.472 1.474A5.664 5.664 0 0 1 21.52 30c-3.244 0-7.901-1.621-12.901-6.629C.763 15.503 1.25 8.483 3.258 6.473L4.73 5a3.607 3.607 0 0 1 4.984 0l2.755 2.758a3.519 3.519 0 0 1 0 4.973l-.052.05c-.234.23-1.195 1.178-1.65 1.63a7.1 7.1 0 0 0 6.8 6.81c.516-.52 1.673-1.698 1.673-1.698a3.514 3.514 0 0 1 3.83-.767Zm1.009 8.53 1.472-1.437a1.526 1.526 0 0 0 0-2.157l-2.754-2.759a1.513 1.513 0 0 0-2.137 0s-1.475 1.503-1.839 1.867c-.698.698-2.33.384-3.24.135a9.546 9.546 0 0 1-4.157-2.373c-1.767-1.77-3.539-6.097-2.235-7.406.365-.365 1.87-1.848 1.87-1.848a1.514 1.514 0 0 0-.005-2.133L8.299 6.448a1.521 1.521 0 0 0-2.154 0L4.673 7.89c-1.278 1.28-1.55 7.107 5.36 14.026 6.91 6.92 12.767 6.647 14.046 5.37Z"/></svg>