<svg xmlns="http://www.w3.org/2000/svg" width="32" height="32" viewBox="0 0 32 32"><path d="M20.957 2.043a1 1 0 0 1 0 1.414L18.664 5.75h3.96c.884 0 2.412 0 3.899.727 1.57.768 2.962 2.273 3.693 5.015a1 1 0 1 1-1.933.516c-.602-2.258-1.654-3.253-2.64-3.735-1.045-.511-2.16-.523-3.06-.523h-3.919l2.293 2.293a1 1 0 0 1-1.414 1.414l-4-4a1 1 0 0 1 0-1.414l4-4a1 1 0 0 1 1.414 0ZM9.107 22.843c6.996 6.995 13.264 6.535 15.065 4.734l1.037-1.037a3.232 3.232 0 0 0 0-4.566l-2.524-2.524a3.214 3.214 0 0 0-4.54.012l-1.157 1.157A6.995 6.995 0 0 1 13.35 18.6a7.017 7.017 0 0 1-2.023-3.634l1.168-1.166a3.317 3.317 0 0 0-.086-4.626L9.976 6.74a3.232 3.232 0 0 0-4.566 0L4.373 7.778c-1.801 1.8-2.262 8.069 4.734 15.065ZM6.824 8.155a1.23 1.23 0 0 1 1.738 0l2.432 2.433a1.308 1.308 0 0 1 .087 1.796L9.7 13.766c-1.08 1.08.326 4.338 2.236 6.248 2.102 2.102 5.257 3.229 6.253 2.233l1.371-1.371a1.212 1.212 0 0 1 1.712-.012l2.524 2.524a1.23 1.23 0 0 1 0 1.738l-1.037 1.037c-1.068 1.067-6.275 1.227-12.237-4.735C4.56 15.468 4.72 10.26 5.787 9.192l1.037-1.037Z"/></svg>