<svg xmlns="http://www.w3.org/2000/svg" width="32" height="32" viewBox="0 0 32 32"><path d="M20.53 2.47a.75.75 0 0 1 0 1.06l-2.72 2.72h4.556c.884 0 2.362 0 3.797.701 1.497.733 2.846 2.174 3.562 4.856a.75.75 0 0 1-1.45.386c-.618-2.318-1.713-3.377-2.771-3.894-1.104-.54-2.273-.549-3.17-.549H17.81l2.72 2.72a.75.75 0 1 1-1.061 1.06l-4-4a.75.75 0 0 1 0-1.06l4-4a.75.75 0 0 1 1.06 0M9.277 22.616c6.871 6.87 12.972 6.474 14.711 4.734l1.038-1.037a2.98 2.98 0 0 0 0-4.212l-2.524-2.524a2.964 2.964 0 0 0-4.187.012l-1.24 1.24a7.1 7.1 0 0 1-3.909-2.102 7.13 7.13 0 0 1-2.105-3.905l1.25-1.25a3.063 3.063 0 0 0-.086-4.272L9.792 6.868a2.98 2.98 0 0 0-4.212 0L4.543 7.905c-1.74 1.74-2.137 7.84 4.734 14.71M6.641 7.928a1.48 1.48 0 0 1 2.09 0l2.433 2.433a1.565 1.565 0 0 1 .087 2.151l-1.382 1.38c-.872.873.299 3.958 2.237 5.896 1.937 1.937 5.025 3.105 5.899 2.232l1.37-1.37a1.46 1.46 0 0 1 2.066-.012l2.524 2.523a1.48 1.48 0 0 1 0 2.091l-1.037 1.038c-1.156 1.156-6.42 1.435-12.59-4.735s-5.89-11.434-4.734-12.59z"/></svg>