<svg xmlns="http://www.w3.org/2000/svg" width="32" height="32" viewBox="0 0 32 32"><path d="M20.354 2.646a.5.5 0 0 1 0 .708L17.207 6.5h5.15c.884 0 2.314 0 3.696.676 1.424.696 2.731 2.074 3.43 4.695a.5.5 0 0 1-.966.258c-.634-2.379-1.772-3.501-2.903-4.055-1.162-.568-2.386-.574-3.28-.574h-5.127l3.147 3.146a.5.5 0 0 1-.707.708l-4-4a.5.5 0 0 1 0-.708l4-4a.5.5 0 0 1 .707 0M9.454 22.454c6.746 6.746 12.68 6.412 14.358 4.734l1.037-1.037a2.73 2.73 0 0 0 0-3.858l-2.524-2.524a2.713 2.713 0 0 0-3.833.011l-1.31 1.31a7 7 0 0 1-4.192-2.171 7.02 7.02 0 0 1-2.176-4.189l1.32-1.32a2.81 2.81 0 0 0-.085-3.918L9.616 7.06a2.73 2.73 0 0 0-3.859 0L4.72 8.097c-1.678 1.678-2.012 7.611 4.734 14.357M6.464 7.766a1.73 1.73 0 0 1 2.445 0L11.34 10.2a1.82 1.82 0 0 1 .087 2.505l-1.382 1.38c-.706.707.27 3.575 2.237 5.542 1.966 1.966 4.838 2.94 5.545 2.232l1.371-1.37a1.713 1.713 0 0 1 2.419-.012L24.142 23a1.73 1.73 0 0 1 0 2.444l-1.037 1.037c-1.208 1.208-6.648 1.562-12.944-4.734C3.866 15.451 4.22 10.011 5.427 8.804z"/></svg>