<svg xmlns="http://www.w3.org/2000/svg" width="32" height="32" viewBox="0 0 32 32"><path d="M20.354 2.646a.5.5 0 0 1 0 .708L17.207 6.5h5.149c.885 0 2.315 0 3.697.676 1.424.696 2.731 2.074 3.43 4.695a.5.5 0 1 1-.966.258c-.634-2.379-1.772-3.501-2.903-4.055-1.162-.568-2.386-.574-3.28-.574h-5.127l3.147 3.146a.5.5 0 0 1-.708.708l-4-4a.5.5 0 0 1 0-.708l4-4a.5.5 0 0 1 .708 0Zm1.376 16.35c.799 0 1.565.316 2.13.88l2.753 2.753a3.022 3.022 0 0 1 0 4.274l-1.471 1.472a5.103 5.103 0 0 1-3.586 1.12 11.11 11.11 0 0 1-2.504-.302c-2.314-.54-5.94-2.049-10.068-6.178-4.13-4.128-5.64-7.754-6.178-10.068-.606-2.598-.284-4.988.818-6.09l1.472-1.472a3.029 3.029 0 0 1 4.274 0l2.753 2.753a3.01 3.01 0 0 1 0 4.257l-.005.006c-.098.096-1.506 1.48-1.856 1.832a7.634 7.634 0 0 0 2.231 5.272 7.277 7.277 0 0 0 5.346 2.18c.29-.31 1.762-1.806 1.762-1.806a3.014 3.014 0 0 1 2.13-.883Zm2.705 8.672 1.471-1.472a2.025 2.025 0 0 0 0-2.86l-2.752-2.753a2.058 2.058 0 0 0-2.843 0s-1.475 1.499-1.838 1.862c-.28.218-.636.317-.988.276h-.003a8.593 8.593 0 0 1-8.203-8.207c-.041-.353.058-.708.275-.989.363-.363 1.865-1.84 1.865-1.84a2.01 2.01 0 0 0-.003-2.84L8.663 6.092a2.026 2.026 0 0 0-2.86 0L4.33 7.563c-.708.708-1.153 2.577-.552 5.157.51 2.188 1.95 5.627 5.912 9.588 3.96 3.962 7.4 5.4 9.588 5.91 2.58.604 4.449.157 5.156-.55Z"/></svg>