<svg xmlns="http://www.w3.org/2000/svg" width="32" height="32" viewBox="0 0 32 32"><path d="M20.53 2.47a.75.75 0 0 1 0 1.06l-2.72 2.72h4.556c.884 0 2.363 0 3.797.701 1.497.733 2.846 2.174 3.562 4.856a.75.75 0 0 1-1.45.386c-.618-2.318-1.713-3.377-2.771-3.894-1.104-.54-2.273-.549-3.17-.549H17.81l2.72 2.72a.75.75 0 1 1-1.061 1.06l-4-4a.75.75 0 0 1 0-1.06l4-4a.75.75 0 0 1 1.06 0Zm1.199 16.302c.86 0 1.688.331 2.309.927l2.753 2.752a3.27 3.27 0 0 1 0 4.628l-1.472 1.472a5.263 5.263 0 0 1-3.738 1.2 11.5 11.5 0 0 1-2.585-.314c-2.347-.547-6.019-2.074-10.189-6.244S3.11 15.35 2.563 13.004c-.635-2.72-.295-5.144.885-6.324l1.471-1.472a3.275 3.275 0 0 1 4.628 0L12.3 7.961a3.26 3.26 0 0 1 0 4.61l-.046.046c-.234.23-1.293 1.273-1.717 1.695a7.291 7.291 0 0 0 7.15 7.151c.476-.478 1.735-1.76 1.735-1.76a3.331 3.331 0 0 1 2.307-.93Zm2.53 8.719 1.47-1.472a1.77 1.77 0 0 0 0-2.507l-2.752-2.753a1.804 1.804 0 0 0-2.49 0s-1.474 1.5-1.837 1.863c-.861.862-4.74.066-7.04-2.233a9.074 9.074 0 0 1-2.581-5.875 1.574 1.574 0 0 1 .35-1.166c.363-.363 1.865-1.84 1.865-1.84a1.76 1.76 0 0 0-.004-2.486L8.487 6.269a1.774 1.774 0 0 0-2.507 0L4.508 7.74c-.637.638-1.061 2.45-.485 4.923.503 2.157 1.925 5.55 5.845 9.47 3.92 3.919 7.312 5.34 9.468 5.843 2.472.574 4.285.152 4.922-.485Z"/></svg>