<svg xmlns="http://www.w3.org/2000/svg" width="32" height="32" viewBox="0 0 32 32"><path d="M20.957 2.043a1 1 0 0 1 0 1.414L18.664 5.75h3.96c.884 0 2.412 0 3.899.727 1.57.768 2.962 2.273 3.693 5.015a1 1 0 1 1-1.933.516c-.602-2.258-1.654-3.253-2.64-3.735-1.045-.511-2.16-.523-3.06-.523h-3.919l2.293 2.293a1 1 0 0 1-1.414 1.414l-4-4a1 1 0 0 1 0-1.414l4-4a1 1 0 0 1 1.414 0ZM24.172 27.577c-1.801 1.8-8.07 2.261-15.065-4.734C2.111 15.847 2.572 9.579 4.373 7.778L5.41 6.741a3.232 3.232 0 0 1 4.566 0l2.433 2.433a3.317 3.317 0 0 1 .086 4.626l-1.168 1.166A7.017 7.017 0 0 0 13.35 18.6a6.995 6.995 0 0 0 3.638 2.02l1.157-1.158a3.214 3.214 0 0 1 4.54-.012l2.524 2.524a3.232 3.232 0 0 1 0 4.566l-1.037 1.037Z"/></svg>