<svg xmlns="http://www.w3.org/2000/svg" width="32" height="32" viewBox="0 0 32 32"><path d="M16 2.5a13.485 13.485 0 0 0-8.459 24H3a.5.5 0 0 0 0 1h6a.5.5 0 0 0 .5-.5v-6a.5.5 0 0 0-1 0v4.97a12.478 12.478 0 1 1 14.165.607.5.5 0 1 0 .533.845A13.501 13.501 0 0 0 16 2.5Z"/><path d="M13.243 20v-9.1h-.949l-2.08 1.144v1.001l2.067-1.131V20h.962ZM18.75 20.195c1.807 0 3.185-1.469 3.185-4.758 0-3.341-1.391-4.732-3.185-4.732s-3.185 1.391-3.185 4.732c0 3.289 1.378 4.758 3.185 4.758Zm0-.819c-1.417 0-2.197-1.248-2.197-3.939 0-2.678.78-3.913 2.197-3.913s2.197 1.235 2.197 3.913c0 2.691-.78 3.939-2.197 3.939Z"/></svg>