<svg xmlns="http://www.w3.org/2000/svg" width="32" height="32" viewBox="0 0 32 32"><path d="M16 2a13.976 13.976 0 0 0-9.763 24H3a1 1 0 0 0 0 2h6a1 1 0 0 0 1-1v-6a1 1 0 1 0-2 0v3.925a11.988 11.988 0 1 1 14.397 1.23 1 1 0 0 0 1.068 1.69A14.002 14.002 0 0 0 16 2Z"/><path d="M11.722 20h2.028v-9.1h-2.015l-2.093 1.105v1.833l2.08-1.066V20ZM18.75 20.195c2.106 0 3.458-1.43 3.458-4.719 0-3.38-1.326-4.771-3.458-4.771s-3.458 1.391-3.458 4.771c0 3.289 1.352 4.719 3.458 4.719Zm0-1.378c-.858 0-1.365-.715-1.365-3.341 0-2.626.507-3.406 1.365-3.406s1.365.78 1.365 3.406c0 2.626-.507 3.341-1.365 3.341Z"/></svg>