<svg xmlns="http://www.w3.org/2000/svg" width="32" height="32" viewBox="0 0 32 32"><path d="M21.533 4.89a7.38 7.38 0 0 0-5.565-2.39 7.35 7.35 0 0 0-5.502 2.39 7.76 7.76 0 0 0-1.933 5.941 7.5 7.5 0 0 0 .55 2.225l2.37 4.976a.5.5 0 0 1 .047.172v6.75q.002.015.003.033l-.003.015c0 .015.008.028.009.043A4.417 4.417 0 0 0 16 29.502q.153 0 .302-.008a4.413 4.413 0 0 0 4.192-4.461c0-.01.006-.02.006-.03l-.002-.012q.002-.019.003-.038l-.003-6.726a.5.5 0 0 1 .048-.197l2.382-4.996c.29-.703.473-1.447.539-2.205a7.75 7.75 0 0 0-1.934-5.939M19.5 21.5l.001 3.002h-7V21.5zM16 28.502a3.416 3.416 0 0 1-3.448-3h6.898a3.417 3.417 0 0 1-3.45 3m6.47-17.764a6.5 6.5 0 0 1-.454 1.888l-2.372 4.972c-.09.19-.14.397-.146.607L19.5 20.5H16.5V14a.5.5 0 0 0-1 0v6.5h-3v-2.317a1.5 1.5 0 0 0-.145-.583l-2.36-4.951a6.5 6.5 0 0 1-.465-1.91 6.66 6.66 0 0 1 1.675-5.175A6.4 6.4 0 0 1 16.032 3.5a6.36 6.36 0 0 1 4.763 2.064 6.66 6.66 0 0 1 1.676 5.174"/></svg>