<svg xmlns="http://www.w3.org/2000/svg" width="32" height="32" viewBox="0 0 32 32"><path d="M21.904 4.553A7.88 7.88 0 0 0 15.968 2a7.837 7.837 0 0 0-5.871 2.553 8.258 8.258 0 0 0-2.062 6.324c.074.824.275 1.632.596 2.395l2.37 4.932v6.75a4.97 4.97 0 0 0 5 5.048 4.971 4.971 0 0 0 5-5.049l-.004-6.707 2.393-5.02c.31-.75.504-1.542.575-2.35a8.256 8.256 0 0 0-2.061-6.323ZM19 22v2.002h-6V22h6Zm-3 6.002a2.918 2.918 0 0 1-2.819-2h5.639a2.919 2.919 0 0 1-2.82 2Zm5.973-17.31c-.05.59-.188 1.17-.408 1.719l-2.371 4.971a2.03 2.03 0 0 0-.196.823L19 20H17v-6a1 1 0 1 0-2 0v6h-2v-1.838a1.979 1.979 0 0 0-.194-.778l-2.35-4.928a5.993 5.993 0 0 1-.428-1.762A6.168 6.168 0 0 1 11.574 5.9 5.899 5.899 0 0 1 16.032 4a5.864 5.864 0 0 1 4.394 1.9 6.169 6.169 0 0 1 1.547 4.79Z"/></svg>