<svg xmlns="http://www.w3.org/2000/svg" width="32" height="32" viewBox="0 0 32 32"><path d="M27.25 4.275V3a.75.75 0 0 0-1.5 0v1.25h-3.5V3.006a.75.75 0 0 0-1.5 0v1.267a2.736 2.736 0 0 0-2.472 2.448 5.73 5.73 0 0 0-5.286.384 4.238 4.238 0 1 0-6.69 4.654 6.09 6.09 0 0 0-4.052 5.555c0 .664.304 1.899 2.347 2.711.975.362 1.997.585 3.034.66a8.4 8.4 0 0 0-1.382 4.59c0 1.041.573 2.493 3.304 3.498a19.4 19.4 0 0 0 6.446.978c4.853 0 9.75-1.384 9.75-4.476a9.08 9.08 0 0 0-6.53-8.474c.437-.295.83-.65 1.171-1.051h6.614a2.75 2.75 0 0 0 2.746-2.746V6.997a2.74 2.74 0 0 0-2.5-2.722M6.246 8.5a2.743 2.743 0 0 1 5.467-.328 5.75 5.75 0 0 0-1.37 2.717l.002-.008c-.41.239-.875.366-1.35.369a2.753 2.753 0 0 1-2.75-2.75M3.75 17.314c0-2.516 2.355-4.564 5.25-4.564.44.005.879.058 1.307.16a5.78 5.78 0 0 0 2.471 3.891 9.86 9.86 0 0 0-3.985 2.441c-2.797-.041-5.043-.887-5.043-1.928m20.499 7.961c0 1.668-3.624 2.976-8.25 2.976s-8.25-1.308-8.25-2.976c0-4.129 3.7-7.488 8.25-7.488s8.25 3.36 8.25 7.488m-8.25-8.988a4.269 4.269 0 1 1 0-8.537 4.269 4.269 0 0 1 0 8.537m12.25-3.283a1.247 1.247 0 0 1-1.245 1.246h-5.686a5.75 5.75 0 0 0-1.568-6.605v-.648a1.25 1.25 0 0 1 1.247-1.247h6.007a1.25 1.25 0 0 1 1.246 1.247z"/></svg>