<svg xmlns="http://www.w3.org/2000/svg" width="32" height="32" viewBox="0 0 32 32"><path d="M21.533 4.89a7.382 7.382 0 0 0-5.565-2.39 7.345 7.345 0 0 0-5.502 2.39 7.757 7.757 0 0 0-1.933 5.941 7.5 7.5 0 0 0 .55 2.225l2.37 4.976a.483.483 0 0 1 .047.172v6.75c0 .01.003.021.003.033l-.003.015c0 .015.008.028.009.043A4.417 4.417 0 0 0 16 29.502c.102 0 .202-.003.302-.008a4.413 4.413 0 0 0 4.192-4.461c0-.01.006-.02.006-.03l-.002-.012c0-.013.003-.025.003-.038l-.003-6.726a.502.502 0 0 1 .048-.197l2.382-4.996c.29-.703.473-1.447.539-2.205a7.752 7.752 0 0 0-1.934-5.939ZM19.5 21.5l.001 3.002h-7V21.5H19.5ZM16 28.502a3.416 3.416 0 0 1-3.448-3h6.898a3.417 3.417 0 0 1-3.45 3Zm6.47-17.764a6.507 6.507 0 0 1-.454 1.888l-2.372 4.972c-.09.19-.14.397-.146.607L19.5 20.5H16.5V14a.5.5 0 0 0-1 0v6.5h-3v-2.317a1.505 1.505 0 0 0-.145-.583l-2.36-4.951a6.52 6.52 0 0 1-.465-1.91 6.664 6.664 0 0 1 1.675-5.175A6.393 6.393 0 0 1 16.032 3.5a6.357 6.357 0 0 1 4.763 2.064 6.662 6.662 0 0 1 1.676 5.174Z"/></svg>