<svg xmlns="http://www.w3.org/2000/svg" width="32" height="32" viewBox="0 0 32 32"><path d="M21.904 4.553A7.88 7.88 0 0 0 15.968 2a7.84 7.84 0 0 0-5.871 2.553 8.26 8.26 0 0 0-2.062 6.324c.074.824.275 1.632.596 2.395l2.37 4.932v6.75a4.97 4.97 0 0 0 5 5.048q.192 0 .381-.013a4.97 4.97 0 0 0 4.62-5.036l-.005-6.707 2.393-5.02c.31-.75.504-1.542.575-2.35a8.26 8.26 0 0 0-2.061-6.323M19 22v2.002h-6V22zm-3 6.002a2.92 2.92 0 0 1-2.818-2h5.638a2.92 2.92 0 0 1-2.82 2m5.973-17.31c-.05.59-.188 1.17-.408 1.719l-2.371 4.971a2 2 0 0 0-.196.823L19 20H17v-6a1 1 0 1 0-2 0v6h-2v-1.838a2 2 0 0 0-.194-.778l-2.35-4.927a6 6 0 0 1-.428-1.763A6.17 6.17 0 0 1 11.575 5.9 5.9 5.9 0 0 1 16.032 4a5.86 5.86 0 0 1 4.394 1.9 6.17 6.17 0 0 1 1.547 4.79"/></svg>