<svg xmlns="http://www.w3.org/2000/svg" width="32" height="32" viewBox="0 0 32 32"><path d="M21.719 4.721a7.635 7.635 0 0 0-5.751-2.47 7.592 7.592 0 0 0-5.687 2.471 8.005 8.005 0 0 0-1.997 6.132c.072.795.265 1.574.573 2.31l2.37 4.975c.01.021.017.043.023.066v6.748a4.67 4.67 0 0 0 4.75 4.8 4.723 4.723 0 0 0 4.751-4.799l-.004-6.716a.259.259 0 0 1 .025-.1l2.387-5.008c.3-.727.488-1.495.557-2.278a8.006 8.006 0 0 0-1.997-6.13Zm-2.47 17.03.002 2.501h-6.5l-.001-2.502h6.5ZM16 28.251a3.168 3.168 0 0 1-3.152-2.5h6.305a3.169 3.169 0 0 1-3.153 2.5Zm6.222-17.537a6.213 6.213 0 0 1-.432 1.803l-2.37 4.973a1.762 1.762 0 0 0-.172.715l.001 2.044H16.75V14a.75.75 0 1 0-1.5 0v6.25h-2.5v-2.078a1.723 1.723 0 0 0-.17-.68l-2.354-4.94a6.214 6.214 0 0 1-.448-1.836 6.414 6.414 0 0 1 1.612-4.983A6.147 6.147 0 0 1 16.03 3.75a6.113 6.113 0 0 1 4.58 1.982 6.416 6.416 0 0 1 1.61 4.983Z"/></svg>