<svg xmlns="http://www.w3.org/2000/svg" width="32" height="32" viewBox="0 0 32 32"><path d="M27.5 4.05V3a1 1 0 1 0-2 0v1h-3v-.994a1 1 0 1 0-2 0V4.05a3 3 0 0 0-2.429 2.325 5.97 5.97 0 0 0-4.941.354 4.498 4.498 0 1 0-7.3 4.963A6.28 6.28 0 0 0 2 17.314c0 .727.325 2.076 2.505 2.944.869.323 1.775.533 2.698.627a8.63 8.63 0 0 0-1.204 4.39c0 1.121.601 2.678 3.467 3.733a19.7 19.7 0 0 0 6.533.993c4.613 0 10-1.239 10-4.726a9.29 9.29 0 0 0-6.25-8.558q.406-.326.75-.717h6.505A3 3 0 0 0 30 13.004V6.997a2.995 2.995 0 0 0-2.5-2.947M8.996 6a2.5 2.5 0 0 1 2.458 2.085 6 6 0 0 0-1.327 2.632c-.35.183-.737.28-1.131.283a2.5 2.5 0 0 1 0-5M4 17.314C4 14.935 6.243 13 9 13q.548.003 1.085.109a6.02 6.02 0 0 0 2.163 3.608 10.1 10.1 0 0 0-3.555 2.271C5.917 18.928 4 18.082 4 17.314m19.999 7.961c0 1.503-3.59 2.726-8 2.726s-8-1.223-8-2.726c0-3.991 3.589-7.238 8-7.238s8 3.247 8 7.238m-8-9.238a4.02 4.02 0 1 1 0-8.038 4.02 4.02 0 0 1 0 8.038m12-3.033a1 1 0 0 1-.995.996h-5.329A5.97 5.97 0 0 0 20 7.535v-.538A1 1 0 0 1 20.997 6h6.007a1 1 0 0 1 .996.997z"/></svg>