<svg xmlns="http://www.w3.org/2000/svg" width="32" height="32" viewBox="0 0 32 32"><path d="M27.5 4.05V3a1 1 0 1 0-2 0v1h-3v-.994a1 1 0 1 0-2 0V4.05a2.999 2.999 0 0 0-2.429 2.325 5.965 5.965 0 0 0-4.941.354 4.498 4.498 0 1 0-7.3 4.963A6.283 6.283 0 0 0 2 17.314c0 .727.325 2.076 2.505 2.944.869.323 1.775.533 2.698.627a8.633 8.633 0 0 0-1.204 4.39c0 1.121.601 2.678 3.467 3.733a19.648 19.648 0 0 0 6.533.993c4.613 0 10-1.239 10-4.726a9.286 9.286 0 0 0-6.25-8.558c.27-.217.522-.457.75-.717h6.505A3 3 0 0 0 30 13.004V6.997a2.995 2.995 0 0 0-2.5-2.947ZM8.996 6a2.498 2.498 0 0 1 2.458 2.085 5.998 5.998 0 0 0-1.327 2.632c-.35.183-.737.28-1.131.283a2.5 2.5 0 0 1 0-5ZM4 17.314C4 14.935 6.243 13 9 13c.364.002.728.038 1.085.109a6.016 6.016 0 0 0 2.163 3.608 10.083 10.083 0 0 0-3.555 2.271C5.917 18.928 4 18.082 4 17.314Zm19.999 7.961c0 1.503-3.59 2.726-8 2.726-4.411 0-8-1.223-8-2.726 0-3.991 3.589-7.238 8-7.238 4.41 0 8 3.247 8 7.238Zm-8-9.238a4.02 4.02 0 1 1 0-8.038 4.02 4.02 0 0 1 0 8.038Zm12-3.033a.998.998 0 0 1-.995.996h-5.329A5.967 5.967 0 0 0 20 7.535v-.538A.998.998 0 0 1 20.997 6h6.007a.998.998 0 0 1 .996.997v6.007Z"/></svg>