<svg xmlns="http://www.w3.org/2000/svg" width="32" height="32" viewBox="0 0 32 32"><path d="M21.533 4.89a7.382 7.382 0 0 0-5.566-2.39 7.345 7.345 0 0 0-5.502 2.39 7.757 7.757 0 0 0-1.932 5.941c.068.766.253 1.516.549 2.225l2.37 4.976a.482.482 0 0 1 .048.172V20H15v-6a1 1 0 1 1 2 0v6h3.499l-.001-1.773a.501.501 0 0 1 .048-.197l2.381-4.996c.291-.703.473-1.447.54-2.205a7.752 7.752 0 0 0-1.934-5.939ZM11.5 24v-2h9v2h-9ZM11.604 26A4.417 4.417 0 0 0 16 29.502c.101 0 .202-.003.302-.008A4.413 4.413 0 0 0 20.398 26h-8.794Z"/></svg>