<svg xmlns="http://www.w3.org/2000/svg" width="32" height="32" viewBox="0 0 32 32"><path d="M21.719 4.721a7.64 7.64 0 0 0-5.751-2.47 7.6 7.6 0 0 0-5.687 2.471 8 8 0 0 0-1.997 6.132c.072.795.265 1.574.573 2.31l2.37 4.975q.014.032.023.066v6.749A4.67 4.67 0 0 0 16 29.752q.128 0 .252-.006a4.723 4.723 0 0 0 4.5-4.793l-.005-6.715a.3.3 0 0 1 .025-.1l2.387-5.008c.3-.727.488-1.495.557-2.278a8 8 0 0 0-1.997-6.13m-2.47 17.03.002 2.501h-6.5l-.001-2.502zM16 28.251a3.17 3.17 0 0 1-3.152-2.5h6.305a3.17 3.17 0 0 1-3.153 2.5m6.222-17.537a6.2 6.2 0 0 1-.432 1.803l-2.37 4.973a1.8 1.8 0 0 0-.172.715l.001 2.044H16.75V14a.75.75 0 1 0-1.5 0v6.25h-2.5v-2.078a1.7 1.7 0 0 0-.17-.68l-2.354-4.94a6.2 6.2 0 0 1-.448-1.836 6.41 6.41 0 0 1 1.612-4.983A6.15 6.15 0 0 1 16.03 3.75a6.11 6.11 0 0 1 4.58 1.982 6.42 6.42 0 0 1 1.61 4.983"/></svg>