<svg xmlns="http://www.w3.org/2000/svg" width="32" height="32" viewBox="0 0 32 32"><path d="M8.5 19a4.5 4.5 0 0 1 4.5-4.5h11a4.5 4.5 0 0 1 4.5 4.5v5a4.5 4.5 0 0 1-4.5 4.5H13A4.5 4.5 0 0 1 8.5 24zm4.5-3.5A3.5 3.5 0 0 0 9.5 19v5a3.5 3.5 0 0 0 3.5 3.5h11a3.5 3.5 0 0 0 3.5-3.5v-5a3.5 3.5 0 0 0-3.5-3.5zM15.156 3.646a.5.5 0 1 0-.707.708l2.252 2.251c-5.192.128-8.508 2.198-10.519 4.775-2.08 2.667-2.732 5.835-2.68 7.833a.5.5 0 0 0 1-.026c-.047-1.802.55-4.734 2.469-7.192C8.82 9.624 11.93 7.655 16.995 7.6l-2.546 2.547a.5.5 0 1 0 .707.707l3.215-3.215a.55.55 0 0 0 0-.778z"/></svg>