<svg xmlns="http://www.w3.org/2000/svg" width="32" height="32" viewBox="0 0 32 32"><path d="M8.25 19A4.75 4.75 0 0 1 13 14.25h11A4.75 4.75 0 0 1 28.75 19v5A4.75 4.75 0 0 1 24 28.75H13A4.75 4.75 0 0 1 8.25 24zM13 15.75A3.25 3.25 0 0 0 9.75 19v5A3.25 3.25 0 0 0 13 27.25h11A3.25 3.25 0 0 0 27.25 24v-5A3.25 3.25 0 0 0 24 15.75zM15.333 3.47a.75.75 0 0 0-1.06 1.06l1.847 1.848c-4.936.262-8.152 2.307-10.135 4.848-2.122 2.72-2.786 5.946-2.732 7.994a.75.75 0 1 0 1.5-.04c-.047-1.752.537-4.625 2.415-7.031 1.725-2.21 4.582-4.08 9.207-4.282L14.272 9.97a.75.75 0 0 0 1.061 1.06l3.215-3.214a.8.8 0 0 0 0-1.132z"/></svg>