<svg xmlns="http://www.w3.org/2000/svg" width="32" height="32" viewBox="0 0 32 32"><path d="M8.5 15a.5.5 0 0 1 .5-.5 8.5 8.5 0 0 1 8.5 8.5.5.5 0 0 1-1 0A7.5 7.5 0 0 0 9 15.5a.5.5 0 0 1-.5-.5M9 8.5a.5.5 0 0 0 0 1c7.456 0 13.5 6.044 13.5 13.5a.5.5 0 0 0 1 0c0-8.008-6.492-14.5-14.5-14.5M10 23.5a1.5 1.5 0 1 1 0-3 1.5 1.5 0 0 1 0 3M2.5 7A4.5 4.5 0 0 1 7 2.5h18A4.5 4.5 0 0 1 29.5 7v18a4.5 4.5 0 0 1-4.5 4.5H7A4.5 4.5 0 0 1 2.5 25zM7 3.5A3.5 3.5 0 0 0 3.5 7v18A3.5 3.5 0 0 0 7 28.5h18a3.5 3.5 0 0 0 3.5-3.5V7A3.5 3.5 0 0 0 25 3.5z"/></svg>