<svg xmlns="http://www.w3.org/2000/svg" width="32" height="32" viewBox="0 0 32 32"><path d="M8.25 15a.75.75 0 0 1 .75-.75A8.75 8.75 0 0 1 17.75 23a.75.75 0 0 1-1.5 0A7.25 7.25 0 0 0 9 15.75a.75.75 0 0 1-.75-.75M9 8.25a.75.75 0 0 0 0 1.5c7.318 0 13.25 5.932 13.25 13.25a.75.75 0 0 0 1.5 0c0-8.146-6.604-14.75-14.75-14.75M10 23.75a1.75 1.75 0 1 1 0-3.5 1.75 1.75 0 0 1 0 3.5M2.25 7A4.75 4.75 0 0 1 7 2.25h18A4.75 4.75 0 0 1 29.75 7v18A4.75 4.75 0 0 1 25 29.75H7A4.75 4.75 0 0 1 2.25 25zM7 3.75A3.25 3.25 0 0 0 3.75 7v18A3.25 3.25 0 0 0 7 28.25h18A3.25 3.25 0 0 0 28.25 25V7A3.25 3.25 0 0 0 25 3.75z"/></svg>