<svg xmlns="http://www.w3.org/2000/svg" width="32" height="32" viewBox="0 0 32 32"><path d="M4.75 6c0-.69.56-1.25 1.25-1.25h6c.69 0 1.25.56 1.25 1.25v6c0 .69-.56 1.25-1.25 1.25H6c-.69 0-1.25-.56-1.25-1.25zM6 3.25A2.75 2.75 0 0 0 3.25 6v6A2.75 2.75 0 0 0 6 14.75h6A2.75 2.75 0 0 0 14.75 12V6A2.75 2.75 0 0 0 12 3.25zM18.75 6c0-.69.56-1.25 1.25-1.25h6c.69 0 1.25.56 1.25 1.25v6c0 .69-.56 1.25-1.25 1.25h-6c-.69 0-1.25-.56-1.25-1.25zM20 3.25A2.75 2.75 0 0 0 17.25 6v6A2.75 2.75 0 0 0 20 14.75h6A2.75 2.75 0 0 0 28.75 12V6A2.75 2.75 0 0 0 26 3.25zm0 15.5q-.09 0-.177.012L23 21.94l3.177-3.177A1 1 0 0 0 26 18.75zm7.238 1.073L24.06 23l3.177 3.177q.012-.087.012-.177v-6q0-.09-.012-.177M21.939 23l-3.177-3.177a1 1 0 0 0-.012.177v6q0 .09.012.177zm-2.116 4.238q.087.012.177.012h6q.09 0 .177-.012L23 24.06zM17.25 20A2.75 2.75 0 0 1 20 17.25h6A2.75 2.75 0 0 1 28.75 20v6A2.75 2.75 0 0 1 26 28.75h-6A2.75 2.75 0 0 1 17.25 26zm-12.5 0c0-.69.56-1.25 1.25-1.25h6c.69 0 1.25.56 1.25 1.25v6c0 .69-.56 1.25-1.25 1.25H6c-.69 0-1.25-.56-1.25-1.25zM6 17.25A2.75 2.75 0 0 0 3.25 20v6A2.75 2.75 0 0 0 6 28.75h6A2.75 2.75 0 0 0 14.75 26v-6A2.75 2.75 0 0 0 12 17.25z"/></svg>