<svg xmlns="http://www.w3.org/2000/svg" width="32" height="32" viewBox="0 0 32 32"><path d="M4.5 6A1.5 1.5 0 0 1 6 4.5h6A1.5 1.5 0 0 1 13.5 6v6a1.5 1.5 0 0 1-1.5 1.5H6A1.5 1.5 0 0 1 4.5 12zM6 3.5A2.5 2.5 0 0 0 3.5 6v6A2.5 2.5 0 0 0 6 14.5h6a2.5 2.5 0 0 0 2.5-2.5V6A2.5 2.5 0 0 0 12 3.5zM18.5 6A1.5 1.5 0 0 1 20 4.5h6A1.5 1.5 0 0 1 27.5 6v6a1.5 1.5 0 0 1-1.5 1.5h-6a1.5 1.5 0 0 1-1.5-1.5zM20 3.5A2.5 2.5 0 0 0 17.5 6v6a2.5 2.5 0 0 0 2.5 2.5h6a2.5 2.5 0 0 0 2.5-2.5V6A2.5 2.5 0 0 0 26 3.5zm0 15c-.232 0-.45.052-.647.146L23 22.293l3.646-3.647A1.5 1.5 0 0 0 26 18.5zm7.354.853L23.707 23l3.647 3.646c.093-.195.146-.414.146-.646v-6c0-.232-.052-.45-.146-.647M22.293 23l-3.647-3.646A1.5 1.5 0 0 0 18.5 20v6c0 .232.052.45.146.647zm-2.94 4.354c.196.093.415.146.647.146h6c.232 0 .45-.053.646-.146L23 23.707zM17.5 20a2.5 2.5 0 0 1 2.5-2.5h6a2.5 2.5 0 0 1 2.5 2.5v6a2.5 2.5 0 0 1-2.5 2.5h-6a2.5 2.5 0 0 1-2.5-2.5zm-13 0A1.5 1.5 0 0 1 6 18.5h6a1.5 1.5 0 0 1 1.5 1.5v6a1.5 1.5 0 0 1-1.5 1.5H6A1.5 1.5 0 0 1 4.5 26zM6 17.5A2.5 2.5 0 0 0 3.5 20v6A2.5 2.5 0 0 0 6 28.5h6a2.5 2.5 0 0 0 2.5-2.5v-6a2.5 2.5 0 0 0-2.5-2.5z"/></svg>