<svg xmlns="http://www.w3.org/2000/svg" width="32" height="32" viewBox="0 0 32 32"><path d="M5 6a1 1 0 0 1 1-1h6a1 1 0 0 1 1 1v6a1 1 0 0 1-1 1H6a1 1 0 0 1-1-1V6Zm1-3a3 3 0 0 0-3 3v6a3 3 0 0 0 3 3h6a3 3 0 0 0 3-3V6a3 3 0 0 0-3-3H6Zm13 3a1 1 0 0 1 1-1h6a1 1 0 0 1 1 1v6a1 1 0 0 1-1 1h-6a1 1 0 0 1-1-1V6Zm1-3a3 3 0 0 0-3 3v6a3 3 0 0 0 3 3h6a3 3 0 0 0 3-3V6a3 3 0 0 0-3-3h-6Zm-1 22.586L21.586 23 19 20.414v5.172ZM20.414 27h5.172L23 24.414 20.414 27Zm4-4L27 25.586v-5.172L24.414 23Zm1.172-4h-5.172L23 21.586 25.586 19ZM17 20a3 3 0 0 1 3-3h6a3 3 0 0 1 3 3v6a3 3 0 0 1-3 3h-6a3 3 0 0 1-3-3v-6ZM5 20a1 1 0 0 1 1-1h6a1 1 0 0 1 1 1v6a1 1 0 0 1-1 1H6a1 1 0 0 1-1-1v-6Zm1-3a3 3 0 0 0-3 3v6a3 3 0 0 0 3 3h6a3 3 0 0 0 3-3v-6a3 3 0 0 0-3-3H6Z"/></svg>