<svg xmlns="http://www.w3.org/2000/svg" width="32" height="32" viewBox="0 0 32 32"><path fill-rule="evenodd" d="M16 2a14 14 0 1 0 14 14A14.016 14.016 0 0 0 16 2Zm5.616 7.076a1.001 1.001 0 0 1 1.384.925v4.002a.998.998 0 0 1-1.001 1h-4.005a1.001 1.001 0 1 1 0-2h1.975a5.047 5.047 0 0 0-.438-.538 5.008 5.008 0 0 0-8.458 4.472 5.003 5.003 0 0 0 4.36 4.04 5.01 5.01 0 0 0 5.15-2.972l.165-.393a1.001 1.001 0 0 1 1.844.782l-.17.402a6.998 6.998 0 0 1-7.198 4.161 7.004 7.004 0 0 1-6.1-5.647 6.993 6.993 0 0 1 3.6-7.49 7.006 7.006 0 0 1 8.224 1.231l.026.029.024.027V10a.999.999 0 0 1 .618-.925Z" clip-rule="evenodd"/></svg>