<svg xmlns="http://www.w3.org/2000/svg" width="32" height="32" viewBox="0 0 32 32"><path d="m11.647 11.354 4 4.002a.5.5 0 0 0 .707 0l4-4.002a.5.5 0 1 0-.707-.707l-3.146 3.148V5a.5.5 0 0 0-1 0v8.795l-3.147-3.148a.5.5 0 0 0-.707.707M23 4.5h-2a.5.5 0 0 0 0 1h2A3.504 3.504 0 0 1 26.5 9v14a3.504 3.504 0 0 1-3.5 3.5H9A3.504 3.504 0 0 1 5.5 23V9A3.504 3.504 0 0 1 9 5.5h2a.5.5 0 1 0 0-1H9A4.505 4.505 0 0 0 4.5 9v14A4.505 4.505 0 0 0 9 27.5h14a4.505 4.505 0 0 0 4.5-4.5V9A4.505 4.505 0 0 0 23 4.5"/></svg>