<svg xmlns="http://www.w3.org/2000/svg" width="32" height="32" viewBox="0 0 32 32"><path d="m11.47 11.53 4 4.003a.75.75 0 0 0 1.06 0l4-4.002a.75.75 0 1 0-1.06-1.061l-2.72 2.721v-8.19a.75.75 0 1 0-1.5 0v8.19l-2.72-2.721a.75.75 0 0 0-1.06 1.06M23 4.25h-2a.75.75 0 1 0 0 1.5h2A3.254 3.254 0 0 1 26.25 9v14A3.253 3.253 0 0 1 23 26.25H9A3.254 3.254 0 0 1 5.75 23V9A3.254 3.254 0 0 1 9 5.75h2a.75.75 0 1 0 0-1.5H9A4.755 4.755 0 0 0 4.25 9v14A4.755 4.755 0 0 0 9 27.75h14A4.755 4.755 0 0 0 27.75 23V9A4.755 4.755 0 0 0 23 4.25"/></svg>