<svg xmlns="http://www.w3.org/2000/svg" width="32" height="32" viewBox="0 0 32 32"><path d="M23 4h-1a1 1 0 1 0 0 2h1a3.003 3.003 0 0 1 3 3v1a1 1 0 0 0 2 0V9a5.006 5.006 0 0 0-5-5M5 10.998a1 1 0 0 0 1-1V9a3.003 3.003 0 0 1 3-3h1a1 1 0 1 0 0-2H9a5.006 5.006 0 0 0-5 5v.998a1 1 0 0 0 1 1M10 26H9a3.003 3.003 0 0 1-3-3v-1a1 1 0 1 0-2 0v1a5.006 5.006 0 0 0 5 5h1a1 1 0 0 0 0-2M27 21a1 1 0 0 0-1 1v1a3.004 3.004 0 0 1-3 3h-1a1 1 0 0 0 0 2h1a5.006 5.006 0 0 0 5-5v-1a1 1 0 0 0-1-1M27 15H5a1 1 0 0 0 0 2h22a1 1 0 0 0 0-2"/></svg>