<svg xmlns="http://www.w3.org/2000/svg" width="32" height="32" viewBox="0 0 32 32"><path d="M23 4.5h-1a.5.5 0 0 0 0 1h1A3.504 3.504 0 0 1 26.5 9v1a.5.5 0 0 0 1 0V9A4.505 4.505 0 0 0 23 4.5M5 10.498a.5.5 0 0 0 .5-.5V9A3.504 3.504 0 0 1 9 5.5h1a.5.5 0 0 0 0-1H9A4.505 4.505 0 0 0 4.5 9v.998a.5.5 0 0 0 .5.5M10 26.5H9A3.504 3.504 0 0 1 5.5 23v-1a.5.5 0 0 0-1 0v1A4.505 4.505 0 0 0 9 27.5h1a.5.5 0 0 0 0-1M27 21.5a.5.5 0 0 0-.5.5v1a3.504 3.504 0 0 1-3.5 3.5h-1a.5.5 0 0 0 0 1h1a4.505 4.505 0 0 0 4.5-4.5v-1a.5.5 0 0 0-.5-.5M27 15.5H5a.5.5 0 0 0 0 1h22a.5.5 0 0 0 0-1"/></svg>