<svg xmlns="http://www.w3.org/2000/svg" width="32" height="32" viewBox="0 0 32 32"><path d="M23 4.25h-1a.75.75 0 1 0 0 1.5h1A3.254 3.254 0 0 1 26.25 9v1a.75.75 0 1 0 1.5 0V9A4.755 4.755 0 0 0 23 4.25M5 10.748a.75.75 0 0 0 .75-.75V9A3.254 3.254 0 0 1 9 5.75h1a.75.75 0 1 0 0-1.5H9A4.755 4.755 0 0 0 4.25 9v.998a.75.75 0 0 0 .75.75M10 26.25H9A3.254 3.254 0 0 1 5.75 23v-1a.75.75 0 1 0-1.5 0v1A4.755 4.755 0 0 0 9 27.75h1a.75.75 0 1 0 0-1.5M27 21.25a.75.75 0 0 0-.75.75v1A3.254 3.254 0 0 1 23 26.25h-1a.75.75 0 1 0 0 1.5h1A4.755 4.755 0 0 0 27.75 23v-1a.75.75 0 0 0-.75-.75M27 15.25H5a.75.75 0 1 0 0 1.5h22a.75.75 0 1 0 0-1.5"/></svg>