<svg xmlns="http://www.w3.org/2000/svg" width="32" height="32" viewBox="0 0 32 32"><path d="M26.712 25.282a4.077 4.077 0 0 1-2.077-.37 4.146 4.146 0 0 1-2.347-4.066c.06-.713.308-1.398.72-1.984a1.182 1.182 0 0 0-1.303-1.812 6.1 6.1 0 0 0-.784 11.414c.79.35 1.643.532 2.506.533a6.092 6.092 0 0 0 4.206-1.683 1.182 1.182 0 0 0-.92-2.032Zm-4.98 1.354a4.097 4.097 0 0 1-2.387-4.136 4.152 4.152 0 0 1 1.013-2.314 6.099 6.099 0 0 0 3.884 6.729 4.152 4.152 0 0 1-2.51-.28Z"/><path d="M23 5V3a1 1 0 0 0-2 0v2H11V3a1 1 0 0 0-2 0v2a5.006 5.006 0 0 0-5 5v14a5.006 5.006 0 0 0 5 5h5a1 1 0 0 0 0-2H9a3.003 3.003 0 0 1-3-3V13.002h20V17a1 1 0 1 0 2 0v-7a5.006 5.006 0 0 0-5-5Zm3 6.002H6V10a3.003 3.003 0 0 1 3-3h14a3.003 3.003 0 0 1 3 3v1.002Z"/></svg>