<svg xmlns="http://www.w3.org/2000/svg" width="32" height="32" viewBox="0 0 32 32"><path d="M26.647 21.646 21 27.293l-3.646-3.647a.5.5 0 0 0-.707.707l4 4a.5.5 0 0 0 .707 0l6-6a.5.5 0 0 0-.707-.707M23 5.5h-.5V3a.5.5 0 0 0-1 0v2.5h-11V3a.5.5 0 0 0-1 0v2.5H9A4.505 4.505 0 0 0 4.5 10v14A4.505 4.505 0 0 0 9 28.5h5a.5.5 0 0 0 0-1H9A3.504 3.504 0 0 1 5.5 24V12.502h20.957c.015 0 .028-.008.043-.009V17a.5.5 0 0 0 1 0v-7A4.505 4.505 0 0 0 23 5.5m3.457 6.002H5.5V10A3.504 3.504 0 0 1 9 6.5h14a3.504 3.504 0 0 1 3.5 3.5v1.51c-.015 0-.028-.008-.043-.008"/></svg>