<svg xmlns="http://www.w3.org/2000/svg" width="32" height="32" viewBox="0 0 32 32"><path d="M23 3.5v2a5 5 0 0 1 5 5v14a5 5 0 0 1-5 5H9a5 5 0 0 1-5-5v-14a5 5 0 0 1 5-5v-2a1 1 0 0 1 2 0v2h10v-2a1 1 0 1 1 2 0Zm-14 4a3 3 0 0 0-3 3v14a3 3 0 0 0 3 3h14a3 3 0 0 0 3-3v-14a3 3 0 0 0-3-3H9Zm7.748 8.193.005.013a1.462 1.462 0 0 0 1.315.954h2.016l-1.597 1.371a1.461 1.461 0 0 0-.48 1.527l.004.018.687 2.133-1.877-1.28-.009-.006a1.462 1.462 0 0 0-1.623 0l-1.885 1.285.674-2.088.005-.018a1.527 1.527 0 0 0-.504-1.598l-1.563-1.343h2.028l.02-.001a1.462 1.462 0 0 0 1.311-.954l.004-.01.727-2.103.742 2.1ZM16 10.5a1.462 1.462 0 0 0-1.372.956l-.003.01-1.104 3.195h-3.119a1.462 1.462 0 0 0-.867 2.591l2.432 2.089-1.061 3.287-.006.02a1.461 1.461 0 0 0 2.219 1.607l.01-.006L16 22.289l2.872 1.96.01.006a1.46 1.46 0 0 0 2.218-1.608l-.005-.02-1.06-3.29 2.43-2.084a1.461 1.461 0 0 0-.867-2.591l-.02-.001h-3.075l-1.128-3.192-.005-.013A1.461 1.461 0 0 0 16 10.5Z"/></svg>