<svg xmlns="http://www.w3.org/2000/svg" width="32" height="32" viewBox="0 0 32 32"><path d="M10 2.5a1 1 0 0 0-1 1v2a5 5 0 0 0-5 5v14a5 5 0 0 0 5 5h14a5 5 0 0 0 5-5v-14a5 5 0 0 0-5-5v-2a1 1 0 1 0-2 0v2H11v-2a1 1 0 0 0-1-1Zm-1 5h14a3 3 0 0 1 3 3v14a3 3 0 0 1-3 3H9a3 3 0 0 1-3-3v-14a3 3 0 0 1 3-3Zm6.567 4.302a.461.461 0 0 1 .866 0l1.258 3.558a.463.463 0 0 0 .415.3h3.453a.462.462 0 0 1 .267.824L19.127 18.8a.46.46 0 0 0-.158.487l1.169 3.628a.461.461 0 0 1-.701.508l-3.18-2.169a.461.461 0 0 0-.513 0l-3.18 2.169a.461.461 0 0 1-.7-.508l1.157-3.585a.527.527 0 0 0-.181-.557l-2.664-2.289a.463.463 0 0 1 .007-.73.462.462 0 0 1 .26-.093h3.48a.462.462 0 0 0 .414-.301l1.23-3.558Z"/></svg>