<svg xmlns="http://www.w3.org/2000/svg" width="32" height="32" viewBox="0 0 32 32"><path d="M26.734 25.531a4.345 4.345 0 0 1-3.932-6.811.938.938 0 0 0-.461-1.42.927.927 0 0 0-.565-.01 5.85 5.85 0 0 0-.753 10.945 5.926 5.926 0 0 0 2.404.512 5.848 5.848 0 0 0 4.034-1.613.93.93 0 0 0-.175-1.475.948.948 0 0 0-.552-.128Zm-5.103 1.333a4.349 4.349 0 0 1-.839-7.422 5.857 5.857 0 0 0 4.31 7.469 4.39 4.39 0 0 1-3.47-.047Z"/><path d="M23 5.25h-.25V3a.75.75 0 0 0-1.5 0v2.25h-10.5V3a.75.75 0 0 0-1.5 0v2.25H9A4.755 4.755 0 0 0 4.25 10v14A4.756 4.756 0 0 0 9 28.75h5a.75.75 0 0 0 0-1.5H9A3.254 3.254 0 0 1 5.75 24V12.752h20.5V17a.75.75 0 1 0 1.5 0v-7A4.756 4.756 0 0 0 23 5.25ZM5.75 11.252V10A3.254 3.254 0 0 1 9 6.75h14A3.254 3.254 0 0 1 26.25 10v1.252H5.75Z"/></svg>