<svg xmlns="http://www.w3.org/2000/svg" width="32" height="32" viewBox="0 0 32 32"><path d="M22.75 3.5v2.25H23a4.75 4.75 0 0 1 4.75 4.75v14A4.75 4.75 0 0 1 23 29.25H9a4.75 4.75 0 0 1-4.75-4.75v-14A4.75 4.75 0 0 1 9 5.75h.25V3.5a.75.75 0 0 1 1.5 0v2.25h10.5V3.5a.75.75 0 0 1 1.5 0ZM9 7.25a3.25 3.25 0 0 0-3.25 3.25v14A3.25 3.25 0 0 0 9 27.75h14a3.25 3.25 0 0 0 3.25-3.25v-14A3.25 3.25 0 0 0 23 7.25H9Zm7.984 8.36.003.01a1.212 1.212 0 0 0 1.09.79h2.682l-2.111 1.813a1.21 1.21 0 0 0-.401 1.267l.003.014.91 2.822-2.48-1.691-.006-.004a1.211 1.211 0 0 0-1.346 0l-2.486 1.695.897-2.779.003-.013a1.277 1.277 0 0 0-.423-1.339l-2.078-1.784h2.713a1.212 1.212 0 0 0 1.087-.792l.002-.007.96-2.777.98 2.775ZM16 10.75a1.212 1.212 0 0 0-1.137.793l-.003.007-1.161 3.36h-3.271l-.016.002a1.212 1.212 0 0 0-.716 2.149l2.56 2.198-1.11 3.44-.005.015a1.21 1.21 0 0 0 1.84 1.333l.006-.005 3.014-2.055 3.013 2.055.007.005a1.212 1.212 0 0 0 1.84-1.333l-.005-.014-1.11-3.444 2.56-2.195a1.212 1.212 0 0 0-.717-2.15h-3.261l-1.188-3.359-.003-.01A1.212 1.212 0 0 0 16 10.75Z"/></svg>