<svg xmlns="http://www.w3.org/2000/svg" width="32" height="32" viewBox="0 0 32 32"><path d="M26.712 25.282a4.1 4.1 0 0 1-2.077-.37 4.15 4.15 0 0 1-2.346-4.065c.06-.714.307-1.399.718-1.985a1.182 1.182 0 0 0-1.301-1.812 6.1 6.1 0 0 0-.785 11.414c.79.35 1.643.532 2.506.533a6.1 6.1 0 0 0 4.206-1.683 1.183 1.183 0 0 0-.92-2.032m-4.98 1.354a4.1 4.1 0 0 1-2.387-4.136 4.15 4.15 0 0 1 1.013-2.314q-.04.239-.062.484a6.1 6.1 0 0 0 3.946 6.245 4.15 4.15 0 0 1-2.51-.28M23 5V3a1 1 0 0 0-2 0v2H11V3a1 1 0 0 0-2 0v2a5.006 5.006 0 0 0-5 5v14a5.006 5.006 0 0 0 5 5h5a1 1 0 0 0 0-2H9a3.003 3.003 0 0 1-3-3V13.002h20V17a1 1 0 1 0 2 0v-7a5.006 5.006 0 0 0-5-5m3 6.002H6V10a3.003 3.003 0 0 1 3-3h14a3.003 3.003 0 0 1 3 3z"/></svg>