<svg xmlns="http://www.w3.org/2000/svg" width="32" height="32" viewBox="0 0 32 32"><path d="M27.53 19.47a.75.75 0 0 0-1.06 0L23 22.94l-3.47-3.47a.75.75 0 1 0-1.06 1.06L21.94 24l-3.47 3.47a.75.75 0 1 0 1.06 1.06L23 25.06l3.47 3.47a.75.75 0 0 0 1.06-1.06L24.06 24l3.47-3.47a.75.75 0 0 0 0-1.06M23 5.25h-.25V3a.75.75 0 1 0-1.5 0v2.25h-10.5V3a.75.75 0 1 0-1.5 0v2.25H9A4.755 4.755 0 0 0 4.25 10v14A4.756 4.756 0 0 0 9 28.75h6a.75.75 0 1 0 0-1.5H9A3.254 3.254 0 0 1 5.75 24V12.752h20.5V16a.75.75 0 1 0 1.5 0v-6A4.755 4.755 0 0 0 23 5.25M5.75 11.252V10A3.254 3.254 0 0 1 9 6.75h14A3.254 3.254 0 0 1 26.25 10v1.252z"/></svg>