<svg xmlns="http://www.w3.org/2000/svg" width="32" height="32" viewBox="0 0 32 32"><path d="M22 28.75a1 1 0 1 0 0-2 1 1 0 0 0 0 2M22 16.25A3.755 3.755 0 0 0 18.25 20a.75.75 0 1 0 1.5 0A2.25 2.25 0 1 1 22 22.25a.75.75 0 0 0-.75.75v2a.75.75 0 1 0 1.5 0v-1.325A3.75 3.75 0 0 0 22 16.25M23 5.25h-.25V3a.75.75 0 1 0-1.5 0v2.25h-10.5V3a.75.75 0 1 0-1.5 0v2.25H9A4.755 4.755 0 0 0 4.25 10v14A4.756 4.756 0 0 0 9 28.75h5a.75.75 0 1 0 0-1.5H9A3.254 3.254 0 0 1 5.75 24V12.752h20.5V15a.75.75 0 1 0 1.5 0v-5A4.755 4.755 0 0 0 23 5.25M5.75 11.252V10A3.254 3.254 0 0 1 9 6.75h14A3.254 3.254 0 0 1 26.25 10v1.252z"/></svg>