<svg xmlns="http://www.w3.org/2000/svg" width="32" height="32" viewBox="0 0 32 32"><path d="M6.95 15a1 1 0 0 1-.954-.703L2.524 3.148a.5.5 0 0 1 .701-.595l23 11.5c.472.236.304.947-.223.947zM2.521 29.14a.5.5 0 0 1 .003-.288l3.472-11.15A1 1 0 0 1 6.95 17h14.042a8 8 0 0 0-7.98 7.554l-9.788 4.894a.5.5 0 0 1-.704-.308M25.436 18.342l.79-.395c.471-.236.303-.947-.224-.947h-4.995a7.96 7.96 0 0 1 4.43 1.342M15 25a6 6 0 1 1 12 0 6 6 0 0 1-12 0m7-2.5a1 1 0 1 0-2 0v2.803l1.168 1.752a1 1 0 0 0 1.664-1.11L22 24.697z"/></svg>