<svg xmlns="http://www.w3.org/2000/svg" width="32" height="32" viewBox="0 0 32 32"><path d="M26.755 25.78a4.595 4.595 0 0 1-4.158-7.203.686.686 0 0 0-.336-1.042.67.67 0 0 0-.414-.006 5.598 5.598 0 1 0 5.442 9.424.67.67 0 0 0 .15-.771.69.69 0 0 0-.684-.402m-5.225 1.313a4.6 4.6 0 0 1-.228-8.27 5.602 5.602 0 0 0 4.593 7.956 4.62 4.62 0 0 1-4.365.314M23 5.5h-.5V3a.5.5 0 0 0-1 0v2.5h-11V3a.5.5 0 0 0-1 0v2.5H9A4.505 4.505 0 0 0 4.5 10v14A4.505 4.505 0 0 0 9 28.5h5a.5.5 0 0 0 0-1H9A3.504 3.504 0 0 1 5.5 24V12.502h20.957c.015 0 .028-.008.043-.009V17a.5.5 0 0 0 1 0v-7A4.505 4.505 0 0 0 23 5.5m3.456 6.002H5.5V10A3.504 3.504 0 0 1 9 6.5h14a3.504 3.504 0 0 1 3.5 3.5v1.51c-.015 0-.028-.008-.044-.008"/></svg>