<svg xmlns="http://www.w3.org/2000/svg" width="32" height="32" viewBox="0 0 32 32"><path d="M22.5 3.5V6h.5a4.5 4.5 0 0 1 4.5 4.5v14A4.5 4.5 0 0 1 23 29H9a4.5 4.5 0 0 1-4.5-4.5v-14A4.5 4.5 0 0 1 9 6h.5V3.5a.5.5 0 0 1 1 0V6h11V3.5a.5.5 0 0 1 1 0ZM9 7a3.5 3.5 0 0 0-3.5 3.5v14A3.5 3.5 0 0 0 9 28h14a3.5 3.5 0 0 0 3.5-3.5v-14A3.5 3.5 0 0 0 23 7H9Zm5.81 8.523L16 12.078l1.22 3.448.002.007a.962.962 0 0 0 .865.627h3.348l-2.627 2.255a.962.962 0 0 0-.32 1.008l.002.008 1.131 3.512-3.082-2.102-.004-.003a.961.961 0 0 0-1.068 0l-.004.003-3.083 2.102 1.12-3.468.002-.009a1.026 1.026 0 0 0-.343-1.079l-2.592-2.226h3.376a.963.963 0 0 0 .863-.628l.004-.01ZM16 11a.962.962 0 0 0-.903.63l-.003.009-1.217 3.522H10.423a.962.962 0 0 0-.567 1.708l2.666 2.29.009.006a.027.027 0 0 1 .01.025l-1.156 3.581-.003.01a.961.961 0 0 0 1.46 1.058l.004-.003 3.155-2.151 3.154 2.15.005.004a.961.961 0 0 0 1.46-1.058l-.003-.01-1.16-3.596 2.688-2.306a.962.962 0 0 0-.566-1.708h-3.428l-1.247-3.526-.002-.006A.961.961 0 0 0 16 11Z"/></svg>