<svg xmlns="http://www.w3.org/2000/svg" width="32" height="32" viewBox="0 0 32 32"><path d="M22 29a1.25 1.25 0 1 0 0-2.5 1.25 1.25 0 0 0 0 2.5M22 16a4.004 4.004 0 0 0-4 4 1 1 0 0 0 2 0 2 2 0 1 1 2 2 1 1 0 0 0-1 1v1a1 1 0 0 0 2 0v-.127A4 4 0 0 0 22 16M23 5V3a1 1 0 1 0-2 0v2H11V3a1 1 0 1 0-2 0v2a5.006 5.006 0 0 0-5 5v14a5.006 5.006 0 0 0 5 5h5a1 1 0 0 0 0-2H9a3.003 3.003 0 0 1-3-3V13.002h20V15a1 1 0 0 0 2 0v-5a5.006 5.006 0 0 0-5-5M6 11.002V10a3.003 3.003 0 0 1 3-3h14a3.003 3.003 0 0 1 3 3v1.002z"/></svg>