<svg xmlns="http://www.w3.org/2000/svg" width="32" height="32" viewBox="0 0 32 32"><path d="M3.224 2.553a.5.5 0 0 0-.701.596l3.98 12.788a.5.5 0 0 0 0 .126L2.524 28.85a.5.5 0 0 0 .7.596l10.5-5.25a.5.5 0 1 0-.447-.894l-9.45 4.725L7.415 16.5h19.467l-2.46 1.23a.5.5 0 0 0 .447.894l4.345-2.172A.5.5 0 0 0 29.5 16zM26.882 15.5H7.415L3.826 3.972zM29.3 15.6a.5.5 0 0 0-.086-.052l.01.005q.041.02.076.047M21.5 22.5a.5.5 0 0 0-1 0v2.651l1.084 1.626a.5.5 0 1 0 .832-.554l-.916-1.374zM15.5 25a5.5 5.5 0 1 1 11 0 5.5 5.5 0 0 1-11 0m5.5-4.5a4.5 4.5 0 1 0 0 9 4.5 4.5 0 0 0 0-9"/></svg>