<svg xmlns="http://www.w3.org/2000/svg" width="32" height="32" viewBox="0 0 32 32"><path d="M23 5V3a1 1 0 1 0-2 0v2H11V3a1 1 0 1 0-2 0v2a5 5 0 0 0-5 5v14a5 5 0 0 0 5 5h14a5 5 0 0 0 5-5V10a5 5 0 0 0-5-5m-6.247 10.206-.005-.013-.742-2.1-.727 2.103-.004.01a1.46 1.46 0 0 1-1.31.954h-2.049l1.563 1.344a1.53 1.53 0 0 1 .504 1.598l-.005.018-.674 2.088 1.885-1.285a1.46 1.46 0 0 1 1.623 0l.009.005 1.877 1.28-.687-2.132-.005-.018a1.46 1.46 0 0 1 .481-1.527l1.597-1.37h-2.016a1.46 1.46 0 0 1-1.315-.955m-1.59-4.943a1.462 1.462 0 0 1 2.209.693l.004.013 1.128 3.192H21.6a1.461 1.461 0 0 1 .867 2.592l-2.43 2.085 1.06 3.29.005.02a1.461 1.461 0 0 1-2.218 1.607l-.01-.006-2.872-1.96-2.873 1.96-.009.006a1.461 1.461 0 0 1-2.219-1.608l.006-.02 1.06-3.286-2.43-2.089a1.462 1.462 0 0 1 .866-2.59l.02-.001h3.099l1.104-3.195.003-.01c.104-.28.29-.522.536-.694"/></svg>