<svg xmlns="http://www.w3.org/2000/svg" width="32" height="32" viewBox="0 0 32 32"><path d="M22.5 3v2.5h.5a4.5 4.5 0 0 1 4.5 4.5v14a4.5 4.5 0 0 1-4.5 4.5H9A4.5 4.5 0 0 1 4.5 24V10A4.5 4.5 0 0 1 9 5.5h.5V3a.5.5 0 0 1 1 0v2.5h11V3a.5.5 0 0 1 1 0M9 6.5A3.5 3.5 0 0 0 5.5 10v14A3.5 3.5 0 0 0 9 27.5h14a3.5 3.5 0 0 0 3.5-3.5V10A3.5 3.5 0 0 0 23 6.5zm5.81 8.523L16 11.578l1.22 3.448.002.007a.96.96 0 0 0 .865.628h3.348l-2.627 2.254a.96.96 0 0 0-.32 1.008l.002.008 1.131 3.512-3.082-2.102-.004-.003a.96.96 0 0 0-1.068 0l-.004.003-3.083 2.102 1.12-3.468.002-.009a1.03 1.03 0 0 0-.343-1.079l-2.592-2.226h3.376a.96.96 0 0 0 .863-.628zM16 10.5a.96.96 0 0 0-.903.63l-.003.009-1.217 3.522h-3.454a.962.962 0 0 0-.567 1.708l2.666 2.29.009.006a.03.03 0 0 1 .01.025l-1.156 3.581-.003.01a.961.961 0 0 0 1.46 1.058l.004-.003 3.155-2.151 3.154 2.15.005.004a.961.961 0 0 0 1.46-1.058l-.003-.01-1.16-3.596 2.688-2.306a.962.962 0 0 0-.566-1.708h-3.428l-1.247-3.526-.002-.006A.96.96 0 0 0 16 10.5"/></svg>