<svg xmlns="http://www.w3.org/2000/svg" width="32" height="32" viewBox="0 0 32 32"><path d="M3.335 2.33a.75.75 0 0 0-1.051.893L6.25 15.966v.069L2.284 28.777a.75.75 0 0 0 1.051.894l10.271-5.136a.75.75 0 0 0-.67-1.341L4.24 27.542 7.599 16.75h18.224l-1.332.666a.75.75 0 1 0 .671 1.342l4.16-2.08a.752.752 0 0 0 .129-1.278 1 1 0 0 0-.13-.078zm22.488 12.92H7.599L4.239 4.458zM21.75 22.5a.75.75 0 0 0-1.5 0v2.727l1.126 1.689a.75.75 0 1 0 1.248-.832l-.874-1.311zM15.25 25a5.75 5.75 0 1 1 11.5 0 5.75 5.75 0 0 1-11.5 0M21 20.75a4.25 4.25 0 1 0 0 8.5 4.25 4.25 0 0 0 0-8.5"/></svg>