<svg xmlns="http://www.w3.org/2000/svg" width="32" height="32" viewBox="0 0 32 32"><path d="M27.707 19.293a1 1 0 0 0-1.414 0L23 22.586l-3.293-3.293a1 1 0 0 0-1.414 1.414L21.586 24l-3.293 3.293A.998.998 0 0 0 19 29a1 1 0 0 0 .707-.293L23 25.414l3.293 3.293a1 1 0 1 0 1.414-1.414L24.414 24l3.293-3.293a1 1 0 0 0 0-1.414M23 5V3a1 1 0 0 0-2 0v2H11V3a1 1 0 0 0-2 0v2a5.006 5.006 0 0 0-5 5v14a5.006 5.006 0 0 0 5 5h6a1 1 0 0 0 0-2H9a3.003 3.003 0 0 1-3-3V13.002h20V16a1 1 0 0 0 2 0v-6a5.006 5.006 0 0 0-5-5m3 6.002H6V10a3.003 3.003 0 0 1 3-3h14a3.003 3.003 0 0 1 3 3z"/></svg>