<svg xmlns="http://www.w3.org/2000/svg" width="32" height="32" viewBox="0 0 32 32"><path d="M15.993 9.212a6.75 6.75 0 1 0 6.75 6.75 6.76 6.76 0 0 0-6.75-6.75m0 12a5.25 5.25 0 1 1 5.25-5.25 5.256 5.256 0 0 1-5.25 5.25M24.307 3.25H22a.75.75 0 1 0 0 1.5h2.307a2.946 2.946 0 0 1 2.943 2.942V10a.75.75 0 1 0 1.5 0V7.692a4.45 4.45 0 0 0-4.443-4.442M4 10.75a.75.75 0 0 0 .75-.75V7.692A2.946 2.946 0 0 1 7.692 4.75H10a.75.75 0 0 0 0-1.5H7.692A4.45 4.45 0 0 0 3.25 7.692V10a.75.75 0 0 0 .75.75M10 27.25H7.692a2.946 2.946 0 0 1-2.942-2.942V22a.75.75 0 0 0-1.5 0v2.308a4.447 4.447 0 0 0 4.442 4.442H10a.75.75 0 1 0 0-1.5M28 21.25a.75.75 0 0 0-.75.75v2.308a2.946 2.946 0 0 1-2.943 2.942H22a.75.75 0 1 0 0 1.5h2.307a4.45 4.45 0 0 0 4.443-4.442V22a.75.75 0 0 0-.75-.75"/></svg>