<svg xmlns="http://www.w3.org/2000/svg" width="32" height="32" viewBox="0 0 32 32"><path d="M15.994 22.463a6.5 6.5 0 1 0 0-13 6.5 6.5 0 0 0 0 13ZM24.308 3H22a1 1 0 1 0 0 2h2.308A2.696 2.696 0 0 1 27 7.693V10a1 1 0 1 0 2 0V7.693A4.699 4.699 0 0 0 24.308 3ZM4 11a1 1 0 0 0 1-1V7.693A2.696 2.696 0 0 1 7.693 5H10a1 1 0 1 0 0-2H7.693A4.698 4.698 0 0 0 3 7.693V10a1 1 0 0 0 1 1ZM10 27H7.694A2.695 2.695 0 0 1 5 24.308V22a1 1 0 0 0-2 0v2.308A4.698 4.698 0 0 0 7.693 29H10a1 1 0 1 0 0-2ZM28 21a1.001 1.001 0 0 0-1 1v2.308A2.695 2.695 0 0 1 24.308 27H22a1 1 0 0 0 0 2h2.308A4.698 4.698 0 0 0 29 24.308V22a1.001 1.001 0 0 0-1-1Z"/></svg>