<svg xmlns="http://www.w3.org/2000/svg" width="32" height="32" viewBox="0 0 32 32"><path d="M15.994 22.463a6.5 6.5 0 1 0 0-13 6.5 6.5 0 0 0 0 13M24.308 3H22a1 1 0 1 0 0 2h2.308A2.696 2.696 0 0 1 27 7.693V10a1 1 0 1 0 2 0V7.693A4.7 4.7 0 0 0 24.309 3M4 11a1 1 0 0 0 1-1V7.693A2.696 2.696 0 0 1 7.693 5H10a1 1 0 1 0 0-2H7.693A4.7 4.7 0 0 0 3 7.693V10a1 1 0 0 0 1 1M10 27H7.694A2.695 2.695 0 0 1 5 24.308V22a1 1 0 0 0-2 0v2.308A4.7 4.7 0 0 0 7.693 29H10a1 1 0 1 0 0-2M28 21a1 1 0 0 0-1 1v2.308A2.695 2.695 0 0 1 24.309 27H22a1 1 0 0 0 0 2h2.308A4.7 4.7 0 0 0 29 24.308V22a1 1 0 0 0-1-1"/></svg>