<svg xmlns="http://www.w3.org/2000/svg" width="32" height="32" viewBox="0 0 32 32"><path d="M15.993 9.463a6.5 6.5 0 1 0 6.5 6.5 6.51 6.51 0 0 0-6.5-6.5m0 12a5.5 5.5 0 1 1 5.5-5.5 5.507 5.507 0 0 1-5.5 5.5M24.307 3.5H22a.5.5 0 1 0 0 1h2.307A3.195 3.195 0 0 1 27.5 7.692V10a.5.5 0 1 0 1 0V7.692A4.2 4.2 0 0 0 24.307 3.5M4 10.5a.5.5 0 0 0 .5-.5V7.692A3.195 3.195 0 0 1 7.692 4.5H10a.5.5 0 0 0 0-1H7.692A4.197 4.197 0 0 0 3.5 7.692V10a.5.5 0 0 0 .5.5M10 27.5H7.692A3.195 3.195 0 0 1 4.5 24.308V22a.5.5 0 1 0-1 0v2.308A4.197 4.197 0 0 0 7.692 28.5H10a.5.5 0 0 0 0-1M28 21.5a.5.5 0 0 0-.5.5v2.308a3.195 3.195 0 0 1-3.193 3.192H22a.5.5 0 1 0 0 1h2.307a4.2 4.2 0 0 0 4.193-4.192V22a.5.5 0 0 0-.5-.5"/></svg>