<svg xmlns="http://www.w3.org/2000/svg" width="32" height="32" viewBox="0 0 32 32"><path d="M16 2.25A13.75 13.75 0 1 0 29.75 16 13.765 13.765 0 0 0 16 2.25m0 26A12.25 12.25 0 1 1 28.25 16 12.263 12.263 0 0 1 16 28.25M18.846 14.097h-.173v-1.173a2.671 2.671 0 0 0-4.564-1.894 2.67 2.67 0 0 0-.782 1.893v1.174h-.173a1.75 1.75 0 0 0-1.75 1.75V20a1.75 1.75 0 0 0 1.75 1.75h5.692a1.753 1.753 0 0 0 1.75-1.75v-4.153a1.75 1.75 0 0 0-1.75-1.75m-4.019-1.174a1.173 1.173 0 1 1 2.346 0v1.174h-2.346zM19.096 20a.25.25 0 0 1-.25.25h-5.692a.25.25 0 0 1-.25-.25v-4.153a.25.25 0 0 1 .25-.25h5.692a.25.25 0 0 1 .25.25z"/></svg>