<svg xmlns="http://www.w3.org/2000/svg" width="32" height="32" viewBox="0 0 32 32"><path d="M16 2.5A13.5 13.5 0 1 0 29.5 16 13.515 13.515 0 0 0 16 2.5m0 26A12.5 12.5 0 1 1 28.5 16 12.514 12.514 0 0 1 16 28.5M18.846 14.347h-.423v-1.423a2.423 2.423 0 1 0-4.846-.001v1.424h-.423a1.5 1.5 0 0 0-1.5 1.5V20a1.5 1.5 0 0 0 1.5 1.5h5.692a1.5 1.5 0 0 0 1.5-1.5v-4.153a1.5 1.5 0 0 0-1.5-1.5m-4.269-1.424a1.425 1.425 0 0 1 1.97-1.318 1.42 1.42 0 0 1 .876 1.319v1.423h-2.846zM19.346 20a.5.5 0 0 1-.5.5h-5.692a.5.5 0 0 1-.5-.5v-4.153a.5.5 0 0 1 .5-.5h5.692a.5.5 0 0 1 .5.5z"/></svg>