<svg xmlns="http://www.w3.org/2000/svg" width="32" height="32" viewBox="0 0 32 32"><path d="M23 12.5h-1.498V8.454c0-3.45-2.314-5.954-5.502-5.954-3.185 0-5.498 2.504-5.498 5.954V12.5H9A3.504 3.504 0 0 0 5.5 16v10A3.504 3.504 0 0 0 9 29.5h14a3.504 3.504 0 0 0 3.5-3.5V16a3.504 3.504 0 0 0-3.5-3.5ZM11.502 8.454c0-2.87 1.892-4.954 4.498-4.954 2.609 0 4.502 2.084 4.502 4.954V12.5h-9V8.454ZM25.5 26a2.502 2.502 0 0 1-2.5 2.5H9A2.502 2.502 0 0 1 6.5 26V16A2.502 2.502 0 0 1 9 13.5h14a2.502 2.502 0 0 1 2.5 2.5v10Z"/></svg>