<svg xmlns="http://www.w3.org/2000/svg" width="32" height="32" viewBox="0 0 32 32"><path d="M27 5.5v1a2.003 2.003 0 0 1 2 2v4a2.003 2.003 0 0 1-2 2h-6a2.003 2.003 0 0 1-2-2v-4a2.003 2.003 0 0 1 2-2v-1a3 3 0 0 1 6 0m-3.707-.707A1 1 0 0 0 23 5.5v1h2v-1a1 1 0 0 0-1.707-.707M24.172 27.577c-1.8 1.8-8.069 2.261-15.065-4.734C2.112 15.847 2.572 9.579 4.373 7.778L5.41 6.741a3.23 3.23 0 0 1 4.566 0l2.433 2.433a3.317 3.317 0 0 1 .086 4.626l-1.168 1.166A7 7 0 0 0 13.35 18.6a7 7 0 0 0 3.638 2.02l1.157-1.158a3.214 3.214 0 0 1 4.54-.012l2.524 2.524a3.23 3.23 0 0 1 0 4.566z"/></svg>