<svg xmlns="http://www.w3.org/2000/svg" width="32" height="32" viewBox="0 0 32 32"><path d="M23.5 14.5c-.239 0-.474-.06-.684-.175a9.75 9.75 0 0 1-3.575-3.561A9.3 9.3 0 0 1 18 5.958v-.811c-.002-.311.08-.617.237-.886.155-.266.376-.487.641-.643l2.929-1.675a3.5 3.5 0 0 1 3.376 0h.005l2.918 1.668c.272.158.498.383.656.655.158.273.24.584.234.9v.816a9.27 9.27 0 0 1-1.239 4.786 9.7 9.7 0 0 1-3.553 3.548 1.45 1.45 0 0 1-.704.184M20 5.28v.7a7.3 7.3 0 0 0 .974 3.789A7.7 7.7 0 0 0 23.5 12.4a7.7 7.7 0 0 0 2.523-2.635c.662-1.143 1-2.445.977-3.765v-.72l-2.8-1.6a1.47 1.47 0 0 0-1.407 0zM9.107 22.843c6.996 6.996 13.264 6.535 15.065 4.734l1.037-1.037a3.23 3.23 0 0 0 0-4.566l-2.524-2.524a3.214 3.214 0 0 0-4.54.012l-1.157 1.157A7 7 0 0 1 13.35 18.6a7 7 0 0 1-2.023-3.634l1.168-1.166a3.317 3.317 0 0 0-.086-4.626L9.976 6.74a3.23 3.23 0 0 0-4.566 0L4.373 7.778c-1.8 1.8-2.261 8.069 4.734 15.065M6.824 8.155a1.23 1.23 0 0 1 1.738 0l2.433 2.433a1.31 1.31 0 0 1 .087 1.797l-1.383 1.38c-1.08 1.081.327 4.34 2.237 6.25 2.101 2.1 5.257 3.227 6.253 2.232l1.37-1.371a1.21 1.21 0 0 1 1.712-.012l2.524 2.524a1.23 1.23 0 0 1 0 1.738l-1.037 1.037c-1.068 1.067-6.275 1.227-12.236-4.735C4.56 15.468 4.72 10.26 5.786 9.192z"/></svg>