<svg xmlns="http://www.w3.org/2000/svg" width="32" height="32" viewBox="0 0 32 32"><path d="M28.329 4.512a1.3 1.3 0 0 0-.47-.467l-3.035-1.734h-.01a2.93 2.93 0 0 0-2.76.066L19.13 4.049a1.252 1.252 0 0 0-.63 1.099v.821a8.772 8.772 0 0 0 1.173 4.546 9.21 9.21 0 0 0 3.38 3.372.915.915 0 0 0 .44.113c.16 0 .317-.041.457-.119a9.2 9.2 0 0 0 3.37-3.366 8.774 8.774 0 0 0 1.18-4.537v-.823a1.261 1.261 0 0 0-.171-.643Zm-.83 1.475a7.791 7.791 0 0 1-1.04 4.028 8.727 8.727 0 0 1-2.914 3 8.2 8.2 0 0 1-3-3A7.792 7.792 0 0 1 19.5 5.978v-.837c0-.043.01-.085.03-.123a.313.313 0 0 1 .1-.1l2.914-1.665a1.941 1.941 0 0 1 1.9 0l2.909 1.661a.31.31 0 0 1 .106.1.254.254 0 0 1 .034.135l.007.838ZM9.454 22.454c6.746 6.746 12.68 6.412 14.358 4.734l1.037-1.037a2.731 2.731 0 0 0 0-3.858l-2.524-2.524a2.714 2.714 0 0 0-3.833.011l-1.31 1.31a7.004 7.004 0 0 1-4.192-2.171 7.025 7.025 0 0 1-2.176-4.189l1.32-1.32a2.81 2.81 0 0 0-.086-3.918L9.616 7.06a2.731 2.731 0 0 0-3.86 0L4.72 8.097c-1.678 1.678-2.012 7.611 4.734 14.357ZM6.464 7.766a1.73 1.73 0 0 1 2.444 0l2.433 2.433a1.82 1.82 0 0 1 .087 2.505l-1.382 1.38c-.707.707.27 3.575 2.236 5.542 1.967 1.966 4.838 2.94 5.546 2.232l1.37-1.37a1.713 1.713 0 0 1 2.42-.012L24.142 23a1.73 1.73 0 0 1 0 2.444l-1.037 1.037c-1.208 1.208-6.648 1.562-12.944-4.734C3.865 15.451 4.22 10.011 5.427 8.804l1.037-1.038Z"/></svg>