<svg xmlns="http://www.w3.org/2000/svg" width="32" height="32" viewBox="0 0 32 32"><path d="M26.5 6h.5a1.5 1.5 0 0 1 1.5 1.5v4A1.5 1.5 0 0 1 27 13h-6a1.5 1.5 0 0 1-1.5-1.5v-4A1.5 1.5 0 0 1 21 6h.5V4.5a2.5 2.5 0 1 1 5 0zm-3.56-2.56a1.5 1.5 0 0 0-.44 1.06V6h3V4.5a1.5 1.5 0 0 0-2.56-1.06m4.414 8.413a.5.5 0 0 0 .146-.353v-4A.5.5 0 0 0 27 7h-6a.5.5 0 0 0-.5.5v4a.5.5 0 0 0 .5.5h6c.133 0 .26-.053.354-.147M9.454 22.454c6.746 6.746 12.68 6.412 14.358 4.734l1.037-1.037a2.73 2.73 0 0 0 0-3.858l-2.524-2.524a2.714 2.714 0 0 0-3.833.011l-1.31 1.31a7 7 0 0 1-4.192-2.171 7.03 7.03 0 0 1-2.176-4.189l1.32-1.32a2.81 2.81 0 0 0-.086-3.918L9.616 7.06a2.73 2.73 0 0 0-3.86 0L4.72 8.097c-1.678 1.678-2.012 7.611 4.734 14.357M6.464 7.766a1.73 1.73 0 0 1 2.444 0l2.433 2.433a1.82 1.82 0 0 1 .087 2.505l-1.382 1.38c-.707.707.27 3.575 2.236 5.542s4.838 2.94 5.546 2.232l1.37-1.37a1.713 1.713 0 0 1 2.42-.012L24.142 23a1.73 1.73 0 0 1 0 2.444l-1.037 1.037c-1.208 1.208-6.648 1.562-12.944-4.734S4.22 10.011 5.427 8.804z"/></svg>