<svg xmlns="http://www.w3.org/2000/svg" width="32" height="32" viewBox="0 0 32 32"><path d="M23.072 18.755c.427.176.814.435 1.141.761l2.754 2.759a3.53 3.53 0 0 1 0 4.99L25.5 28.74A5.67 5.67 0 0 1 21.521 30c-3.244 0-7.9-1.622-12.9-6.63C.764 15.5 1.251 8.483 3.26 6.473L4.732 5a3.606 3.606 0 0 1 4.983 0l2.755 2.757a3.52 3.52 0 0 1 0 4.973l-.07.07c-.267.263-1.185 1.168-1.627 1.607a7.1 7.1 0 0 0 6.8 6.81c.515-.519 1.672-1.7 1.672-1.7a3.515 3.515 0 0 1 3.831-.767l-.004.005Zm1.008 8.531 1.472-1.437a1.526 1.526 0 0 0 0-2.158L22.8 20.932a1.515 1.515 0 0 0-2.137 0s-1.475 1.5-1.838 1.867c-.7.7-2.33.385-3.24.135a9.555 9.555 0 0 1-4.158-2.372c-1.767-1.77-3.538-6.1-2.235-7.406.365-.366 1.871-1.849 1.871-1.849a1.513 1.513 0 0 0-.006-2.133L8.3 6.448a1.521 1.521 0 0 0-2.155 0L4.675 7.89C3.4 9.17 3.124 15 10.034 21.917c6.911 6.917 12.765 6.646 14.045 5.369ZM23.5 14.5c-.239 0-.474-.06-.684-.175a9.746 9.746 0 0 1-3.575-3.561 9.288 9.288 0 0 1-1.24-4.806v-.811c-.003-.311.079-.617.236-.886.155-.266.376-.487.641-.643l2.93-1.675a3.5 3.5 0 0 1 3.375 0h.005l2.918 1.668c.272.158.498.383.656.655.158.273.24.584.234.9v.816a9.266 9.266 0 0 1-1.239 4.786 9.718 9.718 0 0 1-3.553 3.548 1.45 1.45 0 0 1-.704.184ZM20 5.28v.7a7.288 7.288 0 0 0 .974 3.789A7.7 7.7 0 0 0 23.5 12.4a7.685 7.685 0 0 0 2.523-2.635c.662-1.143 1-2.445.977-3.765v-.72l-2.8-1.6a1.465 1.465 0 0 0-1.407 0L20 5.28Z"/></svg>