<svg xmlns="http://www.w3.org/2000/svg" width="32" height="32" viewBox="0 0 32 32"><path d="m28.527 3.839-3.568-1.972A3.06 3.06 0 0 0 23.5 1.5c-.512 0-1.016.127-1.46.367L18.475 3.84a.95.95 0 0 0-.348.337.87.87 0 0 0-.124.453v.982a9.53 9.53 0 0 0 1.353 5.066c.921 1.55 2.265 2.846 3.896 3.761a.53.53 0 0 0 .498 0c1.631-.915 2.975-2.212 3.896-3.761a9.53 9.53 0 0 0 1.353-5.066v-.982a.87.87 0 0 0-.124-.453.95.95 0 0 0-.348-.337M24.172 27.577c-1.8 1.8-8.069 2.261-15.065-4.734C2.112 15.847 2.572 9.579 4.373 7.778L5.41 6.741a3.23 3.23 0 0 1 4.566 0l2.433 2.433a3.317 3.317 0 0 1 .086 4.626l-1.168 1.166A7 7 0 0 0 13.35 18.6a7 7 0 0 0 3.638 2.02l1.157-1.158a3.214 3.214 0 0 1 4.54-.012l2.524 2.524a3.23 3.23 0 0 1 0 4.566z"/></svg>