<svg xmlns="http://www.w3.org/2000/svg" width="32" height="32" viewBox="0 0 32 32"><path d="M28.526 3.839 24.96 1.867A3.064 3.064 0 0 0 23.5 1.5c-.513 0-1.016.127-1.46.367L18.475 3.84a.952.952 0 0 0-.348.337.867.867 0 0 0-.124.453v.982a9.532 9.532 0 0 0 1.353 5.066c.921 1.55 2.265 2.846 3.896 3.761a.53.53 0 0 0 .498 0c1.631-.915 2.975-2.212 3.896-3.761a9.531 9.531 0 0 0 1.353-5.066v-.982a.867.867 0 0 0-.124-.453.951.951 0 0 0-.348-.337ZM24.213 19.516a3.514 3.514 0 0 0-4.972.006s-1.157 1.179-1.672 1.698a7.1 7.1 0 0 1-6.801-6.81c.442-.439 1.358-1.342 1.627-1.606l.075-.074a3.519 3.519 0 0 0 0-4.973L9.715 4.999a3.607 3.607 0 0 0-4.983 0L3.259 6.473C1.251 8.483.764 15.503 8.62 23.37c5 5.008 9.657 6.63 12.901 6.63 1.437.1 2.858-.35 3.974-1.26l1.472-1.475a3.531 3.531 0 0 0 0-4.99l-2.754-2.76Z"/></svg>