<svg xmlns="http://www.w3.org/2000/svg" width="32" height="32" viewBox="0 0 32 32"><path d="M27.27 23.609a3.01 3.01 0 0 0-.656-.98l-2.753-2.753a3.083 3.083 0 0 0-4.26 0s-1.472 1.5-1.761 1.806a7.283 7.283 0 0 1-5.346-2.182 7.654 7.654 0 0 1-2.233-5.273c.348-.348 1.745-1.722 1.856-1.831l.007-.007a3.01 3.01 0 0 0 0-4.257L9.371 5.385a3.1 3.1 0 0 0-4.275 0L3.624 6.857C1.74 8.74 1.381 15.413 8.983 23.016c4.913 4.913 9.438 6.5 12.533 6.5a5.172 5.172 0 0 0 3.627-1.141l1.471-1.475a3.021 3.021 0 0 0 .656-3.294v.003ZM25.907 26.2l-1.472 1.472c-1.382 1.381-7.586 1.8-14.745-5.359C2.531 15.154 2.95 8.945 4.33 7.564L5.8 6.093a2.023 2.023 0 0 1 2.861 0l2.753 2.752a2.01 2.01 0 0 1 0 2.84s-1.5 1.477-1.866 1.841c-.58.579-.067 2.532-.006 2.754a9.028 9.028 0 0 0 2.239 3.933c2.3 2.3 5.989 2.929 6.687 2.233.364-.365 1.837-1.863 1.837-1.863a2.058 2.058 0 0 1 2.843 0l2.752 2.753a2.026 2.026 0 0 1 0 2.86l.007.004ZM28.329 4.512a1.3 1.3 0 0 0-.469-.467l-3.036-1.734h-.009a2.931 2.931 0 0 0-2.761.066L19.13 4.049a1.3 1.3 0 0 0-.465.468 1.25 1.25 0 0 0-.165.631v.821a8.77 8.77 0 0 0 1.173 4.546 9.21 9.21 0 0 0 3.38 3.372.914.914 0 0 0 .44.113c.16 0 .317-.041.457-.119a9.2 9.2 0 0 0 3.371-3.366A8.774 8.774 0 0 0 28.5 5.978v-.823a1.263 1.263 0 0 0-.171-.643ZM27.5 5.987a7.793 7.793 0 0 1-1.041 4.028 8.729 8.729 0 0 1-2.914 3 8.2 8.2 0 0 1-3-3A7.79 7.79 0 0 1 19.5 5.978v-.837c0-.043.01-.085.031-.123a.31.31 0 0 1 .1-.1l2.913-1.665a1.94 1.94 0 0 1 1.9 0l2.909 1.661a.312.312 0 0 1 .106.1.255.255 0 0 1 .034.135l.007.838Z"/></svg>