<svg xmlns="http://www.w3.org/2000/svg" width="32" height="32" viewBox="0 0 32 32"><path d="M21.73 18.773c.86 0 1.687.331 2.308.926l2.753 2.753a3.276 3.276 0 0 1 0 4.628l-1.472 1.472a5.418 5.418 0 0 1-3.8 1.2c-3.169 0-7.758-1.6-12.713-6.559C1.08 15.465 1.5 8.625 3.447 6.68L4.92 5.209a3.277 3.277 0 0 1 4.63 0L12.3 7.962a3.262 3.262 0 0 1 0 4.61l-.379.373c-.418.411-1.073 1.056-1.386 1.366a7.292 7.292 0 0 0 7.151 7.153c.474-.478 1.737-1.761 1.737-1.761a3.332 3.332 0 0 1 2.307-.93Zm2.53 8.718 1.47-1.472a1.771 1.771 0 0 0 0-2.506l-2.753-2.753a1.8 1.8 0 0 0-2.489 0s-1.474 1.5-1.837 1.862c-.866.861-4.744.064-7.04-2.233a9.286 9.286 0 0 1-2.3-4.043c-.149-.54-.579-2.349.07-3 .363-.364 1.867-1.842 1.867-1.842a1.76 1.76 0 0 0 0-2.485l-2.76-2.75a1.777 1.777 0 0 0-2.509 0L4.51 7.741C3.178 9.07 2.833 15.1 9.866 22.133c7.033 7.033 13.061 6.688 14.392 5.358ZM23.5 14.25c-.197 0-.39-.05-.563-.144a9.491 9.491 0 0 1-3.479-3.467 9.038 9.038 0 0 1-1.206-4.676v-.816c-.003-.267.066-.53.2-.76.133-.23.323-.42.551-.554l2.93-1.673a3.248 3.248 0 0 1 3.13 0l2.917 1.668c.234.135.428.33.563.563.135.233.204.498.2.767v.82a9.022 9.022 0 0 1-1.206 4.661A9.482 9.482 0 0 1 24.08 14.1a1.2 1.2 0 0 1-.58.15Zm0-11a1.7 1.7 0 0 0-.829.215l-2.91 1.665-.009.848a7.54 7.54 0 0 0 1.007 3.913A7.945 7.945 0 0 0 23.5 12.7a7.952 7.952 0 0 0 2.74-2.806 7.524 7.524 0 0 0 1.007-3.9v-.847l-2.923-1.684a1.694 1.694 0 0 0-.824-.213Z"/></svg>