<svg xmlns="http://www.w3.org/2000/svg" width="32" height="32" viewBox="0 0 32 32"><path d="M26.5 6h.5a1.502 1.502 0 0 1 1.5 1.5v4A1.502 1.502 0 0 1 27 13h-6a1.502 1.502 0 0 1-1.5-1.5v-4A1.502 1.502 0 0 1 21 6h.5V4.5a2.5 2.5 0 0 1 5 0V6Zm-3.56-2.56a1.5 1.5 0 0 0-.44 1.06V6h3V4.5a1.5 1.5 0 0 0-2.56-1.06Zm4.414 8.413a.501.501 0 0 0 .147-.353v-4A.501.501 0 0 0 27 7h-6a.5.5 0 0 0-.5.5v4a.5.5 0 0 0 .5.5h6c.132 0 .26-.053.353-.147ZM23.862 19.876a3.082 3.082 0 0 0-4.26.003s-1.473 1.497-1.762 1.805a7.272 7.272 0 0 1-5.345-2.18 7.64 7.64 0 0 1-2.233-5.27c.362-.365 1.86-1.836 1.862-1.838a3.015 3.015 0 0 0 0-4.257L9.37 5.385a3.027 3.027 0 0 0-4.274 0L3.624 6.856c-1.882 1.884-2.243 8.557 5.36 16.16 4.913 4.914 9.438 6.5 12.533 6.5a5.167 5.167 0 0 0 3.626-1.141l1.472-1.472a3.022 3.022 0 0 0 0-4.274l-2.753-2.753Zm2.046 6.32-1.472 1.472c-1.383 1.379-7.586 1.8-14.745-5.36C2.53 15.15 2.95 8.946 4.33 7.564l1.472-1.471a2.026 2.026 0 0 1 2.86 0l2.754 2.754a2.013 2.013 0 0 1 .003 2.84s-1.503 1.476-1.866 1.84c-.579.58-.066 2.533-.006 2.754a9.024 9.024 0 0 0 2.24 3.932 9.045 9.045 0 0 0 3.932 2.24c.22.059 2.174.573 2.754-.007.363-.363 1.838-1.862 1.838-1.862a2.057 2.057 0 0 1 2.843 0l2.753 2.753a2.026 2.026 0 0 1 0 2.86Z"/></svg>