<svg xmlns="http://www.w3.org/2000/svg" width="32" height="32" viewBox="0 0 32 32"><path d="M27 4.5v1a2.003 2.003 0 0 1 2 2v4a2.003 2.003 0 0 1-2 2h-6a2.003 2.003 0 0 1-2-2v-4a2.002 2.002 0 0 1 2-2v-1a3 3 0 0 1 6 0Zm-3.706-.707A1 1 0 0 0 23 4.5v1h2v-1a1 1 0 0 0-1.707-.707ZM21 7.5v4h6.002L27 7.5h-6ZM24.212 19.515a3.516 3.516 0 0 0-4.973.006s-1.157 1.18-1.671 1.699a7.1 7.1 0 0 1-6.802-6.81c.52-.516 1.697-1.674 1.702-1.68a3.52 3.52 0 0 0 0-4.973L9.714 4.999a3.607 3.607 0 0 0-4.984 0L3.258 6.473C1.25 8.483.762 15.503 8.618 23.37c5 5.007 9.658 6.63 12.902 6.63 1.436.1 2.857-.35 3.973-1.26l1.473-1.475a3.53 3.53 0 0 0 0-4.99l-2.755-2.76Zm1.339 6.333-1.472 1.438c-1.28 1.277-7.136 1.55-14.046-5.37-6.91-6.92-6.639-12.746-5.36-14.026l1.472-1.443a1.521 1.521 0 0 1 2.154 0l2.755 2.726a1.514 1.514 0 0 1 .005 2.134s-1.505 1.482-1.87 1.848c-1.304 1.31.467 5.636 2.235 7.406a9.545 9.545 0 0 0 4.156 2.373c.91.25 2.543.563 3.241-.135a638.81 638.81 0 0 0 1.839-1.867 1.513 1.513 0 0 1 2.137 0l2.754 2.76a1.526 1.526 0 0 1 0 2.156Z"/></svg>