<svg xmlns="http://www.w3.org/2000/svg" width="32" height="32" viewBox="0 0 32 32"><path d="M16 24.662A9.96 9.96 0 0 0 21 26c5.523 0 10-4.477 10-10S26.523 6 21 6c-1.821 0-3.53.487-5 1.338A9.95 9.95 0 0 0 11 6C5.477 6 1 10.477 1 16c0 1.4.288 2.732.807 3.941a6 6 0 0 0 1.175 2.035A9.99 9.99 0 0 0 11 26c1.821 0 3.53-.487 5-1.338m1.798-15.996a8 8 0 1 1 0 14.667A9.97 9.97 0 0 0 21 16a9.97 9.97 0 0 0-3.202-7.334M16 9.755A7.99 7.99 0 0 1 19 16a7.99 7.99 0 0 1-3 6.245A7.99 7.99 0 0 1 13 16a7.99 7.99 0 0 1 3-6.245"/></svg>