<svg xmlns="http://www.w3.org/2000/svg" width="32" height="32" viewBox="0 0 32 32"><path d="M5.268 21.375a1 1 0 1 0-1.79.895 13.785 13.785 0 0 0 3.286 4.248.982.982 0 0 0 .712.303 1.003 1.003 0 0 0 .652-1.764 11.932 11.932 0 0 1-2.86-3.682ZM4.03 16.858a11.973 11.973 0 0 1 .58-4.644 1 1 0 1 0-1.898-.63 13.984 13.984 0 0 0-.676 5.419 1 1 0 0 0 1.995-.145ZM16.852 27.969a11.998 11.998 0 0 1-4.647-.581 1 1 0 1 0-.63 1.898 13.993 13.993 0 0 0 5.416.679 1 1 0 0 0 .928-1.068 1.018 1.018 0 0 0-1.067-.928ZM11.064 3.929a.998.998 0 0 0-1.343-.446 13.779 13.779 0 0 0-4.239 3.282.996.996 0 0 0 1.114 1.622c.133-.06.252-.149.348-.26a11.932 11.932 0 0 1 3.674-2.857 1 1 0 0 0 .446-1.341ZM29.965 15.018a1 1 0 1 0-1.995.14 11.989 11.989 0 0 1-.585 4.645 1 1 0 0 0 1.898.633 13.973 13.973 0 0 0 .682-5.418ZM21.04 3.972a1 1 0 0 0-.634-1.264 14.04 14.04 0 0 0-5.418-.67 1 1 0 0 0-.926 1.067.99.99 0 0 0 1.069.926 12.08 12.08 0 0 1 4.646.575 1 1 0 0 0 1.264-.635ZM25.073 23.854l-.017.018a11.925 11.925 0 0 1-3.69 2.864 1 1 0 0 0 .893 1.79 13.913 13.913 0 0 0 4.297-3.33 1 1 0 1 0-1.482-1.343ZM28.112 11.119a.999.999 0 0 0 .448-1.341 13.977 13.977 0 0 0-3.348-4.314 1 1 0 1 0-1.312 1.51 11.985 11.985 0 0 1 2.87 3.698 1 1 0 0 0 1.342.447Z"/></svg>