<svg xmlns="http://www.w3.org/2000/svg" width="32" height="32" viewBox="0 0 32 32"><path d="M9.833 3.706a13.586 13.586 0 0 0-4.245 3.315.746.746 0 0 0 .904 1.138c.1-.045.19-.112.263-.195a12.167 12.167 0 0 1 3.751-2.916.75.75 0 1 0-.673-1.342ZM3.75 15.994c0-1.311.21-2.614.622-3.858a.75.75 0 0 0-1.424-.473 13.725 13.725 0 0 0-.663 5.321.75.75 0 0 0 .747.696l.055-.001a.75.75 0 0 0 .694-.802 12.18 12.18 0 0 1-.031-.883ZM16.87 28.219a12.258 12.258 0 0 1-4.743-.594.75.75 0 1 0-.474 1.424 13.757 13.757 0 0 0 5.32.666.75.75 0 0 0-.104-1.496ZM5.044 21.486a.75.75 0 0 0-1.342.672 13.583 13.583 0 0 0 3.315 4.252.736.736 0 0 0 .89.025.754.754 0 0 0 .057-1.19 12.172 12.172 0 0 1-2.92-3.759ZM29.716 15.035a.758.758 0 0 0-.8-.695.75.75 0 0 0-.696.8 12.227 12.227 0 0 1-.597 4.741.751.751 0 1 0 1.422.475 13.723 13.723 0 0 0 .67-5.32ZM25.014 5.598a.758.758 0 0 0-1.058.075.75.75 0 0 0 .075 1.058 12.23 12.23 0 0 1 2.93 3.774.75.75 0 0 0 1.342-.67 13.72 13.72 0 0 0-3.289-4.237ZM25.26 24.018l-.015.018a12.169 12.169 0 0 1-3.767 2.924.75.75 0 1 0 .67 1.342 13.658 13.658 0 0 0 4.221-3.273.75.75 0 1 0-1.108-1.01ZM20.327 2.945a13.904 13.904 0 0 0-5.321-.659.75.75 0 0 0-.695.802.76.76 0 0 0 .801.694 12.286 12.286 0 0 1 4.744.587.75.75 0 0 0 .472-1.424Z"/></svg>