<svg xmlns="http://www.w3.org/2000/svg" width="32" height="32" viewBox="0 0 32 32"><path d="M16.887 28.468a12.585 12.585 0 0 1-4.84-.606.499.499 0 0 0-.656.51.5.5 0 0 0 .341.44 13.486 13.486 0 0 0 5.224.654.5.5 0 1 0-.07-.998ZM9.945 3.93a13.361 13.361 0 0 0-4.164 3.25.496.496 0 0 0 .607.752.526.526 0 0 0 .179-.132 12.422 12.422 0 0 1 3.827-2.976.5.5 0 1 0-.449-.894ZM4.82 21.599a.5.5 0 0 0-.894.447 13.36 13.36 0 0 0 3.248 4.169.482.482 0 0 0 .516.058.501.501 0 0 0 .11-.838 12.438 12.438 0 0 1-2.98-3.836ZM4.135 12.057a.5.5 0 1 0-.95-.315 13.463 13.463 0 0 0-.65 5.225.5.5 0 0 0 .498.464l.036-.001a.5.5 0 0 0 .463-.535 12.473 12.473 0 0 1 .603-4.838ZM29.466 15.053a.49.49 0 0 0-.533-.464.499.499 0 0 0-.464.534 12.566 12.566 0 0 1-.609 4.838.501.501 0 1 0 .948.316 13.484 13.484 0 0 0 .658-5.224ZM25.447 24.186l-.013.014a12.423 12.423 0 0 1-3.844 2.984.5.5 0 0 0 .446.894 13.416 13.416 0 0 0 4.148-3.216.5.5 0 1 0-.737-.677ZM20.249 3.183a13.553 13.553 0 0 0-5.225-.648.499.499 0 0 0-.463.534.492.492 0 0 0 .534.464c1.636-.117 3.28.086 4.84.599a.5.5 0 0 0 .314-.95ZM27.99 10.55a.5.5 0 0 0 .093-.577 13.483 13.483 0 0 0-3.23-4.16.492.492 0 0 0-.705.05.501.501 0 0 0 .05.705 12.49 12.49 0 0 1 2.99 3.852.5.5 0 0 0 .801.13Z"/></svg>