<svg xmlns="http://www.w3.org/2000/svg" width="32" height="32" viewBox="0 0 32 32"><path d="M9.833 3.706a13.6 13.6 0 0 0-4.245 3.315.746.746 0 0 0 .904 1.138q.152-.069.263-.195a12.2 12.2 0 0 1 3.751-2.916.75.75 0 1 0-.673-1.342M3.75 15.994c0-1.311.21-2.614.622-3.858a.75.75 0 0 0-1.424-.473 13.7 13.7 0 0 0-.663 5.321.75.75 0 0 0 .747.696l.055-.001a.75.75 0 0 0 .694-.802 12 12 0 0 1-.031-.883M16.87 28.219a12.3 12.3 0 0 1-4.743-.594.75.75 0 1 0-.474 1.424 13.8 13.8 0 0 0 5.32.666.75.75 0 0 0-.104-1.496M5.044 21.486a.75.75 0 0 0-1.342.672 13.6 13.6 0 0 0 3.315 4.252.736.736 0 0 0 .89.025.754.754 0 0 0 .057-1.19 12.2 12.2 0 0 1-2.92-3.759M29.716 15.035a.76.76 0 0 0-.8-.695.75.75 0 0 0-.696.8q.03.433.03.866a12.2 12.2 0 0 1-.628 3.876.751.751 0 1 0 1.423.474 13.7 13.7 0 0 0 .67-5.32M25.014 5.598a.76.76 0 0 0-1.058.075.75.75 0 0 0 .075 1.058q.327.285.633.59a12.2 12.2 0 0 1 2.297 3.184.75.75 0 0 0 1.342-.67 13.7 13.7 0 0 0-3.289-4.237M25.26 24.019l-.015.017a12.2 12.2 0 0 1-3.767 2.924.75.75 0 1 0 .67 1.342 13.7 13.7 0 0 0 4.221-3.273.75.75 0 1 0-1.108-1.01M20.327 2.945a13.9 13.9 0 0 0-5.321-.659.75.75 0 0 0-.695.802.76.76 0 0 0 .801.694 12.3 12.3 0 0 1 4.744.587.75.75 0 0 0 .472-1.424"/></svg>