<svg xmlns="http://www.w3.org/2000/svg" width="32" height="32" viewBox="0 0 32 32"><path d="M19.488 15.57a.75.75 0 1 0-.976-1.14l-6.473 5.549-2.509-2.51a.75.75 0 0 0-1.06 1.061l3 3a.75.75 0 0 0 1.018.04zM12 4a4 4 0 0 0-4 4 4 4 0 0 0-4 4v12a4 4 0 0 0 4 4h12a4 4 0 0 0 4-4 4 4 0 0 0 4-4V8a4 4 0 0 0-4-4zm0 1.5h12A2.5 2.5 0 0 1 26.5 8v12a2.5 2.5 0 0 1-2.5 2.5V12a4 4 0 0 0-4-4H9.5A2.5 2.5 0 0 1 12 5.5m8 4a2.5 2.5 0 0 1 2.5 2.5v12a2.5 2.5 0 0 1-2.5 2.5H8A2.5 2.5 0 0 1 5.5 24V12A2.5 2.5 0 0 1 8 9.5z"/></svg>