<svg xmlns="http://www.w3.org/2000/svg" width="32" height="32" viewBox="0 0 32 32"><path d="M16.887 28.468a12.6 12.6 0 0 1-4.84-.606.5.5 0 0 0-.656.51.5.5 0 0 0 .341.44 13.5 13.5 0 0 0 5.224.654.5.5 0 1 0-.07-.998M9.945 3.93a13.4 13.4 0 0 0-4.164 3.25.496.496 0 0 0 .607.752.5.5 0 0 0 .179-.132 12.4 12.4 0 0 1 3.827-2.976.5.5 0 1 0-.449-.894M4.82 21.599a.5.5 0 0 0-.894.447 13.4 13.4 0 0 0 3.248 4.169.48.48 0 0 0 .516.058.5.5 0 0 0 .11-.838 12.4 12.4 0 0 1-2.98-3.836M4.135 12.057a.5.5 0 1 0-.95-.315 13.5 13.5 0 0 0-.65 5.225.5.5 0 0 0 .498.464l.036-.001a.5.5 0 0 0 .463-.535q-.032-.45-.032-.9a12.5 12.5 0 0 1 .635-3.938M29.466 15.053a.49.49 0 0 0-.533-.464.5.5 0 0 0-.464.534 12.6 12.6 0 0 1-.609 4.838.501.501 0 1 0 .948.316 13.5 13.5 0 0 0 .658-5.224M25.447 24.186l-.013.014a12.4 12.4 0 0 1-3.844 2.984.5.5 0 0 0 .446.894 13.4 13.4 0 0 0 4.148-3.216.5.5 0 1 0-.737-.677M20.249 3.183a13.6 13.6 0 0 0-5.225-.648.5.5 0 0 0-.463.534.49.49 0 0 0 .534.464c1.636-.117 3.28.086 4.84.599a.5.5 0 0 0 .314-.95M27.99 10.55a.5.5 0 0 0 .093-.577 13.5 13.5 0 0 0-3.23-4.16.49.49 0 0 0-.705.05.5.5 0 0 0 .05.705q.334.29.646.602a12.5 12.5 0 0 1 2.344 3.25.5.5 0 0 0 .801.13"/></svg>