<svg xmlns="http://www.w3.org/2000/svg" width="32" height="32" viewBox="0 0 32 32"><path d="M5.268 21.375a1 1 0 1 0-1.79.895 13.8 13.8 0 0 0 3.286 4.249.982.982 0 0 0 .712.303 1.003 1.003 0 0 0 .652-1.765 11.9 11.9 0 0 1-2.86-3.682M4.03 16.858a11.973 11.973 0 0 1 .58-4.644 1 1 0 1 0-1.898-.63 14 14 0 0 0-.676 5.419 1 1 0 0 0 1.995-.145M16.852 27.969a12 12 0 0 1-4.647-.581 1 1 0 1 0-.63 1.898 14 14 0 0 0 5.416.679 1 1 0 0 0 .928-1.068 1.02 1.02 0 0 0-1.067-.928M11.064 3.929a1 1 0 0 0-1.343-.446 13.8 13.8 0 0 0-4.239 3.282.996.996 0 0 0 1.114 1.622c.133-.06.252-.149.348-.26a11.9 11.9 0 0 1 3.674-2.857 1 1 0 0 0 .446-1.341M29.965 15.018a1 1 0 1 0-1.995.14q.03.423.03.848c.001 1.29-.206 2.572-.614 3.797a1 1 0 0 0 1.897.633 14 14 0 0 0 .682-5.418M21.04 3.972a1 1 0 0 0-.634-1.264 14 14 0 0 0-5.418-.67 1 1 0 0 0-.926 1.067.99.99 0 0 0 1.069.926 12.1 12.1 0 0 1 4.646.575q.153.051.314.051a1 1 0 0 0 .95-.685M25.073 23.854l-.017.018a11.9 11.9 0 0 1-3.69 2.864 1 1 0 0 0 .893 1.79 13.9 13.9 0 0 0 4.297-3.33q.051-.056.093-.12a1 1 0 0 0-1.576-1.223M28.112 11.119a1 1 0 0 0 .448-1.341 14 14 0 0 0-3.348-4.314 1 1 0 1 0-1.312 1.51q.32.278.62.578a12 12 0 0 1 2.25 3.12 1 1 0 0 0 1.342.447"/></svg>