<svg xmlns="http://www.w3.org/2000/svg" width="32" height="32" viewBox="0 0 32 32"><path d="M12.281 20.25h-1.755A7.116 7.116 0 0 1 9.25 16a7.119 7.119 0 0 1 1.273-4.25h1.767a3.063 3.063 0 0 0 2.96-3.082v-3.44a2.981 2.981 0 0 0-2.979-2.978h-1.466C8.345 2.25 3.75 6.283 3.75 16c0 9.717 4.595 13.75 7.055 13.75h1.466a2.981 2.981 0 0 0 2.979-2.979v-3.569a2.964 2.964 0 0 0-2.969-2.952Zm1.469 6.521a1.48 1.48 0 0 1-1.479 1.479h-1.466C9.17 28.25 5.25 24.726 5.25 16c0-8.726 3.92-12.25 5.555-12.25h1.466a1.48 1.48 0 0 1 1.479 1.479v3.439a1.565 1.565 0 0 1-1.46 1.582h-1.953c-1.233 0-2.587 3.01-2.587 5.75s1.356 5.75 2.592 5.75h1.94a1.462 1.462 0 0 1 1.468 1.452v3.57ZM30.03 21.469l-4-4a.75.75 0 1 0-1.06 1.06l2.72 2.72H19.5a.75.75 0 0 0 0 1.5h8.19l-2.72 2.72a.75.75 0 1 0 1.06 1.06l4-4a.75.75 0 0 0 0-1.06Z"/></svg>