<svg xmlns="http://www.w3.org/2000/svg" width="32" height="32" viewBox="0 0 32 32"><path d="M22 28.25H10A3.254 3.254 0 0 1 6.75 25v-4.25h10.84l-1.5-1.5H6.75V9.91l-1.5-1.5V25A4.756 4.756 0 0 0 10 29.75h12a4.72 4.72 0 0 0 3.27-1.321l-1.06-1.06a3.23 3.23 0 0 1-2.21.88M10.5 8.75a1.25 1.25 0 1 0 0-2.5 1.25 1.25 0 0 0 0 2.5M28.53 27.47l-1.843-1.844q.053-.311.063-.626V7A4.756 4.756 0 0 0 22 2.25H10a4.74 4.74 0 0 0-4.168 2.52L4.53 3.47a.744.744 0 0 0-1.103.996 1 1 0 0 0 .043.064l24 24q.031.023.065.043a.744.744 0 0 0 .995-1.104M6.956 5.894A3.25 3.25 0 0 1 10 3.75h12A3.254 3.254 0 0 1 25.25 7v4.25H12.31zm6.855 6.855h11.44v6.5h-4.94zm8 8h3.44v3.439z"/></svg>