<svg xmlns="http://www.w3.org/2000/svg" width="32" height="32" viewBox="0 0 32 32"><path d="M22 28.5H10A3.504 3.504 0 0 1 6.5 25v-4.5h11.914l-1-1H6.5V8.586l-1-1V25a4.505 4.505 0 0 0 4.5 4.5h12a4.48 4.48 0 0 0 3.594-1.82l-.707-.707A3.5 3.5 0 0 1 22 28.5M10.5 8.5a1 1 0 1 0 0-2 1 1 0 0 0 0 2M28.354 27.646l-1.927-1.926q.066-.358.073-.72V7A4.505 4.505 0 0 0 22 2.5H10a4.5 4.5 0 0 0-4.11 2.683L4.355 3.646a.5.5 0 0 0-.707 0 .49.49 0 0 0-.069.604.5.5 0 0 0 .069.103l24 24a.5.5 0 0 0 .102.068.495.495 0 0 0 .605-.775M6.674 5.966A3.49 3.49 0 0 1 10 3.5h12A3.504 3.504 0 0 1 25.5 7v4.5H12.207zm6.533 6.534H25.5v7h-5.293zm8 8H25.5v4.293z"/></svg>