<svg xmlns="http://www.w3.org/2000/svg" width="32" height="32" viewBox="0 0 32 32"><path d="M23 2a7 7 0 1 0 7 7 7.01 7.01 0 0 0-7-7m0 12a5 5 0 1 1 5-5 5.006 5.006 0 0 1-5 5M23 5a2.96 2.96 0 0 0-2.53 1.404 3.11 3.11 0 0 0-.146 3.03l1.32 2.732.023.046a1.52 1.52 0 0 0 1.333.789 1.54 1.54 0 0 0 1.355-.835l1.32-2.73a3.13 3.13 0 0 0-.14-3.047A2.97 2.97 0 0 0 23 5m.875 3.564L23 10.377l-.879-1.82a1.12 1.12 0 0 1 .047-1.096.994.994 0 0 1 1.673-.01 1.15 1.15 0 0 1 .034 1.113M26 18a1 1 0 0 0-1 1H7v-6h6a1 1 0 0 0 0-2H7V7a3.003 3.003 0 0 1 3-3h5a1 1 0 1 0 0-2h-5a5.006 5.006 0 0 0-5 5v18a5.006 5.006 0 0 0 5 5h12a5.006 5.006 0 0 0 5-5v-6a1 1 0 0 0-1-1m-1 7a3.003 3.003 0 0 1-3 3H10a3.003 3.003 0 0 1-3-3v-4h18zM10.496 9a1.5 1.5 0 1 0 0-3 1.5 1.5 0 0 0 0 3"/></svg>