<svg xmlns="http://www.w3.org/2000/svg" width="32" height="32" viewBox="0 0 32 32"><path d="M23 2.25A6.75 6.75 0 1 0 29.75 9 6.757 6.757 0 0 0 23 2.25m0 12a5.25 5.25 0 1 1 0-10.5 5.25 5.25 0 0 1 0 10.5M23 5.25a2.71 2.71 0 0 0-2.318 1.287 2.86 2.86 0 0 0-.133 2.789l1.32 2.731.018.035a1.27 1.27 0 0 0 2.243-.035l1.32-2.731a2.88 2.88 0 0 0-.127-2.804A2.72 2.72 0 0 0 23 5.25m1.1 3.423L23 10.951l-1.102-2.283a1.37 1.37 0 0 1 .058-1.34 1.244 1.244 0 0 1 2.097-.01 1.4 1.4 0 0 1 .048 1.355M26 18.25a.75.75 0 0 0-.75.75v.25H6.75v-6.5H13a.75.75 0 1 0 0-1.5H6.75V7A3.254 3.254 0 0 1 10 3.75h5a.75.75 0 1 0 0-1.5h-5A4.755 4.755 0 0 0 5.25 7v18A4.756 4.756 0 0 0 10 29.75h12A4.756 4.756 0 0 0 26.75 25v-6a.75.75 0 0 0-.75-.75M25.25 25A3.254 3.254 0 0 1 22 28.25H10A3.254 3.254 0 0 1 6.75 25v-4.25h18.5zM10.496 8.75a1.25 1.25 0 1 0 0-2.5 1.25 1.25 0 0 0 0 2.5"/></svg>