<svg xmlns="http://www.w3.org/2000/svg" width="32" height="32" viewBox="0 0 32 32"><path d="M23 2.5A6.5 6.5 0 1 0 29.5 9 6.51 6.51 0 0 0 23 2.5m0 12A5.5 5.5 0 1 1 28.5 9a5.506 5.506 0 0 1-5.5 5.5M23 5.5a2.46 2.46 0 0 0-2.105 1.169 2.61 2.61 0 0 0-.12 2.548l1.319 2.732.011.022a1.02 1.02 0 0 0 1.8-.022l1.32-2.732a2.64 2.64 0 0 0-.114-2.562A2.44 2.44 0 0 0 23 5.5m1.325 3.282L23 11.5l-.008-.001-.007-.004-1.312-2.717a1.62 1.62 0 0 1 .07-1.583 1.535 1.535 0 0 1 2.522-.01 1.64 1.64 0 0 1 .06 1.596M26 18.5a.497.497 0 0 0-.5.5v.5h-19v-7H13a.5.5 0 0 0 0-1H6.5V7A3.504 3.504 0 0 1 10 3.5h5a.5.5 0 0 0 0-1h-5A4.505 4.505 0 0 0 5.5 7v18a4.505 4.505 0 0 0 4.5 4.5h12a4.504 4.504 0 0 0 4.5-4.5v-6a.5.5 0 0 0-.5-.5m-.5 6.5a3.504 3.504 0 0 1-3.5 3.5H10A3.504 3.504 0 0 1 6.5 25v-4.5h19zM10.496 8.5a1 1 0 1 0 0-2 1 1 0 0 0 0 2"/></svg>