<svg xmlns="http://www.w3.org/2000/svg" width="32" height="32" viewBox="0 0 32 32"><path d="M22 28.5H10A3.504 3.504 0 0 1 6.5 25v-4.5h11.913l-1-1H6.5V8.586l-1-1V25a4.505 4.505 0 0 0 4.5 4.5h12a4.481 4.481 0 0 0 3.593-1.82l-.706-.707A3.496 3.496 0 0 1 22 28.5ZM10.5 8.5a1 1 0 1 0 0-2 1 1 0 0 0 0 2Z"/><path d="m28.354 27.646-1.927-1.926c.044-.238.068-.479.073-.72V7A4.505 4.505 0 0 0 22 2.5H10a4.501 4.501 0 0 0-4.11 2.683L4.354 3.646a.5.5 0 0 0-.707 0 .493.493 0 0 0-.069.604.482.482 0 0 0 .069.103l24 24c.03.027.065.05.101.068a.495.495 0 0 0 .606-.775ZM6.674 5.966A3.493 3.493 0 0 1 10 3.5h12A3.504 3.504 0 0 1 25.5 7v4.5H12.207L6.674 5.966Zm6.533 6.534H25.5v7h-5.293l-7-7Zm8 8H25.5v4.293L21.207 20.5Z"/></svg>