<svg xmlns="http://www.w3.org/2000/svg" width="32" height="32" viewBox="0 0 32 32"><path d="M22 28H10a3.003 3.003 0 0 1-3-3v-4h9.766l-2-2H7v-7.766l-2-2V25a5.006 5.006 0 0 0 5 5h12a4.96 4.96 0 0 0 2.858-.908l-1.456-1.456c-.43.235-.912.36-1.402.364M28.707 27.293l-1.76-1.761q.04-.265.053-.532V7a5.005 5.005 0 0 0-5-5H10a4.99 4.99 0 0 0-4.227 2.358L4.707 3.293a1 1 0 0 0-1.414 1.414l24 24c.007.006.016.008.023.015a.997.997 0 0 0 1.391-1.43M10.404 8.99c.033.002.064.01.097.01A1.5 1.5 0 1 0 9 7.5c0 .032.007.063.01.096l-1.77-1.77A3 3 0 0 1 10 4h12a3.003 3.003 0 0 1 3 3v4H12.413zm4.01 4.01H25v6h-4.586zm8 8H25v2.585z"/></svg>