<svg xmlns="http://www.w3.org/2000/svg" width="32" height="32" viewBox="0 0 32 32"><path d="M23 2a7 7 0 1 0 7 7 7.009 7.009 0 0 0-7-7Zm0 12a5 5 0 1 1 5-5 5.006 5.006 0 0 1-5 5Z"/><path d="M23 5a2.962 2.962 0 0 0-2.53 1.404 3.109 3.109 0 0 0-.146 3.03l1.32 2.732.023.046a1.52 1.52 0 0 0 1.333.789 1.538 1.538 0 0 0 1.355-.835l1.32-2.73a3.133 3.133 0 0 0-.14-3.047A2.97 2.97 0 0 0 23 5Zm.875 3.564L23 10.377l-.879-1.82a1.124 1.124 0 0 1 .047-1.096.994.994 0 0 1 1.673-.01 1.145 1.145 0 0 1 .034 1.113Z"/><path d="M26 18a1 1 0 0 0-1 1H7v-6h6a1 1 0 0 0 0-2H7V7a3.003 3.003 0 0 1 3-3h5a1 1 0 1 0 0-2h-5a5.006 5.006 0 0 0-5 5v18a5.006 5.006 0 0 0 5 5h12a5.006 5.006 0 0 0 5-5v-6a.998.998 0 0 0-1-1Zm-1 7a3.003 3.003 0 0 1-3 3H10a3.003 3.003 0 0 1-3-3v-4h18v4Z"/><path d="M10.496 9a1.5 1.5 0 1 0 0-3 1.5 1.5 0 0 0 0 3Z"/></svg>