<svg xmlns="http://www.w3.org/2000/svg" width="32" height="32" viewBox="0 0 32 32"><path d="M9.306 24.565a9.383 9.383 0 0 1-.013-17.13.75.75 0 1 0-.614-1.37 10.883 10.883 0 0 0 .015 19.87Q8.84 26 9 26a.75.75 0 0 0 .306-1.435M23.321 6.061a.75.75 0 1 0-.614 1.369 9.388 9.388 0 0 1-.013 17.14.75.75 0 0 0 .612 1.37A10.888 10.888 0 0 0 23.32 6.06M20.53 11.47a.75.75 0 0 0-1.06 0l-3.026 3.025c-.988-2.367-4.105-3.183-4.262-3.223a.75.75 0 0 0-.365 1.455c.032.009 3.147.83 3.407 2.988l-3.754 3.754a.752.752 0 0 0 .233 1.24.75.75 0 0 0 .827-.179l3.025-3.026c.989 2.367 4.106 3.184 4.263 3.223q.09.023.182.023a.75.75 0 0 0 .183-1.478c-.033-.008-3.148-.83-3.408-2.987l3.755-3.755a.75.75 0 0 0 0-1.06"/></svg>