<svg xmlns="http://www.w3.org/2000/svg" width="32" height="32" viewBox="0 0 32 32"><path d="M9.408 24.337a9.133 9.133 0 0 1-.013-16.674 1 1 0 1 0-.818-1.824 11.132 11.132 0 0 0 .015 20.324 1 1 0 1 0 .815-1.826M23.423 5.834a1 1 0 1 0-.818 1.824 9.138 9.138 0 0 1-.013 16.684 1 1 0 0 0 .816 1.826 11.138 11.138 0 0 0 .015-20.334M20.707 11.293a1 1 0 0 0-1.414 0l-2.77 2.77c-1.172-2.224-4.124-2.995-4.28-3.033a1 1 0 0 0-.488 1.94c.031.007 2.868.755 3.21 2.65l-3.672 3.673a1 1 0 1 0 1.414 1.414l2.77-2.77c1.172 2.223 4.125 2.994 4.28 3.032a1 1 0 0 0 .488-1.939c-.03-.007-2.868-.756-3.21-2.651l3.672-3.672a1 1 0 0 0 0-1.414"/></svg>