<svg xmlns="http://www.w3.org/2000/svg" width="32" height="32" viewBox="0 0 32 32"><path d="M9.204 24.794A9.633 9.633 0 0 1 9.19 7.207a.5.5 0 1 0-.41-.912 10.632 10.632 0 0 0 .015 19.41.5.5 0 1 0 .409-.912M23.219 6.29a.5.5 0 1 0-.41.912 9.639 9.639 0 0 1-.013 17.597.5.5 0 0 0 .408.912 10.637 10.637 0 0 0 .015-19.421M20.353 11.646a.5.5 0 0 0-.707 0l-3.302 3.303c-.751-2.53-4.064-3.395-4.223-3.435a.5.5 0 1 0-.243.971c.036.009 3.43.902 3.605 3.324l-3.837 3.837a.5.5 0 1 0 .707.707l3.303-3.302c.75 2.53 4.064 3.394 4.223 3.434q.06.015.121.015a.5.5 0 0 0 .122-.986c-.036-.008-3.43-.901-3.605-3.324l3.836-3.837a.5.5 0 0 0 0-.707"/></svg>