<svg xmlns="http://www.w3.org/2000/svg" width="32" height="32" viewBox="0 0 32 32"><path d="M28 13.5h-2.328a.5.5 0 0 1-.463-.312l-.668-1.631a.5.5 0 0 1 .113-.547l1.663-1.631a1.5 1.5 0 0 0 .02-2.121L24.934 5.83a1.503 1.503 0 0 0-2.121-.018l-1.666 1.634a.5.5 0 0 1-.544.105l-1.798-.756a.5.5 0 0 1-.306-.46V4A1.5 1.5 0 0 0 17 2.5h-2A1.5 1.5 0 0 0 13.5 4v2.332a.5.5 0 0 1-.308.462l-1.717.71a.5.5 0 0 1-.544-.108L9.282 5.747a1.503 1.503 0 0 0-2.12 0L5.746 7.161a1.5 1.5 0 0 0 0 2.121l1.649 1.65a.5.5 0 0 1 .108.545l-.71 1.714a.5.5 0 0 1-.462.309H4A1.5 1.5 0 0 0 2.5 15v2A1.5 1.5 0 0 0 4 18.5h2.332a.5.5 0 0 1 .462.309l.71 1.714a.5.5 0 0 1-.108.545l-1.649 1.65a1.5 1.5 0 0 0 0 2.12l1.414 1.415a1.503 1.503 0 0 0 2.121 0l1.649-1.648a.5.5 0 0 1 .545-.109l1.715.71a.5.5 0 0 1 .31.462V28a1.5 1.5 0 0 0 1.5 1.5h2a1.5 1.5 0 0 0 1.5-1.5v-2.332a.5.5 0 0 1 .308-.462l1.715-.71a.49.49 0 0 1 .545.109l1.649 1.648a1.503 1.503 0 0 0 2.121 0l1.414-1.414a1.5 1.5 0 0 0 0-2.121l-1.648-1.65a.5.5 0 0 1-.109-.545l.71-1.714a.5.5 0 0 1 .462-.309H28a1.5 1.5 0 0 0 1.5-1.5v-2a1.5 1.5 0 0 0-1.5-1.5M20.5 16a4.5 4.5 0 1 1-9 0 4.5 4.5 0 0 1 9 0"/></svg>