<svg xmlns="http://www.w3.org/2000/svg" width="32" height="32" viewBox="0 0 32 32"><path d="M16 10a6 6 0 1 0 6 6 6.006 6.006 0 0 0-6-6m0 10a4 4 0 1 1 0-8 4 4 0 0 1 0 8M28 13H25.67l-.667-1.632 1.662-1.631a1.997 1.997 0 0 0 .027-2.828l-1.402-1.43a2.006 2.006 0 0 0-2.828-.025l-1.666 1.635L19 6.335V4a2.003 2.003 0 0 0-2-2h-2a2 2 0 0 0-2 2v2.331l-1.715.711-1.649-1.648a2 2 0 0 0-2.829 0L5.393 6.808a2 2 0 0 0 0 2.828l1.65 1.649L6.331 13H4a2.003 2.003 0 0 0-2 2v2a2 2 0 0 0 2 2h2.332l.71 1.715-1.649 1.649a2 2 0 0 0 0 2.829l1.414 1.414a2.004 2.004 0 0 0 2.83 0l1.648-1.65 1.714.711V28a2 2 0 0 0 2 2h2a2.003 2.003 0 0 0 2-2l.002-2.332 1.714-.71 1.649 1.649a2.003 2.003 0 0 0 2.828 0l1.416-1.415a2.004 2.004 0 0 0-.002-2.828l-1.649-1.649.711-1.715H28a2.003 2.003 0 0 0 2-2v-2a2.003 2.003 0 0 0-2-2m0 4h-2.331a1.99 1.99 0 0 0-1.848 1.235l-.712 1.716a2 2 0 0 0 .434 2.178l1.65 1.65-1.415 1.414-1.648-1.65a2 2 0 0 0-2.18-.433l-1.714.71A1.99 1.99 0 0 0 17 25.668V28h-2v-2.332a1.99 1.99 0 0 0-1.235-1.847l-1.716-.712a2 2 0 0 0-2.178.434l-1.65 1.65-1.414-1.415 1.65-1.649a2 2 0 0 0 .433-2.18l-.71-1.713A1.995 1.995 0 0 0 6.332 17H4v-2h2.332a1.99 1.99 0 0 0 1.847-1.235l.711-1.716a1.99 1.99 0 0 0-.433-2.178l-1.65-1.649 1.415-1.414 1.649 1.648a2 2 0 0 0 2.18.434l1.713-.71A1.99 1.99 0 0 0 15 6.331v-2.33h2v2.334a1.995 1.995 0 0 0 1.226 1.844l1.796.754a2 2 0 0 0 2.176-.416l1.667-1.636 1.4 1.428-1.661 1.63a1.99 1.99 0 0 0-.451 2.184l.668 1.635A1.99 1.99 0 0 0 25.67 15H28z"/></svg>