<svg xmlns="http://www.w3.org/2000/svg" width="32" height="32" viewBox="0 0 32 32"><path d="M16 10.5A5.5 5.5 0 1 0 16 21.5 5.5 5.5 0 0 0 16 10.5m0 10a4.5 4.5 0 1 1 0-9 4.5 4.5 0 0 1 0 9M28 13.5H25.67a.5.5 0 0 1-.462-.311l-.668-1.632a.5.5 0 0 1 .114-.547l1.66-1.63a1.5 1.5 0 0 0 .021-2.122l-1.4-1.428a1.5 1.5 0 0 0-2.123-.02l-1.666 1.637a.5.5 0 0 1-.544.103l-1.796-.754a.5.5 0 0 1-.307-.46V4A1.5 1.5 0 0 0 17 2.5h-2A1.5 1.5 0 0 0 13.5 4v2.331a.5.5 0 0 1-.31.462l-1.713.711a.5.5 0 0 1-.546-.108L9.283 5.747a1.5 1.5 0 0 0-2.122 0L5.747 7.162a1.5 1.5 0 0 0 0 2.12l1.649 1.649a.5.5 0 0 1 .108.545l-.71 1.716a.5.5 0 0 1-.462.308H4A1.5 1.5 0 0 0 2.5 15v2A1.5 1.5 0 0 0 4 18.5h2.332a.5.5 0 0 1 .461.309l.711 1.714a.5.5 0 0 1-.108.546l-1.65 1.648a1.5 1.5 0 0 0 0 2.122l1.415 1.414a1.5 1.5 0 0 0 2.122 0l1.648-1.65a.5.5 0 0 1 .545-.108l1.716.711a.5.5 0 0 1 .307.462V28a1.5 1.5 0 0 0 1.5 1.5h2a1.5 1.5 0 0 0 1.5-1.5v-2.332a.5.5 0 0 1 .31-.462l1.715-.71a.5.5 0 0 1 .545.108l1.648 1.65a1.5 1.5 0 0 0 2.121 0l1.415-1.415a1.503 1.503 0 0 0 0-2.122l-1.65-1.648a.5.5 0 0 1-.108-.545l.711-1.716a.5.5 0 0 1 .462-.308H28a1.5 1.5 0 0 0 1.5-1.5v-2a1.5 1.5 0 0 0-1.5-1.5m.5 3.5a.5.5 0 0 1-.5.5h-2.331a1.49 1.49 0 0 0-1.386.926l-.711 1.716a1.5 1.5 0 0 0 .325 1.634l1.648 1.648a.5.5 0 0 1 .001.708l-1.415 1.414a.5.5 0 0 1-.707 0l-1.648-1.65a1.49 1.49 0 0 0-1.635-.324l-1.714.71a1.49 1.49 0 0 0-.927 1.386V28a.5.5 0 0 1-.5.5h-2a.5.5 0 0 1-.5-.5v-2.332a1.49 1.49 0 0 0-.926-1.385l-1.716-.711a1.5 1.5 0 0 0-1.634.325l-1.648 1.65a.5.5 0 0 1-.708 0l-1.414-1.415a.5.5 0 0 1 0-.708l1.649-1.648a1.5 1.5 0 0 0 .325-1.635l-.71-1.714a1.49 1.49 0 0 0-1.386-.927H4a.5.5 0 0 1-.5-.5v-2a.5.5 0 0 1 .5-.5h2.332a1.495 1.495 0 0 0 1.385-.926l.711-1.715a1.5 1.5 0 0 0-.325-1.635l-1.65-1.648a.5.5 0 0 1 0-.707l1.415-1.415a.5.5 0 0 1 .708 0l1.648 1.649a1.5 1.5 0 0 0 1.635.325l1.714-.71a1.49 1.49 0 0 0 .926-1.387v-2.33a.5.5 0 0 1 .5-.5h2a.5.5 0 0 1 .5.5v2.334a1.5 1.5 0 0 0 .92 1.383l1.796.754a1.5 1.5 0 0 0 1.632-.311l.001-.001 1.665-1.635a.5.5 0 0 1 .708.007l1.401 1.427a.5.5 0 0 1-.007.707l-1.66 1.63a1.49 1.49 0 0 0-.34 1.639l.668 1.633a1.5 1.5 0 0 0 1.388.932H28a.5.5 0 0 1 .5.5z"/></svg>