<svg xmlns="http://www.w3.org/2000/svg" width="32" height="32" viewBox="0 0 32 32"><path d="M16 10.25A5.75 5.75 0 1 0 21.75 16 5.756 5.756 0 0 0 16 10.25m0 10a4.25 4.25 0 1 1 0-8.5 4.25 4.25 0 0 1 0 8.5M28 13.25H25.67a.25.25 0 0 1-.231-.155l-.667-1.633a.25.25 0 0 1 .057-.273l1.66-1.631a1.75 1.75 0 0 0 .024-2.475l-1.4-1.427a1.753 1.753 0 0 0-2.476-.024l-1.665 1.635a.25.25 0 0 1-.273.053l-1.796-.754a.25.25 0 0 1-.154-.23V4A1.75 1.75 0 0 0 17 2.25h-2A1.75 1.75 0 0 0 13.25 4v2.331a.25.25 0 0 1-.155.232l-1.714.71a.25.25 0 0 1-.273-.054L9.459 5.571a1.75 1.75 0 0 0-2.475 0L5.57 6.985a1.75 1.75 0 0 0 0 2.474l1.65 1.649a.25.25 0 0 1 .054.272l-.712 1.716a.25.25 0 0 1-.23.154H4A1.75 1.75 0 0 0 2.25 15v2A1.75 1.75 0 0 0 4 18.75h2.332a.25.25 0 0 1 .23.155l.71 1.713a.25.25 0 0 1-.053.274L5.57 22.54a1.75 1.75 0 0 0 0 2.476l1.415 1.414a1.75 1.75 0 0 0 2.476 0l1.648-1.65a.25.25 0 0 1 .272-.054l1.716.712a.25.25 0 0 1 .153.23V28A1.75 1.75 0 0 0 15 29.75h2A1.75 1.75 0 0 0 18.75 28v-2.332a.25.25 0 0 1 .156-.231l1.715-.71a.25.25 0 0 1 .272.054l1.649 1.649a1.753 1.753 0 0 0 2.474 0l1.416-1.415a1.753 1.753 0 0 0-.002-2.475l-1.648-1.648a.25.25 0 0 1-.055-.273l.712-1.715a.25.25 0 0 1 .23-.154H28A1.75 1.75 0 0 0 29.75 17v-2A1.75 1.75 0 0 0 28 13.25m.25 3.75a.25.25 0 0 1-.25.25h-2.331a1.74 1.74 0 0 0-1.617 1.08l-.712 1.716a1.75 1.75 0 0 0 .38 1.907L25.37 23.6a.25.25 0 0 1 0 .355l-1.414 1.414a.25.25 0 0 1-.273.054.3.3 0 0 1-.08-.054l-1.65-1.65a1.74 1.74 0 0 0-1.907-.379l-1.713.71a1.74 1.74 0 0 0-1.082 1.617V28a.25.25 0 0 1-.25.25h-2a.25.25 0 0 1-.25-.25v-2.332a1.74 1.74 0 0 0-1.08-1.616l-1.716-.712a1.74 1.74 0 0 0-1.907.38L8.4 25.37a.25.25 0 0 1-.355 0L6.63 23.955a.25.25 0 0 1 0-.354l1.65-1.648a1.745 1.745 0 0 0 .379-1.908l-.71-1.714a1.74 1.74 0 0 0-1.617-1.08H4a.25.25 0 0 1-.25-.25v-2a.25.25 0 0 1 .25-.25h2.332a1.74 1.74 0 0 0 1.616-1.082l.712-1.715a1.75 1.75 0 0 0-.38-1.907L6.63 8.4a.25.25 0 0 1 0-.354l1.414-1.414a.25.25 0 0 1 .355 0l1.648 1.649a1.74 1.74 0 0 0 1.908.379l1.713-.71A1.74 1.74 0 0 0 14.75 6.33v-2.33a.25.25 0 0 1 .25-.25h2a.25.25 0 0 1 .25.25v2.334a1.75 1.75 0 0 0 1.073 1.614l1.796.754a1.75 1.75 0 0 0 1.903-.364h.001l1.666-1.636a.255.255 0 0 1 .355.003l1.4 1.428a.25.25 0 0 1-.004.354l-1.66 1.63a1.745 1.745 0 0 0-.396 1.91l.668 1.636a1.74 1.74 0 0 0 1.62 1.086H28a.25.25 0 0 1 .25.25z"/></svg>