<svg xmlns="http://www.w3.org/2000/svg" width="32" height="32" viewBox="0 0 32 32"><path d="M16 2.25A13.75 13.75 0 1 0 29.75 16 13.765 13.765 0 0 0 16 2.25Zm0 26A12.25 12.25 0 1 1 28.25 16 12.264 12.264 0 0 1 16 28.25Z"/><path d="M8.845 13.732a.753.753 0 0 0 .889-.575 4.935 4.935 0 0 1 3.48-3.438.75.75 0 1 0-.426-1.437 6.425 6.425 0 0 0-4.522 4.567.748.748 0 0 0 .58.883ZM18.788 9.72a4.94 4.94 0 0 1 3.48 3.436.75.75 0 0 0 1.467-.308 6.43 6.43 0 0 0-4.522-4.566.75.75 0 0 0-.425 1.437ZM13.217 22.282a4.939 4.939 0 0 1-3.48-3.437.75.75 0 0 0-1.467.308 6.43 6.43 0 0 0 4.521 4.566.75.75 0 0 0 .426-1.438ZM23.16 18.269a.754.754 0 0 0-.889.575 4.934 4.934 0 0 1-3.48 3.438.75.75 0 0 0 .426 1.437 6.424 6.424 0 0 0 4.522-4.567.748.748 0 0 0-.58-.883Z"/></svg>