<svg xmlns="http://www.w3.org/2000/svg" width="32" height="32" viewBox="0 0 32 32"><path d="M16 2a14 14 0 1 0 14 14A14.016 14.016 0 0 0 16 2Zm0 26a12 12 0 1 1 12-12 12.013 12.013 0 0 1-12 12Z"/><path d="M8.791 13.974a1.005 1.005 0 0 0 1.187-.764 4.696 4.696 0 0 1 3.307-3.25 1 1 0 0 0-.569-1.919 6.687 6.687 0 0 0-4.695 4.757.996.996 0 0 0 .77 1.176ZM18.716 9.96a4.698 4.698 0 0 1 3.307 3.25 1 1 0 0 0 1.957-.413 6.69 6.69 0 0 0-4.695-4.756 1 1 0 0 0-.569 1.918ZM13.289 22.041a4.697 4.697 0 0 1-3.307-3.25 1 1 0 0 0-1.957.412 6.69 6.69 0 0 0 4.695 4.756.995.995 0 0 0 .939-.202 1 1 0 0 0-.37-1.716ZM23.213 18.027a.998.998 0 0 0-1.186.763 4.695 4.695 0 0 1-3.307 3.251 1 1 0 1 0 .569 1.918 6.686 6.686 0 0 0 4.695-4.756.996.996 0 0 0-.77-1.176Z"/></svg>