<svg xmlns="http://www.w3.org/2000/svg" width="32" height="32" viewBox="0 0 32 32"><path d="M16 2.5A13.5 13.5 0 1 0 29.5 16 13.515 13.515 0 0 0 16 2.5m0 26A12.5 12.5 0 1 1 28.5 16 12.514 12.514 0 0 1 16 28.5M8.898 13.489a.501.501 0 0 0 .592-.386 5.17 5.17 0 0 1 3.652-3.623.5.5 0 1 0-.283-.96A6.16 6.16 0 0 0 8.51 12.9a.5.5 0 0 0 .387.59M18.859 9.48a5.17 5.17 0 0 1 3.652 3.624.502.502 0 0 0 .908.17.5.5 0 0 0 .07-.375 6.17 6.17 0 0 0-4.347-4.378.5.5 0 0 0-.283.959M13.146 22.52a5.17 5.17 0 0 1-3.652-3.623.5.5 0 0 0-.979.205 6.17 6.17 0 0 0 4.348 4.378.5.5 0 0 0 .469-.102.5.5 0 0 0-.186-.857M23.107 18.512a.5.5 0 0 0-.592.386 5.17 5.17 0 0 1-3.652 3.623.5.5 0 0 0 .283.959 6.16 6.16 0 0 0 4.348-4.378.5.5 0 0 0-.387-.59"/></svg>