<svg xmlns="http://www.w3.org/2000/svg" width="32" height="32" viewBox="0 0 32 32"><path d="M16 2a14 14 0 1 0 14 14A14.016 14.016 0 0 0 16 2m0 26a12 12 0 1 1 12-12 12.013 12.013 0 0 1-12 12M8.792 13.974a1.005 1.005 0 0 0 1.187-.764 4.7 4.7 0 0 1 3.306-3.25 1 1 0 0 0-.569-1.919 6.69 6.69 0 0 0-4.695 4.757.996.996 0 0 0 .77 1.176M18.716 9.96a4.7 4.7 0 0 1 3.307 3.25 1 1 0 0 0 1.957-.413 6.69 6.69 0 0 0-4.695-4.756 1 1 0 0 0-.569 1.918M13.289 22.041a4.7 4.7 0 0 1-3.307-3.25 1 1 0 0 0-1.957.412 6.69 6.69 0 0 0 4.695 4.756 1 1 0 0 0 .939-.202 1 1 0 0 0-.37-1.716M23.213 18.027a1 1 0 0 0-1.186.763 4.7 4.7 0 0 1-3.307 3.251 1 1 0 1 0 .569 1.918 6.69 6.69 0 0 0 4.695-4.756.996.996 0 0 0-.77-1.176"/></svg>