<svg xmlns="http://www.w3.org/2000/svg" width="32" height="32" viewBox="0 0 32 32"><path d="M11.632 4H7a3 3 0 0 0-3 3v3.992l24 .018V9.963A2.966 2.966 0 0 0 25.008 7h-8.11A3.04 3.04 0 0 1 14.634 5.9l-.712-.84A3 3 0 0 0 11.632 4M4 12.992V21a3 3 0 0 0 3 3h3.98a1 1 0 1 1 0 2H7a5 5 0 0 1-5-5V7a5 5 0 0 1 5-5h4.632a5 5 0 0 1 3.816 1.768l.724.854a1.04 1.04 0 0 0 .766.378h8.058A4.966 4.966 0 0 1 30 9.96v2.007a1 1 0 0 1 0 .089v3.425a1 1 0 1 1-2 0v-2.47zm22.293 6.3a1 1 0 0 1 1.414 0l2 2a1 1 0 0 1 0 1.415l-2 2a1 1 0 0 1-1.414-1.414l.293-.293H23v3.586l.293-.293a1 1 0 0 1 1.414 1.414l-2 2a1 1 0 0 1-1.414 0l-2-2a1 1 0 0 1 1.414-1.414l.293.293V23h-3.586l.293.293a1 1 0 0 1-1.414 1.414l-2-2a1 1 0 0 1 0-1.414l2-2a1 1 0 0 1 1.414 1.414l-.293.293H21v-3.586l-.293.293a1 1 0 0 1-1.414-1.414l2-2a1 1 0 0 1 1.414 0l2 2a1 1 0 0 1-1.414 1.414L23 17.414V21h3.586l-.293-.293a1 1 0 0 1 0-1.414"/></svg>