<svg xmlns="http://www.w3.org/2000/svg" width="32" height="32" viewBox="0 0 32 32"><path d="M11.632 3.75H7A3.25 3.25 0 0 0 3.75 7v4.242l24.5.019V9.962a3.217 3.217 0 0 0-3.244-3.212h-8.102a2.8 2.8 0 0 1-2.078-1.01l-.713-.84a3.25 3.25 0 0 0-2.48-1.15M3.75 12.742V21A3.25 3.25 0 0 0 7 24.25h3.98a.75.75 0 0 1 0 1.5H7A4.75 4.75 0 0 1 2.25 21V7A4.75 4.75 0 0 1 7 2.25h4.632a4.75 4.75 0 0 1 3.625 1.68l.723.852a1.3 1.3 0 0 0 .954.468h8.063a4.717 4.717 0 0 1 4.753 4.71v2.013a1 1 0 0 1 0 .077v3.43a.75.75 0 0 1-1.5 0v-2.72zm22.72 6.728a.75.75 0 0 1 1.06 0l2 2a.75.75 0 0 1 0 1.06l-2 2a.75.75 0 1 1-1.06-1.06l.72-.72h-4.44v4.44l.72-.72a.75.75 0 1 1 1.06 1.06l-2 2a.75.75 0 0 1-1.06 0l-2-2a.75.75 0 1 1 1.06-1.06l.72.72v-4.44h-4.44l.72.72a.75.75 0 1 1-1.06 1.06l-2-2a.75.75 0 0 1 0-1.06l2-2a.75.75 0 1 1 1.06 1.06l-.72.72h4.44v-4.44l-.72.72a.75.75 0 1 1-1.06-1.06l2-2a.75.75 0 0 1 1.06 0l2 2a.75.75 0 1 1-1.06 1.06l-.72-.72v4.44h4.44l-.72-.72a.75.75 0 0 1 0-1.06"/></svg>