<svg xmlns="http://www.w3.org/2000/svg" width="32" height="32" viewBox="0 0 32 32"><path d="M11.632 3.5H7A3.5 3.5 0 0 0 3.5 7v4.492l25 .019V9.96A3.466 3.466 0 0 0 25.004 6.5H16.91a2.54 2.54 0 0 1-1.892-.92l-.715-.842a3.5 3.5 0 0 0-2.67-1.238M3.5 12.492V21A3.5 3.5 0 0 0 7 24.5h3.98a.5.5 0 0 1 0 1H7A4.5 4.5 0 0 1 2.5 21V7A4.5 4.5 0 0 1 7 2.5h4.632a4.5 4.5 0 0 1 3.434 1.592l.72.849a1.54 1.54 0 0 0 1.144.559h8.068A4.467 4.467 0 0 1 29.5 9.96v2.02a1 1 0 0 1 0 .063v3.438a.5.5 0 0 1-1 0v-2.97zm23.146 7.154a.5.5 0 0 1 .708 0l2 2a.5.5 0 0 1 0 .708l-2 2a.5.5 0 0 1-.708-.708l1.147-1.146H22.5v5.293l1.146-1.147a.5.5 0 0 1 .708.708l-2 2a.5.5 0 0 1-.708 0l-2-2a.5.5 0 0 1 .708-.708l1.146 1.147V22.5h-5.293l1.147 1.146a.5.5 0 0 1-.708.708l-2-2a.5.5 0 0 1 0-.708l2-2a.5.5 0 0 1 .708.708L16.207 21.5H21.5v-5.293l-1.146 1.147a.5.5 0 0 1-.708-.708l2-2a.5.5 0 0 1 .708 0l2 2a.5.5 0 0 1-.708.708L22.5 16.207V21.5h5.293l-1.147-1.146a.5.5 0 0 1 0-.708"/></svg>