<svg xmlns="http://www.w3.org/2000/svg" width="32" height="32" viewBox="0 0 32 32"><path d="M20 10.5c-.943 0-1.881.14-2.783.418l-4.419-7.654a1.5 1.5 0 0 0-2.598 0L2.702 16.25a1.5 1.5 0 0 0 1.3 2.25h6.628a9.494 9.494 0 1 0 9.37-8M4 17.5a.5.5 0 0 1-.432-.75l7.497-12.986a.5.5 0 0 1 .866 0l4.332 7.504a9.54 9.54 0 0 0-5.42 6.232zm12.768-5.358 2.66 4.608a.5.5 0 0 1-.432.75h-7.12a8.54 8.54 0 0 1 4.892-5.358m3.23 16.358a8.462 8.462 0 0 1-8.358-10h7.356a1.5 1.5 0 0 0 1.299-2.25l-2.56-4.434A8.497 8.497 0 1 1 20 28.5"/></svg>