<svg xmlns="http://www.w3.org/2000/svg" width="32" height="32" viewBox="0 0 32 32"><path d="M20 10.25c-.9.002-1.796.13-2.661.378l-4.324-7.49a1.75 1.75 0 0 0-3.031 0L2.486 16.125a1.75 1.75 0 0 0 1.515 2.625h6.338A9.745 9.745 0 1 0 20 10.25m-15.999 7a.25.25 0 0 1-.216-.375l7.498-12.986a.25.25 0 0 1 .433 0l4.198 7.271a9.78 9.78 0 0 0-5.263 6.09zm12.664-4.79 2.548 4.415a.25.25 0 0 1-.091.341.25.25 0 0 1-.125.034h-6.766a8.28 8.28 0 0 1 4.434-4.79M20 28.25a8.19 8.19 0 0 1-8.145-9.5h7.142a1.75 1.75 0 0 0 1.515-2.625l-2.396-4.15A8.247 8.247 0 1 1 20 28.25"/></svg>