<svg xmlns="http://www.w3.org/2000/svg" width="32" height="32" viewBox="0 0 32 32"><path fill-rule="evenodd" d="M8.516 10.748C6.619 12.127 5.5 13.99 5.5 16s1.12 3.873 3.016 5.253C10.412 22.632 13.056 23.5 16 23.5c2.943 0 5.588-.868 7.484-2.247C25.381 19.873 26.5 18.01 26.5 16c0-2.01-1.12-3.873-3.016-5.252C21.588 9.367 18.944 8.5 16 8.5c-2.943 0-5.588.868-7.484 2.248Zm-.588-.81C10.013 8.423 12.868 7.5 16 7.5c3.132 0 5.987.922 8.072 2.439C26.157 11.455 27.5 13.59 27.5 16s-1.343 4.545-3.428 6.061C21.987 23.578 19.132 24.5 16 24.5c-3.132 0-5.987-.922-8.072-2.439C5.843 20.545 4.5 18.41 4.5 16s1.343-4.545 3.428-6.061Z" clip-rule="evenodd"/></svg>