<svg xmlns="http://www.w3.org/2000/svg" width="32" height="32" viewBox="0 0 32 32"><path fill-rule="evenodd" d="M8.81 11.152C7.007 12.463 6 14.19 6 16s1.007 3.537 2.81 4.848C10.612 22.158 13.15 23 16 23c2.85 0 5.388-.841 7.19-2.152C24.993 19.537 26 17.81 26 16s-1.007-3.537-2.81-4.848C21.388 9.842 18.85 9 16 9c-2.85 0-5.388.841-7.19 2.152ZM7.634 9.534C9.813 7.95 12.774 7 16 7s6.187.95 8.366 2.534C26.545 11.12 28 13.392 28 16s-1.455 4.881-3.634 6.466C22.187 24.05 19.226 25 16 25s-6.187-.95-8.366-2.534C5.455 20.88 4 18.608 4 16s1.455-4.881 3.634-6.466Z" clip-rule="evenodd"/></svg>