<svg xmlns="http://www.w3.org/2000/svg" width="32" height="32" viewBox="0 0 32 32"><path d="M8.663 10.95C6.813 12.295 5.75 14.09 5.75 16s1.063 3.705 2.913 5.05 4.44 2.2 7.337 2.2 5.488-.855 7.337-2.2c1.85-1.345 2.913-3.14 2.913-5.05s-1.063-3.705-2.913-5.05-4.44-2.2-7.337-2.2-5.488.855-7.337 2.2m-.882-1.213C9.913 8.186 12.82 7.25 16 7.25s6.087.936 8.22 2.487c2.13 1.55 3.53 3.755 3.53 6.263s-1.4 4.713-3.53 6.263c-2.133 1.551-5.041 2.487-8.22 2.487s-6.087-.936-8.22-2.487C5.65 20.713 4.25 18.508 4.25 16s1.4-4.713 3.53-6.263"/></svg>