<svg xmlns="http://www.w3.org/2000/svg" width="32" height="32" viewBox="0 0 32 32"><path fill-rule="evenodd" d="M7 6.75A3.25 3.25 0 0 0 3.75 10v12A3.25 3.25 0 0 0 7 25.25h9a.75.75 0 0 1 0 1.5H7A4.75 4.75 0 0 1 2.25 22V10A4.75 4.75 0 0 1 7 5.25h18A4.75 4.75 0 0 1 29.75 10v8a.75.75 0 0 1-1.5 0v-8A3.25 3.25 0 0 0 25 6.75zm8.47 4.72a.75.75 0 0 1 1.06 0l4 4a.75.75 0 1 1-1.06 1.06l-2.72-2.72V20a.75.75 0 0 1-1.5 0v-6.19l-2.72 2.72a.75.75 0 1 1-1.06-1.06zM25.75 21a.75.75 0 0 0-1.5 0v3.25H21a.75.75 0 0 0 0 1.5h3.25V29a.75.75 0 0 0 1.5 0v-3.25H29a.75.75 0 0 0 0-1.5h-3.25z" clip-rule="evenodd"/></svg>