<svg xmlns="http://www.w3.org/2000/svg" width="32" height="32" viewBox="0 0 32 32"><path d="M25.001 20.251a4.74 4.74 0 0 0-3.852 1.992l-9.655-4.774a4.34 4.34 0 0 0 0-2.937l9.664-4.762A4.732 4.732 0 1 0 20.25 7c.007.485.089.966.243 1.426l-9.68 4.77a4.75 4.75 0 1 0 0 5.61l9.676 4.784a4.7 4.7 0 0 0-.238 1.411 4.75 4.75 0 1 0 4.75-4.75m0-16.5c.736-.001 1.27.19 1.805.547a3.25 3.25 0 1 1-4.103.405c.61-.61 1.326-.953 2.297-.953M7 19.25a3.25 3.25 0 1 1 0-6.501 3.25 3.25 0 0 1 0 6.5m18.001 9a3.25 3.25 0 1 1 0-6.5 3.25 3.25 0 0 1 0 6.5"/></svg>