<svg xmlns="http://www.w3.org/2000/svg" width="32" height="32" viewBox="0 0 32 32"><path d="m12.528 7.529 2.722-2.72V13a.75.75 0 1 0 1.5 0V4.81l2.72 2.72a.75.75 0 1 0 1.06-1.06l-4-4a.75.75 0 0 0-1.06 0l-4.003 3.998a.75.75 0 1 0 1.06 1.061M25.379 6.888a.75.75 0 0 0-.753 1.297A3.27 3.27 0 0 1 26.25 11v14A3.254 3.254 0 0 1 23 28.25H9A3.254 3.254 0 0 1 5.75 25V11a3.26 3.26 0 0 1 1.624-2.815.75.75 0 1 0-.751-1.299A4.77 4.77 0 0 0 4.25 11v14A4.755 4.755 0 0 0 9 29.75h14A4.755 4.755 0 0 0 27.75 25V11a4.77 4.77 0 0 0-2.372-4.112"/></svg>