<svg xmlns="http://www.w3.org/2000/svg" width="32" height="32" viewBox="0 0 32 32"><path d="M16.53 21.469a.75.75 0 0 0-1.06 0l-4 4a.748.748 0 0 0 .528 1.286.75.75 0 0 0 .533-.226l2.72-2.72V30a.75.75 0 1 0 1.5 0v-6.19l2.72 2.72a.75.75 0 0 0 1.06-1.06zM25 5.25H7A4.755 4.755 0 0 0 2.25 10v12A4.755 4.755 0 0 0 7 26.75a.75.75 0 1 0 0-1.5A3.254 3.254 0 0 1 3.75 22V10A3.254 3.254 0 0 1 7 6.75h18A3.254 3.254 0 0 1 28.25 10v12A3.254 3.254 0 0 1 25 25.25a.75.75 0 1 0 0 1.5A4.755 4.755 0 0 0 29.75 22V10A4.755 4.755 0 0 0 25 5.25"/></svg>