<svg xmlns="http://www.w3.org/2000/svg" width="32" height="32" viewBox="0 0 32 32"><path d="M7 4.75A3.25 3.25 0 0 0 3.75 8v12A3.25 3.25 0 0 0 7 23.25a.75.75 0 0 1 0 1.5A4.75 4.75 0 0 1 2.25 20V8A4.75 4.75 0 0 1 7 3.25h18A4.75 4.75 0 0 1 29.75 8v12A4.75 4.75 0 0 1 25 24.75a.75.75 0 0 1 0-1.5A3.25 3.25 0 0 0 28.25 20V8A3.25 3.25 0 0 0 25 4.75zm9.53 14.719a.75.75 0 0 0-1.06 0l-4 4a.75.75 0 0 0 1.06 1.06l2.72-2.72V28a.75.75 0 0 0 1.5 0v-6.19l2.72 2.72a.75.75 0 0 0 1.06-1.061zM15 6.25a.75.75 0 0 0 0 1.5h2a.75.75 0 0 0 0-1.5z"/></svg>