<svg xmlns="http://www.w3.org/2000/svg" width="32" height="32" viewBox="0 0 32 32"><path fill-rule="evenodd" d="M7 6.5A3.5 3.5 0 0 0 3.5 10v12A3.5 3.5 0 0 0 7 25.5h9a.5.5 0 0 1 0 1H7A4.5 4.5 0 0 1 2.5 22V10A4.5 4.5 0 0 1 7 5.5h18a4.5 4.5 0 0 1 4.5 4.5v8a.5.5 0 0 1-1 0v-8A3.5 3.5 0 0 0 25 6.5zm8.646 5.146a.5.5 0 0 1 .708 0l4 4a.5.5 0 0 1-.708.708L16.5 13.207V20a.5.5 0 0 1-1 0v-6.793l-3.146 3.147a.5.5 0 0 1-.708-.708zM25.5 21a.5.5 0 0 0-1 0v3.5H21a.5.5 0 0 0 0 1h3.5V29a.5.5 0 0 0 1 0v-3.5H29a.5.5 0 0 0 0-1h-3.5z" clip-rule="evenodd"/></svg>