<svg xmlns="http://www.w3.org/2000/svg" width="32" height="32" viewBox="0 0 32 32"><path d="M12.351 7.352 15.5 4.206V13a.5.5 0 1 0 1 0V4.207l3.146 3.146a.5.5 0 0 0 .707-.707l-4-4a.5.5 0 0 0-.707 0l-4.002 4a.5.5 0 0 0 .707.706M25.254 7.104a.5.5 0 0 0-.503.865A3.51 3.51 0 0 1 26.5 11v14a3.505 3.505 0 0 1-3.5 3.5H9A3.504 3.504 0 0 1 5.5 25V11a3.52 3.52 0 0 1 1.75-3.03.5.5 0 0 0-.502-.866A4.52 4.52 0 0 0 4.5 11v14A4.505 4.505 0 0 0 9 29.5h14a4.505 4.505 0 0 0 4.5-4.5V11a4.52 4.52 0 0 0-2.247-3.896"/></svg>