<svg xmlns="http://www.w3.org/2000/svg" width="32" height="32" viewBox="0 0 32 32"><path d="M12 7.999a1 1 0 0 0 .707-.293l2.295-2.293V13a1 1 0 0 0 2 0V5.414l2.293 2.293a1 1 0 0 0 1.414-1.414l-4-4a1 1 0 0 0-1.414 0l-4.002 3.999A1 1 0 0 0 12 7.999M25.504 6.672a1 1 0 0 0-1.004 1.73A3.01 3.01 0 0 1 26 11v14a3.003 3.003 0 0 1-3 3H9a3.003 3.003 0 0 1-3-3V11A3.02 3.02 0 0 1 7.5 8.4a1 1 0 0 0-1.002-1.73A5.02 5.02 0 0 0 4 11v14a5.006 5.006 0 0 0 5 5h14a5.005 5.005 0 0 0 5-5V11a5.02 5.02 0 0 0-2.496-4.328"/></svg>