<svg xmlns="http://www.w3.org/2000/svg" width="32" height="32" viewBox="0 0 32 32"><path d="m25.8 7.47-7.134-4.245a5.28 5.28 0 0 0-5.331 0L6.2 7.47a1.48 1.48 0 0 0-.7 1.271v2.114a21.24 21.24 0 0 0 10.251 18.578.5.5 0 0 0 .498 0A21.24 21.24 0 0 0 26.5 10.856V8.742a1.48 1.48 0 0 0-.7-1.271M6.5 10.857V8.742a.48.48 0 0 1 .212-.412l7.135-4.246a4.2 4.2 0 0 1 1.653-.55v24.565a20.35 20.35 0 0 1-9-17.243m19 0a20.34 20.34 0 0 1-9 17.243V3.533a4.2 4.2 0 0 1 1.654.55L25.29 8.33a.48.48 0 0 1 .21.412z"/></svg>