<svg xmlns="http://www.w3.org/2000/svg" width="32" height="32" viewBox="0 0 32 32"><path d="M25.928 7.256 18.792 3.01a5.531 5.531 0 0 0-5.585 0L6.072 7.256a1.73 1.73 0 0 0-.822 1.486v2.114A21.494 21.494 0 0 0 15.627 29.65a.748.748 0 0 0 .746 0A21.492 21.492 0 0 0 26.75 10.856V8.742a1.727 1.727 0 0 0-.822-1.486Zm-19.178 3.6V8.742a.233.233 0 0 1 .09-.197l7.134-4.246c.394-.23.826-.39 1.276-.47v23.808a20.157 20.157 0 0 1-8.5-16.78Zm18.5 0a20.157 20.157 0 0 1-8.5 16.78V3.828c.45.08.882.24 1.276.47l7.135 4.247a.232.232 0 0 1 .089.197v2.114Z"/></svg>