<svg xmlns="http://www.w3.org/2000/svg" width="32" height="32" viewBox="0 0 32 32"><path d="m25.8 7.47-7.134-4.245a5.28 5.28 0 0 0-5.332 0L6.2 7.47a1.477 1.477 0 0 0-.7 1.271v2.114a21.244 21.244 0 0 0 10.251 18.578.5.5 0 0 0 .498 0A21.241 21.241 0 0 0 26.5 10.856V8.742a1.475 1.475 0 0 0-.7-1.271ZM6.5 10.857V8.742a.479.479 0 0 1 .212-.412l7.135-4.246a4.183 4.183 0 0 1 1.653-.55v24.565a20.347 20.347 0 0 1-9-17.243Zm19 0a20.344 20.344 0 0 1-9 17.243V3.533a4.182 4.182 0 0 1 1.654.55L25.29 8.33a.48.48 0 0 1 .21.412l.001 2.114Z"/></svg>