<svg xmlns="http://www.w3.org/2000/svg" width="32" height="32" viewBox="0 0 32 32"><path d="M3.25 4A.75.75 0 0 1 4 3.25h3a.75.75 0 0 1 .739.62l.508 2.88H28a.75.75 0 0 1 .734.905l-2 9.5a.75.75 0 0 1-.734.595H10.188l.441 2.5H25a.75.75 0 0 1 0 1.5H10.013a.75.75 0 0 1-.754-.632L6.371 4.75H4A.75.75 0 0 1 3.25 4m6.673 12.25h15.469l1.684-8H8.512zM7.25 26a2.75 2.75 0 1 1 5.5 0 2.75 2.75 0 0 1-5.5 0M10 24.75a1.25 1.25 0 1 0 0 2.5 1.25 1.25 0 0 0 0-2.5M25 23.25a2.75 2.75 0 1 0 0 5.5 2.75 2.75 0 0 0 0-5.5M23.75 26a1.25 1.25 0 1 1 2.5 0 1.25 1.25 0 0 1-2.5 0"/></svg>