<svg xmlns="http://www.w3.org/2000/svg" width="32" height="32" viewBox="0 0 32 32"><path fill-rule="evenodd" d="M3 4a1 1 0 0 1 1-1h3a1 1 0 0 1 .985.826L8.457 6.5H28a1 1 0 0 1 .979 1.206l-2 9.5A1 1 0 0 1 26 18H10.486l.353 2H25a1 1 0 1 1 0 2H10.017a.999.999 0 0 1-1.005-.843L6.161 5H4a1 1 0 0 1-1-1Zm7.133 12L8.81 8.5h17.958l-1.58 7.5H10.134ZM7 26a3 3 0 1 1 6 0 3 3 0 0 1-6 0Zm3-1a1 1 0 1 0 0 2 1 1 0 0 0 0-2ZM25 23a3 3 0 1 0 0 6 3 3 0 0 0 0-6Zm-1 3a1 1 0 1 1 2 0 1 1 0 0 1-2 0Z" clip-rule="evenodd"/></svg>