<svg xmlns="http://www.w3.org/2000/svg" width="32" height="32" viewBox="0 0 32 32"><path d="M2.498 11a2.5 2.5 0 0 1 2.5-2.5h22.005a2.5 2.5 0 0 1 2.5 2.5v10a2.5 2.5 0 0 1-2.5 2.5H4.998a2.5 2.5 0 0 1-2.5-2.5zm2.5-1.5a1.5 1.5 0 0 0-1.5 1.5v10a1.5 1.5 0 0 0 1.5 1.5h22.005a1.5 1.5 0 0 0 1.5-1.5V11a1.5 1.5 0 0 0-1.5-1.5zM6.5 13a.5.5 0 0 1 .5-.5c.784 0 1.427.126 1.875.485q.06.047.112.098.044-.045.093-.087c.428-.368 1.042-.496 1.778-.496a.5.5 0 1 1 0 1c-.658 0-.972.122-1.125.254-.131.113-.23.31-.233.731v3.03c.003.42.102.618.233.731.153.132.467.254 1.125.254a.5.5 0 1 1 0 1c-.736 0-1.35-.128-1.778-.496a2 2 0 0 1-.093-.087 2 2 0 0 1-.112.098c-.448.359-1.091.485-1.875.485a.5.5 0 0 1 0-1c.717 0 1.074-.124 1.25-.265.146-.117.248-.31.25-.72v-3.03c-.002-.41-.104-.603-.25-.72-.176-.141-.533-.265-1.25-.265a.5.5 0 0 1-.5-.5"/></svg>