<svg xmlns="http://www.w3.org/2000/svg" width="32" height="32" viewBox="0 0 32 32"><path d="M2.248 11a2.75 2.75 0 0 1 2.75-2.75h22.005a2.75 2.75 0 0 1 2.75 2.75v10a2.75 2.75 0 0 1-2.75 2.75H4.998A2.75 2.75 0 0 1 2.248 21zm2.75-1.25c-.69 0-1.25.56-1.25 1.25v10c0 .69.56 1.25 1.25 1.25h22.005c.69 0 1.25-.56 1.25-1.25V11c0-.69-.56-1.25-1.25-1.25zM6.25 13a.75.75 0 0 1 .75-.75c.776 0 1.472.119 1.984.502.49-.384 1.152-.502 1.874-.502a.75.75 0 0 1 0 1.5c-.638 0-.878.12-.962.193-.053.046-.143.158-.146.542v3.03c.003.384.093.496.146.542.084.072.324.193.962.193a.75.75 0 0 1 0 1.5c-.722 0-1.384-.118-1.874-.502-.512.383-1.208.502-1.984.502a.75.75 0 0 1 0-1.5c.7 0 .986-.123 1.094-.21.064-.052.154-.157.156-.525v-3.03c-.002-.368-.092-.473-.156-.524-.108-.088-.394-.211-1.094-.211a.75.75 0 0 1-.75-.75"/></svg>