<svg xmlns="http://www.w3.org/2000/svg" width="32" height="32" viewBox="0 0 32 32"><path d="M1.998 11a3 3 0 0 1 3-3h22.005a3 3 0 0 1 3 3v10a3 3 0 0 1-3 3H4.998a3 3 0 0 1-3-3zm3-1a1 1 0 0 0-1 1v10a1 1 0 0 0 1 1h22.005a1 1 0 0 0 1-1V11a1 1 0 0 0-1-1zM6 13a1 1 0 0 1 1-1c.724 0 1.424.1 1.98.447.535-.348 1.202-.447 1.878-.447a1 1 0 1 1 0 2c-.619 0-.783.12-.799.133l-.004.005a.2.2 0 0 0-.016.035 1 1 0 0 0-.038.313v3.028c0 .17.021.265.038.313a.2.2 0 0 0 .016.035l.004.005c.016.014.18.133.799.133a1 1 0 1 1 0 2c-.676 0-1.343-.1-1.877-.447C8.424 19.9 7.724 20 7 20a1 1 0 1 1 0-2c.683 0 .896-.123.937-.156h.001c.007-.006.013-.01.024-.039A.9.9 0 0 0 8 17.514v-3.028a.9.9 0 0 0-.037-.291c-.011-.028-.017-.033-.024-.038v-.001C7.896 14.123 7.683 14 7 14a1 1 0 0 1-1-1"/></svg>