<svg xmlns="http://www.w3.org/2000/svg" width="32" height="32" viewBox="0 0 32 32"><path d="M28.596 15.543C28.367 15.246 22.929 8.25 16 8.25c-6.93 0-12.367 6.996-12.595 7.293a.75.75 0 0 0 0 .913C3.633 16.753 9.07 23.75 16 23.75s12.367-6.997 12.596-7.294a.75.75 0 0 0 0-.912ZM16 22.25c-5.223 0-9.724-4.74-11.026-6.25C6.276 14.489 10.777 9.75 16 9.75c5.224 0 9.726 4.74 11.028 6.25-1.3 1.511-5.793 6.25-11.028 6.25Z"/><path d="M16 12.25a3.75 3.75 0 1 0 0 7.498 3.75 3.75 0 0 0 0-7.499Zm0 6a2.25 2.25 0 1 1 0-4.5 2.25 2.25 0 0 1 0 4.5Z"/></svg>