<svg xmlns="http://www.w3.org/2000/svg" width="32" height="32" viewBox="0 0 32 32"><path d="M20.42 3.659a6.98 6.98 0 0 1 5.158 2.922 6.98 6.98 0 0 1 1.067 5.83 1 1 0 1 0 1.935.506 8.98 8.98 0 0 0-1.372-7.495 8.98 8.98 0 0 0-6.63-3.757 1 1 0 1 0-.158 1.994M6.296 15.478l-2.413-4.179A2.5 2.5 0 0 1 5.65 7.58a2.498 2.498 0 0 1 3.658-2.112 2.5 2.5 0 0 1 4.103.33l.275.478q.186-.165.409-.294a2.5 2.5 0 0 1 3.415.915l6.5 11.258.005.009a8.5 8.5 0 0 1-14.728 8.491l-4.715-8.167c-.26-.45-.446-1.248-.067-1.973.35-.673 1.009-.99 1.792-1.037m4.514-8.182 3.252 5.632.003.005.497.861a1 1 0 1 1-1.732 1L8.58 7.433a.5.5 0 1 0-.866.5l4.25 7.361a1 1 0 0 1-1.732 1L6.497 9.826l-.016-.027a.5.5 0 0 0-.866.5l4.286 7.424a9 9 0 0 1 .482.831l.008.017.974 1.687a1 1 0 0 1-1.732 1L8.2 18.773a6 6 0 0 0-.24-.337 3.8 3.8 0 0 0-.651-.68c-.229-.179-.411-.252-.543-.268a1.6 1.6 0 0 0-.463-.003l.001.002v.001l4.716 8.167a6.5 6.5 0 0 0 11.258-6.5l-6.5-11.258a.5.5 0 1 0-.866.5l2.25 3.897a1 1 0 0 1-1.732 1l-.98-1.697-.021-.035-2.75-4.763a.5.5 0 0 0-.868.497M19.974 6.64a4 4 0 0 1 3.16 1.68 4 4 0 0 1 .55 3.536 1 1 0 1 0 1.905.607 6 6 0 0 0-.826-5.302 6 6 0 0 0-4.737-2.521 1 1 0 0 0-.052 2"/></svg>