<svg xmlns="http://www.w3.org/2000/svg" width="32" height="32" viewBox="0 0 32 32"><path d="M25.782 6.436A7.23 7.23 0 0 0 20.44 3.41a.75.75 0 0 1 .118-1.496 8.73 8.73 0 0 1 6.446 3.653 8.73 8.73 0 0 1 1.334 7.287.75.75 0 0 1-1.451-.38 7.23 7.23 0 0 0-1.105-6.038M4.725 16.63c.353-.676 1.085-.958 2.005-.902L4.1 11.174a2.25 2.25 0 0 1 1.8-3.37 2.25 2.25 0 0 1 3.476-2.007 2.25 2.25 0 0 1 3.819.127l.438.76a2.25 2.25 0 0 1 3.66.337l6.502 11.264A8.25 8.25 0 0 1 9.503 26.53l-4.716-8.167c-.23-.399-.39-1.104-.062-1.733m1.361.983 4.716 8.167a6.75 6.75 0 0 0 11.691-6.75l-.002-.004-6.497-11.254a.75.75 0 1 0-1.3.75l2.25 3.897a.75.75 0 0 1-1.298.75l-.987-1.709-.014-.023-2.75-4.763a.75.75 0 0 0-1.31.73l3.261 5.65.012.02.488.845a.75.75 0 1 1-1.3.75l-3.75-6.495-.02-.036-.479-.83a.75.75 0 1 0-1.299.75l4.25 7.361a.75.75 0 0 1-1.299.75L6.713 9.697l-.014-.023a.75.75 0 0 0-1.3.75l4.298 7.443a9 9 0 0 1 .462.798l.005.011.986 1.707a.75.75 0 0 1-1.3.75l-1.43-2.479a7 7 0 0 0-.263-.37 4 4 0 0 0-.695-.726c-.25-.195-.475-.295-.668-.318-.365-.044-.564-.005-.656.03a.2.2 0 0 0-.07.038l-.013.015a.25.25 0 0 0-.014.128.4.4 0 0 0 .045.162M23.337 8.175A4.24 4.24 0 0 0 19.98 6.39a.75.75 0 0 1 .04-1.5 5.74 5.74 0 0 1 4.54 2.417 5.74 5.74 0 0 1 .791 5.082.75.75 0 1 1-1.43-.456 4.24 4.24 0 0 0-.584-3.757"/></svg>