<svg xmlns="http://www.w3.org/2000/svg" width="32" height="32" viewBox="0 0 32 32"><path d="M25.986 6.291a7.48 7.48 0 0 0-5.526-3.13.5.5 0 1 1 .078-.997A8.48 8.48 0 0 1 26.8 5.712a8.48 8.48 0 0 1 1.296 7.079.5.5 0 0 1-.967-.253 7.48 7.48 0 0 0-1.144-6.247M7.203 16.047l-2.886-4.998a2 2 0 0 1 1.865-2.996 2 2 0 0 1 3.27-1.888 2 2 0 0 1 3.526-.116l.634 1.098a2 2 0 0 1 3.465 0l6.5 11.258.012.025a8 8 0 0 1-13.87 7.975l-4.716-8.167c-.2-.348-.334-.96-.057-1.492.315-.603 1.013-.866 1.997-.747q.133.016.26.048m3.163-8.522 3.264 5.653.01.017.49.85a.5.5 0 1 1-.867.5l-3.75-6.496-.019-.034-.48-.832a1 1 0 1 0-1.732 1l4.25 7.361a.5.5 0 0 1-.866.5l-3.74-6.476-.01-.019a1 1 0 0 0-1.733 1l4.304 7.454a9 9 0 0 1 .448.774l.006.012.992 1.72a.5.5 0 1 1-.866.5l-.994-1.723-.011-.02-.427-.738a7 7 0 0 0-.28-.396 4.3 4.3 0 0 0-.74-.771c-.272-.212-.538-.339-.791-.37-.785-.094-.952.143-.99.217-.076.145-.048.385.035.53l4.716 8.167a7 7 0 1 0 12.124-7l-.006-.01-.007-.013L16.21 7.647a1 1 0 1 0-1.732 1l2.25 3.897a.5.5 0 0 1-.866.5l-.989-1.713-.006-.01-.006-.009-2.75-4.763a1 1 0 0 0-1.745.976M19.987 6.14c1.368.035 2.7.69 3.554 1.89a4.5 4.5 0 0 1 .62 3.978.5.5 0 1 0 .952.304 5.5 5.5 0 0 0-.757-4.861 5.5 5.5 0 0 0-4.343-2.311.5.5 0 1 0-.026 1"/></svg>