<svg xmlns="http://www.w3.org/2000/svg" width="32" height="32" viewBox="0 0 32 32"><path d="m15.98 4.013-2.629 2.024-.002.002a2.07 2.07 0 0 1-1.355.422h-.002l-3.38-.155a.03.03 0 0 0-.03.018l-.886 3.104a2 2 0 0 1-.864 1.137l-2.814 1.758 1.18 2.972c.186.461.19.977.007 1.44l-.002.006-1.193 2.977 2.804 1.746.003.002c.42.26.728.666.864 1.14l.001.004.872 3.096.006.008a.02.02 0 0 0 .012.003h.016l3.368-.166h.003c.487-.026.967.122 1.356.417l.004.004 2.619 2.015a.07.07 0 0 0 .08 0h.002l2.627-2.024.003-.002a2.07 2.07 0 0 1 1.354-.422h.002l3.383.155a.03.03 0 0 0 .018-.005.03.03 0 0 0 .01-.013l.885-3.1.001-.003c.137-.473.445-.879.863-1.138l.003-.002 2.813-1.756-1.185-2.974a1.94 1.94 0 0 1 0-1.444l1.192-2.976-2.803-1.746-.003-.002a1.98 1.98 0 0 1-.863-1.141l-.001-.004-.872-3.095-.007-.008a.02.02 0 0 0-.012-.004l-.016.001-3.365.166h-.004a2.05 2.05 0 0 1-1.36-.42l-.002-.001-2.622-2.016a.07.07 0 0 0-.079 0M14.77 2.42a2.07 2.07 0 0 1 2.5 0l.005.004 2.623 2.017q.016.012.036.011h.007l3.366-.166a2.02 2.02 0 0 1 2.056 1.432l.005.018.873 3.1 2.814 1.754a1.956 1.956 0 0 1 .809 2.39l-.002.006-1.2 2.994 1.196 3a1.96 1.96 0 0 1-.808 2.387l-2.827 1.765-.887 3.108-.005.018a2.03 2.03 0 0 1-2.053 1.432l-3.366-.155h-.004a.07.07 0 0 0-.043.013L17.23 29.58a2.07 2.07 0 0 1-2.5 0l-.005-.004-2.62-2.015v-.001a.06.06 0 0 0-.04-.012h-.005l-3.366.166a2.02 2.02 0 0 1-2.055-1.433l-.005-.018-.873-3.099-2.816-1.754a1.96 1.96 0 0 1-.808-2.39l.002-.006 1.197-2.989-1.192-3.004a1.96 1.96 0 0 1 .807-2.39l2.827-1.765.886-3.106.005-.018a2.03 2.03 0 0 1 2.054-1.433l3.365.154h.004q.023.002.042-.013zM20.555 9.168a1 1 0 0 1 .277 1.387l-8 12a1 1 0 0 1-1.664-1.11l8-12a1 1 0 0 1 1.387-.277M13 10a1 1 0 1 0 0 2 1 1 0 0 0 0-2m-3 1a3 3 0 1 1 6 0 3 3 0 0 1-6 0M19 20a1 1 0 1 0 0 2 1 1 0 0 0 0-2m-3 1a3 3 0 1 1 6 0 3 3 0 0 1-6 0"/></svg>