<svg xmlns="http://www.w3.org/2000/svg" width="32" height="32" viewBox="0 0 32 32"><path d="M15.678 3.615h-.001l-2.63 2.026h-.002a1.57 1.57 0 0 1-1.027.32L8.64 5.808a.53.53 0 0 0-.537.37l-.888 3.111a1.5 1.5 0 0 1-.648.852l-.001.001-2.835 1.77a.46.46 0 0 0-.192.564l1.193 3.007c.14.342.142.726.007 1.07l-.001.003-1.207 3.013v.002a.46.46 0 0 0 .19.558l.009.005 2.821 1.757.002.001c.314.194.544.498.646.853v.002l.875 3.106a.52.52 0 0 0 .53.364h.008l3.37-.166c.37-.02.735.093 1.029.316l.002.002 2.622 2.017a.57.57 0 0 0 .685.001l.001-.001 2.63-2.026h.002a1.57 1.57 0 0 1 1.028-.321l3.377.155a.53.53 0 0 0 .536-.37l.888-3.109v-.002c.103-.354.334-.658.647-.852l.002-.001 2.835-1.77a.46.46 0 0 0 .193-.563v-.002l-1.199-3.007a1.44 1.44 0 0 1 0-1.072l1.207-3.013a.46.46 0 0 0-.19-.56l-.009-.004-2.82-1.757h-.002a1.48 1.48 0 0 1-.646-.854v-.002l-.875-3.106a.52.52 0 0 0-.531-.365h-.008l-3.368.167h-.002c-.37.02-.736-.092-1.03-.317l-.001-.001-2.623-2.017-.001-.001a.57.57 0 0 0-.684 0m-.606-.796a1.57 1.57 0 0 1 1.896 0l.002.002 2.624 2.018c.105.08.236.12.368.113h.004l3.368-.166a1.52 1.52 0 0 1 1.55 1.078l.003.009.875 3.11a.48.48 0 0 0 .21.277h.003l2.82 1.757a1.46 1.46 0 0 1 .604 1.781l-.001.003-1.208 3.016a.44.44 0 0 0 0 .328l1.201 3.017a1.46 1.46 0 0 1-.604 1.78l-2.828 1.766-.002.002a.5.5 0 0 0-.213.28l-.891 3.123a1.53 1.53 0 0 1-1.55 1.079l-3.37-.155a.57.57 0 0 0-.371.115l-2.633 2.027-.002.003a1.57 1.57 0 0 1-1.896 0l-.003-.002-2.621-2.017-.001-.001a.56.56 0 0 0-.37-.113h-.002l-3.368.166a1.52 1.52 0 0 1-1.55-1.078l-.002-.01-.875-3.108a.48.48 0 0 0-.21-.277l-.003-.001-2.82-1.757a1.46 1.46 0 0 1-.605-1.782l.001-.003 1.207-3.013a.44.44 0 0 0-.002-.328l-.002-.005-1.196-3.014a1.46 1.46 0 0 1 .604-1.782l2.83-1.767a.5.5 0 0 0 .213-.28l.89-3.122a1.53 1.53 0 0 1 1.55-1.08l3.368.155h.002a.57.57 0 0 0 .371-.115zM20.277 9.584a.5.5 0 0 1 .139.693l-8 12a.5.5 0 0 1-.832-.554l8-12a.5.5 0 0 1 .693-.139M13 9.5a1.5 1.5 0 1 0 0 3 1.5 1.5 0 0 0 0-3M10.5 11a2.5 2.5 0 1 1 5 0 2.5 2.5 0 0 1-5 0M19 19.5a1.5 1.5 0 1 0 0 3 1.5 1.5 0 0 0 0-3M16.5 21a2.5 2.5 0 1 1 5 0 2.5 2.5 0 0 1-5 0"/></svg>