<svg xmlns="http://www.w3.org/2000/svg" width="32" height="32" viewBox="0 0 32 32"><path d="m15.83 3.814-2.631 2.025-.002.001c-.34.26-.763.392-1.191.372h-.001l-3.379-.156a.28.28 0 0 0-.283.193l-.887 3.11c-.12.413-.39.767-.756.993l-.002.002-2.837 1.772a.21.21 0 0 0-.088.257v.002l1.192 3.003c.164.402.166.852.007 1.256l-.001.004-1.207 3.012v.001a.21.21 0 0 0 .087.252l.012.008 2.82 1.756.002.002c.367.226.637.581.755.996l.001.003.874 3.102a.27.27 0 0 0 .274.187H8.6l3.368-.167h.002c.428-.022.85.108 1.192.367l.004.003 2.62 2.016h.001a.32.32 0 0 0 .382.001l.001-.001L18.8 26.16l.002-.001c.34-.26.762-.393 1.19-.372h.002l3.38.156a.28.28 0 0 0 .282-.192l.886-3.107.001-.003c.12-.413.39-.768.756-.995h.001l2.838-1.773a.21.21 0 0 0 .089-.257v-.002l-1.198-3.005a1.7 1.7 0 0 1 0-1.258l1.206-3.011.001-.002a.21.21 0 0 0-.087-.252l-.012-.007-2.82-1.756-.002-.001a1.73 1.73 0 0 1-.755-.998v-.002l-.874-3.102a.27.27 0 0 0-.275-.187H23.4l-3.366.166h-.003a1.8 1.8 0 0 1-1.195-.368l-.002-.001-2.621-2.016-.002-.001a.32.32 0 0 0-.38 0m-.91-1.194a1.82 1.82 0 0 1 2.2 0l.003.003 2.623 2.018c.058.043.13.066.202.062h.005l3.367-.166a1.77 1.77 0 0 1 1.803 1.255l.005.013.875 3.108a.23.23 0 0 0 .1.134l.004.002 2.818 1.755a1.71 1.71 0 0 1 .706 2.086l-.001.004-1.208 3.016a.2.2 0 0 0 0 .142v.002l1.203 3.018a1.71 1.71 0 0 1-.706 2.083l-2.827 1.765-.003.002a.24.24 0 0 0-.105.137v.001l-.888 3.112-.004.014a1.78 1.78 0 0 1-1.801 1.255l-3.368-.154h-.002a.32.32 0 0 0-.207.064l-2.636 2.03a1.82 1.82 0 0 1-2.198 0l-.004-.003-2.62-2.017h-.002a.3.3 0 0 0-.204-.063h-.004l-3.367.166a1.77 1.77 0 0 1-1.802-1.255l-.004-.013-.875-3.108v-.001a.23.23 0 0 0-.1-.132l-.004-.002-2.819-1.756a1.71 1.71 0 0 1-.707-2.086l.002-.005 1.206-3.011.001-.001a.2.2 0 0 0-.002-.141l-.003-.008-1.196-3.015a1.71 1.71 0 0 1 .706-2.085L5.91 9.077a.24.24 0 0 0 .105-.137l.887-3.111.004-.014A1.78 1.78 0 0 1 8.71 4.558l3.367.155h.002a.32.32 0 0 0 .207-.064zM20.416 9.376a.75.75 0 0 1 .208 1.04l-8 12a.75.75 0 1 1-1.248-.832l8-12a.75.75 0 0 1 1.04-.208M13 9.75a1.25 1.25 0 1 0 0 2.5 1.25 1.25 0 0 0 0-2.5M10.25 11a2.75 2.75 0 1 1 5.5 0 2.75 2.75 0 0 1-5.5 0M19 19.75a1.25 1.25 0 1 0 0 2.5 1.25 1.25 0 0 0 0-2.5M16.25 21a2.75 2.75 0 1 1 5.5 0 2.75 2.75 0 0 1-5.5 0"/></svg>