<svg xmlns="http://www.w3.org/2000/svg" width="32" height="32" viewBox="0 0 32 32"><path d="m29.354 15.646-4-4a.5.5 0 0 0-.707.707l3.147 3.147H21a.5.5 0 0 0 0 1h6.794l-3.147 3.146a.499.499 0 1 0 .707.707l4-4a.5.5 0 0 0 0-.707M18.782 20.5h-1.854A7 7 0 0 1 15.5 16a7.02 7.02 0 0 1 1.423-4.5h1.868a2.81 2.81 0 0 0 2.71-2.832v-3.44A2.73 2.73 0 0 0 18.772 2.5h-1.467c-2.373 0-6.804 3.96-6.804 13.5s4.431 13.5 6.804 13.5h1.467a2.73 2.73 0 0 0 2.729-2.729v-3.569a2.713 2.713 0 0 0-2.72-2.702m1.718 6.272a1.73 1.73 0 0 1-1.728 1.728h-1.467c-1.708 0-5.804-3.597-5.804-12.5s4.096-12.5 5.804-12.5h1.467a1.73 1.73 0 0 1 1.729 1.729v3.439a1.82 1.82 0 0 1-1.71 1.832h-1.954c-.999 0-2.336 2.719-2.336 5.5s1.34 5.5 2.341 5.5h1.94a1.713 1.713 0 0 1 1.718 1.702zM7 11.5H3a.5.5 0 0 0 0 1h4a.5.5 0 0 0 0-1M7 19.5H3a.5.5 0 0 0 0 1h4a.5.5 0 0 0 0-1"/></svg>