<svg xmlns="http://www.w3.org/2000/svg" width="32" height="32" viewBox="0 0 32 32"><path d="m29.708 15.293-4-4a1 1 0 0 0-1.414 1.414L26.586 15h-5.585a1 1 0 0 0 0 2h5.585l-2.293 2.293a1 1 0 1 0 1.415 1.414l4-4a1 1 0 0 0 0-1.414M18.782 20h-1.638a7 7 0 0 1-1.143-4 7 7 0 0 1 1.138-4h1.652A3.317 3.317 0 0 0 22 8.668v-3.44A3.23 3.23 0 0 0 18.772 2h-1.467c-2.547 0-7.304 4.106-7.304 14s4.757 14 7.304 14h1.467a3.23 3.23 0 0 0 3.229-3.229v-3.569A3.215 3.215 0 0 0 18.78 20M20 26.772A1.23 1.23 0 0 1 18.772 28h-1.467c-1.51 0-5.304-3.57-5.304-12s3.794-12 5.304-12h1.467a1.23 1.23 0 0 1 1.229 1.229v3.439A1.31 1.31 0 0 1 18.79 10h-1.954c-1.528 0-2.836 3.299-2.836 6 0 2.972 1.434 6 2.841 6h1.94A1.21 1.21 0 0 1 20 23.202zM7 11H3a1 1 0 0 0 0 2h4a1 1 0 0 0 0-2M7 19H3a1 1 0 0 0 0 2h4a1 1 0 0 0 0-2"/></svg>