<svg xmlns="http://www.w3.org/2000/svg" width="32" height="32" viewBox="0 0 32 32"><path d="m29.53 15.47-4-4a.75.75 0 1 0-1.06 1.06l2.72 2.72H21a.75.75 0 1 0 0 1.5h6.19l-2.72 2.72a.75.75 0 1 0 1.06 1.06l4-4a.75.75 0 0 0 0-1.06M18.782 20.25h-1.755A7.1 7.1 0 0 1 15.75 16a7.1 7.1 0 0 1 1.273-4.25h1.768a3.063 3.063 0 0 0 2.96-3.082v-3.44a2.98 2.98 0 0 0-2.979-2.978h-1.467c-2.46 0-7.054 4.033-7.054 13.75s4.594 13.75 7.054 13.75h1.467a2.98 2.98 0 0 0 2.979-2.979v-3.569a2.964 2.964 0 0 0-2.97-2.952m1.468 6.522a1.48 1.48 0 0 1-1.478 1.478h-1.467c-1.635 0-5.554-3.524-5.554-12.25s3.92-12.25 5.554-12.25h1.467a1.48 1.48 0 0 1 1.479 1.479v3.439a1.565 1.565 0 0 1-1.46 1.582h-1.954c-1.233 0-2.586 3.01-2.586 5.75s1.356 5.75 2.591 5.75h1.94a1.46 1.46 0 0 1 1.468 1.452zM7 11.25H3a.75.75 0 1 0 0 1.5h4a.75.75 0 1 0 0-1.5M7 19.25H3a.75.75 0 1 0 0 1.5h4a.75.75 0 1 0 0-1.5"/></svg>