<svg xmlns="http://www.w3.org/2000/svg" width="32" height="32" viewBox="0 0 32 32"><path d="M27.617 2.076A1 1 0 0 1 29 3v3a.998.998 0 0 1-1 1h-3a1 1 0 1 1 0-2h.614a4.087 4.087 0 0 0-5.442.172A4 4 0 1 0 26.668 9.6a1 1 0 1 1 1.832.801A5.988 5.988 0 1 1 27 3.538V3a1 1 0 0 1 .617-.924ZM24.213 19.516a3.514 3.514 0 0 0-4.972.006s-1.157 1.179-1.672 1.698a7.1 7.1 0 0 1-6.801-6.81c.442-.439 1.358-1.342 1.627-1.606l.075-.074a3.519 3.519 0 0 0 0-4.973L9.715 4.999a3.607 3.607 0 0 0-4.983 0L3.259 6.473C1.251 8.483.764 15.503 8.62 23.37c5 5.008 9.657 6.63 12.901 6.63 1.437.1 2.858-.35 3.974-1.26l1.472-1.475a3.531 3.531 0 0 0 0-4.99l-2.754-2.76Z"/></svg>