<svg xmlns="http://www.w3.org/2000/svg" width="32" height="32" viewBox="0 0 32 32"><path d="M27.47 2.47a.75.75 0 0 1 1.28.53v3a.75.75 0 0 1-.75.75h-3a.75.75 0 1 1 0-1.5h1.213c-.028-.033-.054-.067-.08-.102a1.473 1.473 0 0 0-.127-.152 4.252 4.252 0 1 0 .89 4.705.75.75 0 0 1 1.376.6 5.744 5.744 0 1 1-1.206-6.367c.037.038.07.081.103.125.026.035.053.07.081.101V3a.75.75 0 0 1 .22-.53ZM24.038 19.699a3.333 3.333 0 0 0-4.614.004s-1.263 1.283-1.736 1.76a7.293 7.293 0 0 1-7.152-7.152c.313-.31.968-.955 1.386-1.366l.379-.373a3.259 3.259 0 0 0 0-4.61L9.548 5.209a3.278 3.278 0 0 0-4.629 0L3.447 6.68c-1.944 1.945-2.368 8.785 5.36 16.513 4.955 4.955 9.545 6.559 12.714 6.559a5.414 5.414 0 0 0 3.799-1.2l1.471-1.472a3.275 3.275 0 0 0 0-4.628l-2.753-2.753Zm1.693 6.32-1.472 1.472c-1.331 1.33-7.36 1.674-14.392-5.358C2.834 15.098 3.18 9.07 4.508 7.74L5.98 6.269a1.775 1.775 0 0 1 2.507 0l2.753 2.753a1.76 1.76 0 0 1 .005 2.485s-1.504 1.478-1.868 1.842c-.647.648-.218 2.457-.07 2.997a9.287 9.287 0 0 0 2.303 4.044c2.297 2.296 6.175 3.093 7.041 2.232a789.65 789.65 0 0 0 1.837-1.862 1.804 1.804 0 0 1 2.49 0l2.753 2.752a1.774 1.774 0 0 1 0 2.507Z"/></svg>