<svg xmlns="http://www.w3.org/2000/svg" width="32" height="32" viewBox="0 0 32 32"><path d="M4.999 26.496a2.5 2.5 0 0 1-2.5-2.5V8.003a2.5 2.5 0 0 1 3.937-2.046l11.003 7.998a2.5 2.5 0 0 1-.004 4.088L6.443 26.036c-.423.3-.927.46-1.444.46M5.005 6.5c-.243 0-.482.06-.697.173A1.48 1.48 0 0 0 3.5 8.004v15.991a1.5 1.5 0 0 0 2.363 1.228l10.992-7.992a1.5 1.5 0 0 0 .007-2.46l-.007-.004L5.855 6.772a1.47 1.47 0 0 0-.85-.272M25.992 26.5a3.505 3.505 0 0 1-3.5-3.5V9a3.5 3.5 0 1 1 7 0V23a3.504 3.504 0 0 1-3.5 3.5m0-19.999a2.5 2.5 0 0 0-2.5 2.5V23a2.5 2.5 0 0 0 5 0V9.001a2.5 2.5 0 0 0-2.5-2.5"/></svg>