<svg xmlns="http://www.w3.org/2000/svg" width="32" height="32" viewBox="0 0 32 32"><path d="m17.73 13.549-11.006-8A3 3 0 0 0 2 8.004v15.991a3 3 0 0 0 2.997 3.001 3.02 3.02 0 0 0 1.74-.555l10.985-7.988a3 3 0 0 0 .008-4.904m-1.17 3.277L5.574 24.814A1 1 0 0 1 4 23.995V8.005a.99.99 0 0 1 .539-.889c.144-.075.304-.115.467-.116.199 0 .393.061.555.176l11 7.995.013.01a1 1 0 0 1-.014 1.645M25.992 5.001a4.004 4.004 0 0 0-4 4V23a4 4 0 1 0 8 0V9.001a4.004 4.004 0 0 0-4-4m2 17.998a2 2 0 1 1-4 0V9.001a2 2 0 1 1 4 0z"/></svg>