<svg xmlns="http://www.w3.org/2000/svg" width="32" height="32" viewBox="0 0 32 32"><path d="M26.99 26.497c-.513 0-1.015-.16-1.435-.456L14.55 18.04a2.5 2.5 0 0 1 .003-4.083l10.996-7.993a2.5 2.5 0 0 1 3.944 2.041v15.991a2.503 2.503 0 0 1-2.501 2.502M26.989 6.5a1.5 1.5 0 0 0-.859.277L15.13 14.772a1.5 1.5 0 0 0 0 2.454l11.006 8.002a1.5 1.5 0 0 0 2.356-1.233V8.005a1.48 1.48 0 0 0-.809-1.332 1.5 1.5 0 0 0-.695-.173M6 26.5A3.505 3.505 0 0 1 2.5 23V9a3.5 3.5 0 1 1 7 0V23A3.504 3.504 0 0 1 6 26.5M6 6.5a2.5 2.5 0 0 0-2.5 2.5V23a2.5 2.5 0 1 0 5 0V9.001a2.5 2.5 0 0 0-2.5-2.5"/></svg>