<svg xmlns="http://www.w3.org/2000/svg" width="32" height="32" viewBox="0 0 32 32"><path d="M17.585 13.752 6.58 5.754a2.75 2.75 0 0 0-4.33 2.25v15.991a2.751 2.751 0 0 0 4.34 2.243L17.58 18.25a2.75 2.75 0 0 0 .005-4.497m-.878 3.277-10.989 7.99a1.251 1.251 0 0 1-1.968-1.024V8.005a1.23 1.23 0 0 1 .673-1.11c.18-.094.38-.144.582-.145.252 0 .497.078.702.224l11.01 8.003a1.25 1.25 0 0 1-.01 2.052M25.992 5.251a3.755 3.755 0 0 0-3.75 3.75V23a3.75 3.75 0 0 0 7.5 0V9.001a3.754 3.754 0 0 0-3.75-3.75M28.242 23a2.25 2.25 0 1 1-4.5 0V9.001a2.25 2.25 0 1 1 4.5 0z"/></svg>