<svg xmlns="http://www.w3.org/2000/svg" width="32" height="32" viewBox="0 0 32 32"><path d="M28.26 5.564a2.75 2.75 0 0 0-2.86.197l-10.993 7.991a2.75 2.75 0 0 0-.005 4.49l11.01 8.003a2.748 2.748 0 0 0 4.33-2.25V8.005a2.74 2.74 0 0 0-1.483-2.441m-.018 18.431a1.25 1.25 0 0 1-1.958 1.03l-11.01-8.004a1.25 1.25 0 0 1 0-2.044L26.273 6.98c.21-.149.46-.229.716-.23.201.001.4.05.579.144a1.23 1.23 0 0 1 .674 1.11zM6 5.251a3.755 3.755 0 0 0-3.75 3.75V23a3.75 3.75 0 0 0 7.5 0V9.001A3.755 3.755 0 0 0 6 5.251M8.25 23a2.25 2.25 0 1 1-4.5 0V9.001a2.25 2.25 0 1 1 4.5 0z"/></svg>