<svg xmlns="http://www.w3.org/2000/svg" width="32" height="32" viewBox="0 0 32 32"><path d="m14.261 13.549 11.006-8a3 3 0 0 1 4.725 2.455v15.991a3 3 0 0 1-2.997 3.001 3.02 3.02 0 0 1-1.74-.555l-10.986-7.988a2.998 2.998 0 0 1-.008-4.904m1.17 3.277 10.987 7.988a1 1 0 0 0 1.574-.819V8.005a.98.98 0 0 0-.54-.889A1 1 0 0 0 26.986 7a.96.96 0 0 0-.555.176l-10.999 7.995-.013.01a1 1 0 0 0 .013 1.645M6 5.001a4.004 4.004 0 0 1 4 4V23a4 4 0 0 1-8 0V9.001a4.004 4.004 0 0 1 4-4M4 23a2 2 0 1 0 4 0V9.001a2 2 0 1 0-4 0z"/></svg>