<svg xmlns="http://www.w3.org/2000/svg" width="32" height="32" fill="none" viewBox="0 0 32 32"><path fill="#198038" d="M16 30c7.732 0 14-6.268 14-14S23.732 2 16 2 2 8.268 2 16s6.268 14 14 14"/><path fill="#fff" d="M18.95 18.7c0 .85-1.15 1.575-2.85 1.575-1.85 0-3.225-.95-3.225-2.1H9.7c0 2.95 2.8 4.825 6.4 4.825 3.575 0 6.2-1.85 6.2-4.3 0-5.2-9.3-3.05-9.3-5.375 0-.925 1.1-1.6 2.85-1.6 1.875 0 2.975 1.15 2.975 2.275H22c0-2.95-2.55-5-6.15-5-3.575 0-6.075 1.975-6.075 4.325 0 5.35 9.175 3.175 9.175 5.375"/></svg>