<svg xmlns="http://www.w3.org/2000/svg" width="32" height="32" fill="none" viewBox="0 0 32 32"><g clip-path="url(#a)"><circle cx="16" cy="16" r="16" fill="#39AC37"/><path fill="#fff" d="M12.508 12.943c0-1.057 1.28-1.828 3.317-1.828 2.183 0 3.463 1.313 3.463 2.6h3.696c0-3.372-2.968-5.715-7.159-5.715-4.161 0-7.071 2.258-7.071 4.943 0 6.115 10.68 3.628 10.68 6.143 0 .972-1.339 1.8-3.318 1.8-2.153 0-3.755-1.086-3.755-2.4H8.666c0 3.371 3.26 5.514 7.45 5.514 4.161 0 7.217-2.114 7.217-4.914 0-5.943-10.824-3.486-10.824-6.143Z"/></g><defs><clipPath id="a"><path fill="#fff" d="M0 0h32v32H0z"/></clipPath></defs></svg>