<svg xmlns="http://www.w3.org/2000/svg" width="32" height="32" viewBox="0 0 32 32"><path d="M5.25 7a4.5 4.5 0 0 1 4.5-4.5h8a4.482 4.482 0 0 1 2.977 1.125.5.5 0 0 1-.662.75A3.482 3.482 0 0 0 17.75 3.5h-8A3.5 3.5 0 0 0 6.25 7v18a3.5 3.5 0 0 0 3.5 3.5h8c.888 0 1.698-.33 2.315-.875a.5.5 0 0 1 .662.75A4.485 4.485 0 0 1 17.75 29.5h-8a4.5 4.5 0 0 1-4.5-4.5V7Z"/><path d="M18.612 8.042a.5.5 0 0 1-.404.58 7.726 7.726 0 0 0-3.756 1.814 7.448 7.448 0 0 0-2.478 4.748 7.382 7.382 0 0 0 1.37 5.158.5.5 0 0 1 .072.44 4.61 4.61 0 0 1-.871 1.606c-.301.36-.656.674-1.05.93a4.746 4.746 0 0 0 3.96-.641.499.499 0 0 1 .312-.109h.002c.092 0 .18.025.256.07a7.808 7.808 0 0 0 5.386.647 7.665 7.665 0 0 0 4.487-3.03 7.416 7.416 0 0 0 1.193-2.736.5.5 0 0 1 .979.207 8.418 8.418 0 0 1-1.354 3.104 8.664 8.664 0 0 1-5.073 3.427 8.81 8.81 0 0 1-5.841-.613 5.744 5.744 0 0 1-5.053.478.838.838 0 0 1-.493-.663.827.827 0 0 1 .395-.806 3.704 3.704 0 0 0 1.127-.906c.259-.31.463-.659.605-1.032a8.378 8.378 0 0 1-1.403-5.642 8.448 8.448 0 0 1 2.81-5.385 8.726 8.726 0 0 1 4.242-2.05.5.5 0 0 1 .58.404Z"/><path d="M27.5 11.25a3 3 0 1 1-6 0 3 3 0 0 1 6 0Z"/></svg>