<svg xmlns="http://www.w3.org/2000/svg" width="32" height="32" viewBox="0 0 32 32"><path d="M5 7a4.75 4.75 0 0 1 4.75-4.75h8a4.732 4.732 0 0 1 3.142 1.188.75.75 0 1 1-.992 1.124 3.232 3.232 0 0 0-2.15-.812h-8A3.25 3.25 0 0 0 6.5 7v18a3.25 3.25 0 0 0 3.25 3.25h8c.825 0 1.576-.306 2.15-.812a.75.75 0 1 1 .992 1.124 4.735 4.735 0 0 1-3.142 1.188h-8A4.75 4.75 0 0 1 5 25V7Z"/><path d="M18.701 8.014a.75.75 0 0 1-.589.882 7.473 7.473 0 0 0-3.494 1.728 7.198 7.198 0 0 0-2.395 4.588 7.132 7.132 0 0 0 1.322 4.983.75.75 0 0 1 .11.66 4.86 4.86 0 0 1-1.567 2.337 4.497 4.497 0 0 0 3.22-.717.749.749 0 0 1 .459-.157h.002c.136 0 .265.037.377.102a7.557 7.557 0 0 0 5.206.622 7.414 7.414 0 0 0 4.342-2.931 7.172 7.172 0 0 0 1.114-2.471.75.75 0 0 1 1.46.346 8.672 8.672 0 0 1-1.348 2.988 8.914 8.914 0 0 1-5.218 3.527 9.061 9.061 0 0 1-5.885-.574 5.993 5.993 0 0 1-5.169.424 1.088 1.088 0 0 1-.64-.863 1.078 1.078 0 0 1 .527-1.057 3.452 3.452 0 0 0 1.05-.845c.214-.255.388-.54.517-.842a8.625 8.625 0 0 1-1.37-5.699A8.698 8.698 0 0 1 13.624 9.5a8.973 8.973 0 0 1 4.195-2.076.75.75 0 0 1 .882.59Z"/><path d="M28 11.25a3.5 3.5 0 1 1-7 0 3.5 3.5 0 0 1 7 0Z"/></svg>