<svg xmlns="http://www.w3.org/2000/svg" width="32" height="32" viewBox="0 0 32 32"><path d="M9.75 2.5A4.5 4.5 0 0 0 5.25 7v18a4.5 4.5 0 0 0 4.5 4.5h8c1.14 0 2.184-.425 2.977-1.125a.5.5 0 0 0-.662-.75 3.49 3.49 0 0 1-2.315.875h-8a3.5 3.5 0 0 1-3.5-3.5V7a3.5 3.5 0 0 1 3.5-3.5h8a3.48 3.48 0 0 1 2.315.875.5.5 0 1 0 .662-.75A4.482 4.482 0 0 0 17.75 2.5zm3.747 21.954a5.74 5.74 0 0 1-2.748-.332.84.84 0 0 1-.493-.663.83.83 0 0 1 .395-.806 3.7 3.7 0 0 0 1.127-.906c.259-.31.463-.659.605-1.032a8.38 8.38 0 0 1-1.403-5.642 8.45 8.45 0 0 1 2.81-5.385A8.75 8.75 0 0 1 19.527 7.5a8.76 8.76 0 0 1 5.77 2.107 8.45 8.45 0 0 1 2.886 5.345 8.38 8.38 0 0 1-1.468 5.878 8.66 8.66 0 0 1-5.073 3.427 8.8 8.8 0 0 1-5.841-.613 5.7 5.7 0 0 1-2.305.81M19.535 8.5a7.75 7.75 0 0 0-5.083 1.936 7.45 7.45 0 0 0-2.478 4.748 7.38 7.38 0 0 0 1.37 5.158.5.5 0 0 1 .072.44 4.6 4.6 0 0 1-.87 1.606c-.302.36-.657.674-1.052.93a4.75 4.75 0 0 0 1.88.144 4.7 4.7 0 0 0 2.081-.785.5.5 0 0 1 .312-.109h.002q.14.001.256.07a7.8 7.8 0 0 0 5.386.647 7.67 7.67 0 0 0 4.487-3.03 7.38 7.38 0 0 0 1.294-5.177 7.45 7.45 0 0 0-2.547-4.713 7.76 7.76 0 0 0-5.11-1.865"/></svg>