<svg xmlns="http://www.w3.org/2000/svg" width="32" height="32" viewBox="0 0 32 32"><path d="M9.75 2.25A4.75 4.75 0 0 0 5 7v18a4.75 4.75 0 0 0 4.75 4.75h8a4.74 4.74 0 0 0 3.142-1.188.75.75 0 1 0-.992-1.124 3.24 3.24 0 0 1-2.15.812h-8A3.25 3.25 0 0 1 6.5 25V7a3.25 3.25 0 0 1 3.25-3.25h8a3.23 3.23 0 0 1 2.15.812.75.75 0 1 0 .992-1.124A4.732 4.732 0 0 0 17.75 2.25zM21.702 24.5a8.9 8.9 0 0 0 5.218-3.526 8.63 8.63 0 0 0 1.512-6.053 8.7 8.7 0 0 0-2.972-5.503 9 9 0 0 0-5.934-2.168 9 9 0 0 0-5.902 2.25 8.7 8.7 0 0 0-2.892 5.545 8.63 8.63 0 0 0 1.37 5.699 3.4 3.4 0 0 1-.516.842c-.29.346-.646.634-1.05.845a1 1 0 0 0-.105.067 1.08 1.08 0 0 0-.423.99 1.08 1.08 0 0 0 .68.879 6 6 0 0 0 5.129-.44 9.06 9.06 0 0 0 5.885.574m5.242-9.39a7.13 7.13 0 0 1-1.25 5 7.42 7.42 0 0 1-4.342 2.932 7.56 7.56 0 0 1-5.206-.622.75.75 0 0 0-.377-.102h-.002a.75.75 0 0 0-.46.157 4.46 4.46 0 0 1-1.963.739 4.5 4.5 0 0 1-1.256-.021 4.86 4.86 0 0 0 1.568-2.337.75.75 0 0 0-.11-.66 7.13 7.13 0 0 1-1.323-4.984 7.2 7.2 0 0 1 2.395-4.588 7.5 7.5 0 0 1 4.918-1.874c1.821-.013 3.581.63 4.946 1.805a7.2 7.2 0 0 1 2.462 4.554"/></svg>