<svg xmlns="http://www.w3.org/2000/svg" width="32" height="32" viewBox="0 0 32 32"><path d="M4.703 7.202a3.25 3.25 0 0 1 2.298-.952h18a3.25 3.25 0 0 1 3.25 3.25v10a3.25 3.25 0 0 1-3.25 3.25H11.616c-.357-.005-.674.145-.893.273-.24.139-.475.32-.686.494a22 22 0 0 0-.614.529 7 7 0 0 1-.512.415c-1.504 1.14-3.239 1.388-4.362 1.25a3 3 0 0 1-.424-.077 6 6 0 0 0 1.854-2.101.75.75 0 0 0 .087-.352v-.057a.75.75 0 0 0-.426-.676l-.048-.024a3.25 3.25 0 0 1-1.84-2.924v-10c0-.862.342-1.689.951-2.298M7.001 4.75a4.75 4.75 0 0 0-4.75 4.75v10a4.75 4.75 0 0 0 2.043 3.9 4.5 4.5 0 0 1-1.257 1.156c-.282.158-.592.403-.725.78-.161.456.012.864.25 1.126.218.238.514.396.798.503.295.111.638.19 1.007.235 1.458.178 3.59-.14 5.44-1.536.2-.142.408-.319.6-.485l.163-.143q.215-.19.422-.362a4 4 0 0 1 .486-.355c.084-.05.129-.065.141-.069h13.382a4.75 4.75 0 0 0 4.75-4.75v-10a4.75 4.75 0 0 0-4.75-4.75zM19 9.75a.75.75 0 0 0 0 1.5h1.6c.883 0 1.65.754 1.65 1.75s-.767 1.75-1.65 1.75h-9.79l2.72-2.72a.75.75 0 0 0-1.06-1.06l-4 4a.75.75 0 0 0 0 1.06l4 4a.75.75 0 0 0 1.06-1.06l-2.72-2.72h9.79c1.768 0 3.15-1.484 3.15-3.25s-1.382-3.25-3.15-3.25z"/></svg>