<svg xmlns="http://www.w3.org/2000/svg" width="32" height="32" viewBox="0 0 32 32"><path d="M9.75 2a5 5 0 0 0-5 5v18a5 5 0 0 0 5 5h8a4.99 4.99 0 0 0 3.308-1.25 1 1 0 0 0-1.324-1.5c-.53.468-1.223.75-1.984.75h-8a3 3 0 0 1-3-3V7a3 3 0 0 1 3-3h8a2.98 2.98 0 0 1 1.984.75 1 1 0 0 0 1.324-1.5A4.981 4.981 0 0 0 17.75 2zm12.01 22.744a9.3 9.3 0 0 1-5.93-.537 6.244 6.244 0 0 1-5.283.372 1.34 1.34 0 0 1-.788-1.061 1.33 1.33 0 0 1 .66-1.308c.376-.197.707-.463.975-.784q.255-.306.424-.66a8.87 8.87 0 0 1-1.335-5.749 8.95 8.95 0 0 1 2.975-5.704A9.25 9.25 0 0 1 19.524 7a9.26 9.26 0 0 1 6.1 2.228 8.95 8.95 0 0 1 3.056 5.662 8.88 8.88 0 0 1-1.555 6.228 9.16 9.16 0 0 1-5.365 3.626m4.936-9.603a6.95 6.95 0 0 0-2.377-4.397A7.26 7.26 0 0 0 19.54 9a7.25 7.25 0 0 0-4.756 1.81 6.95 6.95 0 0 0-2.312 4.43 6.88 6.88 0 0 0 1.277 4.809 1 1 0 0 1 .147.88 5.1 5.1 0 0 1-1.226 2.067q.323.009.644-.03a4.2 4.2 0 0 0 1.848-.694c.17-.129.38-.204.606-.204h.002c.178 0 .349.047.497.132a7.3 7.3 0 0 0 5.028.599 7.16 7.16 0 0 0 4.195-2.832 6.88 6.88 0 0 0 1.207-4.826"/></svg>