<svg xmlns="http://www.w3.org/2000/svg" width="32" height="32" viewBox="0 0 32 32"><path d="M4.527 7.025A3.5 3.5 0 0 1 7.002 6h18a3.5 3.5 0 0 1 3.5 3.5v10a3.5 3.5 0 0 1-3.5 3.5H11.614c-.288-.005-.557.117-.765.238-.222.13-.445.3-.652.472-.155.127-.312.265-.46.395l-.004.003-.146.127a7 7 0 0 1-.512.416l-.013.01C7.5 25.842 5.698 26.103 4.519 25.96a3.2 3.2 0 0 1-.718-.165 1.3 1.3 0 0 1-.223-.106 1 1 0 0 1 .1-.06 5.77 5.77 0 0 0 2.08-2.214.5.5 0 0 0 .058-.234v-.057a.5.5 0 0 0-.283-.45l-.05-.024a3.5 3.5 0 0 1-1.981-3.15v-10a3.5 3.5 0 0 1 1.025-2.475M7.002 5a4.5 4.5 0 0 0-4.5 4.5v10a4.5 4.5 0 0 0 2.145 3.83 4.8 4.8 0 0 1-1.483 1.441c-.262.146-.512.353-.616.648-.123.347.005.661.2.874.18.198.435.338.7.438.273.103.596.178.95.221 1.402.172 3.468-.135 5.26-1.49.19-.134.392-.305.585-.472l.16-.14a20 20 0 0 1 .43-.37c.195-.16.369-.29.519-.377q.111-.065.18-.087C11.58 24 11.6 24 11.598 24h13.404a4.5 4.5 0 0 0 4.5-4.5v-10a4.5 4.5 0 0 0-4.5-4.5zM19 10a.5.5 0 0 0 0 1h1.6c1.03 0 1.9.876 1.9 2s-.87 2-1.9 2H10.207l3.147-3.146a.5.5 0 0 0-.707-.708l-4 4a.5.5 0 0 0 0 .708l4 4a.5.5 0 0 0 .707-.708L10.207 16H20.6c1.62 0 2.9-1.363 2.9-3s-1.28-3-2.9-3z"/></svg>