<svg xmlns="http://www.w3.org/2000/svg" width="32" height="32" viewBox="0 0 32 32"><path d="M5.25 7a4.5 4.5 0 0 1 4.5-4.5h8a4.48 4.48 0 0 1 2.977 1.125.5.5 0 0 1-.662.75A3.482 3.482 0 0 0 17.75 3.5h-8A3.5 3.5 0 0 0 6.25 7v18a3.5 3.5 0 0 0 3.5 3.5h8c.888 0 1.698-.33 2.315-.875a.5.5 0 0 1 .662.75A4.49 4.49 0 0 1 17.75 29.5h-8a4.5 4.5 0 0 1-4.5-4.5zM18.612 8.042a.5.5 0 0 1-.404.58 7.73 7.73 0 0 0-3.756 1.814 7.45 7.45 0 0 0-2.478 4.748 7.38 7.38 0 0 0 1.37 5.158.5.5 0 0 1 .072.44 4.6 4.6 0 0 1-.871 1.606c-.301.36-.656.674-1.05.93a4.75 4.75 0 0 0 3.96-.641.5.5 0 0 1 .312-.109h.002q.14.001.256.07a7.8 7.8 0 0 0 5.386.647 7.67 7.67 0 0 0 4.487-3.03 7.4 7.4 0 0 0 1.193-2.736.5.5 0 0 1 .979.207 8.4 8.4 0 0 1-1.354 3.104 8.66 8.66 0 0 1-5.073 3.427 8.8 8.8 0 0 1-5.841-.613 5.744 5.744 0 0 1-5.053.478.84.84 0 0 1-.493-.663.83.83 0 0 1 .395-.806 3.7 3.7 0 0 0 1.127-.906c.259-.31.463-.659.605-1.032a8.38 8.38 0 0 1-1.403-5.642 8.45 8.45 0 0 1 2.81-5.385 8.73 8.73 0 0 1 4.242-2.05.5.5 0 0 1 .58.404M27.5 11.25a3 3 0 1 1-6 0 3 3 0 0 1 6 0"/></svg>