<svg xmlns="http://www.w3.org/2000/svg" width="32" height="32" viewBox="0 0 32 32"><path d="M9.75 2h8a5 5 0 0 1 4.488 2.794 11.69 11.69 0 0 0-10.384 2.66 11.46 11.46 0 0 0-3.776 7.29 11.4 11.4 0 0 0 1.248 6.574 2.2 2.2 0 0 1-.592.452 2.5 2.5 0 0 0-.35.223 2.88 2.88 0 0 0-1.114 2.626 2.87 2.87 0 0 0 1.82 2.342 8.32 8.32 0 0 0 6.399-.216c2.145.81 4.495.975 6.75.461A5 5 0 0 1 17.75 30h-8a5 5 0 0 1-5-5V7a5 5 0 0 1 5-5m5.608 21.952zh-.002zm-2.606 1a5.8 5.8 0 0 0 2.606-1 9.23 9.23 0 0 0 6.437.79 9.12 9.12 0 0 0 5.342-3.632 8.9 8.9 0 0 0 1.544-6.218 8.97 8.97 0 0 0-3.037-5.657A9.2 9.2 0 0 0 19.564 7a9.2 9.2 0 0 0-6.047 2.32 8.91 8.91 0 0 0-1.321 11.895 4.6 4.6 0 0 1-.869 1.61c-.394.476-.88.87-1.429 1.158a.38.38 0 0 0-.145.341.37.37 0 0 0 .221.298 5.8 5.8 0 0 0 2.778.33"/></svg>