<svg xmlns="http://www.w3.org/2000/svg" width="32" height="32" viewBox="0 0 32 32"><path d="M5 7a4.75 4.75 0 0 1 4.75-4.75h8a4.73 4.73 0 0 1 3.142 1.188.75.75 0 1 1-.992 1.124 3.232 3.232 0 0 0-2.15-.812h-8A3.25 3.25 0 0 0 6.5 7v18a3.25 3.25 0 0 0 3.25 3.25h8c.825 0 1.576-.306 2.15-.812a.75.75 0 1 1 .992 1.124 4.74 4.74 0 0 1-3.142 1.188h-8A4.75 4.75 0 0 1 5 25zM18.701 8.014a.75.75 0 0 1-.589.882 7.5 7.5 0 0 0-3.494 1.728 7.2 7.2 0 0 0-2.395 4.588 7.13 7.13 0 0 0 1.322 4.983.75.75 0 0 1 .11.66 4.86 4.86 0 0 1-1.567 2.337 4.5 4.5 0 0 0 3.22-.717.75.75 0 0 1 .459-.157h.002c.136 0 .265.037.377.102a7.56 7.56 0 0 0 5.206.622 7.4 7.4 0 0 0 4.342-2.931 7.2 7.2 0 0 0 1.114-2.471.75.75 0 0 1 1.46.346 8.7 8.7 0 0 1-1.348 2.988 8.9 8.9 0 0 1-5.218 3.527 9.06 9.06 0 0 1-5.885-.574 5.993 5.993 0 0 1-5.169.424 1.09 1.09 0 0 1-.64-.863 1.08 1.08 0 0 1 .527-1.057 3.5 3.5 0 0 0 1.05-.845c.214-.255.388-.54.517-.842a8.63 8.63 0 0 1-1.37-5.699A8.7 8.7 0 0 1 13.624 9.5a9 9 0 0 1 4.195-2.076.75.75 0 0 1 .882.59M28 11.25a3.5 3.5 0 1 1-7 0 3.5 3.5 0 0 1 7 0"/></svg>