<svg xmlns="http://www.w3.org/2000/svg" width="32" height="32" viewBox="0 0 32 32"><path d="M4.75 7a5 5 0 0 1 5-5h8a4.98 4.98 0 0 1 3.308 1.25 1 1 0 0 1-1.324 1.5A2.982 2.982 0 0 0 17.75 4h-8a3 3 0 0 0-3 3v18a3 3 0 0 0 3 3h8c.762 0 1.455-.282 1.984-.75a1 1 0 1 1 1.324 1.5A4.99 4.99 0 0 1 17.75 30h-8a5 5 0 0 1-5-5zM18.8 7.977a1 1 0 0 1-.765 1.19 7.2 7.2 0 0 0-3.252 1.644 6.95 6.95 0 0 0-2.312 4.428 6.88 6.88 0 0 0 1.277 4.81 1 1 0 0 1 .147.88 5.1 5.1 0 0 1-1.226 2.067 4.24 4.24 0 0 0 2.492-.724c.17-.13.38-.204.606-.204h.002c.178 0 .349.047.497.132a7.3 7.3 0 0 0 5.028.599 7.17 7.17 0 0 0 4.195-2.832 6.9 6.9 0 0 0 1.044-2.258 1 1 0 1 1 1.937.498 8.9 8.9 0 0 1-1.345 2.91 9.16 9.16 0 0 1-5.365 3.627 9.3 9.3 0 0 1-5.93-.537 6.242 6.242 0 0 1-5.283.372 1.34 1.34 0 0 1-.788-1.061 1.33 1.33 0 0 1 .66-1.308c.376-.197.707-.463.975-.784q.255-.306.424-.66a8.88 8.88 0 0 1-1.335-5.749 8.95 8.95 0 0 1 2.975-5.704 9.2 9.2 0 0 1 4.152-2.1 1 1 0 0 1 1.19.764M28.5 11.25a4 4 0 1 1-8 0 4 4 0 0 1 8 0"/></svg>