<svg xmlns="http://www.w3.org/2000/svg" width="32" height="32" viewBox="0 0 32 32"><path d="M4.88 7.379A3 3 0 0 1 7.001 6.5h18a3 3 0 0 1 3 3v10a3 3 0 0 1-3 3H11.618c-.425-.006-.79.172-1.02.306-.258.15-.506.341-.72.518-.16.133-.326.278-.476.409l-.142.124a7 7 0 0 1-.5.405C7.38 25.306 5.8 25.57 4.732 25.479a6.3 6.3 0 0 0 1.468-1.83 1 1 0 0 0 .116-.468v-.057a1 1 0 0 0-.567-.902L5.7 22.2h-.001A3 3 0 0 1 4 19.499V9.5a3 3 0 0 1 .88-2.121m-1.044 18.74.009-.007zM7 4.5a5 5 0 0 0-5 5v10.001a5 5 0 0 0 1.937 3.947c-.291.35-.638.65-1.028.892-.303.171-.672.454-.834.913-.2.565.019 1.067.302 1.377.254.28.592.455.893.569.318.12.682.202 1.066.25 1.513.184 3.71-.145 5.617-1.583.21-.15.426-.333.617-.499l.166-.145c.143-.125.278-.243.415-.356q.28-.232.452-.331l.065-.035H25a5 5 0 0 0 5-5v-10a5 5 0 0 0-5-5zM19 9.5a1 1 0 1 0 0 2h1.6c.735 0 1.4.633 1.4 1.5s-.665 1.5-1.4 1.5h-9.186l2.293-2.293a1 1 0 0 0-1.414-1.414l-4 4a1 1 0 0 0 0 1.414l4 4a1 1 0 0 0 1.414-1.414L11.414 16.5H20.6c1.916 0 3.4-1.606 3.4-3.5s-1.484-3.5-3.4-3.5z"/></svg>