<svg xmlns="http://www.w3.org/2000/svg" width="32" height="33" fill="none" viewBox="0 0 32 33"><path fill-rule="evenodd" d="M30 16.154c0 7.732-6.268 14-14 14s-14-6.268-14-14 6.268-14 14-14 14 6.268 14 14Zm-13.498-3.665c-1.362.567-4.083 1.739-8.165 3.517-.663.264-1.01.521-1.041.773-.054.427.48.594 1.206.823.1.03.202.063.307.097.714.233 1.676.504 2.176.515.453.01.96-.177 1.518-.56 3.813-2.575 5.782-3.876 5.905-3.904.087-.02.208-.044.29.028.082.073.074.21.065.248-.053.225-2.147 2.172-3.23 3.18a38.66 38.66 0 0 0-.627.588c-.11.114-.222.222-.33.325-.663.64-1.161 1.12.028 1.904.572.377 1.03.689 1.486 1 .498.339.995.678 1.639 1.1.163.107.32.218.472.327.58.413 1.101.785 1.745.726.374-.035.76-.387.957-1.436.464-2.48 1.376-7.851 1.586-10.065a2.464 2.464 0 0 0-.023-.551.59.59 0 0 0-.2-.38c-.167-.135-.426-.164-.542-.162-.526.01-1.334.29-5.222 1.907Z" clip-rule="evenodd"/></svg>