<svg xmlns="http://www.w3.org/2000/svg" width="32" height="32" fill="none" viewBox="0 0 32 32"><path fill="#0F0F0F" d="M29 16c0 7.183-5.817 13-13 13-7.182 0-13-5.817-13-13C3 8.818 8.818 3 16 3c7.183 0 13 5.818 13 13Zm-15.379 6.858c5.766 0 8.918-4.778 8.918-8.918 0-.137 0-.274-.007-.403A6.421 6.421 0 0 0 24.1 11.91a6.362 6.362 0 0 1-1.8.495 3.133 3.133 0 0 0 1.378-1.736 6.347 6.347 0 0 1-1.99.76 3.135 3.135 0 0 0-5.337 2.86 8.892 8.892 0 0 1-6.46-3.275 3.144 3.144 0 0 0-.423 1.572 3.12 3.12 0 0 0 1.398 2.607 3.079 3.079 0 0 1-1.417-.39v.039a3.138 3.138 0 0 0 2.515 3.075 3.125 3.125 0 0 1-1.416.052 3.13 3.13 0 0 0 2.925 2.177 6.3 6.3 0 0 1-4.641 1.294 8.733 8.733 0 0 0 4.79 1.417Z"/></svg>