<svg xmlns="http://www.w3.org/2000/svg" width="32" height="32" fill="none" viewBox="0 0 32 32"><path fill="#fff" d="M24.712 6.15c-.576-.534-3.062-2.13-8.25-2.153 0 0-6.142-.412-9.123 2.347-1.66 1.673-2.22 4.162-2.282 7.2-.062 3.037-.379 8.838 5.06 10.381 0 0-.02 4.307-.023 4.686 0 .265.04.446.189.483.107.027.266-.03.402-.168.87-.892 3.654-4.323 3.654-4.323 3.736.25 6.708-.504 7.028-.61.752-.247 4.826-.606 5.518-6.296.717-5.868-.26-9.873-2.173-11.547"/><path fill="#7360F2" d="M26.065 4.731c-.68-.642-3.434-2.683-9.566-2.71 0 0-7.232-.446-10.757 2.856-1.963 2.005-2.653 4.938-2.726 8.575s-.167 10.452 6.265 12.3h.007l-.004 2.82s-.042 1.141.694 1.374c.89.282 1.413-.586 2.263-1.52a74 74 0 0 0 1.596-1.845c4.4.378 7.783-.486 8.167-.614.888-.294 5.914-.952 6.732-7.766.843-7.024-.408-11.467-2.67-13.47m.746 12.966c-.69 5.69-4.767 6.047-5.518 6.294-.32.105-3.291.86-7.028.61 0 0-2.785 3.431-3.654 4.323-.136.14-.296.196-.402.168-.15-.037-.191-.218-.19-.483.003-.378.024-4.686.024-4.686-5.44-1.542-5.124-7.343-5.062-10.38s.62-5.526 2.28-7.2c2.982-2.758 9.125-2.346 9.125-2.346 5.187.023 7.673 1.619 8.249 2.153 1.914 1.674 2.889 5.678 2.176 11.545z"/><path fill="#7360F2" d="M19.023 13.647a.34.34 0 0 1-.238-.098.36.36 0 0 1-.108-.238c-.059-1.202-.613-1.791-1.745-1.853a.34.34 0 0 1-.233-.12.36.36 0 0 1 .026-.494.34.34 0 0 1 .245-.093c1.493.084 2.323.955 2.4 2.524a.36.36 0 0 1-.09.256.35.35 0 0 1-.24.116z"/><path fill="#7360F2" d="M20.802 14.257h-.008a.34.34 0 0 1-.242-.11.36.36 0 0 1-.096-.252c.026-1.21-.312-2.191-1.035-2.997-.724-.806-1.709-1.243-3.023-1.341a.35.35 0 0 1-.237-.122.36.36 0 0 1 .036-.5.34.34 0 0 1 .252-.086c1.478.11 2.65.639 3.483 1.57.833.93 1.247 2.108 1.217 3.49a.36.36 0 0 1-.104.246.34.34 0 0 1-.243.102"/><path fill="#7360F2" d="M22.624 14.983a.34.34 0 0 1-.244-.103.36.36 0 0 1-.103-.248c-.016-2.165-.626-3.82-1.866-5.055-1.226-1.219-2.773-1.844-4.601-1.858a.34.34 0 0 1-.245-.104.36.36 0 0 1 .002-.501.34.34 0 0 1 .245-.103h.003c2.013.015 3.722.708 5.08 2.059s2.058 3.224 2.076 5.557a.36.36 0 0 1-.1.252.34.34 0 0 1-.244.105zM17.02 18.037s.487.042.75-.288l.511-.658c.247-.326.843-.534 1.426-.202q.656.383 1.272.83c.387.29 1.18.966 1.182.966.378.326.465.804.208 1.308l-.002.01a5.4 5.4 0 0 1-1.065 1.34l-.01.008q-.55.469-1.082.534a1.413 1.413 0 0 1-.618-.062l-.01-.018c-.546-.157-1.457-.55-2.974-1.405a17.7 17.7 0 0 1-2.498-1.685 13 13 0 0 1-1.124-1.018l-.113-.116-.038-.038a13 13 0 0 1-.997-1.148 18 18 0 0 1-1.65-2.55c-.836-1.55-1.221-2.48-1.375-3.038l-.017-.011a1.5 1.5 0 0 1-.07-.47.7.7 0 0 1 .009-.162q.066-.541.524-1.105c.002-.005.005-.005.007-.01.378-.431.82-.798 1.312-1.087l.01-.003c.494-.262.962-.173 1.28.21.003.003.663.813.946 1.208q.438.63.813 1.3c.324.595.12 1.205-.198 1.456l-.644.523c-.325.268-.283.766-.283.766s.954 3.686 4.517 4.615"/></svg>