<svg xmlns="http://www.w3.org/2000/svg" width="33" height="33" fill="none" viewBox="0 0 33 33"><path fill="#0F0F0F" d="M30.71 16.77c0 7.732-6.267 14-14 14-7.731 0-14-6.268-14-14s6.269-14 14-14c7.733 0 14 6.268 14 14m-13.497-3.665q-2.043.851-8.165 3.517-.994.396-1.041.774c-.054.426.48.593 1.206.822l.307.097c.714.233 1.676.505 2.176.515q.68.015 1.518-.56 5.72-3.861 5.905-3.904c.087-.02.208-.044.29.029.082.072.074.21.065.247-.053.225-2.147 2.172-3.23 3.18-.339.314-.578.537-.627.588q-.167.17-.33.325c-.664.64-1.162 1.12.028 1.905.572.376 1.03.688 1.486.999.498.34.995.678 1.639 1.1q.244.162.472.327c.58.414 1.102.785 1.745.726.374-.035.76-.386.957-1.436.464-2.479 1.375-7.851 1.586-10.065a2.5 2.5 0 0 0-.023-.551.6.6 0 0 0-.2-.38c-.167-.135-.426-.164-.542-.162-.526.01-1.334.29-5.222 1.907"/></svg>