<svg xmlns="http://www.w3.org/2000/svg" width="33" height="33" fill="none" viewBox="0 0 33 33"><path fill="url(#a)" fill-rule="evenodd" d="M2.172 13.203c0 2.53 1.376 4.841 3.503 6.372q.281.187.281.562c0 .062-.03.156-.03.218-.157.625-.439 1.656-.47 1.687-.031.094-.063.156-.063.25 0 .187.157.343.344.343.063 0 .126-.03.188-.062l2.22-1.28c.157-.094.345-.157.532-.157.094 0 .22 0 .313.032 1.032.312 2.158.468 3.316.468 5.598 0 10.133-3.78 10.133-8.433S17.904 4.77 12.306 4.77c-5.599 0-10.134 3.78-10.134 8.433" clip-rule="evenodd"/><path fill="url(#b)" fill-rule="evenodd" d="M21.748 26.599c.967 0 1.903-.126 2.745-.378.063-.031.156-.031.25-.031.156 0 .312.063.437.126l1.84 1.07c.063.031.094.063.157.063a.28.28 0 0 0 .28-.284c0-.063-.03-.125-.03-.22 0-.031-.25-.881-.375-1.416-.032-.063-.032-.126-.032-.189 0-.189.094-.346.25-.472 1.779-1.29 2.902-3.21 2.902-5.35 0-3.901-3.776-7.08-8.425-7.08s-8.424 3.147-8.424 7.08c0 3.903 3.775 7.08 8.424 7.08" clip-rule="evenodd"/><path fill="#168743" fill-rule="evenodd" d="M10.23 10.48c0 .729-.575 1.306-1.302 1.306a1.294 1.294 0 0 1-1.303-1.306c0-.728.576-1.305 1.303-1.305s1.302.577 1.302 1.305M16.986 10.48c0 .729-.576 1.306-1.303 1.306a1.294 1.294 0 0 1-1.302-1.306c0-.728.576-1.305 1.303-1.305.726 0 1.302.577 1.302 1.305" clip-rule="evenodd"/><path fill="#919191" fill-rule="evenodd" d="M23.498 17.333c0 .634.506 1.142 1.139 1.142s1.14-.508 1.14-1.142c0-.635-.507-1.142-1.14-1.142s-1.14.507-1.14 1.142M17.881 17.333c0 .634.507 1.142 1.14 1.142s1.14-.508 1.14-1.142c0-.635-.507-1.142-1.14-1.142s-1.14.507-1.14 1.142" clip-rule="evenodd"/><defs><linearGradient id="a" x1="29.307" x2="29.307" y1="26.122" y2="4.869" gradientUnits="userSpaceOnUse"><stop stop-color="#05CD66"/><stop offset="1" stop-color="#61F380"/><stop offset="1" stop-color="#9EEE69"/></linearGradient><linearGradient id="b" x1="29.297" x2="29.297" y1="25.982" y2="4.762" gradientUnits="userSpaceOnUse"><stop stop-color="#E4E6E6"/><stop offset="1" stop-color="#F0F0F0"/></linearGradient></defs></svg>