<svg xmlns="http://www.w3.org/2000/svg" width="33" height="32" fill="none" viewBox="0 0 33 32"><path d="M30.247 16c0 7.732-6.268 14-14 14s-14-6.268-14-14 6.268-14 14-14 14 6.268 14 14m-13.498-3.665q-2.043.851-8.165 3.517-.994.396-1.042.774c-.053.426.48.593 1.207.822l.306.097c.715.233 1.677.505 2.177.515q.68.015 1.518-.56 5.72-3.862 5.905-3.904c.087-.02.208-.044.29.028.082.073.074.211.065.248-.053.225-2.147 2.172-3.23 3.18-.339.314-.578.537-.627.588q-.166.17-.33.325c-.664.64-1.162 1.12.028 1.905.572.376 1.03.688 1.486.999.498.34.995.678 1.638 1.1q.245.162.473.327c.58.413 1.101.785 1.745.726.374-.035.76-.386.957-1.436.464-2.479 1.375-7.851 1.586-10.065a2.5 2.5 0 0 0-.023-.551.6.6 0 0 0-.2-.38c-.167-.135-.426-.164-.542-.162-.527.01-1.335.29-5.222 1.907"/></svg>