<svg xmlns="http://www.w3.org/2000/svg" width="31" height="33" fill="none" viewBox="0 0 31 33"><path d="M24.29 5.69c-.628-.596-3.17-2.492-8.83-2.518 0 0-6.675-.413-9.93 2.654-1.81 1.861-2.448 4.585-2.515 7.962-.067 3.377-.154 9.705 5.783 11.42h.006l-.004 2.62s-.038 1.06.641 1.276c.686.218 1.136-.307 1.722-.991.116-.136.237-.278.367-.421a68.325 68.325 0 0 0 1.474-1.713c4.06.351 7.183-.451 7.538-.57.073-.024.177-.051.305-.085 1.312-.343 5.222-1.364 5.909-7.127.779-6.522-.377-10.648-2.465-12.507Zm.689 12.04c-.573 4.757-3.681 5.5-4.801 5.768-.124.03-.224.053-.293.076-.295.097-3.038.798-6.487.567 0 0-2.57 3.186-3.373 4.014-.125.13-.273.182-.37.156-.14-.035-.177-.203-.176-.449.003-.35.022-4.35.022-4.35-4.856-1.386-4.743-6.468-4.679-9.352l.007-.288c.057-2.82.572-5.131 2.104-6.685 2.753-2.562 8.423-2.179 8.423-2.179 4.788.022 7.083 1.503 7.615 2 1.766 1.553 2.666 5.272 2.008 10.72v.002Zm-7.188-3.761a.315.315 0 0 1-.22-.09.332.332 0 0 1-.1-.222c-.054-1.117-.566-1.663-1.61-1.72a.317.317 0 0 1-.216-.112.335.335 0 0 1 .024-.459.315.315 0 0 1 .226-.086c1.378.078 2.145.886 2.215 2.344a.338.338 0 0 1-.082.237.321.321 0 0 1-.221.108h-.016Zm1.634.566h.008a.316.316 0 0 0 .224-.094.333.333 0 0 0 .096-.228c.028-1.284-.355-2.378-1.124-3.242-.769-.864-1.85-1.354-3.215-1.457a.315.315 0 0 0-.233.08.333.333 0 0 0 .187.577c1.212.091 2.122.497 2.79 1.245.667.749.98 1.659.955 2.783a.334.334 0 0 0 .088.235c.059.063.14.1.224.101Zm1.69.675a.316.316 0 0 1-.226-.096.334.334 0 0 1-.095-.23c-.015-2.011-.578-3.547-1.723-4.695-1.13-1.131-2.56-1.712-4.247-1.724a.313.313 0 0 1-.226-.097.334.334 0 0 1 .002-.466.316.316 0 0 1 .227-.095h.002c1.858.014 3.436.657 4.69 1.912 1.253 1.255 1.9 2.994 1.916 5.16a.334.334 0 0 1-.092.234.316.316 0 0 1-.226.098l-.003-.001Zm-4.482 2.568c-.242.307-.692.268-.692.268-3.29-.863-4.17-4.286-4.17-4.286s-.04-.462.261-.711l.594-.486c.295-.233.483-.799.183-1.352a14.37 14.37 0 0 0-.75-1.207 32.69 32.69 0 0 0-.873-1.121c-.294-.357-.726-.44-1.182-.195H10l-.004.002c-.454.268-.862.61-1.211 1.01l-.004.004c0 .002-.002.003-.003.005-.281.349-.443.69-.483 1.026a.676.676 0 0 0-.01.15 1.4 1.4 0 0 0 .066.436l.015.011c.142.518.498 1.381 1.27 2.82.442.833.952 1.625 1.524 2.369a12.322 12.322 0 0 0 .954 1.101l.105.108c.328.335.674.65 1.037.945a16.316 16.316 0 0 0 2.306 1.565c1.4.794 2.24 1.159 2.744 1.305l.011.016a1.295 1.295 0 0 0 .57.057c.327-.04.66-.205.999-.495l.004-.004a5.038 5.038 0 0 0 .989-1.252v-.005c.238-.468.157-.912-.191-1.215l-.077-.065c-.198-.167-.727-.615-1.014-.832-.379-.277-.77-.534-1.174-.77-.539-.308-1.089-.115-1.317.187l-.472.611Z"/></svg>