<svg xmlns="http://www.w3.org/2000/svg" width="32" height="32" fill="none" viewBox="0 0 32 32"><path d="M16 2C8.113 2 2 7.777 2 15.58c0 4.082 1.673 7.61 4.397 10.045a1.12 1.12 0 0 1 .376.799l.076 2.49a1.12 1.12 0 0 0 1.572.99l2.779-1.226c.235-.104.5-.123.747-.055 1.321.36 2.684.541 4.053.538 7.887 0 14-5.777 14-13.58C30 7.777 23.887 2 16 2m8.407 10.449-4.113 6.525a2.1 2.1 0 0 1-3.036.56l-3.271-2.453a.84.84 0 0 0-1.012.003l-4.417 3.352c-.59.448-1.36-.258-.965-.884l4.113-6.525a2.1 2.1 0 0 1 3.036-.56l3.27 2.453a.84.84 0 0 0 1.013-.003l4.417-3.352c.59-.448 1.36.258.965.884"/></svg>