<svg xmlns="http://www.w3.org/2000/svg" width="32" height="32" fill="none" viewBox="0 0 32 32"><path fill="#fff" d="M24.712 6.15c-.576-.534-3.062-2.13-8.25-2.153 0 0-6.142-.412-9.124 2.347-1.66 1.673-2.219 4.162-2.28 7.2-.063 3.037-.38 8.838 5.06 10.381l-.024 4.686c0 .265.04.446.189.483.107.027.266-.03.402-.168.87-.892 3.654-4.323 3.654-4.323 3.736.25 6.708-.504 7.028-.61.752-.247 4.826-.606 5.518-6.296.717-5.868-.26-9.873-2.173-11.547Z"/><path fill="#7360F2" d="M26.065 4.731c-.681-.642-3.434-2.683-9.567-2.71 0 0-7.231-.446-10.756 2.856-1.963 2.005-2.653 4.938-2.726 8.575-.073 3.636-.167 10.452 6.265 12.3h.006l-.004 2.82s-.04 1.141.695 1.374c.89.282 1.413-.586 2.263-1.52a73.59 73.59 0 0 0 1.596-1.845c4.4.378 7.783-.486 8.167-.614.888-.294 5.914-.952 6.732-7.766.843-7.024-.409-11.467-2.67-13.47Zm.746 12.966c-.69 5.69-4.767 6.047-5.518 6.294-.32.105-3.292.86-7.028.61 0 0-2.785 3.431-3.655 4.323-.135.14-.295.196-.401.168-.15-.037-.191-.218-.19-.483.003-.378.024-4.686.024-4.686-5.441-1.542-5.124-7.343-5.062-10.38.062-3.038.62-5.526 2.28-7.2 2.982-2.758 9.124-2.346 9.124-2.346 5.188.023 7.673 1.619 8.25 2.153 1.914 1.674 2.889 5.678 2.176 11.545v.002Z"/><path fill="#7360F2" d="M19.023 13.647a.343.343 0 0 1-.239-.098.357.357 0 0 1-.107-.238c-.059-1.202-.613-1.791-1.745-1.853a.345.345 0 0 1-.234-.12.359.359 0 0 1 .026-.494.343.343 0 0 1 .245-.093c1.494.084 2.324.955 2.4 2.524a.36.36 0 0 1-.089.256.346.346 0 0 1-.24.116h-.017Z"/><path fill="#7360F2" d="M20.802 14.257h-.008a.343.343 0 0 1-.243-.11.358.358 0 0 1-.095-.252c.026-1.21-.312-2.191-1.036-2.997-.723-.806-1.708-1.243-3.022-1.341a.345.345 0 0 1-.237-.122.36.36 0 0 1 .035-.5.343.343 0 0 1 .253-.086c1.478.11 2.65.639 3.483 1.57.833.93 1.247 2.108 1.217 3.49a.358.358 0 0 1-.104.246.343.343 0 0 1-.243.102Z"/><path fill="#7360F2" d="M22.624 14.983a.344.344 0 0 1-.244-.103.359.359 0 0 1-.103-.248c-.016-2.165-.627-3.82-1.867-5.055-1.225-1.219-2.772-1.844-4.6-1.858a.34.34 0 0 1-.245-.104.358.358 0 0 1 .002-.501.343.343 0 0 1 .245-.103h.003c2.013.015 3.722.708 5.08 2.059 1.358 1.351 2.058 3.224 2.076 5.557a.358.358 0 0 1-.1.252.344.344 0 0 1-.244.105h-.003ZM17.02 18.037s.487.042.75-.288l.51-.658c.248-.326.843-.534 1.427-.202.437.255.861.532 1.271.83.387.29 1.18.966 1.183.966.377.326.465.804.207 1.308l-.002.01a5.436 5.436 0 0 1-1.065 1.34l-.01.008c-.366.313-.727.49-1.08.534a1.413 1.413 0 0 1-.618-.062l-.012-.018c-.546-.157-1.456-.55-2.973-1.405a17.673 17.673 0 0 1-2.498-1.685 13.193 13.193 0 0 1-1.124-1.018l-.113-.116-.038-.038a13.292 13.292 0 0 1-.997-1.148 18.149 18.149 0 0 1-1.65-2.55c-.837-1.55-1.222-2.48-1.376-3.038l-.016-.011a1.5 1.5 0 0 1-.07-.47.723.723 0 0 1 .009-.162c.044-.36.218-.73.523-1.105l.008-.01c.378-.431.82-.798 1.311-1.087l.01-.003c.494-.262.963-.173 1.281.21.002.003.663.813.946 1.208.292.42.563.853.812 1.3.325.595.122 1.205-.198 1.456l-.643.523c-.325.268-.283.766-.283.766s.954 3.686 4.517 4.615Z"/></svg>