<svg xmlns="http://www.w3.org/2000/svg" width="32" height="32" fill="none" viewBox="0 0 32 32"><path fill="#16A693" d="M4.625 4h22.75C28.824 4 30 5.16 30 6.585v16.369c0 1.425-1.176 2.584-2.625 2.584H11.069l-5.007 4.106a.88.88 0 0 1-.931.12.86.86 0 0 1-.506-.78v-3.446C3.178 25.538 2 24.378 2 22.954V6.584C2 5.16 3.178 4 4.625 4m3.411 6.876c-1.851 0-2.8.785-2.8 2.016 0 1.473 1.201 1.9 2.364 2.171.998.233 1.745.427 1.745 1.144 0 .494-.359.804-1.3.804-.92 0-1.414-.455-1.52-1.066H4.982c.194 1.338 1.25 2.2 3.044 2.2 2.074 0 2.956-.998 2.956-2.122 0-1.532-1.357-2.075-2.695-2.365-.969-.213-1.415-.388-1.415-.96 0-.426.3-.707 1.124-.707.698 0 1.212.3 1.29.824h1.521c-.184-1.212-1.143-1.939-2.772-1.939m9.788 2.317V18h1.473v-6.978h-1.91l-1.831 5.446-1.89-5.446h-1.861V18h1.376v-4.798L14.858 18h1.328zm5.394-2.317c-1.851 0-2.8.785-2.8 2.016 0 1.473 1.2 1.9 2.364 2.171.998.233 1.745.427 1.745 1.144 0 .494-.359.804-1.3.804-.92 0-1.414-.455-1.52-1.066h-1.542c.194 1.338 1.25 2.2 3.043 2.2 2.075 0 2.957-.998 2.957-2.122 0-1.532-1.357-2.075-2.695-2.365-.97-.213-1.415-.388-1.415-.96 0-.426.3-.707 1.124-.707.698 0 1.212.3 1.29.824h1.521c-.184-1.212-1.144-1.939-2.772-1.939"/></svg>