<svg xmlns="http://www.w3.org/2000/svg" width="33" height="33" fill="none" viewBox="0 0 33 33"><path fill="#06C755" d="M24.078 2.77H8.703A6.31 6.31 0 0 0 2.39 9.082v15.376a6.31 6.31 0 0 0 6.312 6.312h15.375a6.31 6.31 0 0 0 6.313-6.312V9.082a6.31 6.31 0 0 0-6.313-6.312"/><path fill="#fff" d="M25.723 15.45c0-4.177-4.187-7.575-9.335-7.575s-9.335 3.398-9.335 7.576c0 3.744 3.325 6.881 7.806 7.474.305.065.719.2.823.46.094.236.062.606.03.844l-.133.8c-.04.236-.188.922.809.503s5.376-3.166 7.334-5.42c1.353-1.483 2.001-2.992 2.001-4.661"/><path fill="#06C755" d="M22.617 17.863h-2.625a.175.175 0 0 1-.175-.175v-4.073a.175.175 0 0 1 .175-.175h2.625a.175.175 0 0 1 .175.175v.662a.175.175 0 0 1-.175.175h-1.782v.687h1.782a.175.175 0 0 1 .175.175v.668a.175.175 0 0 1-.175.175h-1.782v.688h1.782a.175.175 0 0 1 .175.175v.662a.175.175 0 0 1-.175.18M12.916 17.863a.175.175 0 0 0 .175-.175v-.662a.175.175 0 0 0-.175-.175h-1.782v-3.237a.175.175 0 0 0-.175-.175h-.665a.175.175 0 0 0-.175.175v4.071a.175.175 0 0 0 .175.175h2.625zM14.495 13.432h-.662a.18.18 0 0 0-.178.178v4.074c0 .099.08.179.178.179h.662c.098 0 .178-.08.178-.179V13.61a.18.18 0 0 0-.178-.178M19.002 13.432h-.662a.175.175 0 0 0-.175.175v2.42l-1.864-2.517-.014-.019-.011-.01-.01-.008h-.005l-.01-.007h-.005l-.01-.005h-.74a.175.175 0 0 0-.176.175v4.074a.175.175 0 0 0 .175.175h.663a.175.175 0 0 0 .175-.175v-2.444l1.866 2.52a.2.2 0 0 0 .046.045l.01.007h.006l.008.005h.027a.2.2 0 0 0 .048.006h.658a.175.175 0 0 0 .175-.175V13.61a.175.175 0 0 0-.175-.178"/></svg>