<svg xmlns="http://www.w3.org/2000/svg" width="32" height="32" fill="none" viewBox="0 0 32 32"><path fill="url(#a)" fill-rule="evenodd" d="M28.998 22.402c0 .142-.005.451-.013.69-.02.583-.067 1.336-.137 1.68a5.593 5.593 0 0 1-.47 1.406 5.01 5.01 0 0 1-2.206 2.204c-.45.219-.925.377-1.416.47-.34.07-1.087.115-1.667.135-.238.009-.547.013-.689.013l-12.802-.002c-.143 0-.451-.005-.69-.013-.583-.02-1.336-.067-1.68-.137a5.593 5.593 0 0 1-1.406-.47 5.01 5.01 0 0 1-2.204-2.206 5.606 5.606 0 0 1-.47-1.416c-.07-.34-.115-1.087-.135-1.667A23.342 23.342 0 0 1 3 22.4l.002-12.802c0-.143.005-.451.013-.69.02-.583.067-1.336.137-1.68.094-.487.252-.96.47-1.406A5.01 5.01 0 0 1 5.83 3.618c.448-.219.924-.377 1.415-.47.34-.07 1.087-.115 1.667-.135C9.149 3.004 9.458 3 9.6 3l12.802.002c.142 0 .451.005.69.013.583.02 1.336.067 1.68.137.487.094.96.252 1.406.47a5.01 5.01 0 0 1 2.204 2.207c.219.448.377.924.47 1.415.07.34.115 1.087.135 1.667.009.238.013.547.013.689l-.002 12.802Z" clip-rule="evenodd"/><path fill="#fff" fill-rule="evenodd" d="M23.232 9.616a9.454 9.454 0 0 0-3.068-1.94A9.895 9.895 0 0 0 16.54 7c-5.214 0-9.458 4.001-9.46 8.919a8.515 8.515 0 0 0 1.262 4.459L7 25l5.015-1.24a9.909 9.909 0 0 0 4.52 1.085h.005c5.214 0 9.458-4.001 9.46-8.919a8.429 8.429 0 0 0-.714-3.417 8.853 8.853 0 0 0-2.054-2.893ZM16.54 23.339h-.003a8.216 8.216 0 0 1-4.002-1.033l-.288-.16-2.976.735.795-2.736-.187-.28a7.088 7.088 0 0 1-1.202-3.945c.001-4.088 3.529-7.414 7.866-7.414 1.033 0 2.055.193 3.009.566a7.91 7.91 0 0 1 2.55 1.609 7.403 7.403 0 0 1 1.703 2.406c.395.9.598 1.864.598 2.838-.002 4.088-3.53 7.414-7.863 7.414Zm4.313-5.552c-.237-.111-1.399-.65-1.616-.725-.216-.075-.374-.112-.531.111-.157.223-.61.725-.749.874-.137.149-.275.167-.512.056-.236-.112-.998-.347-1.9-1.107-.703-.59-1.178-1.32-1.316-1.543-.138-.223-.014-.344.104-.455.106-.1.236-.26.354-.39.119-.13.158-.224.237-.373.079-.148.04-.278-.02-.39-.059-.112-.531-1.209-.729-1.655-.192-.434-.386-.375-.531-.382a10.137 10.137 0 0 0-.453-.008.91.91 0 0 0-.347.077.866.866 0 0 0-.284.202c-.216.223-.827.762-.827 1.859s.847 2.157.965 2.305c.118.15 1.667 2.4 4.038 3.366.44.178.89.335 1.347.47a3.43 3.43 0 0 0 1.49.087c.453-.064 1.398-.539 1.595-1.06.197-.52.197-.966.138-1.06-.06-.092-.217-.148-.453-.26Z" clip-rule="evenodd"/><defs><linearGradient id="a" x1="16" x2="16" y1="29" y2="3" gradientUnits="userSpaceOnUse"><stop stop-color="#25CF43"/><stop offset="1" stop-color="#61FD7D"/></linearGradient></defs></svg>