<svg xmlns="http://www.w3.org/2000/svg" width="32" height="33" fill="none" viewBox="0 0 32 33"><path d="M16 5.496c3.471 0 3.882.013 5.253.076 1.268.058 1.956.27 2.414.448.565.208 1.076.54 1.495.972.432.42.764.93.972 1.495.178.458.39 1.146.448 2.414.063 1.37.076 1.782.076 5.253s-.013 3.882-.076 5.253c-.058 1.268-.27 1.956-.448 2.414a4.305 4.305 0 0 1-2.467 2.467c-.458.178-1.146.39-2.414.448-1.37.063-1.782.076-5.253.076-3.472 0-3.883-.014-5.253-.076-1.268-.058-1.956-.27-2.414-.448a4.029 4.029 0 0 1-1.495-.972 4.03 4.03 0 0 1-.972-1.495c-.178-.458-.39-1.146-.448-2.414-.063-1.37-.076-1.782-.076-5.253s.013-3.882.076-5.253c.058-1.268.27-1.956.448-2.414.208-.565.54-1.076.972-1.495.42-.432.93-.764 1.495-.972.458-.178 1.146-.39 2.414-.448 1.37-.063 1.782-.076 5.253-.076Zm0-2.342c-3.53 0-3.973.015-5.36.078-1.383.063-2.328.283-3.155.604a6.372 6.372 0 0 0-2.303 1.5 6.372 6.372 0 0 0-1.5 2.302c-.32.827-.54 1.772-.604 3.156C3.015 12.18 3 12.624 3 16.154c0 3.53.015 3.973.078 5.36.063 1.383.283 2.328.605 3.155a6.373 6.373 0 0 0 1.499 2.303 6.372 6.372 0 0 0 2.302 1.5c.827.32 1.772.54 3.156.604 1.386.063 1.83.078 5.36.078 3.53 0 3.974-.015 5.36-.078 1.384-.064 2.329-.283 3.155-.605a6.649 6.649 0 0 0 3.803-3.802c.321-.827.54-1.772.604-3.155.063-1.387.078-1.83.078-5.36 0-3.53-.015-3.974-.078-5.36-.063-1.384-.283-2.329-.605-3.156a6.372 6.372 0 0 0-1.499-2.302 6.373 6.373 0 0 0-2.303-1.5c-.826-.321-1.771-.54-3.155-.604-1.386-.063-1.83-.078-5.36-.078Zm0 6.323a6.676 6.676 0 1 0 0 13.351 6.676 6.676 0 0 0 0-13.351Zm0 11.009a4.333 4.333 0 1 1 0-8.666 4.333 4.333 0 0 1 0 8.666Zm8.5-11.273a1.56 1.56 0 1 1-3.12 0 1.56 1.56 0 0 1 3.12 0Z"/></svg>