<svg xmlns="http://www.w3.org/2000/svg" width="32" height="33" fill="none" viewBox="0 0 32 33"><path fill="#1877F2" d="M30 16.77c0-7.732-6.268-14-14-14s-14 6.268-14 14c0 6.988 5.12 12.78 11.813 13.83v-9.783h-3.555V16.77h3.555v-3.084c0-3.51 2.09-5.447 5.288-5.447 1.531 0 3.133.273 3.133.273v3.445H20.47c-1.74 0-2.282 1.08-2.282 2.187v2.626h3.883l-.62 4.047h-3.262V30.6C24.88 29.55 30 23.758 30 16.77"/><path fill="#fff" d="m21.45 20.817.62-4.047h-3.883v-2.626c0-1.107.543-2.187 2.282-2.187h1.765V8.513S20.632 8.24 19.1 8.24c-3.197 0-5.288 1.938-5.288 5.447v3.084h-3.554v4.047h3.555V30.6a14.2 14.2 0 0 0 4.374 0v-9.783z"/></svg>