<svg xmlns="http://www.w3.org/2000/svg" width="33" height="33" fill="none" viewBox="0 0 33 33"><path fill="url(#a)" d="M16.686 2.77c-7.887 0-14 5.777-14 13.58 0 4.082 1.672 7.61 4.396 10.045a1.12 1.12 0 0 1 .376.799l.077 2.49a1.12 1.12 0 0 0 1.571.99l2.78-1.226c.235-.104.499-.123.747-.055 1.32.36 2.684.541 4.053.538 7.886 0 14-5.777 14-13.58 0-7.804-6.114-13.581-14-13.581m8.407 10.449-4.113 6.525a2.1 2.1 0 0 1-3.036.56l-3.271-2.453a.84.84 0 0 0-1.012.003l-4.418 3.352c-.59.448-1.359-.258-.964-.884l4.112-6.525a2.1 2.1 0 0 1 3.037-.56l3.27 2.453a.84.84 0 0 0 1.012-.003l4.418-3.352c.59-.448 1.36.258.965.884"/><path fill="#fff" d="m20.98 19.744 4.113-6.525c.394-.626-.375-1.332-.965-.884l-4.418 3.352a.84.84 0 0 1-1.012.003l-3.27-2.453a2.1 2.1 0 0 0-3.037.56l-4.112 6.525c-.395.626.375 1.332.964.884l4.418-3.352a.84.84 0 0 1 1.012-.003l3.27 2.453a2.1 2.1 0 0 0 3.037-.56"/><defs><radialGradient id="a" cx="0" cy="0" r="1" gradientTransform="translate(8.075 30.62)scale(30.5087)" gradientUnits="userSpaceOnUse"><stop stop-color="#09F"/><stop offset=".61" stop-color="#A033FF"/><stop offset=".935" stop-color="#FF5280"/><stop offset="1" stop-color="#FF7061"/></radialGradient></defs></svg>