<svg xmlns="http://www.w3.org/2000/svg" width="32" height="32" fill="none" viewBox="0 0 32 32"><path fill="#16A693" d="M5.438 5h21.125C27.907 5 29 6.077 29 7.4v15.2c0 1.323-1.092 2.4-2.438 2.4H11.421l-4.65 3.813a.817.817 0 0 1-.864.112.8.8 0 0 1-.47-.725V25C4.095 25 3 23.923 3 22.6V7.4C3 6.077 4.094 5 5.438 5Zm3.167 6.385c-1.719 0-2.601.729-2.601 1.872 0 1.368 1.116 1.764 2.196 2.016.927.216 1.62.396 1.62 1.062 0 .459-.333.747-1.206.747-.855 0-1.314-.423-1.413-.99H5.77c.18 1.242 1.161 2.043 2.826 2.043 1.926 0 2.745-.927 2.745-1.971 0-1.422-1.26-1.926-2.502-2.196-.9-.198-1.314-.36-1.314-.891 0-.396.279-.657 1.044-.657.648 0 1.125.279 1.197.765h1.413c-.171-1.125-1.062-1.8-2.574-1.8Zm9.088 2.151V18h1.368v-6.48h-1.773l-1.7 5.058-1.755-5.058h-1.729V18h1.279v-4.455L14.94 18h1.232l1.521-4.464Zm5.01-2.151c-1.72 0-2.601.729-2.601 1.872 0 1.368 1.116 1.764 2.196 2.016.927.216 1.62.396 1.62 1.062 0 .459-.333.747-1.206.747-.855 0-1.314-.423-1.413-.99h-1.431c.18 1.242 1.16 2.043 2.826 2.043 1.926 0 2.745-.927 2.745-1.971 0-1.422-1.26-1.926-2.502-2.196-.9-.198-1.314-.36-1.314-.891 0-.396.279-.657 1.044-.657.648 0 1.125.279 1.197.765h1.413c-.171-1.125-1.062-1.8-2.574-1.8Z"/></svg>