<svg xmlns="http://www.w3.org/2000/svg" width="32" height="33" fill="none" viewBox="0 0 32 33"><path d="M29 16.154c0 7.182-5.817 13-13 13-7.182 0-13-5.818-13-13 0-7.183 5.818-13 13-13 7.183 0 13 5.817 13 13ZM13.621 23.01c5.766 0 8.918-4.777 8.918-8.918 0-.136 0-.273-.007-.403a6.421 6.421 0 0 0 1.567-1.625 6.362 6.362 0 0 1-1.8.494 3.133 3.133 0 0 0 1.378-1.735 6.347 6.347 0 0 1-1.99.76 3.135 3.135 0 0 0-5.337 2.86 8.892 8.892 0 0 1-6.46-3.276 3.144 3.144 0 0 0-.423 1.573 3.12 3.12 0 0 0 1.398 2.607 3.079 3.079 0 0 1-1.417-.39v.039a3.138 3.138 0 0 0 2.515 3.074 3.125 3.125 0 0 1-1.416.052 3.13 3.13 0 0 0 2.925 2.178 6.3 6.3 0 0 1-4.641 1.293 8.733 8.733 0 0 0 4.79 1.417Z"/></svg>