<svg xmlns="http://www.w3.org/2000/svg" width="32" height="32" fill="none" viewBox="0 0 32 32"><path d="M5.438 5.5h21.125C27.908 5.5 29 6.577 29 7.9v12.104l-1.625-1.625a3 3 0 0 0-2.138-.879c.137-.257.202-.542.202-.836 0-1.422-1.26-1.926-2.502-2.196-.9-.198-1.314-.36-1.314-.891 0-.396.279-.657 1.044-.657.648 0 1.125.279 1.197.765h1.413c-.171-1.125-1.062-1.8-2.574-1.8-1.72 0-2.601.729-2.601 1.872 0 1.368 1.116 1.764 2.196 2.016.927.216 1.62.396 1.62 1.062 0 .459-.333.747-1.206.747-.855 0-1.314-.423-1.413-.99h-1.431c.18 1.242 1.16 2.043 2.826 2.043q.108 0 .212-.004A3 3 0 0 0 22.295 21h-3.542a3 3 0 0 0-2.598 4.5H11.42l-4.65 3.813a.82.82 0 0 1-.864.112.8.8 0 0 1-.47-.725v-3.2C4.095 25.5 3 24.423 3 23.1V7.9c0-1.323 1.094-2.4 2.438-2.4m3.167 6.385c-1.719 0-2.601.729-2.601 1.872 0 1.368 1.116 1.764 2.196 2.016.927.216 1.62.396 1.62 1.062 0 .459-.333.747-1.206.747-.855 0-1.314-.423-1.413-.99H5.77c.18 1.242 1.161 2.043 2.826 2.043 1.926 0 2.745-.927 2.745-1.971 0-1.422-1.26-1.926-2.502-2.196-.9-.198-1.314-.36-1.314-.891 0-.396.279-.657 1.044-.657.648 0 1.125.279 1.197.765h1.413c-.171-1.125-1.062-1.8-2.574-1.8m9.089 2.151V18.5h1.367v-6.48h-1.773l-1.7 5.058-1.755-5.058h-1.729v6.48h1.279v-4.455L14.94 18.5h1.233z"/><path d="M25.96 19.793a1 1 0 0 0-1.414 1.414L26.34 23h-7.586a1 1 0 0 0 0 2h7.586l-1.793 1.793a1 1 0 0 0 1.414 1.414l3.5-3.5a1 1 0 0 0 .009-1.405l-.01-.01z"/></svg>