<svg xmlns="http://www.w3.org/2000/svg" width="32" height="33" fill="none" viewBox="0 0 32 33"><path fill-rule="evenodd" d="M2 12.588C2 7.93 6.53 4.154 12.12 4.154c5.05 0 9.234 3.081 9.996 7.11a11.245 11.245 0 0 0-.55-.015c-5.097 0-9.23 3.444-9.23 7.692 0 .716.12 1.41.34 2.067a11.978 11.978 0 0 1-3.86-.45 1.017 1.017 0 0 0-.297-.044c-.194 0-.37.06-.537.156l-2.215 1.279a.382.382 0 0 1-.196.063.337.337 0 0 1-.337-.338c0-.062.019-.125.037-.186l.018-.06.455-1.701a.674.674 0 0 0-.248-.765C3.364 17.416 2 15.129 2 12.588Zm6.747-1.35a1.35 1.35 0 1 1 0-2.698 1.35 1.35 0 0 1 0 2.698Zm5.397-1.35a1.35 1.35 0 1 0 2.699.001 1.35 1.35 0 0 0-2.699 0Z" clip-rule="evenodd"/><path fill-rule="evenodd" d="M30 18.94c0 2.118-1.136 4.025-2.914 5.313a.562.562 0 0 0-.206.637l.38 1.418.014.05c.015.05.03.103.03.155a.281.281 0 0 1-.28.281.316.316 0 0 1-.163-.052l-1.846-1.066a.88.88 0 0 0-.448-.13.849.849 0 0 0-.248.037 9.97 9.97 0 0 1-2.753.386c-4.657 0-8.433-3.147-8.433-7.028 0-3.882 3.776-7.028 8.433-7.028 4.658 0 8.434 3.146 8.434 7.028Zm-12.37-2.248a1.124 1.124 0 1 0 2.25 0 1.124 1.124 0 0 0-2.25 0Zm5.623 0a1.125 1.125 0 1 0 2.25 0 1.125 1.125 0 0 0-2.25 0Z" clip-rule="evenodd"/></svg>