<svg xmlns="http://www.w3.org/2000/svg" width="32" height="32" fill="none" viewBox="0 0 32 32"><path d="M25.92 6.07A13.9 13.9 0 0 0 21.4 3.05 13.9 13.9 0 0 0 16.058 2C8.374 2 2.12 8.224 2.117 15.874a13.8 13.8 0 0 0 1.861 6.936L2 30l7.39-1.93a14 14 0 0 0 6.663 1.69h.006c7.683 0 13.938-6.225 13.94-13.875a13.7 13.7 0 0 0-1.051-5.315 13.8 13.8 0 0 0-3.028-4.5M16.06 27.415h-.005c-2.075 0-4.112-.555-5.898-1.607l-.423-.25-4.386 1.145 1.17-4.256-.275-.436a11.46 11.46 0 0 1-1.771-6.137c.002-6.359 5.2-11.532 11.592-11.532 1.522.001 3.03.3 4.435.88 1.406.581 2.683 1.432 3.758 2.503a11.5 11.5 0 0 1 2.51 3.744c.582 1.4.881 2.9.88 4.414-.003 6.359-5.2 11.532-11.587 11.532m6.355-8.637c-.348-.173-2.06-1.012-2.38-1.128s-.551-.173-.784.174-.9 1.128-1.102 1.36c-.204.23-.407.26-.755.086s-1.47-.54-2.802-1.721c-1.035-.92-1.734-2.055-1.937-2.402s-.022-.534.152-.707c.157-.156.349-.405.523-.608s.232-.347.348-.578.058-.434-.029-.607c-.087-.174-.784-1.88-1.074-2.575-.283-.675-.57-.584-.784-.595-.203-.01-.435-.012-.667-.012a1.29 1.29 0 0 0-.93.434c-.319.347-1.219 1.186-1.219 2.892s1.249 3.355 1.423 3.587c.173.231 2.456 3.733 5.95 5.234q.975.418 1.986.73c.835.265 1.594.227 2.195.138.669-.1 2.06-.839 2.35-1.648.291-.81.291-1.504.204-1.649-.087-.144-.32-.231-.668-.405"/></svg>