<svg xmlns="http://www.w3.org/2000/svg" width="32" height="33" viewBox="0 0 32 33"><path d="M25.212 6.778a12.865 12.865 0 0 0-4.198-2.802A12.915 12.915 0 0 0 16.054 3C8.92 3 3.113 8.78 3.11 15.883a12.813 12.813 0 0 0 1.728 6.44L3 29l6.863-1.791a12.984 12.984 0 0 0 6.186 1.568h.005c7.135 0 12.943-5.78 12.946-12.884a12.752 12.752 0 0 0-.977-4.935 12.803 12.803 0 0 0-2.811-4.18Zm-9.157 19.823h-.005c-1.927 0-3.819-.516-5.477-1.493l-.392-.232-4.073 1.063 1.087-3.951-.256-.405a10.645 10.645 0 0 1-1.645-5.7C5.297 9.98 10.124 5.177 16.06 5.177c1.413 0 2.812.279 4.118.818a10.765 10.765 0 0 1 3.49 2.323c.998.995 1.79 2.176 2.33 3.476.54 1.3.818 2.693.817 4.1-.002 5.904-4.83 10.708-10.76 10.708Zm5.901-8.02c-.323-.162-1.913-.94-2.21-1.048-.296-.107-.512-.16-.728.161-.215.323-.835 1.048-1.024 1.263-.189.215-.377.241-.7.08-.324-.161-1.366-.501-2.602-1.598-.962-.853-1.61-1.908-1.8-2.23-.188-.322-.02-.496.142-.657.146-.144.324-.376.486-.564.161-.188.215-.322.323-.537.108-.215.054-.403-.027-.564-.08-.161-.728-1.746-.997-2.39-.263-.628-.53-.543-.728-.553-.188-.01-.404-.011-.62-.011a1.194 1.194 0 0 0-.863.403c-.296.322-1.132 1.1-1.132 2.685s1.16 3.116 1.32 3.33c.162.216 2.282 3.467 5.527 4.861.602.259 1.217.485 1.844.679.775.245 1.48.21 2.037.127.622-.093 1.914-.779 2.183-1.53.27-.752.27-1.397.189-1.531-.08-.134-.296-.215-.62-.376Z"/></svg>