<svg xmlns="http://www.w3.org/2000/svg" width="33" height="33" fill="none" viewBox="0 0 33 33"><path fill="#0F0F0F" d="M26.893 5.501c-.68-.642-3.434-2.683-9.566-2.71 0 0-7.232-.446-10.757 2.856-1.963 2.005-2.653 4.938-2.726 8.575s-.167 10.452 6.265 12.3h.007l-.005 2.82s-.04 1.141.695 1.374c.743.235 1.23-.33 1.865-1.067.126-.146.257-.3.398-.454a74 74 0 0 0 1.596-1.844c4.4.378 7.783-.486 8.167-.614q.121-.038.33-.091c1.422-.37 5.657-1.47 6.402-7.675.843-7.024-.408-11.467-2.67-13.47m.746 12.966c-.622 5.123-3.988 5.923-5.201 6.212a5 5 0 0 0-.317.082c-.32.105-3.291.86-7.028.61 0 0-2.785 3.431-3.654 4.323-.136.14-.296.196-.402.169-.15-.038-.191-.219-.19-.484.003-.378.024-4.686.024-4.686-5.261-1.491-5.138-6.964-5.069-10.07l.007-.31c.062-3.038.62-5.526 2.28-7.2 2.982-2.758 9.125-2.346 9.125-2.346 5.187.023 7.673 1.619 8.249 2.153 1.914 1.674 2.889 5.678 2.176 11.545zm-7.788-4.05a.34.34 0 0 1-.238-.097.36.36 0 0 1-.108-.24c-.059-1.201-.613-1.79-1.745-1.852a.34.34 0 0 1-.234-.12.36.36 0 0 1 .027-.494.34.34 0 0 1 .245-.093c1.493.084 2.323.955 2.4 2.525a.36.36 0 0 1-.09.255.35.35 0 0 1-.24.116zm1.771.61h.008c.091 0 .178-.037.243-.102a.36.36 0 0 0 .104-.245c.03-1.383-.384-2.56-1.217-3.491s-2.005-1.46-3.483-1.57a.34.34 0 0 0-.252.086.358.358 0 0 0 .201.622c1.314.098 2.3.535 3.023 1.341s1.061 1.786 1.035 2.997a.36.36 0 0 0 .096.253c.063.067.15.107.242.109m1.83.727a.34.34 0 0 1-.244-.104.36.36 0 0 1-.103-.248c-.016-2.165-.626-3.82-1.866-5.055-1.226-1.219-2.773-1.844-4.601-1.857a.34.34 0 0 1-.245-.105.36.36 0 0 1 .002-.501.34.34 0 0 1 .245-.103h.003c2.013.015 3.722.708 5.08 2.059s2.058 3.224 2.076 5.558a.36.36 0 0 1-.1.25.34.34 0 0 1-.244.106zm-4.855 2.765c-.262.33-.75.288-.75.288-3.563-.929-4.517-4.615-4.517-4.615s-.042-.498.283-.766l.644-.523c.319-.25.522-.86.197-1.456q-.374-.67-.812-1.3a35 35 0 0 0-.946-1.207c-.318-.384-.786-.473-1.28-.21h-.006l-.004.002a5.4 5.4 0 0 0-1.312 1.087l-.004.006-.003.004q-.458.564-.524 1.105a.7.7 0 0 0-.01.162 1.5 1.5 0 0 0 .07.47l.018.011c.154.558.539 1.488 1.375 3.037q.72 1.348 1.65 2.551a13 13 0 0 0 1.01 1.16q.012.015.025.026l.113.116q.533.542 1.124 1.018c.784.633 1.62 1.197 2.498 1.685 1.517.855 2.427 1.248 2.973 1.406l.012.017a1.4 1.4 0 0 0 .617.062q.531-.064 1.082-.534l.005-.004.005-.004a5.4 5.4 0 0 0 1.065-1.34v-.004l.002-.006c.257-.504.17-.982-.208-1.308l-.084-.07c-.213-.18-.787-.662-1.098-.896a15 15 0 0 0-1.272-.83c-.583-.331-1.18-.123-1.426.203z"/></svg>