<svg xmlns="http://www.w3.org/2000/svg" width="33" height="33" fill="none" viewBox="0 0 33 33"><path fill="#0F0F0F" d="M20.238 17.863h2.625a.175.175 0 0 0 .175-.181v-.662a.175.175 0 0 0-.175-.175h-1.782v-.687h1.782a.175.175 0 0 0 .175-.176v-.668a.175.175 0 0 0-.175-.175h-1.782v-.687h1.782a.175.175 0 0 0 .175-.175v-.662a.175.175 0 0 0-.175-.175h-2.625a.175.175 0 0 0-.175.175v4.073a.175.175 0 0 0 .175.175M13.162 17.863a.175.175 0 0 0 .175-.175v-.662a.175.175 0 0 0-.175-.175H11.38v-3.237a.175.175 0 0 0-.175-.175h-.665a.175.175 0 0 0-.175.175v4.071a.175.175 0 0 0 .175.175h2.625zM14.08 13.432h.66c.1 0 .18.08.18.178v4.074c0 .099-.08.179-.18.179h-.66a.18.18 0 0 1-.18-.179V13.61c0-.098.08-.178.18-.178M19.248 13.432h-.662a.175.175 0 0 0-.175.175v2.42l-1.864-2.517-.014-.019-.01-.01-.01-.008h-.006l-.01-.007h-.005l-.01-.005h-.74a.175.175 0 0 0-.175.175v4.074a.175.175 0 0 0 .175.175h.662a.175.175 0 0 0 .175-.175v-2.444l1.866 2.52a.2.2 0 0 0 .046.045l.01.007h.006l.008.005h.027a.2.2 0 0 0 .048.006h.658a.175.175 0 0 0 .175-.175V13.61a.175.175 0 0 0-.175-.178"/><path fill="#0F0F0F" d="M24.325 2.77H8.949a6.31 6.31 0 0 0-6.312 6.312v15.376a6.31 6.31 0 0 0 6.312 6.312h15.376a6.31 6.31 0 0 0 6.312-6.312V9.082a6.31 6.31 0 0 0-6.312-6.312M7.299 15.45c0-4.177 4.187-7.575 9.335-7.575s9.336 3.398 9.336 7.576c0 1.669-.649 3.177-2.002 4.66-1.958 2.255-6.337 5.002-7.334 5.421-.97.408-.857-.231-.812-.484l.004-.02.133-.799c.031-.238.064-.608-.031-.844-.104-.26-.518-.395-.823-.46-4.481-.593-7.806-3.73-7.806-7.475"/></svg>