<svg xmlns="http://www.w3.org/2000/svg" width="32" height="32" fill="none" viewBox="0 0 32 32"><path d="M4.625 4h22.75C28.824 4 30 5.16 30 6.585v16.369c0 1.425-1.176 2.584-2.625 2.584H11.069l-5.007 4.107a.88.88 0 0 1-.931.12.86.86 0 0 1-.506-.78v-3.447C3.178 25.538 2 24.378 2 22.954V6.584C2 5.16 3.178 4 4.625 4m5.59 9.193V18h1.474v-6.978H9.78l-1.831 5.447-1.89-5.448H4.197V18h1.376v-4.798L7.25 18h1.328zm8.652 0V18h1.473v-6.978h-1.91L16.6 16.469l-1.89-5.448h-1.86V18h1.375v-4.798L15.901 18h1.328zm5.395-2.317c-1.852 0-2.802.785-2.802 2.016 0 1.473 1.202 1.9 2.365 2.171.999.233 1.745.427 1.745 1.144 0 .494-.359.804-1.299.804-.92 0-1.415-.455-1.521-1.066h-1.542c.194 1.338 1.25 2.2 3.044 2.2 2.074 0 2.956-.998 2.956-2.122 0-1.532-1.357-2.074-2.694-2.365-.97-.213-1.416-.388-1.416-.96 0-.426.3-.707 1.125-.707.698 0 1.211.3 1.289.824h1.521c-.184-1.212-1.143-1.939-2.771-1.939"/></svg>