<svg xmlns="http://www.w3.org/2000/svg" width="32" height="32" fill="none" viewBox="0 0 32 32"><path d="M26.065 4.731c-.681-.642-3.434-2.683-9.567-2.71 0 0-7.231-.446-10.756 2.856-1.963 2.005-2.653 4.938-2.726 8.575s-.167 10.452 6.265 12.3h.006l-.004 2.82s-.04 1.141.695 1.374c.743.235 1.23-.33 1.865-1.067q.188-.221.398-.454a74 74 0 0 0 1.596-1.844c4.4.378 7.783-.486 8.167-.614q.12-.038.33-.091c1.422-.37 5.657-1.47 6.402-7.675.843-7.024-.409-11.467-2.67-13.47m.746 12.966c-.622 5.123-3.988 5.923-5.202 6.212a5 5 0 0 0-.317.082c-.32.105-3.29.86-7.027.61 0 0-2.785 3.431-3.655 4.323-.135.14-.295.196-.401.169-.15-.038-.191-.22-.19-.484.003-.378.024-4.686.024-4.686-5.261-1.491-5.138-6.964-5.069-10.07l.007-.31c.062-3.038.62-5.526 2.28-7.2 2.982-2.758 9.124-2.346 9.124-2.346 5.188.023 7.673 1.619 8.25 2.153 1.913 1.674 2.889 5.678 2.176 11.545zm-7.788-4.05a.34.34 0 0 1-.239-.098.36.36 0 0 1-.107-.238c-.059-1.202-.613-1.79-1.745-1.853a.35.35 0 0 1-.234-.12.36.36 0 0 1 .027-.494.34.34 0 0 1 .244-.093c1.494.084 2.324.955 2.4 2.525a.36.36 0 0 1-.089.255.35.35 0 0 1-.24.116zm1.771.61h.008c.091 0 .178-.037.243-.102a.36.36 0 0 0 .104-.246c.03-1.382-.384-2.56-1.217-3.49s-2.005-1.46-3.483-1.57a.34.34 0 0 0-.253.086.358.358 0 0 0 .202.622c1.314.098 2.3.535 3.022 1.341.724.806 1.062 1.786 1.035 2.997a.36.36 0 0 0 .096.252c.064.068.151.108.243.11m1.83.726a.34.34 0 0 1-.244-.103.36.36 0 0 1-.103-.248c-.016-2.165-.627-3.82-1.867-5.055-1.225-1.219-2.772-1.844-4.6-1.858a.34.34 0 0 1-.245-.104.36.36 0 0 1 .002-.501.34.34 0 0 1 .245-.103h.003c2.013.015 3.722.708 5.08 2.059s2.058 3.224 2.076 5.558a.36.36 0 0 1-.1.25.34.34 0 0 1-.244.106zm-4.855 2.766c-.262.33-.75.288-.75.288-3.563-.929-4.517-4.615-4.517-4.615s-.042-.498.283-.766l.643-.523c.32-.25.523-.86.198-1.456q-.374-.67-.812-1.3a35 35 0 0 0-.946-1.208c-.318-.383-.787-.472-1.28-.21l-.006.002h-.005a5.4 5.4 0 0 0-1.315 1.093l-.004.005q-.457.564-.523 1.105a.7.7 0 0 0-.01.162 1.5 1.5 0 0 0 .07.47l.018.011c.153.558.538 1.488 1.375 3.037q.72 1.348 1.65 2.551.466.603.997 1.148l.012.013.026.025.113.116q.533.542 1.124 1.018c.784.633 1.62 1.197 2.498 1.685 1.517.855 2.427 1.248 2.973 1.406l.011.017q.225.075.46.072.08.005.158-.01.531-.064 1.082-.534l.004-.004.005-.004a5.4 5.4 0 0 0 1.066-1.34V20l.002-.006c.257-.504.17-.982-.208-1.308l-.084-.07c-.214-.18-.787-.662-1.099-.896a15 15 0 0 0-1.271-.83c-.584-.331-1.18-.124-1.426.203z"/></svg>