<svg xmlns="http://www.w3.org/2000/svg" width="31" height="32" fill="none" viewBox="0 0 31 32"><path fill="#0F0F0F" d="M24.29 5.536c-.628-.596-3.17-2.492-8.83-2.517 0 0-6.675-.414-9.93 2.653-1.81 1.861-2.448 4.585-2.515 7.962-.067 3.377-.154 9.705 5.783 11.421h.006L8.8 27.674s-.038 1.06.641 1.276c.686.219 1.136-.306 1.722-.991.116-.136.237-.278.367-.421a68.325 68.325 0 0 0 1.474-1.713c4.06.351 7.183-.451 7.538-.57.073-.024.177-.051.305-.085 1.312-.343 5.222-1.364 5.909-7.127.779-6.522-.377-10.647-2.465-12.507Zm.689 12.04c-.573 4.757-3.681 5.5-4.801 5.768-.124.03-.224.053-.293.076-.295.097-3.038.799-6.487.567 0 0-2.57 3.186-3.373 4.014-.125.13-.273.182-.37.156-.14-.035-.177-.203-.176-.448.003-.352.022-4.351.022-4.351-4.856-1.386-4.743-6.468-4.679-9.352l.007-.288c.057-2.82.572-5.13 2.104-6.685 2.753-2.561 8.423-2.179 8.423-2.179 4.788.022 7.083 1.503 7.615 2 1.766 1.554 2.666 5.272 2.008 10.72v.002Zm-7.188-3.761a.315.315 0 0 1-.22-.09.332.332 0 0 1-.1-.222c-.054-1.116-.566-1.663-1.61-1.72a.318.318 0 0 1-.216-.112.335.335 0 0 1 .024-.459.315.315 0 0 1 .226-.086c1.378.078 2.145.886 2.215 2.344a.338.338 0 0 1-.082.237.32.32 0 0 1-.221.108h-.016Zm1.634.566h.008a.316.316 0 0 0 .224-.094.334.334 0 0 0 .096-.228c.028-1.284-.355-2.377-1.124-3.242-.769-.864-1.85-1.354-3.215-1.457a.315.315 0 0 0-.233.08.333.333 0 0 0 .187.577c1.212.091 2.122.497 2.79 1.245.667.749.98 1.66.955 2.783a.334.334 0 0 0 .088.235c.059.063.14.1.224.101Zm1.69.675a.317.317 0 0 1-.226-.095.334.334 0 0 1-.095-.232c-.015-2.01-.578-3.546-1.723-4.693-1.13-1.132-2.56-1.713-4.247-1.725a.313.313 0 0 1-.226-.097.334.334 0 0 1 .002-.465.316.316 0 0 1 .227-.096h.002c1.858.014 3.436.657 4.69 1.912 1.253 1.255 1.9 2.994 1.916 5.16a.334.334 0 0 1-.092.234.316.316 0 0 1-.226.098h-.003Zm-4.482 2.568c-.242.307-.692.268-.692.268-3.29-.863-4.17-4.286-4.17-4.286s-.04-.462.261-.711l.594-.485c.295-.234.483-.8.183-1.353-.23-.415-.48-.818-.75-1.207a32.704 32.704 0 0 0-.873-1.121c-.294-.356-.726-.44-1.182-.195L10 8.535l-.004.001c-.454.268-.862.61-1.211 1.01l-.004.005-.003.004c-.281.349-.443.691-.483 1.026a.675.675 0 0 0-.01.15 1.4 1.4 0 0 0 .066.436l.015.011c.142.518.498 1.381 1.27 2.82.442.833.952 1.625 1.524 2.369.286.373.593.729.92 1.066l.011.012.023.023.105.108c.328.335.674.65 1.037.945a16.325 16.325 0 0 0 2.306 1.565c1.4.794 2.24 1.159 2.744 1.305l.011.016a1.297 1.297 0 0 0 .57.058c.327-.04.66-.206.999-.496l.004-.004a5.042 5.042 0 0 0 .989-1.252v-.005c.238-.468.157-.912-.191-1.215l-.077-.064a31.204 31.204 0 0 0-1.014-.833 13.89 13.89 0 0 0-1.174-.77c-.539-.308-1.089-.115-1.317.188l-.472.61Z"/></svg>