<svg xmlns="http://www.w3.org/2000/svg" width="33" height="33" fill="none" viewBox="0 0 33 33"><path fill="url(#a)" fill-rule="evenodd" d="M30.73 23.665c0 .153-.005.485-.014.742-.022.629-.072 1.44-.147 1.809a6 6 0 0 1-.507 1.515 5.4 5.4 0 0 1-2.376 2.373 6 6 0 0 1-1.524.507c-.366.074-1.17.123-1.795.145-.257.01-.59.014-.742.014l-13.787-.002c-.154 0-.486-.005-.743-.014-.628-.023-1.439-.072-1.808-.148A6 6 0 0 1 5.77 30.1a5.4 5.4 0 0 1-2.373-2.375 6 6 0 0 1-.507-1.524c-.074-.366-.123-1.17-.145-1.795-.009-.257-.014-.59-.014-.743l.003-13.787c0-.153.004-.485.014-.742.022-.629.072-1.44.147-1.809a6 6 0 0 1 .507-1.515A5.4 5.4 0 0 1 5.78 3.436a6 6 0 0 1 1.524-.507c.366-.074 1.17-.123 1.795-.145.257-.01.59-.014.742-.014l13.787.002c.153 0 .486.005.743.014.628.023 1.439.072 1.808.148a6 6 0 0 1 1.516.507 5.4 5.4 0 0 1 2.373 2.375c.236.483.406.996.507 1.524.074.366.122 1.17.145 1.795.009.257.013.59.013.743z" clip-rule="evenodd"/><path fill="#fff" fill-rule="evenodd" d="M24.673 9.677a10.4 10.4 0 0 0-3.391-2.156 10.9 10.9 0 0 0-4.006-.75c-5.763 0-10.453 4.445-10.456 9.909a9.5 9.5 0 0 0 1.396 4.954L6.732 26.77l5.543-1.378a10.9 10.9 0 0 0 4.997 1.206h.004c5.763 0 10.454-4.446 10.456-9.91a9.4 9.4 0 0 0-.789-3.796 9.8 9.8 0 0 0-2.27-3.215m-7.397 15.248h-.003a9.04 9.04 0 0 1-4.423-1.149l-.318-.178-3.29.818.879-3.04-.207-.312a7.9 7.9 0 0 1-1.329-4.383c.002-4.542 3.901-8.237 8.695-8.237 1.141 0 2.271.214 3.325.628a8.7 8.7 0 0 1 2.82 1.788 8.2 8.2 0 0 1 1.882 2.674c.436 1 .66 2.071.66 3.153-.002 4.542-3.9 8.238-8.69 8.238m4.767-6.17c-.26-.123-1.545-.723-1.785-.805s-.413-.124-.587.123c-.174.248-.675.806-.828.971-.152.166-.305.186-.566.062-.261-.123-1.103-.385-2.1-1.229-.777-.656-1.302-1.467-1.454-1.715-.153-.248-.016-.382.114-.506.118-.11.262-.289.392-.433s.174-.248.261-.414.044-.31-.021-.433c-.066-.124-.588-1.343-.806-1.839-.212-.483-.428-.418-.588-.425a11 11 0 0 0-.5-.009 1 1 0 0 0-.383.086 1 1 0 0 0-.314.224c-.24.248-.914.847-.914 2.066s.936 2.396 1.066 2.562c.131.165 1.843 2.666 4.463 3.739q.73.297 1.49.521c.625.189 1.195.162 1.645.098.502-.07 1.546-.599 1.764-1.177s.217-1.074.152-1.178-.24-.165-.5-.289" clip-rule="evenodd"/><defs><linearGradient id="a" x1="16.732" x2="16.732" y1="30.77" y2="2.77" gradientUnits="userSpaceOnUse"><stop stop-color="#25CF43"/><stop offset="1" stop-color="#61FD7D"/></linearGradient></defs></svg>