<svg xmlns="http://www.w3.org/2000/svg" width="32" height="33" fill="none" viewBox="0 0 32 33"><path fill-rule="evenodd" d="M8.312 2.154h15.376A6.312 6.312 0 0 1 30 8.466v15.376a6.312 6.312 0 0 1-6.312 6.312H8.312A6.312 6.312 0 0 1 2 23.842V8.466a6.312 6.312 0 0 1 6.312-6.312Zm7.685 5.105c5.148 0 9.336 3.398 9.336 7.575 0 1.67-.649 3.178-2.001 4.662-1.959 2.254-6.338 5.001-7.335 5.42-.97.408-.856-.232-.812-.484l.004-.02.133-.799c.031-.238.064-.608-.03-.844-.105-.26-.519-.395-.823-.46-4.482-.593-7.807-3.73-7.807-7.475 0-4.177 4.188-7.575 9.335-7.575Z" clip-rule="evenodd"/><path d="M22.227 17.247h-2.625a.175.175 0 0 1-.175-.175v-4.073a.175.175 0 0 1 .175-.175h2.625a.175.175 0 0 1 .174.175v.662a.175.175 0 0 1-.174.175h-1.783v.687h1.783a.175.175 0 0 1 .174.175v.668a.175.175 0 0 1-.174.175h-1.783v.688h1.783a.175.175 0 0 1 .174.175v.662a.175.175 0 0 1-.174.18ZM12.525 17.247a.175.175 0 0 0 .175-.175v-.662a.175.175 0 0 0-.175-.175h-1.782v-3.237a.175.175 0 0 0-.175-.175h-.665a.175.175 0 0 0-.175.175v4.071a.175.175 0 0 0 .175.175h2.625l-.003.003ZM14.104 12.816h-.662a.178.178 0 0 0-.178.178v4.074c0 .099.08.179.178.179h.662c.099 0 .178-.08.178-.179v-4.074a.178.178 0 0 0-.178-.178ZM18.611 12.816h-.662a.175.175 0 0 0-.175.175v2.42l-1.863-2.517a.105.105 0 0 0-.015-.019l-.01-.01-.01-.008h-.005l-.01-.007h-.005l-.01-.005h-.741a.175.175 0 0 0-.175.175v4.074a.175.175 0 0 0 .175.175h.662a.175.175 0 0 0 .175-.175V14.65l1.867 2.52a.174.174 0 0 0 .045.045l.01.007h.006l.009.005h.027a.21.21 0 0 0 .047.006h.658a.175.175 0 0 0 .175-.175v-4.064a.174.174 0 0 0-.107-.165.174.174 0 0 0-.068-.013Z"/></svg>