<svg xmlns="http://www.w3.org/2000/svg" width="33" height="32" fill="none" viewBox="0 0 33 32"><path d="M2.247 12.434C2.247 7.776 6.777 4 12.367 4c5.05 0 9.234 3.081 9.996 7.11a11 11 0 0 0-.55-.015c-5.098 0-9.23 3.444-9.23 7.692 0 .716.12 1.41.34 2.067q-.276.012-.556.013c-1.155 0-2.27-.165-3.303-.462a1 1 0 0 0-.298-.045c-.194 0-.37.06-.537.156l-2.216 1.279a.4.4 0 0 1-.195.063.337.337 0 0 1-.337-.337c0-.063.019-.126.037-.187l.017-.06.456-1.7a.674.674 0 0 0-.248-.765c-2.133-1.547-3.496-3.834-3.496-6.375m6.746-1.35a1.35 1.35 0 1 0 .001-2.698 1.35 1.35 0 0 0 0 2.698m5.398-1.35a1.35 1.35 0 1 0 2.698.002 1.35 1.35 0 0 0-2.698-.001"/><path d="M30.247 18.787c0 2.118-1.137 4.024-2.914 5.312a.56.56 0 0 0-.207.637l.395 1.468c.015.051.03.103.03.155a.28.28 0 0 1-.28.282.3.3 0 0 1-.163-.053l-1.846-1.066a.9.9 0 0 0-.448-.13.9.9 0 0 0-.248.038 10 10 0 0 1-2.753.385c-4.658 0-8.433-3.146-8.433-7.028s3.775-7.028 8.433-7.028 8.434 3.146 8.434 7.028m-12.37-2.249a1.124 1.124 0 1 0 2.25 0 1.124 1.124 0 0 0-2.25 0m5.623 0a1.125 1.125 0 1 0 2.249 0 1.125 1.125 0 0 0-2.25 0"/></svg>