<svg xmlns="http://www.w3.org/2000/svg" width="32" height="32" fill="none" viewBox="0 0 32 32"><path fill="#1877F2" d="M29 16c0-7.18-5.82-13-13-13S3 8.82 3 16c0 6.489 4.754 11.867 10.969 12.842v-9.084h-3.301V16h3.3v-2.864c0-3.258 1.942-5.058 4.911-5.058 1.422 0 2.91.254 2.91.254v3.2h-1.64c-1.614 0-2.118 1.001-2.118 2.03V16h3.606l-.577 3.758h-3.029v9.084C24.246 27.867 29 22.489 29 16Z"/><path fill="#fff" d="M21.06 19.758 21.637 16H18.03v-2.439c0-1.028.504-2.03 2.119-2.03h1.64V8.332s-1.489-.254-2.911-.254c-2.97 0-4.91 1.8-4.91 5.058V16h-3.301v3.758h3.3v9.084c1.347.21 2.717.21 4.063 0v-9.084h3.03Z"/></svg>