<svg xmlns="http://www.w3.org/2000/svg" width="33" height="32" fill="none" viewBox="0 0 33 32"><path d="M19.848 17.093h2.625a.175.175 0 0 0 .175-.181v-.662a.175.175 0 0 0-.175-.175h-1.782v-.687h1.782a.175.175 0 0 0 .175-.175v-.669a.175.175 0 0 0-.175-.175h-1.782v-.687h1.782a.175.175 0 0 0 .175-.175v-.662a.175.175 0 0 0-.175-.175h-2.625a.175.175 0 0 0-.175.175v4.073a.175.175 0 0 0 .175.175M12.772 17.093a.175.175 0 0 0 .175-.175v-.662a.175.175 0 0 0-.175-.175H10.99v-3.237a.175.175 0 0 0-.175-.175h-.665a.175.175 0 0 0-.175.175v4.071a.175.175 0 0 0 .175.175h2.625zM13.69 12.662h.66c.1 0 .18.08.18.178v4.074c0 .099-.08.179-.18.179h-.66a.18.18 0 0 1-.18-.179V12.84c0-.098.08-.178.18-.178M18.858 12.662h-.662a.175.175 0 0 0-.175.175v2.42l-1.864-2.517-.014-.019-.01-.01-.01-.008h-.006l-.01-.007h-.005l-.01-.005h-.74a.175.175 0 0 0-.175.175v4.074a.175.175 0 0 0 .175.175h.662a.175.175 0 0 0 .175-.175v-2.444l1.866 2.52a.2.2 0 0 0 .046.045l.01.007h.006l.008.005h.027a.2.2 0 0 0 .048.006h.658a.175.175 0 0 0 .175-.175V12.84a.18.18 0 0 0-.05-.126.17.17 0 0 0-.125-.052"/><path d="M23.935 2H8.559a6.31 6.31 0 0 0-6.312 6.312v15.376A6.31 6.31 0 0 0 8.559 30h15.376a6.31 6.31 0 0 0 6.312-6.312V8.312A6.31 6.31 0 0 0 23.935 2M6.909 14.68c0-4.177 4.188-7.575 9.335-7.575s9.336 3.398 9.336 7.576c0 1.669-.649 3.178-2.002 4.66-1.958 2.255-6.337 5.002-7.334 5.421-.97.408-.857-.232-.812-.484l.004-.02.133-.799c.031-.238.063-.608-.031-.844-.104-.26-.518-.395-.822-.46-4.482-.593-7.807-3.73-7.807-7.475"/></svg>