<svg xmlns="http://www.w3.org/2000/svg" width="32" height="33" fill="none" viewBox="0 0 32 33"><path d="M16 3.154c-7.323 0-13 5.364-13 12.61 0 3.79 1.553 7.066 4.083 9.328a1.038 1.038 0 0 1 .349.74l.07 2.313a1.04 1.04 0 0 0 1.46.92l2.58-1.139c.22-.096.465-.114.695-.05 1.226.334 2.492.502 3.763.499 7.323 0 13-5.365 13-12.61 0-7.247-5.677-12.611-13-12.611Zm7.806 9.703-3.818 6.058a1.95 1.95 0 0 1-2.82.52l-3.037-2.277a.78.78 0 0 0-.94.002L9.09 20.273c-.547.416-1.262-.24-.895-.82l3.818-6.06a1.95 1.95 0 0 1 2.82-.52l3.037 2.278a.78.78 0 0 0 .94-.002l4.102-3.114c.547-.415 1.262.24.895.822Z"/></svg>