<svg xmlns="http://www.w3.org/2000/svg" width="32" height="32" fill="none" viewBox="0 0 32 32"><path fill="url(#a)" d="M16 3C8.677 3 3 8.365 3 15.61c0 3.79 1.553 7.066 4.083 9.328a1.038 1.038 0 0 1 .35.741l.07 2.313a1.04 1.04 0 0 0 1.46.92l2.58-1.14c.218-.096.464-.114.694-.05A14.18 14.18 0 0 0 16 28.22c7.323 0 13-5.365 13-12.61C29 8.364 23.323 3 16 3Zm7.807 9.703-3.82 6.059a1.949 1.949 0 0 1-2.819.52l-3.037-2.278a.78.78 0 0 0-.94.002L9.09 20.12c-.547.415-1.262-.24-.895-.822l3.818-6.058a1.951 1.951 0 0 1 2.82-.52l3.037 2.277a.78.78 0 0 0 .94-.002l4.102-3.113c.547-.416 1.262.24.896.82Z"/><defs><radialGradient id="a" cx="0" cy="0" r="1" gradientTransform="translate(8.005 28.861) scale(28.3295)" gradientUnits="userSpaceOnUse"><stop stop-color="#09F"/><stop offset=".61" stop-color="#A033FF"/><stop offset=".935" stop-color="#FF5280"/><stop offset="1" stop-color="#FF7061"/></radialGradient></defs></svg>