<svg xmlns="http://www.w3.org/2000/svg" width="32" height="32" fill="none" viewBox="0 0 32 32"><path fill="url(#a)" d="M16 30c7.732 0 14-6.268 14-14S23.732 2 16 2 2 8.268 2 16s6.268 14 14 14"/><path fill="#fff" fill-rule="evenodd" d="M8.337 15.852q6.123-2.667 8.165-3.517c3.888-1.617 4.696-1.898 5.222-1.907.116-.002.375.027.543.163a.6.6 0 0 1 .199.379c.019.109.042.357.023.551-.21 2.214-1.122 7.586-1.586 10.065-.196 1.05-.582 1.401-.956 1.436-.813.075-1.43-.538-2.218-1.054-1.232-.807-1.929-1.31-3.125-2.098-1.382-.911-.486-1.412.302-2.23.206-.214 3.788-3.472 3.858-3.768.008-.037.016-.175-.066-.248-.082-.072-.202-.047-.29-.028q-.184.043-5.905 3.904-.838.575-1.518.56c-.5-.01-1.461-.282-2.176-.515-.877-.285-1.574-.435-1.513-.92q.047-.378 1.041-.773" clip-rule="evenodd"/><defs><linearGradient id="a" x1="16" x2="16" y1="2" y2="29.792" gradientUnits="userSpaceOnUse"><stop stop-color="#2AABEE"/><stop offset="1" stop-color="#229ED9"/></linearGradient></defs></svg>