<svg xmlns="http://www.w3.org/2000/svg" width="33" height="33" fill="none" viewBox="0 0 33 33"><path fill="#0F0F0F" d="M26.653 6.84a13.9 13.9 0 0 0-4.521-3.019 13.9 13.9 0 0 0-5.34-1.05c-7.685 0-13.94 6.223-13.942 13.873a13.8 13.8 0 0 0 1.86 6.936l-1.978 7.19 7.391-1.93a14 14 0 0 0 6.662 1.69h.006c7.684 0 13.938-6.225 13.941-13.875a13.7 13.7 0 0 0-1.052-5.315 13.8 13.8 0 0 0-3.027-4.5M16.79 28.185h-.005c-2.075 0-4.112-.555-5.898-1.607l-.423-.25-4.385 1.145 1.17-4.256-.275-.436a11.46 11.46 0 0 1-1.772-6.137c.003-6.359 5.201-11.532 11.593-11.532 1.522.001 3.029.3 4.434.88s2.683 1.432 3.759 2.503a11.5 11.5 0 0 1 2.51 3.744c.581 1.4.88 2.9.88 4.414-.003 6.359-5.201 11.532-11.588 11.532m6.356-8.637c-.348-.173-2.061-1.012-2.38-1.128-.32-.116-.552-.173-.784.174s-.9 1.128-1.103 1.36c-.203.23-.406.26-.755.086-.348-.174-1.47-.54-2.801-1.721-1.036-.92-1.735-2.055-1.938-2.402s-.021-.534.153-.707c.156-.155.348-.405.522-.607.175-.203.232-.348.349-.579s.058-.434-.03-.607c-.087-.174-.783-1.88-1.073-2.574-.283-.676-.57-.585-.784-.596-.203-.01-.436-.012-.668-.012a1.29 1.29 0 0 0-.929.434c-.32.347-1.22 1.186-1.22 2.892 0 1.707 1.25 3.355 1.423 3.587.174.231 2.457 3.733 5.951 5.235q.974.417 1.986.73c.834.264 1.594.226 2.194.137.67-.1 2.061-.838 2.351-1.648s.29-1.504.203-1.649c-.087-.144-.319-.231-.667-.405"/></svg>