<svg xmlns="http://www.w3.org/2000/svg" width="32" height="32" fill="none" viewBox="0 0 32 32"><path d="M16 4.523c3.738 0 4.18.014 5.657.081 1.365.062 2.107.29 2.6.482a4.34 4.34 0 0 1 1.61 1.047 4.3 4.3 0 0 1 1.047 1.61c.192.493.42 1.235.482 2.6.067 1.476.082 1.919.082 5.657s-.015 4.181-.082 5.657c-.062 1.365-.29 2.107-.482 2.6a4.64 4.64 0 0 1-2.657 2.657c-.493.192-1.235.42-2.6.482-1.476.067-1.919.082-5.657.082s-4.181-.015-5.657-.082c-1.365-.062-2.107-.29-2.6-.482a4.34 4.34 0 0 1-1.61-1.047 4.34 4.34 0 0 1-1.047-1.61c-.192-.493-.42-1.235-.482-2.6-.067-1.476-.082-1.919-.082-5.657s.015-4.18.082-5.657c.062-1.365.29-2.106.482-2.6a4.34 4.34 0 0 1 1.047-1.61 4.34 4.34 0 0 1 1.61-1.047c.494-.191 1.235-.42 2.6-.482 1.476-.067 1.919-.081 5.657-.081M16 2c-3.802 0-4.279.016-5.772.084-1.49.068-2.508.305-3.398.651A6.9 6.9 0 0 0 4.35 4.35a6.9 6.9 0 0 0-1.615 2.48c-.346.89-.583 1.908-.65 3.398C2.016 11.72 2 12.198 2 16s.016 4.28.084 5.772c.068 1.49.305 2.508.651 3.399.352.934.903 1.78 1.615 2.48a6.9 6.9 0 0 0 2.48 1.614c.89.346 1.908.583 3.398.651 1.493.068 1.97.084 5.772.084s4.28-.016 5.772-.084c1.49-.068 2.508-.305 3.399-.651a7.16 7.16 0 0 0 4.094-4.094c.346-.891.583-1.909.651-3.399.068-1.493.084-1.97.084-5.772s-.016-4.28-.084-5.772c-.068-1.49-.305-2.508-.651-3.399a6.9 6.9 0 0 0-1.615-2.48 6.9 6.9 0 0 0-2.48-1.614c-.89-.346-1.908-.583-3.398-.65C20.28 2.016 19.802 2 16 2m0 6.81a7.19 7.19 0 1 0 0 14.379 7.19 7.19 0 0 0 0-14.38m0 11.855a4.666 4.666 0 1 1 0-9.331 4.666 4.666 0 0 1 0 9.331m9.153-12.14a1.68 1.68 0 1 1-3.36 0 1.68 1.68 0 0 1 3.36 0"/></svg>