<svg xmlns="http://www.w3.org/2000/svg" width="32" height="32" fill="none" viewBox="0 0 32 32"><path fill="url(#a)" fill-rule="evenodd" d="M29.998 22.895c0 .153-.005.485-.014.742-.023.629-.072 1.44-.148 1.809a6 6 0 0 1-.507 1.515 5.4 5.4 0 0 1-2.375 2.373 6 6 0 0 1-1.524.507c-.366.074-1.17.123-1.795.145-.257.01-.59.014-.743.014l-13.787-.002c-.153 0-.485-.005-.742-.014-.629-.023-1.44-.072-1.809-.148a6 6 0 0 1-1.515-.507 5.4 5.4 0 0 1-2.373-2.375 6 6 0 0 1-.507-1.524c-.074-.366-.123-1.17-.145-1.795-.01-.257-.014-.59-.014-.743l.002-13.787c0-.153.005-.485.014-.742.023-.629.072-1.44.148-1.809A6 6 0 0 1 2.67 5.04a5.4 5.4 0 0 1 2.375-2.373 6 6 0 0 1 1.524-.507c.366-.074 1.17-.123 1.795-.145.257-.01.59-.014.743-.014l13.787.002c.153 0 .485.005.742.014.629.023 1.44.072 1.809.148a6 6 0 0 1 1.515.507 5.4 5.4 0 0 1 2.373 2.375c.236.483.407.996.507 1.524.074.366.123 1.17.145 1.795.01.257.014.59.014.743z" clip-rule="evenodd"/><path fill="#fff" fill-rule="evenodd" d="M23.94 8.906a10.4 10.4 0 0 0-3.39-2.155A10.9 10.9 0 0 0 16.543 6C10.781 6 6.09 10.446 6.088 15.91a9.5 9.5 0 0 0 1.396 4.954L6 26l5.543-1.378a10.9 10.9 0 0 0 4.997 1.206h.004c5.763 0 10.454-4.446 10.456-9.91a9.4 9.4 0 0 0-.79-3.796 9.8 9.8 0 0 0-2.27-3.216m-7.396 15.249h-.004a9.04 9.04 0 0 1-4.423-1.149l-.317-.178-3.29.818.878-3.04-.206-.312a7.9 7.9 0 0 1-1.329-4.383c.002-4.542 3.9-8.237 8.695-8.237 1.14 0 2.27.214 3.325.628a8.7 8.7 0 0 1 2.819 1.788 8.2 8.2 0 0 1 1.883 2.674c.436 1 .66 2.071.66 3.153-.002 4.542-3.901 8.238-8.691 8.238m4.767-6.17c-.261-.123-1.546-.723-1.785-.805-.24-.083-.414-.124-.588.123-.174.248-.675.806-.827.971-.152.166-.305.186-.566.062-.261-.123-1.103-.385-2.101-1.229-.777-.656-1.301-1.467-1.454-1.715-.152-.248-.016-.382.115-.506.117-.11.261-.289.392-.433.13-.145.174-.248.26-.414.088-.165.044-.31-.02-.433-.066-.124-.588-1.343-.806-1.839-.212-.483-.428-.418-.588-.425a11 11 0 0 0-.5-.009 1 1 0 0 0-.383.086 1 1 0 0 0-.314.224c-.24.248-.915.847-.915 2.066s.936 2.396 1.067 2.561 1.842 2.667 4.463 3.74q.73.297 1.49.521c.625.189 1.194.162 1.645.098.502-.07 1.545-.599 1.763-1.177s.218-1.074.153-1.178c-.066-.103-.24-.165-.501-.289" clip-rule="evenodd"/><defs><linearGradient id="a" x1="16" x2="16" y1="30" y2="2" gradientUnits="userSpaceOnUse"><stop stop-color="#25CF43"/><stop offset="1" stop-color="#61FD7D"/></linearGradient></defs></svg>