<svg xmlns="http://www.w3.org/2000/svg" width="32" height="32" fill="none" viewBox="0 0 32 32"><path fill="url(#a)" fill-rule="evenodd" d="M2 12.433c0 2.53 1.376 4.841 3.503 6.372q.282.187.282.562c0 .062-.032.156-.032.218-.156.625-.437 1.656-.469 1.687-.031.094-.062.156-.062.25 0 .187.156.344.344.344.062 0 .125-.032.187-.063l2.221-1.28c.156-.094.344-.157.532-.157.094 0 .219 0 .313.032 1.032.312 2.158.468 3.315.468 5.599 0 10.134-3.78 10.134-8.433S17.733 4 12.134 4 2 7.78 2 12.433" clip-rule="evenodd"/><path fill="url(#b)" fill-rule="evenodd" d="M21.576 25.829c.967 0 1.903-.126 2.746-.378.062-.031.155-.031.25-.031.155 0 .311.063.436.126l1.84 1.07c.063.031.094.063.157.063a.28.28 0 0 0 .28-.284c0-.063-.03-.126-.03-.22 0-.031-.25-.881-.375-1.416-.031-.063-.031-.126-.031-.189 0-.189.093-.346.25-.472 1.778-1.29 2.901-3.21 2.901-5.35 0-3.902-3.775-7.08-8.424-7.08-4.65 0-8.425 3.147-8.425 7.08 0 3.903 3.776 7.08 8.425 7.08" clip-rule="evenodd"/><path fill="#168743" fill-rule="evenodd" d="M10.058 9.71c0 .729-.575 1.306-1.302 1.306A1.294 1.294 0 0 1 7.454 9.71c0-.728.575-1.305 1.302-1.305s1.302.577 1.302 1.305M16.814 9.71c0 .729-.575 1.306-1.302 1.306a1.294 1.294 0 0 1-1.303-1.306c0-.728.576-1.305 1.303-1.305s1.302.577 1.302 1.305" clip-rule="evenodd"/><path fill="#919191" fill-rule="evenodd" d="M23.326 16.563c0 .634.506 1.142 1.14 1.142.632 0 1.139-.508 1.139-1.142 0-.635-.507-1.142-1.14-1.142s-1.14.507-1.14 1.142M17.71 16.563c0 .634.506 1.142 1.139 1.142s1.14-.508 1.14-1.142c0-.635-.507-1.142-1.14-1.142s-1.14.507-1.14 1.142" clip-rule="evenodd"/><defs><linearGradient id="a" x1="29.136" x2="29.136" y1="25.352" y2="4.099" gradientUnits="userSpaceOnUse"><stop stop-color="#05CD66"/><stop offset="1" stop-color="#61F380"/><stop offset="1" stop-color="#9EEE69"/></linearGradient><linearGradient id="b" x1="29.125" x2="29.125" y1="25.212" y2="3.992" gradientUnits="userSpaceOnUse"><stop stop-color="#E4E6E6"/><stop offset="1" stop-color="#F0F0F0"/></linearGradient></defs></svg>