<svg xmlns="http://www.w3.org/2000/svg" width="32" height="32" fill="none" viewBox="0 0 32 32"><path fill="#1B9DF0" d="M16 29c7.18 0 13-5.82 13-13S23.18 3 16 3 3 8.82 3 16s5.82 13 13 13Z"/><path fill="#fff" d="M13.62 22.858c5.766 0 8.919-4.778 8.919-8.918 0-.137 0-.273-.007-.403a6.421 6.421 0 0 0 1.567-1.625 6.362 6.362 0 0 1-1.8.494 3.133 3.133 0 0 0 1.377-1.736 6.347 6.347 0 0 1-1.989.76 3.135 3.135 0 0 0-5.337 2.86 8.891 8.891 0 0 1-6.46-3.275 3.144 3.144 0 0 0-.423 1.573 3.12 3.12 0 0 0 1.398 2.606 3.079 3.079 0 0 1-1.417-.39v.04a3.138 3.138 0 0 0 2.515 3.074 3.125 3.125 0 0 1-1.417.052 3.13 3.13 0 0 0 2.925 2.177 6.3 6.3 0 0 1-4.64 1.294 8.732 8.732 0 0 0 4.79 1.417Z"/></svg>