<svg xmlns="http://www.w3.org/2000/svg" width="32" height="32" viewBox="0 0 32 32"><path d="m10.75 25.19 4.72-4.72a.75.75 0 0 1 1.061-.001.75.75 0 0 1 0 1.061l-6 6a.75.75 0 0 1-1.061 0l-6-6a.75.75 0 1 1 1.06-1.06l4.72 4.72V5a.75.75 0 1 1 1.5 0zm3.5-8.19a.75.75 0 0 1 .75-.75h3a.75.75 0 0 1 0 1.5h-3a.75.75 0 0 1-.75-.75m.75-4.75a.75.75 0 0 0 0 1.5h6a.75.75 0 0 0 0-1.5zM14.25 9a.75.75 0 0 1 .75-.75h10a.75.75 0 0 1 0 1.5H15a.75.75 0 0 1-.75-.75M15 4.25a.75.75 0 0 0 0 1.5h13a.75.75 0 0 0 0-1.5z"/></svg>