<svg xmlns="http://www.w3.org/2000/svg" width="32" height="32" viewBox="0 0 32 32"><path d="M7.85 1.85a.47.47 0 0 0-.465.387c-.214 1.18-.369 2.029-.554 2.672-.183.637-.38 1.014-.644 1.278-.263.264-.64.46-1.278.644-.643.185-1.492.34-2.671.554a.472.472 0 0 0 0 .93c1.179.214 2.028.369 2.671.553.638.183 1.015.38 1.278.644s.461.64.644 1.278c.185.643.34 1.493.554 2.672a.472.472 0 0 0 .93 0c.214-1.18.37-2.029.554-2.672.183-.637.38-1.014.644-1.278.264-.263.64-.46 1.278-.644.643-.184 1.492-.34 2.671-.554a.472.472 0 0 0 0-.93c-1.179-.213-2.028-.368-2.671-.553-.638-.183-1.014-.38-1.278-.644s-.461-.64-.644-1.278c-.185-.643-.34-1.493-.554-2.672a.47.47 0 0 0-.465-.387m-.002 2.907.002-.007.002.008zm-.003.014.005.002-.006.001zm-.106.399q.05-.176.098-.367l.025-.006q.048.195.099.373c.202.704.457 1.258.884 1.685s.98.682 1.685.884q.2.057.42.11-.22.055-.42.111c-.704.203-1.258.457-1.685.884-.427.428-.682.981-.884 1.686q-.057.198-.11.42a11 11 0 0 0-.112-.42c-.202-.705-.456-1.258-.884-1.686-.427-.427-.98-.681-1.685-.884a10 10 0 0 0-.367-.097l-.006-.025q.196-.048.373-.1c.705-.201 1.258-.456 1.685-.883s.682-.98.884-1.685M4.772 7.844l.003.012-.025-.006zM18.69 11.964a.195.195 0 0 0-.38 0q-.147.643-.304 1.192c-.392 1.363-.874 2.397-1.664 3.186s-1.823 1.273-3.186 1.664q-.55.157-1.192.304a.195.195 0 0 0 0 .38q.643.147 1.192.304c1.363.392 2.397.874 3.186 1.664s1.273 1.823 1.664 3.186q.157.55.304 1.192a.195.195 0 0 0 .38 0q.147-.642.304-1.192c.392-1.363.874-2.397 1.664-3.186s1.823-1.273 3.186-1.664q.55-.157 1.192-.304a.195.195 0 0 0 0-.38q-.642-.147-1.192-.304c-1.363-.392-2.397-.874-3.186-1.664s-1.273-1.823-1.664-3.186a23 23 0 0 1-.304-1.192M18.5 7a.64.64 0 0 1 .63.526c.42 2.31.727 3.996 1.095 5.276.365 1.273.77 2.067 1.338 2.635s1.362.973 2.635 1.338c1.28.368 2.966.675 5.276 1.095a.64.64 0 0 1 0 1.26c-2.31.42-3.996.727-5.276 1.095-1.273.365-2.067.77-2.635 1.338s-.973 1.362-1.338 2.635c-.368 1.28-.675 2.966-1.095 5.276a.64.64 0 0 1-1.26 0c-.42-2.31-.727-3.996-1.095-5.276-.365-1.273-.77-2.067-1.338-2.635s-1.362-.973-2.635-1.338c-1.28-.368-2.966-.675-5.276-1.095a.64.64 0 0 1 0-1.26c2.31-.42 3.996-.727 5.276-1.095 1.273-.365 2.067-.77 2.635-1.338s.973-1.362 1.338-2.635c.368-1.28.675-2.966 1.095-5.276A.64.64 0 0 1 18.5 7"/></svg>