<svg xmlns="http://www.w3.org/2000/svg" width="32" height="32" viewBox="0 0 32 32"><path d="M18.5 7c.206 0 .382.147.42.35.427 2.351.742 4.083 1.12 5.402.378 1.314.805 2.166 1.423 2.785.619.618 1.47 1.045 2.785 1.422 1.319.379 3.051.694 5.402 1.122a.426.426 0 0 1 0 .838c-2.351.428-4.083.743-5.402 1.122-1.314.377-2.166.804-2.785 1.422-.618.619-1.045 1.47-1.422 2.785-.379 1.319-.694 3.051-1.122 5.402a.426.426 0 0 1-.838 0c-.428-2.351-.743-4.083-1.122-5.402-.377-1.314-.804-2.166-1.422-2.785-.619-.618-1.47-1.045-2.785-1.422-1.319-.379-3.051-.694-5.402-1.122a.426.426 0 0 1 0-.838c2.351-.428 4.083-.743 5.402-1.122 1.314-.377 2.166-.804 2.785-1.422.618-.619 1.045-1.47 1.422-2.785.379-1.319.694-3.051 1.122-5.402A.426.426 0 0 1 18.5 7m0 2.773c-.242 1.27-.468 2.328-.722 3.214-.395 1.375-.873 2.386-1.639 3.152s-1.777 1.244-3.152 1.639c-.886.255-1.945.48-3.214.722 1.27.242 2.328.468 3.214.722 1.375.395 2.386.873 3.152 1.639s1.244 1.777 1.639 3.152c.255.886.48 1.945.722 3.214.242-1.27.468-2.328.722-3.214.395-1.375.873-2.386 1.639-3.152s1.777-1.244 3.152-1.639c.886-.255 1.945-.48 3.214-.722-1.27-.242-2.328-.468-3.214-.722-1.375-.395-2.386-.873-3.152-1.639s-1.244-1.777-1.639-3.152c-.255-.886-.48-1.945-.722-3.214M7.85 1.85a.36.36 0 0 0-.357.298c-.218 1.2-.378 2.073-.568 2.736-.189.658-.397 1.064-.687 1.354s-.695.498-1.354.687c-.663.19-1.536.35-2.736.567a.363.363 0 0 0 0 .715c1.2.218 2.073.377 2.736.568.659.189 1.065.397 1.354.686s.498.696.687 1.355c.19.662.35 1.536.568 2.735a.363.363 0 0 0 .714 0c.219-1.2.378-2.073.568-2.735.19-.659.397-1.065.687-1.355s.696-.497 1.354-.686c.663-.19 1.536-.35 2.736-.568a.363.363 0 0 0 0-.715c-1.2-.218-2.073-.377-2.736-.567-.658-.19-1.065-.398-1.354-.687s-.498-.696-.687-1.354c-.19-.663-.35-1.536-.568-2.736a.36.36 0 0 0-.357-.298m-.227 3.234q.119-.415.227-.931.108.516.227.931c.204.71.456 1.252.871 1.667s.958.668 1.668.872c.277.08.586.153.931.227q-.517.109-.931.226c-.71.204-1.253.457-1.668.872s-.667.957-.871 1.667q-.119.416-.227.931a14 14 0 0 0-.227-.93c-.204-.71-.456-1.253-.871-1.668s-.957-.668-1.668-.872a14 14 0 0 0-.93-.226q.515-.11.93-.227c.71-.204 1.253-.456 1.668-.872.415-.415.667-.957.871-1.667"/></svg>