<svg xmlns="http://www.w3.org/2000/svg" width="32" height="32" viewBox="0 0 32 32"><path d="M21.273 10.813a.999.999 0 0 0 .04 1.413A5.145 5.145 0 0 1 23 15.995a5.212 5.212 0 0 1-1.687 3.778 1 1 0 1 0 1.374 1.453 7.064 7.064 0 0 0 0-10.453 1 1 0 0 0-1.414.04ZM17.075 3.115a1.493 1.493 0 0 0-1.62.31L8.598 10H5a3.003 3.003 0 0 0-3 3v6a3.003 3.003 0 0 0 3 3h3.598l6.841 6.56A1.5 1.5 0 0 0 18 27.498V4.5a1.496 1.496 0 0 0-.925-1.386ZM16 26.325l-6.308-6.047A.998.998 0 0 0 9 20H5a1.001 1.001 0 0 1-1-1v-6a1.001 1.001 0 0 1 1-1h4c.258 0 .506-.1.692-.279L16 5.672v20.654Z"/><path d="M27.02 9.272a1 1 0 0 0-1.373 1.455A7.184 7.184 0 0 1 28 15.995a7.281 7.281 0 0 1-2.354 5.278 1 1 0 1 0 1.374 1.453A9.263 9.263 0 0 0 30 16.004a9.165 9.165 0 0 0-2.98-6.732Z"/></svg>