<svg xmlns="http://www.w3.org/2000/svg" width="32" height="32" viewBox="0 0 32 32"><path d="M6 14.6v2.8a.6.6 0 0 0 .6.6h2.986a1 1 0 0 1 .707.293L14 22V10l-3.707 3.707a1 1 0 0 1-.707.293H6.6a.6.6 0 0 0-.6.6M16.979 3.346a1.24 1.24 0 0 0-1.352.26L8.7 10.249H5A2.75 2.75 0 0 0 2.25 13v6A2.753 2.753 0 0 0 5 21.75h3.699l6.917 6.633a1.25 1.25 0 0 0 2.134-.884V4.5a1.25 1.25 0 0 0-.771-1.154m-.729 23.567-6.731-6.454a.75.75 0 0 0-.519-.21H5A1.25 1.25 0 0 1 3.75 19v-6A1.25 1.25 0 0 1 5 11.75h4c.193 0 .38-.075.519-.209l6.731-6.454zM21.455 10.985a.75.75 0 0 0 .03 1.06 5.4 5.4 0 0 1 1.765 3.952 5.46 5.46 0 0 1-1.765 3.958.75.75 0 1 0 1.03 1.09 6.95 6.95 0 0 0 2.235-5.043 6.87 6.87 0 0 0-2.235-5.047.747.747 0 0 0-1.06.03M26.6 9.298a.8.8 0 0 1 .249.157 8.91 8.91 0 0 1 2.901 6.548 9.01 9.01 0 0 1-2.901 6.541.748.748 0 0 1-1.218-.276.75.75 0 0 1 .187-.813 7.53 7.53 0 0 0 2.432-5.46 7.43 7.43 0 0 0-2.432-5.45.748.748 0 0 1 .208-1.231.75.75 0 0 1 .575-.016"/></svg>