<svg xmlns="http://www.w3.org/2000/svg" width="32" height="32" viewBox="0 0 32 32"><path d="m25.708 16 3.646-3.647a.5.5 0 1 0-.707-.707l-3.646 3.647-3.647-3.647a.5.5 0 0 0-.707.707l3.647 3.646-3.647 3.647a.498.498 0 0 0 .16.82.5.5 0 0 0 .547-.113L25 16.706l3.647 3.647a.5.5 0 0 0 .707-.707zM16.883 3.577a1 1 0 0 0-1.082.209L8.8 10.499H5A2.5 2.5 0 0 0 2.5 13v6A2.5 2.5 0 0 0 5 21.5h3.8l6.993 6.706a1 1 0 0 0 1.707-.706V4.5a1 1 0 0 0-.617-.924m-.39 23.914-7.147-6.853A.5.5 0 0 0 9 20.5H5A1.5 1.5 0 0 1 3.5 19v-6A1.5 1.5 0 0 1 5 11.5h4a.5.5 0 0 0 .346-.138L16.5 4.5z"/></svg>