<svg xmlns="http://www.w3.org/2000/svg" width="32" height="32" viewBox="0 0 32 32"><path d="m16.25 26.913-6.731-6.454a.751.751 0 0 0-.519-.21H5A1.251 1.251 0 0 1 3.75 19v-6A1.251 1.251 0 0 1 5 11.75h3.57l-1.5-1.5H5A2.753 2.753 0 0 0 2.25 13v6A2.753 2.753 0 0 0 5 21.75h3.699l6.917 6.633a1.25 1.25 0 0 0 2.134-.884v-6.57l-1.5-1.499v7.484ZM29.53 28.47l-7.228-7.23.214-.195a6.949 6.949 0 0 0 2.235-5.043 6.872 6.872 0 0 0-2.236-5.047.75.75 0 1 0-1.03 1.09 5.39 5.39 0 0 1 1.765 3.95 5.46 5.46 0 0 1-1.755 3.95l-.255.233-3.49-3.49V4.501a1.25 1.25 0 0 0-2.123-.895l-5.595 5.365L3.53 2.469a.75.75 0 1 0-1.06 1.06l26 26a.75.75 0 1 0 1.06-1.06ZM16.25 5.085V15.19l-5.157-5.157 5.157-4.946Z"/><path d="M28.25 15.997a7.525 7.525 0 0 1-2.432 5.458.75.75 0 1 0 1.031 1.09 9.01 9.01 0 0 0 2.9-6.542 8.913 8.913 0 0 0-2.9-6.548.749.749 0 1 0-1.03 1.09 7.435 7.435 0 0 1 2.43 5.452Z"/></svg>