<svg xmlns="http://www.w3.org/2000/svg" width="32" height="32" viewBox="0 0 32 32"><path d="M21.273 10.813a1 1 0 0 0 .04 1.413A5.15 5.15 0 0 1 23 15.995a5.21 5.21 0 0 1-1.687 3.778 1 1 0 1 0 1.374 1.453 7.064 7.064 0 0 0 0-10.453 1 1 0 0 0-1.414.04M17.075 3.115a1.49 1.49 0 0 0-1.62.31L8.598 10H5a3.003 3.003 0 0 0-3 3v6a3.003 3.003 0 0 0 3 3h3.598l6.841 6.56A1.5 1.5 0 0 0 18 27.498V4.5a1.5 1.5 0 0 0-.925-1.386M16 26.325l-6.308-6.047A1 1 0 0 0 9 20H5a1 1 0 0 1-1-1v-6a1 1 0 0 1 1-1h4c.258 0 .506-.1.692-.279L16 5.672zM27.02 9.272a1 1 0 0 0-1.373 1.455A7.18 7.18 0 0 1 28 15.995a7.28 7.28 0 0 1-2.354 5.278 1 1 0 1 0 1.374 1.453A9.26 9.26 0 0 0 30 16.004a9.16 9.16 0 0 0-2.98-6.732"/></svg>