<svg xmlns="http://www.w3.org/2000/svg" width="32" height="32" viewBox="0 0 32 32"><path d="M25.789 22.709a1 1 0 0 0 1.413-.004A9.53 9.53 0 0 0 30 15.995a9.38 9.38 0 0 0-2.75-6.7 1 1 0 1 0-1.419 1.41 7.4 7.4 0 0 1 2.17 5.28 7.54 7.54 0 0 1-2.216 5.31 1 1 0 0 0 .003 1.413M6.266 10.5H5A2.5 2.5 0 0 0 2.5 13v6A2.503 2.503 0 0 0 5 21.5h3.799l6.993 6.706a1 1 0 0 0 1.707-.707v-5.766zM22.663 21.248l.046-.043A7.78 7.78 0 0 0 25 16.018a7.83 7.83 0 0 0-2.29-5.224 1.001 1.001 0 0 0-1.71.703 1 1 0 0 0 .291.708 5.93 5.93 0 0 1 1.71 3.813 5.77 5.77 0 0 1-1.687 3.754l-.066.062-3.749-3.75V4.502a1 1 0 0 0-1.699-.715L10.39 8.975 3.707 2.293a1 1 0 0 0-1.414 1.414l26 26a1 1 0 0 0 1.415-1.415z"/></svg>