<svg xmlns="http://www.w3.org/2000/svg" width="32" height="32" viewBox="0 0 32 32"><path d="m16.493 27.49-7.147-6.852A.5.5 0 0 0 9 20.5H5A1.5 1.5 0 0 1 3.5 19v-6A1.5 1.5 0 0 1 5 11.5h4.376l-.997-1H5A2.503 2.503 0 0 0 2.5 13v6A2.5 2.5 0 0 0 5 21.5h3.799l6.993 6.706a1 1 0 0 0 1.707-.707V19.62l-1.004-1.004zM29.354 28.646l-7.414-7.414.404-.37a6.7 6.7 0 0 0 2.156-4.86 6.63 6.63 0 0 0-2.156-4.866.501.501 0 1 0-.687.727 5.64 5.64 0 0 1 1.843 4.134 5.7 5.7 0 0 1-1.837 4.133l-.43.395-3.733-3.733V4.5a1 1 0 0 0-1.7-.715L10.028 9.32 3.353 2.646a.5.5 0 0 0-.707.707l26 26a.5.5 0 0 0 .708-.707M10.736 10.028 16.5 4.501l-.004 11.288zM25.97 22.343a.5.5 0 0 0 .707.02 8.76 8.76 0 0 0 2.822-6.361 8.66 8.66 0 0 0-2.822-6.366.5.5 0 0 0-.687.727 7.68 7.68 0 0 1 2.51 5.635 7.77 7.77 0 0 1-2.51 5.638.5.5 0 0 0-.02.707"/></svg>