<svg xmlns="http://www.w3.org/2000/svg" width="32" height="32" viewBox="0 0 32 32"><path d="M5.5 14.3v3.4a.8.8 0 0 0 .8.8h2.954a1.8 1.8 0 0 1 1.273.527L14.5 23V9l-3.973 3.973a1.8 1.8 0 0 1-1.273.527H6.3a.8.8 0 0 0-.8.8M16.883 3.577a1 1 0 0 0-1.083.209L8.8 10.5H5A2.503 2.503 0 0 0 2.5 13v6A2.503 2.503 0 0 0 5 21.5h3.799l6.994 6.706a1 1 0 0 0 1.707-.707V4.5a1 1 0 0 0-.617-.924m-.39 23.914-7.147-6.852a.5.5 0 0 0-.346-.14H5A1.5 1.5 0 0 1 3.5 19v-6A1.5 1.5 0 0 1 5 11.5h4c.129 0 .253-.049.346-.138l7.154-6.86zM21.637 11.156a.5.5 0 0 0 .02.707 5.64 5.64 0 0 1 1.843 4.135 5.7 5.7 0 0 1-1.843 4.139.5.5 0 1 0 .686.726 6.7 6.7 0 0 0 2.157-4.861 6.63 6.63 0 0 0-2.157-4.865.5.5 0 0 0-.706.02M26.512 9.533a.5.5 0 0 1 .165.104 8.67 8.67 0 0 1 2.823 6.365 8.77 8.77 0 0 1-2.823 6.361.5.5 0 0 1-.687-.726 7.78 7.78 0 0 0 2.51-5.64 7.68 7.68 0 0 0-2.51-5.634.501.501 0 0 1 .33-.863.5.5 0 0 1 .192.033"/></svg>