<svg xmlns="http://www.w3.org/2000/svg" width="32" height="32" viewBox="0 0 32 32"><path d="m26.415 16 3.293-3.293a1 1 0 0 0-1.414-1.415L25 14.585l-3.293-3.293a1 1 0 0 0-1.414 1.415L23.586 16l-3.293 3.293a1 1 0 0 0 1.415 1.414L25 17.414l3.293 3.293a1 1 0 1 0 1.414-1.414L26.415 16ZM17.075 3.115a1.485 1.485 0 0 0-1.62.31L8.598 10H5a3.003 3.003 0 0 0-3 3v6a3.003 3.003 0 0 0 3 3h3.598l6.841 6.558A1.499 1.499 0 0 0 18 27.498V4.502a1.497 1.497 0 0 0-.925-1.386ZM16 26.325l-6.307-6.047A1 1 0 0 0 9 20H5a1 1 0 0 1-1-1v-6a1 1 0 0 1 1-1h4c.259 0 .507-.1.693-.279L16 5.672v20.654Z"/></svg>