<svg xmlns="http://www.w3.org/2000/svg" width="32" height="32" fill="none" viewBox="0 0 32 32"><path fill="#0F0F0F" d="M21.637 11.156a.5.5 0 0 0 .02.707 5.639 5.639 0 0 1 1.843 4.135 5.708 5.708 0 0 1-1.843 4.138.5.5 0 1 0 .686.727 6.697 6.697 0 0 0 2.157-4.861 6.627 6.627 0 0 0-2.157-4.866.5.5 0 0 0-.706.02ZM16.883 3.577a.997.997 0 0 0-1.083.209L8.8 10.499H5A2.503 2.503 0 0 0 2.5 13v6A2.502 2.502 0 0 0 5 21.5h3.799l6.994 6.707a1 1 0 0 0 1.707-.707V4.5a.999.999 0 0 0-.617-.924Zm-.39 23.914-7.147-6.853A.503.503 0 0 0 9 20.5H5A1.502 1.502 0 0 1 3.5 19v-6A1.502 1.502 0 0 1 5 11.5h4c.129 0 .253-.05.346-.138L16.5 4.5l-.007 22.99ZM26.677 9.636a.5.5 0 0 0-.687.727 7.68 7.68 0 0 1 2.51 5.635 7.778 7.778 0 0 1-2.51 5.638.5.5 0 0 0 .687.727 8.768 8.768 0 0 0 2.823-6.361 8.669 8.669 0 0 0-2.823-6.366Z"/><path fill="#27A17A" d="M5.5 17.7v-3.4a.8.8 0 0 1 .8-.8h2.954a1.8 1.8 0 0 0 1.273-.527L14.5 9v14l-3.973-3.973a1.8 1.8 0 0 0-1.273-.527H6.3a.8.8 0 0 1-.8-.8Z"/></svg>