<svg xmlns="http://www.w3.org/2000/svg" width="32" height="32" viewBox="0 0 32 32"><path d="M28.998 15.5H25.5V12a.5.5 0 0 0-1 0v3.5h-3.502a.5.5 0 1 0 0 1H24.5V20a.5.5 0 1 0 1 0v-3.5h3.498a.5.5 0 1 0 0-1ZM16.883 3.577a.997.997 0 0 0-1.082.209L8.8 10.499H5A2.502 2.502 0 0 0 2.5 13v6A2.502 2.502 0 0 0 5 21.5h3.8l6.992 6.706a1 1 0 0 0 1.708-.706V4.5a.998.998 0 0 0-.617-.924Zm-.39 23.914-7.147-6.853A.5.5 0 0 0 9 20.5H5A1.502 1.502 0 0 1 3.5 19v-6A1.502 1.502 0 0 1 5 11.5h4a.5.5 0 0 0 .346-.138L16.5 4.5l-.007 22.99Z"/></svg>