<svg xmlns="http://www.w3.org/2000/svg" width="32" height="32" viewBox="0 0 32 32"><path d="M28.999 15.25H25.75V12a.75.75 0 0 0-1.5 0v3.25h-3.253a.75.75 0 0 0 0 1.5h3.252V20a.75.75 0 1 0 1.5 0v-3.25H29a.75.75 0 0 0 0-1.5M16.979 3.346a1.24 1.24 0 0 0-1.352.26L8.7 10.249H5A2.753 2.753 0 0 0 2.25 13v6A2.753 2.753 0 0 0 5 21.75H8.7l6.917 6.632a1.25 1.25 0 0 0 2.134-.882V4.5a1.25 1.25 0 0 0-.771-1.155m-.729 23.567-6.73-6.454a.75.75 0 0 0-.52-.21H5A1.25 1.25 0 0 1 3.75 19v-6A1.25 1.25 0 0 1 5 11.75h4c.194 0 .38-.075.52-.209l6.73-6.454z"/></svg>