<svg xmlns="http://www.w3.org/2000/svg" width="32" height="32" viewBox="0 0 32 32"><path d="m16 26.326-6.308-6.048A1 1 0 0 0 9 20H5a1 1 0 0 1-1-1v-6a1 1 0 0 1 1-1h2.758l-2-2H5a3.003 3.003 0 0 0-3 3v6a3.003 3.003 0 0 0 3 3h3.598l6.841 6.56a1.499 1.499 0 0 0 2.56-1.061V22.24l-1.999-2zM29.708 28.293l-7.044-7.044A7.27 7.27 0 0 0 25 16.004a7.12 7.12 0 0 0-2.313-5.231 1 1 0 1 0-1.373 1.453 5.15 5.15 0 0 1 1.687 3.769 5.42 5.42 0 0 1-1.75 3.841L18 16.585V4.5a1.499 1.499 0 0 0-2.545-1.076l-5.42 5.196-6.328-6.328a1 1 0 1 0-1.414 1.414l26 26a1 1 0 0 0 1.415-1.415M11.45 10.035 16 5.672v8.913zM28 15.996a7.28 7.28 0 0 1-2.353 5.277 1 1 0 1 0 1.373 1.453 9.083 9.083 0 0 0 0-13.454 1 1 0 0 0-1.373 1.455A7.18 7.18 0 0 1 28 15.996"/></svg>