<svg xmlns="http://www.w3.org/2000/svg" width="32" height="32" viewBox="0 0 32 32"><path d="M27.25 9.294a1 1 0 1 0-1.418 1.41A7.393 7.393 0 0 1 28 15.988a7.535 7.535 0 0 1-2.215 5.307 1 1 0 1 0 1.419 1.41A9.527 9.527 0 0 0 30 15.995a9.372 9.372 0 0 0-2.75-6.7ZM21.295 10.79a1 1 0 0 0-.004 1.415A5.928 5.928 0 0 1 23 16.018a5.788 5.788 0 0 1-1.709 3.776 1 1 0 1 0 1.418 1.41A7.777 7.777 0 0 0 25 16.019a7.83 7.83 0 0 0-2.291-5.224.998.998 0 0 0-1.414-.003ZM16.883 3.577a.997.997 0 0 0-1.083.209L8.8 10.5H5A2.503 2.503 0 0 0 2.5 13v6A2.503 2.503 0 0 0 5 21.5h3.799l6.994 6.706a1 1 0 0 0 1.707-.707V4.5a.999.999 0 0 0-.617-.924Z"/></svg>