<svg xmlns="http://www.w3.org/2000/svg" width="32" height="32" viewBox="0 0 32 32"><path d="M21.637 11.156a.5.5 0 0 0 .02.707 5.64 5.64 0 0 1 1.843 4.135 5.7 5.7 0 0 1-1.843 4.138.5.5 0 1 0 .686.727 6.7 6.7 0 0 0 2.157-4.861 6.63 6.63 0 0 0-2.157-4.866.5.5 0 0 0-.706.02M16.883 3.577a1 1 0 0 0-1.083.209L8.8 10.499H5A2.503 2.503 0 0 0 2.5 13v6A2.5 2.5 0 0 0 5 21.5h3.799l6.994 6.707a1 1 0 0 0 1.707-.707V4.5a1 1 0 0 0-.617-.924m-.39 23.914-7.147-6.853A.5.5 0 0 0 9 20.5H5A1.5 1.5 0 0 1 3.5 19v-6A1.5 1.5 0 0 1 5 11.5h4c.129 0 .253-.05.346-.138L16.5 4.5zM26.677 9.636a.5.5 0 0 0-.687.727 7.68 7.68 0 0 1 2.51 5.635 7.78 7.78 0 0 1-2.51 5.638.5.5 0 0 0 .687.727 8.77 8.77 0 0 0 2.823-6.361 8.67 8.67 0 0 0-2.823-6.366"/></svg>