<svg xmlns="http://www.w3.org/2000/svg" width="32" height="32" fill="none" viewBox="0 0 32 32"><path fill="#0F0F0F" d="M21.455 10.985a.75.75 0 0 0 .03 1.06 5.393 5.393 0 0 1 1.765 3.952 5.458 5.458 0 0 1-1.765 3.958.752.752 0 0 0-.03 1.06.75.75 0 0 0 1.06.03 6.947 6.947 0 0 0 2.235-5.043 6.875 6.875 0 0 0-2.235-5.047.747.747 0 0 0-1.06.03ZM16.979 3.346a1.24 1.24 0 0 0-1.352.26L8.7 10.25H5A2.753 2.753 0 0 0 2.25 13v6A2.753 2.753 0 0 0 5 21.75h3.699l6.917 6.632a1.25 1.25 0 0 0 2.134-.883V4.5a1.247 1.247 0 0 0-.771-1.155Zm-.729 23.567-6.731-6.454a.751.751 0 0 0-.519-.21H5A1.251 1.251 0 0 1 3.75 19v-6A1.251 1.251 0 0 1 5 11.75h4a.75.75 0 0 0 .519-.209l6.731-6.454v21.827ZM26.849 9.455a.75.75 0 1 0-1.03 1.09 7.43 7.43 0 0 1 2.431 5.45 7.53 7.53 0 0 1-2.432 5.46.748.748 0 0 0 .208 1.23.75.75 0 0 0 .823-.14 9.013 9.013 0 0 0 2.901-6.542 8.916 8.916 0 0 0-2.901-6.548Z"/><path fill="#27A17A" d="M6 17.4v-2.8a.6.6 0 0 1 .6-.6h2.986a1 1 0 0 0 .707-.293L14 10v12l-3.707-3.707A1 1 0 0 0 9.586 18H6.6a.6.6 0 0 1-.6-.6Z"/></svg>