<svg xmlns="http://www.w3.org/2000/svg" width="32" height="32" viewBox="0 0 32 32"><path d="M6.5 14.9v2.2c0 .22.18.4.4.4h2.603a1.2 1.2 0 0 1 .848.352L14 21.5v-11l-3.649 3.649a1.2 1.2 0 0 1-.848.351H6.9a.4.4 0 0 0-.4.4M17.075 3.115a1.49 1.49 0 0 0-1.62.31L8.598 10H5a3.003 3.003 0 0 0-3 3v6a3.003 3.003 0 0 0 3 3h3.598l6.841 6.56A1.5 1.5 0 0 0 18 27.499V4.5a1.5 1.5 0 0 0-.925-1.385M16 26.325l-6.308-6.047A1 1 0 0 0 9 19.999H5a1 1 0 0 1-1-1v-6a1 1 0 0 1 1-1h4c.258 0 .506-.1.692-.278L16 5.672zM21.273 10.813a1 1 0 0 0 .04 1.413A5.15 5.15 0 0 1 23 15.994a5.21 5.21 0 0 1-1.687 3.779 1.001 1.001 0 1 0 1.374 1.453 7.06 7.06 0 0 0 0-10.453 1 1 0 0 0-1.414.04M26.305 9.002a1 1 0 0 1 .715.27A9.17 9.17 0 0 1 30 16.004a9.26 9.26 0 0 1-2.98 6.722 1 1 0 1 1-1.373-1.453A7.28 7.28 0 0 0 28 15.994a7.18 7.18 0 0 0-2.353-5.267A1 1 0 0 1 26.305 9"/></svg>