<svg xmlns="http://www.w3.org/2000/svg" width="32" height="32" viewBox="0 0 32 32"><path d="M22.305 30C19.758 30 15 25.893 15 16c0-9.894 4.758-14 7.305-14h1.466A3.232 3.232 0 0 1 27 5.229v3.44A3.317 3.317 0 0 1 23.79 12L22.14 12A7.017 7.017 0 0 0 21 16a6.994 6.994 0 0 0 1.145 4h1.636A3.214 3.214 0 0 1 27 23.202v3.57A3.232 3.232 0 0 1 23.771 30h-1.466ZM3 10.5a1 1 0 1 0 0 2h9.5a1 1 0 1 0 0-2H3ZM6 16a1 1 0 0 1 1-1h5.5a1 1 0 1 1 0 2H7a1 1 0 0 1-1-1ZM11 19.5a1 1 0 1 0 0 2h1.5a1 1 0 1 0 0-2H11Z"/></svg>