<svg xmlns="http://www.w3.org/2000/svg" width="32" height="32" viewBox="0 0 32 32"><path d="M15.25 16c0 9.717 4.595 13.75 7.055 13.75h1.467a2.98 2.98 0 0 0 2.978-2.979v-3.569a2.964 2.964 0 0 0-2.969-2.952h-1.754A7.1 7.1 0 0 1 20.75 16a7.13 7.13 0 0 1 1.272-4.25l1.768.001a3.064 3.064 0 0 0 2.96-3.082v-3.44a2.98 2.98 0 0 0-2.979-2.979h-1.466c-2.46 0-7.055 4.033-7.055 13.75m8.522-12.25a1.48 1.48 0 0 1 1.478 1.479v3.44a1.565 1.565 0 0 1-1.46 1.582l-1.953-.001c-1.233 0-2.587 3.01-2.587 5.75s1.357 5.75 2.593 5.75h1.938a1.46 1.46 0 0 1 1.469 1.452v3.57a1.48 1.48 0 0 1-1.479 1.478h-1.466c-1.635 0-5.555-3.524-5.555-12.25s3.92-12.25 5.555-12.25zM2.25 11.5a.75.75 0 0 1 .75-.75h9.5a.75.75 0 0 1 0 1.5H3a.75.75 0 0 1-.75-.75M6.25 16a.75.75 0 0 1 .75-.75h5.5a.75.75 0 0 1 0 1.5H7a.75.75 0 0 1-.75-.75M10.25 20.5a.75.75 0 0 1 .75-.75h1.5a.75.75 0 0 1 0 1.5H11a.75.75 0 0 1-.75-.75"/></svg>