<svg xmlns="http://www.w3.org/2000/svg" width="32" height="32" viewBox="0 0 32 32"><path d="M22.305 30C19.758 30 15 25.894 15 16s4.758-14 7.305-14h1.467A3.23 3.23 0 0 1 27 5.229v3.44a3.317 3.317 0 0 1-3.21 3.332L22.14 12A7 7 0 0 0 21 16a7 7 0 0 0 1.145 4h1.636A3.214 3.214 0 0 1 27 23.202v3.57A3.23 3.23 0 0 1 23.771 30zM24.64 4.36A1.23 1.23 0 0 0 23.77 4h-1.466C20.795 4 17 7.57 17 16s3.795 12 5.305 12h1.467A1.23 1.23 0 0 0 25 26.771v-3.569A1.21 1.21 0 0 0 23.781 22h-1.938C20.435 22 19 18.972 19 16c0-2.701 1.309-6 2.837-6h1.954A1.31 1.31 0 0 0 25 8.67v-3.44c0-.326-.13-.639-.36-.869M3 10.5a1 1 0 1 0 0 2h9.5a1 1 0 1 0 0-2zM6 16a1 1 0 0 1 1-1h5.5a1 1 0 1 1 0 2H7a1 1 0 0 1-1-1M11 19.5a1 1 0 1 0 0 2h1.5a1 1 0 1 0 0-2z"/></svg>