<svg xmlns="http://www.w3.org/2000/svg" width="32" height="32" viewBox="0 0 32 32"><path fill-rule="evenodd" d="M22.305 29.5c-2.373 0-6.804-3.96-6.804-13.5s4.431-13.5 6.804-13.5h1.467a2.731 2.731 0 0 1 2.729 2.729v3.44a2.81 2.81 0 0 1-2.71 2.832l-1.868-.001A7.024 7.024 0 0 0 20.5 16a7.004 7.004 0 0 0 1.43 4.5h1.852a2.713 2.713 0 0 1 2.718 2.702v3.57a2.732 2.732 0 0 1-2.728 2.728h-1.467Zm2.689-25.493a1.73 1.73 0 0 0-1.222-.507h-1.467C20.597 3.5 16.5 7.097 16.5 16s4.097 12.5 5.805 12.5h1.467a1.73 1.73 0 0 0 1.729-1.729v-3.569a1.713 1.713 0 0 0-1.72-1.702h-1.938c-1 0-2.343-2.719-2.343-5.5s1.338-5.5 2.337-5.5h1.954A1.82 1.82 0 0 0 25.5 8.67v-3.44a1.73 1.73 0 0 0-.507-1.222Z" clip-rule="evenodd"/><path d="M3 11a.5.5 0 0 0 0 1h9.5a.5.5 0 0 0 0-1H3ZM6.5 16a.5.5 0 0 1 .5-.5h5.5a.5.5 0 0 1 0 1H7a.5.5 0 0 1-.5-.5ZM11 20a.5.5 0 0 0 0 1h1.5a.5.5 0 0 0 0-1H11Z"/></svg>