<svg xmlns="http://www.w3.org/2000/svg" width="32" height="32" viewBox="0 0 32 32"><path d="M2.25 6c0-2.102 1.772-3.75 3.886-3.75h5.228c2.114 0 3.886 1.648 3.886 3.75v7a.75.75 0 0 1-1.5 0V6c0-1.212-1.037-2.25-2.386-2.25H6.136C4.786 3.75 3.75 4.788 3.75 6v20c0 1.212 1.037 2.25 2.386 2.25h5.228c1.35 0 2.386-1.038 2.386-2.25v-7a.75.75 0 0 1 1.5 0v7c0 2.102-1.772 3.75-3.886 3.75H6.136c-2.114 0-3.886-1.648-3.886-3.75zM20.375 3.75c-.29 0-.566.061-.817.172a.75.75 0 1 1-.607-1.371c.437-.194.92-.301 1.424-.301h1.438a.75.75 0 0 1 0 1.5zM23.938 3a.75.75 0 0 1 .75-.75h1.437c.505 0 .987.107 1.424.3a.75.75 0 1 1-.607 1.372 2 2 0 0 0-.817-.172h-1.437a.75.75 0 0 1-.75-.75m-5.956 1.173a.75.75 0 0 1 .427.971c-.102.263-.159.551-.159.856v1.75a.75.75 0 0 1-1.5 0V6c0-.493.092-.966.261-1.4a.75.75 0 0 1 .971-.427m10.536 0a.75.75 0 0 1 .97.427c.17.434.262.907.262 1.4v1.667a.75.75 0 0 1-1.5 0V6c0-.305-.057-.593-.16-.856a.75.75 0 0 1 .428-.97M29 10.25a.75.75 0 0 1 .75.75v3.333a.75.75 0 0 1-1.5 0V11a.75.75 0 0 1 .75-.75m-11.5.25a.75.75 0 0 1 .75.75V13a.75.75 0 0 1-1.5 0v-1.75a.75.75 0 0 1 .75-.75M29 16.917a.75.75 0 0 1 .75.75V21a.75.75 0 0 1-1.5 0v-3.333a.75.75 0 0 1 .75-.75M17.5 18.25a.75.75 0 0 1 .75.75v1.75a.75.75 0 0 1-1.5 0V19a.75.75 0 0 1 .75-.75m0 5.25a.75.75 0 0 1 .75.75V26c0 .305.057.593.16.856a.75.75 0 0 1-1.399.544 3.9 3.9 0 0 1-.261-1.4v-1.75a.75.75 0 0 1 .75-.75m11.5.083a.75.75 0 0 1 .75.75V26c0 .493-.092.966-.261 1.4a.75.75 0 1 1-1.398-.544c.102-.263.159-.551.159-.856v-1.667a.75.75 0 0 1 .75-.75M18.568 28.46a.75.75 0 0 1 .99-.383c.25.112.526.173.817.173h1.438a.75.75 0 0 1 0 1.5h-1.438c-.505 0-.987-.107-1.424-.3a.75.75 0 0 1-.383-.99m9.364 0a.75.75 0 0 1-.383.99c-.437.193-.92.3-1.424.3h-1.437a.75.75 0 0 1 0-1.5h1.437c.29 0 .566-.061.817-.172a.75.75 0 0 1 .99.382M24.75 16a.75.75 0 0 1-.75.75H10a.75.75 0 0 1 0-1.5h14a.75.75 0 0 1 .75.75M24.73 15.47a.75.75 0 0 1 0 1.06l-3 3a.75.75 0 1 1-1.06-1.06L23.14 16l-2.47-2.47a.75.75 0 1 1 1.06-1.06z"/></svg>