<svg xmlns="http://www.w3.org/2000/svg" width="32" height="32" viewBox="0 0 32 32"><path d="M2.5 6c0-1.954 1.65-3.5 3.636-3.5h5.228C13.35 2.5 15 4.046 15 6v7a.5.5 0 0 1-1 0V6c0-1.36-1.16-2.5-2.636-2.5H6.136C4.66 3.5 3.5 4.64 3.5 6v20c0 1.36 1.16 2.5 2.636 2.5h5.228C12.84 28.5 14 27.36 14 26v-7a.5.5 0 0 1 1 0v7c0 1.954-1.65 3.5-3.636 3.5H6.136C4.15 29.5 2.5 27.954 2.5 26zM20.375 3.5c-.326 0-.636.069-.919.194a.5.5 0 1 1-.404-.915c.407-.18.854-.279 1.323-.279h1.438a.5.5 0 0 1 0 1zm3.813-.5a.5.5 0 0 1 .5-.5h1.437c.469 0 .916.1 1.323.28a.5.5 0 1 1-.404.914 2.3 2.3 0 0 0-.919-.194h-1.437a.5.5 0 0 1-.5-.5M17.89 4.406a.5.5 0 0 1 .285.647c-.113.291-.176.61-.176.947v1.75a.5.5 0 0 1-1 0V6c0-.462.086-.904.244-1.31a.5.5 0 0 1 .647-.284m10.718 0a.5.5 0 0 1 .647.285c.158.405.244.847.244 1.309v1.667a.5.5 0 0 1-1 0V6c0-.336-.063-.656-.176-.947a.5.5 0 0 1 .285-.647M29 10.5a.5.5 0 0 1 .5.5v3.333a.5.5 0 1 1-1 0V11a.5.5 0 0 1 .5-.5m-11.5.25a.5.5 0 0 1 .5.5V13a.5.5 0 0 1-1 0v-1.75a.5.5 0 0 1 .5-.5M29 17.167a.5.5 0 0 1 .5.5V21a.5.5 0 0 1-1 0v-3.333a.5.5 0 0 1 .5-.5M17.5 18.5a.5.5 0 0 1 .5.5v1.75a.5.5 0 0 1-1 0V19a.5.5 0 0 1 .5-.5m0 5.25a.5.5 0 0 1 .5.5V26c0 .336.063.656.176.947a.5.5 0 0 1-.932.362A3.6 3.6 0 0 1 17 26v-1.75a.5.5 0 0 1 .5-.5m11.5.083a.5.5 0 0 1 .5.5V26c0 .462-.086.904-.244 1.31a.5.5 0 0 1-.932-.363c.113-.291.176-.61.176-.947v-1.667a.5.5 0 0 1 .5-.5m-10.203 4.728a.5.5 0 0 1 .66-.255c.282.125.592.194.918.194h1.438a.5.5 0 0 1 0 1h-1.438c-.469 0-.916-.1-1.323-.28a.5.5 0 0 1-.255-.659m8.906 0a.5.5 0 0 1-.255.66c-.407.18-.854.279-1.323.279h-1.437a.5.5 0 0 1 0-1h1.437c.326 0 .636-.069.919-.194a.5.5 0 0 1 .66.255M24.5 16a.5.5 0 0 0-.5-.5H10a.5.5 0 0 0 0 1h14a.5.5 0 0 0 .5-.5M24.554 15.646a.5.5 0 0 1 0 .708l-3 3a.5.5 0 0 1-.707-.708L23.493 16l-2.646-2.646a.5.5 0 0 1 .707-.708z"/></svg>