<svg xmlns="http://www.w3.org/2000/svg" width="32" height="32" viewBox="0 0 32 32"><path d="M24 4.25h2A1.75 1.75 0 0 1 27.75 6v16A1.75 1.75 0 0 1 26 23.75h-2A1.75 1.75 0 0 1 22.25 22V6A1.75 1.75 0 0 1 24 4.25M23.75 11h2.5V6a.25.25 0 0 0-.25-.25h-2a.25.25 0 0 0-.25.25zM17 23.75h-2A1.75 1.75 0 0 1 13.25 22v-8A1.75 1.75 0 0 1 15 12.25h2A1.75 1.75 0 0 1 18.75 14v8A1.75 1.75 0 0 1 17 23.75m-2.177-9.926a.25.25 0 0 0-.073.176v2h2.5v-2a.25.25 0 0 0-.25-.25h-2a.25.25 0 0 0-.177.074M6.007 23.75h2A1.75 1.75 0 0 0 9.757 22V9a1.75 1.75 0 0 0-1.75-1.75h-2A1.75 1.75 0 0 0 4.257 9v13a1.75 1.75 0 0 0 1.75 1.75M5.757 9a.25.25 0 0 1 .25-.25h2a.25.25 0 0 1 .25.25v5h-2.5zM5 26.25h22a.75.75 0 1 1 0 1.5H5a.75.75 0 1 1 0-1.5"/></svg>