<svg xmlns="http://www.w3.org/2000/svg" width="32" height="32" viewBox="0 0 32 32"><path fill-rule="evenodd" d="M6.007 24h2a2.003 2.003 0 0 0 2-2V6a2.003 2.003 0 0 0-2-2h-2a2.003 2.003 0 0 0-2 2v16a2.002 2.002 0 0 0 2 2Zm0-17.5a.5.5 0 0 1 .5-.5h1a.5.5 0 0 1 .5.5V14h-2V6.5Z" clip-rule="evenodd"/><path d="M26 4h-2a2.003 2.003 0 0 0-2 2v16a2.003 2.003 0 0 0 2 2h2a2.003 2.003 0 0 0 2-2V6a2.003 2.003 0 0 0-2-2Z"/><path fill-rule="evenodd" d="M15 24h2a2.003 2.003 0 0 0 2-2V6a2.003 2.003 0 0 0-2-2h-2a2.003 2.003 0 0 0-2 2v16a2.003 2.003 0 0 0 2 2Zm0-17.5a.5.5 0 0 1 .5-.5h1a.5.5 0 0 1 .5.5V8h-2V6.5Z" clip-rule="evenodd"/><path d="M27 26H5a1 1 0 1 0 0 2h22a1 1 0 0 0 0-2Z"/></svg>