<svg xmlns="http://www.w3.org/2000/svg" width="32" height="32" viewBox="0 0 32 32"><path d="M24 4h2a2.003 2.003 0 0 1 2 2v16a2.003 2.003 0 0 1-2 2h-2a2.003 2.003 0 0 1-2-2V6a2.003 2.003 0 0 1 2-2m2 7V6.5a.5.5 0 0 0-.5-.5h-1a.5.5 0 0 0-.5.5V11zM17 24h-2a2.003 2.003 0 0 1-2-2v-8a2.003 2.003 0 0 1 2-2h2a2.003 2.003 0 0 1 2 2v8a2.003 2.003 0 0 1-2 2m-1.5-10a.5.5 0 0 0-.5.5V16h2v-1.5a.5.5 0 0 0-.5-.5zM6.007 24h2a2.003 2.003 0 0 0 2-2V9a2.003 2.003 0 0 0-2-2h-2a2.003 2.003 0 0 0-2 2v13a2 2 0 0 0 2 2m0-14.5a.5.5 0 0 1 .5-.5h1a.5.5 0 0 1 .5.5V14h-2zM5 26h22a1 1 0 1 1 0 2H5a1 1 0 0 1 0-2"/></svg>