<svg xmlns="http://www.w3.org/2000/svg" width="32" height="32" viewBox="0 0 32 32"><path d="M12.64 5.537a1.5 1.5 0 0 0-1.872-.131l-8.122 5.623A1.5 1.5 0 0 0 2 12.262v4.075a1 1 0 0 0 1.54.84l6.253-4.018a1 1 0 0 1 1.101.013l9.059 6.137a1 1 0 0 0 1.218-.074l8.486-7.391A1 1 0 0 0 30 11.09V7.403a1 1 0 0 0-1.6-.8L21 12.14a1 1 0 0 1-1.278-.066zM30 16.394c0-.858-1.01-1.317-1.657-.754l-7.02 6.114a1 1 0 0 1-1.217.074l-9.24-6.26a1 1 0 0 0-1.102-.013l-7.305 4.696a1 1 0 0 0-.459.84V25.5A1.5 1.5 0 0 0 3.5 27h25a1.5 1.5 0 0 0 1.5-1.5z"/></svg>