<svg xmlns="http://www.w3.org/2000/svg" width="32" height="32" viewBox="0 0 32 32"><path d="M3 4.75a.25.25 0 0 0-.25.25v5.294l7.76-3.492a1.25 1.25 0 0 1 1.115.044l9.31 5.121 8.315-5.291V5a.25.25 0 0 0-.25-.25zM1.25 5c0-.966.784-1.75 1.75-1.75h26c.966 0 1.75.784 1.75 1.75v1.813c0 .427-.218.825-.579 1.055l-8.556 5.444a1.25 1.25 0 0 1-1.273.04l-9.33-5.131-7.999 3.599a1.25 1.25 0 0 1-1.763-1.14zm9.17 6.035a1.25 1.25 0 0 1 1.115.045l9.474 5.21 7.82-4.976a1.25 1.25 0 0 1 1.921 1.055v4.62c0 .49-.287.935-.733 1.138l-8.572 3.896a1.25 1.25 0 0 1-.93.042L11 18.735l-8.087 2.83a1.25 1.25 0 0 1-1.663-1.18V15.97c0-.492.288-.938.737-1.14zm.502 1.42L2.75 16.13v3.902l7.837-2.743a1.25 1.25 0 0 1 .826 0l9.502 3.326 8.335-3.788v-4.004l-7.56 4.811a1.25 1.25 0 0 1-1.274.041zm18.06 8.691a1.25 1.25 0 0 1 1.768 1.138V27A1.75 1.75 0 0 1 29 28.75H3A1.75 1.75 0 0 1 1.25 27v-1.436c0-.53.336-1.004.837-1.18l8.5-2.975a1.25 1.25 0 0 1 .826 0l9.6 3.36zm.268 1.526-7.709 3.504a1.25 1.25 0 0 1-.93.042L11 22.854l-8.25 2.888V27c0 .138.112.25.25.25h26a.25.25 0 0 0 .25-.25z"/></svg>