<svg xmlns="http://www.w3.org/2000/svg" width="32" height="32" viewBox="0 0 32 32"><path d="M11.961 6.272a.5.5 0 0 0-.624-.044l-8.122 5.623a.5.5 0 0 0-.215.411v3.075l6.252-4.02a2 2 0 0 1 2.203.027l9.059 6.137L29 10.09V7.403l-7.401 5.538a2 2 0 0 1-2.555-.131zm-1.762-1.688a2.5 2.5 0 0 1 3.119.218L20.4 11.34l7.402-5.538C29.12 4.815 31 5.756 31 7.403v2.687a2 2 0 0 1-.686 1.508l-8.487 7.391a2 2 0 0 1-2.435.148L10.333 13l-6.251 4.019C2.75 17.875 1 16.919 1 15.337v-3.075a2.5 2.5 0 0 1 1.077-2.056zm17.487 11.302C28.981 14.759 31 15.678 31 17.394V25.5a2.5 2.5 0 0 1-2.5 2.5h-25A2.5 2.5 0 0 1 1 25.5v-3.408a2 2 0 0 1 .918-1.682l7.305-4.696a2 2 0 0 1 2.203.026l9.24 6.26zm-17.381 1.51L3 22.092V25.5a.5.5 0 0 0 .5.5h25a.5.5 0 0 0 .5-.5v-8.106l-7.02 6.114a2 2 0 0 1-2.435.148z"/></svg>