<svg xmlns="http://www.w3.org/2000/svg" width="32" height="32" viewBox="0 0 32 32"><path d="M24 4.5h2A1.5 1.5 0 0 1 27.5 6v16a1.5 1.5 0 0 1-1.5 1.5h-2a1.5 1.5 0 0 1-1.5-1.5V6A1.5 1.5 0 0 1 24 4.5m-.5 6.5h3V6a.5.5 0 0 0-.5-.5h-2a.5.5 0 0 0-.5.5zM17 23.5h-2a1.5 1.5 0 0 1-1.5-1.5v-8a1.5 1.5 0 0 1 1.5-1.5h2a1.5 1.5 0 0 1 1.5 1.5v8a1.5 1.5 0 0 1-1.5 1.5m-2.353-9.853A.5.5 0 0 0 14.5 14v2h3v-2a.5.5 0 0 0-.5-.5h-2a.5.5 0 0 0-.353.147M6.007 23.5h2a1.5 1.5 0 0 0 1.5-1.5V9a1.5 1.5 0 0 0-1.5-1.5h-2a1.5 1.5 0 0 0-1.5 1.5v13a1.5 1.5 0 0 0 1.5 1.5M5.507 9a.5.5 0 0 1 .5-.5h2a.5.5 0 0 1 .5.5v5h-3zM5 26.5h22a.5.5 0 0 1 0 1H5a.5.5 0 0 1 0-1"/></svg>