<svg xmlns="http://www.w3.org/2000/svg" width="32" height="32" viewBox="0 0 32 32"><path d="M3 4.5a.5.5 0 0 0-.5.5v5.68l8.112-3.65a1 1 0 0 1 .892.035l9.44 5.193L29.5 6.813V5a.5.5 0 0 0-.5-.5zM1.5 5A1.5 1.5 0 0 1 3 3.5h26A1.5 1.5 0 0 1 30.5 5v1.813a1 1 0 0 1-.463.844L21.48 13.1a1 1 0 0 1-1.019.033l-9.44-5.192-8.112 3.65a1 1 0 0 1-1.41-.912zm9.023 6.263a1 1 0 0 1 .892.036l9.604 5.282 7.944-5.056a1 1 0 0 1 1.537.844v4.62a1 1 0 0 1-.586.91l-8.573 3.897a1 1 0 0 1-.744.033L11 18.47l-8.17 2.86a1 1 0 0 1-1.33-.944V15.97a1 1 0 0 1 .59-.912zm.41.912L2.5 15.97v4.416l8.17-2.86a1 1 0 0 1 .66 0l9.597 3.36 8.573-3.897v-4.62l-7.945 5.055a1 1 0 0 1-1.018.033zm18.153 9.199a1 1 0 0 1 1.414.91V27a1.5 1.5 0 0 1-1.5 1.5H3A1.5 1.5 0 0 1 1.5 27v-1.436a1 1 0 0 1 .67-.944l8.5-2.975a1 1 0 0 1 .66 0l9.694 3.393zm.414.91-8.062 3.665a1 1 0 0 1-.744.033L11 22.59l-8.5 2.975V27a.5.5 0 0 0 .5.5h26a.5.5 0 0 0 .5-.5z"/></svg>