<svg xmlns="http://www.w3.org/2000/svg" width="32" height="32" viewBox="0 0 32 32"><path d="M12.3 5.904a1 1 0 0 0-1.247-.087L2.93 11.44a1 1 0 0 0-.431.822v3.075a.5.5 0 0 0 .77.42l6.252-4.019a1.5 1.5 0 0 1 1.653.02l9.058 6.137a.5.5 0 0 0 .61-.037l8.485-7.391a.5.5 0 0 0 .172-.377V7.403a.5.5 0 0 0-.8-.4L21.3 12.54a1.5 1.5 0 0 1-1.916-.099zm-1.817-.91a2 2 0 0 1 2.496.176l7.082 6.537a.5.5 0 0 0 .639.033L28.1 6.202c.99-.74 2.399-.034 2.399 1.201v2.687a1.5 1.5 0 0 1-.515 1.13L21.5 18.613a1.5 1.5 0 0 1-1.826.11l-9.06-6.136a.5.5 0 0 0-.55-.007L3.81 16.6c-.998.641-2.311-.076-2.311-1.262v-3.075a2 2 0 0 1 .862-1.644zm19.017 12.4a.5.5 0 0 0-.828-.377l-7.02 6.114a1.5 1.5 0 0 1-1.827.11l-9.24-6.259a.5.5 0 0 0-.55-.006L2.73 21.67a.5.5 0 0 0-.23.42V25.5a1 1 0 0 0 1 1h25a1 1 0 0 0 1-1zm-1.485-1.131c.97-.845 2.485-.156 2.485 1.131V25.5a2 2 0 0 1-2 2h-25a2 2 0 0 1-2-2v-3.408c0-.51.26-.986.689-1.262l7.304-4.696a1.5 1.5 0 0 1 1.653.02l9.24 6.26a.5.5 0 0 0 .609-.037z"/></svg>