<svg xmlns="http://www.w3.org/2000/svg" width="32" height="32" viewBox="0 0 32 32"><path d="M1 5a2 2 0 0 1 2-2h26a2 2 0 0 1 2 2v1.813a1.5 1.5 0 0 1-.695 1.265l-8.555 5.445a1.5 1.5 0 0 1-1.529.049L11 8.5l-7.884 3.548A1.5 1.5 0 0 1 1 10.68zm28 0H3v4.907l7.407-3.333a1.5 1.5 0 0 1 1.338.053l9.18 5.05L29 6.538zm-18.682 5.807a1.5 1.5 0 0 1 1.338.054L21 16l7.695-4.897A1.5 1.5 0 0 1 31 12.37v4.62a1.5 1.5 0 0 1-.88 1.365l-8.572 3.897a1.5 1.5 0 0 1-1.116.05L11 19l-8.004 2.802A1.5 1.5 0 0 1 1 20.386V15.97a1.5 1.5 0 0 1 .884-1.368zm.593 1.926L3 16.293v3.388l7.505-2.626a1.5 1.5 0 0 1 .99 0l9.408 3.292L29 16.667V13.28l-7.176 4.566a1.5 1.5 0 0 1-1.528.05zm17.968 8.186A1.5 1.5 0 0 1 31 22.284V27a2 2 0 0 1-2 2H3a2 2 0 0 1-2-2v-1.436a1.5 1.5 0 0 1 1.004-1.416l8.5-2.975c.321-.112.67-.112.992 0L21 24.5zM29 23.06l-7.355 3.343a1.5 1.5 0 0 1-1.116.05L11 23.119l-8 2.8V27h26z"/></svg>