<svg xmlns="http://www.w3.org/2000/svg" width="32" height="32" viewBox="0 0 32 32"><path fill-rule="evenodd" d="M6.007 23.5h2a1.752 1.752 0 0 0 1.75-1.75v-16A1.752 1.752 0 0 0 8.007 4h-2a1.752 1.752 0 0 0-1.75 1.75v16a1.752 1.752 0 0 0 1.75 1.75Zm-.25-17.75a.25.25 0 0 1 .25-.25h2a.25.25 0 0 1 .25.25v5h-2.5v-5ZM15 23.5h2a1.752 1.752 0 0 0 1.75-1.75v-16A1.752 1.752 0 0 0 17 4h-2a1.752 1.752 0 0 0-1.75 1.75v16A1.752 1.752 0 0 0 15 23.5Zm-.25-17.75A.25.25 0 0 1 15 5.5h2a.25.25 0 0 1 .25.25v2h-2.5v-2Z" clip-rule="evenodd"/><path d="M26 4h-2a1.752 1.752 0 0 0-1.75 1.75v16A1.752 1.752 0 0 0 24 23.5h2a1.752 1.752 0 0 0 1.75-1.75v-16A1.752 1.752 0 0 0 26 4ZM27 25.999H5a.75.75 0 1 0 0 1.5h22a.75.75 0 1 0 0-1.5Z"/></svg>