<svg xmlns="http://www.w3.org/2000/svg" width="32" height="32" viewBox="0 0 32 32"><path d="M12.13 6.088a.75.75 0 0 0-.935-.066l-8.122 5.623a.75.75 0 0 0-.323.617v3.075a.25.25 0 0 0 .385.21l6.252-4.02a1.75 1.75 0 0 1 1.928.024l9.059 6.137a.25.25 0 0 0 .304-.019l8.486-7.39a.25.25 0 0 0 .086-.19V7.404a.25.25 0 0 0-.4-.2L21.45 12.74a1.75 1.75 0 0 1-2.236-.115zm-1.789-1.299a2.25 2.25 0 0 1 2.807.197l7.083 6.538a.25.25 0 0 0 .32.016l7.4-5.538c1.154-.863 2.799-.04 2.799 1.401v2.687c0 .506-.219.987-.6 1.32l-8.487 7.39a1.75 1.75 0 0 1-2.13.13l-9.06-6.137a.25.25 0 0 0-.275-.003l-6.252 4.019c-1.164.748-2.696-.088-2.696-1.472v-3.075c0-.738.362-1.43.97-1.85zM29.25 17.394a.25.25 0 0 0-.414-.188l-7.02 6.114a1.75 1.75 0 0 1-2.13.129l-9.241-6.26a.25.25 0 0 0-.276-.003l-7.304 4.696a.25.25 0 0 0-.115.21V25.5c0 .414.336.75.75.75h25a.75.75 0 0 0 .75-.75zm-1.4-1.32c1.133-.986 2.9-.182 2.9 1.32V25.5a2.25 2.25 0 0 1-2.25 2.25h-25a2.25 2.25 0 0 1-2.25-2.25v-3.408c0-.596.303-1.15.804-1.472l7.304-4.696a1.75 1.75 0 0 1 1.928.023l9.24 6.26a.25.25 0 0 0 .305-.018z"/></svg>