<svg xmlns="http://www.w3.org/2000/svg" width="32" height="32" viewBox="0 0 32 32"><path d="M6.007 23.5h2a1.502 1.502 0 0 0 1.5-1.5V6a1.502 1.502 0 0 0-1.5-1.5h-2a1.502 1.502 0 0 0-1.5 1.5v16a1.502 1.502 0 0 0 1.5 1.5ZM5.507 6a.501.501 0 0 1 .5-.5h2a.501.501 0 0 1 .5.5v5h-3V6ZM15 23.5h2a1.502 1.502 0 0 0 1.5-1.5V6A1.502 1.502 0 0 0 17 4.5h-2A1.502 1.502 0 0 0 13.5 6v16a1.502 1.502 0 0 0 1.5 1.5ZM14.5 6a.501.501 0 0 1 .5-.5h2a.501.501 0 0 1 .5.5v2h-3V6ZM26 4.5h-2A1.502 1.502 0 0 0 22.5 6v16a1.502 1.502 0 0 0 1.5 1.5h2a1.502 1.502 0 0 0 1.5-1.5V6A1.502 1.502 0 0 0 26 4.5ZM27 26.5H5a.5.5 0 0 0 0 1h22a.5.5 0 0 0 0-1Z"/></svg>