<svg xmlns="http://www.w3.org/2000/svg" width="32" height="32" viewBox="0 0 32 32"><path fill-rule="evenodd" d="M24 4.5h2A1.502 1.502 0 0 1 27.5 6v16a1.502 1.502 0 0 1-1.5 1.5h-2a1.502 1.502 0 0 1-1.5-1.5V6A1.502 1.502 0 0 1 24 4.5Zm-.5 6.5h3V6a.501.501 0 0 0-.5-.5h-2a.501.501 0 0 0-.5.5v5ZM17 23.5h-2a1.502 1.502 0 0 1-1.5-1.5v-8a1.502 1.502 0 0 1 1.5-1.5h2a1.502 1.502 0 0 1 1.5 1.5v8a1.502 1.502 0 0 1-1.5 1.5Zm-2.353-9.853A.501.501 0 0 0 14.5 14v2h3v-2a.501.501 0 0 0-.5-.5h-2a.5.5 0 0 0-.353.147ZM6.007 23.5h2a1.502 1.502 0 0 0 1.5-1.5V9a1.502 1.502 0 0 0-1.5-1.5h-2a1.502 1.502 0 0 0-1.5 1.5v13a1.502 1.502 0 0 0 1.5 1.5ZM5.507 9a.501.501 0 0 1 .5-.5h2a.501.501 0 0 1 .5.5v5h-3V9Z" clip-rule="evenodd"/><path d="M5 26.5h22a.5.5 0 0 1 0 1H5a.5.5 0 0 1 0-1Z"/></svg>