<svg xmlns="http://www.w3.org/2000/svg" width="32" height="32" viewBox="0 0 32 32"><path d="M3 4a1 1 0 0 0-1 1v5.907a1 1 0 0 0 1.41.912l7.18-3.23a1 1 0 0 1 .892.035l8.962 4.929a1 1 0 0 0 1.019-.033l8.074-5.138A1 1 0 0 0 30 7.538V5a1 1 0 0 0-1-1zm27 8.28a1 1 0 0 0-1.537-.844l-6.926 4.408a1 1 0 0 1-1.019.032l-9.125-5.019a1 1 0 0 0-.893-.035l-7.91 3.56a1 1 0 0 0-.59.911v5.388a1 1 0 0 0 1.33.944l7.34-2.569a1 1 0 0 1 .66 0l9.243 3.235a1 1 0 0 0 .744-.034l8.097-3.68a1 1 0 0 0 .586-.91zm0 9.78a1 1 0 0 0-1.414-.91l-7.172 3.26a1 1 0 0 1-.744.034l-9.34-3.269a1 1 0 0 0-.66 0l-8 2.8a1 1 0 0 0-.67.944V27a1 1 0 0 0 1 1h26a1 1 0 0 0 1-1z"/></svg>