<svg xmlns="http://www.w3.org/2000/svg" width="32" height="32" viewBox="0 0 32 32"><path d="M6.007 24h2a2.003 2.003 0 0 0 2-2V6a2.003 2.003 0 0 0-2-2h-2a2.003 2.003 0 0 0-2 2v16a2 2 0 0 0 2 2m0-17.5a.5.5 0 0 1 .5-.5h1a.5.5 0 0 1 .5.5V14h-2zM26 4h-2a2.003 2.003 0 0 0-2 2v16a2.003 2.003 0 0 0 2 2h2a2.003 2.003 0 0 0 2-2V6a2.003 2.003 0 0 0-2-2M15 24h2a2.003 2.003 0 0 0 2-2V6a2.003 2.003 0 0 0-2-2h-2a2.003 2.003 0 0 0-2 2v16a2.003 2.003 0 0 0 2 2m0-17.5a.5.5 0 0 1 .5-.5h1a.5.5 0 0 1 .5.5V8h-2zM27 26H5a1 1 0 1 0 0 2h22a1 1 0 0 0 0-2"/></svg>