<svg xmlns="http://www.w3.org/2000/svg" width="32" height="32" viewBox="0 0 32 32"><path d="M28.999 6.5h-3.5V3a.5.5 0 0 0-1 0v3.5h-3.5a.5.5 0 0 0 0 1h3.5V11a.5.5 0 0 0 1 0V7.5h3.5a.5.5 0 1 0 0-1M27.92 14.523a.5.5 0 0 0-.457.539q.037.464.037.938a11.504 11.504 0 0 1-16.888 10.163.5.5 0 0 0-.525.033 7.12 7.12 0 0 1-6.59.853c.096-.071.207-.14.329-.217a6.41 6.41 0 0 0 2.864-3.7.5.5 0 0 0-.062-.465A11.501 11.501 0 0 1 16.96 4.54a.49.49 0 0 0 .54-.458.5.5 0 0 0-.458-.54A12.502 12.502 0 0 0 5.66 23.026a5.32 5.32 0 0 1-2.368 2.961c-.142.09-.272.173-.386.257a.98.98 0 0 0-.4.9 1 1 0 0 0 .586.81 7.3 7.3 0 0 0 2.884.553 8.03 8.03 0 0 0 4.439-1.32A12.504 12.504 0 0 0 28.459 14.98a.505.505 0 0 0-.539-.458"/></svg>