<svg xmlns="http://www.w3.org/2000/svg" width="32" height="32" viewBox="0 0 32 32"><path d="M28.999 6h-3V3a1 1 0 0 0-2 0v3h-3a1 1 0 1 0 0 2h3v3a1 1 0 1 0 2 0V8h3a1 1 0 1 0 0-2M27.88 14.025a1 1 0 0 0-.916 1.078Q27 15.547 27 16a11.004 11.004 0 0 1-16.152 9.72 1 1 0 0 0-1.05.069 6.61 6.61 0 0 1-5.135 1.086 7.2 7.2 0 0 0 2.495-3.568 1 1 0 0 0-.122-.93 11 11 0 0 1 9.881-17.34.99.99 0 0 0 1.08-.913 1 1 0 0 0-.914-1.08Q16.548 3 16 3A13.001 13.001 0 0 0 5.095 23.08a4.7 4.7 0 0 1-2.07 2.483 7 7 0 0 0-.416.277 1.47 1.47 0 0 0-.6 1.354 1.51 1.51 0 0 0 .875 1.214c.98.406 2.033.608 3.093.594a8.5 8.5 0 0 0 4.47-1.246A13.003 13.003 0 0 0 28.957 14.94a1 1 0 0 0-1.078-.915"/></svg>