<svg xmlns="http://www.w3.org/2000/svg" width="32" height="32" viewBox="0 0 32 32"><path d="M28.999 6.25h-3.25V3a.75.75 0 1 0-1.5 0v3.25h-3.25a.75.75 0 1 0 0 1.5h3.25V11a.75.75 0 1 0 1.5 0V7.75h3.25a.75.75 0 1 0 0-1.5M27.899 14.274a.75.75 0 0 0-.686.808q.037.454.037.918a11.254 11.254 0 0 1-16.521 9.942.75.75 0 0 0-.786.05 6.89 6.89 0 0 1-5.885.988 6.72 6.72 0 0 0 2.865-3.76.75.75 0 0 0-.091-.697A11.252 11.252 0 0 1 16.94 4.789a.75.75 0 1 0 .12-1.496 12.751 12.751 0 0 0-11.682 19.76 5.05 5.05 0 0 1-2.22 2.722c-.148.094-.283.18-.402.266a1.23 1.23 0 0 0-.5 1.128 1.24 1.24 0 0 0 .732 1.012 7.5 7.5 0 0 0 2.988.573 8.27 8.27 0 0 0 4.454-1.282A12.755 12.755 0 0 0 28.708 14.96a.74.74 0 0 0-.809-.686"/></svg>