<svg xmlns="http://www.w3.org/2000/svg" width="32" height="32" viewBox="0 0 32 32"><path d="M28.999 6.25h-3.25V3a.75.75 0 1 0-1.5 0v3.25h-3.25a.75.75 0 1 0 0 1.5h3.25V11a.75.75 0 1 0 1.5 0V7.75h3.25a.75.75 0 1 0 0-1.5Z"/><path d="M27.899 14.274a.75.75 0 0 0-.686.808 11.254 11.254 0 0 1-16.484 10.86.749.749 0 0 0-.786.05 6.888 6.888 0 0 1-5.885.988 6.721 6.721 0 0 0 2.865-3.76.747.747 0 0 0-.091-.697A11.252 11.252 0 0 1 16.94 4.789a.75.75 0 1 0 .12-1.496 12.751 12.751 0 0 0-11.682 19.76 5.045 5.045 0 0 1-2.22 2.722c-.148.094-.283.18-.402.266a1.23 1.23 0 0 0-.5 1.128 1.244 1.244 0 0 0 .732 1.012 7.543 7.543 0 0 0 2.988.573 8.274 8.274 0 0 0 4.454-1.282A12.755 12.755 0 0 0 28.708 14.96a.742.742 0 0 0-.809-.686Z"/></svg>