<svg xmlns="http://www.w3.org/2000/svg" width="32" height="32" viewBox="0 0 32 32"><path d="M28.999 6h-3V3a1 1 0 0 0-2 0v3h-3a1 1 0 1 0 0 2h3v3a1 1 0 1 0 2 0V8h3a1 1 0 1 0 0-2Z"/><path d="M27.88 14.025a1 1 0 0 0-.916 1.078A11.004 11.004 0 0 1 10.848 25.72a1 1 0 0 0-1.05.068 6.613 6.613 0 0 1-5.135 1.086 7.214 7.214 0 0 0 2.495-3.568 1.001 1.001 0 0 0-.122-.93 11 11 0 0 1 9.881-17.34.99.99 0 0 0 1.08-.913 1 1 0 0 0-.914-1.08A13.001 13.001 0 0 0 5.095 23.08a4.7 4.7 0 0 1-2.07 2.483 7.13 7.13 0 0 0-.416.277 1.473 1.473 0 0 0-.6 1.354 1.51 1.51 0 0 0 .875 1.214c.98.406 2.033.608 3.093.594a8.525 8.525 0 0 0 4.47-1.246A13.003 13.003 0 0 0 28.957 14.94a1 1 0 0 0-1.078-.915Z"/></svg>