<svg xmlns="http://www.w3.org/2000/svg" width="24" height="24" viewBox="0 0 24 24"><path d="M6 1.5a.75.75 0 0 0-.75.75v4.125c0 2.36 1.577 4.418 3.75 4.809V18c0 2.315 1.764 4.5 4.125 4.5 2.323 0 4.125-1.994 4.125-4.35v-3.278a2.251 2.251 0 1 0-1.5 0v3.278c0 1.62-1.22 2.85-2.625 2.85-1.367 0-2.625-1.338-2.625-3v-6.816c2.173-.39 3.75-2.45 3.75-4.809V2.25a.75.75 0 0 0-.75-.75h-1.875a.75.75 0 0 0 0 1.5h1.125v3.375c0 1.933-1.409 3.375-3 3.375s-3-1.442-3-3.375V3h1.125a.75.75 0 0 0 0-1.5H6Zm9.75 11.25a.75.75 0 1 1 1.5 0 .75.75 0 0 1-1.5 0Z"/></svg>