<svg xmlns="http://www.w3.org/2000/svg" width="32" height="32" viewBox="0 0 32 32"><path d="M8 2.25a.75.75 0 0 0-.75.75v5.5c0 3.117 2.13 5.796 5 6.198V24c0 2.978 2.268 5.75 5.25 5.75 2.944 0 5.25-2.531 5.25-5.55v-4.553a2.751 2.751 0 1 0-1.5 0V24.2c0 2.283-1.724 4.05-3.75 4.05-1.989 0-3.75-1.926-3.75-4.25v-9.302c2.87-.402 5-3.081 5-6.198V3a.75.75 0 0 0-.75-.75h-2.5a.75.75 0 0 0 0 1.5h1.75V8.5c0 2.692-1.969 4.75-4.25 4.75S8.75 11.192 8.75 8.5V3.75h1.75a.75.75 0 0 0 0-1.5zM20.75 17a1.25 1.25 0 1 1 2.5 0 1.25 1.25 0 0 1-2.5 0"/></svg>