<svg xmlns="http://www.w3.org/2000/svg" width="32" height="32" viewBox="0 0 32 32"><path d="M29.5 16A13.501 13.501 0 0 0 15.475 2.51 13.546 13.546 0 0 0 2.51 15.475 13.501 13.501 0 0 0 16 29.5a20.63 20.63 0 0 0 2.376-.226 1.49 1.49 0 0 0 .887-.465l9.764-10.552a1.48 1.48 0 0 0 .396-.89c.032-.383.077-.99.077-1.367ZM6.994 24.67a12.411 12.411 0 0 1-3.484-9.158A12.541 12.541 0 0 1 16.005 3.5 12.501 12.501 0 0 1 28.5 16c0 .333-.038.855-.068 1.215l-3.455.225a7 7 0 0 0-6.564 6.561l-.261 4.295c-.713.107-1.431.176-2.152.204a12.398 12.398 0 0 1-9.006-3.83Zm12.214 2.724.203-3.332a6 6 0 0 1 5.628-5.623l2.614-.17-8.445 9.125Z"/></svg>