<svg xmlns="http://www.w3.org/2000/svg" width="32" height="32" viewBox="0 0 32 32"><path d="M29.75 16A13.752 13.752 0 0 0 15.466 2.26 13.796 13.796 0 0 0 2.26 15.465 13.75 13.75 0 0 0 16 29.75a20.636 20.636 0 0 0 2.411-.229 1.746 1.746 0 0 0 1.035-.543l9.764-10.55a1.787 1.787 0 0 0 .462-1.04c.033-.39.078-1.006.078-1.388ZM7.174 24.495a12.165 12.165 0 0 1-3.416-8.973A12.444 12.444 0 0 1 15.522 3.759 12.25 12.25 0 0 1 28.25 16c0 .266-.025.654-.05.981l-3.238.21a7.252 7.252 0 0 0-6.8 6.795l-.248 4.09c-.634.094-1.273.153-1.914.175a12.15 12.15 0 0 1-8.825-3.755Zm19.87-5.937-7.543 8.153.16-2.634a5.75 5.75 0 0 1 5.394-5.39l1.99-.129Z"/></svg>