<svg xmlns="http://www.w3.org/2000/svg" width="32" height="32" viewBox="0 0 32 32"><path d="M25.709 5.914A14 14 0 0 0 5.914 25.709 13.89 13.89 0 0 0 16 30q1.23-.044 2.446-.23a2 2 0 0 0 1.184-.621l9.763-10.55a2 2 0 0 0 .528-1.19c.033-.395.079-1.02.079-1.409a13.89 13.89 0 0 0-4.291-10.086M7.354 24.322a11.91 11.91 0 0 1-3.346-8.79A12.19 12.19 0 0 1 15.532 4.009Q15.768 4 16.004 4A12 12 0 0 1 28 16c0 .203-.015.48-.034.744l-3.019.197a7.5 7.5 0 0 0-7.033 7.03l-.236 3.883q-.835.119-1.678.146a11.9 11.9 0 0 1-8.646-3.678m19.081-5.473-6.643 7.181.118-1.938a5.5 5.5 0 0 1 5.162-5.154z"/></svg>