<svg xmlns="http://www.w3.org/2000/svg" width="32" height="32" viewBox="0 0 32 32"><path d="M25.709 5.913A14 14 0 0 0 5.914 25.71 13.885 13.885 0 0 0 16 30c.82-.029 1.636-.106 2.446-.23a2 2 0 0 0 1.184-.621l9.762-10.55a1.99 1.99 0 0 0 .529-1.19c.033-.395.079-1.02.079-1.409a13.886 13.886 0 0 0-4.291-10.087ZM7.354 24.322a11.913 11.913 0 0 1-3.346-8.79A12.19 12.19 0 0 1 15.532 4.009 12 12 0 0 1 28 16c0 .204-.015.481-.034.745l-3.019.197a7.5 7.5 0 0 0-7.033 7.03l-.236 3.883c-.556.079-1.117.128-1.678.146a11.904 11.904 0 0 1-8.646-3.678Zm19.081-5.473-6.643 7.181.118-1.938a5.501 5.501 0 0 1 5.162-5.154l1.363-.089Z"/></svg>