<svg xmlns="http://www.w3.org/2000/svg" width="32" height="32" viewBox="0 0 32 32"><path d="M29.75 16A13.75 13.75 0 0 0 15.466 2.26 13.796 13.796 0 0 0 2.26 15.465 13.75 13.75 0 0 0 16 29.75a21 21 0 0 0 2.411-.229 1.75 1.75 0 0 0 1.035-.543l9.764-10.55a1.787 1.787 0 0 0 .462-1.04c.033-.39.078-1.006.078-1.388M7.175 24.496a12.17 12.17 0 0 1-3.416-8.974A12.444 12.444 0 0 1 15.522 3.759q.242-.01.482-.01A12.25 12.25 0 0 1 28.25 16c0 .265-.025.653-.05.98l-3.238.21a7.25 7.25 0 0 0-6.8 6.795l-.248 4.09q-.952.142-1.914.175a12.15 12.15 0 0 1-8.825-3.754m19.87-5.938L19.5 26.711l.16-2.634a5.75 5.75 0 0 1 5.394-5.39z"/></svg>