<svg xmlns="http://www.w3.org/2000/svg" width="32" height="32" viewBox="0 0 32 32"><path d="M7 26.003a3.004 3.004 0 0 1-3-3v-12a2.98 2.98 0 0 1 .77-1.99L3.358 7.6A4.97 4.97 0 0 0 2 11.003v12a5.006 5.006 0 0 0 5 5h16.76l-2-2zM30 23.003v-12a5.006 5.006 0 0 0-5-5 1 1 0 1 0 0 2 3.003 3.003 0 0 1 3 3v12a2.99 2.99 0 0 1-1.2 2.384L17 15.586V5.414l2.293 2.293a1 1 0 1 0 1.414-1.414l-4-4a1 1 0 0 0-1.414 0l-4 4a1 1 0 0 0 1.414 1.414L15 5.414v8.172L3.707 2.293a1 1 0 0 0-1.414 1.414l26 26a1 1 0 0 0 1.414-1.414l-1.499-1.5A4.93 4.93 0 0 0 30 23.004"/></svg>