<svg xmlns="http://www.w3.org/2000/svg" width="32" height="32" viewBox="0 0 32 32"><path d="M7 26.253a3.254 3.254 0 0 1-3.25-3.25v-12a3.25 3.25 0 0 1 1.403-2.67l-1.06-1.06a4.73 4.73 0 0 0-1.843 3.73v12A4.755 4.755 0 0 0 7 27.753h17.572l-1.5-1.5zM29.75 23.003v-12A4.756 4.756 0 0 0 25 6.253a.75.75 0 1 0 0 1.5 3.254 3.254 0 0 1 3.25 3.25v12a3.22 3.22 0 0 1-1.484 2.703L16.75 15.689V4.81l2.72 2.72a.75.75 0 1 0 1.06-1.06l-4-4a.75.75 0 0 0-1.06 0l-4 4a.75.75 0 1 0 1.06 1.06l2.72-2.72v9.38L3.53 2.47a.75.75 0 0 0-1.06 1.06l26 26a.75.75 0 1 0 1.06-1.06l-1.692-1.692a4.7 4.7 0 0 0 1.912-3.775"/></svg>