<svg xmlns="http://www.w3.org/2000/svg" width="32" height="32" viewBox="0 0 32 32"><path d="M7 26.503a3.505 3.505 0 0 1-3.5-3.5v-12a3.505 3.505 0 0 1 2.153-3.23l-.736-.735A4.49 4.49 0 0 0 2.5 11.003v12a4.505 4.505 0 0 0 4.5 4.5h18c.119 0 .23-.026.347-.035l-.965-.965zM29.5 23.003v-12a4.505 4.505 0 0 0-4.5-4.5.5.5 0 1 0 0 1 3.504 3.504 0 0 1 3.5 3.5v12a3.5 3.5 0 0 1-1.762 3.027L16.5 15.793V4.207l3.146 3.146a.5.5 0 0 0 .707-.707l-4-4a.5.5 0 0 0-.707 0l-4 4a.5.5 0 0 0 .707.707L15.5 4.207v10.586L3.353 2.646a.5.5 0 0 0-.707.707l26 26a.5.5 0 0 0 .707-.707l-1.904-1.904a4.46 4.46 0 0 0 2.05-3.74"/></svg>