<svg xmlns="http://www.w3.org/2000/svg" width="32" height="32" viewBox="0 0 32 32"><path d="M28.773 13.508a.5.5 0 0 0-.42.57q.147.956.147 1.922A12.5 12.5 0 1 1 16.961 3.536a.5.5 0 1 0 .076-.996Q16.524 2.5 16 2.5a13.5 13.5 0 1 0 13.342 11.427.504.504 0 0 0-.57-.419M15.75 13a.75.75 0 1 0 0-1.5.75.75 0 0 0 0 1.5M16.5 16a.5.5 0 0 0-.5-.5h-1a.5.5 0 0 0 0 1h.5v4H14a.5.5 0 0 0 0 1h4a.5.5 0 1 0 0-1h-1.5zM20.943 10.5h5.449a3.1 3.1 0 0 0 3.104-2.675A2.99 2.99 0 0 0 27.242 4.6a3.578 3.578 0 0 0-6.826 1.198 2.38 2.38 0 0 0-1.852 2.822 2.41 2.41 0 0 0 2.379 1.881m-1.12-3.243a1.37 1.37 0 0 1 1.066-.507h.5v-.5a2.6 2.6 0 0 1 5.044-1.017l.108.256.277.043a1.997 1.997 0 0 1 1.684 2.188 2.09 2.09 0 0 1-2.11 1.78h-5.45a1.405 1.405 0 0 1-1.398-1.08 1.37 1.37 0 0 1 .28-1.163"/></svg>