<svg xmlns="http://www.w3.org/2000/svg" width="32" height="32" viewBox="0 0 32 32"><path d="M28.735 13.261a.75.75 0 0 0-.628.855q.143.936.143 1.884A12.25 12.25 0 1 1 16.942 3.786a.76.76 0 0 0 .805-.69.75.75 0 0 0-.69-.806q-.524-.04-1.057-.04A13.75 13.75 0 1 0 29.59 13.89a.755.755 0 0 0-.855-.628M15.75 13.25a1 1 0 1 0 0-2 1 1 0 0 0 0 2M16.75 16a.75.75 0 0 0-.75-.75h-1a.75.75 0 0 0 0 1.5h.25v3.5H14a.75.75 0 0 0 0 1.5h4a.75.75 0 1 0 0-1.5h-1.25zM20.943 10.75h5.449a3.35 3.35 0 0 0 3.353-2.898 3.245 3.245 0 0 0-2.334-3.466 3.82 3.82 0 0 0-7.217 1.207 2.63 2.63 0 0 0-1.874 3.076 2.66 2.66 0 0 0 2.623 2.081m-.926-3.335A1.12 1.12 0 0 1 20.889 7h.75v-.75a2.504 2.504 0 0 1 2.374-2.5 2.51 2.51 0 0 1 2.19 1.58l.163.386.413.064a1.746 1.746 0 0 1 1.474 1.914 1.836 1.836 0 0 1-1.861 1.556h-5.45a1.156 1.156 0 0 1-1.154-.882 1.13 1.13 0 0 1 .229-.953"/></svg>