<svg xmlns="http://www.w3.org/2000/svg" width="32" height="32" viewBox="0 0 32 32"><path d="M15.75 13.5a1.25 1.25 0 1 0 0-2.5 1.25 1.25 0 0 0 0 2.5M17 16a1 1 0 0 0-1-1h-1a1 1 0 0 0 0 2v3h-1a1 1 0 0 0 0 2h4a1 1 0 1 0 0-2h-1zM28.697 13.014a1 1 0 0 0-.837 1.14Q28 15.07 28 16A12 12 0 1 1 16.922 4.035a1 1 0 1 0 .154-1.994 14 14 0 1 0 12.76 11.81.997.997 0 0 0-1.14-.837M20.943 11h5.449a3.6 3.6 0 0 0 3.601-3.122 3.49 3.49 0 0 0-2.412-3.702 4.062 4.062 0 0 0-7.605 1.223 2.88 2.88 0 0 0-1.901 3.321A2.91 2.91 0 0 0 20.943 11m-.733-3.427a.88.88 0 0 1 .679-.323h1v-1A2.247 2.247 0 0 1 24.013 4a2.27 2.27 0 0 1 1.959 1.427l.218.515.551.085a1.5 1.5 0 0 1 1.264 1.64A1.585 1.585 0 0 1 26.392 9h-5.45a.916.916 0 0 1-.909-.681.88.88 0 0 1 .177-.746"/></svg>