<svg xmlns="http://www.w3.org/2000/svg" width="32" height="32" viewBox="0 0 32 32"><path d="M28.773 13.508a.5.5 0 0 0-.42.57A12.5 12.5 0 1 1 16.96 3.536a.5.5 0 1 0 .077-.997 13.5 13.5 0 1 0 12.305 11.387.504.504 0 0 0-.57-.419Z"/><path d="M15.75 13a.75.75 0 1 0 0-1.5.75.75 0 0 0 0 1.5ZM16.5 16a.498.498 0 0 0-.5-.5h-1a.5.5 0 0 0 0 1h.5v4H14a.5.5 0 0 0 0 1h4a.5.5 0 1 0 0-1h-1.5V16ZM20.943 10.5h5.449a3.098 3.098 0 0 0 3.104-2.675A2.993 2.993 0 0 0 27.241 4.6a3.578 3.578 0 0 0-6.825 1.198 2.382 2.382 0 0 0-1.852 2.822 2.41 2.41 0 0 0 2.379 1.881Zm-1.12-3.243a1.37 1.37 0 0 1 1.066-.507h.5v-.5a2.6 2.6 0 0 1 5.044-1.017l.108.256.277.043a1.997 1.997 0 0 1 1.684 2.188 2.089 2.089 0 0 1-2.11 1.78h-5.45a1.405 1.405 0 0 1-1.398-1.08 1.37 1.37 0 0 1 .28-1.163Z"/></svg>