<svg xmlns="http://www.w3.org/2000/svg" width="32" height="32" viewBox="0 0 32 32"><path d="M28.735 13.261a.75.75 0 0 0-.628.855c.095.623.143 1.253.143 1.884A12.25 12.25 0 1 1 16.942 3.786a.759.759 0 0 0 .805-.69.75.75 0 0 0-.69-.806A13.75 13.75 0 1 0 29.589 13.89a.755.755 0 0 0-.854-.628Z"/><path d="M15.75 13.25a1 1 0 1 0 0-2 1 1 0 0 0 0 2ZM16.75 16a.75.75 0 0 0-.75-.75h-1a.75.75 0 0 0 0 1.5h.25v3.5H14a.75.75 0 0 0 0 1.5h4a.75.75 0 1 0 0-1.5h-1.25V16ZM20.943 10.75h5.449a3.352 3.352 0 0 0 3.353-2.898 3.245 3.245 0 0 0-2.334-3.466 3.82 3.82 0 0 0-7.217 1.207 2.63 2.63 0 0 0-1.874 3.076 2.659 2.659 0 0 0 2.623 2.081Zm-.926-3.335A1.122 1.122 0 0 1 20.889 7h.75v-.75a2.504 2.504 0 0 1 2.374-2.5 2.508 2.508 0 0 1 2.19 1.58l.163.386.413.064a1.746 1.746 0 0 1 1.474 1.914 1.836 1.836 0 0 1-1.861 1.556h-5.45a1.156 1.156 0 0 1-1.154-.882 1.13 1.13 0 0 1 .229-.953Z"/></svg>