<svg xmlns="http://www.w3.org/2000/svg" width="32" height="32" viewBox="0 0 32 32"><path d="M15.75 13.5a1.25 1.25 0 1 0 0-2.5 1.25 1.25 0 0 0 0 2.5ZM17 16a1.001 1.001 0 0 0-1-1h-1a1 1 0 0 0 0 2v3h-1a1 1 0 0 0 0 2h4a1 1 0 1 0 0-2h-1v-4Z"/><path d="M28.697 13.014a1 1 0 0 0-.837 1.14c.093.61.14 1.228.14 1.846A12 12 0 1 1 16.922 4.035a1 1 0 1 0 .154-1.994 14 14 0 1 0 12.76 11.81.997.997 0 0 0-1.14-.837Z"/><path d="M20.943 11h5.449a3.602 3.602 0 0 0 3.601-3.122 3.493 3.493 0 0 0-2.412-3.702 4.062 4.062 0 0 0-7.605 1.223 2.881 2.881 0 0 0-1.901 3.321A2.91 2.91 0 0 0 20.942 11Zm-.733-3.427a.875.875 0 0 1 .679-.323h1v-1A2.247 2.247 0 0 1 24.013 4a2.268 2.268 0 0 1 1.959 1.427l.218.515.551.085a1.498 1.498 0 0 1 1.264 1.64A1.585 1.585 0 0 1 26.392 9h-5.45a.916.916 0 0 1-.909-.681.879.879 0 0 1 .177-.746Z"/></svg>