<svg xmlns="http://www.w3.org/2000/svg" width="32" height="32" viewBox="0 0 32 32"><path d="M14.056 14.055a2.754 2.754 0 0 0 0 3.89c.332.328.743.565 1.194.687V29a.75.75 0 1 0 1.5 0V18.632c.45-.123.862-.36 1.194-.687a2.751 2.751 0 0 0-3.888-3.89m2.828 2.83a1.249 1.249 0 1 1-1.765-1.768 1.249 1.249 0 0 1 1.765 1.767M16 9.75a6.267 6.267 0 0 1 3.57 11.406.752.752 0 0 0 .026 1.247.75.75 0 0 0 .834-.019A7.749 7.749 0 0 0 16 8.275a7.75 7.75 0 0 0-4.43 14.11.75.75 0 1 0 .86-1.23A6.267 6.267 0 0 1 16 9.75M16 2.25a13.752 13.752 0 0 0-4.23 26.837.75.75 0 0 0 .46-1.428 12.25 12.25 0 1 1 7.54 0 .75.75 0 0 0 .46 1.428A13.752 13.752 0 0 0 16 2.25"/></svg>