<svg xmlns="http://www.w3.org/2000/svg" width="32" height="32" viewBox="0 0 32 32"><path d="M13.879 13.879a3.005 3.005 0 0 0 0 4.244c.317.313.7.55 1.121.694V29a1 1 0 1 0 2 0V18.817a3 3 0 0 0 1.121-.695 3 3 0 0 0-4.242-4.243m1.414 1.414A.998.998 0 0 1 17 16a1 1 0 1 1-1.707-.707M16 10a6.017 6.017 0 0 1 3.427 10.95 1 1 0 1 0 1.146 1.64 8 8 0 1 0-9.146 0 1 1 0 0 0 1.146-1.64A6.018 6.018 0 0 1 16 10M16 2a14.002 14.002 0 0 0-4.307 27.324 1 1 0 1 0 .615-1.903 12 12 0 1 1 7.384 0 1 1 0 0 0 .616 1.903A14.002 14.002 0 0 0 16 2"/></svg>