<svg xmlns="http://www.w3.org/2000/svg" width="32" height="32" viewBox="0 0 32 32"><path d="M14.233 14.232a2.496 2.496 0 0 0 1.267 4.215V29a.5.5 0 1 0 1 0V18.446a2.5 2.5 0 1 0-2.267-4.214m2.828 2.83a1.499 1.499 0 1 1-2.119-2.122 1.499 1.499 0 0 1 2.119 2.121M16 9.5a6.517 6.517 0 0 1 3.714 11.86.5.5 0 1 0 .572.82 7.5 7.5 0 1 0-8.572 0 .5.5 0 1 0 .572-.82A6.516 6.516 0 0 1 16 9.5M16 2.5a13.502 13.502 0 0 0-4.153 26.348.5.5 0 0 0 .306-.951 12.5 12.5 0 1 1 7.694 0 .5.5 0 0 0 .306.951A13.501 13.501 0 0 0 16 2.5"/></svg>