<svg xmlns="http://www.w3.org/2000/svg" width="32" height="32" viewBox="0 0 32 32"><path d="M28 15.5H16.03c-3.883-.287-5.567-2.726-5.489-4.871.075-2.05 1.792-4.118 5.496-4.12a6.76 6.76 0 0 1 4.626 1.86.5.5 0 0 0 .674-.738 7.62 7.62 0 0 0-5.34-2.12c-4.306 0-6.365 2.634-6.455 5.08a5.48 5.48 0 0 0 2.939 4.91H4a.5.5 0 1 0 0 1h11.972c4.625.341 6.619 2.625 6.54 4.737-.074 2.048-2.146 4.252-6.551 4.253a7.71 7.71 0 0 1-6.55-3.37.5.5 0 1 0-.823.569 8.75 8.75 0 0 0 7.133 3.808c.159 0 .255-.006.275-.008 5.032 0 7.424-2.703 7.517-5.214.065-1.779-.985-3.65-3.359-4.776H28a.5.5 0 0 0 0-1"/></svg>