<svg xmlns="http://www.w3.org/2000/svg" width="32" height="32" viewBox="0 0 32 32"><path d="M28 15.25H16.042c-3.713-.278-5.325-2.585-5.25-4.612.07-1.93 1.707-3.877 5.263-3.88a6.37 6.37 0 0 1 4.44 1.796.75.75 0 0 0 1.011-1.108 7.9 7.9 0 0 0-5.509-2.185c-4.472 0-6.61 2.759-6.705 5.322a5.62 5.62 0 0 0 2.355 4.667H4a.75.75 0 1 0 0 1.5h11.964c4.453.333 6.373 2.488 6.3 4.48-.07 1.931-2.062 4.01-6.319 4.012a7.5 7.5 0 0 1-6.328-3.263.75.75 0 1 0-1.234.853 9.01 9.01 0 0 0 7.338 3.916c.161 0 .258-.006.276-.008 5.198 0 7.67-2.828 7.766-5.456a5.18 5.18 0 0 0-2.647-4.534H28a.75.75 0 0 0 0-1.5"/></svg>