<svg xmlns="http://www.w3.org/2000/svg" width="32" height="32" viewBox="0 0 32 32"><path d="M7 2a5 5 0 0 0-5 5v18a5 5 0 0 0 5 5h18a5 5 0 0 0 5-5V7a5 5 0 0 0-5-5zm9.054 13H28a1 1 0 0 1 0 2h-6.102a5.26 5.26 0 0 1 2.115 4.294c-.1 2.743-2.652 5.696-8.016 5.696a4 4 0 0 1-.277.008 9.27 9.27 0 0 1-7.542-4.024 1 1 0 1 1 1.644-1.137 7.22 7.22 0 0 0 6.107 3.155c4.107-.001 6.018-1.956 6.086-3.771.068-1.871-1.78-3.897-6.06-4.221H4a1 1 0 0 1 0-2h6.954a5.79 5.79 0 0 1-1.912-4.427c.099-2.678 2.318-5.562 6.955-5.562a8.12 8.12 0 0 1 5.677 2.25 1 1 0 0 1-1.348 1.477 6.14 6.14 0 0 0-4.254-1.73c-3.406.003-4.964 1.829-5.03 3.64-.071 1.91 1.47 4.083 5.012 4.352"/></svg>