<svg xmlns="http://www.w3.org/2000/svg" width="32" height="32" viewBox="0 0 32 32"><path d="M28 15H16.054c-3.543-.269-5.083-2.442-5.013-4.353.067-1.81 1.625-3.636 5.031-3.64a6.141 6.141 0 0 1 4.254 1.73 1 1 0 0 0 1.348-1.475 8.121 8.121 0 0 0-5.677-2.251c-4.637 0-6.856 2.884-6.955 5.562A5.786 5.786 0 0 0 10.954 15H4a1 1 0 0 0 0 2h11.956c4.28.324 6.127 2.35 6.059 4.22-.068 1.816-1.979 3.77-6.086 3.772a7.215 7.215 0 0 1-6.107-3.155 1 1 0 1 0-1.644 1.137 9.267 9.267 0 0 0 7.542 4.024c.163 0 .26-.006.277-.008 5.364 0 7.915-2.953 8.016-5.696A5.255 5.255 0 0 0 21.898 17H28a1 1 0 0 0 0-2Z"/></svg>