<svg xmlns="http://www.w3.org/2000/svg" width="32" height="32" viewBox="0 0 32 32"><path d="M18.512 3.452a.75.75 0 0 0-1.06.037L11 10.402 4.548 3.489a.749.749 0 1 0-1.096 1.023L9.975 11.5 3.452 18.49a.749.749 0 1 0 1.096 1.023L11 12.599l6.452 6.913a.747.747 0 0 0 1.06.036.75.75 0 0 0 .036-1.06L12.026 11.5l6.522-6.988a.75.75 0 0 0-.036-1.06M26.251 25.161q1.456-1.375 2-2.224a3.87 3.87 0 0 0 .672-2.192q0-1.344-.912-2.224-1.025-.96-2.735-.96-1.505 0-2.56.8-1.185.88-1.377 2.369h1.616q.096-.818.64-1.313.625-.56 1.648-.56.912 0 1.472.464.64.512.64 1.44 0 .769-.44 1.464-.44.697-1.656 1.864l-3.648 3.504v1.408h7.264v-1.408h-5.184z"/></svg>