<svg xmlns="http://www.w3.org/2000/svg" width="32" height="32" viewBox="0 0 32 32"><path d="M18.341 3.635a.5.5 0 0 0-.706.024L11 10.77l-6.634-7.11a.5.5 0 0 0-.73.682l6.681 7.16-6.682 7.159a.499.499 0 1 0 .73.681L11 12.232l6.635 7.11a.498.498 0 0 0 .706.024.499.499 0 0 0 .024-.706l-6.681-7.16 6.682-7.159a.499.499 0 0 0-.025-.706ZM26.236 24.937c.895-.864 1.513-1.568 1.855-2.111a3.811 3.811 0 0 0 .656-2.145c0-.874-.298-1.595-.896-2.16-.661-.64-1.536-.96-2.624-.96-.96 0-1.776.25-2.447.752-.769.555-1.222 1.323-1.36 2.305h1.263c.075-.587.314-1.062.72-1.425.459-.416 1.056-.624 1.793-.624.671 0 1.215.17 1.631.512.47.384.704.923.704 1.616 0 .534-.141 1.032-.424 1.497-.282.464-.808 1.074-1.575 1.832l-3.92 3.872V29h7.103v-1.103h-5.504l3.025-2.961Z"/></svg>