<svg xmlns="http://www.w3.org/2000/svg" width="32" height="32" viewBox="0 0 32 32"><path d="M18.341 3.635a.5.5 0 0 0-.706.024L11 10.77l-6.634-7.11a.5.5 0 0 0-.73.682l6.681 7.16-6.682 7.159a.499.499 0 1 0 .73.681L11 12.232l6.635 7.11a.5.5 0 0 0 .706.024.5.5 0 0 0 .024-.706l-6.681-7.16 6.682-7.159a.5.5 0 0 0-.025-.706M26.236 24.937q1.342-1.296 1.855-2.111a3.8 3.8 0 0 0 .656-2.145q0-1.312-.896-2.16-.992-.96-2.624-.96-1.44 0-2.447.752-1.153.832-1.36 2.305h1.263q.112-.88.72-1.425.688-.624 1.793-.624 1.007 0 1.631.512.704.576.704 1.616 0 .8-.424 1.497-.424.695-1.575 1.832l-3.92 3.872V29h7.103v-1.103h-5.504z"/></svg>