<svg xmlns="http://www.w3.org/2000/svg" width="32" height="32" viewBox="0 0 32 32"><path d="M18.683 3.269a1 1 0 0 0-1.414.049L11 10.034 4.732 3.318a1 1 0 0 0-1.414-.05 1 1 0 0 0-.05 1.415L9.633 11.5l-6.363 6.818A1.002 1.002 0 0 0 4 20a1 1 0 0 0 .732-.317L11 12.967l6.269 6.716a1 1 0 0 0 1.414.049c.403-.377.425-1.01.049-1.414L12.369 11.5l6.363-6.817a1 1 0 0 0-.049-1.414M26.251 25.274q1.552-1.488 2.096-2.273.72-1.024.72-2.24 0-1.344-.944-2.224-1.04-.976-2.8-.976-1.504 0-2.592.784-1.28.896-1.488 2.448h2.016q.111-.75.608-1.216.544-.495 1.409-.496.784 0 1.279.4.543.464.544 1.28 0 .736-.44 1.393-.44.656-1.864 2.015l-3.264 3.168v1.664h7.472v-1.664h-4.912z"/></svg>