<svg xmlns="http://www.w3.org/2000/svg" width="32" height="32" viewBox="0 0 32 32"><path d="M18.683 3.269a1.002 1.002 0 0 0-1.414.049L11 10.034 4.732 3.318a1.002 1.002 0 0 0-1.414-.05 1.002 1.002 0 0 0-.05 1.415L9.633 11.5l-6.363 6.818A1.002 1.002 0 0 0 4 20a.998.998 0 0 0 .732-.317L11 12.967l6.269 6.716a.998.998 0 0 0 1.414.049c.403-.377.425-1.01.049-1.414L12.369 11.5l6.363-6.817a1.002 1.002 0 0 0-.049-1.414ZM26.251 25.274c1.034-.992 1.734-1.75 2.096-2.273.48-.682.72-1.43.72-2.24 0-.896-.315-1.638-.944-2.224-.693-.65-1.627-.976-2.8-.976-1.002 0-1.867.262-2.592.784-.854.598-1.349 1.413-1.488 2.448h2.016c.074-.5.277-.906.608-1.216.363-.33.832-.496 1.409-.496.522 0 .949.133 1.279.4.362.31.544.736.544 1.28 0 .491-.147.955-.44 1.393-.293.437-.915 1.109-1.864 2.015l-3.264 3.168v1.664h7.472v-1.664h-4.912l2.16-2.063Z"/></svg>