<svg xmlns="http://www.w3.org/2000/svg" width="32" height="32" viewBox="0 0 32 32"><path d="M18.512 3.452a.748.748 0 0 0-1.06.037L11 10.402 4.548 3.489a.749.749 0 1 0-1.096 1.023L9.975 11.5 3.452 18.49a.749.749 0 1 0 1.096 1.023L11 12.599l6.452 6.913a.747.747 0 0 0 1.06.036.749.749 0 0 0 .036-1.06L12.026 11.5l6.522-6.988a.749.749 0 0 0-.036-1.06ZM26.251 25.161c.971-.917 1.637-1.658 2-2.224a3.87 3.87 0 0 0 .672-2.192c0-.896-.303-1.637-.912-2.224-.683-.64-1.595-.96-2.735-.96-1.003 0-1.857.266-2.56.8-.79.587-1.249 1.376-1.377 2.369h1.616c.064-.545.278-.983.64-1.313.416-.373.966-.56 1.648-.56.608 0 1.099.155 1.472.464.427.341.64.822.64 1.44 0 .513-.147 1-.44 1.464-.294.465-.845 1.086-1.656 1.864l-3.648 3.504v1.408h7.264v-1.408h-5.184l2.56-2.432Z"/></svg>