<svg xmlns="http://www.w3.org/2000/svg" width="32" height="32" viewBox="0 0 32 32"><path d="M24.455 14.95c.444 0 .724-.292.724-.698V5.429c0-.47-.305-.775-.775-.775-.431 0-.647.153-.965.368L21.23 6.508c-.279.19-.393.355-.393.584 0 .317.241.571.558.571.19 0 .318-.05.508-.178l1.816-1.193h.025v7.96c0 .406.28.698.711.698ZM7.672 25.703c.482 0 .71-.203.901-.736l1.917-5.104h7.884l1.917 5.104c.19.533.419.736.901.736.52 0 .864-.305.864-.8 0-.165-.038-.317-.102-.533L15.632 7.84c-.216-.57-.597-.862-1.194-.862-.596 0-.99.279-1.193.863L6.923 24.383a1.456 1.456 0 0 0-.102.533c0 .482.33.787.85.787Zm3.3-7.338 3.416-9.191h.076l3.415 9.191h-6.906Z"/></svg>