<svg xmlns="http://www.w3.org/2000/svg" width="32" height="32" viewBox="0 0 32 32"><path d="M18.511 12.453a.75.75 0 0 0-1.06.036L11 19.402l-6.452-6.913a.749.749 0 1 0-1.096 1.024L9.975 20.5 3.452 27.49a.749.749 0 1 0 1.095 1.023L11 21.6l6.452 6.913a.747.747 0 0 0 1.06.036.75.75 0 0 0 .035-1.06L12.025 20.5l6.522-6.988a.75.75 0 0 0-.036-1.06M26.252 10.604q1.454-1.375 2-2.225a3.87 3.87 0 0 0 .671-2.191q0-1.343-.912-2.224-1.023-.96-2.735-.96-1.505 0-2.56.8-1.185.88-1.377 2.368h1.617q.095-.816.64-1.312.623-.56 1.648-.56.911 0 1.471.464.64.512.64 1.44 0 .768-.44 1.464-.44.697-1.656 1.864l-3.647 3.504v1.408h7.263v-1.408h-5.184z"/></svg>