<svg xmlns="http://www.w3.org/2000/svg" width="32" height="32" viewBox="0 0 32 32"><path d="M18.682 12.269a1 1 0 0 0-1.414.049L11 19.034l-6.268-6.716a1.001 1.001 0 0 0-1.463 1.365L9.631 20.5l-6.363 6.818A1.002 1.002 0 0 0 4 29a1 1 0 0 0 .732-.318l6.268-6.716 6.27 6.716a1 1 0 0 0 1.413.049c.403-.377.425-1.01.049-1.414L12.368 20.5l6.363-6.817a1 1 0 0 0-.049-1.414M26.252 10.716q1.552-1.489 2.095-2.272.72-1.025.72-2.24 0-1.344-.943-2.224-1.04-.975-2.8-.976-1.504 0-2.593.785-1.28.895-1.487 2.447h2.015q.113-.751.609-1.216.543-.495 1.408-.496.784 0 1.28.4.542.464.543 1.28 0 .736-.44 1.392-.44.657-1.864 2.016l-3.263 3.168v1.664h7.471V12.78h-4.912z"/></svg>