<svg xmlns="http://www.w3.org/2000/svg" width="32" height="32" viewBox="0 0 32 32"><path d="M18.34 12.635a.5.5 0 0 0-.706.025L11 19.768 4.365 12.66a.5.5 0 0 0-.73.681l6.681 7.16-6.682 7.159a.499.499 0 1 0 .73.681L11 21.233l6.635 7.108a.498.498 0 0 0 .706.025.499.499 0 0 0 .025-.706l-6.682-7.16 6.682-7.159a.499.499 0 0 0-.025-.706ZM26.236 10.38c.895-.864 1.514-1.568 1.855-2.112a3.811 3.811 0 0 0 .657-2.144c0-.874-.3-1.594-.897-2.16-.661-.64-1.536-.96-2.624-.96-.96 0-1.775.25-2.447.752-.769.555-1.222 1.323-1.36 2.304h1.263c.075-.587.315-1.061.72-1.424.459-.416 1.057-.624 1.793-.624.672 0 1.216.171 1.632.512.469.384.704.923.704 1.615 0 .534-.142 1.032-.425 1.497-.282.464-.808 1.074-1.575 1.832l-3.92 3.872v1.104h7.103V13.34h-5.503l3.024-2.96Z"/></svg>