<svg xmlns="http://www.w3.org/2000/svg" width="32" height="32" viewBox="0 0 32 32"><path d="M18.34 12.635a.5.5 0 0 0-.706.025L11 19.768 4.365 12.66a.5.5 0 0 0-.73.681l6.681 7.16-6.682 7.159a.499.499 0 1 0 .73.681L11 21.233l6.635 7.108a.5.5 0 0 0 .706.025.5.5 0 0 0 .025-.706l-6.682-7.16 6.682-7.159a.5.5 0 0 0-.025-.706M26.236 10.38q1.343-1.296 1.855-2.112a3.8 3.8 0 0 0 .657-2.144q0-1.311-.897-2.16-.992-.96-2.624-.96-1.44 0-2.447.752-1.153.833-1.36 2.304h1.263q.113-.88.72-1.424.689-.624 1.793-.624 1.008 0 1.632.512.704.577.704 1.615 0 .8-.425 1.497-.424.696-1.575 1.832l-3.92 3.872v1.104h7.103V13.34h-5.503z"/></svg>