<svg xmlns="http://www.w3.org/2000/svg" width="32" height="32" viewBox="0 0 32 32"><path d="M17.416 6.5h-11.2c-2.76 0-5 2.24-5 5.001V21c0 2.025.762 3.555 1.953 4.472q-.113.138-.252.28a4.5 4.5 0 0 1-1.147.854c-.22.11-.591.351-.725.824-.149.53.102.951.296 1.166.348.382.898.58 1.347.684.996.234 2.449.23 3.9-.352.932-.372 1.786-.848 2.523-1.259.251-.14.49-.273.712-.39.93-.494 1.653-.779 2.394-.779H24.22a5 5 0 0 0 4.997-5V15a1 1 0 0 0-.038-.274 2.496 2.496 0 0 1-3.561.855l-.015-.01L24 14.479l-1.613 1.1-.005.004a2.497 2.497 0 0 1-3.789-2.747l.012-.042.603-1.87L17.9 9.798a2.496 2.496 0 0 1-.484-3.299M23.45 3.89l-.771 2.23h-2.15l-.02.001a1.346 1.346 0 0 0-.802 2.385l1.695 1.456-.745 2.312-.006.02a1.346 1.346 0 0 0 2.043 1.48l2.023-1.379 2.013 1.373.01.006a1.346 1.346 0 0 0 2.043-1.48l-.006-.02-.745-2.314 1.694-1.454a1.347 1.347 0 0 0-.8-2.385H26.77l-.787-2.228-.005-.012a1.347 1.347 0 0 0-2.526 0z"/></svg>