<svg xmlns="http://www.w3.org/2000/svg" width="32" height="32" viewBox="0 0 32 32"><path d="m25.506 4.328-.308.893-.945-.326.938.346a1.35 1.35 0 0 1-1.208.879h-.871l.658.566a1.4 1.4 0 0 1 .458 1.459l-.005.017-.283.876.813-.554a1.35 1.35 0 0 1 1.495 0l.008.006.805.549-.293-.91-.005-.018a1.35 1.35 0 0 1 .44-1.404l.684-.586h-.827l-.02-.001a1.35 1.35 0 0 1-1.21-.879l-.005-.013zm-2.044-.207.77-2.23.004-.01a1.346 1.346 0 0 1 2.527 0l.004.012.787 2.228h2.154a1.347 1.347 0 0 1 .801 2.385L28.815 7.96l.745 2.314.006.02a1.345 1.345 0 0 1-2.044 1.48l-.009-.006-2.013-1.373-2.022 1.38a1.346 1.346 0 0 1-2.044-1.482l.006-.02.746-2.311-1.695-1.456a1.346 1.346 0 0 1 .8-2.385h2.17M7 6.5c-1.656 0-3 1.344-3 3.001V19c0 1.848.815 2.813 1.715 3.208a1 1 0 0 1 .54 1.252c-.222.62-.652 1.21-1.127 1.693q-.136.139-.282.272a5 5 0 0 0 1.783-.354c.803-.32 1.488-.703 2.194-1.096.276-.154.555-.309.846-.463.98-.52 2.072-1.012 3.331-1.012h12.003a3 3 0 0 0 2.997-3V14a1 1 0 1 1 2 0v5.5c0 2.76-2.235 5-4.997 5H13c-.74 0-1.465.285-2.393.778q-.335.18-.713.391c-.737.411-1.59.887-2.523 1.26-1.451.58-2.904.585-3.9.351-.45-.105-1-.302-1.346-.684-.195-.215-.446-.636-.296-1.166.133-.473.504-.715.724-.824a4.5 4.5 0 0 0 1.4-1.134C2.76 22.555 2 21.025 2 19V9.501A5 5 0 0 1 7 4.5h11a1 1 0 1 1 0 2z"/></svg>