<svg xmlns="http://www.w3.org/2000/svg" width="33" height="33" fill="none" viewBox="0 0 33 33"><path fill="#0F0F0F" d="M30.053 17.27h-4.019a5.003 5.003 0 0 1-4.978 4.5H11.05a5.003 5.003 0 0 1-4.979-4.5H2.053c.263 7.5 6.43 13.5 14 13.5s13.736-6 14-13.5M30.053 16.27h-4.019a5.003 5.003 0 0 0-4.978-4.5H11.05a5.003 5.003 0 0 0-4.979 4.5H2.053c.263-7.5 6.43-13.5 14-13.5s13.736 6 14 13.5"/><path fill="#0F0F0F" d="M13.05 16.77a2 2 0 1 1-4-.001 2 2 0 0 1 4 .001M21.056 18.77a2 2 0 1 0 .001-4.001 2 2 0 0 0-.001 4.001"/></svg>