<svg xmlns="http://www.w3.org/2000/svg" width="162" height="27" fill="none" viewBox="0 0 162 27"><g clip-path="url(#a)"><path fill="#2CB563" d="M137.889 7.52v-.04c0-3.69 2.76-6.71 6.7-6.71 2.39 0 3.84.83 5.08 2.02l-1.47 1.69c-1.04-.96-2.15-1.61-3.64-1.61-2.47 0-4.28 2.04-4.28 4.58v.04c0 2.54 1.8 4.6 4.28 4.6 1.6 0 2.62-.63 3.73-1.67l1.47 1.48c-1.35 1.41-2.84 2.3-5.27 2.3-3.78 0-6.6-2.95-6.6-6.68M155.438 3.11h-4.12V1h10.54v2.11h-4.12v10.87h-2.3z"/><path fill="#1E3060" d="M135.869 1.09h-8.98v2.04h8.98zM135.889 6.51h-9v2.04h9z"/><path fill="#2CB563" d="M113.26.99h2.07l6.8 8.98V.99h2.2v12.98h-1.87l-7-9.24v9.24h-2.2zM75.54 7.53v-.04c0-3.69 2.76-6.71 6.7-6.71 2.39 0 3.84.83 5.08 2.02l-1.47 1.69c-1.04-.96-2.15-1.61-3.64-1.61-2.47 0-4.28 2.04-4.28 4.58v.04c0 2.54 1.8 4.6 4.28 4.6 1.6 0 2.62-.63 3.73-1.67l1.47 1.48c-1.35 1.41-2.84 2.3-5.27 2.3-3.78 0-6.6-2.95-6.6-6.68M88.35 7.53v-.04c0-3.65 2.82-6.71 6.81-6.71s6.77 3.02 6.77 6.68v.04c0 3.65-2.82 6.71-6.81 6.71s-6.77-3.02-6.77-6.68m11.18 0v-.04c0-2.52-1.84-4.62-4.41-4.62s-4.38 2.06-4.38 4.58v.04c0 2.52 1.84 4.6 4.41 4.6s4.38-2.04 4.38-4.56"/><path fill="#2CB563" d="M103.869 1h2.11l6.96 8.98V1h2.24v12.98h-1.91l-7.16-9.24v9.24h-2.24z"/><path fill="#1E3060" d="M135.879 12.04h-8.99v2.04h8.99zM34.89 1.08h-2.23v13.01h2.23zM5.84 6.51c-2.75-.59-2.96-1.18-2.96-1.98 0-.9.89-1.54 2.16-1.54 1.19 0 2.21.39 3.24 1.22l.34.28 1.31-1.74-.32-.26C8.22 1.38 6.87.9 5.07.9 2.51.9.65 2.47.65 4.68c0 2.61 2.12 3.43 4.42 3.93 2.61.55 2.82 1.16 2.82 1.93 0 .97-.94 1.64-2.28 1.64-1.49 0-2.62-.47-3.88-1.61l-.33-.3L0 11.93l.31.28c1.57 1.4 3.24 2.05 5.25 2.05 2.69 0 4.58-1.59 4.58-3.9 0-2.02-1.32-3.21-4.29-3.86zM24.86 10.29l-3.03-9.25h-1.75l-3.03 9.25-3.06-8.92-.1-.29h-2.4l4.64 13.1h1.75l3.05-8.96 3.03 8.96h1.77l4.64-13.1h-2.35zM57.65 10.54c-1.03.98-2.04 1.64-3.63 1.64-2.4 0-4.28-2.02-4.28-4.63s1.84-4.56 4.28-4.56c1.33 0 2.38.46 3.53 1.55l.31.3 1.52-1.63-.31-.29C57.94 1.86 56.56.88 54.04.88c-3.69 0-6.57 2.95-6.57 6.75s2.8 6.68 6.52 6.68c2.58 0 4.06-1.14 5.16-2.26l.3-.3-1.5-1.48-.3.29zM70.41 1.08v5.4h-6.16v-5.4h-2.22v13.01h2.22V8.62h6.16v5.47h2.23V1.08zM36.72 3.2h4.08v10.86h2.24V3.2h4.08V1.08h-10.4z"/><path fill="#494849" d="M37.25 20.89h-1.88v-.68h4.58v.68h-1.89v5.5h-.81zM47.009 23.49h-2.4v2.23h2.68v.67h-3.48v-6.18h3.34v.67h-2.54v1.95h2.4zM55.809 26.19c-.29.15-.88.29-1.63.29-1.74 0-3.05-1.1-3.05-3.13s1.31-3.25 3.23-3.25c.77 0 1.26.17 1.47.28l-.19.65c-.3-.15-.73-.26-1.25-.26-1.45 0-2.41.93-2.41 2.55 0 1.51.87 2.48 2.38 2.48.49 0 .98-.1 1.3-.26l.17.63zM60.788 20.21v2.59h2.99v-2.59h.81v6.18h-.81v-2.9h-2.99v2.9h-.8v-6.18zM79.47 23.68c-.05-.86-.1-1.9-.09-2.67h-.03c-.21.72-.47 1.49-.78 2.35l-1.09 3h-.61l-1-2.94c-.29-.87-.54-1.67-.72-2.4h-.02c-.02.77-.06 1.81-.12 2.73l-.17 2.65h-.76l.43-6.18h1.02l1.05 2.99c.26.76.47 1.44.62 2.08h.03c.16-.62.38-1.3.65-2.08l1.1-2.99H80l.39 6.18h-.78l-.16-2.71zM85.72 24.45l-.64 1.94h-.83l2.1-6.18h.96l2.11 6.18h-.85l-.66-1.94zm2.03-.63-.6-1.78c-.14-.4-.23-.77-.32-1.13h-.02c-.09.37-.19.74-.31 1.12l-.61 1.79zM93.51 20.29c.49-.07 1.06-.13 1.7-.13 1.15 0 1.96.27 2.5.77.55.5.87 1.22.87 2.22s-.31 1.83-.89 2.4c-.58.58-1.53.89-2.73.89-.57 0-1.04-.03-1.45-.07zm.8 5.47c.2.04.5.05.81.05 1.71 0 2.63-.95 2.63-2.62 0-1.46-.82-2.38-2.5-2.38-.41 0-.72.04-.94.08v4.88zM105.989 23.49h-2.4v2.23h2.68v.67h-3.48v-6.18h3.34v.67h-2.54v1.95h2.4zM116.4 20.21v2.59h2.99v-2.59h.81v6.18h-.81v-2.9h-2.99v2.9h-.8v-6.18zM125.56 20.21v3.66c0 1.38.61 1.97 1.44 1.97.92 0 1.5-.61 1.5-1.97v-3.66h.81v3.6c0 1.9-1 2.68-2.34 2.68-1.27 0-2.22-.72-2.22-2.64v-3.64zM139.079 23.68c-.05-.86-.1-1.9-.09-2.67h-.03c-.21.72-.47 1.49-.78 2.35l-1.09 3h-.61l-1-2.94c-.29-.87-.54-1.67-.71-2.4h-.02c-.02.77-.06 1.81-.12 2.73l-.17 2.65h-.76l.43-6.18h1.02l1.05 2.99c.26.76.47 1.44.62 2.08h.03c.16-.62.38-1.3.65-2.08l1.1-2.99h1.02l.38 6.18h-.78l-.16-2.71zM145.32 24.45l-.64 1.94h-.83l2.1-6.18h.96l2.11 6.18h-.85l-.66-1.94zm2.03-.63-.61-1.78c-.14-.4-.23-.77-.32-1.13h-.02c-.09.37-.19.74-.31 1.12l-.61 1.79h1.87M153.11 26.39v-6.18h.87l1.98 3.13c.46.72.82 1.38 1.11 2.01h.02c-.07-.83-.09-1.59-.09-2.55v-2.59h.75v6.18h-.81l-1.96-3.14c-.43-.69-.84-1.39-1.16-2.06h-.03c.05.79.06 1.53.06 2.56v2.64h-.75z"/></g><defs><clipPath id="a"><path fill="#fff" d="M0 .77h162v26H0z"/></clipPath></defs></svg>