<svg xmlns="http://www.w3.org/2000/svg" width="32" height="32" viewBox="0 0 32 32"><path d="M25 9H7a5.006 5.006 0 0 0-5 5v4a5.006 5.006 0 0 0 5 5h18a5.006 5.006 0 0 0 5-5v-4a5.006 5.006 0 0 0-5-5M4 14a3.003 3.003 0 0 1 3-3h18a3.004 3.004 0 0 1 3 3v4c0 .614-.19 1.213-.545 1.715l-2.068-2.588A2.99 2.99 0 0 0 23.044 16H8.957a2.99 2.99 0 0 0-2.345 1.128l-2.066 2.587A2.98 2.98 0 0 1 4 18zm3 7a3 3 0 0 1-.819-.128l1.993-2.495A1 1 0 0 1 8.957 18h14.087a1 1 0 0 1 .781.376l1.994 2.496A3 3 0 0 1 25 21z"/></svg>