<svg xmlns="http://www.w3.org/2000/svg" width="32" height="32" viewBox="0 0 32 32"><path d="M25 9.25H7A4.755 4.755 0 0 0 2.25 14v4A4.755 4.755 0 0 0 7 22.75h18A4.755 4.755 0 0 0 29.75 18v-4A4.755 4.755 0 0 0 25 9.25m-18 12c-.426 0-.848-.085-1.242-.25l2.221-2.78a1.25 1.25 0 0 1 .978-.47h14.087a1.25 1.25 0 0 1 .976.47L26.243 21a3.2 3.2 0 0 1-1.243.25zM28.25 18a3.22 3.22 0 0 1-.8 2.11l-2.258-2.827a2.74 2.74 0 0 0-2.148-1.033H8.957a2.74 2.74 0 0 0-2.15 1.034L4.55 20.11A3.22 3.22 0 0 1 3.75 18v-4A3.254 3.254 0 0 1 7 10.75h18A3.254 3.254 0 0 1 28.25 14z"/></svg>