<svg xmlns="http://www.w3.org/2000/svg" width="32" height="32" viewBox="0 0 32 32"><path d="M25 9.5H7A4.505 4.505 0 0 0 2.5 14v4A4.505 4.505 0 0 0 7 22.5h18a4.505 4.505 0 0 0 4.5-4.5v-4A4.505 4.505 0 0 0 25 9.5m-18 12a3.46 3.46 0 0 1-1.625-.42l2.41-3.016a1.5 1.5 0 0 1 1.172-.564h14.087a1.5 1.5 0 0 1 1.172.564l2.41 3.016c-.5.272-1.058.416-1.626.42zM28.5 18a3.49 3.49 0 0 1-1.058 2.5l-2.445-3.06a2.5 2.5 0 0 0-1.953-.94H8.957a2.5 2.5 0 0 0-1.954.94L4.558 20.5A3.49 3.49 0 0 1 3.5 18v-4A3.504 3.504 0 0 1 7 10.5h18a3.504 3.504 0 0 1 3.5 3.5z"/></svg>