<svg xmlns="http://www.w3.org/2000/svg" width="32" height="32" viewBox="0 0 32 32"><path d="M25 9H7a5.006 5.006 0 0 0-5 5v4a5.006 5.006 0 0 0 5 5h18a5.006 5.006 0 0 0 5-5v-4a5.006 5.006 0 0 0-5-5ZM4 14a3.003 3.003 0 0 1 3-3h18a3.004 3.004 0 0 1 3 3v4c0 .614-.19 1.213-.545 1.715l-2.068-2.588A2.988 2.988 0 0 0 23.044 16H8.957a2.99 2.99 0 0 0-2.345 1.128l-2.066 2.587A2.978 2.978 0 0 1 4 18v-4Zm3 7a2.96 2.96 0 0 1-.819-.128l1.993-2.495A1 1 0 0 1 8.957 18h14.087a1.001 1.001 0 0 1 .781.376l1.994 2.495A2.957 2.957 0 0 1 25 21H7Z"/></svg>