<svg xmlns="http://www.w3.org/2000/svg" width="32" height="32" viewBox="0 0 32 32"><path d="M25 5.25h-4.495l-.005-.001H7A4.755 4.755 0 0 0 2.25 10v12A4.755 4.755 0 0 0 7 26.75h18A4.756 4.756 0 0 0 29.75 22V10A4.755 4.755 0 0 0 25 5.25m-12.75 13.5v-5.501h7.5v5.5zm7.5 1.5v5h-7.5v-5zm-16-7.001h7v5.5h-7zm8.5-1.5v-5h7.5v5zm9 1.5h7v5.5h-7zm7-3.25v1.75h-7v-5H25A3.254 3.254 0 0 1 28.25 10M7 6.75h3.75v5h-7v-1.75A3.254 3.254 0 0 1 7 6.75M3.75 22v-1.75h7v5H7A3.254 3.254 0 0 1 3.75 22M25 25.25h-3.75v-5h7V22A3.254 3.254 0 0 1 25 25.25"/></svg>