<svg xmlns="http://www.w3.org/2000/svg" width="32" height="32" viewBox="0 0 32 32"><path d="M16 10.5a.5.5 0 0 0 .5-.5V5a.5.5 0 0 0-1 0v5a.5.5 0 0 0 .5.5ZM8.538 7.87a.5.5 0 0 0-.707.707l3.535 3.535a.5.5 0 0 0 .707-.707L8.538 7.87ZM20.205 12.257a.497.497 0 0 0 .353-.147l3.536-3.536a.5.5 0 1 0-.707-.707l-3.536 3.536a.5.5 0 0 0 .354.854ZM11.365 19.89l-3.536 3.535a.5.5 0 1 0 .707.707l3.536-3.536a.5.5 0 1 0-.707-.707ZM10.5 16a.5.5 0 0 0-.5-.5H5a.5.5 0 0 0 0 1h5a.5.5 0 0 0 .5-.5ZM29.237 22.56l-13-7a.5.5 0 0 0-.677.677l7 13a.502.502 0 0 0 .785.125.5.5 0 0 0 .145-.264l.935-4.673 4.673-.935a.5.5 0 0 0 .139-.93Zm-5.335.95a.5.5 0 0 0-.392.392l-.728 3.638-5.551-10.31 10.31 5.552-3.64.727Z"/></svg>