<svg xmlns="http://www.w3.org/2000/svg" width="32" height="32" viewBox="0 0 32 32"><path d="M16 10.75a.75.75 0 0 0 .75-.75V5a.75.75 0 1 0-1.5 0v5a.75.75 0 0 0 .75.75M8.714 7.693a.75.75 0 1 0-1.06 1.06l3.536 3.536a.75.75 0 0 0 1.06-1.06zM20.205 12.507a.75.75 0 0 0 .53-.22L24.27 8.75a.75.75 0 1 0-1.06-1.06l-3.536 3.536a.75.75 0 0 0 .53 1.28M11.188 19.713l-3.536 3.536a.75.75 0 1 0 1.061 1.06l3.536-3.536a.75.75 0 0 0 .015-1.075.75.75 0 0 0-1.076.015M10.75 16a.75.75 0 0 0-.75-.75H5a.75.75 0 1 0 0 1.5h5a.75.75 0 0 0 .75-.75M29.356 22.34l-13-7a.75.75 0 0 0-1.016 1.015l7 13a.75.75 0 0 0 1.396-.208l.902-4.51 4.51-.902a.75.75 0 0 0 .208-1.395m-5.503.925a.75.75 0 0 0-.588.588l-.592 2.958-4.827-8.965 8.965 4.827z"/></svg>