<svg xmlns="http://www.w3.org/2000/svg" width="32" height="32" viewBox="0 0 32 32"><path d="M16 11a1 1 0 0 0 1-1V5a1 1 0 0 0-2 0v5a1 1 0 0 0 1 1ZM8.891 7.516A1 1 0 1 0 7.477 8.93l3.536 3.535a1 1 0 0 0 1.414-1.414L8.89 7.516ZM20.205 12.757a.997.997 0 0 0 .707-.293l3.535-3.537a1 1 0 0 0-1.414-1.414l-3.535 3.537a1 1 0 0 0 .707 1.707ZM11.011 19.536l-3.535 3.536a1 1 0 1 0 1.414 1.414l3.535-3.536a.999.999 0 0 0-.704-1.716 1 1 0 0 0-.71.302ZM11 16a1 1 0 0 0-1-1H5a1 1 0 0 0 0 2h5a1 1 0 0 0 1-1ZM29.474 22.119l-13-7a1 1 0 0 0-1.354 1.354l7 13a1 1 0 0 0 1.861-.277l.87-4.346 4.346-.87a1 1 0 0 0 .277-1.861Zm-5.67.9a1 1 0 0 0-.784.784l-.456 2.277-4.103-7.62 7.62 4.104-2.277.455Z"/></svg>