<svg xmlns="http://www.w3.org/2000/svg" width="32" height="32" viewBox="0 0 32 32"><path d="M22.5 6.5a3 3 0 1 0 0 6 3 3 0 0 0 0-6Zm0 5a2 2 0 1 1 0-4 2 2 0 0 1 0 4Z"/><path d="M28 2.5H16.686a1.491 1.491 0 0 0-1.06.44l-12.1 12.1a3.498 3.498 0 0 0 0 4.95l8.485 8.485a3.498 3.498 0 0 0 4.949 0l12.1-12.1a1.493 1.493 0 0 0 .44-1.062V4A1.502 1.502 0 0 0 28 2.5Zm.5 12.813a.497.497 0 0 1-.146.354l-12.101 12.1a2.558 2.558 0 0 1-3.535 0l-8.486-8.485a2.498 2.498 0 0 1 0-3.535l12.101-12.1a.496.496 0 0 1 .354-.147H28a.501.501 0 0 1 .5.5v11.313Z"/></svg>