<svg xmlns="http://www.w3.org/2000/svg" width="32" height="32" viewBox="0 0 32 32"><path d="M22.5 6.25a3.25 3.25 0 1 0 0 6.5 3.25 3.25 0 0 0 0-6.5m0 5a1.75 1.75 0 1 1 0-3.5 1.75 1.75 0 0 1 0 3.5M28 2.25H16.686a1.74 1.74 0 0 0-1.237.513l-12.1 12.1a3.75 3.75 0 0 0 0 5.303l8.485 8.485a3.75 3.75 0 0 0 5.303 0l12.1-12.1a1.74 1.74 0 0 0 .513-1.237V4A1.75 1.75 0 0 0 28 2.25m.25 13.064a.25.25 0 0 1-.073.176l-12.1 12.1a2.304 2.304 0 0 1-3.183 0L4.41 19.107a2.25 2.25 0 0 1 0-3.182l12.1-12.1a.25.25 0 0 1 .177-.074H28a.25.25 0 0 1 .25.25z"/></svg>