<svg xmlns="http://www.w3.org/2000/svg" width="32" height="32" viewBox="0 0 32 32"><path d="M5 8.5a5.5 5.5 0 0 1 10.935-.847 1 1 0 1 0 1.977-.306A7.502 7.502 0 0 0 3 8.5a7.5 7.5 0 0 0 5.77 7.3 1 1 0 0 0 .46-1.947A5.5 5.5 0 0 1 5 8.5m5.785-2.397c-1.484-.297-2.825 1.04-2.463 2.535.104.43.325.822.637 1.134l5.484 5.483-3.81 3.81a4.5 4.5 0 0 0 0 6.364l3.124 3.125a6.7 6.7 0 0 0 4.737 1.963h.318a7.59 7.59 0 0 0 7.554-6.86 9.9 9.9 0 0 0-.14-2.848L24.09 9.944a1.13 1.13 0 0 0-1.108-.912 2.69 2.69 0 0 0-2.668 3.026l.19 1.501v.004l.226 1.904-8.699-8.698a2.45 2.45 0 0 0-1.246-.666"/></svg>