<svg xmlns="http://www.w3.org/2000/svg" width="32" height="32" viewBox="0 0 32 32"><path d="M5 8.5a5.5 5.5 0 0 1 10.935-.847 1 1 0 1 0 1.977-.306A7.502 7.502 0 0 0 3 8.5a7.5 7.5 0 0 0 5.77 7.3 1 1 0 0 0 .46-1.947A5.5 5.5 0 0 1 5 8.5m5.873-2.878A3.038 3.038 0 0 0 7.625 8.98c.085.78.434 1.508.989 2.063l4.9 4.9-2.75 2.749a5 5 0 0 0 0 7.07l3.125 3.126a7.2 7.2 0 0 0 5.09 2.108h.318a8.09 8.09 0 0 0 8.052-7.31c.096-1 .047-2.009-.147-2.994L25.066 9.828a1.63 1.63 0 0 0-1.598-1.315 3.19 3.19 0 0 0-3.165 3.588l.19 1.505.056.469-7.441-7.441a3.48 3.48 0 0 0-2.2-1.01zm-1.26 3.142a1.038 1.038 0 0 1 1.11-1.148l.035.003c.353.026.685.179.936.429l9.481 9.481a1 1 0 0 0 1.7-.825l-.397-3.341-.19-1.512a1.19 1.19 0 0 1 .882-1.3l2.07 10.528c.156.795.196 1.608.118 2.415a6.09 6.09 0 0 1-6.06 5.503h-.318a5.2 5.2 0 0 1-3.677-1.522l-3.125-3.125a3 3 0 0 1 0-4.243l3.457-3.456a1 1 0 0 0 0-1.415L10.028 9.63a1.45 1.45 0 0 1-.415-.866"/></svg>