<svg xmlns="http://www.w3.org/2000/svg" width="32" height="32" viewBox="0 0 32 32"><path d="M4.75 8.5a5.75 5.75 0 1 1 11.5 0 .75.75 0 0 0 1.5 0 7.25 7.25 0 1 0-7.25 7.25.75.75 0 0 0 0-1.5A5.75 5.75 0 0 1 4.75 8.5m6.084-2.642c-1.658-.331-3.162 1.16-2.755 2.839.115.474.359.907.703 1.252l5.307 5.306-3.633 3.634a4.75 4.75 0 0 0 0 6.717l3.124 3.125a6.95 6.95 0 0 0 4.914 2.035h.318a7.84 7.84 0 0 0 7.803-7.085c.094-.975.046-1.96-.143-2.92L24.336 9.895a1.38 1.38 0 0 0-1.354-1.114 2.94 2.94 0 0 0-2.916 3.307l.19 1.505.14 1.187-8.188-8.19a2.7 2.7 0 0 0-1.374-.733M9.537 8.343c-.14-.577.384-1.138 1.003-1.014.23.046.445.16.608.324l9.719 9.719a.75.75 0 0 0 1.275-.62l-.397-3.34-.19-1.51a1.44 1.44 0 0 1 1.329-1.616L25 21.05c.161.819.202 1.656.122 2.487a6.34 6.34 0 0 1-6.31 5.73h-.318a5.45 5.45 0 0 1-3.853-1.597l-3.125-3.125a3.25 3.25 0 0 1 0-4.596l4.164-4.163a.75.75 0 0 0 0-1.061L9.843 8.888a1.16 1.16 0 0 1-.306-.545"/></svg>