<svg xmlns="http://www.w3.org/2000/svg" width="32" height="32" viewBox="0 0 32 32"><path d="M4.5 8.5a6 6 0 1 1 12 0 .5.5 0 0 0 1 0 7 7 0 1 0-7 7 .5.5 0 0 0 0-1 6 6 0 0 1-6-6m6.285-2.397c-1.484-.297-2.825 1.04-2.463 2.535.104.43.325.822.637 1.134l5.484 5.483-3.81 3.81a4.5 4.5 0 0 0 0 6.364l3.124 3.125a6.7 6.7 0 0 0 4.737 1.963h.318a7.59 7.59 0 0 0 7.554-6.86 9.9 9.9 0 0 0-.14-2.848L24.09 9.944a1.13 1.13 0 0 0-1.108-.912 2.69 2.69 0 0 0-2.668 3.026l.19 1.501v.004l.226 1.904-8.699-8.698a2.45 2.45 0 0 0-1.246-.666m-1.49 2.3c-.185-.762.502-1.477 1.294-1.319.278.056.537.193.735.392l9.72 9.719a.5.5 0 0 0 .85-.413l-.397-3.341-.19-1.508a1.69 1.69 0 0 1 1.675-1.9.13.13 0 0 1 .127.104l2.136 10.865c.166.842.208 1.704.126 2.56a6.59 6.59 0 0 1-6.559 5.954h-.318a5.7 5.7 0 0 1-4.03-1.669l-3.125-3.125a3.5 3.5 0 0 1 0-4.95l4.164-4.163a.5.5 0 0 0 0-.707L9.666 9.065a1.4 1.4 0 0 1-.372-.663"/></svg>