<svg xmlns="http://www.w3.org/2000/svg" width="32" height="32" viewBox="0 0 32 32"><path d="M24 8.59a.75.75 0 0 0 .75-.75V6.75a.75.75 0 1 0-1.5 0v1.09a.75.75 0 0 0 .75.75M24 10.626a.75.75 0 1 0 0-1.5.75.75 0 0 0 0 1.5M19.835 13.168h8.33a1.834 1.834 0 0 0 1.595-2.739l-4.154-7.5-.01-.018a1.833 1.833 0 0 0-3.178.016l-4.166 7.483a1.834 1.834 0 0 0 1.583 2.758m4.175-8.99 3.873 6.99h-7.765zM29 16a1 1 0 0 0-1 1v4.555A3.25 3.25 0 0 1 25 25H22.77a6.75 6.75 0 0 0-3.633-4.285 4.5 4.5 0 1 0-6.277 0A6.75 6.75 0 0 0 9.228 25H7a3.25 3.25 0 0 1-3-3.445V10.444A3.25 3.25 0 0 1 7 7h9a1 1 0 1 0 0-2H7a5.24 5.24 0 0 0-5 5.444v11.111A5.24 5.24 0 0 0 7 27h2.027c.12.78.691 1.725 2.52 2.36 1.44.45 2.944.666 4.453.64 3.073 0 6.63-.796 6.966-3H25a5.24 5.24 0 0 0 5-5.445V17a1 1 0 0 0-1-1m-15.5 1.5a2.5 2.5 0 1 1 5 0 2.5 2.5 0 0 1-5 0M16 28c-3.236 0-5-.887-5-1.343A4.843 4.843 0 0 1 16 22a4.843 4.843 0 0 1 5 4.657C21 27.113 19.235 28 16 28"/></svg>