<svg xmlns="http://www.w3.org/2000/svg" width="32" height="32" viewBox="0 0 32 32"><path d="M30 10a5 5 0 0 0-5-5H7c-.462.006-.921.082-1.36.225L3.706 3.293a1 1 0 1 0-1.414 1.414l25 25a1 1 0 1 0 1.414-1.414l-1.736-1.736A5.48 5.48 0 0 0 30 21.555zm-2 6.975v4.58a3.31 3.31 0 0 1-2.63 3.402l-5.396-5.397c.34-.634.52-1.341.526-2.06A4.504 4.504 0 0 0 16 13a4.4 4.4 0 0 0-2.07.515L7.413 7H25a3 3 0 0 1 3 3zm-10.233-1.242c.468.468.732 1.104.733 1.767a2.4 2.4 0 0 1-.07.515l-2.946-2.945q.255-.063.516-.07c.663 0 1.298.264 1.767.733M16 28c3.235 0 5-.887 5-1.343a4 4 0 0 0-.051-.467l1.675 1.675C21.606 29.414 18.63 30 16 30c-1.51.026-3.013-.19-4.453-.64-1.829-.635-2.4-1.58-2.52-2.36H7a5.243 5.243 0 0 1-5-5.445V10.444a5.8 5.8 0 0 1 .606-2.597l1.55 1.55c-.1.34-.152.693-.156 1.047v11.111A3.25 3.25 0 0 0 7 25h2.228a6.75 6.75 0 0 1 3.633-4.285 4.28 4.28 0 0 1-1.292-3.905l5.269 5.269a5.3 5.3 0 0 0-.838-.08 4.843 4.843 0 0 0-5 4.658C11 27.113 12.764 28 16 28"/></svg>