<svg xmlns="http://www.w3.org/2000/svg" width="32" height="32" viewBox="0 0 32 32"><path d="M9.252 26.755c.036.739.495 1.715 2.376 2.368 1.415.441 2.89.653 4.371.627 3.07 0 6.64-.79 6.741-3H25A4.755 4.755 0 0 0 29.75 22V10A4.755 4.755 0 0 0 25 5.25H7A4.755 4.755 0 0 0 2.25 10v12A4.755 4.755 0 0 0 7 26.75H9.25zm6.747 1.495c-3.093 0-5.25-.84-5.25-1.593A5.093 5.093 0 0 1 16 21.75a5.093 5.093 0 0 1 5.25 4.907c0 .754-2.156 1.593-5.25 1.593M13.25 17.5a2.75 2.75 0 1 1 5.5 0 2.75 2.75 0 0 1-5.5 0m15 4.5A3.254 3.254 0 0 1 25 25.25H22.58a6.52 6.52 0 0 0-3.907-4.474 4.25 4.25 0 1 0-5.347 0 6.52 6.52 0 0 0-3.907 4.474h-2.42A3.254 3.254 0 0 1 3.75 22V10A3.254 3.254 0 0 1 7 6.75h18A3.254 3.254 0 0 1 28.25 10z"/></svg>