<svg xmlns="http://www.w3.org/2000/svg" width="32" height="32" viewBox="0 0 32 32"><path d="M24 8.59a.75.75 0 0 0 .75-.75V6.75a.75.75 0 1 0-1.5 0v1.09a.75.75 0 0 0 .75.75M24 10.626a.75.75 0 1 0 0-1.5.75.75 0 0 0 0 1.5M19.834 12.918h8.331a1.584 1.584 0 0 0 1.376-2.367l-4.154-7.5-.008-.014a1.582 1.582 0 0 0-2.743.012l-4.169 7.487a1.583 1.583 0 0 0 1.367 2.382m4.177-9.168a.07.07 0 0 1 .069.037l4.149 7.49c.003.005-.066.136-.064.14h-8.33l-.065-.138zM29 16.25a.75.75 0 0 0-.75.75v4.555A3.5 3.5 0 0 1 25 25.25h-2.42a6.52 6.52 0 0 0-3.907-4.474 4.25 4.25 0 1 0-5.347 0 6.52 6.52 0 0 0-3.907 4.474h-2.42a3.497 3.497 0 0 1-3.25-3.695V10.444A3.5 3.5 0 0 1 7 6.75h9a.75.75 0 0 0 0-1.5H7a4.993 4.993 0 0 0-4.75 5.194v11.111A4.993 4.993 0 0 0 7 26.75h2.257c-.001-.03-.007-.063-.007-.093 0 .748.414 1.783 2.38 2.466 1.414.441 2.89.653 4.37.627 3.07 0 6.64-.79 6.741-3H25a4.993 4.993 0 0 0 4.75-5.195V17a.75.75 0 0 0-.75-.75M13.25 17.5a2.75 2.75 0 1 1 5.499 0 2.75 2.75 0 0 1-5.5 0M16 28.25c-3.094 0-5.25-.84-5.25-1.593A5.093 5.093 0 0 1 16 21.75a5.094 5.094 0 0 1 5.25 4.907c0 .754-2.157 1.593-5.25 1.593"/></svg>