<svg xmlns="http://www.w3.org/2000/svg" width="32" height="32" viewBox="0 0 32 32"><path d="M24 8.59a.75.75 0 0 0 .75-.75V6.75a.75.75 0 1 0-1.5 0v1.09a.75.75 0 0 0 .75.75M24 10.626a.75.75 0 1 0 0-1.5.75.75 0 0 0 0 1.5M19.835 13.168h8.33a1.834 1.834 0 0 0 1.595-2.739l-4.154-7.5-.01-.018a1.833 1.833 0 0 0-3.178.016l-4.166 7.483a1.834 1.834 0 0 0 1.583 2.758m4.175-8.99 3.873 6.99h-7.765zM21 26.657C21 27.113 19.235 28 16 28s-5-.887-5-1.343A4.843 4.843 0 0 1 16 22q.42.006.838.079l-5.269-5.269a4.28 4.28 0 0 0 1.292 3.905A6.76 6.76 0 0 0 9.228 25H7a3.25 3.25 0 0 1-3-3.445V10.444c.004-.354.056-.707.156-1.047l-1.55-1.55A5.8 5.8 0 0 0 2 10.444v11.111A5.24 5.24 0 0 0 7 27h2.027c.12.78.691 1.725 2.52 2.36 1.44.45 2.944.666 4.453.64 2.63 0 5.606-.586 6.624-2.135l-1.675-1.675q.038.232.05.467M29 16a1 1 0 0 0-1 1v4.555a3.31 3.31 0 0 1-2.63 3.402l-5.396-5.397c.34-.634.52-1.341.526-2.06A4.504 4.504 0 0 0 16 13a4.4 4.4 0 0 0-2.07.515L7.413 7H16a1 1 0 0 0 0-2H7c-.462.006-.921.082-1.36.225L3.706 3.293a1 1 0 1 0-1.414 1.414l25 25a1 1 0 1 0 1.414-1.414l-1.736-1.736A5.48 5.48 0 0 0 30 21.555V17a1 1 0 0 0-1-1m-13-1a2.5 2.5 0 0 1 2.5 2.5 2.4 2.4 0 0 1-.07.515l-2.946-2.945q.255-.063.516-.07"/></svg>