<svg xmlns="http://www.w3.org/2000/svg" width="32" height="32" viewBox="0 0 32 32"><path d="M9.252 26.756c.036.738.496 1.714 2.376 2.367 1.415.441 2.89.653 4.371.627 3.07 0 6.64-.79 6.741-3H25a4.993 4.993 0 0 0 4.75-5.195V17a.75.75 0 1 0-1.5 0v4.555A3.5 3.5 0 0 1 25 25.25h-2.42a6.52 6.52 0 0 0-3.907-4.474 4.25 4.25 0 1 0-5.347 0 6.52 6.52 0 0 0-3.907 4.474h-2.42a3.497 3.497 0 0 1-3.25-3.695V10.444A3.5 3.5 0 0 1 7 6.75h7a.75.75 0 0 0 0-1.5H7a4.993 4.993 0 0 0-4.75 5.194v11.111A4.993 4.993 0 0 0 7 26.75h2.253zm3.997-9.256a2.75 2.75 0 1 1 5.5 0 2.75 2.75 0 0 1-5.5 0M16 28.25c-3.093 0-5.25-.84-5.25-1.593A5.093 5.093 0 0 1 16 21.75a5.094 5.094 0 0 1 5.25 4.907c0 .754-2.156 1.593-5.25 1.593M24.014 13.748a5.75 5.75 0 1 0-5.75-5.75 5.756 5.756 0 0 0 5.75 5.75m0-1.5a4.25 4.25 0 0 1-4.174-3.5h8.348a4.25 4.25 0 0 1-4.174 3.5m0-8.5a4.25 4.25 0 0 1 4.174 3.5H19.84a4.25 4.25 0 0 1 4.174-3.5"/></svg>