<svg xmlns="http://www.w3.org/2000/svg" width="32" height="32" viewBox="0 0 32 32"><path d="M24 8.59a.75.75 0 0 0 .75-.75V6.75a.75.75 0 1 0-1.5 0v1.09a.75.75 0 0 0 .75.75M24 10.626a.75.75 0 1 0 0-1.5.75.75 0 0 0 0 1.5M19.834 12.918h8.331a1.584 1.584 0 0 0 1.376-2.367l-4.154-7.5-.008-.014a1.582 1.582 0 0 0-2.743.012l-4.169 7.487a1.583 1.583 0 0 0 1.367 2.382m4.177-9.168a.07.07 0 0 1 .069.037l4.149 7.49c.003.005-.066.136-.064.14h-8.33l-.065-.138zM29 16.25a.75.75 0 0 0-.75.75v4.555a3.53 3.53 0 0 1-2.972 3.663l-5.61-5.61c.38-.638.58-1.366.581-2.108A4.254 4.254 0 0 0 16 13.25a4.14 4.14 0 0 0-2.109.58L6.825 6.764c.058-.003.115-.014.174-.014h9a.75.75 0 0 0 0-1.5H7c-.489.001-.974.087-1.435.254L3.53 3.47A.75.75 0 1 0 2.47 4.53l25 25a.75.75 0 0 0 1.06-1.06l-2.016-2.016a5.16 5.16 0 0 0 3.235-4.899V17a.75.75 0 0 0-.75-.75m-13-1.5a2.753 2.753 0 0 1 2.75 2.75 2.7 2.7 0 0 1-.206.984l-3.53-3.53c.313-.13.647-.2.985-.204M21.25 26.657c0 .754-2.157 1.593-5.25 1.593s-5.25-.84-5.25-1.593A5.093 5.093 0 0 1 16 21.75c.655.002 1.304.12 1.918.35l-1.857-1.857c-.02.001-.04.007-.062.007a2.753 2.753 0 0 1-2.75-2.75c0-.021.006-.04.007-.062l-1.272-1.271a4.115 4.115 0 0 0 1.342 4.61 6.52 6.52 0 0 0-3.907 4.473h-2.42a3.497 3.497 0 0 1-3.25-3.695V10.444a4.03 4.03 0 0 1 .521-1.991l-1.08-1.08a5.47 5.47 0 0 0-.94 3.071v11.111A4.993 4.993 0 0 0 7 26.75h2.256c-.001-.03-.007-.063-.007-.093 0 .748.414 1.783 2.38 2.466 1.414.441 2.89.653 4.37.627 2.998 0 6.463-.757 6.719-2.85l-1.747-1.747c.177.482.27.99.278 1.504"/></svg>