<svg xmlns="http://www.w3.org/2000/svg" width="32" height="32" viewBox="0 0 32 32"><path d="M24 8.34a.5.5 0 0 0 .5-.5V6.75a.5.5 0 0 0-1 0v1.09a.497.497 0 0 0 .5.5M24 10.376a.5.5 0 1 0 0-1 .5.5 0 0 0 0 1M19.835 12.668h8.33a1.334 1.334 0 0 0 1.158-1.996l-4.154-7.5-.006-.01a1.375 1.375 0 0 0-2.308.009l-4.172 7.49a1.333 1.333 0 0 0 1.152 2.007m-.284-1.511 4.172-7.491a.332.332 0 0 1 .574-.004l4.157 7.504a.335.335 0 0 1-.288.502h-8.331a.33.33 0 0 1-.29-.167.33.33 0 0 1 .006-.344M29 16.5a.5.5 0 0 0-.5.5v4.555A3.747 3.747 0 0 1 25 25.5h-2.62a6.28 6.28 0 0 0-4.22-4.643 4 4 0 1 0-4.32 0A6.28 6.28 0 0 0 9.619 25.5h-2.62a3.746 3.746 0 0 1-3.5-3.945V10.444A3.747 3.747 0 0 1 7 6.5h9a.5.5 0 0 0 0-1H7a4.743 4.743 0 0 0-4.5 4.944v11.111A4.743 4.743 0 0 0 7 26.5h2.51c-.002.052-.01.104-.01.157 0 .667.384 1.596 2.212 2.23 1.387.432 2.835.639 4.289.613 3.235 0 6.5-.88 6.5-2.843 0-.053-.007-.105-.009-.157H25a4.743 4.743 0 0 0 4.5-4.945V17a.5.5 0 0 0-.5-.5m-16 1a3 3 0 1 1 5.999 0 3 3 0 0 1-6 0m3 11c-3.084 0-5.5-.81-5.5-1.843A5.343 5.343 0 0 1 16 21.5a5.343 5.343 0 0 1 5.5 5.157c0 1.033-2.416 1.843-5.5 1.843"/></svg>