<svg xmlns="http://www.w3.org/2000/svg" width="32" height="32" viewBox="0 0 32 32"><path d="M29.75 10A4.75 4.75 0 0 0 25 5.25H7c-.49.001-.975.087-1.436.254L3.53 3.47A.75.75 0 1 0 2.47 4.53l25 25a.75.75 0 0 0 1.06-1.06l-2.016-2.016a5.16 5.16 0 0 0 3.235-4.899zm-1.5 6.97v4.585a3.53 3.53 0 0 1-2.972 3.663l-5.61-5.61c.38-.638.58-1.366.581-2.108A4.254 4.254 0 0 0 16 13.25a4.14 4.14 0 0 0-2.109.58L6.825 6.764l.07-.006a1 1 0 0 1 .104-.008H25A3.25 3.25 0 0 1 28.25 10zm-10.307-1.414c.516.516.806 1.215.806 1.944a2.7 2.7 0 0 1-.205.984l-3.53-3.53c.313-.13.647-.199.985-.204.73 0 1.429.29 1.944.806M16 28.25c3.093 0 5.25-.84 5.25-1.593a4.6 4.6 0 0 0-.28-1.504l1.748 1.747c-.256 2.093-3.72 2.85-6.719 2.85a13.9 13.9 0 0 1-4.37-.627c-1.886-.655-2.343-1.634-2.377-2.373H6.999a4.993 4.993 0 0 1-4.75-5.195V10.444a5.47 5.47 0 0 1 .94-3.072L4.27 8.453a4.03 4.03 0 0 0-.52 1.991v11.111A3.5 3.5 0 0 0 7 25.25h2.419a6.52 6.52 0 0 1 3.907-4.474 4.11 4.11 0 0 1-1.342-4.61l1.272 1.272-.003.03q-.004.015-.004.032A2.753 2.753 0 0 0 16 20.25l.033-.003.03-.003 1.856 1.856a5.5 5.5 0 0 0-1.919-.35 5.093 5.093 0 0 0-5.25 4.907c0 .754 2.157 1.593 5.25 1.593"/></svg>