<svg xmlns="http://www.w3.org/2000/svg" width="32" height="32" viewBox="0 0 32 32"><path d="M9.252 26.756c.037.738.496 1.714 2.377 2.367 1.414.441 2.89.653 4.37.627 3.07 0 6.64-.79 6.74-3H25a4.992 4.992 0 0 0 4.75-5.195V17a.75.75 0 1 0-1.5 0v4.555A3.498 3.498 0 0 1 25 25.25h-2.42a6.52 6.52 0 0 0-3.906-4.474 4.25 4.25 0 1 0-5.347 0A6.523 6.523 0 0 0 9.42 25.25H7a3.497 3.497 0 0 1-3.25-3.695V10.444A3.498 3.498 0 0 1 7 6.75h7a.75.75 0 0 0 0-1.5H7a4.993 4.993 0 0 0-4.75 5.194v11.111A4.993 4.993 0 0 0 7 26.75h2.253v.006h-.001ZM13.25 17.5a2.75 2.75 0 1 1 5.5 0 2.75 2.75 0 0 1-5.5 0ZM16 28.25c-3.094 0-5.25-.84-5.25-1.593A5.093 5.093 0 0 1 16 21.75a5.093 5.093 0 0 1 5.25 4.907c0 .754-2.157 1.593-5.25 1.593Zm8.014-14.502a5.75 5.75 0 1 0 0-11.5 5.75 5.75 0 0 0 0 11.5Zm0-1.5a4.248 4.248 0 0 1-4.174-3.5h8.35a4.25 4.25 0 0 1-4.176 3.5Zm0-8.5a4.25 4.25 0 0 1 4.175 3.5H19.84a4.25 4.25 0 0 1 4.174-3.5Z"/></svg>