<svg xmlns="http://www.w3.org/2000/svg" width="32" height="32" viewBox="0 0 32 32"><path d="M25 5.5H7A4.505 4.505 0 0 0 2.5 10v12A4.505 4.505 0 0 0 7 26.5h2.508c-.001.052-.008.104-.008.157 0 .667.383 1.596 2.21 2.23 1.388.432 2.836.639 4.29.613 3.235 0 6.5-.88 6.5-2.843 0-.053-.008-.105-.009-.157H25a4.505 4.505 0 0 0 4.5-4.5V10A4.505 4.505 0 0 0 25 5.5m-9 23c-3.085 0-5.5-.81-5.5-1.843A5.343 5.343 0 0 1 16 21.5a5.343 5.343 0 0 1 5.5 5.157c0 1.033-2.416 1.843-5.5 1.843m-3-11a3 3 0 1 1 6 0 3 3 0 0 1-6 0M28.5 22a3.504 3.504 0 0 1-3.5 3.5h-2.62a6.28 6.28 0 0 0-4.22-4.643 4 4 0 1 0-4.32 0A6.28 6.28 0 0 0 9.618 25.5H7A3.504 3.504 0 0 1 3.5 22V10A3.504 3.504 0 0 1 7 6.5h18a3.505 3.505 0 0 1 3.5 3.5z"/></svg>