<svg xmlns="http://www.w3.org/2000/svg" width="32" height="32" viewBox="0 0 32 32"><path d="M29.5 10A4.5 4.5 0 0 0 25 5.5H7a4 4 0 0 0-1.495.298L3.353 3.646a.5.5 0 1 0-.707.707l25 25a.5.5 0 1 0 .707-.707l-2.298-2.298a4.87 4.87 0 0 0 3.445-4.793zm-1 6.98v4.574999999999999a3.765 3.765 0 0 1-3.314 3.924l-5.838-5.838c.421-.635.648-1.38.652-2.141a4.005 4.005 0 0 0-4-4 3.9 3.9 0 0 0-2.142.65L6.3 6.594q.345-.09.7-.093h18a3.5 3.5 0 0 1 3.5 3.5zm-10.38-1.6c.562.562.879 1.324.88 2.12a2.9 2.9 0 0 1-.378 1.415l-4.037-4.037A2.9 2.9 0 0 1 16 14.5c.795 0 1.558.317 2.12.88M15.415 20.443a3 3 0 0 0 1.734-.174l6.231 6.23h-.889q.001.036.004.07.004.044.005.088c0 1.964-3.265 2.843-6.5 2.843a13.6 13.6 0 0 1-4.29-.614c-1.827-.633-2.21-1.562-2.21-2.23q0-.043.004-.086l.004-.07H7a4.743 4.743 0 0 1-4.5-4.945V10.444a5.18 5.18 0 0 1 1.325-3.5l.707.707A4.2 4.2 0 0 0 3.5 10.444v11.111A3.747 3.747 0 0 0 7 25.5h2.619a6.28 6.28 0 0 1 4.22-4.643A3.99 3.99 0 0 1 12 17.5a3.95 3.95 0 0 1 .495-1.886l.736.736a2.997 2.997 0 0 0 2.185 4.093M10.5 26.657c0 1.033 2.416 1.843 5.5 1.843s5.5-.81 5.5-1.843A5.343 5.343 0 0 0 16 21.5a5.343 5.343 0 0 0-5.5 5.157"/></svg>