<svg xmlns="http://www.w3.org/2000/svg" width="32" height="32" viewBox="0 0 32 32"><path d="M24.014 13.998a6 6 0 1 0-6-6 6.006 6.006 0 0 0 6 6Zm0-2a3.995 3.995 0 0 1-3.858-3h7.716a3.996 3.996 0 0 1-3.858 3Zm0-8a3.996 3.996 0 0 1 3.858 3h-7.716a3.996 3.996 0 0 1 3.858-3ZM29 16a.997.997 0 0 0-1 1v4.555A3.25 3.25 0 0 1 25 25h-2.23a6.754 6.754 0 0 0-3.633-4.285 4.5 4.5 0 1 0-6.277 0A6.757 6.757 0 0 0 9.228 25H7a3.249 3.249 0 0 1-3-3.445V10.444A3.249 3.249 0 0 1 7 7h7a1 1 0 1 0 0-2H7a5.242 5.242 0 0 0-5 5.444v11.111A5.242 5.242 0 0 0 7 27h2.028c.12.78.691 1.725 2.52 2.36 1.44.45 2.943.666 4.452.64 3.074 0 6.63-.796 6.967-3H25a5.243 5.243 0 0 0 5-5.445V17a1.002 1.002 0 0 0-1-1Zm-13-1a2.5 2.5 0 1 1 0 5 2.5 2.5 0 0 1 0-5Zm0 13c-3.236 0-5-.887-5-1.343A4.843 4.843 0 0 1 16 22a4.843 4.843 0 0 1 5 4.657C21 27.113 19.235 28 16 28Z"/></svg>