<svg xmlns="http://www.w3.org/2000/svg" width="32" height="32" viewBox="0 0 32 32"><path d="M24 8.34a.5.5 0 0 0 .5-.5V6.75a.5.5 0 0 0-1 0v1.09a.5.5 0 0 0 .5.5M24 10.376a.5.5 0 1 0 0-1 .5.5 0 0 0 0 1M19.835 12.668h8.33a1.334 1.334 0 0 0 1.158-1.996l-4.154-7.5-.006-.01a1.375 1.375 0 0 0-2.308.009l-4.172 7.49a1.333 1.333 0 0 0 1.152 2.007m-.284-1.511 4.172-7.491a.332.332 0 0 1 .574-.004l4.157 7.504a.335.335 0 0 1-.288.502h-8.331a.33.33 0 0 1-.29-.167.33.33 0 0 1 .006-.344M29 16.5a.5.5 0 0 0-.5.5v4.555a3.765 3.765 0 0 1-3.314 3.924l-5.838-5.838c.421-.635.648-1.38.652-2.141a4.005 4.005 0 0 0-4-4 3.9 3.9 0 0 0-2.142.65L6.3 6.594q.345-.09.7-.093h9a.5.5 0 1 0 0-1H7a4 4 0 0 0-1.495.298L3.353 3.646a.5.5 0 1 0-.707.707l25 25a.5.5 0 1 0 .707-.707l-2.298-2.298a4.87 4.87 0 0 0 3.445-4.793V17a.5.5 0 0 0-.5-.5m-13-2a3.003 3.003 0 0 1 3 3 2.9 2.9 0 0 1-.378 1.415l-4.037-4.037A2.9 2.9 0 0 1 16 14.5M17.15 20.269a2.996 2.996 0 0 1-3.92-3.919l-.736-.737A3.95 3.95 0 0 0 12 17.5a3.99 3.99 0 0 0 1.84 3.357A6.28 6.28 0 0 0 9.619 25.5h-2.62a3.747 3.747 0 0 1-3.5-3.945V10.444a4.2 4.2 0 0 1 1.033-2.793l-.707-.707a5.18 5.18 0 0 0-1.325 3.5v11.111A4.743 4.743 0 0 0 7 26.5h2.508c-.001.052-.008.104-.008.157 0 .667.383 1.596 2.21 2.23 1.388.432 2.836.639 4.29.613 3.235 0 6.5-.88 6.5-2.843 0-.053-.007-.105-.009-.157h.89zM16 28.499c-3.084 0-5.5-.809-5.5-1.842A5.343 5.343 0 0 1 16 21.5a5.343 5.343 0 0 1 5.5 5.157c0 1.033-2.416 1.843-5.5 1.843"/></svg>