<svg xmlns="http://www.w3.org/2000/svg" width="32" height="32" viewBox="0 0 32 32"><path d="M25 5H7a5.006 5.006 0 0 0-5 5v12a5.006 5.006 0 0 0 5 5h2.028c.12.78.691 1.725 2.52 2.36 1.44.45 2.943.666 4.452.64 3.074 0 6.63-.796 6.967-3h2.034a5.006 5.006 0 0 0 5-5V10a5.006 5.006 0 0 0-5-5m-9 23c-3.235 0-5-.887-5-1.343A4.843 4.843 0 0 1 16 22a4.843 4.843 0 0 1 5 4.657C21 27.113 19.237 28 16 28m-2.5-10.5a2.5 2.5 0 1 1 5 0 2.5 2.5 0 0 1-5 0M28 22a3.003 3.003 0 0 1-3 3h-2.228a6.75 6.75 0 0 0-3.633-4.285 4.501 4.501 0 1 0-6.277 0A6.75 6.75 0 0 0 9.229 25H7a3.003 3.003 0 0 1-3-3V10a3.003 3.003 0 0 1 3-3h18a3.003 3.003 0 0 1 3 3z"/></svg>