<svg xmlns="http://www.w3.org/2000/svg" width="171" height="20" fill="none" viewBox="0 0 171 20"><g clip-path="url(#a)"><path fill="#4C286D" d="M60.63 5.71V3.62h-7.46v10.77h7.46V12.2h-4.44V9.82h3.69V7.73h-3.69V5.71zM73.8 12.26h-4.66V3.62h-3.07v10.77h7.73zM98.45 7.73c-2.06-.47-2.79-.52-2.79-1.34 0-.76 1.02-1 1.61-1 .96 0 2.08.22 3.219.81l.83-1.98c-1.17-.64-2.68-.91-4.13-.91-2.85 0-4.76 1.15-4.84 3.41-.08 2.05 1.59 2.82 3.12 3.14 1.48.3 2.98.57 3.01 1.45.03.81-.7 1.16-2.08 1.16-1.27 0-2.46-.41-3.67-.91l-.7 2.15c1.39.59 2.8.92 4.26.92 2.02 0 3.5-.31 4.59-1.34.75-.7 1-1.55 1-2.35 0-1.71-1.06-2.67-3.44-3.2M48.83 5.74V3.62h-9.39v2.12h3.17v8.65h3.04V5.74zM84.24 3.62v6.84c0 .54 0 .68-.03.89-.09.65-.73 1.03-1.74 1.04-.75-.01-1.29-.23-1.55-.62-.13-.2-.19-.56-.19-1.14V3.62h-3.17v7.42c0 1.03.14 1.49.6 2.08.77.96 2.26 1.46 4.32 1.46h.11c2.75 0 4.17-1.08 4.59-2.08.21-.49.22-.72.22-1.7V3.62zM40.87.67l-17.8 3.54v1.24l.06-.02C34.89 2.58 40.87.86 40.92.85c.07-.02.09-.07.08-.11-.01-.05-.06-.08-.13-.07"/><path fill="#6FBE44" d="M25.93 1.66c.28-.18.35-.07.27.13-.13.32-.73 2.25-5.21 5.92-1.17.96-2 1.5-3.68 2.49 2.76-3.86 6.78-7.35 8.63-8.55M26.4.33c-.87.05-2.47 1.33-3.35 2.09-3.5 3.03-6.1 5.81-8 8.73-3.95 2.11-8.98 4.29-13.97 5.98l-.12.04L0 19.76l.55-.21c3.18-1.21 8.48-3.49 13.29-6.01-.27.72-.41 1.38-.41 1.99 0 .45.07.87.23 1.25.3.76.9 1.34 1.72 1.66 1.23.49 2.91.5 4.83-.08 4.89-1.48 10.7-6.04 11.96-6.94l.05-.03s.05-.09.03-.13a.095.095 0 0 0-.13-.02l-.06.04c-1.36.81-7.95 4.72-12.23 5.87-2.18.59-3.85.26-4.47-.61-.22-.3-.32-.68-.32-1.12 0-.86.4-1.96 1.19-3.18.72-.41 1.39-.81 2-1.19 4.18-2.35 9-6.92 9.2-9.7v-.06c0-.24-.1-.49-.29-.67-.19-.2-.45-.3-.73-.28z"/><path fill="#4C286D" d="M23.01 4.23 4.29 8.25l-.73 1.95 19.51-4.75h.03V4.21zM103.63 3.62c.61 0 1.12.48 1.12 1.11s-.51 1.13-1.12 1.13-1.13-.48-1.13-1.13c0-.63.52-1.11 1.13-1.11m0 2.07c.52 0 .92-.41.92-.96s-.4-.95-.92-.95-.92.41-.92.95c0 .55.4.96.92.96m-.44-1.61h.51c.31 0 .46.12.46.38 0 .23-.15.33-.35.35l.38.58h-.22l-.35-.56h-.21v.56h-.2V4.08zm.2.58h.21c.18 0 .35 0 .35-.21 0-.17-.15-.2-.29-.2h-.27v.42zM119.31 9.8c.31.46.46.97.46 1.54 0 .61-.14 1.15-.4 1.61-.27.46-.67.82-1.21 1.07s-1.2.38-1.99.38h-4.85V3.62h4.64c.75 0 1.38.13 1.89.38.5.25.88.59 1.12 1.01q.36.63.36 1.41c0 .52-.12.98-.37 1.38s-.6.72-1.05.97c.63.23 1.09.58 1.4 1.03m-6.37-4.79v3.22h2.92c.63 0 1.1-.14 1.41-.44s.48-.7.48-1.24c0-.47-.16-.85-.48-1.13q-.48-.42-1.41-.42h-2.92zm4.68 7.54c.35-.3.52-.71.52-1.25 0-.59-.18-1.02-.53-1.3q-.525-.42-1.53-.42h-3.14V13h3.14c.68 0 1.19-.14 1.53-.44zM127.55 6.58v7.81h-1.45v-1.17c-.26.4-.61.73-1.03.98s-.9.37-1.42.37c-.56 0-1.05-.11-1.46-.32s-.73-.52-.94-.94-.33-.91-.33-1.5V6.58h1.51v5.02c0 1.09.55 1.63 1.65 1.63.33 0 .65-.08.94-.24s.54-.41.73-.75.29-.76.29-1.26v-4.4zM128.73 11.91h1.51q.06.54.27.87c.14.22.34.38.61.47s.61.14 1.04.14c.59 0 1.03-.09 1.31-.28q.42-.285.42-.81c0-.21-.05-.39-.15-.53s-.27-.26-.51-.35c-.23-.09-.57-.19-1.01-.26l-.8-.15c-.84-.15-1.46-.42-1.87-.8s-.61-.89-.61-1.53c0-.46.12-.87.35-1.2.24-.34.58-.6 1.03-.79s.99-.28 1.63-.28c1.09 0 1.9.22 2.45.67s.83 1.1.85 1.95h-1.47c-.03-.54-.2-.91-.5-1.12s-.75-.32-1.33-.32c-.48 0-.86.09-1.12.27s-.39.44-.39.77c0 .31.12.55.35.71s.6.29 1.1.39l.82.14q.975.18 1.56.48t.87.75c.19.3.28.67.28 1.1 0 .5-.13.94-.39 1.29-.26.36-.64.63-1.13.82s-1.07.28-1.75.28c-2.18 0-3.33-.89-3.42-2.67zM136.829 5.43a.9.9 0 0 1-.34-.33.85.85 0 0 1-.13-.47q0-.24.12-.45c.08-.14.19-.26.33-.34.14-.09.3-.13.47-.13q.24 0 .45.12c.14.08.26.19.34.33.09.14.13.3.13.47q0 .24-.12.45c-.08.14-.19.26-.33.34-.14.09-.3.13-.47.13q-.24 0-.45-.12m-.3 1.15h1.51v7.81h-1.51zM145.65 7.12c.48.47.73 1.15.73 2.04v5.23h-1.51V9.37c0-1.09-.55-1.63-1.65-1.63-.32 0-.63.08-.94.25-.3.16-.55.42-.74.75-.19.34-.29.75-.29 1.25v4.4h-1.51V6.58h1.45v1.17c.27-.41.62-.74 1.03-.98s.89-.36 1.41-.36c.87 0 1.53.24 2.02.71M155.14 10.98h-5.89c.07.77.3 1.36.69 1.74s.91.57 1.55.57c.49 0 .91-.12 1.23-.35s.56-.55.7-.95h1.53c-.13.52-.35.96-.66 1.35-.31.38-.71.68-1.19.9s-1.03.33-1.64.33c-.74 0-1.38-.16-1.95-.5s-1-.81-1.31-1.42-.47-1.34-.47-2.16.15-1.52.46-2.14.74-1.1 1.3-1.44q.84-.51 1.95-.51c.74 0 1.43.18 1.99.54s.98.85 1.28 1.48.44 1.34.44 2.13v.44zm-5.16-2.77c-.38.36-.62.89-.71 1.58h4.31c-.05-.41-.16-.78-.34-1.1a1.95 1.95 0 0 0-.73-.75q-.465-.27-1.08-.27c-.59 0-1.07.18-1.45.54M155.91 11.91h1.51q.06.54.27.87c.14.22.34.38.61.47s.61.14 1.04.14c.59 0 1.03-.09 1.31-.28q.42-.285.42-.81c0-.21-.05-.39-.15-.53s-.27-.26-.51-.35c-.23-.09-.57-.19-1.01-.26l-.8-.15c-.84-.15-1.46-.42-1.87-.8s-.61-.89-.61-1.53c0-.46.12-.87.35-1.2.24-.34.58-.6 1.03-.79s.99-.28 1.63-.28c1.09 0 1.9.22 2.45.67s.83 1.1.85 1.95h-1.47c-.03-.54-.2-.91-.5-1.12s-.75-.32-1.33-.32c-.48 0-.86.09-1.12.27s-.39.44-.39.77c0 .31.12.55.35.71s.6.29 1.1.39l.82.14q.975.18 1.56.48t.87.75c.19.3.28.67.28 1.1 0 .5-.13.94-.39 1.29-.26.36-.64.63-1.13.82s-1.07.28-1.75.28c-2.18 0-3.33-.89-3.42-2.67zM163.359 11.91h1.51q.06.54.27.87c.14.22.34.38.61.47s.61.14 1.04.14c.59 0 1.03-.09 1.31-.28q.42-.285.42-.81c0-.21-.05-.39-.15-.53s-.27-.26-.51-.35c-.23-.09-.57-.19-1.01-.26l-.8-.15c-.84-.15-1.46-.42-1.87-.8s-.61-.89-.61-1.53c0-.46.12-.87.35-1.2.24-.34.58-.6 1.03-.79s.99-.28 1.63-.28c1.09 0 1.9.22 2.45.67s.83 1.1.85 1.95h-1.47c-.03-.54-.2-.91-.5-1.12s-.75-.32-1.33-.32c-.48 0-.86.09-1.12.27s-.39.44-.39.77c0 .31.12.55.35.71s.6.29 1.1.39l.82.14q.975.18 1.56.48t.87.75c.19.3.28.67.28 1.1 0 .5-.13.94-.39 1.29-.26.36-.64.63-1.13.82s-1.07.28-1.75.28q-3.27 0-3.42-2.67z"/></g><defs><clipPath id="a"><path fill="#fff" d="M0 .33h170.05v19.44H0z"/></clipPath></defs></svg>