<svg xmlns="http://www.w3.org/2000/svg" width="41" height="20" fill="none" viewBox="0 0 41 20"><g clip-path="url(#a)"><path fill="#4C286D" d="m40.37.67-17.8 3.54v1.24l.06-.02C34.39 2.58 40.37.86 40.42.85c.07-.02.09-.07.08-.11-.01-.05-.06-.08-.13-.07"/><path fill="#6FBE44" d="M25.43 1.66c.28-.18.35-.07.27.13-.13.32-.73 2.25-5.21 5.92-1.17.96-2 1.5-3.68 2.49 2.76-3.86 6.78-7.35 8.63-8.55M25.9.33c-.87.05-2.47 1.33-3.35 2.09-3.5 3.03-6.1 5.81-8 8.73-3.95 2.11-8.98 4.29-13.97 5.98l-.12.04-.96 2.59.55-.21c3.18-1.21 8.48-3.49 13.29-6.01-.27.72-.41 1.38-.41 1.99 0 .45.07.87.23 1.25.3.76.9 1.34 1.72 1.66 1.23.49 2.91.5 4.83-.08 4.89-1.48 10.7-6.04 11.96-6.94l.05-.03s.05-.09.03-.13a.095.095 0 0 0-.13-.02l-.06.04c-1.36.81-7.95 4.72-12.23 5.87-2.18.59-3.85.26-4.47-.61-.22-.3-.32-.68-.32-1.12 0-.86.4-1.96 1.19-3.18.72-.41 1.39-.81 2-1.19 4.18-2.35 9-6.92 9.2-9.7v-.06c0-.24-.1-.49-.29-.67-.19-.2-.45-.3-.73-.28z"/><path fill="#4C286D" d="M22.51 4.23 3.79 8.25l-.73 1.95 19.51-4.75h.03V4.21z"/></g><defs><clipPath id="a"><path fill="#fff" d="M0 .33h41v19H0z"/></clipPath></defs></svg>