<svg xmlns="http://www.w3.org/2000/svg" width="32" height="32" viewBox="0 0 32 32"><path d="m21.077 20.803-.577-.953V6.693a4.511 4.511 0 0 0-9 0v13.191l-.39.788a6.072 6.072 0 0 0-.865 3.873l.019.13a5.523 5.523 0 0 0 5.465 4.825h.522a5.624 5.624 0 0 0 5.61-5.29 6.98 6.98 0 0 0-.784-3.407ZM16.251 28.5h-.523a4.53 4.53 0 0 1-4.474-3.965l-.019-.13a5.162 5.162 0 0 1 .762-3.272l.451-.91a.495.495 0 0 0 .052-.222V6.693A3.491 3.491 0 0 1 16.002 3.5 3.444 3.444 0 0 1 19.5 6.693v13.31c0 .1.03.198.086.28l.625 1.016c.451.881.675 1.862.651 2.852a4.623 4.623 0 0 1-4.611 4.35Z"/><path d="M16.515 22.096 16.5 9.999a.5.5 0 0 0-1 .002l.015 12.087a1.5 1.5 0 1 0 1 .008Z"/></svg>