<svg xmlns="http://www.w3.org/2000/svg" width="32" height="32" viewBox="0 0 32 32"><path d="M21.35 20.672a.807.807 0 0 0-.053-.092l-.547-.807V6.693a4.76 4.76 0 0 0-9.5 0v13.133l-.36.726a6.308 6.308 0 0 0-.892 4.029l.018.13a5.77 5.77 0 0 0 5.712 5.04h.523a5.876 5.876 0 0 0 5.86-5.527 7.416 7.416 0 0 0-.76-3.552Zm-5.1 7.578h-.522a4.283 4.283 0 0 1-4.227-3.752l-.019-.128a4.94 4.94 0 0 1 .739-3.125l.45-.91A.745.745 0 0 0 12.75 20V6.693a3.266 3.266 0 0 1 6.5 0v13.31c0 .15.045.297.129.421l.48.654.164.297c.416.86.618 1.807.59 2.761a4.373 4.373 0 0 1-4.362 4.114Z"/><path d="M16.765 21.932 16.75 9.999A.75.75 0 0 0 16 9.25a.75.75 0 0 0-.75.752l.015 11.916a1.752 1.752 0 1 0 1.5.014Z"/></svg>