<svg xmlns="http://www.w3.org/2000/svg" width="32" height="32" viewBox="0 0 32 32"><path d="M21.652 20.71a6 6 0 0 0-.148-.271L21 19.697V6.693a5.01 5.01 0 0 0-10 0v13.075l-.33.664a6.54 6.54 0 0 0-.919 4.184l.019.13A6.02 6.02 0 0 0 15.73 30h.521a6.125 6.125 0 0 0 6.108-5.762c.048-1.27-.144-2.386-.707-3.527M16.251 28h-.522a4.034 4.034 0 0 1-3.979-3.537l-.018-.13a4.65 4.65 0 0 1 .712-2.977l.243-.458.209-.451a1 1 0 0 0 .104-.445V6.692a3.018 3.018 0 0 1 6 0v13.311c0 .2.06.396.172.562l.306.43.329.504c.392.817.582 1.716.556 2.622a4.123 4.123 0 0 1-4.112 3.88M17.015 21.784 17 9.999a1 1 0 0 0-2 .002l.015 11.77a1.999 1.999 0 1 0 2 .013"/></svg>