<svg xmlns="http://www.w3.org/2000/svg" width="32" height="32" viewBox="0 0 32 32"><path d="M21.35 20.672a1 1 0 0 0-.053-.092l-.547-.807V6.693a4.76 4.76 0 0 0-9.5 0v13.133l-.36.726a6.3 6.3 0 0 0-.892 4.029l.018.13a5.77 5.77 0 0 0 5.712 5.04h.523a5.876 5.876 0 0 0 5.86-5.527 7.4 7.4 0 0 0-.76-3.552m-5.1 7.578h-.522a4.28 4.28 0 0 1-4.227-3.751l-.019-.13a4.94 4.94 0 0 1 .739-3.124l.45-.91A.75.75 0 0 0 12.75 20V6.693a3.266 3.266 0 0 1 6.5 0v13.31c0 .15.045.297.129.421l.48.654.164.297c.416.86.618 1.807.59 2.761a4.373 4.373 0 0 1-4.362 4.115M16.766 21.932 16.75 9.999A.75.75 0 0 0 16 9.25a.75.75 0 0 0-.75.752l.015 11.916a1.752 1.752 0 1 0 1.5.014"/></svg>