<svg xmlns="http://www.w3.org/2000/svg" width="32" height="32" viewBox="0 0 32 32"><path d="M29 26H3a1 1 0 0 0 0 2h26a1 1 0 0 0 0-2M3 6h26a1 1 0 1 0 0-2H3a1 1 0 0 0 0 2M17.052 9.684l-4 12a.997.997 0 0 0 .63 1.267 1 1 0 0 0 1.266-.635l4-12a.997.997 0 0 0-.63-1.267 1 1 0 0 0-1.266.635M10.707 9.293a1 1 0 0 0-1.414 0l-6 6a1 1 0 0 0 0 1.414l6 6a1 1 0 0 0 1.414-1.414L5.414 16l5.293-5.293a1 1 0 0 0 0-1.414M21.293 22.707a1 1 0 0 0 1.414 0l6-6a1 1 0 0 0 0-1.414l-6-6a1 1 0 0 0-1.414 1.414L26.586 16l-5.293 5.293a1 1 0 0 0 0 1.414"/></svg>