<svg xmlns="http://www.w3.org/2000/svg" width="32" height="32" viewBox="0 0 32 32"><path d="M29 26.25H3a.75.75 0 1 0 0 1.5h26a.75.75 0 1 0 0-1.5M3 5.75h26a.75.75 0 1 0 0-1.5H3a.75.75 0 0 0 0 1.5M17.288 9.763l-4 12a.751.751 0 0 0 1.424.474l4-12a.75.75 0 0 0-1.424-.474M10.53 9.47a.75.75 0 0 0-1.06 0l-6 6a.75.75 0 0 0 0 1.06l6 6a.75.75 0 0 0 1.06-1.06L5.06 16l5.47-5.47a.75.75 0 0 0 0-1.06M21.47 22.53a.75.75 0 0 0 1.06 0l6-6a.75.75 0 0 0 0-1.06l-6-6a.75.75 0 0 0-1.06 1.06L26.94 16l-5.47 5.47a.75.75 0 0 0 0 1.06"/></svg>