<svg xmlns="http://www.w3.org/2000/svg" width="32" height="32" viewBox="0 0 32 32"><path d="M29 26.5H3a.5.5 0 0 0 0 1h26a.5.5 0 0 0 0-1M3 5.5h26a.5.5 0 0 0 0-1H3a.5.5 0 1 0 0 1M17.525 9.842l-4 12a.501.501 0 0 0 .95.316l4-12a.499.499 0 0 0-.699-.605.5.5 0 0 0-.25.289M10.354 9.647a.5.5 0 0 0-.707 0l-6 6a.5.5 0 0 0 0 .707l6 6a.5.5 0 1 0 .707-.708L4.707 16l5.647-5.646a.5.5 0 0 0 0-.707M21.647 22.353a.5.5 0 0 0 .707 0l6-6a.5.5 0 0 0 0-.706l-6-6a.5.5 0 0 0-.707.707L27.293 16l-5.646 5.646a.5.5 0 0 0 0 .707"/></svg>