<svg xmlns="http://www.w3.org/2000/svg" width="32" height="32" viewBox="0 0 32 32"><path d="M27.58 7.283 16.587 2.616a1.52 1.52 0 0 0-1.157 0L4.424 7.282A1.5 1.5 0 0 0 3.5 8.667v14.667a1.495 1.495 0 0 0 .92 1.383l11.014 4.668a1.5 1.5 0 0 0 1.157-.002l10.986-4.666a1.495 1.495 0 0 0 .923-1.384V8.666a1.5 1.5 0 0 0-.92-1.383M15.817 3.538a.5.5 0 0 1 .382 0l10.496 4.455-10.522 4.385a.5.5 0 0 1-.385 0L5.295 8zM4.807 23.795a.5.5 0 0 1-.307-.461V8.75l10.901 4.55c.032.013.066.019.099.03v14.996zm22.385 0h-.003L16.5 28.336V13.32c.018-.007.038-.01.056-.018L27.5 8.742v14.592a.5.5 0 0 1-.308.461"/></svg>