<svg xmlns="http://www.w3.org/2000/svg" width="32" height="32" viewBox="0 0 32 32"><path d="M27.58 7.283 16.587 2.615a1.517 1.517 0 0 0-1.157.001L4.424 7.282A1.496 1.496 0 0 0 3.5 8.667v14.667a1.495 1.495 0 0 0 .92 1.383l11.014 4.668a1.508 1.508 0 0 0 1.157-.002l10.986-4.666a1.494 1.494 0 0 0 .923-1.384V8.666a1.496 1.496 0 0 0-.92-1.383ZM15.817 3.538c.122-.05.26-.05.382 0l10.496 4.455-10.522 4.385a.494.494 0 0 1-.385 0L5.295 8l10.52-4.46.002-.002ZM4.806 23.795a.499.499 0 0 1-.307-.46V8.75L15.4 13.3c.032.013.066.02.099.03v14.996l-10.692-4.53h-.001Zm22.385 0h-.003L16.5 28.336V13.32c.018-.006.038-.009.056-.016L27.5 8.74v14.592a.498.498 0 0 1-.308.461l-.001.002Z"/></svg>