<svg xmlns="http://www.w3.org/2000/svg" width="32" height="32" viewBox="0 0 32 32"><path d="M27.678 7.053 16.682 2.385a1.77 1.77 0 0 0-1.35.001L4.327 7.052A1.745 1.745 0 0 0 3.25 8.667v14.667a1.74 1.74 0 0 0 1.072 1.613l11.015 4.669a1.772 1.772 0 0 0 1.35-.002l10.988-4.667a1.74 1.74 0 0 0 1.075-1.614V8.666a1.74 1.74 0 0 0-1.072-1.613M15.911 3.769a.26.26 0 0 1 .19-.002l9.948 4.224-9.973 4.157a.24.24 0 0 1-.193-.001L5.94 7.997zM4.75 23.334V9.127l10.5 4.381V27.95L4.904 23.564a.25.25 0 0 1-.154-.23m22.346.23-.005.002-10.341 4.392V13.492l10.5-4.376v14.217a.25.25 0 0 1-.154.23"/></svg>