<svg xmlns="http://www.w3.org/2000/svg" width="32" height="32" viewBox="0 0 32 32"><path d="M10 2.75a.75.75 0 0 1 .75.75v2.25h10.5V3.5a.75.75 0 0 1 1.5 0v2.25H23a4.75 4.75 0 0 1 4.75 4.75v14A4.75 4.75 0 0 1 23 29.25H9a4.75 4.75 0 0 1-4.75-4.75v-14A4.75 4.75 0 0 1 9 5.75h.25V3.5a.75.75 0 0 1 .75-.75Zm-1 4.5a3.25 3.25 0 0 0-3.25 3.25v14A3.25 3.25 0 0 0 9 27.75h14a3.25 3.25 0 0 0 3.25-3.25v-14A3.25 3.25 0 0 0 23 7.25H9Zm7 5a5.25 5.25 0 1 0 0 10.5 5.25 5.25 0 0 0 0-10.5ZM9.25 17.5a6.75 6.75 0 1 1 13.5 0 6.75 6.75 0 0 1-13.5 0Zm4.25-.75a.75.75 0 0 0 0 1.5h5a.75.75 0 0 0 0-1.5h-5Z"/></svg>