<svg xmlns="http://www.w3.org/2000/svg" width="32" height="32" viewBox="0 0 32 32"><path d="M10 2.25a.75.75 0 0 1 .75.75v2.25h10.5V3a.75.75 0 0 1 1.5 0v2.25H23A4.75 4.75 0 0 1 27.75 10v14A4.75 4.75 0 0 1 23 28.75H9A4.75 4.75 0 0 1 4.25 24V10A4.75 4.75 0 0 1 9 5.25h.25V3a.75.75 0 0 1 .75-.75m-1 4.5A3.25 3.25 0 0 0 5.75 10v14A3.25 3.25 0 0 0 9 27.25h14A3.25 3.25 0 0 0 26.25 24V10A3.25 3.25 0 0 0 23 6.75zm7 5a5.25 5.25 0 1 0 0 10.5 5.25 5.25 0 0 0 0-10.5M9.25 17a6.75 6.75 0 1 1 13.5 0 6.75 6.75 0 0 1-13.5 0m4.25-.75a.75.75 0 0 0 0 1.5h5a.75.75 0 0 0 0-1.5z"/></svg>