<svg xmlns="http://www.w3.org/2000/svg" width="32" height="32" viewBox="0 0 32 32"><path d="M25.723 6.277A13.75 13.75 0 1 0 6.277 25.722c.183.182.381.355.577.528H3a.75.75 0 1 0 0 1.5h6a.75.75 0 0 0 .75-.75v-6a.75.75 0 0 0-1.5 0v4.473a11.862 11.862 0 0 1-.912-.811A12.25 12.25 0 1 1 16 28.25a.75.75 0 1 0 0 1.5 13.75 13.75 0 0 0 9.723-23.473Z"/><path d="M15.838 19.75a2.854 2.854 0 0 0 2.025-.826l.085-.084.003-.003a2.854 2.854 0 0 0 .24-3.756c-.28-.364-.66-.62-1.06-.847l-6.757-3.884a.75.75 0 0 0-1.025 1.021l3.87 6.79a3.137 3.137 0 0 0 2.078 1.539c.178.033.36.05.541.05Zm-1.322-2.344-2.498-4.382 4.419 2.538c.193.117.383.22.525.39.142.17.242.37.292.586a1.372 1.372 0 0 1-.363 1.239l-.086.084a1.376 1.376 0 0 1-1.238.364 1.666 1.666 0 0 1-1.051-.82Z"/></svg>