<svg xmlns="http://www.w3.org/2000/svg" width="32" height="32" viewBox="0 0 32 32"><path d="M29 26.5h-4.536c.378-.298.739-.617 1.082-.954A13.5 13.5 0 1 0 16 29.5a.5.5 0 0 0 0-1 12.5 12.5 0 1 1 8.839-3.661c-.419.412-.866.794-1.34 1.143V21a.5.5 0 1 0-1 0v6a.499.499 0 0 0 .5.5h6a.5.5 0 0 0 0-1Z"/><path d="m21.75 10.566-6.72 3.866c-.39.225-.73.432-.995.763a2.606 2.606 0 0 0 .19 3.466l.084.084a2.612 2.612 0 0 0 1.853.755c.167 0 .333-.015.497-.045a2.901 2.901 0 0 0 1.91-1.43l3.865-6.777a.5.5 0 0 0-.683-.682Zm-4.045 6.955a1.922 1.922 0 0 1-1.227.95 1.612 1.612 0 0 1-1.462-.433l-.084-.084a1.64 1.64 0 0 1-.432-1.461c.06-.26.181-.503.354-.707.173-.205.407-.338.638-.468l5.162-2.968-2.95 5.171Z"/></svg>