<svg xmlns="http://www.w3.org/2000/svg" width="32" height="32" viewBox="0 0 32 32"><path d="M29 26.25h-3.853c.195-.174.393-.346.575-.528A13.75 13.75 0 1 0 16 29.75a.75.75 0 1 0 0-1.5 12.25 12.25 0 1 1 8.662-3.588q-.435.43-.912.811V21a.75.75 0 1 0-1.5 0v6a.75.75 0 0 0 .75.75h6a.75.75 0 1 0 0-1.5M22.529 10.468a.75.75 0 0 0-.903-.119l-6.703 3.858c-.402.238-.798.474-1.087.837a2.86 2.86 0 0 0 .213 3.793l.084.085a2.87 2.87 0 0 0 2.029.828q.273 0 .542-.05a3.15 3.15 0 0 0 2.082-1.552l3.865-6.777a.75.75 0 0 0-.122-.903m-5.039 6.925a1.68 1.68 0 0 1-1.057.832 1.38 1.38 0 0 1-1.24-.364l-.084-.084a1.37 1.37 0 0 1-.364-1.238c.055-.225.163-.433.314-.608.152-.175.357-.263.558-.396l4.364-2.51z"/></svg>