<svg xmlns="http://www.w3.org/2000/svg" width="32" height="32" viewBox="0 0 32 32"><path d="M25.546 6.454A13.499 13.499 0 1 0 6.454 25.545c.343.338.705.657 1.083.955H3a.5.5 0 0 0 0 1h6a.499.499 0 0 0 .5-.5v-6a.5.5 0 0 0-1 0v4.981a12.48 12.48 0 0 1-1.339-18.82 12.5 12.5 0 1 1 8.84 21.34.5.5 0 1 0 0 1 13.5 13.5 0 0 0 9.545-23.047Z"/><path d="m17.688 18.747.085-.084.002-.003a2.607 2.607 0 0 0 .208-3.44c-.26-.332-.606-.568-.977-.77l-6.757-3.883a.5.5 0 0 0-.683.681l3.869 6.784a2.89 2.89 0 0 0 1.907 1.422c.163.03.33.045.496.045a2.607 2.607 0 0 0 1.85-.752Zm-3.39-1.218-2.953-5.179 5.198 2.986c.213.133.451.263.617.464.166.201.283.439.34.694a1.615 1.615 0 0 1-.432 1.459l-.086.085a1.612 1.612 0 0 1-1.46.432 1.914 1.914 0 0 1-1.223-.941Z"/></svg>