<svg xmlns="http://www.w3.org/2000/svg" width="32" height="32" viewBox="0 0 32 32"><path d="M29 26.5h-4.536q.567-.448 1.082-.954A13.5 13.5 0 1 0 16 29.5a.5.5 0 0 0 0-1 12.5 12.5 0 1 1 8.839-3.661q-.629.619-1.34 1.143V21a.5.5 0 1 0-1 0v6a.5.5 0 0 0 .5.5h6a.5.5 0 0 0 0-1M21.75 10.566l-6.72 3.866c-.39.225-.73.432-.995.763a2.606 2.606 0 0 0 .19 3.466l.084.084a2.6 2.6 0 0 0 1.853.755q.25 0 .497-.045a2.9 2.9 0 0 0 1.91-1.43l3.865-6.777a.5.5 0 0 0-.683-.682m-4.045 6.955a1.92 1.92 0 0 1-1.227.95 1.61 1.61 0 0 1-1.462-.433l-.084-.084a1.64 1.64 0 0 1-.432-1.461c.06-.26.181-.503.354-.707.173-.205.407-.338.638-.468l5.162-2.968z"/></svg>