<svg xmlns="http://www.w3.org/2000/svg" width="32" height="32" viewBox="0 0 32 32"><path d="M3 25.997h3.21c-.035-.035-.075-.066-.11-.1a14 14 0 1 1 9.9 4.1 1 1 0 1 1 0-2 12 12 0 1 0-8.485-3.515c.153.153.32.298.485.445v-3.93a1 1 0 0 1 2 0v6a1 1 0 0 1-1 1H3a1 1 0 1 1 0-2M9.294 10.289a1 1 0 0 1 1.204-.16l6.686 3.848c.423.254.836.534 1.145.922s.53.839.647 1.321a3.14 3.14 0 0 1-.848 2.791l-.084.084a3.1 3.1 0 0 1-2.206.902q-.296 0-.587-.054a3.4 3.4 0 0 1-2.255-1.674l-3.865-6.777a1 1 0 0 1 .163-1.203m5.43 6.973a1.43 1.43 0 0 0 .887.714 1.14 1.14 0 0 0 1.019-.295l.084-.084a1.13 1.13 0 0 0 .295-1.016 1.24 1.24 0 0 0-.276-.506c-.13-.144-.315-.231-.474-.326l-3.568-2.051z"/></svg>