<svg xmlns="http://www.w3.org/2000/svg" width="32" height="32" viewBox="0 0 32 32"><path d="M29 26h-3.21c.035-.035.074-.066.109-.101a14 14 0 1 0-9.9 4.1 1 1 0 0 0 0-2 12 12 0 1 1 8.486-3.514c-.153.153-.32.298-.485.444V21a1 1 0 0 0-2 0v6a.997.997 0 0 0 1 1h6a1 1 0 0 0 0-2M22.706 10.292a1 1 0 0 0-1.204-.16l-6.686 3.848c-.476.258-.836.534-1.146.922a3.4 3.4 0 0 0-.646 1.321 3.14 3.14 0 0 0 .848 2.791l.084.084a3.1 3.1 0 0 0 2.206.902q.296 0 .587-.054a3.4 3.4 0 0 0 2.254-1.674l3.866-6.777a1 1 0 0 0-.163-1.203m-5.431 6.973a1.43 1.43 0 0 1-.887.714 1.14 1.14 0 0 1-1.018-.295l-.084-.084a1.13 1.13 0 0 1-.295-1.017 1.24 1.24 0 0 1 .276-.505c.13-.144.286-.21.474-.326l3.567-2.051z"/></svg>