<svg xmlns="http://www.w3.org/2000/svg" width="32" height="32" viewBox="0 0 32 32"><path d="m27.882 23.689-6.998-6.998 6.547-6.547a4.116 4.116 0 0 0 .226-5.802 3.73 3.73 0 0 0-2.89-1.087c-1.1.06-2.138.528-2.91 1.314l-6.545 6.55-.045-.044a3.7 3.7 0 0 0-.476-4.653l-2.088-2.088a3.79 3.79 0 0 0-5.236 0 .75.75 0 0 0 0 1.06L9.89 7.82a.25.25 0 0 1 0 .353L8.174 9.891a.212.212 0 0 1-.354 0L5.395 7.466a.77.77 0 0 0-1.06 0 3.7 3.7 0 0 0 0 5.237l2.088 2.087a3.786 3.786 0 0 0 4.652.477l2.299 2.299-5.905 5.903a2.22 2.22 0 0 0-2.521.433l-1.046 1.045a2.228 2.228 0 1 0 3.151 3.15l1.045-1.045a2.22 2.22 0 0 0 .432-2.522l5.904-5.904 9.255 9.255a2.964 2.964 0 1 0 4.193-4.192M7.038 25.992l-1.045 1.044a.728.728 0 1 1-1.03-1.029l1.046-1.045a.728.728 0 1 1 1.029 1.03M22.917 5.629a2.92 2.92 0 0 1 2.049-.879 2.237 2.237 0 0 1 2.28 2.41 2.92 2.92 0 0 1-.875 1.923l-6.547 6.548-1.198-1.197 6.347-6.347a.75.75 0 0 0-1.06-1.06l-6.347 6.346-1.194-1.193zm3.904 21.192a1.47 1.47 0 0 1-2.071 0L11.659 13.73a.75.75 0 0 0-1.06 0 2.204 2.204 0 0 1-3.116 0l-2.088-2.088a2.21 2.21 0 0 1-.438-2.493l1.803 1.803a1.753 1.753 0 0 0 2.474 0l1.718-1.718a1.75 1.75 0 0 0 0-2.475L9.149 4.956a2.25 2.25 0 0 1 2.493.439l2.088 2.088a2.206 2.206 0 0 1 0 3.115.75.75 0 0 0 0 1.06L26.821 24.75a1.465 1.465 0 0 1 0 2.072"/></svg>