<svg xmlns="http://www.w3.org/2000/svg" width="32" height="32" viewBox="0 0 32 32"><path d="m28.053 28.053-.004.004h.007a3.214 3.214 0 0 1-4.474.071 18 18 0 0 1-.767-.765l-11.78-11.78a3.95 3.95 0 0 1-4.793-.617l-2.088-2.088a3.953 3.953 0 0 1 0-5.59 1 1 0 0 1 1.414 0l2.425 2.425 1.718-1.717-2.425-2.425a1 1 0 0 1 0-1.414 3.953 3.953 0 0 1 5.59 0l2.088 2.088a3.95 3.95 0 0 1 .617 4.791l12.474 12.476a3.214 3.214 0 0 1 0 4.545zM11.601 18.978l-4.18 4.179a2.48 2.48 0 0 0-2.65.558L3.726 24.76a2.478 2.478 0 1 0 3.504 3.504l1.045-1.045c.716-.716.902-1.76.56-2.647l4.18-4.18zM27.793 4.129a4.364 4.364 0 0 0-6.134.274L17.97 8.095c.099.297.152.615.152.945 0 .512-.066 1.02-.196 1.513l1.05 1.05 4.757-4.758a1 1 0 1 1 1.414 1.414l-4.757 4.758 2.256 2.257 4.942-4.942a4.363 4.363 0 0 0 .286-6.121 1 1 0 0 0-.08-.082"/></svg>