<svg xmlns="http://www.w3.org/2000/svg" width="32" height="32" viewBox="0 0 32 32"><path d="M27.705 23.866 20.53 16.69l6.724-6.724a3.866 3.866 0 0 0 .225-5.448 3.55 3.55 0 0 0-2.7-1.015 4.17 4.17 0 0 0-2.747 1.241l-6.721 6.728-.37-.37a3.45 3.45 0 0 0-.328-4.504l-2.088-2.088a3.457 3.457 0 0 0-4.883 0 .5.5 0 0 0 0 .707l2.425 2.425a.5.5 0 0 1 0 .707L8.35 10.068a.5.5 0 0 1-.707 0L5.218 7.643a.5.5 0 0 0-.707 0 3.456 3.456 0 0 0 0 4.883L6.6 14.614a3.53 3.53 0 0 0 4.504.328l2.624 2.624-6.21 6.21a1.974 1.974 0 0 0-2.392.302l-1.046 1.046a1.978 1.978 0 1 0 2.798 2.796l1.045-1.045a1.975 1.975 0 0 0 .302-2.393l6.21-6.21 9.432 9.433a2.715 2.715 0 0 0 3.839-3.84m-20.49 2.302L6.17 27.213a.978.978 0 0 1-1.384-1.383l1.046-1.044a.966.966 0 0 1 1.349-.023c.009.01.012.023.022.033s.023.014.034.023a.966.966 0 0 1-.022 1.35M22.74 5.453a3.18 3.18 0 0 1 2.226-.953 2.52 2.52 0 0 1 1.807.726 2.87 2.87 0 0 1-.225 4.034l-6.724 6.724-1.551-1.55 6.524-6.523a.5.5 0 0 0-.707-.707l-6.524 6.523-1.547-1.547zm4.258 21.544a1.755 1.755 0 0 1-2.425 0l-13.09-13.09a.5.5 0 0 0-.546-.109.5.5 0 0 0-.162.109 2.455 2.455 0 0 1-3.469 0l-2.088-2.088a2.46 2.46 0 0 1-.317-3.08l2.035 2.036a1.503 1.503 0 0 0 2.121 0l1.718-1.718a1.5 1.5 0 0 0 0-2.121L8.74 4.9a2.46 2.46 0 0 1 3.08.317l2.087 2.088a2.456 2.456 0 0 1 0 3.469.5.5 0 0 0 0 .707l13.09 13.09a1.715 1.715 0 0 1 0 2.425"/></svg>