<svg xmlns="http://www.w3.org/2000/svg" width="32" height="32" viewBox="0 0 32 32"><path d="m28.058 23.512-6.835-6.835c.057-.052 6.385-6.356 6.385-6.356a4.366 4.366 0 0 0 .226-6.156 4.009 4.009 0 0 0-3.078-1.16 4.668 4.668 0 0 0-3.077 1.387l-5.692 5.693a3.96 3.96 0 0 0-1.02-3.84L12.88 4.159a3.957 3.957 0 0 0-5.59 0 1 1 0 0 0 0 1.414l2.425 2.424-1.718 1.718L5.572 7.29a1 1 0 0 0-1.414 0 3.957 3.957 0 0 0 0 5.59l2.088 2.088a4.041 4.041 0 0 0 4.793.617l1.98 1.982-5.603 5.603a2.477 2.477 0 0 0-2.645.556L3.725 24.77a2.478 2.478 0 0 0 3.505 3.504l1.045-1.045a2.479 2.479 0 0 0 .555-2.646l5.604-5.603 9.079 9.078a3.214 3.214 0 0 0 4.545-4.546ZM6.861 25.815 5.816 26.86a.478.478 0 0 1-.677-.676l1.046-1.045a.466.466 0 0 1 .642-.022l.056.055a.474.474 0 0 1-.022.643ZM23.093 5.806A2.679 2.679 0 0 1 24.965 5a2.027 2.027 0 0 1 1.455.58 2.371 2.371 0 0 1-.226 3.327s-6.326 6.306-6.385 6.356l-.829-.83 6.17-6.169a1 1 0 0 0-1.414-1.414l-6.17 6.17-.829-.83c.05-.058 6.357-6.384 6.357-6.384Zm3.551 20.838a1.218 1.218 0 0 1-1.717 0l-13.091-13.09a1 1 0 0 0-1.414 0 1.954 1.954 0 0 1-2.762 0l-2.088-2.089a1.953 1.953 0 0 1-.512-1.86l1.523 1.523a2.003 2.003 0 0 0 2.828 0l1.718-1.717a2.001 2.001 0 0 0 0-2.829L9.606 5.06a1.952 1.952 0 0 1 1.86.512l2.088 2.088a1.955 1.955 0 0 1 0 2.761 1.001 1.001 0 0 0 0 1.414l13.09 13.091a1.215 1.215 0 0 1 0 1.718Z"/></svg>