<svg xmlns="http://www.w3.org/2000/svg" width="32" height="32" viewBox="0 0 32 32"><path d="M11.559 4a.5.5 0 0 0-1 0v2.5H4a.5.5 0 0 0 0 1h10.785c-.113 3.176-1.298 5.949-3.2 8.315L7.174 11.49a.5.5 0 0 0-.7.714l4.46 4.375c-1.577 1.75-3.555 3.259-5.77 4.527a.5.5 0 1 0 .496.868c2.267-1.297 4.327-2.861 5.989-4.695l1.883 1.848a.5.5 0 0 0 .7-.714l-1.93-1.894c2.059-2.53 3.369-5.535 3.484-9.018H18.5a.5.5 0 0 0 0-1h-6.941zm9.853 8.73a.5.5 0 0 1 .457.297l6.588 14.769a.5.5 0 1 1-.913.407l-2.338-5.241h-7.587l-2.339 5.241a.5.5 0 0 1-.913-.407l6.588-14.77a.5.5 0 0 1 .457-.296m-3.347 9.232h6.694l-3.347-7.504z"/></svg>