<svg xmlns="http://www.w3.org/2000/svg" width="32" height="32" viewBox="0 0 32 32"><path d="M12.059 4a1 1 0 1 0-2 0v2H4a1 1 0 0 0 0 2h10.257c-.198 2.645-1.178 5.002-2.722 7.065l-4.011-3.933a1 1 0 0 0-1.4 1.428l4.114 4.035c-1.478 1.554-3.29 2.913-5.323 4.076a1 1 0 1 0 .993 1.736c2.142-1.226 4.117-2.696 5.757-4.413l1.517 1.489a1 1 0 0 0 1.4-1.428l-1.609-1.579c1.862-2.407 3.08-5.23 3.29-8.476H18.5a1 1 0 1 0 0-2h-6.441zM21.412 12.23a1 1 0 0 1 .913.593l6.589 14.77a1 1 0 0 1-1.827.814l-2.206-4.945h-6.938l-2.206 4.945a1 1 0 0 1-1.826-.815l6.588-14.769a1 1 0 0 1 .913-.593m2.577 9.232-2.577-5.777-2.577 5.777z"/></svg>