<svg xmlns="http://www.w3.org/2000/svg" width="32" height="32" viewBox="0 0 32 32"><path d="M11.809 4a.75.75 0 0 0-1.5 0v2.25H4a.75.75 0 0 0 0 1.5h10.524c-.16 2.909-1.24 5.474-2.962 7.692L7.349 11.31a.75.75 0 0 0-1.05 1.071l4.289 4.207c-1.529 1.65-3.424 3.084-5.549 4.3a.75.75 0 1 0 .745 1.302c2.204-1.261 4.222-2.778 5.874-4.552l1.7 1.666a.75.75 0 1 0 1.05-1.07l-1.77-1.736c1.96-2.47 3.224-5.384 3.388-8.748H18.5a.75.75 0 0 0 0-1.5h-6.691zM21.412 12.48a.75.75 0 0 1 .685.445l6.588 14.77a.75.75 0 1 1-1.37.61l-2.272-5.093h-7.262l-2.272 5.093a.75.75 0 0 1-1.37-.61l6.588-14.77a.75.75 0 0 1 .685-.445m2.962 9.232-2.962-6.64-2.962 6.64z"/></svg>