<svg xmlns="http://www.w3.org/2000/svg" width="32" height="32" viewBox="0 0 32 32"><path d="M12.281 20h-1.637A7 7 0 0 1 9.5 16a7 7 0 0 1 1.139-4h1.651a3.317 3.317 0 0 0 3.21-3.332v-3.44A3.233 3.233 0 0 0 12.271 2h-1.466C8.258 2 3.5 6.106 3.5 16s4.758 14 7.305 14h1.467a3.23 3.23 0 0 0 3.228-3.229v-3.569A3.214 3.214 0 0 0 12.281 20M30.207 21.293l-4-4a1 1 0 0 0-1.414 1.414L27.086 21H19.5a1 1 0 0 0 0 2h7.586l-2.293 2.293a1 1 0 1 0 1.414 1.414l4-4a1 1 0 0 0 0-1.414M18.793 10.71l4 4a1 1 0 1 0 1.414-1.415l-2.293-2.293H29.5a1 1 0 1 0 0-2h-7.586l2.293-2.293a1 1 0 1 0-1.414-1.414l-4 4a1 1 0 0 0 0 1.414"/></svg>