<svg xmlns="http://www.w3.org/2000/svg" width="32" height="32" viewBox="0 0 32 32"><path d="M27.677 17.325a1.478 1.478 0 0 0-.008-2.654l-3.645-1.73 3.652-1.799a1.48 1.48 0 0 0 .595-2.114 1.5 1.5 0 0 0-.608-.541L17.547 3.86a3.51 3.51 0 0 0-3.081-.007L4.324 8.494a1.476 1.476 0 0 0 0 2.648l3.652 1.8-3.652 1.733a1.478 1.478 0 0 0 .007 2.654l3.267 1.55-3.274 1.614a1.476 1.476 0 0 0 0 2.648l10.16 5.006a3.45 3.45 0 0 0 3.032 0l10.16-5.006a1.476 1.476 0 0 0 0-2.648l-3.274-1.613 3.268-1.551zm-22.91-7.08a.47.47 0 0 1-.267-.427.46.46 0 0 1 .253-.421l10.142-4.64c.343-.168.72-.255 1.101-.255.39 0 .773.09 1.122.262L27.234 9.39a.477.477 0 0 1 0 .856l-10.13 4.99a2.52 2.52 0 0 1-2.209 0zM27.233 21.39a.477.477 0 0 1 0 .856l-10.16 5.005a2.45 2.45 0 0 1-2.148 0l-10.16-5.005a.477.477 0 0 1 0-.856l3.984-1.963 5.734 2.721a3.45 3.45 0 0 0 3.025.004l5.742-2.725zm.002-4.963-10.162 4.825a2.45 2.45 0 0 1-2.155-.004L4.766 16.428a.477.477 0 0 1-.007-.852l4.362-2.07 5.332 2.627a3.52 3.52 0 0 0 3.094 0l5.332-2.627 4.355 2.066a.477.477 0 0 1 .002.854"/></svg>