<svg xmlns="http://www.w3.org/2000/svg" width="32" height="32" viewBox="0 0 32 32"><path d="M27.898 17.773a1.977 1.977 0 0 0-.014-3.553l-2.711-1.286 2.725-1.343a1.976 1.976 0 0 0-.027-3.558l-10.103-4.62a4 4 0 0 0-3.51-.013L4.103 8.045a1.977 1.977 0 0 0 0 3.546l2.725 1.343-2.725 1.293a1.977 1.977 0 0 0 .013 3.553l2.334 1.107-2.346 1.157a1.977 1.977 0 0 0-.001 3.546l10.16 5.006a3.96 3.96 0 0 0 3.474 0l10.16-5.006a1.977 1.977 0 0 0 0-3.546l-2.346-1.157 2.333-1.107zM4.96 9.851l10.155-4.645a2 2 0 0 1 .877-.203c.318.001.631.075.917.215l10.106 4.577-10.133 4.994a2.01 2.01 0 0 1-1.767-.001zm22.055 11.943-10.163 5.007a1.94 1.94 0 0 1-1.706 0l-10.16-4.963 3.768-1.856 5.508 2.614a3.95 3.95 0 0 0 3.46.006l5.552-2.634zm-10.163-.993a1.95 1.95 0 0 1-1.72-.006l-10.16-4.768 4.143-1.966 5.115 2.52a4.02 4.02 0 0 0 3.537.002l5.143-2.535 4.105 1.93z"/></svg>