<svg xmlns="http://www.w3.org/2000/svg" width="32" height="32" viewBox="0 0 32 32"><path d="M27.677 17.325a1.478 1.478 0 0 0-.008-2.654l-3.645-1.73 3.652-1.799a1.479 1.479 0 0 0 .595-2.114 1.477 1.477 0 0 0-.608-.541L17.547 3.86a3.512 3.512 0 0 0-3.081-.007L4.324 8.494a1.476 1.476 0 0 0 0 2.648l3.652 1.8-3.652 1.733a1.478 1.478 0 0 0 .007 2.654l3.267 1.55-3.274 1.614a1.476 1.476 0 0 0 0 2.648l10.16 5.006a3.445 3.445 0 0 0 3.032 0l10.16-5.006a1.476 1.476 0 0 0 0-2.648l-3.274-1.613 3.268-1.551.007-.004Zm-22.91-7.08a.468.468 0 0 1-.267-.427.462.462 0 0 1 .253-.421l10.142-4.64c.343-.168.72-.255 1.101-.255.39 0 .773.09 1.122.262L27.234 9.39a.477.477 0 0 1 0 .856l-10.13 4.99a2.52 2.52 0 0 1-2.209 0l-10.129-4.99ZM27.233 21.39a.477.477 0 0 1 0 .856l-10.16 5.005a2.452 2.452 0 0 1-2.148 0l-10.16-5.005a.477.477 0 0 1 0-.856l3.984-1.963 5.734 2.721a3.449 3.449 0 0 0 3.025.004l5.742-2.725 3.983 1.963Zm.002-4.963-10.162 4.825a2.448 2.448 0 0 1-2.155-.004L4.766 16.428a.477.477 0 0 1-.007-.852l4.362-2.07 5.332 2.627a3.519 3.519 0 0 0 3.094 0l5.332-2.627 4.355 2.066a.477.477 0 0 1 .002.854Z"/></svg>