<svg xmlns="http://www.w3.org/2000/svg" width="32" height="32" viewBox="0 0 32 32"><path d="M27.787 17.55a1.727 1.727 0 0 0-.01-3.104l-3.179-1.508 3.188-1.571a1.729 1.729 0 0 0 .964-1.56 1.727 1.727 0 0 0-.983-1.547l-10.11-4.624a3.761 3.761 0 0 0-3.295-.009L4.212 8.27a1.727 1.727 0 0 0 .001 3.098l3.188 1.57-3.188 1.514a1.728 1.728 0 0 0 .01 3.103l2.8 1.33-2.81 1.384a1.726 1.726 0 0 0 0 3.098l10.16 5.006a3.706 3.706 0 0 0 3.254 0l10.16-5.006a1.728 1.728 0 0 0 0-3.098l-2.81-1.385 2.8-1.329.01-.005ZM4.877 10.02a.214.214 0 0 1-.127-.203.208.208 0 0 1 .107-.194l10.148-4.642c.308-.151.647-.23.99-.23.353 0 .702.082 1.019.239l10.109 4.624a.226.226 0 0 1 0 .406l-10.129 4.991a2.258 2.258 0 0 1-1.989 0L4.877 10.021Zm22.247 11.593a.226.226 0 0 1-.001.406l-10.16 5.006a2.196 2.196 0 0 1-1.926 0L4.877 22.02a.226.226 0 0 1 0-.406l3.875-1.91 5.621 2.668a3.696 3.696 0 0 0 3.244.005l5.63-2.673 3.877 1.91Zm.003-5.412-10.164 4.824a2.195 2.195 0 0 1-1.936-.005l-10.15-4.817a.214.214 0 0 1-.127-.205.21.21 0 0 1 .116-.198l4.252-2.017 5.224 2.574a3.77 3.77 0 0 0 3.315 0l5.224-2.574 4.242 2.012a.228.228 0 0 1 .094.321.227.227 0 0 1-.09.085Z"/></svg>