<svg xmlns="http://www.w3.org/2000/svg" width="32" height="32" viewBox="0 0 32 32"><path d="M23.353 22.646a.499.499 0 1 0-.707.707l4 4a.5.5 0 0 0 .707-.707l-4-4ZM30 19.5h-5a.5.5 0 0 0 0 1h5a.5.5 0 0 0 0-1ZM20 24.5a.5.5 0 0 0-.5.5v5a.5.5 0 0 0 1 0v-5a.5.5 0 0 0-.5-.5ZM20.646 10.646l-10 10a.5.5 0 1 0 .707.707l10-10a.5.5 0 0 0-.707-.707Z"/><path d="m15.814 24.645-2.103 2.103a5.981 5.981 0 1 1-8.46-8.459l2.038-2.037a5.983 5.983 0 0 1 3.75-1.733.5.5 0 1 0-.08-.997 6.984 6.984 0 0 0-4.377 2.023l-2.037 2.037a6.981 6.981 0 1 0 9.873 9.873l2.103-2.103a.5.5 0 0 0-.707-.707ZM13.988 11.5a.514.514 0 0 0 .531-.465 5.562 5.562 0 0 1 1.732-3.746l2.038-2.037a5.982 5.982 0 0 1 8.46 8.46l-2.099 2.097a.5.5 0 1 0 .707.707l2.099-2.098a6.982 6.982 0 0 0-9.874-9.873l-2.025 2.024a6.545 6.545 0 0 0-2.036 4.4.501.501 0 0 0 .467.532Z"/></svg>