<svg xmlns="http://www.w3.org/2000/svg" width="32" height="32" viewBox="0 0 32 32"><path d="M23.53 22.47a.751.751 0 0 0-1.23.817.8.8 0 0 0 .17.243l4 4a.75.75 0 0 0 1.06-1.06zM30 19.25h-5a.75.75 0 1 0 0 1.5h5a.75.75 0 0 0 0-1.5M20 24.25a.75.75 0 0 0-.75.75v5a.75.75 0 1 0 1.5 0v-5a.75.75 0 0 0-.75-.75M20.47 10.47l-10 10a.75.75 0 1 0 1.06 1.06l10-10a.75.75 0 0 0-1.06-1.06M15.637 24.468l-2.102 2.103a5.733 5.733 0 1 1-8.107-8.105l2.037-2.037a5.73 5.73 0 0 1 3.594-1.661.75.75 0 1 0-.119-1.495 7.23 7.23 0 0 0-4.535 2.095l-2.037 2.037a7.23 7.23 0 1 0 10.227 10.226l2.103-2.102a.751.751 0 0 0-.817-1.228.8.8 0 0 0-.244.167M13.971 11.75a.76.76 0 0 0 .797-.7 5.32 5.32 0 0 1 1.66-3.585l2.037-2.037a5.732 5.732 0 1 1 8.107 8.106l-2.099 2.098a.75.75 0 1 0 1.06 1.06l2.1-2.098A7.232 7.232 0 0 0 17.404 4.368l-2.018 2.019a6.8 6.8 0 0 0-2.115 4.566.75.75 0 0 0 .7.797"/></svg>