<svg xmlns="http://www.w3.org/2000/svg" width="32" height="32" viewBox="0 0 32 32"><path d="M23.707 22.293a.999.999 0 0 0-1.638 1.09 1 1 0 0 0 .224.324l4 4a1 1 0 0 0 1.414-1.415l-4-4ZM30 19h-5a1 1 0 0 0 0 2h5a1 1 0 0 0 0-2ZM20 24a1 1 0 0 0-1 1v5a1 1 0 0 0 2 0v-5a1 1 0 0 0-1-1ZM21.707 10.293a1 1 0 0 0-1.415 0l-10 10a1 1 0 1 0 1.415 1.414l10-10a1 1 0 0 0 0-1.414Z"/><path d="m15.46 24.291-2.102 2.103a5.482 5.482 0 1 1-7.753-7.752l2.037-2.037a5.488 5.488 0 0 1 3.438-1.588 1 1 0 0 0 .917-1.077.988.988 0 0 0-1.077-.916 7.483 7.483 0 0 0-4.691 2.167L4.19 17.228a7.481 7.481 0 0 0 10.581 10.58l2.103-2.102a1 1 0 1 0-1.415-1.415ZM13.955 12a.995.995 0 0 0 1.063-.933 5.04 5.04 0 0 1 1.587-3.425l2.037-2.037a5.482 5.482 0 0 1 7.753 7.753l-2.099 2.098a1 1 0 1 0 1.415 1.413l2.098-2.097a7.482 7.482 0 0 0-10.58-10.58l-2.013 2.011a7.049 7.049 0 0 0-2.194 4.734A1 1 0 0 0 13.955 12Z"/></svg>