<svg xmlns="http://www.w3.org/2000/svg" width="32" height="32" viewBox="0 0 32 32"><path d="M23.353 22.646a.499.499 0 1 0-.707.707l4 4a.5.5 0 0 0 .707-.707zM30 19.5h-5a.5.5 0 0 0 0 1h5a.5.5 0 0 0 0-1M20 24.5a.5.5 0 0 0-.5.5v5a.5.5 0 0 0 1 0v-5a.5.5 0 0 0-.5-.5M20.646 10.646l-10 10a.5.5 0 1 0 .707.707l10-10a.5.5 0 0 0-.707-.707M15.814 24.645l-2.103 2.103a5.981 5.981 0 1 1-8.46-8.459l2.038-2.037a5.98 5.98 0 0 1 3.75-1.733.5.5 0 1 0-.08-.997 6.98 6.98 0 0 0-4.377 2.023l-2.037 2.037a6.981 6.981 0 1 0 9.874 9.873l2.102-2.103a.5.5 0 0 0-.707-.707M13.988 11.5a.514.514 0 0 0 .531-.465 5.56 5.56 0 0 1 1.733-3.746l2.037-2.037a5.982 5.982 0 0 1 8.46 8.46l-2.099 2.097a.5.5 0 1 0 .707.707l2.099-2.098a6.982 6.982 0 0 0-9.874-9.873l-2.025 2.024a6.55 6.55 0 0 0-2.036 4.4.5.5 0 0 0 .467.532"/></svg>