<svg xmlns="http://www.w3.org/2000/svg" width="32" height="32" viewBox="0 0 32 32"><path d="M23 12.25H11.752V8.454c0-2.715 1.778-4.693 4.248-4.705a4.71 4.71 0 0 1 4.313 2.824.75.75 0 0 0 1.375-.602 6.2 6.2 0 0 0-5.706-3.72h-.008c-3.316.013-5.722 2.622-5.722 6.203v3.796H9A3.755 3.755 0 0 0 5.25 16v10A3.755 3.755 0 0 0 9 29.75h14A3.754 3.754 0 0 0 26.75 26V16A3.754 3.754 0 0 0 23 12.25M25.25 26A2.253 2.253 0 0 1 23 28.25H9A2.253 2.253 0 0 1 6.75 26V16A2.253 2.253 0 0 1 9 13.75h14A2.253 2.253 0 0 1 25.25 16z"/></svg>