<svg xmlns="http://www.w3.org/2000/svg" width="32" height="32" viewBox="0 0 32 32"><path d="M23 12.5H11.502V8.454c0-2.859 1.882-4.943 4.498-4.955a4.94 4.94 0 0 1 3.503 1.452c.438.438.79.954 1.04 1.521a.5.5 0 0 0 .916-.4A5.95 5.95 0 0 0 15.983 2.5h-.008c-3.172.014-5.473 2.518-5.473 5.954V12.5H9A3.504 3.504 0 0 0 5.5 16v10A3.505 3.505 0 0 0 9 29.5h14a3.504 3.504 0 0 0 3.5-3.5V16a3.504 3.504 0 0 0-3.5-3.5M25.5 26a2.5 2.5 0 0 1-2.5 2.5H9A2.5 2.5 0 0 1 6.5 26V16A2.5 2.5 0 0 1 9 13.5h14a2.5 2.5 0 0 1 2.5 2.5z"/></svg>