<svg xmlns="http://www.w3.org/2000/svg" width="32" height="32" viewBox="0 0 32 32"><path d="M25 2H7a5.006 5.006 0 0 0-5 5v12a5.006 5.006 0 0 0 5 5 1 1 0 0 0 0-2 3.003 3.003 0 0 1-3-3V7a3.003 3.003 0 0 1 3-3h18a3.003 3.003 0 0 1 3 3v12a3.004 3.004 0 0 1-3 3 1 1 0 0 0 0 2 5.006 5.006 0 0 0 5-5V7a5.006 5.006 0 0 0-5-5M21 18a1 1 0 0 0-1 1v.538a5.987 5.987 0 1 0 1.5 6.863.998.998 0 0 0-1.281-1.335 1 1 0 0 0-.551.534 4 4 0 1 1-6.496-4.428A4.087 4.087 0 0 1 18.614 21H18a1 1 0 0 0 0 2h3a.997.997 0 0 0 1-1v-3a1 1 0 0 0-1-1"/></svg>