<svg xmlns="http://www.w3.org/2000/svg" width="32" height="32" viewBox="0 0 32 32"><path d="M12.75 6.75c0 1.6 1.155 2.929 2.677 3.2l-4.082 5.896-4.332-2.363a2.5 2.5 0 1 0-1.328.922L8.097 25.5h15.806l2.412-11.095a2.5 2.5 0 1 0-1.328-.922l-4.332 2.363-4.082-5.896a3.251 3.251 0 1 0-3.823-3.2ZM16 4.5A2.25 2.25 0 1 1 16 9a2.25 2.25 0 0 1 0-4.5Zm9.5 7.5a1.5 1.5 0 1 1 3 0 1.5 1.5 0 0 1-3 0ZM16 10.879l4.345 6.276 4.934-2.692L23.097 24.5H8.903L6.721 14.463l4.934 2.692L16 10.879ZM3.5 12a1.5 1.5 0 1 1 3 0 1.5 1.5 0 0 1-3 0ZM7 29a.5.5 0 0 1 .5-.5h17a.5.5 0 0 1 0 1h-17A.5.5 0 0 1 7 29Z"/></svg>