<svg xmlns="http://www.w3.org/2000/svg" width="32" height="32" viewBox="0 0 32 32"><path d="M12.5 6.75a3.5 3.5 0 1 1 4.487 3.359l3.746 5.41 3.896-2.125a2.75 2.75 0 1 1 1.877 1.312L24.105 25.75H7.895l-2.4-11.045a2.75 2.75 0 1 1 1.876-1.312l3.896 2.125 3.746-5.41A3.502 3.502 0 0 1 12.5 6.75Zm3.5-2a2 2 0 1 0 0 4 2 2 0 0 0 0-4ZM25.75 12a1.25 1.25 0 1 0 2.5 0 1.25 1.25 0 0 0-2.5 0Zm-14.017 5.482-4.651-2.537 2.023 9.306h13.79l2.024-9.306-4.652 2.537L16 11.318l-4.267 6.164ZM3.75 12a1.25 1.25 0 1 0 2.5 0 1.25 1.25 0 0 0-2.5 0ZM7 29a.75.75 0 0 1 .75-.75h16.5a.75.75 0 0 1 0 1.5H7.75A.75.75 0 0 1 7 29Z"/></svg>