<svg xmlns="http://www.w3.org/2000/svg" width="32" height="32" viewBox="0 0 32 32"><path d="M12.25 6.75a3.75 3.75 0 1 1 5.13 3.488l3.43 4.954 3.482-1.9a3 3 0 1 1 2.409 1.693L24.306 26H7.694L5.3 14.985a3 3 0 1 1 2.409-1.693l3.48 1.9 3.43-4.954A3.751 3.751 0 0 1 12.25 6.75ZM16 5a1.75 1.75 0 1 0 0 3.5A1.75 1.75 0 0 0 16 5Zm10 7a1 1 0 1 0 2 0 1 1 0 0 0-2 0Zm-14.19 5.808-4.368-2.382L9.306 24h13.388l1.864-8.574-4.368 2.382L16 11.757l-4.19 6.051ZM4 12a1 1 0 1 0 2 0 1 1 0 0 0-2 0Zm3 17a1 1 0 0 1 1-1h16a1 1 0 1 1 0 2H8a1 1 0 0 1-1-1Z"/></svg>