<svg xmlns="http://www.w3.org/2000/svg" width="32" height="32" viewBox="0 0 32 32"><path d="M24.5 13a4.5 4.5 0 1 1 0-9 4.5 4.5 0 0 1 0 9m0 2a6.5 6.5 0 1 0 0-13 6.5 6.5 0 0 0 0 13m.534-5.716a.75.75 0 0 1-1.28-.53V6.446a.75.75 0 1 1 1.5 0v2.308a.75.75 0 0 1-.22.53m.22 1.97a.75.75 0 1 1-1.5 0 .75.75 0 0 1 1.5 0M2 13a5 5 0 0 1 5-5h8a1 1 0 1 1 0 2H7a3 3 0 0 0-3 3v10a3 3 0 0 0 3 3h18a3 3 0 0 0 3-3v-6a1 1 0 1 1 2 0v6a5 5 0 0 1-5 5H7a5 5 0 0 1-5-5zm9 7a2 2 0 1 0 0-4 2 2 0 0 0 0 4m4-2c0 .729-.195 1.412-.535 2h3.07A4 4 0 0 1 17 18c0-1.185.516-2.25 1.333-2.981a1 1 0 1 1 1.334 1.49A2 2 0 1 0 23 18a1 1 0 1 1 2 0 4 4 0 0 1-3.991 4H11a4 4 0 1 1 4-4"/></svg>