<svg xmlns="http://www.w3.org/2000/svg" width="32" height="32" viewBox="0 0 32 32"><path d="M31 8.5a6.5 6.5 0 1 1-13 0 6.5 6.5 0 0 1 13 0m-5.965.784a.75.75 0 0 0 .22-.53V6.446a.75.75 0 1 0-1.5 0v2.308a.75.75 0 0 0 1.28.53m.22 1.97a.75.75 0 1 0-1.5 0 .75.75 0 0 0 1.5 0M7 8h9.015A8.5 8.5 0 0 0 30 14.98V23a5 5 0 0 1-5 5H7a5 5 0 0 1-5-5V13a5 5 0 0 1 5-5m6 10a2 2 0 1 1-4 0 2 2 0 0 1 4 0m2 0a4 4 0 1 0-4 4h10a4 4 0 0 0 3.333-1.787 1 1 0 1 0-1.666-1.108A2 2 0 0 1 19 18a1 1 0 1 0-2 0c0 .729.195 1.412.535 2h-3.07c.34-.588.535-1.271.535-2"/></svg>