<svg xmlns="http://www.w3.org/2000/svg" width="32" height="32" viewBox="0 0 32 32"><path d="m21.137 10.441 3.113 2.109V13a.75.75 0 0 0 1.5 0V9.398l3.133-2.123c.867-.63.867-1.367.867-2.148V4a.75.75 0 0 0-1.5 0v1.127c0 .755-.028.775-.229.92L25.75 7.587V3a.75.75 0 0 0-1.5 0v7.738l-2.252-1.524c-.22-.16-.248-.18-.248-.936V7.151a.75.75 0 0 0-1.5 0v1.127c0 .781 0 1.519.887 2.163M17.834 3.954a.75.75 0 0 0 .33-1.463A9.8 9.8 0 0 0 16 2.25c-4.794 0-8.792 3.479-9.6 8.044C4.058 10.61 2.25 12.6 2.25 15c0 2.62 2.13 4.75 4.75 4.75a.75.75 0 0 0 .75-.75v-7c0-4.549 3.701-8.25 8.25-8.25.617 0 1.234.068 1.834.204M6.25 18.163A3.256 3.256 0 0 1 3.75 15c0-1.52 1.066-2.799 2.501-3.153zM29.001 14.25a.75.75 0 0 0-.75.75c0 .271-.035.55-.103.806-.307 1.176-1.247 2.052-2.404 2.337 0-.048.006-.095.006-.143v-1a.75.75 0 0 0-1.5 0v1c0 3.679-2.422 6.801-5.754 7.862A2.75 2.75 0 0 0 16 24.25 2.753 2.753 0 0 0 13.25 27 2.753 2.753 0 0 0 16 29.75a2.744 2.744 0 0 0 2.714-2.392c3.529-1.025 6.238-3.991 6.886-7.662 1.909-.26 3.507-1.625 4-3.51.1-.382.151-.782.151-1.186a.75.75 0 0 0-.75-.75M16 28.25a1.251 1.251 0 0 1 0-2.5 1.251 1.251 0 0 1 0 2.5"/></svg>