<svg xmlns="http://www.w3.org/2000/svg" width="32" height="32" viewBox="0 0 32 32"><path d="M18.612 25.554A2.99 2.99 0 0 0 16 24c-1.654 0-3 1.346-3 3s1.346 3 3 3a2.99 2.99 0 0 0 2.944-2.443 9.9 9.9 0 0 0 2.897-1.474l-1.44-1.44a8 8 0 0 1-1.79.91M16 28A1 1 0 1 1 16.001 26 1 1 0 0 1 16 28M29.84 16.25c.107-.403.161-.824.161-1.25a1 1 0 1 0-2 0c0 .251-.032.507-.095.742-.25.96-.989 1.722-1.906 2.063V17a1 1 0 1 0-2 0v1a7.8 7.8 0 0 1-.915 3.671L9.209 7.795C10.62 5.521 13.132 4 16 4c.599 0 1.197.066 1.778.198a1 1 0 0 0 .441-1.951A10 10 0 0 0 16 2c-3.417 0-6.433 1.727-8.235 4.351L4.707 3.293a1 1 0 1 0-1.414 1.414l24 24a.997.997 0 0 0 1.414 0 1 1 0 0 0 0-1.414l-4.164-4.164a9.9 9.9 0 0 0 1.263-3.203c1.933-.33 3.532-1.749 4.035-3.676M20.997 10.649 24 12.682V13a1 1 0 1 0 2 0V9.53l3.03-2.052c.97-.704.97-1.541.97-2.35V4a1 1 0 1 0-2 0v1.127c0 .197 0 .565-.038.638 0 0-.02.032-.08.076L26 7.115V3a1 1 0 1 0-2 0v7.267l-1.855-1.255c-.086-.064-.107-.096-.107-.096C22 8.844 22 8.476 22 8.28V7.152a1 1 0 1 0-2 0v1.127c0 .81 0 1.646.997 2.37M2 15c0 2.757 2.243 5 5 5a1 1 0 0 0 1-1v-6.758l-2.094-2.094C3.674 10.667 2 12.638 2 15m4 2.83A3.01 3.01 0 0 1 4 15c0-1.29.834-2.392 2-2.815z"/></svg>