<svg xmlns="http://www.w3.org/2000/svg" width="32" height="32" viewBox="0 0 32 32"><path d="m21.277 10.235 3.223 2.182V13a.5.5 0 1 0 1 0V9.265l3.236-2.192c.764-.554.764-1.168.764-1.946V4a.5.5 0 1 0-1 0v1.127c0 .76-.023.9-.338 1.128L25.5 8.058V3a.5.5 0 1 0-1 0v8.21l-2.648-1.794c-.329-.238-.352-.378-.352-1.137V7.152a.5.5 0 1 0-1 0v1.127c0 .777 0 1.391.777 1.956M17.889 3.71a.497.497 0 0 0 .597-.377.5.5 0 0 0-.377-.598A9.6 9.6 0 0 0 16 2.5c-4.735 0-8.673 3.482-9.385 8.02C4.31 10.74 2.5 12.666 2.5 15c0 2.481 2.019 4.5 4.5 4.5a.5.5 0 0 0 .5-.5v-7c0-4.686 3.813-8.5 8.5-8.5.636 0 1.271.07 1.889.21M6.5 18.465A3.506 3.506 0 0 1 3.5 15c0-1.748 1.308-3.2 3.01-3.459zM29.001 14.5a.5.5 0 0 0-.5.5c0 .293-.038.593-.11.87-.36 1.374-1.519 2.377-2.91 2.586.007-.152.019-.302.019-.456v-1a.5.5 0 1 0-1 0v1c0 3.872-2.606 7.142-6.155 8.163A2.495 2.495 0 0 0 16 24.5a2.5 2.5 0 0 0-2.5 2.5c0 1.379 1.121 2.5 2.5 2.5 1.324 0 2.4-1.037 2.484-2.34 3.576-.972 6.319-3.978 6.898-7.696 1.89-.181 3.493-1.496 3.975-3.342.096-.361.144-.74.144-1.122a.5.5 0 0 0-.5-.5M16 28.5c-.827 0-1.5-.673-1.5-1.5s.673-1.5 1.5-1.5 1.5.673 1.5 1.5-.673 1.5-1.5 1.5"/></svg>