<svg xmlns="http://www.w3.org/2000/svg" width="32" height="32" viewBox="0 0 32 32"><path d="m21.138 10.441 3.112 2.109V13a.75.75 0 0 0 1.5 0V9.398l3.133-2.122c.867-.628.867-1.368.867-2.149V4a.75.75 0 0 0-1.5 0v1.127c0 .755-.028.775-.229.92L25.75 7.587V3a.75.75 0 0 0-1.5 0v7.737l-2.251-1.524c-.22-.16-.249-.18-.249-.935V7.151a.75.75 0 0 0-1.5 0v1.127c0 .781 0 1.52.888 2.163M6.4 10.294C4.058 10.61 2.25 12.6 2.25 15c0 2.62 2.13 4.75 4.75 4.75a.75.75 0 0 0 .75-.75v-7q0-.451.048-.89l.006-.052q.004-.031.01-.062L6.53 9.712c-.047.192-.096.385-.13.582M6.25 12v6.163A3.256 3.256 0 0 1 3.75 15c0-1.52 1.065-2.799 2.501-3.152zM29.6 16.184c.1-.383.151-.782.151-1.184a.75.75 0 0 0-1.5 0c0 .271-.035.55-.102.806-.307 1.176-1.248 2.052-2.405 2.337 0-.048.006-.095.006-.143v-1a.75.75 0 0 0-1.5 0v1c0 1.49-.41 2.878-1.11 4.08L8.906 7.845C10.338 5.404 12.971 3.75 16 3.75c.618 0 1.235.068 1.833.204a.75.75 0 0 0 .332-1.463A9.8 9.8 0 0 0 16 2.25c-3.44 0-6.46 1.796-8.195 4.495L4.53 3.47a.75.75 0 1 0-1.06 1.06l24 24a.747.747 0 0 0 1.06 0 .75.75 0 0 0 0-1.06l-4.297-4.297a9.6 9.6 0 0 0 1.367-3.477c1.91-.26 3.508-1.625 4-3.512M18.496 25.862A2.75 2.75 0 0 0 16 24.25 2.753 2.753 0 0 0 13.25 27 2.753 2.753 0 0 0 16 29.75a2.744 2.744 0 0 0 2.714-2.392 9.75 9.75 0 0 0 3.556-1.906l-1.078-1.078a8.2 8.2 0 0 1-2.696 1.488M16 28.25a1.251 1.251 0 0 1 0-2.5 1.251 1.251 0 0 1 0 2.5"/></svg>