<svg xmlns="http://www.w3.org/2000/svg" width="32" height="32" viewBox="0 0 32 32"><path d="m21.278 10.234 3.222 2.183V13a.5.5 0 1 0 1 0V9.265l3.236-2.192c.764-.553.764-1.168.764-1.946V4a.5.5 0 1 0-1 0v1.127c0 .76-.023.9-.338 1.128L25.5 8.058V3a.5.5 0 1 0-1 0v8.209l-2.648-1.793c-.329-.238-.352-.378-.352-1.138V7.151a.5.5 0 1 0-1 0v1.127c0 .778 0 1.392.778 1.956M6.615 10.52C4.31 10.74 2.5 12.666 2.5 15c0 2.482 2.019 4.5 4.5 4.5a.5.5 0 0 0 .5-.5v-7a9 9 0 0 1 .055-.966c.044-.39.123-.768.219-1.14l-.809-.808c-.15.464-.272.942-.35 1.435M6.5 18.466A3.506 3.506 0 0 1 3.5 15c0-1.748 1.308-3.2 3.01-3.459zM18.346 26.164A2.495 2.495 0 0 0 16 24.5a2.5 2.5 0 0 0-2.5 2.5c0 1.379 1.121 2.5 2.5 2.5 1.324 0 2.4-1.037 2.484-2.34 1.592-.433 3.003-1.286 4.147-2.408l-.69-.69a8.5 8.5 0 0 1-3.595 2.101M16 28.5c-.827 0-1.5-.673-1.5-1.5s.673-1.5 1.5-1.5 1.5.673 1.5 1.5-.673 1.5-1.5 1.5M29.36 16.121a4.5 4.5 0 0 0 .141-1.12.5.5 0 1 0-1 0c0 .291-.038.592-.11.868-.36 1.375-1.518 2.378-2.91 2.587.007-.152.019-.302.019-.456v-1a.5.5 0 1 0-1 0v1a8.4 8.4 0 0 1-1.303 4.49L8.585 7.878C10.039 5.273 12.811 3.5 16 3.5c.637 0 1.273.07 1.889.21a.496.496 0 0 0 .597-.377.5.5 0 0 0-.377-.598A9.6 9.6 0 0 0 16 2.5c-3.463 0-6.485 1.872-8.144 4.649L4.354 3.647a.5.5 0 1 0-.707.707l24 24a.5.5 0 0 0 .707 0 .5.5 0 0 0 0-.707l-4.45-4.45a9.3 9.3 0 0 0 1.478-3.733c1.891-.181 3.494-1.496 3.977-3.343"/></svg>