<svg xmlns="http://www.w3.org/2000/svg" width="32" height="32" viewBox="0 0 32 32"><path d="M20.997 10.649 24 12.682V13a1 1 0 1 0 2 0V9.53l3.03-2.052c.97-.704.97-1.541.97-2.351V4a1 1 0 1 0-2 0v1.127c0 .197 0 .565-.038.638 0 0-.02.032-.08.076L26 7.115V3a1 1 0 1 0-2 0v7.267l-1.855-1.255c-.086-.064-.107-.096-.107-.096C22 8.844 22 8.476 22 8.28V7.152a1 1 0 1 0-2 0v1.127c0 .809 0 1.646.997 2.37M17.778 4.198a1 1 0 0 0 .441-1.951A10 10 0 0 0 16 2c-4.855 0-8.914 3.479-9.814 8.074C3.812 10.482 2 12.536 2 15c0 2.757 2.243 5 5 5a1 1 0 0 0 1-1v-7c0-4.411 3.589-8 8-8 .599 0 1.197.066 1.778.198M6 17.83A3.01 3.01 0 0 1 4 15c0-1.29.834-2.392 2-2.815zM29.001 14a1 1 0 0 0-1 1c0 .251-.032.507-.095.742-.25.96-.989 1.722-1.906 2.063V17a1 1 0 1 0-2 0v1c0 3.496-2.257 6.467-5.388 7.553A2.99 2.99 0 0 0 16 24c-1.654 0-3 1.346-3 3s1.346 3 3 3a2.99 2.99 0 0 0 2.944-2.443 10.03 10.03 0 0 0 6.862-7.63c1.933-.33 3.532-1.75 4.035-3.677.106-.403.16-.824.16-1.25a1 1 0 0 0-1-1M16 28A1 1 0 1 1 16.001 26 1 1 0 0 1 16 28"/></svg>