<svg xmlns="http://www.w3.org/2000/svg" width="32" height="32" viewBox="0 0 32 32"><path d="M10.919 9.571c0-2.13 1.86-3.857 4.153-3.857 2.294 0 4.154 1.727 4.154 3.857s-1.86 3.858-4.154 3.858-4.153-1.727-4.153-3.858M15.072 4c-3.313 0-6 2.494-6 5.571 0 1.796.916 3.394 2.336 4.413C7.123 15.309 4 18.866 4 22.92c0 2.087 1.989 3.375 4.138 4.092 2.24.747 5.133 1.058 7.896.965.509-.017.907-.415.889-.888s-.447-.842-.956-.825c-2.602.087-5.247-.212-7.205-.865-2.048-.684-2.916-1.586-2.916-2.479 0-4.078 4.066-7.774 9.23-7.774h.003c2.132-.005 4.205.645 5.899 1.847a.97.97 0 0 0 1.294-.16.817.817 0 0 0-.173-1.201 11.8 11.8 0 0 0-3.358-1.652c1.418-1.02 2.331-2.615 2.331-4.41 0-3.077-2.686-5.571-6-5.571M27.73 18.18c.36.334.36.877 0 1.212l-3.04 2.822 3.04 2.823c.36.335.36.877 0 1.212a.974.974 0 0 1-1.306 0l-3.04-2.822-3.039 2.822a.974.974 0 0 1-1.305 0 .814.814 0 0 1 0-1.212l3.04-2.823-3.04-2.822a.815.815 0 0 1 0-1.212.974.974 0 0 1 1.305 0l3.04 2.822 3.04-2.822a.974.974 0 0 1 1.305 0"/></svg>