<svg xmlns="http://www.w3.org/2000/svg" width="32" height="32" viewBox="0 0 32 32"><path d="M9.995 8.5a5 5 0 1 1 10 0 5 5 0 0 1-10 0m5-6a6 6 0 0 0-2.767 11.325C7.236 14.998 3.5 19.244 3.5 24.075c0 2.086 1.85 3.476 4.152 4.303 2.35.844 5.417 1.204 8.366 1.097a.5.5 0 0 0-.036-1c-2.862.104-5.795-.249-7.992-1.038-2.246-.807-3.49-1.972-3.49-3.362 0-5.069 4.665-9.57 10.5-9.57h.001c2.42-.006 4.773.788 6.695 2.258a.5.5 0 0 0 .608-.794 12 12 0 0 0-4.537-2.146A6 6 0 0 0 14.995 2.5m13.359 16.396a.5.5 0 0 1 0 .708l-3.647 3.646 3.647 3.646a.5.5 0 0 1-.708.708L24 23.957l-3.646 3.647a.5.5 0 0 1-.708-.708l3.647-3.646-3.647-3.646a.5.5 0 0 1 .708-.708L24 22.543l3.646-3.647a.5.5 0 0 1 .708 0"/></svg>