<svg xmlns="http://www.w3.org/2000/svg" width="32" height="32" viewBox="0 0 32 32"><path d="M10.495 8.5a4.5 4.5 0 1 1 9 0 4.5 4.5 0 0 1-9 0Zm4.5-6.5a6.5 6.5 0 0 0-3.97 11.648C6.384 15.194 3 19.344 3 24.075c0 2.434 2.155 3.937 4.483 4.774 2.426.871 5.56 1.234 8.553 1.125a1 1 0 0 0-.072-1.998c-2.819.102-5.684-.248-7.805-1.01C5.939 26.17 5 25.116 5 24.075c0-4.758 4.404-9.07 10-9.07h.002c2.31-.006 4.556.752 6.39 2.155a1 1 0 1 0 1.216-1.588 12.477 12.477 0 0 0-3.639-1.928A6.5 6.5 0 0 0 14.995 2Zm13.712 16.543a1 1 0 0 1 0 1.414l-3.293 3.293 3.293 3.293a1 1 0 0 1-1.414 1.414L24 24.664l-3.293 3.293a1 1 0 0 1-1.414-1.414l3.293-3.293-3.293-3.293a1 1 0 0 1 1.414-1.414L24 21.836l3.293-3.293a1 1 0 0 1 1.414 0Z"/></svg>