<svg xmlns="http://www.w3.org/2000/svg" width="26" height="26" viewBox="0 0 26 26"><g clip-path="url(#a)"><path d="M7.245 6.036c0-2.436 2.127-4.411 4.75-4.411s4.75 1.975 4.75 4.41c0 2.437-2.127 4.411-4.75 4.411s-4.75-1.974-4.75-4.41Zm4.75-5.804c-3.452 0-6.25 2.598-6.25 5.804 0 2.035 1.129 3.826 2.837 4.862C3.786 12.181.25 16.07.25 20.498c0 2.099 2.003 3.442 4.317 4.214 2.388.797 5.49 1.132 8.46 1.032.414-.014.738-.337.723-.721-.015-.384-.363-.685-.777-.67-2.84.095-5.74-.231-7.899-.951-2.232-.745-3.324-1.775-3.324-2.904 0-4.562 4.535-8.654 10.25-8.654h.002c2.364-.005 4.664.715 6.542 2.049.33.234.8.175 1.052-.13a.664.664 0 0 0-.14-.976 12.61 12.61 0 0 0-4.043-1.892c1.706-1.036 2.832-2.826 2.832-4.86 0-3.205-2.798-5.803-6.25-5.803ZM25.53 15.525a.662.662 0 0 1 0 .985l-3.47 3.222 3.47 3.222a.662.662 0 0 1 0 .985.791.791 0 0 1-1.06 0L21 20.717l-3.47 3.222a.791.791 0 0 1-1.06 0 .662.662 0 0 1 0-.985l3.47-3.222-3.47-3.222a.662.662 0 0 1 0-.985.791.791 0 0 1 1.06 0L21 18.747l3.47-3.222a.791.791 0 0 1 1.06 0Z"/></g><defs><clipPath id="a"><path d="M0 0h26v26H0z"/></clipPath></defs></svg>