<svg xmlns="http://www.w3.org/2000/svg" width="24" height="24" viewBox="0 0 24 24"><path d="M6.919 5.571c0-2.13 1.86-3.857 4.153-3.857 2.295 0 4.154 1.727 4.154 3.857s-1.86 3.858-4.154 3.858c-2.294 0-4.153-1.727-4.153-3.858ZM11.072 0c-3.313 0-6 2.494-6 5.571 0 1.796.916 3.394 2.336 4.413C3.123 11.309 0 14.866 0 18.92c0 2.087 1.989 3.375 4.138 4.092 2.24.747 5.133 1.058 7.896.965.509-.017.907-.415.888-.888-.018-.473-.446-.842-.956-.825-2.601.087-5.246-.212-7.204-.865-2.048-.684-2.916-1.586-2.916-2.479 0-4.077 4.066-7.774 9.23-7.774h.003c2.132-.005 4.205.645 5.899 1.848a.971.971 0 0 0 1.294-.16.817.817 0 0 0-.173-1.202 11.841 11.841 0 0 0-3.358-1.652c1.418-1.02 2.331-2.615 2.331-4.41 0-3.077-2.686-5.571-6-5.571ZM23.73 14.18c.36.334.36.877 0 1.212l-3.04 2.822 3.04 2.823c.36.335.36.877 0 1.212a.974.974 0 0 1-1.306 0l-3.04-2.822-3.039 2.822a.974.974 0 0 1-1.305 0 .814.814 0 0 1 0-1.212l3.04-2.823-3.04-2.822a.815.815 0 0 1 0-1.212.974.974 0 0 1 1.305 0l3.04 2.822 3.04-2.822a.974.974 0 0 1 1.305 0Z"/></svg>