<svg xmlns="http://www.w3.org/2000/svg" width="32" height="32" viewBox="0 0 32 32"><path d="M9.995 8.804c0-2.436 2.127-4.411 4.75-4.411s4.75 1.975 4.75 4.41-2.126 4.411-4.75 4.411-4.75-1.975-4.75-4.41M14.745 3c-3.452 0-6.25 2.598-6.25 5.804 0 2.035 1.129 3.826 2.837 4.862C6.536 14.949 3 18.838 3 23.266c0 2.099 2.003 3.442 4.317 4.214 2.388.797 5.49 1.132 8.46 1.032.414-.014.738-.337.723-.721-.015-.385-.363-.685-.777-.671-2.84.096-5.74-.23-7.899-.95-2.232-.746-3.324-1.775-3.324-2.904 0-4.562 4.535-8.654 10.25-8.654h.002c2.364-.005 4.664.715 6.542 2.049.33.233.8.175 1.052-.13a.664.664 0 0 0-.14-.976 12.6 12.6 0 0 0-4.043-1.892c1.706-1.036 2.832-2.826 2.832-4.86 0-3.205-2.798-5.803-6.25-5.803M28.28 18.293a.66.66 0 0 1 0 .985L24.81 22.5l3.47 3.222a.66.66 0 0 1 0 .985.79.79 0 0 1-1.06 0l-3.47-3.222-3.47 3.222a.79.79 0 0 1-1.06 0 .66.66 0 0 1 0-.985l3.47-3.222-3.47-3.222a.66.66 0 0 1 0-.985.79.79 0 0 1 1.06 0l3.47 3.222 3.47-3.222a.79.79 0 0 1 1.06 0"/></svg>