<svg xmlns="http://www.w3.org/2000/svg" width="32" height="32" viewBox="0 0 32 32"><path d="M10.245 8.5a4.75 4.75 0 1 1 9.5 0 4.75 4.75 0 0 1-9.5 0Zm4.75-6.25a6.25 6.25 0 0 0-3.413 11.486c-4.796 1.382-8.332 5.57-8.332 10.339 0 2.26 2.003 3.707 4.317 4.538 2.388.858 5.49 1.22 8.46 1.111a.75.75 0 1 0-.054-1.499c-2.84.103-5.74-.248-7.899-1.023-2.232-.803-3.324-1.911-3.324-3.127 0-4.913 4.535-9.32 10.25-9.32h.002c2.364-.006 4.664.77 6.542 2.207a.75.75 0 1 0 .912-1.192 12.226 12.226 0 0 0-4.043-2.037A6.25 6.25 0 0 0 14.995 2.25ZM28.53 18.72a.75.75 0 0 1 0 1.06l-3.47 3.47 3.47 3.47a.75.75 0 1 1-1.06 1.06L24 24.31l-3.47 3.47a.75.75 0 1 1-1.06-1.06l3.47-3.47-3.47-3.47a.75.75 0 1 1 1.06-1.06L24 22.19l3.47-3.47a.75.75 0 0 1 1.06 0Z"/></svg>