<svg xmlns="http://www.w3.org/2000/svg" width="32" height="32" viewBox="0 0 32 32"><path d="m12.38 11.9-3.375 8.208h1.22l.821-2.075h3.91l.81 2.075h1.288L13.691 11.9h-1.312Zm-.958 5.187 1.596-4.024 1.562 4.024h-3.158Z"/><path d="M28.787 9.722a1.508 1.508 0 0 0-1.503-.039l-3.782 2.404V10a4.505 4.505 0 0 0-4.5-4.5h-12a4.505 4.505 0 0 0-4.5 4.5v12a4.505 4.505 0 0 0 4.5 4.5h12a4.505 4.505 0 0 0 4.5-4.5V19.91l3.827 2.43A1.5 1.5 0 0 0 29.499 21V11a1.492 1.492 0 0 0-.712-1.278ZM22.502 22a3.505 3.505 0 0 1-3.5 3.5h-12a3.505 3.505 0 0 1-3.5-3.5V10a3.504 3.504 0 0 1 3.5-3.5h12a3.504 3.504 0 0 1 3.5 3.5v12Zm5.997-1a.49.49 0 0 1-.238.424.475.475 0 0 1-.44.048l-4.32-2.745v-5.455l4.276-2.72a.499.499 0 0 1 .721.448v10Z"/></svg>