<svg xmlns="http://www.w3.org/2000/svg" width="32" height="32" viewBox="0 0 32 32"><path d="M25 5.25H7A4.755 4.755 0 0 0 2.25 10v12A4.756 4.756 0 0 0 7 26.75h18A4.756 4.756 0 0 0 29.75 22V10A4.755 4.755 0 0 0 25 5.25M28.25 22A3.254 3.254 0 0 1 25 25.25H7A3.254 3.254 0 0 1 3.75 22V10A3.254 3.254 0 0 1 7 6.75h18A3.254 3.254 0 0 1 28.25 10zM16 9.25a.75.75 0 0 0-.75.75v.28a5.747 5.747 0 1 0 6.442 6.47H22a.75.75 0 0 0 .75-.75A6.76 6.76 0 0 0 16 9.25m0 10.975a4.245 4.245 0 0 1-.75-8.424V16a.75.75 0 0 0 .75.75h4.172A4.25 4.25 0 0 1 16 20.225m.75-4.975v-4.447a5.26 5.26 0 0 1 4.446 4.447z"/></svg>