<svg xmlns="http://www.w3.org/2000/svg" width="32" height="32" viewBox="0 0 32 32"><path d="M13 22a1 1 0 0 1-1-1v-4H8a1 1 0 1 1 0-2h4v-4a1 1 0 0 1 2 0v4h4a1 1 0 1 1 0 2h-4v4a1 1 0 0 1-1 1M28.09 8.995c.342.015.673.118.963.299a1.99 1.99 0 0 1 .95 1.7v10.002a2 2 0 0 1-2.985 1.738L24 20.815V22a5.006 5.006 0 0 1-5 5H7a5.006 5.006 0 0 1-5-5V10a5.006 5.006 0 0 1 5-5h12a5.006 5.006 0 0 1 5 5v1.176l3.018-1.918a1.98 1.98 0 0 1 1.073-.263M21.12 24.12A3 3 0 0 0 22 22V10a3.003 3.003 0 0 0-3-3H7a3.003 3.003 0 0 0-3 3v12a3.003 3.003 0 0 0 3 3h12c.795 0 1.558-.317 2.12-.88M24 18.445l4.002 2.545v-9.988L24 13.546z"/></svg>