<svg xmlns="http://www.w3.org/2000/svg" width="32" height="32" viewBox="0 0 32 32"><path d="m11.915 11.892-2.922 8.216h1.895l.581-1.883h2.922l.582 1.883h2.02l-2.943-8.216zm-.057 5.078 1.084-3.504 1.073 3.504zM29.05 9.298a1.99 1.99 0 0 0-2.034-.037l-3.014 1.917V10a5.006 5.006 0 0 0-5-5h-12a5.006 5.006 0 0 0-5 5v12a5.006 5.006 0 0 0 5 5h12a5.006 5.006 0 0 0 5-5v-1.178l3.014 1.916a1 1 0 0 0 .089.05A2 2 0 0 0 29.998 21V11a1.99 1.99 0 0 0-.949-1.702M22 22a3.003 3.003 0 0 1-3 3h-12a3.003 3.003 0 0 1-3-3V10a3.003 3.003 0 0 1 3-3h12a3.003 3.003 0 0 1 3 3zm2-3.547v-4.906l3.997-2.54.002 9.987z"/></svg>