<svg xmlns="http://www.w3.org/2000/svg" width="32" height="32" viewBox="0 0 32 32"><path d="M3.75 7.5A3.25 3.25 0 0 1 7 4.25h18a3.25 3.25 0 0 1 3.25 3.25v9a.75.75 0 0 0 1.5 0v-9A4.75 4.75 0 0 0 25 2.75H7A4.75 4.75 0 0 0 2.25 7.5v12A4.75 4.75 0 0 0 7 24.25h3a.75.75 0 0 0 0-1.5H7a3.25 3.25 0 0 1-3.25-3.25zm12.5 7a4.75 4.75 0 1 1 7.683 3.736c.982.316 1.94.78 2.785 1.367 1.69 1.177 3.032 2.941 3.032 5.147 0 .532-.07 1.12-.335 1.692-.269.582-.716 1.1-1.392 1.522-1.312.82-3.492 1.286-7.023 1.286s-5.71-.466-7.023-1.286c-.675-.422-1.123-.94-1.392-1.522-.265-.573-.335-1.16-.335-1.692 0-2.206 1.343-3.97 3.032-5.147a10.6 10.6 0 0 1 2.785-1.367A4.74 4.74 0 0 1 16.25 14.5M21 11.25a3.25 3.25 0 1 0 0 6.5 3.25 3.25 0 0 0 0-6.5m-4.86 9.584c-1.452 1.011-2.39 2.372-2.39 3.916 0 .405.055.756.196 1.062.138.297.377.6.827.88.938.587 2.758 1.058 6.227 1.058s5.29-.471 6.227-1.058c.45-.28.69-.583.827-.88.141-.306.196-.657.196-1.062 0-1.544-.938-2.905-2.39-3.916-1.45-1.01-3.302-1.584-4.86-1.584s-3.41.574-4.86 1.584"/></svg>