<svg xmlns="http://www.w3.org/2000/svg" width="32" height="32" viewBox="0 0 32 32"><path d="m12.198 11.9-3.193 8.208h1.493l.72-1.995h3.51l.719 1.995h1.584L13.839 11.9zm-.593 5.142 1.39-3.82 1.357 3.82zM28.918 9.51a1.76 1.76 0 0 0-1.768-.038l-3.398 2.16V10a4.756 4.756 0 0 0-4.75-4.75h-12A4.755 4.755 0 0 0 2.251 10v12a4.755 4.755 0 0 0 4.75 4.75h12a4.755 4.755 0 0 0 4.75-4.75v-1.634l3.465 2.2A1.75 1.75 0 0 0 29.75 21V11a1.74 1.74 0 0 0-.831-1.49M22.252 22a3.254 3.254 0 0 1-3.25 3.25h-12A3.254 3.254 0 0 1 3.751 22V10a3.254 3.254 0 0 1 3.25-3.25h12a3.254 3.254 0 0 1 3.25 3.25zm5.997-1a.24.24 0 0 1-.119.213.3.3 0 0 1-.175.048l-4.203-2.671v-5.18l4.136-2.634a.24.24 0 0 1 .241.01.24.24 0 0 1 .12.214z"/></svg>