<svg xmlns="http://www.w3.org/2000/svg" width="208" height="33" fill="none" viewBox="0 0 208 33"><g clip-path="url(#a)"><mask id="b" width="32" height="33" x="0" y="0" maskUnits="userSpaceOnUse" style="mask-type:luminance"><path fill="#fff" d="M32 .33H0v32h32z"/></mask><g mask="url(#b)"><path fill="#FFD200" d="M32 .33H0v32h32z"/><path fill="#050504" d="m8.644 8.542 15.48 7.698-15.499 7.877 9.969-7.853z"/></g><path fill="#050504" d="m45.763 19.551-2.726-8.573h-2.074l3.65 11.073h2.275l3.665-11.073h-2.052zM76.141 20.198H71.12v-2.714h4.667v-1.86h-4.667V12.83h5.022v-1.852h-6.967V22.05h6.967zM64.467 21.719a5.8 5.8 0 0 0 1.372-1.295c.197-.316.294-.684.28-1.057v-5.664a1.74 1.74 0 0 0-.294-1.057c-.224-.317-.926-1.112-1.336-1.35a2.2 2.2 0 0 0-1.134-.318h-5.07v11.074h5.07a2.4 2.4 0 0 0 1.112-.333m-4.237-1.52V12.83h2.94a.5.5 0 0 1 .17.016c.333.206.613.486.819.819q.014.045.014.093v5.573c0 .215-.556.701-.818.847a.4.4 0 0 1-.122.015zM54.877 10.978h-1.945v11.08h1.945zM127.553 10.978v7.447l-3.805-7.447h-2.09V22.05h1.943v-7.352l3.835 7.352h2.061V10.978zM108.039 22.052l-2.201-4.513q.26-.096.48-.265c.37-.287.706-.616 1.002-.979.223-.336.339-.73.334-1.133v-1.628a2.04 2.04 0 0 0-.334-1.13 6.2 6.2 0 0 0-1.002-1.018 2.37 2.37 0 0 0-1.313-.41h-5.206v11.076h1.943V17.69h2.129l2.06 4.375zm-2.33-6.905a.2.2 0 0 1-.024.076c-.146.254-.516.61-.68.61h-3.263V12.83h3.356c.182.016.48.386.587.594q.025.06.024.124zM117.086 11.235a2.34 2.34 0 0 0-1.148-.334h-2.822a2.3 2.3 0 0 0-1.148.334c-.387.222-1.129 1.017-1.351 1.334a1.84 1.84 0 0 0-.294 1.057v5.803c-.01.371.092.737.294 1.048.222.317.964 1.12 1.351 1.334.346.212.742.33 1.148.34h2.816a2.34 2.34 0 0 0 1.148-.34c.388-.215 1.112-1.017 1.351-1.334.203-.312.305-.677.296-1.048v-5.802a1.85 1.85 0 0 0-.303-1.058c-.232-.317-.956-1.112-1.338-1.334m-.291 8.17a.15.15 0 0 1-.024.077 3 3 0 0 1-.809.795.3.3 0 0 1-.093.014h-2.676a.2.2 0 0 1-.093-.014 2.9 2.9 0 0 1-.817-.795.2.2 0 0 1-.016-.077V13.68q0-.047.016-.093c.217-.32.495-.594.817-.809.016-.022.093-.022.093-.022h2.67a.2.2 0 0 1 .093.022c.318.217.592.492.809.81.024.023.024.092.024.092zM97.167 10.978h-7.948v1.852h3.002v9.23h1.943v-9.23h3.003zM87.13 20.477c.197-.314.298-.678.291-1.048v-5.802a1.9 1.9 0 0 0-.291-1.058c-.24-.317-.966-1.112-1.36-1.334a2.35 2.35 0 0 0-1.132-.334h-2.826a2.3 2.3 0 0 0-1.15.334c-.392.222-1.134 1.017-1.35 1.334a1.85 1.85 0 0 0-.302 1.057v5.803c-.007.372.099.737.303 1.048.215.317.957 1.12 1.349 1.334.347.213.744.33 1.15.34h2.826a2.35 2.35 0 0 0 1.14-.34c.385-.215 1.111-1.022 1.352-1.334m-1.654-1.072a.2.2 0 0 1-.014.077 3 3 0 0 1-.824.795.3.3 0 0 1-.093.014H81.88a.3.3 0 0 1-.09-.014 2.9 2.9 0 0 1-.814-.795.14.14 0 0 1-.022-.077V13.68q0-.049.022-.093c.216-.32.492-.595.813-.809.022-.022.091-.022.091-.022h2.671a.2.2 0 0 1 .093.022c.32.216.597.491.817.81q.015.045.014.092zM156.777 21.952h1.116v-4.986h4.966v-1.07h-4.966v-3.91h5.234V10.91h-6.35zM147.514 21.952h1.113v-4.986h4.961v-1.07h-4.961v-3.91h5.238V10.91h-6.351zM141.638 10.91h-1.683l-3.689 11.003v.039h1.165l.847-2.551h5.048l.815 2.529v.022h1.192l-3.687-11.026zm-.746 1.1 2.086 6.316h-4.36l2.067-6.316zM206.775 16.589l-5.005-1.39a.83.83 0 0 1-.544-.8v-1.143a.46.46 0 0 1 .069-.224 3.3 3.3 0 0 1 1.13-1.06.43.43 0 0 1 .223-.045h2.583a.4.4 0 0 1 .221.052c.453.292.832.684 1.109 1.146q.072.11.123.23l.014.024 1.09-.323h.031l-.016-.024a4.7 4.7 0 0 0-.422-.726c-.216-.283-.726-.908-1.146-1.16a2 2 0 0 0-.946-.292h-2.725c-.335.015-.66.116-.946.292a6.4 6.4 0 0 0-1.272 1.29c-.161.275-.239.59-.223.909v1.129c0 .837.469 1.56 1.153 1.752l5.02 1.374c.362.093.57.492.57.832v1.178a.54.54 0 0 1-.055.223 3.64 3.64 0 0 1-1.144 1.09.4.4 0 0 1-.209.045h-2.906a.55.55 0 0 1-.246-.046 3.8 3.8 0 0 1-1.107-1.152.7.7 0 0 1-.124-.207v-.024l-1.07.301h-.03l.016.031q.169.377.408.714c.208.285.726.898 1.137 1.162.293.177.626.279.969.297h3.046a1.95 1.95 0 0 0 .944-.297 6 6 0 0 0 1.272-1.271c.166-.273.248-.589.232-.908v-1.244c-.031-.83-.523-1.536-1.224-1.735M190.75 21.952h6.351V20.87h-5.236v-3.904h4.962v-1.07h-4.962v-3.91h5.236V10.91h-6.351zM186.269 16.743c.347-.285.663-.607.939-.96.19-.285.288-.62.284-.96v-1.617a1.73 1.73 0 0 0-.284-.967 6.7 6.7 0 0 0-.939-.98 1.9 1.9 0 0 0-1.098-.364h-4.972v11.057h1.116v-4.857h2.706l2.699 4.842v.015h1.271l-2.737-4.857a1.7 1.7 0 0 0 1.015-.352m-4.951-4.758h3.837a.54.54 0 0 1 .299.054c.362.229.665.54.885.908a.7.7 0 0 1 .036.309v1.535a.7.7 0 0 1-.039.3 2.6 2.6 0 0 1-.884.87.6.6 0 0 1-.3.069h-3.834zM176.906 10.91h-1.115v11.042h1.115zM169.916 10.91h-1.684l-3.691 11.003v.039h1.168l.847-2.551h5.051l.823 2.529v.022h1.192l-3.698-11.026zm-.746 1.1 2.085 6.316h-4.36l2.068-6.316z"/></g><defs><clipPath id="a"><path fill="#fff" d="M0 .33h208v32H0z"/></clipPath></defs></svg>