<svg xmlns="http://www.w3.org/2000/svg" width="32" height="32" viewBox="0 0 32 32"><path d="M27.871 4.128a2.147 2.147 0 0 0-3.034 0l-20.71 20.71a2.145 2.145 0 1 0 3.035 3.033l20.71-20.709a2.147 2.147 0 0 0 0-3.034m-.707 2.327L6.455 27.165a1.175 1.175 0 0 1-1.62 0 1.146 1.146 0 0 1 0-1.62l20.709-20.71a1.145 1.145 0 1 1 1.62 1.62M7 7.5h3.5V11a.5.5 0 0 0 1 0V7.5H15a.5.5 0 0 0 0-1h-3.5V3a.5.5 0 0 0-1 0v3.5H7a.5.5 0 1 0 0 1M26 23.5h-2.5V21a.5.5 0 0 0-1 0v2.5H20a.5.5 0 0 0 0 1h2.5V27a.5.5 0 0 0 1 0v-2.5H26a.5.5 0 0 0 0-1M4.5 18a.5.5 0 0 0 1 0v-1.5H7a.5.5 0 1 0 0-1H5.5V14a.5.5 0 1 0-1 0v1.5H3a.5.5 0 0 0 0 1h1.5z"/></svg>