<svg xmlns="http://www.w3.org/2000/svg" width="208" height="32" fill="none" viewBox="0 0 208 32"><g clip-path="url(#a)"><mask id="b" width="32" height="32" x="0" y="0" maskUnits="userSpaceOnUse" style="mask-type:luminance"><path fill="#fff" d="M32 0H0v32h32z"/></mask><g mask="url(#b)"><path fill="#FFD200" d="M32 0H0v32h32z"/><path fill="#050504" d="m8.644 8.212 15.48 7.698-15.498 7.877 9.969-7.853z"/></g><path fill="#050504" d="m45.763 19.221-2.725-8.573h-2.075l3.65 11.072h2.275l3.666-11.072H48.5zM76.14 19.868h-5.022v-2.714h4.667v-1.86h-4.667V12.5h5.023v-1.852h-6.968V21.72h6.968zM64.467 21.389a5.8 5.8 0 0 0 1.372-1.295c.197-.316.294-.685.28-1.057v-5.664a1.74 1.74 0 0 0-.294-1.057c-.225-.318-.927-1.112-1.337-1.35a2.2 2.2 0 0 0-1.133-.318h-5.07v11.074h5.07a2.4 2.4 0 0 0 1.111-.333m-4.237-1.52v-7.37h2.94a.5.5 0 0 1 .17.017c.333.206.613.486.818.819q.015.045.015.093V19c0 .215-.556.702-.819.848a.4.4 0 0 1-.122.015zM54.876 10.648h-1.945v11.08h1.945zM127.553 10.648v7.447l-3.804-7.447h-2.091V21.72h1.943v-7.352l3.836 7.352h2.06V10.648zM108.039 21.722l-2.201-4.513a1.8 1.8 0 0 0 .48-.265 6.2 6.2 0 0 0 1.002-.979c.223-.335.339-.73.334-1.133v-1.629a2.04 2.04 0 0 0-.334-1.13 6.2 6.2 0 0 0-1.002-1.017 2.37 2.37 0 0 0-1.313-.41h-5.206v11.076h1.943V17.36h2.129l2.06 4.375zm-2.33-6.905a.2.2 0 0 1-.024.076c-.146.254-.516.61-.68.61h-3.263V12.5h3.356c.183.016.48.386.587.594q.025.06.024.124zM117.086 10.905a2.34 2.34 0 0 0-1.149-.334h-2.821a2.3 2.3 0 0 0-1.149.334c-.386.222-1.128 1.017-1.351 1.334a1.84 1.84 0 0 0-.293 1.057V19.1c-.011.37.092.736.293 1.048.223.317.965 1.12 1.351 1.335.346.211.743.328 1.149.338h2.815a2.34 2.34 0 0 0 1.149-.338c.387-.216 1.112-1.018 1.351-1.335.202-.312.305-.677.296-1.048v-5.803a1.85 1.85 0 0 0-.303-1.057c-.232-.317-.957-1.112-1.338-1.334m-.292 8.17a.15.15 0 0 1-.024.077 3 3 0 0 1-.809.795.3.3 0 0 1-.092.014h-2.677a.2.2 0 0 1-.093-.014 2.9 2.9 0 0 1-.817-.795.2.2 0 0 1-.016-.077V13.35q0-.047.016-.093c.218-.32.495-.594.817-.81.017-.02.093-.02.093-.02h2.671a.2.2 0 0 1 .092.02c.318.218.592.493.81.81.024.024.024.093.024.093zM97.167 10.648h-7.948V12.5h3.002v9.23h1.943V12.5h3.003zM87.13 20.147c.196-.313.298-.678.291-1.048v-5.803a1.9 1.9 0 0 0-.292-1.057c-.24-.317-.966-1.112-1.36-1.334a2.34 2.34 0 0 0-1.132-.334h-2.825a2.3 2.3 0 0 0-1.15.334c-.392.222-1.134 1.017-1.35 1.334a1.85 1.85 0 0 0-.302 1.057V19.1c-.007.372.099.737.303 1.048.215.317.957 1.12 1.349 1.335.346.212.743.33 1.15.338h2.825c.404-.013.797-.13 1.142-.338.384-.216 1.11-1.023 1.35-1.335m-1.654-1.072a.2.2 0 0 1-.015.077 3 3 0 0 1-.824.795.3.3 0 0 1-.093.014h-2.663a.3.3 0 0 1-.091-.014 2.9 2.9 0 0 1-.813-.795.14.14 0 0 1-.022-.077V13.35q0-.049.022-.093c.216-.32.492-.595.813-.81.022-.02.091-.02.091-.02h2.67a.2.2 0 0 1 .094.02c.32.217.597.492.816.81q.016.046.015.093zM156.777 21.622h1.116v-4.986h4.965v-1.07h-4.965v-3.91h5.234V10.58h-6.35zM147.513 21.622h1.113v-4.986h4.961v-1.07h-4.961v-3.91h5.238V10.58h-6.351zM141.639 10.58h-1.684l-3.689 11.003v.039h1.166l.847-2.551h5.048l.815 2.529v.022h1.192l-3.687-11.026zm-.746 1.1 2.085 6.316h-4.36l2.068-6.316zM206.774 16.259l-5.005-1.391a.83.83 0 0 1-.544-.799v-1.144a.5.5 0 0 1 .069-.223 3.3 3.3 0 0 1 1.13-1.06.44.44 0 0 1 .223-.045h2.583a.4.4 0 0 1 .221.052c.453.292.832.684 1.109 1.146q.072.11.123.23l.014.024 1.09-.323h.031l-.016-.024a4.7 4.7 0 0 0-.421-.726c-.216-.283-.727-.908-1.147-1.16a2 2 0 0 0-.946-.292h-2.725c-.334.015-.66.116-.946.292a6.4 6.4 0 0 0-1.272 1.29 1.63 1.63 0 0 0-.223.908v1.13c0 .837.469 1.56 1.153 1.752l5.02 1.374c.362.093.57.492.57.832v1.178a.5.5 0 0 1-.055.223 3.64 3.64 0 0 1-1.144 1.09.4.4 0 0 1-.209.045h-2.906a.55.55 0 0 1-.246-.046 3.8 3.8 0 0 1-1.107-1.153.7.7 0 0 1-.124-.206v-.024l-1.069.301h-.031l.016.031q.169.376.408.714c.208.285.727.898 1.137 1.162a2.1 2.1 0 0 0 .969.297h3.046c.335-.016.66-.118.944-.297a6 6 0 0 0 1.272-1.271c.167-.273.248-.589.232-.908v-1.244c-.031-.83-.523-1.536-1.224-1.735M190.751 21.622h6.351V20.54h-5.236v-3.904h4.961v-1.07h-4.961v-3.91h5.236V10.58h-6.351zM186.27 16.413c.347-.285.663-.607.939-.96.19-.285.288-.62.284-.96v-1.617a1.73 1.73 0 0 0-.284-.967 6.7 6.7 0 0 0-.939-.98 1.9 1.9 0 0 0-1.099-.364H180.2v11.057h1.115v-4.857h2.707l2.699 4.842v.015h1.271l-2.737-4.857a1.7 1.7 0 0 0 1.015-.352m-4.951-4.758h3.836a.55.55 0 0 1 .3.054c.362.229.665.54.884.908a.7.7 0 0 1 .037.308v1.536a.7.7 0 0 1-.039.3 2.64 2.64 0 0 1-.884.87.6.6 0 0 1-.3.069h-3.834zM176.906 10.58h-1.115v11.042h1.115zM169.917 10.58h-1.684l-3.691 11.003v.039h1.168l.847-2.551h5.051l.823 2.529v.022h1.192l-3.698-11.026zm-.747 1.1 2.086 6.316h-4.36l2.067-6.316z"/></g><defs><clipPath id="a"><path fill="#fff" d="M0 0h208v32H0z"/></clipPath></defs></svg>