<svg xmlns="http://www.w3.org/2000/svg" width="32" height="32" viewBox="0 0 32 32"><path d="M28.225 3.775a2.65 2.65 0 0 0-3.742 0L3.774 24.485a2.645 2.645 0 0 0 3.742 3.74l20.709-20.71a2.65 2.65 0 0 0 0-3.74M26.81 6.102 6.1 26.81a.646.646 0 0 1-.913-.912l20.71-20.71a.645.645 0 0 1 .913.913M7 8h3v3a1 1 0 0 0 2 0V8h3a1 1 0 1 0 0-2h-3V3a1 1 0 0 0-2 0v3H7a1 1 0 0 0 0 2M26 23h-2v-2a1 1 0 0 0-2 0v2h-2a1 1 0 0 0 0 2h2v2a1 1 0 0 0 2 0v-2h2a1 1 0 1 0 0-2M4 18a1 1 0 1 0 2 0v-1h1a1 1 0 1 0 0-2H6v-1a1 1 0 0 0-2 0v1H3a1 1 0 0 0 0 2h1z"/></svg>