<svg xmlns="http://www.w3.org/2000/svg" width="32" height="32" viewBox="0 0 32 32"><path d="M28.921 9.507a1.76 1.76 0 0 0-1.769-.038l-3.402 2.163V10A4.755 4.755 0 0 0 19 5.25H7A4.755 4.755 0 0 0 2.25 10v12A4.755 4.755 0 0 0 7 26.75h12A4.755 4.755 0 0 0 23.75 22v-1.641l3.47 2.202a1.75 1.75 0 0 0 2.532-1.565V10.995a1.74 1.74 0 0 0-.83-1.488M22.25 22A3.254 3.254 0 0 1 19 25.25H7A3.254 3.254 0 0 1 3.75 22V10A3.254 3.254 0 0 1 7 6.75h12A3.254 3.254 0 0 1 22.25 10zm6.002-1.004a.25.25 0 0 1-.119.213c-.044.026-.134.068-.176.049l-4.207-2.675v-5.174l4.14-2.637a.24.24 0 0 1 .243.011.24.24 0 0 1 .119.212z"/></svg>