<svg xmlns="http://www.w3.org/2000/svg" width="32" height="32" viewBox="0 0 32 32"><path fill-rule="evenodd" d="M7 5h18a5.006 5.006 0 0 1 5 5v12a5.006 5.006 0 0 1-5 5H7a5.006 5.006 0 0 1-5-5V10a5.006 5.006 0 0 1 5-5Zm1.286 2h15.428a4.397 4.397 0 0 1 3.03 1.2A4.004 4.004 0 0 1 28 11.09v9.82a4.004 4.004 0 0 1-1.257 2.89 4.397 4.397 0 0 1-3.029 1.2H8.286a4.397 4.397 0 0 1-3.03-1.2A4.004 4.004 0 0 1 4 20.91v-9.82A4.004 4.004 0 0 1 5.257 8.2 4.396 4.396 0 0 1 8.286 7Z" clip-rule="evenodd"/><path d="M22.429 9H9.57c-.946.001-1.854.337-2.524.933-.67.597-1.046 1.405-1.047 2.249v7.636c.001.844.378 1.652 1.047 2.249.67.596 1.578.932 2.524.933H22.43c.946-.001 1.854-.337 2.524-.933.67-.596 1.046-1.405 1.047-2.249v-7.636c-.001-.844-.378-1.652-1.047-2.249-.67-.596-1.578-.932-2.524-.933Z"/></svg>