<svg xmlns="http://www.w3.org/2000/svg" width="32" height="32" viewBox="0 0 32 32"><path d="m12.38 11.9-3.375 8.208h1.22l.821-2.075h3.91l.81 2.075h1.288L13.691 11.9zm-.958 5.187 1.596-4.024 1.562 4.024zM28.787 9.722a1.51 1.51 0 0 0-1.503-.039l-3.782 2.404V10a4.505 4.505 0 0 0-4.5-4.5h-12a4.505 4.505 0 0 0-4.5 4.5v12a4.505 4.505 0 0 0 4.5 4.5h12a4.505 4.505 0 0 0 4.5-4.5V19.91l3.827 2.43A1.5 1.5 0 0 0 29.499 21V11a1.49 1.49 0 0 0-.712-1.278M22.502 22a3.505 3.505 0 0 1-3.5 3.5h-12a3.505 3.505 0 0 1-3.5-3.5V10a3.504 3.504 0 0 1 3.5-3.5h12a3.504 3.504 0 0 1 3.5 3.5zm5.997-1a.49.49 0 0 1-.238.424.48.48 0 0 1-.44.048l-4.32-2.745v-5.455l4.276-2.72a.5.5 0 0 1 .721.448z"/></svg>