<svg xmlns="http://www.w3.org/2000/svg" width="32" height="32" viewBox="0 0 32 32"><path d="M28.79 9.72a1.5 1.5 0 0 0-1.503-.04L23.5 12.087V10A4.505 4.505 0 0 0 19 5.5H7A4.505 4.505 0 0 0 2.5 10v12A4.505 4.505 0 0 0 7 26.5h12a4.504 4.504 0 0 0 4.5-4.5v-2.096l3.831 2.434a1.5 1.5 0 0 0 2.171-1.342V10.995a1.49 1.49 0 0 0-.712-1.275M22.5 22a3.504 3.504 0 0 1-3.5 3.5H7A3.504 3.504 0 0 1 3.5 22V10A3.504 3.504 0 0 1 7 6.5h12a3.504 3.504 0 0 1 3.5 3.5zm6.002-1.004a.49.49 0 0 1-.237.425.48.48 0 0 1-.442.048L23.5 18.72v-5.449l4.279-2.722a.5.5 0 0 1 .723.446z"/></svg>