<svg xmlns="http://www.w3.org/2000/svg" width="32" height="32" viewBox="0 0 32 32"><path d="M25 5.5H7A4.505 4.505 0 0 0 2.5 10v12A4.505 4.505 0 0 0 7 26.5h18a4.505 4.505 0 0 0 4.5-4.5V10A4.505 4.505 0 0 0 25 5.5M28.5 22a3.504 3.504 0 0 1-3.5 3.5H7A3.504 3.504 0 0 1 3.5 22V10A3.504 3.504 0 0 1 7 6.5h18a3.504 3.504 0 0 1 3.5 3.5zM16 9.5a.5.5 0 0 0-.5.5v.5a5.5 5.5 0 1 0 5.974 6H22a.5.5 0 0 0 .5-.5A6.51 6.51 0 0 0 16 9.5m0 10.975a4.488 4.488 0 0 1-.5-8.95V16a.5.5 0 0 0 .5.5h4.447A4.49 4.49 0 0 1 16 20.475m.5-4.975v-4.978a5.51 5.51 0 0 1 4.977 4.977z"/></svg>