<svg xmlns="http://www.w3.org/2000/svg" width="32" height="32" viewBox="0 0 32 32"><path d="M3.5 8A3.5 3.5 0 0 1 7 4.5h18A3.5 3.5 0 0 1 28.5 8v9a.5.5 0 0 0 1 0V8A4.5 4.5 0 0 0 25 3.5H7A4.5 4.5 0 0 0 2.5 8v12A4.5 4.5 0 0 0 7 24.5h3a.5.5 0 0 0 0-1H7A3.5 3.5 0 0 1 3.5 20zm13 6a4.5 4.5 0 1 1 6.865 3.83 10.4 10.4 0 0 1 3.21 1.479c1.65 1.148 2.925 2.845 2.925 4.941 0 .511-.068 1.059-.312 1.587-.247.534-.66 1.016-1.298 1.415-1.25.781-3.37 1.248-6.89 1.248s-5.64-.467-6.89-1.248c-.638-.399-1.051-.88-1.298-1.415-.244-.528-.312-1.076-.312-1.587 0-2.096 1.275-3.793 2.925-4.942a10.4 10.4 0 0 1 3.21-1.479A4.5 4.5 0 0 1 16.5 14m4.5-3.5a3.5 3.5 0 1 0 0 7 3.5 3.5 0 0 0 0-7m-5.003 9.629c-1.491 1.038-2.497 2.467-2.497 4.121 0 .427.057.816.22 1.167.159.344.433.683.92.987 1 .625 2.88 1.096 6.36 1.096s5.36-.47 6.36-1.096c.487-.304.761-.643.92-.987.163-.35.22-.74.22-1.167 0-1.654-1.006-3.082-2.497-4.121C24.513 19.091 22.612 18.5 21 18.5s-3.513.59-5.003 1.629"/></svg>