<svg xmlns="http://www.w3.org/2000/svg" width="32" height="32" viewBox="0 0 32 32"><path d="M25 5.25H7A4.755 4.755 0 0 0 2.25 10v12A4.756 4.756 0 0 0 7 26.75h18A4.756 4.756 0 0 0 29.75 22V10A4.755 4.755 0 0 0 25 5.25m-15.84 20a6.7 6.7 0 0 1 6.84-5.5 6.7 6.7 0 0 1 6.84 5.5zM12.75 15a3.25 3.25 0 1 1 6.5 0 3.25 3.25 0 0 1-6.5 0m15.5 7A3.254 3.254 0 0 1 25 25.25h-.646a7.89 7.89 0 0 0-5.456-6.514 4.75 4.75 0 1 0-5.796 0 7.89 7.89 0 0 0-5.456 6.514H7A3.254 3.254 0 0 1 3.75 22V10A3.254 3.254 0 0 1 7 6.75h18A3.254 3.254 0 0 1 28.25 10z"/></svg>