<svg xmlns="http://www.w3.org/2000/svg" width="32" height="32" viewBox="0 0 32 32"><path d="M13.5 21a.5.5 0 0 1-.5-.5V16H8.5a.5.5 0 0 1 0-1H13v-4.5a.5.5 0 0 1 1 0V15h4.5a.5.5 0 1 1 0 1H14v4.5a.5.5 0 0 1-.5.5M28.044 9.498a1.5 1.5 0 0 1 1.458 1.497v10a1.5 1.5 0 0 1-2.17 1.343L23.5 19.904V22a4.504 4.504 0 0 1-4.5 4.5H7A4.505 4.505 0 0 1 2.5 22V10A4.505 4.505 0 0 1 7 5.5h12a4.505 4.505 0 0 1 4.5 4.5v2.087l3.787-2.407a1.5 1.5 0 0 1 .757-.182m-6.57 14.976A3.5 3.5 0 0 0 22.5 22V10A3.504 3.504 0 0 0 19 6.5H7A3.504 3.504 0 0 0 3.5 10v12A3.504 3.504 0 0 0 7 25.5h12a3.5 3.5 0 0 0 2.474-1.026m6.965-3.234a.5.5 0 0 0 .063-.244V10.995a.5.5 0 0 0-.723-.446L23.5 13.27v5.449l4.323 2.749a.48.48 0 0 0 .442-.048.5.5 0 0 0 .174-.181"/></svg>