<svg xmlns="http://www.w3.org/2000/svg" width="32" height="32" viewBox="0 0 32 32"><path d="M7 5h18a5.006 5.006 0 0 1 5 5v12a5.006 5.006 0 0 1-5 5H7a5.006 5.006 0 0 1-5-5V10a5.006 5.006 0 0 1 5-5m1.286 2a4.4 4.4 0 0 0-3.03 1.2A4 4 0 0 0 4 11.09v9.82a4 4 0 0 0 1.257 2.89A4.4 4.4 0 0 0 8.286 25h15.428a4.4 4.4 0 0 0 3.03-1.2A4 4 0 0 0 28 20.91v-9.82a4 4 0 0 0-1.257-2.89A4.4 4.4 0 0 0 23.714 7zM22.429 9H9.57c-.946.001-1.854.337-2.524.933S6.001 11.338 6 12.182v7.636c.001.844.378 1.652 1.047 2.249.67.596 1.578.932 2.524.933H22.43c.946-.001 1.854-.337 2.524-.933s1.046-1.405 1.047-2.249v-7.636c-.001-.844-.378-1.652-1.047-2.249-.67-.596-1.578-.932-2.524-.933"/></svg>