<svg xmlns="http://www.w3.org/2000/svg" width="32" height="32" viewBox="0 0 32 32"><path d="M4 8a3 3 0 0 1 3-3h18a3 3 0 0 1 3 3v9a1 1 0 1 0 2 0V8a5 5 0 0 0-5-5H7a5 5 0 0 0-5 5v12a5 5 0 0 0 5 5h3a1 1 0 1 0 0-2H7a3 3 0 0 1-3-3zm12 6a5 5 0 1 1 8.426 3.642c.86.314 1.69.738 2.435 1.256C28.59 20.102 30 21.934 30 24.25c0 .553-.074 1.18-.359 1.797-.291.63-.773 1.183-1.487 1.63C26.781 28.534 24.541 29 21 29c-3.54 0-5.78-.465-7.155-1.324-.714-.446-1.196-1-1.487-1.63-.285-.616-.358-1.243-.358-1.796 0-2.316 1.41-4.148 3.14-5.352a10.7 10.7 0 0 1 2.434-1.256A4.99 4.99 0 0 1 16 14m5-3a3 3 0 1 0 0 6 3 3 0 0 0 0-6m-4.718 9.54C14.872 21.522 14 22.815 14 24.25c0 .384.052.695.173.957.116.25.32.516.732.773.876.548 2.636 1.02 6.095 1.02 3.46 0 5.22-.472 6.095-1.02.411-.257.617-.524.732-.773.121-.262.173-.573.173-.957 0-1.434-.87-2.727-2.282-3.71S22.505 19 21 19s-3.307.557-4.718 1.54"/></svg>