<svg xmlns="http://www.w3.org/2000/svg" width="32" height="32" viewBox="0 0 32 32"><path d="M7 5h18a5.006 5.006 0 0 1 5 5v12a5.006 5.006 0 0 1-5 5H7a5.006 5.006 0 0 1-5-5V10a5.006 5.006 0 0 1 5-5Zm1.286 2a4.396 4.396 0 0 0-3.03 1.2A4.004 4.004 0 0 0 4 11.09v9.82a4.004 4.004 0 0 0 1.257 2.89A4.397 4.397 0 0 0 8.286 25h15.428a4.397 4.397 0 0 0 3.03-1.2A4.004 4.004 0 0 0 28 20.91v-9.82a4.004 4.004 0 0 0-1.257-2.89A4.397 4.397 0 0 0 23.714 7H8.286Z"/><path d="M22.429 9H9.57c-.946.001-1.854.337-2.524.933-.67.597-1.046 1.405-1.047 2.249v7.636c.001.844.378 1.652 1.047 2.249.67.596 1.578.932 2.524.933H22.43c.946-.001 1.854-.337 2.524-.933.67-.596 1.046-1.405 1.047-2.249v-7.636c-.001-.844-.378-1.652-1.047-2.249-.67-.596-1.578-.932-2.524-.933Z"/></svg>