<svg xmlns="http://www.w3.org/2000/svg" width="32" height="32" viewBox="0 0 32 32"><path d="M25 5H7a5.006 5.006 0 0 0-5 5v12a5.006 5.006 0 0 0 5 5h18a5.006 5.006 0 0 0 5-5V10a5.006 5.006 0 0 0-5-5m3 17a3.003 3.003 0 0 1-3 3H7a3.003 3.003 0 0 1-3-3V10a3.003 3.003 0 0 1 3-3h18a3.003 3.003 0 0 1 3 3zM16 9a1 1 0 0 0-1 1v.066A5.996 5.996 0 1 0 21.906 17H22a1 1 0 0 0 1-1 7.01 7.01 0 0 0-7-7m0 10.975a3.992 3.992 0 0 1-1-7.858V16a1 1 0 0 0 1 1h3.85A3.995 3.995 0 0 1 16 19.975M17 15v-3.9a5.01 5.01 0 0 1 3.9 3.9z"/></svg>