<svg xmlns="http://www.w3.org/2000/svg" width="32" height="32" viewBox="0 0 32 32"><path d="M25 5.5H7A4.505 4.505 0 0 0 2.5 10v12A4.505 4.505 0 0 0 7 26.5h18a4.505 4.505 0 0 0 4.5-4.5V10A4.505 4.505 0 0 0 25 5.5m-16.118 20a6.91 6.91 0 0 1 7.118-6 6.91 6.91 0 0 1 7.118 6zM12.5 15a3.5 3.5 0 1 1 7 0 3.5 3.5 0 0 1-7 0m16 7a3.504 3.504 0 0 1-3.5 3.5h-.882a7.67 7.67 0 0 0-5.77-6.679 4.5 4.5 0 1 0-4.696 0 7.67 7.67 0 0 0-5.77 6.679H7A3.504 3.504 0 0 1 3.5 22V10A3.504 3.504 0 0 1 7 6.5h18a3.504 3.504 0 0 1 3.5 3.5z"/></svg>