<svg xmlns="http://www.w3.org/2000/svg" width="32" height="32" viewBox="0 0 32 32"><path d="M28.048 3.951a2.4 2.4 0 0 0-3.388 0L3.951 24.661a2.395 2.395 0 0 0 3.388 3.387L28.048 7.34a2.4 2.4 0 0 0 0-3.388m-1.06 2.328L6.277 26.988a.895.895 0 0 1-1.266-1.266L25.72 5.012a.896.896 0 0 1 1.266 1.267M7 7.75h3.25V11a.75.75 0 1 0 1.5 0V7.75H15a.75.75 0 1 0 0-1.5h-3.25V3a.75.75 0 1 0-1.5 0v3.25H7a.75.75 0 0 0 0 1.5M26 23.25h-2.25V21a.75.75 0 1 0-1.5 0v2.25H20a.75.75 0 1 0 0 1.5h2.25V27a.75.75 0 1 0 1.5 0v-2.25H26a.75.75 0 1 0 0-1.5M4.25 18a.75.75 0 0 0 1.5 0v-1.25H7a.75.75 0 1 0 0-1.5H5.75V14a.75.75 0 0 0-1.5 0v1.25H3a.75.75 0 1 0 0 1.5h1.25z"/></svg>