<svg xmlns="http://www.w3.org/2000/svg" width="32" height="32" viewBox="0 0 32 32"><path d="M12 3H6a3.003 3.003 0 0 0-3 3v6a3.003 3.003 0 0 0 3 3h6a3.003 3.003 0 0 0 3-3V6a3.003 3.003 0 0 0-3-3m1 9a1 1 0 0 1-1 1H6a1 1 0 0 1-1-1V6a1 1 0 0 1 1-1h6a1 1 0 0 1 1 1zM26 3h-6a3.003 3.003 0 0 0-3 3v6a3.003 3.003 0 0 0 3 3h6a3.003 3.003 0 0 0 3-3V6a3.003 3.003 0 0 0-3-3m1 9a1 1 0 0 1-1 1h-6a1 1 0 0 1-1-1V6a1 1 0 0 1 1-1h6a1 1 0 0 1 1 1zM26 17h-6a3.004 3.004 0 0 0-3 3v6a3.003 3.003 0 0 0 3 3h6a3.003 3.003 0 0 0 3-3v-6a3.003 3.003 0 0 0-3-3m1 9a1 1 0 0 1-1 1h-6a1 1 0 0 1-1-1v-6a1 1 0 0 1 1-1h6a1 1 0 0 1 1 1zM12 17H6a3.004 3.004 0 0 0-3 3v6a3.003 3.003 0 0 0 3 3h6a3.003 3.003 0 0 0 3-3v-6a3.003 3.003 0 0 0-3-3m1 9a1 1 0 0 1-1 1H6a1 1 0 0 1-1-1v-6a1 1 0 0 1 1-1h6a1 1 0 0 1 1 1z"/></svg>