<svg xmlns="http://www.w3.org/2000/svg" width="32" height="32" viewBox="0 0 32 32"><path d="M26 17.5H6A2.503 2.503 0 0 0 3.5 20v4A2.503 2.503 0 0 0 6 26.5h20a2.502 2.502 0 0 0 2.5-2.5v-4a2.502 2.502 0 0 0-2.5-2.5Zm1.5 6.5a1.502 1.502 0 0 1-1.5 1.5H6A1.502 1.502 0 0 1 4.5 24v-4A1.501 1.501 0 0 1 6 18.5h20a1.502 1.502 0 0 1 1.5 1.5v4ZM26 5.5H6A2.503 2.503 0 0 0 3.5 8v4A2.503 2.503 0 0 0 6 14.5h20a2.502 2.502 0 0 0 2.5-2.5V8A2.502 2.502 0 0 0 26 5.5Zm1.5 6.5a1.502 1.502 0 0 1-1.5 1.5H6A1.502 1.502 0 0 1 4.5 12V8A1.502 1.502 0 0 1 6 6.5h20A1.502 1.502 0 0 1 27.5 8v4Z"/></svg>