<svg xmlns="http://www.w3.org/2000/svg" width="32" height="32" viewBox="0 0 32 32"><path d="M26 17.25H6A2.753 2.753 0 0 0 3.25 20v4A2.753 2.753 0 0 0 6 26.75h20A2.753 2.753 0 0 0 28.75 24v-4A2.753 2.753 0 0 0 26 17.25M27.25 24A1.25 1.25 0 0 1 26 25.25H6A1.25 1.25 0 0 1 4.75 24v-4A1.25 1.25 0 0 1 6 18.75h20A1.25 1.25 0 0 1 27.25 20zM26 5.25H6A2.753 2.753 0 0 0 3.25 8v4A2.753 2.753 0 0 0 6 14.75h20A2.753 2.753 0 0 0 28.75 12V8A2.75 2.75 0 0 0 26 5.25M27.25 12A1.25 1.25 0 0 1 26 13.25H6A1.25 1.25 0 0 1 4.75 12V8A1.25 1.25 0 0 1 6 6.75h20A1.25 1.25 0 0 1 27.25 8z"/></svg>