<svg xmlns="http://www.w3.org/2000/svg" width="32" height="32" viewBox="0 0 32 32"><path d="M25 5.255H15a3.755 3.755 0 0 0-3.75 3.75v.245H11A3.755 3.755 0 0 0 7.25 13v1.25H5.993A3.755 3.755 0 0 0 2.243 18v6a3.755 3.755 0 0 0 3.75 3.75H16A3.755 3.755 0 0 0 19.75 24v-1.25H21A3.755 3.755 0 0 0 24.75 19v-.245H25a3.755 3.755 0 0 0 3.75-3.75v-6A3.755 3.755 0 0 0 25 5.255M18.25 24A2.253 2.253 0 0 1 16 26.25H5.993A2.253 2.253 0 0 1 3.743 24v-6a2.253 2.253 0 0 1 2.25-2.25H16A2.253 2.253 0 0 1 18.25 18zm5-5A2.253 2.253 0 0 1 21 21.25h-1.25V18A3.754 3.754 0 0 0 16 14.25H8.75V13A2.253 2.253 0 0 1 11 10.75h10A2.253 2.253 0 0 1 23.25 13zm4-3.995a2.253 2.253 0 0 1-2.25 2.25h-.25V13A3.754 3.754 0 0 0 21 9.25h-8.25v-.245A2.253 2.253 0 0 1 15 6.755h10a2.253 2.253 0 0 1 2.25 2.25z"/></svg>