<svg xmlns="http://www.w3.org/2000/svg" width="32" height="32" viewBox="0 0 32 32"><path d="M12 3.25H6A2.753 2.753 0 0 0 3.25 6v6A2.753 2.753 0 0 0 6 14.75h6A2.753 2.753 0 0 0 14.75 12V6A2.75 2.75 0 0 0 12 3.25M13.25 12A1.25 1.25 0 0 1 12 13.25H6A1.25 1.25 0 0 1 4.75 12V6A1.25 1.25 0 0 1 6 4.75h6A1.25 1.25 0 0 1 13.25 6zM26 3.25h-6A2.753 2.753 0 0 0 17.25 6v6A2.753 2.753 0 0 0 20 14.75h6A2.753 2.753 0 0 0 28.75 12V6A2.75 2.75 0 0 0 26 3.25M27.25 12A1.25 1.25 0 0 1 26 13.25h-6A1.25 1.25 0 0 1 18.75 12V6A1.25 1.25 0 0 1 20 4.75h6A1.25 1.25 0 0 1 27.25 6zM26 17.25h-6A2.753 2.753 0 0 0 17.25 20v6A2.753 2.753 0 0 0 20 28.75h6A2.753 2.753 0 0 0 28.75 26v-6A2.753 2.753 0 0 0 26 17.25M27.25 26A1.25 1.25 0 0 1 26 27.25h-6A1.25 1.25 0 0 1 18.75 26v-6A1.25 1.25 0 0 1 20 18.75h6A1.25 1.25 0 0 1 27.25 20zM12 17.25H6A2.753 2.753 0 0 0 3.25 20v6A2.753 2.753 0 0 0 6 28.75h6A2.753 2.753 0 0 0 14.75 26v-6A2.753 2.753 0 0 0 12 17.25M13.25 26A1.25 1.25 0 0 1 12 27.25H6A1.25 1.25 0 0 1 4.75 26v-6A1.25 1.25 0 0 1 6 18.75h6A1.25 1.25 0 0 1 13.25 20z"/></svg>