<svg xmlns="http://www.w3.org/2000/svg" width="32" height="32" viewBox="0 0 32 32"><path d="M12 3.5H6A2.5 2.5 0 0 0 3.5 6v6A2.5 2.5 0 0 0 6 14.5h6a2.5 2.5 0 0 0 2.5-2.5V6A2.5 2.5 0 0 0 12 3.5m1.5 8.5a1.5 1.5 0 0 1-1.5 1.5H6A1.5 1.5 0 0 1 4.5 12V6A1.5 1.5 0 0 1 6 4.5h6A1.5 1.5 0 0 1 13.5 6zM26 3.5h-6A2.5 2.5 0 0 0 17.5 6v6a2.5 2.5 0 0 0 2.5 2.5h6a2.5 2.5 0 0 0 2.5-2.5V6A2.5 2.5 0 0 0 26 3.5m1.5 8.5a1.5 1.5 0 0 1-1.5 1.5h-6a1.5 1.5 0 0 1-1.5-1.5V6A1.5 1.5 0 0 1 20 4.5h6A1.5 1.5 0 0 1 27.5 6zM26 17.5h-6a2.503 2.503 0 0 0-2.5 2.5v6a2.5 2.5 0 0 0 2.5 2.5h6a2.5 2.5 0 0 0 2.5-2.5v-6a2.5 2.5 0 0 0-2.5-2.5m1.5 8.5a1.5 1.5 0 0 1-1.5 1.5h-6a1.5 1.5 0 0 1-1.5-1.5v-6a1.5 1.5 0 0 1 1.5-1.5h6a1.5 1.5 0 0 1 1.5 1.5zM12 17.5H6A2.503 2.503 0 0 0 3.5 20v6A2.5 2.5 0 0 0 6 28.5h6a2.5 2.5 0 0 0 2.5-2.5v-6a2.5 2.5 0 0 0-2.5-2.5m1.5 8.5a1.5 1.5 0 0 1-1.5 1.5H6A1.5 1.5 0 0 1 4.5 26v-6A1.5 1.5 0 0 1 6 18.5h6a1.5 1.5 0 0 1 1.5 1.5z"/></svg>