<svg xmlns="http://www.w3.org/2000/svg" width="32" height="32" viewBox="0 0 32 32"><path d="M25.006 5.005h-10a4.004 4.004 0 0 0-4 3.995 4.005 4.005 0 0 0-4 4v1H6a4.004 4.004 0 0 0-4 4v6a4.004 4.004 0 0 0 4 4h10.006a4.005 4.005 0 0 0 4-4v-1h1a4.004 4.004 0 0 0 4-3.995 4.005 4.005 0 0 0 4-4v-6a4.004 4.004 0 0 0-4-4m-7 18.995a2.003 2.003 0 0 1-2 2H6a2.003 2.003 0 0 1-2-2v-6a2.003 2.003 0 0 1 2-2h10.006a2.003 2.003 0 0 1 2 2zm5-5a2.003 2.003 0 0 1-2 2h-1v-3a4.005 4.005 0 0 0-4-4h-7v-1a2.003 2.003 0 0 1 2-2h10a2.003 2.003 0 0 1 2 2zm4-3.995a2.003 2.003 0 0 1-2 2V13a4.005 4.005 0 0 0-4-4h-8a2 2 0 0 1 2-1.995h10a2.003 2.003 0 0 1 2 2z"/></svg>