<svg xmlns="http://www.w3.org/2000/svg" width="32" height="32" viewBox="0 0 32 32"><path d="M25 5.505H15a3.504 3.504 0 0 0-3.5 3.5V9.5H11A3.504 3.504 0 0 0 7.5 13v1.5H5.993a3.504 3.504 0 0 0-3.5 3.5v6a3.504 3.504 0 0 0 3.5 3.5H16a3.504 3.504 0 0 0 3.5-3.5v-1.5H21a3.504 3.504 0 0 0 3.5-3.5v-.495h.5a3.504 3.504 0 0 0 3.5-3.5v-6a3.504 3.504 0 0 0-3.5-3.5M18.5 24a2.5 2.5 0 0 1-2.5 2.5H5.993a2.5 2.5 0 0 1-2.5-2.5v-6a2.5 2.5 0 0 1 2.5-2.5H16a2.5 2.5 0 0 1 2.5 2.5zm5-5a2.5 2.5 0 0 1-2.5 2.5h-1.5V18a3.504 3.504 0 0 0-3.5-3.5H8.5V13a2.5 2.5 0 0 1 2.5-2.5h10a2.5 2.5 0 0 1 2.5 2.5zm4-3.995a2.5 2.5 0 0 1-2.5 2.5h-.5V13A3.504 3.504 0 0 0 21 9.5h-8.5v-.495a2.5 2.5 0 0 1 2.5-2.5h10a2.5 2.5 0 0 1 2.5 2.5z"/></svg>