<svg xmlns="http://www.w3.org/2000/svg" width="32" height="32" viewBox="0 0 32 32"><path d="M26 17.5H6A2.503 2.503 0 0 0 3.5 20v4A2.503 2.503 0 0 0 6 26.5h20a2.5 2.5 0 0 0 2.5-2.5v-4a2.5 2.5 0 0 0-2.5-2.5m1.5 6.5a1.5 1.5 0 0 1-1.5 1.5H6A1.5 1.5 0 0 1 4.5 24v-4A1.5 1.5 0 0 1 6 18.5h20a1.5 1.5 0 0 1 1.5 1.5zM26 5.5H6A2.503 2.503 0 0 0 3.5 8v4A2.503 2.503 0 0 0 6 14.5h20a2.5 2.5 0 0 0 2.5-2.5V8A2.5 2.5 0 0 0 26 5.5m1.5 6.5a1.5 1.5 0 0 1-1.5 1.5H6A1.5 1.5 0 0 1 4.5 12V8A1.5 1.5 0 0 1 6 6.5h20A1.5 1.5 0 0 1 27.5 8z"/></svg>