<svg xmlns="http://www.w3.org/2000/svg" width="32" height="32" viewBox="0 0 32 32"><path d="M13.862 9.563c-1.203.064-2.599.191-3.505.433-.743.197-1.898.568-2.976 1.19-1.083.627-2.033 1.474-2.457 2.602-1.014 2.7-.007 5.255.918 6.733.44.701 1.304 1.61 2.57 1.891 1.243.276 3.012-.022 5.34-2.006.75-.64 1.466-1.04 2.248-1.04s1.498.4 2.248 1.04c2.328 1.984 4.097 2.282 5.34 2.006 1.266-.281 2.13-1.19 2.57-1.891.925-1.478 1.932-4.033.918-6.733-.424-1.128-1.374-1.976-2.457-2.601-1.078-.623-2.233-.994-2.976-1.191-.906-.242-2.302-.369-3.505-.433a47 47 0 0 0-2.096-.063h-.083a26 26 0 0 0-.58.008c-.387.008-.922.024-1.517.055M16 9v-.5h.046a27 27 0 0 1 .596.008c.394.008.941.024 1.55.057 1.201.064 2.691.193 3.709.464.783.209 2.032.607 3.218 1.292 1.18.682 2.354 1.68 2.893 3.115 1.172 3.122-.007 6.019-1.007 7.616-.523.836-1.583 1.977-3.201 2.336-1.643.365-3.723-.106-6.204-2.221-.692-.59-1.178-.802-1.6-.802s-.908.213-1.6.802c-2.482 2.115-4.56 2.586-6.204 2.221-1.618-.36-2.678-1.5-3.201-2.336-1-1.597-2.18-4.494-1.007-7.616.54-1.434 1.712-2.433 2.893-3.115 1.185-.685 2.435-1.083 3.218-1.292 1.018-.27 2.508-.4 3.71-.464a48 48 0 0 1 2.145-.065H16z"/></svg>