<svg xmlns="http://www.w3.org/2000/svg" width="32" height="32" viewBox="0 0 32 32"><path d="M10.485 10.479c.851-.227 2.2-.352 3.404-.416A46 46 0 0 1 15.96 10h.078a23 23 0 0 1 .572.008c.383.008.913.023 1.5.055 1.203.064 2.553.19 3.404.416a1 1 0 1 0 .514-1.933c-1.073-.286-2.61-.416-3.811-.48A49 49 0 0 0 16.048 8h-.096a29 29 0 0 0-.604.008 49 49 0 0 0-1.566.057c-1.201.065-2.738.195-3.812.481-.803.214-2.1.626-3.34 1.342-1.228.71-2.513 1.784-3.11 3.372-1.252 3.333.014 6.401 1.051 8.057.566.904 1.723 2.161 3.517 2.56 1.844.409 4.078-.149 6.637-2.33.662-.564 1.033-.682 1.275-.682s.613.118 1.275.682c2.748 2.342 5.118 2.806 7.015 2.23a1 1 0 1 0-.58-1.914c-1.048.318-2.728.215-5.138-1.838-.779-.664-1.61-1.16-2.572-1.16s-1.793.496-2.572 1.16c-2.252 1.919-3.865 2.13-4.907 1.899-1.091-.242-1.858-1.035-2.255-1.668-.888-1.42-1.809-3.803-.874-6.292.367-.975 1.205-1.747 2.24-2.344 1.023-.592 2.131-.949 2.853-1.141m13.222.814a1 1 0 0 1 0 1.414l-.294.294H28a1 1 0 0 1 0 2h-4.585l.292.292a1 1 0 0 1-1.414 1.414l-2-1.999a1 1 0 0 1 0-1.414l2-2a1 1 0 0 1 1.414-.001m4 5a1 1 0 0 0-1.415 1.414l.293.293H22a1 1 0 1 0 0 2h4.586l-.293.293a1 1 0 0 0 1.414 1.414l1.962-1.964a1 1 0 0 0 0-1.486z"/></svg>