<svg xmlns="http://www.w3.org/2000/svg" width="32" height="32" viewBox="0 0 32 32"><path d="M13.889 10.063c-1.203.064-2.553.19-3.404.416-.722.192-1.83.55-2.854 1.14-1.034.598-1.872 1.37-2.239 2.345-.935 2.489-.014 4.873.874 6.292.397.633 1.164 1.425 2.255 1.668 1.042.231 2.655.02 4.906-1.899.78-.664 1.611-1.16 2.573-1.16s1.793.496 2.572 1.16c2.252 1.919 3.865 2.13 4.907 1.899 1.091-.242 1.858-1.035 2.255-1.668.888-1.42 1.808-3.803.873-6.292-.366-.975-1.204-1.747-2.238-2.344-1.024-.592-2.132-.949-2.854-1.141-.851-.227-2.2-.352-3.404-.416A47 47 0 0 0 16.04 10H16m0-2h.048a29 29 0 0 1 .604.008c.398.008.95.025 1.566.057 1.201.065 2.738.195 3.811.481.804.214 2.1.626 3.34 1.342 1.23.71 2.514 1.784 3.11 3.372 1.253 3.333-.013 6.401-1.05 8.057-.566.904-1.723 2.161-3.517 2.56-1.844.409-4.078-.149-6.637-2.33-.662-.564-1.033-.682-1.275-.682s-.614.118-1.275.682c-2.559 2.181-4.793 2.739-6.637 2.33-1.794-.399-2.951-1.656-3.517-2.56-1.037-1.656-2.303-4.724-1.05-8.057.596-1.588 1.88-2.662 3.11-3.372 1.24-.716 2.536-1.128 3.34-1.342 1.073-.286 2.61-.416 3.811-.48A49 49 0 0 1 15.952 8H16m0 2h-.039a23 23 0 0 0-.572.008c-.383.008-.912.023-1.5.055"/></svg>