<svg xmlns="http://www.w3.org/2000/svg" width="32" height="32" viewBox="0 0 32 32"><path d="M10.421 10.237c.879-.234 2.252-.36 3.455-.424a47 47 0 0 1 2.084-.063h.08a25 25 0 0 1 .576.008c.385.008.918.024 1.509.055 1.203.064 2.575.19 3.454.424a.75.75 0 0 0 .386-1.45c-1.045-.278-2.558-.408-3.76-.472a48 48 0 0 0-2.158-.065h-.046V9v-.75h-.048a27 27 0 0 0-.6.008c-.396.008-.946.025-1.557.057-1.202.064-2.716.194-3.761.473-.793.211-2.066.616-3.279 1.316-1.205.696-2.434 1.733-3.001 3.244-1.213 3.227.01 6.21 1.028 7.836.545.87 1.653 2.07 3.36 2.448 1.743.387 3.9-.127 6.42-2.275.676-.576 1.105-.742 1.437-.742s.761.166 1.438.742c2.705 2.306 4.989 2.724 6.78 2.18a.75.75 0 0 0-.436-1.434c-1.153.35-2.92.202-5.372-1.888-.764-.651-1.538-1.1-2.41-1.1-.871 0-1.646.449-2.41 1.1-2.29 1.952-3.98 2.206-5.123 1.953-1.18-.262-1.995-1.112-2.413-1.78-.906-1.448-1.87-3.918-.895-6.512.395-1.051 1.288-1.861 2.347-2.473 1.051-.607 2.183-.97 2.915-1.166m13.11 1.233a.75.75 0 0 1 0 1.06l-.72.721H28a.75.75 0 0 1 0 1.5h-5.19l.72.719a.75.75 0 0 1-1.061 1.06l-2-1.999a.75.75 0 0 1 0-1.06l2-2.001a.75.75 0 0 1 1.06 0m4 5a.75.75 0 0 0-1.061 1.06l.719.72H22a.75.75 0 0 0 0 1.5h5.189l-.72.72a.75.75 0 0 0 1.062 1.06l1.967-1.969a.748.748 0 0 0 0-1.122z"/></svg>