<svg xmlns="http://www.w3.org/2000/svg" width="32" height="32" viewBox="0 0 32 32"><path d="M10.357 9.996c.906-.242 2.302-.369 3.505-.433A47 47 0 0 1 15.96 9.5h.083a26 26 0 0 1 .58.008c.386.008.921.024 1.516.055 1.203.064 2.599.191 3.505.433a.5.5 0 0 0 .258-.967c-1.018-.27-2.508-.4-3.71-.464a48 48 0 0 0-2.145-.065H16V9L16 8.5h-.046a27 27 0 0 0-.596.008c-.394.008-.941.024-1.549.057-1.202.064-2.692.193-3.71.464-.783.209-2.033.607-3.218 1.292-1.18.682-2.354 1.68-2.893 3.115-1.173 3.122.007 6.019 1.007 7.616.523.836 1.583 1.977 3.201 2.336 1.643.365 3.723-.106 6.204-2.221.692-.59 1.178-.802 1.6-.802s.908.213 1.6.802c2.663 2.27 4.86 2.643 6.545 2.132a.5.5 0 0 0-.29-.957c-1.26.382-3.113.19-5.607-1.936-.75-.64-1.466-1.04-2.248-1.04s-1.498.4-2.248 1.04c-2.328 1.984-4.097 2.282-5.34 2.006-1.266-.281-2.13-1.19-2.57-1.891-.925-1.478-1.932-4.033-.918-6.733.424-1.128 1.374-1.976 2.457-2.601 1.078-.623 2.233-.994 2.976-1.191m12.996 1.65a.5.5 0 0 1 0 .707l-1.146 1.148H28a.5.5 0 1 1 0 1h-5.792l1.145 1.145a.5.5 0 1 1-.707.708l-2-2a.5.5 0 0 1 0-.706l2-2.001a.5.5 0 0 1 .707 0m4 5a.5.5 0 0 0-.707.707l1.146 1.147H22a.5.5 0 1 0 0 1h5.792l-1.146 1.147a.5.5 0 1 0 .708.706l1.972-1.974a.5.5 0 0 0 0-.758z"/></svg>