<svg xmlns="http://www.w3.org/2000/svg" width="32" height="32" viewBox="0 0 32 32"><path d="M13.876 9.813c-1.203.064-2.576.19-3.455.424-.732.195-1.864.56-2.915 1.166-1.059.612-1.952 1.422-2.347 2.473-.975 2.594-.011 5.064.895 6.512.418.668 1.234 1.518 2.413 1.78 1.142.253 2.833-.001 5.123-1.953.764-.651 1.539-1.1 2.41-1.1s1.646.449 2.41 1.1c1.722 1.468 3.105 1.972 4.155 2.03 1.041.056 1.855-.32 2.461-.816a.75.75 0 0 1 .948 1.163c-.836.682-2.006 1.231-3.49 1.15-1.475-.08-3.16-.777-5.047-2.385-.676-.576-1.105-.742-1.437-.742s-.76.166-1.437.742c-2.52 2.148-4.677 2.662-6.42 2.275-1.707-.379-2.815-1.578-3.36-2.448-1.018-1.626-2.24-4.609-1.028-7.836.567-1.511 1.796-2.548 3.001-3.244 1.213-.7 2.486-1.105 3.279-1.316 1.045-.279 2.559-.409 3.76-.473a48 48 0 0 1 2.158-.065H16L16 9v-.75h.047a27 27 0 0 1 .6.008c.397.008.946.025 1.558.057 1.202.064 2.715.194 3.76.473.595.158 1.452.423 2.349.836a.75.75 0 0 1-.628 1.363 13.3 13.3 0 0 0-2.107-.75c-.879-.234-2.251-.36-3.454-.424a47 47 0 0 0-2.084-.063h-.081a25 25 0 0 0-.576.008c-.385.008-.917.024-1.508.055m11.593 2.656a.75.75 0 0 0 0 1.061l1.72 1.721H20a.75.75 0 0 0 0 1.5h7.188l-1.72 1.719a.75.75 0 1 0 1.062 1.06l2.999-2.999a.75.75 0 0 0 0-1.06l-3-3.001a.75.75 0 0 0-1.06 0"/></svg>