<svg xmlns="http://www.w3.org/2000/svg" width="32" height="32" viewBox="0 0 32 32"><path d="M16.001 8h.048a29 29 0 0 1 .604.008c.399.008.95.025 1.566.057 1.201.065 2.738.195 3.811.481.804.214 2.1.626 3.34 1.342 1.23.71 2.514 1.784 3.11 3.372 1.253 3.333-.013 6.401-1.05 8.057-.566.904-1.723 2.161-3.517 2.56-1.844.409-4.078-.149-6.637-2.33-.662-.564-1.033-.682-1.275-.682s-.614.118-1.275.682c-2.559 2.181-4.793 2.739-6.637 2.33-1.794-.399-2.951-1.656-3.517-2.56-1.037-1.656-2.303-4.724-1.05-8.057.596-1.588 1.88-2.662 3.11-3.372 1.24-.716 2.536-1.128 3.34-1.342 1.073-.286 2.61-.416 3.811-.48A49 49 0 0 1 15.953 8h.048m7.705 4.293a1 1 0 0 0-1.414 0l-3 3.001a1 1 0 0 0 0 1.414l3 3a1 1 0 0 0 1.414-1.415L22.414 17h4.584a1 1 0 1 0 0-2h-4.585l1.293-1.294a1 1 0 0 0 0-1.414"/></svg>