<svg xmlns="http://www.w3.org/2000/svg" width="32" height="32" viewBox="0 0 32 32"><path d="M13.889 10.063c-1.203.064-2.553.19-3.404.416-.722.192-1.83.55-2.854 1.14-1.034.598-1.872 1.37-2.239 2.345-.935 2.489-.014 4.873.874 6.292.397.633 1.164 1.425 2.255 1.668 1.042.231 2.655.02 4.906-1.899.78-.664 1.611-1.16 2.573-1.16s1.793.496 2.572 1.16c1.694 1.444 3.027 1.916 4.006 1.97.968.052 1.722-.296 2.29-.76a1 1 0 1 1 1.264 1.55c-.874.714-2.104 1.292-3.662 1.207-1.546-.085-3.28-.813-5.195-2.445-.662-.564-1.033-.682-1.275-.682s-.614.118-1.275.682c-2.559 2.181-4.793 2.739-6.637 2.33-1.794-.399-2.951-1.656-3.517-2.56-1.037-1.656-2.303-4.724-1.05-8.057.596-1.588 1.88-2.662 3.11-3.372 1.24-.716 2.536-1.128 3.34-1.342 1.073-.286 2.61-.416 3.811-.48A49 49 0 0 1 15.952 8h.096a29 29 0 0 1 .604.008c.398.008.95.025 1.566.057 1.201.065 2.738.195 3.811.481.604.16 1.475.43 2.39.851a1 1 0 0 1-.837 1.817 13 13 0 0 0-2.067-.735c-.851-.227-2.2-.352-3.404-.416A47 47 0 0 0 16.04 10h-.078a23 23 0 0 0-.572.008c-.383.008-.912.023-1.5.055m11.403 2.23a1 1 0 0 0 0 1.414L26.585 15H20a1 1 0 1 0 0 2h6.584l-1.292 1.292a1 1 0 1 0 1.414 1.414l3-2.999a1 1 0 0 0 0-1.414l-3-3a1 1 0 0 0-1.414-.001"/></svg>