<svg xmlns="http://www.w3.org/2000/svg" width="32" height="32" viewBox="0 0 32 32"><path d="M21 12.5a3.494 3.494 0 0 0-2.442 6h-5.116a3.495 3.495 0 1 0-2.442 1h10a3.5 3.5 0 1 0 0-7M8.5 16a2.5 2.5 0 1 1 5 0 2.5 2.5 0 0 1-5 0M21 18.5a2.5 2.5 0 1 1 0-5 2.5 2.5 0 0 1 0 5M25 6.5H7A4.505 4.505 0 0 0 2.5 11v10A4.505 4.505 0 0 0 7 25.5h18a4.504 4.504 0 0 0 4.5-4.5V11A4.505 4.505 0 0 0 25 6.5M28.5 21a3.504 3.504 0 0 1-3.5 3.5H7A3.504 3.504 0 0 1 3.5 21V11A3.504 3.504 0 0 1 7 7.5h18a3.504 3.504 0 0 1 3.5 3.5z"/></svg>