<svg xmlns="http://www.w3.org/2000/svg" width="32" height="32" viewBox="0 0 32 32"><path d="M21 12.25A3.755 3.755 0 0 0 17.25 16c.003.814.273 1.605.77 2.25h-4.04a3.71 3.71 0 0 0 .138-4.333A3.75 3.75 0 1 0 11 19.75h10a3.75 3.75 0 0 0 0-7.5M8.75 16a2.25 2.25 0 1 1 4.5 0 2.25 2.25 0 0 1-4.5 0M21 18.25a2.25 2.25 0 1 1 0-4.5 2.25 2.25 0 0 1 0 4.5M25 6.25H7A4.755 4.755 0 0 0 2.25 11v10A4.756 4.756 0 0 0 7 25.75h18A4.755 4.755 0 0 0 29.75 21V11A4.755 4.755 0 0 0 25 6.25M28.25 21A3.254 3.254 0 0 1 25 24.25H7A3.254 3.254 0 0 1 3.75 21V11A3.254 3.254 0 0 1 7 7.75h18A3.254 3.254 0 0 1 28.25 11z"/></svg>