<svg xmlns="http://www.w3.org/2000/svg" width="32" height="32" viewBox="0 0 32 32"><path d="M15.428 3.785c-6.628 0-12 5.373-12 12 0 6.182 4.674 11.272 10.68 11.929a1 1 0 1 1-.217 1.988c-7.01-.766-12.463-6.704-12.463-13.917 0-7.732 6.268-14 14-14 6.315 0 11.652 4.181 13.397 9.924a1 1 0 0 1-1.914.582c-1.496-4.924-6.073-8.506-11.483-8.506M21 17.193a2.193 2.193 0 1 1 4.387 0 2.193 2.193 0 0 1-4.387 0M23.193 13a4.193 4.193 0 0 0-2.675 7.423C17.91 21.345 16 23.678 16 26.51c0 .752.35 1.363.827 1.816.462.438 1.068.757 1.702.99 1.27.47 2.897.685 4.47.685 1.575 0 3.201-.215 4.472-.684.634-.234 1.24-.553 1.701-.991.478-.453.828-1.064.828-1.816 0-2.735-1.783-5.006-4.256-5.987A4.193 4.193 0 0 0 23.193 13M18 26.51c0-2.412 2.156-4.51 5-4.51s5 2.098 5 4.51c0 .078-.025.194-.204.364-.194.184-.526.384-1.017.565-.98.361-2.353.561-3.78.561-1.425 0-2.799-.2-3.778-.56-.491-.182-.823-.382-1.017-.566-.18-.17-.204-.286-.204-.365M14.428 7.784a1 1 0 1 1 2 0v8a1 1 0 0 1-.293.707l-5 5a1 1 0 0 1-1.415-1.414l4.708-4.707z"/></svg>