<svg xmlns="http://www.w3.org/2000/svg" width="32" height="32" viewBox="0 0 32 32"><path d="M15.428 3.535c-6.766 0-12.25 5.485-12.25 12.25 0 6.31 4.772 11.507 10.903 12.177a.75.75 0 0 1-.162 1.491C7.034 28.701 1.678 22.87 1.678 15.785c0-7.594 6.156-13.75 13.75-13.75 6.202 0 11.444 4.106 13.158 9.747a.75.75 0 0 1-1.435.436c-1.528-5.026-6.2-8.683-11.723-8.683m5.322 13.658a2.443 2.443 0 1 1 4.887 0 2.443 2.443 0 0 1-4.887 0m2.443-3.943a3.943 3.943 0 0 0-2.13 7.263c-2.754.765-4.813 3.123-4.813 5.996 0 .668.31 1.217.75 1.634.428.407 1 .71 1.615.938 1.235.456 2.83.669 4.385.669s3.15-.213 4.384-.669c.616-.227 1.188-.531 1.616-.938.44-.417.75-.966.75-1.634 0-2.782-1.93-5.08-4.553-5.918a3.943 3.943 0 0 0-2.004-7.34M17.75 26.51c0-2.57 2.288-4.76 5.25-4.76 2.961 0 5.25 2.19 5.25 4.76 0 .162-.066.34-.282.545-.228.216-.594.43-1.103.619-1.015.374-2.42.576-3.865.576s-2.85-.202-3.866-.576c-.509-.188-.875-.403-1.102-.619-.217-.205-.282-.383-.282-.546M14.678 7.784a.75.75 0 0 1 1.5 0v8a.75.75 0 0 1-.22.53l-5 5a.75.75 0 1 1-1.06-1.06l4.78-4.78z"/></svg>