<svg xmlns="http://www.w3.org/2000/svg" width="32" height="32" viewBox="0 0 32 32"><path d="M15.428 3.785c-6.627 0-12 5.373-12 12 0 6.181 4.675 11.272 10.68 11.929a1 1 0 1 1-.216 1.988c-7.01-.766-12.464-6.704-12.464-13.917 0-7.732 6.268-14 14-14 6.316 0 11.652 4.181 13.397 9.924a1 1 0 1 1-1.913.582c-1.497-4.924-6.073-8.506-11.484-8.506ZM21 17.193a2.193 2.193 0 1 1 4.387 0 2.193 2.193 0 0 1-4.387 0ZM23.193 13a4.193 4.193 0 0 0-2.674 7.423C17.91 21.345 16 23.678 16 26.51c0 .752.35 1.363.827 1.816.462.438 1.068.757 1.702.99 1.27.47 2.897.685 4.471.685 1.574 0 3.2-.215 4.471-.684.634-.234 1.24-.553 1.702-.991.477-.453.827-1.064.827-1.816 0-2.735-1.783-5.006-4.255-5.987A4.193 4.193 0 0 0 23.194 13ZM18 26.51c0-2.412 2.156-4.51 5-4.51s5 2.098 5 4.51c0 .078-.025.194-.204.364-.194.184-.526.384-1.017.565-.98.361-2.353.561-3.779.561-1.426 0-2.8-.2-3.779-.56-.491-.182-.823-.382-1.017-.566-.179-.17-.204-.286-.204-.365ZM14.428 7.784a1 1 0 1 1 2 0v8a1 1 0 0 1-.293.707l-5 5a1 1 0 1 1-1.414-1.414l4.707-4.707V7.785Z"/></svg>