<svg xmlns="http://www.w3.org/2000/svg" width="32" height="32" viewBox="0 0 32 32"><path d="M15.428 3.285c-6.904 0-12.5 5.597-12.5 12.5 0 6.44 4.87 11.742 11.126 12.426a.5.5 0 1 1-.108.994c-6.76-.739-12.018-6.465-12.018-13.42 0-7.456 6.044-13.5 13.5-13.5 6.09 0 11.236 4.031 12.918 9.57a.5.5 0 0 1-.956.29c-1.559-5.128-6.325-8.86-11.962-8.86M20.5 17.193a2.693 2.693 0 1 1 5.387 0 2.693 2.693 0 0 1-5.387 0m2.693-3.693a3.693 3.693 0 0 0-1.414 7.106c-2.98.526-5.28 2.94-5.28 5.903 0 .584.27 1.07.672 1.453.395.375.933.664 1.53.884 1.199.442 2.762.654 4.299.654s3.1-.212 4.298-.654c.598-.22 1.135-.51 1.53-.884.403-.382.672-.87.672-1.453 0-2.877-2.167-5.236-5.021-5.852a3.695 3.695 0 0 0-1.286-7.157M17.5 26.51c0-2.728 2.42-5.01 5.5-5.01s5.5 2.282 5.5 5.01c0 .246-.107.486-.36.726-.261.248-.661.478-1.188.672-1.052.388-2.49.592-3.952.592-1.463 0-2.9-.204-3.952-.592-.527-.194-.927-.424-1.188-.672-.254-.24-.36-.48-.36-.727M14.928 7.784a.5.5 0 1 1 1 0v8a.5.5 0 0 1-.147.354l-5 5a.5.5 0 1 1-.707-.707l4.854-4.854z"/></svg>