<svg xmlns="http://www.w3.org/2000/svg" width="32" height="32" viewBox="0 0 32 32"><path d="M24.667 4.5H7.333A4.838 4.838 0 0 0 2.5 9.333v13.332A4.84 4.84 0 0 0 7.333 27.5h17.334a4.839 4.839 0 0 0 4.833-4.834V9.333A4.839 4.839 0 0 0 24.667 4.5ZM3.548 23.14l5.361-6.267a3.492 3.492 0 0 1 2.643-1.37 3.586 3.586 0 0 1 2.748 1.166l9.213 9.83H7.333a3.826 3.826 0 0 1-3.785-3.358Zm24.952-.475a3.829 3.829 0 0 1-3.635 3.814l-9.828-10.486a4.499 4.499 0 0 0-6.905.252L3.5 21.658V9.334A3.838 3.838 0 0 1 7.333 5.5h17.334A3.838 3.838 0 0 1 28.5 9.333v13.332Z"/><path d="M21.5 9.5a3 3 0 1 0 0 6 3 3 0 0 0 0-6Zm0 5a2 2 0 1 1 0-3.999 2 2 0 0 1 0 4Z"/></svg>