<svg xmlns="http://www.w3.org/2000/svg" width="32" height="32" viewBox="0 0 32 32"><path d="M24.667 4H7.333A5.34 5.34 0 0 0 2 9.333v13.332A5.34 5.34 0 0 0 7.333 28h17.334A5.34 5.34 0 0 0 30 22.665V9.333A5.34 5.34 0 0 0 24.667 4ZM4.065 23.306l5.24-6.129a3.001 3.001 0 0 1 4.63-.166L22.36 26H7.333a3.337 3.337 0 0 1-3.268-2.693ZM28 22.666a3.327 3.327 0 0 1-2.938 3.293l-9.653-10.3a5 5 0 0 0-7.657.26L4 20.305V9.333A3.337 3.337 0 0 1 7.333 6h17.334A3.337 3.337 0 0 1 28 9.333v13.332Z"/><path d="M21.5 9a3.5 3.5 0 1 0 0 7 3.5 3.5 0 0 0 0-7Zm0 5a1.5 1.5 0 1 1 0-3 1.5 1.5 0 0 1 0 3Z"/></svg>