<svg xmlns="http://www.w3.org/2000/svg" width="32" height="32" viewBox="0 0 32 32"><path d="M24.667 4.25H7.333A5.089 5.089 0 0 0 2.25 9.333v13.332a5.089 5.089 0 0 0 5.083 5.084h17.334a5.089 5.089 0 0 0 5.083-5.084V9.333a5.089 5.089 0 0 0-5.083-5.083ZM3.807 23.224l5.3-6.198a3.24 3.24 0 0 1 2.455-1.274 3.303 3.303 0 0 1 2.556 1.088l8.819 9.41H7.333a3.579 3.579 0 0 1-3.527-3.026Zm24.443-.558a3.576 3.576 0 0 1-3.287 3.553l-9.74-10.392a4.787 4.787 0 0 0-3.721-1.574 4.715 4.715 0 0 0-3.56 1.83L3.75 20.981V9.333A3.587 3.587 0 0 1 7.333 5.75h17.334a3.587 3.587 0 0 1 3.583 3.583v13.333Z"/><path d="M21.5 9.25a3.25 3.25 0 1 0 0 6.5 3.25 3.25 0 0 0 0-6.5Zm0 5a1.75 1.75 0 1 1 0-3.5 1.75 1.75 0 0 1 0 3.5Z"/></svg>