<svg xmlns="http://www.w3.org/2000/svg" width="32" height="32" viewBox="0 0 32 32"><path d="M24.667 4.5H7.333A4.84 4.84 0 0 0 2.5 9.333v13.332A4.84 4.84 0 0 0 7.333 27.5h17.334a4.84 4.84 0 0 0 4.833-4.834V9.333A4.84 4.84 0 0 0 24.667 4.5M3.548 23.14l5.361-6.267a3.5 3.5 0 0 1 2.643-1.37 3.59 3.59 0 0 1 2.748 1.166l9.213 9.83H7.333a3.826 3.826 0 0 1-3.785-3.358m24.952-.475a3.83 3.83 0 0 1-3.635 3.814l-9.828-10.485a4.5 4.5 0 0 0-6.905.25L3.5 21.66V9.333A3.84 3.84 0 0 1 7.333 5.5h17.334A3.84 3.84 0 0 1 28.5 9.333zM21.5 9.5a3 3 0 1 0 0 6 3 3 0 0 0 0-6m0 5a2 2 0 1 1 0-3.999 2 2 0 0 1 0 4"/></svg>