<svg xmlns="http://www.w3.org/2000/svg" width="32" height="32" viewBox="0 0 32 32"><path d="M29.379 23.624 18.382 4.625a2.75 2.75 0 0 0-4.764 0l-11 19A2.75 2.75 0 0 0 5 27.75h21.997a2.75 2.75 0 0 0 2.382-4.126Zm-1.3 2.001a1.238 1.238 0 0 1-1.082.625H5a1.25 1.25 0 0 1-1.082-1.874l10.999-19A1.253 1.253 0 0 1 16 4.75a1.25 1.25 0 0 1 1.083.626l10.997 19a1.239 1.239 0 0 1 0 1.25Z"/><path d="M16 23.75a1 1 0 1 0 0-2 1 1 0 0 0 0 2ZM16 19.75a.75.75 0 0 0 .75-.75v-7a.75.75 0 1 0-1.5 0v7a.75.75 0 0 0 .75.75Z"/></svg>