<svg xmlns="http://www.w3.org/2000/svg" width="240" height="240" fill="none" viewBox="0 0 240 240"><path fill="url(#a)" d="M97.975 180.195c-6.3 12.705-15.152 23.713-30.958 23.713-23.43 0-31.045-26.047-38.945-50.511-7.645-24.466-7.533-23.046-10.25-28.927a20.4 20.4 0 0 1-2.647-10.073c0-11.309 9.167-20.477 20.475-20.477 6.123 0 10.794 2.143 14.59 5.94 8.758 8.757 11.512 22.12 18.047 42.492l4.995 14.345c.662 1.653 2.917 17.264 24.693 23.498"/><path fill="url(#b)" d="M167.18 179.339c-5.866 11.703-13.111 24.569-27.785 24.569-23.696 0-30.821-22.714-36.372-36.498-6.932-20.052-11.138-35.184-12.284-37.886-2.372-5.592-.135-6.469-11.705-19.263 5.022-10.817 14.276-16.34 26.8-16.34 19.975 0 28.33 29.37 32.405 42.16 5.032 14.669 6.029 37.449 28.939 43.257z"/><path fill="url(#c)" d="M167.18 179.339c-5.866 11.703-13.111 24.569-27.785 24.569-23.696 0-30.821-22.714-36.372-36.498-6.932-20.052-11.138-35.184-12.284-37.886-2.372-5.592-.135-6.469-11.705-19.263 5.022-10.817 14.276-16.34 26.8-16.34 19.975 0 28.33 29.37 32.405 42.16 5.032 14.669 6.029 37.449 28.939 43.257z"/><path fill="url(#d)" d="M225 183.433c0 11.307-7.666 20.475-20.196 20.475-17.314 0-25.429-24.348-30.846-39.516-13.577-42.04-9.653-39.694-22.846-56.868.224-.342 6.778-13.576 25.37-13.576 6.321 0 13.532 4.694 17.546 8.708 9.112 9.111 12.842 25.489 20.966 50.818C221.173 174.923 225 171.122 225 183.433"/><path fill="url(#e)" d="M225 183.433c0 11.307-7.666 20.475-20.196 20.475-17.314 0-25.429-24.348-30.846-39.516-13.577-42.04-9.653-39.694-22.846-56.868.224-.342 6.778-13.576 25.37-13.576 6.321 0 13.532 4.694 17.546 8.708 9.112 9.111 12.842 25.489 20.966 50.818C221.173 174.923 225 171.122 225 183.433"/><path fill="url(#f)" d="M225 183.433c0 11.307-7.666 20.475-20.196 20.475-17.314 0-25.429-24.348-30.846-39.516-13.577-42.04-9.653-39.694-22.846-56.868.224-.342 6.778-13.576 25.37-13.576 6.321 0 13.532 4.694 17.546 8.708 9.112 9.111 12.842 25.489 20.966 50.818C221.173 174.923 225 171.122 225 183.433"/><path fill="url(#g)" d="M225 183.433c0 11.307-7.666 20.475-20.196 20.475-17.314 0-25.429-24.348-30.846-39.516-13.577-42.04-9.653-39.694-22.846-56.868.224-.342 6.778-13.576 25.37-13.576 6.321 0 13.532 4.694 17.546 8.708 9.112 9.111 12.842 25.489 20.966 50.818C221.173 174.923 225 171.122 225 183.433"/><path fill="url(#h)" d="M103.022 167.408c-1.978 5.007-2.538 7.726-5.048 12.786-21.775-6.235-24.03-21.845-24.692-23.499l-4.995-14.344c3.932-12.842 6.027-21.528 10.747-32.092 11.57 12.794 9.333 13.672 11.705 19.264 1.145 2.702 5.351 17.834 12.283 37.885"/><path fill="url(#i)" d="M103.022 167.408c-1.978 5.007-2.538 7.726-5.048 12.786-21.775-6.235-24.03-21.845-24.692-23.499l-4.995-14.344c3.932-12.842 6.027-21.528 10.747-32.092 11.57 12.794 9.333 13.672 11.705 19.264 1.145 2.702 5.351 17.834 12.283 37.885"/><path fill="url(#j)" d="M103.022 167.408c-1.978 5.007-2.538 7.726-5.048 12.786-21.775-6.235-24.03-21.845-24.692-23.499l-4.995-14.344c3.932-12.842 6.027-21.528 10.747-32.092 11.57 12.794 9.333 13.672 11.705 19.264 1.145 2.702 5.351 17.834 12.283 37.885"/><path fill="url(#k)" d="M103.022 167.408c-1.978 5.007-2.538 7.726-5.048 12.786-21.775-6.235-24.03-21.845-24.692-23.499l-4.995-14.344c3.932-12.842 6.027-21.528 10.747-32.092 11.57 12.794 9.333 13.672 11.705 19.264 1.145 2.702 5.351 17.834 12.283 37.885"/><path fill="url(#l)" d="M173.954 164.396c-1.212 3.387-3.797 8.998-6.779 14.948-22.911-5.81-23.908-28.59-28.941-43.258 5.009-15.05 9.805-23.717 12.875-28.557 13.196 17.169 9.268 14.827 22.845 56.867"/><path fill="url(#m)" d="M214.99 153.452c-8.124-25.328-11.854-41.706-20.965-50.817-4.014-4.014-11.225-8.708-17.546-8.708-18.575 0-25.143 13.255-25.37 13.576-3.07 4.866-7.935 13.714-12.875 28.557 5.033 14.668 6.03 37.448 28.94 43.256 2.981-5.948 5.566-11.559 6.779-14.946 5.417 15.168 13.532 39.517 30.846 39.517 12.53 0 20.196-9.168 20.196-20.475 0-12.312-3.827-8.511-10.006-29.96z"/><path fill="url(#n)" d="M214.99 153.452c-8.124-25.328-11.854-41.706-20.965-50.817-4.014-4.014-11.225-8.708-17.546-8.708-18.589 0-25.143 13.255-25.37 13.576-3.07 4.866-7.935 13.714-12.875 28.557 5.033 14.668 6.03 37.448 28.94 43.256 2.981-5.948 5.566-11.559 6.779-14.946 5.417 15.168 13.532 39.517 30.846 39.517 12.53 0 20.196-9.168 20.196-20.475 0-12.312-3.827-8.511-10.006-29.96z"/><path fill="url(#o)" d="M214.99 153.452c-8.124-25.328-11.854-41.706-20.965-50.817-4.014-4.014-11.225-8.708-17.546-8.708-18.589 0-25.143 13.255-25.37 13.576-3.07 4.866-7.935 13.714-12.875 28.557 5.033 14.668 6.03 37.448 28.94 43.256 2.981-5.948 5.566-11.559 6.779-14.946 5.417 15.168 13.532 39.517 30.846 39.517 12.53 0 20.196-9.168 20.196-20.475 0-12.312-3.827-8.511-10.006-29.96z"/><path fill="url(#p)" d="M214.99 153.452c-8.124-25.328-11.854-41.706-20.965-50.817-4.014-4.014-11.225-8.708-17.546-8.708-18.589 0-25.143 13.255-25.37 13.576-3.07 4.866-7.935 13.714-12.875 28.557 5.033 14.668 6.03 37.448 28.94 43.256 2.981-5.948 5.566-11.559 6.779-14.946 5.417 15.168 13.532 39.517 30.846 39.517 12.53 0 20.196-9.168 20.196-20.475 0-12.312-3.827-8.511-10.006-29.96z"/><path fill="url(#q)" d="M151.108 107.524c-4.322 9.778-7.935 13.715-12.874 28.557-3.934-12.349-12.235-42.16-32.405-42.16-12.524 0-21.773 5.523-26.8 16.34 11.57 12.794 9.333 13.671 11.706 19.263 1.145 2.702 5.35 17.834 12.283 37.886 5.551 13.784 12.676 36.498 36.372 36.498 14.675 0 21.919-12.866 27.785-24.567 2.981-5.952 5.567-11.563 6.779-14.949-13.577-42.04-8.306-39.77-22.846-56.868"/><path fill="url(#r)" d="M173.954 164.396c-1.212 3.387-3.797 8.998-6.779 14.948-22.911-5.81-23.908-28.59-28.941-43.258 5.009-15.05 9.805-23.717 12.875-28.557 13.196 17.169 9.268 14.827 22.845 56.867"/><path fill="url(#s)" d="M151.108 107.524c-4.322 9.778-7.935 13.715-12.874 28.557-3.934-12.349-12.235-42.16-32.405-42.16-12.524 0-21.773 5.523-26.8 16.34 11.57 12.794 9.333 13.671 11.706 19.263 1.145 2.702 5.35 17.834 12.283 37.886 5.551 13.784 12.676 36.498 36.372 36.498 14.675 0 21.919-12.866 27.785-24.567 2.981-5.952 5.567-11.563 6.779-14.949-13.577-42.04-8.306-39.77-22.846-56.868"/><path fill="url(#t)" d="M151.108 107.524c-4.322 9.778-7.935 13.715-12.874 28.557-3.934-12.349-12.235-42.16-32.405-42.16-12.524 0-21.773 5.523-26.8 16.34 11.57 12.794 9.333 13.671 11.706 19.263 1.145 2.702 5.35 17.834 12.283 37.886 5.551 13.784 12.676 36.498 36.372 36.498 14.675 0 21.919-12.866 27.785-24.567 2.981-5.952 5.567-11.563 6.779-14.949-13.577-42.04-8.306-39.77-22.846-56.868"/><path fill="url(#u)" d="M167.18 179.339c-5.866 11.703-13.111 24.569-27.785 24.569-23.696 0-30.821-22.714-36.372-36.498-6.932-20.052-11.138-35.184-12.284-37.886-2.372-5.592-.135-6.469-11.705-19.263 5.022-10.817 14.276-16.34 26.8-16.34 19.975 0 28.33 29.37 32.405 42.16 5.032 14.669 6.029 37.449 28.939 43.257z"/><path fill="url(#v)" d="M167.179 179.338c-22.911-5.808-23.908-28.588-28.941-43.256-3.934-12.35-12.226-42.16-32.404-42.16-12.524 0-21.778 5.522-26.8 16.339-4.72 10.562-6.815 19.248-10.747 32.09l4.995 14.345c.662 1.654 2.917 17.264 24.692 23.498 2.51-5.059 3.07-7.776 5.048-12.784 5.552 13.784 12.677 36.497 36.373 36.497 14.674 0 21.918-12.866 27.785-24.567v-.003z"/><path fill="url(#w)" d="M167.179 179.338c-22.911-5.808-23.908-28.588-28.941-43.256-3.934-12.35-12.226-42.16-32.404-42.16-12.524 0-21.778 5.522-26.8 16.339-4.72 10.562-6.815 19.248-10.747 32.09l4.995 14.345c.662 1.654 2.917 17.264 24.692 23.498 2.51-5.059 3.07-7.776 5.048-12.784 5.552 13.784 12.677 36.497 36.373 36.497 14.674 0 21.918-12.866 27.785-24.567v-.003z"/><path fill="url(#x)" d="M167.179 179.338c-22.911-5.808-23.908-28.588-28.941-43.256-3.934-12.35-12.226-42.16-32.404-42.16-12.524 0-21.778 5.522-26.8 16.339-4.72 10.562-6.815 19.248-10.747 32.09l4.995 14.345c.662 1.654 2.917 17.264 24.692 23.498 2.51-5.059 3.07-7.776 5.048-12.784 5.552 13.784 12.677 36.497 36.373 36.497 14.674 0 21.918-12.866 27.785-24.567v-.003z"/><path fill="url(#y)" d="M173.891 164.396c-1.213 3.387-3.798 8.998-6.779 14.948-22.911-5.81-23.908-28.59-28.941-43.258 5.008-15.05 9.804-23.717 12.874-28.557 13.197 17.169 9.269 14.827 22.846 56.867"/><path fill="url(#z)" d="M173.891 164.396c-1.213 3.387-3.798 8.998-6.779 14.948-22.911-5.81-23.908-28.59-28.941-43.258 5.008-15.05 9.804-23.717 12.874-28.557 13.197 17.169 9.269 14.827 22.846 56.867"/><path fill="url(#A)" d="M173.891 164.396c-1.213 3.387-3.798 8.998-6.779 14.948-22.911-5.81-23.908-28.59-28.941-43.258 5.008-15.05 9.804-23.717 12.874-28.557 13.197 17.169 9.269 14.827 22.846 56.867"/><path fill="url(#B)" d="M173.891 164.396c-1.213 3.387-3.798 8.998-6.779 14.948-22.911-5.81-23.908-28.59-28.941-43.258 5.008-15.05 9.804-23.717 12.874-28.557 13.197 17.169 9.269 14.827 22.846 56.867"/><path fill="url(#C)" d="M173.891 164.396c-1.213 3.387-3.798 8.998-6.779 14.948-22.911-5.81-23.908-28.59-28.941-43.258 5.008-15.05 9.804-23.717 12.874-28.557 13.197 17.169 9.269 14.827 22.846 56.867"/><path fill="url(#D)" d="M173.891 164.396c-1.213 3.387-3.798 8.998-6.779 14.948-22.911-5.81-23.908-28.59-28.941-43.258 5.008-15.05 9.804-23.717 12.874-28.557 13.197 17.169 9.269 14.827 22.846 56.867"/><path fill="url(#E)" d="M167.18 179.339c-5.866 11.703-13.111 24.569-27.785 24.569-23.696 0-30.821-22.714-36.372-36.498-6.932-20.052-11.138-35.184-12.284-37.886-2.372-5.592-.135-6.469-11.705-19.263 5.022-10.817 14.276-16.34 26.8-16.34 19.975 0 28.33 29.37 32.405 42.16 5.032 14.669 6.029 37.449 28.939 43.257z"/><path fill="url(#F)" d="M167.18 179.339c-5.866 11.703-13.111 24.569-27.785 24.569-23.696 0-30.821-22.714-36.372-36.498-6.932-20.052-11.138-35.184-12.284-37.886-2.372-5.592-.135-6.469-11.705-19.263 5.022-10.817 14.276-16.34 26.8-16.34 19.975 0 28.33 29.37 32.405 42.16 5.032 14.669 6.029 37.449 28.939 43.257z"/><path fill="url(#G)" d="M167.18 179.339c-5.866 11.703-13.111 24.569-27.785 24.569-23.696 0-30.821-22.714-36.372-36.498-6.932-20.052-11.138-35.184-12.284-37.886-2.372-5.592-.135-6.469-11.705-19.263 5.022-10.817 14.276-16.34 26.8-16.34 19.975 0 28.33 29.37 32.405 42.16 5.032 14.669 6.029 37.449 28.939 43.257z"/><path fill="url(#H)" d="M167.18 179.339c-5.866 11.703-13.111 24.569-27.785 24.569-23.696 0-30.821-22.714-36.372-36.498-6.932-20.052-11.138-35.184-12.284-37.886-2.372-5.592-.135-6.469-11.705-19.263 5.022-10.817 14.276-16.34 26.8-16.34 19.975 0 28.33 29.37 32.405 42.16 5.032 14.669 6.029 37.449 28.939 43.257z"/><path fill="url(#I)" d="M103.022 167.408c-1.978 5.007-2.538 7.726-5.048 12.786-21.775-6.235-24.03-21.845-24.692-23.499l-4.995-14.344c3.932-12.842 6.027-21.528 10.747-32.092 11.57 12.794 9.333 13.672 11.705 19.264 1.145 2.702 5.351 17.834 12.283 37.885"/><path fill="url(#J)" d="M103.022 167.408c-1.978 5.007-2.538 7.726-5.048 12.786-21.775-6.235-24.03-21.845-24.692-23.499l-4.995-14.344c3.932-12.842 6.027-21.528 10.747-32.092 11.57 12.794 9.333 13.672 11.705 19.264 1.145 2.702 5.351 17.834 12.283 37.885"/><path fill="url(#K)" d="M103.022 167.408c-1.978 5.007-2.538 7.726-5.048 12.786-21.775-6.235-24.03-21.845-24.692-23.499l-4.995-14.344c3.932-12.842 6.027-21.528 10.747-32.092 11.57 12.794 9.333 13.672 11.705 19.264 1.145 2.702 5.351 17.834 12.283 37.885"/><path fill="url(#L)" d="M103.022 167.408c-1.978 5.007-2.538 7.726-5.048 12.786-21.775-6.235-24.03-21.845-24.692-23.499l-4.995-14.344c3.932-12.842 6.027-21.528 10.747-32.092 11.57 12.794 9.333 13.672 11.705 19.264 1.145 2.702 5.351 17.834 12.283 37.885"/><path fill="url(#M)" d="M225 183.433c0 11.307-7.666 20.475-20.196 20.475-17.314 0-25.429-24.348-30.846-39.516-13.577-42.04-9.653-39.694-22.846-56.868.224-.342 6.778-13.576 25.37-13.576 6.321 0 13.532 4.694 17.546 8.708 9.112 9.111 12.842 25.489 20.966 50.818C221.173 174.923 225 171.122 225 183.433"/><path fill="url(#N)" d="M151.114 107.524c-3.071 4.845-7.936 13.715-12.875 28.557-3.934-12.349-12.227-42.16-32.405-42.16-12.524 0-21.773 5.523-26.8 16.34 11.57 12.794 9.333 13.671 11.706 19.263 1.145 2.702 5.35 17.834 12.283 37.886 5.551 13.784 12.676 36.498 36.372 36.498 14.674 0 21.919-12.866 27.785-24.567 2.981-5.952 5.567-11.563 6.779-14.949-13.577-42.04-9.649-39.694-22.845-56.868"/><path fill="url(#O)" d="M35.84 77.12c11.355 0 20.56-9.204 20.56-20.56S47.195 36 35.84 36c-11.356 0-20.56 9.205-20.56 20.56 0 11.356 9.205 20.56 20.56 20.56"/><path fill="url(#P)" d="M35.84 77.12c11.355 0 20.56-9.204 20.56-20.56S47.195 36 35.84 36c-11.356 0-20.56 9.205-20.56 20.56 0 11.356 9.205 20.56 20.56 20.56"/><path fill="url(#Q)" d="M106.215 77.12c11.355 0 20.56-9.204 20.56-20.56S117.57 36 106.215 36c-11.356 0-20.56 9.205-20.56 20.56 0 11.356 9.204 20.56 20.56 20.56"/><path fill="url(#R)" d="M176.428 77.12c11.355 0 20.56-9.204 20.56-20.56S187.783 36 176.428 36c-11.356 0-20.561 9.205-20.561 20.56 0 11.356 9.205 20.56 20.561 20.56"/><path fill="url(#S)" d="M97.975 180.196c-6.3 12.704-15.152 23.712-30.958 23.712-23.43 0-31.045-26.047-38.945-50.511-7.645-24.465-7.533-23.045-10.25-28.926a20.4 20.4 0 0 1-2.647-10.073c0-11.309 9.167-20.477 20.475-20.477 6.123 0 10.794 2.143 14.59 5.94 8.758 8.757 11.512 22.119 18.047 42.491l4.995 14.345c.662 1.654 2.917 17.264 24.693 23.499"/><path fill="url(#T)" d="M90.74 129.517c-2.373-5.59-.136-6.468-11.706-19.259-4.72 10.561-6.814 19.246-10.747 32.085-6.535-20.369-9.289-33.728-18.046-42.484-3.797-3.796-8.468-5.939-14.591-5.939-11.308 0-20.475 9.167-20.475 20.473 0 3.661.962 7.097 2.647 10.071 2.717 5.88 2.605 4.461 10.25 28.922 7.9 24.459 15.516 50.501 38.945 50.501 15.806 0 24.657-11.006 30.958-23.706 2.509-5.06 3.069-7.779 5.048-12.785-6.932-20.048-11.138-35.177-12.284-37.879"/><path fill="url(#U)" d="M90.74 129.536c-2.373-5.589-.136-6.466-11.706-19.254-4.72 10.558-6.814 19.241-10.747 32.076-6.535-20.363-9.289-33.719-18.046-42.473-3.797-3.794-8.468-5.937-14.591-5.937-11.308 0-20.475 9.164-20.475 20.468 0 3.659.962 7.095 2.647 10.069 2.717 5.878 2.605 4.459 10.25 28.914 7.9 24.452 15.516 50.488 38.945 50.488 15.806 0 24.657-11.003 30.958-23.7 2.509-5.059 3.069-7.777 5.048-12.782-6.932-20.043-11.138-35.168-12.284-37.869"/><path fill="url(#V)" d="M90.74 129.543c-2.373-5.59-.136-6.467-11.706-19.258-4.72 10.561-6.814 19.245-10.747 32.083-6.535-20.367-9.289-33.726-18.046-42.482-3.797-3.795-8.468-5.937-14.591-5.937-11.308 0-20.475 9.165-20.475 20.471 0 3.66.962 7.096 2.647 10.07 2.717 5.88 2.605 4.461 10.25 28.92 7.9 24.458 15.516 50.498 38.945 50.498 15.806 0 24.657-11.005 30.958-23.705 2.509-5.059 3.069-7.778 5.048-12.784-6.932-20.046-11.138-35.174-12.284-37.876"/><path fill="url(#W)" d="M98.08 180.185c-6.301 12.699-15.153 23.702-30.959 23.702-23.429 0-31.044-26.036-38.945-50.488-7.645-24.455-7.533-23.036-10.25-28.914a20.36 20.36 0 0 1-2.647-10.069c0-11.304 9.168-20.467 20.475-20.467 6.123 0 10.795 2.142 14.591 5.936 8.758 8.754 11.511 22.11 18.047 42.473l4.995 14.339c.662 1.653 2.917 17.257 24.692 23.488"/><path fill="url(#X)" d="M97.975 180.202c-6.3 12.701-15.152 23.706-30.958 23.706-23.43 0-31.045-26.04-38.945-50.498-7.645-24.459-7.533-23.04-10.25-28.92a20.36 20.36 0 0 1-2.647-10.07c0-11.306 9.167-20.472 20.475-20.472 6.123 0 10.794 2.143 14.59 5.938 8.758 8.756 11.512 22.115 18.047 42.482l4.995 14.341c.662 1.653 2.917 17.26 24.693 23.493"/><path fill="url(#Y)" d="M97.975 180.185c-6.3 12.699-15.152 23.702-30.958 23.702-23.43 0-31.045-26.036-38.945-50.488-7.645-24.455-7.533-23.036-10.25-28.914a20.36 20.36 0 0 1-2.647-10.069c0-11.304 9.167-20.467 20.475-20.467 6.123 0 10.794 2.142 14.59 5.936 8.758 8.754 11.512 22.11 18.047 42.473l4.995 14.339c.662 1.653 2.917 17.257 24.693 23.488"/><path fill="url(#Z)" d="M97.8 180.201c-6.3 12.702-15.152 23.707-30.958 23.707-23.43 0-31.045-26.041-38.945-50.498-7.645-24.46-7.533-23.04-10.25-28.92A20.36 20.36 0 0 1 15 114.42c0-11.306 9.168-20.472 20.475-20.472 6.123 0 10.795 2.143 14.591 5.938 8.758 8.756 11.511 22.115 18.047 42.482l4.994 14.341c.662 1.653 2.918 17.26 24.693 23.492"/><defs><radialGradient id="c" cx="0" cy="0" r="1" gradientTransform="matrix(-3.61401 50.97194 -41.38321 -2.93415 103.778 93.77)" gradientUnits="userSpaceOnUse"><stop stop-color="#FEB83F"/><stop offset="1" stop-color="#C75A1D" stop-opacity="0"/></radialGradient><radialGradient id="f" cx="0" cy="0" r="1" gradientTransform="rotate(86.203 34.488 136.076)scale(30.4025 41.3117)" gradientUnits="userSpaceOnUse"><stop stop-color="#FC8A21"/><stop offset="1" stop-color="#CA5014" stop-opacity="0"/></radialGradient><radialGradient id="g" cx="0" cy="0" r="1" gradientTransform="matrix(30.28432 -16.56109 25.2484 46.17032 168.624 148.395)" gradientUnits="userSpaceOnUse"><stop stop-color="#E95A11"/><stop offset="1" stop-color="#CA5014" stop-opacity="0"/></radialGradient><radialGradient id="i" cx="0" cy="0" r="1" gradientTransform="rotate(129.958 19.594 82.116)scale(47.7313 19.2672)" gradientUnits="userSpaceOnUse"><stop stop-color="#C64D0C"/><stop offset="1" stop-color="#C9510E" stop-opacity="0"/></radialGradient><radialGradient id="j" cx="0" cy="0" r="1" gradientTransform="matrix(53.23435 26.54283 -87.48862 175.46736 92.35 137.394)" gradientUnits="userSpaceOnUse"><stop stop-color="#C64D0D"/><stop offset="1" stop-color="#DF7B24" stop-opacity="0"/></radialGradient><radialGradient id="k" cx="0" cy="0" r="1" gradientTransform="rotate(-24.829 401.834 -83.605)scale(19.5993 64.6021)" gradientUnits="userSpaceOnUse"><stop stop-color="#F1902E"/><stop offset="1" stop-color="#DF7B24" stop-opacity="0"/></radialGradient><radialGradient id="m" cx="0" cy="0" r="1" gradientTransform="rotate(65.489 15.854 174.335)scale(75.9222 61.8247)" gradientUnits="userSpaceOnUse"><stop stop-color="#FC8A21"/><stop offset="1" stop-color="#F06315" stop-opacity="0"/></radialGradient><radialGradient id="n" cx="0" cy="0" r="1" gradientTransform="rotate(76.547 -1.328 165.683)scale(49.2812 20.2538)" gradientUnits="userSpaceOnUse"><stop stop-color="#E03B03" stop-opacity=".61"/><stop offset=".968" stop-color="#DE3802" stop-opacity="0"/></radialGradient><radialGradient id="o" cx="0" cy="0" r="1" gradientTransform="rotate(87.481 9.732 146.605)scale(17.2933 7.10726)" gradientUnits="userSpaceOnUse"><stop stop-color="#E74404"/><stop offset=".968" stop-color="#DE3802" stop-opacity="0"/></radialGradient><radialGradient id="q" cx="0" cy="0" r="1" gradientTransform="rotate(162.771 63.892 100.54)scale(26.7885 63.7117)" gradientUnits="userSpaceOnUse"><stop stop-color="#C2440E"/><stop offset="1" stop-color="#CD5D1D" stop-opacity="0"/></radialGradient><radialGradient id="r" cx="0" cy="0" r="1" gradientTransform="matrix(-31.50326 11.98018 -15.29578 -40.222 172.27 139.484)" gradientUnits="userSpaceOnUse"><stop stop-color="#DA3904"/><stop offset="1" stop-color="#E94E05" stop-opacity="0"/></radialGradient><radialGradient id="s" cx="0" cy="0" r="1" gradientTransform="rotate(143.297 51.475 106.728)scale(27.0639 64.3669)" gradientUnits="userSpaceOnUse"><stop stop-color="#FD6612"/><stop offset="1" stop-color="#CD5D1D" stop-opacity="0"/></radialGradient><radialGradient id="t" cx="0" cy="0" r="1" gradientTransform="rotate(-34.575 364.048 -164.83)scale(22.2273 52.8638)" gradientUnits="userSpaceOnUse"><stop stop-color="#C8430C"/><stop offset="1" stop-color="#CD5D1D" stop-opacity="0"/></radialGradient><radialGradient id="u" cx="0" cy="0" r="1" gradientTransform="matrix(-21.92083 57.83468 -125.8214 -47.68955 115.623 106.94)" gradientUnits="userSpaceOnUse"><stop stop-color="#FFAE3B"/><stop offset="1" stop-color="#C75A1D" stop-opacity="0"/></radialGradient><radialGradient id="v" cx="0" cy="0" r="1" gradientTransform="matrix(13.18626 -33.59351 18.85246 7.40004 65.245 118.427)" gradientUnits="userSpaceOnUse"><stop stop-color="#FFA134"/><stop offset="1" stop-color="#FEA235" stop-opacity="0"/></radialGradient><radialGradient id="w" cx="0" cy="0" r="1" gradientTransform="matrix(29.26179 -58.60602 24.33929 12.15252 79.291 124.073)" gradientUnits="userSpaceOnUse"><stop stop-color="#C8520E"/><stop offset="1" stop-color="#CA530F" stop-opacity="0"/></radialGradient><radialGradient id="y" cx="0" cy="0" r="1" gradientTransform="rotate(-99.64 140.16 20.175)scale(27.8022 24.783)" gradientUnits="userSpaceOnUse"><stop stop-color="#FD6813"/><stop offset="1" stop-color="#E54100" stop-opacity="0"/></radialGradient><radialGradient id="z" cx="0" cy="0" r="1" gradientTransform="rotate(138.844 61.126 93.446)scale(48.9853 15.7422)" gradientUnits="userSpaceOnUse"><stop stop-color="#DB3704"/><stop offset="1" stop-color="#E54100" stop-opacity="0"/></radialGradient><radialGradient id="A" cx="0" cy="0" r="1" gradientTransform="matrix(-23.38244 23.38815 -21.27414 -21.26894 172.639 134.282)" gradientUnits="userSpaceOnUse"><stop stop-color="#DB3704"/><stop offset="1" stop-color="#E54100" stop-opacity="0"/></radialGradient><radialGradient id="B" cx="0" cy="0" r="1" gradientTransform="rotate(-35.418 325.349 -134.161)scale(22.9864 19.1974)" gradientUnits="userSpaceOnUse"><stop stop-color="#FD6813"/><stop offset="1" stop-color="#FC6613" stop-opacity="0"/></radialGradient><radialGradient id="C" cx="0" cy="0" r="1" gradientTransform="rotate(-172.851 92.692 74.419)scale(31.4189 26.2399)" gradientUnits="userSpaceOnUse"><stop stop-color="#DD3C04"/><stop offset="1" stop-color="#DE4706" stop-opacity="0"/></radialGradient><radialGradient id="D" cx="0" cy="0" r="1" gradientTransform="matrix(-22.54068 44.10148 -23.64498 -12.08517 173.484 125.905)" gradientUnits="userSpaceOnUse"><stop stop-color="#BC3100"/><stop offset="1" stop-color="#DE4706" stop-opacity="0"/></radialGradient><radialGradient id="E" cx="0" cy="0" r="1" gradientTransform="rotate(98.568 12.644 92.355)scale(30.2187 40.257)" gradientUnits="userSpaceOnUse"><stop stop-color="#FEB83F"/><stop offset="1" stop-color="#C75A1D" stop-opacity="0"/></radialGradient><radialGradient id="F" cx="0" cy="0" r="1" gradientTransform="matrix(-19.20857 23.86504 -35.72476 -28.75426 115.002 104.315)" gradientUnits="userSpaceOnUse"><stop stop-color="#FEB83F"/><stop offset="1" stop-color="#FEB43E" stop-opacity="0"/></radialGradient><radialGradient id="G" cx="0" cy="0" r="1" gradientTransform="rotate(132.632 40.525 92.253)scale(38.5855 33.6728)" gradientUnits="userSpaceOnUse"><stop stop-color="#FB8E2D"/><stop offset="1" stop-color="#F18028" stop-opacity="0"/></radialGradient><radialGradient id="H" cx="0" cy="0" r="1" gradientTransform="matrix(22.34749 -48.0798 41.95824 19.50219 118.54 171.27)" gradientUnits="userSpaceOnUse"><stop stop-color="#CF601E"/><stop offset="1" stop-color="#D4641F" stop-opacity="0"/></radialGradient><radialGradient id="I" cx="0" cy="0" r="1" gradientTransform="rotate(1.941 -4580.276 1976.611)scale(21.872 26.3916)" gradientUnits="userSpaceOnUse"><stop stop-color="#F1902E"/><stop offset="1" stop-color="#DF7B24" stop-opacity="0"/></radialGradient><radialGradient id="J" cx="0" cy="0" r="1" gradientTransform="matrix(-27.0387 16.17464 -19.51703 -32.62609 101.018 145.574)" gradientUnits="userSpaceOnUse"><stop stop-color="#CC5212"/><stop offset="1" stop-color="#CD5513" stop-opacity="0"/></radialGradient><radialGradient id="K" cx="0" cy="0" r="1" gradientTransform="rotate(-48.053 213.123 1.58)scale(31.7973 30.4114)" gradientUnits="userSpaceOnUse"><stop stop-color="#F1912D"/><stop offset="1" stop-color="#CD5513" stop-opacity="0"/></radialGradient><radialGradient id="L" cx="0" cy="0" r="1" gradientTransform="matrix(-25.67338 36.37547 -19.60426 -13.83646 104.39 130.555)" gradientUnits="userSpaceOnUse"><stop stop-color="#A83F0B"/><stop offset="1" stop-color="#CD5513" stop-opacity="0"/></radialGradient><radialGradient id="M" cx="0" cy="0" r="1" gradientTransform="matrix(-16.16983 7.34075 -9.97481 -21.97202 230.738 171.858)" gradientUnits="userSpaceOnUse"><stop stop-color="#FC8A21"/><stop offset="1" stop-color="#CA5014" stop-opacity="0"/></radialGradient><radialGradient id="S" cx="0" cy="0" r="1" gradientTransform="matrix(25.4193 -20.28869 87.88912 110.11454 26.756 172.615)" gradientUnits="userSpaceOnUse"><stop stop-color="#C47E2F"/><stop offset="1" stop-color="#BC792F" stop-opacity="0"/><stop offset="1" stop-color="#EEAD41"/></radialGradient><radialGradient id="T" cx="0" cy="0" r="1" gradientTransform="matrix(-21.70939 11.61024 -31.47612 -58.85555 84.735 174.525)" gradientUnits="userSpaceOnUse"><stop stop-color="#BE5516"/><stop offset="1" stop-color="#B76A26" stop-opacity="0"/></radialGradient><radialGradient id="U" cx="0" cy="0" r="1" gradientTransform="rotate(-123.464 85.125 62.05)scale(30.6522 10.945)" gradientUnits="userSpaceOnUse"><stop stop-color="#E67F26"/><stop offset="1" stop-color="#B76A26" stop-opacity="0"/></radialGradient><radialGradient id="V" cx="0" cy="0" r="1" gradientTransform="rotate(-160.644 59.924 79.454)scale(27.0701 58.6938)" gradientUnits="userSpaceOnUse"><stop stop-color="#C75313"/><stop offset="1" stop-color="#B76A26" stop-opacity="0"/></radialGradient><radialGradient id="W" cx="0" cy="0" r="1" gradientTransform="matrix(-16.95888 76.03797 -58.01284 -12.9387 48.663 101.943)" gradientUnits="userSpaceOnUse"><stop stop-color="#FBBF49"/><stop offset="1" stop-color="#BC792F" stop-opacity="0"/><stop offset="1" stop-color="#FDC44C" stop-opacity="0"/></radialGradient><radialGradient id="X" cx="0" cy="0" r="1" gradientTransform="matrix(25.21685 -15.78503 50.20888 80.2095 22.679 155.857)" gradientUnits="userSpaceOnUse"><stop stop-color="#CF8B34"/><stop offset="1" stop-color="#BC792F" stop-opacity="0"/><stop offset="1" stop-color="#FDC44C" stop-opacity="0"/></radialGradient><radialGradient id="Y" cx="0" cy="0" r="1" gradientTransform="rotate(160.716 21.073 72.928)scale(20.5266 52.1986)" gradientUnits="userSpaceOnUse"><stop stop-color="#ECAE44"/><stop offset="1" stop-color="#BC792F" stop-opacity="0"/><stop offset="1" stop-color="#FDC44C" stop-opacity="0"/></radialGradient><radialGradient id="Z" cx="0" cy="0" r="1" gradientTransform="matrix(-.88982 57.28599 -146.17537 -2.27053 46.783 99.528)" gradientUnits="userSpaceOnUse"><stop stop-color="#FEC952"/><stop offset="1" stop-color="#BC792F" stop-opacity="0"/><stop offset="1" stop-color="#FFC852"/></radialGradient><linearGradient id="a" x1="2.227" x2="86.71" y1="106.312" y2="181.295" gradientUnits="userSpaceOnUse"><stop stop-color="#FFC551"/><stop offset=".653" stop-color="#BC792F"/><stop offset="1" stop-color="#DC6F1D"/></linearGradient><linearGradient id="b" x1="108.37" x2="142.569" y1="105.399" y2="196.834" gradientUnits="userSpaceOnUse"><stop stop-color="#E07520"/><stop offset="1" stop-color="#C75A1D"/></linearGradient><linearGradient id="d" x1="176.937" x2="200.287" y1="96.366" y2="195.363" gradientUnits="userSpaceOnUse"><stop stop-color="#DC3905"/><stop offset="1" stop-color="#CA5014"/></linearGradient><linearGradient id="e" x1="215.709" x2="179.912" y1="120.149" y2="157.94" gradientUnits="userSpaceOnUse"><stop stop-color="#FC8A21"/><stop offset="1" stop-color="#CA5014" stop-opacity="0"/></linearGradient><linearGradient id="h" x1="69.228" x2="109.073" y1="148.716" y2="141.504" gradientUnits="userSpaceOnUse"><stop stop-color="#EF8E2C"/><stop offset="1" stop-color="#C84E0D"/></linearGradient><linearGradient id="l" x1="156.094" x2="156.094" y1="107.529" y2="180.053" gradientUnits="userSpaceOnUse"><stop stop-color="#D74F10"/><stop offset="1" stop-color="#C95C1D"/></linearGradient><linearGradient id="p" x1="139.6" x2="143.839" y1="138.734" y2="139.582" gradientUnits="userSpaceOnUse"><stop stop-color="#FE881E"/><stop offset=".968" stop-color="#FC871E" stop-opacity="0"/></linearGradient><linearGradient id="x" x1="66.793" x2="79.68" y1="128.773" y2="133.521" gradientUnits="userSpaceOnUse"><stop stop-color="#FEA837"/><stop offset="1" stop-color="#CA530F" stop-opacity="0"/></linearGradient><linearGradient id="N" x1="173.238" x2="161.704" y1="173.694" y2="167.229" gradientUnits="userSpaceOnUse"><stop stop-color="#CC5418"/><stop offset="1" stop-color="#CD5D1D" stop-opacity="0"/></linearGradient><linearGradient id="O" x1="38.622" x2="31.682" y1="43.793" y2="75.638" gradientUnits="userSpaceOnUse"><stop stop-color="#FFCB55"/><stop offset=".502" stop-color="#E7A440"/><stop offset="1" stop-color="#CC8B36"/></linearGradient><linearGradient id="P" x1="33.91" x2="26.969" y1="42.766" y2="74.611" gradientUnits="userSpaceOnUse"><stop stop-color="#FFCB55"/><stop offset=".502" stop-color="#E7A440"/><stop offset="1" stop-color="#CC8B36"/></linearGradient><linearGradient id="Q" x1="106.215" x2="96.136" y1="36" y2="73.994" gradientUnits="userSpaceOnUse"><stop stop-color="#FEC847"/><stop offset=".502" stop-color="#F8912D"/><stop offset="1" stop-color="#DE6C1C"/></linearGradient><linearGradient id="R" x1="176.428" x2="166.349" y1="36" y2="73.994" gradientUnits="userSpaceOnUse"><stop stop-color="#FE9A2D"/><stop offset=".502" stop-color="#F26213"/><stop offset="1" stop-color="#D64708"/></linearGradient></defs></svg>