<svg xmlns="http://www.w3.org/2000/svg" width="191" height="47" fill="none" viewBox="0 0 191 47"><path fill="#fff" d="M46.22 13.6h7.27L42.92 45.55h-8.34l-7.9-24.11-7.9 24.11h-8.21L0 13.6h7.44l7.5 24.28 7.87-24.28h7.9l8 24.41zM84.67 32.14H61.09a10.2 10.2 0 0 0 1.8 4.57 8.14 8.14 0 0 0 3.35 2.7 10.6 10.6 0 0 0 4.32.87 13.9 13.9 0 0 0 4.82-.88 15.7 15.7 0 0 0 4.42-2.49l3.47 5a17.6 17.6 0 0 1-6.06 3.45 22.9 22.9 0 0 1-7.08 1.05 16.93 16.93 0 0 1-8.47-2.08 14.75 14.75 0 0 1-5.79-5.9 18.1 18.1 0 0 1-2.08-8.82 18.55 18.55 0 0 1 2-8.76 14.74 14.74 0 0 1 5.62-5.93 15.93 15.93 0 0 1 8.27-2.12 14.23 14.23 0 0 1 13.19 8 19.15 19.15 0 0 1 1.92 8.74c.01.67-.03 1.54-.12 2.6m-7-5.3A9.88 9.88 0 0 0 75 21a7.43 7.43 0 0 0-5.44-2 7.82 7.82 0 0 0-5.72 2.12 10.15 10.15 0 0 0-2.75 5.75zM114.5 14.94a15.56 15.56 0 0 1 5.77 6 17.6 17.6 0 0 1 2.12 8.64 17.54 17.54 0 0 1-2.12 8.63 15.52 15.52 0 0 1-13.86 8.17 13.06 13.06 0 0 1-5.77-1.21 11.9 11.9 0 0 1-4.23-3.42v3.8h-7V0h7v17.4a12 12 0 0 1 4.23-3.4 12.9 12.9 0 0 1 5.77-1.22 15.5 15.5 0 0 1 8.09 2.16m-3.82 23.51a9 9 0 0 0 3.37-3.71 12 12 0 0 0 0-10.33 9.06 9.06 0 0 0-3.37-3.71 10.19 10.19 0 0 0-10.12 0 9.1 9.1 0 0 0-3.4 3.67 11.06 11.06 0 0 0-1.22 5.24 11 11 0 0 0 1.22 5.23 9.1 9.1 0 0 0 3.4 3.67 10.19 10.19 0 0 0 10.12 0zM156.93 32.14h-23.57a10.16 10.16 0 0 0 1.8 4.57 8.14 8.14 0 0 0 3.35 2.7 10.6 10.6 0 0 0 4.32.87 14 14 0 0 0 4.82-.88 15.7 15.7 0 0 0 4.42-2.49l3.46 5a17.5 17.5 0 0 1-6.05 3.45 23 23 0 0 1-7.09 1.05 17 17 0 0 1-8.47-2.08 14.8 14.8 0 0 1-5.78-5.9 18.14 18.14 0 0 1-2.09-8.82 18.56 18.56 0 0 1 2-8.76 14.74 14.74 0 0 1 5.62-5.93 15.93 15.93 0 0 1 8.33-2.15 14.26 14.26 0 0 1 13.19 8 19.16 19.16 0 0 1 1.92 8.74c-.04.7-.11 1.57-.18 2.63m-7-5.3a9.94 9.94 0 0 0-2.68-5.8 7.45 7.45 0 0 0-5.42-2.04 7.8 7.8 0 0 0-5.72 2.12 10.1 10.1 0 0 0-2.75 5.75zM190.18 45.55h-8.57l-8.1-11.11-8 11.11h-8.17l12-16.31-11.81-15.64h8.58l7.8 10.67 7.8-10.67H190l-11.86 15.58z"/></svg>