<svg xmlns="http://www.w3.org/2000/svg" width="378" height="24" fill="none" viewBox="0 0 378 24"><path fill="#000" d="M19.948 6.22h3.137l-4.562 13.789h-3.599l-3.41-10.406L8.105 20.01H4.562L0 6.219h3.211L6.448 16.7l3.396-10.48h3.41l3.452 10.536zM36.542 14.221H26.365a4.4 4.4 0 0 0 .777 1.973c.369.51.868.913 1.446 1.165a4.6 4.6 0 0 0 1.864.375 6 6 0 0 0 2.08-.38 6.8 6.8 0 0 0 1.908-1.074l1.498 2.158a7.6 7.6 0 0 1-2.616 1.489c-.988.31-2.02.463-3.055.453a7.3 7.3 0 0 1-3.656-.898 6.37 6.37 0 0 1-2.499-2.546 7.8 7.8 0 0 1-.897-3.807 8 8 0 0 1 .863-3.78 6.36 6.36 0 0 1 2.425-2.56 6.9 6.9 0 0 1 3.57-.915 6.14 6.14 0 0 1 5.692 3.453 8.26 8.26 0 0 1 .829 3.772q.006.436-.052 1.122m-3.021-2.287a4.26 4.26 0 0 0-1.153-2.52 3.2 3.2 0 0 0-2.347-.864 3.38 3.38 0 0 0-2.469.915 4.38 4.38 0 0 0-1.187 2.482zM49.416 6.798a6.7 6.7 0 0 1 2.49 2.59 7.6 7.6 0 0 1 .915 3.728 7.57 7.57 0 0 1-.915 3.725 6.7 6.7 0 0 1-5.981 3.526 5.6 5.6 0 0 1-2.49-.523 5.1 5.1 0 0 1-1.826-1.476v1.64h-3.021V.35h3.02v7.51a5.2 5.2 0 0 1 1.827-1.468 5.6 5.6 0 0 1 2.49-.526 6.7 6.7 0 0 1 3.491.932m-1.648 10.146a3.9 3.9 0 0 0 1.454-1.6 5.18 5.18 0 0 0 0-4.46 3.9 3.9 0 0 0-1.454-1.6 4.4 4.4 0 0 0-4.368 0c-.627.38-1.136.93-1.467 1.584a4.8 4.8 0 0 0-.527 2.261c-.014.785.167 1.56.527 2.257.331.655.84 1.203 1.467 1.584a4.4 4.4 0 0 0 4.368 0zM67.727 14.221H57.555a4.4 4.4 0 0 0 .777 1.973c.368.51.868.913 1.446 1.165a4.6 4.6 0 0 0 1.864.375 6 6 0 0 0 2.08-.38 6.8 6.8 0 0 0 1.908-1.074l1.493 2.158a7.5 7.5 0 0 1-2.611 1.489c-.99.31-2.023.463-3.06.453a7.34 7.34 0 0 1-3.655-.898 6.4 6.4 0 0 1-2.495-2.546 7.8 7.8 0 0 1-.902-3.807 8 8 0 0 1 .863-3.78 6.36 6.36 0 0 1 2.426-2.56 6.9 6.9 0 0 1 3.595-.927 6.15 6.15 0 0 1 5.692 3.452 8.3 8.3 0 0 1 .829 3.772c-.017.302-.048.678-.078 1.135m-3.02-2.287A4.3 4.3 0 0 0 63.55 9.43a3.22 3.22 0 0 0-2.34-.88 3.37 3.37 0 0 0-2.468.914 4.36 4.36 0 0 0-1.187 2.482zM82.077 20.009H78.38l-3.496-4.795-3.453 4.795h-3.526l5.18-7.04-5.098-6.75h3.703l3.367 4.606 3.366-4.605H82l-5.119 6.724zM159.685 20h-1.843v-9.984h1.517l.249 1.478q.844-1.766 2.535-1.766.557 0 1.094.134v1.844a4.6 4.6 0 0 0-1.171-.173q-1.114 0-1.747.902-.634.903-.634 2.554zM153.99 17.12h1.997q-.423 1.517-1.671 2.38-1.17.788-2.803.788-2.361 0-3.686-1.498-1.21-1.401-1.21-3.782 0-2.707 1.536-4.109 1.267-1.17 3.264-1.171 2.343 0 3.533 1.517 1.152 1.459 1.152 4.166h-7.603q.115 1.767 1.075 2.63.787.692 1.997.692.94 0 1.632-.519a2.2 2.2 0 0 0 .787-1.094m-2.534-5.914q-1.23 0-1.978.768-.71.71-.902 1.978h5.644q-.096-1.44-.96-2.15-.69-.596-1.804-.596M145.734 11.763l-5.933 6.663h5.933V20h-8.102v-1.747l5.933-6.682h-5.645v-1.555h7.814zM137.34 10.016l-3.475 10.119q-.691 2.015-1.325 2.745-.748.864-1.939.864-.5 0-1.19-.173v-1.497q.537.134.96.134.595 0 .921-.422.327-.404.826-1.786h-.595l-3.668-9.984h1.997l2.823 8.487 2.822-8.487zM126.784 6.176V20h-1.844V6.176zM116.429 12.8h-1.959q.154-1.497 1.421-2.323 1.133-.75 2.861-.749 2.054 0 3.149 1.075.921.922.921 2.381V20h-1.516l-.231-1.363q-1.171 1.65-3.341 1.651-1.708 0-2.668-.922-.788-.768-.788-1.939 0-1.478 1.018-2.285.902-.71 2.765-1.036l2.918-.5v-.499q0-.979-.672-1.478-.596-.442-1.632-.442-2.035 0-2.246 1.613m1.747 5.933q1.171 0 2.035-.768.768-.711.768-1.632v-1.287l-2.477.442q-1.362.23-1.862.71-.403.384-.403 1.037 0 .73.499 1.114.5.384 1.44.384M106.274 20h-1.843v-9.984h1.516l.212 1.267q1.113-1.555 3.033-1.555 1.767 0 2.707 1.094.826.98.826 2.67V20h-1.843v-6.49q0-2.208-2.131-2.208-1.114 0-1.824.768-.654.692-.653 1.767zM103.555 20h-2.169l-1.364-3.495h-6.585L92.054 20H90l5.683-13.824h2.208zM96.758 8.134l-2.688 6.778h5.319z"/></svg>