<svg xmlns="http://www.w3.org/2000/svg" width="131" height="84" fill="none" viewBox="0 0 131 84"><g fill="#000" clip-path="url(#a)"><path d="M45.405 12.446c-2.306.175-4.207 2.618-3.865 5.127.107.917.342 2.335.64 3.884.129.698.278 1.44.428 2.16.372 1.74.836 3.46 1.388 5.15a43 43 0 0 0 2.156 5.476c3.225 6.414 7.58 7.767 10.677 7.767a10 10 0 0 0 4.224-.894 10.2 10.2 0 0 0 3.485-2.597 15.4 15.4 0 0 1-1.43-2.247c-1.368-2.575-2.243-5.542-2.99-8.64a20.4 20.4 0 0 1-1.367 3.578c-.897 1.702-1.516 1.702-1.922 1.702-.875 0-1.794-.96-2.733-2.815a30 30 0 0 1-1.281-3.12 48 48 0 0 1-.726-2.313c-.214-.763-.598-2.116-.77-2.967-.448-2.073-.981-5.476-1.003-5.585-.192-.982-1.324-3.971-4.911-3.666M82.838 21.61c2.285-.895 3.246-3.731 2.221-6.022l-.085-.218a19.4 19.4 0 0 0-1.453-2.684 9.4 9.4 0 0 0-.896-1.266C79.699 7.755 76.26 7.1 74.169 7.1a10.04 10.04 0 0 0-4.223.896 10.2 10.2 0 0 0-3.486 2.595 14.5 14.5 0 0 1 1.345 2.095c1.43 2.64 2.328 6.262 3.075 9.338.406-1.396.876-3.185 1.41-4.189.875-1.636 1.473-1.636 1.879-1.636 1.217 0 2.199 1.832 2.669 2.901 0 0 1.687 4.233 6 2.51"/><path d="m85.635 12.446-.406-.044h-.106q.668 1.141 1.195 2.357l.107.218a6.2 6.2 0 0 1 .137 4.64 6.04 6.04 0 0 1-3.105 3.39 6 6 0 0 1-2.456.544 6.5 6.5 0 0 1-1.708-.261c-.598 2.29-1.537 5.105-2.392 6.807-.854 1.702-1.857 2.814-2.754 2.814-.385 0-1.004 0-1.9-1.701a20.4 20.4 0 0 1-1.367-3.579 69 69 0 0 1-.79-3.054c-.107-.393-.193-.786-.278-1.178-.811-3.448-1.73-7.07-3.31-9.971a16 16 0 0 0-1.003-1.615q-.45-.636-.961-1.222a10.2 10.2 0 0 0-3.496-2.599 10.04 10.04 0 0 0-4.234-.891c-2.072 0-5.51.654-8.435 4.32a6 6 0 0 1 2.33 1.91 6.16 6.16 0 0 1 1.13 2.824c.149 1.091.512 3.207.939 5.215.043.218.085.436.15.676.32-.85.64-1.57.982-2.378l.256-.567c.47-1.07 1.452-2.902 2.648-2.902.427 0 1.025 0 1.9 1.636a19.7 19.7 0 0 1 1.41 3.666c.277.981.555 2.029.79 3.076.085.305.15.61.213.916.854 3.644 1.751 7.157 3.289 10.058q.478.927 1.089 1.768.45.626.96 1.2c2.542 2.814 5.467 3.49 7.688 3.49 3.096 0 7.474-1.352 10.698-7.767 1.644-3.294 3.032-8.16 3.545-10.625.512-2.466.897-4.69 1.067-6.044a4.6 4.6 0 0 0-.102-1.777 4.6 4.6 0 0 0-.763-1.6 4.5 4.5 0 0 0-1.307-1.177 4.4 4.4 0 0 0-1.65-.573M31.868 60.356h5.012L29.592 82.1h-5.75l-5.447-16.408L12.948 82.1h-5.66L0 60.356h5.13L10.3 76.88l5.427-16.524h5.447l5.515 16.613zM58.378 72.974H42.12a6.9 6.9 0 0 0 1.24 3.11 5.6 5.6 0 0 0 2.31 1.837c.94.401 1.955.603 2.98.592a9.7 9.7 0 0 0 3.322-.599 10.9 10.9 0 0 0 3.048-1.694l2.392 3.403a12.2 12.2 0 0 1-4.178 2.348c-1.579.489-3.226.73-4.881.714a11.8 11.8 0 0 1-5.84-1.415 10.1 10.1 0 0 1-3.992-4.016 12.2 12.2 0 0 1-1.434-6.002 12.5 12.5 0 0 1 1.379-5.962 10.1 10.1 0 0 1 3.874-4.036 11.1 11.1 0 0 1 5.702-1.443 9.9 9.9 0 0 1 5.36 1.4 9.73 9.73 0 0 1 3.735 4.045 12.9 12.9 0 0 1 1.323 5.948q.01.686-.082 1.77m-4.827-3.608a6.7 6.7 0 0 0-1.84-3.974 5.1 5.1 0 0 0-1.736-1.056 5.2 5.2 0 0 0-2.015-.305 5.5 5.5 0 0 0-2.12.326 5.4 5.4 0 0 0-1.824 1.117 6.87 6.87 0 0 0-1.896 3.913zM78.944 61.268c1.678.98 3.053 2.39 3.979 4.083a11.84 11.84 0 0 1 1.461 5.88 11.8 11.8 0 0 1-1.461 5.874 10.6 10.6 0 0 1-3.992 4.098 10.8 10.8 0 0 1-5.564 1.462 9.1 9.1 0 0 1-3.979-.824 8.2 8.2 0 0 1-2.916-2.327V82.1h-4.826v-31h4.826v11.842a8.26 8.26 0 0 1 2.916-2.314 9 9 0 0 1 3.979-.83c1.96-.024 3.89.485 5.577 1.47m-2.633 16a6.15 6.15 0 0 0 2.323-2.525 8.08 8.08 0 0 0 0-7.03 6.2 6.2 0 0 0-2.323-2.525 7.1 7.1 0 0 0-6.978 0 6.24 6.24 0 0 0-2.344 2.498 7.45 7.45 0 0 0-.841 3.566 7.4 7.4 0 0 0 .84 3.56 6.24 6.24 0 0 0 2.345 2.497 7.1 7.1 0 0 0 6.978 0zM108.199 72.974H91.948a6.9 6.9 0 0 0 1.24 3.11 5.6 5.6 0 0 0 2.31 1.837c.94.401 1.955.603 2.98.592a9.8 9.8 0 0 0 3.322-.598 10.9 10.9 0 0 0 3.048-1.695l2.386 3.403a12.1 12.1 0 0 1-4.172 2.348c-1.581.489-3.23.73-4.888.714a11.84 11.84 0 0 1-5.84-1.415 10.13 10.13 0 0 1-3.985-4.016 12.2 12.2 0 0 1-1.441-6.002 12.5 12.5 0 0 1 1.379-5.962 10.1 10.1 0 0 1 3.875-4.036 11.1 11.1 0 0 1 5.743-1.463 9.93 9.93 0 0 1 5.357 1.404 9.75 9.75 0 0 1 3.737 4.04 12.9 12.9 0 0 1 1.324 5.949c-.028.476-.076 1.068-.124 1.79m-4.827-3.607a6.73 6.73 0 0 0-1.847-3.948 5.2 5.2 0 0 0-1.727-1.067 5.2 5.2 0 0 0-2.01-.321 5.4 5.4 0 0 0-2.121.325 5.4 5.4 0 0 0-1.823 1.118 6.83 6.83 0 0 0-1.896 3.913zM131.124 82.1h-5.909l-5.585-7.56-5.516 7.56h-5.633l8.274-11.1-8.143-10.644h5.916l5.378 7.262 5.378-7.262H131l-8.178 10.603z"/></g><defs><clipPath id="a"><path fill="#fff" d="M0 .1h131v83H0z"/></clipPath></defs></svg>