<svg xmlns="http://www.w3.org/2000/svg" width="191" height="76" fill="none" viewBox="0 0 191 76"><path fill="#fff" d="M146.41 59.36h-3.243v12.917h3.243zM172.692 63.06a5.7 5.7 0 0 0-2.738-.689c-2.112 0-3.575 1.467-3.575 3.445 0 1.92 1.402 3.448 3.575 3.448a5.8 5.8 0 0 0 2.738-.684v3.466c-.963.296-1.965.45-2.972.458-3.665 0-6.879-2.523-6.879-6.688 0-3.856 2.911-6.684 6.879-6.684a10 10 0 0 1 2.972.461zM138.67 63.06a5.66 5.66 0 0 0-2.738-.689c-2.112 0-3.571 1.467-3.571 3.445 0 1.92 1.398 3.448 3.571 3.448a5.8 5.8 0 0 0 2.738-.684v3.466c-.963.297-1.965.45-2.973.458-3.664 0-6.875-2.523-6.875-6.688 0-3.856 2.908-6.684 6.875-6.684a10 10 0 0 1 2.973.461zM182.945 62.418a3.34 3.34 0 0 0-2.401.989 3.34 3.34 0 0 0-.968 2.409 3.343 3.343 0 0 0 3.369 3.401 3.34 3.34 0 0 0 3.132-2.097c.167-.414.249-.858.241-1.304a3.34 3.34 0 0 0-3.373-3.398m6.825 3.398c0 3.697-2.85 6.688-6.825 6.688s-6.821-2.991-6.821-6.688 2.85-6.684 6.821-6.684 6.825 2.994 6.825 6.684M158.77 62.296a11.2 11.2 0 0 0-2.555-.39c-1.304 0-2.014.437-2.014 1.056 0 .79.959 1.081 1.492 1.233l.901.284c2.115.674 3.081 2.123 3.081 3.697 0 3.243-2.854 4.324-5.351 4.324a19.6 19.6 0 0 1-3.517-.36v-2.973c1.001.29 2.035.451 3.077.48 1.625 0 2.367-.473 2.367-1.208 0-.652-.645-1.03-1.441-1.286l-.695-.223c-1.802-.573-3.33-1.64-3.33-3.78 0-2.414 1.802-4.036 4.814-4.036 1.071.015 2.136.152 3.175.41zM106.057 72.234h-1.416v-12.89h1.718v4.869a3.58 3.58 0 0 1 3.117-1.557 3.7 3.7 0 0 1 3.114 1.441q.983 1.29.983 3.42 0 2.523-1.34 3.866a3.9 3.9 0 0 1-2.883 1.128 3.45 3.45 0 0 1-3.027-1.502zm5.729-4.764q0-1.755-.879-2.63a2.43 2.43 0 0 0-1.827-.72 2.54 2.54 0 0 0-2.076.947 3.7 3.7 0 0 0-.72 2.4c0 1.192.295 2.108.879 2.738a2.46 2.46 0 0 0 1.931.825 2.34 2.34 0 0 0 2.043-.987c.48-.769.707-1.669.649-2.573M122.774 62.923l-3.243 9.433c-.428 1.254-.843 2.108-1.235 2.562a2.28 2.28 0 0 1-1.802.804 4.8 4.8 0 0 1-1.11-.159v-1.405q.441.117.897.126a1.04 1.04 0 0 0 .858-.386c.33-.52.589-1.082.771-1.671h-.555l-3.419-9.312h1.862l2.631 7.928 2.63-7.928zM46.22 13.7h7.27L42.92 45.65h-8.34l-7.9-24.11-7.9 24.11h-8.21L0 13.7h7.44l7.5 24.28 7.87-24.28h7.9l8 24.41zM84.67 32.24H61.09a10.2 10.2 0 0 0 1.8 4.57 8.14 8.14 0 0 0 3.35 2.7c1.364.589 2.835.885 4.32.87a13.9 13.9 0 0 0 4.82-.88 15.7 15.7 0 0 0 4.42-2.49l3.47 5a17.6 17.6 0 0 1-6.06 3.45 22.9 22.9 0 0 1-7.08 1.05 16.93 16.93 0 0 1-8.47-2.08 14.75 14.75 0 0 1-5.79-5.9 18.13 18.13 0 0 1-2.08-8.82 18.55 18.55 0 0 1 2-8.76 14.74 14.74 0 0 1 5.62-5.93 15.93 15.93 0 0 1 8.27-2.12 14.23 14.23 0 0 1 13.19 8 19.15 19.15 0 0 1 1.92 8.74c.01.67-.03 1.54-.12 2.6m-7-5.3A9.88 9.88 0 0 0 75 21.1a7.43 7.43 0 0 0-5.44-2 7.82 7.82 0 0 0-5.72 2.12 10.15 10.15 0 0 0-2.75 5.75zM114.5 15.04a15.56 15.56 0 0 1 5.77 6 17.6 17.6 0 0 1 2.12 8.64 17.54 17.54 0 0 1-2.12 8.63 15.52 15.52 0 0 1-13.86 8.17 13.06 13.06 0 0 1-5.77-1.21 11.9 11.9 0 0 1-4.23-3.42v3.8h-7V.1h7v17.4a12 12 0 0 1 4.23-3.4 12.9 12.9 0 0 1 5.77-1.22 15.5 15.5 0 0 1 8.09 2.16m-3.82 23.51a9 9 0 0 0 3.37-3.71 12 12 0 0 0 0-10.33 9.06 9.06 0 0 0-3.37-3.71 10.19 10.19 0 0 0-10.12 0 9.1 9.1 0 0 0-3.4 3.67 11.06 11.06 0 0 0-1.22 5.24 11 11 0 0 0 1.22 5.23 9.1 9.1 0 0 0 3.4 3.67 10.19 10.19 0 0 0 10.12 0zM156.93 32.24h-23.57a10.16 10.16 0 0 0 1.8 4.57 8.14 8.14 0 0 0 3.35 2.7 10.6 10.6 0 0 0 4.32.87 14 14 0 0 0 4.82-.88 15.7 15.7 0 0 0 4.42-2.49l3.46 5a17.5 17.5 0 0 1-6.05 3.45 23 23 0 0 1-7.09 1.05 17 17 0 0 1-8.47-2.08 14.8 14.8 0 0 1-5.78-5.9 18.14 18.14 0 0 1-2.09-8.82 18.56 18.56 0 0 1 2-8.76 14.74 14.74 0 0 1 5.62-5.93 15.93 15.93 0 0 1 8.33-2.15 14.26 14.26 0 0 1 13.19 8 19.16 19.16 0 0 1 1.92 8.74c-.04.7-.11 1.57-.18 2.63m-7-5.3a9.94 9.94 0 0 0-2.68-5.8 7.45 7.45 0 0 0-5.42-2.04 7.8 7.8 0 0 0-5.72 2.12 10.1 10.1 0 0 0-2.75 5.75zM190.18 45.65h-8.57l-8.1-11.11-8 11.11h-8.17l12-16.31-11.81-15.64h8.58l7.8 10.67 7.8-10.67H190l-11.86 15.58z"/></svg>