<svg xmlns="http://www.w3.org/2000/svg" width="359" height="53" fill="none" viewBox="0 0 359 53"><path fill="#000" d="M46.22 14.15h7.27L42.92 46.1h-8.34l-7.9-24.11-7.9 24.11h-8.21L0 14.15h7.44l7.5 24.28 7.87-24.28h7.9l8 24.41zM84.67 32.69H61.09a10.2 10.2 0 0 0 1.8 4.57 8.14 8.14 0 0 0 3.35 2.7c1.364.589 2.835.885 4.32.87a13.9 13.9 0 0 0 4.82-.88 15.7 15.7 0 0 0 4.42-2.49l3.47 5a17.6 17.6 0 0 1-6.06 3.45 22.9 22.9 0 0 1-7.08 1.05 16.93 16.93 0 0 1-8.47-2.08 14.75 14.75 0 0 1-5.79-5.9 18.13 18.13 0 0 1-2.08-8.82 18.55 18.55 0 0 1 2-8.76 14.74 14.74 0 0 1 5.62-5.93 15.93 15.93 0 0 1 8.27-2.12 14.23 14.23 0 0 1 13.19 8 19.15 19.15 0 0 1 1.92 8.74c.01.67-.03 1.54-.12 2.6m-7-5.3A9.88 9.88 0 0 0 75 21.55a7.43 7.43 0 0 0-5.44-2 7.82 7.82 0 0 0-5.72 2.12 10.15 10.15 0 0 0-2.75 5.75zM114.5 15.49a15.56 15.56 0 0 1 5.77 6 17.6 17.6 0 0 1 2.12 8.64 17.54 17.54 0 0 1-2.12 8.63 15.52 15.52 0 0 1-13.86 8.17 13.06 13.06 0 0 1-5.77-1.21 11.9 11.9 0 0 1-4.23-3.42v3.8h-7V.55h7v17.4a12 12 0 0 1 4.23-3.4 12.9 12.9 0 0 1 5.77-1.22 15.5 15.5 0 0 1 8.09 2.16M110.68 39a9 9 0 0 0 3.37-3.71 12 12 0 0 0 0-10.33 9.06 9.06 0 0 0-3.37-3.71 10.19 10.19 0 0 0-10.12 0 9.1 9.1 0 0 0-3.4 3.67 11.06 11.06 0 0 0-1.22 5.24 11 11 0 0 0 1.22 5.23 9.1 9.1 0 0 0 3.4 3.67 10.19 10.19 0 0 0 10.12 0zM156.93 32.69h-23.57a10.16 10.16 0 0 0 1.8 4.57 8.14 8.14 0 0 0 3.35 2.7c1.363.589 2.835.885 4.32.87a14 14 0 0 0 4.82-.88 15.7 15.7 0 0 0 4.42-2.49l3.46 5a17.5 17.5 0 0 1-6.05 3.45 23 23 0 0 1-7.09 1.05 17 17 0 0 1-8.47-2.08 14.8 14.8 0 0 1-5.78-5.9 18.14 18.14 0 0 1-2.09-8.82 18.56 18.56 0 0 1 2-8.76 14.74 14.74 0 0 1 5.62-5.93 15.93 15.93 0 0 1 8.33-2.15 14.26 14.26 0 0 1 13.19 8 19.16 19.16 0 0 1 1.92 8.74c-.04.7-.11 1.57-.18 2.63m-7-5.3a9.94 9.94 0 0 0-2.68-5.8 7.46 7.46 0 0 0-5.42-2.04 7.8 7.8 0 0 0-5.72 2.12 10.1 10.1 0 0 0-2.75 5.75zM190.18 46.1h-8.57l-8.1-11.11-8 11.11h-8.17l12-16.31-11.81-15.64h8.58l7.8 10.67 7.8-10.67H190l-11.86 15.58zM281.581 22.85h-5.79v23.328h5.79zM328.507 29.532a10 10 0 0 0-4.883-1.243c-3.77 0-6.382 2.649-6.382 6.221 0 3.468 2.503 6.227 6.382 6.227a10.1 10.1 0 0 0 4.883-1.236v6.26a18.2 18.2 0 0 1-5.301.826c-6.543 0-12.281-4.555-12.281-12.077 0-6.963 5.198-12.07 12.281-12.07 1.798.004 3.586.285 5.301.832zM267.767 29.532a10 10 0 0 0-4.889-1.243c-3.77 0-6.375 2.649-6.375 6.221 0 3.468 2.496 6.227 6.375 6.227a10.2 10.2 0 0 0 4.889-1.236v6.26c-1.72.536-3.508.814-5.307.826-6.543 0-12.281-4.555-12.281-12.077 0-6.963 5.198-12.07 12.281-12.07a17.6 17.6 0 0 1 5.307.832zM346.815 28.374a5.9 5.9 0 0 0-2.322.453 6 6 0 0 0-1.965 1.332 6.084 6.084 0 0 0-1.728 4.351 6.08 6.08 0 0 0 1.723 4.358 6 6 0 0 0 1.968 1.333 5.9 5.9 0 0 0 2.324.452 5.9 5.9 0 0 0 2.324-.454 6 6 0 0 0 1.968-1.333 6.06 6.06 0 0 0 1.73-4.356 6.1 6.1 0 0 0-.431-2.353 6.1 6.1 0 0 0-1.301-1.999 6 6 0 0 0-1.967-1.33 5.9 5.9 0 0 0-2.323-.454M359 34.51c0 6.677-5.089 12.078-12.185 12.078s-12.178-5.401-12.178-12.078 5.089-12.07 12.178-12.07S359 27.846 359 34.51M303.653 28.153a19.8 19.8 0 0 0-4.549-.71c-2.329 0-3.596.788-3.596 1.907 0 1.425 1.711 1.952 2.663 2.225l1.609.514c3.776 1.217 5.494 3.833 5.494 6.677 0 5.856-5.089 7.809-9.547 7.809a34.7 34.7 0 0 1-6.279-.651v-5.369c1.788.524 3.634.815 5.494.866 2.895 0 4.227-.853 4.227-2.18 0-1.178-1.152-1.861-2.574-2.323l-1.241-.404c-3.217-1.034-5.945-2.96-5.945-6.826 0-4.36 3.217-7.288 8.595-7.288 1.911.027 3.813.276 5.668.742zM209.528 46.1H207V22.823h3.069v8.792a6.4 6.4 0 0 1 2.421-2.137 6.3 6.3 0 0 1 3.144-.675 6.55 6.55 0 0 1 3.094.613 6.63 6.63 0 0 1 2.464 1.99q1.756 2.33 1.756 6.176 0 4.555-2.393 6.982a7 7 0 0 1-2.365 1.556 6.9 6.9 0 0 1-2.782.48 6.1 6.1 0 0 1-3.053-.641 6.2 6.2 0 0 1-2.351-2.072zm10.223-8.603q0-3.17-1.563-4.75a4.3 4.3 0 0 0-1.496-1 4.3 4.3 0 0 0-1.766-.302 4.46 4.46 0 0 0-2.056.408 4.5 4.5 0 0 0-1.65 1.304 6.75 6.75 0 0 0-1.286 4.334c0 2.153.521 3.806 1.569 4.945.43.491.962.88 1.558 1.137a4.34 4.34 0 0 0 1.891.353 4.14 4.14 0 0 0 2.051-.414 4.2 4.2 0 0 0 1.596-1.369q1.164-1.64 1.165-4.646zM239.39 29.285 233.6 46.32q-1.158 3.396-2.206 4.626c-.395.47-.888.846-1.445 1.097a4 4 0 0 1-1.772.354 8.5 8.5 0 0 1-1.981-.286v-2.538c.523.14 1.06.217 1.601.228a1.83 1.83 0 0 0 1.532-.696 13 13 0 0 0 1.376-3.02h-.99l-6.106-16.814h3.288l4.703 14.316 4.696-14.316z"/></svg>