<svg xmlns="http://www.w3.org/2000/svg" width="191" height="76" fill="none" viewBox="0 0 191 76"><path fill="#000" d="M146.377 59.19h-3.236v12.894h3.236zM172.611 62.885a5.64 5.64 0 0 0-2.729-.687c-2.108 0-3.568 1.463-3.568 3.438 0 1.917 1.399 3.442 3.568 3.442a5.7 5.7 0 0 0 2.729-.684v3.46c-.96.296-1.958.45-2.963.457-3.658 0-6.866-2.518-6.866-6.675 0-3.848 2.906-6.672 6.866-6.672a10 10 0 0 1 2.963.46zM138.655 62.885a5.65 5.65 0 0 0-2.733-.687c-2.108 0-3.564 1.463-3.564 3.438 0 1.917 1.395 3.442 3.564 3.442a5.75 5.75 0 0 0 2.733-.684v3.46c-.962.296-1.961.45-2.967.457-3.658 0-6.866-2.518-6.866-6.675 0-3.848 2.906-6.672 6.866-6.672a10 10 0 0 1 2.967.46zM182.846 62.244a3.335 3.335 0 0 0-3.362 3.392 3.33 3.33 0 0 0 2.063 3.145c.412.17.854.254 1.299.25a3.335 3.335 0 0 0 3.127-2.094c.166-.413.248-.855.24-1.301a3.35 3.35 0 0 0-.969-2.405 3.34 3.34 0 0 0-2.398-.987m6.812 3.392c0 3.69-2.845 6.675-6.812 6.675s-6.808-2.985-6.808-6.675 2.845-6.672 6.808-6.672c3.964 0 6.812 2.99 6.812 6.672M158.717 62.122c-.83-.228-1.683-.36-2.543-.392-1.302 0-2.011.435-2.011 1.054 0 .787.957 1.079 1.489 1.23l.899.284c2.112.672 3.072 2.118 3.072 3.69 0 3.237-2.845 4.316-5.337 4.316a19.6 19.6 0 0 1-3.511-.36v-2.967c1 .29 2.032.45 3.072.478 1.618 0 2.363-.47 2.363-1.205 0-.65-.644-1.028-1.439-1.284l-.694-.222c-1.798-.572-3.323-1.637-3.323-3.773 0-2.41 1.798-4.028 4.805-4.028 1.068.014 2.131.152 3.168.41zM106.097 72.041h-1.413V59.177h1.715v4.858a3.57 3.57 0 0 1 3.111-1.553 3.7 3.7 0 0 1 3.107 1.438q.982 1.288.982 3.413 0 2.518-1.338 3.86a3.9 3.9 0 0 1-2.877 1.125 3.44 3.44 0 0 1-3.021-1.5zm5.715-4.754q0-1.752-.874-2.626a2.42 2.42 0 0 0-1.824-.72 2.52 2.52 0 0 0-2.071.947 3.7 3.7 0 0 0-.719 2.395c0 1.19.291 2.104.877 2.733a2.45 2.45 0 0 0 1.928.824 2.34 2.34 0 0 0 2.039-.986q.651-.906.651-2.567zM122.791 62.748l-3.237 9.415q-.647 1.878-1.233 2.557a2.28 2.28 0 0 1-1.799.802 4.8 4.8 0 0 1-1.107-.158v-1.402q.44.116.895.126a1.03 1.03 0 0 0 .856-.385 7 7 0 0 0 .77-1.67h-.554l-3.413-9.293h1.838l2.629 7.913 2.625-7.913zM46.22 13.7h7.27L42.92 45.65h-8.34l-7.9-24.11-7.9 24.11h-8.21L0 13.7h7.44l7.5 24.28 7.87-24.28h7.9l8 24.41zM84.67 32.24H61.09a10.2 10.2 0 0 0 1.8 4.57 8.14 8.14 0 0 0 3.35 2.7c1.364.589 2.835.885 4.32.87a13.9 13.9 0 0 0 4.82-.88 15.7 15.7 0 0 0 4.42-2.49l3.47 5a17.6 17.6 0 0 1-6.06 3.45 22.9 22.9 0 0 1-7.08 1.05 16.93 16.93 0 0 1-8.47-2.08 14.75 14.75 0 0 1-5.79-5.9 18.13 18.13 0 0 1-2.08-8.82 18.55 18.55 0 0 1 2-8.76 14.74 14.74 0 0 1 5.62-5.93 15.93 15.93 0 0 1 8.27-2.12 14.23 14.23 0 0 1 13.19 8 19.15 19.15 0 0 1 1.92 8.74c.01.67-.03 1.54-.12 2.6m-7-5.3A9.88 9.88 0 0 0 75 21.1a7.43 7.43 0 0 0-5.44-2 7.82 7.82 0 0 0-5.72 2.12 10.15 10.15 0 0 0-2.75 5.75zM114.5 15.04a15.56 15.56 0 0 1 5.77 6 17.6 17.6 0 0 1 2.12 8.64 17.54 17.54 0 0 1-2.12 8.63 15.52 15.52 0 0 1-13.86 8.17 13.06 13.06 0 0 1-5.77-1.21 11.9 11.9 0 0 1-4.23-3.42v3.8h-7V.1h7v17.4a12 12 0 0 1 4.23-3.4 12.9 12.9 0 0 1 5.77-1.22 15.5 15.5 0 0 1 8.09 2.16m-3.82 23.51a9 9 0 0 0 3.37-3.71 12 12 0 0 0 0-10.33 9.06 9.06 0 0 0-3.37-3.71 10.19 10.19 0 0 0-10.12 0 9.1 9.1 0 0 0-3.4 3.67 11.06 11.06 0 0 0-1.22 5.24 11 11 0 0 0 1.22 5.23 9.1 9.1 0 0 0 3.4 3.67 10.19 10.19 0 0 0 10.12 0zM156.93 32.24h-23.57a10.16 10.16 0 0 0 1.8 4.57 8.14 8.14 0 0 0 3.35 2.7 10.6 10.6 0 0 0 4.32.87 14 14 0 0 0 4.82-.88 15.7 15.7 0 0 0 4.42-2.49l3.46 5a17.5 17.5 0 0 1-6.05 3.45 23 23 0 0 1-7.09 1.05 17 17 0 0 1-8.47-2.08 14.8 14.8 0 0 1-5.78-5.9 18.14 18.14 0 0 1-2.09-8.82 18.56 18.56 0 0 1 2-8.76 14.74 14.74 0 0 1 5.62-5.93 15.93 15.93 0 0 1 8.33-2.15 14.26 14.26 0 0 1 13.19 8 19.16 19.16 0 0 1 1.92 8.74c-.04.7-.11 1.57-.18 2.63m-7-5.3a9.94 9.94 0 0 0-2.68-5.8 7.45 7.45 0 0 0-5.42-2.04 7.8 7.8 0 0 0-5.72 2.12 10.1 10.1 0 0 0-2.75 5.75zM190.18 45.65h-8.57l-8.1-11.11-8 11.11h-8.17l12-16.31-11.81-15.64h8.58l7.8 10.67 7.8-10.67H190l-11.86 15.58z"/></svg>