<svg xmlns="http://www.w3.org/2000/svg" width="132" height="107" fill="none" viewBox="0 0 132 107"><path fill="url(#a)" d="M56.366 41.847c-8.89 0-11.89-11.183-12.6-13.364-1.69-5.51-2.181-10.474-2.236-10.964-.327-3 2.073-5.073 4.745-5.073 2.018 0 4.31 1.2 4.636 4.09.055.492.437 4.692 1.91 9.274 1.472 4.8 3.108 6.6 4.254 6.6 1.854 0 3-4.746 3.981-9.273.71-3.328 1.527-6.655 3.11-9.655C66.782 8.3 70.873 7.1 74.473 7.1c7.8 0 11.726 9.055 11.726 11.4 0 3.928-3.218 4.91-4.581 4.91-3.055 0-4.036-2.019-4.91-3.819-.763-1.582-1.58-2.945-2.617-2.945q-.491 0-.982.49c-2.618 2.674-3.49 16.528-8.672 21.82-2.945 2.89-6.109 2.89-8.072 2.89"/><path fill="url(#b)" d="M56.366 41.847c-8.89 0-11.89-11.183-12.6-13.364-1.69-5.51-2.181-10.474-2.236-10.964-.327-3 2.073-5.073 4.745-5.073 2.018 0 4.31 1.2 4.636 4.09.055.492.437 4.692 1.91 9.274 1.472 4.8 3.108 6.6 4.254 6.6 1.854 0 3-4.746 3.981-9.273.71-3.328 1.527-6.655 3.11-9.655C66.782 8.3 70.873 7.1 74.473 7.1c7.8 0 11.726 9.055 11.726 11.4 0 3.928-3.218 4.91-4.581 4.91-3.055 0-4.036-2.019-4.91-3.819-.763-1.582-1.58-2.945-2.617-2.945q-.491 0-.982.49c-2.618 2.674-3.49 16.528-8.672 21.82-2.945 2.89-6.109 2.89-8.072 2.89"/><path fill="url(#c)" d="M56.366 41.847c-8.89 0-11.89-11.183-12.6-13.364-1.69-5.51-2.181-10.474-2.236-10.964-.327-3 2.073-5.073 4.745-5.073 2.018 0 4.31 1.2 4.636 4.09.055.492.437 4.692 1.91 9.274 1.472 4.8 3.108 6.6 4.254 6.6 1.854 0 3-4.746 3.981-9.273.71-3.328 1.527-6.655 3.11-9.655C66.782 8.3 70.873 7.1 74.473 7.1c7.8 0 11.726 9.055 11.726 11.4 0 3.928-3.218 4.91-4.581 4.91-3.055 0-4.036-2.019-4.91-3.819-.763-1.582-1.58-2.945-2.617-2.945q-.491 0-.982.49c-2.618 2.674-3.49 16.528-8.672 21.82-2.945 2.89-6.109 2.89-8.072 2.89"/><path fill="url(#d)" d="M56.366 41.847c-8.89 0-11.89-11.183-12.6-13.364-1.69-5.51-2.181-10.474-2.236-10.964-.327-3 2.073-5.073 4.745-5.073 2.018 0 4.31 1.2 4.636 4.09.055.492.437 4.692 1.91 9.274 1.472 4.8 3.108 6.6 4.254 6.6 1.854 0 3-4.746 3.981-9.273.71-3.328 1.527-6.655 3.11-9.655C66.782 8.3 70.873 7.1 74.473 7.1c7.8 0 11.726 9.055 11.726 11.4 0 3.928-3.218 4.91-4.581 4.91-3.055 0-4.036-2.019-4.91-3.819-.763-1.582-1.58-2.945-2.617-2.945q-.491 0-.982.49c-2.618 2.674-3.49 16.528-8.672 21.82-2.945 2.89-6.109 2.89-8.072 2.89"/><path fill="url(#e)" d="M56.366 41.847c-8.89 0-11.89-11.183-12.6-13.364-1.69-5.51-2.181-10.474-2.236-10.964-.327-3 2.073-5.073 4.745-5.073 2.018 0 4.31 1.2 4.636 4.09.055.492.437 4.692 1.91 9.274 1.472 4.8 3.108 6.6 4.254 6.6 1.854 0 3-4.746 3.981-9.273.71-3.328 1.527-6.655 3.11-9.655C66.782 8.3 70.873 7.1 74.473 7.1c7.8 0 11.726 9.055 11.726 11.4 0 3.928-3.218 4.91-4.581 4.91-3.055 0-4.036-2.019-4.91-3.819-.763-1.582-1.58-2.945-2.617-2.945q-.491 0-.982.49c-2.618 2.674-3.49 16.528-8.672 21.82-2.945 2.89-6.109 2.89-8.072 2.89"/><path fill="url(#f)" d="M56.366 41.847c-8.89 0-11.89-11.183-12.6-13.364-1.69-5.51-2.181-10.474-2.236-10.964-.327-3 2.073-5.073 4.745-5.073 2.018 0 4.31 1.2 4.636 4.09.055.492.437 4.692 1.91 9.274 1.472 4.8 3.108 6.6 4.254 6.6 1.854 0 3-4.746 3.981-9.273.71-3.328 1.527-6.655 3.11-9.655C66.782 8.3 70.873 7.1 74.473 7.1c7.8 0 11.726 9.055 11.726 11.4 0 3.928-3.218 4.91-4.581 4.91-3.055 0-4.036-2.019-4.91-3.819-.763-1.582-1.58-2.945-2.617-2.945q-.491 0-.982.49c-2.618 2.674-3.49 16.528-8.672 21.82-2.945 2.89-6.109 2.89-8.072 2.89"/><path fill="url(#g)" d="M56.366 41.847c-8.89 0-11.89-11.183-12.6-13.364-1.69-5.51-2.181-10.474-2.236-10.964-.327-3 2.073-5.073 4.745-5.073 2.018 0 4.31 1.2 4.636 4.09.055.492.437 4.692 1.91 9.274 1.472 4.8 3.108 6.6 4.254 6.6 1.854 0 3-4.746 3.981-9.273.71-3.328 1.527-6.655 3.11-9.655C66.782 8.3 70.873 7.1 74.473 7.1c7.8 0 11.726 9.055 11.726 11.4 0 3.928-3.218 4.91-4.581 4.91-3.055 0-4.036-2.019-4.91-3.819-.763-1.582-1.58-2.945-2.617-2.945q-.491 0-.982.49c-2.618 2.674-3.49 16.528-8.672 21.82-2.945 2.89-6.109 2.89-8.072 2.89"/><path fill="url(#h)" d="M56.366 41.847c-8.89 0-11.89-11.183-12.6-13.364-1.69-5.51-2.181-10.474-2.236-10.964-.327-3 2.073-5.073 4.745-5.073 2.018 0 4.31 1.2 4.636 4.09.055.492.437 4.692 1.91 9.274 1.472 4.8 3.108 6.6 4.254 6.6 1.854 0 3-4.746 3.981-9.273.71-3.328 1.527-6.655 3.11-9.655C66.782 8.3 70.873 7.1 74.473 7.1c7.8 0 11.726 9.055 11.726 11.4 0 3.928-3.218 4.91-4.581 4.91-3.055 0-4.036-2.019-4.91-3.819-.763-1.582-1.58-2.945-2.617-2.945q-.491 0-.982.49c-2.618 2.674-3.49 16.528-8.672 21.82-2.945 2.89-6.109 2.89-8.072 2.89"/><path fill="url(#i)" d="M56.366 41.847c-8.89 0-11.89-11.183-12.6-13.364-1.69-5.51-2.181-10.474-2.236-10.964-.327-3 2.073-5.073 4.745-5.073 2.018 0 4.31 1.2 4.636 4.09.055.492.437 4.692 1.91 9.274 1.472 4.8 3.108 6.6 4.254 6.6 1.854 0 3-4.746 3.981-9.273.71-3.328 1.527-6.655 3.11-9.655C66.782 8.3 70.873 7.1 74.473 7.1c7.8 0 11.726 9.055 11.726 11.4 0 3.928-3.218 4.91-4.581 4.91-3.055 0-4.036-2.019-4.91-3.819-.763-1.582-1.58-2.945-2.617-2.945q-.491 0-.982.49c-2.618 2.674-3.49 16.528-8.672 21.82-2.945 2.89-6.109 2.89-8.072 2.89"/><path fill="url(#j)" d="M74.474 7.1c-3.546 0-7.69 1.2-10.418 6.382-1.582 3-2.345 6.328-3.109 9.655-.218 1.09-.49 2.182-.763 3.273v15.055c1.363-.382 2.781-1.091 4.2-2.51 5.235-5.29 6.108-19.145 8.672-21.818q.409-.492.981-.491c1.037 0 1.855 1.309 2.618 2.945.873 1.8 1.91 3.819 4.91 3.819 1.363 0 4.58-.982 4.58-4.91 0-2.345-3.872-11.4-11.671-11.4"/><path fill="url(#k)" d="M56.366 41.847c-8.89 0-11.89-11.183-12.6-13.364-1.69-5.51-2.181-10.474-2.236-10.964-.327-3 2.073-5.073 4.745-5.073 2.018 0 4.31 1.2 4.636 4.09.055.492.437 4.692 1.91 9.274 1.472 4.8 3.108 6.6 4.254 6.6 1.854 0 3-4.746 3.981-9.273.71-3.328 1.527-6.655 3.11-9.655C66.782 8.3 70.873 7.1 74.473 7.1c7.8 0 11.726 9.055 11.726 11.4 0 3.928-3.218 4.91-4.581 4.91-3.055 0-4.036-2.019-4.91-3.819-.763-1.582-1.58-2.945-2.617-2.945q-.491 0-.982.49c-2.618 2.674-3.49 16.528-8.672 21.82-2.945 2.89-6.109 2.89-8.072 2.89"/><path fill="url(#l)" d="M56.366 41.847c-8.89 0-11.89-11.183-12.6-13.364-1.69-5.51-2.181-10.474-2.236-10.964-.327-3 2.073-5.073 4.745-5.073 2.018 0 4.31 1.2 4.636 4.09.055.492.437 4.692 1.91 9.274 1.472 4.8 3.108 6.6 4.254 6.6 1.854 0 3-4.746 3.981-9.273.71-3.328 1.527-6.655 3.11-9.655C66.782 8.3 70.873 7.1 74.473 7.1c7.8 0 11.726 9.055 11.726 11.4 0 3.928-3.218 4.91-4.581 4.91-3.055 0-4.036-2.019-4.91-3.819-.763-1.582-1.58-2.945-2.617-2.945q-.491 0-.982.49c-2.618 2.674-3.49 16.528-8.672 21.82-2.945 2.89-6.109 2.89-8.072 2.89"/><path fill="url(#m)" d="M56.366 41.847c-8.89 0-11.89-11.183-12.6-13.364-1.69-5.51-2.181-10.474-2.236-10.964-.327-3 2.073-5.073 4.745-5.073 2.018 0 4.31 1.2 4.636 4.09.055.492.437 4.692 1.91 9.274 1.472 4.8 3.108 6.6 4.254 6.6 1.854 0 3-4.746 3.981-9.273.71-3.328 1.527-6.655 3.11-9.655C66.782 8.3 70.873 7.1 74.473 7.1c7.8 0 11.726 9.055 11.726 11.4 0 3.928-3.218 4.91-4.581 4.91-3.055 0-4.036-2.019-4.91-3.819-.763-1.582-1.58-2.945-2.617-2.945q-.491 0-.982.49c-2.618 2.674-3.49 16.528-8.672 21.82-2.945 2.89-6.109 2.89-8.072 2.89"/><path fill="url(#n)" d="M56.366 41.847c-8.89 0-11.89-11.183-12.6-13.364-1.69-5.51-2.181-10.474-2.236-10.964-.327-3 2.073-5.073 4.745-5.073 2.018 0 4.31 1.2 4.636 4.09.055.492.437 4.692 1.91 9.274 1.472 4.8 3.108 6.6 4.254 6.6 1.854 0 3-4.746 3.981-9.273.71-3.328 1.527-6.655 3.11-9.655C66.782 8.3 70.873 7.1 74.473 7.1c7.8 0 11.726 9.055 11.726 11.4 0 3.928-3.218 4.91-4.581 4.91-3.055 0-4.036-2.019-4.91-3.819-.763-1.582-1.58-2.945-2.617-2.945q-.491 0-.982.49c-2.618 2.674-3.49 16.528-8.672 21.82-2.945 2.89-6.109 2.89-8.072 2.89"/><path fill="url(#o)" d="M56.366 41.847c-8.89 0-11.89-11.183-12.6-13.364-1.69-5.51-2.181-10.474-2.236-10.964-.327-3 2.073-5.073 4.745-5.073 2.018 0 4.31 1.2 4.636 4.09.055.492.437 4.692 1.91 9.274 1.472 4.8 3.108 6.6 4.254 6.6 1.854 0 3-4.746 3.981-9.273.71-3.328 1.527-6.655 3.11-9.655C66.782 8.3 70.873 7.1 74.473 7.1c7.8 0 11.726 9.055 11.726 11.4 0 3.928-3.218 4.91-4.581 4.91-3.055 0-4.036-2.019-4.91-3.819-.763-1.582-1.58-2.945-2.617-2.945q-.491 0-.982.49c-2.618 2.674-3.49 16.528-8.672 21.82-2.945 2.89-6.109 2.89-8.072 2.89"/><path fill="#4A4A4A" d="M84.726 12.446c-.327 0-.709.054-1.036.109 1.636 2.4 2.454 4.855 2.454 5.945 0 3.928-3.218 4.91-4.581 4.91-1.091 0-1.91-.273-2.564-.655v.055c-.218.763-.327 1.636-.6 2.454-.49 1.582-1.2 3.382-1.963 4.8-.818 1.528-1.582 2.4-2.51 2.346-1.09-.055-1.908-1.418-3-5.291a215 215 0 0 1-.98-3.982c-.764-3.328-1.637-6.71-3.164-9.655C64.272 8.627 59.964 7.1 56.528 7.1c-3.164 0-5.564 1.527-7.418 3.437-.491.545-1.09 1.254-1.636 2.072 1.636.382 3.163 1.637 3.436 3.928.054.436.382 3.982 1.527 8.073.327-1.037.818-2.564 1.909-4.964.545-1.146 1.036-1.855 1.473-2.291.381-.436.763-.6 1.09-.6.382 0 1.582.327 2.782 4.473 1.418 5.073 2.51 13.255 6.654 17.618 1.855 1.91 4.418 3.164 7.963 3.164 3.11 0 5.727-1.364 7.582-3.273 3.054-3.163 4.745-8.345 5.345-10.254 1.69-5.455 2.182-10.419 2.236-10.964.328-3-2.236-5.073-4.745-5.073"/><path fill="url(#p)" d="M84.726 12.446c-.327 0-.709.054-1.036.109 1.636 2.4 2.454 4.855 2.454 5.945 0 3.928-3.218 4.91-4.581 4.91-1.091 0-1.91-.273-2.564-.655v.055c-.218.763-.327 1.636-.6 2.454-.49 1.582-1.2 3.382-1.963 4.8-.818 1.528-1.582 2.4-2.51 2.346-1.09-.055-1.908-1.418-3-5.291a215 215 0 0 1-.98-3.982c-.764-3.328-1.637-6.71-3.164-9.655C64.272 8.627 59.964 7.1 56.528 7.1c-3.164 0-5.564 1.527-7.418 3.437-.491.545-1.09 1.254-1.636 2.072 1.636.382 3.163 1.637 3.436 3.928.054.436.382 3.982 1.527 8.073.327-1.037.818-2.564 1.909-4.964.545-1.146 1.036-1.855 1.473-2.291.381-.436.763-.6 1.09-.6.382 0 1.582.327 2.782 4.473 1.418 5.073 2.51 13.255 6.654 17.618 1.855 1.91 4.418 3.164 7.963 3.164 3.11 0 5.727-1.364 7.582-3.273 3.054-3.163 4.745-8.345 5.345-10.254 1.69-5.455 2.182-10.419 2.236-10.964.328-3-2.236-5.073-4.745-5.073"/><path fill="url(#q)" d="M84.726 12.446c-.327 0-.709.054-1.036.109 1.636 2.4 2.454 4.855 2.454 5.945 0 3.928-3.218 4.91-4.581 4.91-1.091 0-1.91-.273-2.564-.655v.055c-.218.763-.327 1.636-.6 2.454-.49 1.582-1.2 3.382-1.963 4.8-.818 1.528-1.582 2.4-2.51 2.346-1.09-.055-1.908-1.418-3-5.291a215 215 0 0 1-.98-3.982c-.764-3.328-1.637-6.71-3.164-9.655C64.272 8.627 59.964 7.1 56.528 7.1c-3.164 0-5.564 1.527-7.418 3.437-.491.545-1.09 1.254-1.636 2.072 1.636.382 3.163 1.637 3.436 3.928.054.436.382 3.982 1.527 8.073.327-1.037.818-2.564 1.909-4.964.545-1.146 1.036-1.855 1.473-2.291.381-.436.763-.6 1.09-.6.382 0 1.582.327 2.782 4.473 1.418 5.073 2.51 13.255 6.654 17.618 1.855 1.91 4.418 3.164 7.963 3.164 3.11 0 5.727-1.364 7.582-3.273 3.054-3.163 4.745-8.345 5.345-10.254 1.69-5.455 2.182-10.419 2.236-10.964.328-3-2.236-5.073-4.745-5.073"/><path fill="url(#r)" d="M84.726 12.446c-.327 0-.709.054-1.036.109 1.636 2.4 2.454 4.855 2.454 5.945 0 3.928-3.218 4.91-4.581 4.91-1.091 0-1.91-.273-2.564-.655v.055c-.218.763-.327 1.636-.6 2.454-.49 1.582-1.2 3.382-1.963 4.8-.818 1.528-1.582 2.4-2.51 2.346-1.09-.055-1.908-1.418-3-5.291a215 215 0 0 1-.98-3.982c-.764-3.328-1.637-6.71-3.164-9.655C64.272 8.627 59.964 7.1 56.528 7.1c-3.164 0-5.564 1.527-7.418 3.437-.491.545-1.09 1.254-1.636 2.072 1.636.382 3.163 1.637 3.436 3.928.054.436.382 3.982 1.527 8.073.327-1.037.818-2.564 1.909-4.964.545-1.146 1.036-1.855 1.473-2.291.381-.436.763-.6 1.09-.6.382 0 1.582.327 2.782 4.473 1.418 5.073 2.51 13.255 6.654 17.618 1.855 1.91 4.418 3.164 7.963 3.164 3.11 0 5.727-1.364 7.582-3.273 3.054-3.163 4.745-8.345 5.345-10.254 1.69-5.455 2.182-10.419 2.236-10.964.328-3-2.236-5.073-4.745-5.073"/><path fill="url(#s)" d="M84.726 12.446c-.327 0-.709.054-1.036.109 1.636 2.4 2.454 4.855 2.454 5.945 0 3.928-3.218 4.91-4.581 4.91-1.091 0-1.91-.273-2.564-.655v.055c-.218.763-.327 1.636-.6 2.454-.49 1.582-1.2 3.382-1.963 4.8-.818 1.528-1.582 2.4-2.51 2.346-1.09-.055-1.908-1.418-3-5.291a215 215 0 0 1-.98-3.982c-.764-3.328-1.637-6.71-3.164-9.655C64.272 8.627 59.964 7.1 56.528 7.1c-3.164 0-5.564 1.527-7.418 3.437-.491.545-1.09 1.254-1.636 2.072 1.636.382 3.163 1.637 3.436 3.928.054.436.382 3.982 1.527 8.073.327-1.037.818-2.564 1.909-4.964.545-1.146 1.036-1.855 1.473-2.291.381-.436.763-.6 1.09-.6.382 0 1.582.327 2.782 4.473 1.418 5.073 2.51 13.255 6.654 17.618 1.855 1.91 4.418 3.164 7.963 3.164 3.11 0 5.727-1.364 7.582-3.273 3.054-3.163 4.745-8.345 5.345-10.254 1.69-5.455 2.182-10.419 2.236-10.964.328-3-2.236-5.073-4.745-5.073"/><path fill="url(#t)" d="M84.726 12.446c-.327 0-.709.054-1.036.109 1.636 2.4 2.454 4.855 2.454 5.945 0 3.928-3.218 4.91-4.581 4.91-1.091 0-1.91-.273-2.564-.655v.055c-.218.763-.327 1.636-.6 2.454-.49 1.582-1.2 3.382-1.963 4.8-.818 1.528-1.582 2.4-2.51 2.346-1.09-.055-1.908-1.418-3-5.291a215 215 0 0 1-.98-3.982c-.764-3.328-1.637-6.71-3.164-9.655C64.272 8.627 59.964 7.1 56.528 7.1c-3.164 0-5.564 1.527-7.418 3.437-.491.545-1.09 1.254-1.636 2.072 1.636.382 3.163 1.637 3.436 3.928.054.436.382 3.982 1.527 8.073.327-1.037.818-2.564 1.909-4.964.545-1.146 1.036-1.855 1.473-2.291.381-.436.763-.6 1.09-.6.382 0 1.582.327 2.782 4.473 1.418 5.073 2.51 13.255 6.654 17.618 1.855 1.91 4.418 3.164 7.963 3.164 3.11 0 5.727-1.364 7.582-3.273 3.054-3.163 4.745-8.345 5.345-10.254 1.69-5.455 2.182-10.419 2.236-10.964.328-3-2.236-5.073-4.745-5.073"/><path fill="url(#u)" d="M84.726 12.446c-.327 0-.709.054-1.036.109 1.636 2.4 2.454 4.855 2.454 5.945 0 3.928-3.218 4.91-4.581 4.91-1.091 0-1.91-.273-2.564-.655v.055c-.218.763-.327 1.636-.6 2.454-.49 1.582-1.2 3.382-1.963 4.8-.818 1.528-1.582 2.4-2.51 2.346-1.09-.055-1.908-1.418-3-5.291a215 215 0 0 1-.98-3.982c-.764-3.328-1.637-6.71-3.164-9.655C64.272 8.627 59.964 7.1 56.528 7.1c-3.164 0-5.564 1.527-7.418 3.437-.491.545-1.09 1.254-1.636 2.072 1.636.382 3.163 1.637 3.436 3.928.054.436.382 3.982 1.527 8.073.327-1.037.818-2.564 1.909-4.964.545-1.146 1.036-1.855 1.473-2.291.381-.436.763-.6 1.09-.6.382 0 1.582.327 2.782 4.473 1.418 5.073 2.51 13.255 6.654 17.618 1.855 1.91 4.418 3.164 7.963 3.164 3.11 0 5.727-1.364 7.582-3.273 3.054-3.163 4.745-8.345 5.345-10.254 1.69-5.455 2.182-10.419 2.236-10.964.328-3-2.236-5.073-4.745-5.073"/><path fill="url(#v)" d="M84.726 12.446c-.327 0-.709.054-1.036.109 1.636 2.4 2.454 4.855 2.454 5.945 0 3.928-3.218 4.91-4.581 4.91-1.091 0-1.91-.273-2.564-.655v.055c-.218.763-.327 1.636-.6 2.454-.49 1.582-1.2 3.382-1.963 4.8-.818 1.528-1.582 2.4-2.51 2.346-1.09-.055-1.908-1.418-3-5.291a215 215 0 0 1-.98-3.982c-.764-3.328-1.637-6.71-3.164-9.655C64.272 8.627 59.964 7.1 56.528 7.1c-3.164 0-5.564 1.527-7.418 3.437-.491.545-1.09 1.254-1.636 2.072 1.636.382 3.163 1.637 3.436 3.928.054.436.382 3.982 1.527 8.073.327-1.037.818-2.564 1.909-4.964.545-1.146 1.036-1.855 1.473-2.291.381-.436.763-.6 1.09-.6.382 0 1.582.327 2.782 4.473 1.418 5.073 2.51 13.255 6.654 17.618 1.855 1.91 4.418 3.164 7.963 3.164 3.11 0 5.727-1.364 7.582-3.273 3.054-3.163 4.745-8.345 5.345-10.254 1.69-5.455 2.182-10.419 2.236-10.964.328-3-2.236-5.073-4.745-5.073"/><path fill="url(#w)" d="M84.726 12.446c-.327 0-.709.054-1.036.109 1.636 2.4 2.454 4.855 2.454 5.945 0 3.928-3.218 4.91-4.581 4.91-1.091 0-1.91-.273-2.564-.655v.055c-.218.763-.327 1.636-.6 2.454-.49 1.582-1.2 3.382-1.963 4.8-.818 1.528-1.582 2.4-2.51 2.346-1.09-.055-1.908-1.418-3-5.291a215 215 0 0 1-.98-3.982c-.764-3.328-1.637-6.71-3.164-9.655C64.272 8.627 59.964 7.1 56.528 7.1c-3.164 0-5.564 1.527-7.418 3.437-.491.545-1.09 1.254-1.636 2.072 1.636.382 3.163 1.637 3.436 3.928.054.436.382 3.982 1.527 8.073.327-1.037.818-2.564 1.909-4.964.545-1.146 1.036-1.855 1.473-2.291.381-.436.763-.6 1.09-.6.382 0 1.582.327 2.782 4.473 1.418 5.073 2.51 13.255 6.654 17.618 1.855 1.91 4.418 3.164 7.963 3.164 3.11 0 5.727-1.364 7.582-3.273 3.054-3.163 4.745-8.345 5.345-10.254 1.69-5.455 2.182-10.419 2.236-10.964.328-3-2.236-5.073-4.745-5.073"/><path fill="url(#x)" d="M84.726 12.446c-.327 0-.709.054-1.036.109 1.636 2.4 2.454 4.855 2.454 5.945 0 3.928-3.218 4.91-4.581 4.91-1.091 0-1.91-.273-2.564-.655v.055c-.218.763-.327 1.636-.6 2.454-.49 1.582-1.2 3.382-1.963 4.8-.818 1.528-1.582 2.4-2.51 2.346-1.09-.055-1.908-1.418-3-5.291a215 215 0 0 1-.98-3.982c-.764-3.328-1.637-6.71-3.164-9.655C64.272 8.627 59.964 7.1 56.528 7.1c-3.164 0-5.564 1.527-7.418 3.437-.491.545-1.09 1.254-1.636 2.072 1.636.382 3.163 1.637 3.436 3.928.054.436.382 3.982 1.527 8.073.327-1.037.818-2.564 1.909-4.964.545-1.146 1.036-1.855 1.473-2.291.381-.436.763-.6 1.09-.6.382 0 1.582.327 2.782 4.473 1.418 5.073 2.51 13.255 6.654 17.618 1.855 1.91 4.418 3.164 7.963 3.164 3.11 0 5.727-1.364 7.582-3.273 3.054-3.163 4.745-8.345 5.345-10.254 1.69-5.455 2.182-10.419 2.236-10.964.328-3-2.236-5.073-4.745-5.073"/><path fill="url(#y)" d="M84.726 12.446c-.327 0-.709.054-1.036.109 1.636 2.4 2.454 4.855 2.454 5.945 0 3.928-3.218 4.91-4.581 4.91-1.091 0-1.91-.273-2.564-.655v.055c-.218.763-.327 1.636-.6 2.454-.49 1.582-1.2 3.382-1.963 4.8-.818 1.528-1.582 2.4-2.51 2.346-1.09-.055-1.908-1.418-3-5.291a215 215 0 0 1-.98-3.982c-.764-3.328-1.637-6.71-3.164-9.655C64.272 8.627 59.964 7.1 56.528 7.1c-3.164 0-5.564 1.527-7.418 3.437-.491.545-1.09 1.254-1.636 2.072 1.636.382 3.163 1.637 3.436 3.928.054.436.382 3.982 1.527 8.073.327-1.037.818-2.564 1.909-4.964.545-1.146 1.036-1.855 1.473-2.291.381-.436.763-.6 1.09-.6.382 0 1.582.327 2.782 4.473 1.418 5.073 2.51 13.255 6.654 17.618 1.855 1.91 4.418 3.164 7.963 3.164 3.11 0 5.727-1.364 7.582-3.273 3.054-3.163 4.745-8.345 5.345-10.254 1.69-5.455 2.182-10.419 2.236-10.964.328-3-2.236-5.073-4.745-5.073"/><path fill="url(#z)" d="M84.726 12.446c-.327 0-.709.054-1.036.109 1.636 2.4 2.454 4.855 2.454 5.945 0 3.928-3.218 4.91-4.581 4.91-1.091 0-1.91-.273-2.564-.655v.055c-.218.763-.327 1.636-.6 2.454-.49 1.582-1.2 3.382-1.963 4.8-.818 1.528-1.582 2.4-2.51 2.346-1.09-.055-1.908-1.418-3-5.291a215 215 0 0 1-.98-3.982c-.764-3.328-1.637-6.71-3.164-9.655C64.272 8.627 59.964 7.1 56.528 7.1c-3.164 0-5.564 1.527-7.418 3.437-.491.545-1.09 1.254-1.636 2.072 1.636.382 3.163 1.637 3.436 3.928.054.436.382 3.982 1.527 8.073.327-1.037.818-2.564 1.909-4.964.545-1.146 1.036-1.855 1.473-2.291.381-.436.763-.6 1.09-.6.382 0 1.582.327 2.782 4.473 1.418 5.073 2.51 13.255 6.654 17.618 1.855 1.91 4.418 3.164 7.963 3.164 3.11 0 5.727-1.364 7.582-3.273 3.054-3.163 4.745-8.345 5.345-10.254 1.69-5.455 2.182-10.419 2.236-10.964.328-3-2.236-5.073-4.745-5.073"/><path fill="url(#A)" d="M84.726 12.446c-.327 0-.709.054-1.036.109 1.636 2.4 2.454 4.855 2.454 5.945 0 3.928-3.218 4.91-4.581 4.91-1.091 0-1.91-.273-2.564-.655v.055c-.218.763-.327 1.636-.6 2.454-.49 1.582-1.2 3.382-1.963 4.8-.818 1.528-1.582 2.4-2.51 2.346-1.09-.055-1.908-1.418-3-5.291a215 215 0 0 1-.98-3.982c-.764-3.328-1.637-6.71-3.164-9.655C64.272 8.627 59.964 7.1 56.528 7.1c-3.164 0-5.564 1.527-7.418 3.437-.491.545-1.09 1.254-1.636 2.072 1.636.382 3.163 1.637 3.436 3.928.054.436.382 3.982 1.527 8.073.327-1.037.818-2.564 1.909-4.964.545-1.146 1.036-1.855 1.473-2.291.381-.436.763-.6 1.09-.6.382 0 1.582.327 2.782 4.473 1.418 5.073 2.51 13.255 6.654 17.618 1.855 1.91 4.418 3.164 7.963 3.164 3.11 0 5.727-1.364 7.582-3.273 3.054-3.163 4.745-8.345 5.345-10.254 1.69-5.455 2.182-10.419 2.236-10.964.328-3-2.236-5.073-4.745-5.073"/><path fill="url(#B)" d="M84.726 12.446c-.327 0-.709.054-1.036.109 1.636 2.4 2.454 4.855 2.454 5.945 0 3.928-3.218 4.91-4.581 4.91-1.091 0-1.91-.273-2.564-.655v.055c-.218.763-.327 1.636-.6 2.454-.49 1.582-1.2 3.382-1.963 4.8-.818 1.528-1.582 2.4-2.51 2.346-1.09-.055-1.908-1.418-3-5.291a215 215 0 0 1-.98-3.982c-.764-3.328-1.637-6.71-3.164-9.655C64.272 8.627 59.964 7.1 56.528 7.1c-3.164 0-5.564 1.527-7.418 3.437-.491.545-1.09 1.254-1.636 2.072 1.636.382 3.163 1.637 3.436 3.928.054.436.382 3.982 1.527 8.073.327-1.037.818-2.564 1.909-4.964.545-1.146 1.036-1.855 1.473-2.291.381-.436.763-.6 1.09-.6.382 0 1.582.327 2.782 4.473 1.418 5.073 2.51 13.255 6.654 17.618 1.855 1.91 4.418 3.164 7.963 3.164 3.11 0 5.727-1.364 7.582-3.273 3.054-3.163 4.745-8.345 5.345-10.254 1.69-5.455 2.182-10.419 2.236-10.964.328-3-2.236-5.073-4.745-5.073"/><path fill="#000" d="M31.868 60.544h5.012l-7.288 22.188h-5.75l-5.447-16.743-5.447 16.743h-5.66L0 60.544h5.13l5.17 16.862 5.427-16.862h5.447l5.515 16.952zM58.378 73.42H42.12a7.1 7.1 0 0 0 1.24 3.173 5.6 5.6 0 0 0 2.31 1.875c.94.41 1.955.615 2.98.605a9.6 9.6 0 0 0 3.322-.612 10.8 10.8 0 0 0 3.048-1.729l2.392 3.472a12.1 12.1 0 0 1-4.178 2.396c-1.579.5-3.226.746-4.881.73a11.6 11.6 0 0 1-5.84-1.445 10.2 10.2 0 0 1-3.992-4.097 12.67 12.67 0 0 1-1.434-6.125 12.96 12.96 0 0 1 1.379-6.084 10.2 10.2 0 0 1 3.874-4.118 10.9 10.9 0 0 1 5.702-1.472 9.76 9.76 0 0 1 5.36 1.429 9.86 9.86 0 0 1 3.735 4.127 13.4 13.4 0 0 1 1.323 6.07c.007.464-.02 1.069-.082 1.805m-4.827-3.68a6.9 6.9 0 0 0-1.84-4.056 5.09 5.09 0 0 0-3.75-1.389 5.36 5.36 0 0 0-3.945 1.472 7.07 7.07 0 0 0-1.896 3.993zM78.944 61.475c1.678 1 3.053 2.44 3.979 4.167a12.3 12.3 0 0 1 1.461 6 12.25 12.25 0 0 1-1.461 5.993 10.74 10.74 0 0 1-3.992 4.181 10.64 10.64 0 0 1-5.564 1.492 8.95 8.95 0 0 1-3.979-.84 8.2 8.2 0 0 1-2.916-2.375v2.639h-4.826V51.1h4.826v12.083a8.3 8.3 0 0 1 2.916-2.36 8.86 8.86 0 0 1 3.979-.848c1.96-.024 3.89.495 5.577 1.5m-2.633 16.327a6.23 6.23 0 0 0 2.323-2.577 8.38 8.38 0 0 0 0-7.173 6.3 6.3 0 0 0-2.323-2.577 6.99 6.99 0 0 0-6.978 0 6.3 6.3 0 0 0-2.344 2.549 7.7 7.7 0 0 0-.841 3.639 7.7 7.7 0 0 0 .84 3.632 6.3 6.3 0 0 0 2.345 2.548 6.99 6.99 0 0 0 6.978 0zM108.199 73.42H91.948a7.1 7.1 0 0 0 1.24 3.173 5.6 5.6 0 0 0 2.31 1.875c.94.41 1.955.615 2.98.604a9.6 9.6 0 0 0 3.322-.61 10.8 10.8 0 0 0 3.048-1.73l2.386 3.472a12 12 0 0 1-4.172 2.396c-1.581.5-3.23.745-4.888.73a11.65 11.65 0 0 1-5.84-1.445 10.24 10.24 0 0 1-3.985-4.097 12.7 12.7 0 0 1-1.441-6.125c-.042-2.111.431-4.2 1.379-6.084a10.2 10.2 0 0 1 3.875-4.118 10.9 10.9 0 0 1 5.743-1.493 9.78 9.78 0 0 1 5.357 1.432 9.87 9.87 0 0 1 3.737 4.124 13.4 13.4 0 0 1 1.324 6.07c-.028.485-.076 1.09-.124 1.826m-4.827-3.68a6.93 6.93 0 0 0-1.847-4.029 5.103 5.103 0 0 0-3.737-1.417 5.34 5.34 0 0 0-3.944 1.473 7.03 7.03 0 0 0-1.896 3.993zM131.124 82.732h-5.909l-5.585-7.715-5.516 7.715h-5.633l8.274-11.326-8.143-10.862h5.916l5.378 7.41 5.378-7.41H131l-8.178 10.82zM65.77 92.135h-2.23v8.954h2.23zM83.859 94.7a3.87 3.87 0 0 0-1.882-.477c-1.453 0-2.46 1.017-2.46 2.388 0 1.331.965 2.39 2.46 2.39a3.9 3.9 0 0 0 1.882-.474v2.402a7 7 0 0 1-2.043.318c-2.522 0-4.734-1.749-4.734-4.636 0-2.672 2.004-4.633 4.734-4.633.693.002 1.382.11 2.043.32zM60.447 94.7a3.9 3.9 0 0 0-1.885-.477c-1.453 0-2.457 1.017-2.457 2.388 0 1.331.962 2.39 2.457 2.39a3.95 3.95 0 0 0 1.885-.474v2.402a7 7 0 0 1-2.046.318c-2.522 0-4.734-1.749-4.734-4.636 0-2.672 2.004-4.633 4.734-4.633.694.002 1.384.11 2.045.32zM90.916 94.256a2.28 2.28 0 0 0-1.653.685 2.32 2.32 0 0 0-.666 1.67 2.33 2.33 0 0 0 .665 1.673 2.3 2.3 0 0 0 1.654.685 2.28 2.28 0 0 0 1.654-.686 2.32 2.32 0 0 0 .667-1.672 2.34 2.34 0 0 0-.668-1.67 2.3 2.3 0 0 0-1.653-.685m4.696 2.355c0 2.563-1.961 4.636-4.696 4.636s-4.694-2.073-4.694-4.636c0-2.562 1.961-4.633 4.694-4.633s4.696 2.076 4.696 4.633M74.28 94.17a7.7 7.7 0 0 0-1.754-.272c-.898 0-1.386.303-1.386.732 0 .547.66.75 1.026.855l.62.197c1.456.467 2.118 1.47 2.118 2.562 0 2.248-1.961 2.997-3.68 2.997a13.4 13.4 0 0 1-2.42-.249v-2.06c.689.2 1.4.312 2.118.331 1.115 0 1.629-.327 1.629-.836 0-.452-.444-.715-.992-.892l-.479-.155c-1.24-.397-2.29-1.136-2.29-2.62 0-1.673 1.239-2.797 3.312-2.797.737.01 1.47.106 2.185.285zM37.999 101.059h-.975v-8.933h1.183V95.5a2.447 2.447 0 0 1 2.145-1.079c.41-.02.82.06 1.193.235.373.174.699.436.95.764q.676.894.677 2.37 0 1.749-.923 2.68a2.69 2.69 0 0 1-1.984.782 2.374 2.374 0 0 1-2.083-1.042zm3.94-3.302q0-1.215-.602-1.823a1.67 1.67 0 0 0-1.258-.5 1.73 1.73 0 0 0-1.428.658 2.6 2.6 0 0 0-.496 1.663q0 1.242.605 1.898a1.687 1.687 0 0 0 1.33.572 1.612 1.612 0 0 0 1.406-.684q.448-.63.448-1.784zM49.51 94.605l-2.232 6.539q-.447 1.303-.85 1.776a1.57 1.57 0 0 1-1.24.556 3.3 3.3 0 0 1-.764-.109v-.974q.303.08.617.087a.7.7 0 0 0 .327-.062.7.7 0 0 0 .263-.205c.226-.362.405-.751.53-1.159h-.381L43.427 94.6h1.267l1.813 5.495 1.81-5.495z"/><defs><radialGradient id="b" cx="0" cy="0" r="1" gradientTransform="matrix(-10.55 -17.64242 14.81594 -8.85978 59.745 25.637)" gradientUnits="userSpaceOnUse"><stop/><stop offset=".408" stop-opacity=".75"/><stop offset=".875" stop-opacity="0"/></radialGradient><radialGradient id="c" cx="0" cy="0" r="1" gradientTransform="rotate(-126.755 42.099 -7.45)scale(16.7656 11.0182)" gradientUnits="userSpaceOnUse"><stop stop-color="#0D0D0D"/><stop offset=".46" stop-color="#090909"/><stop offset="1" stop-opacity="0"/></radialGradient><radialGradient id="d" cx="0" cy="0" r="1" gradientTransform="rotate(-118.874 39.534 -4.396)scale(16.5699 11.4876)" gradientUnits="userSpaceOnUse"><stop/><stop offset=".408" stop-opacity=".79"/><stop offset=".875" stop-opacity="0"/></radialGradient><radialGradient id="e" cx="0" cy="0" r="1" gradientTransform="rotate(85.094 23.323 49.678)scale(13.0564 7.41091)" gradientUnits="userSpaceOnUse"><stop/><stop offset=".233" stop-opacity=".75"/><stop offset=".599" stop-opacity=".301"/><stop offset=".875" stop-opacity="0"/></radialGradient><radialGradient id="f" cx="0" cy="0" r="1" gradientTransform="rotate(57.058 34.694 66.208)scale(15.3514 8.05426)" gradientUnits="userSpaceOnUse"><stop stop-color="#2B2B2B"/><stop offset=".408" stop-color="#323232"/><stop offset="1" stop-color="#323232" stop-opacity=".07"/></radialGradient><radialGradient id="g" cx="0" cy="0" r="1" gradientTransform="rotate(42.8 2.932 56.682)scale(10.0353 13.8699)" gradientUnits="userSpaceOnUse"><stop stop-color="#fff"/><stop offset="1" stop-color="#4A4A4A" stop-opacity="0"/></radialGradient><radialGradient id="h" cx="0" cy="0" r="1" gradientTransform="rotate(-8.843 166.891 -207.228)scale(12.4197 17.1666)" gradientUnits="userSpaceOnUse"><stop stop-color="#fff"/><stop offset="1" stop-color="#4A4A4A" stop-opacity="0"/></radialGradient><radialGradient id="i" cx="0" cy="0" r="1" gradientTransform="matrix(10.90848 -6.81836 9.42404 15.07723 36.838 35.192)" gradientUnits="userSpaceOnUse"><stop stop-color="#fff"/><stop offset="1" stop-color="#4A4A4A" stop-opacity="0"/></radialGradient><radialGradient id="j" cx="0" cy="0" r="1" gradientTransform="matrix(27.21832 30.21872 -30.17347 27.17757 50.516 -5.926)" gradientUnits="userSpaceOnUse"><stop stop-color="#464646"/><stop offset=".745" stop-color="#444" stop-opacity="0"/></radialGradient><radialGradient id="k" cx="0" cy="0" r="1" gradientTransform="rotate(-129.572 45.266 -10.864)scale(13.8618 9.70599)" gradientUnits="userSpaceOnUse"><stop stop-color="#717171"/><stop offset="1" stop-color="#444" stop-opacity="0"/></radialGradient><radialGradient id="l" cx="0" cy="0" r="1" gradientTransform="matrix(.72673 -3.38147 4.72898 1.01633 80.292 25.733)" gradientUnits="userSpaceOnUse"><stop stop-color="#0F0F0F"/><stop offset="1" stop-opacity="0"/></radialGradient><radialGradient id="m" cx="0" cy="0" r="1" gradientTransform="rotate(-151.54 44.39 -2.98)scale(9.35628 6.5736)" gradientUnits="userSpaceOnUse"><stop stop-color="#7C7C7C"/><stop offset=".813" stop-color="#727272" stop-opacity="0"/></radialGradient><radialGradient id="n" cx="0" cy="0" r="1" gradientTransform="matrix(-9.58915 -1.7314 1.2165 -6.73744 86.2 12.828)" gradientUnits="userSpaceOnUse"><stop stop-color="#C4C4C4"/><stop offset=".813" stop-color="#727272" stop-opacity="0"/></radialGradient><radialGradient id="o" cx="0" cy="0" r="1" gradientTransform="rotate(49.629 12.722 39.318)scale(20.0516 20.0039)" gradientUnits="userSpaceOnUse"><stop stop-color="#4C4C4C"/><stop offset="1" stop-color="#494949" stop-opacity="0"/></radialGradient><radialGradient id="q" cx="0" cy="0" r="1" gradientTransform="matrix(8.10558 6.20506 -8.62326 11.26444 80.846 22.787)" gradientUnits="userSpaceOnUse"><stop stop-color="#010101"/><stop offset=".966" stop-color="#010101" stop-opacity="0"/></radialGradient><radialGradient id="t" cx="0" cy="0" r="1" gradientTransform="matrix(11.916 1.77654 -2.64983 17.77356 78.297 23.959)" gradientUnits="userSpaceOnUse"><stop stop-color="#010101"/><stop offset=".593" stop-color="#010101" stop-opacity="0"/></radialGradient><radialGradient id="u" cx="0" cy="0" r="1" gradientTransform="matrix(9.35264 4.29118 -7.64269 16.65727 79.275 25.45)" gradientUnits="userSpaceOnUse"><stop stop-color="#010101"/><stop offset=".757" stop-color="#010101" stop-opacity="0"/></radialGradient><radialGradient id="v" cx="0" cy="0" r="1" gradientTransform="matrix(-.81813 7.9093 -3.40407 -.35211 57.019 22.919)" gradientUnits="userSpaceOnUse"><stop stop-color="#010101"/><stop offset=".885" stop-color="#010101" stop-opacity="0"/></radialGradient><radialGradient id="w" cx="0" cy="0" r="1" gradientTransform="matrix(20.45346 -2.72735 2.78024 20.85015 45.02 25.1)" gradientUnits="userSpaceOnUse"><stop stop-color="#010101" stop-opacity=".5"/><stop offset=".885" stop-color="#010101" stop-opacity="0"/></radialGradient><radialGradient id="x" cx="0" cy="0" r="1" gradientTransform="matrix(22.90785 -1.36367 2.66419 44.75467 47.474 21.828)" gradientUnits="userSpaceOnUse"><stop stop-color="#010101" stop-opacity=".5"/><stop offset=".823" stop-color="#010101" stop-opacity="0"/></radialGradient><radialGradient id="z" cx="0" cy="0" r="1" gradientTransform="rotate(-159.54 28.545 5.08)scale(9.10934 15.5888)" gradientUnits="userSpaceOnUse"><stop stop-color="#010101"/><stop offset=".709" stop-color="#010101" stop-opacity="0"/></radialGradient><radialGradient id="A" cx="0" cy="0" r="1" gradientTransform="matrix(5.99967 9.5457 -6.44194 4.0489 63.564 13.1)" gradientUnits="userSpaceOnUse"><stop stop-color="#fff" stop-opacity=".15"/><stop offset="1" stop-color="#fff" stop-opacity="0"/></radialGradient><linearGradient id="a" x1="81.388" x2="49.997" y1="17.569" y2="27.871" gradientUnits="userSpaceOnUse"><stop stop-color="#7B7B7B"/><stop offset="1" stop-color="#464646"/></linearGradient><linearGradient id="p" x1="88.108" x2="44.474" y1="23.737" y2="23.737" gradientUnits="userSpaceOnUse"><stop stop-color="#3E3E3E" stop-opacity="0"/><stop offset=".461" stop-color="#3E3E3E"/><stop offset="1" stop-color="#3E3E3E" stop-opacity="0"/></linearGradient><linearGradient id="r" x1="99.834" x2="80.471" y1="18.828" y2="31.372" gradientUnits="userSpaceOnUse"><stop stop-color="#fff" stop-opacity=".3"/><stop offset=".966" stop-color="#fff" stop-opacity="0"/></linearGradient><linearGradient id="s" x1="86.472" x2="76.108" y1="42.01" y2="36.829" gradientUnits="userSpaceOnUse"><stop stop-color="#fff" stop-opacity=".3"/><stop offset=".966" stop-color="#fff" stop-opacity="0"/></linearGradient><linearGradient id="y" x1="59.473" x2="70.655" y1="46.374" y2="36.556" gradientUnits="userSpaceOnUse"><stop stop-color="#010101"/><stop offset="1" stop-color="#010101" stop-opacity="0"/></linearGradient><linearGradient id="B" x1="55.928" x2="56.473" y1="4.918" y2="10.1" gradientUnits="userSpaceOnUse"><stop stop-opacity=".5"/><stop offset="1" stop-opacity="0"/></linearGradient></defs></svg>