<svg xmlns="http://www.w3.org/2000/svg" width="240" height="240" fill="none" viewBox="0 0 240 240"><path fill="#fff" fill-rule="evenodd" d="M177 78.254c11.476 0 20.779-9.3 20.779-20.772 0-11.473-9.303-20.773-20.779-20.773s-20.778 9.3-20.778 20.773S165.525 78.254 177 78.254M106.443 36.71c11.475 0 20.778 9.3 20.778 20.772 0 11.473-9.302 20.773-20.778 20.773s-20.779-9.3-20.779-20.773 9.303-20.772 20.779-20.772m-70.558.002c11.476 0 20.779 9.3 20.779 20.772 0 11.473-9.303 20.773-20.779 20.773s-20.779-9.3-20.779-20.773 9.303-20.772 20.78-20.772m175.189 104.466c1.207 3.884 2.496 8.032 3.919 12.454 2.918 10.088 5.31 14.572 7.023 17.782 1.918 3.595 2.984 5.595 2.984 12.078 0 11.277-7.677 20.415-20.215 20.415-16.797 0-24.946-22.81-30.366-37.982-1.57-4.393-3.228-8.755-4.885-13.118q-1.092-2.868-2.172-5.738a3.156 3.156 0 0 0-4.043-1.872 3.137 3.137 0 0 0-1.879 4.027l8.764 23.894a286 286 0 0 1-3.073 6.294c-5.872 11.67-13.121 24.495-27.811 24.495-22.045 0-29.761-19.568-35.2-33.362-.412-1.044-.811-2.056-1.202-3.023l-7.754-20.69a3.156 3.156 0 0 0-4.043-1.872 3.137 3.137 0 0 0-1.879 4.027l10.276 28.287a55 55 0 0 1-1.555 3.432c-6.305 12.667-15.26 23.206-31.081 23.206-22.702 0-30.567-24.336-38.221-48.018l-.757-2.339c-6.701-21.37-7.446-22.93-9.357-26.933v-.001c-.27-.565-.563-1.179-.9-1.905A20.3 20.3 0 0 1 15 114.672c0-11.277 9.174-20.415 20.49-20.415 6.127 0 10.805 2.138 14.603 5.921 7.182 7.154 10.331 17.393 14.833 32.032a799 799 0 0 0 3.231 10.332l2.49 7.834a3.154 3.154 0 0 0 3.932 2.091 3.14 3.14 0 0 0 2.099-3.917l-5.207-17.068c2.205-7.388 4.207-13.723 7.444-20.933 5.03-10.788 14.29-16.292 26.823-16.292 19.12 0 27.603 26.782 31.875 40.271 1.164 3.675 2.36 7.341 3.556 11.006q.75 2.298 1.497 4.597a3.154 3.154 0 0 0 3.932 2.091 3.136 3.136 0 0 0 2.099-3.917l-6.805-22.307c3.597-8.875 6.879-14.585 9.168-18.178l.057-.1c.707-1.273 7.467-13.434 25.332-13.434 6.325 0 13.54 4.679 17.559 8.682 7.524 7.495 11.383 19.916 17.066 38.21" clip-rule="evenodd"/></svg>