<svg xmlns="http://www.w3.org/2000/svg" width="240" height="240" fill="none" viewBox="0 0 240 240"><path fill="url(#a)" d="M64.345 120.789a121.7 121.7 0 0 0 9.144 23.2c1.75 3.272 3.5 6.544 6.676 8.606.55.351 1.157.602 1.792.741 4.68 1.015 7.245-2.814 8.898-6.315a105.6 105.6 0 0 0 5.957-17.037c.29-1.091.569-2.182.848-3.272.536-2.084 1.073-4.189 1.535-6.294l20.65-56.063a46.2 46.2 0 0 1 16.242-13.76 45.4 45.4 0 0 1 20.582-4.925c10.288-.064 20.29 3.437 28.357 9.926 13.502 10.384 21.541 30.835 21.541 30.835a20.9 20.9 0 0 1 1.771 8.464 20.9 20.9 0 0 1-1.557 7.869 20.6 20.6 0 0 1-4.402 6.664 20.2 20.2 0 0 1-6.576 4.445 19.97 19.97 0 0 1-16.302-.391 20.2 20.2 0 0 1-6.936-5.444l-.193-.24a27.5 27.5 0 0 1-3.22-5.759 80 80 0 0 0-3.735-7.504c-.73-1.254-1.546-2.443-2.383-3.621a14.8 14.8 0 0 0-2.544-2.836c-1.899-1.56-4.293-2.181-6.525-.84a3 3 0 0 0-.312.207c-2.296 1.604-3.906 4.843-5.023 7.33-3.219 7.046-5.066 14.267-6.89 21.684a274 274 0 0 0-1.009 4.297l-8.533 28.359-12.031 26.963a46.7 46.7 0 0 1-16.122 13.402 45.9 45.9 0 0 1-20.263 4.901c-29.226.632-43.093-26.178-43.093-26.178-16.647-27.748-21.552-64.353-22.721-76.057-.247-2.432-.258-3.883-.258-3.883a20.37 20.37 0 0 1 2.846-10.401 19.94 19.94 0 0 1 7.726-7.41c3.3-1.7 6.972-2.514 10.669-2.367a20.1 20.1 0 0 1 9.724 3 19.3 19.3 0 0 1 5.795 5.453c2.748 3.97 3.37 8.911 3.918 13.634a188.3 188.3 0 0 0 5.957 30.617"/><path fill="url(#b)" d="M64.345 120.789a121.7 121.7 0 0 0 9.144 23.2c1.75 3.272 3.5 6.544 6.676 8.606.55.351 1.157.602 1.792.741 4.68 1.015 7.245-2.814 8.898-6.315a105.6 105.6 0 0 0 5.957-17.037c.29-1.091.569-2.182.848-3.272.536-2.084 1.073-4.189 1.535-6.294l20.65-56.063a46.2 46.2 0 0 1 16.242-13.76 45.4 45.4 0 0 1 20.582-4.925c10.288-.064 20.29 3.437 28.357 9.926 13.502 10.384 21.541 30.835 21.541 30.835a20.9 20.9 0 0 1 1.771 8.464 20.9 20.9 0 0 1-1.557 7.869 20.6 20.6 0 0 1-4.402 6.664 20.2 20.2 0 0 1-6.576 4.445 19.97 19.97 0 0 1-16.302-.391 20.2 20.2 0 0 1-6.936-5.444l-.193-.24a27.5 27.5 0 0 1-3.22-5.759 80 80 0 0 0-3.735-7.504c-.73-1.254-1.546-2.443-2.383-3.621a14.8 14.8 0 0 0-2.544-2.836c-1.899-1.56-4.293-2.181-6.525-.84a3 3 0 0 0-.312.207c-2.296 1.604-3.906 4.843-5.023 7.33-3.219 7.046-5.066 14.267-6.89 21.684a274 274 0 0 0-1.009 4.297l-8.533 28.359-12.031 26.963a46.7 46.7 0 0 1-16.122 13.402 45.9 45.9 0 0 1-20.263 4.901c-29.226.632-43.093-26.178-43.093-26.178-16.647-27.748-21.552-64.353-22.721-76.057-.247-2.432-.258-3.883-.258-3.883a20.37 20.37 0 0 1 2.846-10.401 19.94 19.94 0 0 1 7.726-7.41c3.3-1.7 6.972-2.514 10.669-2.367a20.1 20.1 0 0 1 9.724 3 19.3 19.3 0 0 1 5.795 5.453c2.748 3.97 3.37 8.911 3.918 13.634a188.3 188.3 0 0 0 5.957 30.617"/><path fill="url(#c)" d="M64.345 120.789a121.7 121.7 0 0 0 9.144 23.2c1.75 3.272 3.5 6.544 6.676 8.606.55.351 1.157.602 1.792.741 4.68 1.015 7.245-2.814 8.898-6.315a105.6 105.6 0 0 0 5.957-17.037c.29-1.091.569-2.182.848-3.272.536-2.084 1.073-4.189 1.535-6.294l20.65-56.063a46.2 46.2 0 0 1 16.242-13.76 45.4 45.4 0 0 1 20.582-4.925c10.288-.064 20.29 3.437 28.357 9.926 13.502 10.384 21.541 30.835 21.541 30.835a20.9 20.9 0 0 1 1.771 8.464 20.9 20.9 0 0 1-1.557 7.869 20.6 20.6 0 0 1-4.402 6.664 20.2 20.2 0 0 1-6.576 4.445 19.97 19.97 0 0 1-16.302-.391 20.2 20.2 0 0 1-6.936-5.444l-.193-.24a27.5 27.5 0 0 1-3.22-5.759 80 80 0 0 0-3.735-7.504c-.73-1.254-1.546-2.443-2.383-3.621a14.8 14.8 0 0 0-2.544-2.836c-1.899-1.56-4.293-2.181-6.525-.84a3 3 0 0 0-.312.207c-2.296 1.604-3.906 4.843-5.023 7.33-3.219 7.046-5.066 14.267-6.89 21.684a274 274 0 0 0-1.009 4.297l-8.533 28.359-12.031 26.963a46.7 46.7 0 0 1-16.122 13.402 45.9 45.9 0 0 1-20.263 4.901c-29.226.632-43.093-26.178-43.093-26.178-16.647-27.748-21.552-64.353-22.721-76.057-.247-2.432-.258-3.883-.258-3.883a20.37 20.37 0 0 1 2.846-10.401 19.94 19.94 0 0 1 7.726-7.41c3.3-1.7 6.972-2.514 10.669-2.367a20.1 20.1 0 0 1 9.724 3 19.3 19.3 0 0 1 5.795 5.453c2.748 3.97 3.37 8.911 3.918 13.634a188.3 188.3 0 0 0 5.957 30.617"/><path fill="url(#d)" d="M64.345 120.789a121.7 121.7 0 0 0 9.144 23.2c1.75 3.272 3.5 6.544 6.676 8.606.55.351 1.157.602 1.792.741 4.68 1.015 7.245-2.814 8.898-6.315a105.6 105.6 0 0 0 5.957-17.037c.29-1.091.569-2.182.848-3.272.536-2.084 1.073-4.189 1.535-6.294l20.65-56.063a46.2 46.2 0 0 1 16.242-13.76 45.4 45.4 0 0 1 20.582-4.925c10.288-.064 20.29 3.437 28.357 9.926 13.502 10.384 21.541 30.835 21.541 30.835a20.9 20.9 0 0 1 1.771 8.464 20.9 20.9 0 0 1-1.557 7.869 20.6 20.6 0 0 1-4.402 6.664 20.2 20.2 0 0 1-6.576 4.445 19.97 19.97 0 0 1-16.302-.391 20.2 20.2 0 0 1-6.936-5.444l-.193-.24a27.5 27.5 0 0 1-3.22-5.759 80 80 0 0 0-3.735-7.504c-.73-1.254-1.546-2.443-2.383-3.621a14.8 14.8 0 0 0-2.544-2.836c-1.899-1.56-4.293-2.181-6.525-.84a3 3 0 0 0-.312.207c-2.296 1.604-3.906 4.843-5.023 7.33-3.219 7.046-5.066 14.267-6.89 21.684a274 274 0 0 0-1.009 4.297l-8.533 28.359-12.031 26.963a46.7 46.7 0 0 1-16.122 13.402 45.9 45.9 0 0 1-20.263 4.901c-29.226.632-43.093-26.178-43.093-26.178-16.647-27.748-21.552-64.353-22.721-76.057-.247-2.432-.258-3.883-.258-3.883a20.37 20.37 0 0 1 2.846-10.401 19.94 19.94 0 0 1 7.726-7.41c3.3-1.7 6.972-2.514 10.669-2.367a20.1 20.1 0 0 1 9.724 3 19.3 19.3 0 0 1 5.795 5.453c2.748 3.97 3.37 8.911 3.918 13.634a188.3 188.3 0 0 0 5.957 30.617"/><path fill="url(#e)" d="M64.345 120.789a121.7 121.7 0 0 0 9.144 23.2c1.75 3.272 3.5 6.544 6.676 8.606.55.351 1.157.602 1.792.741 4.68 1.015 7.245-2.814 8.898-6.315a105.6 105.6 0 0 0 5.957-17.037c.29-1.091.569-2.182.848-3.272.536-2.084 1.073-4.189 1.535-6.294l20.65-56.063a46.2 46.2 0 0 1 16.242-13.76 45.4 45.4 0 0 1 20.582-4.925c10.288-.064 20.29 3.437 28.357 9.926 13.502 10.384 21.541 30.835 21.541 30.835a20.9 20.9 0 0 1 1.771 8.464 20.9 20.9 0 0 1-1.557 7.869 20.6 20.6 0 0 1-4.402 6.664 20.2 20.2 0 0 1-6.576 4.445 19.97 19.97 0 0 1-16.302-.391 20.2 20.2 0 0 1-6.936-5.444l-.193-.24a27.5 27.5 0 0 1-3.22-5.759 80 80 0 0 0-3.735-7.504c-.73-1.254-1.546-2.443-2.383-3.621a14.8 14.8 0 0 0-2.544-2.836c-1.899-1.56-4.293-2.181-6.525-.84a3 3 0 0 0-.312.207c-2.296 1.604-3.906 4.843-5.023 7.33-3.219 7.046-5.066 14.267-6.89 21.684a274 274 0 0 0-1.009 4.297l-8.533 28.359-12.031 26.963a46.7 46.7 0 0 1-16.122 13.402 45.9 45.9 0 0 1-20.263 4.901c-29.226.632-43.093-26.178-43.093-26.178-16.647-27.748-21.552-64.353-22.721-76.057-.247-2.432-.258-3.883-.258-3.883a20.37 20.37 0 0 1 2.846-10.401 19.94 19.94 0 0 1 7.726-7.41c3.3-1.7 6.972-2.514 10.669-2.367a20.1 20.1 0 0 1 9.724 3 19.3 19.3 0 0 1 5.795 5.453c2.748 3.97 3.37 8.911 3.918 13.634a188.3 188.3 0 0 0 5.957 30.617"/><path fill="url(#f)" d="M64.345 120.789a121.7 121.7 0 0 0 9.144 23.2c1.75 3.272 3.5 6.544 6.676 8.606.55.351 1.157.602 1.792.741 4.68 1.015 7.245-2.814 8.898-6.315a105.6 105.6 0 0 0 5.957-17.037c.29-1.091.569-2.182.848-3.272.536-2.084 1.073-4.189 1.535-6.294l20.65-56.063a46.2 46.2 0 0 1 16.242-13.76 45.4 45.4 0 0 1 20.582-4.925c10.288-.064 20.29 3.437 28.357 9.926 13.502 10.384 21.541 30.835 21.541 30.835a20.9 20.9 0 0 1 1.771 8.464 20.9 20.9 0 0 1-1.557 7.869 20.6 20.6 0 0 1-4.402 6.664 20.2 20.2 0 0 1-6.576 4.445 19.97 19.97 0 0 1-16.302-.391 20.2 20.2 0 0 1-6.936-5.444l-.193-.24a27.5 27.5 0 0 1-3.22-5.759 80 80 0 0 0-3.735-7.504c-.73-1.254-1.546-2.443-2.383-3.621a14.8 14.8 0 0 0-2.544-2.836c-1.899-1.56-4.293-2.181-6.525-.84a3 3 0 0 0-.312.207c-2.296 1.604-3.906 4.843-5.023 7.33-3.219 7.046-5.066 14.267-6.89 21.684a274 274 0 0 0-1.009 4.297l-8.533 28.359-12.031 26.963a46.7 46.7 0 0 1-16.122 13.402 45.9 45.9 0 0 1-20.263 4.901c-29.226.632-43.093-26.178-43.093-26.178-16.647-27.748-21.552-64.353-22.721-76.057-.247-2.432-.258-3.883-.258-3.883a20.37 20.37 0 0 1 2.846-10.401 19.94 19.94 0 0 1 7.726-7.41c3.3-1.7 6.972-2.514 10.669-2.367a20.1 20.1 0 0 1 9.724 3 19.3 19.3 0 0 1 5.795 5.453c2.748 3.97 3.37 8.911 3.918 13.634a188.3 188.3 0 0 0 5.957 30.617"/><path fill="url(#g)" d="M64.345 120.789a121.7 121.7 0 0 0 9.144 23.2c1.75 3.272 3.5 6.544 6.676 8.606.55.351 1.157.602 1.792.741 4.68 1.015 7.245-2.814 8.898-6.315a105.6 105.6 0 0 0 5.957-17.037c.29-1.091.569-2.182.848-3.272.536-2.084 1.073-4.189 1.535-6.294l20.65-56.063a46.2 46.2 0 0 1 16.242-13.76 45.4 45.4 0 0 1 20.582-4.925c10.288-.064 20.29 3.437 28.357 9.926 13.502 10.384 21.541 30.835 21.541 30.835a20.9 20.9 0 0 1 1.771 8.464 20.9 20.9 0 0 1-1.557 7.869 20.6 20.6 0 0 1-4.402 6.664 20.2 20.2 0 0 1-6.576 4.445 19.97 19.97 0 0 1-16.302-.391 20.2 20.2 0 0 1-6.936-5.444l-.193-.24a27.5 27.5 0 0 1-3.22-5.759 80 80 0 0 0-3.735-7.504c-.73-1.254-1.546-2.443-2.383-3.621a14.8 14.8 0 0 0-2.544-2.836c-1.899-1.56-4.293-2.181-6.525-.84a3 3 0 0 0-.312.207c-2.296 1.604-3.906 4.843-5.023 7.33-3.219 7.046-5.066 14.267-6.89 21.684a274 274 0 0 0-1.009 4.297l-8.533 28.359-12.031 26.963a46.7 46.7 0 0 1-16.122 13.402 45.9 45.9 0 0 1-20.263 4.901c-29.226.632-43.093-26.178-43.093-26.178-16.647-27.748-21.552-64.353-22.721-76.057-.247-2.432-.258-3.883-.258-3.883a20.37 20.37 0 0 1 2.846-10.401 19.94 19.94 0 0 1 7.726-7.41c3.3-1.7 6.972-2.514 10.669-2.367a20.1 20.1 0 0 1 9.724 3 19.3 19.3 0 0 1 5.795 5.453c2.748 3.97 3.37 8.911 3.918 13.634a188.3 188.3 0 0 0 5.957 30.617"/><path fill="url(#h)" d="M64.345 120.789a121.7 121.7 0 0 0 9.144 23.2c1.75 3.272 3.5 6.544 6.676 8.606.55.351 1.157.602 1.792.741 4.68 1.015 7.245-2.814 8.898-6.315a105.6 105.6 0 0 0 5.957-17.037c.29-1.091.569-2.182.848-3.272.536-2.084 1.073-4.189 1.535-6.294l20.65-56.063a46.2 46.2 0 0 1 16.242-13.76 45.4 45.4 0 0 1 20.582-4.925c10.288-.064 20.29 3.437 28.357 9.926 13.502 10.384 21.541 30.835 21.541 30.835a20.9 20.9 0 0 1 1.771 8.464 20.9 20.9 0 0 1-1.557 7.869 20.6 20.6 0 0 1-4.402 6.664 20.2 20.2 0 0 1-6.576 4.445 19.97 19.97 0 0 1-16.302-.391 20.2 20.2 0 0 1-6.936-5.444l-.193-.24a27.5 27.5 0 0 1-3.22-5.759 80 80 0 0 0-3.735-7.504c-.73-1.254-1.546-2.443-2.383-3.621a14.8 14.8 0 0 0-2.544-2.836c-1.899-1.56-4.293-2.181-6.525-.84a3 3 0 0 0-.312.207c-2.296 1.604-3.906 4.843-5.023 7.33-3.219 7.046-5.066 14.267-6.89 21.684a274 274 0 0 0-1.009 4.297l-8.533 28.359-12.031 26.963a46.7 46.7 0 0 1-16.122 13.402 45.9 45.9 0 0 1-20.263 4.901c-29.226.632-43.093-26.178-43.093-26.178-16.647-27.748-21.552-64.353-22.721-76.057-.247-2.432-.258-3.883-.258-3.883a20.37 20.37 0 0 1 2.846-10.401 19.94 19.94 0 0 1 7.726-7.41c3.3-1.7 6.972-2.514 10.669-2.367a20.1 20.1 0 0 1 9.724 3 19.3 19.3 0 0 1 5.795 5.453c2.748 3.97 3.37 8.911 3.918 13.634a188.3 188.3 0 0 0 5.957 30.617"/><path fill="url(#i)" d="M64.345 120.789a121.7 121.7 0 0 0 9.144 23.2c1.75 3.272 3.5 6.544 6.676 8.606.55.351 1.157.602 1.792.741 4.68 1.015 7.245-2.814 8.898-6.315a105.6 105.6 0 0 0 5.957-17.037c.29-1.091.569-2.182.848-3.272.536-2.084 1.073-4.189 1.535-6.294l20.65-56.063a46.2 46.2 0 0 1 16.242-13.76 45.4 45.4 0 0 1 20.582-4.925c10.288-.064 20.29 3.437 28.357 9.926 13.502 10.384 21.541 30.835 21.541 30.835a20.9 20.9 0 0 1 1.771 8.464 20.9 20.9 0 0 1-1.557 7.869 20.6 20.6 0 0 1-4.402 6.664 20.2 20.2 0 0 1-6.576 4.445 19.97 19.97 0 0 1-16.302-.391 20.2 20.2 0 0 1-6.936-5.444l-.193-.24a27.5 27.5 0 0 1-3.22-5.759 80 80 0 0 0-3.735-7.504c-.73-1.254-1.546-2.443-2.383-3.621a14.8 14.8 0 0 0-2.544-2.836c-1.899-1.56-4.293-2.181-6.525-.84a3 3 0 0 0-.312.207c-2.296 1.604-3.906 4.843-5.023 7.33-3.219 7.046-5.066 14.267-6.89 21.684a274 274 0 0 0-1.009 4.297l-8.533 28.359-12.031 26.963a46.7 46.7 0 0 1-16.122 13.402 45.9 45.9 0 0 1-20.263 4.901c-29.226.632-43.093-26.178-43.093-26.178-16.647-27.748-21.552-64.353-22.721-76.057-.247-2.432-.258-3.883-.258-3.883a20.37 20.37 0 0 1 2.846-10.401 19.94 19.94 0 0 1 7.726-7.41c3.3-1.7 6.972-2.514 10.669-2.367a20.1 20.1 0 0 1 9.724 3 19.3 19.3 0 0 1 5.795 5.453c2.748 3.97 3.37 8.911 3.918 13.634a188.3 188.3 0 0 0 5.957 30.617"/><path fill="url(#j)" d="M64.345 120.789a121.7 121.7 0 0 0 9.144 23.2c1.75 3.272 3.5 6.544 6.676 8.606.55.351 1.157.602 1.792.741 4.68 1.015 7.245-2.814 8.898-6.315a105.6 105.6 0 0 0 5.957-17.037c.29-1.091.569-2.182.848-3.272.536-2.084 1.073-4.189 1.535-6.294l20.65-56.063a46.2 46.2 0 0 1 16.242-13.76 45.4 45.4 0 0 1 20.582-4.925c10.288-.064 20.29 3.437 28.357 9.926 13.502 10.384 21.541 30.835 21.541 30.835a20.9 20.9 0 0 1 1.771 8.464 20.9 20.9 0 0 1-1.557 7.869 20.6 20.6 0 0 1-4.402 6.664 20.2 20.2 0 0 1-6.576 4.445 19.97 19.97 0 0 1-16.302-.391 20.2 20.2 0 0 1-6.936-5.444l-.193-.24a27.5 27.5 0 0 1-3.22-5.759 80 80 0 0 0-3.735-7.504c-.73-1.254-1.546-2.443-2.383-3.621a14.8 14.8 0 0 0-2.544-2.836c-1.899-1.56-4.293-2.181-6.525-.84a3 3 0 0 0-.312.207c-2.296 1.604-3.906 4.843-5.023 7.33-3.219 7.046-5.066 14.267-6.89 21.684a274 274 0 0 0-1.009 4.297l-8.533 28.359-12.031 26.963a46.7 46.7 0 0 1-16.122 13.402 45.9 45.9 0 0 1-20.263 4.901c-29.226.632-43.093-26.178-43.093-26.178-16.647-27.748-21.552-64.353-22.721-76.057-.247-2.432-.258-3.883-.258-3.883a20.37 20.37 0 0 1 2.846-10.401 19.94 19.94 0 0 1 7.726-7.41c3.3-1.7 6.972-2.514 10.669-2.367a20.1 20.1 0 0 1 9.724 3 19.3 19.3 0 0 1 5.795 5.453c2.748 3.97 3.37 8.911 3.918 13.634a188.3 188.3 0 0 0 5.957 30.617"/><path fill="url(#k)" d="M64.345 120.789a121.7 121.7 0 0 0 9.144 23.2c1.75 3.272 3.5 6.544 6.676 8.606.55.351 1.157.602 1.792.741 4.68 1.015 7.245-2.814 8.898-6.315a105.6 105.6 0 0 0 5.957-17.037c.29-1.091.569-2.182.848-3.272.536-2.084 1.073-4.189 1.535-6.294l20.65-56.063a46.2 46.2 0 0 1 16.242-13.76 45.4 45.4 0 0 1 20.582-4.925c10.288-.064 20.29 3.437 28.357 9.926 13.502 10.384 21.541 30.835 21.541 30.835a20.9 20.9 0 0 1 1.771 8.464 20.9 20.9 0 0 1-1.557 7.869 20.6 20.6 0 0 1-4.402 6.664 20.2 20.2 0 0 1-6.576 4.445 19.97 19.97 0 0 1-16.302-.391 20.2 20.2 0 0 1-6.936-5.444l-.193-.24a27.5 27.5 0 0 1-3.22-5.759 80 80 0 0 0-3.735-7.504c-.73-1.254-1.546-2.443-2.383-3.621a14.8 14.8 0 0 0-2.544-2.836c-1.899-1.56-4.293-2.181-6.525-.84a3 3 0 0 0-.312.207c-2.296 1.604-3.906 4.843-5.023 7.33-3.219 7.046-5.066 14.267-6.89 21.684a274 274 0 0 0-1.009 4.297l-8.533 28.359-12.031 26.963a46.7 46.7 0 0 1-16.122 13.402 45.9 45.9 0 0 1-20.263 4.901c-29.226.632-43.093-26.178-43.093-26.178-16.647-27.748-21.552-64.353-22.721-76.057-.247-2.432-.258-3.883-.258-3.883a20.37 20.37 0 0 1 2.846-10.401 19.94 19.94 0 0 1 7.726-7.41c3.3-1.7 6.972-2.514 10.669-2.367a20.1 20.1 0 0 1 9.724 3 19.3 19.3 0 0 1 5.795 5.453c2.748 3.97 3.37 8.911 3.918 13.634a188.3 188.3 0 0 0 5.957 30.617"/><path fill="url(#l)" d="M64.345 120.789a121.7 121.7 0 0 0 9.144 23.2c1.75 3.272 3.5 6.544 6.676 8.606.55.351 1.157.602 1.792.741 4.68 1.015 7.245-2.814 8.898-6.315a105.6 105.6 0 0 0 5.957-17.037c.29-1.091.569-2.182.848-3.272.536-2.084 1.073-4.189 1.535-6.294l20.65-56.063a46.2 46.2 0 0 1 16.242-13.76 45.4 45.4 0 0 1 20.582-4.925c10.288-.064 20.29 3.437 28.357 9.926 13.502 10.384 21.541 30.835 21.541 30.835a20.9 20.9 0 0 1 1.771 8.464 20.9 20.9 0 0 1-1.557 7.869 20.6 20.6 0 0 1-4.402 6.664 20.2 20.2 0 0 1-6.576 4.445 19.97 19.97 0 0 1-16.302-.391 20.2 20.2 0 0 1-6.936-5.444l-.193-.24a27.5 27.5 0 0 1-3.22-5.759 80 80 0 0 0-3.735-7.504c-.73-1.254-1.546-2.443-2.383-3.621a14.8 14.8 0 0 0-2.544-2.836c-1.899-1.56-4.293-2.181-6.525-.84a3 3 0 0 0-.312.207c-2.296 1.604-3.906 4.843-5.023 7.33-3.219 7.046-5.066 14.267-6.89 21.684a274 274 0 0 0-1.009 4.297l-8.533 28.359-12.031 26.963a46.7 46.7 0 0 1-16.122 13.402 45.9 45.9 0 0 1-20.263 4.901c-29.226.632-43.093-26.178-43.093-26.178-16.647-27.748-21.552-64.353-22.721-76.057-.247-2.432-.258-3.883-.258-3.883a20.37 20.37 0 0 1 2.846-10.401 19.94 19.94 0 0 1 7.726-7.41c3.3-1.7 6.972-2.514 10.669-2.367a20.1 20.1 0 0 1 9.724 3 19.3 19.3 0 0 1 5.795 5.453c2.748 3.97 3.37 8.911 3.918 13.634a188.3 188.3 0 0 0 5.957 30.617"/><path fill="url(#m)" d="M64.345 120.789a121.7 121.7 0 0 0 9.144 23.2c1.75 3.272 3.5 6.544 6.676 8.606.55.351 1.157.602 1.792.741 4.68 1.015 7.245-2.814 8.898-6.315a105.6 105.6 0 0 0 5.957-17.037c.29-1.091.569-2.182.848-3.272.536-2.084 1.073-4.189 1.535-6.294l20.65-56.063a46.2 46.2 0 0 1 16.242-13.76 45.4 45.4 0 0 1 20.582-4.925c10.288-.064 20.29 3.437 28.357 9.926 13.502 10.384 21.541 30.835 21.541 30.835a20.9 20.9 0 0 1 1.771 8.464 20.9 20.9 0 0 1-1.557 7.869 20.6 20.6 0 0 1-4.402 6.664 20.2 20.2 0 0 1-6.576 4.445 19.97 19.97 0 0 1-16.302-.391 20.2 20.2 0 0 1-6.936-5.444l-.193-.24a27.5 27.5 0 0 1-3.22-5.759 80 80 0 0 0-3.735-7.504c-.73-1.254-1.546-2.443-2.383-3.621a14.8 14.8 0 0 0-2.544-2.836c-1.899-1.56-4.293-2.181-6.525-.84a3 3 0 0 0-.312.207c-2.296 1.604-3.906 4.843-5.023 7.33-3.219 7.046-5.066 14.267-6.89 21.684a274 274 0 0 0-1.009 4.297l-8.533 28.359-12.031 26.963a46.7 46.7 0 0 1-16.122 13.402 45.9 45.9 0 0 1-20.263 4.901c-29.226.632-43.093-26.178-43.093-26.178-16.647-27.748-21.552-64.353-22.721-76.057-.247-2.432-.258-3.883-.258-3.883a20.37 20.37 0 0 1 2.846-10.401 19.94 19.94 0 0 1 7.726-7.41c3.3-1.7 6.972-2.514 10.669-2.367a20.1 20.1 0 0 1 9.724 3 19.3 19.3 0 0 1 5.795 5.453c2.748 3.97 3.37 8.911 3.918 13.634a188.3 188.3 0 0 0 5.957 30.617"/><path fill="url(#n)" d="M64.345 120.789a121.7 121.7 0 0 0 9.144 23.2c1.75 3.272 3.5 6.544 6.676 8.606.55.351 1.157.602 1.792.741 4.68 1.015 7.245-2.814 8.898-6.315a105.6 105.6 0 0 0 5.957-17.037c.29-1.091.569-2.182.848-3.272.536-2.084 1.073-4.189 1.535-6.294l20.65-56.063a46.2 46.2 0 0 1 16.242-13.76 45.4 45.4 0 0 1 20.582-4.925c10.288-.064 20.29 3.437 28.357 9.926 13.502 10.384 21.541 30.835 21.541 30.835a20.9 20.9 0 0 1 1.771 8.464 20.9 20.9 0 0 1-1.557 7.869 20.6 20.6 0 0 1-4.402 6.664 20.2 20.2 0 0 1-6.576 4.445 19.97 19.97 0 0 1-16.302-.391 20.2 20.2 0 0 1-6.936-5.444l-.193-.24a27.5 27.5 0 0 1-3.22-5.759 80 80 0 0 0-3.735-7.504c-.73-1.254-1.546-2.443-2.383-3.621a14.8 14.8 0 0 0-2.544-2.836c-1.899-1.56-4.293-2.181-6.525-.84a3 3 0 0 0-.312.207c-2.296 1.604-3.906 4.843-5.023 7.33-3.219 7.046-5.066 14.267-6.89 21.684a274 274 0 0 0-1.009 4.297l-8.533 28.359-12.031 26.963a46.7 46.7 0 0 1-16.122 13.402 45.9 45.9 0 0 1-20.263 4.901c-29.226.632-43.093-26.178-43.093-26.178-16.647-27.748-21.552-64.353-22.721-76.057-.247-2.432-.258-3.883-.258-3.883a20.37 20.37 0 0 1 2.846-10.401 19.94 19.94 0 0 1 7.726-7.41c3.3-1.7 6.972-2.514 10.669-2.367a20.1 20.1 0 0 1 9.724 3 19.3 19.3 0 0 1 5.795 5.453c2.748 3.97 3.37 8.911 3.918 13.634a188.3 188.3 0 0 0 5.957 30.617"/><path fill="url(#o)" d="M64.345 120.789a121.7 121.7 0 0 0 9.144 23.2c1.75 3.272 3.5 6.544 6.676 8.606.55.351 1.157.602 1.792.741 4.68 1.015 7.245-2.814 8.898-6.315a105.6 105.6 0 0 0 5.957-17.037c.29-1.091.569-2.182.848-3.272.536-2.084 1.073-4.189 1.535-6.294l20.65-56.063a46.2 46.2 0 0 1 16.242-13.76 45.4 45.4 0 0 1 20.582-4.925c10.288-.064 20.29 3.437 28.357 9.926 13.502 10.384 21.541 30.835 21.541 30.835a20.9 20.9 0 0 1 1.771 8.464 20.9 20.9 0 0 1-1.557 7.869 20.6 20.6 0 0 1-4.402 6.664 20.2 20.2 0 0 1-6.576 4.445 19.97 19.97 0 0 1-16.302-.391 20.2 20.2 0 0 1-6.936-5.444l-.193-.24a27.5 27.5 0 0 1-3.22-5.759 80 80 0 0 0-3.735-7.504c-.73-1.254-1.546-2.443-2.383-3.621a14.8 14.8 0 0 0-2.544-2.836c-1.899-1.56-4.293-2.181-6.525-.84a3 3 0 0 0-.312.207c-2.296 1.604-3.906 4.843-5.023 7.33-3.219 7.046-5.066 14.267-6.89 21.684a274 274 0 0 0-1.009 4.297l-8.533 28.359-12.031 26.963a46.7 46.7 0 0 1-16.122 13.402 45.9 45.9 0 0 1-20.263 4.901c-29.226.632-43.093-26.178-43.093-26.178-16.647-27.748-21.552-64.353-22.721-76.057-.247-2.432-.258-3.883-.258-3.883a20.37 20.37 0 0 1 2.846-10.401 19.94 19.94 0 0 1 7.726-7.41c3.3-1.7 6.972-2.514 10.669-2.367a20.1 20.1 0 0 1 9.724 3 19.3 19.3 0 0 1 5.795 5.453c2.748 3.97 3.37 8.911 3.918 13.634a188.3 188.3 0 0 0 5.957 30.617"/><path fill="url(#p)" d="M64.345 120.789a121.7 121.7 0 0 0 9.144 23.2c1.75 3.272 3.5 6.544 6.676 8.606.55.351 1.157.602 1.792.741 4.68 1.015 7.245-2.814 8.898-6.315a105.6 105.6 0 0 0 5.957-17.037c.29-1.091.569-2.182.848-3.272.536-2.084 1.073-4.189 1.535-6.294l20.65-56.063a46.2 46.2 0 0 1 16.242-13.76 45.4 45.4 0 0 1 20.582-4.925c10.288-.064 20.29 3.437 28.357 9.926 13.502 10.384 21.541 30.835 21.541 30.835a20.9 20.9 0 0 1 1.771 8.464 20.9 20.9 0 0 1-1.557 7.869 20.6 20.6 0 0 1-4.402 6.664 20.2 20.2 0 0 1-6.576 4.445 19.97 19.97 0 0 1-16.302-.391 20.2 20.2 0 0 1-6.936-5.444l-.193-.24a27.5 27.5 0 0 1-3.22-5.759 80 80 0 0 0-3.735-7.504c-.73-1.254-1.546-2.443-2.383-3.621a14.8 14.8 0 0 0-2.544-2.836c-1.899-1.56-4.293-2.181-6.525-.84a3 3 0 0 0-.312.207c-2.296 1.604-3.906 4.843-5.023 7.33-3.219 7.046-5.066 14.267-6.89 21.684a274 274 0 0 0-1.009 4.297l-8.533 28.359-12.031 26.963a46.7 46.7 0 0 1-16.122 13.402 45.9 45.9 0 0 1-20.263 4.901c-29.226.632-43.093-26.178-43.093-26.178-16.647-27.748-21.552-64.353-22.721-76.057-.247-2.432-.258-3.883-.258-3.883a20.37 20.37 0 0 1 2.846-10.401 19.94 19.94 0 0 1 7.726-7.41c3.3-1.7 6.972-2.514 10.669-2.367a20.1 20.1 0 0 1 9.724 3 19.3 19.3 0 0 1 5.795 5.453c2.748 3.97 3.37 8.911 3.918 13.634a188.3 188.3 0 0 0 5.957 30.617"/><path fill="url(#q)" d="M64.345 120.789a121.7 121.7 0 0 0 9.144 23.2c1.75 3.272 3.5 6.544 6.676 8.606.55.351 1.157.602 1.792.741 4.68 1.015 7.245-2.814 8.898-6.315a105.6 105.6 0 0 0 5.957-17.037c.29-1.091.569-2.182.848-3.272.536-2.084 1.073-4.189 1.535-6.294l20.65-56.063a46.2 46.2 0 0 1 16.242-13.76 45.4 45.4 0 0 1 20.582-4.925c10.288-.064 20.29 3.437 28.357 9.926 13.502 10.384 21.541 30.835 21.541 30.835a20.9 20.9 0 0 1 1.771 8.464 20.9 20.9 0 0 1-1.557 7.869 20.6 20.6 0 0 1-4.402 6.664 20.2 20.2 0 0 1-6.576 4.445 19.97 19.97 0 0 1-16.302-.391 20.2 20.2 0 0 1-6.936-5.444l-.193-.24a27.5 27.5 0 0 1-3.22-5.759 80 80 0 0 0-3.735-7.504c-.73-1.254-1.546-2.443-2.383-3.621a14.8 14.8 0 0 0-2.544-2.836c-1.899-1.56-4.293-2.181-6.525-.84a3 3 0 0 0-.312.207c-2.296 1.604-3.906 4.843-5.023 7.33-3.219 7.046-5.066 14.267-6.89 21.684a274 274 0 0 0-1.009 4.297l-8.533 28.359-12.031 26.963a46.7 46.7 0 0 1-16.122 13.402 45.9 45.9 0 0 1-20.263 4.901c-29.226.632-43.093-26.178-43.093-26.178-16.647-27.748-21.552-64.353-22.721-76.057-.247-2.432-.258-3.883-.258-3.883a20.37 20.37 0 0 1 2.846-10.401 19.94 19.94 0 0 1 7.726-7.41c3.3-1.7 6.972-2.514 10.669-2.367a20.1 20.1 0 0 1 9.724 3 19.3 19.3 0 0 1 5.795 5.453c2.748 3.97 3.37 8.911 3.918 13.634a188.3 188.3 0 0 0 5.957 30.617"/><path fill="url(#r)" d="M64.345 120.789a121.7 121.7 0 0 0 9.144 23.2c1.75 3.272 3.5 6.544 6.676 8.606.55.351 1.157.602 1.792.741 4.68 1.015 7.245-2.814 8.898-6.315a105.6 105.6 0 0 0 5.957-17.037c.29-1.091.569-2.182.848-3.272.536-2.084 1.073-4.189 1.535-6.294l20.65-56.063a46.2 46.2 0 0 1 16.242-13.76 45.4 45.4 0 0 1 20.582-4.925c10.288-.064 20.29 3.437 28.357 9.926 13.502 10.384 21.541 30.835 21.541 30.835a20.9 20.9 0 0 1 1.771 8.464 20.9 20.9 0 0 1-1.557 7.869 20.6 20.6 0 0 1-4.402 6.664 20.2 20.2 0 0 1-6.576 4.445 19.97 19.97 0 0 1-16.302-.391 20.2 20.2 0 0 1-6.936-5.444l-.193-.24a27.5 27.5 0 0 1-3.22-5.759 80 80 0 0 0-3.735-7.504c-.73-1.254-1.546-2.443-2.383-3.621a14.8 14.8 0 0 0-2.544-2.836c-1.899-1.56-4.293-2.181-6.525-.84a3 3 0 0 0-.312.207c-2.296 1.604-3.906 4.843-5.023 7.33-3.219 7.046-5.066 14.267-6.89 21.684a274 274 0 0 0-1.009 4.297l-8.533 28.359-12.031 26.963a46.7 46.7 0 0 1-16.122 13.402 45.9 45.9 0 0 1-20.263 4.901c-29.226.632-43.093-26.178-43.093-26.178-16.647-27.748-21.552-64.353-22.721-76.057-.247-2.432-.258-3.883-.258-3.883a20.37 20.37 0 0 1 2.846-10.401 19.94 19.94 0 0 1 7.726-7.41c3.3-1.7 6.972-2.514 10.669-2.367a20.1 20.1 0 0 1 9.724 3 19.3 19.3 0 0 1 5.795 5.453c2.748 3.97 3.37 8.911 3.918 13.634a188.3 188.3 0 0 0 5.957 30.617"/><path fill="url(#s)" d="M64.345 120.789a121.7 121.7 0 0 0 9.144 23.2c1.75 3.272 3.5 6.544 6.676 8.606.55.351 1.157.602 1.792.741 4.68 1.015 7.245-2.814 8.898-6.315a105.6 105.6 0 0 0 5.957-17.037c.29-1.091.569-2.182.848-3.272.536-2.084 1.073-4.189 1.535-6.294l20.65-56.063a46.2 46.2 0 0 1 16.242-13.76 45.4 45.4 0 0 1 20.582-4.925c10.288-.064 20.29 3.437 28.357 9.926 13.502 10.384 21.541 30.835 21.541 30.835a20.9 20.9 0 0 1 1.771 8.464 20.9 20.9 0 0 1-1.557 7.869 20.6 20.6 0 0 1-4.402 6.664 20.2 20.2 0 0 1-6.576 4.445 19.97 19.97 0 0 1-16.302-.391 20.2 20.2 0 0 1-6.936-5.444l-.193-.24a27.5 27.5 0 0 1-3.22-5.759 80 80 0 0 0-3.735-7.504c-.73-1.254-1.546-2.443-2.383-3.621a14.8 14.8 0 0 0-2.544-2.836c-1.899-1.56-4.293-2.181-6.525-.84a3 3 0 0 0-.312.207c-2.296 1.604-3.906 4.843-5.023 7.33-3.219 7.046-5.066 14.267-6.89 21.684a274 274 0 0 0-1.009 4.297l-8.533 28.359-12.031 26.963a46.7 46.7 0 0 1-16.122 13.402 45.9 45.9 0 0 1-20.263 4.901c-29.226.632-43.093-26.178-43.093-26.178-16.647-27.748-21.552-64.353-22.721-76.057-.247-2.432-.258-3.883-.258-3.883a20.37 20.37 0 0 1 2.846-10.401 19.94 19.94 0 0 1 7.726-7.41c3.3-1.7 6.972-2.514 10.669-2.367a20.1 20.1 0 0 1 9.724 3 19.3 19.3 0 0 1 5.795 5.453c2.748 3.97 3.37 8.911 3.918 13.634a188.3 188.3 0 0 0 5.957 30.617"/><path fill="url(#t)" d="M64.345 120.789a121.7 121.7 0 0 0 9.144 23.2c1.75 3.272 3.5 6.544 6.676 8.606.55.351 1.157.602 1.792.741 4.68 1.015 7.245-2.814 8.898-6.315a105.6 105.6 0 0 0 5.957-17.037c.29-1.091.569-2.182.848-3.272.536-2.084 1.073-4.189 1.535-6.294l20.65-56.063a46.2 46.2 0 0 1 16.242-13.76 45.4 45.4 0 0 1 20.582-4.925c10.288-.064 20.29 3.437 28.357 9.926 13.502 10.384 21.541 30.835 21.541 30.835a20.9 20.9 0 0 1 1.771 8.464 20.9 20.9 0 0 1-1.557 7.869 20.6 20.6 0 0 1-4.402 6.664 20.2 20.2 0 0 1-6.576 4.445 19.97 19.97 0 0 1-16.302-.391 20.2 20.2 0 0 1-6.936-5.444l-.193-.24a27.5 27.5 0 0 1-3.22-5.759 80 80 0 0 0-3.735-7.504c-.73-1.254-1.546-2.443-2.383-3.621a14.8 14.8 0 0 0-2.544-2.836c-1.899-1.56-4.293-2.181-6.525-.84a3 3 0 0 0-.312.207c-2.296 1.604-3.906 4.843-5.023 7.33-3.219 7.046-5.066 14.267-6.89 21.684a274 274 0 0 0-1.009 4.297l-8.533 28.359-12.031 26.963a46.7 46.7 0 0 1-16.122 13.402 45.9 45.9 0 0 1-20.263 4.901c-29.226.632-43.093-26.178-43.093-26.178-16.647-27.748-21.552-64.353-22.721-76.057-.247-2.432-.258-3.883-.258-3.883a20.37 20.37 0 0 1 2.846-10.401 19.94 19.94 0 0 1 7.726-7.41c3.3-1.7 6.972-2.514 10.669-2.367a20.1 20.1 0 0 1 9.724 3 19.3 19.3 0 0 1 5.795 5.453c2.748 3.97 3.37 8.911 3.918 13.634a188.3 188.3 0 0 0 5.957 30.617"/><path fill="url(#u)" d="m106.719 99.99 13.126-35.624a46.2 46.2 0 0 1 16.242-13.76 45.4 45.4 0 0 1 20.583-4.924c10.288-.065 20.29 3.436 28.357 9.925 13.502 10.384 21.541 30.835 21.541 30.835a20.9 20.9 0 0 1 1.771 8.464 20.9 20.9 0 0 1-1.558 7.869 20.6 20.6 0 0 1-4.401 6.665 20.2 20.2 0 0 1-6.577 4.445 20 20 0 0 1-7.75 1.549 19.9 19.9 0 0 1-8.552-1.941 20.2 20.2 0 0 1-6.935-5.443l-.194-.24a27.6 27.6 0 0 1-3.219-5.759 80 80 0 0 0-3.736-7.505c-.729-1.254-1.545-2.443-2.382-3.62a14.8 14.8 0 0 0-2.544-2.837c-1.9-1.56-4.293-2.181-6.526-.84a3 3 0 0 0-.311.208c-2.297 1.603-3.907 4.843-5.023 7.33-3.22 7.045-5.066 14.266-6.89 21.683a272 272 0 0 0-1.009 4.298l-8.533 28.359z"/><path fill="url(#v)" d="M202.08 68.173a19.8 19.8 0 0 0-5.055.643 99 99 0 0 1 9.542 17.626 20.9 20.9 0 0 1 1.771 8.464 20.9 20.9 0 0 1-1.558 7.869 20.6 20.6 0 0 1-4.401 6.665 20.2 20.2 0 0 1-6.577 4.445 19.96 19.96 0 0 1-17.967-1.287l-2.083 7.821c-3.778 12.838-6.439 17.8-6.439 17.8a69.7 69.7 0 0 1-5.217 10.024c-1.384 2.083-3.155 4.178-5.581 4.974a5.5 5.5 0 0 1-2.629.262 7 7 0 0 1-2.716-.927 12.1 12.1 0 0 1-3.692-4.669 67 67 0 0 1-2.758-6.293c-1.793-4.429-4.562-15.336-4.562-15.336l-2.865-11.42-2.866-11.507-2.039-7.559c-5.367-19.688-12.794-29.373-12.794-29.373-5.838-8.46-14.109-14.876-23.677-18.368-11.098-4.047-22.743-1.767-22.743-1.767-18.246 3.643-27.83 16.36-32.049 22.48a20.5 20.5 0 0 1 5.484 2.356 19.3 19.3 0 0 1 5.796 5.453c2.748 3.97 3.37 8.912 3.918 13.634a188 188 0 0 0 5.946 30.257C70.45 99.607 77.868 89.9 77.868 89.9a12 12 0 0 1 2.94-2.661 4.8 4.8 0 0 1 1.91-.688 5.53 5.53 0 0 1 3.575.884q.291.196.547.436c.97.874 1.802 1.893 2.469 3.022a66 66 0 0 1 4.003 8.725c2.319 6.632 4.294 14.736 4.294 14.736l5.903 23.647c4.293 16.078 7.931 23.887 7.931 23.887 8.962 20.855 22.668 26.723 22.668 26.723a47.4 47.4 0 0 0 21.66 5.759 44.5 44.5 0 0 0 20.886-4.57 53.4 53.4 0 0 0 18.3-15.041c3.316-3.905 8.2-13.416 8.2-13.416a173.8 173.8 0 0 0 12.611-34.173 222 222 0 0 0 4.604-22.338c.58-3.73 1.127-7.482 1.567-11.245a29.5 29.5 0 0 0-.322-10.722 16 16 0 0 0-.59-1.865c-1.725-4.42-4.923-8.085-9.037-10.352a20.56 20.56 0 0 0-9.907-2.475"/><path fill="url(#w)" d="M202.08 68.173a19.8 19.8 0 0 0-5.055.643 99 99 0 0 1 9.542 17.626 20.9 20.9 0 0 1 1.771 8.464 20.9 20.9 0 0 1-1.558 7.869 20.6 20.6 0 0 1-4.401 6.665 20.2 20.2 0 0 1-6.577 4.445 19.96 19.96 0 0 1-17.967-1.287l-2.083 7.821c-3.778 12.838-6.439 17.8-6.439 17.8a69.7 69.7 0 0 1-5.217 10.024c-1.384 2.083-3.155 4.178-5.581 4.974a5.5 5.5 0 0 1-2.629.262 7 7 0 0 1-2.716-.927 12.1 12.1 0 0 1-3.692-4.669 67 67 0 0 1-2.758-6.293c-1.793-4.429-4.562-15.336-4.562-15.336l-2.865-11.42-2.866-11.507-2.039-7.559c-5.367-19.688-12.794-29.373-12.794-29.373-5.838-8.46-14.109-14.876-23.677-18.368-11.098-4.047-22.743-1.767-22.743-1.767-18.246 3.643-27.83 16.36-32.049 22.48a20.5 20.5 0 0 1 5.484 2.356 19.3 19.3 0 0 1 5.796 5.453c2.748 3.97 3.37 8.912 3.918 13.634a188 188 0 0 0 5.946 30.257C70.45 99.607 77.868 89.9 77.868 89.9a12 12 0 0 1 2.94-2.661 4.8 4.8 0 0 1 1.91-.688 5.53 5.53 0 0 1 3.575.884q.291.196.547.436c.97.874 1.802 1.893 2.469 3.022a66 66 0 0 1 4.003 8.725c2.319 6.632 4.294 14.736 4.294 14.736l5.903 23.647c4.293 16.078 7.931 23.887 7.931 23.887 8.962 20.855 22.668 26.723 22.668 26.723a47.4 47.4 0 0 0 21.66 5.759 44.5 44.5 0 0 0 20.886-4.57 53.4 53.4 0 0 0 18.3-15.041c3.316-3.905 8.2-13.416 8.2-13.416a173.8 173.8 0 0 0 12.611-34.173 222 222 0 0 0 4.604-22.338c.58-3.73 1.127-7.482 1.567-11.245a29.5 29.5 0 0 0-.322-10.722 16 16 0 0 0-.59-1.865c-1.725-4.42-4.923-8.085-9.037-10.352a20.56 20.56 0 0 0-9.907-2.475"/><path fill="url(#x)" d="M202.08 68.173a19.8 19.8 0 0 0-5.055.643 99 99 0 0 1 9.542 17.626 20.9 20.9 0 0 1 1.771 8.464 20.9 20.9 0 0 1-1.558 7.869 20.6 20.6 0 0 1-4.401 6.665 20.2 20.2 0 0 1-6.577 4.445 19.96 19.96 0 0 1-17.967-1.287l-2.083 7.821c-3.778 12.838-6.439 17.8-6.439 17.8a69.7 69.7 0 0 1-5.217 10.024c-1.384 2.083-3.155 4.178-5.581 4.974a5.5 5.5 0 0 1-2.629.262 7 7 0 0 1-2.716-.927 12.1 12.1 0 0 1-3.692-4.669 67 67 0 0 1-2.758-6.293c-1.793-4.429-4.562-15.336-4.562-15.336l-2.865-11.42-2.866-11.507-2.039-7.559c-5.367-19.688-12.794-29.373-12.794-29.373-5.838-8.46-14.109-14.876-23.677-18.368-11.098-4.047-22.743-1.767-22.743-1.767-18.246 3.643-27.83 16.36-32.049 22.48a20.5 20.5 0 0 1 5.484 2.356 19.3 19.3 0 0 1 5.796 5.453c2.748 3.97 3.37 8.912 3.918 13.634a188 188 0 0 0 5.946 30.257C70.45 99.607 77.868 89.9 77.868 89.9a12 12 0 0 1 2.94-2.661 4.8 4.8 0 0 1 1.91-.688 5.53 5.53 0 0 1 3.575.884q.291.196.547.436c.97.874 1.802 1.893 2.469 3.022a66 66 0 0 1 4.003 8.725c2.319 6.632 4.294 14.736 4.294 14.736l5.903 23.647c4.293 16.078 7.931 23.887 7.931 23.887 8.962 20.855 22.668 26.723 22.668 26.723a47.4 47.4 0 0 0 21.66 5.759 44.5 44.5 0 0 0 20.886-4.57 53.4 53.4 0 0 0 18.3-15.041c3.316-3.905 8.2-13.416 8.2-13.416a173.8 173.8 0 0 0 12.611-34.173 222 222 0 0 0 4.604-22.338c.58-3.73 1.127-7.482 1.567-11.245a29.5 29.5 0 0 0-.322-10.722 16 16 0 0 0-.59-1.865c-1.725-4.42-4.923-8.085-9.037-10.352a20.56 20.56 0 0 0-9.907-2.475"/><path fill="url(#y)" d="M202.08 68.173a19.8 19.8 0 0 0-5.055.643 99 99 0 0 1 9.542 17.626 20.9 20.9 0 0 1 1.771 8.464 20.9 20.9 0 0 1-1.558 7.869 20.6 20.6 0 0 1-4.401 6.665 20.2 20.2 0 0 1-6.577 4.445 19.96 19.96 0 0 1-17.967-1.287l-2.083 7.821c-3.778 12.838-6.439 17.8-6.439 17.8a69.7 69.7 0 0 1-5.217 10.024c-1.384 2.083-3.155 4.178-5.581 4.974a5.5 5.5 0 0 1-2.629.262 7 7 0 0 1-2.716-.927 12.1 12.1 0 0 1-3.692-4.669 67 67 0 0 1-2.758-6.293c-1.793-4.429-4.562-15.336-4.562-15.336l-2.865-11.42-2.866-11.507-2.039-7.559c-5.367-19.688-12.794-29.373-12.794-29.373-5.838-8.46-14.109-14.876-23.677-18.368-11.098-4.047-22.743-1.767-22.743-1.767-18.246 3.643-27.83 16.36-32.049 22.48a20.5 20.5 0 0 1 5.484 2.356 19.3 19.3 0 0 1 5.796 5.453c2.748 3.97 3.37 8.912 3.918 13.634a188 188 0 0 0 5.946 30.257C70.45 99.607 77.868 89.9 77.868 89.9a12 12 0 0 1 2.94-2.661 4.8 4.8 0 0 1 1.91-.688 5.53 5.53 0 0 1 3.575.884q.291.196.547.436c.97.874 1.802 1.893 2.469 3.022a66 66 0 0 1 4.003 8.725c2.319 6.632 4.294 14.736 4.294 14.736l5.903 23.647c4.293 16.078 7.931 23.887 7.931 23.887 8.962 20.855 22.668 26.723 22.668 26.723a47.4 47.4 0 0 0 21.66 5.759 44.5 44.5 0 0 0 20.886-4.57 53.4 53.4 0 0 0 18.3-15.041c3.316-3.905 8.2-13.416 8.2-13.416a173.8 173.8 0 0 0 12.611-34.173 222 222 0 0 0 4.604-22.338c.58-3.73 1.127-7.482 1.567-11.245a29.5 29.5 0 0 0-.322-10.722 16 16 0 0 0-.59-1.865c-1.725-4.42-4.923-8.085-9.037-10.352a20.56 20.56 0 0 0-9.907-2.475"/><path fill="url(#z)" d="M202.08 68.173a19.8 19.8 0 0 0-5.055.643 99 99 0 0 1 9.542 17.626 20.9 20.9 0 0 1 1.771 8.464 20.9 20.9 0 0 1-1.558 7.869 20.6 20.6 0 0 1-4.401 6.665 20.2 20.2 0 0 1-6.577 4.445 19.96 19.96 0 0 1-17.967-1.287l-2.083 7.821c-3.778 12.838-6.439 17.8-6.439 17.8a69.7 69.7 0 0 1-5.217 10.024c-1.384 2.083-3.155 4.178-5.581 4.974a5.5 5.5 0 0 1-2.629.262 7 7 0 0 1-2.716-.927 12.1 12.1 0 0 1-3.692-4.669 67 67 0 0 1-2.758-6.293c-1.793-4.429-4.562-15.336-4.562-15.336l-2.865-11.42-2.866-11.507-2.039-7.559c-5.367-19.688-12.794-29.373-12.794-29.373-5.838-8.46-14.109-14.876-23.677-18.368-11.098-4.047-22.743-1.767-22.743-1.767-18.246 3.643-27.83 16.36-32.049 22.48a20.5 20.5 0 0 1 5.484 2.356 19.3 19.3 0 0 1 5.796 5.453c2.748 3.97 3.37 8.912 3.918 13.634a188 188 0 0 0 5.946 30.257C70.45 99.607 77.868 89.9 77.868 89.9a12 12 0 0 1 2.94-2.661 4.8 4.8 0 0 1 1.91-.688 5.53 5.53 0 0 1 3.575.884q.291.196.547.436c.97.874 1.802 1.893 2.469 3.022a66 66 0 0 1 4.003 8.725c2.319 6.632 4.294 14.736 4.294 14.736l5.903 23.647c4.293 16.078 7.931 23.887 7.931 23.887 8.962 20.855 22.668 26.723 22.668 26.723a47.4 47.4 0 0 0 21.66 5.759 44.5 44.5 0 0 0 20.886-4.57 53.4 53.4 0 0 0 18.3-15.041c3.316-3.905 8.2-13.416 8.2-13.416a173.8 173.8 0 0 0 12.611-34.173 222 222 0 0 0 4.604-22.338c.58-3.73 1.127-7.482 1.567-11.245a29.5 29.5 0 0 0-.322-10.722 16 16 0 0 0-.59-1.865c-1.725-4.42-4.923-8.085-9.037-10.352a20.56 20.56 0 0 0-9.907-2.475"/><path fill="url(#A)" d="M202.08 68.173a19.8 19.8 0 0 0-5.055.643 99 99 0 0 1 9.542 17.626 20.9 20.9 0 0 1 1.771 8.464 20.9 20.9 0 0 1-1.558 7.869 20.6 20.6 0 0 1-4.401 6.665 20.2 20.2 0 0 1-6.577 4.445 19.96 19.96 0 0 1-17.967-1.287l-2.083 7.821c-3.778 12.838-6.439 17.8-6.439 17.8a69.7 69.7 0 0 1-5.217 10.024c-1.384 2.083-3.155 4.178-5.581 4.974a5.5 5.5 0 0 1-2.629.262 7 7 0 0 1-2.716-.927 12.1 12.1 0 0 1-3.692-4.669 67 67 0 0 1-2.758-6.293c-1.793-4.429-4.562-15.336-4.562-15.336l-2.865-11.42-2.866-11.507-2.039-7.559c-5.367-19.688-12.794-29.373-12.794-29.373-5.838-8.46-14.109-14.876-23.677-18.368-11.098-4.047-22.743-1.767-22.743-1.767-18.246 3.643-27.83 16.36-32.049 22.48a20.5 20.5 0 0 1 5.484 2.356 19.3 19.3 0 0 1 5.796 5.453c2.748 3.97 3.37 8.912 3.918 13.634a188 188 0 0 0 5.946 30.257C70.45 99.607 77.868 89.9 77.868 89.9a12 12 0 0 1 2.94-2.661 4.8 4.8 0 0 1 1.91-.688 5.53 5.53 0 0 1 3.575.884q.291.196.547.436c.97.874 1.802 1.893 2.469 3.022a66 66 0 0 1 4.003 8.725c2.319 6.632 4.294 14.736 4.294 14.736l5.903 23.647c4.293 16.078 7.931 23.887 7.931 23.887 8.962 20.855 22.668 26.723 22.668 26.723a47.4 47.4 0 0 0 21.66 5.759 44.5 44.5 0 0 0 20.886-4.57 53.4 53.4 0 0 0 18.3-15.041c3.316-3.905 8.2-13.416 8.2-13.416a173.8 173.8 0 0 0 12.611-34.173 222 222 0 0 0 4.604-22.338c.58-3.73 1.127-7.482 1.567-11.245a29.5 29.5 0 0 0-.322-10.722 16 16 0 0 0-.59-1.865c-1.725-4.42-4.923-8.085-9.037-10.352a20.56 20.56 0 0 0-9.907-2.475"/><path fill="url(#B)" d="M202.08 68.173a19.8 19.8 0 0 0-5.055.643 99 99 0 0 1 9.542 17.626 20.9 20.9 0 0 1 1.771 8.464 20.9 20.9 0 0 1-1.558 7.869 20.6 20.6 0 0 1-4.401 6.665 20.2 20.2 0 0 1-6.577 4.445 19.96 19.96 0 0 1-17.967-1.287l-2.083 7.821c-3.778 12.838-6.439 17.8-6.439 17.8a69.7 69.7 0 0 1-5.217 10.024c-1.384 2.083-3.155 4.178-5.581 4.974a5.5 5.5 0 0 1-2.629.262 7 7 0 0 1-2.716-.927 12.1 12.1 0 0 1-3.692-4.669 67 67 0 0 1-2.758-6.293c-1.793-4.429-4.562-15.336-4.562-15.336l-2.865-11.42-2.866-11.507-2.039-7.559c-5.367-19.688-12.794-29.373-12.794-29.373-5.838-8.46-14.109-14.876-23.677-18.368-11.098-4.047-22.743-1.767-22.743-1.767-18.246 3.643-27.83 16.36-32.049 22.48a20.5 20.5 0 0 1 5.484 2.356 19.3 19.3 0 0 1 5.796 5.453c2.748 3.97 3.37 8.912 3.918 13.634a188 188 0 0 0 5.946 30.257C70.45 99.607 77.868 89.9 77.868 89.9a12 12 0 0 1 2.94-2.661 4.8 4.8 0 0 1 1.91-.688 5.53 5.53 0 0 1 3.575.884q.291.196.547.436c.97.874 1.802 1.893 2.469 3.022a66 66 0 0 1 4.003 8.725c2.319 6.632 4.294 14.736 4.294 14.736l5.903 23.647c4.293 16.078 7.931 23.887 7.931 23.887 8.962 20.855 22.668 26.723 22.668 26.723a47.4 47.4 0 0 0 21.66 5.759 44.5 44.5 0 0 0 20.886-4.57 53.4 53.4 0 0 0 18.3-15.041c3.316-3.905 8.2-13.416 8.2-13.416a173.8 173.8 0 0 0 12.611-34.173 222 222 0 0 0 4.604-22.338c.58-3.73 1.127-7.482 1.567-11.245a29.5 29.5 0 0 0-.322-10.722 16 16 0 0 0-.59-1.865c-1.725-4.42-4.923-8.085-9.037-10.352a20.56 20.56 0 0 0-9.907-2.475"/><path fill="url(#C)" d="M202.08 68.173a19.8 19.8 0 0 0-5.055.643 99 99 0 0 1 9.542 17.626 20.9 20.9 0 0 1 1.771 8.464 20.9 20.9 0 0 1-1.558 7.869 20.6 20.6 0 0 1-4.401 6.665 20.2 20.2 0 0 1-6.577 4.445 19.96 19.96 0 0 1-17.967-1.287l-2.083 7.821c-3.778 12.838-6.439 17.8-6.439 17.8a69.7 69.7 0 0 1-5.217 10.024c-1.384 2.083-3.155 4.178-5.581 4.974a5.5 5.5 0 0 1-2.629.262 7 7 0 0 1-2.716-.927 12.1 12.1 0 0 1-3.692-4.669 67 67 0 0 1-2.758-6.293c-1.793-4.429-4.562-15.336-4.562-15.336l-2.865-11.42-2.866-11.507-2.039-7.559c-5.367-19.688-12.794-29.373-12.794-29.373-5.838-8.46-14.109-14.876-23.677-18.368-11.098-4.047-22.743-1.767-22.743-1.767-18.246 3.643-27.83 16.36-32.049 22.48a20.5 20.5 0 0 1 5.484 2.356 19.3 19.3 0 0 1 5.796 5.453c2.748 3.97 3.37 8.912 3.918 13.634a188 188 0 0 0 5.946 30.257C70.45 99.607 77.868 89.9 77.868 89.9a12 12 0 0 1 2.94-2.661 4.8 4.8 0 0 1 1.91-.688 5.53 5.53 0 0 1 3.575.884q.291.196.547.436c.97.874 1.802 1.893 2.469 3.022a66 66 0 0 1 4.003 8.725c2.319 6.632 4.294 14.736 4.294 14.736l5.903 23.647c4.293 16.078 7.931 23.887 7.931 23.887 8.962 20.855 22.668 26.723 22.668 26.723a47.4 47.4 0 0 0 21.66 5.759 44.5 44.5 0 0 0 20.886-4.57 53.4 53.4 0 0 0 18.3-15.041c3.316-3.905 8.2-13.416 8.2-13.416a173.8 173.8 0 0 0 12.611-34.173 222 222 0 0 0 4.604-22.338c.58-3.73 1.127-7.482 1.567-11.245a29.5 29.5 0 0 0-.322-10.722 16 16 0 0 0-.59-1.865c-1.725-4.42-4.923-8.085-9.037-10.352a20.56 20.56 0 0 0-9.907-2.475"/><path fill="url(#D)" d="M202.08 68.173a19.8 19.8 0 0 0-5.055.643 99 99 0 0 1 9.542 17.626 20.9 20.9 0 0 1 1.771 8.464 20.9 20.9 0 0 1-1.558 7.869 20.6 20.6 0 0 1-4.401 6.665 20.2 20.2 0 0 1-6.577 4.445 19.96 19.96 0 0 1-17.967-1.287l-2.083 7.821c-3.778 12.838-6.439 17.8-6.439 17.8a69.7 69.7 0 0 1-5.217 10.024c-1.384 2.083-3.155 4.178-5.581 4.974a5.5 5.5 0 0 1-2.629.262 7 7 0 0 1-2.716-.927 12.1 12.1 0 0 1-3.692-4.669 67 67 0 0 1-2.758-6.293c-1.793-4.429-4.562-15.336-4.562-15.336l-2.865-11.42-2.866-11.507-2.039-7.559c-5.367-19.688-12.794-29.373-12.794-29.373-5.838-8.46-14.109-14.876-23.677-18.368-11.098-4.047-22.743-1.767-22.743-1.767-18.246 3.643-27.83 16.36-32.049 22.48a20.5 20.5 0 0 1 5.484 2.356 19.3 19.3 0 0 1 5.796 5.453c2.748 3.97 3.37 8.912 3.918 13.634a188 188 0 0 0 5.946 30.257C70.45 99.607 77.868 89.9 77.868 89.9a12 12 0 0 1 2.94-2.661 4.8 4.8 0 0 1 1.91-.688 5.53 5.53 0 0 1 3.575.884q.291.196.547.436c.97.874 1.802 1.893 2.469 3.022a66 66 0 0 1 4.003 8.725c2.319 6.632 4.294 14.736 4.294 14.736l5.903 23.647c4.293 16.078 7.931 23.887 7.931 23.887 8.962 20.855 22.668 26.723 22.668 26.723a47.4 47.4 0 0 0 21.66 5.759 44.5 44.5 0 0 0 20.886-4.57 53.4 53.4 0 0 0 18.3-15.041c3.316-3.905 8.2-13.416 8.2-13.416a173.8 173.8 0 0 0 12.611-34.173 222 222 0 0 0 4.604-22.338c.58-3.73 1.127-7.482 1.567-11.245a29.5 29.5 0 0 0-.322-10.722 16 16 0 0 0-.59-1.865c-1.725-4.42-4.923-8.085-9.037-10.352a20.56 20.56 0 0 0-9.907-2.475"/><path fill="url(#E)" d="M202.08 68.173a19.8 19.8 0 0 0-5.055.643 99 99 0 0 1 9.542 17.626 20.9 20.9 0 0 1 1.771 8.464 20.9 20.9 0 0 1-1.558 7.869 20.6 20.6 0 0 1-4.401 6.665 20.2 20.2 0 0 1-6.577 4.445 19.96 19.96 0 0 1-17.967-1.287l-2.083 7.821c-3.778 12.838-6.439 17.8-6.439 17.8a69.7 69.7 0 0 1-5.217 10.024c-1.384 2.083-3.155 4.178-5.581 4.974a5.5 5.5 0 0 1-2.629.262 7 7 0 0 1-2.716-.927 12.1 12.1 0 0 1-3.692-4.669 67 67 0 0 1-2.758-6.293c-1.793-4.429-4.562-15.336-4.562-15.336l-2.865-11.42-2.866-11.507-2.039-7.559c-5.367-19.688-12.794-29.373-12.794-29.373-5.838-8.46-14.109-14.876-23.677-18.368-11.098-4.047-22.743-1.767-22.743-1.767-18.246 3.643-27.83 16.36-32.049 22.48a20.5 20.5 0 0 1 5.484 2.356 19.3 19.3 0 0 1 5.796 5.453c2.748 3.97 3.37 8.912 3.918 13.634a188 188 0 0 0 5.946 30.257C70.45 99.607 77.868 89.9 77.868 89.9a12 12 0 0 1 2.94-2.661 4.8 4.8 0 0 1 1.91-.688 5.53 5.53 0 0 1 3.575.884q.291.196.547.436c.97.874 1.802 1.893 2.469 3.022a66 66 0 0 1 4.003 8.725c2.319 6.632 4.294 14.736 4.294 14.736l5.903 23.647c4.293 16.078 7.931 23.887 7.931 23.887 8.962 20.855 22.668 26.723 22.668 26.723a47.4 47.4 0 0 0 21.66 5.759 44.5 44.5 0 0 0 20.886-4.57 53.4 53.4 0 0 0 18.3-15.041c3.316-3.905 8.2-13.416 8.2-13.416a173.8 173.8 0 0 0 12.611-34.173 222 222 0 0 0 4.604-22.338c.58-3.73 1.127-7.482 1.567-11.245a29.5 29.5 0 0 0-.322-10.722 16 16 0 0 0-.59-1.865c-1.725-4.42-4.923-8.085-9.037-10.352a20.56 20.56 0 0 0-9.907-2.475"/><path fill="url(#F)" d="M202.08 68.173a19.8 19.8 0 0 0-5.055.643 99 99 0 0 1 9.542 17.626 20.9 20.9 0 0 1 1.771 8.464 20.9 20.9 0 0 1-1.558 7.869 20.6 20.6 0 0 1-4.401 6.665 20.2 20.2 0 0 1-6.577 4.445 19.96 19.96 0 0 1-17.967-1.287l-2.083 7.821c-3.778 12.838-6.439 17.8-6.439 17.8a69.7 69.7 0 0 1-5.217 10.024c-1.384 2.083-3.155 4.178-5.581 4.974a5.5 5.5 0 0 1-2.629.262 7 7 0 0 1-2.716-.927 12.1 12.1 0 0 1-3.692-4.669 67 67 0 0 1-2.758-6.293c-1.793-4.429-4.562-15.336-4.562-15.336l-2.865-11.42-2.866-11.507-2.039-7.559c-5.367-19.688-12.794-29.373-12.794-29.373-5.838-8.46-14.109-14.876-23.677-18.368-11.098-4.047-22.743-1.767-22.743-1.767-18.246 3.643-27.83 16.36-32.049 22.48a20.5 20.5 0 0 1 5.484 2.356 19.3 19.3 0 0 1 5.796 5.453c2.748 3.97 3.37 8.912 3.918 13.634a188 188 0 0 0 5.946 30.257C70.45 99.607 77.868 89.9 77.868 89.9a12 12 0 0 1 2.94-2.661 4.8 4.8 0 0 1 1.91-.688 5.53 5.53 0 0 1 3.575.884q.291.196.547.436c.97.874 1.802 1.893 2.469 3.022a66 66 0 0 1 4.003 8.725c2.319 6.632 4.294 14.736 4.294 14.736l5.903 23.647c4.293 16.078 7.931 23.887 7.931 23.887 8.962 20.855 22.668 26.723 22.668 26.723a47.4 47.4 0 0 0 21.66 5.759 44.5 44.5 0 0 0 20.886-4.57 53.4 53.4 0 0 0 18.3-15.041c3.316-3.905 8.2-13.416 8.2-13.416a173.8 173.8 0 0 0 12.611-34.173 222 222 0 0 0 4.604-22.338c.58-3.73 1.127-7.482 1.567-11.245a29.5 29.5 0 0 0-.322-10.722 16 16 0 0 0-.59-1.865c-1.725-4.42-4.923-8.085-9.037-10.352a20.56 20.56 0 0 0-9.907-2.475"/><path fill="url(#G)" d="M202.08 68.173a19.8 19.8 0 0 0-5.055.643 99 99 0 0 1 9.542 17.626 20.9 20.9 0 0 1 1.771 8.464 20.9 20.9 0 0 1-1.558 7.869 20.6 20.6 0 0 1-4.401 6.665 20.2 20.2 0 0 1-6.577 4.445 19.96 19.96 0 0 1-17.967-1.287l-2.083 7.821c-3.778 12.838-6.439 17.8-6.439 17.8a69.7 69.7 0 0 1-5.217 10.024c-1.384 2.083-3.155 4.178-5.581 4.974a5.5 5.5 0 0 1-2.629.262 7 7 0 0 1-2.716-.927 12.1 12.1 0 0 1-3.692-4.669 67 67 0 0 1-2.758-6.293c-1.793-4.429-4.562-15.336-4.562-15.336l-2.865-11.42-2.866-11.507-2.039-7.559c-5.367-19.688-12.794-29.373-12.794-29.373-5.838-8.46-14.109-14.876-23.677-18.368-11.098-4.047-22.743-1.767-22.743-1.767-18.246 3.643-27.83 16.36-32.049 22.48a20.5 20.5 0 0 1 5.484 2.356 19.3 19.3 0 0 1 5.796 5.453c2.748 3.97 3.37 8.912 3.918 13.634a188 188 0 0 0 5.946 30.257C70.45 99.607 77.868 89.9 77.868 89.9a12 12 0 0 1 2.94-2.661 4.8 4.8 0 0 1 1.91-.688 5.53 5.53 0 0 1 3.575.884q.291.196.547.436c.97.874 1.802 1.893 2.469 3.022a66 66 0 0 1 4.003 8.725c2.319 6.632 4.294 14.736 4.294 14.736l5.903 23.647c4.293 16.078 7.931 23.887 7.931 23.887 8.962 20.855 22.668 26.723 22.668 26.723a47.4 47.4 0 0 0 21.66 5.759 44.5 44.5 0 0 0 20.886-4.57 53.4 53.4 0 0 0 18.3-15.041c3.316-3.905 8.2-13.416 8.2-13.416a173.8 173.8 0 0 0 12.611-34.173 222 222 0 0 0 4.604-22.338c.58-3.73 1.127-7.482 1.567-11.245a29.5 29.5 0 0 0-.322-10.722 16 16 0 0 0-.59-1.865c-1.725-4.42-4.923-8.085-9.037-10.352a20.56 20.56 0 0 0-9.907-2.475"/><path fill="url(#H)" d="M202.08 68.173a19.8 19.8 0 0 0-5.055.643 99 99 0 0 1 9.542 17.626 20.9 20.9 0 0 1 1.771 8.464 20.9 20.9 0 0 1-1.558 7.869 20.6 20.6 0 0 1-4.401 6.665 20.2 20.2 0 0 1-6.577 4.445 19.96 19.96 0 0 1-17.967-1.287l-2.083 7.821c-3.778 12.838-6.439 17.8-6.439 17.8a69.7 69.7 0 0 1-5.217 10.024c-1.384 2.083-3.155 4.178-5.581 4.974a5.5 5.5 0 0 1-2.629.262 7 7 0 0 1-2.716-.927 12.1 12.1 0 0 1-3.692-4.669 67 67 0 0 1-2.758-6.293c-1.793-4.429-4.562-15.336-4.562-15.336l-2.865-11.42-2.866-11.507-2.039-7.559c-5.367-19.688-12.794-29.373-12.794-29.373-5.838-8.46-14.109-14.876-23.677-18.368-11.098-4.047-22.743-1.767-22.743-1.767-18.246 3.643-27.83 16.36-32.049 22.48a20.5 20.5 0 0 1 5.484 2.356 19.3 19.3 0 0 1 5.796 5.453c2.748 3.97 3.37 8.912 3.918 13.634a188 188 0 0 0 5.946 30.257C70.45 99.607 77.868 89.9 77.868 89.9a12 12 0 0 1 2.94-2.661 4.8 4.8 0 0 1 1.91-.688 5.53 5.53 0 0 1 3.575.884q.291.196.547.436c.97.874 1.802 1.893 2.469 3.022a66 66 0 0 1 4.003 8.725c2.319 6.632 4.294 14.736 4.294 14.736l5.903 23.647c4.293 16.078 7.931 23.887 7.931 23.887 8.962 20.855 22.668 26.723 22.668 26.723a47.4 47.4 0 0 0 21.66 5.759 44.5 44.5 0 0 0 20.886-4.57 53.4 53.4 0 0 0 18.3-15.041c3.316-3.905 8.2-13.416 8.2-13.416a173.8 173.8 0 0 0 12.611-34.173 222 222 0 0 0 4.604-22.338c.58-3.73 1.127-7.482 1.567-11.245a29.5 29.5 0 0 0-.322-10.722 16 16 0 0 0-.59-1.865c-1.725-4.42-4.923-8.085-9.037-10.352a20.56 20.56 0 0 0-9.907-2.475"/><path fill="url(#I)" d="M202.08 68.173a19.8 19.8 0 0 0-5.055.643 99 99 0 0 1 9.542 17.626 20.9 20.9 0 0 1 1.771 8.464 20.9 20.9 0 0 1-1.558 7.869 20.6 20.6 0 0 1-4.401 6.665 20.2 20.2 0 0 1-6.577 4.445 19.96 19.96 0 0 1-17.967-1.287l-2.083 7.821c-3.778 12.838-6.439 17.8-6.439 17.8a69.7 69.7 0 0 1-5.217 10.024c-1.384 2.083-3.155 4.178-5.581 4.974a5.5 5.5 0 0 1-2.629.262 7 7 0 0 1-2.716-.927 12.1 12.1 0 0 1-3.692-4.669 67 67 0 0 1-2.758-6.293c-1.793-4.429-4.562-15.336-4.562-15.336l-2.865-11.42-2.866-11.507-2.039-7.559c-5.367-19.688-12.794-29.373-12.794-29.373-5.838-8.46-14.109-14.876-23.677-18.368-11.098-4.047-22.743-1.767-22.743-1.767-18.246 3.643-27.83 16.36-32.049 22.48a20.5 20.5 0 0 1 5.484 2.356 19.3 19.3 0 0 1 5.796 5.453c2.748 3.97 3.37 8.912 3.918 13.634a188 188 0 0 0 5.946 30.257C70.45 99.607 77.868 89.9 77.868 89.9a12 12 0 0 1 2.94-2.661 4.8 4.8 0 0 1 1.91-.688 5.53 5.53 0 0 1 3.575.884q.291.196.547.436c.97.874 1.802 1.893 2.469 3.022a66 66 0 0 1 4.003 8.725c2.319 6.632 4.294 14.736 4.294 14.736l5.903 23.647c4.293 16.078 7.931 23.887 7.931 23.887 8.962 20.855 22.668 26.723 22.668 26.723a47.4 47.4 0 0 0 21.66 5.759 44.5 44.5 0 0 0 20.886-4.57 53.4 53.4 0 0 0 18.3-15.041c3.316-3.905 8.2-13.416 8.2-13.416a173.8 173.8 0 0 0 12.611-34.173 222 222 0 0 0 4.604-22.338c.58-3.73 1.127-7.482 1.567-11.245a29.5 29.5 0 0 0-.322-10.722 16 16 0 0 0-.59-1.865c-1.725-4.42-4.923-8.085-9.037-10.352a20.56 20.56 0 0 0-9.907-2.475"/><defs><radialGradient id="b" cx="0" cy="0" r="1" gradientTransform="rotate(74.559 -4.354 141.078)scale(77.1887 57.8598)" gradientUnits="userSpaceOnUse"><stop stop-color="#227B60"/><stop offset=".14" stop-color="#227B60" stop-opacity=".81"/><stop offset=".58" stop-color="#227B60" stop-opacity=".23"/><stop offset=".78" stop-color="#227B60" stop-opacity="0"/></radialGradient><radialGradient id="c" cx="0" cy="0" r="1" gradientTransform="rotate(91.128 21.736 121.68)scale(52.2561 39.075)" gradientUnits="userSpaceOnUse"><stop stop-color="#227B60"/><stop offset=".25" stop-color="#227B60" stop-opacity=".7"/><stop offset=".71" stop-color="#227B60" stop-opacity=".2"/><stop offset=".92" stop-color="#227B60" stop-opacity="0"/></radialGradient><radialGradient id="d" cx="0" cy="0" r="1" gradientTransform="rotate(88.622 17.52 124.773)scale(48.7116 34.0331)" gradientUnits="userSpaceOnUse"><stop stop-color="#227B60"/><stop offset=".07" stop-color="#227B60" stop-opacity=".9"/><stop offset=".34" stop-color="#227B60" stop-opacity=".51"/><stop offset=".59" stop-color="#227B60" stop-opacity=".23"/><stop offset=".79" stop-color="#227B60" stop-opacity=".06"/><stop offset=".92" stop-color="#227B60" stop-opacity="0"/></radialGradient><radialGradient id="e" cx="0" cy="0" r="1" gradientTransform="matrix(.94558 39.32003 -27.47156 .66064 142.648 102.039)" gradientUnits="userSpaceOnUse"><stop stop-color="#227B60"/><stop offset=".36" stop-color="#227B60" stop-opacity=".63"/><stop offset=".92" stop-color="#227B60" stop-opacity="0"/></radialGradient><radialGradient id="f" cx="0" cy="0" r="1" gradientTransform="matrix(.75416 31.36003 -19.74999 .47495 144.336 104.25)" gradientUnits="userSpaceOnUse"><stop stop-color="#20735A"/><stop offset=".15" stop-color="#20745A" stop-opacity=".93"/><stop offset=".38" stop-color="#21755C" stop-opacity=".74"/><stop offset=".67" stop-color="#21785D" stop-opacity=".43"/><stop offset="1" stop-color="#227B60" stop-opacity="0"/></radialGradient><radialGradient id="g" cx="0" cy="0" r="1" gradientTransform="matrix(45.44808 20.37057 -15.44371 34.45593 148.472 109.254)" gradientUnits="userSpaceOnUse"><stop stop-color="#227A61"/><stop offset=".36" stop-color="#227A61" stop-opacity=".56"/><stop offset=".72" stop-color="#227A61" stop-opacity=".16"/><stop offset=".9" stop-color="#227A61" stop-opacity="0"/></radialGradient><radialGradient id="h" cx="0" cy="0" r="1" gradientTransform="matrix(54.08237 38.87472 -35.73238 49.71075 135.307 30.382)" gradientUnits="userSpaceOnUse"><stop stop-color="#3CD9C3"/><stop offset=".07" stop-color="#3BD7C1" stop-opacity=".9"/><stop offset=".41" stop-color="#38CEB9" stop-opacity=".42"/><stop offset=".65" stop-color="#36C8B4" stop-opacity=".12"/><stop offset=".76" stop-color="#35C6B2" stop-opacity="0"/></radialGradient><radialGradient id="i" cx="0" cy="0" r="1" gradientTransform="matrix(9605.64414 6904.59287 -4872.14553 6778.1109 57558.9 -30520.8)" gradientUnits="userSpaceOnUse"><stop stop-color="#3CD9C3"/><stop offset=".07" stop-color="#3BD7C1" stop-opacity=".9"/><stop offset=".41" stop-color="#38CEB9" stop-opacity=".42"/><stop offset=".65" stop-color="#36C8B4" stop-opacity=".12"/><stop offset=".76" stop-color="#35C6B2" stop-opacity="0"/></radialGradient><radialGradient id="j" cx="0" cy="0" r="1" gradientTransform="rotate(100.801 30.848 127.318)scale(59.3393 72.238)" gradientUnits="userSpaceOnUse"><stop stop-color="#237F66" stop-opacity=".8"/><stop offset=".06" stop-color="#2C8C70" stop-opacity=".65"/><stop offset=".21" stop-color="#3DA785" stop-opacity=".37"/><stop offset=".35" stop-color="#4ABA93" stop-opacity=".17"/><stop offset=".47" stop-color="#51C59C" stop-opacity=".04"/><stop offset=".56" stop-color="#54C99F" stop-opacity="0"/></radialGradient><radialGradient id="k" cx="0" cy="0" r="1" gradientTransform="rotate(-51.271 193.095 -68.216)scale(77.0911 82.9779)" gradientUnits="userSpaceOnUse"><stop stop-color="#167C8A"/><stop offset=".04" stop-color="#167C8A" stop-opacity=".93"/><stop offset=".33" stop-color="#177F8D" stop-opacity=".43"/><stop offset=".54" stop-color="#17818F" stop-opacity=".12"/><stop offset=".65" stop-color="#178290" stop-opacity="0"/></radialGradient><radialGradient id="l" cx="0" cy="0" r="1" gradientTransform="rotate(-32.074 291.703 -143.877)scale(74.8113 59.5239)" gradientUnits="userSpaceOnUse"><stop offset=".05" stop-color="#177D87"/><stop offset=".11" stop-color="#177E89" stop-opacity=".8"/><stop offset=".21" stop-color="#177F8B" stop-opacity=".52"/><stop offset=".32" stop-color="#17818D" stop-opacity=".29"/><stop offset=".42" stop-color="#17818F" stop-opacity=".13"/><stop offset=".51" stop-color="#178290" stop-opacity=".03"/><stop offset=".6" stop-color="#178290" stop-opacity="0"/></radialGradient><radialGradient id="m" cx="0" cy="0" r="1" gradientTransform="rotate(-130.084 82.52 43.254)scale(44.79 35.1761)" gradientUnits="userSpaceOnUse"><stop offset=".26" stop-color="#177F8A"/><stop offset=".27" stop-color="#177F8A" stop-opacity=".98"/><stop offset=".38" stop-color="#17808C" stop-opacity=".68"/><stop offset=".5" stop-color="#17818D" stop-opacity=".43"/><stop offset=".62" stop-color="#17818F" stop-opacity=".24"/><stop offset=".74" stop-color="#17828F" stop-opacity=".11"/><stop offset=".86" stop-color="#178290" stop-opacity=".03"/><stop offset="1" stop-color="#178290" stop-opacity="0"/></radialGradient><radialGradient id="n" cx="0" cy="0" r="1" gradientTransform="rotate(-172.999 51.703 69.772)scale(41.6323 42.2886)" gradientUnits="userSpaceOnUse"><stop stop-color="#13656E"/><stop offset=".11" stop-color="#13646E" stop-opacity=".73"/><stop offset=".27" stop-color="#12646E" stop-opacity=".41"/><stop offset=".42" stop-color="#12636E" stop-opacity=".18"/><stop offset=".55" stop-color="#12636E" stop-opacity=".05"/><stop offset=".66" stop-color="#12636E" stop-opacity="0"/></radialGradient><radialGradient id="o" cx="0" cy="0" r="1" gradientTransform="rotate(-118.928 91.433 48.258)scale(29.4679 24.5441)" gradientUnits="userSpaceOnUse"><stop offset=".13" stop-color="#146A73"/><stop offset=".24" stop-color="#156F79" stop-opacity=".79"/><stop offset=".45" stop-color="#167783" stop-opacity=".45"/><stop offset=".65" stop-color="#167D8A" stop-opacity=".2"/><stop offset=".82" stop-color="#17818E" stop-opacity=".05"/><stop offset=".95" stop-color="#178290" stop-opacity="0"/></radialGradient><radialGradient id="p" cx="0" cy="0" r="1" gradientTransform="matrix(15.31463 -23.06714 18.1624 12.0583 91.156 139.296)" gradientUnits="userSpaceOnUse"><stop stop-color="#198E9C"/><stop offset=".1" stop-color="#198E9C" stop-opacity=".87"/><stop offset=".41" stop-color="#198E9C" stop-opacity=".5"/><stop offset=".67" stop-color="#198E9C" stop-opacity=".23"/><stop offset=".88" stop-color="#198E9C" stop-opacity=".06"/><stop offset="1" stop-color="#198E9C" stop-opacity="0"/></radialGradient><radialGradient id="w" cx="0" cy="0" r="1" gradientTransform="matrix(-13.82604 91.9282 -59.74604 -8.98583 171.795 115.139)" gradientUnits="userSpaceOnUse"><stop stop-color="#1A3D9C"/><stop offset=".4" stop-color="#1A3D9C" stop-opacity=".42"/><stop offset=".7" stop-color="#1A3D9C" stop-opacity="0"/></radialGradient><radialGradient id="x" cx="0" cy="0" r="1" gradientTransform="rotate(98.553 -6027.67 34244.208)scale(11435 6072.64)" gradientUnits="userSpaceOnUse"><stop stop-color="#1A3D9C"/><stop offset=".4" stop-color="#1A3D9C" stop-opacity=".42"/><stop offset=".7" stop-color="#1A3D9C" stop-opacity="0"/></radialGradient><radialGradient id="y" cx="0" cy="0" r="1" gradientTransform="matrix(-2008.2173 13469.61787 -5480.60191 -817.11595 20355.1 43321.4)" gradientUnits="userSpaceOnUse"><stop stop-color="#1A3D9C"/><stop offset=".4" stop-color="#1A3D9C" stop-opacity=".42"/><stop offset=".7" stop-color="#1A3D9C" stop-opacity="0"/></radialGradient><radialGradient id="z" cx="0" cy="0" r="1" gradientTransform="rotate(83.198 17.301 142.99)scale(81.2672 55.8224)" gradientUnits="userSpaceOnUse"><stop stop-color="#1A3D9C"/><stop offset=".16" stop-color="#1A3D9C" stop-opacity=".69"/><stop offset=".33" stop-color="#1A3D9C" stop-opacity=".4"/><stop offset=".49" stop-color="#1A3D9C" stop-opacity=".18"/><stop offset=".61" stop-color="#1A3D9C" stop-opacity=".05"/><stop offset=".7" stop-color="#1A3D9C" stop-opacity="0"/></radialGradient><radialGradient id="A" cx="0" cy="0" r="1" gradientTransform="rotate(74.874 6.382 176.248)scale(78.0312 52.3295)" gradientUnits="userSpaceOnUse"><stop stop-color="#18388F"/><stop offset=".37" stop-color="#193B96" stop-opacity=".45"/><stop offset=".7" stop-color="#1A3D9C" stop-opacity="0"/></radialGradient><radialGradient id="B" cx="0" cy="0" r="1" gradientTransform="rotate(74.874 -11.045 181.657)scale(36.2809 33.9916)" gradientUnits="userSpaceOnUse"><stop stop-color="#18388F"/><stop offset=".09" stop-color="#183992" stop-opacity=".78"/><stop offset=".22" stop-color="#193B96" stop-opacity=".5"/><stop offset=".35" stop-color="#193C98" stop-opacity=".28"/><stop offset=".47" stop-color="#1A3C9A" stop-opacity=".13"/><stop offset=".59" stop-color="#1A3D9C" stop-opacity=".03"/><stop offset=".7" stop-color="#1A3D9C" stop-opacity="0"/></radialGradient><radialGradient id="C" cx="0" cy="0" r="1" gradientTransform="rotate(74.874 -14.662 185.316)scale(36.2809 33.9916)" gradientUnits="userSpaceOnUse"><stop stop-color="#1A3D9C" stop-opacity=".8"/><stop offset=".01" stop-color="#1A3D9C" stop-opacity=".78"/><stop offset=".24" stop-color="#1A3D9C" stop-opacity=".45"/><stop offset=".44" stop-color="#1A3D9C" stop-opacity=".2"/><stop offset=".6" stop-color="#1A3D9C" stop-opacity=".05"/><stop offset=".7" stop-color="#1A3D9C" stop-opacity="0"/></radialGradient><radialGradient id="D" cx="0" cy="0" r="1" gradientTransform="matrix(33.29006 79.80616 -52.36545 21.84354 75.57 129.719)" gradientUnits="userSpaceOnUse"><stop stop-color="#1A3D9C"/><stop offset=".4" stop-color="#1A3D9C" stop-opacity=".56"/><stop offset=".48" stop-color="#1A3D9C" stop-opacity=".43"/><stop offset=".69" stop-color="#1A3D9C" stop-opacity=".12"/><stop offset=".79" stop-color="#1A3D9C" stop-opacity="0"/></radialGradient><radialGradient id="E" cx="0" cy="0" r="1" gradientTransform="matrix(15.19535 62.41193 -40.61943 9.88956 70.112 109.407)" gradientUnits="userSpaceOnUse"><stop stop-color="#1A3D9C"/><stop offset=".06" stop-color="#1A3D9C" stop-opacity=".88"/><stop offset=".21" stop-color="#1A3D9C" stop-opacity=".61"/><stop offset=".36" stop-color="#1A3D9C" stop-opacity=".39"/><stop offset=".51" stop-color="#1A3D9C" stop-opacity=".22"/><stop offset=".67" stop-color="#1A3D9C" stop-opacity=".1"/><stop offset=".83" stop-color="#1A3D9C" stop-opacity=".02"/><stop offset="1" stop-color="#1A3D9C" stop-opacity="0"/></radialGradient><radialGradient id="F" cx="0" cy="0" r="1" gradientTransform="matrix(15.19535 62.41193 -40.61943 9.88956 70.112 109.407)" gradientUnits="userSpaceOnUse"><stop stop-color="#1B3E9E"/><stop offset=".06" stop-color="#1B3E9E" stop-opacity=".87"/><stop offset=".21" stop-color="#1B3E9D" stop-opacity=".61"/><stop offset=".36" stop-color="#1A3D9D" stop-opacity=".39"/><stop offset=".52" stop-color="#1A3D9C" stop-opacity=".22"/><stop offset=".67" stop-color="#1A3D9C" stop-opacity=".1"/><stop offset=".83" stop-color="#1A3D9C" stop-opacity=".02"/><stop offset="1" stop-color="#1A3D9C" stop-opacity="0"/></radialGradient><radialGradient id="G" cx="0" cy="0" r="1" gradientTransform="matrix(11.62512 47.7479 -31.07572 7.56596 72.51 103.139)" gradientUnits="userSpaceOnUse"><stop stop-color="#183991"/><stop offset=".03" stop-color="#183992" stop-opacity=".95"/><stop offset=".18" stop-color="#193A95" stop-opacity=".66"/><stop offset=".34" stop-color="#193B97" stop-opacity=".42"/><stop offset=".5" stop-color="#1A3C99" stop-opacity=".24"/><stop offset=".66" stop-color="#1A3D9B" stop-opacity=".1"/><stop offset=".82" stop-color="#1A3D9C" stop-opacity=".03"/><stop offset="1" stop-color="#1A3D9C" stop-opacity="0"/></radialGradient><radialGradient id="H" cx="0" cy="0" r="1" gradientTransform="matrix(1.90991 38.81914 -33.62892 1.65455 81.575 109.631)" gradientUnits="userSpaceOnUse"><stop offset=".04" stop-color="#2453D6" stop-opacity=".6"/><stop offset=".2" stop-color="#2453D6" stop-opacity=".49"/><stop offset=".52" stop-color="#2453D6" stop-opacity=".2"/><stop offset=".73" stop-color="#2453D6" stop-opacity="0"/></radialGradient><linearGradient id="a" x1="26.876" x2="186.693" y1="146.105" y2="82.538" gradientUnits="userSpaceOnUse"><stop offset=".13" stop-color="#1CBBF3"/><stop offset=".34" stop-color="#1F99A5"/><stop offset=".45" stop-color="#209CA6"/><stop offset=".51" stop-color="#24A4AA"/><stop offset=".57" stop-color="#2BB3B0"/><stop offset=".6" stop-color="#30BDB4"/><stop offset=".79" stop-color="#38BA90"/><stop offset="1" stop-color="#60F05A"/></linearGradient><linearGradient id="q" x1="37.126" x2="108.362" y1="42.235" y2="107.112" gradientUnits="userSpaceOnUse"><stop offset=".13" stop-color="#2BF9FF"/><stop offset=".27" stop-color="#29F9FF" stop-opacity=".64"/><stop offset=".4" stop-color="#27FAFF" stop-opacity=".3"/><stop offset=".49" stop-color="#26FAFF" stop-opacity=".08"/><stop offset=".54" stop-color="#26FAFF" stop-opacity="0"/></linearGradient><linearGradient id="r" x1="-2.629" x2="79.565" y1="149.977" y2="127.047" gradientUnits="userSpaceOnUse"><stop stop-color="#26FAFF"/><stop offset=".06" stop-color="#26FAFF" stop-opacity=".88"/><stop offset=".24" stop-color="#26FAFF" stop-opacity=".51"/><stop offset=".39" stop-color="#26FAFF" stop-opacity=".23"/><stop offset=".5" stop-color="#26FAFF" stop-opacity=".06"/><stop offset=".55" stop-color="#26FAFF" stop-opacity="0"/></linearGradient><linearGradient id="s" x1="19.095" x2="111.848" y1="147.076" y2="114.546" gradientUnits="userSpaceOnUse"><stop stop-color="#21DEFF"/><stop offset=".04" stop-color="#21DEFF" stop-opacity=".88"/><stop offset=".17" stop-color="#21DEFF" stop-opacity=".51"/><stop offset=".27" stop-color="#21DEFF" stop-opacity=".23"/><stop offset=".34" stop-color="#21DEFF" stop-opacity=".06"/><stop offset=".38" stop-color="#21DEFF" stop-opacity="0"/></linearGradient><linearGradient id="t" x1="106.912" x2="159.821" y1="98.625" y2="183.542" gradientUnits="userSpaceOnUse"><stop offset=".62" stop-color="#21DEFF" stop-opacity="0"/><stop offset=".66" stop-color="#21DEFF" stop-opacity=".06"/><stop offset=".73" stop-color="#21DEFF" stop-opacity=".23"/><stop offset=".83" stop-color="#21DEFF" stop-opacity=".51"/><stop offset=".96" stop-color="#21DEFF" stop-opacity=".88"/><stop offset="1" stop-color="#21DEFF"/></linearGradient><linearGradient id="u" x1="164.441" x2="156.05" y1="130.639" y2="90.389" gradientUnits="userSpaceOnUse"><stop stop-color="#44B044"/><stop offset=".11" stop-color="#44B044" stop-opacity=".8"/><stop offset=".27" stop-color="#44B044" stop-opacity=".52"/><stop offset=".43" stop-color="#44B044" stop-opacity=".29"/><stop offset=".58" stop-color="#44B044" stop-opacity=".13"/><stop offset=".7" stop-color="#44B044" stop-opacity=".03"/><stop offset=".8" stop-color="#44B044" stop-opacity="0"/></linearGradient><linearGradient id="v" x1="51.003" x2="222.657" y1="88.864" y2="144.782" gradientUnits="userSpaceOnUse"><stop stop-color="#3066FB"/><stop offset=".38" stop-color="#2F64F7"/><stop offset=".74" stop-color="#2857D9"/><stop offset="1" stop-color="#3C7EFF"/></linearGradient><linearGradient id="I" x1="162.186" x2="117.753" y1="17.857" y2="125.931" gradientUnits="userSpaceOnUse"><stop stop-color="#3774FF"/><stop offset=".05" stop-color="#3774FF" stop-opacity=".91"/><stop offset=".16" stop-color="#3774FF" stop-opacity=".66"/><stop offset=".32" stop-color="#3774FF" stop-opacity=".28"/><stop offset=".43" stop-color="#3774FF" stop-opacity="0"/></linearGradient></defs></svg>