<svg xmlns="http://www.w3.org/2000/svg" width="32" height="32" viewBox="0 0 32 32"><path d="M30.014 18.817a4.77 4.77 0 0 0-2.838-4.213 3.25 3.25 0 1 0-5.324 0q-.55.271-1.029.656a9.4 9.4 0 0 0-1.372-.646 5 5 0 1 0-6.872 0q-.723.27-1.392.657c-.32-.26-.67-.482-1.04-.664a3.249 3.249 0 1 0-5.323 0 4.77 4.77 0 0 0-2.838 4.213c0 .676.366 1.597 2.108 2.14.963.274 1.959.418 2.96.43a7 7 0 0 0-.039.681c0 .962.554 2.29 3.19 3.148 1.887.55 3.845.814 5.81.781 4.152 0 9-1.028 9-3.929 0-.23-.017-.456-.038-.68 1.617-.051 5.037-.413 5.037-2.574m-5.5-7.318a1.25 1.25 0 1 1 0 2.5 1.25 1.25 0 0 1 0-2.5M13.015 11a3 3 0 1 1 6 0 3 3 0 0 1-6 0m-5.53.502a1.25 1.25 0 1 1 .001 2.5 1.25 1.25 0 0 1 0-2.5m.047 7.9h-.046a6.55 6.55 0 0 1-3.498-.674c.06-1.511 1.606-2.726 3.498-2.726a4.06 4.06 0 0 1 2.01.521 8 8 0 0 0-1.964 2.879M16.015 24c-4.337 0-7-1.123-7-1.929 0-3.347 3.14-6.071 7-6.071s7 2.724 7 6.071c0 .806-2.663 1.929-7 1.929m8.5-4.602h-.018a8 8 0 0 0-1.977-2.889 4.1 4.1 0 0 1 1.994-.51c1.892 0 3.437 1.214 3.498 2.726a6.56 6.56 0 0 1-3.498.673"/></svg>