<svg xmlns="http://www.w3.org/2000/svg" width="378" height="24" fill="none" viewBox="0 0 378 24"><path fill="#000" d="M19.948 6.219h3.137l-4.562 13.789h-3.599l-3.41-10.406-3.409 10.406H4.562L0 6.218h3.211l3.237 10.48 3.396-10.48h3.41l3.452 10.536zM36.542 14.22H26.365a4.4 4.4 0 0 0 .777 1.972c.369.512.868.914 1.446 1.166a4.6 4.6 0 0 0 1.864.375 6 6 0 0 0 2.08-.38 6.8 6.8 0 0 0 1.908-1.074l1.498 2.158a7.6 7.6 0 0 1-2.616 1.489c-.988.31-2.02.463-3.055.453a7.3 7.3 0 0 1-3.656-.898 6.37 6.37 0 0 1-2.499-2.546 7.8 7.8 0 0 1-.897-3.807 8 8 0 0 1 .863-3.78 6.36 6.36 0 0 1 2.425-2.56 6.9 6.9 0 0 1 3.57-.915 6.14 6.14 0 0 1 5.692 3.453 8.26 8.26 0 0 1 .829 3.772q.006.436-.052 1.122m-3.021-2.287a4.26 4.26 0 0 0-1.153-2.52 3.2 3.2 0 0 0-2.347-.864 3.38 3.38 0 0 0-2.469.915 4.38 4.38 0 0 0-1.187 2.482zM49.416 6.797a6.7 6.7 0 0 1 2.49 2.59 7.6 7.6 0 0 1 .915 3.729 7.57 7.57 0 0 1-.915 3.724 6.7 6.7 0 0 1-5.981 3.526 5.6 5.6 0 0 1-2.49-.522 5.1 5.1 0 0 1-1.826-1.476v1.64h-3.021V.35h3.02v7.51a5.2 5.2 0 0 1 1.827-1.468 5.6 5.6 0 0 1 2.49-.527 6.7 6.7 0 0 1 3.491.932m-1.648 10.147a3.9 3.9 0 0 0 1.454-1.601 5.18 5.18 0 0 0 0-4.459 3.9 3.9 0 0 0-1.454-1.6 4.4 4.4 0 0 0-4.368 0c-.627.38-1.136.929-1.467 1.583a4.8 4.8 0 0 0-.527 2.262c-.014.784.167 1.56.527 2.257.331.654.84 1.203 1.467 1.584a4.4 4.4 0 0 0 4.368 0zM67.727 14.22H57.555a4.4 4.4 0 0 0 .777 1.972c.368.512.868.914 1.446 1.166a4.6 4.6 0 0 0 1.864.375 6 6 0 0 0 2.08-.38 6.8 6.8 0 0 0 1.908-1.074l1.493 2.158a7.5 7.5 0 0 1-2.611 1.489c-.99.31-2.023.463-3.06.453a7.34 7.34 0 0 1-3.655-.898 6.4 6.4 0 0 1-2.495-2.546 7.8 7.8 0 0 1-.902-3.807 8 8 0 0 1 .863-3.78 6.36 6.36 0 0 1 2.426-2.56 6.9 6.9 0 0 1 3.595-.927 6.15 6.15 0 0 1 5.692 3.452 8.3 8.3 0 0 1 .829 3.772c-.017.302-.048.678-.078 1.135m-3.02-2.287A4.3 4.3 0 0 0 63.55 9.43a3.22 3.22 0 0 0-2.34-.88 3.37 3.37 0 0 0-2.468.914 4.36 4.36 0 0 0-1.187 2.482zM82.077 20.008H78.38l-3.496-4.795-3.453 4.795h-3.526l5.18-7.04-5.098-6.75h3.703l3.367 4.606 3.366-4.605H82l-5.119 6.724zM100.878 6.233v13.78h-2.47L91.78 8.48v11.533H90V6.233h2.578l6.562 11.442V6.233zM107.522 9.778c2.72 0 4.899 1.681 4.899 5.26 0 3.486-2.104 5.258-4.915 5.258-2.77 0-4.899-1.814-4.899-5.259 0-3.578 2.213-5.259 4.915-5.259m.017 9.029c1.763 0 2.961-1.299 2.961-3.77 0-2.53-1.281-3.77-2.986-3.77s-3.002 1.282-3.002 3.77c.008 2.471 1.306 3.77 3.027 3.77M118.483 20.113a5 5 0 0 1-1.356.191c-1.763 0-2.661-1.107-2.661-2.754v-5.916h-1.472V10.06h1.472l.117-2.388h1.721v2.388h2.146v1.573h-2.146v5.949c0 .749.366 1.107 1.048 1.107.324 0 .574-.017 1.131-.15zM119.605 8.397V6.233h2.063v2.164zm.117 11.616V10.06h1.838v9.952zM128.671 7.764c-.607-.15-1.064-.225-1.505-.225-.665 0-1.048.4-1.048 1.016v1.514h2.137v1.573h-2.145v8.37h-1.838v-8.379H122.8v-1.572h1.472V8.67c0-1.647 1.131-2.72 2.769-2.72.665 0 1.106.1 1.63.232zM134.949 20.146c-.749 2.18-1.414 3.594-3.252 3.594-.399 0-.649-.041-1.189-.175v-1.49c.382.1.648.134.956.134.882 0 1.164-.632 1.738-2.197h-.59l-3.651-9.952h1.988l2.81 8.455 2.811-8.455h1.838z"/></svg>