<svg xmlns="http://www.w3.org/2000/svg" width="132" height="107" fill="none" viewBox="0 0 132 107"><path fill="url(#a)" d="M52.442 24.739a28.6 28.6 0 0 0 2.146 5.444c.41.768.82 1.536 1.566 2.02q.197.123.42.173c1.099.239 1.7-.66 2.089-1.481a25 25 0 0 0 1.397-3.998q.102-.384.2-.768c.125-.489.251-.983.36-1.477l4.845-13.156a10.84 10.84 0 0 1 3.81-3.228 10.65 10.65 0 0 1 4.83-1.156c2.414-.015 4.761.806 6.654 2.33 3.168 2.436 5.054 7.235 5.054 7.235a4.91 4.91 0 0 1 .05 3.832 4.8 4.8 0 0 1-1.032 1.564 4.75 4.75 0 0 1-1.544 1.043 4.68 4.68 0 0 1-3.825-.092 4.74 4.74 0 0 1-1.627-1.277l-.045-.056a6.5 6.5 0 0 1-.756-1.352 19 19 0 0 0-.876-1.76 11 11 0 0 0-.56-.85q-.256-.372-.596-.666c-.446-.366-1.008-.512-1.531-.197a1 1 0 0 0-.073.049c-.54.376-.917 1.136-1.179 1.72-.755 1.653-1.189 3.348-1.617 5.088q-.121.502-.237 1.008l-2.002 6.655-2.823 6.327a10.95 10.95 0 0 1-3.783 3.145 10.8 10.8 0 0 1-4.754 1.15c-6.858.148-10.111-6.143-10.111-6.143-3.906-6.511-5.057-15.1-5.332-17.847-.058-.57-.06-.911-.06-.911 0-.86.23-1.704.668-2.441a4.7 4.7 0 0 1 1.813-1.739 5.03 5.03 0 0 1 2.503-.555 4.7 4.7 0 0 1 2.282.704c.535.325.999.761 1.36 1.28.644.93.79 2.09.919 3.199.266 2.43.734 4.833 1.397 7.184"/><path fill="url(#b)" d="M52.442 24.739a28.6 28.6 0 0 0 2.146 5.444c.41.768.82 1.536 1.566 2.02q.197.123.42.173c1.099.239 1.7-.66 2.089-1.481a25 25 0 0 0 1.397-3.998q.102-.384.2-.768c.125-.489.251-.983.36-1.477l4.845-13.156a10.84 10.84 0 0 1 3.81-3.228 10.65 10.65 0 0 1 4.83-1.156c2.414-.015 4.761.806 6.654 2.33 3.168 2.436 5.054 7.235 5.054 7.235a4.91 4.91 0 0 1 .05 3.832 4.8 4.8 0 0 1-1.032 1.564 4.75 4.75 0 0 1-1.544 1.043 4.68 4.68 0 0 1-3.825-.092 4.74 4.74 0 0 1-1.627-1.277l-.045-.056a6.5 6.5 0 0 1-.756-1.352 19 19 0 0 0-.876-1.76 11 11 0 0 0-.56-.85q-.256-.372-.596-.666c-.446-.366-1.008-.512-1.531-.197a1 1 0 0 0-.073.049c-.54.376-.917 1.136-1.179 1.72-.755 1.653-1.189 3.348-1.617 5.088q-.121.502-.237 1.008l-2.002 6.655-2.823 6.327a10.95 10.95 0 0 1-3.783 3.145 10.8 10.8 0 0 1-4.754 1.15c-6.858.148-10.111-6.143-10.111-6.143-3.906-6.511-5.057-15.1-5.332-17.847-.058-.57-.06-.911-.06-.911 0-.86.23-1.704.668-2.441a4.7 4.7 0 0 1 1.813-1.739 5.03 5.03 0 0 1 2.503-.555 4.7 4.7 0 0 1 2.282.704c.535.325.999.761 1.36 1.28.644.93.79 2.09.919 3.199.266 2.43.734 4.833 1.397 7.184"/><path fill="url(#c)" d="M52.442 24.739a28.6 28.6 0 0 0 2.146 5.444c.41.768.82 1.536 1.566 2.02q.197.123.42.173c1.099.239 1.7-.66 2.089-1.481a25 25 0 0 0 1.397-3.998q.102-.384.2-.768c.125-.489.251-.983.36-1.477l4.845-13.156a10.84 10.84 0 0 1 3.81-3.228 10.65 10.65 0 0 1 4.83-1.156c2.414-.015 4.761.806 6.654 2.33 3.168 2.436 5.054 7.235 5.054 7.235a4.91 4.91 0 0 1 .05 3.832 4.8 4.8 0 0 1-1.032 1.564 4.75 4.75 0 0 1-1.544 1.043 4.68 4.68 0 0 1-3.825-.092 4.74 4.74 0 0 1-1.627-1.277l-.045-.056a6.5 6.5 0 0 1-.756-1.352 19 19 0 0 0-.876-1.76 11 11 0 0 0-.56-.85q-.256-.372-.596-.666c-.446-.366-1.008-.512-1.531-.197a1 1 0 0 0-.073.049c-.54.376-.917 1.136-1.179 1.72-.755 1.653-1.189 3.348-1.617 5.088q-.121.502-.237 1.008l-2.002 6.655-2.823 6.327a10.95 10.95 0 0 1-3.783 3.145 10.8 10.8 0 0 1-4.754 1.15c-6.858.148-10.111-6.143-10.111-6.143-3.906-6.511-5.057-15.1-5.332-17.847-.058-.57-.06-.911-.06-.911 0-.86.23-1.704.668-2.441a4.7 4.7 0 0 1 1.813-1.739 5.03 5.03 0 0 1 2.503-.555 4.7 4.7 0 0 1 2.282.704c.535.325.999.761 1.36 1.28.644.93.79 2.09.919 3.199.266 2.43.734 4.833 1.397 7.184"/><path fill="url(#d)" d="M52.442 24.739a28.6 28.6 0 0 0 2.146 5.444c.41.768.82 1.536 1.566 2.02q.197.123.42.173c1.099.239 1.7-.66 2.089-1.481a25 25 0 0 0 1.397-3.998q.102-.384.2-.768c.125-.489.251-.983.36-1.477l4.845-13.156a10.84 10.84 0 0 1 3.81-3.228 10.65 10.65 0 0 1 4.83-1.156c2.414-.015 4.761.806 6.654 2.33 3.168 2.436 5.054 7.235 5.054 7.235a4.91 4.91 0 0 1 .05 3.832 4.8 4.8 0 0 1-1.032 1.564 4.75 4.75 0 0 1-1.544 1.043 4.68 4.68 0 0 1-3.825-.092 4.74 4.74 0 0 1-1.627-1.277l-.045-.056a6.5 6.5 0 0 1-.756-1.352 19 19 0 0 0-.876-1.76 11 11 0 0 0-.56-.85q-.256-.372-.596-.666c-.446-.366-1.008-.512-1.531-.197a1 1 0 0 0-.073.049c-.54.376-.917 1.136-1.179 1.72-.755 1.653-1.189 3.348-1.617 5.088q-.121.502-.237 1.008l-2.002 6.655-2.823 6.327a10.95 10.95 0 0 1-3.783 3.145 10.8 10.8 0 0 1-4.754 1.15c-6.858.148-10.111-6.143-10.111-6.143-3.906-6.511-5.057-15.1-5.332-17.847-.058-.57-.06-.911-.06-.911 0-.86.23-1.704.668-2.441a4.7 4.7 0 0 1 1.813-1.739 5.03 5.03 0 0 1 2.503-.555 4.7 4.7 0 0 1 2.282.704c.535.325.999.761 1.36 1.28.644.93.79 2.09.919 3.199.266 2.43.734 4.833 1.397 7.184"/><path fill="url(#e)" d="M52.442 24.739a28.6 28.6 0 0 0 2.146 5.444c.41.768.82 1.536 1.566 2.02q.197.123.42.173c1.099.239 1.7-.66 2.089-1.481a25 25 0 0 0 1.397-3.998q.102-.384.2-.768c.125-.489.251-.983.36-1.477l4.845-13.156a10.84 10.84 0 0 1 3.81-3.228 10.65 10.65 0 0 1 4.83-1.156c2.414-.015 4.761.806 6.654 2.33 3.168 2.436 5.054 7.235 5.054 7.235a4.91 4.91 0 0 1 .05 3.832 4.8 4.8 0 0 1-1.032 1.564 4.75 4.75 0 0 1-1.544 1.043 4.68 4.68 0 0 1-3.825-.092 4.74 4.74 0 0 1-1.627-1.277l-.045-.056a6.5 6.5 0 0 1-.756-1.352 19 19 0 0 0-.876-1.76 11 11 0 0 0-.56-.85q-.256-.372-.596-.666c-.446-.366-1.008-.512-1.531-.197a1 1 0 0 0-.073.049c-.54.376-.917 1.136-1.179 1.72-.755 1.653-1.189 3.348-1.617 5.088q-.121.502-.237 1.008l-2.002 6.655-2.823 6.327a10.95 10.95 0 0 1-3.783 3.145 10.8 10.8 0 0 1-4.754 1.15c-6.858.148-10.111-6.143-10.111-6.143-3.906-6.511-5.057-15.1-5.332-17.847-.058-.57-.06-.911-.06-.911 0-.86.23-1.704.668-2.441a4.7 4.7 0 0 1 1.813-1.739 5.03 5.03 0 0 1 2.503-.555 4.7 4.7 0 0 1 2.282.704c.535.325.999.761 1.36 1.28.644.93.79 2.09.919 3.199.266 2.43.734 4.833 1.397 7.184"/><path fill="url(#f)" d="M52.442 24.739a28.6 28.6 0 0 0 2.146 5.444c.41.768.82 1.536 1.566 2.02q.197.123.42.173c1.099.239 1.7-.66 2.089-1.481a25 25 0 0 0 1.397-3.998q.102-.384.2-.768c.125-.489.251-.983.36-1.477l4.845-13.156a10.84 10.84 0 0 1 3.81-3.228 10.65 10.65 0 0 1 4.83-1.156c2.414-.015 4.761.806 6.654 2.33 3.168 2.436 5.054 7.235 5.054 7.235a4.91 4.91 0 0 1 .05 3.832 4.8 4.8 0 0 1-1.032 1.564 4.75 4.75 0 0 1-1.544 1.043 4.68 4.68 0 0 1-3.825-.092 4.74 4.74 0 0 1-1.627-1.277l-.045-.056a6.5 6.5 0 0 1-.756-1.352 19 19 0 0 0-.876-1.76 11 11 0 0 0-.56-.85q-.256-.372-.596-.666c-.446-.366-1.008-.512-1.531-.197a1 1 0 0 0-.073.049c-.54.376-.917 1.136-1.179 1.72-.755 1.653-1.189 3.348-1.617 5.088q-.121.502-.237 1.008l-2.002 6.655-2.823 6.327a10.95 10.95 0 0 1-3.783 3.145 10.8 10.8 0 0 1-4.754 1.15c-6.858.148-10.111-6.143-10.111-6.143-3.906-6.511-5.057-15.1-5.332-17.847-.058-.57-.06-.911-.06-.911 0-.86.23-1.704.668-2.441a4.7 4.7 0 0 1 1.813-1.739 5.03 5.03 0 0 1 2.503-.555 4.7 4.7 0 0 1 2.282.704c.535.325.999.761 1.36 1.28.644.93.79 2.09.919 3.199.266 2.43.734 4.833 1.397 7.184"/><path fill="url(#g)" d="M52.442 24.739a28.6 28.6 0 0 0 2.146 5.444c.41.768.82 1.536 1.566 2.02q.197.123.42.173c1.099.239 1.7-.66 2.089-1.481a25 25 0 0 0 1.397-3.998q.102-.384.2-.768c.125-.489.251-.983.36-1.477l4.845-13.156a10.84 10.84 0 0 1 3.81-3.228 10.65 10.65 0 0 1 4.83-1.156c2.414-.015 4.761.806 6.654 2.33 3.168 2.436 5.054 7.235 5.054 7.235a4.91 4.91 0 0 1 .05 3.832 4.8 4.8 0 0 1-1.032 1.564 4.75 4.75 0 0 1-1.544 1.043 4.68 4.68 0 0 1-3.825-.092 4.74 4.74 0 0 1-1.627-1.277l-.045-.056a6.5 6.5 0 0 1-.756-1.352 19 19 0 0 0-.876-1.76 11 11 0 0 0-.56-.85q-.256-.372-.596-.666c-.446-.366-1.008-.512-1.531-.197a1 1 0 0 0-.073.049c-.54.376-.917 1.136-1.179 1.72-.755 1.653-1.189 3.348-1.617 5.088q-.121.502-.237 1.008l-2.002 6.655-2.823 6.327a10.95 10.95 0 0 1-3.783 3.145 10.8 10.8 0 0 1-4.754 1.15c-6.858.148-10.111-6.143-10.111-6.143-3.906-6.511-5.057-15.1-5.332-17.847-.058-.57-.06-.911-.06-.911 0-.86.23-1.704.668-2.441a4.7 4.7 0 0 1 1.813-1.739 5.03 5.03 0 0 1 2.503-.555 4.7 4.7 0 0 1 2.282.704c.535.325.999.761 1.36 1.28.644.93.79 2.09.919 3.199.266 2.43.734 4.833 1.397 7.184"/><path fill="url(#h)" d="M52.442 24.739a28.6 28.6 0 0 0 2.146 5.444c.41.768.82 1.536 1.566 2.02q.197.123.42.173c1.099.239 1.7-.66 2.089-1.481a25 25 0 0 0 1.397-3.998q.102-.384.2-.768c.125-.489.251-.983.36-1.477l4.845-13.156a10.84 10.84 0 0 1 3.81-3.228 10.65 10.65 0 0 1 4.83-1.156c2.414-.015 4.761.806 6.654 2.33 3.168 2.436 5.054 7.235 5.054 7.235a4.91 4.91 0 0 1 .05 3.832 4.8 4.8 0 0 1-1.032 1.564 4.75 4.75 0 0 1-1.544 1.043 4.68 4.68 0 0 1-3.825-.092 4.74 4.74 0 0 1-1.627-1.277l-.045-.056a6.5 6.5 0 0 1-.756-1.352 19 19 0 0 0-.876-1.76 11 11 0 0 0-.56-.85q-.256-.372-.596-.666c-.446-.366-1.008-.512-1.531-.197a1 1 0 0 0-.073.049c-.54.376-.917 1.136-1.179 1.72-.755 1.653-1.189 3.348-1.617 5.088q-.121.502-.237 1.008l-2.002 6.655-2.823 6.327a10.95 10.95 0 0 1-3.783 3.145 10.8 10.8 0 0 1-4.754 1.15c-6.858.148-10.111-6.143-10.111-6.143-3.906-6.511-5.057-15.1-5.332-17.847-.058-.57-.06-.911-.06-.911 0-.86.23-1.704.668-2.441a4.7 4.7 0 0 1 1.813-1.739 5.03 5.03 0 0 1 2.503-.555 4.7 4.7 0 0 1 2.282.704c.535.325.999.761 1.36 1.28.644.93.79 2.09.919 3.199.266 2.43.734 4.833 1.397 7.184"/><path fill="url(#i)" d="M52.442 24.739a28.6 28.6 0 0 0 2.146 5.444c.41.768.82 1.536 1.566 2.02q.197.123.42.173c1.099.239 1.7-.66 2.089-1.481a25 25 0 0 0 1.397-3.998q.102-.384.2-.768c.125-.489.251-.983.36-1.477l4.845-13.156a10.84 10.84 0 0 1 3.81-3.228 10.65 10.65 0 0 1 4.83-1.156c2.414-.015 4.761.806 6.654 2.33 3.168 2.436 5.054 7.235 5.054 7.235a4.91 4.91 0 0 1 .05 3.832 4.8 4.8 0 0 1-1.032 1.564 4.75 4.75 0 0 1-1.544 1.043 4.68 4.68 0 0 1-3.825-.092 4.74 4.74 0 0 1-1.627-1.277l-.045-.056a6.5 6.5 0 0 1-.756-1.352 19 19 0 0 0-.876-1.76 11 11 0 0 0-.56-.85q-.256-.372-.596-.666c-.446-.366-1.008-.512-1.531-.197a1 1 0 0 0-.073.049c-.54.376-.917 1.136-1.179 1.72-.755 1.653-1.189 3.348-1.617 5.088q-.121.502-.237 1.008l-2.002 6.655-2.823 6.327a10.95 10.95 0 0 1-3.783 3.145 10.8 10.8 0 0 1-4.754 1.15c-6.858.148-10.111-6.143-10.111-6.143-3.906-6.511-5.057-15.1-5.332-17.847-.058-.57-.06-.911-.06-.911 0-.86.23-1.704.668-2.441a4.7 4.7 0 0 1 1.813-1.739 5.03 5.03 0 0 1 2.503-.555 4.7 4.7 0 0 1 2.282.704c.535.325.999.761 1.36 1.28.644.93.79 2.09.919 3.199.266 2.43.734 4.833 1.397 7.184"/><path fill="url(#j)" d="M52.442 24.739a28.6 28.6 0 0 0 2.146 5.444c.41.768.82 1.536 1.566 2.02q.197.123.42.173c1.099.239 1.7-.66 2.089-1.481a25 25 0 0 0 1.397-3.998q.102-.384.2-.768c.125-.489.251-.983.36-1.477l4.845-13.156a10.84 10.84 0 0 1 3.81-3.228 10.65 10.65 0 0 1 4.83-1.156c2.414-.015 4.761.806 6.654 2.33 3.168 2.436 5.054 7.235 5.054 7.235a4.91 4.91 0 0 1 .05 3.832 4.8 4.8 0 0 1-1.032 1.564 4.75 4.75 0 0 1-1.544 1.043 4.68 4.68 0 0 1-3.825-.092 4.74 4.74 0 0 1-1.627-1.277l-.045-.056a6.5 6.5 0 0 1-.756-1.352 19 19 0 0 0-.876-1.76 11 11 0 0 0-.56-.85q-.256-.372-.596-.666c-.446-.366-1.008-.512-1.531-.197a1 1 0 0 0-.073.049c-.54.376-.917 1.136-1.179 1.72-.755 1.653-1.189 3.348-1.617 5.088q-.121.502-.237 1.008l-2.002 6.655-2.823 6.327a10.95 10.95 0 0 1-3.783 3.145 10.8 10.8 0 0 1-4.754 1.15c-6.858.148-10.111-6.143-10.111-6.143-3.906-6.511-5.057-15.1-5.332-17.847-.058-.57-.06-.911-.06-.911 0-.86.23-1.704.668-2.441a4.7 4.7 0 0 1 1.813-1.739 5.03 5.03 0 0 1 2.503-.555 4.7 4.7 0 0 1 2.282.704c.535.325.999.761 1.36 1.28.644.93.79 2.09.919 3.199.266 2.43.734 4.833 1.397 7.184"/><path fill="url(#k)" d="M52.442 24.739a28.6 28.6 0 0 0 2.146 5.444c.41.768.82 1.536 1.566 2.02q.197.123.42.173c1.099.239 1.7-.66 2.089-1.481a25 25 0 0 0 1.397-3.998q.102-.384.2-.768c.125-.489.251-.983.36-1.477l4.845-13.156a10.84 10.84 0 0 1 3.81-3.228 10.65 10.65 0 0 1 4.83-1.156c2.414-.015 4.761.806 6.654 2.33 3.168 2.436 5.054 7.235 5.054 7.235a4.91 4.91 0 0 1 .05 3.832 4.8 4.8 0 0 1-1.032 1.564 4.75 4.75 0 0 1-1.544 1.043 4.68 4.68 0 0 1-3.825-.092 4.74 4.74 0 0 1-1.627-1.277l-.045-.056a6.5 6.5 0 0 1-.756-1.352 19 19 0 0 0-.876-1.76 11 11 0 0 0-.56-.85q-.256-.372-.596-.666c-.446-.366-1.008-.512-1.531-.197a1 1 0 0 0-.073.049c-.54.376-.917 1.136-1.179 1.72-.755 1.653-1.189 3.348-1.617 5.088q-.121.502-.237 1.008l-2.002 6.655-2.823 6.327a10.95 10.95 0 0 1-3.783 3.145 10.8 10.8 0 0 1-4.754 1.15c-6.858.148-10.111-6.143-10.111-6.143-3.906-6.511-5.057-15.1-5.332-17.847-.058-.57-.06-.911-.06-.911 0-.86.23-1.704.668-2.441a4.7 4.7 0 0 1 1.813-1.739 5.03 5.03 0 0 1 2.503-.555 4.7 4.7 0 0 1 2.282.704c.535.325.999.761 1.36 1.28.644.93.79 2.09.919 3.199.266 2.43.734 4.833 1.397 7.184"/><path fill="url(#l)" d="M52.442 24.739a28.6 28.6 0 0 0 2.146 5.444c.41.768.82 1.536 1.566 2.02q.197.123.42.173c1.099.239 1.7-.66 2.089-1.481a25 25 0 0 0 1.397-3.998q.102-.384.2-.768c.125-.489.251-.983.36-1.477l4.845-13.156a10.84 10.84 0 0 1 3.81-3.228 10.65 10.65 0 0 1 4.83-1.156c2.414-.015 4.761.806 6.654 2.33 3.168 2.436 5.054 7.235 5.054 7.235a4.91 4.91 0 0 1 .05 3.832 4.8 4.8 0 0 1-1.032 1.564 4.75 4.75 0 0 1-1.544 1.043 4.68 4.68 0 0 1-3.825-.092 4.74 4.74 0 0 1-1.627-1.277l-.045-.056a6.5 6.5 0 0 1-.756-1.352 19 19 0 0 0-.876-1.76 11 11 0 0 0-.56-.85q-.256-.372-.596-.666c-.446-.366-1.008-.512-1.531-.197a1 1 0 0 0-.073.049c-.54.376-.917 1.136-1.179 1.72-.755 1.653-1.189 3.348-1.617 5.088q-.121.502-.237 1.008l-2.002 6.655-2.823 6.327a10.95 10.95 0 0 1-3.783 3.145 10.8 10.8 0 0 1-4.754 1.15c-6.858.148-10.111-6.143-10.111-6.143-3.906-6.511-5.057-15.1-5.332-17.847-.058-.57-.06-.911-.06-.911 0-.86.23-1.704.668-2.441a4.7 4.7 0 0 1 1.813-1.739 5.03 5.03 0 0 1 2.503-.555 4.7 4.7 0 0 1 2.282.704c.535.325.999.761 1.36 1.28.644.93.79 2.09.919 3.199.266 2.43.734 4.833 1.397 7.184"/><path fill="url(#m)" d="M52.442 24.739a28.6 28.6 0 0 0 2.146 5.444c.41.768.82 1.536 1.566 2.02q.197.123.42.173c1.099.239 1.7-.66 2.089-1.481a25 25 0 0 0 1.397-3.998q.102-.384.2-.768c.125-.489.251-.983.36-1.477l4.845-13.156a10.84 10.84 0 0 1 3.81-3.228 10.65 10.65 0 0 1 4.83-1.156c2.414-.015 4.761.806 6.654 2.33 3.168 2.436 5.054 7.235 5.054 7.235a4.91 4.91 0 0 1 .05 3.832 4.8 4.8 0 0 1-1.032 1.564 4.75 4.75 0 0 1-1.544 1.043 4.68 4.68 0 0 1-3.825-.092 4.74 4.74 0 0 1-1.627-1.277l-.045-.056a6.5 6.5 0 0 1-.756-1.352 19 19 0 0 0-.876-1.76 11 11 0 0 0-.56-.85q-.256-.372-.596-.666c-.446-.366-1.008-.512-1.531-.197a1 1 0 0 0-.073.049c-.54.376-.917 1.136-1.179 1.72-.755 1.653-1.189 3.348-1.617 5.088q-.121.502-.237 1.008l-2.002 6.655-2.823 6.327a10.95 10.95 0 0 1-3.783 3.145 10.8 10.8 0 0 1-4.754 1.15c-6.858.148-10.111-6.143-10.111-6.143-3.906-6.511-5.057-15.1-5.332-17.847-.058-.57-.06-.911-.06-.911 0-.86.23-1.704.668-2.441a4.7 4.7 0 0 1 1.813-1.739 5.03 5.03 0 0 1 2.503-.555 4.7 4.7 0 0 1 2.282.704c.535.325.999.761 1.36 1.28.644.93.79 2.09.919 3.199.266 2.43.734 4.833 1.397 7.184"/><path fill="url(#n)" d="M52.442 24.739a28.6 28.6 0 0 0 2.146 5.444c.41.768.82 1.536 1.566 2.02q.197.123.42.173c1.099.239 1.7-.66 2.089-1.481a25 25 0 0 0 1.397-3.998q.102-.384.2-.768c.125-.489.251-.983.36-1.477l4.845-13.156a10.84 10.84 0 0 1 3.81-3.228 10.65 10.65 0 0 1 4.83-1.156c2.414-.015 4.761.806 6.654 2.33 3.168 2.436 5.054 7.235 5.054 7.235a4.91 4.91 0 0 1 .05 3.832 4.8 4.8 0 0 1-1.032 1.564 4.75 4.75 0 0 1-1.544 1.043 4.68 4.68 0 0 1-3.825-.092 4.74 4.74 0 0 1-1.627-1.277l-.045-.056a6.5 6.5 0 0 1-.756-1.352 19 19 0 0 0-.876-1.76 11 11 0 0 0-.56-.85q-.256-.372-.596-.666c-.446-.366-1.008-.512-1.531-.197a1 1 0 0 0-.073.049c-.54.376-.917 1.136-1.179 1.72-.755 1.653-1.189 3.348-1.617 5.088q-.121.502-.237 1.008l-2.002 6.655-2.823 6.327a10.95 10.95 0 0 1-3.783 3.145 10.8 10.8 0 0 1-4.754 1.15c-6.858.148-10.111-6.143-10.111-6.143-3.906-6.511-5.057-15.1-5.332-17.847-.058-.57-.06-.911-.06-.911 0-.86.23-1.704.668-2.441a4.7 4.7 0 0 1 1.813-1.739 5.03 5.03 0 0 1 2.503-.555 4.7 4.7 0 0 1 2.282.704c.535.325.999.761 1.36 1.28.644.93.79 2.09.919 3.199.266 2.43.734 4.833 1.397 7.184"/><path fill="url(#o)" d="M52.442 24.739a28.6 28.6 0 0 0 2.146 5.444c.41.768.82 1.536 1.566 2.02q.197.123.42.173c1.099.239 1.7-.66 2.089-1.481a25 25 0 0 0 1.397-3.998q.102-.384.2-.768c.125-.489.251-.983.36-1.477l4.845-13.156a10.84 10.84 0 0 1 3.81-3.228 10.65 10.65 0 0 1 4.83-1.156c2.414-.015 4.761.806 6.654 2.33 3.168 2.436 5.054 7.235 5.054 7.235a4.91 4.91 0 0 1 .05 3.832 4.8 4.8 0 0 1-1.032 1.564 4.75 4.75 0 0 1-1.544 1.043 4.68 4.68 0 0 1-3.825-.092 4.74 4.74 0 0 1-1.627-1.277l-.045-.056a6.5 6.5 0 0 1-.756-1.352 19 19 0 0 0-.876-1.76 11 11 0 0 0-.56-.85q-.256-.372-.596-.666c-.446-.366-1.008-.512-1.531-.197a1 1 0 0 0-.073.049c-.54.376-.917 1.136-1.179 1.72-.755 1.653-1.189 3.348-1.617 5.088q-.121.502-.237 1.008l-2.002 6.655-2.823 6.327a10.95 10.95 0 0 1-3.783 3.145 10.8 10.8 0 0 1-4.754 1.15c-6.858.148-10.111-6.143-10.111-6.143-3.906-6.511-5.057-15.1-5.332-17.847-.058-.57-.06-.911-.06-.911 0-.86.23-1.704.668-2.441a4.7 4.7 0 0 1 1.813-1.739 5.03 5.03 0 0 1 2.503-.555 4.7 4.7 0 0 1 2.282.704c.535.325.999.761 1.36 1.28.644.93.79 2.09.919 3.199.266 2.43.734 4.833 1.397 7.184"/><path fill="url(#p)" d="M52.442 24.739a28.6 28.6 0 0 0 2.146 5.444c.41.768.82 1.536 1.566 2.02q.197.123.42.173c1.099.239 1.7-.66 2.089-1.481a25 25 0 0 0 1.397-3.998q.102-.384.2-.768c.125-.489.251-.983.36-1.477l4.845-13.156a10.84 10.84 0 0 1 3.81-3.228 10.65 10.65 0 0 1 4.83-1.156c2.414-.015 4.761.806 6.654 2.33 3.168 2.436 5.054 7.235 5.054 7.235a4.91 4.91 0 0 1 .05 3.832 4.8 4.8 0 0 1-1.032 1.564 4.75 4.75 0 0 1-1.544 1.043 4.68 4.68 0 0 1-3.825-.092 4.74 4.74 0 0 1-1.627-1.277l-.045-.056a6.5 6.5 0 0 1-.756-1.352 19 19 0 0 0-.876-1.76 11 11 0 0 0-.56-.85q-.256-.372-.596-.666c-.446-.366-1.008-.512-1.531-.197a1 1 0 0 0-.073.049c-.54.376-.917 1.136-1.179 1.72-.755 1.653-1.189 3.348-1.617 5.088q-.121.502-.237 1.008l-2.002 6.655-2.823 6.327a10.95 10.95 0 0 1-3.783 3.145 10.8 10.8 0 0 1-4.754 1.15c-6.858.148-10.111-6.143-10.111-6.143-3.906-6.511-5.057-15.1-5.332-17.847-.058-.57-.06-.911-.06-.911 0-.86.23-1.704.668-2.441a4.7 4.7 0 0 1 1.813-1.739 5.03 5.03 0 0 1 2.503-.555 4.7 4.7 0 0 1 2.282.704c.535.325.999.761 1.36 1.28.644.93.79 2.09.919 3.199.266 2.43.734 4.833 1.397 7.184"/><path fill="url(#q)" d="M52.442 24.739a28.6 28.6 0 0 0 2.146 5.444c.41.768.82 1.536 1.566 2.02q.197.123.42.173c1.099.239 1.7-.66 2.089-1.481a25 25 0 0 0 1.397-3.998q.102-.384.2-.768c.125-.489.251-.983.36-1.477l4.845-13.156a10.84 10.84 0 0 1 3.81-3.228 10.65 10.65 0 0 1 4.83-1.156c2.414-.015 4.761.806 6.654 2.33 3.168 2.436 5.054 7.235 5.054 7.235a4.91 4.91 0 0 1 .05 3.832 4.8 4.8 0 0 1-1.032 1.564 4.75 4.75 0 0 1-1.544 1.043 4.68 4.68 0 0 1-3.825-.092 4.74 4.74 0 0 1-1.627-1.277l-.045-.056a6.5 6.5 0 0 1-.756-1.352 19 19 0 0 0-.876-1.76 11 11 0 0 0-.56-.85q-.256-.372-.596-.666c-.446-.366-1.008-.512-1.531-.197a1 1 0 0 0-.073.049c-.54.376-.917 1.136-1.179 1.72-.755 1.653-1.189 3.348-1.617 5.088q-.121.502-.237 1.008l-2.002 6.655-2.823 6.327a10.95 10.95 0 0 1-3.783 3.145 10.8 10.8 0 0 1-4.754 1.15c-6.858.148-10.111-6.143-10.111-6.143-3.906-6.511-5.057-15.1-5.332-17.847-.058-.57-.06-.911-.06-.911 0-.86.23-1.704.668-2.441a4.7 4.7 0 0 1 1.813-1.739 5.03 5.03 0 0 1 2.503-.555 4.7 4.7 0 0 1 2.282.704c.535.325.999.761 1.36 1.28.644.93.79 2.09.919 3.199.266 2.43.734 4.833 1.397 7.184"/><path fill="url(#r)" d="M52.442 24.739a28.6 28.6 0 0 0 2.146 5.444c.41.768.82 1.536 1.566 2.02q.197.123.42.173c1.099.239 1.7-.66 2.089-1.481a25 25 0 0 0 1.397-3.998q.102-.384.2-.768c.125-.489.251-.983.36-1.477l4.845-13.156a10.84 10.84 0 0 1 3.81-3.228 10.65 10.65 0 0 1 4.83-1.156c2.414-.015 4.761.806 6.654 2.33 3.168 2.436 5.054 7.235 5.054 7.235a4.91 4.91 0 0 1 .05 3.832 4.8 4.8 0 0 1-1.032 1.564 4.75 4.75 0 0 1-1.544 1.043 4.68 4.68 0 0 1-3.825-.092 4.74 4.74 0 0 1-1.627-1.277l-.045-.056a6.5 6.5 0 0 1-.756-1.352 19 19 0 0 0-.876-1.76 11 11 0 0 0-.56-.85q-.256-.372-.596-.666c-.446-.366-1.008-.512-1.531-.197a1 1 0 0 0-.073.049c-.54.376-.917 1.136-1.179 1.72-.755 1.653-1.189 3.348-1.617 5.088q-.121.502-.237 1.008l-2.002 6.655-2.823 6.327a10.95 10.95 0 0 1-3.783 3.145 10.8 10.8 0 0 1-4.754 1.15c-6.858.148-10.111-6.143-10.111-6.143-3.906-6.511-5.057-15.1-5.332-17.847-.058-.57-.06-.911-.06-.911 0-.86.23-1.704.668-2.441a4.7 4.7 0 0 1 1.813-1.739 5.03 5.03 0 0 1 2.503-.555 4.7 4.7 0 0 1 2.282.704c.535.325.999.761 1.36 1.28.644.93.79 2.09.919 3.199.266 2.43.734 4.833 1.397 7.184"/><path fill="url(#s)" d="M52.442 24.739a28.6 28.6 0 0 0 2.146 5.444c.41.768.82 1.536 1.566 2.02q.197.123.42.173c1.099.239 1.7-.66 2.089-1.481a25 25 0 0 0 1.397-3.998q.102-.384.2-.768c.125-.489.251-.983.36-1.477l4.845-13.156a10.84 10.84 0 0 1 3.81-3.228 10.65 10.65 0 0 1 4.83-1.156c2.414-.015 4.761.806 6.654 2.33 3.168 2.436 5.054 7.235 5.054 7.235a4.91 4.91 0 0 1 .05 3.832 4.8 4.8 0 0 1-1.032 1.564 4.75 4.75 0 0 1-1.544 1.043 4.68 4.68 0 0 1-3.825-.092 4.74 4.74 0 0 1-1.627-1.277l-.045-.056a6.5 6.5 0 0 1-.756-1.352 19 19 0 0 0-.876-1.76 11 11 0 0 0-.56-.85q-.256-.372-.596-.666c-.446-.366-1.008-.512-1.531-.197a1 1 0 0 0-.073.049c-.54.376-.917 1.136-1.179 1.72-.755 1.653-1.189 3.348-1.617 5.088q-.121.502-.237 1.008l-2.002 6.655-2.823 6.327a10.95 10.95 0 0 1-3.783 3.145 10.8 10.8 0 0 1-4.754 1.15c-6.858.148-10.111-6.143-10.111-6.143-3.906-6.511-5.057-15.1-5.332-17.847-.058-.57-.06-.911-.06-.911 0-.86.23-1.704.668-2.441a4.7 4.7 0 0 1 1.813-1.739 5.03 5.03 0 0 1 2.503-.555 4.7 4.7 0 0 1 2.282.704c.535.325.999.761 1.36 1.28.644.93.79 2.09.919 3.199.266 2.43.734 4.833 1.397 7.184"/><path fill="url(#t)" d="M52.442 24.739a28.6 28.6 0 0 0 2.146 5.444c.41.768.82 1.536 1.566 2.02q.197.123.42.173c1.099.239 1.7-.66 2.089-1.481a25 25 0 0 0 1.397-3.998q.102-.384.2-.768c.125-.489.251-.983.36-1.477l4.845-13.156a10.84 10.84 0 0 1 3.81-3.228 10.65 10.65 0 0 1 4.83-1.156c2.414-.015 4.761.806 6.654 2.33 3.168 2.436 5.054 7.235 5.054 7.235a4.91 4.91 0 0 1 .05 3.832 4.8 4.8 0 0 1-1.032 1.564 4.75 4.75 0 0 1-1.544 1.043 4.68 4.68 0 0 1-3.825-.092 4.74 4.74 0 0 1-1.627-1.277l-.045-.056a6.5 6.5 0 0 1-.756-1.352 19 19 0 0 0-.876-1.76 11 11 0 0 0-.56-.85q-.256-.372-.596-.666c-.446-.366-1.008-.512-1.531-.197a1 1 0 0 0-.073.049c-.54.376-.917 1.136-1.179 1.72-.755 1.653-1.189 3.348-1.617 5.088q-.121.502-.237 1.008l-2.002 6.655-2.823 6.327a10.95 10.95 0 0 1-3.783 3.145 10.8 10.8 0 0 1-4.754 1.15c-6.858.148-10.111-6.143-10.111-6.143-3.906-6.511-5.057-15.1-5.332-17.847-.058-.57-.06-.911-.06-.911 0-.86.23-1.704.668-2.441a4.7 4.7 0 0 1 1.813-1.739 5.03 5.03 0 0 1 2.503-.555 4.7 4.7 0 0 1 2.282.704c.535.325.999.761 1.36 1.28.644.93.79 2.09.919 3.199.266 2.43.734 4.833 1.397 7.184"/><path fill="url(#u)" d="m62.385 19.858 3.08-8.36a10.84 10.84 0 0 1 3.81-3.228 10.66 10.66 0 0 1 4.83-1.156c2.414-.015 4.761.807 6.654 2.33 3.168 2.436 5.054 7.235 5.054 7.235a4.91 4.91 0 0 1 .05 3.833 4.8 4.8 0 0 1-1.032 1.564 4.7 4.7 0 0 1-1.544 1.043 4.68 4.68 0 0 1-3.825-.092 4.74 4.74 0 0 1-1.627-1.277l-.045-.057a6.5 6.5 0 0 1-.756-1.351 19 19 0 0 0-.876-1.761 11 11 0 0 0-.56-.85q-.256-.371-.596-.665c-.446-.366-1.007-.512-1.531-.197a1 1 0 0 0-.073.048c-.54.376-.917 1.137-1.179 1.72-.755 1.654-1.189 3.348-1.617 5.088q-.121.502-.237 1.009l-2.002 6.654z"/><path fill="url(#v)" d="M84.76 12.392c-.4 0-.798.05-1.185.151a23.2 23.2 0 0 1 2.239 4.136 4.91 4.91 0 0 1 .05 3.833 4.8 4.8 0 0 1-1.033 1.564 4.7 4.7 0 0 1-1.543 1.043 4.68 4.68 0 0 1-4.216-.302l-.489 1.835c-.886 3.012-1.51 4.177-1.51 4.177a16.4 16.4 0 0 1-1.225 2.352c-.325.49-.74.98-1.31 1.167-.197.07-.409.092-.616.062a1.65 1.65 0 0 1-.637-.218 2.84 2.84 0 0 1-.867-1.095q-.36-.721-.647-1.477c-.42-1.04-1.07-3.599-1.07-3.599l-.672-2.68-.673-2.7-.478-1.773c-1.26-4.62-3.002-6.893-3.002-6.893a11.6 11.6 0 0 0-5.556-4.31c-2.604-.95-5.336-.415-5.336-.415-4.282.855-6.53 3.84-7.52 5.275.453.12.886.307 1.287.553.536.326.999.762 1.36 1.28.644.931.79 2.09.919 3.2.27 2.401.737 4.776 1.395 7.1 1.45-4.89 3.19-7.167 3.19-7.167a2.8 2.8 0 0 1 .69-.625q.209-.129.45-.161c.294-.029.59.044.838.207q.068.046.128.103.343.31.58.709.544.988.939 2.047c.544 1.556 1.007 3.458 1.007 3.458l1.385 5.549c1.008 3.773 1.861 5.605 1.861 5.605 2.103 4.894 5.32 6.27 5.32 6.27a11.1 11.1 0 0 0 5.081 1.352 10.44 10.44 0 0 0 4.9-1.072 12.5 12.5 0 0 0 4.295-3.53c.778-.916 1.924-3.148 1.924-3.148a40.8 40.8 0 0 0 2.959-8.019q.675-2.592 1.08-5.242c.136-.875.265-1.755.368-2.638a6.9 6.9 0 0 0-.076-2.516 4 4 0 0 0-.138-.438 4.73 4.73 0 0 0-2.12-2.429 4.8 4.8 0 0 0-2.325-.58"/><path fill="url(#w)" d="M84.76 12.392c-.4 0-.798.05-1.185.151a23.2 23.2 0 0 1 2.239 4.136 4.91 4.91 0 0 1 .05 3.833 4.8 4.8 0 0 1-1.033 1.564 4.7 4.7 0 0 1-1.543 1.043 4.68 4.68 0 0 1-4.216-.302l-.489 1.835c-.886 3.012-1.51 4.177-1.51 4.177a16.4 16.4 0 0 1-1.225 2.352c-.325.49-.74.98-1.31 1.167-.197.07-.409.092-.616.062a1.65 1.65 0 0 1-.637-.218 2.84 2.84 0 0 1-.867-1.095q-.36-.721-.647-1.477c-.42-1.04-1.07-3.599-1.07-3.599l-.672-2.68-.673-2.7-.478-1.773c-1.26-4.62-3.002-6.893-3.002-6.893a11.6 11.6 0 0 0-5.556-4.31c-2.604-.95-5.336-.415-5.336-.415-4.282.855-6.53 3.84-7.52 5.275.453.12.886.307 1.287.553.536.326.999.762 1.36 1.28.644.931.79 2.09.919 3.2.27 2.401.737 4.776 1.395 7.1 1.45-4.89 3.19-7.167 3.19-7.167a2.8 2.8 0 0 1 .69-.625q.209-.129.45-.161c.294-.029.59.044.838.207q.068.046.128.103.343.31.58.709.544.988.939 2.047c.544 1.556 1.007 3.458 1.007 3.458l1.385 5.549c1.008 3.773 1.861 5.605 1.861 5.605 2.103 4.894 5.32 6.27 5.32 6.27a11.1 11.1 0 0 0 5.081 1.352 10.44 10.44 0 0 0 4.9-1.072 12.5 12.5 0 0 0 4.295-3.53c.778-.916 1.924-3.148 1.924-3.148a40.8 40.8 0 0 0 2.959-8.019q.675-2.592 1.08-5.242c.136-.875.265-1.755.368-2.638a6.9 6.9 0 0 0-.076-2.516 4 4 0 0 0-.138-.438 4.73 4.73 0 0 0-2.12-2.429 4.8 4.8 0 0 0-2.325-.58"/><path fill="url(#x)" d="M84.76 12.392c-.4 0-.798.05-1.185.151a23.2 23.2 0 0 1 2.239 4.136 4.91 4.91 0 0 1 .05 3.833 4.8 4.8 0 0 1-1.033 1.564 4.7 4.7 0 0 1-1.543 1.043 4.68 4.68 0 0 1-4.216-.302l-.489 1.835c-.886 3.012-1.51 4.177-1.51 4.177a16.4 16.4 0 0 1-1.225 2.352c-.325.49-.74.98-1.31 1.167-.197.07-.409.092-.616.062a1.65 1.65 0 0 1-.637-.218 2.84 2.84 0 0 1-.867-1.095q-.36-.721-.647-1.477c-.42-1.04-1.07-3.599-1.07-3.599l-.672-2.68-.673-2.7-.478-1.773c-1.26-4.62-3.002-6.893-3.002-6.893a11.6 11.6 0 0 0-5.556-4.31c-2.604-.95-5.336-.415-5.336-.415-4.282.855-6.53 3.84-7.52 5.275.453.12.886.307 1.287.553.536.326.999.762 1.36 1.28.644.931.79 2.09.919 3.2.27 2.401.737 4.776 1.395 7.1 1.45-4.89 3.19-7.167 3.19-7.167a2.8 2.8 0 0 1 .69-.625q.209-.129.45-.161c.294-.029.59.044.838.207q.068.046.128.103.343.31.58.709.544.988.939 2.047c.544 1.556 1.007 3.458 1.007 3.458l1.385 5.549c1.008 3.773 1.861 5.605 1.861 5.605 2.103 4.894 5.32 6.27 5.32 6.27a11.1 11.1 0 0 0 5.081 1.352 10.44 10.44 0 0 0 4.9-1.072 12.5 12.5 0 0 0 4.295-3.53c.778-.916 1.924-3.148 1.924-3.148a40.8 40.8 0 0 0 2.959-8.019q.675-2.592 1.08-5.242c.136-.875.265-1.755.368-2.638a6.9 6.9 0 0 0-.076-2.516 4 4 0 0 0-.138-.438 4.73 4.73 0 0 0-2.12-2.429 4.8 4.8 0 0 0-2.325-.58"/><path fill="url(#y)" d="M84.76 12.392c-.4 0-.798.05-1.185.151a23.2 23.2 0 0 1 2.239 4.136 4.91 4.91 0 0 1 .05 3.833 4.8 4.8 0 0 1-1.033 1.564 4.7 4.7 0 0 1-1.543 1.043 4.68 4.68 0 0 1-4.216-.302l-.489 1.835c-.886 3.012-1.51 4.177-1.51 4.177a16.4 16.4 0 0 1-1.225 2.352c-.325.49-.74.98-1.31 1.167-.197.07-.409.092-.616.062a1.65 1.65 0 0 1-.637-.218 2.84 2.84 0 0 1-.867-1.095q-.36-.721-.647-1.477c-.42-1.04-1.07-3.599-1.07-3.599l-.672-2.68-.673-2.7-.478-1.773c-1.26-4.62-3.002-6.893-3.002-6.893a11.6 11.6 0 0 0-5.556-4.31c-2.604-.95-5.336-.415-5.336-.415-4.282.855-6.53 3.84-7.52 5.275.453.12.886.307 1.287.553.536.326.999.762 1.36 1.28.644.931.79 2.09.919 3.2.27 2.401.737 4.776 1.395 7.1 1.45-4.89 3.19-7.167 3.19-7.167a2.8 2.8 0 0 1 .69-.625q.209-.129.45-.161c.294-.029.59.044.838.207q.068.046.128.103.343.31.58.709.544.988.939 2.047c.544 1.556 1.007 3.458 1.007 3.458l1.385 5.549c1.008 3.773 1.861 5.605 1.861 5.605 2.103 4.894 5.32 6.27 5.32 6.27a11.1 11.1 0 0 0 5.081 1.352 10.44 10.44 0 0 0 4.9-1.072 12.5 12.5 0 0 0 4.295-3.53c.778-.916 1.924-3.148 1.924-3.148a40.8 40.8 0 0 0 2.959-8.019q.675-2.592 1.08-5.242c.136-.875.265-1.755.368-2.638a6.9 6.9 0 0 0-.076-2.516 4 4 0 0 0-.138-.438 4.73 4.73 0 0 0-2.12-2.429 4.8 4.8 0 0 0-2.325-.58"/><path fill="url(#z)" d="M84.76 12.392c-.4 0-.798.05-1.185.151a23.2 23.2 0 0 1 2.239 4.136 4.91 4.91 0 0 1 .05 3.833 4.8 4.8 0 0 1-1.033 1.564 4.7 4.7 0 0 1-1.543 1.043 4.68 4.68 0 0 1-4.216-.302l-.489 1.835c-.886 3.012-1.51 4.177-1.51 4.177a16.4 16.4 0 0 1-1.225 2.352c-.325.49-.74.98-1.31 1.167-.197.07-.409.092-.616.062a1.65 1.65 0 0 1-.637-.218 2.84 2.84 0 0 1-.867-1.095q-.36-.721-.647-1.477c-.42-1.04-1.07-3.599-1.07-3.599l-.672-2.68-.673-2.7-.478-1.773c-1.26-4.62-3.002-6.893-3.002-6.893a11.6 11.6 0 0 0-5.556-4.31c-2.604-.95-5.336-.415-5.336-.415-4.282.855-6.53 3.84-7.52 5.275.453.12.886.307 1.287.553.536.326.999.762 1.36 1.28.644.931.79 2.09.919 3.2.27 2.401.737 4.776 1.395 7.1 1.45-4.89 3.19-7.167 3.19-7.167a2.8 2.8 0 0 1 .69-.625q.209-.129.45-.161c.294-.029.59.044.838.207q.068.046.128.103.343.31.58.709.544.988.939 2.047c.544 1.556 1.007 3.458 1.007 3.458l1.385 5.549c1.008 3.773 1.861 5.605 1.861 5.605 2.103 4.894 5.32 6.27 5.32 6.27a11.1 11.1 0 0 0 5.081 1.352 10.44 10.44 0 0 0 4.9-1.072 12.5 12.5 0 0 0 4.295-3.53c.778-.916 1.924-3.148 1.924-3.148a40.8 40.8 0 0 0 2.959-8.019q.675-2.592 1.08-5.242c.136-.875.265-1.755.368-2.638a6.9 6.9 0 0 0-.076-2.516 4 4 0 0 0-.138-.438 4.73 4.73 0 0 0-2.12-2.429 4.8 4.8 0 0 0-2.325-.58"/><path fill="url(#A)" d="M84.76 12.392c-.4 0-.798.05-1.185.151a23.2 23.2 0 0 1 2.239 4.136 4.91 4.91 0 0 1 .05 3.833 4.8 4.8 0 0 1-1.033 1.564 4.7 4.7 0 0 1-1.543 1.043 4.68 4.68 0 0 1-4.216-.302l-.489 1.835c-.886 3.012-1.51 4.177-1.51 4.177a16.4 16.4 0 0 1-1.225 2.352c-.325.49-.74.98-1.31 1.167-.197.07-.409.092-.616.062a1.65 1.65 0 0 1-.637-.218 2.84 2.84 0 0 1-.867-1.095q-.36-.721-.647-1.477c-.42-1.04-1.07-3.599-1.07-3.599l-.672-2.68-.673-2.7-.478-1.773c-1.26-4.62-3.002-6.893-3.002-6.893a11.6 11.6 0 0 0-5.556-4.31c-2.604-.95-5.336-.415-5.336-.415-4.282.855-6.53 3.84-7.52 5.275.453.12.886.307 1.287.553.536.326.999.762 1.36 1.28.644.931.79 2.09.919 3.2.27 2.401.737 4.776 1.395 7.1 1.45-4.89 3.19-7.167 3.19-7.167a2.8 2.8 0 0 1 .69-.625q.209-.129.45-.161c.294-.029.59.044.838.207q.068.046.128.103.343.31.58.709.544.988.939 2.047c.544 1.556 1.007 3.458 1.007 3.458l1.385 5.549c1.008 3.773 1.861 5.605 1.861 5.605 2.103 4.894 5.32 6.27 5.32 6.27a11.1 11.1 0 0 0 5.081 1.352 10.44 10.44 0 0 0 4.9-1.072 12.5 12.5 0 0 0 4.295-3.53c.778-.916 1.924-3.148 1.924-3.148a40.8 40.8 0 0 0 2.959-8.019q.675-2.592 1.08-5.242c.136-.875.265-1.755.368-2.638a6.9 6.9 0 0 0-.076-2.516 4 4 0 0 0-.138-.438 4.73 4.73 0 0 0-2.12-2.429 4.8 4.8 0 0 0-2.325-.58"/><path fill="url(#B)" d="M84.76 12.392c-.4 0-.798.05-1.185.151a23.2 23.2 0 0 1 2.239 4.136 4.91 4.91 0 0 1 .05 3.833 4.8 4.8 0 0 1-1.033 1.564 4.7 4.7 0 0 1-1.543 1.043 4.68 4.68 0 0 1-4.216-.302l-.489 1.835c-.886 3.012-1.51 4.177-1.51 4.177a16.4 16.4 0 0 1-1.225 2.352c-.325.49-.74.98-1.31 1.167-.197.07-.409.092-.616.062a1.65 1.65 0 0 1-.637-.218 2.84 2.84 0 0 1-.867-1.095q-.36-.721-.647-1.477c-.42-1.04-1.07-3.599-1.07-3.599l-.672-2.68-.673-2.7-.478-1.773c-1.26-4.62-3.002-6.893-3.002-6.893a11.6 11.6 0 0 0-5.556-4.31c-2.604-.95-5.336-.415-5.336-.415-4.282.855-6.53 3.84-7.52 5.275.453.12.886.307 1.287.553.536.326.999.762 1.36 1.28.644.931.79 2.09.919 3.2.27 2.401.737 4.776 1.395 7.1 1.45-4.89 3.19-7.167 3.19-7.167a2.8 2.8 0 0 1 .69-.625q.209-.129.45-.161c.294-.029.59.044.838.207q.068.046.128.103.343.31.58.709.544.988.939 2.047c.544 1.556 1.007 3.458 1.007 3.458l1.385 5.549c1.008 3.773 1.861 5.605 1.861 5.605 2.103 4.894 5.32 6.27 5.32 6.27a11.1 11.1 0 0 0 5.081 1.352 10.44 10.44 0 0 0 4.9-1.072 12.5 12.5 0 0 0 4.295-3.53c.778-.916 1.924-3.148 1.924-3.148a40.8 40.8 0 0 0 2.959-8.019q.675-2.592 1.08-5.242c.136-.875.265-1.755.368-2.638a6.9 6.9 0 0 0-.076-2.516 4 4 0 0 0-.138-.438 4.73 4.73 0 0 0-2.12-2.429 4.8 4.8 0 0 0-2.325-.58"/><path fill="url(#C)" d="M84.76 12.392c-.4 0-.798.05-1.185.151a23.2 23.2 0 0 1 2.239 4.136 4.91 4.91 0 0 1 .05 3.833 4.8 4.8 0 0 1-1.033 1.564 4.7 4.7 0 0 1-1.543 1.043 4.68 4.68 0 0 1-4.216-.302l-.489 1.835c-.886 3.012-1.51 4.177-1.51 4.177a16.4 16.4 0 0 1-1.225 2.352c-.325.49-.74.98-1.31 1.167-.197.07-.409.092-.616.062a1.65 1.65 0 0 1-.637-.218 2.84 2.84 0 0 1-.867-1.095q-.36-.721-.647-1.477c-.42-1.04-1.07-3.599-1.07-3.599l-.672-2.68-.673-2.7-.478-1.773c-1.26-4.62-3.002-6.893-3.002-6.893a11.6 11.6 0 0 0-5.556-4.31c-2.604-.95-5.336-.415-5.336-.415-4.282.855-6.53 3.84-7.52 5.275.453.12.886.307 1.287.553.536.326.999.762 1.36 1.28.644.931.79 2.09.919 3.2.27 2.401.737 4.776 1.395 7.1 1.45-4.89 3.19-7.167 3.19-7.167a2.8 2.8 0 0 1 .69-.625q.209-.129.45-.161c.294-.029.59.044.838.207q.068.046.128.103.343.31.58.709.544.988.939 2.047c.544 1.556 1.007 3.458 1.007 3.458l1.385 5.549c1.008 3.773 1.861 5.605 1.861 5.605 2.103 4.894 5.32 6.27 5.32 6.27a11.1 11.1 0 0 0 5.081 1.352 10.44 10.44 0 0 0 4.9-1.072 12.5 12.5 0 0 0 4.295-3.53c.778-.916 1.924-3.148 1.924-3.148a40.8 40.8 0 0 0 2.959-8.019q.675-2.592 1.08-5.242c.136-.875.265-1.755.368-2.638a6.9 6.9 0 0 0-.076-2.516 4 4 0 0 0-.138-.438 4.73 4.73 0 0 0-2.12-2.429 4.8 4.8 0 0 0-2.325-.58"/><path fill="url(#D)" d="M84.76 12.392c-.4 0-.798.05-1.185.151a23.2 23.2 0 0 1 2.239 4.136 4.91 4.91 0 0 1 .05 3.833 4.8 4.8 0 0 1-1.033 1.564 4.7 4.7 0 0 1-1.543 1.043 4.68 4.68 0 0 1-4.216-.302l-.489 1.835c-.886 3.012-1.51 4.177-1.51 4.177a16.4 16.4 0 0 1-1.225 2.352c-.325.49-.74.98-1.31 1.167-.197.07-.409.092-.616.062a1.65 1.65 0 0 1-.637-.218 2.84 2.84 0 0 1-.867-1.095q-.36-.721-.647-1.477c-.42-1.04-1.07-3.599-1.07-3.599l-.672-2.68-.673-2.7-.478-1.773c-1.26-4.62-3.002-6.893-3.002-6.893a11.6 11.6 0 0 0-5.556-4.31c-2.604-.95-5.336-.415-5.336-.415-4.282.855-6.53 3.84-7.52 5.275.453.12.886.307 1.287.553.536.326.999.762 1.36 1.28.644.931.79 2.09.919 3.2.27 2.401.737 4.776 1.395 7.1 1.45-4.89 3.19-7.167 3.19-7.167a2.8 2.8 0 0 1 .69-.625q.209-.129.45-.161c.294-.029.59.044.838.207q.068.046.128.103.343.31.58.709.544.988.939 2.047c.544 1.556 1.007 3.458 1.007 3.458l1.385 5.549c1.008 3.773 1.861 5.605 1.861 5.605 2.103 4.894 5.32 6.27 5.32 6.27a11.1 11.1 0 0 0 5.081 1.352 10.44 10.44 0 0 0 4.9-1.072 12.5 12.5 0 0 0 4.295-3.53c.778-.916 1.924-3.148 1.924-3.148a40.8 40.8 0 0 0 2.959-8.019q.675-2.592 1.08-5.242c.136-.875.265-1.755.368-2.638a6.9 6.9 0 0 0-.076-2.516 4 4 0 0 0-.138-.438 4.73 4.73 0 0 0-2.12-2.429 4.8 4.8 0 0 0-2.325-.58"/><path fill="url(#E)" d="M84.76 12.392c-.4 0-.798.05-1.185.151a23.2 23.2 0 0 1 2.239 4.136 4.91 4.91 0 0 1 .05 3.833 4.8 4.8 0 0 1-1.033 1.564 4.7 4.7 0 0 1-1.543 1.043 4.68 4.68 0 0 1-4.216-.302l-.489 1.835c-.886 3.012-1.51 4.177-1.51 4.177a16.4 16.4 0 0 1-1.225 2.352c-.325.49-.74.98-1.31 1.167-.197.07-.409.092-.616.062a1.65 1.65 0 0 1-.637-.218 2.84 2.84 0 0 1-.867-1.095q-.36-.721-.647-1.477c-.42-1.04-1.07-3.599-1.07-3.599l-.672-2.68-.673-2.7-.478-1.773c-1.26-4.62-3.002-6.893-3.002-6.893a11.6 11.6 0 0 0-5.556-4.31c-2.604-.95-5.336-.415-5.336-.415-4.282.855-6.53 3.84-7.52 5.275.453.12.886.307 1.287.553.536.326.999.762 1.36 1.28.644.931.79 2.09.919 3.2.27 2.401.737 4.776 1.395 7.1 1.45-4.89 3.19-7.167 3.19-7.167a2.8 2.8 0 0 1 .69-.625q.209-.129.45-.161c.294-.029.59.044.838.207q.068.046.128.103.343.31.58.709.544.988.939 2.047c.544 1.556 1.007 3.458 1.007 3.458l1.385 5.549c1.008 3.773 1.861 5.605 1.861 5.605 2.103 4.894 5.32 6.27 5.32 6.27a11.1 11.1 0 0 0 5.081 1.352 10.44 10.44 0 0 0 4.9-1.072 12.5 12.5 0 0 0 4.295-3.53c.778-.916 1.924-3.148 1.924-3.148a40.8 40.8 0 0 0 2.959-8.019q.675-2.592 1.08-5.242c.136-.875.265-1.755.368-2.638a6.9 6.9 0 0 0-.076-2.516 4 4 0 0 0-.138-.438 4.73 4.73 0 0 0-2.12-2.429 4.8 4.8 0 0 0-2.325-.58"/><path fill="url(#F)" d="M84.76 12.392c-.4 0-.798.05-1.185.151a23.2 23.2 0 0 1 2.239 4.136 4.91 4.91 0 0 1 .05 3.833 4.8 4.8 0 0 1-1.033 1.564 4.7 4.7 0 0 1-1.543 1.043 4.68 4.68 0 0 1-4.216-.302l-.489 1.835c-.886 3.012-1.51 4.177-1.51 4.177a16.4 16.4 0 0 1-1.225 2.352c-.325.49-.74.98-1.31 1.167-.197.07-.409.092-.616.062a1.65 1.65 0 0 1-.637-.218 2.84 2.84 0 0 1-.867-1.095q-.36-.721-.647-1.477c-.42-1.04-1.07-3.599-1.07-3.599l-.672-2.68-.673-2.7-.478-1.773c-1.26-4.62-3.002-6.893-3.002-6.893a11.6 11.6 0 0 0-5.556-4.31c-2.604-.95-5.336-.415-5.336-.415-4.282.855-6.53 3.84-7.52 5.275.453.12.886.307 1.287.553.536.326.999.762 1.36 1.28.644.931.79 2.09.919 3.2.27 2.401.737 4.776 1.395 7.1 1.45-4.89 3.19-7.167 3.19-7.167a2.8 2.8 0 0 1 .69-.625q.209-.129.45-.161c.294-.029.59.044.838.207q.068.046.128.103.343.31.58.709.544.988.939 2.047c.544 1.556 1.007 3.458 1.007 3.458l1.385 5.549c1.008 3.773 1.861 5.605 1.861 5.605 2.103 4.894 5.32 6.27 5.32 6.27a11.1 11.1 0 0 0 5.081 1.352 10.44 10.44 0 0 0 4.9-1.072 12.5 12.5 0 0 0 4.295-3.53c.778-.916 1.924-3.148 1.924-3.148a40.8 40.8 0 0 0 2.959-8.019q.675-2.592 1.08-5.242c.136-.875.265-1.755.368-2.638a6.9 6.9 0 0 0-.076-2.516 4 4 0 0 0-.138-.438 4.73 4.73 0 0 0-2.12-2.429 4.8 4.8 0 0 0-2.325-.58"/><path fill="url(#G)" d="M84.76 12.392c-.4 0-.798.05-1.185.151a23.2 23.2 0 0 1 2.239 4.136 4.91 4.91 0 0 1 .05 3.833 4.8 4.8 0 0 1-1.033 1.564 4.7 4.7 0 0 1-1.543 1.043 4.68 4.68 0 0 1-4.216-.302l-.489 1.835c-.886 3.012-1.51 4.177-1.51 4.177a16.4 16.4 0 0 1-1.225 2.352c-.325.49-.74.98-1.31 1.167-.197.07-.409.092-.616.062a1.65 1.65 0 0 1-.637-.218 2.84 2.84 0 0 1-.867-1.095q-.36-.721-.647-1.477c-.42-1.04-1.07-3.599-1.07-3.599l-.672-2.68-.673-2.7-.478-1.773c-1.26-4.62-3.002-6.893-3.002-6.893a11.6 11.6 0 0 0-5.556-4.31c-2.604-.95-5.336-.415-5.336-.415-4.282.855-6.53 3.84-7.52 5.275.453.12.886.307 1.287.553.536.326.999.762 1.36 1.28.644.931.79 2.09.919 3.2.27 2.401.737 4.776 1.395 7.1 1.45-4.89 3.19-7.167 3.19-7.167a2.8 2.8 0 0 1 .69-.625q.209-.129.45-.161c.294-.029.59.044.838.207q.068.046.128.103.343.31.58.709.544.988.939 2.047c.544 1.556 1.007 3.458 1.007 3.458l1.385 5.549c1.008 3.773 1.861 5.605 1.861 5.605 2.103 4.894 5.32 6.27 5.32 6.27a11.1 11.1 0 0 0 5.081 1.352 10.44 10.44 0 0 0 4.9-1.072 12.5 12.5 0 0 0 4.295-3.53c.778-.916 1.924-3.148 1.924-3.148a40.8 40.8 0 0 0 2.959-8.019q.675-2.592 1.08-5.242c.136-.875.265-1.755.368-2.638a6.9 6.9 0 0 0-.076-2.516 4 4 0 0 0-.138-.438 4.73 4.73 0 0 0-2.12-2.429 4.8 4.8 0 0 0-2.325-.58"/><path fill="url(#H)" d="M84.76 12.392c-.4 0-.798.05-1.185.151a23.2 23.2 0 0 1 2.239 4.136 4.91 4.91 0 0 1 .05 3.833 4.8 4.8 0 0 1-1.033 1.564 4.7 4.7 0 0 1-1.543 1.043 4.68 4.68 0 0 1-4.216-.302l-.489 1.835c-.886 3.012-1.51 4.177-1.51 4.177a16.4 16.4 0 0 1-1.225 2.352c-.325.49-.74.98-1.31 1.167-.197.07-.409.092-.616.062a1.65 1.65 0 0 1-.637-.218 2.84 2.84 0 0 1-.867-1.095q-.36-.721-.647-1.477c-.42-1.04-1.07-3.599-1.07-3.599l-.672-2.68-.673-2.7-.478-1.773c-1.26-4.62-3.002-6.893-3.002-6.893a11.6 11.6 0 0 0-5.556-4.31c-2.604-.95-5.336-.415-5.336-.415-4.282.855-6.53 3.84-7.52 5.275.453.12.886.307 1.287.553.536.326.999.762 1.36 1.28.644.931.79 2.09.919 3.2.27 2.401.737 4.776 1.395 7.1 1.45-4.89 3.19-7.167 3.19-7.167a2.8 2.8 0 0 1 .69-.625q.209-.129.45-.161c.294-.029.59.044.838.207q.068.046.128.103.343.31.58.709.544.988.939 2.047c.544 1.556 1.007 3.458 1.007 3.458l1.385 5.549c1.008 3.773 1.861 5.605 1.861 5.605 2.103 4.894 5.32 6.27 5.32 6.27a11.1 11.1 0 0 0 5.081 1.352 10.44 10.44 0 0 0 4.9-1.072 12.5 12.5 0 0 0 4.295-3.53c.778-.916 1.924-3.148 1.924-3.148a40.8 40.8 0 0 0 2.959-8.019q.675-2.592 1.08-5.242c.136-.875.265-1.755.368-2.638a6.9 6.9 0 0 0-.076-2.516 4 4 0 0 0-.138-.438 4.73 4.73 0 0 0-2.12-2.429 4.8 4.8 0 0 0-2.325-.58"/><path fill="url(#I)" d="M84.76 12.392c-.4 0-.798.05-1.185.151a23.2 23.2 0 0 1 2.239 4.136 4.91 4.91 0 0 1 .05 3.833 4.8 4.8 0 0 1-1.033 1.564 4.7 4.7 0 0 1-1.543 1.043 4.68 4.68 0 0 1-4.216-.302l-.489 1.835c-.886 3.012-1.51 4.177-1.51 4.177a16.4 16.4 0 0 1-1.225 2.352c-.325.49-.74.98-1.31 1.167-.197.07-.409.092-.616.062a1.65 1.65 0 0 1-.637-.218 2.84 2.84 0 0 1-.867-1.095q-.36-.721-.647-1.477c-.42-1.04-1.07-3.599-1.07-3.599l-.672-2.68-.673-2.7-.478-1.773c-1.26-4.62-3.002-6.893-3.002-6.893a11.6 11.6 0 0 0-5.556-4.31c-2.604-.95-5.336-.415-5.336-.415-4.282.855-6.53 3.84-7.52 5.275.453.12.886.307 1.287.553.536.326.999.762 1.36 1.28.644.931.79 2.09.919 3.2.27 2.401.737 4.776 1.395 7.1 1.45-4.89 3.19-7.167 3.19-7.167a2.8 2.8 0 0 1 .69-.625q.209-.129.45-.161c.294-.029.59.044.838.207q.068.046.128.103.343.31.58.709.544.988.939 2.047c.544 1.556 1.007 3.458 1.007 3.458l1.385 5.549c1.008 3.773 1.861 5.605 1.861 5.605 2.103 4.894 5.32 6.27 5.32 6.27a11.1 11.1 0 0 0 5.081 1.352 10.44 10.44 0 0 0 4.9-1.072 12.5 12.5 0 0 0 4.295-3.53c.778-.916 1.924-3.148 1.924-3.148a40.8 40.8 0 0 0 2.959-8.019q.675-2.592 1.08-5.242c.136-.875.265-1.755.368-2.638a6.9 6.9 0 0 0-.076-2.516 4 4 0 0 0-.138-.438 4.73 4.73 0 0 0-2.12-2.429 4.8 4.8 0 0 0-2.325-.58"/><path fill="#000" d="M31.868 60.544h5.012l-7.288 22.188h-5.75l-5.447-16.743-5.447 16.743h-5.66L0 60.544h5.13l5.17 16.862 5.427-16.862h5.447l5.515 16.952zM58.378 73.42H42.12a7.1 7.1 0 0 0 1.24 3.173 5.6 5.6 0 0 0 2.31 1.875c.94.41 1.955.615 2.98.605a9.6 9.6 0 0 0 3.322-.612 10.8 10.8 0 0 0 3.048-1.729l2.392 3.472a12.1 12.1 0 0 1-4.178 2.396c-1.579.5-3.226.746-4.881.73a11.6 11.6 0 0 1-5.84-1.445 10.2 10.2 0 0 1-3.992-4.097 12.67 12.67 0 0 1-1.434-6.125 12.96 12.96 0 0 1 1.379-6.084 10.2 10.2 0 0 1 3.874-4.118 10.9 10.9 0 0 1 5.702-1.472 9.76 9.76 0 0 1 5.36 1.429 9.86 9.86 0 0 1 3.735 4.127 13.4 13.4 0 0 1 1.323 6.07c.007.464-.02 1.069-.082 1.805m-4.827-3.68a6.9 6.9 0 0 0-1.84-4.056 5.09 5.09 0 0 0-3.75-1.389 5.36 5.36 0 0 0-3.945 1.472 7.07 7.07 0 0 0-1.896 3.993zM78.944 61.475c1.678 1 3.053 2.44 3.979 4.167a12.3 12.3 0 0 1 1.461 6 12.25 12.25 0 0 1-1.461 5.993 10.74 10.74 0 0 1-3.992 4.181 10.64 10.64 0 0 1-5.564 1.492 8.95 8.95 0 0 1-3.979-.84 8.2 8.2 0 0 1-2.916-2.375v2.639h-4.826V51.1h4.826v12.083a8.3 8.3 0 0 1 2.916-2.36 8.86 8.86 0 0 1 3.979-.848c1.96-.024 3.89.495 5.577 1.5m-2.633 16.327a6.23 6.23 0 0 0 2.323-2.577 8.38 8.38 0 0 0 0-7.173 6.3 6.3 0 0 0-2.323-2.577 6.99 6.99 0 0 0-6.978 0 6.3 6.3 0 0 0-2.344 2.549 7.7 7.7 0 0 0-.841 3.639 7.7 7.7 0 0 0 .84 3.632 6.3 6.3 0 0 0 2.345 2.548 6.99 6.99 0 0 0 6.978 0zM108.199 73.42H91.948a7.1 7.1 0 0 0 1.24 3.173 5.6 5.6 0 0 0 2.31 1.875c.94.41 1.955.615 2.98.604a9.6 9.6 0 0 0 3.322-.61 10.8 10.8 0 0 0 3.048-1.73l2.386 3.472a12 12 0 0 1-4.172 2.396c-1.581.5-3.23.745-4.888.73a11.65 11.65 0 0 1-5.84-1.445 10.24 10.24 0 0 1-3.985-4.097 12.7 12.7 0 0 1-1.441-6.125c-.042-2.111.431-4.2 1.379-6.084a10.2 10.2 0 0 1 3.875-4.118 10.9 10.9 0 0 1 5.743-1.493 9.78 9.78 0 0 1 5.357 1.432 9.87 9.87 0 0 1 3.737 4.124 13.4 13.4 0 0 1 1.324 6.07c-.028.485-.076 1.09-.124 1.826m-4.827-3.68a6.93 6.93 0 0 0-1.847-4.029 5.103 5.103 0 0 0-3.737-1.417 5.34 5.34 0 0 0-3.944 1.473 7.03 7.03 0 0 0-1.896 3.993zM131.124 82.732h-5.909l-5.585-7.715-5.516 7.715h-5.633l8.274-11.326-8.143-10.862h5.916l5.378 7.41 5.378-7.41H131l-8.178 10.82zM65.77 92.135h-2.23v8.954h2.23zM83.859 94.7a3.87 3.87 0 0 0-1.882-.477c-1.453 0-2.46 1.017-2.46 2.388 0 1.331.965 2.39 2.46 2.39a3.9 3.9 0 0 0 1.882-.474v2.402a7 7 0 0 1-2.043.318c-2.522 0-4.734-1.749-4.734-4.636 0-2.672 2.004-4.633 4.734-4.633.693.002 1.382.11 2.043.32zM60.447 94.7a3.9 3.9 0 0 0-1.885-.477c-1.453 0-2.457 1.017-2.457 2.388 0 1.331.962 2.39 2.457 2.39a3.95 3.95 0 0 0 1.885-.474v2.402a7 7 0 0 1-2.046.318c-2.522 0-4.734-1.749-4.734-4.636 0-2.672 2.004-4.633 4.734-4.633.694.002 1.384.11 2.045.32zM90.916 94.256a2.28 2.28 0 0 0-1.653.685 2.32 2.32 0 0 0-.666 1.67 2.33 2.33 0 0 0 .665 1.673 2.3 2.3 0 0 0 1.654.685 2.28 2.28 0 0 0 1.654-.686 2.32 2.32 0 0 0 .667-1.672 2.34 2.34 0 0 0-.668-1.67 2.3 2.3 0 0 0-1.653-.685m4.696 2.355c0 2.563-1.961 4.636-4.696 4.636s-4.694-2.073-4.694-4.636c0-2.562 1.961-4.633 4.694-4.633s4.696 2.076 4.696 4.633M74.28 94.17a7.7 7.7 0 0 0-1.754-.272c-.898 0-1.386.303-1.386.732 0 .547.66.75 1.026.855l.62.197c1.456.467 2.118 1.47 2.118 2.562 0 2.248-1.961 2.997-3.68 2.997a13.4 13.4 0 0 1-2.42-.249v-2.06c.689.2 1.4.312 2.118.331 1.115 0 1.629-.327 1.629-.836 0-.452-.444-.715-.992-.892l-.479-.155c-1.24-.397-2.29-1.136-2.29-2.62 0-1.673 1.239-2.797 3.312-2.797.737.01 1.47.106 2.185.285zM37.999 101.059h-.975v-8.933h1.183V95.5a2.447 2.447 0 0 1 2.145-1.079c.41-.02.82.06 1.193.235.373.174.699.436.95.764q.676.894.677 2.37 0 1.749-.923 2.68a2.69 2.69 0 0 1-1.984.782 2.374 2.374 0 0 1-2.083-1.042zm3.94-3.302q0-1.215-.602-1.823a1.67 1.67 0 0 0-1.258-.5 1.73 1.73 0 0 0-1.428.658 2.6 2.6 0 0 0-.496 1.663q0 1.242.605 1.898a1.687 1.687 0 0 0 1.33.572 1.612 1.612 0 0 0 1.406-.684q.448-.63.448-1.784zM49.51 94.605l-2.232 6.539q-.447 1.303-.85 1.776a1.57 1.57 0 0 1-1.24.556 3.3 3.3 0 0 1-.764-.109v-.974q.303.08.617.087a.7.7 0 0 0 .327-.062.7.7 0 0 0 .263-.205c.226-.362.405-.751.53-1.159h-.381L43.427 94.6h1.267l1.813 5.495 1.81-5.495z"/><defs><radialGradient id="b" cx="0" cy="0" r="1" gradientTransform="rotate(74.56 20.017 55.83)scale(18.1127 13.5762)" gradientUnits="userSpaceOnUse"><stop stop-color="#227B60"/><stop offset=".14" stop-color="#227B60" stop-opacity=".81"/><stop offset=".58" stop-color="#227B60" stop-opacity=".23"/><stop offset=".78" stop-color="#227B60" stop-opacity="0"/></radialGradient><radialGradient id="c" cx="0" cy="0" r="1" gradientTransform="matrix(-.24127 12.25983 -9.16673 -.1804 71.09 20.41)" gradientUnits="userSpaceOnUse"><stop stop-color="#227B60"/><stop offset=".25" stop-color="#227B60" stop-opacity=".7"/><stop offset=".71" stop-color="#227B60" stop-opacity=".2"/><stop offset=".92" stop-color="#227B60" stop-opacity="0"/></radialGradient><radialGradient id="d" cx="0" cy="0" r="1" gradientTransform="matrix(.27478 11.4272 -7.98316 .19197 70.625 20.86)" gradientUnits="userSpaceOnUse"><stop stop-color="#227B60"/><stop offset=".07" stop-color="#227B60" stop-opacity=".9"/><stop offset=".34" stop-color="#227B60" stop-opacity=".51"/><stop offset=".59" stop-color="#227B60" stop-opacity=".23"/><stop offset=".79" stop-color="#227B60" stop-opacity=".06"/><stop offset=".92" stop-color="#227B60" stop-opacity="0"/></radialGradient><radialGradient id="e" cx="0" cy="0" r="1" gradientTransform="matrix(.22187 9.22666 -6.44588 .155 70.815 20.34)" gradientUnits="userSpaceOnUse"><stop stop-color="#227B60"/><stop offset=".36" stop-color="#227B60" stop-opacity=".63"/><stop offset=".92" stop-color="#227B60" stop-opacity="0"/></radialGradient><radialGradient id="f" cx="0" cy="0" r="1" gradientTransform="matrix(.17695 7.35881 -4.63411 .11143 71.211 20.858)" gradientUnits="userSpaceOnUse"><stop stop-color="#20735A"/><stop offset=".15" stop-color="#20745A" stop-opacity=".93"/><stop offset=".38" stop-color="#21755C" stop-opacity=".74"/><stop offset=".67" stop-color="#21785D" stop-opacity=".43"/><stop offset="1" stop-color="#227B60" stop-opacity="0"/></radialGradient><radialGradient id="g" cx="0" cy="0" r="1" gradientTransform="matrix(10.66387 4.78008 -3.62414 8.08508 72.182 22.032)" gradientUnits="userSpaceOnUse"><stop stop-color="#227A61"/><stop offset=".36" stop-color="#227A61" stop-opacity=".56"/><stop offset=".72" stop-color="#227A61" stop-opacity=".16"/><stop offset=".9" stop-color="#227A61" stop-opacity="0"/></radialGradient><radialGradient id="h" cx="0" cy="0" r="1" gradientTransform="matrix(12.68985 9.1222 -8.385 11.66432 69.093 3.524)" gradientUnits="userSpaceOnUse"><stop stop-color="#3CD9C3"/><stop offset=".07" stop-color="#3BD7C1" stop-opacity=".9"/><stop offset=".41" stop-color="#38CEB9" stop-opacity=".42"/><stop offset=".65" stop-color="#36C8B4" stop-opacity=".12"/><stop offset=".76" stop-color="#35C6B2" stop-opacity="0"/></radialGradient><radialGradient id="i" cx="0" cy="0" r="1" gradientTransform="matrix(2253.84361 1620.19522 -1143.30532 1590.445 13542.9 -7165.49)" gradientUnits="userSpaceOnUse"><stop stop-color="#3CD9C3"/><stop offset=".07" stop-color="#3BD7C1" stop-opacity=".9"/><stop offset=".41" stop-color="#38CEB9" stop-opacity=".42"/><stop offset=".65" stop-color="#36C8B4" stop-opacity=".12"/><stop offset=".76" stop-color="#35C6B2" stop-opacity="0"/></radialGradient><radialGradient id="j" cx="0" cy="0" r="1" gradientTransform="rotate(100.8 27.4 43.52)scale(13.9243 16.9499)" gradientUnits="userSpaceOnUse"><stop stop-color="#237F66" stop-opacity=".8"/><stop offset=".06" stop-color="#2C8C70" stop-opacity=".65"/><stop offset=".21" stop-color="#3DA785" stop-opacity=".37"/><stop offset=".35" stop-color="#4ABA93" stop-opacity=".17"/><stop offset=".47" stop-color="#51C59C" stop-opacity=".04"/><stop offset=".56" stop-color="#54C99F" stop-opacity="0"/></radialGradient><radialGradient id="k" cx="0" cy="0" r="1" gradientTransform="rotate(-51.273 60.225 -56.714)scale(18.0894 19.4704)" gradientUnits="userSpaceOnUse"><stop stop-color="#167C8A"/><stop offset=".04" stop-color="#167C8A" stop-opacity=".93"/><stop offset=".33" stop-color="#177F8D" stop-opacity=".43"/><stop offset=".54" stop-color="#17818F" stop-opacity=".12"/><stop offset=".65" stop-color="#178290" stop-opacity="0"/></radialGradient><radialGradient id="l" cx="0" cy="0" r="1" gradientTransform="matrix(14.87432 -9.32189 7.4172 11.83514 65.718 27.59)" gradientUnits="userSpaceOnUse"><stop offset=".05" stop-color="#177D87"/><stop offset=".11" stop-color="#177E89" stop-opacity=".8"/><stop offset=".21" stop-color="#177F8B" stop-opacity=".52"/><stop offset=".32" stop-color="#17818D" stop-opacity=".29"/><stop offset=".42" stop-color="#17818F" stop-opacity=".13"/><stop offset=".51" stop-color="#178290" stop-opacity=".03"/><stop offset=".6" stop-color="#178290" stop-opacity="0"/></radialGradient><radialGradient id="m" cx="0" cy="0" r="1" gradientTransform="matrix(-6.76715 -8.04137 6.31527 -5.31456 61.41 27.896)" gradientUnits="userSpaceOnUse"><stop offset=".26" stop-color="#177F8A"/><stop offset=".27" stop-color="#177F8A" stop-opacity=".98"/><stop offset=".38" stop-color="#17808C" stop-opacity=".68"/><stop offset=".5" stop-color="#17818D" stop-opacity=".43"/><stop offset=".62" stop-color="#17818F" stop-opacity=".24"/><stop offset=".74" stop-color="#17828F" stop-opacity=".11"/><stop offset=".86" stop-color="#178290" stop-opacity=".03"/><stop offset="1" stop-color="#178290" stop-opacity="0"/></radialGradient><radialGradient id="n" cx="0" cy="0" r="1" gradientTransform="matrix(-9.6957 -1.19065 1.20951 -9.84926 59.522 30.497)" gradientUnits="userSpaceOnUse"><stop stop-color="#13656E"/><stop offset=".11" stop-color="#13646E" stop-opacity=".73"/><stop offset=".27" stop-color="#12646E" stop-opacity=".41"/><stop offset=".42" stop-color="#12636E" stop-opacity=".18"/><stop offset=".55" stop-color="#12636E" stop-opacity=".05"/><stop offset=".66" stop-color="#12636E" stop-opacity="0"/></radialGradient><radialGradient id="o" cx="0" cy="0" r="1" gradientTransform="rotate(-118.926 39.064 -1.493)scale(6.9147 5.75908)" gradientUnits="userSpaceOnUse"><stop offset=".13" stop-color="#146A73"/><stop offset=".24" stop-color="#156F79" stop-opacity=".79"/><stop offset=".45" stop-color="#167783" stop-opacity=".45"/><stop offset=".65" stop-color="#167D8A" stop-opacity=".2"/><stop offset=".82" stop-color="#17818E" stop-opacity=".05"/><stop offset=".95" stop-color="#178290" stop-opacity="0"/></radialGradient><radialGradient id="p" cx="0" cy="0" r="1" gradientTransform="rotate(-56.421 56.473 -40.203)scale(6.49704 5.11542)" gradientUnits="userSpaceOnUse"><stop stop-color="#198E9C"/><stop offset=".1" stop-color="#198E9C" stop-opacity=".87"/><stop offset=".41" stop-color="#198E9C" stop-opacity=".5"/><stop offset=".67" stop-color="#198E9C" stop-opacity=".23"/><stop offset=".88" stop-color="#198E9C" stop-opacity=".06"/><stop offset="1" stop-color="#198E9C" stop-opacity="0"/></radialGradient><radialGradient id="w" cx="0" cy="0" r="1" gradientTransform="matrix(-3.24408 21.57143 -14.01876 -2.10825 77.655 23.413)" gradientUnits="userSpaceOnUse"><stop stop-color="#1A3D9C"/><stop offset=".4" stop-color="#1A3D9C" stop-opacity=".42"/><stop offset=".7" stop-color="#1A3D9C" stop-opacity="0"/></radialGradient><radialGradient id="x" cx="0" cy="0" r="1" gradientTransform="rotate(98.553 -1394.493 8049.698)scale(2683.29 1424.88)" gradientUnits="userSpaceOnUse"><stop stop-color="#1A3D9C"/><stop offset=".4" stop-color="#1A3D9C" stop-opacity=".42"/><stop offset=".7" stop-color="#1A3D9C" stop-opacity="0"/></radialGradient><radialGradient id="y" cx="0" cy="0" r="1" gradientTransform="rotate(98.479 -1972.944 7155.525)scale(3195.65 1300.18)" gradientUnits="userSpaceOnUse"><stop stop-color="#1A3D9C"/><stop offset=".4" stop-color="#1A3D9C" stop-opacity=".42"/><stop offset=".7" stop-color="#1A3D9C" stop-opacity="0"/></radialGradient><radialGradient id="z" cx="0" cy="0" r="1" gradientTransform="matrix(2.25837 18.9356 -13.00593 1.55116 74.238 21.943)" gradientUnits="userSpaceOnUse"><stop stop-color="#1A3D9C"/><stop offset=".16" stop-color="#1A3D9C" stop-opacity=".69"/><stop offset=".33" stop-color="#1A3D9C" stop-opacity=".4"/><stop offset=".49" stop-color="#1A3D9C" stop-opacity=".18"/><stop offset=".61" stop-color="#1A3D9C" stop-opacity=".05"/><stop offset=".7" stop-color="#1A3D9C" stop-opacity="0"/></radialGradient><radialGradient id="A" cx="0" cy="0" r="1" gradientTransform="matrix(4.7776 17.67612 -11.85327 3.20376 78.374 25.515)" gradientUnits="userSpaceOnUse"><stop stop-color="#18388F"/><stop offset=".37" stop-color="#193B96" stop-opacity=".45"/><stop offset=".7" stop-color="#1A3D9C" stop-opacity="0"/></radialGradient><radialGradient id="B" cx="0" cy="0" r="1" gradientTransform="rotate(74.875 18.434 65.212)scale(8.51348 7.97577)" gradientUnits="userSpaceOnUse"><stop stop-color="#18388F"/><stop offset=".09" stop-color="#183992" stop-opacity=".78"/><stop offset=".22" stop-color="#193B96" stop-opacity=".5"/><stop offset=".35" stop-color="#193C98" stop-opacity=".28"/><stop offset=".47" stop-color="#1A3C9A" stop-opacity=".13"/><stop offset=".59" stop-color="#1A3D9C" stop-opacity=".03"/><stop offset=".7" stop-color="#1A3D9C" stop-opacity="0"/></radialGradient><radialGradient id="C" cx="0" cy="0" r="1" gradientTransform="rotate(74.875 17.585 66.07)scale(8.51348 7.97577)" gradientUnits="userSpaceOnUse"><stop stop-color="#1A3D9C" stop-opacity=".8"/><stop offset=".01" stop-color="#1A3D9C" stop-opacity=".78"/><stop offset=".24" stop-color="#1A3D9C" stop-opacity=".45"/><stop offset=".44" stop-color="#1A3D9C" stop-opacity=".2"/><stop offset=".6" stop-color="#1A3D9C" stop-opacity=".05"/><stop offset=".7" stop-color="#1A3D9C" stop-opacity="0"/></radialGradient><radialGradient id="D" cx="0" cy="0" r="1" gradientTransform="rotate(67.359 7.404 54.742)scale(20.2907 13.3132)" gradientUnits="userSpaceOnUse"><stop stop-color="#1A3D9C"/><stop offset=".4" stop-color="#1A3D9C" stop-opacity=".56"/><stop offset=".48" stop-color="#1A3D9C" stop-opacity=".43"/><stop offset=".69" stop-color="#1A3D9C" stop-opacity=".12"/><stop offset=".79" stop-color="#1A3D9C" stop-opacity="0"/></radialGradient><radialGradient id="E" cx="0" cy="0" r="1" gradientTransform="matrix(3.56541 14.64535 -9.53097 2.32032 53.796 22.068)" gradientUnits="userSpaceOnUse"><stop stop-color="#1A3D9C"/><stop offset=".06" stop-color="#1A3D9C" stop-opacity=".88"/><stop offset=".21" stop-color="#1A3D9C" stop-opacity=".61"/><stop offset=".36" stop-color="#1A3D9C" stop-opacity=".39"/><stop offset=".51" stop-color="#1A3D9C" stop-opacity=".22"/><stop offset=".67" stop-color="#1A3D9C" stop-opacity=".1"/><stop offset=".83" stop-color="#1A3D9C" stop-opacity=".02"/><stop offset="1" stop-color="#1A3D9C" stop-opacity="0"/></radialGradient><radialGradient id="F" cx="0" cy="0" r="1" gradientTransform="matrix(3.56541 14.64535 -9.53097 2.32032 53.796 22.068)" gradientUnits="userSpaceOnUse"><stop stop-color="#1B3E9E"/><stop offset=".06" stop-color="#1B3E9E" stop-opacity=".87"/><stop offset=".21" stop-color="#1B3E9D" stop-opacity=".61"/><stop offset=".36" stop-color="#1A3D9D" stop-opacity=".39"/><stop offset=".52" stop-color="#1A3D9C" stop-opacity=".22"/><stop offset=".67" stop-color="#1A3D9C" stop-opacity=".1"/><stop offset=".83" stop-color="#1A3D9C" stop-opacity=".02"/><stop offset="1" stop-color="#1A3D9C" stop-opacity="0"/></radialGradient><radialGradient id="G" cx="0" cy="0" r="1" gradientTransform="rotate(76.318 14.073 44.889)scale(11.5316 7.50458)" gradientUnits="userSpaceOnUse"><stop stop-color="#183991"/><stop offset=".03" stop-color="#183992" stop-opacity=".95"/><stop offset=".18" stop-color="#193A95" stop-opacity=".66"/><stop offset=".34" stop-color="#193B97" stop-opacity=".42"/><stop offset=".5" stop-color="#1A3C99" stop-opacity=".24"/><stop offset=".66" stop-color="#1A3D9B" stop-opacity=".1"/><stop offset=".82" stop-color="#1A3D9C" stop-opacity=".03"/><stop offset="1" stop-color="#1A3D9C" stop-opacity="0"/></radialGradient><radialGradient id="H" cx="0" cy="0" r="1" gradientTransform="rotate(87.184 16.625 40.727)scale(9.12016 7.90018)" gradientUnits="userSpaceOnUse"><stop offset=".04" stop-color="#2453D6" stop-opacity=".6"/><stop offset=".2" stop-color="#2453D6" stop-opacity=".49"/><stop offset=".52" stop-color="#2453D6" stop-opacity=".2"/><stop offset=".73" stop-color="#2453D6" stop-opacity="0"/></radialGradient><linearGradient id="a" x1="43.651" x2="81.151" y1="30.68" y2="15.765" gradientUnits="userSpaceOnUse"><stop offset=".13" stop-color="#1CBBF3"/><stop offset=".34" stop-color="#1F99A5"/><stop offset=".45" stop-color="#209CA6"/><stop offset=".51" stop-color="#24A4AA"/><stop offset=".57" stop-color="#2BB3B0"/><stop offset=".6" stop-color="#30BDB4"/><stop offset=".79" stop-color="#38BA90"/><stop offset="1" stop-color="#60F05A"/></linearGradient><linearGradient id="q" x1="46.056" x2="62.772" y1="6.306" y2="21.528" gradientUnits="userSpaceOnUse"><stop offset=".13" stop-color="#2BF9FF"/><stop offset=".27" stop-color="#29F9FF" stop-opacity=".64"/><stop offset=".4" stop-color="#27FAFF" stop-opacity=".3"/><stop offset=".49" stop-color="#26FAFF" stop-opacity=".08"/><stop offset=".54" stop-color="#26FAFF" stop-opacity="0"/></linearGradient><linearGradient id="r" x1="36.728" x2="56.014" y1="31.588" y2="26.208" gradientUnits="userSpaceOnUse"><stop stop-color="#26FAFF"/><stop offset=".06" stop-color="#26FAFF" stop-opacity=".88"/><stop offset=".24" stop-color="#26FAFF" stop-opacity=".51"/><stop offset=".39" stop-color="#26FAFF" stop-opacity=".23"/><stop offset=".5" stop-color="#26FAFF" stop-opacity=".06"/><stop offset=".55" stop-color="#26FAFF" stop-opacity="0"/></linearGradient><linearGradient id="s" x1="41.825" x2="63.589" y1="30.907" y2="23.275" gradientUnits="userSpaceOnUse"><stop stop-color="#21DEFF"/><stop offset=".04" stop-color="#21DEFF" stop-opacity=".88"/><stop offset=".17" stop-color="#21DEFF" stop-opacity=".51"/><stop offset=".27" stop-color="#21DEFF" stop-opacity=".23"/><stop offset=".34" stop-color="#21DEFF" stop-opacity=".06"/><stop offset=".38" stop-color="#21DEFF" stop-opacity="0"/></linearGradient><linearGradient id="t" x1="62.43" x2="74.846" y1="19.538" y2="39.464" gradientUnits="userSpaceOnUse"><stop offset=".62" stop-color="#21DEFF" stop-opacity="0"/><stop offset=".66" stop-color="#21DEFF" stop-opacity=".06"/><stop offset=".73" stop-color="#21DEFF" stop-opacity=".23"/><stop offset=".83" stop-color="#21DEFF" stop-opacity=".51"/><stop offset=".96" stop-color="#21DEFF" stop-opacity=".88"/><stop offset="1" stop-color="#21DEFF"/></linearGradient><linearGradient id="u" x1="75.929" x2="73.96" y1="27.05" y2="17.605" gradientUnits="userSpaceOnUse"><stop stop-color="#44B044"/><stop offset=".11" stop-color="#44B044" stop-opacity=".8"/><stop offset=".27" stop-color="#44B044" stop-opacity=".52"/><stop offset=".43" stop-color="#44B044" stop-opacity=".29"/><stop offset=".58" stop-color="#44B044" stop-opacity=".13"/><stop offset=".7" stop-color="#44B044" stop-opacity=".03"/><stop offset=".8" stop-color="#44B044" stop-opacity="0"/></linearGradient><linearGradient id="v" x1="49.312" x2="89.589" y1="17.247" y2="30.367" gradientUnits="userSpaceOnUse"><stop stop-color="#3066FB"/><stop offset=".38" stop-color="#2F64F7"/><stop offset=".74" stop-color="#2857D9"/><stop offset="1" stop-color="#3C7EFF"/></linearGradient><linearGradient id="I" x1="75.4" x2="64.973" y1=".585" y2="25.945" gradientUnits="userSpaceOnUse"><stop stop-color="#3774FF"/><stop offset=".05" stop-color="#3774FF" stop-opacity=".91"/><stop offset=".16" stop-color="#3774FF" stop-opacity=".66"/><stop offset=".32" stop-color="#3774FF" stop-opacity=".28"/><stop offset=".43" stop-color="#3774FF" stop-opacity="0"/></linearGradient></defs></svg>