<svg xmlns="http://www.w3.org/2000/svg" width="32" height="32" viewBox="0 0 32 32"><path d="M29.515 18.817a4.386 4.386 0 0 0-3.19-4.014 2.75 2.75 0 1 0-3.62 0c-.677.224-1.3.587-1.83 1.065a8.948 8.948 0 0 0-2.485-1.062 4.5 4.5 0 1 0-4.75 0 8.94 8.94 0 0 0-2.506 1.076 5.144 5.144 0 0 0-1.838-1.076 2.75 2.75 0 1 0-3.62 0 4.387 4.387 0 0 0-3.19 4.014c0 .509.305 1.21 1.757 1.664 1.055.295 2.147.436 3.243.418l.141-.002a6.747 6.747 0 0 0-.112 1.171c0 .797.494 1.907 2.845 2.672 1.837.535 3.743.79 5.656.757 4.23 0 8.5-1.06 8.5-3.429a6.747 6.747 0 0 0-.114-1.176c.038 0 .075.003.113.003 2.417 0 5-.547 5-2.08Zm-5-7.818a1.75 1.75 0 1 1 0 3.501 1.75 1.75 0 0 1 0-3.501Zm-12 0a3.5 3.5 0 1 1 7.001 0 3.5 3.5 0 0 1-7 0Zm-5.03.003a1.75 1.75 0 1 1 0 3.501 1.75 1.75 0 0 1 0-3.501Zm.393 8.888c-.131.003-.255.012-.392.012-2.478 0-4-.63-4-1.082 0-1.83 1.794-3.318 4-3.318a4.433 4.433 0 0 1 2.826.972 7.532 7.532 0 0 0-2.434 3.416Zm8.138 4.61c-4.206 0-7.5-1.067-7.5-2.429 0-3.623 3.363-6.571 7.5-6.571 4.135 0 7.5 2.948 7.5 6.571 0 1.362-3.295 2.429-7.5 2.429Zm5.687-8.04a4.434 4.434 0 0 1 2.812-.961c2.206 0 4 1.488 4 3.318 0 .451-1.522 1.081-4 1.081-.128 0-.241-.008-.364-.011a7.535 7.535 0 0 0-2.448-3.426Z"/></svg>