<svg xmlns="http://www.w3.org/2000/svg" width="32" height="33" fill="none" viewBox="0 0 32 33"><path d="M26.114 14.383c1.333-.538 1.893-2.244 1.295-3.623l-.05-.13a11.766 11.766 0 0 0-.847-1.616 5.68 5.68 0 0 0-.523-.76c-1.706-2.206-3.712-2.6-4.932-2.6a5.707 5.707 0 0 0-2.464.54 5.992 5.992 0 0 0-2.033 1.56c.296.396.558.817.785 1.26.834 1.589 1.357 3.768 1.793 5.619l.104-.373c.212-.765.452-1.63.718-2.148.511-.984.86-.984 1.097-.984.71 0 1.283 1.102 1.557 1.746 0 0 .984 2.546 3.5 1.51ZM4.278 8.87c-1.345.105-2.454 1.575-2.255 3.085.063.55.2 1.404.374 2.336.075.42.162.867.25 1.3.217 1.047.487 2.08.809 3.098a26.145 26.145 0 0 0 1.258 3.294c1.88 3.86 4.422 4.674 6.228 4.674a5.696 5.696 0 0 0 2.464-.538 5.98 5.98 0 0 0 2.033-1.563 9.297 9.297 0 0 1-.835-1.352c-.797-1.549-1.308-3.334-1.744-5.198-.2.743-.467 1.464-.797 2.153-.523 1.024-.884 1.024-1.121 1.024-.51 0-1.046-.578-1.594-1.694a18.61 18.61 0 0 1-.748-1.877c-.15-.46-.299-.932-.423-1.391l-.03-.107c-.127-.47-.326-1.204-.419-1.678-.221-1.057-.479-2.69-.56-3.202l-.025-.159c-.112-.59-.772-2.389-2.865-2.205Z"/><path d="M27.509 8.844h-.063c.26.457.493.93.698 1.418l.062.13c.376.884.404 1.887.08 2.793a3.592 3.592 0 0 1-1.811 2.039 3.42 3.42 0 0 1-1.433.328 3.678 3.678 0 0 1-.996-.158c-.349 1.379-.897 3.072-1.395 4.096s-1.084 1.693-1.607 1.693c-.224 0-.585 0-1.109-1.024-.33-.689-.597-1.41-.797-2.152a42.74 42.74 0 0 1-.46-1.838c-.063-.237-.113-.473-.163-.71-.473-2.073-1.009-4.252-1.93-5.998a9.644 9.644 0 0 0-1.146-1.707 5.992 5.992 0 0 0-2.04-1.563 5.707 5.707 0 0 0-2.47-.537c-1.208 0-3.213.394-4.92 2.6.538.254 1.006.65 1.36 1.148.352.499.58 1.083.658 1.7.087.656.3 1.93.548 3.137.025.131.05.263.088.407.145-.398.29-.749.442-1.114l.13-.317.15-.341c.274-.643.847-1.746 1.545-1.746.249 0 .597 0 1.108.985.344.703.62 1.442.822 2.205.162.59.324 1.22.461 1.85.05.184.087.368.125.552.498 2.192 1.021 4.306 1.918 6.052.186.37.398.726.635 1.063.175.25.362.492.56.722 1.483 1.693 3.19 2.1 4.485 2.1 1.806 0 4.36-.814 6.24-4.673.96-1.982 1.77-4.91 2.068-6.393.3-1.483.523-2.822.623-3.636.047-.357.027-.72-.06-1.07a2.794 2.794 0 0 0-.445-.962 2.638 2.638 0 0 0-.762-.708 2.502 2.502 0 0 0-.963-.345l-.236-.026Z"/></svg>