<svg xmlns="http://www.w3.org/2000/svg" width="131" height="107" fill="none" viewBox="0 0 131 107"><g fill="#fff" clip-path="url(#a)"><path d="M45.405 12.446c-2.306.175-4.207 2.618-3.865 5.127.107.917.342 2.335.64 3.884.129.698.278 1.44.428 2.16.372 1.74.836 3.46 1.388 5.15a43 43 0 0 0 2.156 5.476c3.225 6.414 7.58 7.767 10.677 7.767a10 10 0 0 0 4.224-.894 10.2 10.2 0 0 0 3.485-2.597 15.4 15.4 0 0 1-1.43-2.247c-1.367-2.575-2.243-5.542-2.99-8.64a20.4 20.4 0 0 1-1.367 3.578c-.897 1.702-1.516 1.702-1.922 1.702-.875 0-1.794-.96-2.733-2.815a30 30 0 0 1-1.281-3.12 48 48 0 0 1-.726-2.313c-.214-.763-.598-2.116-.77-2.967-.448-2.073-.981-5.476-1.003-5.585-.192-.982-1.324-3.971-4.911-3.666M82.838 21.61c2.285-.895 3.246-3.731 2.221-6.022l-.085-.218a19.4 19.4 0 0 0-1.452-2.684 9.4 9.4 0 0 0-.897-1.266C79.699 7.755 76.26 7.1 74.169 7.1a10.04 10.04 0 0 0-4.223.896 10.2 10.2 0 0 0-3.486 2.595 14.5 14.5 0 0 1 1.345 2.095c1.43 2.64 2.328 6.262 3.075 9.338.406-1.396.876-3.185 1.41-4.189.875-1.636 1.473-1.636 1.879-1.636 1.217 0 2.2 1.832 2.669 2.901 0 0 1.687 4.233 6 2.51"/><path d="m85.635 12.446-.406-.044h-.106q.668 1.141 1.195 2.357l.107.218a6.2 6.2 0 0 1 .137 4.64 6.04 6.04 0 0 1-3.105 3.39 6 6 0 0 1-2.456.544 6.5 6.5 0 0 1-1.708-.261c-.598 2.29-1.537 5.105-2.391 6.807s-1.858 2.814-2.755 2.814c-.384 0-1.004 0-1.9-1.701a20.4 20.4 0 0 1-1.367-3.579 69 69 0 0 1-.79-3.054c-.107-.393-.192-.786-.278-1.178-.811-3.448-1.73-7.07-3.31-9.971a16 16 0 0 0-1.003-1.615q-.45-.636-.961-1.222a10.2 10.2 0 0 0-3.496-2.599 10.04 10.04 0 0 0-4.234-.891c-2.072 0-5.51.654-8.435 4.32a6 6 0 0 1 2.33 1.91 6.16 6.16 0 0 1 1.13 2.824c.149 1.091.512 3.207.939 5.215.043.218.085.436.15.676.32-.85.64-1.57.982-2.378l.256-.567c.47-1.07 1.452-2.902 2.648-2.902.427 0 1.025 0 1.9 1.636a19.7 19.7 0 0 1 1.41 3.666c.277.981.555 2.029.79 3.076.085.305.15.61.213.916.854 3.644 1.751 7.157 3.289 10.058q.478.927 1.089 1.768.45.626.96 1.2c2.542 2.814 5.467 3.49 7.688 3.49 3.096 0 7.474-1.352 10.698-7.767 1.644-3.294 3.032-8.16 3.545-10.625.512-2.466.897-4.69 1.067-6.044a4.6 4.6 0 0 0-.102-1.777 4.6 4.6 0 0 0-.763-1.6 4.5 4.5 0 0 0-1.307-1.177 4.4 4.4 0 0 0-1.65-.573M38.201 101.319h-.98v-8.98h1.19v3.392a2.457 2.457 0 0 1 2.154-1.085 2.574 2.574 0 0 1 2.156 1.004q.68.9.68 2.383 0 1.757-.927 2.694a2.7 2.7 0 0 1-1.994.786 2.38 2.38 0 0 1-2.094-1.047zM42.162 98q0-1.221-.606-1.832a1.69 1.69 0 0 0-1.263-.503 1.73 1.73 0 0 0-1.436.663 2.6 2.6 0 0 0-.499 1.67q0 1.255.609 1.908c.166.189.372.339.603.439s.481.145.733.136a1.62 1.62 0 0 0 1.413-.686q.446-.632.446-1.795M49.767 94.835l-2.244 6.572q-.449 1.308-.855 1.783a1.58 1.58 0 0 1-1.246.562 3.2 3.2 0 0 1-.768-.113v-.974q.304.083.618.088a.71.71 0 0 0 .596-.269c.228-.363.407-.755.534-1.165h-.387l-2.363-6.484h1.286l1.823 5.51 1.82-5.51zM66.116 92.352h-2.243v8.997h2.243zM84.296 94.93a3.9 3.9 0 0 0-1.895-.482c-1.458 0-2.47 1.022-2.47 2.4 0 1.338.97 2.403 2.47 2.403a3.9 3.9 0 0 0 1.895-.477v2.415a7 7 0 0 1-2.057.321c-2.532 0-4.756-1.757-4.756-4.662 0-2.686 2.014-4.657 4.756-4.657.698 0 1.392.11 2.057.324zM60.752 94.93a3.9 3.9 0 0 0-1.894-.482c-1.46 0-2.47 1.022-2.47 2.4 0 1.338.967 2.403 2.47 2.403a3.9 3.9 0 0 0 1.894-.465v2.415a7.1 7.1 0 0 1-2.056.322c-2.535 0-4.758-1.758-4.758-4.663 0-2.686 2.014-4.657 4.758-4.657a6.7 6.7 0 0 1 2.056.307zM91.388 94.483a2.34 2.34 0 0 0-1.31.39 2.38 2.38 0 0 0-.374 3.645 2.336 2.336 0 0 0 3.622-.353 2.4 2.4 0 0 0 .395-1.317 2.34 2.34 0 0 0-.67-1.679 2.3 2.3 0 0 0-1.663-.686m4.721 2.365c0 2.576-1.974 4.662-4.72 4.662-2.748 0-4.714-2.086-4.714-4.662s1.969-4.657 4.718-4.657c2.75 0 4.721 2.089 4.721 4.657M74.666 94.395a7.7 7.7 0 0 0-1.762-.273c-.903 0-1.396.303-1.396.738 0 .547.663.738 1.034.856l.623.198c1.464.47 2.13 1.479 2.13 2.576 0 2.259-1.975 3.013-3.7 3.013q-1.227-.015-2.433-.251V99.18a8.4 8.4 0 0 0 2.13.334c1.12 0 1.637-.329 1.637-.838 0-.457-.446-.72-.997-.897-.137-.047-.342-.11-.481-.158-1.247-.399-2.303-1.142-2.303-2.63 0-1.686 1.246-2.815 3.33-2.815.74.01 1.477.106 2.196.286zM31.868 60.544h5.012l-7.288 22.188h-5.75l-5.447-16.743-5.447 16.743h-5.66L0 60.544h5.13l5.17 16.862 5.427-16.862h5.447l5.515 16.952zM58.378 73.42H42.12a7.1 7.1 0 0 0 1.24 3.173 5.6 5.6 0 0 0 2.31 1.875c.94.41 1.955.615 2.98.605a9.6 9.6 0 0 0 3.322-.612 10.8 10.8 0 0 0 3.048-1.729l2.392 3.472a12.1 12.1 0 0 1-4.178 2.396c-1.579.5-3.226.746-4.881.73a11.6 11.6 0 0 1-5.84-1.445 10.2 10.2 0 0 1-3.992-4.097 12.67 12.67 0 0 1-1.434-6.125 12.96 12.96 0 0 1 1.379-6.084 10.2 10.2 0 0 1 3.874-4.118 10.9 10.9 0 0 1 5.702-1.472 9.76 9.76 0 0 1 5.36 1.429 9.86 9.86 0 0 1 3.735 4.127 13.4 13.4 0 0 1 1.323 6.07c.007.464-.02 1.069-.082 1.805m-4.827-3.68a6.9 6.9 0 0 0-1.84-4.056 5.09 5.09 0 0 0-3.75-1.389 5.36 5.36 0 0 0-3.945 1.472 7.07 7.07 0 0 0-1.896 3.993zM78.944 61.475c1.678 1 3.053 2.44 3.979 4.167a12.3 12.3 0 0 1 1.461 6 12.25 12.25 0 0 1-1.461 5.993 10.74 10.74 0 0 1-3.992 4.181 10.64 10.64 0 0 1-5.564 1.492 8.95 8.95 0 0 1-3.979-.84 8.2 8.2 0 0 1-2.916-2.375v2.639h-4.826V51.1h4.826v12.083a8.3 8.3 0 0 1 2.916-2.36 8.86 8.86 0 0 1 3.979-.848c1.96-.024 3.89.495 5.577 1.5m-2.633 16.327a6.23 6.23 0 0 0 2.323-2.577 8.38 8.38 0 0 0 0-7.173 6.3 6.3 0 0 0-2.323-2.577 6.99 6.99 0 0 0-6.978 0 6.3 6.3 0 0 0-2.344 2.549 7.7 7.7 0 0 0-.841 3.639 7.7 7.7 0 0 0 .84 3.632 6.3 6.3 0 0 0 2.345 2.548 6.99 6.99 0 0 0 6.978 0zM108.199 73.42H91.948a7.1 7.1 0 0 0 1.24 3.173 5.6 5.6 0 0 0 2.31 1.875c.94.41 1.955.615 2.98.604a9.6 9.6 0 0 0 3.322-.61 10.8 10.8 0 0 0 3.048-1.73l2.386 3.472a12 12 0 0 1-4.172 2.396c-1.581.5-3.23.745-4.888.73a11.65 11.65 0 0 1-5.84-1.445 10.24 10.24 0 0 1-3.985-4.097 12.7 12.7 0 0 1-1.441-6.125c-.042-2.111.431-4.2 1.379-6.084a10.2 10.2 0 0 1 3.875-4.118 10.9 10.9 0 0 1 5.743-1.493 9.78 9.78 0 0 1 5.357 1.432 9.87 9.87 0 0 1 3.737 4.124 13.4 13.4 0 0 1 1.324 6.07c-.028.485-.076 1.09-.124 1.826m-4.827-3.68a6.93 6.93 0 0 0-1.847-4.029 5.103 5.103 0 0 0-3.737-1.417 5.34 5.34 0 0 0-3.944 1.473 7.03 7.03 0 0 0-1.896 3.993zM131.124 82.732h-5.909l-5.585-7.715-5.516 7.715h-5.633l8.274-11.326-8.143-10.862h5.916l5.378 7.41 5.378-7.41H131l-8.178 10.82z"/></g><defs><clipPath id="a"><path fill="#fff" d="M0 .1h131v106H0z"/></clipPath></defs></svg>