<svg xmlns="http://www.w3.org/2000/svg" width="378" height="24" fill="none" viewBox="0 0 378 24"><path fill="#000" d="M19.948 6.22h3.137l-4.562 13.789h-3.599l-3.41-10.406L8.105 20.01H4.562L0 6.219h3.211L6.448 16.7l3.396-10.48h3.41l3.452 10.536zM36.542 14.221H26.365a4.4 4.4 0 0 0 .777 1.973c.369.51.868.913 1.446 1.165a4.6 4.6 0 0 0 1.864.375 6 6 0 0 0 2.08-.38 6.8 6.8 0 0 0 1.908-1.074l1.498 2.158a7.6 7.6 0 0 1-2.616 1.489c-.988.31-2.02.463-3.055.453a7.3 7.3 0 0 1-3.656-.898 6.37 6.37 0 0 1-2.499-2.546 7.8 7.8 0 0 1-.897-3.807 8 8 0 0 1 .863-3.78 6.36 6.36 0 0 1 2.425-2.56 6.9 6.9 0 0 1 3.57-.915 6.14 6.14 0 0 1 5.692 3.453 8.26 8.26 0 0 1 .829 3.772q.006.436-.052 1.122m-3.021-2.287a4.26 4.26 0 0 0-1.153-2.52 3.2 3.2 0 0 0-2.347-.864 3.38 3.38 0 0 0-2.469.915 4.38 4.38 0 0 0-1.187 2.482zM49.416 6.798a6.7 6.7 0 0 1 2.49 2.59 7.6 7.6 0 0 1 .915 3.728 7.57 7.57 0 0 1-.915 3.725 6.7 6.7 0 0 1-5.981 3.526 5.6 5.6 0 0 1-2.49-.523 5.1 5.1 0 0 1-1.826-1.476v1.64h-3.021V.35h3.02v7.51a5.2 5.2 0 0 1 1.827-1.468 5.6 5.6 0 0 1 2.49-.526 6.7 6.7 0 0 1 3.491.932m-1.648 10.146a3.9 3.9 0 0 0 1.454-1.6 5.18 5.18 0 0 0 0-4.46 3.9 3.9 0 0 0-1.454-1.6 4.4 4.4 0 0 0-4.368 0c-.627.38-1.136.93-1.467 1.584a4.8 4.8 0 0 0-.527 2.261c-.014.785.167 1.56.527 2.257.331.655.84 1.203 1.467 1.584a4.4 4.4 0 0 0 4.368 0zM67.727 14.221H57.555a4.4 4.4 0 0 0 .777 1.973c.368.51.868.913 1.446 1.165a4.6 4.6 0 0 0 1.864.375 6 6 0 0 0 2.08-.38 6.8 6.8 0 0 0 1.908-1.074l1.493 2.158a7.5 7.5 0 0 1-2.611 1.489c-.99.31-2.023.463-3.06.453a7.34 7.34 0 0 1-3.655-.898 6.4 6.4 0 0 1-2.495-2.546 7.8 7.8 0 0 1-.902-3.807 8 8 0 0 1 .863-3.78 6.36 6.36 0 0 1 2.426-2.56 6.9 6.9 0 0 1 3.595-.927 6.15 6.15 0 0 1 5.692 3.452 8.3 8.3 0 0 1 .829 3.772c-.017.302-.048.678-.078 1.135m-3.02-2.287A4.3 4.3 0 0 0 63.55 9.43a3.22 3.22 0 0 0-2.34-.88 3.37 3.37 0 0 0-2.468.914 4.36 4.36 0 0 0-1.187 2.482zM82.077 20.009H78.38l-3.496-4.795-3.453 4.795h-3.526l5.18-7.04-5.098-6.75h3.703l3.367 4.606 3.366-4.605H82l-5.119 6.724zM101.305 20.014l-1.36-3.477h-6.52l-1.41 3.477H90L95.623 6.26h2.196l5.683 13.754zm-7.285-5.038h5.29l-2.62-6.751zM106.281 10.08l.282 1.299c.375-.472.846-.86 1.381-1.139a4.2 4.2 0 0 1 2.015-.443 4.5 4.5 0 0 1 1.783.342 3.7 3.7 0 0 1 1.391 1.008c.401.48.702 1.035.886 1.633.222.714.328 1.459.313 2.206a7.2 7.2 0 0 1-.333 2.287 4.6 4.6 0 0 1-.937 1.663c-.4.434-.887.777-1.431 1.008a4.6 4.6 0 0 1-1.803.352 3.9 3.9 0 0 1-1.935-.443 3.6 3.6 0 0 1-1.259-1.129v4.726H104.8V10.08zm6.116 4.856a5.4 5.4 0 0 0-.221-1.592 3.3 3.3 0 0 0-.615-1.119 2.4 2.4 0 0 0-.917-.655 3 3 0 0 0-1.139-.211c-.397 0-.791.079-1.158.232-.36.15-.684.377-.948.665-.296.32-.52.702-.654 1.118a4.7 4.7 0 0 0-.242 1.562 4.33 4.33 0 0 0 .826 2.811 2.69 2.69 0 0 0 2.176 1.008 2.63 2.63 0 0 0 2.096-.917c.602-.842.884-1.871.796-2.902M117.44 10.079l.282 1.3c.378-.47.847-.858 1.381-1.139a4.24 4.24 0 0 1 2.015-.443 4.5 4.5 0 0 1 1.793.342c.532.226 1.004.57 1.381 1.008.401.48.702 1.035.887 1.632.225.714.334 1.459.322 2.207a7.2 7.2 0 0 1-.343 2.287 4.6 4.6 0 0 1-.937 1.663c-.397.436-.885.78-1.43 1.007a4.65 4.65 0 0 1-1.804.353 3.9 3.9 0 0 1-1.935-.443 3.7 3.7 0 0 1-1.259-1.129v4.726h-1.864V10.079zm6.116 4.857a5 5 0 0 0-.221-1.592 3.2 3.2 0 0 0-.615-1.119 2.4 2.4 0 0 0-.917-.655c-.733-.3-1.554-.3-2.287 0a2.7 2.7 0 0 0-1.008.665 3.2 3.2 0 0 0-.655 1.119 5 5 0 0 0-.231 1.561 4.32 4.32 0 0 0 .816 2.812 2.72 2.72 0 0 0 2.176 1.007 2.62 2.62 0 0 0 2.096-.917c.619-.827.92-1.85.846-2.881M144.56 6.26v13.754h-2.015v-6.127h-6.731v6.127h-1.894V6.26h1.945v5.975h6.73V6.26zM148.223 10.06v6.57a2.155 2.155 0 0 0 .544 1.622c.421.364.967.548 1.522.514a2.4 2.4 0 0 0 1.088-.222c.289-.133.546-.325.756-.564a2.6 2.6 0 0 0 .453-.826c.104-.326.155-.666.151-1.008V10.1h1.834v9.935h-1.511l-.172-1.178a3.34 3.34 0 0 1-1.3 1.078 4 4 0 0 1-1.682.352 4.2 4.2 0 0 1-1.401-.231 2.86 2.86 0 0 1-1.098-.686 3.1 3.1 0 0 1-.716-1.168 4.9 4.9 0 0 1-.262-1.663V10.06zM156.429 20.014V6.26h1.844v5.2a3.7 3.7 0 0 1 1.32-1.2 4.03 4.03 0 0 1 2.015-.464 4.5 4.5 0 0 1 1.783.343 3.7 3.7 0 0 1 1.381 1.008c.404.479.709 1.034.897 1.632a7 7 0 0 1 .312 2.207 7.2 7.2 0 0 1-.333 2.287 4.6 4.6 0 0 1-.937 1.663c-.4.433-.887.777-1.431 1.007a4.65 4.65 0 0 1-1.813.353 3.8 3.8 0 0 1-1.935-.454 3.8 3.8 0 0 1-1.3-1.178l-.292 1.32zm7.627-5.038a5 5 0 0 0-.221-1.592 3.1 3.1 0 0 0-.605-1.119 2.5 2.5 0 0 0-.917-.655 3 3 0 0 0-1.138-.211c-.398 0-.792.079-1.159.231-.363.15-.69.377-.957.665-.29.325-.509.706-.645 1.119a4.7 4.7 0 0 0-.242 1.562c-.065 1.005.228 2 .826 2.81a2.69 2.69 0 0 0 2.177 1.008 2.63 2.63 0 0 0 2.095-.916 4.36 4.36 0 0 0 .786-2.943z"/></svg>