<svg xmlns="http://www.w3.org/2000/svg" width="105" height="77" fill="none" viewBox="0 0 105 77"><path fill="url(#a)" d="M32.58 76.057c-19.443 0-26.06-24.566-27.543-29.346A133 133 0 0 1 .061 22.765c-.69-6.545 4.564-11.1 10.332-11.1a9.754 9.754 0 0 1 10.106 8.948 108 108 0 0 0 4.145 20.274c3.278 10.452 6.755 14.472 9.259 14.472 4.043 0 6.51-10.376 8.691-20.257 1.607-7.279 3.344-14.614 6.773-21.13C55.333 2.638 64.348 0 72.137 0 89.213 0 97.76 19.769 97.76 24.89a10.154 10.154 0 0 1-10.016 10.743c-6.624 0-8.869-4.434-10.759-8.32-1.7-3.497-3.475-6.405-5.77-6.405a2.98 2.98 0 0 0-2.1 1.038c-5.706 5.794-7.62 36.104-19.027 47.69-6.325 6.421-13.206 6.421-17.51 6.421"/><path fill="url(#b)" d="M32.58 76.057c-19.443 0-26.06-24.566-27.543-29.346A133 133 0 0 1 .061 22.765c-.69-6.545 4.564-11.1 10.332-11.1a9.754 9.754 0 0 1 10.106 8.948 108 108 0 0 0 4.145 20.274c3.278 10.452 6.755 14.472 9.259 14.472 4.043 0 6.51-10.376 8.691-20.257 1.607-7.279 3.344-14.614 6.773-21.13C55.333 2.638 64.348 0 72.137 0 89.213 0 97.76 19.769 97.76 24.89a10.154 10.154 0 0 1-10.016 10.743c-6.624 0-8.869-4.434-10.759-8.32-1.7-3.497-3.475-6.405-5.77-6.405a2.98 2.98 0 0 0-2.1 1.038c-5.706 5.794-7.62 36.104-19.027 47.69-6.325 6.421-13.206 6.421-17.51 6.421"/><path fill="url(#c)" d="M32.58 76.057c-19.443 0-26.06-24.566-27.543-29.346A133 133 0 0 1 .061 22.765c-.69-6.545 4.564-11.1 10.332-11.1a9.754 9.754 0 0 1 10.106 8.948 108 108 0 0 0 4.145 20.274c3.278 10.452 6.755 14.472 9.259 14.472 4.043 0 6.51-10.376 8.691-20.257 1.607-7.279 3.344-14.614 6.773-21.13C55.333 2.638 64.348 0 72.137 0 89.213 0 97.76 19.769 97.76 24.89a10.154 10.154 0 0 1-10.016 10.743c-6.624 0-8.869-4.434-10.759-8.32-1.7-3.497-3.475-6.405-5.77-6.405a2.98 2.98 0 0 0-2.1 1.038c-5.706 5.794-7.62 36.104-19.027 47.69-6.325 6.421-13.206 6.421-17.51 6.421"/><path fill="url(#d)" d="M32.58 76.057c-19.443 0-26.06-24.566-27.543-29.346A133 133 0 0 1 .061 22.765c-.69-6.545 4.564-11.1 10.332-11.1a9.754 9.754 0 0 1 10.106 8.948 108 108 0 0 0 4.145 20.274c3.278 10.452 6.755 14.472 9.259 14.472 4.043 0 6.51-10.376 8.691-20.257 1.607-7.279 3.344-14.614 6.773-21.13C55.333 2.638 64.348 0 72.137 0 89.213 0 97.76 19.769 97.76 24.89a10.154 10.154 0 0 1-10.016 10.743c-6.624 0-8.869-4.434-10.759-8.32-1.7-3.497-3.475-6.405-5.77-6.405a2.98 2.98 0 0 0-2.1 1.038c-5.706 5.794-7.62 36.104-19.027 47.69-6.325 6.421-13.206 6.421-17.51 6.421"/><path fill="url(#e)" d="M32.58 76.057c-19.443 0-26.06-24.566-27.543-29.346A133 133 0 0 1 .061 22.765c-.69-6.545 4.564-11.1 10.332-11.1a9.754 9.754 0 0 1 10.106 8.948 108 108 0 0 0 4.145 20.274c3.278 10.452 6.755 14.472 9.259 14.472 4.043 0 6.51-10.376 8.691-20.257 1.607-7.279 3.344-14.614 6.773-21.13C55.333 2.638 64.348 0 72.137 0 89.213 0 97.76 19.769 97.76 24.89a10.154 10.154 0 0 1-10.016 10.743c-6.624 0-8.869-4.434-10.759-8.32-1.7-3.497-3.475-6.405-5.77-6.405a2.98 2.98 0 0 0-2.1 1.038c-5.706 5.794-7.62 36.104-19.027 47.69-6.325 6.421-13.206 6.421-17.51 6.421"/><path fill="url(#f)" d="M32.58 76.057c-19.443 0-26.06-24.566-27.543-29.346A133 133 0 0 1 .061 22.765c-.69-6.545 4.564-11.1 10.332-11.1a9.754 9.754 0 0 1 10.106 8.948 108 108 0 0 0 4.145 20.274c3.278 10.452 6.755 14.472 9.259 14.472 4.043 0 6.51-10.376 8.691-20.257 1.607-7.279 3.344-14.614 6.773-21.13C55.333 2.638 64.348 0 72.137 0 89.213 0 97.76 19.769 97.76 24.89a10.154 10.154 0 0 1-10.016 10.743c-6.624 0-8.869-4.434-10.759-8.32-1.7-3.497-3.475-6.405-5.77-6.405a2.98 2.98 0 0 0-2.1 1.038c-5.706 5.794-7.62 36.104-19.027 47.69-6.325 6.421-13.206 6.421-17.51 6.421"/><path fill="url(#g)" d="M32.58 76.057c-19.443 0-26.06-24.566-27.543-29.346A133 133 0 0 1 .061 22.765c-.69-6.545 4.564-11.1 10.332-11.1a9.754 9.754 0 0 1 10.106 8.948 108 108 0 0 0 4.145 20.274c3.278 10.452 6.755 14.472 9.259 14.472 4.043 0 6.51-10.376 8.691-20.257 1.607-7.279 3.344-14.614 6.773-21.13C55.333 2.638 64.348 0 72.137 0 89.213 0 97.76 19.769 97.76 24.89a10.154 10.154 0 0 1-10.016 10.743c-6.624 0-8.869-4.434-10.759-8.32-1.7-3.497-3.475-6.405-5.77-6.405a2.98 2.98 0 0 0-2.1 1.038c-5.706 5.794-7.62 36.104-19.027 47.69-6.325 6.421-13.206 6.421-17.51 6.421"/><path fill="url(#h)" d="M32.58 76.057c-19.443 0-26.06-24.566-27.543-29.346A133 133 0 0 1 .061 22.765c-.69-6.545 4.564-11.1 10.332-11.1a9.754 9.754 0 0 1 10.106 8.948 108 108 0 0 0 4.145 20.274c3.278 10.452 6.755 14.472 9.259 14.472 4.043 0 6.51-10.376 8.691-20.257 1.607-7.279 3.344-14.614 6.773-21.13C55.333 2.638 64.348 0 72.137 0 89.213 0 97.76 19.769 97.76 24.89a10.154 10.154 0 0 1-10.016 10.743c-6.624 0-8.869-4.434-10.759-8.32-1.7-3.497-3.475-6.405-5.77-6.405a2.98 2.98 0 0 0-2.1 1.038c-5.706 5.794-7.62 36.104-19.027 47.69-6.325 6.421-13.206 6.421-17.51 6.421"/><path fill="url(#i)" d="M72.134 0c-7.788 0-16.803 2.638-22.77 13.973-3.428 6.515-5.166 13.85-6.772 21.13-.53 2.395-1.075 4.82-1.655 7.119v32.933a20.45 20.45 0 0 0 9.15-5.52C61.496 58.05 63.409 27.74 69.115 21.946a2.99 2.99 0 0 1 2.1-1.038c2.295 0 4.07 2.908 5.77 6.404 1.89 3.887 4.136 8.322 10.76 8.322A10.154 10.154 0 0 0 97.76 24.89C97.76 19.769 89.213 0 72.134 0"/><path fill="url(#j)" d="M32.58 76.057c-19.443 0-26.06-24.566-27.543-29.346A133 133 0 0 1 .061 22.765c-.69-6.545 4.564-11.1 10.332-11.1a9.754 9.754 0 0 1 10.106 8.948 108 108 0 0 0 4.145 20.274c3.278 10.452 6.755 14.472 9.259 14.472 4.043 0 6.51-10.376 8.691-20.257 1.607-7.279 3.344-14.614 6.773-21.13C55.333 2.638 64.348 0 72.137 0 89.213 0 97.76 19.769 97.76 24.89a10.154 10.154 0 0 1-10.016 10.743c-6.624 0-8.869-4.434-10.759-8.32-1.7-3.497-3.475-6.405-5.77-6.405a2.98 2.98 0 0 0-2.1 1.038c-5.706 5.794-7.62 36.104-19.027 47.69-6.325 6.421-13.206 6.421-17.51 6.421"/><path fill="url(#k)" d="M32.58 76.057c-19.443 0-26.06-24.566-27.543-29.346A133 133 0 0 1 .061 22.765c-.69-6.545 4.564-11.1 10.332-11.1a9.754 9.754 0 0 1 10.106 8.948 108 108 0 0 0 4.145 20.274c3.278 10.452 6.755 14.472 9.259 14.472 4.043 0 6.51-10.376 8.691-20.257 1.607-7.279 3.344-14.614 6.773-21.13C55.333 2.638 64.348 0 72.137 0 89.213 0 97.76 19.769 97.76 24.89a10.154 10.154 0 0 1-10.016 10.743c-6.624 0-8.869-4.434-10.759-8.32-1.7-3.497-3.475-6.405-5.77-6.405a2.98 2.98 0 0 0-2.1 1.038c-5.706 5.794-7.62 36.104-19.027 47.69-6.325 6.421-13.206 6.421-17.51 6.421"/><path fill="url(#l)" d="M32.58 76.057c-19.443 0-26.06-24.566-27.543-29.346A133 133 0 0 1 .061 22.765c-.69-6.545 4.564-11.1 10.332-11.1a9.754 9.754 0 0 1 10.106 8.948 108 108 0 0 0 4.145 20.274c3.278 10.452 6.755 14.472 9.259 14.472 4.043 0 6.51-10.376 8.691-20.257 1.607-7.279 3.344-14.614 6.773-21.13C55.333 2.638 64.348 0 72.137 0 89.213 0 97.76 19.769 97.76 24.89a10.154 10.154 0 0 1-10.016 10.743c-6.624 0-8.869-4.434-10.759-8.32-1.7-3.497-3.475-6.405-5.77-6.405a2.98 2.98 0 0 0-2.1 1.038c-5.706 5.794-7.62 36.104-19.027 47.69-6.325 6.421-13.206 6.421-17.51 6.421"/><path fill="url(#m)" d="M32.58 76.057c-19.443 0-26.06-24.566-27.543-29.346A133 133 0 0 1 .061 22.765c-.69-6.545 4.564-11.1 10.332-11.1a9.754 9.754 0 0 1 10.106 8.948 108 108 0 0 0 4.145 20.274c3.278 10.452 6.755 14.472 9.259 14.472 4.043 0 6.51-10.376 8.691-20.257 1.607-7.279 3.344-14.614 6.773-21.13C55.333 2.638 64.348 0 72.137 0 89.213 0 97.76 19.769 97.76 24.89a10.154 10.154 0 0 1-10.016 10.743c-6.624 0-8.869-4.434-10.759-8.32-1.7-3.497-3.475-6.405-5.77-6.405a2.98 2.98 0 0 0-2.1 1.038c-5.706 5.794-7.62 36.104-19.027 47.69-6.325 6.421-13.206 6.421-17.51 6.421"/><path fill="url(#n)" d="M32.58 76.057c-19.443 0-26.06-24.566-27.543-29.346A133 133 0 0 1 .061 22.765c-.69-6.545 4.564-11.1 10.332-11.1a9.754 9.754 0 0 1 10.106 8.948 108 108 0 0 0 4.145 20.274c3.278 10.452 6.755 14.472 9.259 14.472 4.043 0 6.51-10.376 8.691-20.257 1.607-7.279 3.344-14.614 6.773-21.13C55.333 2.638 64.348 0 72.137 0 89.213 0 97.76 19.769 97.76 24.89a10.154 10.154 0 0 1-10.016 10.743c-6.624 0-8.869-4.434-10.759-8.32-1.7-3.497-3.475-6.405-5.77-6.405a2.98 2.98 0 0 0-2.1 1.038c-5.706 5.794-7.62 36.104-19.027 47.69-6.325 6.421-13.206 6.421-17.51 6.421"/><path fill="url(#o)" d="M32.58 76.057c-19.443 0-26.06-24.566-27.543-29.346A133 133 0 0 1 .061 22.765c-.69-6.545 4.564-11.1 10.332-11.1a9.754 9.754 0 0 1 10.106 8.948 108 108 0 0 0 4.145 20.274c3.278 10.452 6.755 14.472 9.259 14.472 4.043 0 6.51-10.376 8.691-20.257 1.607-7.279 3.344-14.614 6.773-21.13C55.333 2.638 64.348 0 72.137 0 89.213 0 97.76 19.769 97.76 24.89a10.154 10.154 0 0 1-10.016 10.743c-6.624 0-8.869-4.434-10.759-8.32-1.7-3.497-3.475-6.405-5.77-6.405a2.98 2.98 0 0 0-2.1 1.038c-5.706 5.794-7.62 36.104-19.027 47.69-6.325 6.421-13.206 6.421-17.51 6.421"/><path fill="#EFEFEF" d="M94.61 11.665c-.772-.001-1.544.073-2.303.222 3.61 5.2 5.416 10.65 5.416 13.003a10.31 10.31 0 0 1-5.038 9.3c-1.601.952-4.373 1.412-5.258 1.412s-3.763-.537-5.36-1.496v.22c-.425 1.699-.761 3.558-1.343 5.367a71 71 0 0 1-4.236 10.528c-1.736 3.315-3.455 5.254-5.504 5.152-2.33-.115-4.218-3.115-6.566-11.595-.757-2.734-1.458-5.732-2.108-8.675-1.611-7.3-3.59-14.642-6.971-21.13A24.86 24.86 0 0 0 32.867 0c-6.977 0-12.19 3.3-16.285 7.46a33.4 33.4 0 0 0-3.61 4.516 9.51 9.51 0 0 1 7.489 8.636 109 109 0 0 0 3.356 17.614 90 90 0 0 1 4.2-10.913 19.4 19.4 0 0 1 3.24-5.057 3.5 3.5 0 0 1 2.415-1.278c.779 0 3.439.712 6.028 9.79 3.21 11.256 5.6 29.17 14.705 38.682 4.015 4.195 9.635 6.91 17.423 6.91a22.97 22.97 0 0 0 16.593-7.19c6.679-6.878 10.339-18.25 11.644-22.458a129 129 0 0 0 4.876-23.946c.691-6.546-4.828-11.101-10.33-11.101"/><path fill="url(#p)" d="M94.61 11.665c-.772-.001-1.544.073-2.303.222 3.61 5.2 5.416 10.65 5.416 13.003a10.31 10.31 0 0 1-5.038 9.3c-1.601.952-4.373 1.412-5.258 1.412s-3.763-.537-5.36-1.496v.22c-.425 1.699-.761 3.558-1.343 5.367a71 71 0 0 1-4.236 10.528c-1.736 3.315-3.455 5.254-5.504 5.152-2.33-.115-4.218-3.115-6.566-11.595-.757-2.734-1.458-5.732-2.108-8.675-1.611-7.3-3.59-14.642-6.971-21.13A24.86 24.86 0 0 0 32.867 0c-6.977 0-12.19 3.3-16.285 7.46a33.4 33.4 0 0 0-3.61 4.516 9.51 9.51 0 0 1 7.489 8.636 109 109 0 0 0 3.356 17.614 90 90 0 0 1 4.2-10.913 19.4 19.4 0 0 1 3.24-5.057 3.5 3.5 0 0 1 2.415-1.278c.779 0 3.439.712 6.028 9.79 3.21 11.256 5.6 29.17 14.705 38.682 4.015 4.195 9.635 6.91 17.423 6.91a22.97 22.97 0 0 0 16.593-7.19c6.679-6.878 10.339-18.25 11.644-22.458a129 129 0 0 0 4.876-23.946c.691-6.546-4.828-11.101-10.33-11.101"/><path fill="url(#q)" d="M94.61 11.665c-.772-.001-1.544.073-2.303.222 3.61 5.2 5.416 10.65 5.416 13.003a10.31 10.31 0 0 1-5.038 9.3c-1.601.952-4.373 1.412-5.258 1.412s-3.763-.537-5.36-1.496v.22c-.425 1.699-.761 3.558-1.343 5.367a71 71 0 0 1-4.236 10.528c-1.736 3.315-3.455 5.254-5.504 5.152-2.33-.115-4.218-3.115-6.566-11.595-.757-2.734-1.458-5.732-2.108-8.675-1.611-7.3-3.59-14.642-6.971-21.13A24.86 24.86 0 0 0 32.867 0c-6.977 0-12.19 3.3-16.285 7.46a33.4 33.4 0 0 0-3.61 4.516 9.51 9.51 0 0 1 7.489 8.636 109 109 0 0 0 3.356 17.614 90 90 0 0 1 4.2-10.913 19.4 19.4 0 0 1 3.24-5.057 3.5 3.5 0 0 1 2.415-1.278c.779 0 3.439.712 6.028 9.79 3.21 11.256 5.6 29.17 14.705 38.682 4.015 4.195 9.635 6.91 17.423 6.91a22.97 22.97 0 0 0 16.593-7.19c6.679-6.878 10.339-18.25 11.644-22.458a129 129 0 0 0 4.876-23.946c.691-6.546-4.828-11.101-10.33-11.101"/><path fill="url(#r)" d="M94.61 11.665c-.772-.001-1.544.073-2.303.222 3.61 5.2 5.416 10.65 5.416 13.003a10.31 10.31 0 0 1-5.038 9.3c-1.601.952-4.373 1.412-5.258 1.412s-3.763-.537-5.36-1.496v.22c-.425 1.699-.761 3.558-1.343 5.367a71 71 0 0 1-4.236 10.528c-1.736 3.315-3.455 5.254-5.504 5.152-2.33-.115-4.218-3.115-6.566-11.595-.757-2.734-1.458-5.732-2.108-8.675-1.611-7.3-3.59-14.642-6.971-21.13A24.86 24.86 0 0 0 32.867 0c-6.977 0-12.19 3.3-16.285 7.46a33.4 33.4 0 0 0-3.61 4.516 9.51 9.51 0 0 1 7.489 8.636 109 109 0 0 0 3.356 17.614 90 90 0 0 1 4.2-10.913 19.4 19.4 0 0 1 3.24-5.057 3.5 3.5 0 0 1 2.415-1.278c.779 0 3.439.712 6.028 9.79 3.21 11.256 5.6 29.17 14.705 38.682 4.015 4.195 9.635 6.91 17.423 6.91a22.97 22.97 0 0 0 16.593-7.19c6.679-6.878 10.339-18.25 11.644-22.458a129 129 0 0 0 4.876-23.946c.691-6.546-4.828-11.101-10.33-11.101"/><path fill="url(#s)" d="M94.61 11.665c-.772-.001-1.544.073-2.303.222 3.61 5.2 5.416 10.65 5.416 13.003a10.31 10.31 0 0 1-5.038 9.3c-1.601.952-4.373 1.412-5.258 1.412s-3.763-.537-5.36-1.496v.22c-.425 1.699-.761 3.558-1.343 5.367a71 71 0 0 1-4.236 10.528c-1.736 3.315-3.455 5.254-5.504 5.152-2.33-.115-4.218-3.115-6.566-11.595-.757-2.734-1.458-5.732-2.108-8.675-1.611-7.3-3.59-14.642-6.971-21.13A24.86 24.86 0 0 0 32.867 0c-6.977 0-12.19 3.3-16.285 7.46a33.4 33.4 0 0 0-3.61 4.516 9.51 9.51 0 0 1 7.489 8.636 109 109 0 0 0 3.356 17.614 90 90 0 0 1 4.2-10.913 19.4 19.4 0 0 1 3.24-5.057 3.5 3.5 0 0 1 2.415-1.278c.779 0 3.439.712 6.028 9.79 3.21 11.256 5.6 29.17 14.705 38.682 4.015 4.195 9.635 6.91 17.423 6.91a22.97 22.97 0 0 0 16.593-7.19c6.679-6.878 10.339-18.25 11.644-22.458a129 129 0 0 0 4.876-23.946c.691-6.546-4.828-11.101-10.33-11.101"/><path fill="url(#t)" d="M94.61 11.665c-.772-.001-1.544.073-2.303.222 3.61 5.2 5.416 10.65 5.416 13.003a10.31 10.31 0 0 1-5.038 9.3c-1.601.952-4.373 1.412-5.258 1.412s-3.763-.537-5.36-1.496v.22c-.425 1.699-.761 3.558-1.343 5.367a71 71 0 0 1-4.236 10.528c-1.736 3.315-3.455 5.254-5.504 5.152-2.33-.115-4.218-3.115-6.566-11.595-.757-2.734-1.458-5.732-2.108-8.675-1.611-7.3-3.59-14.642-6.971-21.13A24.86 24.86 0 0 0 32.867 0c-6.977 0-12.19 3.3-16.285 7.46a33.4 33.4 0 0 0-3.61 4.516 9.51 9.51 0 0 1 7.489 8.636 109 109 0 0 0 3.356 17.614 90 90 0 0 1 4.2-10.913 19.4 19.4 0 0 1 3.24-5.057 3.5 3.5 0 0 1 2.415-1.278c.779 0 3.439.712 6.028 9.79 3.21 11.256 5.6 29.17 14.705 38.682 4.015 4.195 9.635 6.91 17.423 6.91a22.97 22.97 0 0 0 16.593-7.19c6.679-6.878 10.339-18.25 11.644-22.458a129 129 0 0 0 4.876-23.946c.691-6.546-4.828-11.101-10.33-11.101"/><path fill="url(#u)" d="M94.61 11.665c-.772-.001-1.544.073-2.303.222 3.61 5.2 5.416 10.65 5.416 13.003a10.31 10.31 0 0 1-5.038 9.3c-1.601.952-4.373 1.412-5.258 1.412s-3.763-.537-5.36-1.496v.22c-.425 1.699-.761 3.558-1.343 5.367a71 71 0 0 1-4.236 10.528c-1.736 3.315-3.455 5.254-5.504 5.152-2.33-.115-4.218-3.115-6.566-11.595-.757-2.734-1.458-5.732-2.108-8.675-1.611-7.3-3.59-14.642-6.971-21.13A24.86 24.86 0 0 0 32.867 0c-6.977 0-12.19 3.3-16.285 7.46a33.4 33.4 0 0 0-3.61 4.516 9.51 9.51 0 0 1 7.489 8.636 109 109 0 0 0 3.356 17.614 90 90 0 0 1 4.2-10.913 19.4 19.4 0 0 1 3.24-5.057 3.5 3.5 0 0 1 2.415-1.278c.779 0 3.439.712 6.028 9.79 3.21 11.256 5.6 29.17 14.705 38.682 4.015 4.195 9.635 6.91 17.423 6.91a22.97 22.97 0 0 0 16.593-7.19c6.679-6.878 10.339-18.25 11.644-22.458a129 129 0 0 0 4.876-23.946c.691-6.546-4.828-11.101-10.33-11.101"/><path fill="url(#v)" d="M94.61 11.665c-.772-.001-1.544.073-2.303.222 3.61 5.2 5.416 10.65 5.416 13.003a10.31 10.31 0 0 1-5.038 9.3c-1.601.952-4.373 1.412-5.258 1.412s-3.763-.537-5.36-1.496v.22c-.425 1.699-.761 3.558-1.343 5.367a71 71 0 0 1-4.236 10.528c-1.736 3.315-3.455 5.254-5.504 5.152-2.33-.115-4.218-3.115-6.566-11.595-.757-2.734-1.458-5.732-2.108-8.675-1.611-7.3-3.59-14.642-6.971-21.13A24.86 24.86 0 0 0 32.867 0c-6.977 0-12.19 3.3-16.285 7.46a33.4 33.4 0 0 0-3.61 4.516 9.51 9.51 0 0 1 7.489 8.636 109 109 0 0 0 3.356 17.614 90 90 0 0 1 4.2-10.913 19.4 19.4 0 0 1 3.24-5.057 3.5 3.5 0 0 1 2.415-1.278c.779 0 3.439.712 6.028 9.79 3.21 11.256 5.6 29.17 14.705 38.682 4.015 4.195 9.635 6.91 17.423 6.91a22.97 22.97 0 0 0 16.593-7.19c6.679-6.878 10.339-18.25 11.644-22.458a129 129 0 0 0 4.876-23.946c.691-6.546-4.828-11.101-10.33-11.101"/><path fill="url(#w)" d="M94.61 11.665c-.772-.001-1.544.073-2.303.222 3.61 5.2 5.416 10.65 5.416 13.003a10.31 10.31 0 0 1-5.038 9.3c-1.601.952-4.373 1.412-5.258 1.412s-3.763-.537-5.36-1.496v.22c-.425 1.699-.761 3.558-1.343 5.367a71 71 0 0 1-4.236 10.528c-1.736 3.315-3.455 5.254-5.504 5.152-2.33-.115-4.218-3.115-6.566-11.595-.757-2.734-1.458-5.732-2.108-8.675-1.611-7.3-3.59-14.642-6.971-21.13A24.86 24.86 0 0 0 32.867 0c-6.977 0-12.19 3.3-16.285 7.46a33.4 33.4 0 0 0-3.61 4.516 9.51 9.51 0 0 1 7.489 8.636 109 109 0 0 0 3.356 17.614 90 90 0 0 1 4.2-10.913 19.4 19.4 0 0 1 3.24-5.057 3.5 3.5 0 0 1 2.415-1.278c.779 0 3.439.712 6.028 9.79 3.21 11.256 5.6 29.17 14.705 38.682 4.015 4.195 9.635 6.91 17.423 6.91a22.97 22.97 0 0 0 16.593-7.19c6.679-6.878 10.339-18.25 11.644-22.458a129 129 0 0 0 4.876-23.946c.691-6.546-4.828-11.101-10.33-11.101"/><path fill="url(#x)" d="M94.61 11.665c-.772-.001-1.544.073-2.303.222 3.61 5.2 5.416 10.65 5.416 13.003a10.31 10.31 0 0 1-5.038 9.3c-1.601.952-4.373 1.412-5.258 1.412s-3.763-.537-5.36-1.496v.22c-.425 1.699-.761 3.558-1.343 5.367a71 71 0 0 1-4.236 10.528c-1.736 3.315-3.455 5.254-5.504 5.152-2.33-.115-4.218-3.115-6.566-11.595-.757-2.734-1.458-5.732-2.108-8.675-1.611-7.3-3.59-14.642-6.971-21.13A24.86 24.86 0 0 0 32.867 0c-6.977 0-12.19 3.3-16.285 7.46a33.4 33.4 0 0 0-3.61 4.516 9.51 9.51 0 0 1 7.489 8.636 109 109 0 0 0 3.356 17.614 90 90 0 0 1 4.2-10.913 19.4 19.4 0 0 1 3.24-5.057 3.5 3.5 0 0 1 2.415-1.278c.779 0 3.439.712 6.028 9.79 3.21 11.256 5.6 29.17 14.705 38.682 4.015 4.195 9.635 6.91 17.423 6.91a22.97 22.97 0 0 0 16.593-7.19c6.679-6.878 10.339-18.25 11.644-22.458a129 129 0 0 0 4.876-23.946c.691-6.546-4.828-11.101-10.33-11.101"/><path fill="url(#y)" d="M94.61 11.665c-.772-.001-1.544.073-2.303.222 3.61 5.2 5.416 10.65 5.416 13.003a10.31 10.31 0 0 1-5.038 9.3c-1.601.952-4.373 1.412-5.258 1.412s-3.763-.537-5.36-1.496v.22c-.425 1.699-.761 3.558-1.343 5.367a71 71 0 0 1-4.236 10.528c-1.736 3.315-3.455 5.254-5.504 5.152-2.33-.115-4.218-3.115-6.566-11.595-.757-2.734-1.458-5.732-2.108-8.675-1.611-7.3-3.59-14.642-6.971-21.13A24.86 24.86 0 0 0 32.867 0c-6.977 0-12.19 3.3-16.285 7.46a33.4 33.4 0 0 0-3.61 4.516 9.51 9.51 0 0 1 7.489 8.636 109 109 0 0 0 3.356 17.614 90 90 0 0 1 4.2-10.913 19.4 19.4 0 0 1 3.24-5.057 3.5 3.5 0 0 1 2.415-1.278c.779 0 3.439.712 6.028 9.79 3.21 11.256 5.6 29.17 14.705 38.682 4.015 4.195 9.635 6.91 17.423 6.91a22.97 22.97 0 0 0 16.593-7.19c6.679-6.878 10.339-18.25 11.644-22.458a129 129 0 0 0 4.876-23.946c.691-6.546-4.828-11.101-10.33-11.101"/><path fill="url(#z)" d="M94.61 11.665c-.772-.001-1.544.073-2.303.222 3.61 5.2 5.416 10.65 5.416 13.003a10.31 10.31 0 0 1-5.038 9.3c-1.601.952-4.373 1.412-5.258 1.412s-3.763-.537-5.36-1.496v.22c-.425 1.699-.761 3.558-1.343 5.367a71 71 0 0 1-4.236 10.528c-1.736 3.315-3.455 5.254-5.504 5.152-2.33-.115-4.218-3.115-6.566-11.595-.757-2.734-1.458-5.732-2.108-8.675-1.611-7.3-3.59-14.642-6.971-21.13A24.86 24.86 0 0 0 32.867 0c-6.977 0-12.19 3.3-16.285 7.46a33.4 33.4 0 0 0-3.61 4.516 9.51 9.51 0 0 1 7.489 8.636 109 109 0 0 0 3.356 17.614 90 90 0 0 1 4.2-10.913 19.4 19.4 0 0 1 3.24-5.057 3.5 3.5 0 0 1 2.415-1.278c.779 0 3.439.712 6.028 9.79 3.21 11.256 5.6 29.17 14.705 38.682 4.015 4.195 9.635 6.91 17.423 6.91a22.97 22.97 0 0 0 16.593-7.19c6.679-6.878 10.339-18.25 11.644-22.458a129 129 0 0 0 4.876-23.946c.691-6.546-4.828-11.101-10.33-11.101"/><path fill="url(#A)" d="M94.61 11.665c-.772-.001-1.544.073-2.303.222 3.61 5.2 5.416 10.65 5.416 13.003a10.31 10.31 0 0 1-5.038 9.3c-1.601.952-4.373 1.412-5.258 1.412s-3.763-.537-5.36-1.496v.22c-.425 1.699-.761 3.558-1.343 5.367a71 71 0 0 1-4.236 10.528c-1.736 3.315-3.455 5.254-5.504 5.152-2.33-.115-4.218-3.115-6.566-11.595-.757-2.734-1.458-5.732-2.108-8.675-1.611-7.3-3.59-14.642-6.971-21.13A24.86 24.86 0 0 0 32.867 0c-6.977 0-12.19 3.3-16.285 7.46a33.4 33.4 0 0 0-3.61 4.516 9.51 9.51 0 0 1 7.489 8.636 109 109 0 0 0 3.356 17.614 90 90 0 0 1 4.2-10.913 19.4 19.4 0 0 1 3.24-5.057 3.5 3.5 0 0 1 2.415-1.278c.779 0 3.439.712 6.028 9.79 3.21 11.256 5.6 29.17 14.705 38.682 4.015 4.195 9.635 6.91 17.423 6.91a22.97 22.97 0 0 0 16.593-7.19c6.679-6.878 10.339-18.25 11.644-22.458a129 129 0 0 0 4.876-23.946c.691-6.546-4.828-11.101-10.33-11.101"/><path fill="url(#B)" d="M94.61 11.665c-.772-.001-1.544.073-2.303.222 3.61 5.2 5.416 10.65 5.416 13.003a10.31 10.31 0 0 1-5.038 9.3c-1.601.952-4.373 1.412-5.258 1.412s-3.763-.537-5.36-1.496v.22c-.425 1.699-.761 3.558-1.343 5.367a71 71 0 0 1-4.236 10.528c-1.736 3.315-3.455 5.254-5.504 5.152-2.33-.115-4.218-3.115-6.566-11.595-.757-2.734-1.458-5.732-2.108-8.675-1.611-7.3-3.59-14.642-6.971-21.13A24.86 24.86 0 0 0 32.867 0c-6.977 0-12.19 3.3-16.285 7.46a33.4 33.4 0 0 0-3.61 4.516 9.51 9.51 0 0 1 7.489 8.636 109 109 0 0 0 3.356 17.614 90 90 0 0 1 4.2-10.913 19.4 19.4 0 0 1 3.24-5.057 3.5 3.5 0 0 1 2.415-1.278c.779 0 3.439.712 6.028 9.79 3.21 11.256 5.6 29.17 14.705 38.682 4.015 4.195 9.635 6.91 17.423 6.91a22.97 22.97 0 0 0 16.593-7.19c6.679-6.878 10.339-18.25 11.644-22.458a129 129 0 0 0 4.876-23.946c.691-6.546-4.828-11.101-10.33-11.101"/><path fill="url(#C)" d="M32.58 76.057c-19.443 0-26.06-24.566-27.543-29.346A133 133 0 0 1 .061 22.765c-.69-6.545 4.564-11.1 10.332-11.1a9.754 9.754 0 0 1 10.106 8.948 108 108 0 0 0 4.145 20.274c3.278 10.452 6.755 14.472 9.259 14.472 4.043 0 6.51-10.376 8.691-20.257 1.607-7.279 3.344-14.614 6.773-21.13C55.333 2.638 64.348 0 72.137 0 89.213 0 97.76 19.769 97.76 24.89a10.154 10.154 0 0 1-10.016 10.743c-6.624 0-8.869-4.434-10.759-8.32-1.7-3.497-3.475-6.405-5.77-6.405a2.98 2.98 0 0 0-2.1 1.038c-5.706 5.794-7.62 36.104-19.027 47.69-6.325 6.421-13.206 6.421-17.51 6.421"/><path fill="url(#D)" d="M32.58 76.057c-19.443 0-26.06-24.566-27.543-29.346A133 133 0 0 1 .061 22.765c-.69-6.545 4.564-11.1 10.332-11.1a9.754 9.754 0 0 1 10.106 8.948 108 108 0 0 0 4.145 20.274c3.278 10.452 6.755 14.472 9.259 14.472 4.043 0 6.51-10.376 8.691-20.257 1.607-7.279 3.344-14.614 6.773-21.13C55.333 2.638 64.348 0 72.137 0 89.213 0 97.76 19.769 97.76 24.89a10.154 10.154 0 0 1-10.016 10.743c-6.624 0-8.869-4.434-10.759-8.32-1.7-3.497-3.475-6.405-5.77-6.405a2.98 2.98 0 0 0-2.1 1.038c-5.706 5.794-7.62 36.104-19.027 47.69-6.325 6.421-13.206 6.421-17.51 6.421"/><path fill="url(#E)" d="M32.58 76.057c-19.443 0-26.06-24.566-27.543-29.346A133 133 0 0 1 .061 22.765c-.69-6.545 4.564-11.1 10.332-11.1a9.754 9.754 0 0 1 10.106 8.948 108 108 0 0 0 4.145 20.274c3.278 10.452 6.755 14.472 9.259 14.472 4.043 0 6.51-10.376 8.691-20.257 1.607-7.279 3.344-14.614 6.773-21.13C55.333 2.638 64.348 0 72.137 0 89.213 0 97.76 19.769 97.76 24.89a10.154 10.154 0 0 1-10.016 10.743c-6.624 0-8.869-4.434-10.759-8.32-1.7-3.497-3.475-6.405-5.77-6.405a2.98 2.98 0 0 0-2.1 1.038c-5.706 5.794-7.62 36.104-19.027 47.69-6.325 6.421-13.206 6.421-17.51 6.421"/><path fill="url(#F)" d="M32.58 76.057c-19.443 0-26.06-24.566-27.543-29.346A133 133 0 0 1 .061 22.765c-.69-6.545 4.564-11.1 10.332-11.1a9.754 9.754 0 0 1 10.106 8.948 108 108 0 0 0 4.145 20.274c3.278 10.452 6.755 14.472 9.259 14.472 4.043 0 6.51-10.376 8.691-20.257 1.607-7.279 3.344-14.614 6.773-21.13C55.333 2.638 64.348 0 72.137 0 89.213 0 97.76 19.769 97.76 24.89a10.154 10.154 0 0 1-10.016 10.743c-6.624 0-8.869-4.434-10.759-8.32-1.7-3.497-3.475-6.405-5.77-6.405a2.98 2.98 0 0 0-2.1 1.038c-5.706 5.794-7.62 36.104-19.027 47.69-6.325 6.421-13.206 6.421-17.51 6.421"/><defs><radialGradient id="b" cx="0" cy="0" r="1" gradientTransform="matrix(-23.07988 -38.58965 32.40937 -19.38355 39.962 40.551)" gradientUnits="userSpaceOnUse"><stop stop-color="#B7B7B7"/><stop offset=".408" stop-color="#B5B5B5" stop-opacity=".75"/><stop offset=".875" stop-color="#B6B6B6" stop-opacity="0"/></radialGradient><radialGradient id="c" cx="0" cy="0" r="1" gradientTransform="matrix(-21.9474 -29.3815 19.31003 -14.42421 69.536 32.198)" gradientUnits="userSpaceOnUse"><stop stop-color="#CACACA"/><stop offset=".46" stop-color="#C7C7C7"/><stop offset="1" stop-color="#ACACAC" stop-opacity="0"/></radialGradient><radialGradient id="d" cx="0" cy="0" r="1" gradientTransform="rotate(-107.483 34.346 7.623)scale(29.8616 15.5684)" gradientUnits="userSpaceOnUse"><stop stop-color="#CDCDCD"/><stop offset=".408" stop-color="#C8C8C8" stop-opacity=".79"/><stop offset=".875" stop-color="#B6B6B6" stop-opacity="0"/></radialGradient><radialGradient id="e" cx="0" cy="0" r="1" gradientTransform="matrix(-33.00437 -72.1011 22.25026 -10.18509 44.745 49.515)" gradientUnits="userSpaceOnUse"><stop stop-color="#A2A2A2" stop-opacity=".78"/><stop offset="1" stop-color="#A2A2A2" stop-opacity="0"/></radialGradient><radialGradient id="f" cx="0" cy="0" r="1" gradientTransform="rotate(80.212 15.608 48)scale(37.5533 21.3184)" gradientUnits="userSpaceOnUse"><stop stop-color="#AEAEAE"/><stop offset=".233" stop-color="#AEAEAE" stop-opacity=".75"/><stop offset=".599" stop-color="#AEAEAE" stop-opacity=".301"/><stop offset=".875" stop-color="#AEAEAE" stop-opacity="0"/></radialGradient><radialGradient id="g" cx="0" cy="0" r="1" gradientTransform="matrix(18.26242 28.17967 -14.78556 9.58209 65.455 -13.146)" gradientUnits="userSpaceOnUse"><stop stop-color="#E1E1E1"/><stop offset=".408" stop-color="#E7E7E7"/><stop offset="1" stop-color="#E7E7E7" stop-opacity=".07"/></radialGradient><radialGradient id="i" cx="0" cy="0" r="1" gradientTransform="rotate(47.986 41.91 7.971)scale(88.9632 88.8314)" gradientUnits="userSpaceOnUse"><stop stop-color="#F5F5F5"/><stop offset=".745" stop-color="#F4F4F4" stop-opacity="0"/></radialGradient><radialGradient id="j" cx="0" cy="0" r="1" gradientTransform="rotate(-107.483 26.237 10.117)scale(42.8677 29.7243)" gradientUnits="userSpaceOnUse"><stop stop-color="#F5F5F5" stop-opacity=".76"/><stop offset=".573" stop-color="#F4F4F4" stop-opacity="0"/></radialGradient><radialGradient id="k" cx="0" cy="0" r="1" gradientTransform="rotate(-129.576 50.006 -10.172)scale(30.322 21.2319)" gradientUnits="userSpaceOnUse"><stop stop-color="#fff"/><stop offset="1" stop-color="#F4F4F4" stop-opacity="0"/></radialGradient><radialGradient id="l" cx="0" cy="0" r="1" gradientTransform="matrix(1.73764 -9.0108 6.2375 1.20284 85.37 41.437)" gradientUnits="userSpaceOnUse"><stop stop-color="#CDCDCD"/><stop offset="1" stop-color="#BCBCBC" stop-opacity="0"/></radialGradient><radialGradient id="m" cx="0" cy="0" r="1" gradientTransform="matrix(130.2797 -606.11068 659.46705 141.74832 -189570 62499.7)" gradientUnits="userSpaceOnUse"><stop stop-color="#CDCDCD"/><stop offset="1" stop-color="#BCBCBC" stop-opacity="0"/></radialGradient><radialGradient id="n" cx="0" cy="0" r="1" gradientTransform="matrix(-17.06272 -18.41574 12.93825 -11.98767 93.934 27.148)" gradientUnits="userSpaceOnUse"><stop stop-color="#fff"/><stop offset=".813" stop-color="#fff" stop-opacity="0"/></radialGradient><radialGradient id="p" cx="0" cy="0" r="1" gradientTransform="rotate(37.431 -7.607 144.212)scale(22.3303 31.0315)" gradientUnits="userSpaceOnUse"><stop stop-color="#D2D2D2"/><stop offset=".966" stop-color="#D2D2D2" stop-opacity="0"/></radialGradient><radialGradient id="q" cx="0" cy="0" r="1" gradientTransform="rotate(8.478 -208.37 561.64)scale(26.356 39.3065)" gradientUnits="userSpaceOnUse"><stop stop-color="#D2D2D2"/><stop offset=".593" stop-color="#D2D2D2" stop-opacity="0"/></radialGradient><radialGradient id="r" cx="0" cy="0" r="1" gradientTransform="rotate(24.644 -50.526 209.286)scale(22.5105 40.0881)" gradientUnits="userSpaceOnUse"><stop stop-color="#D2D2D2"/><stop offset=".757" stop-color="#D2D2D2" stop-opacity="0"/></radialGradient><radialGradient id="s" cx="0" cy="0" r="1" gradientTransform="matrix(36.98897 -38.17992 30.68422 29.72708 81.735 32.214)" gradientUnits="userSpaceOnUse"><stop offset=".065" stop-color="#4F4F4F"/><stop offset=".519" stop-color="#D5D5D5" stop-opacity="0"/></radialGradient><radialGradient id="t" cx="0" cy="0" r="1" gradientTransform="matrix(-4.09205 40.22962 -22.06544 -2.24444 80.035 41.451)" gradientUnits="userSpaceOnUse"><stop stop-color="#D2D2D2"/><stop offset=".593" stop-color="#D2D2D2" stop-opacity="0"/><stop offset="1" stop-color="#D2D2D2" stop-opacity="0"/></radialGradient><radialGradient id="u" cx="0" cy="0" r="1" gradientTransform="matrix(-3.11526 48.56469 -17.34695 -1.11275 86.075 23.622)" gradientUnits="userSpaceOnUse"><stop stop-color="#D2D2D2"/><stop offset=".885" stop-color="#D2D2D2" stop-opacity="0"/></radialGradient><radialGradient id="v" cx="0" cy="0" r="1" gradientTransform="rotate(-68.05 37.92 13.379)scale(43.0933 17.1623)" gradientUnits="userSpaceOnUse"><stop stop-color="#B3B3B3"/><stop offset="1" stop-color="#B0B0B0" stop-opacity="0"/></radialGradient><radialGradient id="w" cx="0" cy="0" r="1" gradientTransform="rotate(-22.196 168.413 -69.62)scale(27.9426 54.5843)" gradientUnits="userSpaceOnUse"><stop stop-color="#F7F7F7"/><stop offset=".709" stop-color="#F9F9F9" stop-opacity="0"/></radialGradient><radialGradient id="x" cx="0" cy="0" r="1" gradientTransform="rotate(-22.196 168.413 -69.62)scale(27.9426 54.5843)" gradientUnits="userSpaceOnUse"><stop stop-color="#F7F7F7"/><stop offset=".709" stop-color="#F9F9F9" stop-opacity="0"/></radialGradient><radialGradient id="y" cx="0" cy="0" r="1" gradientTransform="matrix(32.81276 14.91402 -15.04457 33.09998 19.689 25.652)" gradientUnits="userSpaceOnUse"><stop stop-color="#ADADAD"/><stop offset=".761" stop-color="#D2D2D2" stop-opacity="0"/></radialGradient><radialGradient id="z" cx="0" cy="0" r="1" gradientTransform="matrix(13.72164 -.59656 .86508 19.898 29.831 22.67)" gradientUnits="userSpaceOnUse"><stop stop-color="#ADADAD"/><stop offset=".761" stop-color="#D2D2D2" stop-opacity="0"/></radialGradient><radialGradient id="A" cx="0" cy="0" r="1" gradientTransform="matrix(12.52852 -3.57937 7.51178 26.2928 34.007 35.794)" gradientUnits="userSpaceOnUse"><stop stop-color="#B1B1B1"/><stop offset="1" stop-color="#D2D2D2" stop-opacity="0"/></radialGradient><radialGradient id="B" cx="0" cy="0" r="1" gradientTransform="rotate(-51.58 35.216 -3.545)scale(22.0813 20.7511)" gradientUnits="userSpaceOnUse"><stop stop-color="#807F7F"/><stop offset="1" stop-color="#D2D2D2" stop-opacity="0"/></radialGradient><radialGradient id="F" cx="0" cy="0" r="1" gradientTransform="matrix(-17.89777 1.19316 -3.6072 -54.1092 20.284 25.652)" gradientUnits="userSpaceOnUse"><stop stop-color="#D1D1D1"/><stop offset=".58" stop-color="#D1D1D1" stop-opacity="0"/></radialGradient><linearGradient id="a" x1="87.314" x2="18.643" y1="22.898" y2="45.439" gradientUnits="userSpaceOnUse"><stop stop-color="#fff"/><stop offset="1" stop-color="#F5F5F5"/></linearGradient><linearGradient id="h" x1="-25.835" x2="22.839" y1="37.385" y2="37.786" gradientUnits="userSpaceOnUse"><stop stop-color="#FAFAFA"/><stop offset="1" stop-color="#F8F8F8" stop-opacity="0"/></linearGradient><linearGradient id="o" x1="41.165" x2="28.041" y1="98.432" y2="62.042" gradientUnits="userSpaceOnUse"><stop offset=".229" stop-color="#fff"/><stop offset="1" stop-color="#fff" stop-opacity="0"/></linearGradient><linearGradient id="C" x1="1.848" x2="39.286" y1="5.75" y2="29.666" gradientUnits="userSpaceOnUse"><stop offset=".229" stop-color="#fff"/><stop offset="1" stop-color="#fff" stop-opacity="0"/></linearGradient><linearGradient id="D" x1="10.142" x2="28.038" y1="97.239" y2="62.041" gradientUnits="userSpaceOnUse"><stop offset=".229" stop-color="#fff"/><stop offset="1" stop-color="#fff" stop-opacity="0"/></linearGradient><linearGradient id="E" x1="11.525" x2="22.023" y1=".909" y2="10.435" gradientUnits="userSpaceOnUse"><stop stop-color="#fff"/><stop offset=".637" stop-color="#F8F8F8" stop-opacity="0"/></linearGradient></defs></svg>