<svg xmlns="http://www.w3.org/2000/svg" width="72" height="68" fill="none" viewBox="0 0 72 68"><rect width="72" height="68" fill="#000" rx="12"/><path fill="#fff" d="M21.623 23.296h2.142l-3.115 9.417h-2.458l-2.328-7.106-2.329 7.106h-2.42L8 23.296h2.193l2.21 7.156 2.32-7.156h2.328l2.358 7.194zM32.955 28.76h-6.95c.064.486.247.948.53 1.347.253.35.594.624.988.796a3.1 3.1 0 0 0 1.274.257c.485-.002.966-.09 1.42-.26.471-.172.911-.42 1.303-.734l1.023 1.474c-.522.455-1.13.8-1.787 1.017a6.8 6.8 0 0 1-2.086.31 5 5 0 0 1-2.497-.614 4.35 4.35 0 0 1-1.706-1.739 5.34 5.34 0 0 1-.613-2.6 5.47 5.47 0 0 1 .59-2.581 4.35 4.35 0 0 1 1.656-1.748 4.7 4.7 0 0 1 2.437-.625 4.19 4.19 0 0 1 3.888 2.358c.39.802.583 1.685.566 2.576a8 8 0 0 1-.036.766m-2.063-1.562a2.9 2.9 0 0 0-.787-1.721 2.2 2.2 0 0 0-1.603-.59 2.3 2.3 0 0 0-1.686.625 3 3 0 0 0-.81 1.695zM41.748 23.69a4.6 4.6 0 0 1 1.7 1.769c.423.781.639 1.658.625 2.546a5.17 5.17 0 0 1-.625 2.544 4.57 4.57 0 0 1-4.085 2.408 3.85 3.85 0 0 1-1.7-.357 3.5 3.5 0 0 1-1.247-1.008v1.12h-2.063V19.287h2.063v5.129c.333-.425.76-.768 1.246-1.003a3.8 3.8 0 0 1 1.701-.36c.838-.01 1.663.21 2.385.637m-1.126 6.93c.428-.263.772-.643.993-1.094a3.54 3.54 0 0 0 0-3.044 2.67 2.67 0 0 0-.993-1.094 3 3 0 0 0-2.983 0c-.428.26-.776.635-1.002 1.082a3.26 3.26 0 0 0-.36 1.544c-.01.536.114 1.066.36 1.542.226.447.574.821 1.002 1.081a3 3 0 0 0 2.983 0zM54.253 28.76h-6.947c.064.486.246.948.53 1.347a2.4 2.4 0 0 0 .988.796 3.1 3.1 0 0 0 1.273.257c.485-.003.966-.09 1.42-.26.472-.172.912-.42 1.303-.734l1.02 1.474a5.1 5.1 0 0 1-1.783 1.017 6.8 6.8 0 0 1-2.09.31 5 5 0 0 1-2.496-.614 4.36 4.36 0 0 1-1.703-1.739 5.35 5.35 0 0 1-.617-2.6 5.5 5.5 0 0 1 .59-2.581 4.35 4.35 0 0 1 1.656-1.748 4.7 4.7 0 0 1 2.456-.634 4.2 4.2 0 0 1 3.887 2.358c.39.802.584 1.685.566 2.576q-.02.309-.053.775m-2.063-1.562a2.93 2.93 0 0 0-.79-1.71 2.2 2.2 0 0 0-1.598-.6 2.3 2.3 0 0 0-1.685.624 2.97 2.97 0 0 0-.811 1.695zM64.053 32.713h-2.526l-2.387-3.275-2.358 3.275h-2.408l3.537-4.807-3.481-4.61h2.529l2.299 3.145 2.299-3.145H64l-3.495 4.592z"/><path fill="#fff" fill-opacity=".95" d="M14.823 42.92h1.3c-.1 1.808-1.652 3.475-3.96 3.475C9.629 46.395 8 44.649 8 41.55c0-3.132 1.766-4.838 4.261-4.838 2.183 0 3.719 1.47 3.845 3.177h-1.3c-.164-1.263-1.146-2.077-2.55-2.077-1.739 0-2.95 1.223-2.95 3.744 0 2.402 1.173 3.732 2.873 3.732 1.486-.006 2.567-1.027 2.643-2.369M16.945 41.36c.126-1.24 1.174-2.065 2.814-2.065 1.716 0 2.67.943 2.67 2.324v4.58h-.998l-.153-.915c-.428.617-1.136 1.111-2.194 1.111-1.437 0-2.27-.825-2.27-1.925 0-1.224.718-1.925 2.484-2.234l1.92-.337v-.337c0-.825-.544-1.29-1.514-1.29-.933 0-1.388.415-1.476 1.083h-1.283zm4.272 2.375v-.865l-1.628.298c-1.174.207-1.487.578-1.487 1.173 0 .645.456 1.004 1.273 1.004.921 0 1.842-.696 1.842-1.61M23.816 46.198v-6.712h.999l.126.785c.477-.707 1.195-.982 1.93-.982.872 0 1.563.36 1.93 1.06.505-.813 1.339-1.06 2.134-1.06 1.338 0 2.221.814 2.221 2.413v4.49h-1.212v-4.394c0-1.022-.428-1.448-1.272-1.448-.97 0-1.574.836-1.574 1.757v4.091h-1.212v-4.4c0-1.033-.439-1.448-1.273-1.448-.883 0-1.574.763-1.574 1.717v4.131zM35.537 39.486l.187.875c.466-.617 1.212-1.066 2.22-1.066 1.728 0 2.891 1.263 2.891 3.497 0 2.323-1.25 3.603-2.978 3.603-.998 0-1.69-.438-2.106-1.06v3.187H34.54v-9.036zm2.128.864c-1.086 0-1.98.814-1.98 2.414 0 1.627.795 2.57 1.98 2.57 1.135 0 1.903-.802 1.903-2.57.006-1.65-.817-2.414-1.903-2.414M41.652 41.36c.126-1.24 1.174-2.065 2.814-2.065 1.716 0 2.67.943 2.67 2.324v4.58h-.998l-.153-.915c-.428.617-1.136 1.111-2.194 1.111-1.437 0-2.27-.825-2.27-1.925 0-1.224.718-1.925 2.484-2.234l1.92-.337v-.337c0-.825-.543-1.29-1.514-1.29-.933 0-1.388.415-1.476 1.083h-1.283zm4.278 2.375v-.865l-1.629.298c-1.174.207-1.486.578-1.486 1.173 0 .645.455 1.004 1.272 1.004.921 0 1.843-.696 1.843-1.61M48.452 38.364v-1.46h1.36v1.46zm.077 7.835v-6.713h1.212V46.2zM52.412 46.653c.115.674.669 1.083 1.629 1.083 1.223 0 1.854-.634 1.854-1.74v-.864c-.44.528-1.174.876-2.183.876-1.536 0-2.902-1.173-2.902-3.317 0-2.105 1.196-3.396 2.978-3.396 1.02 0 1.717.449 2.134 1.083l.186-.892h.999v6.567c0 1.52-1.086 2.66-3.028 2.66-1.755 0-2.747-.814-2.961-2.065h1.294zm1.563-1.706c1.25 0 1.98-.836 1.98-2.195 0-1.577-.806-2.402-1.98-2.402-1.108 0-1.903.763-1.903 2.363 0 1.42.855 2.234 1.903 2.234M58.554 46.199v-6.713h.998l.137.853a2.4 2.4 0 0 1 1.99-1.044c1.427 0 2.32.892 2.32 2.531v4.378h-1.211v-4.367c0-1.004-.505-1.481-1.399-1.481-.872 0-1.629.645-1.629 1.706v4.142h-1.206z"/></svg>