<svg xmlns="http://www.w3.org/2000/svg" width="72" height="68" fill="none" viewBox="0 0 72 68"><rect width="72" height="68" fill="#000" rx="12"/><path fill="#fff" d="M21.623 23.296h2.142l-3.115 9.417h-2.458l-2.328-7.106-2.329 7.106h-2.42L8 23.296h2.193l2.21 7.156 2.32-7.156h2.328l2.358 7.194zM32.955 28.76h-6.95c.064.486.247.948.53 1.347.253.35.594.624.988.796a3.1 3.1 0 0 0 1.274.257c.485-.002.966-.09 1.42-.26.471-.172.911-.42 1.303-.734l1.023 1.474c-.522.455-1.13.8-1.787 1.017a6.8 6.8 0 0 1-2.086.31 5 5 0 0 1-2.497-.614 4.35 4.35 0 0 1-1.706-1.739 5.34 5.34 0 0 1-.613-2.6 5.47 5.47 0 0 1 .59-2.581 4.35 4.35 0 0 1 1.656-1.748 4.7 4.7 0 0 1 2.437-.625 4.19 4.19 0 0 1 3.888 2.358c.39.802.583 1.685.566 2.576a8 8 0 0 1-.036.766m-2.063-1.562a2.9 2.9 0 0 0-.787-1.721 2.2 2.2 0 0 0-1.603-.59 2.3 2.3 0 0 0-1.686.625 3 3 0 0 0-.81 1.695zM41.748 23.69a4.6 4.6 0 0 1 1.7 1.769c.423.781.639 1.658.625 2.546a5.17 5.17 0 0 1-.625 2.544 4.57 4.57 0 0 1-4.085 2.408 3.85 3.85 0 0 1-1.7-.357 3.5 3.5 0 0 1-1.247-1.008v1.12h-2.063V19.287h2.063v5.129c.333-.425.76-.768 1.246-1.003a3.8 3.8 0 0 1 1.701-.36c.838-.01 1.663.21 2.385.637m-1.126 6.93c.428-.263.772-.643.993-1.094a3.54 3.54 0 0 0 0-3.044 2.67 2.67 0 0 0-.993-1.094 3 3 0 0 0-2.983 0c-.428.26-.776.635-1.002 1.082a3.26 3.26 0 0 0-.36 1.544c-.01.536.114 1.066.36 1.542.226.447.574.821 1.002 1.081a3 3 0 0 0 2.983 0zM54.253 28.76h-6.947c.064.486.246.948.53 1.347a2.4 2.4 0 0 0 .988.796 3.1 3.1 0 0 0 1.273.257c.485-.003.966-.09 1.42-.26.472-.172.912-.42 1.303-.734l1.02 1.474a5.1 5.1 0 0 1-1.783 1.017 6.8 6.8 0 0 1-2.09.31 5 5 0 0 1-2.496-.614 4.36 4.36 0 0 1-1.703-1.739 5.35 5.35 0 0 1-.617-2.6 5.5 5.5 0 0 1 .59-2.581 4.35 4.35 0 0 1 1.656-1.748 4.7 4.7 0 0 1 2.456-.634 4.2 4.2 0 0 1 3.887 2.358c.39.802.584 1.685.566 2.576q-.02.309-.053.775m-2.063-1.562a2.93 2.93 0 0 0-.79-1.71 2.2 2.2 0 0 0-1.598-.6 2.3 2.3 0 0 0-1.685.624 2.97 2.97 0 0 0-.811 1.695zM64.053 32.713h-2.526l-2.387-3.275-2.358 3.275h-2.408l3.537-4.807-3.481-4.61h2.529l2.299 3.145 2.299-3.145H64l-3.495 4.592z"/><path fill="#fff" fill-opacity=".95" d="m26.896 46.221-.89-2.356h-4.275l-.9 2.356h-1.335l3.695-9.31h1.432l3.678 9.31zm-4.752-3.43h3.455l-1.714-4.56zM30.774 43.156c-1.524-.348-2.132-.944-2.132-1.94 0-1.152.884-1.911 2.523-1.911 1.448 0 2.446.736 2.658 1.968h-1.22c-.142-.625-.63-.99-1.455-.99-.9 0-1.296.349-1.296.815 0 .518.26.748 1.508 1.035 1.508.348 2.506.787 2.506 2.17 0 1.226-.987 2.109-2.707 2.109-1.622 0-2.68-.827-2.794-2.12h1.22c.136.804.674 1.136 1.585 1.136.971 0 1.486-.45 1.486-1.035 0-.787-.721-.967-1.882-1.237M36.754 43.156c-1.525-.348-2.133-.944-2.133-1.94 0-1.152.885-1.911 2.523-1.911 1.449 0 2.447.736 2.658 1.968h-1.22c-.147-.625-.63-.99-1.454-.99-.9 0-1.297.349-1.297.815 0 .518.26.748 1.508 1.035 1.509.348 2.507.787 2.507 2.17 0 1.226-.988 2.109-2.707 2.109-1.622 0-2.68-.827-2.794-2.12h1.22c.136.804.673 1.136 1.585 1.136.97 0 1.486-.45 1.486-1.035 0-.787-.722-.967-1.883-1.237M40.832 38.372V36.91h1.346v1.462zm.076 7.85v-6.725h1.199v6.724zM45.45 43.156c-1.525-.348-2.132-.944-2.132-1.94 0-1.152.884-1.911 2.517-1.911 1.448 0 2.447.736 2.658 1.968h-1.22c-.141-.625-.624-.99-1.449-.99-.9 0-1.296.349-1.296.815 0 .518.26.748 1.508 1.035 1.508.348 2.506.787 2.506 2.17 0 1.226-.987 2.109-2.707 2.109-1.622 0-2.68-.827-2.794-2.12h1.22c.136.804.673 1.136 1.585 1.136.97 0 1.486-.45 1.486-1.035 0-.787-.721-.967-1.882-1.237M52.497 46.283a3.1 3.1 0 0 1-.885.13c-1.15 0-1.736-.748-1.736-1.862v-3.997h-.96v-1.058h.96l.076-1.613h1.123v1.613h1.4v1.063h-1.4v4.02c0 .506.239.748.684.748.211 0 .374-.011.738-.101z"/></svg>