<svg xmlns="http://www.w3.org/2000/svg" width="378" height="24" fill="none" viewBox="0 0 378 24"><path fill="#000" d="M19.948 6.22h3.137l-4.562 13.789h-3.599l-3.41-10.406L8.105 20.01H4.562L0 6.219h3.211L6.448 16.7l3.396-10.48h3.41l3.452 10.536zM36.542 14.221H26.365a4.4 4.4 0 0 0 .777 1.973c.369.51.868.913 1.446 1.165a4.6 4.6 0 0 0 1.864.375 6 6 0 0 0 2.08-.38 6.8 6.8 0 0 0 1.908-1.074l1.498 2.158a7.6 7.6 0 0 1-2.616 1.489c-.988.31-2.02.463-3.055.453a7.3 7.3 0 0 1-3.656-.898 6.37 6.37 0 0 1-2.499-2.546 7.8 7.8 0 0 1-.897-3.807 8 8 0 0 1 .863-3.78 6.36 6.36 0 0 1 2.425-2.56 6.9 6.9 0 0 1 3.57-.915 6.14 6.14 0 0 1 5.692 3.453 8.26 8.26 0 0 1 .829 3.772q.006.436-.052 1.122m-3.021-2.287a4.26 4.26 0 0 0-1.153-2.52 3.2 3.2 0 0 0-2.347-.864 3.38 3.38 0 0 0-2.469.915 4.38 4.38 0 0 0-1.187 2.482zM49.416 6.798a6.7 6.7 0 0 1 2.49 2.59 7.6 7.6 0 0 1 .915 3.728 7.57 7.57 0 0 1-.915 3.725 6.7 6.7 0 0 1-5.981 3.526 5.6 5.6 0 0 1-2.49-.523 5.1 5.1 0 0 1-1.826-1.476v1.64h-3.021V.35h3.02v7.51a5.2 5.2 0 0 1 1.827-1.468 5.6 5.6 0 0 1 2.49-.526 6.7 6.7 0 0 1 3.491.932m-1.648 10.146a3.9 3.9 0 0 0 1.454-1.6 5.18 5.18 0 0 0 0-4.46 3.9 3.9 0 0 0-1.454-1.6 4.4 4.4 0 0 0-4.368 0c-.627.38-1.136.93-1.467 1.584a4.8 4.8 0 0 0-.527 2.261c-.014.785.167 1.56.527 2.257.331.655.84 1.203 1.467 1.584a4.4 4.4 0 0 0 4.368 0zM67.727 14.221H57.555a4.4 4.4 0 0 0 .777 1.973c.368.51.868.913 1.446 1.165a4.6 4.6 0 0 0 1.864.375 6 6 0 0 0 2.08-.38 6.8 6.8 0 0 0 1.908-1.074l1.493 2.158a7.5 7.5 0 0 1-2.611 1.489c-.99.31-2.023.463-3.06.453a7.34 7.34 0 0 1-3.655-.898 6.4 6.4 0 0 1-2.495-2.546 7.8 7.8 0 0 1-.902-3.807 8 8 0 0 1 .863-3.78 6.36 6.36 0 0 1 2.426-2.56 6.9 6.9 0 0 1 3.595-.927 6.15 6.15 0 0 1 5.692 3.452 8.3 8.3 0 0 1 .829 3.772c-.017.302-.048.678-.078 1.135m-3.02-2.287A4.3 4.3 0 0 0 63.55 9.43a3.22 3.22 0 0 0-2.34-.88 3.37 3.37 0 0 0-2.468.914 4.36 4.36 0 0 0-1.187 2.482zM82.077 20.009H78.38l-3.496-4.795-3.453 4.795h-3.526l5.18-7.04-5.098-6.75h3.703l3.367 4.606 3.366-4.605H82l-5.119 6.724zM101.348 20.027l-1.365-3.486h-6.555l-1.381 3.486H90L95.666 6.25h2.196l5.641 13.777zm-7.288-5.075h5.3l-2.63-6.747zM107.296 15.493c-2.337-.516-3.269-1.398-3.269-2.87 0-1.706 1.356-2.829 3.868-2.829 2.222 0 3.752 1.09 4.077 2.912H110.1c-.216-.924-.965-1.464-2.23-1.464-1.381 0-1.988.515-1.988 1.206 0 .765.399 1.106 2.313 1.53 2.313.517 3.843 1.165 3.843 3.212 0 1.814-1.514 3.12-4.151 3.12-2.487 0-4.11-1.223-4.284-3.137h1.871c.208 1.19 1.032 1.68 2.43 1.68 1.489 0 2.279-.665 2.279-1.53 0-1.165-1.106-1.43-2.887-1.83M116.464 15.493c-2.337-.516-3.269-1.398-3.269-2.87 0-1.706 1.356-2.829 3.868-2.829 2.222 0 3.752 1.09 4.077 2.912h-1.872c-.225-.924-.965-1.464-2.23-1.464-1.381 0-1.988.515-1.988 1.206 0 .765.399 1.106 2.313 1.53 2.313.517 3.843 1.165 3.843 3.212 0 1.814-1.514 3.12-4.151 3.12-2.487 0-4.11-1.223-4.284-3.137h1.871c.208 1.19 1.032 1.68 2.43 1.68 1.489 0 2.279-.665 2.279-1.53 0-1.165-1.106-1.43-2.887-1.83M122.721 8.413V6.25h2.063v2.163zm.116 11.614v-9.95h1.839v9.95zM129.801 15.493c-2.338-.516-3.269-1.398-3.269-2.87 0-1.706 1.356-2.829 3.86-2.829 2.221 0 3.752 1.09 4.076 2.912h-1.871c-.217-.924-.957-1.464-2.222-1.464-1.381 0-1.988.515-1.988 1.206 0 .765.399 1.106 2.313 1.53 2.313.517 3.843 1.165 3.843 3.212 0 1.814-1.514 3.12-4.151 3.12-2.488 0-4.11-1.223-4.285-3.137h1.872c.208 1.19 1.032 1.68 2.43 1.68 1.489 0 2.279-.665 2.279-1.53 0-1.165-1.106-1.43-2.887-1.83M140.608 20.119a5 5 0 0 1-1.356.191c-1.764 0-2.662-1.106-2.662-2.754v-5.915h-1.473v-1.564h1.473l.116-2.388h1.722v2.388h2.147v1.572h-2.147v5.949c0 .749.366 1.106 1.049 1.106.324 0 .574-.016 1.131-.15z"/></svg>