<svg xmlns="http://www.w3.org/2000/svg" width="32" height="32" viewBox="0 0 32 32"><path d="M21 23a1 1 0 0 1 1-1h8a1 1 0 1 1 0 2h-8a1 1 0 0 1-1-1M19.448 14.621a5 5 0 1 0-6.893.003 9.5 9.5 0 0 0-1.34.627 5.5 5.5 0 0 0-1.062-.662 3.2 3.2 0 1 0-5.304.004C3.19 15.385 2 16.91 2 18.8c0 .75.463 1.268.907 1.578.443.31 1.003.517 1.566.66.763.195 1.66.303 2.563.33A7 7 0 0 0 7 22.1c0 1.124.749 1.913 1.566 2.42.827.511 1.919.866 3.083 1.102 2.34.475 5.265.528 7.728.17a1 1 0 1 0-.29-1.98c-2.252.329-4.943.276-7.04-.15-1.055-.214-1.887-.508-2.429-.843C9.066 22.477 9 22.22 9 22.1c0-3.24 3.037-6.1 7-6.1 1.913 0 3.64.68 4.899 1.76a1 1 0 0 0 1.538-1.222A4.1 4.1 0 0 1 24.5 16c1.95 0 3.307 1.215 3.48 2.496a1 1 0 1 0 1.982-.267c-.222-1.65-1.35-2.96-2.863-3.662a3.2 3.2 0 1 0-5.2-.002 5.5 5.5 0 0 0-1.11.684 9.4 9.4 0 0 0-1.341-.628M16 8a3 3 0 1 1 0 6 3 3 0 0 1 0-6M7.522 19.375c-.931.002-1.847-.094-2.555-.274-.453-.116-.752-.249-.915-.363l-.05-.037C4.066 17.337 5.44 16 7.5 16c.762 0 1.448.192 2.005.505a8 8 0 0 0-1.983 2.87M24.5 11.5a1.2 1.2 0 1 1 0 2.4 1.2 1.2 0 0 1 0-2.4M6.3 12.8a1.2 1.2 0 1 1 2.4 0 1.2 1.2 0 0 1-2.4 0"/></svg>