<svg xmlns="http://www.w3.org/2000/svg" width="239" height="68" fill="none" viewBox="0 0 239 68"><path fill="url(#a)" d="M19.387 56.03C8.414 56.03 4.68 42.162 3.843 39.464A75 75 0 0 1 1.035 25.95c-.39-3.695 2.575-6.266 5.83-6.266a5.504 5.504 0 0 1 5.704 5.05 61 61 0 0 0 2.34 11.444c1.85 5.9 3.812 8.168 5.225 8.168 2.282 0 3.674-5.856 4.905-11.433.907-4.109 1.888-8.249 3.823-11.926 3.367-6.398 8.455-7.887 12.85-7.887 9.639 0 14.462 11.158 14.462 14.05a5.73 5.73 0 0 1-5.652 6.063c-3.739 0-5.006-2.503-6.072-4.697-.96-1.974-1.962-3.615-3.258-3.615a1.68 1.68 0 0 0-1.185.586c-3.22 3.27-4.3 20.378-10.738 26.917-3.57 3.625-7.453 3.625-9.882 3.625"/><path fill="url(#b)" d="M19.387 56.03C8.414 56.03 4.68 42.162 3.843 39.464A75 75 0 0 1 1.035 25.95c-.39-3.695 2.575-6.266 5.83-6.266a5.504 5.504 0 0 1 5.704 5.05 61 61 0 0 0 2.34 11.444c1.85 5.9 3.812 8.168 5.225 8.168 2.282 0 3.674-5.856 4.905-11.433.907-4.109 1.888-8.249 3.823-11.926 3.367-6.398 8.455-7.887 12.85-7.887 9.639 0 14.462 11.158 14.462 14.05a5.73 5.73 0 0 1-5.652 6.063c-3.739 0-5.006-2.503-6.072-4.697-.96-1.974-1.962-3.615-3.258-3.615a1.68 1.68 0 0 0-1.185.586c-3.22 3.27-4.3 20.378-10.738 26.917-3.57 3.625-7.453 3.625-9.882 3.625"/><path fill="url(#c)" d="M19.387 56.03C8.414 56.03 4.68 42.162 3.843 39.464A75 75 0 0 1 1.035 25.95c-.39-3.695 2.575-6.266 5.83-6.266a5.504 5.504 0 0 1 5.704 5.05 61 61 0 0 0 2.34 11.444c1.85 5.9 3.812 8.168 5.225 8.168 2.282 0 3.674-5.856 4.905-11.433.907-4.109 1.888-8.249 3.823-11.926 3.367-6.398 8.455-7.887 12.85-7.887 9.639 0 14.462 11.158 14.462 14.05a5.73 5.73 0 0 1-5.652 6.063c-3.739 0-5.006-2.503-6.072-4.697-.96-1.974-1.962-3.615-3.258-3.615a1.68 1.68 0 0 0-1.185.586c-3.22 3.27-4.3 20.378-10.738 26.917-3.57 3.625-7.453 3.625-9.882 3.625"/><path fill="url(#d)" d="M19.387 56.03C8.414 56.03 4.68 42.162 3.843 39.464A75 75 0 0 1 1.035 25.95c-.39-3.695 2.575-6.266 5.83-6.266a5.504 5.504 0 0 1 5.704 5.05 61 61 0 0 0 2.34 11.444c1.85 5.9 3.812 8.168 5.225 8.168 2.282 0 3.674-5.856 4.905-11.433.907-4.109 1.888-8.249 3.823-11.926 3.367-6.398 8.455-7.887 12.85-7.887 9.639 0 14.462 11.158 14.462 14.05a5.73 5.73 0 0 1-5.652 6.063c-3.739 0-5.006-2.503-6.072-4.697-.96-1.974-1.962-3.615-3.258-3.615a1.68 1.68 0 0 0-1.185.586c-3.22 3.27-4.3 20.378-10.738 26.917-3.57 3.625-7.453 3.625-9.882 3.625"/><path fill="url(#e)" d="M19.387 56.03C8.414 56.03 4.68 42.162 3.843 39.464A75 75 0 0 1 1.035 25.95c-.39-3.695 2.575-6.266 5.83-6.266a5.504 5.504 0 0 1 5.704 5.05 61 61 0 0 0 2.34 11.444c1.85 5.9 3.812 8.168 5.225 8.168 2.282 0 3.674-5.856 4.905-11.433.907-4.109 1.888-8.249 3.823-11.926 3.367-6.398 8.455-7.887 12.85-7.887 9.639 0 14.462 11.158 14.462 14.05a5.73 5.73 0 0 1-5.652 6.063c-3.739 0-5.006-2.503-6.072-4.697-.96-1.974-1.962-3.615-3.258-3.615a1.68 1.68 0 0 0-1.185.586c-3.22 3.27-4.3 20.378-10.738 26.917-3.57 3.625-7.453 3.625-9.882 3.625"/><path fill="url(#f)" d="M19.387 56.03C8.414 56.03 4.68 42.162 3.843 39.464A75 75 0 0 1 1.035 25.95c-.39-3.695 2.575-6.266 5.83-6.266a5.504 5.504 0 0 1 5.704 5.05 61 61 0 0 0 2.34 11.444c1.85 5.9 3.812 8.168 5.225 8.168 2.282 0 3.674-5.856 4.905-11.433.907-4.109 1.888-8.249 3.823-11.926 3.367-6.398 8.455-7.887 12.85-7.887 9.639 0 14.462 11.158 14.462 14.05a5.73 5.73 0 0 1-5.652 6.063c-3.739 0-5.006-2.503-6.072-4.697-.96-1.974-1.962-3.615-3.258-3.615a1.68 1.68 0 0 0-1.185.586c-3.22 3.27-4.3 20.378-10.738 26.917-3.57 3.625-7.453 3.625-9.882 3.625"/><path fill="url(#g)" d="M19.387 56.03C8.414 56.03 4.68 42.162 3.843 39.464A75 75 0 0 1 1.035 25.95c-.39-3.695 2.575-6.266 5.83-6.266a5.504 5.504 0 0 1 5.704 5.05 61 61 0 0 0 2.34 11.444c1.85 5.9 3.812 8.168 5.225 8.168 2.282 0 3.674-5.856 4.905-11.433.907-4.109 1.888-8.249 3.823-11.926 3.367-6.398 8.455-7.887 12.85-7.887 9.639 0 14.462 11.158 14.462 14.05a5.73 5.73 0 0 1-5.652 6.063c-3.739 0-5.006-2.503-6.072-4.697-.96-1.974-1.962-3.615-3.258-3.615a1.68 1.68 0 0 0-1.185.586c-3.22 3.27-4.3 20.378-10.738 26.917-3.57 3.625-7.453 3.625-9.882 3.625"/><path fill="url(#h)" d="M19.387 56.03C8.414 56.03 4.68 42.162 3.843 39.464A75 75 0 0 1 1.035 25.95c-.39-3.695 2.575-6.266 5.83-6.266a5.504 5.504 0 0 1 5.704 5.05 61 61 0 0 0 2.34 11.444c1.85 5.9 3.812 8.168 5.225 8.168 2.282 0 3.674-5.856 4.905-11.433.907-4.109 1.888-8.249 3.823-11.926 3.367-6.398 8.455-7.887 12.85-7.887 9.639 0 14.462 11.158 14.462 14.05a5.73 5.73 0 0 1-5.652 6.063c-3.739 0-5.006-2.503-6.072-4.697-.96-1.974-1.962-3.615-3.258-3.615a1.68 1.68 0 0 0-1.185.586c-3.22 3.27-4.3 20.378-10.738 26.917-3.57 3.625-7.453 3.625-9.882 3.625"/><path fill="url(#i)" d="M41.711 13.1c-4.395 0-9.483 1.489-12.85 7.887-1.936 3.677-2.917 7.818-3.823 11.926-.299 1.352-.607 2.72-.934 4.018v18.59a11.54 11.54 0 0 0 5.164-3.117c6.438-6.538 7.518-23.647 10.738-26.917a1.69 1.69 0 0 1 1.185-.585c1.296 0 2.298 1.64 3.258 3.614 1.066 2.194 2.333 4.697 6.072 4.697a5.73 5.73 0 0 0 5.652-6.064c0-2.89-4.823-14.049-14.462-14.049"/><path fill="url(#j)" d="M19.387 56.03C8.414 56.03 4.68 42.162 3.843 39.464A75 75 0 0 1 1.035 25.95c-.39-3.695 2.575-6.266 5.83-6.266a5.504 5.504 0 0 1 5.704 5.05 61 61 0 0 0 2.34 11.444c1.85 5.9 3.812 8.168 5.225 8.168 2.282 0 3.674-5.856 4.905-11.433.907-4.109 1.888-8.249 3.823-11.926 3.367-6.398 8.455-7.887 12.85-7.887 9.639 0 14.462 11.158 14.462 14.05a5.73 5.73 0 0 1-5.652 6.063c-3.739 0-5.006-2.503-6.072-4.697-.96-1.974-1.962-3.615-3.258-3.615a1.68 1.68 0 0 0-1.185.586c-3.22 3.27-4.3 20.378-10.738 26.917-3.57 3.625-7.453 3.625-9.882 3.625"/><path fill="url(#k)" d="M19.387 56.03C8.414 56.03 4.68 42.162 3.843 39.464A75 75 0 0 1 1.035 25.95c-.39-3.695 2.575-6.266 5.83-6.266a5.504 5.504 0 0 1 5.704 5.05 61 61 0 0 0 2.34 11.444c1.85 5.9 3.812 8.168 5.225 8.168 2.282 0 3.674-5.856 4.905-11.433.907-4.109 1.888-8.249 3.823-11.926 3.367-6.398 8.455-7.887 12.85-7.887 9.639 0 14.462 11.158 14.462 14.05a5.73 5.73 0 0 1-5.652 6.063c-3.739 0-5.006-2.503-6.072-4.697-.96-1.974-1.962-3.615-3.258-3.615a1.68 1.68 0 0 0-1.185.586c-3.22 3.27-4.3 20.378-10.738 26.917-3.57 3.625-7.453 3.625-9.882 3.625"/><path fill="url(#l)" d="M19.387 56.03C8.414 56.03 4.68 42.162 3.843 39.464A75 75 0 0 1 1.035 25.95c-.39-3.695 2.575-6.266 5.83-6.266a5.504 5.504 0 0 1 5.704 5.05 61 61 0 0 0 2.34 11.444c1.85 5.9 3.812 8.168 5.225 8.168 2.282 0 3.674-5.856 4.905-11.433.907-4.109 1.888-8.249 3.823-11.926 3.367-6.398 8.455-7.887 12.85-7.887 9.639 0 14.462 11.158 14.462 14.05a5.73 5.73 0 0 1-5.652 6.063c-3.739 0-5.006-2.503-6.072-4.697-.96-1.974-1.962-3.615-3.258-3.615a1.68 1.68 0 0 0-1.185.586c-3.22 3.27-4.3 20.378-10.738 26.917-3.57 3.625-7.453 3.625-9.882 3.625"/><path fill="url(#m)" d="M19.387 56.03C8.414 56.03 4.68 42.162 3.843 39.464A75 75 0 0 1 1.035 25.95c-.39-3.695 2.575-6.266 5.83-6.266a5.504 5.504 0 0 1 5.704 5.05 61 61 0 0 0 2.34 11.444c1.85 5.9 3.812 8.168 5.225 8.168 2.282 0 3.674-5.856 4.905-11.433.907-4.109 1.888-8.249 3.823-11.926 3.367-6.398 8.455-7.887 12.85-7.887 9.639 0 14.462 11.158 14.462 14.05a5.73 5.73 0 0 1-5.652 6.063c-3.739 0-5.006-2.503-6.072-4.697-.96-1.974-1.962-3.615-3.258-3.615a1.68 1.68 0 0 0-1.185.586c-3.22 3.27-4.3 20.378-10.738 26.917-3.57 3.625-7.453 3.625-9.882 3.625"/><path fill="url(#n)" d="M19.387 56.03C8.414 56.03 4.68 42.162 3.843 39.464A75 75 0 0 1 1.035 25.95c-.39-3.695 2.575-6.266 5.83-6.266a5.504 5.504 0 0 1 5.704 5.05 61 61 0 0 0 2.34 11.444c1.85 5.9 3.812 8.168 5.225 8.168 2.282 0 3.674-5.856 4.905-11.433.907-4.109 1.888-8.249 3.823-11.926 3.367-6.398 8.455-7.887 12.85-7.887 9.639 0 14.462 11.158 14.462 14.05a5.73 5.73 0 0 1-5.652 6.063c-3.739 0-5.006-2.503-6.072-4.697-.96-1.974-1.962-3.615-3.258-3.615a1.68 1.68 0 0 0-1.185.586c-3.22 3.27-4.3 20.378-10.738 26.917-3.57 3.625-7.453 3.625-9.882 3.625"/><path fill="url(#o)" d="M19.387 56.03C8.414 56.03 4.68 42.162 3.843 39.464A75 75 0 0 1 1.035 25.95c-.39-3.695 2.575-6.266 5.83-6.266a5.504 5.504 0 0 1 5.704 5.05 61 61 0 0 0 2.34 11.444c1.85 5.9 3.812 8.168 5.225 8.168 2.282 0 3.674-5.856 4.905-11.433.907-4.109 1.888-8.249 3.823-11.926 3.367-6.398 8.455-7.887 12.85-7.887 9.639 0 14.462 11.158 14.462 14.05a5.73 5.73 0 0 1-5.652 6.063c-3.739 0-5.006-2.503-6.072-4.697-.96-1.974-1.962-3.615-3.258-3.615a1.68 1.68 0 0 0-1.185.586c-3.22 3.27-4.3 20.378-10.738 26.917-3.57 3.625-7.453 3.625-9.882 3.625"/><path fill="#EFEFEF" d="M54.396 19.684q-.655 0-1.3.125c2.038 2.936 3.057 6.011 3.057 7.34a5.82 5.82 0 0 1-2.843 5.25c-.904.536-2.469.796-2.968.796s-2.124-.303-3.025-.844v.124c-.24.959-.43 2.008-.758 3.03a40 40 0 0 1-2.391 5.941c-.98 1.871-1.95 2.966-3.106 2.909-1.315-.066-2.38-1.76-3.706-6.545-.427-1.544-.823-3.235-1.19-4.897-.909-4.12-2.025-8.264-3.934-11.926A14.03 14.03 0 0 0 19.549 13.1c-3.938 0-6.88 1.863-9.19 4.21a19 19 0 0 0-2.038 2.55 5.37 5.37 0 0 1 4.227 4.874 61.7 61.7 0 0 0 1.893 9.942 51 51 0 0 1 2.37-6.16 11 11 0 0 1 1.83-2.854 1.98 1.98 0 0 1 1.363-.721c.44 0 1.94.402 3.401 5.525 1.813 6.354 3.161 16.465 8.3 21.834 2.266 2.368 5.438 3.9 9.833 3.9a12.96 12.96 0 0 0 9.365-4.058c3.77-3.882 5.835-10.301 6.572-12.676a72.8 72.8 0 0 0 2.752-13.516c.39-3.695-2.725-6.266-5.83-6.266"/><path fill="url(#p)" d="M54.396 19.684q-.655 0-1.3.125c2.038 2.936 3.057 6.011 3.057 7.34a5.82 5.82 0 0 1-2.843 5.25c-.904.536-2.469.796-2.968.796s-2.124-.303-3.025-.844v.124c-.24.959-.43 2.008-.758 3.03a40 40 0 0 1-2.391 5.941c-.98 1.871-1.95 2.966-3.106 2.909-1.315-.066-2.38-1.76-3.706-6.545-.427-1.544-.823-3.235-1.19-4.897-.909-4.12-2.025-8.264-3.934-11.926A14.03 14.03 0 0 0 19.549 13.1c-3.938 0-6.88 1.863-9.19 4.21a19 19 0 0 0-2.038 2.55 5.37 5.37 0 0 1 4.227 4.874 61.7 61.7 0 0 0 1.893 9.942 51 51 0 0 1 2.37-6.16 11 11 0 0 1 1.83-2.854 1.98 1.98 0 0 1 1.363-.721c.44 0 1.94.402 3.401 5.525 1.813 6.354 3.161 16.465 8.3 21.834 2.266 2.368 5.438 3.9 9.833 3.9a12.96 12.96 0 0 0 9.365-4.058c3.77-3.882 5.835-10.301 6.572-12.676a72.8 72.8 0 0 0 2.752-13.516c.39-3.695-2.725-6.266-5.83-6.266"/><path fill="url(#q)" d="M54.396 19.684q-.655 0-1.3.125c2.038 2.936 3.057 6.011 3.057 7.34a5.82 5.82 0 0 1-2.843 5.25c-.904.536-2.469.796-2.968.796s-2.124-.303-3.025-.844v.124c-.24.959-.43 2.008-.758 3.03a40 40 0 0 1-2.391 5.941c-.98 1.871-1.95 2.966-3.106 2.909-1.315-.066-2.38-1.76-3.706-6.545-.427-1.544-.823-3.235-1.19-4.897-.909-4.12-2.025-8.264-3.934-11.926A14.03 14.03 0 0 0 19.549 13.1c-3.938 0-6.88 1.863-9.19 4.21a19 19 0 0 0-2.038 2.55 5.37 5.37 0 0 1 4.227 4.874 61.7 61.7 0 0 0 1.893 9.942 51 51 0 0 1 2.37-6.16 11 11 0 0 1 1.83-2.854 1.98 1.98 0 0 1 1.363-.721c.44 0 1.94.402 3.401 5.525 1.813 6.354 3.161 16.465 8.3 21.834 2.266 2.368 5.438 3.9 9.833 3.9a12.96 12.96 0 0 0 9.365-4.058c3.77-3.882 5.835-10.301 6.572-12.676a72.8 72.8 0 0 0 2.752-13.516c.39-3.695-2.725-6.266-5.83-6.266"/><path fill="url(#r)" d="M54.396 19.684q-.655 0-1.3.125c2.038 2.936 3.057 6.011 3.057 7.34a5.82 5.82 0 0 1-2.843 5.25c-.904.536-2.469.796-2.968.796s-2.124-.303-3.025-.844v.124c-.24.959-.43 2.008-.758 3.03a40 40 0 0 1-2.391 5.941c-.98 1.871-1.95 2.966-3.106 2.909-1.315-.066-2.38-1.76-3.706-6.545-.427-1.544-.823-3.235-1.19-4.897-.909-4.12-2.025-8.264-3.934-11.926A14.03 14.03 0 0 0 19.549 13.1c-3.938 0-6.88 1.863-9.19 4.21a19 19 0 0 0-2.038 2.55 5.37 5.37 0 0 1 4.227 4.874 61.7 61.7 0 0 0 1.893 9.942 51 51 0 0 1 2.37-6.16 11 11 0 0 1 1.83-2.854 1.98 1.98 0 0 1 1.363-.721c.44 0 1.94.402 3.401 5.525 1.813 6.354 3.161 16.465 8.3 21.834 2.266 2.368 5.438 3.9 9.833 3.9a12.96 12.96 0 0 0 9.365-4.058c3.77-3.882 5.835-10.301 6.572-12.676a72.8 72.8 0 0 0 2.752-13.516c.39-3.695-2.725-6.266-5.83-6.266"/><path fill="url(#s)" d="M54.396 19.684q-.655 0-1.3.125c2.038 2.936 3.057 6.011 3.057 7.34a5.82 5.82 0 0 1-2.843 5.25c-.904.536-2.469.796-2.968.796s-2.124-.303-3.025-.844v.124c-.24.959-.43 2.008-.758 3.03a40 40 0 0 1-2.391 5.941c-.98 1.871-1.95 2.966-3.106 2.909-1.315-.066-2.38-1.76-3.706-6.545-.427-1.544-.823-3.235-1.19-4.897-.909-4.12-2.025-8.264-3.934-11.926A14.03 14.03 0 0 0 19.549 13.1c-3.938 0-6.88 1.863-9.19 4.21a19 19 0 0 0-2.038 2.55 5.37 5.37 0 0 1 4.227 4.874 61.7 61.7 0 0 0 1.893 9.942 51 51 0 0 1 2.37-6.16 11 11 0 0 1 1.83-2.854 1.98 1.98 0 0 1 1.363-.721c.44 0 1.94.402 3.401 5.525 1.813 6.354 3.161 16.465 8.3 21.834 2.266 2.368 5.438 3.9 9.833 3.9a12.96 12.96 0 0 0 9.365-4.058c3.77-3.882 5.835-10.301 6.572-12.676a72.8 72.8 0 0 0 2.752-13.516c.39-3.695-2.725-6.266-5.83-6.266"/><path fill="url(#t)" d="M54.396 19.684q-.655 0-1.3.125c2.038 2.936 3.057 6.011 3.057 7.34a5.82 5.82 0 0 1-2.843 5.25c-.904.536-2.469.796-2.968.796s-2.124-.303-3.025-.844v.124c-.24.959-.43 2.008-.758 3.03a40 40 0 0 1-2.391 5.941c-.98 1.871-1.95 2.966-3.106 2.909-1.315-.066-2.38-1.76-3.706-6.545-.427-1.544-.823-3.235-1.19-4.897-.909-4.12-2.025-8.264-3.934-11.926A14.03 14.03 0 0 0 19.549 13.1c-3.938 0-6.88 1.863-9.19 4.21a19 19 0 0 0-2.038 2.55 5.37 5.37 0 0 1 4.227 4.874 61.7 61.7 0 0 0 1.893 9.942 51 51 0 0 1 2.37-6.16 11 11 0 0 1 1.83-2.854 1.98 1.98 0 0 1 1.363-.721c.44 0 1.94.402 3.401 5.525 1.813 6.354 3.161 16.465 8.3 21.834 2.266 2.368 5.438 3.9 9.833 3.9a12.96 12.96 0 0 0 9.365-4.058c3.77-3.882 5.835-10.301 6.572-12.676a72.8 72.8 0 0 0 2.752-13.516c.39-3.695-2.725-6.266-5.83-6.266"/><path fill="url(#u)" d="M54.396 19.684q-.655 0-1.3.125c2.038 2.936 3.057 6.011 3.057 7.34a5.82 5.82 0 0 1-2.843 5.25c-.904.536-2.469.796-2.968.796s-2.124-.303-3.025-.844v.124c-.24.959-.43 2.008-.758 3.03a40 40 0 0 1-2.391 5.941c-.98 1.871-1.95 2.966-3.106 2.909-1.315-.066-2.38-1.76-3.706-6.545-.427-1.544-.823-3.235-1.19-4.897-.909-4.12-2.025-8.264-3.934-11.926A14.03 14.03 0 0 0 19.549 13.1c-3.938 0-6.88 1.863-9.19 4.21a19 19 0 0 0-2.038 2.55 5.37 5.37 0 0 1 4.227 4.874 61.7 61.7 0 0 0 1.893 9.942 51 51 0 0 1 2.37-6.16 11 11 0 0 1 1.83-2.854 1.98 1.98 0 0 1 1.363-.721c.44 0 1.94.402 3.401 5.525 1.813 6.354 3.161 16.465 8.3 21.834 2.266 2.368 5.438 3.9 9.833 3.9a12.96 12.96 0 0 0 9.365-4.058c3.77-3.882 5.835-10.301 6.572-12.676a72.8 72.8 0 0 0 2.752-13.516c.39-3.695-2.725-6.266-5.83-6.266"/><path fill="url(#v)" d="M54.396 19.684q-.655 0-1.3.125c2.038 2.936 3.057 6.011 3.057 7.34a5.82 5.82 0 0 1-2.843 5.25c-.904.536-2.469.796-2.968.796s-2.124-.303-3.025-.844v.124c-.24.959-.43 2.008-.758 3.03a40 40 0 0 1-2.391 5.941c-.98 1.871-1.95 2.966-3.106 2.909-1.315-.066-2.38-1.76-3.706-6.545-.427-1.544-.823-3.235-1.19-4.897-.909-4.12-2.025-8.264-3.934-11.926A14.03 14.03 0 0 0 19.549 13.1c-3.938 0-6.88 1.863-9.19 4.21a19 19 0 0 0-2.038 2.55 5.37 5.37 0 0 1 4.227 4.874 61.7 61.7 0 0 0 1.893 9.942 51 51 0 0 1 2.37-6.16 11 11 0 0 1 1.83-2.854 1.98 1.98 0 0 1 1.363-.721c.44 0 1.94.402 3.401 5.525 1.813 6.354 3.161 16.465 8.3 21.834 2.266 2.368 5.438 3.9 9.833 3.9a12.96 12.96 0 0 0 9.365-4.058c3.77-3.882 5.835-10.301 6.572-12.676a72.8 72.8 0 0 0 2.752-13.516c.39-3.695-2.725-6.266-5.83-6.266"/><path fill="url(#w)" d="M54.396 19.684q-.655 0-1.3.125c2.038 2.936 3.057 6.011 3.057 7.34a5.82 5.82 0 0 1-2.843 5.25c-.904.536-2.469.796-2.968.796s-2.124-.303-3.025-.844v.124c-.24.959-.43 2.008-.758 3.03a40 40 0 0 1-2.391 5.941c-.98 1.871-1.95 2.966-3.106 2.909-1.315-.066-2.38-1.76-3.706-6.545-.427-1.544-.823-3.235-1.19-4.897-.909-4.12-2.025-8.264-3.934-11.926A14.03 14.03 0 0 0 19.549 13.1c-3.938 0-6.88 1.863-9.19 4.21a19 19 0 0 0-2.038 2.55 5.37 5.37 0 0 1 4.227 4.874 61.7 61.7 0 0 0 1.893 9.942 51 51 0 0 1 2.37-6.16 11 11 0 0 1 1.83-2.854 1.98 1.98 0 0 1 1.363-.721c.44 0 1.94.402 3.401 5.525 1.813 6.354 3.161 16.465 8.3 21.834 2.266 2.368 5.438 3.9 9.833 3.9a12.96 12.96 0 0 0 9.365-4.058c3.77-3.882 5.835-10.301 6.572-12.676a72.8 72.8 0 0 0 2.752-13.516c.39-3.695-2.725-6.266-5.83-6.266"/><path fill="url(#x)" d="M54.396 19.684q-.655 0-1.3.125c2.038 2.936 3.057 6.011 3.057 7.34a5.82 5.82 0 0 1-2.843 5.25c-.904.536-2.469.796-2.968.796s-2.124-.303-3.025-.844v.124c-.24.959-.43 2.008-.758 3.03a40 40 0 0 1-2.391 5.941c-.98 1.871-1.95 2.966-3.106 2.909-1.315-.066-2.38-1.76-3.706-6.545-.427-1.544-.823-3.235-1.19-4.897-.909-4.12-2.025-8.264-3.934-11.926A14.03 14.03 0 0 0 19.549 13.1c-3.938 0-6.88 1.863-9.19 4.21a19 19 0 0 0-2.038 2.55 5.37 5.37 0 0 1 4.227 4.874 61.7 61.7 0 0 0 1.893 9.942 51 51 0 0 1 2.37-6.16 11 11 0 0 1 1.83-2.854 1.98 1.98 0 0 1 1.363-.721c.44 0 1.94.402 3.401 5.525 1.813 6.354 3.161 16.465 8.3 21.834 2.266 2.368 5.438 3.9 9.833 3.9a12.96 12.96 0 0 0 9.365-4.058c3.77-3.882 5.835-10.301 6.572-12.676a72.8 72.8 0 0 0 2.752-13.516c.39-3.695-2.725-6.266-5.83-6.266"/><path fill="url(#y)" d="M54.396 19.684q-.655 0-1.3.125c2.038 2.936 3.057 6.011 3.057 7.34a5.82 5.82 0 0 1-2.843 5.25c-.904.536-2.469.796-2.968.796s-2.124-.303-3.025-.844v.124c-.24.959-.43 2.008-.758 3.03a40 40 0 0 1-2.391 5.941c-.98 1.871-1.95 2.966-3.106 2.909-1.315-.066-2.38-1.76-3.706-6.545-.427-1.544-.823-3.235-1.19-4.897-.909-4.12-2.025-8.264-3.934-11.926A14.03 14.03 0 0 0 19.549 13.1c-3.938 0-6.88 1.863-9.19 4.21a19 19 0 0 0-2.038 2.55 5.37 5.37 0 0 1 4.227 4.874 61.7 61.7 0 0 0 1.893 9.942 51 51 0 0 1 2.37-6.16 11 11 0 0 1 1.83-2.854 1.98 1.98 0 0 1 1.363-.721c.44 0 1.94.402 3.401 5.525 1.813 6.354 3.161 16.465 8.3 21.834 2.266 2.368 5.438 3.9 9.833 3.9a12.96 12.96 0 0 0 9.365-4.058c3.77-3.882 5.835-10.301 6.572-12.676a72.8 72.8 0 0 0 2.752-13.516c.39-3.695-2.725-6.266-5.83-6.266"/><path fill="url(#z)" d="M54.396 19.684q-.655 0-1.3.125c2.038 2.936 3.057 6.011 3.057 7.34a5.82 5.82 0 0 1-2.843 5.25c-.904.536-2.469.796-2.968.796s-2.124-.303-3.025-.844v.124c-.24.959-.43 2.008-.758 3.03a40 40 0 0 1-2.391 5.941c-.98 1.871-1.95 2.966-3.106 2.909-1.315-.066-2.38-1.76-3.706-6.545-.427-1.544-.823-3.235-1.19-4.897-.909-4.12-2.025-8.264-3.934-11.926A14.03 14.03 0 0 0 19.549 13.1c-3.938 0-6.88 1.863-9.19 4.21a19 19 0 0 0-2.038 2.55 5.37 5.37 0 0 1 4.227 4.874 61.7 61.7 0 0 0 1.893 9.942 51 51 0 0 1 2.37-6.16 11 11 0 0 1 1.83-2.854 1.98 1.98 0 0 1 1.363-.721c.44 0 1.94.402 3.401 5.525 1.813 6.354 3.161 16.465 8.3 21.834 2.266 2.368 5.438 3.9 9.833 3.9a12.96 12.96 0 0 0 9.365-4.058c3.77-3.882 5.835-10.301 6.572-12.676a72.8 72.8 0 0 0 2.752-13.516c.39-3.695-2.725-6.266-5.83-6.266"/><path fill="url(#A)" d="M54.396 19.684q-.655 0-1.3.125c2.038 2.936 3.057 6.011 3.057 7.34a5.82 5.82 0 0 1-2.843 5.25c-.904.536-2.469.796-2.968.796s-2.124-.303-3.025-.844v.124c-.24.959-.43 2.008-.758 3.03a40 40 0 0 1-2.391 5.941c-.98 1.871-1.95 2.966-3.106 2.909-1.315-.066-2.38-1.76-3.706-6.545-.427-1.544-.823-3.235-1.19-4.897-.909-4.12-2.025-8.264-3.934-11.926A14.03 14.03 0 0 0 19.549 13.1c-3.938 0-6.88 1.863-9.19 4.21a19 19 0 0 0-2.038 2.55 5.37 5.37 0 0 1 4.227 4.874 61.7 61.7 0 0 0 1.893 9.942 51 51 0 0 1 2.37-6.16 11 11 0 0 1 1.83-2.854 1.98 1.98 0 0 1 1.363-.721c.44 0 1.94.402 3.401 5.525 1.813 6.354 3.161 16.465 8.3 21.834 2.266 2.368 5.438 3.9 9.833 3.9a12.96 12.96 0 0 0 9.365-4.058c3.77-3.882 5.835-10.301 6.572-12.676a72.8 72.8 0 0 0 2.752-13.516c.39-3.695-2.725-6.266-5.83-6.266"/><path fill="url(#B)" d="M54.396 19.684q-.655 0-1.3.125c2.038 2.936 3.057 6.011 3.057 7.34a5.82 5.82 0 0 1-2.843 5.25c-.904.536-2.469.796-2.968.796s-2.124-.303-3.025-.844v.124c-.24.959-.43 2.008-.758 3.03a40 40 0 0 1-2.391 5.941c-.98 1.871-1.95 2.966-3.106 2.909-1.315-.066-2.38-1.76-3.706-6.545-.427-1.544-.823-3.235-1.19-4.897-.909-4.12-2.025-8.264-3.934-11.926A14.03 14.03 0 0 0 19.549 13.1c-3.938 0-6.88 1.863-9.19 4.21a19 19 0 0 0-2.038 2.55 5.37 5.37 0 0 1 4.227 4.874 61.7 61.7 0 0 0 1.893 9.942 51 51 0 0 1 2.37-6.16 11 11 0 0 1 1.83-2.854 1.98 1.98 0 0 1 1.363-.721c.44 0 1.94.402 3.401 5.525 1.813 6.354 3.161 16.465 8.3 21.834 2.266 2.368 5.438 3.9 9.833 3.9a12.96 12.96 0 0 0 9.365-4.058c3.77-3.882 5.835-10.301 6.572-12.676a72.8 72.8 0 0 0 2.752-13.516c.39-3.695-2.725-6.266-5.83-6.266"/><path fill="url(#C)" d="M19.387 56.03C8.414 56.03 4.68 42.162 3.843 39.464A75 75 0 0 1 1.035 25.95c-.39-3.695 2.575-6.266 5.83-6.266a5.504 5.504 0 0 1 5.704 5.05 61 61 0 0 0 2.34 11.444c1.85 5.9 3.812 8.168 5.225 8.168 2.282 0 3.674-5.856 4.905-11.433.907-4.109 1.888-8.249 3.823-11.926 3.367-6.398 8.455-7.887 12.85-7.887 9.639 0 14.462 11.158 14.462 14.05a5.73 5.73 0 0 1-5.652 6.063c-3.739 0-5.006-2.503-6.072-4.697-.96-1.974-1.962-3.615-3.258-3.615a1.68 1.68 0 0 0-1.185.586c-3.22 3.27-4.3 20.378-10.738 26.917-3.57 3.625-7.453 3.625-9.882 3.625"/><path fill="url(#D)" d="M19.387 56.03C8.414 56.03 4.68 42.162 3.843 39.464A75 75 0 0 1 1.035 25.95c-.39-3.695 2.575-6.266 5.83-6.266a5.504 5.504 0 0 1 5.704 5.05 61 61 0 0 0 2.34 11.444c1.85 5.9 3.812 8.168 5.225 8.168 2.282 0 3.674-5.856 4.905-11.433.907-4.109 1.888-8.249 3.823-11.926 3.367-6.398 8.455-7.887 12.85-7.887 9.639 0 14.462 11.158 14.462 14.05a5.73 5.73 0 0 1-5.652 6.063c-3.739 0-5.006-2.503-6.072-4.697-.96-1.974-1.962-3.615-3.258-3.615a1.68 1.68 0 0 0-1.185.586c-3.22 3.27-4.3 20.378-10.738 26.917-3.57 3.625-7.453 3.625-9.882 3.625"/><path fill="url(#E)" d="M19.387 56.03C8.414 56.03 4.68 42.162 3.843 39.464A75 75 0 0 1 1.035 25.95c-.39-3.695 2.575-6.266 5.83-6.266a5.504 5.504 0 0 1 5.704 5.05 61 61 0 0 0 2.34 11.444c1.85 5.9 3.812 8.168 5.225 8.168 2.282 0 3.674-5.856 4.905-11.433.907-4.109 1.888-8.249 3.823-11.926 3.367-6.398 8.455-7.887 12.85-7.887 9.639 0 14.462 11.158 14.462 14.05a5.73 5.73 0 0 1-5.652 6.063c-3.739 0-5.006-2.503-6.072-4.697-.96-1.974-1.962-3.615-3.258-3.615a1.68 1.68 0 0 0-1.185.586c-3.22 3.27-4.3 20.378-10.738 26.917-3.57 3.625-7.453 3.625-9.882 3.625"/><path fill="url(#F)" d="M19.387 56.03C8.414 56.03 4.68 42.162 3.843 39.464A75 75 0 0 1 1.035 25.95c-.39-3.695 2.575-6.266 5.83-6.266a5.504 5.504 0 0 1 5.704 5.05 61 61 0 0 0 2.34 11.444c1.85 5.9 3.812 8.168 5.225 8.168 2.282 0 3.674-5.856 4.905-11.433.907-4.109 1.888-8.249 3.823-11.926 3.367-6.398 8.455-7.887 12.85-7.887 9.639 0 14.462 11.158 14.462 14.05a5.73 5.73 0 0 1-5.652 6.063c-3.739 0-5.006-2.503-6.072-4.697-.96-1.974-1.962-3.615-3.258-3.615a1.68 1.68 0 0 0-1.185.586c-3.22 3.27-4.3 20.378-10.738 26.917-3.57 3.625-7.453 3.625-9.882 3.625"/><path fill="#fff" d="M113.895 24.744h6.275L111.047 52.1h-7.199l-6.819-20.643L90.21 52.1h-7.086L74 24.744h6.422l6.474 20.789 6.793-20.789h6.819l6.905 20.9zM147.084 40.619H126.73a8.7 8.7 0 0 0 1.554 3.912 7 7 0 0 0 2.892 2.312 9.2 9.2 0 0 0 3.728.745c1.421-.005 2.83-.26 4.161-.753 1.38-.5 2.668-1.221 3.815-2.132l2.995 4.28a15.2 15.2 0 0 1-5.231 2.955 19.9 19.9 0 0 1-6.111.898 14.7 14.7 0 0 1-7.311-1.78 12.68 12.68 0 0 1-4.997-5.052 15.4 15.4 0 0 1-1.796-7.552 15.8 15.8 0 0 1 1.727-7.5 12.67 12.67 0 0 1 4.85-5.077 13.84 13.84 0 0 1 7.139-1.815c2.361-.065 4.69.547 6.709 1.761a12.2 12.2 0 0 1 4.676 5.088 16.3 16.3 0 0 1 1.657 7.483c.009.574-.026 1.319-.103 2.226m-6.043-4.538a8.43 8.43 0 0 0-2.304-5 6.459 6.459 0 0 0-4.696-1.713 6.8 6.8 0 0 0-2.654.41 6.8 6.8 0 0 0-2.283 1.405 8.66 8.66 0 0 0-2.374 4.923zM172.831 25.892a13.37 13.37 0 0 1 4.981 5.137 14.96 14.96 0 0 1 1.83 7.398 14.93 14.93 0 0 1-1.83 7.389 13.34 13.34 0 0 1-4.997 5.155 13.5 13.5 0 0 1-6.967 1.84 11.35 11.35 0 0 1-4.98-1.036 10.25 10.25 0 0 1-3.651-2.928V52.1h-6.042v-39h6.042v14.898a10.35 10.35 0 0 1 3.651-2.911 11.2 11.2 0 0 1 4.98-1.045c2.455-.03 4.871.61 6.983 1.85m-3.297 20.13a7.73 7.73 0 0 0 2.909-3.177 10.2 10.2 0 0 0 0-8.845 7.8 7.8 0 0 0-2.909-3.177 8.85 8.85 0 0 0-8.735 0 7.84 7.84 0 0 0-2.935 3.143 9.4 9.4 0 0 0-1.053 4.486 9.37 9.37 0 0 0 1.053 4.478 7.84 7.84 0 0 0 2.935 3.142 8.85 8.85 0 0 0 8.735 0zM209.455 40.618h-20.344a8.7 8.7 0 0 0 1.553 3.913 7 7 0 0 0 2.892 2.312 9.2 9.2 0 0 0 3.729.745 12.2 12.2 0 0 0 4.16-.754c1.38-.5 2.669-1.22 3.815-2.132l2.987 4.282a15.1 15.1 0 0 1-5.222 2.953c-1.98.615-4.045.919-6.12.9a14.77 14.77 0 0 1-7.311-1.782 12.7 12.7 0 0 1-4.989-5.051 15.4 15.4 0 0 1-1.804-7.552 15.8 15.8 0 0 1 1.726-7.5 12.67 12.67 0 0 1 4.851-5.077 13.84 13.84 0 0 1 7.19-1.841 12.4 12.4 0 0 1 6.707 1.766 12.24 12.24 0 0 1 4.678 5.083 16.3 16.3 0 0 1 1.658 7.484c-.035.599-.095 1.344-.156 2.251m-6.042-4.538a8.48 8.48 0 0 0-2.313-4.965 6.4 6.4 0 0 0-2.161-1.343 6.5 6.5 0 0 0-2.517-.404 6.78 6.78 0 0 0-4.938 1.815 8.6 8.6 0 0 0-2.373 4.923zM238.156 52.1h-7.398l-6.991-9.512-6.905 9.512h-7.052l10.357-13.965-10.193-13.39h7.405l6.733 9.135 6.733-9.136H238l-10.237 13.34z"/><defs><radialGradient id="b" cx="0" cy="0" r="1" gradientTransform="rotate(-120.88 21.982 11.315)scale(25.379 21.3135)" gradientUnits="userSpaceOnUse"><stop stop-color="#B7B7B7"/><stop offset=".408" stop-color="#B5B5B5" stop-opacity=".75"/><stop offset=".875" stop-color="#B6B6B6" stop-opacity="0"/></radialGradient><radialGradient id="c" cx="0" cy="0" r="1" gradientTransform="matrix(-12.38658 -16.58402 10.899 -8.14045 40.245 31.274)" gradientUnits="userSpaceOnUse"><stop stop-color="#CACACA"/><stop offset=".46" stop-color="#C7C7C7"/><stop offset="1" stop-color="#ACACAC" stop-opacity="0"/></radialGradient><radialGradient id="d" cx="0" cy="0" r="1" gradientTransform="rotate(-107.482 24.69 10.486)scale(16.8547 8.78657)" gradientUnits="userSpaceOnUse"><stop stop-color="#CDCDCD"/><stop offset=".408" stop-color="#C8C8C8" stop-opacity=".79"/><stop offset=".875" stop-color="#B6B6B6" stop-opacity="0"/></radialGradient><radialGradient id="e" cx="0" cy="0" r="1" gradientTransform="matrix(-18.62701 -40.69618 12.55806 -5.74794 26.253 41.048)" gradientUnits="userSpaceOnUse"><stop stop-color="#A2A2A2" stop-opacity=".78"/><stop offset="1" stop-color="#A2A2A2" stop-opacity="0"/></radialGradient><radialGradient id="f" cx="0" cy="0" r="1" gradientTransform="rotate(80.213 1.532 34.234)scale(21.1962 12.0318)" gradientUnits="userSpaceOnUse"><stop stop-color="#AEAEAE"/><stop offset=".233" stop-color="#AEAEAE" stop-opacity=".75"/><stop offset=".599" stop-color="#AEAEAE" stop-opacity=".301"/><stop offset=".875" stop-color="#AEAEAE" stop-opacity="0"/></radialGradient><radialGradient id="g" cx="0" cy="0" r="1" gradientTransform="rotate(57.056 13.746 37.74)scale(18.9531 9.9441)" gradientUnits="userSpaceOnUse"><stop stop-color="#E1E1E1"/><stop offset=".408" stop-color="#E7E7E7"/><stop offset="1" stop-color="#E7E7E7" stop-opacity=".07"/></radialGradient><radialGradient id="i" cx="0" cy="0" r="1" gradientTransform="matrix(33.60535 37.30798 -37.2524 33.55528 12.164 -2.988)" gradientUnits="userSpaceOnUse"><stop stop-color="#F5F5F5"/><stop offset=".745" stop-color="#F4F4F4" stop-opacity="0"/></radialGradient><radialGradient id="j" cx="0" cy="0" r="1" gradientTransform="matrix(-7.26854 -23.07813 16.00104 -5.03958 14.81 34.65)" gradientUnits="userSpaceOnUse"><stop stop-color="#F5F5F5" stop-opacity=".76"/><stop offset=".573" stop-color="#F4F4F4" stop-opacity="0"/></radialGradient><radialGradient id="k" cx="0" cy="0" r="1" gradientTransform="matrix(-10.90272 -13.19178 9.23689 -7.6341 51.628 25.456)" gradientUnits="userSpaceOnUse"><stop stop-color="#fff"/><stop offset="1" stop-color="#F4F4F4" stop-opacity="0"/></radialGradient><radialGradient id="l" cx="0" cy="0" r="1" gradientTransform="matrix(.9807 -5.08598 3.52035 .6788 49.182 36.489)" gradientUnits="userSpaceOnUse"><stop stop-color="#CDCDCD"/><stop offset="1" stop-color="#BCBCBC" stop-opacity="0"/></radialGradient><radialGradient id="m" cx="0" cy="0" r="1" gradientTransform="matrix(73.52707 -342.10784 372.19382 79.99326 -106989 35289.9)" gradientUnits="userSpaceOnUse"><stop stop-color="#CDCDCD"/><stop offset="1" stop-color="#BCBCBC" stop-opacity="0"/></radialGradient><radialGradient id="n" cx="0" cy="0" r="1" gradientTransform="matrix(-9.62984 -10.39455 7.30274 -6.76549 54.015 28.423)" gradientUnits="userSpaceOnUse"><stop stop-color="#fff"/><stop offset=".813" stop-color="#fff" stop-opacity="0"/></radialGradient><radialGradient id="p" cx="0" cy="0" r="1" gradientTransform="rotate(37.434 -23.127 89.412)scale(12.6032 17.5146)" gradientUnits="userSpaceOnUse"><stop stop-color="#D2D2D2"/><stop offset=".966" stop-color="#D2D2D2" stop-opacity="0"/></radialGradient><radialGradient id="q" cx="0" cy="0" r="1" gradientTransform="rotate(8.479 -205.458 330.245)scale(14.8748 22.1858)" gradientUnits="userSpaceOnUse"><stop stop-color="#D2D2D2"/><stop offset=".593" stop-color="#D2D2D2" stop-opacity="0"/></radialGradient><radialGradient id="r" cx="0" cy="0" r="1" gradientTransform="rotate(24.646 -58 126.948)scale(12.7047 22.6266)" gradientUnits="userSpaceOnUse"><stop stop-color="#D2D2D2"/><stop offset=".757" stop-color="#D2D2D2" stop-opacity="0"/></radialGradient><radialGradient id="s" cx="0" cy="0" r="1" gradientTransform="rotate(-45.91 60.494 -39.995)scale(30.0034 24.1129)" gradientUnits="userSpaceOnUse"><stop offset=".065" stop-color="#4F4F4F"/><stop offset=".519" stop-color="#D5D5D5" stop-opacity="0"/></radialGradient><radialGradient id="t" cx="0" cy="0" r="1" gradientTransform="matrix(-2.30948 22.70686 -12.45335 -1.26661 46.17 36.496)" gradientUnits="userSpaceOnUse"><stop stop-color="#D2D2D2"/><stop offset=".593" stop-color="#D2D2D2" stop-opacity="0"/><stop offset="1" stop-color="#D2D2D2" stop-opacity="0"/></radialGradient><radialGradient id="u" cx="0" cy="0" r="1" gradientTransform="rotate(93.67 12.393 36.467)scale(27.4678 9.81041)" gradientUnits="userSpaceOnUse"><stop stop-color="#D2D2D2"/><stop offset=".885" stop-color="#D2D2D2" stop-opacity="0"/></radialGradient><radialGradient id="v" cx="0" cy="0" r="1" gradientTransform="rotate(-68.052 31.604 13.362)scale(24.3229 9.6862)" gradientUnits="userSpaceOnUse"><stop stop-color="#B3B3B3"/><stop offset="1" stop-color="#B0B0B0" stop-opacity="0"/></radialGradient><radialGradient id="w" cx="0" cy="0" r="1" gradientTransform="rotate(-22.198 128.939 -35.284)scale(15.7705 30.8087)" gradientUnits="userSpaceOnUse"><stop stop-color="#F7F7F7"/><stop offset=".709" stop-color="#F9F9F9" stop-opacity="0"/></radialGradient><radialGradient id="x" cx="0" cy="0" r="1" gradientTransform="rotate(-22.198 128.939 -35.284)scale(15.7705 30.8087)" gradientUnits="userSpaceOnUse"><stop stop-color="#F7F7F7"/><stop offset=".709" stop-color="#F9F9F9" stop-opacity="0"/></radialGradient><radialGradient id="y" cx="0" cy="0" r="1" gradientTransform="matrix(18.51884 8.41794 -8.49214 18.68207 12.112 27.579)" gradientUnits="userSpaceOnUse"><stop stop-color="#ADADAD"/><stop offset=".761" stop-color="#D2D2D2" stop-opacity="0"/></radialGradient><radialGradient id="z" cx="0" cy="0" r="1" gradientTransform="matrix(7.74425 -.33672 .48832 11.23109 17.836 25.895)" gradientUnits="userSpaceOnUse"><stop stop-color="#ADADAD"/><stop offset=".761" stop-color="#D2D2D2" stop-opacity="0"/></radialGradient><radialGradient id="A" cx="0" cy="0" r="1" gradientTransform="matrix(7.07084 -2.0203 4.2402 14.84022 20.193 33.303)" gradientUnits="userSpaceOnUse"><stop stop-color="#B1B1B1"/><stop offset="1" stop-color="#D2D2D2" stop-opacity="0"/></radialGradient><radialGradient id="B" cx="0" cy="0" r="1" gradientTransform="rotate(-51.583 33.93 3.516)scale(12.463 11.7119)" gradientUnits="userSpaceOnUse"><stop stop-color="#807F7F"/><stop offset="1" stop-color="#D2D2D2" stop-opacity="0"/></radialGradient><radialGradient id="F" cx="0" cy="0" r="1" gradientTransform="matrix(-10.10118 .6734 -2.03602 -30.5409 12.448 27.579)" gradientUnits="userSpaceOnUse"><stop stop-color="#D1D1D1"/><stop offset=".58" stop-color="#D1D1D1" stop-opacity="0"/></radialGradient><linearGradient id="a" x1="50.278" x2="11.521" y1="26.024" y2="38.745" gradientUnits="userSpaceOnUse"><stop stop-color="#fff"/><stop offset="1" stop-color="#F5F5F5"/></linearGradient><linearGradient id="h" x1="-13.581" x2="13.89" y1="34.201" y2="34.428" gradientUnits="userSpaceOnUse"><stop stop-color="#FAFAFA"/><stop offset="1" stop-color="#F8F8F8" stop-opacity="0"/></linearGradient><linearGradient id="o" x1="24.233" x2="16.825" y1="68.659" y2="48.119" gradientUnits="userSpaceOnUse"><stop offset=".229" stop-color="#fff"/><stop offset="1" stop-color="#fff" stop-opacity="0"/></linearGradient><linearGradient id="C" x1="2.043" x2="23.173" y1="16.346" y2="29.843" gradientUnits="userSpaceOnUse"><stop offset=".229" stop-color="#fff"/><stop offset="1" stop-color="#fff" stop-opacity="0"/></linearGradient><linearGradient id="D" x1="6.724" x2="16.826" y1="67.985" y2="48.119" gradientUnits="userSpaceOnUse"><stop offset=".229" stop-color="#fff"/><stop offset="1" stop-color="#fff" stop-opacity="0"/></linearGradient><linearGradient id="E" x1="7.504" x2="13.43" y1="13.613" y2="18.989" gradientUnits="userSpaceOnUse"><stop stop-color="#fff"/><stop offset=".637" stop-color="#F8F8F8" stop-opacity="0"/></linearGradient></defs></svg>