<svg xmlns="http://www.w3.org/2000/svg" width="105" height="77" fill="none" viewBox="0 0 105 77"><path fill="#000" d="M8.542 12.053C3.497 12.435-.66 17.78.087 23.268c.234 2.005.748 5.107 1.402 8.495.28 1.527.607 3.15.934 4.725A112 112 0 0 0 5.459 47.75a93 93 0 0 0 4.718 11.978C17.23 73.76 26.759 76.72 33.532 76.72c3.181.028 6.331-.639 9.24-1.956a22.4 22.4 0 0 0 7.623-5.68 33.6 33.6 0 0 1-3.13-4.915c-2.99-5.632-4.904-12.122-6.54-18.899-.749 2.7-1.75 5.321-2.989 7.827-1.961 3.722-3.316 3.722-4.204 3.722-1.915 0-3.923-2.1-5.979-6.156a67 67 0 0 1-2.802-6.825c-.56-1.67-1.121-3.388-1.588-5.058s-1.308-4.63-1.682-6.49c-.981-4.535-2.149-11.98-2.196-12.218-.42-2.148-2.896-8.686-10.743-8.018M90.428 32.097c4.998-1.956 7.1-8.16 4.858-13.171l-.187-.477a42.4 42.4 0 0 0-3.176-5.87A20.6 20.6 0 0 0 89.96 9.81C83.56 1.793 76.04.361 71.463.361c-3.18-.025-6.33.643-9.237 1.96a22.4 22.4 0 0 0-7.625 5.676 31.7 31.7 0 0 1 2.942 4.581c3.13 5.775 5.092 13.697 6.727 20.426.887-3.054 1.915-6.967 3.083-9.163 1.915-3.579 3.223-3.579 4.11-3.579 2.663 0 4.812 4.009 5.84 6.347 0 0 3.69 9.259 13.125 5.488"/><path fill="#000" d="m96.545 12.053-.888-.095h-.233a48 48 0 0 1 2.616 5.154l.233.477a13.58 13.58 0 0 1 .299 10.15c-1.217 3.29-3.658 5.955-6.792 7.413a13.2 13.2 0 0 1-5.371 1.193 14.2 14.2 0 0 1-3.737-.573c-1.308 5.011-3.363 11.168-5.232 14.89-1.868 3.723-4.064 6.156-6.026 6.156-.84 0-2.195 0-4.157-3.722a44.5 44.5 0 0 1-2.99-7.827c-.607-2.1-1.167-4.343-1.728-6.681a51 51 0 0 1-.607-2.577c-1.775-7.54-3.784-15.463-7.24-21.81a35 35 0 0 0-2.196-3.532 33 33 0 0 0-2.102-2.672 22.4 22.4 0 0 0-7.646-5.686 22 22 0 0 0-9.263-1.95c-4.53 0-12.051 1.432-18.45 9.45a13.1 13.1 0 0 1 5.095 4.177 13.5 13.5 0 0 1 2.471 6.179c.327 2.386 1.121 7.015 2.056 11.406.093.477.186.954.327 1.479.7-1.861 1.401-3.436 2.148-5.202l.56-1.24c1.029-2.34 3.177-6.348 5.793-6.348.934 0 2.242 0 4.157 3.58a43 43 0 0 1 3.083 8.017 128 128 0 0 1 1.729 6.729c.186.668.327 1.336.467 2.004 1.868 7.97 3.83 15.654 7.193 22.001a30 30 0 0 0 2.382 3.866 32 32 0 0 0 2.102 2.624c5.559 6.157 11.958 7.636 16.816 7.636 6.773 0 16.35-2.959 23.403-16.99 3.596-7.206 6.633-17.848 7.754-23.241s1.962-10.26 2.335-13.22c.178-1.298.102-2.619-.223-3.887a10 10 0 0 0-1.67-3.5 9.8 9.8 0 0 0-2.859-2.575 9.6 9.6 0 0 0-3.61-1.253"/></svg>