<svg xmlns="http://www.w3.org/2000/svg" width="240" height="240" fill="none" viewBox="0 0 240 240"><path fill="url(#a)" d="M97.142 170.145c-28.114-11.475-29.544-13.051-42.515-23.426-.81-4.668-1.958-10.354-6.913-30.283-1.609-6.475-2.772-11.154-3.439-14.923a38.7 38.7 0 0 1-.604-6.032c3.463 4.388 10.441 14.846 53.845 59.476.465 3.488.512 9.088-.374 15.188"/><path fill="url(#b)" d="M165.177 143.038c-5.463.78-19.946-.515-44.613-26.634-4.285-18.51-12.621-39.936-12.376-56.913 6.369 5.508 13.807 11.904 15.535 13.23 3.165 2.428 23.853 24.456 25.09 25.72 2.762 2.928 5.807 4.568 9.853 5.518 1.499 6.083 6.496 23.316 6.511 39.079"/><path fill="url(#c)" d="M175.422 101.037c-4.382 2.969-9.825 4.283-15.506 3.189-3.808-.733-7.596-2.069-11.102-5.786-32.638-33.339-11.962-13.963-40.626-38.95.148-10.232 3.413-18.849 12.561-24.238 15.444-9.097 30.951 2.534 44.91 16.933 4.288 4.422 14.625 14.739 17.149 18.458.224.357 10.753 18.09-7.386 30.394"/><path fill="url(#d)" d="M164.092 154.526c-5.076 23.624-24.721 24.186-33.19 22.108-5.857-1.435-16.241-4.915-33.385-21.677-43.404-44.63-50.382-55.088-53.845-59.476-.35-19.73 16.746-27.215 29.487-23.157 10.292 3.283 18.71 13.029 46.864 43.495h.002l.023.038.516.547c24.668 26.119 39.15 27.414 44.613 26.634.004 3.991-.313 7.889-1.085 11.488"/><path fill="url(#e)" d="M36.131 186.82c-16.584-11.351-30.924-28.505-16.787-43.974 7.894-8.638 20.446-9.467 29.076-1.562.03.027 2.575 2.35 6.208 5.435 12.971 10.375 14.4 11.951 42.515 23.427-3 20.642-16.681 47.019-61.012 16.674"/><path fill="url(#f)" d="M194.19 141.576c11.404 2.196 22.426-5.278 24.62-16.693s-5.272-22.449-16.676-24.645-22.426 5.277-24.62 16.693c-2.194 11.415 5.272 22.449 16.676 24.645"/><path fill="url(#g)" d="M194.19 141.576c11.404 2.196 22.426-5.278 24.62-16.693s-5.272-22.449-16.676-24.645-22.426 5.277-24.62 16.693c-2.194 11.415 5.272 22.449 16.676 24.645"/><path fill="url(#h)" d="M175.34 101.289c18.219-12.357 7.643-30.168 7.418-30.527-2.535-3.736-12.917-14.097-17.224-18.54-14.02-14.46-29.595-26.143-45.107-17.007-9.188 5.413-12.246 14.11-12.394 24.388-.246 17.052 8.127 38.572 12.43 57.163 24.776 26.233 39.322 27.534 44.809 26.751-.015-15.688-4.943-32.823-6.497-39.078.373-.016.708-.002.993.053 5.705 1.099 11.173-.22 15.573-3.203z"/><path fill="url(#i)" d="M175.34 101.289c18.219-12.357 7.643-30.168 7.418-30.527-2.535-3.736-12.917-14.097-17.224-18.54-14.02-14.46-29.595-26.143-45.107-17.007-9.188 5.413-12.246 14.11-12.394 24.388-.246 17.052 8.127 38.572 12.43 57.163 24.776 26.233 39.322 27.534 44.809 26.751-.015-15.688-4.943-32.823-6.497-39.078.373-.016.708-.002.993.053 5.705 1.099 11.173-.22 15.573-3.203z"/><path fill="url(#j)" d="M165.177 143.038c-5.463.78-19.946-.515-44.613-26.634-4.285-18.51-12.621-39.936-12.376-56.913 6.369 5.508 13.807 11.904 15.535 13.23 3.165 2.428 23.853 24.456 25.09 25.72 2.762 2.928 5.807 4.568 9.853 5.518 1.499 6.083 6.496 23.316 6.511 39.079"/><path fill="url(#k)" d="M165.177 143.038c-5.463.78-19.946-.515-44.613-26.634-4.285-18.51-12.621-39.936-12.376-56.913 6.369 5.508 13.807 11.904 15.535 13.23 3.165 2.428 23.853 24.456 25.09 25.72 2.762 2.928 5.807 4.568 9.853 5.518 1.499 6.083 6.496 23.316 6.511 39.079"/><path fill="url(#l)" d="M165.177 143.038c-5.463.78-19.946-.515-44.613-26.634-4.285-18.51-12.621-39.936-12.376-56.913 6.369 5.508 13.807 11.904 15.535 13.23 3.165 2.428 23.853 24.456 25.09 25.72 2.762 2.928 5.807 4.568 9.853 5.518 1.499 6.083 6.496 23.316 6.511 39.079"/><path fill="url(#m)" d="M165.177 143.038c-5.463.78-19.946-.515-44.613-26.634-4.285-18.51-12.621-39.936-12.376-56.913 6.369 5.508 13.807 11.904 15.535 13.23 3.165 2.428 23.853 24.456 25.09 25.72 2.762 2.928 5.807 4.568 9.853 5.518 1.499 6.083 6.496 23.316 6.511 39.079"/><path fill="url(#n)" d="M165.18 143.021c-.013-13.898-3.899-28.938-5.845-36.471a241 241 0 0 1-.665-2.607c-4.046-.951-7.091-2.591-9.853-5.52-.219-.223-1.047-1.097-2.28-2.398-5.732-6.048-20.206-21.323-22.811-23.32-1.728-1.327-9.165-7.722-15.535-13.231-.17 11.786 3.796 25.717 7.671 39.327 1.706 5.995 3.395 11.927 4.705 17.586l-.516-.547-.023-.038h-.001c-2.057-2.225-4.008-4.341-5.863-6.351-23.531-25.504-31.462-34.1-41.002-37.143-12.74-4.059-29.836 3.427-29.487 23.156.34.43.713.92 1.152 1.493 4.031 5.276 13.548 17.732 52.693 57.984 17.144 16.761 27.528 20.242 33.386 21.677 8.468 2.077 28.114 1.515 33.189-22.109.773-3.599 1.089-7.497 1.085-11.488"/><path fill="url(#o)" d="M164.092 154.526c-5.076 23.624-24.721 24.186-33.19 22.108-5.857-1.435-16.241-4.915-33.385-21.677-43.404-44.63-50.382-55.088-53.845-59.476-.35-19.73 16.746-27.215 29.487-23.157 10.292 3.283 18.71 13.029 46.864 43.495h.002l.023.038.516.547c24.668 26.119 39.15 27.414 44.613 26.634.004 3.991-.313 7.889-1.085 11.488"/><path fill="url(#p)" d="M164.092 154.526c-5.076 23.624-24.721 24.186-33.19 22.108-5.857-1.435-16.241-4.915-33.385-21.677-43.404-44.63-50.382-55.088-53.845-59.476-.35-19.73 16.746-27.215 29.487-23.157 10.292 3.283 18.71 13.029 46.864 43.495h.002l.023.038.516.547c24.668 26.119 39.15 27.414 44.613 26.634.004 3.991-.313 7.889-1.085 11.488"/><path fill="url(#q)" d="M130.901 176.64c8.469 2.078 28.114 1.516 33.19-22.109.772-3.598 1.089-7.496 1.085-11.487-5.463.779-19.945-.516-44.613-26.634q-.257-.272-.516-.548l-.023-.037h-.001l-5.863-6.351c-23.531-25.505-31.462-34.1-41.002-37.144-12.741-4.058-29.836 3.427-29.487 23.156.034 1.898.23 3.909.604 6.033.666 3.765 1.828 8.438 3.434 14.903l.005.02c4.955 19.929 6.102 25.615 6.913 30.282l1.414 1.133c11.702 9.375 14.042 11.25 41.1 22.294.887-6.1.84-11.7.375-15.188 17.144 16.762 27.528 20.242 33.385 21.677"/><path fill="url(#r)" d="M130.901 176.64c8.469 2.078 28.114 1.516 33.19-22.109.772-3.598 1.089-7.496 1.085-11.487-5.463.779-19.945-.516-44.613-26.634q-.257-.272-.516-.548l-.023-.037h-.001l-5.863-6.351c-23.531-25.505-31.462-34.1-41.002-37.144-12.741-4.058-29.836 3.427-29.487 23.156.034 1.898.23 3.909.604 6.033.666 3.765 1.828 8.438 3.434 14.903l.005.02c4.955 19.929 6.102 25.615 6.913 30.282l1.414 1.133c11.702 9.375 14.042 11.25 41.1 22.294.887-6.1.84-11.7.375-15.188 17.144 16.762 27.528 20.242 33.385 21.677"/><path fill="url(#s)" d="M130.901 176.64c8.469 2.078 28.114 1.516 33.19-22.109.772-3.598 1.089-7.496 1.085-11.487-5.463.779-19.945-.516-44.613-26.634q-.257-.272-.516-.548l-.023-.037h-.001l-5.863-6.351c-23.531-25.505-31.462-34.1-41.002-37.144-12.741-4.058-29.836 3.427-29.487 23.156.034 1.898.23 3.909.604 6.033.666 3.765 1.828 8.438 3.434 14.903l.005.02c4.955 19.929 6.102 25.615 6.913 30.282l1.414 1.133c11.702 9.375 14.042 11.25 41.1 22.294.887-6.1.84-11.7.375-15.188 17.144 16.762 27.528 20.242 33.385 21.677"/><path fill="url(#t)" d="M130.901 176.64c8.469 2.078 28.114 1.516 33.19-22.109.772-3.598 1.089-7.496 1.085-11.487-5.463.779-19.945-.516-44.613-26.634q-.257-.272-.516-.548l-.023-.037h-.001l-5.863-6.351c-23.531-25.505-31.462-34.1-41.002-37.144-12.741-4.058-29.836 3.427-29.487 23.156.034 1.898.23 3.909.604 6.033.666 3.765 1.828 8.438 3.434 14.903l.005.02c4.955 19.929 6.102 25.615 6.913 30.282l1.414 1.133c11.702 9.375 14.042 11.25 41.1 22.294.887-6.1.84-11.7.375-15.188 17.144 16.762 27.528 20.242 33.385 21.677"/><path fill="url(#u)" d="M97.142 170.145c-28.114-11.475-29.544-13.051-42.515-23.426-.81-4.668-1.958-10.354-6.913-30.283-1.609-6.475-2.772-11.154-3.439-14.923a38.7 38.7 0 0 1-.604-6.032c3.463 4.388 10.441 14.846 53.845 59.476.465 3.488.512 9.088-.374 15.188"/><path fill="url(#v)" d="M97.142 170.145c-28.114-11.475-29.544-13.051-42.515-23.426-.81-4.668-1.958-10.354-6.913-30.283-1.609-6.475-2.772-11.154-3.439-14.923a38.7 38.7 0 0 1-.604-6.032c3.463 4.388 10.441 14.846 53.845 59.476.465 3.488.512 9.088-.374 15.188"/><path fill="url(#w)" d="M97.142 170.145c.886-6.1.84-11.7.374-15.188-39.145-40.251-48.662-52.707-52.693-57.983-.439-.574-.812-1.063-1.152-1.493.034 1.898.23 3.908.604 6.032.666 3.765 1.828 8.438 3.434 14.903l.005.02c4.955 19.929 6.102 25.615 6.913 30.283a251 251 0 0 1-6.208-5.436c-8.63-7.904-21.182-7.075-29.076 1.563-14.137 15.469.203 32.623 16.787 43.974 44.33 30.345 58.013 3.968 61.012-16.675"/><path fill="url(#x)" d="M97.142 170.145c.886-6.1.84-11.7.374-15.188-39.145-40.251-48.662-52.707-52.693-57.983-.439-.574-.812-1.063-1.152-1.493.034 1.898.23 3.908.604 6.032.666 3.765 1.828 8.438 3.434 14.903l.005.02c4.955 19.929 6.102 25.615 6.913 30.283a251 251 0 0 1-6.208-5.436c-8.63-7.904-21.182-7.075-29.076 1.563-14.137 15.469.203 32.623 16.787 43.974 44.33 30.345 58.013 3.968 61.012-16.675"/><path fill="url(#y)" d="M97.142 170.145c-28.114-11.475-29.544-13.051-42.515-23.426-.81-4.668-1.958-10.354-6.913-30.283-1.609-6.475-2.772-11.154-3.439-14.923a38.7 38.7 0 0 1-.604-6.032c3.463 4.388 10.441 14.846 53.845 59.476.465 3.488.512 9.088-.374 15.188"/><path fill="url(#z)" d="M36.131 186.82c-16.584-11.351-30.924-28.505-16.787-43.974 7.894-8.638 20.446-9.467 29.076-1.562.03.027 2.575 2.35 6.208 5.435 12.971 10.375 14.4 11.951 42.515 23.427-3 20.642-16.681 47.019-61.012 16.674"/><path fill="url(#A)" d="M36.131 186.82c-16.584-11.351-30.924-28.505-16.787-43.974 7.894-8.638 20.446-9.467 29.076-1.562.03.027 2.575 2.35 6.208 5.435 12.971 10.375 14.4 11.951 42.515 23.427-3 20.642-16.681 47.019-61.012 16.674"/><path fill="url(#B)" d="M175.34 101.289c18.219-12.357 7.643-30.168 7.418-30.527-2.535-3.736-12.917-14.097-17.224-18.54-14.02-14.46-29.595-26.143-45.107-17.007-9.188 5.413-12.246 14.11-12.394 24.388-.246 17.052 8.127 38.572 12.43 57.163 24.776 26.233 39.322 27.534 44.809 26.751-.015-15.688-4.943-32.823-6.497-39.078.373-.016.708-.002.993.053 5.705 1.099 11.173-.22 15.573-3.203z"/><path fill="url(#C)" d="M175.34 101.289c18.219-12.357 7.643-30.168 7.418-30.527-2.535-3.736-12.917-14.097-17.224-18.54-14.02-14.46-29.595-26.143-45.107-17.007-9.188 5.413-12.246 14.11-12.394 24.388-.246 17.052 8.127 38.572 12.43 57.163 24.776 26.233 39.322 27.534 44.809 26.751-.015-15.688-4.943-32.823-6.497-39.078.373-.016.708-.002.993.053 5.705 1.099 11.173-.22 15.573-3.203z"/><path fill="url(#D)" d="M175.34 101.289c18.219-12.357 7.643-30.168 7.418-30.527-2.535-3.736-12.917-14.097-17.224-18.54-14.02-14.46-29.595-26.143-45.107-17.007-9.188 5.413-12.246 14.11-12.394 24.388-.246 17.052 8.127 38.572 12.43 57.163 24.776 26.233 39.322 27.534 44.809 26.751-.015-15.688-4.943-32.823-6.497-39.078.373-.016.708-.002.993.053 5.705 1.099 11.173-.22 15.573-3.203z"/><path fill="url(#E)" d="M175.34 101.289c18.219-12.357 7.643-30.168 7.418-30.527-2.535-3.736-12.917-14.097-17.224-18.54-14.02-14.46-29.595-26.143-45.107-17.007-9.188 5.413-12.246 14.11-12.394 24.388-.246 17.052 8.127 38.572 12.43 57.163 24.776 26.233 39.322 27.534 44.809 26.751-.015-15.688-4.943-32.823-6.497-39.078.373-.016.708-.002.993.053 5.705 1.099 11.173-.22 15.573-3.203z"/><defs><radialGradient id="f" cx="0" cy="0" r="1" gradientTransform="matrix(-6.5903 39.81648 -44.18219 -7.31289 198.586 99.554)" gradientUnits="userSpaceOnUse"><stop stop-color="#70F14D"/><stop offset="1" stop-color="#42A12F"/></radialGradient><radialGradient id="g" cx="0" cy="0" r="1" gradientTransform="matrix(-5.0046 21.44324 -23.79562 -5.55362 199.375 102.759)" gradientUnits="userSpaceOnUse"><stop stop-color="#70F14D"/><stop offset="1" stop-color="#70F14D" stop-opacity="0"/></radialGradient><radialGradient id="i" cx="0" cy="0" r="1" gradientTransform="matrix(-7.65466 39.8287 -17.59706 -3.38197 111.655 37.05)" gradientUnits="userSpaceOnUse"><stop stop-color="#669C27"/><stop offset="1" stop-color="#60BA3B" stop-opacity="0"/></radialGradient><radialGradient id="j" cx="0" cy="0" r="1" gradientTransform="rotate(91.302 26.9 105.65)scale(43.7493 25.8799)" gradientUnits="userSpaceOnUse"><stop stop-color="#668218"/><stop offset="1" stop-color="#658218" stop-opacity="0"/></radialGradient><radialGradient id="k" cx="0" cy="0" r="1" gradientTransform="rotate(91.302 26.9 105.65)scale(43.7493 25.8799)" gradientUnits="userSpaceOnUse"><stop stop-color="#668218"/><stop offset="1" stop-color="#658218" stop-opacity="0"/></radialGradient><radialGradient id="l" cx="0" cy="0" r="1" gradientTransform="rotate(76.34 18.405 113.507)scale(32.9918 19.5185)" gradientUnits="userSpaceOnUse"><stop stop-color="#668218"/><stop offset="1" stop-color="#658218" stop-opacity="0"/></radialGradient><radialGradient id="m" cx="0" cy="0" r="1" gradientTransform="rotate(-115.617 114.512 23.792)scale(13.6958 13.6871)" gradientUnits="userSpaceOnUse"><stop stop-color="#CFD832"/><stop offset="1" stop-color="#CDD631" stop-opacity="0"/></radialGradient><radialGradient id="n" cx="0" cy="0" r="1" gradientTransform="matrix(-27.37192 -18.72792 19.08965 -27.90062 159.516 143.607)" gradientUnits="userSpaceOnUse"><stop stop-color="#D1D936"/><stop offset="1" stop-color="#D1D936" stop-opacity="0"/></radialGradient><radialGradient id="o" cx="0" cy="0" r="1" gradientTransform="matrix(-20.30018 -54.6907 31.4765 -11.6835 133.521 175.575)" gradientUnits="userSpaceOnUse"><stop stop-color="#A89321"/><stop offset="1" stop-color="#BBA81E" stop-opacity="0"/></radialGradient><radialGradient id="q" cx="0" cy="0" r="1" gradientTransform="rotate(39.702 -114.218 104.515)scale(46.4785 26.7758)" gradientUnits="userSpaceOnUse"><stop stop-color="#E7AC1D"/><stop offset="1" stop-color="#FABF2E" stop-opacity="0"/></radialGradient><radialGradient id="r" cx="0" cy="0" r="1" gradientTransform="rotate(70.091 -27.527 164.343)scale(60.6806 15.5556)" gradientUnits="userSpaceOnUse"><stop stop-color="#BAA71C"/><stop offset="1" stop-color="#BBA91E" stop-opacity="0"/></radialGradient><radialGradient id="s" cx="0" cy="0" r="1" gradientTransform="rotate(60.496 -27.789 128.711)scale(62.4545 19.24)" gradientUnits="userSpaceOnUse"><stop stop-color="#F0CF28"/><stop offset="1" stop-color="#F0CF29" stop-opacity="0"/></radialGradient><radialGradient id="t" cx="0" cy="0" r="1" gradientTransform="matrix(25.04241 35.92564 -21.45732 14.95709 68.74 74.49)" gradientUnits="userSpaceOnUse"><stop stop-color="#FFBF3C"/><stop offset="1" stop-color="#F0CF29" stop-opacity="0"/></radialGradient><radialGradient id="u" cx="0" cy="0" r="1" gradientTransform="matrix(3.66852 59.11458 -25.43996 1.57875 70.38 118.161)" gradientUnits="userSpaceOnUse"><stop stop-color="#C06A01"/><stop offset="1" stop-color="#D28D00" stop-opacity="0"/></radialGradient><radialGradient id="v" cx="0" cy="0" r="1" gradientTransform="rotate(-43.485 238.241 -8.974)scale(41.4443 17.8546)" gradientUnits="userSpaceOnUse"><stop stop-color="#E9A101"/><stop offset="1" stop-color="#D28D00" stop-opacity="0"/></radialGradient><radialGradient id="w" cx="0" cy="0" r="1" gradientTransform="matrix(-21.41762 -13.50098 10.1673 -16.12916 91.701 169.9)" gradientUnits="userSpaceOnUse"><stop stop-color="#BE7A00"/><stop offset="1" stop-color="#D28D00" stop-opacity="0"/></radialGradient><radialGradient id="x" cx="0" cy="0" r="1" gradientTransform="matrix(14.71184 19.9229 -14.99239 11.07096 77.886 163.11)" gradientUnits="userSpaceOnUse"><stop stop-color="#CC8300"/><stop offset="1" stop-color="#D28D00" stop-opacity="0"/></radialGradient><radialGradient id="y" cx="0" cy="0" r="1" gradientTransform="rotate(-41.721 247.662 -13.148)scale(20.3877 16.3842)" gradientUnits="userSpaceOnUse"><stop stop-color="#E9A101"/><stop offset="1" stop-color="#D28D00" stop-opacity="0"/></radialGradient><radialGradient id="z" cx="0" cy="0" r="1" gradientTransform="matrix(40.49252 49.21754 -15.79097 12.99163 32.092 144.579)" gradientUnits="userSpaceOnUse"><stop stop-color="#FDC220"/><stop offset="1" stop-color="#F9BD18" stop-opacity="0"/></radialGradient><radialGradient id="B" cx="0" cy="0" r="1" gradientTransform="matrix(-13.96336 -16.27983 6.22694 -5.3409 118.68 67.915)" gradientUnits="userSpaceOnUse"><stop stop-color="#8E9D27"/><stop offset="1" stop-color="#99A229" stop-opacity="0"/></radialGradient><radialGradient id="C" cx="0" cy="0" r="1" gradientTransform="rotate(88.706 40.679 83.629)scale(37.3912 53.4432)" gradientUnits="userSpaceOnUse"><stop stop-color="#5DC340"/><stop offset="1" stop-color="#5DBE3E" stop-opacity="0"/></radialGradient><radialGradient id="E" cx="0" cy="0" r="1" gradientTransform="rotate(-4.03 1326.353 -1452.97)scale(21.5377 122.077)" gradientUnits="userSpaceOnUse"><stop stop-color="#B5A62A"/><stop offset="1" stop-color="#B9A62A" stop-opacity="0"/></radialGradient><linearGradient id="a" x1="50.175" x2="100.45" y1="128.917" y2="152.992" gradientUnits="userSpaceOnUse"><stop stop-color="#D99207"/><stop offset="1" stop-color="#D28D00"/></linearGradient><linearGradient id="b" x1="110.085" x2="159.883" y1="103.593" y2="100.189" gradientUnits="userSpaceOnUse"><stop stop-color="#BCA62A"/><stop offset=".424" stop-color="#7A8B1A"/><stop offset="1" stop-color="#BCD73E"/></linearGradient><linearGradient id="c" x1="143.746" x2="168.817" y1="87.939" y2="61.164" gradientUnits="userSpaceOnUse"><stop stop-color="#42A12F"/><stop offset="1" stop-color="#70F14D"/></linearGradient><linearGradient id="d" x1="82.478" x2="114.095" y1="138.102" y2="111.31" gradientUnits="userSpaceOnUse"><stop stop-color="#B99219"/><stop offset=".502" stop-color="#DAB520"/><stop offset="1" stop-color="#E4C722"/></linearGradient><linearGradient id="e" x1="29.429" x2="87.675" y1="146.556" y2="182.311" gradientUnits="userSpaceOnUse"><stop stop-color="#FFC332"/><stop offset="1" stop-color="#C17F00"/></linearGradient><linearGradient id="h" x1="110.515" x2="152.721" y1="84.289" y2="81.539" gradientUnits="userSpaceOnUse"><stop stop-color="#BEA92B"/><stop offset="1" stop-color="#60BA3B" stop-opacity="0"/></linearGradient><linearGradient id="p" x1="95.899" x2="108.709" y1="164.807" y2="131.962" gradientUnits="userSpaceOnUse"><stop stop-color="#A89321"/><stop offset="1" stop-color="#BBA81E" stop-opacity="0"/></linearGradient><linearGradient id="A" x1="22.358" x2="37.691" y1="176.223" y2="169.036" gradientUnits="userSpaceOnUse"><stop stop-color="#E2A41F"/><stop offset="1" stop-color="#E3A520" stop-opacity="0"/></linearGradient><linearGradient id="D" x1="155.536" x2="133.038" y1="54.649" y2="85.022" gradientUnits="userSpaceOnUse"><stop stop-color="#72F14D"/><stop offset="1" stop-color="#5DBE3E" stop-opacity="0"/></linearGradient></defs></svg>