<svg xmlns="http://www.w3.org/2000/svg" width="32" height="32" viewBox="0 0 32 32"><path d="M22 19.5H10A1.5 1.5 0 0 0 8.5 21v4a1.5 1.5 0 0 0 1.5 1.5h12a1.5 1.5 0 0 0 1.5-1.5v-4a1.5 1.5 0 0 0-1.5-1.5m.5 5.5a.5.5 0 0 1-.5.5H10a.5.5 0 0 1-.5-.5v-4a.5.5 0 0 1 .5-.5h12a.5.5 0 0 1 .5.5zM25 5.5H7A4.505 4.505 0 0 0 2.5 10v2A4.505 4.505 0 0 0 7 16.5h18a4.505 4.505 0 0 0 4.5-4.5v-2A4.505 4.505 0 0 0 25 5.5m3.5 6.5a3.504 3.504 0 0 1-3.5 3.5H7A3.504 3.504 0 0 1 3.5 12v-2A3.504 3.504 0 0 1 7 6.5h18a3.504 3.504 0 0 1 3.5 3.5zM15.976 10.5H11a.5.5 0 0 0 0 1h4.976a.5.5 0 1 0 0-1M20.5 11.75a.75.75 0 1 0 0-1.5.75.75 0 0 0 0 1.5"/></svg>