<svg xmlns="http://www.w3.org/2000/svg" width="378" height="24" fill="none" viewBox="0 0 378 24"><path fill="#000" d="M19.948 6.22h3.137l-4.562 13.789h-3.599l-3.41-10.406L8.105 20.01H4.562L0 6.219h3.211L6.448 16.7l3.396-10.48h3.41l3.452 10.536zM36.542 14.221H26.365a4.4 4.4 0 0 0 .777 1.973c.369.51.868.913 1.446 1.165a4.6 4.6 0 0 0 1.864.375 6 6 0 0 0 2.08-.38 6.8 6.8 0 0 0 1.908-1.074l1.498 2.158a7.6 7.6 0 0 1-2.616 1.489c-.988.31-2.02.463-3.055.453a7.3 7.3 0 0 1-3.656-.898 6.37 6.37 0 0 1-2.499-2.546 7.8 7.8 0 0 1-.897-3.807 8 8 0 0 1 .863-3.78 6.36 6.36 0 0 1 2.425-2.56 6.9 6.9 0 0 1 3.57-.915 6.14 6.14 0 0 1 5.692 3.453 8.26 8.26 0 0 1 .829 3.772q.006.436-.052 1.122m-3.021-2.287a4.26 4.26 0 0 0-1.153-2.52 3.2 3.2 0 0 0-2.347-.864 3.38 3.38 0 0 0-2.469.915 4.38 4.38 0 0 0-1.187 2.482zM49.416 6.798a6.7 6.7 0 0 1 2.49 2.59 7.6 7.6 0 0 1 .915 3.728 7.57 7.57 0 0 1-.915 3.725 6.7 6.7 0 0 1-5.981 3.526 5.6 5.6 0 0 1-2.49-.523 5.1 5.1 0 0 1-1.826-1.476v1.64h-3.021V.35h3.02v7.51a5.2 5.2 0 0 1 1.827-1.468 5.6 5.6 0 0 1 2.49-.526 6.7 6.7 0 0 1 3.491.932m-1.648 10.146a3.9 3.9 0 0 0 1.454-1.6 5.18 5.18 0 0 0 0-4.46 3.9 3.9 0 0 0-1.454-1.6 4.4 4.4 0 0 0-4.368 0c-.627.38-1.136.93-1.467 1.584a4.8 4.8 0 0 0-.527 2.261c-.014.785.167 1.56.527 2.257.331.655.84 1.203 1.467 1.584a4.4 4.4 0 0 0 4.368 0zM67.727 14.221H57.555a4.4 4.4 0 0 0 .777 1.973c.368.51.868.913 1.446 1.165a4.6 4.6 0 0 0 1.864.375 6 6 0 0 0 2.08-.38 6.8 6.8 0 0 0 1.908-1.074l1.493 2.158a7.5 7.5 0 0 1-2.611 1.489c-.99.31-2.023.463-3.06.453a7.34 7.34 0 0 1-3.655-.898 6.4 6.4 0 0 1-2.495-2.546 7.8 7.8 0 0 1-.902-3.807 8 8 0 0 1 .863-3.78 6.36 6.36 0 0 1 2.426-2.56 6.9 6.9 0 0 1 3.595-.927 6.15 6.15 0 0 1 5.692 3.452 8.3 8.3 0 0 1 .829 3.772c-.017.302-.048.678-.078 1.135m-3.02-2.287A4.3 4.3 0 0 0 63.55 9.43a3.22 3.22 0 0 0-2.34-.88 3.37 3.37 0 0 0-2.468.914 4.36 4.36 0 0 0-1.187 2.482zM82.077 20.009H78.38l-3.496-4.795-3.453 4.795h-3.526l5.18-7.04-5.098-6.75h3.703l3.367 4.606 3.366-4.605H82l-5.119 6.724zM323.478 15.02q0-2.746 1.632-4.147 1.305-1.134 3.302-1.133 2.323 0 3.648 1.478 1.267 1.383 1.267 3.802 0 2.707-1.593 4.128-1.306 1.152-3.341 1.152-2.323 0-3.667-1.536-1.248-1.402-1.248-3.744m1.92 0q0 1.92.979 2.937.806.845 2.054.845 1.46 0 2.247-1.094.729-.999.729-2.688 0-1.959-.96-2.957-.787-.825-2.035-.826-1.44 0-2.246 1.095-.768.998-.768 2.688M321.945 8.358h-2.074v-2.17h2.074zm-.116 11.654h-1.843v-9.984h1.843zM317.76 20.012h-1.516l-.327-1.402q-1.152 1.69-3.321 1.69-2.093 0-3.303-1.517-1.113-1.402-1.113-3.705 0-2.784 1.42-4.186 1.191-1.152 3.111-1.152 2.073 0 3.206 1.555V6.188h1.843zm-7.66-4.896q0 1.862.921 2.822.768.788 1.978.788 1.498 0 2.323-1.133.691-.98.691-2.458 0-1.939-.921-2.957-.788-.864-2.093-.864-1.46 0-2.208 1.056-.691.96-.691 2.746M298.312 10.028h1.843v6.547q0 2.15 2.073 2.15 1.268 0 1.94-.902.518-.69.518-1.709v-6.086h1.843v9.984h-1.517l-.211-1.152q-1.056 1.44-2.995 1.44-1.709 0-2.63-1.056-.864-.98-.864-2.707zM297.144 18.534v1.574a5.2 5.2 0 0 1-1.363.192q-1.383 0-2.074-.864-.595-.71-.595-1.9v-5.934h-1.478v-1.574h1.478l.115-2.4h1.728v2.4h2.151v1.574h-2.151v5.971q0 1.114 1.056 1.114.5 0 1.133-.154M288.988 16.268q0-.691-.308-1.094-.345-.48-1.267-.884-.921-.403-2.784-.921-2.495-.69-3.437-1.71-.768-.825-.768-2.207 0-1.67 1.46-2.65 1.344-.902 3.494-.902 2.4 0 3.898 1.133 1.344.998 1.574 2.61h-2.016q-.173-1.094-1.152-1.631-.864-.5-2.304-.5-1.613 0-2.381.615-.614.48-.614 1.248 0 .5.153.826.174.307.576.556.75.5 2.9 1.095 2.994.844 4.051 1.92.883.883.883 2.42 0 1.823-1.594 3.014-1.497 1.095-3.801 1.094-2.4 0-3.975-1.287-1.362-1.113-1.632-2.88h2.016q.192 1.268 1.21 1.94.921.614 2.342.614 1.767 0 2.708-.806.768-.654.768-1.613M269.991 17.305q0-.846-.884-1.268-.517-.23-2.016-.576-1.842-.403-2.63-1.17-.653-.654-.653-1.71 0-1.4 1.133-2.15 1.017-.69 2.746-.691 1.785 0 2.899.883.96.768 1.19 2.035h-1.881q-.326-1.46-2.228-1.46-1.055 0-1.574.385-.423.326-.422.825 0 .615.46.922.48.308 1.863.614 2.112.462 2.937 1.133.922.75.922 2.093 0 1.498-1.229 2.362-1.113.768-2.937.768-1.998 0-3.168-.96-1.018-.845-1.133-2.19h1.881q.307 1.69 2.439 1.69 1.152 0 1.785-.499.5-.402.5-1.037M255.103 20.012h-1.843v-9.984h1.517l.211 1.267q1.113-1.555 3.033-1.555 1.767 0 2.708 1.094.825.98.825 2.669v6.509h-1.843v-6.49q0-2.208-2.131-2.208-1.114 0-1.824.768-.653.691-.653 1.766zM241.303 15.02q0-2.746 1.632-4.147 1.305-1.134 3.302-1.133 2.323 0 3.648 1.478 1.267 1.383 1.267 3.802 0 2.707-1.593 4.128-1.306 1.152-3.341 1.152-2.323 0-3.667-1.536-1.248-1.402-1.248-3.744m1.92 0q0 1.92.979 2.937.807.845 2.054.845 1.46 0 2.247-1.094.729-.999.729-2.688 0-1.959-.96-2.957-.786-.825-2.035-.826-1.44 0-2.246 1.095-.768.998-.768 2.688M239.299 8.358h-2.073v-2.17h2.073zm-.115 11.654h-1.843v-9.984h1.843zM235.608 18.534v1.574a5.2 5.2 0 0 1-1.363.192q-1.383 0-2.074-.864-.595-.71-.595-1.9v-5.934h-1.478v-1.574h1.478l.115-2.4h1.728v2.4h2.151v1.574h-2.151v5.971q0 1.114 1.056 1.114.5 0 1.133-.154M222.172 12.812h-1.959q.154-1.498 1.421-2.323 1.133-.75 2.861-.75 2.055.001 3.149 1.076.921.922.921 2.38v6.817h-1.516l-.231-1.364q-1.171 1.652-3.341 1.652-1.708 0-2.668-.922-.788-.768-.788-1.94 0-1.477 1.018-2.284.903-.71 2.765-1.037l2.918-.499v-.5q0-.978-.672-1.478-.596-.441-1.632-.441-2.035 0-2.246 1.613m1.747 5.932q1.171 0 2.035-.767.768-.71.768-1.633v-1.286l-2.477.442q-1.362.23-1.862.71-.403.384-.403 1.037 0 .73.499 1.113.5.384 1.44.384M215.597 20.012h-1.843v-9.984h1.517l.249 1.478q.845-1.767 2.535-1.766.557 0 1.094.134v1.843a4.6 4.6 0 0 0-1.171-.173q-1.113 0-1.747.903T215.597 15zM201.938 20.684h1.978q.135.768.768 1.19.653.423 1.709.423 1.477 0 2.208-.768.614-.654.614-1.825v-1.286q-1.113 1.306-3.321 1.306-1.998 0-3.245-1.44-1.171-1.344-1.171-3.495 0-2.496 1.42-3.859 1.21-1.19 3.111-1.19 2.15 0 3.245 1.612l.288-1.324h1.516V19.8q0 1.882-1.363 2.957-1.229.999-3.245.999-2.092 0-3.283-.941-.998-.787-1.229-2.131m1.46-5.856q0 1.632.96 2.553.786.768 1.939.768 1.516 0 2.323-.998.691-.845.691-2.266 0-1.824-.941-2.784-.787-.787-2.073-.787-1.42 0-2.189.98-.71.92-.71 2.534M197.732 17.132h1.997q-.423 1.515-1.67 2.38-1.172.788-2.804.788-2.361 0-3.686-1.498-1.21-1.401-1.21-3.782 0-2.708 1.536-4.11 1.268-1.17 3.264-1.17 2.343 0 3.533 1.517 1.152 1.458 1.152 4.166h-7.603q.115 1.766 1.075 2.63.788.691 1.997.691.94 0 1.632-.518a2.2 2.2 0 0 0 .787-1.094m-2.534-5.914q-1.229 0-1.978.768-.71.71-.902 1.978h5.645q-.096-1.44-.96-2.15-.692-.597-1.805-.596M189.296 18.534v1.574a5.2 5.2 0 0 1-1.364.192q-1.381 0-2.073-.864-.595-.71-.595-1.9v-5.934h-1.479v-1.574h1.479l.115-2.4h1.728v2.4h2.15v1.574h-2.15v5.971q0 1.114 1.056 1.114.499 0 1.133-.154M175.79 20.012h-1.843v-9.984h1.517l.211 1.267q1.114-1.555 3.034-1.555 1.766 0 2.707 1.094.826.98.826 2.669v6.509h-1.844v-6.49q0-2.208-2.131-2.208-1.113 0-1.824.768-.653.691-.653 1.766zM169.206 6.188h1.958v13.824h-1.958zM161.19 18.534v1.574a5.2 5.2 0 0 1-1.363.192q-1.383 0-2.074-.864-.595-.71-.595-1.9v-5.934h-1.478v-1.574h1.478l.115-2.4h1.728v2.4h2.151v1.574h-2.151v5.971q0 1.114 1.056 1.114.5 0 1.133-.154M153.084 16.805h2.016q-.23 1.614-1.517 2.592-1.171.903-2.861.903-2.208 0-3.513-1.517-1.21-1.401-1.21-3.687 0-2.65 1.459-4.108 1.248-1.248 3.245-1.248 1.843 0 3.034.979 1.055.864 1.286 2.266h-2.035q-.192-.807-.787-1.248-.576-.442-1.46-.442-1.362 0-2.092 1.075-.692.999-.692 2.784 0 1.863.922 2.823.73.767 1.882.767.997 0 1.632-.575.556-.5.691-1.364M142.723 17.132h1.997q-.422 1.515-1.67 2.38-1.171.788-2.803.788-2.362 0-3.687-1.498-1.209-1.401-1.209-3.782 0-2.708 1.536-4.11 1.266-1.17 3.264-1.17 2.342 0 3.532 1.517 1.152 1.458 1.152 4.166h-7.603q.115 1.766 1.075 2.63.788.691 1.997.691.94 0 1.632-.518.576-.442.787-1.094m-2.534-5.914q-1.228 0-1.978.768-.71.71-.902 1.978h5.645q-.096-1.44-.96-2.15-.692-.597-1.805-.596M127.345 20.012h-1.843v-9.984h1.517l.211 1.267q1.114-1.555 3.034-1.555 1.766 0 2.707 1.094.825.98.825 2.669v6.509h-1.843v-6.49q0-2.208-2.131-2.208-1.113 0-1.824.768-.653.691-.653 1.766zM116.921 20.012h-1.843v-9.984h1.517l.211 1.267q1.114-1.555 3.034-1.555 1.766 0 2.707 1.094.826.98.826 2.669v6.509h-1.844v-6.49q0-2.208-2.131-2.208-1.113 0-1.824.768-.653.691-.653 1.766zM103.592 15.02q0-2.746 1.632-4.147 1.305-1.134 3.302-1.133 2.324 0 3.648 1.478 1.267 1.383 1.267 3.802 0 2.707-1.593 4.128-1.306 1.152-3.341 1.152-2.323 0-3.667-1.536-1.248-1.402-1.248-3.744m1.92 0q0 1.92.979 2.937.806.845 2.054.845 1.46 0 2.247-1.094.729-.999.729-2.688 0-1.959-.96-2.957-.787-.825-2.035-.826-1.44 0-2.246 1.095-.768.998-.768 2.688M96.544 18.649q1.785 0 2.938-1.133a3.5 3.5 0 0 0 1.075-2.38h1.978a5.07 5.07 0 0 1-.845 2.534 5.6 5.6 0 0 1-2.093 1.881q-1.401.75-3.091.749-3.13 0-4.838-2.131-1.498-1.882-1.498-5.07 0-3.646 2.054-5.586Q93.934 5.9 96.66 5.9q2.592 0 4.301 1.593 1.421 1.305 1.556 3.13h-1.978q-.192-1.516-1.363-2.361-1.037-.73-2.516-.73-2.207 0-3.398 1.574-1.094 1.44-1.094 3.994 0 2.803 1.382 4.3 1.152 1.25 2.995 1.249"/></svg>