<svg xmlns="http://www.w3.org/2000/svg" width="378" height="24" fill="none" viewBox="0 0 378 24"><path fill="#fff" d="M19.948 6.22h3.137l-4.562 13.789h-3.599l-3.41-10.406L8.105 20.01H4.562L0 6.219h3.211L6.448 16.7l3.396-10.48h3.41l3.452 10.536zM36.542 14.221H26.365a4.4 4.4 0 0 0 .777 1.973c.369.51.868.913 1.446 1.165a4.6 4.6 0 0 0 1.864.375 6 6 0 0 0 2.08-.38 6.8 6.8 0 0 0 1.908-1.074l1.498 2.158a7.6 7.6 0 0 1-2.616 1.489c-.988.31-2.02.463-3.055.453a7.3 7.3 0 0 1-3.656-.898 6.37 6.37 0 0 1-2.499-2.546 7.8 7.8 0 0 1-.897-3.807 8 8 0 0 1 .863-3.78 6.36 6.36 0 0 1 2.425-2.56 6.9 6.9 0 0 1 3.57-.915 6.14 6.14 0 0 1 5.692 3.453 8.26 8.26 0 0 1 .829 3.772q.006.436-.052 1.122m-3.021-2.287a4.26 4.26 0 0 0-1.153-2.52 3.2 3.2 0 0 0-2.347-.864 3.38 3.38 0 0 0-2.469.915 4.38 4.38 0 0 0-1.187 2.482zM49.416 6.798a6.7 6.7 0 0 1 2.49 2.59 7.6 7.6 0 0 1 .915 3.728 7.57 7.57 0 0 1-.915 3.725 6.7 6.7 0 0 1-5.981 3.526 5.6 5.6 0 0 1-2.49-.523 5.1 5.1 0 0 1-1.826-1.476v1.64h-3.021V.35h3.02v7.51a5.2 5.2 0 0 1 1.827-1.468 5.6 5.6 0 0 1 2.49-.526 6.7 6.7 0 0 1 3.491.932m-1.648 10.146a3.9 3.9 0 0 0 1.454-1.6 5.18 5.18 0 0 0 0-4.46 3.9 3.9 0 0 0-1.454-1.6 4.4 4.4 0 0 0-4.368 0c-.627.38-1.136.93-1.467 1.584a4.8 4.8 0 0 0-.527 2.261c-.014.785.167 1.56.527 2.257.331.655.84 1.203 1.467 1.584a4.4 4.4 0 0 0 4.368 0zM67.727 14.221H57.555a4.4 4.4 0 0 0 .777 1.973c.368.51.868.913 1.446 1.165a4.6 4.6 0 0 0 1.864.375 6 6 0 0 0 2.08-.38 6.8 6.8 0 0 0 1.908-1.074l1.493 2.158a7.5 7.5 0 0 1-2.611 1.489c-.99.31-2.023.463-3.06.453a7.34 7.34 0 0 1-3.655-.898 6.4 6.4 0 0 1-2.495-2.546 7.8 7.8 0 0 1-.902-3.807 8 8 0 0 1 .863-3.78 6.36 6.36 0 0 1 2.426-2.56 6.9 6.9 0 0 1 3.595-.927 6.15 6.15 0 0 1 5.692 3.452 8.3 8.3 0 0 1 .829 3.772c-.017.302-.048.678-.078 1.135m-3.02-2.287A4.3 4.3 0 0 0 63.55 9.43a3.22 3.22 0 0 0-2.34-.88 3.37 3.37 0 0 0-2.468.914 4.36 4.36 0 0 0-1.187 2.482zM82.077 20.009H78.38l-3.496-4.795-3.453 4.795h-3.526l5.18-7.04-5.098-6.75h3.703l3.367 4.606 3.366-4.605H82l-5.119 6.724zM101.22 20l-1.35-3.45H93.4L92 20h-2l5.58-13.65h2.18L103.4 20zm-7.23-5h5.25l-2.6-6.7zM104.12 20v-9.86h1.5l.19 1.16a3 3 0 0 1 1.31-1.12 3.9 3.9 0 0 1 1.59-.32 3.8 3.8 0 0 1 1.73.38c.501.261.909.67 1.17 1.17a3 3 0 0 1 1.44-1.22 5 5 0 0 1 1.77-.33 3.3 3.3 0 0 1 2.42.88 3.54 3.54 0 0 1 .91 2.66V20h-1.82v-6.46a2.3 2.3 0 0 0-.47-1.64 2 2 0 0 0-1.44-.49 2.1 2.1 0 0 0-1 .22 2.7 2.7 0 0 0-.75.57c-.21.236-.37.511-.47.81-.111.322-.165.66-.16 1v6h-1.82v-6.47a2.3 2.3 0 0 0-.49-1.64 2 2 0 0 0-1.43-.49c-.321 0-.638.068-.93.2a2.4 2.4 0 0 0-.76.54 2.5 2.5 0 0 0-.5.8 2.7 2.7 0 0 0-.18 1v6.07zM120.15 20V6.35h1.82v5.16a3.9 3.9 0 0 1 1.32-1.19 4 4 0 0 1 2-.46 4.5 4.5 0 0 1 1.77.34 3.7 3.7 0 0 1 1.38 1c.398.476.698 1.027.88 1.62.22.709.325 1.448.31 2.19a7.1 7.1 0 0 1-.33 2.27 4.6 4.6 0 0 1-.93 1.65 4 4 0 0 1-1.42 1 4.6 4.6 0 0 1-1.8.35 3.74 3.74 0 0 1-3.2-1.59l-.29 1.3zm7.56-5a5.3 5.3 0 0 0-.21-1.58 3.3 3.3 0 0 0-.61-1.11 2.4 2.4 0 0 0-.91-.65 3 3 0 0 0-1.13-.21c-.394 0-.785.079-1.15.23-.377.146-.718.37-1 .66-.287.322-.505.7-.64 1.11a4.7 4.7 0 0 0-.24 1.55 4.24 4.24 0 0 0 .82 2.79 2.68 2.68 0 0 0 2.16 1 2.62 2.62 0 0 0 2.08-.91c.62-.841.915-1.878.83-2.92zM130.75 12.89a3.07 3.07 0 0 1 1.26-2.2 4.87 4.87 0 0 1 3-.83 5.7 5.7 0 0 1 1.72.24c.464.15.893.391 1.26.71.338.295.602.665.77 1.08.185.437.277.907.27 1.38V20h-1.5l-.26-1.34c-.347.471-.79.863-1.3 1.15a3.8 3.8 0 0 1-2 .48 4.4 4.4 0 0 1-1.45-.22 3.2 3.2 0 0 1-1.07-.6 2.5 2.5 0 0 1-.66-.89 3 3 0 0 1 .64-3.26 5.7 5.7 0 0 1 2.87-1.14l2.88-.49v-.5a1.74 1.74 0 0 0-.59-1.4 2.54 2.54 0 0 0-1.69-.49 2.45 2.45 0 0 0-1.59.43c-.354.29-.58.706-.63 1.16zm3.65 5.86c.341-.002.68-.063 1-.18.327-.113.631-.282.9-.5.25-.21.46-.465.62-.75.161-.286.244-.61.24-.94v-1.27l-2.45.44a5.6 5.6 0 0 0-1.09.27q-.37.138-.68.38c-.155.13-.278.295-.36.48a1.6 1.6 0 0 0-.11.59 1.3 1.3 0 0 0 .5 1.1c.42.285.924.419 1.43.38M146.76 17.33a1.24 1.24 0 0 0-.2-.72 1.4 1.4 0 0 0-.57-.47 5 5 0 0 0-.9-.34l-1.2-.29a5.5 5.5 0 0 1-2.49-1.06 2.32 2.32 0 0 1-.75-1.79 2.48 2.48 0 0 1 1-2 5.5 5.5 0 0 1 5.58 0 3.15 3.15 0 0 1 1.31 2.12h-1.86a1.64 1.64 0 0 0-.7-1.06 2.57 2.57 0 0 0-1.5-.38 2.6 2.6 0 0 0-1.5.34 1 1 0 0 0-.47.85c-.003.171.027.341.09.5a.92.92 0 0 0 .35.39c.212.145.445.257.69.33q.577.184 1.17.3c.56.13 1.09.27 1.56.43.43.13.836.329 1.2.59a2.51 2.51 0 0 1 1.05 2.17c.007.43-.089.855-.28 1.24-.187.39-.461.732-.8 1a4.1 4.1 0 0 1-1.29.64 6.2 6.2 0 0 1-1.75.23 4.84 4.84 0 0 1-3-.85 3.05 3.05 0 0 1-1.26-2.26h1.86a1.82 1.82 0 0 0 .76 1.28 3 3 0 0 0 1.65.39 2.75 2.75 0 0 0 1.69-.44 1.31 1.31 0 0 0 .56-1.14M155.75 17.33a1.24 1.24 0 0 0-.2-.72 1.4 1.4 0 0 0-.57-.47 5 5 0 0 0-.9-.34l-1.2-.29a5.5 5.5 0 0 1-2.48-1.06 2.32 2.32 0 0 1-.75-1.79 2.48 2.48 0 0 1 1-2 5.5 5.5 0 0 1 5.58 0 3.15 3.15 0 0 1 1.31 2.12h-1.86a1.64 1.64 0 0 0-.7-1.06 2.54 2.54 0 0 0-1.5-.38 2.6 2.6 0 0 0-1.5.34 1 1 0 0 0-.47.85c-.005.172.029.343.1.5a.83.83 0 0 0 .34.39c.212.145.445.257.69.33q.577.184 1.17.3c.56.13 1.09.27 1.56.43.43.13.836.329 1.2.59a2.51 2.51 0 0 1 1.05 2.17c.007.43-.089.855-.28 1.24-.187.39-.461.732-.8 1a4.1 4.1 0 0 1-1.29.64 6.2 6.2 0 0 1-1.75.23 4.84 4.84 0 0 1-3-.85 3.05 3.05 0 0 1-1.26-2.26h1.86a1.82 1.82 0 0 0 .76 1.28 3.05 3.05 0 0 0 1.65.39 2.75 2.75 0 0 0 1.69-.44 1.3 1.3 0 0 0 .55-1.14M158.73 12.89a3.07 3.07 0 0 1 1.26-2.2 4.87 4.87 0 0 1 3-.83 5.6 5.6 0 0 1 1.71.24c.465.147.894.389 1.26.71.341.295.608.665.78 1.08.185.437.277.907.27 1.38V20h-1.5l-.26-1.34c-.347.471-.79.863-1.3 1.15a3.85 3.85 0 0 1-2 .48 4.3 4.3 0 0 1-1.45-.22 3.2 3.2 0 0 1-1.07-.6 2.65 2.65 0 0 1-.67-.89 2.74 2.74 0 0 1-.22-1.12 2.753 2.753 0 0 1 .87-2.14 5.7 5.7 0 0 1 2.86-1.14l2.89-.49v-.5a1.74 1.74 0 0 0-.59-1.4 2.56 2.56 0 0 0-1.69-.49 2.45 2.45 0 0 0-1.59.43 1.65 1.65 0 0 0-.63 1.16zm3.67 5.86a3.06 3.06 0 0 0 1.9-.68c.253-.21.466-.464.63-.75.161-.286.244-.61.24-.94v-1.27l-2.45.44a5.4 5.4 0 0 0-1.09.27 2.4 2.4 0 0 0-.68.38 1.2 1.2 0 0 0-.36.48 1.6 1.6 0 0 0-.11.59 1.33 1.33 0 0 0 .49 1.1c.421.283.925.416 1.43.38M176.4 20l-.36-1.34a3.85 3.85 0 0 1-3.31 1.67 4.4 4.4 0 0 1-1.72-.33 3.8 3.8 0 0 1-1.39-1 4.7 4.7 0 0 1-.92-1.62 7 7 0 0 1-.33-2.22 7.4 7.4 0 0 1 .33-2.32c.195-.603.507-1.16.92-1.64.387-.438.87-.78 1.411-1a4.9 4.9 0 0 1 1.819-.33 3.8 3.8 0 0 1 1.901.43c.491.275.92.65 1.259 1.1v-5h1.82V20zm-6.07-4.83a5.2 5.2 0 0 0 .21 1.55c.128.405.332.781.601 1.11a2.5 2.5 0 0 0 .899.68c.365.151.756.226 1.15.22a2.9 2.9 0 0 0 1.25-.26c.362-.173.683-.422.94-.73.273-.328.474-.71.591-1.12a5 5 0 0 0 .2-1.43c.066-1-.22-1.99-.81-2.8a2.68 2.68 0 0 0-2.171-1 2.65 2.65 0 0 0-2.079.91 4.33 4.33 0 0 0-.811 2.87zM179.4 15.07a6.3 6.3 0 0 1 .39-2.31 4.6 4.6 0 0 1 1-1.63 4.3 4.3 0 0 1 1.55-1 5.92 5.92 0 0 1 3.78 0 4.1 4.1 0 0 1 1.55 1c.449.464.79 1.02 1 1.63.271.74.399 1.523.38 2.31a6.3 6.3 0 0 1-.37 2.27 4.55 4.55 0 0 1-1 1.63c-.438.44-.967.782-1.55 1a5.78 5.78 0 0 1-3.85 0 4.3 4.3 0 0 1-1.54-1 4.6 4.6 0 0 1-1-1.63 6.3 6.3 0 0 1-.34-2.27m1.9 0c-.013.546.065 1.09.23 1.61.129.43.339.83.62 1.18a2.54 2.54 0 0 0 1 .71c.38.162.788.243 1.2.24a2.67 2.67 0 0 0 2.05-.95c.599-.802.89-1.792.82-2.79a5.3 5.3 0 0 0-.23-1.63 3.4 3.4 0 0 0-.59-1.18 2.6 2.6 0 0 0-.94-.7 3 3 0 0 0-1.16-.22 2.9 2.9 0 0 0-1.18.23 2.64 2.64 0 0 0-1 .71 3.6 3.6 0 0 0-.62 1.17 5 5 0 0 0-.22 1.62zM190.631 20v-9.86h1.5l.24 1.46a2.69 2.69 0 0 1 2.51-1.74q.315-.025.63 0l.45.09v1.82a5 5 0 0 0-.56-.11 3 3 0 0 0-.61 0c-.309 0-.615.06-.9.18a2 2 0 0 0-.75.59 3.2 3.2 0 0 0-.51 1.06 5.5 5.5 0 0 0-.19 1.58v4.95z"/></svg>