<svg xmlns="http://www.w3.org/2000/svg" width="153" height="40" fill="none" viewBox="0 0 153 40"><g clip-path="url(#a)"><path fill="#fff" d="M152.34 20.78c-.39.899-.869 1.757-1.43 2.56a13 13 0 0 1-1.83 2.22 3.6 3.6 0 0 1-2.36 1 5.9 5.9 0 0 1-2.18-.52 6.2 6.2 0 0 0-2.34-.52 6.4 6.4 0 0 0-2.42.52 6.5 6.5 0 0 1-2.08.55 3.34 3.34 0 0 1-2.41-1.07 14 14 0 0 1-1.92-2.3 15.9 15.9 0 0 1-2-4 14.7 14.7 0 0 1-.85-4.8 8.74 8.74 0 0 1 1.15-4.59 6.87 6.87 0 0 1 2.41-2.44 6.5 6.5 0 0 1 3.27-.92c.868.052 1.72.252 2.52.59.639.281 1.311.48 2 .59.76-.164 1.504-.398 2.22-.7a7.3 7.3 0 0 1 3-.53 6.41 6.41 0 0 1 5 2.64 5.59 5.59 0 0 0-3 5.07 5.58 5.58 0 0 0 1.91 4.22c.529.513 1.15.92 1.83 1.2-.14.43-.3.84-.46 1.23zM147.22.67a5.65 5.65 0 0 1-1.44 3.7 5 5 0 0 1-4.1 2 4 4 0 0 1 0-.5 5.8 5.8 0 0 1 1.54-3.75 6.1 6.1 0 0 1 1.83-1.38A5.6 5.6 0 0 1 147.2.1q.015.266 0 .53z"/><path stroke="#fff" stroke-miterlimit="10" stroke-width="3" d="m114.12.1-.03 32.12"/><path fill="#fff" d="M79.977 33.201H78.66v5.25h1.318zM90.659 34.705a2.3 2.3 0 0 0-1.112-.28c-.858 0-1.453.596-1.453 1.4 0 .78.57 1.402 1.453 1.402.388.001.77-.094 1.112-.278v1.408c-.392.12-.798.184-1.207.186-1.49 0-2.796-1.025-2.796-2.718 0-1.567 1.183-2.716 2.796-2.716.41 0 .816.064 1.207.187zM76.833 34.705a2.3 2.3 0 0 0-1.113-.28c-.858 0-1.451.596-1.451 1.4 0 .78.568 1.402 1.45 1.402.39 0 .772-.095 1.114-.278v1.408c-.392.12-.799.184-1.208.186-1.49 0-2.796-1.025-2.796-2.718 0-1.567 1.183-2.716 2.796-2.716.41 0 .817.064 1.208.187zM94.826 34.444a1.356 1.356 0 0 0-1.37 1.381 1.36 1.36 0 0 0 1.37 1.383 1.36 1.36 0 0 0 1.37-1.383 1.36 1.36 0 0 0-1.37-1.38m2.774 1.381c0 1.503-1.159 2.718-2.774 2.718s-2.772-1.215-2.772-2.718 1.158-2.716 2.772-2.716 2.774 1.217 2.774 2.716M85.001 34.395a4.6 4.6 0 0 0-1.035-.16c-.53 0-.819.177-.819.43 0 .32.39.438.606.5l.366.116c.86.273 1.251.862 1.251 1.502 0 1.318-1.158 1.758-2.173 1.758a8 8 0 0 1-1.43-.147v-1.208a5 5 0 0 0 1.251.195c.66 0 .962-.192.962-.491 0-.265-.262-.419-.585-.523l-.283-.09c-.732-.233-1.353-.667-1.353-1.537 0-.98.732-1.64 1.956-1.64a5.7 5.7 0 0 1 1.29.167zM63.576 38.434H63v-5.239h.699v1.979a1.45 1.45 0 0 1 1.266-.633 1.5 1.5 0 0 1 1.266.586q.4.525.4 1.39 0 1.025-.546 1.571a1.59 1.59 0 0 1-1.171.458 1.4 1.4 0 0 1-1.23-.61zm2.327-1.936q-.001-.714-.356-1.07a.99.99 0 0 0-.743-.292 1.02 1.02 0 0 0-.843.385 1.5 1.5 0 0 0-.293.975q0 .728.357 1.113a1 1 0 0 0 .785.335.95.95 0 0 0 .83-.4q.265-.37.265-1.046zM70.373 34.65l-1.319 3.833q-.263.765-.502 1.042a.93.93 0 0 1-.732.326 2 2 0 0 1-.451-.064v-.572q.18.048.365.052a.42.42 0 0 0 .348-.157q.201-.319.314-.68h-.226l-1.39-3.783h.749l1.07 3.221 1.07-3.221zM23.743 8.437h3.734l-5.43 16.412h-4.284l-4.058-12.385-4.058 12.385H5.43L0 8.437h3.822l3.852 12.472 4.043-12.472h4.058l4.11 12.539zM43.494 17.96H31.38c.112.846.43 1.652.925 2.347a4.2 4.2 0 0 0 1.72 1.387c.7.303 1.457.455 2.22.447a7.2 7.2 0 0 0 2.475-.452 8 8 0 0 0 2.27-1.279l1.783 2.569a9 9 0 0 1-3.113 1.772c-1.176.37-2.403.551-3.636.54a8.7 8.7 0 0 1-4.351-1.07 7.6 7.6 0 0 1-2.975-3.03 9.3 9.3 0 0 1-1.068-4.53 9.5 9.5 0 0 1 1.027-4.5 7.57 7.57 0 0 1 2.887-3.047 8.2 8.2 0 0 1 4.248-1.089 7.31 7.31 0 0 1 6.776 4.11 9.84 9.84 0 0 1 .986 4.49q.008.516-.062 1.335m-3.596-2.723a5.08 5.08 0 0 0-1.372-3 3.82 3.82 0 0 0-2.794-1.027 4.02 4.02 0 0 0-2.938 1.09 5.2 5.2 0 0 0-1.413 2.953zM58.817 9.125a8 8 0 0 1 2.964 3.082 9.03 9.03 0 0 1 1.089 4.438 9 9 0 0 1-1.089 4.433 7.97 7.97 0 0 1-7.12 4.197 6.7 6.7 0 0 1-2.964-.622 6.1 6.1 0 0 1-2.172-1.756v1.952h-3.596V1.45h3.596v8.938a6.2 6.2 0 0 1 2.172-1.746 6.64 6.64 0 0 1 2.964-.627 7.97 7.97 0 0 1 4.156 1.11M56.855 21.2a4.63 4.63 0 0 0 1.73-1.905 6.17 6.17 0 0 0 0-5.307 4.66 4.66 0 0 0-1.73-1.905 5.24 5.24 0 0 0-5.199 0 4.7 4.7 0 0 0-1.746 1.885 5.7 5.7 0 0 0-.627 2.691 5.65 5.65 0 0 0 .627 2.687c.395.779 1 1.432 1.746 1.885a5.24 5.24 0 0 0 5.199 0zM80.613 17.96H68.505c.112.846.43 1.652.925 2.348a4.2 4.2 0 0 0 1.72 1.386c.7.303 1.457.455 2.22.447a7.2 7.2 0 0 0 2.475-.452 8 8 0 0 0 2.271-1.279l1.777 2.569a9 9 0 0 1-3.107 1.772 11.8 11.8 0 0 1-3.642.54 8.73 8.73 0 0 1-4.351-1.07 7.6 7.6 0 0 1-2.97-3.03 9.3 9.3 0 0 1-1.073-4.53 9.53 9.53 0 0 1 1.027-4.5 7.57 7.57 0 0 1 2.887-3.047 8.2 8.2 0 0 1 4.28-1.104 7.33 7.33 0 0 1 6.775 4.11 9.84 9.84 0 0 1 .986 4.489c-.02.36-.056.806-.093 1.35m-3.596-2.723a5.1 5.1 0 0 0-1.377-2.979 3.83 3.83 0 0 0-2.784-1.048 4 4 0 0 0-2.938 1.09 5.2 5.2 0 0 0-1.413 2.953zM97.693 24.849H93.29l-4.16-5.707-4.11 5.707h-4.197l6.165-8.378-6.067-8.034h4.407l4.007 5.48 4.007-5.48H97.6l-6.092 8.003z"/></g><defs><clipPath id="a"><path fill="#fff" d="M0 .1h152.8v39.8H0z"/></clipPath></defs></svg>