<svg xmlns="http://www.w3.org/2000/svg" width="378" height="24" fill="none" viewBox="0 0 378 24"><path fill="#000" d="M19.948 6.22h3.137l-4.562 13.789h-3.599l-3.41-10.406L8.105 20.01H4.562L0 6.219h3.211L6.448 16.7l3.396-10.48h3.41l3.452 10.536zM36.542 14.221H26.365a4.4 4.4 0 0 0 .777 1.973c.369.51.868.913 1.446 1.165a4.6 4.6 0 0 0 1.864.375 6 6 0 0 0 2.08-.38 6.8 6.8 0 0 0 1.908-1.074l1.498 2.158a7.6 7.6 0 0 1-2.616 1.489c-.988.31-2.02.463-3.055.453a7.3 7.3 0 0 1-3.656-.898 6.37 6.37 0 0 1-2.499-2.546 7.8 7.8 0 0 1-.897-3.807 8 8 0 0 1 .863-3.78 6.36 6.36 0 0 1 2.425-2.56 6.9 6.9 0 0 1 3.57-.915 6.14 6.14 0 0 1 5.692 3.453 8.26 8.26 0 0 1 .829 3.772q.006.436-.052 1.122m-3.021-2.287a4.26 4.26 0 0 0-1.153-2.52 3.2 3.2 0 0 0-2.347-.864 3.38 3.38 0 0 0-2.469.915 4.38 4.38 0 0 0-1.187 2.482zM49.416 6.798a6.7 6.7 0 0 1 2.49 2.59 7.6 7.6 0 0 1 .915 3.728 7.57 7.57 0 0 1-.915 3.725 6.7 6.7 0 0 1-5.981 3.526 5.6 5.6 0 0 1-2.49-.523 5.1 5.1 0 0 1-1.826-1.476v1.64h-3.021V.35h3.02v7.51a5.2 5.2 0 0 1 1.827-1.468 5.6 5.6 0 0 1 2.49-.526 6.7 6.7 0 0 1 3.491.932m-1.648 10.146a3.9 3.9 0 0 0 1.454-1.6 5.18 5.18 0 0 0 0-4.46 3.9 3.9 0 0 0-1.454-1.6 4.4 4.4 0 0 0-4.368 0c-.627.38-1.136.93-1.467 1.584a4.8 4.8 0 0 0-.527 2.261c-.014.785.167 1.56.527 2.257.331.655.84 1.203 1.467 1.584a4.4 4.4 0 0 0 4.368 0zM67.727 14.221H57.555a4.4 4.4 0 0 0 .777 1.973c.368.51.868.913 1.446 1.165a4.6 4.6 0 0 0 1.864.375 6 6 0 0 0 2.08-.38 6.8 6.8 0 0 0 1.908-1.074l1.493 2.158a7.5 7.5 0 0 1-2.611 1.489c-.99.31-2.023.463-3.06.453a7.34 7.34 0 0 1-3.655-.898 6.4 6.4 0 0 1-2.495-2.546 7.8 7.8 0 0 1-.902-3.807 8 8 0 0 1 .863-3.78 6.36 6.36 0 0 1 2.426-2.56 6.9 6.9 0 0 1 3.595-.927 6.15 6.15 0 0 1 5.692 3.452 8.3 8.3 0 0 1 .829 3.772c-.017.302-.048.678-.078 1.135m-3.02-2.287A4.3 4.3 0 0 0 63.55 9.43a3.22 3.22 0 0 0-2.34-.88 3.37 3.37 0 0 0-2.468.914 4.36 4.36 0 0 0-1.187 2.482zM82.077 20.009H78.38l-3.496-4.795-3.453 4.795h-3.526l5.18-7.04-5.098-6.75h3.703l3.367 4.606 3.366-4.605H82l-5.119 6.724zM94.43 6.35a8.8 8.8 0 0 1 2.74.4 5.45 5.45 0 0 1 2.12 1.26 5.6 5.6 0 0 1 1.37 2.12 8.7 8.7 0 0 1 .48 3c.019 1.003-.151 2-.5 2.94a5.9 5.9 0 0 1-1.41 2.14 6 6 0 0 1-2.17 1.31 8.4 8.4 0 0 1-2.76.44H90V6.35zm-2.5 1.53v10.53h2.56A4.52 4.52 0 0 0 98 17.09a5.6 5.6 0 0 0 1.22-3.92 7.5 7.5 0 0 0-.33-2.34 4.45 4.45 0 0 0-1-1.65 3.85 3.85 0 0 0-1.49-1 5.5 5.5 0 0 0-2-.33zM102.64 8.49V6.35h2v2.14zm.12 11.51v-9.86h1.82V20zM106.66 20v-9.86h1.5l.25 1.46a2.66 2.66 0 0 1 2.5-1.74q.32-.024.64 0l.44.09v1.82a4 4 0 0 0-.55-.12q-.3-.024-.6 0a2.3 2.3 0 0 0-.9.18c-.297.127-.556.33-.75.59a3 3 0 0 0-.52 1.06 6 6 0 0 0-.19 1.58v4.95zM121.34 17.16a4.3 4.3 0 0 1-.56 1.25c-.256.383-.574.72-.94 1-.395.28-.83.499-1.29.65a5.2 5.2 0 0 1-1.63.24 5.8 5.8 0 0 1-1.94-.32 4.2 4.2 0 0 1-1.53-1 4.54 4.54 0 0 1-1-1.63 6.7 6.7 0 0 1-.36-2.29 6.5 6.5 0 0 1 .36-2.26 4.7 4.7 0 0 1 1-1.64 4.1 4.1 0 0 1 1.5-1 5.3 5.3 0 0 1 1.9-.33 5.4 5.4 0 0 1 1.88.31 3.64 3.64 0 0 1 1.46 1c.449.51.789 1.105 1 1.75.241.832.355 1.695.34 2.56H114a3.57 3.57 0 0 0 1 2.49c.563.527 1.31.81 2.08.79a2.63 2.63 0 0 0 1.55-.45 2.22 2.22 0 0 0 .84-1.14zm-4.47-5.84a2.72 2.72 0 0 0-1.87.67 3.28 3.28 0 0 0-1 2h5.58a2.9 2.9 0 0 0-.84-2 2.76 2.76 0 0 0-1.87-.67M131.49 16.83a3.7 3.7 0 0 1-.44 1.35 4.2 4.2 0 0 1-.9 1.1 4.1 4.1 0 0 1-1.31.74 5 5 0 0 1-1.67.27 5 5 0 0 1-1.84-.33 4 4 0 0 1-1.48-1 4.7 4.7 0 0 1-1-1.61 6.3 6.3 0 0 1-.36-2.21 7 7 0 0 1 .33-2.22 4.6 4.6 0 0 1 1-1.67c.409-.44.911-.781 1.47-1a4.8 4.8 0 0 1 1.9-.36 4.74 4.74 0 0 1 2.81.77 3.48 3.48 0 0 1 1.42 2.36h-2a2.1 2.1 0 0 0-.77-1.24 2.35 2.35 0 0 0-1.45-.43 2.5 2.5 0 0 0-2 .92 4.48 4.48 0 0 0-.76 2.89c-.01.534.06 1.067.21 1.58.129.4.329.772.59 1.1.238.284.539.507.88.65.345.148.716.223 1.09.22a2.35 2.35 0 0 0 1.52-.49c.431-.36.706-.872.77-1.43zM137.41 20.1c-.44.12-.894.183-1.35.19a2.5 2.5 0 0 1-2-.75 2.9 2.9 0 0 1-.66-2v-5.88H132v-1.52h1.46l.11-2.37h1.71v2.37h2.12v1.52h-2.12v5.89c0 .74.35 1.1 1 1.1h.47a6 6 0 0 0 .65-.13zM137.88 15.07a6.3 6.3 0 0 1 .39-2.31c.23-.614.592-1.17 1.06-1.63a4.2 4.2 0 0 1 1.54-1 5.6 5.6 0 0 1 1.89-.31c.647-.005 1.289.1 1.9.31a4.2 4.2 0 0 1 1.54 1 4.55 4.55 0 0 1 1 1.63c.263.741.388 1.524.37 2.31a6.3 6.3 0 0 1-.37 2.27 4.4 4.4 0 0 1-1 1.63 4.2 4.2 0 0 1-1.55 1 5.78 5.78 0 0 1-3.85 0 4.2 4.2 0 0 1-1.54-1 4.7 4.7 0 0 1-1-1.63 6.5 6.5 0 0 1-.38-2.27m1.9 0a5.2 5.2 0 0 0 .22 1.59c.131.429.341.83.62 1.18.273.313.615.556 1 .71.38.162.788.243 1.2.24a2.67 2.67 0 0 0 2.12-.95c.603-.8.894-1.791.82-2.79a5.3 5.3 0 0 0-.23-1.63 3.4 3.4 0 0 0-.63-1.18 2.44 2.44 0 0 0-.93-.7 3.05 3.05 0 0 0-1.17-.23 2.9 2.9 0 0 0-1.18.24c-.383.158-.724.4-1 .71a3.6 3.6 0 0 0-.62 1.17 5.2 5.2 0 0 0-.22 1.64M149.13 20v-9.86h1.5l.25 1.46a2.66 2.66 0 0 1 2.5-1.74q.32-.024.64 0l.44.09v1.82a5 5 0 0 0-.55-.12 4 4 0 0 0-.61 0c-.309 0-.615.061-.9.18a2 2 0 0 0-.75.59 3.2 3.2 0 0 0-.51 1.06 6 6 0 0 0-.19 1.58v4.95z"/><path fill="#000" d="M160.11 20.14c-.19.54-.37 1-.56 1.47a4.8 4.8 0 0 1-.64 1.12 3 3 0 0 1-.85.72 2.5 2.5 0 0 1-1.17.25q-.27.024-.54 0c-.16 0-.37-.07-.64-.13v-1.52q.467.123.95.13c.193.005.385-.036.56-.12.171-.09.316-.225.42-.39q.21-.318.36-.67c.12-.27.25-.6.39-1h-.59l-3.62-9.86h2l2.79 8.38 2.79-8.38h1.82zM175.44 18.66c1.015.016 2-.34 2.77-1 .351-.307.636-.68.84-1.1a3.35 3.35 0 0 0 .35-1.37h2a5 5 0 0 1-.51 1.92 5.2 5.2 0 0 1-1.22 1.62 5.9 5.9 0 0 1-1.85 1.13 6.3 6.3 0 0 1-2.38.43 6.7 6.7 0 0 1-2.58-.48 5.26 5.26 0 0 1-2-1.37 6.2 6.2 0 0 1-1.26-2.23 9.4 9.4 0 0 1-.45-3 9 9 0 0 1 .48-3 6.2 6.2 0 0 1 1.32-2.23 5.6 5.6 0 0 1 2-1.36 7 7 0 0 1 2.58-.47 6.6 6.6 0 0 1 2.27.38 5.7 5.7 0 0 1 1.79 1c.497.41.908.912 1.21 1.48.289.557.466 1.165.52 1.79h-2a3.3 3.3 0 0 0-1.21-2.23 4 4 0 0 0-2.56-.91 4.6 4.6 0 0 0-1.8.35 3.6 3.6 0 0 0-1.4 1 4.8 4.8 0 0 0-.91 1.72 8 8 0 0 0-.33 2.41c-.01.798.097 1.594.32 2.36.178.622.477 1.203.88 1.71.365.459.835.823 1.37 1.06a4.2 4.2 0 0 0 1.76.39M182.31 15.07a6.5 6.5 0 0 1 .38-2.31c.23-.614.591-1.17 1.06-1.63.434-.441.96-.783 1.54-1a5.6 5.6 0 0 1 1.89-.31 5.7 5.7 0 0 1 1.9.31 4.1 4.1 0 0 1 1.54 1 4.6 4.6 0 0 1 1 1.63c.266.74.395 1.523.38 2.31a6.6 6.6 0 0 1-.37 2.27 4.6 4.6 0 0 1-1 1.63 4.2 4.2 0 0 1-1.54 1 5.6 5.6 0 0 1-1.94.33 5.4 5.4 0 0 1-1.91-.33 4.2 4.2 0 0 1-1.55-1 4.5 4.5 0 0 1-1-1.63 6.3 6.3 0 0 1-.38-2.27m1.89 0a5.2 5.2 0 0 0 .23 1.61c.13.431.344.832.63 1.18.252.308.574.552.94.71a3 3 0 0 0 1.2.24 2.67 2.67 0 0 0 2.12-.95c.602-.8.894-1.791.82-2.79a5.4 5.4 0 0 0-.23-1.63 3.6 3.6 0 0 0-.62-1.18 2.56 2.56 0 0 0-.94-.7 3 3 0 0 0-1.17-.23 2.9 2.9 0 0 0-1.18.24 2.6 2.6 0 0 0-.94.71 3.4 3.4 0 0 0-.63 1.17 5.2 5.2 0 0 0-.23 1.62M193.55 20v-9.86h1.5l.21 1.25a3.66 3.66 0 0 1 3-1.53 3.44 3.44 0 0 1 2.55.94 3.81 3.81 0 0 1 .94 2.77V20h-1.82v-6.41a2.24 2.24 0 0 0-.54-1.65 2.18 2.18 0 0 0-1.57-.53 2.7 2.7 0 0 0-.94.17 2.4 2.4 0 0 0-.78.5 2.4 2.4 0 0 0-.53.78c-.136.333-.204.69-.2 1.05V20zM203.74 20v-9.86h1.5l.21 1.25c.34-.483.793-.875 1.32-1.14a3.7 3.7 0 0 1 1.67-.39 3.4 3.4 0 0 1 2.55.94 3.77 3.77 0 0 1 .94 2.77V20h-1.82v-6.41a2.26 2.26 0 0 0-.54-1.65 2.14 2.14 0 0 0-1.56-.53 2.7 2.7 0 0 0-.94.17 2.33 2.33 0 0 0-1.31 1.28c-.136.333-.204.69-.2 1.05V20zM222.61 17.16a4.1 4.1 0 0 1-.57 1.25 3.8 3.8 0 0 1-.94 1 4.6 4.6 0 0 1-1.29.65 5.1 5.1 0 0 1-1.62.24 5.7 5.7 0 0 1-1.94-.32 4.2 4.2 0 0 1-1.53-1 4.5 4.5 0 0 1-1-1.63 6.6 6.6 0 0 1-.36-2.29 6.5 6.5 0 0 1 .36-2.26 4.6 4.6 0 0 1 1-1.64 4.1 4.1 0 0 1 1.5-1 5.3 5.3 0 0 1 1.9-.33 5.4 5.4 0 0 1 1.88.31c.56.211 1.061.554 1.46 1 .432.511.752 1.108.94 1.75.249.83.367 1.694.35 2.56h-7.52a3.62 3.62 0 0 0 1 2.49 2.92 2.92 0 0 0 2.08.79 2.57 2.57 0 0 0 1.54-.45c.402-.275.701-.676.85-1.14zm-4.47-5.84a2.72 2.72 0 0 0-1.87.67 3.23 3.23 0 0 0-1 2h5.58a2.9 2.9 0 0 0-.85-2 2.75 2.75 0 0 0-1.86-.67M232.76 16.83c-.057.476-.21.935-.45 1.35-.229.42-.534.793-.9 1.1-.385.33-.83.58-1.31.74a4.9 4.9 0 0 1-1.67.27 5.1 5.1 0 0 1-1.84-.33 4 4 0 0 1-1.47-1 4.7 4.7 0 0 1-1-1.61 6.3 6.3 0 0 1-.36-2.21 7 7 0 0 1 .33-2.22 4.6 4.6 0 0 1 1-1.67 4 4 0 0 1 1.47-1 4.8 4.8 0 0 1 1.9-.36 4.76 4.76 0 0 1 2.85.84 3.45 3.45 0 0 1 1.41 2.36h-2a2 2 0 0 0-.77-1.24 2.33 2.33 0 0 0-1.45-.43 2.47 2.47 0 0 0-2 .92 4.48 4.48 0 0 0-.77 2.89 5.2 5.2 0 0 0 .22 1.58c.124.4.325.774.59 1.1.237.284.539.506.88.65.34.149.708.223 1.08.22a2.36 2.36 0 0 0 1.5-.52c.43-.36.706-.872.77-1.43zM238.68 20.1c-.44.12-.894.183-1.35.19a2.49 2.49 0 0 1-2-.75 2.84 2.84 0 0 1-.67-2v-5.88h-1.46v-1.52h1.46l.12-2.37h1.7v2.37h2.13v1.52h-2.13v5.89c0 .74.35 1.1 1.05 1.1h.47q.329-.047.65-.13zM239.15 15.07a6.2 6.2 0 0 1 .39-2.31 4.6 4.6 0 0 1 1.05-1.63 4.3 4.3 0 0 1 1.55-1 5.92 5.92 0 0 1 3.78 0 4.14 4.14 0 0 1 1.55 1c.448.464.79 1.02 1 1.63.271.74.4 1.523.38 2.31a6.3 6.3 0 0 1-.37 2.27 4.6 4.6 0 0 1-1 1.63 4.2 4.2 0 0 1-1.55 1 5.78 5.78 0 0 1-3.85 0 4.2 4.2 0 0 1-1.54-1 4.7 4.7 0 0 1-1-1.63 6.3 6.3 0 0 1-.39-2.27m1.9 0c-.013.546.065 1.09.23 1.61.131.429.341.83.62 1.18.256.309.581.552.95.71.376.16.781.242 1.19.24a2.67 2.67 0 0 0 2.13-.95 4.18 4.18 0 0 0 .81-2.79 5.4 5.4 0 0 0-.22-1.63 3.4 3.4 0 0 0-.63-1.18 2.5 2.5 0 0 0-.94-.7 3 3 0 0 0-1.16-.23 2.9 2.9 0 0 0-1.18.24 2.64 2.64 0 0 0-.95.71 3.6 3.6 0 0 0-.62 1.17 5 5 0 0 0-.23 1.62M250.4 20v-9.86h1.5l.24 1.46a2.69 2.69 0 0 1 2.51-1.74 4 4 0 0 1 .63 0l.45.09v1.82q-.27-.075-.55-.12a4 4 0 0 0-.61 0c-.309 0-.615.061-.9.18a2 2 0 0 0-.75.59 3.2 3.2 0 0 0-.51 1.06 5.6 5.6 0 0 0-.19 1.58v4.95z"/></svg>