<svg xmlns="http://www.w3.org/2000/svg" width="378" height="24" fill="none" viewBox="0 0 378 24"><path fill="#fff" d="M19.948 6.22h3.137l-4.562 13.789h-3.599l-3.41-10.406L8.105 20.01H4.562L0 6.219h3.211L6.448 16.7l3.396-10.48h3.41l3.452 10.536zM36.542 14.221H26.365a4.4 4.4 0 0 0 .777 1.973c.369.51.868.913 1.446 1.165a4.6 4.6 0 0 0 1.864.375 6 6 0 0 0 2.08-.38 6.8 6.8 0 0 0 1.908-1.074l1.498 2.158a7.6 7.6 0 0 1-2.616 1.489c-.988.31-2.02.463-3.055.453a7.3 7.3 0 0 1-3.656-.898 6.37 6.37 0 0 1-2.499-2.546 7.8 7.8 0 0 1-.897-3.807 8 8 0 0 1 .863-3.78 6.36 6.36 0 0 1 2.425-2.56 6.9 6.9 0 0 1 3.57-.915 6.14 6.14 0 0 1 5.692 3.453 8.26 8.26 0 0 1 .829 3.772q.006.436-.052 1.122m-3.021-2.287a4.26 4.26 0 0 0-1.153-2.52 3.2 3.2 0 0 0-2.347-.864 3.38 3.38 0 0 0-2.469.915 4.38 4.38 0 0 0-1.187 2.482zM49.416 6.798a6.7 6.7 0 0 1 2.49 2.59 7.6 7.6 0 0 1 .915 3.728 7.57 7.57 0 0 1-.915 3.725 6.7 6.7 0 0 1-5.981 3.526 5.6 5.6 0 0 1-2.49-.523 5.1 5.1 0 0 1-1.826-1.476v1.64h-3.021V.35h3.02v7.51a5.2 5.2 0 0 1 1.827-1.468 5.6 5.6 0 0 1 2.49-.526 6.7 6.7 0 0 1 3.491.932m-1.648 10.146a3.9 3.9 0 0 0 1.454-1.6 5.18 5.18 0 0 0 0-4.46 3.9 3.9 0 0 0-1.454-1.6 4.4 4.4 0 0 0-4.368 0c-.627.38-1.136.93-1.467 1.584a4.8 4.8 0 0 0-.527 2.261c-.014.785.167 1.56.527 2.257.331.655.84 1.203 1.467 1.584a4.4 4.4 0 0 0 4.368 0zM67.727 14.221H57.555a4.4 4.4 0 0 0 .777 1.973c.368.51.868.913 1.446 1.165a4.6 4.6 0 0 0 1.864.375 6 6 0 0 0 2.08-.38 6.8 6.8 0 0 0 1.908-1.074l1.493 2.158a7.5 7.5 0 0 1-2.611 1.489c-.99.31-2.023.463-3.06.453a7.34 7.34 0 0 1-3.655-.898 6.4 6.4 0 0 1-2.495-2.546 7.8 7.8 0 0 1-.902-3.807 8 8 0 0 1 .863-3.78 6.36 6.36 0 0 1 2.426-2.56 6.9 6.9 0 0 1 3.595-.927 6.15 6.15 0 0 1 5.692 3.452 8.3 8.3 0 0 1 .829 3.772c-.017.302-.048.678-.078 1.135m-3.02-2.287A4.3 4.3 0 0 0 63.55 9.43a3.22 3.22 0 0 0-2.34-.88 3.37 3.37 0 0 0-2.468.914 4.36 4.36 0 0 0-1.187 2.482zM82.077 20.009H78.38l-3.496-4.795-3.453 4.795h-3.526l5.18-7.04-5.098-6.75h3.703l3.367 4.606 3.366-4.605H82l-5.119 6.724zM90 6.2h1.96v13.808H90zM96.095 20.008h-1.834v-9.972h1.517l.209 1.267q1.113-1.55 3.026-1.55 1.764.002 2.702 1.092c.55.65.826 1.542.826 2.668v6.504h-1.843V13.53c0-1.468-.709-2.21-2.126-2.21q-1.116.002-1.818.767c-.434.459-.659 1.05-.659 1.768zM109.102 18.532v1.576a5.3 5.3 0 0 1-1.359.192c-.917 0-1.609-.292-2.068-.867-.4-.476-.592-1.11-.592-1.901v-5.92h-1.476v-1.576h1.476l.117-2.402h1.726v2.402h2.151v1.576h-2.151v5.961q0 1.111 1.051 1.11.487 0 1.125-.15M117.041 17.132h1.993c-.284 1.009-.834 1.8-1.668 2.376q-1.176.786-2.802.784-2.36-.002-3.685-1.493c-.809-.933-1.209-2.193-1.209-3.777q-.002-2.7 1.534-4.102c.842-.784 1.935-1.168 3.26-1.168 1.56 0 2.735.51 3.527 1.518q1.151 1.462 1.151 4.16h-7.596q.113 1.764 1.076 2.627c.525.459 1.192.692 1.992.692a2.7 2.7 0 0 0 1.635-.517c.392-.3.65-.667.792-1.1m-2.535-5.904c-.817 0-1.476.259-1.976.767q-.713.713-.901 1.977h5.637q-.099-1.439-.959-2.152c-.459-.4-1.059-.592-1.801-.592M122.72 20.008h-1.843v-9.972h1.517l.251 1.476c.558-1.176 1.409-1.768 2.534-1.768q.553-.002 1.093.134v1.842a4.6 4.6 0 0 0-1.168-.175q-1.125.01-1.751.909c-.425.6-.633 1.45-.633 2.551zM128.798 12.813h-1.959c.1-1.001.575-1.768 1.417-2.318.751-.5 1.71-.75 2.86-.75q2.054 0 3.144 1.075c.617.617.917 1.409.917 2.376v6.812h-1.518l-.233-1.359q-1.174 1.65-3.335 1.651c-1.143 0-2.027-.308-2.669-.917-.525-.509-.783-1.159-.783-1.934 0-.984.342-1.743 1.017-2.285.6-.475 1.517-.817 2.76-1.034l2.918-.5v-.509c0-.65-.225-1.142-.667-1.476-.392-.292-.934-.442-1.626-.442-1.359 0-2.101.542-2.243 1.61m1.743 5.928c.784 0 1.459-.258 2.034-.767.509-.475.768-1.017.768-1.634v-1.284l-2.477.442c-.909.15-1.526.391-1.859.708-.267.259-.401.6-.401 1.034 0 .484.167.859.501 1.11.333.25.809.391 1.434.391M143.79 16.806h2.009c-.15 1.076-.659 1.935-1.517 2.593q-1.174.9-2.86.9c-1.468 0-2.644-.508-3.511-1.517-.809-.934-1.209-2.16-1.209-3.685q-.002-2.652 1.459-4.103c.834-.833 1.91-1.25 3.244-1.25q1.838 0 3.027.975c.7.576 1.134 1.326 1.284 2.26h-2.018c-.125-.525-.384-.942-.776-1.234-.391-.3-.883-.442-1.467-.442-.909 0-1.601.358-2.093 1.076q-.69 1-.692 2.776c0 1.243.308 2.176.917 2.818.484.509 1.109.768 1.876.768.667 0 1.209-.192 1.635-.576q.564-.498.692-1.359M151.886 18.532v1.576a5.3 5.3 0 0 1-1.359.192c-.917 0-1.609-.292-2.068-.867-.4-.476-.592-1.11-.592-1.901v-5.92h-1.475v-1.576h1.475l.117-2.402h1.726v2.402h2.151v1.576h-2.159v5.961q0 1.111 1.05 1.11c.334 0 .709-.05 1.134-.15"/></svg>