<svg xmlns="http://www.w3.org/2000/svg" width="378" height="24" fill="none" viewBox="0 0 378 24"><path fill="#000" d="M19.948 6.22h3.137l-4.562 13.789h-3.599l-3.41-10.406L8.105 20.01H4.562L0 6.219h3.211L6.448 16.7l3.396-10.48h3.41l3.452 10.536zM36.542 14.221H26.365a4.4 4.4 0 0 0 .777 1.973c.369.51.868.913 1.446 1.165a4.6 4.6 0 0 0 1.864.375 6 6 0 0 0 2.08-.38 6.8 6.8 0 0 0 1.908-1.074l1.498 2.158a7.6 7.6 0 0 1-2.616 1.489c-.988.31-2.02.463-3.055.453a7.3 7.3 0 0 1-3.656-.898 6.37 6.37 0 0 1-2.499-2.546 7.8 7.8 0 0 1-.897-3.807 8 8 0 0 1 .863-3.78 6.36 6.36 0 0 1 2.425-2.56 6.9 6.9 0 0 1 3.57-.915 6.14 6.14 0 0 1 5.692 3.453 8.26 8.26 0 0 1 .829 3.772q.006.436-.052 1.122m-3.021-2.287a4.26 4.26 0 0 0-1.153-2.52 3.2 3.2 0 0 0-2.347-.864 3.38 3.38 0 0 0-2.469.915 4.38 4.38 0 0 0-1.187 2.482zM49.416 6.798a6.7 6.7 0 0 1 2.49 2.59 7.6 7.6 0 0 1 .915 3.728 7.57 7.57 0 0 1-.915 3.725 6.7 6.7 0 0 1-5.981 3.526 5.6 5.6 0 0 1-2.49-.523 5.1 5.1 0 0 1-1.826-1.476v1.64h-3.021V.35h3.02v7.51a5.2 5.2 0 0 1 1.827-1.468 5.6 5.6 0 0 1 2.49-.526 6.7 6.7 0 0 1 3.491.932m-1.648 10.146a3.9 3.9 0 0 0 1.454-1.6 5.18 5.18 0 0 0 0-4.46 3.9 3.9 0 0 0-1.454-1.6 4.4 4.4 0 0 0-4.368 0c-.627.38-1.136.93-1.467 1.584a4.8 4.8 0 0 0-.527 2.261c-.014.785.167 1.56.527 2.257.331.655.84 1.203 1.467 1.584a4.4 4.4 0 0 0 4.368 0zM67.727 14.221H57.555a4.4 4.4 0 0 0 .777 1.973c.368.51.868.913 1.446 1.165a4.6 4.6 0 0 0 1.864.375 6 6 0 0 0 2.08-.38 6.8 6.8 0 0 0 1.908-1.074l1.493 2.158a7.5 7.5 0 0 1-2.611 1.489c-.99.31-2.023.463-3.06.453a7.34 7.34 0 0 1-3.655-.898 6.4 6.4 0 0 1-2.495-2.546 7.8 7.8 0 0 1-.902-3.807 8 8 0 0 1 .863-3.78 6.36 6.36 0 0 1 2.426-2.56 6.9 6.9 0 0 1 3.595-.927 6.15 6.15 0 0 1 5.692 3.452 8.3 8.3 0 0 1 .829 3.772c-.017.302-.048.678-.078 1.135m-3.02-2.287A4.3 4.3 0 0 0 63.55 9.43a3.22 3.22 0 0 0-2.34-.88 3.37 3.37 0 0 0-2.468.914 4.36 4.36 0 0 0-1.187 2.482zM82.077 20.009H78.38l-3.496-4.795-3.453 4.795h-3.526l5.18-7.04-5.098-6.75h3.703l3.367 4.606 3.366-4.605H82l-5.119 6.724zM100.357 15.158h1.973c-.15 2.68-2.506 5.153-6.011 5.153-3.846 0-6.319-2.589-6.319-7.184 0-4.646 2.68-7.177 6.469-7.177 3.313 0 5.644 2.181 5.836 4.712h-1.973c-.25-1.873-1.74-3.08-3.871-3.08-2.64 0-4.48 1.815-4.48 5.553 0 3.563 1.782 5.536 4.363 5.536 2.256-.008 3.896-1.523 4.013-3.513M103.579 12.844c.191-1.84 1.781-3.064 4.271-3.064 2.605 0 4.054 1.399 4.054 3.447v6.793h-1.515l-.233-1.357c-.65.916-1.724 1.649-3.33 1.649-2.182 0-3.447-1.224-3.447-2.856 0-1.815 1.091-2.855 3.771-3.313l2.914-.5v-.5c0-1.223-.824-1.914-2.298-1.914-1.415 0-2.106.616-2.239 1.607h-1.948zm6.485 3.522v-1.282l-2.472.44c-1.782.309-2.257.858-2.257 1.74 0 .958.691 1.491 1.932 1.491 1.399 0 2.797-1.032 2.797-2.39M114.026 20.029v-9.957h1.516l.191 1.165c.724-1.049 1.815-1.457 2.931-1.457 1.323 0 2.372.533 2.93 1.574.766-1.207 2.031-1.574 3.239-1.574 2.031 0 3.371 1.207 3.371 3.58v6.66h-1.839v-6.518c0-1.516-.65-2.148-1.932-2.148-1.474 0-2.389 1.24-2.389 2.606v6.069h-1.84v-6.527c0-1.532-.666-2.148-1.932-2.148-1.34 0-2.389 1.132-2.389 2.547v6.128zM131.803 10.063l.283 1.3c.708-.917 1.84-1.583 3.372-1.583 2.623 0 4.388 1.874 4.388 5.187 0 3.447-1.899 5.345-4.521 5.345-1.515 0-2.564-.65-3.197-1.574v4.73h-1.84V10.062zm3.231 1.282c-1.649 0-3.006 1.208-3.006 3.58 0 2.415 1.207 3.813 3.006 3.813 1.723 0 2.888-1.19 2.888-3.813.009-2.447-1.24-3.58-2.888-3.58M141.085 12.844c.191-1.84 1.781-3.064 4.27-3.064 2.606 0 4.055 1.399 4.055 3.447v6.793h-1.515l-.233-1.357c-.65.916-1.724 1.649-3.331 1.649-2.181 0-3.446-1.224-3.446-2.856 0-1.815 1.09-2.855 3.771-3.313l2.914-.5v-.5c0-1.223-.824-1.914-2.298-1.914-1.415 0-2.106.616-2.239 1.607h-1.948zm6.493 3.522v-1.282l-2.472.44c-1.782.309-2.256.858-2.256 1.74 0 .958.691 1.491 1.931 1.491 1.399 0 2.797-1.032 2.797-2.39M151.407 8.397V6.232h2.065v2.165zm.117 11.622v-9.957h1.84v9.957zM157.418 20.695c.175.999 1.016 1.607 2.473 1.607 1.856 0 2.814-.941 2.814-2.581v-1.282c-.666.782-1.782 1.298-3.314 1.298-2.331 0-4.404-1.74-4.404-4.92 0-3.122 1.815-5.037 4.521-5.037 1.548 0 2.606.666 3.239 1.607l.283-1.324h1.515v9.741c0 2.256-1.649 3.946-4.596 3.946-2.664 0-4.171-1.207-4.495-3.064h1.964zm2.373-2.531c1.898 0 3.005-1.24 3.005-3.255 0-2.34-1.223-3.564-3.005-3.564-1.682 0-2.889 1.133-2.889 3.505 0 2.107 1.299 3.314 2.889 3.314M166.742 20.02v-9.957h1.515l.209 1.266a3.66 3.66 0 0 1 3.022-1.549c2.164 0 3.521 1.324 3.521 3.755v6.494h-1.84v-6.477c0-1.49-.766-2.198-2.123-2.198-1.323 0-2.472.957-2.472 2.53v6.145h-1.832z"/></svg>