<svg xmlns="http://www.w3.org/2000/svg" width="507" height="175" fill="none" viewBox="0 0 507 175"><path fill="#000" d="M230.685 122.044h-9.248l-2.025-6.455q-5.875 7.899-16.087 7.899-10.69 0-16.857-7.706-5.586-7.032-5.586-18.398 0-13.679 7.224-20.903 5.973-5.972 15.508-5.972 9.922 0 15.509 7.127V52.689h11.56zm-37.953-24.565q0 8.86 4.238 13.197 3.47 3.66 9.055 3.66 6.838 0 10.404-5.009 3.178-4.43 3.178-11.944 0-9.44-4.431-14.064-3.468-3.66-9.151-3.66-6.646 0-10.114 5.009-3.179 4.53-3.179 12.812zm79.483 10.114h12.136q-2.024 7.707-8.381 11.945-6.07 3.95-14.93 3.949-12.235 0-19.074-7.706-6.256-7.03-6.256-18.783 0-13.484 7.802-20.614 6.552-5.875 17.05-5.875 12.234 0 18.495 7.995 5.876 7.416 5.876 21.191h-37.474q.674 8.09 5.009 11.848 3.468 3.084 9.055 3.083 3.948 0 6.839-1.926 2.89-1.927 3.853-5.106zm.867-15.797q-.386-7.032-4.239-10.307-3.178-2.794-8.284-2.794-5.586 0-8.958 3.66-3.082 3.275-3.949 9.44zm26.191 15.99q1.349 7.224 10.884 7.224 5.298 0 7.996-2.023 2.214-1.734 2.215-4.527 0-3.564-3.853-5.298-2.216-.963-9.729-2.697-9.249-2.118-13.197-5.78-3.95-3.564-3.949-9.343 0-7.32 5.971-11.27 5.299-3.564 14.546-3.564 9.537 0 15.315 4.527 5.01 3.854 6.262 10.404h-11.751q-1.446-6.454-10.019-6.454-8.669 0-8.669 5.297 0 2.697 2.216 4.046 2.216 1.348 8.957 2.986 10.404 2.408 14.45 5.394 5.104 3.756 5.105 10.596 0 7.803-6.358 12.233-5.779 3.95-15.605 3.949-10.306 0-16.474-4.912-5.202-4.142-6.069-10.787zm50.888-43.443h-12.716V52.688h12.716zm-.579 57.701h-11.556v-50.09h11.559zm7.808 3.274h12.135q1.83 6.936 11.463 6.936 12.428 0 12.428-11.849v-5.587q-5.683 5.78-15.412 5.779-10.211 0-16.568-7.224-5.876-6.743-5.876-17.436 0-12.618 7.224-19.554 6.07-5.875 15.605-5.876 10.018 0 15.606 7.321l1.829-5.875h9.151v48.355q0 9.921-7.128 15.509-6.359 5.009-16.76 5.009-11.175 0-17.435-4.72-5.104-3.948-6.26-10.788zm10.018-29.283q0 7.803 4.334 12.041 3.565 3.37 8.959 3.371 6.935 0 10.499-4.527 3.082-3.949 3.082-10.787 0-8.574-4.238-12.908-3.467-3.564-9.343-3.564-6.455 0-10.018 4.623-3.273 4.238-3.272 11.751zm56.181 26.009h-11.557v-50.09h9.537l1.251 5.972q5.493-7.417 15.22-7.417 9.055 0 13.872 5.587 4.238 4.912 4.238 13.389v32.559h-11.559v-32.27q0-10.308-9.537-10.307-5.202 0-8.477 3.66-2.986 3.374-2.985 8.474z"/><path fill="url(#a)" d="M81.358 127.002c-19.448 0-26.01-24.459-27.56-29.231-3.7-12.051-4.773-22.909-4.892-23.982-.716-6.562 4.533-11.096 10.38-11.096 4.414 0 9.425 2.624 10.141 8.948.12 1.074.955 10.26 4.176 20.283 3.221 10.5 6.8 14.437 9.306 14.437 4.057 0 6.563-10.38 8.71-20.283 1.551-7.278 3.34-14.556 6.8-21.118C104.148 53.625 113.096 51 120.97 51c17.061 0 25.652 19.806 25.652 24.936 0 8.59-7.04 10.738-10.022 10.738-6.682 0-8.829-4.414-10.738-8.351-1.671-3.46-3.46-6.443-5.727-6.443q-1.074 0-2.148 1.074c-5.727 5.846-7.636 36.151-18.97 47.725-6.443 6.323-13.364 6.323-17.659 6.323"/><path fill="url(#b)" d="M81.358 127.002c-19.448 0-26.01-24.459-27.56-29.231-3.7-12.051-4.773-22.909-4.892-23.982-.716-6.562 4.533-11.096 10.38-11.096 4.414 0 9.425 2.624 10.141 8.948.12 1.074.955 10.26 4.176 20.283 3.221 10.5 6.8 14.437 9.306 14.437 4.057 0 6.563-10.38 8.71-20.283 1.551-7.278 3.34-14.556 6.8-21.118C104.148 53.625 113.096 51 120.97 51c17.061 0 25.652 19.806 25.652 24.936 0 8.59-7.04 10.738-10.022 10.738-6.682 0-8.829-4.414-10.738-8.351-1.671-3.46-3.46-6.443-5.727-6.443q-1.074 0-2.148 1.074c-5.727 5.846-7.636 36.151-18.97 47.725-6.443 6.323-13.364 6.323-17.659 6.323"/><path fill="url(#c)" d="M81.358 127.002c-19.448 0-26.01-24.459-27.56-29.231-3.7-12.051-4.773-22.909-4.892-23.982-.716-6.562 4.533-11.096 10.38-11.096 4.414 0 9.425 2.624 10.141 8.948.12 1.074.955 10.26 4.176 20.283 3.221 10.5 6.8 14.437 9.306 14.437 4.057 0 6.563-10.38 8.71-20.283 1.551-7.278 3.34-14.556 6.8-21.118C104.148 53.625 113.096 51 120.97 51c17.061 0 25.652 19.806 25.652 24.936 0 8.59-7.04 10.738-10.022 10.738-6.682 0-8.829-4.414-10.738-8.351-1.671-3.46-3.46-6.443-5.727-6.443q-1.074 0-2.148 1.074c-5.727 5.846-7.636 36.151-18.97 47.725-6.443 6.323-13.364 6.323-17.659 6.323"/><path fill="url(#d)" d="M81.358 127.002c-19.448 0-26.01-24.459-27.56-29.231-3.7-12.051-4.773-22.909-4.892-23.982-.716-6.562 4.533-11.096 10.38-11.096 4.414 0 9.425 2.624 10.141 8.948.12 1.074.955 10.26 4.176 20.283 3.221 10.5 6.8 14.437 9.306 14.437 4.057 0 6.563-10.38 8.71-20.283 1.551-7.278 3.34-14.556 6.8-21.118C104.148 53.625 113.096 51 120.97 51c17.061 0 25.652 19.806 25.652 24.936 0 8.59-7.04 10.738-10.022 10.738-6.682 0-8.829-4.414-10.738-8.351-1.671-3.46-3.46-6.443-5.727-6.443q-1.074 0-2.148 1.074c-5.727 5.846-7.636 36.151-18.97 47.725-6.443 6.323-13.364 6.323-17.659 6.323"/><path fill="url(#e)" d="M81.358 127.002c-19.448 0-26.01-24.459-27.56-29.231-3.7-12.051-4.773-22.909-4.892-23.982-.716-6.562 4.533-11.096 10.38-11.096 4.414 0 9.425 2.624 10.141 8.948.12 1.074.955 10.26 4.176 20.283 3.221 10.5 6.8 14.437 9.306 14.437 4.057 0 6.563-10.38 8.71-20.283 1.551-7.278 3.34-14.556 6.8-21.118C104.148 53.625 113.096 51 120.97 51c17.061 0 25.652 19.806 25.652 24.936 0 8.59-7.04 10.738-10.022 10.738-6.682 0-8.829-4.414-10.738-8.351-1.671-3.46-3.46-6.443-5.727-6.443q-1.074 0-2.148 1.074c-5.727 5.846-7.636 36.151-18.97 47.725-6.443 6.323-13.364 6.323-17.659 6.323"/><path fill="url(#f)" d="M81.358 127.002c-19.448 0-26.01-24.459-27.56-29.231-3.7-12.051-4.773-22.909-4.892-23.982-.716-6.562 4.533-11.096 10.38-11.096 4.414 0 9.425 2.624 10.141 8.948.12 1.074.955 10.26 4.176 20.283 3.221 10.5 6.8 14.437 9.306 14.437 4.057 0 6.563-10.38 8.71-20.283 1.551-7.278 3.34-14.556 6.8-21.118C104.148 53.625 113.096 51 120.97 51c17.061 0 25.652 19.806 25.652 24.936 0 8.59-7.04 10.738-10.022 10.738-6.682 0-8.829-4.414-10.738-8.351-1.671-3.46-3.46-6.443-5.727-6.443q-1.074 0-2.148 1.074c-5.727 5.846-7.636 36.151-18.97 47.725-6.443 6.323-13.364 6.323-17.659 6.323"/><path fill="url(#g)" d="M81.358 127.002c-19.448 0-26.01-24.459-27.56-29.231-3.7-12.051-4.773-22.909-4.892-23.982-.716-6.562 4.533-11.096 10.38-11.096 4.414 0 9.425 2.624 10.141 8.948.12 1.074.955 10.26 4.176 20.283 3.221 10.5 6.8 14.437 9.306 14.437 4.057 0 6.563-10.38 8.71-20.283 1.551-7.278 3.34-14.556 6.8-21.118C104.148 53.625 113.096 51 120.97 51c17.061 0 25.652 19.806 25.652 24.936 0 8.59-7.04 10.738-10.022 10.738-6.682 0-8.829-4.414-10.738-8.351-1.671-3.46-3.46-6.443-5.727-6.443q-1.074 0-2.148 1.074c-5.727 5.846-7.636 36.151-18.97 47.725-6.443 6.323-13.364 6.323-17.659 6.323"/><path fill="url(#h)" d="M81.358 127.002c-19.448 0-26.01-24.459-27.56-29.231-3.7-12.051-4.773-22.909-4.892-23.982-.716-6.562 4.533-11.096 10.38-11.096 4.414 0 9.425 2.624 10.141 8.948.12 1.074.955 10.26 4.176 20.283 3.221 10.5 6.8 14.437 9.306 14.437 4.057 0 6.563-10.38 8.71-20.283 1.551-7.278 3.34-14.556 6.8-21.118C104.148 53.625 113.096 51 120.97 51c17.061 0 25.652 19.806 25.652 24.936 0 8.59-7.04 10.738-10.022 10.738-6.682 0-8.829-4.414-10.738-8.351-1.671-3.46-3.46-6.443-5.727-6.443q-1.074 0-2.148 1.074c-5.727 5.846-7.636 36.151-18.97 47.725-6.443 6.323-13.364 6.323-17.659 6.323"/><path fill="url(#i)" d="M81.358 127.002c-19.448 0-26.01-24.459-27.56-29.231-3.7-12.051-4.773-22.909-4.892-23.982-.716-6.562 4.533-11.096 10.38-11.096 4.414 0 9.425 2.624 10.141 8.948.12 1.074.955 10.26 4.176 20.283 3.221 10.5 6.8 14.437 9.306 14.437 4.057 0 6.563-10.38 8.71-20.283 1.551-7.278 3.34-14.556 6.8-21.118C104.148 53.625 113.096 51 120.97 51c17.061 0 25.652 19.806 25.652 24.936 0 8.59-7.04 10.738-10.022 10.738-6.682 0-8.829-4.414-10.738-8.351-1.671-3.46-3.46-6.443-5.727-6.443q-1.074 0-2.148 1.074c-5.727 5.846-7.636 36.151-18.97 47.725-6.443 6.323-13.364 6.323-17.659 6.323"/><path fill="url(#j)" d="M120.97 51c-7.756 0-16.823 2.625-22.789 13.96-3.46 6.562-5.13 13.84-6.8 21.118-.478 2.386-1.075 4.772-1.671 7.159v32.93c2.983-.835 6.085-2.386 9.187-5.488 11.454-11.574 13.363-41.88 18.971-47.725q.894-1.074 2.147-1.074c2.267 0 4.057 2.863 5.727 6.443 1.909 3.937 4.176 8.351 10.738 8.351 2.983 0 10.022-2.147 10.022-10.738 0-5.13-8.471-24.936-25.532-24.936"/><path fill="url(#k)" d="M81.358 127.002c-19.448 0-26.01-24.459-27.56-29.231-3.7-12.051-4.773-22.909-4.892-23.982-.716-6.562 4.533-11.096 10.38-11.096 4.414 0 9.425 2.624 10.141 8.948.12 1.074.955 10.26 4.176 20.283 3.221 10.5 6.8 14.437 9.306 14.437 4.057 0 6.563-10.38 8.71-20.283 1.551-7.278 3.34-14.556 6.8-21.118C104.148 53.625 113.096 51 120.97 51c17.061 0 25.652 19.806 25.652 24.936 0 8.59-7.04 10.738-10.022 10.738-6.682 0-8.829-4.414-10.738-8.351-1.671-3.46-3.46-6.443-5.727-6.443q-1.074 0-2.148 1.074c-5.727 5.846-7.636 36.151-18.97 47.725-6.443 6.323-13.364 6.323-17.659 6.323"/><path fill="url(#l)" d="M81.358 127.002c-19.448 0-26.01-24.459-27.56-29.231-3.7-12.051-4.773-22.909-4.892-23.982-.716-6.562 4.533-11.096 10.38-11.096 4.414 0 9.425 2.624 10.141 8.948.12 1.074.955 10.26 4.176 20.283 3.221 10.5 6.8 14.437 9.306 14.437 4.057 0 6.563-10.38 8.71-20.283 1.551-7.278 3.34-14.556 6.8-21.118C104.148 53.625 113.096 51 120.97 51c17.061 0 25.652 19.806 25.652 24.936 0 8.59-7.04 10.738-10.022 10.738-6.682 0-8.829-4.414-10.738-8.351-1.671-3.46-3.46-6.443-5.727-6.443q-1.074 0-2.148 1.074c-5.727 5.846-7.636 36.151-18.97 47.725-6.443 6.323-13.364 6.323-17.659 6.323"/><path fill="url(#m)" d="M81.358 127.002c-19.448 0-26.01-24.459-27.56-29.231-3.7-12.051-4.773-22.909-4.892-23.982-.716-6.562 4.533-11.096 10.38-11.096 4.414 0 9.425 2.624 10.141 8.948.12 1.074.955 10.26 4.176 20.283 3.221 10.5 6.8 14.437 9.306 14.437 4.057 0 6.563-10.38 8.71-20.283 1.551-7.278 3.34-14.556 6.8-21.118C104.148 53.625 113.096 51 120.97 51c17.061 0 25.652 19.806 25.652 24.936 0 8.59-7.04 10.738-10.022 10.738-6.682 0-8.829-4.414-10.738-8.351-1.671-3.46-3.46-6.443-5.727-6.443q-1.074 0-2.148 1.074c-5.727 5.846-7.636 36.151-18.97 47.725-6.443 6.323-13.364 6.323-17.659 6.323"/><path fill="url(#n)" d="M81.358 127.002c-19.448 0-26.01-24.459-27.56-29.231-3.7-12.051-4.773-22.909-4.892-23.982-.716-6.562 4.533-11.096 10.38-11.096 4.414 0 9.425 2.624 10.141 8.948.12 1.074.955 10.26 4.176 20.283 3.221 10.5 6.8 14.437 9.306 14.437 4.057 0 6.563-10.38 8.71-20.283 1.551-7.278 3.34-14.556 6.8-21.118C104.148 53.625 113.096 51 120.97 51c17.061 0 25.652 19.806 25.652 24.936 0 8.59-7.04 10.738-10.022 10.738-6.682 0-8.829-4.414-10.738-8.351-1.671-3.46-3.46-6.443-5.727-6.443q-1.074 0-2.148 1.074c-5.727 5.846-7.636 36.151-18.97 47.725-6.443 6.323-13.364 6.323-17.659 6.323"/><path fill="url(#o)" d="M81.358 127.002c-19.448 0-26.01-24.459-27.56-29.231-3.7-12.051-4.773-22.909-4.892-23.982-.716-6.562 4.533-11.096 10.38-11.096 4.414 0 9.425 2.624 10.141 8.948.12 1.074.955 10.26 4.176 20.283 3.221 10.5 6.8 14.437 9.306 14.437 4.057 0 6.563-10.38 8.71-20.283 1.551-7.278 3.34-14.556 6.8-21.118C104.148 53.625 113.096 51 120.97 51c17.061 0 25.652 19.806 25.652 24.936 0 8.59-7.04 10.738-10.022 10.738-6.682 0-8.829-4.414-10.738-8.351-1.671-3.46-3.46-6.443-5.727-6.443q-1.074 0-2.148 1.074c-5.727 5.846-7.636 36.151-18.97 47.725-6.443 6.323-13.364 6.323-17.659 6.323"/><path fill="#4A4A4A" d="M143.397 62.693c-.716 0-1.551.119-2.267.238 3.58 5.25 5.369 10.62 5.369 13.005 0 8.59-7.039 10.738-10.022 10.738-2.386 0-4.176-.596-5.608-1.431v.119c-.477 1.67-.715 3.58-1.312 5.37-1.074 3.46-2.625 7.396-4.295 10.499-1.79 3.34-3.46 5.249-5.489 5.13-2.386-.119-4.176-3.102-6.562-11.573-.716-2.745-1.431-5.727-2.147-8.71-1.671-7.278-3.58-14.676-6.92-21.118C98.655 54.34 89.23 51 81.713 51c-6.92 0-12.17 3.34-16.226 7.517-1.074 1.193-2.387 2.744-3.58 4.534 3.58.835 6.92 3.579 7.517 8.59.12.955.835 8.71 3.34 17.658.717-2.267 1.79-5.607 4.177-10.857 1.193-2.506 2.266-4.057 3.22-5.011.836-.955 1.671-1.313 2.387-1.313.835 0 3.46.716 6.085 9.784 3.102 11.096 5.488 28.993 14.556 38.538 4.057 4.176 9.664 6.92 17.42 6.92 6.8 0 12.527-2.983 16.584-7.159 6.681-6.92 10.38-18.255 11.692-22.43 3.699-11.932 4.773-22.79 4.892-23.982.716-6.562-4.892-11.096-10.38-11.096"/><path fill="url(#p)" d="M143.397 62.693c-.716 0-1.551.119-2.267.238 3.58 5.25 5.369 10.62 5.369 13.005 0 8.59-7.039 10.738-10.022 10.738-2.386 0-4.176-.596-5.608-1.431v.119c-.477 1.67-.715 3.58-1.312 5.37-1.074 3.46-2.625 7.396-4.295 10.499-1.79 3.34-3.46 5.249-5.489 5.13-2.386-.119-4.176-3.102-6.562-11.573-.716-2.745-1.431-5.727-2.147-8.71-1.671-7.278-3.58-14.676-6.92-21.118C98.655 54.34 89.23 51 81.713 51c-6.92 0-12.17 3.34-16.226 7.517-1.074 1.193-2.387 2.744-3.58 4.534 3.58.835 6.92 3.579 7.517 8.59.12.955.835 8.71 3.34 17.658.717-2.267 1.79-5.607 4.177-10.857 1.193-2.506 2.266-4.057 3.22-5.011.836-.955 1.671-1.313 2.387-1.313.835 0 3.46.716 6.085 9.784 3.102 11.096 5.488 28.993 14.556 38.538 4.057 4.176 9.664 6.92 17.42 6.92 6.8 0 12.527-2.983 16.584-7.159 6.681-6.92 10.38-18.255 11.692-22.43 3.699-11.932 4.773-22.79 4.892-23.982.716-6.562-4.892-11.096-10.38-11.096"/><path fill="url(#q)" d="M143.397 62.693c-.716 0-1.551.119-2.267.238 3.58 5.25 5.369 10.62 5.369 13.005 0 8.59-7.039 10.738-10.022 10.738-2.386 0-4.176-.596-5.608-1.431v.119c-.477 1.67-.715 3.58-1.312 5.37-1.074 3.46-2.625 7.396-4.295 10.499-1.79 3.34-3.46 5.249-5.489 5.13-2.386-.119-4.176-3.102-6.562-11.573-.716-2.745-1.431-5.727-2.147-8.71-1.671-7.278-3.58-14.676-6.92-21.118C98.655 54.34 89.23 51 81.713 51c-6.92 0-12.17 3.34-16.226 7.517-1.074 1.193-2.387 2.744-3.58 4.534 3.58.835 6.92 3.579 7.517 8.59.12.955.835 8.71 3.34 17.658.717-2.267 1.79-5.607 4.177-10.857 1.193-2.506 2.266-4.057 3.22-5.011.836-.955 1.671-1.313 2.387-1.313.835 0 3.46.716 6.085 9.784 3.102 11.096 5.488 28.993 14.556 38.538 4.057 4.176 9.664 6.92 17.42 6.92 6.8 0 12.527-2.983 16.584-7.159 6.681-6.92 10.38-18.255 11.692-22.43 3.699-11.932 4.773-22.79 4.892-23.982.716-6.562-4.892-11.096-10.38-11.096"/><path fill="url(#r)" d="M143.397 62.693c-.716 0-1.551.119-2.267.238 3.58 5.25 5.369 10.62 5.369 13.005 0 8.59-7.039 10.738-10.022 10.738-2.386 0-4.176-.596-5.608-1.431v.119c-.477 1.67-.715 3.58-1.312 5.37-1.074 3.46-2.625 7.396-4.295 10.499-1.79 3.34-3.46 5.249-5.489 5.13-2.386-.119-4.176-3.102-6.562-11.573-.716-2.745-1.431-5.727-2.147-8.71-1.671-7.278-3.58-14.676-6.92-21.118C98.655 54.34 89.23 51 81.713 51c-6.92 0-12.17 3.34-16.226 7.517-1.074 1.193-2.387 2.744-3.58 4.534 3.58.835 6.92 3.579 7.517 8.59.12.955.835 8.71 3.34 17.658.717-2.267 1.79-5.607 4.177-10.857 1.193-2.506 2.266-4.057 3.22-5.011.836-.955 1.671-1.313 2.387-1.313.835 0 3.46.716 6.085 9.784 3.102 11.096 5.488 28.993 14.556 38.538 4.057 4.176 9.664 6.92 17.42 6.92 6.8 0 12.527-2.983 16.584-7.159 6.681-6.92 10.38-18.255 11.692-22.43 3.699-11.932 4.773-22.79 4.892-23.982.716-6.562-4.892-11.096-10.38-11.096"/><path fill="url(#s)" d="M143.397 62.693c-.716 0-1.551.119-2.267.238 3.58 5.25 5.369 10.62 5.369 13.005 0 8.59-7.039 10.738-10.022 10.738-2.386 0-4.176-.596-5.608-1.431v.119c-.477 1.67-.715 3.58-1.312 5.37-1.074 3.46-2.625 7.396-4.295 10.499-1.79 3.34-3.46 5.249-5.489 5.13-2.386-.119-4.176-3.102-6.562-11.573-.716-2.745-1.431-5.727-2.147-8.71-1.671-7.278-3.58-14.676-6.92-21.118C98.655 54.34 89.23 51 81.713 51c-6.92 0-12.17 3.34-16.226 7.517-1.074 1.193-2.387 2.744-3.58 4.534 3.58.835 6.92 3.579 7.517 8.59.12.955.835 8.71 3.34 17.658.717-2.267 1.79-5.607 4.177-10.857 1.193-2.506 2.266-4.057 3.22-5.011.836-.955 1.671-1.313 2.387-1.313.835 0 3.46.716 6.085 9.784 3.102 11.096 5.488 28.993 14.556 38.538 4.057 4.176 9.664 6.92 17.42 6.92 6.8 0 12.527-2.983 16.584-7.159 6.681-6.92 10.38-18.255 11.692-22.43 3.699-11.932 4.773-22.79 4.892-23.982.716-6.562-4.892-11.096-10.38-11.096"/><path fill="url(#t)" d="M143.397 62.693c-.716 0-1.551.119-2.267.238 3.58 5.25 5.369 10.62 5.369 13.005 0 8.59-7.039 10.738-10.022 10.738-2.386 0-4.176-.596-5.608-1.431v.119c-.477 1.67-.715 3.58-1.312 5.37-1.074 3.46-2.625 7.396-4.295 10.499-1.79 3.34-3.46 5.249-5.489 5.13-2.386-.119-4.176-3.102-6.562-11.573-.716-2.745-1.431-5.727-2.147-8.71-1.671-7.278-3.58-14.676-6.92-21.118C98.655 54.34 89.23 51 81.713 51c-6.92 0-12.17 3.34-16.226 7.517-1.074 1.193-2.387 2.744-3.58 4.534 3.58.835 6.92 3.579 7.517 8.59.12.955.835 8.71 3.34 17.658.717-2.267 1.79-5.607 4.177-10.857 1.193-2.506 2.266-4.057 3.22-5.011.836-.955 1.671-1.313 2.387-1.313.835 0 3.46.716 6.085 9.784 3.102 11.096 5.488 28.993 14.556 38.538 4.057 4.176 9.664 6.92 17.42 6.92 6.8 0 12.527-2.983 16.584-7.159 6.681-6.92 10.38-18.255 11.692-22.43 3.699-11.932 4.773-22.79 4.892-23.982.716-6.562-4.892-11.096-10.38-11.096"/><path fill="url(#u)" d="M143.397 62.693c-.716 0-1.551.119-2.267.238 3.58 5.25 5.369 10.62 5.369 13.005 0 8.59-7.039 10.738-10.022 10.738-2.386 0-4.176-.596-5.608-1.431v.119c-.477 1.67-.715 3.58-1.312 5.37-1.074 3.46-2.625 7.396-4.295 10.499-1.79 3.34-3.46 5.249-5.489 5.13-2.386-.119-4.176-3.102-6.562-11.573-.716-2.745-1.431-5.727-2.147-8.71-1.671-7.278-3.58-14.676-6.92-21.118C98.655 54.34 89.23 51 81.713 51c-6.92 0-12.17 3.34-16.226 7.517-1.074 1.193-2.387 2.744-3.58 4.534 3.58.835 6.92 3.579 7.517 8.59.12.955.835 8.71 3.34 17.658.717-2.267 1.79-5.607 4.177-10.857 1.193-2.506 2.266-4.057 3.22-5.011.836-.955 1.671-1.313 2.387-1.313.835 0 3.46.716 6.085 9.784 3.102 11.096 5.488 28.993 14.556 38.538 4.057 4.176 9.664 6.92 17.42 6.92 6.8 0 12.527-2.983 16.584-7.159 6.681-6.92 10.38-18.255 11.692-22.43 3.699-11.932 4.773-22.79 4.892-23.982.716-6.562-4.892-11.096-10.38-11.096"/><path fill="url(#v)" d="M143.397 62.693c-.716 0-1.551.119-2.267.238 3.58 5.25 5.369 10.62 5.369 13.005 0 8.59-7.039 10.738-10.022 10.738-2.386 0-4.176-.596-5.608-1.431v.119c-.477 1.67-.715 3.58-1.312 5.37-1.074 3.46-2.625 7.396-4.295 10.499-1.79 3.34-3.46 5.249-5.489 5.13-2.386-.119-4.176-3.102-6.562-11.573-.716-2.745-1.431-5.727-2.147-8.71-1.671-7.278-3.58-14.676-6.92-21.118C98.655 54.34 89.23 51 81.713 51c-6.92 0-12.17 3.34-16.226 7.517-1.074 1.193-2.387 2.744-3.58 4.534 3.58.835 6.92 3.579 7.517 8.59.12.955.835 8.71 3.34 17.658.717-2.267 1.79-5.607 4.177-10.857 1.193-2.506 2.266-4.057 3.22-5.011.836-.955 1.671-1.313 2.387-1.313.835 0 3.46.716 6.085 9.784 3.102 11.096 5.488 28.993 14.556 38.538 4.057 4.176 9.664 6.92 17.42 6.92 6.8 0 12.527-2.983 16.584-7.159 6.681-6.92 10.38-18.255 11.692-22.43 3.699-11.932 4.773-22.79 4.892-23.982.716-6.562-4.892-11.096-10.38-11.096"/><path fill="url(#w)" d="M143.397 62.693c-.716 0-1.551.119-2.267.238 3.58 5.25 5.369 10.62 5.369 13.005 0 8.59-7.039 10.738-10.022 10.738-2.386 0-4.176-.596-5.608-1.431v.119c-.477 1.67-.715 3.58-1.312 5.37-1.074 3.46-2.625 7.396-4.295 10.499-1.79 3.34-3.46 5.249-5.489 5.13-2.386-.119-4.176-3.102-6.562-11.573-.716-2.745-1.431-5.727-2.147-8.71-1.671-7.278-3.58-14.676-6.92-21.118C98.655 54.34 89.23 51 81.713 51c-6.92 0-12.17 3.34-16.226 7.517-1.074 1.193-2.387 2.744-3.58 4.534 3.58.835 6.92 3.579 7.517 8.59.12.955.835 8.71 3.34 17.658.717-2.267 1.79-5.607 4.177-10.857 1.193-2.506 2.266-4.057 3.22-5.011.836-.955 1.671-1.313 2.387-1.313.835 0 3.46.716 6.085 9.784 3.102 11.096 5.488 28.993 14.556 38.538 4.057 4.176 9.664 6.92 17.42 6.92 6.8 0 12.527-2.983 16.584-7.159 6.681-6.92 10.38-18.255 11.692-22.43 3.699-11.932 4.773-22.79 4.892-23.982.716-6.562-4.892-11.096-10.38-11.096"/><path fill="url(#x)" d="M143.397 62.693c-.716 0-1.551.119-2.267.238 3.58 5.25 5.369 10.62 5.369 13.005 0 8.59-7.039 10.738-10.022 10.738-2.386 0-4.176-.596-5.608-1.431v.119c-.477 1.67-.715 3.58-1.312 5.37-1.074 3.46-2.625 7.396-4.295 10.499-1.79 3.34-3.46 5.249-5.489 5.13-2.386-.119-4.176-3.102-6.562-11.573-.716-2.745-1.431-5.727-2.147-8.71-1.671-7.278-3.58-14.676-6.92-21.118C98.655 54.34 89.23 51 81.713 51c-6.92 0-12.17 3.34-16.226 7.517-1.074 1.193-2.387 2.744-3.58 4.534 3.58.835 6.92 3.579 7.517 8.59.12.955.835 8.71 3.34 17.658.717-2.267 1.79-5.607 4.177-10.857 1.193-2.506 2.266-4.057 3.22-5.011.836-.955 1.671-1.313 2.387-1.313.835 0 3.46.716 6.085 9.784 3.102 11.096 5.488 28.993 14.556 38.538 4.057 4.176 9.664 6.92 17.42 6.92 6.8 0 12.527-2.983 16.584-7.159 6.681-6.92 10.38-18.255 11.692-22.43 3.699-11.932 4.773-22.79 4.892-23.982.716-6.562-4.892-11.096-10.38-11.096"/><path fill="url(#y)" d="M143.397 62.693c-.716 0-1.551.119-2.267.238 3.58 5.25 5.369 10.62 5.369 13.005 0 8.59-7.039 10.738-10.022 10.738-2.386 0-4.176-.596-5.608-1.431v.119c-.477 1.67-.715 3.58-1.312 5.37-1.074 3.46-2.625 7.396-4.295 10.499-1.79 3.34-3.46 5.249-5.489 5.13-2.386-.119-4.176-3.102-6.562-11.573-.716-2.745-1.431-5.727-2.147-8.71-1.671-7.278-3.58-14.676-6.92-21.118C98.655 54.34 89.23 51 81.713 51c-6.92 0-12.17 3.34-16.226 7.517-1.074 1.193-2.387 2.744-3.58 4.534 3.58.835 6.92 3.579 7.517 8.59.12.955.835 8.71 3.34 17.658.717-2.267 1.79-5.607 4.177-10.857 1.193-2.506 2.266-4.057 3.22-5.011.836-.955 1.671-1.313 2.387-1.313.835 0 3.46.716 6.085 9.784 3.102 11.096 5.488 28.993 14.556 38.538 4.057 4.176 9.664 6.92 17.42 6.92 6.8 0 12.527-2.983 16.584-7.159 6.681-6.92 10.38-18.255 11.692-22.43 3.699-11.932 4.773-22.79 4.892-23.982.716-6.562-4.892-11.096-10.38-11.096"/><path fill="url(#z)" d="M143.397 62.693c-.716 0-1.551.119-2.267.238 3.58 5.25 5.369 10.62 5.369 13.005 0 8.59-7.039 10.738-10.022 10.738-2.386 0-4.176-.596-5.608-1.431v.119c-.477 1.67-.715 3.58-1.312 5.37-1.074 3.46-2.625 7.396-4.295 10.499-1.79 3.34-3.46 5.249-5.489 5.13-2.386-.119-4.176-3.102-6.562-11.573-.716-2.745-1.431-5.727-2.147-8.71-1.671-7.278-3.58-14.676-6.92-21.118C98.655 54.34 89.23 51 81.713 51c-6.92 0-12.17 3.34-16.226 7.517-1.074 1.193-2.387 2.744-3.58 4.534 3.58.835 6.92 3.579 7.517 8.59.12.955.835 8.71 3.34 17.658.717-2.267 1.79-5.607 4.177-10.857 1.193-2.506 2.266-4.057 3.22-5.011.836-.955 1.671-1.313 2.387-1.313.835 0 3.46.716 6.085 9.784 3.102 11.096 5.488 28.993 14.556 38.538 4.057 4.176 9.664 6.92 17.42 6.92 6.8 0 12.527-2.983 16.584-7.159 6.681-6.92 10.38-18.255 11.692-22.43 3.699-11.932 4.773-22.79 4.892-23.982.716-6.562-4.892-11.096-10.38-11.096"/><path fill="url(#A)" d="M143.397 62.693c-.716 0-1.551.119-2.267.238 3.58 5.25 5.369 10.62 5.369 13.005 0 8.59-7.039 10.738-10.022 10.738-2.386 0-4.176-.596-5.608-1.431v.119c-.477 1.67-.715 3.58-1.312 5.37-1.074 3.46-2.625 7.396-4.295 10.499-1.79 3.34-3.46 5.249-5.489 5.13-2.386-.119-4.176-3.102-6.562-11.573-.716-2.745-1.431-5.727-2.147-8.71-1.671-7.278-3.58-14.676-6.92-21.118C98.655 54.34 89.23 51 81.713 51c-6.92 0-12.17 3.34-16.226 7.517-1.074 1.193-2.387 2.744-3.58 4.534 3.58.835 6.92 3.579 7.517 8.59.12.955.835 8.71 3.34 17.658.717-2.267 1.79-5.607 4.177-10.857 1.193-2.506 2.266-4.057 3.22-5.011.836-.955 1.671-1.313 2.387-1.313.835 0 3.46.716 6.085 9.784 3.102 11.096 5.488 28.993 14.556 38.538 4.057 4.176 9.664 6.92 17.42 6.92 6.8 0 12.527-2.983 16.584-7.159 6.681-6.92 10.38-18.255 11.692-22.43 3.699-11.932 4.773-22.79 4.892-23.982.716-6.562-4.892-11.096-10.38-11.096"/><path fill="url(#B)" d="M143.397 62.693c-.716 0-1.551.119-2.267.238 3.58 5.25 5.369 10.62 5.369 13.005 0 8.59-7.039 10.738-10.022 10.738-2.386 0-4.176-.596-5.608-1.431v.119c-.477 1.67-.715 3.58-1.312 5.37-1.074 3.46-2.625 7.396-4.295 10.499-1.79 3.34-3.46 5.249-5.489 5.13-2.386-.119-4.176-3.102-6.562-11.573-.716-2.745-1.431-5.727-2.147-8.71-1.671-7.278-3.58-14.676-6.92-21.118C98.655 54.34 89.23 51 81.713 51c-6.92 0-12.17 3.34-16.226 7.517-1.074 1.193-2.387 2.744-3.58 4.534 3.58.835 6.92 3.579 7.517 8.59.12.955.835 8.71 3.34 17.658.717-2.267 1.79-5.607 4.177-10.857 1.193-2.506 2.266-4.057 3.22-5.011.836-.955 1.671-1.313 2.387-1.313.835 0 3.46.716 6.085 9.784 3.102 11.096 5.488 28.993 14.556 38.538 4.057 4.176 9.664 6.92 17.42 6.92 6.8 0 12.527-2.983 16.584-7.159 6.681-6.92 10.38-18.255 11.692-22.43 3.699-11.932 4.773-22.79 4.892-23.982.716-6.562-4.892-11.096-10.38-11.096"/><defs><radialGradient id="b" cx="0" cy="0" r="1" gradientTransform="rotate(-120.881 70.335 20.606)scale(44.9643 37.7619)" gradientUnits="userSpaceOnUse"><stop/><stop offset=".408" stop-opacity=".75"/><stop offset=".875" stop-opacity="0"/></radialGradient><radialGradient id="c" cx="0" cy="0" r="1" gradientTransform="rotate(-126.757 80.008 11.95)scale(36.673 24.1017)" gradientUnits="userSpaceOnUse"><stop stop-color="#0D0D0D"/><stop offset=".46" stop-color="#090909"/><stop offset="1" stop-opacity="0"/></radialGradient><radialGradient id="d" cx="0" cy="0" r="1" gradientTransform="matrix(-17.50313 -31.73828 22.00446 -12.13509 94.719 96.935)" gradientUnits="userSpaceOnUse"><stop/><stop offset=".408" stop-opacity=".79"/><stop offset=".875" stop-opacity="0"/></radialGradient><radialGradient id="e" cx="0" cy="0" r="1" gradientTransform="matrix(2.44243 28.45417 -16.152 1.38645 112.989 84.011)" gradientUnits="userSpaceOnUse"><stop/><stop offset=".233" stop-opacity=".75"/><stop offset=".599" stop-opacity=".301"/><stop offset=".875" stop-opacity="0"/></radialGradient><radialGradient id="f" cx="0" cy="0" r="1" gradientTransform="matrix(18.26127 28.17982 -14.78527 9.58124 114.227 37.85)" gradientUnits="userSpaceOnUse"><stop stop-color="#2B2B2B"/><stop offset=".408" stop-color="#323232"/><stop offset="1" stop-color="#323232" stop-opacity=".07"/></radialGradient><radialGradient id="g" cx="0" cy="0" r="1" gradientTransform="matrix(16.1071 14.91408 -20.61284 22.26171 44.011 64.124)" gradientUnits="userSpaceOnUse"><stop stop-color="#fff"/><stop offset="1" stop-color="#4A4A4A" stop-opacity="0"/></radialGradient><radialGradient id="h" cx="0" cy="0" r="1" gradientTransform="rotate(-8.842 573.494 -164.37)scale(27.168 37.5492)" gradientUnits="userSpaceOnUse"><stop stop-color="#fff"/><stop offset="1" stop-color="#4A4A4A" stop-opacity="0"/></radialGradient><radialGradient id="i" cx="0" cy="0" r="1" gradientTransform="matrix(23.86236 -14.9141 20.6129 32.98036 38.642 112.446)" gradientUnits="userSpaceOnUse"><stop stop-color="#fff"/><stop offset="1" stop-color="#4A4A4A" stop-opacity="0"/></radialGradient><radialGradient id="j" cx="0" cy="0" r="1" gradientTransform="matrix(59.54008 66.09857 -66.00012 59.4514 68.561 22.507)" gradientUnits="userSpaceOnUse"><stop stop-color="#464646"/><stop offset=".745" stop-color="#444" stop-opacity="0"/></radialGradient><radialGradient id="k" cx="0" cy="0" r="1" gradientTransform="rotate(-129.574 86.399 3.845)scale(30.3213 21.2312)" gradientUnits="userSpaceOnUse"><stop stop-color="#717171"/><stop offset="1" stop-color="#444" stop-opacity="0"/></radialGradient><radialGradient id="l" cx="0" cy="0" r="1" gradientTransform="rotate(-77.87 123.635 -36.866)scale(7.56533 10.5808)" gradientUnits="userSpaceOnUse"><stop stop-color="#0F0F0F"/><stop offset="1" stop-opacity="0"/></radialGradient><radialGradient id="m" cx="0" cy="0" r="1" gradientTransform="rotate(-151.542 80.63 16.535)scale(20.4665 14.3789)" gradientUnits="userSpaceOnUse"><stop stop-color="#7C7C7C"/><stop offset=".813" stop-color="#727272" stop-opacity="0"/></radialGradient><radialGradient id="n" cx="0" cy="0" r="1" gradientTransform="matrix(-20.97628 -3.78708 2.66066 -14.73715 146.62 63.528)" gradientUnits="userSpaceOnUse"><stop stop-color="#C4C4C4"/><stop offset=".813" stop-color="#727272" stop-opacity="0"/></radialGradient><radialGradient id="o" cx="0" cy="0" r="1" gradientTransform="rotate(49.627 -31.498 58.39)scale(43.8609 43.7572)" gradientUnits="userSpaceOnUse"><stop stop-color="#4C4C4C"/><stop offset="1" stop-color="#494949" stop-opacity="0"/></radialGradient><radialGradient id="q" cx="0" cy="0" r="1" gradientTransform="matrix(17.73104 13.57264 -18.8616 24.64043 134.909 85.313)" gradientUnits="userSpaceOnUse"><stop stop-color="#010101"/><stop offset=".966" stop-color="#010101" stop-opacity="0"/></radialGradient><radialGradient id="t" cx="0" cy="0" r="1" gradientTransform="rotate(8.479 -528.056 916.289)scale(26.3543 39.3065)" gradientUnits="userSpaceOnUse"><stop stop-color="#010101"/><stop offset=".593" stop-color="#010101" stop-opacity="0"/></radialGradient><radialGradient id="u" cx="0" cy="0" r="1" gradientTransform="rotate(24.645 -142.865 346.493)scale(22.5094 40.0878)" gradientUnits="userSpaceOnUse"><stop stop-color="#010101"/><stop offset=".757" stop-color="#010101" stop-opacity="0"/></radialGradient><radialGradient id="v" cx="0" cy="0" r="1" gradientTransform="rotate(95.906 2.792 80.133)scale(17.3927 7.48612)" gradientUnits="userSpaceOnUse"><stop stop-color="#010101"/><stop offset=".885" stop-color="#010101" stop-opacity="0"/></radialGradient><radialGradient id="w" cx="0" cy="0" r="1" gradientTransform="rotate(-7.595 709.062 -380.724)scale(45.1379 46.0101)" gradientUnits="userSpaceOnUse"><stop stop-color="#010101" stop-opacity=".5"/><stop offset=".885" stop-color="#010101" stop-opacity="0"/></radialGradient><radialGradient id="x" cx="0" cy="0" r="1" gradientTransform="matrix(50.1109 -2.98281 5.82705 97.89373 61.907 83.214)" gradientUnits="userSpaceOnUse"><stop stop-color="#010101" stop-opacity=".5"/><stop offset=".823" stop-color="#010101" stop-opacity="0"/></radialGradient><radialGradient id="z" cx="0" cy="0" r="1" gradientTransform="rotate(-159.542 44.672 32.632)scale(19.9265 34.0983)" gradientUnits="userSpaceOnUse"><stop stop-color="#010101"/><stop offset=".709" stop-color="#010101" stop-opacity="0"/></radialGradient><radialGradient id="A" cx="0" cy="0" r="1" gradientTransform="rotate(57.848 -9.471 119.927)scale(24.6618 16.6437)" gradientUnits="userSpaceOnUse"><stop stop-color="#fff" stop-opacity=".15"/><stop offset="1" stop-color="#fff" stop-opacity="0"/></radialGradient><linearGradient id="a" x1="136.095" x2="67.427" y1="73.898" y2="96.437" gradientUnits="userSpaceOnUse"><stop stop-color="#7B7B7B"/><stop offset="1" stop-color="#464646"/></linearGradient><linearGradient id="p" x1="150.794" x2="55.345" y1="87.39" y2="87.39" gradientUnits="userSpaceOnUse"><stop stop-color="#3E3E3E" stop-opacity="0"/><stop offset=".461" stop-color="#3E3E3E"/><stop offset="1" stop-color="#3E3E3E" stop-opacity="0"/></linearGradient><linearGradient id="r" x1="176.446" x2="134.091" y1="76.652" y2="104.094" gradientUnits="userSpaceOnUse"><stop stop-color="#fff" stop-opacity=".3"/><stop offset=".966" stop-color="#fff" stop-opacity="0"/></linearGradient><linearGradient id="s" x1="147.215" x2="124.546" y1="127.36" y2="116.025" gradientUnits="userSpaceOnUse"><stop stop-color="#fff" stop-opacity=".3"/><stop offset=".966" stop-color="#fff" stop-opacity="0"/></linearGradient><linearGradient id="y" x1="88.156" x2="112.615" y1="136.905" y2="115.429" gradientUnits="userSpaceOnUse"><stop stop-color="#010101"/><stop offset="1" stop-color="#010101" stop-opacity="0"/></linearGradient><linearGradient id="B" x1="80.4" x2="81.594" y1="46.227" y2="57.562" gradientUnits="userSpaceOnUse"><stop stop-opacity=".5"/><stop offset="1" stop-opacity="0"/></linearGradient></defs></svg>