<svg xmlns="http://www.w3.org/2000/svg" width="378" height="24" fill="none" viewBox="0 0 378 24"><path fill="#fff" d="M19.948 6.219h3.137l-4.562 13.789h-3.599l-3.41-10.406-3.409 10.406H4.562L0 6.218h3.211l3.237 10.48 3.396-10.48h3.41l3.452 10.536zM36.542 14.22H26.365a4.4 4.4 0 0 0 .777 1.972c.369.512.868.914 1.446 1.166a4.6 4.6 0 0 0 1.864.375 6 6 0 0 0 2.08-.38 6.8 6.8 0 0 0 1.908-1.074l1.498 2.158a7.6 7.6 0 0 1-2.616 1.489c-.988.31-2.02.463-3.055.453a7.3 7.3 0 0 1-3.656-.898 6.37 6.37 0 0 1-2.499-2.546 7.8 7.8 0 0 1-.897-3.807 8 8 0 0 1 .863-3.78 6.36 6.36 0 0 1 2.425-2.56 6.9 6.9 0 0 1 3.57-.915 6.14 6.14 0 0 1 5.692 3.453 8.26 8.26 0 0 1 .829 3.772q.006.436-.052 1.122m-3.021-2.287a4.26 4.26 0 0 0-1.153-2.52 3.2 3.2 0 0 0-2.347-.864 3.38 3.38 0 0 0-2.469.915 4.38 4.38 0 0 0-1.187 2.482zM49.416 6.797a6.7 6.7 0 0 1 2.49 2.59 7.6 7.6 0 0 1 .915 3.729 7.57 7.57 0 0 1-.915 3.724 6.7 6.7 0 0 1-5.981 3.526 5.6 5.6 0 0 1-2.49-.522 5.1 5.1 0 0 1-1.826-1.476v1.64h-3.021V.35h3.02v7.51a5.2 5.2 0 0 1 1.827-1.468 5.6 5.6 0 0 1 2.49-.527 6.7 6.7 0 0 1 3.491.932m-1.648 10.147a3.9 3.9 0 0 0 1.454-1.601 5.18 5.18 0 0 0 0-4.459 3.9 3.9 0 0 0-1.454-1.6 4.4 4.4 0 0 0-4.368 0c-.627.38-1.136.929-1.467 1.583a4.8 4.8 0 0 0-.527 2.262c-.014.784.167 1.56.527 2.257.331.654.84 1.203 1.467 1.584a4.4 4.4 0 0 0 4.368 0zM67.727 14.22H57.555a4.4 4.4 0 0 0 .777 1.972c.368.512.868.914 1.446 1.166a4.6 4.6 0 0 0 1.864.375 6 6 0 0 0 2.08-.38 6.8 6.8 0 0 0 1.908-1.074l1.493 2.158a7.5 7.5 0 0 1-2.611 1.489c-.99.31-2.023.463-3.06.453a7.34 7.34 0 0 1-3.655-.898 6.4 6.4 0 0 1-2.495-2.546 7.8 7.8 0 0 1-.902-3.807 8 8 0 0 1 .863-3.78 6.36 6.36 0 0 1 2.426-2.56 6.9 6.9 0 0 1 3.595-.927 6.15 6.15 0 0 1 5.692 3.452 8.3 8.3 0 0 1 .829 3.772c-.017.302-.048.678-.078 1.135m-3.02-2.287A4.3 4.3 0 0 0 63.55 9.43a3.22 3.22 0 0 0-2.34-.88 3.37 3.37 0 0 0-2.468.914 4.36 4.36 0 0 0-1.187 2.482zM82.077 20.008H78.38l-3.496-4.795-3.453 4.795h-3.526l5.18-7.04-5.098-6.75h3.703l3.367 4.606 3.366-4.605H82l-5.119 6.724zM102.381 6.23l-4.934 13.78h-2.43L90 6.23h2.064l4.177 11.94 4.227-11.94zM103.13 8.394V6.23h2.063v2.164zm.116 11.616v-9.952h1.839v9.952zM114.747 20.01l-.325-1.398c-.665.974-1.764 1.68-3.311 1.68-2.505 0-4.402-1.838-4.402-5.2 0-3.561 1.856-5.317 4.518-5.317 1.515 0 2.546.65 3.195 1.548V6.23h1.839v13.78zm-3.237-1.282c1.897 0 3.004-1.489 3.004-3.578 0-2.43-1.165-3.81-3.004-3.81-1.739 0-2.887 1.19-2.887 3.786 0 2.396 1.223 3.602 2.887 3.602M126.955 16.815c-.267 1.93-1.898 3.486-4.361 3.486-2.637 0-4.709-1.814-4.709-5.184 0-3.328 1.872-5.342 4.684-5.342 2.255 0 3.978 1.207 4.302 3.237h-2.03c-.25-1.09-1.073-1.68-2.238-1.68-1.623 0-2.771 1.206-2.771 3.844 0 2.43 1.24 3.578 2.796 3.578 1.223 0 2.121-.691 2.313-1.93h2.014zM128.204 12.829c.191-1.84 1.78-3.062 4.268-3.062 2.605 0 4.052 1.398 4.052 3.444v6.79h-1.514l-.233-1.356c-.649.915-1.722 1.648-3.328 1.648-2.18 0-3.445-1.224-3.445-2.854 0-1.815 1.09-2.855 3.769-3.312l2.904-.5v-.49c0-1.224-.824-1.914-2.296-1.914-1.415 0-2.105.615-2.239 1.606zm6.482 3.52v-1.282l-2.472.441c-1.78.308-2.255.865-2.255 1.74 0 .956.691 1.488 1.931 1.488 1.398.009 2.796-1.023 2.796-2.388M141.558 15.475c-2.33-.516-3.27-1.398-3.27-2.87 0-1.706 1.356-2.83 3.861-2.83 2.221 0 3.752 1.09 4.077 2.913h-1.872c-.217-.924-.957-1.465-2.222-1.465-1.381 0-1.989.516-1.989 1.207 0 .765.4 1.106 2.313 1.53 2.314.517 3.845 1.166 3.845 3.213 0 1.814-1.515 3.12-4.152 3.12-2.488 0-4.111-1.223-4.286-3.137h1.872c.209 1.19 1.032 1.68 2.43 1.68 1.49 0 2.28-.665 2.28-1.53 0-1.165-1.107-1.431-2.887-1.83M152.368 20.101a5 5 0 0 1-1.357.192c-1.764 0-2.662-1.107-2.662-2.754v-5.917h-1.473v-1.564h1.473l.116-2.388h1.723v2.388h2.146v1.573h-2.146v5.95c0 .748.366 1.106 1.056 1.106.325 0 .575-.017 1.132-.15v1.564z"/></svg>