<svg xmlns="http://www.w3.org/2000/svg" width="378" height="24" fill="none" viewBox="0 0 378 24"><path fill="#fff" d="M19.948 6.219h3.137l-4.562 13.789h-3.599l-3.41-10.406-3.409 10.406H4.562L0 6.218h3.211l3.237 10.48 3.396-10.48h3.41l3.452 10.536zM36.542 14.22H26.365a4.4 4.4 0 0 0 .777 1.972c.369.512.868.914 1.446 1.166a4.6 4.6 0 0 0 1.864.375 6 6 0 0 0 2.08-.38 6.8 6.8 0 0 0 1.908-1.074l1.498 2.158a7.6 7.6 0 0 1-2.616 1.489c-.988.31-2.02.463-3.055.453a7.3 7.3 0 0 1-3.656-.898 6.37 6.37 0 0 1-2.499-2.546 7.8 7.8 0 0 1-.897-3.807 8 8 0 0 1 .863-3.78 6.36 6.36 0 0 1 2.425-2.56 6.9 6.9 0 0 1 3.57-.915 6.14 6.14 0 0 1 5.692 3.453 8.26 8.26 0 0 1 .829 3.772q.006.436-.052 1.122m-3.021-2.287a4.26 4.26 0 0 0-1.153-2.52 3.2 3.2 0 0 0-2.347-.864 3.38 3.38 0 0 0-2.469.915 4.38 4.38 0 0 0-1.187 2.482zM49.416 6.797a6.7 6.7 0 0 1 2.49 2.59 7.6 7.6 0 0 1 .915 3.729 7.57 7.57 0 0 1-.915 3.724 6.7 6.7 0 0 1-5.981 3.526 5.6 5.6 0 0 1-2.49-.522 5.1 5.1 0 0 1-1.826-1.476v1.64h-3.021V.35h3.02v7.51a5.2 5.2 0 0 1 1.827-1.468 5.6 5.6 0 0 1 2.49-.527 6.7 6.7 0 0 1 3.491.932m-1.648 10.147a3.9 3.9 0 0 0 1.454-1.601 5.18 5.18 0 0 0 0-4.459 3.9 3.9 0 0 0-1.454-1.6 4.4 4.4 0 0 0-4.368 0c-.627.38-1.136.929-1.467 1.583a4.8 4.8 0 0 0-.527 2.262c-.014.784.167 1.56.527 2.257.331.654.84 1.203 1.467 1.584a4.4 4.4 0 0 0 4.368 0zM67.727 14.22H57.555a4.4 4.4 0 0 0 .777 1.972c.368.512.868.914 1.446 1.166a4.6 4.6 0 0 0 1.864.375 6 6 0 0 0 2.08-.38 6.8 6.8 0 0 0 1.908-1.074l1.493 2.158a7.5 7.5 0 0 1-2.611 1.489c-.99.31-2.023.463-3.06.453a7.34 7.34 0 0 1-3.655-.898 6.4 6.4 0 0 1-2.495-2.546 7.8 7.8 0 0 1-.902-3.807 8 8 0 0 1 .863-3.78 6.36 6.36 0 0 1 2.426-2.56 6.9 6.9 0 0 1 3.595-.927 6.15 6.15 0 0 1 5.692 3.452 8.3 8.3 0 0 1 .829 3.772c-.017.302-.048.678-.078 1.135m-3.02-2.287A4.3 4.3 0 0 0 63.55 9.43a3.22 3.22 0 0 0-2.34-.88 3.37 3.37 0 0 0-2.468.914 4.36 4.36 0 0 0-1.187 2.482zM82.077 20.008H78.38l-3.496-4.795-3.453 4.795h-3.526l5.18-7.04-5.098-6.75h3.703l3.367 4.606 3.366-4.605H82l-5.119 6.724zM95.46 20.097a5.5 5.5 0 0 1-1.35.19 2.49 2.49 0 0 1-2-.75 2.84 2.84 0 0 1-.67-2v-5.88h-1.43v-1.52h1.46l.12-2.37h1.7v2.37h2.13v1.52h-2.13v5.9c0 .73.35 1.09 1.05 1.09q.234.015.47 0 .329-.048.65-.13zM96.59 19.997V6.347h1.83v4.91a3.4 3.4 0 0 1 1.29-1 3.56 3.56 0 0 1 1.59-.35 3.44 3.44 0 0 1 2.55.94 3.79 3.79 0 0 1 .94 2.77v6.43h-1.82v-6.46a2.24 2.24 0 0 0-.54-1.65 2.16 2.16 0 0 0-1.57-.53 2.8 2.8 0 0 0-1 .17 2.2 2.2 0 0 0-.77.51c-.23.23-.407.505-.52.81a2.9 2.9 0 0 0-.19 1.09v6zM115.47 17.157a4.6 4.6 0 0 1-.57 1.25 4 4 0 0 1-.94 1c-.39.287-.826.506-1.29.65a5.2 5.2 0 0 1-1.62.24 5.8 5.8 0 0 1-2-.32 4.16 4.16 0 0 1-1.52-1 4.55 4.55 0 0 1-1-1.63 6.7 6.7 0 0 1-.36-2.29 6.5 6.5 0 0 1 .36-2.26 4.5 4.5 0 0 1 1-1.63 3.86 3.86 0 0 1 1.5-1 5.3 5.3 0 0 1 1.89-.33 5.4 5.4 0 0 1 1.88.31 3.5 3.5 0 0 1 1.46 1c.455.5.797 1.094 1 1.74.245.83.36 1.694.34 2.56h-7.51a3.58 3.58 0 0 0 1 2.49 2.88 2.88 0 0 0 2.07.79 2.6 2.6 0 0 0 1.55-.45c.4-.276.696-.677.84-1.14zm-4.48-5.84a2.73 2.73 0 0 0-1.87.67 3.23 3.23 0 0 0-1 2h5.57a2.86 2.86 0 0 0-.84-2 2.76 2.76 0 0 0-1.86-.67M127.32 6.347a5.7 5.7 0 0 1 3.57.95 3.25 3.25 0 0 1 1.19 2.67c.004.321-.053.64-.17.94a3.2 3.2 0 0 1-.46.82c-.197.252-.43.474-.69.66-.269.18-.566.312-.88.39.354.063.693.192 1 .38.317.193.598.44.83.73a3.45 3.45 0 0 1 .78 2.25 3.4 3.4 0 0 1-1.33 2.85 6.28 6.28 0 0 1-3.91 1h-4.87V6.347zm-3 1.46v4.3h3.25a2.68 2.68 0 0 0 1.89-.59 2 2 0 0 0 .7-1.55 2 2 0 0 0-.69-1.59 3 3 0 0 0-2-.57zm0 5.78v4.84h3.23a3.46 3.46 0 0 0 2.2-.59 2 2 0 0 0 .72-1.69 2.463 2.463 0 0 0-.71-1.9 3.06 3.06 0 0 0-2.14-.66zM134.16 19.996v-9.86h1.5l.25 1.46a2.66 2.66 0 0 1 2.5-1.74q.32-.024.64 0l.44.09v1.82a5 5 0 0 0-.55-.12q-.3-.024-.6 0a2.3 2.3 0 0 0-.91.18 2 2 0 0 0-.75.59 3.2 3.2 0 0 0-.51 1.06 6 6 0 0 0-.19 1.58v4.95zM140.16 8.487v-2.14h2v2.14zm.12 11.51v-9.86h1.88v9.86zM151.6 19.997l-.32-1.34c-.342.49-.79.896-1.31 1.19-.61.34-1.302.505-2 .48a4.5 4.5 0 0 1-1.73-.33 3.75 3.75 0 0 1-1.38-1 4.6 4.6 0 0 1-.92-1.62 6.7 6.7 0 0 1-.34-2.22 7 7 0 0 1 .34-2.31c.186-.607.5-1.166.92-1.64a3.7 3.7 0 0 1 1.41-1 4.8 4.8 0 0 1 1.89-.35 3.85 3.85 0 0 1 1.91.43c.492.275.921.65 1.26 1.1v-5h1.82v13.61zm-6.07-4.83a4.9 4.9 0 0 0 .22 1.55c.119.408.324.786.6 1.11.245.292.553.525.9.68a2.8 2.8 0 0 0 1.14.22c.434.005.864-.084 1.26-.26.361-.176.681-.425.94-.73a3.3 3.3 0 0 0 .57-1.08c.14-.464.208-.946.2-1.43a4.3 4.3 0 0 0-.8-2.8 2.69 2.69 0 0 0-2.18-1 2.58 2.58 0 0 0-2.07.91 4.28 4.28 0 0 0-.78 2.83M157.02 20.657a1.74 1.74 0 0 0 .75 1.16 2.9 2.9 0 0 0 1.7.43 3 3 0 0 0 2.09-.66 2.49 2.49 0 0 0 .7-1.9v-1.26a3.5 3.5 0 0 1-1.32.94 5 5 0 0 1-2 .35 4.4 4.4 0 0 1-1.66-.32 4.1 4.1 0 0 1-1.39-.94c-.43-.44-.77-.96-1-1.53a5.6 5.6 0 0 1-.36-2.08 6.2 6.2 0 0 1 .32-2.09 4.5 4.5 0 0 1 .91-1.58 3.9 3.9 0 0 1 1.41-1 4.7 4.7 0 0 1 1.83-.34 4 4 0 0 1 1.95.44 3.76 3.76 0 0 1 1.26 1.15l.28-1.31h1.5v9.65a4 4 0 0 1-.3 1.56c-.2.472-.5.895-.88 1.24a4.2 4.2 0 0 1-1.43.82c-.626.202-1.281.3-1.94.29a5.1 5.1 0 0 1-3.1-.82 3.43 3.43 0 0 1-1.27-2.2zm-.51-5.79c-.005.476.072.95.23 1.4.139.37.35.71.62 1 .255.275.565.494.91.64.353.142.73.213 1.11.21a2.79 2.79 0 0 0 2.2-.86c.548-.66.823-1.504.77-2.36a3.78 3.78 0 0 0-.82-2.64 2.8 2.8 0 0 0-2.15-.89 2.7 2.7 0 0 0-2.06.86 3.67 3.67 0 0 0-.81 2.65zM174.85 17.157a4.3 4.3 0 0 1-.56 1.25c-.257.382-.574.72-.94 1a4.6 4.6 0 0 1-1.29.65 5.2 5.2 0 0 1-1.62.24 5.8 5.8 0 0 1-1.95-.32 4.1 4.1 0 0 1-1.53-1 4.5 4.5 0 0 1-1-1.63 6.6 6.6 0 0 1-.36-2.29 6.5 6.5 0 0 1 .36-2.26 4.6 4.6 0 0 1 1-1.63c.417-.443.93-.785 1.5-1a5.74 5.74 0 0 1 3.78 0c.563.205 1.065.55 1.46 1 .434.508.757 1.1.95 1.74a8.7 8.7 0 0 1 .34 2.56h-7.53a3.57 3.57 0 0 0 .95 2.49 2.93 2.93 0 0 0 2.08.79 2.63 2.63 0 0 0 1.55-.45 2.22 2.22 0 0 0 .84-1.14zm-4.47-5.84a2.72 2.72 0 0 0-1.87.67 3.28 3.28 0 0 0-1 2h5.65a2.9 2.9 0 0 0-.84-2 2.76 2.76 0 0 0-1.94-.67"/></svg>