<svg xmlns="http://www.w3.org/2000/svg" width="32" height="32" viewBox="0 0 32 32"><path d="m27.335 16.264-4.799-8.085a7.516 7.516 0 0 0-6.54-3.679 7.522 7.522 0 0 0-6.543 3.679l-4.797 8.085a7.08 7.08 0 0 0-.463 6.904c1.176 2.321 3.713 3.833 6.957 4.149 1.621.145 3.249.207 4.877.183h.064a43.854 43.854 0 0 0 4.752-.184c3.265-.328 5.806-1.842 6.974-4.156a7.086 7.086 0 0 0-.482-6.896Zm-.41 6.446c-1.012 2.002-3.265 3.318-6.181 3.611-1.547.143-3.1.203-4.653.179a45.071 45.071 0 0 1-4.846-.18c-2.895-.28-5.141-1.594-6.16-3.604a6.105 6.105 0 0 1 .43-5.943l4.798-8.085a6.657 6.657 0 0 1 11.364 0l4.799 8.085a6.112 6.112 0 0 1 .448 5.937Z"/><path d="M16.002 11.5a5.5 5.5 0 1 0 5.5 5.5 5.507 5.507 0 0 0-5.5-5.5Zm0 10a4.5 4.5 0 1 1 0-9 4.5 4.5 0 0 1 0 9Z"/></svg>