<svg xmlns="http://www.w3.org/2000/svg" width="105" height="77" fill="none" viewBox="0 0 105 77"><path fill="url(#a)" d="M23.936 38.582A62.5 62.5 0 0 0 28.63 50.49c.898 1.68 1.796 3.359 3.426 4.417.283.18.594.31.92.38 2.402.522 3.719-1.444 4.567-3.24a54 54 0 0 0 3.058-8.745q.222-.84.435-1.68c.275-1.07.55-2.15.788-3.23L52.423 9.616a23.7 23.7 0 0 1 8.337-7.063A23.3 23.3 0 0 1 71.324.026 23 23 0 0 1 85.879 5.12c6.93 5.33 11.056 15.827 11.056 15.827.602 1.367.911 2.848.909 4.345a10.7 10.7 0 0 1-.8 4.038 10.6 10.6 0 0 1-2.259 3.421 10.4 10.4 0 0 1-3.375 2.282 10.25 10.25 0 0 1-8.367-.201 10.4 10.4 0 0 1-3.56-2.794l-.1-.124a14.2 14.2 0 0 1-1.652-2.956 41 41 0 0 0-1.917-3.851 25 25 0 0 0-1.223-1.859 7.6 7.6 0 0 0-1.306-1.456c-.975-.8-2.203-1.12-3.35-.43a2 2 0 0 0-.159.106c-1.179.823-2.005 2.485-2.578 3.762-1.653 3.616-2.6 7.323-3.537 11.13-.176.733-.352 1.466-.518 2.205l-4.38 14.556-6.175 13.84a23.95 23.95 0 0 1-8.275 6.878 23.55 23.55 0 0 1-10.4 2.516c-15 .324-22.118-13.437-22.118-13.437C3.25 48.676.733 29.888.132 23.881.006 22.632 0 21.888 0 21.888c0-1.882.504-3.728 1.46-5.34a10.23 10.23 0 0 1 3.966-3.802 11 11 0 0 1 5.476-1.215c1.765.075 3.483.604 4.991 1.54a9.9 9.9 0 0 1 2.975 2.798c1.41 2.038 1.73 4.574 2.01 6.998a96.7 96.7 0 0 0 3.058 15.715"/><path fill="url(#b)" d="M23.936 38.582A62.5 62.5 0 0 0 28.63 50.49c.898 1.68 1.796 3.359 3.426 4.417.283.18.594.31.92.38 2.402.522 3.719-1.444 4.567-3.24a54 54 0 0 0 3.058-8.745q.222-.84.435-1.68c.275-1.07.55-2.15.788-3.23L52.423 9.616a23.7 23.7 0 0 1 8.337-7.063A23.3 23.3 0 0 1 71.324.026 23 23 0 0 1 85.879 5.12c6.93 5.33 11.056 15.827 11.056 15.827.602 1.367.911 2.848.909 4.345a10.7 10.7 0 0 1-.8 4.038 10.6 10.6 0 0 1-2.259 3.421 10.4 10.4 0 0 1-3.375 2.282 10.25 10.25 0 0 1-8.367-.201 10.4 10.4 0 0 1-3.56-2.794l-.1-.124a14.2 14.2 0 0 1-1.652-2.956 41 41 0 0 0-1.917-3.851 25 25 0 0 0-1.223-1.859 7.6 7.6 0 0 0-1.306-1.456c-.975-.8-2.203-1.12-3.35-.43a2 2 0 0 0-.159.106c-1.179.823-2.005 2.485-2.578 3.762-1.653 3.616-2.6 7.323-3.537 11.13-.176.733-.352 1.466-.518 2.205l-4.38 14.556-6.175 13.84a23.95 23.95 0 0 1-8.275 6.878 23.55 23.55 0 0 1-10.4 2.516c-15 .324-22.118-13.437-22.118-13.437C3.25 48.676.733 29.888.132 23.881.006 22.632 0 21.888 0 21.888c0-1.882.504-3.728 1.46-5.34a10.23 10.23 0 0 1 3.966-3.802 11 11 0 0 1 5.476-1.215c1.765.075 3.483.604 4.991 1.54a9.9 9.9 0 0 1 2.975 2.798c1.41 2.038 1.73 4.574 2.01 6.998a96.7 96.7 0 0 0 3.058 15.715"/><path fill="url(#c)" d="M23.936 38.582A62.5 62.5 0 0 0 28.63 50.49c.898 1.68 1.796 3.359 3.426 4.417.283.18.594.31.92.38 2.402.522 3.719-1.444 4.567-3.24a54 54 0 0 0 3.058-8.745q.222-.84.435-1.68c.275-1.07.55-2.15.788-3.23L52.423 9.616a23.7 23.7 0 0 1 8.337-7.063A23.3 23.3 0 0 1 71.324.026 23 23 0 0 1 85.879 5.12c6.93 5.33 11.056 15.827 11.056 15.827.602 1.367.911 2.848.909 4.345a10.7 10.7 0 0 1-.8 4.038 10.6 10.6 0 0 1-2.259 3.421 10.4 10.4 0 0 1-3.375 2.282 10.25 10.25 0 0 1-8.367-.201 10.4 10.4 0 0 1-3.56-2.794l-.1-.124a14.2 14.2 0 0 1-1.652-2.956 41 41 0 0 0-1.917-3.851 25 25 0 0 0-1.223-1.859 7.6 7.6 0 0 0-1.306-1.456c-.975-.8-2.203-1.12-3.35-.43a2 2 0 0 0-.159.106c-1.179.823-2.005 2.485-2.578 3.762-1.653 3.616-2.6 7.323-3.537 11.13-.176.733-.352 1.466-.518 2.205l-4.38 14.556-6.175 13.84a23.95 23.95 0 0 1-8.275 6.878 23.55 23.55 0 0 1-10.4 2.516c-15 .324-22.118-13.437-22.118-13.437C3.25 48.676.733 29.888.132 23.881.006 22.632 0 21.888 0 21.888c0-1.882.504-3.728 1.46-5.34a10.23 10.23 0 0 1 3.966-3.802 11 11 0 0 1 5.476-1.215c1.765.075 3.483.604 4.991 1.54a9.9 9.9 0 0 1 2.975 2.798c1.41 2.038 1.73 4.574 2.01 6.998a96.7 96.7 0 0 0 3.058 15.715"/><path fill="url(#d)" d="M23.936 38.582A62.5 62.5 0 0 0 28.63 50.49c.898 1.68 1.796 3.359 3.426 4.417.283.18.594.31.92.38 2.402.522 3.719-1.444 4.567-3.24a54 54 0 0 0 3.058-8.745q.222-.84.435-1.68c.275-1.07.55-2.15.788-3.23L52.423 9.616a23.7 23.7 0 0 1 8.337-7.063A23.3 23.3 0 0 1 71.324.026 23 23 0 0 1 85.879 5.12c6.93 5.33 11.056 15.827 11.056 15.827.602 1.367.911 2.848.909 4.345a10.7 10.7 0 0 1-.8 4.038 10.6 10.6 0 0 1-2.259 3.421 10.4 10.4 0 0 1-3.375 2.282 10.25 10.25 0 0 1-8.367-.201 10.4 10.4 0 0 1-3.56-2.794l-.1-.124a14.2 14.2 0 0 1-1.652-2.956 41 41 0 0 0-1.917-3.851 25 25 0 0 0-1.223-1.859 7.6 7.6 0 0 0-1.306-1.456c-.975-.8-2.203-1.12-3.35-.43a2 2 0 0 0-.159.106c-1.179.823-2.005 2.485-2.578 3.762-1.653 3.616-2.6 7.323-3.537 11.13-.176.733-.352 1.466-.518 2.205l-4.38 14.556-6.175 13.84a23.95 23.95 0 0 1-8.275 6.878 23.55 23.55 0 0 1-10.4 2.516c-15 .324-22.118-13.437-22.118-13.437C3.25 48.676.733 29.888.132 23.881.006 22.632 0 21.888 0 21.888c0-1.882.504-3.728 1.46-5.34a10.23 10.23 0 0 1 3.966-3.802 11 11 0 0 1 5.476-1.215c1.765.075 3.483.604 4.991 1.54a9.9 9.9 0 0 1 2.975 2.798c1.41 2.038 1.73 4.574 2.01 6.998a96.7 96.7 0 0 0 3.058 15.715"/><path fill="url(#e)" d="M23.936 38.582A62.5 62.5 0 0 0 28.63 50.49c.898 1.68 1.796 3.359 3.426 4.417.283.18.594.31.92.38 2.402.522 3.719-1.444 4.567-3.24a54 54 0 0 0 3.058-8.745q.222-.84.435-1.68c.275-1.07.55-2.15.788-3.23L52.423 9.616a23.7 23.7 0 0 1 8.337-7.063A23.3 23.3 0 0 1 71.324.026 23 23 0 0 1 85.879 5.12c6.93 5.33 11.056 15.827 11.056 15.827.602 1.367.911 2.848.909 4.345a10.7 10.7 0 0 1-.8 4.038 10.6 10.6 0 0 1-2.259 3.421 10.4 10.4 0 0 1-3.375 2.282 10.25 10.25 0 0 1-8.367-.201 10.4 10.4 0 0 1-3.56-2.794l-.1-.124a14.2 14.2 0 0 1-1.652-2.956 41 41 0 0 0-1.917-3.851 25 25 0 0 0-1.223-1.859 7.6 7.6 0 0 0-1.306-1.456c-.975-.8-2.203-1.12-3.35-.43a2 2 0 0 0-.159.106c-1.179.823-2.005 2.485-2.578 3.762-1.653 3.616-2.6 7.323-3.537 11.13-.176.733-.352 1.466-.518 2.205l-4.38 14.556-6.175 13.84a23.95 23.95 0 0 1-8.275 6.878 23.55 23.55 0 0 1-10.4 2.516c-15 .324-22.118-13.437-22.118-13.437C3.25 48.676.733 29.888.132 23.881.006 22.632 0 21.888 0 21.888c0-1.882.504-3.728 1.46-5.34a10.23 10.23 0 0 1 3.966-3.802 11 11 0 0 1 5.476-1.215c1.765.075 3.483.604 4.991 1.54a9.9 9.9 0 0 1 2.975 2.798c1.41 2.038 1.73 4.574 2.01 6.998a96.7 96.7 0 0 0 3.058 15.715"/><path fill="url(#f)" d="M23.936 38.582A62.5 62.5 0 0 0 28.63 50.49c.898 1.68 1.796 3.359 3.426 4.417.283.18.594.31.92.38 2.402.522 3.719-1.444 4.567-3.24a54 54 0 0 0 3.058-8.745q.222-.84.435-1.68c.275-1.07.55-2.15.788-3.23L52.423 9.616a23.7 23.7 0 0 1 8.337-7.063A23.3 23.3 0 0 1 71.324.026 23 23 0 0 1 85.879 5.12c6.93 5.33 11.056 15.827 11.056 15.827.602 1.367.911 2.848.909 4.345a10.7 10.7 0 0 1-.8 4.038 10.6 10.6 0 0 1-2.259 3.421 10.4 10.4 0 0 1-3.375 2.282 10.25 10.25 0 0 1-8.367-.201 10.4 10.4 0 0 1-3.56-2.794l-.1-.124a14.2 14.2 0 0 1-1.652-2.956 41 41 0 0 0-1.917-3.851 25 25 0 0 0-1.223-1.859 7.6 7.6 0 0 0-1.306-1.456c-.975-.8-2.203-1.12-3.35-.43a2 2 0 0 0-.159.106c-1.179.823-2.005 2.485-2.578 3.762-1.653 3.616-2.6 7.323-3.537 11.13-.176.733-.352 1.466-.518 2.205l-4.38 14.556-6.175 13.84a23.95 23.95 0 0 1-8.275 6.878 23.55 23.55 0 0 1-10.4 2.516c-15 .324-22.118-13.437-22.118-13.437C3.25 48.676.733 29.888.132 23.881.006 22.632 0 21.888 0 21.888c0-1.882.504-3.728 1.46-5.34a10.23 10.23 0 0 1 3.966-3.802 11 11 0 0 1 5.476-1.215c1.765.075 3.483.604 4.991 1.54a9.9 9.9 0 0 1 2.975 2.798c1.41 2.038 1.73 4.574 2.01 6.998a96.7 96.7 0 0 0 3.058 15.715"/><path fill="url(#g)" d="M23.936 38.582A62.5 62.5 0 0 0 28.63 50.49c.898 1.68 1.796 3.359 3.426 4.417.283.18.594.31.92.38 2.402.522 3.719-1.444 4.567-3.24a54 54 0 0 0 3.058-8.745q.222-.84.435-1.68c.275-1.07.55-2.15.788-3.23L52.423 9.616a23.7 23.7 0 0 1 8.337-7.063A23.3 23.3 0 0 1 71.324.026 23 23 0 0 1 85.879 5.12c6.93 5.33 11.056 15.827 11.056 15.827.602 1.367.911 2.848.909 4.345a10.7 10.7 0 0 1-.8 4.038 10.6 10.6 0 0 1-2.259 3.421 10.4 10.4 0 0 1-3.375 2.282 10.25 10.25 0 0 1-8.367-.201 10.4 10.4 0 0 1-3.56-2.794l-.1-.124a14.2 14.2 0 0 1-1.652-2.956 41 41 0 0 0-1.917-3.851 25 25 0 0 0-1.223-1.859 7.6 7.6 0 0 0-1.306-1.456c-.975-.8-2.203-1.12-3.35-.43a2 2 0 0 0-.159.106c-1.179.823-2.005 2.485-2.578 3.762-1.653 3.616-2.6 7.323-3.537 11.13-.176.733-.352 1.466-.518 2.205l-4.38 14.556-6.175 13.84a23.95 23.95 0 0 1-8.275 6.878 23.55 23.55 0 0 1-10.4 2.516c-15 .324-22.118-13.437-22.118-13.437C3.25 48.676.733 29.888.132 23.881.006 22.632 0 21.888 0 21.888c0-1.882.504-3.728 1.46-5.34a10.23 10.23 0 0 1 3.966-3.802 11 11 0 0 1 5.476-1.215c1.765.075 3.483.604 4.991 1.54a9.9 9.9 0 0 1 2.975 2.798c1.41 2.038 1.73 4.574 2.01 6.998a96.7 96.7 0 0 0 3.058 15.715"/><path fill="url(#h)" d="M23.936 38.582A62.5 62.5 0 0 0 28.63 50.49c.898 1.68 1.796 3.359 3.426 4.417.283.18.594.31.92.38 2.402.522 3.719-1.444 4.567-3.24a54 54 0 0 0 3.058-8.745q.222-.84.435-1.68c.275-1.07.55-2.15.788-3.23L52.423 9.616a23.7 23.7 0 0 1 8.337-7.063A23.3 23.3 0 0 1 71.324.026 23 23 0 0 1 85.879 5.12c6.93 5.33 11.056 15.827 11.056 15.827.602 1.367.911 2.848.909 4.345a10.7 10.7 0 0 1-.8 4.038 10.6 10.6 0 0 1-2.259 3.421 10.4 10.4 0 0 1-3.375 2.282 10.25 10.25 0 0 1-8.367-.201 10.4 10.4 0 0 1-3.56-2.794l-.1-.124a14.2 14.2 0 0 1-1.652-2.956 41 41 0 0 0-1.917-3.851 25 25 0 0 0-1.223-1.859 7.6 7.6 0 0 0-1.306-1.456c-.975-.8-2.203-1.12-3.35-.43a2 2 0 0 0-.159.106c-1.179.823-2.005 2.485-2.578 3.762-1.653 3.616-2.6 7.323-3.537 11.13-.176.733-.352 1.466-.518 2.205l-4.38 14.556-6.175 13.84a23.95 23.95 0 0 1-8.275 6.878 23.55 23.55 0 0 1-10.4 2.516c-15 .324-22.118-13.437-22.118-13.437C3.25 48.676.733 29.888.132 23.881.006 22.632 0 21.888 0 21.888c0-1.882.504-3.728 1.46-5.34a10.23 10.23 0 0 1 3.966-3.802 11 11 0 0 1 5.476-1.215c1.765.075 3.483.604 4.991 1.54a9.9 9.9 0 0 1 2.975 2.798c1.41 2.038 1.73 4.574 2.01 6.998a96.7 96.7 0 0 0 3.058 15.715"/><path fill="url(#i)" d="M23.936 38.582A62.5 62.5 0 0 0 28.63 50.49c.898 1.68 1.796 3.359 3.426 4.417.283.18.594.31.92.38 2.402.522 3.719-1.444 4.567-3.24a54 54 0 0 0 3.058-8.745q.222-.84.435-1.68c.275-1.07.55-2.15.788-3.23L52.423 9.616a23.7 23.7 0 0 1 8.337-7.063A23.3 23.3 0 0 1 71.324.026 23 23 0 0 1 85.879 5.12c6.93 5.33 11.056 15.827 11.056 15.827.602 1.367.911 2.848.909 4.345a10.7 10.7 0 0 1-.8 4.038 10.6 10.6 0 0 1-2.259 3.421 10.4 10.4 0 0 1-3.375 2.282 10.25 10.25 0 0 1-8.367-.201 10.4 10.4 0 0 1-3.56-2.794l-.1-.124a14.2 14.2 0 0 1-1.652-2.956 41 41 0 0 0-1.917-3.851 25 25 0 0 0-1.223-1.859 7.6 7.6 0 0 0-1.306-1.456c-.975-.8-2.203-1.12-3.35-.43a2 2 0 0 0-.159.106c-1.179.823-2.005 2.485-2.578 3.762-1.653 3.616-2.6 7.323-3.537 11.13-.176.733-.352 1.466-.518 2.205l-4.38 14.556-6.175 13.84a23.95 23.95 0 0 1-8.275 6.878 23.55 23.55 0 0 1-10.4 2.516c-15 .324-22.118-13.437-22.118-13.437C3.25 48.676.733 29.888.132 23.881.006 22.632 0 21.888 0 21.888c0-1.882.504-3.728 1.46-5.34a10.23 10.23 0 0 1 3.966-3.802 11 11 0 0 1 5.476-1.215c1.765.075 3.483.604 4.991 1.54a9.9 9.9 0 0 1 2.975 2.798c1.41 2.038 1.73 4.574 2.01 6.998a96.7 96.7 0 0 0 3.058 15.715"/><path fill="url(#j)" d="M23.936 38.582A62.5 62.5 0 0 0 28.63 50.49c.898 1.68 1.796 3.359 3.426 4.417.283.18.594.31.92.38 2.402.522 3.719-1.444 4.567-3.24a54 54 0 0 0 3.058-8.745q.222-.84.435-1.68c.275-1.07.55-2.15.788-3.23L52.423 9.616a23.7 23.7 0 0 1 8.337-7.063A23.3 23.3 0 0 1 71.324.026 23 23 0 0 1 85.879 5.12c6.93 5.33 11.056 15.827 11.056 15.827.602 1.367.911 2.848.909 4.345a10.7 10.7 0 0 1-.8 4.038 10.6 10.6 0 0 1-2.259 3.421 10.4 10.4 0 0 1-3.375 2.282 10.25 10.25 0 0 1-8.367-.201 10.4 10.4 0 0 1-3.56-2.794l-.1-.124a14.2 14.2 0 0 1-1.652-2.956 41 41 0 0 0-1.917-3.851 25 25 0 0 0-1.223-1.859 7.6 7.6 0 0 0-1.306-1.456c-.975-.8-2.203-1.12-3.35-.43a2 2 0 0 0-.159.106c-1.179.823-2.005 2.485-2.578 3.762-1.653 3.616-2.6 7.323-3.537 11.13-.176.733-.352 1.466-.518 2.205l-4.38 14.556-6.175 13.84a23.95 23.95 0 0 1-8.275 6.878 23.55 23.55 0 0 1-10.4 2.516c-15 .324-22.118-13.437-22.118-13.437C3.25 48.676.733 29.888.132 23.881.006 22.632 0 21.888 0 21.888c0-1.882.504-3.728 1.46-5.34a10.23 10.23 0 0 1 3.966-3.802 11 11 0 0 1 5.476-1.215c1.765.075 3.483.604 4.991 1.54a9.9 9.9 0 0 1 2.975 2.798c1.41 2.038 1.73 4.574 2.01 6.998a96.7 96.7 0 0 0 3.058 15.715"/><path fill="url(#k)" d="M23.936 38.582A62.5 62.5 0 0 0 28.63 50.49c.898 1.68 1.796 3.359 3.426 4.417.283.18.594.31.92.38 2.402.522 3.719-1.444 4.567-3.24a54 54 0 0 0 3.058-8.745q.222-.84.435-1.68c.275-1.07.55-2.15.788-3.23L52.423 9.616a23.7 23.7 0 0 1 8.337-7.063A23.3 23.3 0 0 1 71.324.026 23 23 0 0 1 85.879 5.12c6.93 5.33 11.056 15.827 11.056 15.827.602 1.367.911 2.848.909 4.345a10.7 10.7 0 0 1-.8 4.038 10.6 10.6 0 0 1-2.259 3.421 10.4 10.4 0 0 1-3.375 2.282 10.25 10.25 0 0 1-8.367-.201 10.4 10.4 0 0 1-3.56-2.794l-.1-.124a14.2 14.2 0 0 1-1.652-2.956 41 41 0 0 0-1.917-3.851 25 25 0 0 0-1.223-1.859 7.6 7.6 0 0 0-1.306-1.456c-.975-.8-2.203-1.12-3.35-.43a2 2 0 0 0-.159.106c-1.179.823-2.005 2.485-2.578 3.762-1.653 3.616-2.6 7.323-3.537 11.13-.176.733-.352 1.466-.518 2.205l-4.38 14.556-6.175 13.84a23.95 23.95 0 0 1-8.275 6.878 23.55 23.55 0 0 1-10.4 2.516c-15 .324-22.118-13.437-22.118-13.437C3.25 48.676.733 29.888.132 23.881.006 22.632 0 21.888 0 21.888c0-1.882.504-3.728 1.46-5.34a10.23 10.23 0 0 1 3.966-3.802 11 11 0 0 1 5.476-1.215c1.765.075 3.483.604 4.991 1.54a9.9 9.9 0 0 1 2.975 2.798c1.41 2.038 1.73 4.574 2.01 6.998a96.7 96.7 0 0 0 3.058 15.715"/><path fill="url(#l)" d="M23.936 38.582A62.5 62.5 0 0 0 28.63 50.49c.898 1.68 1.796 3.359 3.426 4.417.283.18.594.31.92.38 2.402.522 3.719-1.444 4.567-3.24a54 54 0 0 0 3.058-8.745q.222-.84.435-1.68c.275-1.07.55-2.15.788-3.23L52.423 9.616a23.7 23.7 0 0 1 8.337-7.063A23.3 23.3 0 0 1 71.324.026 23 23 0 0 1 85.879 5.12c6.93 5.33 11.056 15.827 11.056 15.827.602 1.367.911 2.848.909 4.345a10.7 10.7 0 0 1-.8 4.038 10.6 10.6 0 0 1-2.259 3.421 10.4 10.4 0 0 1-3.375 2.282 10.25 10.25 0 0 1-8.367-.201 10.4 10.4 0 0 1-3.56-2.794l-.1-.124a14.2 14.2 0 0 1-1.652-2.956 41 41 0 0 0-1.917-3.851 25 25 0 0 0-1.223-1.859 7.6 7.6 0 0 0-1.306-1.456c-.975-.8-2.203-1.12-3.35-.43a2 2 0 0 0-.159.106c-1.179.823-2.005 2.485-2.578 3.762-1.653 3.616-2.6 7.323-3.537 11.13-.176.733-.352 1.466-.518 2.205l-4.38 14.556-6.175 13.84a23.95 23.95 0 0 1-8.275 6.878 23.55 23.55 0 0 1-10.4 2.516c-15 .324-22.118-13.437-22.118-13.437C3.25 48.676.733 29.888.132 23.881.006 22.632 0 21.888 0 21.888c0-1.882.504-3.728 1.46-5.34a10.23 10.23 0 0 1 3.966-3.802 11 11 0 0 1 5.476-1.215c1.765.075 3.483.604 4.991 1.54a9.9 9.9 0 0 1 2.975 2.798c1.41 2.038 1.73 4.574 2.01 6.998a96.7 96.7 0 0 0 3.058 15.715"/><path fill="url(#m)" d="M23.936 38.582A62.5 62.5 0 0 0 28.63 50.49c.898 1.68 1.796 3.359 3.426 4.417.283.18.594.31.92.38 2.402.522 3.719-1.444 4.567-3.24a54 54 0 0 0 3.058-8.745q.222-.84.435-1.68c.275-1.07.55-2.15.788-3.23L52.423 9.616a23.7 23.7 0 0 1 8.337-7.063A23.3 23.3 0 0 1 71.324.026 23 23 0 0 1 85.879 5.12c6.93 5.33 11.056 15.827 11.056 15.827.602 1.367.911 2.848.909 4.345a10.7 10.7 0 0 1-.8 4.038 10.6 10.6 0 0 1-2.259 3.421 10.4 10.4 0 0 1-3.375 2.282 10.25 10.25 0 0 1-8.367-.201 10.4 10.4 0 0 1-3.56-2.794l-.1-.124a14.2 14.2 0 0 1-1.652-2.956 41 41 0 0 0-1.917-3.851 25 25 0 0 0-1.223-1.859 7.6 7.6 0 0 0-1.306-1.456c-.975-.8-2.203-1.12-3.35-.43a2 2 0 0 0-.159.106c-1.179.823-2.005 2.485-2.578 3.762-1.653 3.616-2.6 7.323-3.537 11.13-.176.733-.352 1.466-.518 2.205l-4.38 14.556-6.175 13.84a23.95 23.95 0 0 1-8.275 6.878 23.55 23.55 0 0 1-10.4 2.516c-15 .324-22.118-13.437-22.118-13.437C3.25 48.676.733 29.888.132 23.881.006 22.632 0 21.888 0 21.888c0-1.882.504-3.728 1.46-5.34a10.23 10.23 0 0 1 3.966-3.802 11 11 0 0 1 5.476-1.215c1.765.075 3.483.604 4.991 1.54a9.9 9.9 0 0 1 2.975 2.798c1.41 2.038 1.73 4.574 2.01 6.998a96.7 96.7 0 0 0 3.058 15.715"/><path fill="url(#n)" d="M23.936 38.582A62.5 62.5 0 0 0 28.63 50.49c.898 1.68 1.796 3.359 3.426 4.417.283.18.594.31.92.38 2.402.522 3.719-1.444 4.567-3.24a54 54 0 0 0 3.058-8.745q.222-.84.435-1.68c.275-1.07.55-2.15.788-3.23L52.423 9.616a23.7 23.7 0 0 1 8.337-7.063A23.3 23.3 0 0 1 71.324.026 23 23 0 0 1 85.879 5.12c6.93 5.33 11.056 15.827 11.056 15.827.602 1.367.911 2.848.909 4.345a10.7 10.7 0 0 1-.8 4.038 10.6 10.6 0 0 1-2.259 3.421 10.4 10.4 0 0 1-3.375 2.282 10.25 10.25 0 0 1-8.367-.201 10.4 10.4 0 0 1-3.56-2.794l-.1-.124a14.2 14.2 0 0 1-1.652-2.956 41 41 0 0 0-1.917-3.851 25 25 0 0 0-1.223-1.859 7.6 7.6 0 0 0-1.306-1.456c-.975-.8-2.203-1.12-3.35-.43a2 2 0 0 0-.159.106c-1.179.823-2.005 2.485-2.578 3.762-1.653 3.616-2.6 7.323-3.537 11.13-.176.733-.352 1.466-.518 2.205l-4.38 14.556-6.175 13.84a23.95 23.95 0 0 1-8.275 6.878 23.55 23.55 0 0 1-10.4 2.516c-15 .324-22.118-13.437-22.118-13.437C3.25 48.676.733 29.888.132 23.881.006 22.632 0 21.888 0 21.888c0-1.882.504-3.728 1.46-5.34a10.23 10.23 0 0 1 3.966-3.802 11 11 0 0 1 5.476-1.215c1.765.075 3.483.604 4.991 1.54a9.9 9.9 0 0 1 2.975 2.798c1.41 2.038 1.73 4.574 2.01 6.998a96.7 96.7 0 0 0 3.058 15.715"/><path fill="url(#o)" d="M23.936 38.582A62.5 62.5 0 0 0 28.63 50.49c.898 1.68 1.796 3.359 3.426 4.417.283.18.594.31.92.38 2.402.522 3.719-1.444 4.567-3.24a54 54 0 0 0 3.058-8.745q.222-.84.435-1.68c.275-1.07.55-2.15.788-3.23L52.423 9.616a23.7 23.7 0 0 1 8.337-7.063A23.3 23.3 0 0 1 71.324.026 23 23 0 0 1 85.879 5.12c6.93 5.33 11.056 15.827 11.056 15.827.602 1.367.911 2.848.909 4.345a10.7 10.7 0 0 1-.8 4.038 10.6 10.6 0 0 1-2.259 3.421 10.4 10.4 0 0 1-3.375 2.282 10.25 10.25 0 0 1-8.367-.201 10.4 10.4 0 0 1-3.56-2.794l-.1-.124a14.2 14.2 0 0 1-1.652-2.956 41 41 0 0 0-1.917-3.851 25 25 0 0 0-1.223-1.859 7.6 7.6 0 0 0-1.306-1.456c-.975-.8-2.203-1.12-3.35-.43a2 2 0 0 0-.159.106c-1.179.823-2.005 2.485-2.578 3.762-1.653 3.616-2.6 7.323-3.537 11.13-.176.733-.352 1.466-.518 2.205l-4.38 14.556-6.175 13.84a23.95 23.95 0 0 1-8.275 6.878 23.55 23.55 0 0 1-10.4 2.516c-15 .324-22.118-13.437-22.118-13.437C3.25 48.676.733 29.888.132 23.881.006 22.632 0 21.888 0 21.888c0-1.882.504-3.728 1.46-5.34a10.23 10.23 0 0 1 3.966-3.802 11 11 0 0 1 5.476-1.215c1.765.075 3.483.604 4.991 1.54a9.9 9.9 0 0 1 2.975 2.798c1.41 2.038 1.73 4.574 2.01 6.998a96.7 96.7 0 0 0 3.058 15.715"/><path fill="url(#p)" d="M23.936 38.582A62.5 62.5 0 0 0 28.63 50.49c.898 1.68 1.796 3.359 3.426 4.417.283.18.594.31.92.38 2.402.522 3.719-1.444 4.567-3.24a54 54 0 0 0 3.058-8.745q.222-.84.435-1.68c.275-1.07.55-2.15.788-3.23L52.423 9.616a23.7 23.7 0 0 1 8.337-7.063A23.3 23.3 0 0 1 71.324.026 23 23 0 0 1 85.879 5.12c6.93 5.33 11.056 15.827 11.056 15.827.602 1.367.911 2.848.909 4.345a10.7 10.7 0 0 1-.8 4.038 10.6 10.6 0 0 1-2.259 3.421 10.4 10.4 0 0 1-3.375 2.282 10.25 10.25 0 0 1-8.367-.201 10.4 10.4 0 0 1-3.56-2.794l-.1-.124a14.2 14.2 0 0 1-1.652-2.956 41 41 0 0 0-1.917-3.851 25 25 0 0 0-1.223-1.859 7.6 7.6 0 0 0-1.306-1.456c-.975-.8-2.203-1.12-3.35-.43a2 2 0 0 0-.159.106c-1.179.823-2.005 2.485-2.578 3.762-1.653 3.616-2.6 7.323-3.537 11.13-.176.733-.352 1.466-.518 2.205l-4.38 14.556-6.175 13.84a23.95 23.95 0 0 1-8.275 6.878 23.55 23.55 0 0 1-10.4 2.516c-15 .324-22.118-13.437-22.118-13.437C3.25 48.676.733 29.888.132 23.881.006 22.632 0 21.888 0 21.888c0-1.882.504-3.728 1.46-5.34a10.23 10.23 0 0 1 3.966-3.802 11 11 0 0 1 5.476-1.215c1.765.075 3.483.604 4.991 1.54a9.9 9.9 0 0 1 2.975 2.798c1.41 2.038 1.73 4.574 2.01 6.998a96.7 96.7 0 0 0 3.058 15.715"/><path fill="url(#q)" d="M23.936 38.582A62.5 62.5 0 0 0 28.63 50.49c.898 1.68 1.796 3.359 3.426 4.417.283.18.594.31.92.38 2.402.522 3.719-1.444 4.567-3.24a54 54 0 0 0 3.058-8.745q.222-.84.435-1.68c.275-1.07.55-2.15.788-3.23L52.423 9.616a23.7 23.7 0 0 1 8.337-7.063A23.3 23.3 0 0 1 71.324.026 23 23 0 0 1 85.879 5.12c6.93 5.33 11.056 15.827 11.056 15.827.602 1.367.911 2.848.909 4.345a10.7 10.7 0 0 1-.8 4.038 10.6 10.6 0 0 1-2.259 3.421 10.4 10.4 0 0 1-3.375 2.282 10.25 10.25 0 0 1-8.367-.201 10.4 10.4 0 0 1-3.56-2.794l-.1-.124a14.2 14.2 0 0 1-1.652-2.956 41 41 0 0 0-1.917-3.851 25 25 0 0 0-1.223-1.859 7.6 7.6 0 0 0-1.306-1.456c-.975-.8-2.203-1.12-3.35-.43a2 2 0 0 0-.159.106c-1.179.823-2.005 2.485-2.578 3.762-1.653 3.616-2.6 7.323-3.537 11.13-.176.733-.352 1.466-.518 2.205l-4.38 14.556-6.175 13.84a23.95 23.95 0 0 1-8.275 6.878 23.55 23.55 0 0 1-10.4 2.516c-15 .324-22.118-13.437-22.118-13.437C3.25 48.676.733 29.888.132 23.881.006 22.632 0 21.888 0 21.888c0-1.882.504-3.728 1.46-5.34a10.23 10.23 0 0 1 3.966-3.802 11 11 0 0 1 5.476-1.215c1.765.075 3.483.604 4.991 1.54a9.9 9.9 0 0 1 2.975 2.798c1.41 2.038 1.73 4.574 2.01 6.998a96.7 96.7 0 0 0 3.058 15.715"/><path fill="url(#r)" d="M23.936 38.582A62.5 62.5 0 0 0 28.63 50.49c.898 1.68 1.796 3.359 3.426 4.417.283.18.594.31.92.38 2.402.522 3.719-1.444 4.567-3.24a54 54 0 0 0 3.058-8.745q.222-.84.435-1.68c.275-1.07.55-2.15.788-3.23L52.423 9.616a23.7 23.7 0 0 1 8.337-7.063A23.3 23.3 0 0 1 71.324.026 23 23 0 0 1 85.879 5.12c6.93 5.33 11.056 15.827 11.056 15.827.602 1.367.911 2.848.909 4.345a10.7 10.7 0 0 1-.8 4.038 10.6 10.6 0 0 1-2.259 3.421 10.4 10.4 0 0 1-3.375 2.282 10.25 10.25 0 0 1-8.367-.201 10.4 10.4 0 0 1-3.56-2.794l-.1-.124a14.2 14.2 0 0 1-1.652-2.956 41 41 0 0 0-1.917-3.851 25 25 0 0 0-1.223-1.859 7.6 7.6 0 0 0-1.306-1.456c-.975-.8-2.203-1.12-3.35-.43a2 2 0 0 0-.159.106c-1.179.823-2.005 2.485-2.578 3.762-1.653 3.616-2.6 7.323-3.537 11.13-.176.733-.352 1.466-.518 2.205l-4.38 14.556-6.175 13.84a23.95 23.95 0 0 1-8.275 6.878 23.55 23.55 0 0 1-10.4 2.516c-15 .324-22.118-13.437-22.118-13.437C3.25 48.676.733 29.888.132 23.881.006 22.632 0 21.888 0 21.888c0-1.882.504-3.728 1.46-5.34a10.23 10.23 0 0 1 3.966-3.802 11 11 0 0 1 5.476-1.215c1.765.075 3.483.604 4.991 1.54a9.9 9.9 0 0 1 2.975 2.798c1.41 2.038 1.73 4.574 2.01 6.998a96.7 96.7 0 0 0 3.058 15.715"/><path fill="url(#s)" d="M23.936 38.582A62.5 62.5 0 0 0 28.63 50.49c.898 1.68 1.796 3.359 3.426 4.417.283.18.594.31.92.38 2.402.522 3.719-1.444 4.567-3.24a54 54 0 0 0 3.058-8.745q.222-.84.435-1.68c.275-1.07.55-2.15.788-3.23L52.423 9.616a23.7 23.7 0 0 1 8.337-7.063A23.3 23.3 0 0 1 71.324.026 23 23 0 0 1 85.879 5.12c6.93 5.33 11.056 15.827 11.056 15.827.602 1.367.911 2.848.909 4.345a10.7 10.7 0 0 1-.8 4.038 10.6 10.6 0 0 1-2.259 3.421 10.4 10.4 0 0 1-3.375 2.282 10.25 10.25 0 0 1-8.367-.201 10.4 10.4 0 0 1-3.56-2.794l-.1-.124a14.2 14.2 0 0 1-1.652-2.956 41 41 0 0 0-1.917-3.851 25 25 0 0 0-1.223-1.859 7.6 7.6 0 0 0-1.306-1.456c-.975-.8-2.203-1.12-3.35-.43a2 2 0 0 0-.159.106c-1.179.823-2.005 2.485-2.578 3.762-1.653 3.616-2.6 7.323-3.537 11.13-.176.733-.352 1.466-.518 2.205l-4.38 14.556-6.175 13.84a23.95 23.95 0 0 1-8.275 6.878 23.55 23.55 0 0 1-10.4 2.516c-15 .324-22.118-13.437-22.118-13.437C3.25 48.676.733 29.888.132 23.881.006 22.632 0 21.888 0 21.888c0-1.882.504-3.728 1.46-5.34a10.23 10.23 0 0 1 3.966-3.802 11 11 0 0 1 5.476-1.215c1.765.075 3.483.604 4.991 1.54a9.9 9.9 0 0 1 2.975 2.798c1.41 2.038 1.73 4.574 2.01 6.998a96.7 96.7 0 0 0 3.058 15.715"/><path fill="url(#t)" d="M23.936 38.582A62.5 62.5 0 0 0 28.63 50.49c.898 1.68 1.796 3.359 3.426 4.417.283.18.594.31.92.38 2.402.522 3.719-1.444 4.567-3.24a54 54 0 0 0 3.058-8.745q.222-.84.435-1.68c.275-1.07.55-2.15.788-3.23L52.423 9.616a23.7 23.7 0 0 1 8.337-7.063A23.3 23.3 0 0 1 71.324.026 23 23 0 0 1 85.879 5.12c6.93 5.33 11.056 15.827 11.056 15.827.602 1.367.911 2.848.909 4.345a10.7 10.7 0 0 1-.8 4.038 10.6 10.6 0 0 1-2.259 3.421 10.4 10.4 0 0 1-3.375 2.282 10.25 10.25 0 0 1-8.367-.201 10.4 10.4 0 0 1-3.56-2.794l-.1-.124a14.2 14.2 0 0 1-1.652-2.956 41 41 0 0 0-1.917-3.851 25 25 0 0 0-1.223-1.859 7.6 7.6 0 0 0-1.306-1.456c-.975-.8-2.203-1.12-3.35-.43a2 2 0 0 0-.159.106c-1.179.823-2.005 2.485-2.578 3.762-1.653 3.616-2.6 7.323-3.537 11.13-.176.733-.352 1.466-.518 2.205l-4.38 14.556-6.175 13.84a23.95 23.95 0 0 1-8.275 6.878 23.55 23.55 0 0 1-10.4 2.516c-15 .324-22.118-13.437-22.118-13.437C3.25 48.676.733 29.888.132 23.881.006 22.632 0 21.888 0 21.888c0-1.882.504-3.728 1.46-5.34a10.23 10.23 0 0 1 3.966-3.802 11 11 0 0 1 5.476-1.215c1.765.075 3.483.604 4.991 1.54a9.9 9.9 0 0 1 2.975 2.798c1.41 2.038 1.73 4.574 2.01 6.998a96.7 96.7 0 0 0 3.058 15.715"/><path fill="url(#u)" d="m45.686 27.906 6.737-18.284a23.7 23.7 0 0 1 8.337-7.063A23.3 23.3 0 0 1 71.324.032 23 23 0 0 1 85.88 5.126c6.93 5.33 11.056 15.827 11.056 15.827a10.702 10.702 0 0 1 .11 8.383 10.6 10.6 0 0 1-2.26 3.42 10.4 10.4 0 0 1-3.375 2.282 10.24 10.24 0 0 1-8.367-.2 10.4 10.4 0 0 1-3.56-2.795l-.1-.123a14 14 0 0 1-1.652-2.956 41 41 0 0 0-1.917-3.851 25 25 0 0 0-1.223-1.86 7.6 7.6 0 0 0-1.306-1.455c-.975-.8-2.203-1.12-3.35-.43a2 2 0 0 0-.159.106c-1.179.823-2.005 2.485-2.578 3.762-1.653 3.616-2.6 7.322-3.537 11.13-.176.733-.352 1.466-.518 2.205l-4.38 14.556z"/><path fill="url(#v)" d="M94.632 11.576a10.2 10.2 0 0 0-2.595.33 50.8 50.8 0 0 1 4.898 9.047c.602 1.367.911 2.847.909 4.344a10.7 10.7 0 0 1-.8 4.04 10.6 10.6 0 0 1-2.259 3.42 10.4 10.4 0 0 1-3.376 2.281 10.24 10.24 0 0 1-9.222-.66l-1.068 4.014c-1.94 6.59-3.305 9.137-3.305 9.137a36 36 0 0 1-2.678 5.145c-.71 1.069-1.62 2.144-2.864 2.552-.434.154-.896.2-1.35.135a3.6 3.6 0 0 1-1.394-.476 6.2 6.2 0 0 1-1.895-2.396q-.791-1.578-1.416-3.23c-.92-2.273-2.341-7.872-2.341-7.872l-1.471-5.861-1.47-5.907-1.048-3.88c-2.754-10.105-6.566-15.076-6.566-15.076a25.33 25.33 0 0 0-12.153-9.428C35.472-.842 29.495.328 29.495.328c-9.366 1.87-14.285 8.398-16.45 11.539.99.263 1.939.67 2.815 1.209a9.9 9.9 0 0 1 2.975 2.8c1.41 2.037 1.73 4.573 2.01 6.997a96.5 96.5 0 0 0 3.053 15.53c3.173-10.693 6.98-15.675 6.98-15.675a6.2 6.2 0 0 1 1.509-1.366c.299-.187.633-.307.98-.353a2.84 2.84 0 0 1 1.835.453q.15.1.28.224c.498.449.926.972 1.268 1.551a34 34 0 0 1 2.055 4.479c1.19 3.404 2.203 7.563 2.203 7.563l3.03 12.138c2.204 8.252 4.071 12.26 4.071 12.26 4.6 10.704 11.635 13.716 11.635 13.716a24.35 24.35 0 0 0 11.117 2.956 22.8 22.8 0 0 0 10.72-2.346 27.4 27.4 0 0 0 9.393-7.72c1.703-2.004 4.21-6.886 4.21-6.886a89 89 0 0 0 6.472-17.54 114 114 0 0 0 2.363-11.465c.298-1.915.579-3.84.805-5.772a15.2 15.2 0 0 0-.166-5.503 8 8 0 0 0-.303-.958 10.35 10.35 0 0 0-4.638-5.313 10.55 10.55 0 0 0-5.085-1.27"/><path fill="url(#w)" d="M94.632 11.576a10.2 10.2 0 0 0-2.595.33 50.8 50.8 0 0 1 4.898 9.047c.602 1.367.911 2.847.909 4.344a10.7 10.7 0 0 1-.8 4.04 10.6 10.6 0 0 1-2.259 3.42 10.4 10.4 0 0 1-3.376 2.281 10.24 10.24 0 0 1-9.222-.66l-1.068 4.014c-1.94 6.59-3.305 9.137-3.305 9.137a36 36 0 0 1-2.678 5.145c-.71 1.069-1.62 2.144-2.864 2.552-.434.154-.896.2-1.35.135a3.6 3.6 0 0 1-1.394-.476 6.2 6.2 0 0 1-1.895-2.396q-.791-1.578-1.416-3.23c-.92-2.273-2.341-7.872-2.341-7.872l-1.471-5.861-1.47-5.907-1.048-3.88c-2.754-10.105-6.566-15.076-6.566-15.076a25.33 25.33 0 0 0-12.153-9.428C35.472-.842 29.495.328 29.495.328c-9.366 1.87-14.285 8.398-16.45 11.539.99.263 1.939.67 2.815 1.209a9.9 9.9 0 0 1 2.975 2.8c1.41 2.037 1.73 4.573 2.01 6.997a96.5 96.5 0 0 0 3.053 15.53c3.173-10.693 6.98-15.675 6.98-15.675a6.2 6.2 0 0 1 1.509-1.366c.299-.187.633-.307.98-.353a2.84 2.84 0 0 1 1.835.453q.15.1.28.224c.498.449.926.972 1.268 1.551a34 34 0 0 1 2.055 4.479c1.19 3.404 2.203 7.563 2.203 7.563l3.03 12.138c2.204 8.252 4.071 12.26 4.071 12.26 4.6 10.704 11.635 13.716 11.635 13.716a24.35 24.35 0 0 0 11.117 2.956 22.8 22.8 0 0 0 10.72-2.346 27.4 27.4 0 0 0 9.393-7.72c1.703-2.004 4.21-6.886 4.21-6.886a89 89 0 0 0 6.472-17.54 114 114 0 0 0 2.363-11.465c.298-1.915.579-3.84.805-5.772a15.2 15.2 0 0 0-.166-5.503 8 8 0 0 0-.303-.958 10.35 10.35 0 0 0-4.638-5.313 10.55 10.55 0 0 0-5.085-1.27"/><path fill="url(#x)" d="M94.632 11.576a10.2 10.2 0 0 0-2.595.33 50.8 50.8 0 0 1 4.898 9.047c.602 1.367.911 2.847.909 4.344a10.7 10.7 0 0 1-.8 4.04 10.6 10.6 0 0 1-2.259 3.42 10.4 10.4 0 0 1-3.376 2.281 10.24 10.24 0 0 1-9.222-.66l-1.068 4.014c-1.94 6.59-3.305 9.137-3.305 9.137a36 36 0 0 1-2.678 5.145c-.71 1.069-1.62 2.144-2.864 2.552-.434.154-.896.2-1.35.135a3.6 3.6 0 0 1-1.394-.476 6.2 6.2 0 0 1-1.895-2.396q-.791-1.578-1.416-3.23c-.92-2.273-2.341-7.872-2.341-7.872l-1.471-5.861-1.47-5.907-1.048-3.88c-2.754-10.105-6.566-15.076-6.566-15.076a25.33 25.33 0 0 0-12.153-9.428C35.472-.842 29.495.328 29.495.328c-9.366 1.87-14.285 8.398-16.45 11.539.99.263 1.939.67 2.815 1.209a9.9 9.9 0 0 1 2.975 2.8c1.41 2.037 1.73 4.573 2.01 6.997a96.5 96.5 0 0 0 3.053 15.53c3.173-10.693 6.98-15.675 6.98-15.675a6.2 6.2 0 0 1 1.509-1.366c.299-.187.633-.307.98-.353a2.84 2.84 0 0 1 1.835.453q.15.1.28.224c.498.449.926.972 1.268 1.551a34 34 0 0 1 2.055 4.479c1.19 3.404 2.203 7.563 2.203 7.563l3.03 12.138c2.204 8.252 4.071 12.26 4.071 12.26 4.6 10.704 11.635 13.716 11.635 13.716a24.35 24.35 0 0 0 11.117 2.956 22.8 22.8 0 0 0 10.72-2.346 27.4 27.4 0 0 0 9.393-7.72c1.703-2.004 4.21-6.886 4.21-6.886a89 89 0 0 0 6.472-17.54 114 114 0 0 0 2.363-11.465c.298-1.915.579-3.84.805-5.772a15.2 15.2 0 0 0-.166-5.503 8 8 0 0 0-.303-.958 10.35 10.35 0 0 0-4.638-5.313 10.55 10.55 0 0 0-5.085-1.27"/><path fill="url(#y)" d="M94.632 11.576a10.2 10.2 0 0 0-2.595.33 50.8 50.8 0 0 1 4.898 9.047c.602 1.367.911 2.847.909 4.344a10.7 10.7 0 0 1-.8 4.04 10.6 10.6 0 0 1-2.259 3.42 10.4 10.4 0 0 1-3.376 2.281 10.24 10.24 0 0 1-9.222-.66l-1.068 4.014c-1.94 6.59-3.305 9.137-3.305 9.137a36 36 0 0 1-2.678 5.145c-.71 1.069-1.62 2.144-2.864 2.552-.434.154-.896.2-1.35.135a3.6 3.6 0 0 1-1.394-.476 6.2 6.2 0 0 1-1.895-2.396q-.791-1.578-1.416-3.23c-.92-2.273-2.341-7.872-2.341-7.872l-1.471-5.861-1.47-5.907-1.048-3.88c-2.754-10.105-6.566-15.076-6.566-15.076a25.33 25.33 0 0 0-12.153-9.428C35.472-.842 29.495.328 29.495.328c-9.366 1.87-14.285 8.398-16.45 11.539.99.263 1.939.67 2.815 1.209a9.9 9.9 0 0 1 2.975 2.8c1.41 2.037 1.73 4.573 2.01 6.997a96.5 96.5 0 0 0 3.053 15.53c3.173-10.693 6.98-15.675 6.98-15.675a6.2 6.2 0 0 1 1.509-1.366c.299-.187.633-.307.98-.353a2.84 2.84 0 0 1 1.835.453q.15.1.28.224c.498.449.926.972 1.268 1.551a34 34 0 0 1 2.055 4.479c1.19 3.404 2.203 7.563 2.203 7.563l3.03 12.138c2.204 8.252 4.071 12.26 4.071 12.26 4.6 10.704 11.635 13.716 11.635 13.716a24.35 24.35 0 0 0 11.117 2.956 22.8 22.8 0 0 0 10.72-2.346 27.4 27.4 0 0 0 9.393-7.72c1.703-2.004 4.21-6.886 4.21-6.886a89 89 0 0 0 6.472-17.54 114 114 0 0 0 2.363-11.465c.298-1.915.579-3.84.805-5.772a15.2 15.2 0 0 0-.166-5.503 8 8 0 0 0-.303-.958 10.35 10.35 0 0 0-4.638-5.313 10.55 10.55 0 0 0-5.085-1.27"/><path fill="url(#z)" d="M94.632 11.576a10.2 10.2 0 0 0-2.595.33 50.8 50.8 0 0 1 4.898 9.047c.602 1.367.911 2.847.909 4.344a10.7 10.7 0 0 1-.8 4.04 10.6 10.6 0 0 1-2.259 3.42 10.4 10.4 0 0 1-3.376 2.281 10.24 10.24 0 0 1-9.222-.66l-1.068 4.014c-1.94 6.59-3.305 9.137-3.305 9.137a36 36 0 0 1-2.678 5.145c-.71 1.069-1.62 2.144-2.864 2.552-.434.154-.896.2-1.35.135a3.6 3.6 0 0 1-1.394-.476 6.2 6.2 0 0 1-1.895-2.396q-.791-1.578-1.416-3.23c-.92-2.273-2.341-7.872-2.341-7.872l-1.471-5.861-1.47-5.907-1.048-3.88c-2.754-10.105-6.566-15.076-6.566-15.076a25.33 25.33 0 0 0-12.153-9.428C35.472-.842 29.495.328 29.495.328c-9.366 1.87-14.285 8.398-16.45 11.539.99.263 1.939.67 2.815 1.209a9.9 9.9 0 0 1 2.975 2.8c1.41 2.037 1.73 4.573 2.01 6.997a96.5 96.5 0 0 0 3.053 15.53c3.173-10.693 6.98-15.675 6.98-15.675a6.2 6.2 0 0 1 1.509-1.366c.299-.187.633-.307.98-.353a2.84 2.84 0 0 1 1.835.453q.15.1.28.224c.498.449.926.972 1.268 1.551a34 34 0 0 1 2.055 4.479c1.19 3.404 2.203 7.563 2.203 7.563l3.03 12.138c2.204 8.252 4.071 12.26 4.071 12.26 4.6 10.704 11.635 13.716 11.635 13.716a24.35 24.35 0 0 0 11.117 2.956 22.8 22.8 0 0 0 10.72-2.346 27.4 27.4 0 0 0 9.393-7.72c1.703-2.004 4.21-6.886 4.21-6.886a89 89 0 0 0 6.472-17.54 114 114 0 0 0 2.363-11.465c.298-1.915.579-3.84.805-5.772a15.2 15.2 0 0 0-.166-5.503 8 8 0 0 0-.303-.958 10.35 10.35 0 0 0-4.638-5.313 10.55 10.55 0 0 0-5.085-1.27"/><path fill="url(#A)" d="M94.632 11.576a10.2 10.2 0 0 0-2.595.33 50.8 50.8 0 0 1 4.898 9.047c.602 1.367.911 2.847.909 4.344a10.7 10.7 0 0 1-.8 4.04 10.6 10.6 0 0 1-2.259 3.42 10.4 10.4 0 0 1-3.376 2.281 10.24 10.24 0 0 1-9.222-.66l-1.068 4.014c-1.94 6.59-3.305 9.137-3.305 9.137a36 36 0 0 1-2.678 5.145c-.71 1.069-1.62 2.144-2.864 2.552-.434.154-.896.2-1.35.135a3.6 3.6 0 0 1-1.394-.476 6.2 6.2 0 0 1-1.895-2.396q-.791-1.578-1.416-3.23c-.92-2.273-2.341-7.872-2.341-7.872l-1.471-5.861-1.47-5.907-1.048-3.88c-2.754-10.105-6.566-15.076-6.566-15.076a25.33 25.33 0 0 0-12.153-9.428C35.472-.842 29.495.328 29.495.328c-9.366 1.87-14.285 8.398-16.45 11.539.99.263 1.939.67 2.815 1.209a9.9 9.9 0 0 1 2.975 2.8c1.41 2.037 1.73 4.573 2.01 6.997a96.5 96.5 0 0 0 3.053 15.53c3.173-10.693 6.98-15.675 6.98-15.675a6.2 6.2 0 0 1 1.509-1.366c.299-.187.633-.307.98-.353a2.84 2.84 0 0 1 1.835.453q.15.1.28.224c.498.449.926.972 1.268 1.551a34 34 0 0 1 2.055 4.479c1.19 3.404 2.203 7.563 2.203 7.563l3.03 12.138c2.204 8.252 4.071 12.26 4.071 12.26 4.6 10.704 11.635 13.716 11.635 13.716a24.35 24.35 0 0 0 11.117 2.956 22.8 22.8 0 0 0 10.72-2.346 27.4 27.4 0 0 0 9.393-7.72c1.703-2.004 4.21-6.886 4.21-6.886a89 89 0 0 0 6.472-17.54 114 114 0 0 0 2.363-11.465c.298-1.915.579-3.84.805-5.772a15.2 15.2 0 0 0-.166-5.503 8 8 0 0 0-.303-.958 10.35 10.35 0 0 0-4.638-5.313 10.55 10.55 0 0 0-5.085-1.27"/><path fill="url(#B)" d="M94.632 11.576a10.2 10.2 0 0 0-2.595.33 50.8 50.8 0 0 1 4.898 9.047c.602 1.367.911 2.847.909 4.344a10.7 10.7 0 0 1-.8 4.04 10.6 10.6 0 0 1-2.259 3.42 10.4 10.4 0 0 1-3.376 2.281 10.24 10.24 0 0 1-9.222-.66l-1.068 4.014c-1.94 6.59-3.305 9.137-3.305 9.137a36 36 0 0 1-2.678 5.145c-.71 1.069-1.62 2.144-2.864 2.552-.434.154-.896.2-1.35.135a3.6 3.6 0 0 1-1.394-.476 6.2 6.2 0 0 1-1.895-2.396q-.791-1.578-1.416-3.23c-.92-2.273-2.341-7.872-2.341-7.872l-1.471-5.861-1.47-5.907-1.048-3.88c-2.754-10.105-6.566-15.076-6.566-15.076a25.33 25.33 0 0 0-12.153-9.428C35.472-.842 29.495.328 29.495.328c-9.366 1.87-14.285 8.398-16.45 11.539.99.263 1.939.67 2.815 1.209a9.9 9.9 0 0 1 2.975 2.8c1.41 2.037 1.73 4.573 2.01 6.997a96.5 96.5 0 0 0 3.053 15.53c3.173-10.693 6.98-15.675 6.98-15.675a6.2 6.2 0 0 1 1.509-1.366c.299-.187.633-.307.98-.353a2.84 2.84 0 0 1 1.835.453q.15.1.28.224c.498.449.926.972 1.268 1.551a34 34 0 0 1 2.055 4.479c1.19 3.404 2.203 7.563 2.203 7.563l3.03 12.138c2.204 8.252 4.071 12.26 4.071 12.26 4.6 10.704 11.635 13.716 11.635 13.716a24.35 24.35 0 0 0 11.117 2.956 22.8 22.8 0 0 0 10.72-2.346 27.4 27.4 0 0 0 9.393-7.72c1.703-2.004 4.21-6.886 4.21-6.886a89 89 0 0 0 6.472-17.54 114 114 0 0 0 2.363-11.465c.298-1.915.579-3.84.805-5.772a15.2 15.2 0 0 0-.166-5.503 8 8 0 0 0-.303-.958 10.35 10.35 0 0 0-4.638-5.313 10.55 10.55 0 0 0-5.085-1.27"/><path fill="url(#C)" d="M94.632 11.576a10.2 10.2 0 0 0-2.595.33 50.8 50.8 0 0 1 4.898 9.047c.602 1.367.911 2.847.909 4.344a10.7 10.7 0 0 1-.8 4.04 10.6 10.6 0 0 1-2.259 3.42 10.4 10.4 0 0 1-3.376 2.281 10.24 10.24 0 0 1-9.222-.66l-1.068 4.014c-1.94 6.59-3.305 9.137-3.305 9.137a36 36 0 0 1-2.678 5.145c-.71 1.069-1.62 2.144-2.864 2.552-.434.154-.896.2-1.35.135a3.6 3.6 0 0 1-1.394-.476 6.2 6.2 0 0 1-1.895-2.396q-.791-1.578-1.416-3.23c-.92-2.273-2.341-7.872-2.341-7.872l-1.471-5.861-1.47-5.907-1.048-3.88c-2.754-10.105-6.566-15.076-6.566-15.076a25.33 25.33 0 0 0-12.153-9.428C35.472-.842 29.495.328 29.495.328c-9.366 1.87-14.285 8.398-16.45 11.539.99.263 1.939.67 2.815 1.209a9.9 9.9 0 0 1 2.975 2.8c1.41 2.037 1.73 4.573 2.01 6.997a96.5 96.5 0 0 0 3.053 15.53c3.173-10.693 6.98-15.675 6.98-15.675a6.2 6.2 0 0 1 1.509-1.366c.299-.187.633-.307.98-.353a2.84 2.84 0 0 1 1.835.453q.15.1.28.224c.498.449.926.972 1.268 1.551a34 34 0 0 1 2.055 4.479c1.19 3.404 2.203 7.563 2.203 7.563l3.03 12.138c2.204 8.252 4.071 12.26 4.071 12.26 4.6 10.704 11.635 13.716 11.635 13.716a24.35 24.35 0 0 0 11.117 2.956 22.8 22.8 0 0 0 10.72-2.346 27.4 27.4 0 0 0 9.393-7.72c1.703-2.004 4.21-6.886 4.21-6.886a89 89 0 0 0 6.472-17.54 114 114 0 0 0 2.363-11.465c.298-1.915.579-3.84.805-5.772a15.2 15.2 0 0 0-.166-5.503 8 8 0 0 0-.303-.958 10.35 10.35 0 0 0-4.638-5.313 10.55 10.55 0 0 0-5.085-1.27"/><path fill="url(#D)" d="M94.632 11.576a10.2 10.2 0 0 0-2.595.33 50.8 50.8 0 0 1 4.898 9.047c.602 1.367.911 2.847.909 4.344a10.7 10.7 0 0 1-.8 4.04 10.6 10.6 0 0 1-2.259 3.42 10.4 10.4 0 0 1-3.376 2.281 10.24 10.24 0 0 1-9.222-.66l-1.068 4.014c-1.94 6.59-3.305 9.137-3.305 9.137a36 36 0 0 1-2.678 5.145c-.71 1.069-1.62 2.144-2.864 2.552-.434.154-.896.2-1.35.135a3.6 3.6 0 0 1-1.394-.476 6.2 6.2 0 0 1-1.895-2.396q-.791-1.578-1.416-3.23c-.92-2.273-2.341-7.872-2.341-7.872l-1.471-5.861-1.47-5.907-1.048-3.88c-2.754-10.105-6.566-15.076-6.566-15.076a25.33 25.33 0 0 0-12.153-9.428C35.472-.842 29.495.328 29.495.328c-9.366 1.87-14.285 8.398-16.45 11.539.99.263 1.939.67 2.815 1.209a9.9 9.9 0 0 1 2.975 2.8c1.41 2.037 1.73 4.573 2.01 6.997a96.5 96.5 0 0 0 3.053 15.53c3.173-10.693 6.98-15.675 6.98-15.675a6.2 6.2 0 0 1 1.509-1.366c.299-.187.633-.307.98-.353a2.84 2.84 0 0 1 1.835.453q.15.1.28.224c.498.449.926.972 1.268 1.551a34 34 0 0 1 2.055 4.479c1.19 3.404 2.203 7.563 2.203 7.563l3.03 12.138c2.204 8.252 4.071 12.26 4.071 12.26 4.6 10.704 11.635 13.716 11.635 13.716a24.35 24.35 0 0 0 11.117 2.956 22.8 22.8 0 0 0 10.72-2.346 27.4 27.4 0 0 0 9.393-7.72c1.703-2.004 4.21-6.886 4.21-6.886a89 89 0 0 0 6.472-17.54 114 114 0 0 0 2.363-11.465c.298-1.915.579-3.84.805-5.772a15.2 15.2 0 0 0-.166-5.503 8 8 0 0 0-.303-.958 10.35 10.35 0 0 0-4.638-5.313 10.55 10.55 0 0 0-5.085-1.27"/><path fill="url(#E)" d="M94.632 11.576a10.2 10.2 0 0 0-2.595.33 50.8 50.8 0 0 1 4.898 9.047c.602 1.367.911 2.847.909 4.344a10.7 10.7 0 0 1-.8 4.04 10.6 10.6 0 0 1-2.259 3.42 10.4 10.4 0 0 1-3.376 2.281 10.24 10.24 0 0 1-9.222-.66l-1.068 4.014c-1.94 6.59-3.305 9.137-3.305 9.137a36 36 0 0 1-2.678 5.145c-.71 1.069-1.62 2.144-2.864 2.552-.434.154-.896.2-1.35.135a3.6 3.6 0 0 1-1.394-.476 6.2 6.2 0 0 1-1.895-2.396q-.791-1.578-1.416-3.23c-.92-2.273-2.341-7.872-2.341-7.872l-1.471-5.861-1.47-5.907-1.048-3.88c-2.754-10.105-6.566-15.076-6.566-15.076a25.33 25.33 0 0 0-12.153-9.428C35.472-.842 29.495.328 29.495.328c-9.366 1.87-14.285 8.398-16.45 11.539.99.263 1.939.67 2.815 1.209a9.9 9.9 0 0 1 2.975 2.8c1.41 2.037 1.73 4.573 2.01 6.997a96.5 96.5 0 0 0 3.053 15.53c3.173-10.693 6.98-15.675 6.98-15.675a6.2 6.2 0 0 1 1.509-1.366c.299-.187.633-.307.98-.353a2.84 2.84 0 0 1 1.835.453q.15.1.28.224c.498.449.926.972 1.268 1.551a34 34 0 0 1 2.055 4.479c1.19 3.404 2.203 7.563 2.203 7.563l3.03 12.138c2.204 8.252 4.071 12.26 4.071 12.26 4.6 10.704 11.635 13.716 11.635 13.716a24.35 24.35 0 0 0 11.117 2.956 22.8 22.8 0 0 0 10.72-2.346 27.4 27.4 0 0 0 9.393-7.72c1.703-2.004 4.21-6.886 4.21-6.886a89 89 0 0 0 6.472-17.54 114 114 0 0 0 2.363-11.465c.298-1.915.579-3.84.805-5.772a15.2 15.2 0 0 0-.166-5.503 8 8 0 0 0-.303-.958 10.35 10.35 0 0 0-4.638-5.313 10.55 10.55 0 0 0-5.085-1.27"/><path fill="url(#F)" d="M94.632 11.576a10.2 10.2 0 0 0-2.595.33 50.8 50.8 0 0 1 4.898 9.047c.602 1.367.911 2.847.909 4.344a10.7 10.7 0 0 1-.8 4.04 10.6 10.6 0 0 1-2.259 3.42 10.4 10.4 0 0 1-3.376 2.281 10.24 10.24 0 0 1-9.222-.66l-1.068 4.014c-1.94 6.59-3.305 9.137-3.305 9.137a36 36 0 0 1-2.678 5.145c-.71 1.069-1.62 2.144-2.864 2.552-.434.154-.896.2-1.35.135a3.6 3.6 0 0 1-1.394-.476 6.2 6.2 0 0 1-1.895-2.396q-.791-1.578-1.416-3.23c-.92-2.273-2.341-7.872-2.341-7.872l-1.471-5.861-1.47-5.907-1.048-3.88c-2.754-10.105-6.566-15.076-6.566-15.076a25.33 25.33 0 0 0-12.153-9.428C35.472-.842 29.495.328 29.495.328c-9.366 1.87-14.285 8.398-16.45 11.539.99.263 1.939.67 2.815 1.209a9.9 9.9 0 0 1 2.975 2.8c1.41 2.037 1.73 4.573 2.01 6.997a96.5 96.5 0 0 0 3.053 15.53c3.173-10.693 6.98-15.675 6.98-15.675a6.2 6.2 0 0 1 1.509-1.366c.299-.187.633-.307.98-.353a2.84 2.84 0 0 1 1.835.453q.15.1.28.224c.498.449.926.972 1.268 1.551a34 34 0 0 1 2.055 4.479c1.19 3.404 2.203 7.563 2.203 7.563l3.03 12.138c2.204 8.252 4.071 12.26 4.071 12.26 4.6 10.704 11.635 13.716 11.635 13.716a24.35 24.35 0 0 0 11.117 2.956 22.8 22.8 0 0 0 10.72-2.346 27.4 27.4 0 0 0 9.393-7.72c1.703-2.004 4.21-6.886 4.21-6.886a89 89 0 0 0 6.472-17.54 114 114 0 0 0 2.363-11.465c.298-1.915.579-3.84.805-5.772a15.2 15.2 0 0 0-.166-5.503 8 8 0 0 0-.303-.958 10.35 10.35 0 0 0-4.638-5.313 10.55 10.55 0 0 0-5.085-1.27"/><path fill="url(#G)" d="M94.632 11.576a10.2 10.2 0 0 0-2.595.33 50.8 50.8 0 0 1 4.898 9.047c.602 1.367.911 2.847.909 4.344a10.7 10.7 0 0 1-.8 4.04 10.6 10.6 0 0 1-2.259 3.42 10.4 10.4 0 0 1-3.376 2.281 10.24 10.24 0 0 1-9.222-.66l-1.068 4.014c-1.94 6.59-3.305 9.137-3.305 9.137a36 36 0 0 1-2.678 5.145c-.71 1.069-1.62 2.144-2.864 2.552-.434.154-.896.2-1.35.135a3.6 3.6 0 0 1-1.394-.476 6.2 6.2 0 0 1-1.895-2.396q-.791-1.578-1.416-3.23c-.92-2.273-2.341-7.872-2.341-7.872l-1.471-5.861-1.47-5.907-1.048-3.88c-2.754-10.105-6.566-15.076-6.566-15.076a25.33 25.33 0 0 0-12.153-9.428C35.472-.842 29.495.328 29.495.328c-9.366 1.87-14.285 8.398-16.45 11.539.99.263 1.939.67 2.815 1.209a9.9 9.9 0 0 1 2.975 2.8c1.41 2.037 1.73 4.573 2.01 6.997a96.5 96.5 0 0 0 3.053 15.53c3.173-10.693 6.98-15.675 6.98-15.675a6.2 6.2 0 0 1 1.509-1.366c.299-.187.633-.307.98-.353a2.84 2.84 0 0 1 1.835.453q.15.1.28.224c.498.449.926.972 1.268 1.551a34 34 0 0 1 2.055 4.479c1.19 3.404 2.203 7.563 2.203 7.563l3.03 12.138c2.204 8.252 4.071 12.26 4.071 12.26 4.6 10.704 11.635 13.716 11.635 13.716a24.35 24.35 0 0 0 11.117 2.956 22.8 22.8 0 0 0 10.72-2.346 27.4 27.4 0 0 0 9.393-7.72c1.703-2.004 4.21-6.886 4.21-6.886a89 89 0 0 0 6.472-17.54 114 114 0 0 0 2.363-11.465c.298-1.915.579-3.84.805-5.772a15.2 15.2 0 0 0-.166-5.503 8 8 0 0 0-.303-.958 10.35 10.35 0 0 0-4.638-5.313 10.55 10.55 0 0 0-5.085-1.27"/><path fill="url(#H)" d="M94.632 11.576a10.2 10.2 0 0 0-2.595.33 50.8 50.8 0 0 1 4.898 9.047c.602 1.367.911 2.847.909 4.344a10.7 10.7 0 0 1-.8 4.04 10.6 10.6 0 0 1-2.259 3.42 10.4 10.4 0 0 1-3.376 2.281 10.24 10.24 0 0 1-9.222-.66l-1.068 4.014c-1.94 6.59-3.305 9.137-3.305 9.137a36 36 0 0 1-2.678 5.145c-.71 1.069-1.62 2.144-2.864 2.552-.434.154-.896.2-1.35.135a3.6 3.6 0 0 1-1.394-.476 6.2 6.2 0 0 1-1.895-2.396q-.791-1.578-1.416-3.23c-.92-2.273-2.341-7.872-2.341-7.872l-1.471-5.861-1.47-5.907-1.048-3.88c-2.754-10.105-6.566-15.076-6.566-15.076a25.33 25.33 0 0 0-12.153-9.428C35.472-.842 29.495.328 29.495.328c-9.366 1.87-14.285 8.398-16.45 11.539.99.263 1.939.67 2.815 1.209a9.9 9.9 0 0 1 2.975 2.8c1.41 2.037 1.73 4.573 2.01 6.997a96.5 96.5 0 0 0 3.053 15.53c3.173-10.693 6.98-15.675 6.98-15.675a6.2 6.2 0 0 1 1.509-1.366c.299-.187.633-.307.98-.353a2.84 2.84 0 0 1 1.835.453q.15.1.28.224c.498.449.926.972 1.268 1.551a34 34 0 0 1 2.055 4.479c1.19 3.404 2.203 7.563 2.203 7.563l3.03 12.138c2.204 8.252 4.071 12.26 4.071 12.26 4.6 10.704 11.635 13.716 11.635 13.716a24.35 24.35 0 0 0 11.117 2.956 22.8 22.8 0 0 0 10.72-2.346 27.4 27.4 0 0 0 9.393-7.72c1.703-2.004 4.21-6.886 4.21-6.886a89 89 0 0 0 6.472-17.54 114 114 0 0 0 2.363-11.465c.298-1.915.579-3.84.805-5.772a15.2 15.2 0 0 0-.166-5.503 8 8 0 0 0-.303-.958 10.35 10.35 0 0 0-4.638-5.313 10.55 10.55 0 0 0-5.085-1.27"/><path fill="url(#I)" d="M94.632 11.576a10.2 10.2 0 0 0-2.595.33 50.8 50.8 0 0 1 4.898 9.047c.602 1.367.911 2.847.909 4.344a10.7 10.7 0 0 1-.8 4.04 10.6 10.6 0 0 1-2.259 3.42 10.4 10.4 0 0 1-3.376 2.281 10.24 10.24 0 0 1-9.222-.66l-1.068 4.014c-1.94 6.59-3.305 9.137-3.305 9.137a36 36 0 0 1-2.678 5.145c-.71 1.069-1.62 2.144-2.864 2.552-.434.154-.896.2-1.35.135a3.6 3.6 0 0 1-1.394-.476 6.2 6.2 0 0 1-1.895-2.396q-.791-1.578-1.416-3.23c-.92-2.273-2.341-7.872-2.341-7.872l-1.471-5.861-1.47-5.907-1.048-3.88c-2.754-10.105-6.566-15.076-6.566-15.076a25.33 25.33 0 0 0-12.153-9.428C35.472-.842 29.495.328 29.495.328c-9.366 1.87-14.285 8.398-16.45 11.539.99.263 1.939.67 2.815 1.209a9.9 9.9 0 0 1 2.975 2.8c1.41 2.037 1.73 4.573 2.01 6.997a96.5 96.5 0 0 0 3.053 15.53c3.173-10.693 6.98-15.675 6.98-15.675a6.2 6.2 0 0 1 1.509-1.366c.299-.187.633-.307.98-.353a2.84 2.84 0 0 1 1.835.453q.15.1.28.224c.498.449.926.972 1.268 1.551a34 34 0 0 1 2.055 4.479c1.19 3.404 2.203 7.563 2.203 7.563l3.03 12.138c2.204 8.252 4.071 12.26 4.071 12.26 4.6 10.704 11.635 13.716 11.635 13.716a24.35 24.35 0 0 0 11.117 2.956 22.8 22.8 0 0 0 10.72-2.346 27.4 27.4 0 0 0 9.393-7.72c1.703-2.004 4.21-6.886 4.21-6.886a89 89 0 0 0 6.472-17.54 114 114 0 0 0 2.363-11.465c.298-1.915.579-3.84.805-5.772a15.2 15.2 0 0 0-.166-5.503 8 8 0 0 0-.303-.958 10.35 10.35 0 0 0-4.638-5.313 10.55 10.55 0 0 0-5.085-1.27"/><defs><radialGradient id="b" cx="0" cy="0" r="1" gradientTransform="rotate(74.559 8.6 54.733)scale(39.6188 29.6978)" gradientUnits="userSpaceOnUse"><stop stop-color="#227B60"/><stop offset=".14" stop-color="#227B60" stop-opacity=".81"/><stop offset=".58" stop-color="#227B60" stop-opacity=".23"/><stop offset=".78" stop-color="#227B60" stop-opacity="0"/></radialGradient><radialGradient id="c" cx="0" cy="0" r="1" gradientTransform="matrix(-.52778 26.8164 -20.05222 -.39465 64.729 29.114)" gradientUnits="userSpaceOnUse"><stop stop-color="#227B60"/><stop offset=".25" stop-color="#227B60" stop-opacity=".7"/><stop offset=".71" stop-color="#227B60" stop-opacity=".2"/><stop offset=".92" stop-color="#227B60" stop-opacity="0"/></radialGradient><radialGradient id="d" cx="0" cy="0" r="1" gradientTransform="rotate(88.622 16.44 47.68)scale(25.0023 17.4682)" gradientUnits="userSpaceOnUse"><stop stop-color="#227B60"/><stop offset=".07" stop-color="#227B60" stop-opacity=".9"/><stop offset=".34" stop-color="#227B60" stop-opacity=".51"/><stop offset=".59" stop-color="#227B60" stop-opacity=".23"/><stop offset=".79" stop-color="#227B60" stop-opacity=".06"/><stop offset=".92" stop-color="#227B60" stop-opacity="0"/></radialGradient><radialGradient id="e" cx="0" cy="0" r="1" gradientTransform="rotate(88.622 17.232 47.323)scale(20.1877 14.1044)" gradientUnits="userSpaceOnUse"><stop stop-color="#227B60"/><stop offset=".36" stop-color="#227B60" stop-opacity=".63"/><stop offset=".92" stop-color="#227B60" stop-opacity="0"/></radialGradient><radialGradient id="f" cx="0" cy="0" r="1" gradientTransform="rotate(88.622 17.084 48.334)scale(16.1009 10.1401)" gradientUnits="userSpaceOnUse"><stop stop-color="#20735A"/><stop offset=".15" stop-color="#20745A" stop-opacity=".93"/><stop offset=".38" stop-color="#21755C" stop-opacity=".74"/><stop offset=".67" stop-color="#21785D" stop-opacity=".43"/><stop offset="1" stop-color="#227B60" stop-opacity="0"/></radialGradient><radialGradient id="g" cx="0" cy="0" r="1" gradientTransform="matrix(23.32718 10.45562 -7.92683 17.68528 67.116 32.661)" gradientUnits="userSpaceOnUse"><stop stop-color="#227A61"/><stop offset=".36" stop-color="#227A61" stop-opacity=".56"/><stop offset=".72" stop-color="#227A61" stop-opacity=".16"/><stop offset=".9" stop-color="#227A61" stop-opacity="0"/></radialGradient><radialGradient id="h" cx="0" cy="0" r="1" gradientTransform="matrix(27.75899 19.95332 -18.34042 25.51512 60.359 -7.821)" gradientUnits="userSpaceOnUse"><stop stop-color="#3CD9C3"/><stop offset=".07" stop-color="#3BD7C1" stop-opacity=".9"/><stop offset=".41" stop-color="#38CEB9" stop-opacity=".42"/><stop offset=".65" stop-color="#36C8B4" stop-opacity=".12"/><stop offset=".76" stop-color="#35C6B2" stop-opacity="0"/></radialGradient><radialGradient id="i" cx="0" cy="0" r="1" gradientTransform="matrix(4930.28887 3543.92031 -2500.7342 3479.01219 29534.3 -15688.9)" gradientUnits="userSpaceOnUse"><stop stop-color="#3CD9C3"/><stop offset=".07" stop-color="#3BD7C1" stop-opacity=".9"/><stop offset=".41" stop-color="#38CEB9" stop-opacity=".42"/><stop offset=".65" stop-color="#36C8B4" stop-opacity=".12"/><stop offset=".76" stop-color="#35C6B2" stop-opacity="0"/></radialGradient><radialGradient id="j" cx="0" cy="0" r="1" gradientTransform="rotate(100.801 20.974 49.88)scale(30.4572 37.0777)" gradientUnits="userSpaceOnUse"><stop stop-color="#237F66" stop-opacity=".8"/><stop offset=".06" stop-color="#2C8C70" stop-opacity=".65"/><stop offset=".21" stop-color="#3DA785" stop-opacity=".37"/><stop offset=".35" stop-color="#4ABA93" stop-opacity=".17"/><stop offset=".47" stop-color="#51C59C" stop-opacity=".04"/><stop offset=".56" stop-color="#54C99F" stop-opacity="0"/></radialGradient><radialGradient id="k" cx="0" cy="0" r="1" gradientTransform="rotate(-51.271 70.168 -37.25)scale(39.5687 42.5902)" gradientUnits="userSpaceOnUse"><stop stop-color="#167C8A"/><stop offset=".04" stop-color="#167C8A" stop-opacity=".93"/><stop offset=".33" stop-color="#177F8D" stop-opacity=".43"/><stop offset=".54" stop-color="#17818F" stop-opacity=".12"/><stop offset=".65" stop-color="#178290" stop-opacity="0"/></radialGradient><radialGradient id="l" cx="0" cy="0" r="1" gradientTransform="rotate(-32.074 104.447 -69.744)scale(38.3985 30.5519)" gradientUnits="userSpaceOnUse"><stop offset=".05" stop-color="#177D87"/><stop offset=".11" stop-color="#177E89" stop-opacity=".8"/><stop offset=".21" stop-color="#177F8B" stop-opacity=".52"/><stop offset=".32" stop-color="#17818D" stop-opacity=".29"/><stop offset=".42" stop-color="#17818F" stop-opacity=".13"/><stop offset=".51" stop-color="#178290" stop-opacity=".03"/><stop offset=".6" stop-color="#178290" stop-opacity="0"/></radialGradient><radialGradient id="m" cx="0" cy="0" r="1" gradientTransform="matrix(-14.80317 -17.5893 13.81383 -11.62573 43.551 45.487)" gradientUnits="userSpaceOnUse"><stop offset=".26" stop-color="#177F8A"/><stop offset=".27" stop-color="#177F8A" stop-opacity=".98"/><stop offset=".38" stop-color="#17808C" stop-opacity=".68"/><stop offset=".5" stop-color="#17818D" stop-opacity=".43"/><stop offset=".62" stop-color="#17818F" stop-opacity=".24"/><stop offset=".74" stop-color="#17828F" stop-opacity=".11"/><stop offset=".86" stop-color="#178290" stop-opacity=".03"/><stop offset="1" stop-color="#178290" stop-opacity="0"/></radialGradient><radialGradient id="n" cx="0" cy="0" r="1" gradientTransform="rotate(-172.999 21.277 24.382)scale(21.3687 21.7055)" gradientUnits="userSpaceOnUse"><stop stop-color="#13656E"/><stop offset=".11" stop-color="#13646E" stop-opacity=".73"/><stop offset=".27" stop-color="#12646E" stop-opacity=".41"/><stop offset=".42" stop-color="#12636E" stop-opacity=".18"/><stop offset=".55" stop-color="#12636E" stop-opacity=".05"/><stop offset=".66" stop-color="#12636E" stop-opacity="0"/></radialGradient><radialGradient id="o" cx="0" cy="0" r="1" gradientTransform="rotate(-118.927 35.48 15.742)scale(15.1251 12.5978)" gradientUnits="userSpaceOnUse"><stop offset=".13" stop-color="#146A73"/><stop offset=".24" stop-color="#156F79" stop-opacity=".79"/><stop offset=".45" stop-color="#167783" stop-opacity=".45"/><stop offset=".65" stop-color="#167D8A" stop-opacity=".2"/><stop offset=".82" stop-color="#17818E" stop-opacity=".05"/><stop offset=".95" stop-color="#178290" stop-opacity="0"/></radialGradient><radialGradient id="p" cx="0" cy="0" r="1" gradientTransform="rotate(-56.419 63.667 -11.098)scale(14.2115 11.1897)" gradientUnits="userSpaceOnUse"><stop stop-color="#198E9C"/><stop offset=".1" stop-color="#198E9C" stop-opacity=".87"/><stop offset=".41" stop-color="#198E9C" stop-opacity=".5"/><stop offset=".67" stop-color="#198E9C" stop-opacity=".23"/><stop offset=".88" stop-color="#198E9C" stop-opacity=".06"/><stop offset="1" stop-color="#198E9C" stop-opacity="0"/></radialGradient><radialGradient id="w" cx="0" cy="0" r="1" gradientTransform="rotate(98.553 24.186 51.882)scale(47.7148 31.0109)" gradientUnits="userSpaceOnUse"><stop stop-color="#1A3D9C"/><stop offset=".4" stop-color="#1A3D9C" stop-opacity=".42"/><stop offset=".7" stop-color="#1A3D9C" stop-opacity="0"/></radialGradient><radialGradient id="x" cx="0" cy="0" r="1" gradientTransform="matrix(-872.92281 5803.99312 -3082.24433 -463.57074 13818 23226.7)" gradientUnits="userSpaceOnUse"><stop stop-color="#1A3D9C"/><stop offset=".4" stop-color="#1A3D9C" stop-opacity=".42"/><stop offset=".7" stop-color="#1A3D9C" stop-opacity="0"/></radialGradient><radialGradient id="y" cx="0" cy="0" r="1" gradientTransform="matrix(-1030.76101 6913.57302 -2813.037 -419.40236 10438.6 22212.2)" gradientUnits="userSpaceOnUse"><stop stop-color="#1A3D9C"/><stop offset=".4" stop-color="#1A3D9C" stop-opacity=".42"/><stop offset=".7" stop-color="#1A3D9C" stop-opacity="0"/></radialGradient><radialGradient id="z" cx="0" cy="0" r="1" gradientTransform="rotate(83.198 17.522 56.565)scale(41.7122 28.6521)" gradientUnits="userSpaceOnUse"><stop stop-color="#1A3D9C"/><stop offset=".16" stop-color="#1A3D9C" stop-opacity=".69"/><stop offset=".33" stop-color="#1A3D9C" stop-opacity=".4"/><stop offset=".49" stop-color="#1A3D9C" stop-opacity=".18"/><stop offset=".61" stop-color="#1A3D9C" stop-opacity=".05"/><stop offset=".7" stop-color="#1A3D9C" stop-opacity="0"/></radialGradient><radialGradient id="A" cx="0" cy="0" r="1" gradientTransform="rotate(74.874 14.023 72.819)scale(40.0512 26.8593)" gradientUnits="userSpaceOnUse"><stop stop-color="#18388F"/><stop offset=".37" stop-color="#193B96" stop-opacity=".45"/><stop offset=".7" stop-color="#1A3D9C" stop-opacity="0"/></radialGradient><radialGradient id="B" cx="0" cy="0" r="1" gradientTransform="matrix(4.85921 17.97685 -16.84246 4.55258 76.73 50.967)" gradientUnits="userSpaceOnUse"><stop stop-color="#18388F"/><stop offset=".09" stop-color="#183992" stop-opacity=".78"/><stop offset=".22" stop-color="#193B96" stop-opacity=".5"/><stop offset=".35" stop-color="#193C98" stop-opacity=".28"/><stop offset=".47" stop-color="#1A3C9A" stop-opacity=".13"/><stop offset=".59" stop-color="#1A3D9C" stop-opacity=".03"/><stop offset=".7" stop-color="#1A3D9C" stop-opacity="0"/></radialGradient><radialGradient id="C" cx="0" cy="0" r="1" gradientTransform="matrix(4.85921 17.97685 -16.84246 4.55258 77.17 54.147)" gradientUnits="userSpaceOnUse"><stop stop-color="#1A3D9C" stop-opacity=".8"/><stop offset=".01" stop-color="#1A3D9C" stop-opacity=".78"/><stop offset=".24" stop-color="#1A3D9C" stop-opacity=".45"/><stop offset=".44" stop-color="#1A3D9C" stop-opacity=".2"/><stop offset=".6" stop-color="#1A3D9C" stop-opacity=".05"/><stop offset=".7" stop-color="#1A3D9C" stop-opacity="0"/></radialGradient><radialGradient id="D" cx="0" cy="0" r="1" gradientTransform="matrix(17.08686 40.96227 -26.87773 11.21168 29.698 43.166)" gradientUnits="userSpaceOnUse"><stop stop-color="#1A3D9C"/><stop offset=".4" stop-color="#1A3D9C" stop-opacity=".56"/><stop offset=".48" stop-color="#1A3D9C" stop-opacity=".43"/><stop offset=".69" stop-color="#1A3D9C" stop-opacity=".12"/><stop offset=".79" stop-color="#1A3D9C" stop-opacity="0"/></radialGradient><radialGradient id="E" cx="0" cy="0" r="1" gradientTransform="rotate(76.317 -7.386 33.485)scale(32.97 21.4579)" gradientUnits="userSpaceOnUse"><stop stop-color="#1A3D9C"/><stop offset=".06" stop-color="#1A3D9C" stop-opacity=".88"/><stop offset=".21" stop-color="#1A3D9C" stop-opacity=".61"/><stop offset=".36" stop-color="#1A3D9C" stop-opacity=".39"/><stop offset=".51" stop-color="#1A3D9C" stop-opacity=".22"/><stop offset=".67" stop-color="#1A3D9C" stop-opacity=".1"/><stop offset=".83" stop-color="#1A3D9C" stop-opacity=".02"/><stop offset="1" stop-color="#1A3D9C" stop-opacity="0"/></radialGradient><radialGradient id="F" cx="0" cy="0" r="1" gradientTransform="rotate(76.317 -7.386 33.485)scale(32.97 21.4579)" gradientUnits="userSpaceOnUse"><stop stop-color="#1B3E9E"/><stop offset=".06" stop-color="#1B3E9E" stop-opacity=".87"/><stop offset=".21" stop-color="#1B3E9D" stop-opacity=".61"/><stop offset=".36" stop-color="#1A3D9D" stop-opacity=".39"/><stop offset=".52" stop-color="#1A3D9C" stop-opacity=".22"/><stop offset=".67" stop-color="#1A3D9C" stop-opacity=".1"/><stop offset=".83" stop-color="#1A3D9C" stop-opacity=".02"/><stop offset="1" stop-color="#1A3D9C" stop-opacity="0"/></radialGradient><radialGradient id="G" cx="0" cy="0" r="1" gradientTransform="rotate(76.317 -4.723 32.66)scale(25.2236 16.4162)" gradientUnits="userSpaceOnUse"><stop stop-color="#183991"/><stop offset=".03" stop-color="#183992" stop-opacity=".95"/><stop offset=".18" stop-color="#193A95" stop-opacity=".66"/><stop offset=".34" stop-color="#193B97" stop-opacity=".42"/><stop offset=".5" stop-color="#1A3C99" stop-opacity=".24"/><stop offset=".66" stop-color="#1A3D9B" stop-opacity=".1"/><stop offset=".82" stop-color="#1A3D9C" stop-opacity=".03"/><stop offset="1" stop-color="#1A3D9C" stop-opacity="0"/></radialGradient><radialGradient id="H" cx="0" cy="0" r="1" gradientTransform="rotate(87.183 -.866 33.644)scale(19.9489 17.2816)" gradientUnits="userSpaceOnUse"><stop offset=".04" stop-color="#2453D6" stop-opacity=".6"/><stop offset=".2" stop-color="#2453D6" stop-opacity=".49"/><stop offset=".52" stop-color="#2453D6" stop-opacity=".2"/><stop offset=".73" stop-color="#2453D6" stop-opacity="0"/></radialGradient><linearGradient id="a" x1="4.705" x2="86.734" y1="51.576" y2="18.949" gradientUnits="userSpaceOnUse"><stop offset=".13" stop-color="#1CBBF3"/><stop offset=".34" stop-color="#1F99A5"/><stop offset=".45" stop-color="#209CA6"/><stop offset=".51" stop-color="#24A4AA"/><stop offset=".57" stop-color="#2BB3B0"/><stop offset=".6" stop-color="#30BDB4"/><stop offset=".79" stop-color="#38BA90"/><stop offset="1" stop-color="#60F05A"/></linearGradient><linearGradient id="q" x1="9.966" x2="46.529" y1="-1.738" y2="31.562" gradientUnits="userSpaceOnUse"><stop offset=".13" stop-color="#2BF9FF"/><stop offset=".27" stop-color="#29F9FF" stop-opacity=".64"/><stop offset=".4" stop-color="#27FAFF" stop-opacity=".3"/><stop offset=".49" stop-color="#26FAFF" stop-opacity=".08"/><stop offset=".54" stop-color="#26FAFF" stop-opacity="0"/></linearGradient><linearGradient id="r" x1="-10.439" x2="31.748" y1="53.563" y2="41.794" gradientUnits="userSpaceOnUse"><stop stop-color="#26FAFF"/><stop offset=".06" stop-color="#26FAFF" stop-opacity=".88"/><stop offset=".24" stop-color="#26FAFF" stop-opacity=".51"/><stop offset=".39" stop-color="#26FAFF" stop-opacity=".23"/><stop offset=".5" stop-color="#26FAFF" stop-opacity=".06"/><stop offset=".55" stop-color="#26FAFF" stop-opacity="0"/></linearGradient><linearGradient id="s" x1=".711" x2="48.318" y1="52.074" y2="35.378" gradientUnits="userSpaceOnUse"><stop stop-color="#21DEFF"/><stop offset=".04" stop-color="#21DEFF" stop-opacity=".88"/><stop offset=".17" stop-color="#21DEFF" stop-opacity=".51"/><stop offset=".27" stop-color="#21DEFF" stop-opacity=".23"/><stop offset=".34" stop-color="#21DEFF" stop-opacity=".06"/><stop offset=".38" stop-color="#21DEFF" stop-opacity="0"/></linearGradient><linearGradient id="t" x1="45.785" x2="72.942" y1="27.206" y2="70.792" gradientUnits="userSpaceOnUse"><stop offset=".62" stop-color="#21DEFF" stop-opacity="0"/><stop offset=".66" stop-color="#21DEFF" stop-opacity=".06"/><stop offset=".73" stop-color="#21DEFF" stop-opacity=".23"/><stop offset=".83" stop-color="#21DEFF" stop-opacity=".51"/><stop offset=".96" stop-color="#21DEFF" stop-opacity=".88"/><stop offset="1" stop-color="#21DEFF"/></linearGradient><linearGradient id="u" x1="75.313" x2="71.006" y1="43.638" y2="22.979" gradientUnits="userSpaceOnUse"><stop stop-color="#44B044"/><stop offset=".11" stop-color="#44B044" stop-opacity=".8"/><stop offset=".27" stop-color="#44B044" stop-opacity=".52"/><stop offset=".43" stop-color="#44B044" stop-opacity=".29"/><stop offset=".58" stop-color="#44B044" stop-opacity=".13"/><stop offset=".7" stop-color="#44B044" stop-opacity=".03"/><stop offset=".8" stop-color="#44B044" stop-opacity="0"/></linearGradient><linearGradient id="v" x1="17.088" x2="105.193" y1="22.196" y2="50.897" gradientUnits="userSpaceOnUse"><stop stop-color="#3066FB"/><stop offset=".38" stop-color="#2F64F7"/><stop offset=".74" stop-color="#2857D9"/><stop offset="1" stop-color="#3C7EFF"/></linearGradient><linearGradient id="I" x1="74.156" x2="51.349" y1="-14.25" y2="41.221" gradientUnits="userSpaceOnUse"><stop stop-color="#3774FF"/><stop offset=".05" stop-color="#3774FF" stop-opacity=".91"/><stop offset=".16" stop-color="#3774FF" stop-opacity=".66"/><stop offset=".32" stop-color="#3774FF" stop-opacity=".28"/><stop offset=".43" stop-color="#3774FF" stop-opacity="0"/></linearGradient></defs></svg>