<svg xmlns="http://www.w3.org/2000/svg" width="240" height="240" fill="none" viewBox="0 0 240 240"><path fill="url(#a)" d="M106.984 173.643c-29.776-5.958-31.477-7.236-46.175-14.974-1.677-4.43-3.878-9.797-12.508-28.431-2.804-6.055-4.83-10.43-6.197-14.005a38.7 38.7 0 0 1-1.733-5.809c4.23 3.655 13.058 12.606 64.112 48.233 1.115 3.337 2.219 8.828 2.501 14.986"/><path fill="url(#b)" d="M168.673 134.171c-5.217 1.797-19.683 3.262-48.841-17.727-7.704-17.367-19.938-36.832-22.905-53.55 7.296 4.206 15.807 9.081 17.755 10.058 3.566 1.785 28.043 19.508 29.497 20.516 3.266 2.353 6.566 3.389 10.718 3.558 2.621 5.69 10.784 21.668 13.776 37.145"/><path fill="url(#c)" d="M170.799 90.99c-3.741 3.744-8.839 6.063-14.624 6.061-3.878 0-7.85-.596-11.995-3.584-38.349-26.573-14.385-11.452-47.253-30.573-1.788-10.077-.21-19.155 7.756-26.176 13.447-11.85 30.872-3.358 47.3 8.144 5.046 3.533 17.146 11.711 20.327 14.887.288.308 13.978 15.733-1.511 31.241"/><path fill="url(#d)" d="M169.778 145.657c-.521 24.157-19.707 28.421-28.416 27.98-6.023-.303-16.877-1.758-36.879-14.98-51.053-35.627-59.882-44.578-64.112-48.233-4.07-19.308 11.304-29.889 24.582-28.31 10.727 1.28 20.835 9.259 54.238 33.858h.001l.03.032q.306.222.61.44c29.158 20.989 43.624 19.524 48.841 17.727.758 3.918 1.183 7.806 1.105 11.486"/><path fill="url(#e)" d="M50.221 201.543c-18.43-8.014-35.752-22.15-24.792-40.011 6.12-9.974 18.29-13.159 28.258-7.027.035.021 2.972 1.821 7.123 4.164 14.697 7.738 16.399 9.016 46.175 14.974.954 20.837-7.499 49.324-56.764 27.9"/><path fill="url(#f)" d="M196.888 127.254c11.613.002 21.025-9.419 21.023-21.043-.002-11.625-9.418-21.05-21.031-21.052s-21.026 9.42-21.023 21.044c.002 11.624 9.418 21.049 21.031 21.051"/><path fill="url(#g)" d="M196.888 127.254c11.613.002 21.025-9.419 21.023-21.043-.002-11.625-9.418-21.05-21.031-21.052s-21.026 9.42-21.023 21.044c.002 11.624 9.418 21.049 21.031 21.051"/><path fill="url(#h)" d="M170.767 91.254c15.556-15.577 1.806-31.07 1.517-31.379-3.195-3.19-15.348-11.403-20.416-14.952-16.5-11.552-34.001-20.082-47.508-8.18-8 7.052-9.36 16.17-7.564 26.29 2.98 16.792 15.268 36.343 23.006 53.786 29.285 21.08 43.815 19.61 49.055 17.804-2.978-15.402-11.054-31.298-13.762-37.147.363-.086.694-.135.985-.135 5.81.001 10.93-2.327 14.688-6.087z"/><path fill="url(#i)" d="M170.767 91.254c15.556-15.577 1.806-31.07 1.517-31.379-3.195-3.19-15.348-11.403-20.416-14.952-16.5-11.552-34.001-20.082-47.508-8.18-8 7.052-9.36 16.17-7.564 26.29 2.98 16.792 15.268 36.343 23.006 53.786 29.285 21.08 43.815 19.61 49.055 17.804-2.978-15.402-11.054-31.298-13.762-37.147.363-.086.694-.135.985-.135 5.81.001 10.93-2.327 14.688-6.087z"/><path fill="url(#j)" d="M168.673 134.171c-5.217 1.797-19.683 3.262-48.841-17.727-7.704-17.367-19.938-36.832-22.905-53.55 7.296 4.206 15.807 9.081 17.755 10.058 3.566 1.785 28.043 19.508 29.497 20.516 3.266 2.353 6.566 3.389 10.718 3.558 2.621 5.69 10.784 21.668 13.776 37.145"/><path fill="url(#k)" d="M168.673 134.171c-5.217 1.797-19.683 3.262-48.841-17.727-7.704-17.367-19.938-36.832-22.905-53.55 7.296 4.206 15.807 9.081 17.755 10.058 3.566 1.785 28.043 19.508 29.497 20.516 3.266 2.353 6.566 3.389 10.718 3.558 2.621 5.69 10.784 21.668 13.776 37.145"/><path fill="url(#l)" d="M168.673 134.171c-5.217 1.797-19.683 3.262-48.841-17.727-7.704-17.367-19.938-36.832-22.905-53.55 7.296 4.206 15.807 9.081 17.755 10.058 3.566 1.785 28.043 19.508 29.497 20.516 3.266 2.353 6.566 3.389 10.718 3.558 2.621 5.69 10.784 21.668 13.776 37.145"/><path fill="url(#m)" d="M168.673 134.171c-5.217 1.797-19.683 3.262-48.841-17.727-7.704-17.367-19.938-36.832-22.905-53.55 7.296 4.206 15.807 9.081 17.755 10.058 3.566 1.785 28.043 19.508 29.497 20.516 3.266 2.353 6.566 3.389 10.718 3.558 2.621 5.69 10.784 21.668 13.776 37.145"/><path fill="url(#n)" d="M168.673 134.154c-2.638-13.646-9.296-27.681-12.63-34.711-.448-.944-.836-1.761-1.146-2.434-4.152-.17-7.453-1.205-10.718-3.559-.257-.178-1.236-.88-2.692-1.924-6.771-4.857-23.87-17.122-26.806-18.591-1.947-.977-10.459-5.852-17.754-10.058 2.06 11.606 8.586 24.536 14.962 37.17 2.808 5.564 5.587 11.07 7.943 16.38l-.611-.44-.029-.032h-.002c-2.44-1.797-4.756-3.506-6.956-5.129-27.926-20.6-37.338-27.543-47.281-28.73C51.675 80.519 36.3 91.1 40.37 110.407c.415.359.874.769 1.413 1.249 4.956 4.42 16.654 14.853 62.699 46.985 20.001 13.221 30.856 14.677 36.879 14.98 8.709.44 27.894-3.823 28.416-27.981.078-3.68-.347-7.567-1.105-11.485"/><path fill="url(#o)" d="M169.778 145.657c-.521 24.157-19.707 28.421-28.416 27.98-6.023-.303-16.877-1.758-36.879-14.98-51.053-35.627-59.882-44.578-64.112-48.233-4.07-19.308 11.304-29.889 24.582-28.31 10.727 1.28 20.835 9.259 54.238 33.858h.001l.03.032q.306.222.61.44c29.158 20.989 43.624 19.524 48.841 17.727.758 3.918 1.183 7.806 1.105 11.486"/><path fill="url(#p)" d="M169.778 145.657c-.521 24.157-19.707 28.421-28.416 27.98-6.023-.303-16.877-1.758-36.879-14.98-51.053-35.627-59.882-44.578-64.112-48.233-4.07-19.308 11.304-29.889 24.582-28.31 10.727 1.28 20.835 9.259 54.238 33.858h.001l.03.032q.306.222.61.44c29.158 20.989 43.624 19.524 48.841 17.727.758 3.918 1.183 7.806 1.105 11.486"/><path fill="url(#q)" d="M141.362 173.643c8.709.44 27.895-3.823 28.416-27.981.078-3.68-.347-7.567-1.105-11.485-5.217 1.797-19.683 3.261-48.841-17.727q-.304-.218-.61-.44l-.03-.032h-.001c-2.441-1.797-4.756-3.506-6.957-5.129-27.926-20.6-37.338-27.543-47.281-28.73-13.278-1.578-28.652 9.003-24.582 28.31a38.7 38.7 0 0 0 1.734 5.81c1.365 3.572 3.388 7.941 6.187 13.986l.009.019c8.63 18.634 10.83 24.001 12.509 28.431l1.602.845c13.263 6.996 15.915 8.394 44.573 14.128-.282-6.158-1.386-11.648-2.502-14.985 20.002 13.221 30.856 14.677 36.879 14.98"/><path fill="url(#r)" d="M141.362 173.643c8.709.44 27.895-3.823 28.416-27.981.078-3.68-.347-7.567-1.105-11.485-5.217 1.797-19.683 3.261-48.841-17.727q-.304-.218-.61-.44l-.03-.032h-.001c-2.441-1.797-4.756-3.506-6.957-5.129-27.926-20.6-37.338-27.543-47.281-28.73-13.278-1.578-28.652 9.003-24.582 28.31a38.7 38.7 0 0 0 1.734 5.81c1.365 3.572 3.388 7.941 6.187 13.986l.009.019c8.63 18.634 10.83 24.001 12.509 28.431l1.602.845c13.263 6.996 15.915 8.394 44.573 14.128-.282-6.158-1.386-11.648-2.502-14.985 20.002 13.221 30.856 14.677 36.879 14.98"/><path fill="url(#s)" d="M141.362 173.643c8.709.44 27.895-3.823 28.416-27.981.078-3.68-.347-7.567-1.105-11.485-5.217 1.797-19.683 3.261-48.841-17.727q-.304-.218-.61-.44l-.03-.032h-.001c-2.441-1.797-4.756-3.506-6.957-5.129-27.926-20.6-37.338-27.543-47.281-28.73-13.278-1.578-28.652 9.003-24.582 28.31a38.7 38.7 0 0 0 1.734 5.81c1.365 3.572 3.388 7.941 6.187 13.986l.009.019c8.63 18.634 10.83 24.001 12.509 28.431l1.602.845c13.263 6.996 15.915 8.394 44.573 14.128-.282-6.158-1.386-11.648-2.502-14.985 20.002 13.221 30.856 14.677 36.879 14.98"/><path fill="url(#t)" d="M141.362 173.643c8.709.44 27.895-3.823 28.416-27.981.078-3.68-.347-7.567-1.105-11.485-5.217 1.797-19.683 3.261-48.841-17.727q-.304-.218-.61-.44l-.03-.032h-.001c-2.441-1.797-4.756-3.506-6.957-5.129-27.926-20.6-37.338-27.543-47.281-28.73-13.278-1.578-28.652 9.003-24.582 28.31a38.7 38.7 0 0 0 1.734 5.81c1.365 3.572 3.388 7.941 6.187 13.986l.009.019c8.63 18.634 10.83 24.001 12.509 28.431l1.602.845c13.263 6.996 15.915 8.394 44.573 14.128-.282-6.158-1.386-11.648-2.502-14.985 20.002 13.221 30.856 14.677 36.879 14.98"/><path fill="url(#u)" d="M106.984 173.643c-29.776-5.958-31.477-7.236-46.175-14.974-1.677-4.43-3.878-9.797-12.508-28.431-2.804-6.055-4.83-10.43-6.197-14.005a38.7 38.7 0 0 1-1.733-5.809c4.23 3.655 13.058 12.606 64.112 48.233 1.115 3.337 2.219 8.828 2.501 14.986"/><path fill="url(#v)" d="M106.984 173.643c-29.776-5.958-31.477-7.236-46.175-14.974-1.677-4.43-3.878-9.797-12.508-28.431-2.804-6.055-4.83-10.43-6.197-14.005a38.7 38.7 0 0 1-1.733-5.809c4.23 3.655 13.058 12.606 64.112 48.233 1.115 3.337 2.219 8.828 2.501 14.986"/><path fill="url(#w)" d="M106.985 173.643c-.283-6.158-1.386-11.649-2.502-14.986-46.044-32.132-57.743-42.565-62.698-46.984-.54-.481-.999-.891-1.414-1.249a38.7 38.7 0 0 0 1.733 5.809c1.366 3.572 3.39 7.941 6.188 13.987l.009.018c8.63 18.634 10.83 24.001 12.508 28.431-4.15-2.343-7.087-4.143-7.122-4.164-9.968-6.132-22.137-2.947-28.258 7.027-10.96 17.861 6.363 31.997 24.792 40.011 49.265 21.424 57.718-7.063 56.764-27.9"/><path fill="url(#x)" d="M106.985 173.643c-.283-6.158-1.386-11.649-2.502-14.986-46.044-32.132-57.743-42.565-62.698-46.984-.54-.481-.999-.891-1.414-1.249a38.7 38.7 0 0 0 1.733 5.809c1.366 3.572 3.39 7.941 6.188 13.987l.009.018c8.63 18.634 10.83 24.001 12.508 28.431-4.15-2.343-7.087-4.143-7.122-4.164-9.968-6.132-22.137-2.947-28.258 7.027-10.96 17.861 6.363 31.997 24.792 40.011 49.265 21.424 57.718-7.063 56.764-27.9"/><path fill="url(#y)" d="M106.984 173.643c-29.776-5.958-31.477-7.236-46.175-14.974-1.677-4.43-3.878-9.797-12.508-28.431-2.804-6.055-4.83-10.43-6.197-14.005a38.7 38.7 0 0 1-1.733-5.809c4.23 3.655 13.058 12.606 64.112 48.233 1.115 3.337 2.219 8.828 2.501 14.986"/><path fill="url(#z)" d="M50.221 201.543c-18.43-8.014-35.752-22.15-24.792-40.011 6.12-9.974 18.29-13.159 28.258-7.027.035.021 2.972 1.821 7.123 4.164 14.697 7.738 16.399 9.016 46.175 14.974.954 20.837-7.499 49.324-56.764 27.9"/><path fill="url(#A)" d="M50.221 201.543c-18.43-8.014-35.752-22.15-24.792-40.011 6.12-9.974 18.29-13.159 28.258-7.027.035.021 2.972 1.821 7.123 4.164 14.697 7.738 16.399 9.016 46.175 14.974.954 20.837-7.499 49.324-56.764 27.9"/><path fill="url(#B)" d="M170.767 91.254c15.556-15.577 1.806-31.07 1.517-31.379-3.195-3.19-15.348-11.403-20.416-14.952-16.5-11.552-34.001-20.082-47.508-8.18-8 7.052-9.36 16.17-7.564 26.29 2.98 16.792 15.268 36.343 23.006 53.786 29.285 21.08 43.815 19.61 49.055 17.804-2.978-15.402-11.054-31.298-13.762-37.147.363-.086.694-.135.985-.135 5.81.001 10.93-2.327 14.688-6.087z"/><path fill="url(#C)" d="M170.767 91.254c15.556-15.577 1.806-31.07 1.517-31.379-3.195-3.19-15.348-11.403-20.416-14.952-16.5-11.552-34.001-20.082-47.508-8.18-8 7.052-9.36 16.17-7.564 26.29 2.98 16.792 15.268 36.343 23.006 53.786 29.285 21.08 43.815 19.61 49.055 17.804-2.978-15.402-11.054-31.298-13.762-37.147.363-.086.694-.135.985-.135 5.81.001 10.93-2.327 14.688-6.087z"/><path fill="url(#D)" d="M170.767 91.254c15.556-15.577 1.806-31.07 1.517-31.379-3.195-3.19-15.348-11.403-20.416-14.952-16.5-11.552-34.001-20.082-47.508-8.18-8 7.052-9.36 16.17-7.564 26.29 2.98 16.792 15.268 36.343 23.006 53.786 29.285 21.08 43.815 19.61 49.055 17.804-2.978-15.402-11.054-31.298-13.762-37.147.363-.086.694-.135.985-.135 5.81.001 10.93-2.327 14.688-6.087z"/><path fill="url(#E)" d="M170.767 91.254c15.556-15.577 1.806-31.07 1.517-31.379-3.195-3.19-15.348-11.403-20.416-14.952-16.5-11.552-34.001-20.082-47.508-8.18-8 7.052-9.36 16.17-7.564 26.29 2.98 16.792 15.268 36.343 23.006 53.786 29.285 21.08 43.815 19.61 49.055 17.804-2.978-15.402-11.054-31.298-13.762-37.147.363-.086.694-.135.985-.135 5.81.001 10.93-2.327 14.688-6.087z"/><defs><radialGradient id="f" cx="0" cy="0" r="1" gradientTransform="rotate(88.509 52.93 141.76)scale(40.3582 44.7833)" gradientUnits="userSpaceOnUse"><stop stop-color="#70F14D"/><stop offset="1" stop-color="#42A12F"/></radialGradient><radialGradient id="g" cx="0" cy="0" r="1" gradientTransform="rotate(92.248 54.942 137.657)scale(22.0195 24.4351)" gradientUnits="userSpaceOnUse"><stop stop-color="#70F14D"/><stop offset="1" stop-color="#70F14D" stop-opacity="0"/></radialGradient><radialGradient id="i" cx="0" cy="0" r="1" gradientTransform="rotate(89.989 27.942 68.156)scale(40.5576 17.9191)" gradientUnits="userSpaceOnUse"><stop stop-color="#669C27"/><stop offset="1" stop-color="#60BA3B" stop-opacity="0"/></radialGradient><radialGradient id="j" cx="0" cy="0" r="1" gradientTransform="rotate(80.413 15.757 113.977)scale(43.7493 25.8799)" gradientUnits="userSpaceOnUse"><stop stop-color="#668218"/><stop offset="1" stop-color="#658218" stop-opacity="0"/></radialGradient><radialGradient id="k" cx="0" cy="0" r="1" gradientTransform="rotate(80.413 15.757 113.977)scale(43.7493 25.8799)" gradientUnits="userSpaceOnUse"><stop stop-color="#668218"/><stop offset="1" stop-color="#658218" stop-opacity="0"/></radialGradient><radialGradient id="l" cx="0" cy="0" r="1" gradientTransform="matrix(13.70762 30.00933 -17.75402 8.10966 114.564 68.997)" gradientUnits="userSpaceOnUse"><stop stop-color="#668218"/><stop offset="1" stop-color="#658218" stop-opacity="0"/></radialGradient><radialGradient id="m" cx="0" cy="0" r="1" gradientTransform="rotate(-126.506 106.172 29.782)scale(13.6958 13.6871)" gradientUnits="userSpaceOnUse"><stop stop-color="#CFD832"/><stop offset="1" stop-color="#CDD631" stop-opacity="0"/></radialGradient><radialGradient id="n" cx="0" cy="0" r="1" gradientTransform="matrix(-30.41692 -13.21997 13.47532 -31.00443 163.221 135.798)" gradientUnits="userSpaceOnUse"><stop stop-color="#D1D936"/><stop offset="1" stop-color="#D1D936" stop-opacity="0"/></radialGradient><radialGradient id="o" cx="0" cy="0" r="1" gradientTransform="rotate(-121.254 120.3 45.6)scale(58.3367 33.5749)" gradientUnits="userSpaceOnUse"><stop stop-color="#A89321"/><stop offset="1" stop-color="#BBA81E" stop-opacity="0"/></radialGradient><radialGradient id="q" cx="0" cy="0" r="1" gradientTransform="rotate(28.812 -200.422 129.25)scale(46.4785 26.7758)" gradientUnits="userSpaceOnUse"><stop stop-color="#E7AC1D"/><stop offset="1" stop-color="#FABF2E" stop-opacity="0"/></radialGradient><radialGradient id="r" cx="0" cy="0" r="1" gradientTransform="rotate(59.202 -45.93 187.593)scale(60.6806 15.5556)" gradientUnits="userSpaceOnUse"><stop stop-color="#BAA71C"/><stop offset="1" stop-color="#BBA91E" stop-opacity="0"/></radialGradient><radialGradient id="s" cx="0" cy="0" r="1" gradientTransform="rotate(49.607 -55.782 147.247)scale(62.4545 19.24)" gradientUnits="userSpaceOnUse"><stop stop-color="#F0CF28"/><stop offset="1" stop-color="#F0CF29" stop-opacity="0"/></radialGradient><radialGradient id="t" cx="0" cy="0" r="1" gradientTransform="matrix(31.37834 30.5479 -18.24535 18.74135 61.023 85.074)" gradientUnits="userSpaceOnUse"><stop stop-color="#FFBF3C"/><stop offset="1" stop-color="#F0CF29" stop-opacity="0"/></radialGradient><radialGradient id="u" cx="0" cy="0" r="1" gradientTransform="rotate(75.56 -46.901 109.55)scale(59.2283 25.4889)" gradientUnits="userSpaceOnUse"><stop stop-color="#C06A01"/><stop offset="1" stop-color="#D28D00" stop-opacity="0"/></radialGradient><radialGradient id="v" cx="0" cy="0" r="1" gradientTransform="rotate(-54.374 205.57 6.89)scale(41.4443 17.8546)" gradientUnits="userSpaceOnUse"><stop stop-color="#E9A101"/><stop offset="1" stop-color="#D28D00" stop-opacity="0"/></radialGradient><radialGradient id="w" cx="0" cy="0" r="1" gradientTransform="matrix(-23.58243 -9.21195 6.93733 -17.75943 101.596 174.429)" gradientUnits="userSpaceOnUse"><stop stop-color="#BE7A00"/><stop offset="1" stop-color="#D28D00" stop-opacity="0"/></radialGradient><radialGradient id="x" cx="0" cy="0" r="1" gradientTransform="matrix(18.21064 16.78488 -12.63097 13.70388 86.746 170.372)" gradientUnits="userSpaceOnUse"><stop stop-color="#CC8300"/><stop offset="1" stop-color="#D28D00" stop-opacity="0"/></radialGradient><radialGradient id="y" cx="0" cy="0" r="1" gradientTransform="rotate(-52.61 212.029 3.842)scale(20.3877 16.3842)" gradientUnits="userSpaceOnUse"><stop stop-color="#E9A101"/><stop offset="1" stop-color="#D28D00" stop-opacity="0"/></radialGradient><radialGradient id="z" cx="0" cy="0" r="1" gradientTransform="matrix(49.06127 40.68172 -13.05233 15.74083 38.275 160.826)" gradientUnits="userSpaceOnUse"><stop stop-color="#FDC220"/><stop offset="1" stop-color="#F9BD18" stop-opacity="0"/></radialGradient><radialGradient id="B" cx="0" cy="0" r="1" gradientTransform="rotate(-141.509 66.488 15.596)scale(21.4478 8.20366)" gradientUnits="userSpaceOnUse"><stop stop-color="#8E9D27"/><stop offset="1" stop-color="#99A229" stop-opacity="0"/></radialGradient><radialGradient id="C" cx="0" cy="0" r="1" gradientTransform="matrix(7.8909 36.54908 -52.23956 11.27847 108.354 41.939)" gradientUnits="userSpaceOnUse"><stop stop-color="#5DC340"/><stop offset="1" stop-color="#5DBE3E" stop-opacity="0"/></radialGradient><radialGradient id="E" cx="0" cy="0" r="1" gradientTransform="matrix(20.81167 -5.54499 31.42933 117.96182 99.866 93.006)" gradientUnits="userSpaceOnUse"><stop stop-color="#B5A62A"/><stop offset="1" stop-color="#B9A62A" stop-opacity="0"/></radialGradient><linearGradient id="a" x1="53.074" x2="106.992" y1="142.029" y2="156.173" gradientUnits="userSpaceOnUse"><stop stop-color="#D99207"/><stop offset="1" stop-color="#D28D00"/></linearGradient><linearGradient id="b" x1="107.122" x2="155.38" y1="105.843" y2="93.093" gradientUnits="userSpaceOnUse"><stop stop-color="#BCA62A"/><stop offset=".424" stop-color="#7A8B1A"/><stop offset="1" stop-color="#BCD73E"/></linearGradient><linearGradient id="c" x1="137.22" x2="156.781" y1="84.112" y2="53.083" gradientUnits="userSpaceOnUse"><stop stop-color="#42A12F"/><stop offset="1" stop-color="#70F14D"/></linearGradient><linearGradient id="d" x1="86.531" x2="112.517" y1="144.947" y2="112.664" gradientUnits="userSpaceOnUse"><stop stop-color="#B99219"/><stop offset=".502" stop-color="#DAB520"/><stop offset="1" stop-color="#E4C722"/></linearGradient><linearGradient id="e" x1="36.034" x2="99.986" y1="163.27" y2="187.378" gradientUnits="userSpaceOnUse"><stop stop-color="#FFC332"/><stop offset="1" stop-color="#C17F00"/></linearGradient><linearGradient id="h" x1="103.897" x2="144.824" y1="86.806" y2="76.132" gradientUnits="userSpaceOnUse"><stop stop-color="#BEA92B"/><stop offset="1" stop-color="#60BA3B" stop-opacity="0"/></linearGradient><linearGradient id="p" x1="104.755" x2="111.13" y1="168.636" y2="133.962" gradientUnits="userSpaceOnUse"><stop stop-color="#A89321"/><stop offset="1" stop-color="#BBA81E" stop-opacity="0"/></linearGradient><linearGradient id="A" x1="34.694" x2="48.393" y1="193.739" y2="183.784" gradientUnits="userSpaceOnUse"><stop stop-color="#E2A41F"/><stop offset="1" stop-color="#E3A520" stop-opacity="0"/></linearGradient><linearGradient id="D" x1="142.508" x2="126.153" y1="49.194" y2="83.271" gradientUnits="userSpaceOnUse"><stop stop-color="#72F14D"/><stop offset="1" stop-color="#5DBE3E" stop-opacity="0"/></linearGradient></defs></svg>