<svg xmlns="http://www.w3.org/2000/svg" width="360" height="53" fill="none" viewBox="0 0 360 53"><path fill="#fff" d="M46.22 14.15h7.27L42.92 46.1h-8.34l-7.9-24.11-7.9 24.11h-8.21L0 14.15h7.44l7.5 24.28 7.87-24.28h7.9l8 24.41zM84.67 32.69H61.09a10.2 10.2 0 0 0 1.8 4.57 8.14 8.14 0 0 0 3.35 2.7c1.364.589 2.835.885 4.32.87a13.9 13.9 0 0 0 4.82-.88 15.7 15.7 0 0 0 4.42-2.49l3.47 5a17.6 17.6 0 0 1-6.06 3.45 22.9 22.9 0 0 1-7.08 1.05 16.93 16.93 0 0 1-8.47-2.08 14.75 14.75 0 0 1-5.79-5.9 18.13 18.13 0 0 1-2.08-8.82 18.55 18.55 0 0 1 2-8.76 14.74 14.74 0 0 1 5.62-5.93 15.93 15.93 0 0 1 8.27-2.12 14.23 14.23 0 0 1 13.19 8 19.15 19.15 0 0 1 1.92 8.74c.01.67-.03 1.54-.12 2.6m-7-5.3A9.88 9.88 0 0 0 75 21.55a7.43 7.43 0 0 0-5.44-2 7.82 7.82 0 0 0-5.72 2.12 10.15 10.15 0 0 0-2.75 5.75zM114.5 15.49a15.56 15.56 0 0 1 5.77 6 17.6 17.6 0 0 1 2.12 8.64 17.54 17.54 0 0 1-2.12 8.63 15.52 15.52 0 0 1-13.86 8.17 13.06 13.06 0 0 1-5.77-1.21 11.9 11.9 0 0 1-4.23-3.42v3.8h-7V.55h7v17.4a12 12 0 0 1 4.23-3.4 12.9 12.9 0 0 1 5.77-1.22 15.5 15.5 0 0 1 8.09 2.16M110.68 39a9 9 0 0 0 3.37-3.71 12 12 0 0 0 0-10.33 9.06 9.06 0 0 0-3.37-3.71 10.19 10.19 0 0 0-10.12 0 9.1 9.1 0 0 0-3.4 3.67 11.06 11.06 0 0 0-1.22 5.24 11 11 0 0 0 1.22 5.23 9.1 9.1 0 0 0 3.4 3.67 10.19 10.19 0 0 0 10.12 0zM156.93 32.69h-23.57a10.16 10.16 0 0 0 1.8 4.57 8.14 8.14 0 0 0 3.35 2.7c1.363.589 2.835.885 4.32.87a14 14 0 0 0 4.82-.88 15.7 15.7 0 0 0 4.42-2.49l3.46 5a17.5 17.5 0 0 1-6.05 3.45 23 23 0 0 1-7.09 1.05 17 17 0 0 1-8.47-2.08 14.8 14.8 0 0 1-5.78-5.9 18.14 18.14 0 0 1-2.09-8.82 18.56 18.56 0 0 1 2-8.76 14.74 14.74 0 0 1 5.62-5.93 15.93 15.93 0 0 1 8.33-2.15 14.26 14.26 0 0 1 13.19 8 19.16 19.16 0 0 1 1.92 8.74c-.04.7-.11 1.57-.18 2.63m-7-5.3a9.94 9.94 0 0 0-2.68-5.8 7.46 7.46 0 0 0-5.42-2.04 7.8 7.8 0 0 0-5.72 2.12 10.1 10.1 0 0 0-2.75 5.75zM190.18 46.1h-8.57l-8.1-11.11-8 11.11h-8.17l12-16.31-11.81-15.64h8.58l7.8 10.67 7.8-10.67H190l-11.86 15.58zM209 46.04h-2.53v-23h3.07v8.7a6.37 6.37 0 0 1 5.56-2.79 6.67 6.67 0 0 1 5.57 2.56 9.83 9.83 0 0 1 1.75 6.11c0 3-.79 5.31-2.39 6.9a7 7 0 0 1-5.15 2 6.14 6.14 0 0 1-5.4-2.69zm10.2-8.49a6.4 6.4 0 0 0-1.57-4.7 4.36 4.36 0 0 0-3.26-1.3 4.52 4.52 0 0 0-3.71 1.69 6.66 6.66 0 0 0-1.31 4.31 6.94 6.94 0 0 0 1.57 4.9 4.39 4.39 0 0 0 3.45 1.47 4.18 4.18 0 0 0 3.63-1.78 7.75 7.75 0 0 0 1.2-4.59M238.83 29.41 233 46.26a14.9 14.9 0 0 1-2.2 4.57 4.09 4.09 0 0 1-3.23 1.44 8.5 8.5 0 0 1-2-.28v-2.5a6.7 6.7 0 0 0 1.6.23 1.86 1.86 0 0 0 1.54-.69 12.5 12.5 0 0 0 1.37-3h-1L223 29.41h3.33l4.73 14.14 4.7-14.13zM281.69 23.05h-5.82v23.07h5.82zM328.62 29.66a10.1 10.1 0 0 0-4.89-1.23 6.155 6.155 0 0 0-5.915 3.74 6.165 6.165 0 0 0 1.4 6.858 6.16 6.16 0 0 0 4.515 1.712 10.15 10.15 0 0 0 4.89-1.19v6.2c-1.721.528-3.51.804-5.31.82-6.54-.02-12.31-4.56-12.31-12.02 0-6.89 5.2-11.94 12.28-11.94 1.802.006 3.592.286 5.31.83zM267.86 29.66a10.1 10.1 0 0 0-4.86-1.23 6.16 6.16 0 1 0 0 12.31 10.15 10.15 0 0 0 4.86-1.19v6.2c-1.722.528-3.51.804-5.31.82-6.55-.02-12.28-4.56-12.28-12.02 0-6.89 5.2-11.94 12.28-11.94 1.801.005 3.592.285 5.31.83zM346.93 28.55a6.07 6.07 0 1 0 6.07 6 6 6 0 0 0-1.733-4.288A6 6 0 0 0 347 28.48zm12.19 6a12.19 12.19 0 0 1-7.35 11.439 12.189 12.189 0 1 1-4.84-23.379 11.84 11.84 0 0 1 12.19 11.94M303.76 28.29a20.6 20.6 0 0 0-4.55-.7c-2.33 0-3.6.78-3.6 1.89 0 1.4 1.71 1.89 2.67 2.2l1.6.51c3.78 1.2 5.5 3.79 5.5 6.6 0 5.79-5.09 7.74-9.55 7.74a35 35 0 0 1-6.28-.63v-5.35c1.789.52 3.638.81 5.5.86 2.89 0 4.23-.85 4.23-2.16s-1.16-1.84-2.6-2.29l-1.24-.41c-3.24-1-5.95-2.93-5.95-6.74 0-4.32 3.23-7.22 8.6-7.22a24.5 24.5 0 0 1 5.67.74z"/><path fill="#fff" d="M46.22 14.15h7.27L42.92 46.1h-8.34l-7.9-24.11-7.9 24.11h-8.21L0 14.15h7.44l7.5 24.28 7.87-24.28h7.9l8 24.41zM84.67 32.69H61.09a10.2 10.2 0 0 0 1.8 4.57 8.14 8.14 0 0 0 3.35 2.7c1.364.589 2.835.885 4.32.87a13.9 13.9 0 0 0 4.82-.88 15.7 15.7 0 0 0 4.42-2.49l3.47 5a17.6 17.6 0 0 1-6.06 3.45 22.9 22.9 0 0 1-7.08 1.05 16.93 16.93 0 0 1-8.47-2.08 14.75 14.75 0 0 1-5.79-5.9 18.13 18.13 0 0 1-2.08-8.82 18.55 18.55 0 0 1 2-8.76 14.74 14.74 0 0 1 5.62-5.93 15.93 15.93 0 0 1 8.27-2.12 14.23 14.23 0 0 1 13.19 8 19.15 19.15 0 0 1 1.92 8.74c.01.67-.03 1.54-.12 2.6m-7-5.3A9.88 9.88 0 0 0 75 21.55a7.43 7.43 0 0 0-5.44-2 7.82 7.82 0 0 0-5.72 2.12 10.15 10.15 0 0 0-2.75 5.75zM114.5 15.49a15.56 15.56 0 0 1 5.77 6 17.6 17.6 0 0 1 2.12 8.64 17.54 17.54 0 0 1-2.12 8.63 15.52 15.52 0 0 1-13.86 8.17 13.06 13.06 0 0 1-5.77-1.21 11.9 11.9 0 0 1-4.23-3.42v3.8h-7V.55h7v17.4a12 12 0 0 1 4.23-3.4 12.9 12.9 0 0 1 5.77-1.22 15.5 15.5 0 0 1 8.09 2.16M110.68 39a9 9 0 0 0 3.37-3.71 12 12 0 0 0 0-10.33 9.06 9.06 0 0 0-3.37-3.71 10.19 10.19 0 0 0-10.12 0 9.1 9.1 0 0 0-3.4 3.67 11.06 11.06 0 0 0-1.22 5.24 11 11 0 0 0 1.22 5.23 9.1 9.1 0 0 0 3.4 3.67 10.19 10.19 0 0 0 10.12 0zM156.93 32.69h-23.57a10.16 10.16 0 0 0 1.8 4.57 8.14 8.14 0 0 0 3.35 2.7c1.363.589 2.835.885 4.32.87a14 14 0 0 0 4.82-.88 15.7 15.7 0 0 0 4.42-2.49l3.46 5a17.5 17.5 0 0 1-6.05 3.45 23 23 0 0 1-7.09 1.05 17 17 0 0 1-8.47-2.08 14.8 14.8 0 0 1-5.78-5.9 18.14 18.14 0 0 1-2.09-8.82 18.56 18.56 0 0 1 2-8.76 14.74 14.74 0 0 1 5.62-5.93 15.93 15.93 0 0 1 8.33-2.15 14.26 14.26 0 0 1 13.19 8 19.16 19.16 0 0 1 1.92 8.74c-.04.7-.11 1.57-.18 2.63m-7-5.3a9.94 9.94 0 0 0-2.68-5.8 7.46 7.46 0 0 0-5.42-2.04 7.8 7.8 0 0 0-5.72 2.12 10.1 10.1 0 0 0-2.75 5.75zM190.18 46.1h-8.57l-8.1-11.11-8 11.11h-8.17l12-16.31-11.81-15.64h8.58l7.8 10.67 7.8-10.67H190l-11.86 15.58z"/></svg>