<svg xmlns="http://www.w3.org/2000/svg" width="240" height="240" fill="none" viewBox="0 0 240 240"><path fill="#fff" d="M176.536 95.62c6.748 4.165 15.101 9.322 15.391 23.395a23.84 23.84 0 0 1-2.639 11.606 23.8 23.8 0 0 1-7.918 8.876c0 .022-95.636 63.463-96.167 63.791a20.55 20.55 0 0 1-10.103 2.629c-19.855 0-28.425-25.618-12.243-37.51l66.796-44.126 16.588 10.504a3.19 3.19 0 0 0 4.407-.996 3.203 3.203 0 0 0-.993-4.415L82.448 86.818a3.19 3.19 0 0 0-4.407.996 3.204 3.204 0 0 0 .993 4.415l9.335 5.911v18.458a20.78 20.78 0 0 1-6.131 14.567 20.7 20.7 0 0 1-14.592 6.019 20.7 20.7 0 0 1-14.593-6.019 20.78 20.78 0 0 1-6.131-14.567V56.892c0-15.79 14.983-27.246 30.167-23.152 2.85.768 4.755 1.842 5.391 2.2.138.079.216.123.232.123.01 0 15.99 10.15 34.628 21.991 26.088 16.572 57.386 36.454 57.398 36.445q.873.552 1.798 1.12"/></svg>