<svg xmlns="http://www.w3.org/2000/svg" width="32" height="32" viewBox="0 0 32 32"><path d="M25 6.25H7A4.755 4.755 0 0 0 2.25 11v4A4.755 4.755 0 0 0 7 19.75h2.25V24A1.75 1.75 0 0 0 11 25.75h10A1.75 1.75 0 0 0 22.75 24v-4.25H25A4.755 4.755 0 0 0 29.75 15v-4A4.755 4.755 0 0 0 25 6.25M21.25 24a.253.253 0 0 1-.25.25H11a.253.253 0 0 1-.25-.25v-4.25h10.5zm7-9A3.253 3.253 0 0 1 25 18.25H7A3.254 3.254 0 0 1 3.75 15v-4A3.254 3.254 0 0 1 7 7.75h18A3.254 3.254 0 0 1 28.25 11zM17 12.25h-2a.75.75 0 0 0 0 1.5h2a.75.75 0 1 0 0-1.5"/></svg>