<svg xmlns="http://www.w3.org/2000/svg" width="239" height="78" fill="none" viewBox="0 0 239 78"><path fill="url(#a)" d="M19.353 49.998c-10.976 0-14.68-13.805-15.555-16.5-2.088-6.8-2.694-12.93-2.761-13.535C.633 16.259 3.596 13.7 6.895 13.7c2.492 0 5.32 1.481 5.724 5.05.067.607.539 5.792 2.357 11.449 1.818 5.926 3.838 8.149 5.252 8.149 2.29 0 3.704-5.86 4.916-11.449.875-4.108 1.885-8.216 3.838-11.92C32.214 8.582 37.264 7.1 41.709 7.1c9.629 0 14.477 11.18 14.477 14.075 0 4.849-3.973 6.06-5.656 6.06-3.771 0-4.983-2.49-6.06-4.713-.943-1.953-1.953-3.637-3.233-3.637q-.606 0-1.212.606c-3.232 3.3-4.31 20.406-10.706 26.938-3.636 3.57-7.542 3.57-9.966 3.57"/><path fill="url(#b)" d="M19.353 49.998c-10.976 0-14.68-13.805-15.555-16.5-2.088-6.8-2.694-12.93-2.761-13.535C.633 16.259 3.596 13.7 6.895 13.7c2.492 0 5.32 1.481 5.724 5.05.067.607.539 5.792 2.357 11.449 1.818 5.926 3.838 8.149 5.252 8.149 2.29 0 3.704-5.86 4.916-11.449.875-4.108 1.885-8.216 3.838-11.92C32.214 8.582 37.264 7.1 41.709 7.1c9.629 0 14.477 11.18 14.477 14.075 0 4.849-3.973 6.06-5.656 6.06-3.771 0-4.983-2.49-6.06-4.713-.943-1.953-1.953-3.637-3.233-3.637q-.606 0-1.212.606c-3.232 3.3-4.31 20.406-10.706 26.938-3.636 3.57-7.542 3.57-9.966 3.57"/><path fill="url(#c)" d="M19.353 49.998c-10.976 0-14.68-13.805-15.555-16.5-2.088-6.8-2.694-12.93-2.761-13.535C.633 16.259 3.596 13.7 6.895 13.7c2.492 0 5.32 1.481 5.724 5.05.067.607.539 5.792 2.357 11.449 1.818 5.926 3.838 8.149 5.252 8.149 2.29 0 3.704-5.86 4.916-11.449.875-4.108 1.885-8.216 3.838-11.92C32.214 8.582 37.264 7.1 41.709 7.1c9.629 0 14.477 11.18 14.477 14.075 0 4.849-3.973 6.06-5.656 6.06-3.771 0-4.983-2.49-6.06-4.713-.943-1.953-1.953-3.637-3.233-3.637q-.606 0-1.212.606c-3.232 3.3-4.31 20.406-10.706 26.938-3.636 3.57-7.542 3.57-9.966 3.57"/><path fill="url(#d)" d="M19.353 49.998c-10.976 0-14.68-13.805-15.555-16.5-2.088-6.8-2.694-12.93-2.761-13.535C.633 16.259 3.596 13.7 6.895 13.7c2.492 0 5.32 1.481 5.724 5.05.067.607.539 5.792 2.357 11.449 1.818 5.926 3.838 8.149 5.252 8.149 2.29 0 3.704-5.86 4.916-11.449.875-4.108 1.885-8.216 3.838-11.92C32.214 8.582 37.264 7.1 41.709 7.1c9.629 0 14.477 11.18 14.477 14.075 0 4.849-3.973 6.06-5.656 6.06-3.771 0-4.983-2.49-6.06-4.713-.943-1.953-1.953-3.637-3.233-3.637q-.606 0-1.212.606c-3.232 3.3-4.31 20.406-10.706 26.938-3.636 3.57-7.542 3.57-9.966 3.57"/><path fill="url(#e)" d="M19.353 49.998c-10.976 0-14.68-13.805-15.555-16.5-2.088-6.8-2.694-12.93-2.761-13.535C.633 16.259 3.596 13.7 6.895 13.7c2.492 0 5.32 1.481 5.724 5.05.067.607.539 5.792 2.357 11.449 1.818 5.926 3.838 8.149 5.252 8.149 2.29 0 3.704-5.86 4.916-11.449.875-4.108 1.885-8.216 3.838-11.92C32.214 8.582 37.264 7.1 41.709 7.1c9.629 0 14.477 11.18 14.477 14.075 0 4.849-3.973 6.06-5.656 6.06-3.771 0-4.983-2.49-6.06-4.713-.943-1.953-1.953-3.637-3.233-3.637q-.606 0-1.212.606c-3.232 3.3-4.31 20.406-10.706 26.938-3.636 3.57-7.542 3.57-9.966 3.57"/><path fill="url(#f)" d="M19.353 49.998c-10.976 0-14.68-13.805-15.555-16.5-2.088-6.8-2.694-12.93-2.761-13.535C.633 16.259 3.596 13.7 6.895 13.7c2.492 0 5.32 1.481 5.724 5.05.067.607.539 5.792 2.357 11.449 1.818 5.926 3.838 8.149 5.252 8.149 2.29 0 3.704-5.86 4.916-11.449.875-4.108 1.885-8.216 3.838-11.92C32.214 8.582 37.264 7.1 41.709 7.1c9.629 0 14.477 11.18 14.477 14.075 0 4.849-3.973 6.06-5.656 6.06-3.771 0-4.983-2.49-6.06-4.713-.943-1.953-1.953-3.637-3.233-3.637q-.606 0-1.212.606c-3.232 3.3-4.31 20.406-10.706 26.938-3.636 3.57-7.542 3.57-9.966 3.57"/><path fill="url(#g)" d="M19.353 49.998c-10.976 0-14.68-13.805-15.555-16.5-2.088-6.8-2.694-12.93-2.761-13.535C.633 16.259 3.596 13.7 6.895 13.7c2.492 0 5.32 1.481 5.724 5.05.067.607.539 5.792 2.357 11.449 1.818 5.926 3.838 8.149 5.252 8.149 2.29 0 3.704-5.86 4.916-11.449.875-4.108 1.885-8.216 3.838-11.92C32.214 8.582 37.264 7.1 41.709 7.1c9.629 0 14.477 11.18 14.477 14.075 0 4.849-3.973 6.06-5.656 6.06-3.771 0-4.983-2.49-6.06-4.713-.943-1.953-1.953-3.637-3.233-3.637q-.606 0-1.212.606c-3.232 3.3-4.31 20.406-10.706 26.938-3.636 3.57-7.542 3.57-9.966 3.57"/><path fill="url(#h)" d="M19.353 49.998c-10.976 0-14.68-13.805-15.555-16.5-2.088-6.8-2.694-12.93-2.761-13.535C.633 16.259 3.596 13.7 6.895 13.7c2.492 0 5.32 1.481 5.724 5.05.067.607.539 5.792 2.357 11.449 1.818 5.926 3.838 8.149 5.252 8.149 2.29 0 3.704-5.86 4.916-11.449.875-4.108 1.885-8.216 3.838-11.92C32.214 8.582 37.264 7.1 41.709 7.1c9.629 0 14.477 11.18 14.477 14.075 0 4.849-3.973 6.06-5.656 6.06-3.771 0-4.983-2.49-6.06-4.713-.943-1.953-1.953-3.637-3.233-3.637q-.606 0-1.212.606c-3.232 3.3-4.31 20.406-10.706 26.938-3.636 3.57-7.542 3.57-9.966 3.57"/><path fill="url(#i)" d="M19.353 49.998c-10.976 0-14.68-13.805-15.555-16.5-2.088-6.8-2.694-12.93-2.761-13.535C.633 16.259 3.596 13.7 6.895 13.7c2.492 0 5.32 1.481 5.724 5.05.067.607.539 5.792 2.357 11.449 1.818 5.926 3.838 8.149 5.252 8.149 2.29 0 3.704-5.86 4.916-11.449.875-4.108 1.885-8.216 3.838-11.92C32.214 8.582 37.264 7.1 41.709 7.1c9.629 0 14.477 11.18 14.477 14.075 0 4.849-3.973 6.06-5.656 6.06-3.771 0-4.983-2.49-6.06-4.713-.943-1.953-1.953-3.637-3.233-3.637q-.606 0-1.212.606c-3.232 3.3-4.31 20.406-10.706 26.938-3.636 3.57-7.542 3.57-9.966 3.57"/><path fill="url(#j)" d="M41.709 7.1c-4.377 0-9.495 1.482-12.862 7.88-1.952 3.703-2.895 7.811-3.838 11.92-.27 1.346-.606 2.693-.943 4.04v18.587c1.684-.472 3.435-1.347 5.185-3.098 6.465-6.532 7.542-23.638 10.707-26.938q.505-.606 1.212-.606c1.28 0 2.29 1.616 3.232 3.637 1.078 2.222 2.357 4.714 6.06 4.714 1.684 0 5.657-1.212 5.657-6.061 0-2.896-4.781-14.075-14.41-14.075"/><path fill="url(#k)" d="M19.353 49.998c-10.976 0-14.68-13.805-15.555-16.5-2.088-6.8-2.694-12.93-2.761-13.535C.633 16.259 3.596 13.7 6.895 13.7c2.492 0 5.32 1.481 5.724 5.05.067.607.539 5.792 2.357 11.449 1.818 5.926 3.838 8.149 5.252 8.149 2.29 0 3.704-5.86 4.916-11.449.875-4.108 1.885-8.216 3.838-11.92C32.214 8.582 37.264 7.1 41.709 7.1c9.629 0 14.477 11.18 14.477 14.075 0 4.849-3.973 6.06-5.656 6.06-3.771 0-4.983-2.49-6.06-4.713-.943-1.953-1.953-3.637-3.233-3.637q-.606 0-1.212.606c-3.232 3.3-4.31 20.406-10.706 26.938-3.636 3.57-7.542 3.57-9.966 3.57"/><path fill="url(#l)" d="M19.353 49.998c-10.976 0-14.68-13.805-15.555-16.5-2.088-6.8-2.694-12.93-2.761-13.535C.633 16.259 3.596 13.7 6.895 13.7c2.492 0 5.32 1.481 5.724 5.05.067.607.539 5.792 2.357 11.449 1.818 5.926 3.838 8.149 5.252 8.149 2.29 0 3.704-5.86 4.916-11.449.875-4.108 1.885-8.216 3.838-11.92C32.214 8.582 37.264 7.1 41.709 7.1c9.629 0 14.477 11.18 14.477 14.075 0 4.849-3.973 6.06-5.656 6.06-3.771 0-4.983-2.49-6.06-4.713-.943-1.953-1.953-3.637-3.233-3.637q-.606 0-1.212.606c-3.232 3.3-4.31 20.406-10.706 26.938-3.636 3.57-7.542 3.57-9.966 3.57"/><path fill="url(#m)" d="M19.353 49.998c-10.976 0-14.68-13.805-15.555-16.5-2.088-6.8-2.694-12.93-2.761-13.535C.633 16.259 3.596 13.7 6.895 13.7c2.492 0 5.32 1.481 5.724 5.05.067.607.539 5.792 2.357 11.449 1.818 5.926 3.838 8.149 5.252 8.149 2.29 0 3.704-5.86 4.916-11.449.875-4.108 1.885-8.216 3.838-11.92C32.214 8.582 37.264 7.1 41.709 7.1c9.629 0 14.477 11.18 14.477 14.075 0 4.849-3.973 6.06-5.656 6.06-3.771 0-4.983-2.49-6.06-4.713-.943-1.953-1.953-3.637-3.233-3.637q-.606 0-1.212.606c-3.232 3.3-4.31 20.406-10.706 26.938-3.636 3.57-7.542 3.57-9.966 3.57"/><path fill="url(#n)" d="M19.353 49.998c-10.976 0-14.68-13.805-15.555-16.5-2.088-6.8-2.694-12.93-2.761-13.535C.633 16.259 3.596 13.7 6.895 13.7c2.492 0 5.32 1.481 5.724 5.05.067.607.539 5.792 2.357 11.449 1.818 5.926 3.838 8.149 5.252 8.149 2.29 0 3.704-5.86 4.916-11.449.875-4.108 1.885-8.216 3.838-11.92C32.214 8.582 37.264 7.1 41.709 7.1c9.629 0 14.477 11.18 14.477 14.075 0 4.849-3.973 6.06-5.656 6.06-3.771 0-4.983-2.49-6.06-4.713-.943-1.953-1.953-3.637-3.233-3.637q-.606 0-1.212.606c-3.232 3.3-4.31 20.406-10.706 26.938-3.636 3.57-7.542 3.57-9.966 3.57"/><path fill="url(#o)" d="M19.353 49.998c-10.976 0-14.68-13.805-15.555-16.5-2.088-6.8-2.694-12.93-2.761-13.535C.633 16.259 3.596 13.7 6.895 13.7c2.492 0 5.32 1.481 5.724 5.05.067.607.539 5.792 2.357 11.449 1.818 5.926 3.838 8.149 5.252 8.149 2.29 0 3.704-5.86 4.916-11.449.875-4.108 1.885-8.216 3.838-11.92C32.214 8.582 37.264 7.1 41.709 7.1c9.629 0 14.477 11.18 14.477 14.075 0 4.849-3.973 6.06-5.656 6.06-3.771 0-4.983-2.49-6.06-4.713-.943-1.953-1.953-3.637-3.233-3.637q-.606 0-1.212.606c-3.232 3.3-4.31 20.406-10.706 26.938-3.636 3.57-7.542 3.57-9.966 3.57"/><path fill="#4A4A4A" d="M54.366 13.7c-.404 0-.875.067-1.28.135 2.021 2.963 3.031 5.993 3.031 7.34 0 4.849-3.973 6.06-5.656 6.06-1.347 0-2.357-.336-3.165-.807v.067c-.27.943-.404 2.02-.74 3.03-.607 1.954-1.482 4.176-2.425 5.927-1.01 1.885-1.953 2.963-3.097 2.896-1.347-.068-2.357-1.751-3.704-6.533a265 265 0 0 1-1.212-4.916c-.943-4.108-2.02-8.283-3.906-11.92C29.115 8.986 23.795 7.1 19.553 7.1c-3.906 0-6.868 1.886-9.158 4.243-.606.673-1.347 1.549-2.02 2.559 2.02.471 3.906 2.02 4.242 4.849.068.538.472 4.916 1.886 9.966.404-1.28 1.01-3.165 2.357-6.128.673-1.414 1.279-2.29 1.818-2.828.471-.539.942-.741 1.346-.741.472 0 1.953.404 3.435 5.522 1.75 6.263 3.097 16.365 8.215 21.752 2.29 2.357 5.454 3.906 9.83 3.906 3.84 0 7.071-1.684 9.36-4.04 3.772-3.906 5.86-10.304 6.6-12.661 2.087-6.735 2.693-12.863 2.76-13.536.405-3.704-2.76-6.263-5.858-6.263"/><path fill="url(#p)" d="M54.366 13.7c-.404 0-.875.067-1.28.135 2.021 2.963 3.031 5.993 3.031 7.34 0 4.849-3.973 6.06-5.656 6.06-1.347 0-2.357-.336-3.165-.807v.067c-.27.943-.404 2.02-.74 3.03-.607 1.954-1.482 4.176-2.425 5.927-1.01 1.885-1.953 2.963-3.097 2.896-1.347-.068-2.357-1.751-3.704-6.533a265 265 0 0 1-1.212-4.916c-.943-4.108-2.02-8.283-3.906-11.92C29.115 8.986 23.795 7.1 19.553 7.1c-3.906 0-6.868 1.886-9.158 4.243-.606.673-1.347 1.549-2.02 2.559 2.02.471 3.906 2.02 4.242 4.849.068.538.472 4.916 1.886 9.966.404-1.28 1.01-3.165 2.357-6.128.673-1.414 1.279-2.29 1.818-2.828.471-.539.942-.741 1.346-.741.472 0 1.953.404 3.435 5.522 1.75 6.263 3.097 16.365 8.215 21.752 2.29 2.357 5.454 3.906 9.83 3.906 3.84 0 7.071-1.684 9.36-4.04 3.772-3.906 5.86-10.304 6.6-12.661 2.087-6.735 2.693-12.863 2.76-13.536.405-3.704-2.76-6.263-5.858-6.263"/><path fill="url(#q)" d="M54.366 13.7c-.404 0-.875.067-1.28.135 2.021 2.963 3.031 5.993 3.031 7.34 0 4.849-3.973 6.06-5.656 6.06-1.347 0-2.357-.336-3.165-.807v.067c-.27.943-.404 2.02-.74 3.03-.607 1.954-1.482 4.176-2.425 5.927-1.01 1.885-1.953 2.963-3.097 2.896-1.347-.068-2.357-1.751-3.704-6.533a265 265 0 0 1-1.212-4.916c-.943-4.108-2.02-8.283-3.906-11.92C29.115 8.986 23.795 7.1 19.553 7.1c-3.906 0-6.868 1.886-9.158 4.243-.606.673-1.347 1.549-2.02 2.559 2.02.471 3.906 2.02 4.242 4.849.068.538.472 4.916 1.886 9.966.404-1.28 1.01-3.165 2.357-6.128.673-1.414 1.279-2.29 1.818-2.828.471-.539.942-.741 1.346-.741.472 0 1.953.404 3.435 5.522 1.75 6.263 3.097 16.365 8.215 21.752 2.29 2.357 5.454 3.906 9.83 3.906 3.84 0 7.071-1.684 9.36-4.04 3.772-3.906 5.86-10.304 6.6-12.661 2.087-6.735 2.693-12.863 2.76-13.536.405-3.704-2.76-6.263-5.858-6.263"/><path fill="url(#r)" d="M54.366 13.7c-.404 0-.875.067-1.28.135 2.021 2.963 3.031 5.993 3.031 7.34 0 4.849-3.973 6.06-5.656 6.06-1.347 0-2.357-.336-3.165-.807v.067c-.27.943-.404 2.02-.74 3.03-.607 1.954-1.482 4.176-2.425 5.927-1.01 1.885-1.953 2.963-3.097 2.896-1.347-.068-2.357-1.751-3.704-6.533a265 265 0 0 1-1.212-4.916c-.943-4.108-2.02-8.283-3.906-11.92C29.115 8.986 23.795 7.1 19.553 7.1c-3.906 0-6.868 1.886-9.158 4.243-.606.673-1.347 1.549-2.02 2.559 2.02.471 3.906 2.02 4.242 4.849.068.538.472 4.916 1.886 9.966.404-1.28 1.01-3.165 2.357-6.128.673-1.414 1.279-2.29 1.818-2.828.471-.539.942-.741 1.346-.741.472 0 1.953.404 3.435 5.522 1.75 6.263 3.097 16.365 8.215 21.752 2.29 2.357 5.454 3.906 9.83 3.906 3.84 0 7.071-1.684 9.36-4.04 3.772-3.906 5.86-10.304 6.6-12.661 2.087-6.735 2.693-12.863 2.76-13.536.405-3.704-2.76-6.263-5.858-6.263"/><path fill="url(#s)" d="M54.366 13.7c-.404 0-.875.067-1.28.135 2.021 2.963 3.031 5.993 3.031 7.34 0 4.849-3.973 6.06-5.656 6.06-1.347 0-2.357-.336-3.165-.807v.067c-.27.943-.404 2.02-.74 3.03-.607 1.954-1.482 4.176-2.425 5.927-1.01 1.885-1.953 2.963-3.097 2.896-1.347-.068-2.357-1.751-3.704-6.533a265 265 0 0 1-1.212-4.916c-.943-4.108-2.02-8.283-3.906-11.92C29.115 8.986 23.795 7.1 19.553 7.1c-3.906 0-6.868 1.886-9.158 4.243-.606.673-1.347 1.549-2.02 2.559 2.02.471 3.906 2.02 4.242 4.849.068.538.472 4.916 1.886 9.966.404-1.28 1.01-3.165 2.357-6.128.673-1.414 1.279-2.29 1.818-2.828.471-.539.942-.741 1.346-.741.472 0 1.953.404 3.435 5.522 1.75 6.263 3.097 16.365 8.215 21.752 2.29 2.357 5.454 3.906 9.83 3.906 3.84 0 7.071-1.684 9.36-4.04 3.772-3.906 5.86-10.304 6.6-12.661 2.087-6.735 2.693-12.863 2.76-13.536.405-3.704-2.76-6.263-5.858-6.263"/><path fill="url(#t)" d="M54.366 13.7c-.404 0-.875.067-1.28.135 2.021 2.963 3.031 5.993 3.031 7.34 0 4.849-3.973 6.06-5.656 6.06-1.347 0-2.357-.336-3.165-.807v.067c-.27.943-.404 2.02-.74 3.03-.607 1.954-1.482 4.176-2.425 5.927-1.01 1.885-1.953 2.963-3.097 2.896-1.347-.068-2.357-1.751-3.704-6.533a265 265 0 0 1-1.212-4.916c-.943-4.108-2.02-8.283-3.906-11.92C29.115 8.986 23.795 7.1 19.553 7.1c-3.906 0-6.868 1.886-9.158 4.243-.606.673-1.347 1.549-2.02 2.559 2.02.471 3.906 2.02 4.242 4.849.068.538.472 4.916 1.886 9.966.404-1.28 1.01-3.165 2.357-6.128.673-1.414 1.279-2.29 1.818-2.828.471-.539.942-.741 1.346-.741.472 0 1.953.404 3.435 5.522 1.75 6.263 3.097 16.365 8.215 21.752 2.29 2.357 5.454 3.906 9.83 3.906 3.84 0 7.071-1.684 9.36-4.04 3.772-3.906 5.86-10.304 6.6-12.661 2.087-6.735 2.693-12.863 2.76-13.536.405-3.704-2.76-6.263-5.858-6.263"/><path fill="url(#u)" d="M54.366 13.7c-.404 0-.875.067-1.28.135 2.021 2.963 3.031 5.993 3.031 7.34 0 4.849-3.973 6.06-5.656 6.06-1.347 0-2.357-.336-3.165-.807v.067c-.27.943-.404 2.02-.74 3.03-.607 1.954-1.482 4.176-2.425 5.927-1.01 1.885-1.953 2.963-3.097 2.896-1.347-.068-2.357-1.751-3.704-6.533a265 265 0 0 1-1.212-4.916c-.943-4.108-2.02-8.283-3.906-11.92C29.115 8.986 23.795 7.1 19.553 7.1c-3.906 0-6.868 1.886-9.158 4.243-.606.673-1.347 1.549-2.02 2.559 2.02.471 3.906 2.02 4.242 4.849.068.538.472 4.916 1.886 9.966.404-1.28 1.01-3.165 2.357-6.128.673-1.414 1.279-2.29 1.818-2.828.471-.539.942-.741 1.346-.741.472 0 1.953.404 3.435 5.522 1.75 6.263 3.097 16.365 8.215 21.752 2.29 2.357 5.454 3.906 9.83 3.906 3.84 0 7.071-1.684 9.36-4.04 3.772-3.906 5.86-10.304 6.6-12.661 2.087-6.735 2.693-12.863 2.76-13.536.405-3.704-2.76-6.263-5.858-6.263"/><path fill="url(#v)" d="M54.366 13.7c-.404 0-.875.067-1.28.135 2.021 2.963 3.031 5.993 3.031 7.34 0 4.849-3.973 6.06-5.656 6.06-1.347 0-2.357-.336-3.165-.807v.067c-.27.943-.404 2.02-.74 3.03-.607 1.954-1.482 4.176-2.425 5.927-1.01 1.885-1.953 2.963-3.097 2.896-1.347-.068-2.357-1.751-3.704-6.533a265 265 0 0 1-1.212-4.916c-.943-4.108-2.02-8.283-3.906-11.92C29.115 8.986 23.795 7.1 19.553 7.1c-3.906 0-6.868 1.886-9.158 4.243-.606.673-1.347 1.549-2.02 2.559 2.02.471 3.906 2.02 4.242 4.849.068.538.472 4.916 1.886 9.966.404-1.28 1.01-3.165 2.357-6.128.673-1.414 1.279-2.29 1.818-2.828.471-.539.942-.741 1.346-.741.472 0 1.953.404 3.435 5.522 1.75 6.263 3.097 16.365 8.215 21.752 2.29 2.357 5.454 3.906 9.83 3.906 3.84 0 7.071-1.684 9.36-4.04 3.772-3.906 5.86-10.304 6.6-12.661 2.087-6.735 2.693-12.863 2.76-13.536.405-3.704-2.76-6.263-5.858-6.263"/><path fill="url(#w)" d="M54.366 13.7c-.404 0-.875.067-1.28.135 2.021 2.963 3.031 5.993 3.031 7.34 0 4.849-3.973 6.06-5.656 6.06-1.347 0-2.357-.336-3.165-.807v.067c-.27.943-.404 2.02-.74 3.03-.607 1.954-1.482 4.176-2.425 5.927-1.01 1.885-1.953 2.963-3.097 2.896-1.347-.068-2.357-1.751-3.704-6.533a265 265 0 0 1-1.212-4.916c-.943-4.108-2.02-8.283-3.906-11.92C29.115 8.986 23.795 7.1 19.553 7.1c-3.906 0-6.868 1.886-9.158 4.243-.606.673-1.347 1.549-2.02 2.559 2.02.471 3.906 2.02 4.242 4.849.068.538.472 4.916 1.886 9.966.404-1.28 1.01-3.165 2.357-6.128.673-1.414 1.279-2.29 1.818-2.828.471-.539.942-.741 1.346-.741.472 0 1.953.404 3.435 5.522 1.75 6.263 3.097 16.365 8.215 21.752 2.29 2.357 5.454 3.906 9.83 3.906 3.84 0 7.071-1.684 9.36-4.04 3.772-3.906 5.86-10.304 6.6-12.661 2.087-6.735 2.693-12.863 2.76-13.536.405-3.704-2.76-6.263-5.858-6.263"/><path fill="url(#x)" d="M54.366 13.7c-.404 0-.875.067-1.28.135 2.021 2.963 3.031 5.993 3.031 7.34 0 4.849-3.973 6.06-5.656 6.06-1.347 0-2.357-.336-3.165-.807v.067c-.27.943-.404 2.02-.74 3.03-.607 1.954-1.482 4.176-2.425 5.927-1.01 1.885-1.953 2.963-3.097 2.896-1.347-.068-2.357-1.751-3.704-6.533a265 265 0 0 1-1.212-4.916c-.943-4.108-2.02-8.283-3.906-11.92C29.115 8.986 23.795 7.1 19.553 7.1c-3.906 0-6.868 1.886-9.158 4.243-.606.673-1.347 1.549-2.02 2.559 2.02.471 3.906 2.02 4.242 4.849.068.538.472 4.916 1.886 9.966.404-1.28 1.01-3.165 2.357-6.128.673-1.414 1.279-2.29 1.818-2.828.471-.539.942-.741 1.346-.741.472 0 1.953.404 3.435 5.522 1.75 6.263 3.097 16.365 8.215 21.752 2.29 2.357 5.454 3.906 9.83 3.906 3.84 0 7.071-1.684 9.36-4.04 3.772-3.906 5.86-10.304 6.6-12.661 2.087-6.735 2.693-12.863 2.76-13.536.405-3.704-2.76-6.263-5.858-6.263"/><path fill="url(#y)" d="M54.366 13.7c-.404 0-.875.067-1.28.135 2.021 2.963 3.031 5.993 3.031 7.34 0 4.849-3.973 6.06-5.656 6.06-1.347 0-2.357-.336-3.165-.807v.067c-.27.943-.404 2.02-.74 3.03-.607 1.954-1.482 4.176-2.425 5.927-1.01 1.885-1.953 2.963-3.097 2.896-1.347-.068-2.357-1.751-3.704-6.533a265 265 0 0 1-1.212-4.916c-.943-4.108-2.02-8.283-3.906-11.92C29.115 8.986 23.795 7.1 19.553 7.1c-3.906 0-6.868 1.886-9.158 4.243-.606.673-1.347 1.549-2.02 2.559 2.02.471 3.906 2.02 4.242 4.849.068.538.472 4.916 1.886 9.966.404-1.28 1.01-3.165 2.357-6.128.673-1.414 1.279-2.29 1.818-2.828.471-.539.942-.741 1.346-.741.472 0 1.953.404 3.435 5.522 1.75 6.263 3.097 16.365 8.215 21.752 2.29 2.357 5.454 3.906 9.83 3.906 3.84 0 7.071-1.684 9.36-4.04 3.772-3.906 5.86-10.304 6.6-12.661 2.087-6.735 2.693-12.863 2.76-13.536.405-3.704-2.76-6.263-5.858-6.263"/><path fill="url(#z)" d="M54.366 13.7c-.404 0-.875.067-1.28.135 2.021 2.963 3.031 5.993 3.031 7.34 0 4.849-3.973 6.06-5.656 6.06-1.347 0-2.357-.336-3.165-.807v.067c-.27.943-.404 2.02-.74 3.03-.607 1.954-1.482 4.176-2.425 5.927-1.01 1.885-1.953 2.963-3.097 2.896-1.347-.068-2.357-1.751-3.704-6.533a265 265 0 0 1-1.212-4.916c-.943-4.108-2.02-8.283-3.906-11.92C29.115 8.986 23.795 7.1 19.553 7.1c-3.906 0-6.868 1.886-9.158 4.243-.606.673-1.347 1.549-2.02 2.559 2.02.471 3.906 2.02 4.242 4.849.068.538.472 4.916 1.886 9.966.404-1.28 1.01-3.165 2.357-6.128.673-1.414 1.279-2.29 1.818-2.828.471-.539.942-.741 1.346-.741.472 0 1.953.404 3.435 5.522 1.75 6.263 3.097 16.365 8.215 21.752 2.29 2.357 5.454 3.906 9.83 3.906 3.84 0 7.071-1.684 9.36-4.04 3.772-3.906 5.86-10.304 6.6-12.661 2.087-6.735 2.693-12.863 2.76-13.536.405-3.704-2.76-6.263-5.858-6.263"/><path fill="url(#A)" d="M54.366 13.7c-.404 0-.875.067-1.28.135 2.021 2.963 3.031 5.993 3.031 7.34 0 4.849-3.973 6.06-5.656 6.06-1.347 0-2.357-.336-3.165-.807v.067c-.27.943-.404 2.02-.74 3.03-.607 1.954-1.482 4.176-2.425 5.927-1.01 1.885-1.953 2.963-3.097 2.896-1.347-.068-2.357-1.751-3.704-6.533a265 265 0 0 1-1.212-4.916c-.943-4.108-2.02-8.283-3.906-11.92C29.115 8.986 23.795 7.1 19.553 7.1c-3.906 0-6.868 1.886-9.158 4.243-.606.673-1.347 1.549-2.02 2.559 2.02.471 3.906 2.02 4.242 4.849.068.538.472 4.916 1.886 9.966.404-1.28 1.01-3.165 2.357-6.128.673-1.414 1.279-2.29 1.818-2.828.471-.539.942-.741 1.346-.741.472 0 1.953.404 3.435 5.522 1.75 6.263 3.097 16.365 8.215 21.752 2.29 2.357 5.454 3.906 9.83 3.906 3.84 0 7.071-1.684 9.36-4.04 3.772-3.906 5.86-10.304 6.6-12.661 2.087-6.735 2.693-12.863 2.76-13.536.405-3.704-2.76-6.263-5.858-6.263"/><path fill="url(#B)" d="M54.366 13.7c-.404 0-.875.067-1.28.135 2.021 2.963 3.031 5.993 3.031 7.34 0 4.849-3.973 6.06-5.656 6.06-1.347 0-2.357-.336-3.165-.807v.067c-.27.943-.404 2.02-.74 3.03-.607 1.954-1.482 4.176-2.425 5.927-1.01 1.885-1.953 2.963-3.097 2.896-1.347-.068-2.357-1.751-3.704-6.533a265 265 0 0 1-1.212-4.916c-.943-4.108-2.02-8.283-3.906-11.92C29.115 8.986 23.795 7.1 19.553 7.1c-3.906 0-6.868 1.886-9.158 4.243-.606.673-1.347 1.549-2.02 2.559 2.02.471 3.906 2.02 4.242 4.849.068.538.472 4.916 1.886 9.966.404-1.28 1.01-3.165 2.357-6.128.673-1.414 1.279-2.29 1.818-2.828.471-.539.942-.741 1.346-.741.472 0 1.953.404 3.435 5.522 1.75 6.263 3.097 16.365 8.215 21.752 2.29 2.357 5.454 3.906 9.83 3.906 3.84 0 7.071-1.684 9.36-4.04 3.772-3.906 5.86-10.304 6.6-12.661 2.087-6.735 2.693-12.863 2.76-13.536.405-3.704-2.76-6.263-5.858-6.263"/><path fill="#000" d="M200.347 56.984h-2.794v11.103h2.794zM222.991 60.164a4.9 4.9 0 0 0-2.356-.591c-1.819 0-3.08 1.26-3.08 2.96 0 1.651 1.208 2.964 3.08 2.964.822.003 1.632-.199 2.356-.588v2.98a9 9 0 0 1-2.558.392c-3.157 0-5.926-2.167-5.926-5.748 0-3.313 2.508-5.744 5.926-5.744a8.6 8.6 0 0 1 2.558.396zM193.682 60.164a4.9 4.9 0 0 0-2.36-.591c-1.819 0-3.076 1.26-3.076 2.96 0 1.651 1.204 2.964 3.076 2.964a5 5 0 0 0 2.36-.588v2.98a9 9 0 0 1-2.561.392c-3.158 0-5.927-2.167-5.927-5.748 0-3.313 2.509-5.744 5.927-5.744a8.6 8.6 0 0 1 2.561.396zM231.825 59.613a2.89 2.89 0 0 0-2.069.85 2.88 2.88 0 0 0-.834 2.07 2.866 2.866 0 0 0 1.781 2.708c.356.147.737.22 1.122.216a2.88 2.88 0 0 0 2.905-2.923 2.876 2.876 0 0 0-2.905-2.92m5.879 2.92c0 3.178-2.455 5.748-5.879 5.748s-5.877-2.57-5.877-5.748c0-3.177 2.456-5.744 5.877-5.744s5.879 2.573 5.879 5.744M210.997 59.508a9.7 9.7 0 0 0-2.195-.338c-1.123 0-1.735.375-1.735.908 0 .678.826.929 1.285 1.059l.776.244c1.822.58 2.651 1.825 2.651 3.178 0 2.787-2.455 3.716-4.606 3.716a17 17 0 0 1-3.03-.31v-2.554c.862.249 1.753.387 2.651.412 1.397 0 2.039-.406 2.039-1.038 0-.56-.555-.886-1.241-1.106l-.6-.192c-1.552-.492-2.868-1.409-2.868-3.248 0-2.075 1.552-3.469 4.147-3.469.923.013 1.84.131 2.735.353zM165.578 68.05h-1.22V56.97h1.481v4.184a3.08 3.08 0 0 1 2.685-1.338 3.2 3.2 0 0 1 2.683 1.24q.847 1.108.847 2.938 0 2.168-1.155 3.323a3.37 3.37 0 0 1-2.483.97 2.98 2.98 0 0 1-2.608-1.292zm4.933-4.095q0-1.51-.754-2.26a2.1 2.1 0 0 0-1.574-.62 2.18 2.18 0 0 0-1.788.814 3.18 3.18 0 0 0-.621 2.063c0 1.025.251 1.812.757 2.353a2.12 2.12 0 0 0 1.664.71 2.02 2.02 0 0 0 1.761-.849q.561-.78.561-2.211zM179.988 60.047l-2.794 8.108q-.558 1.615-1.065 2.202a1.96 1.96 0 0 1-1.552.69 4.2 4.2 0 0 1-.956-.136v-1.208q.38.1.773.108a.89.89 0 0 0 .739-.33c.283-.449.506-.932.664-1.438h-.478l-2.946-8.003h1.586l2.27 6.814 2.266-6.813zM113.895 17.811h6.275l-9.123 27.513h-7.199l-6.819-20.762-6.819 20.762h-7.086L74 17.81h6.422l6.474 20.908 6.793-20.908h6.819l6.905 21.02zM147.084 33.776H126.73a8.75 8.75 0 0 0 1.554 3.935 7 7 0 0 0 2.892 2.325 9.2 9.2 0 0 0 3.728.75 12 12 0 0 0 4.161-.758 13.6 13.6 0 0 0 3.815-2.144l2.995 4.305a15.2 15.2 0 0 1-5.231 2.971c-1.977.62-4.039.924-6.111.904a14.64 14.64 0 0 1-7.311-1.79 12.7 12.7 0 0 1-4.997-5.081 15.6 15.6 0 0 1-1.796-7.595 15.94 15.94 0 0 1 1.727-7.544 12.7 12.7 0 0 1 4.85-5.106 13.8 13.8 0 0 1 7.139-1.826c2.361-.065 4.69.55 6.709 1.772a12.27 12.27 0 0 1 4.676 5.117 16.46 16.46 0 0 1 1.657 7.526c.009.577-.026 1.327-.103 2.24m-6.043-4.564a8.5 8.5 0 0 0-2.304-5.029 6.41 6.41 0 0 0-4.696-1.722 6.76 6.76 0 0 0-4.937 1.826 8.73 8.73 0 0 0-2.374 4.951zM172.831 18.965a13.4 13.4 0 0 1 4.981 5.167 15.1 15.1 0 0 1 1.83 7.44 15.1 15.1 0 0 1-1.83 7.431 13.4 13.4 0 0 1-4.997 5.185 13.4 13.4 0 0 1-6.967 1.85 11.3 11.3 0 0 1-4.98-1.041 10.3 10.3 0 0 1-3.651-2.946v3.273h-6.042V6.1h6.042v14.983a10.36 10.36 0 0 1 3.651-2.927 11.2 11.2 0 0 1 4.98-1.05c2.455-.03 4.871.613 6.983 1.86m-3.297 20.245a7.76 7.76 0 0 0 2.909-3.195 10.31 10.31 0 0 0 0-8.895 7.8 7.8 0 0 0-2.909-3.195 8.81 8.81 0 0 0-8.735 0 7.87 7.87 0 0 0-2.935 3.16 9.5 9.5 0 0 0-1.053 4.513 9.47 9.47 0 0 0 1.053 4.503 7.87 7.87 0 0 0 2.935 3.16 8.81 8.81 0 0 0 8.735 0zM209.455 33.776h-20.344a8.75 8.75 0 0 0 1.553 3.935 7.03 7.03 0 0 0 2.892 2.325 9.2 9.2 0 0 0 3.729.75 12.1 12.1 0 0 0 4.16-.758 13.5 13.5 0 0 0 3.815-2.144l2.987 4.305a15.1 15.1 0 0 1-5.222 2.971c-1.98.619-4.045.924-6.12.904a14.7 14.7 0 0 1-7.311-1.79 12.75 12.75 0 0 1-4.989-5.081 15.6 15.6 0 0 1-1.804-7.595 15.96 15.96 0 0 1 1.726-7.544 12.7 12.7 0 0 1 4.851-5.106 13.8 13.8 0 0 1 7.19-1.852 12.33 12.33 0 0 1 6.707 1.776 12.3 12.3 0 0 1 4.678 5.113 16.45 16.45 0 0 1 1.658 7.527c-.035.602-.095 1.352-.156 2.264m-6.042-4.564a8.55 8.55 0 0 0-2.313-4.994 6.44 6.44 0 0 0-4.678-1.757 6.75 6.75 0 0 0-4.938 1.826 8.7 8.7 0 0 0-2.373 4.951zM238.156 45.324h-7.398l-6.991-9.567-6.905 9.567h-7.052l10.357-14.045-10.193-13.468h7.405l6.733 9.188 6.733-9.188H238l-10.237 13.416z"/><defs><radialGradient id="b" cx="0" cy="0" r="1" gradientTransform="matrix(-13.02503 -21.78135 18.2916 -10.9382 23.525 29.986)" gradientUnits="userSpaceOnUse"><stop/><stop offset=".408" stop-opacity=".75"/><stop offset=".875" stop-opacity="0"/></radialGradient><radialGradient id="c" cx="0" cy="0" r="1" gradientTransform="matrix(-12.3857 -16.58405 10.89889 -8.13977 40.209 25.277)" gradientUnits="userSpaceOnUse"><stop stop-color="#0D0D0D"/><stop offset=".46" stop-color="#090909"/><stop offset="1" stop-opacity="0"/></radialGradient><radialGradient id="d" cx="0" cy="0" r="1" gradientTransform="matrix(-9.87848 -17.91404 12.41938 -6.84852 26.893 33.027)" gradientUnits="userSpaceOnUse"><stop/><stop offset=".408" stop-opacity=".79"/><stop offset=".875" stop-opacity="0"/></radialGradient><radialGradient id="e" cx="0" cy="0" r="1" gradientTransform="rotate(85.094 4.584 33.134)scale(16.1195 9.14939)" gradientUnits="userSpaceOnUse"><stop/><stop offset=".233" stop-opacity=".75"/><stop offset=".599" stop-opacity=".301"/><stop offset=".875" stop-opacity="0"/></radialGradient><radialGradient id="f" cx="0" cy="0" r="1" gradientTransform="rotate(57.058 19.248 34.701)scale(18.9528 9.94371)" gradientUnits="userSpaceOnUse"><stop stop-color="#2B2B2B"/><stop offset=".408" stop-color="#323232"/><stop offset="1" stop-color="#323232" stop-opacity=".07"/></radialGradient><radialGradient id="g" cx="0" cy="0" r="1" gradientTransform="rotate(42.8 -19.372 5.053)scale(12.3895 17.1237)" gradientUnits="userSpaceOnUse"><stop stop-color="#fff"/><stop offset="1" stop-color="#4A4A4A" stop-opacity="0"/></radialGradient><radialGradient id="h" cx="0" cy="0" r="1" gradientTransform="matrix(15.15085 -2.35703 3.25796 20.942 -8.459 26.966)" gradientUnits="userSpaceOnUse"><stop stop-color="#fff"/><stop offset="1" stop-color="#4A4A4A" stop-opacity="0"/></radialGradient><radialGradient id="i" cx="0" cy="0" r="1" gradientTransform="rotate(-32.008 70.46 29.18)scale(15.8819 21.9514)" gradientUnits="userSpaceOnUse"><stop stop-color="#fff"/><stop offset="1" stop-color="#4A4A4A" stop-opacity="0"/></radialGradient><radialGradient id="j" cx="0" cy="0" r="1" gradientTransform="rotate(47.991 16.155 9.135)scale(50.2103 50.1351)" gradientUnits="userSpaceOnUse"><stop stop-color="#464646"/><stop offset=".745" stop-color="#444" stop-opacity="0"/></radialGradient><radialGradient id="k" cx="0" cy="0" r="1" gradientTransform="matrix(-10.902 -13.19185 9.23685 -7.63351 51.59 19.456)" gradientUnits="userSpaceOnUse"><stop stop-color="#717171"/><stop offset="1" stop-color="#444" stop-opacity="0"/></radialGradient><radialGradient id="l" cx="0" cy="0" r="1" gradientTransform="matrix(.8972 -4.17477 5.83833 1.25472 48.892 30.104)" gradientUnits="userSpaceOnUse"><stop stop-color="#0F0F0F"/><stop offset="1" stop-opacity="0"/></radialGradient><radialGradient id="m" cx="0" cy="0" r="1" gradientTransform="matrix(-10.15524 -5.50467 3.86752 -7.13496 54.502 17.538)" gradientUnits="userSpaceOnUse"><stop stop-color="#7C7C7C"/><stop offset=".813" stop-color="#727272" stop-opacity="0"/></radialGradient><radialGradient id="n" cx="0" cy="0" r="1" gradientTransform="rotate(-169.765 28.727 4.57)scale(12.03 8.45256)" gradientUnits="userSpaceOnUse"><stop stop-color="#C4C4C4"/><stop offset=".813" stop-color="#727272" stop-opacity="0"/></radialGradient><radialGradient id="o" cx="0" cy="0" r="1" gradientTransform="rotate(49.63 -7.61 -6.615)scale(24.7556 24.6967)" gradientUnits="userSpaceOnUse"><stop stop-color="#4C4C4C"/><stop offset="1" stop-color="#494949" stop-opacity="0"/></radialGradient><radialGradient id="q" cx="0" cy="0" r="1" gradientTransform="rotate(37.436 -14.269 86.392)scale(12.6028 17.5142)" gradientUnits="userSpaceOnUse"><stop stop-color="#010101"/><stop offset=".966" stop-color="#010101" stop-opacity="0"/></radialGradient><radialGradient id="t" cx="0" cy="0" r="1" gradientTransform="rotate(8.48 -165.048 327.092)scale(14.8739 22.1858)" gradientUnits="userSpaceOnUse"><stop stop-color="#010101"/><stop offset=".593" stop-color="#010101" stop-opacity="0"/></radialGradient><radialGradient id="u" cx="0" cy="0" r="1" gradientTransform="matrix(11.54668 5.29795 -9.4358 20.565 47.636 29.754)" gradientUnits="userSpaceOnUse"><stop stop-color="#010101"/><stop offset=".757" stop-color="#010101" stop-opacity="0"/></radialGradient><radialGradient id="v" cx="0" cy="0" r="1" gradientTransform="matrix(-1.01005 9.76486 -4.2026 -.4347 20.159 26.63)" gradientUnits="userSpaceOnUse"><stop stop-color="#010101"/><stop offset=".885" stop-color="#010101" stop-opacity="0"/></radialGradient><radialGradient id="w" cx="0" cy="0" r="1" gradientTransform="rotate(-7.595 223.55 -25.598)scale(25.475 25.9695)" gradientUnits="userSpaceOnUse"><stop stop-color="#010101" stop-opacity=".5"/><stop offset=".885" stop-color="#010101" stop-opacity="0"/></radialGradient><radialGradient id="x" cx="0" cy="0" r="1" gradientTransform="rotate(-3.407 429.274 -128.17)scale(28.3317 55.3521)" gradientUnits="userSpaceOnUse"><stop stop-color="#010101" stop-opacity=".5"/><stop offset=".823" stop-color="#010101" stop-opacity="0"/></radialGradient><radialGradient id="z" cx="0" cy="0" r="1" gradientTransform="rotate(-159.54 9.974 9.972)scale(11.2463 19.2459)" gradientUnits="userSpaceOnUse"><stop stop-color="#010101"/><stop offset=".709" stop-color="#010101" stop-opacity="0"/></radialGradient><radialGradient id="A" cx="0" cy="0" r="1" gradientTransform="rotate(57.85 .993 32.805)scale(13.9196 9.3936)" gradientUnits="userSpaceOnUse"><stop stop-color="#fff" stop-opacity=".15"/><stop offset="1" stop-color="#fff" stop-opacity="0"/></radialGradient><linearGradient id="a" x1="50.245" x2="11.49" y1="20.025" y2="32.744" gradientUnits="userSpaceOnUse"><stop stop-color="#7B7B7B"/><stop offset="1" stop-color="#464646"/></linearGradient><linearGradient id="p" x1="58.541" x2="4.671" y1="27.64" y2="27.64" gradientUnits="userSpaceOnUse"><stop stop-color="#3E3E3E" stop-opacity="0"/><stop offset=".461" stop-color="#3E3E3E"/><stop offset="1" stop-color="#3E3E3E" stop-opacity="0"/></linearGradient><linearGradient id="r" x1="73.019" x2="49.113" y1="21.579" y2="37.066" gradientUnits="userSpaceOnUse"><stop stop-color="#fff" stop-opacity=".3"/><stop offset=".966" stop-color="#fff" stop-opacity="0"/></linearGradient><linearGradient id="s" x1="56.521" x2="43.727" y1="50.2" y2="43.803" gradientUnits="userSpaceOnUse"><stop stop-color="#fff" stop-opacity=".3"/><stop offset=".966" stop-color="#fff" stop-opacity="0"/></linearGradient><linearGradient id="y" x1="23.189" x2="36.995" y1="55.588" y2="43.467" gradientUnits="userSpaceOnUse"><stop stop-color="#010101"/><stop offset="1" stop-color="#010101" stop-opacity="0"/></linearGradient><linearGradient id="B" x1="18.812" x2="19.486" y1="4.406" y2="10.804" gradientUnits="userSpaceOnUse"><stop stop-opacity=".5"/><stop offset="1" stop-opacity="0"/></linearGradient></defs></svg>