<svg xmlns="http://www.w3.org/2000/svg" width="238" height="78" fill="none" viewBox="0 0 238 78"><g fill="#fff" clip-path="url(#a)"><path d="M5.82 13.7c-2.846.216-5.193 3.233-4.77 6.33.131 1.132.421 2.883.79 4.795.158.862.343 1.778.527 2.667a63 63 0 0 0 1.714 6.357 53 53 0 0 0 2.663 6.761c3.98 7.92 9.359 9.59 13.181 9.59 1.795.015 3.573-.36 5.215-1.104a12.6 12.6 0 0 0 4.302-3.206 19 19 0 0 1-1.766-2.775c-1.687-3.178-2.768-6.842-3.691-10.667a25 25 0 0 1-1.687 4.418c-1.107 2.101-1.872 2.101-2.373 2.101-1.08 0-2.214-1.185-3.374-3.475a38 38 0 0 1-1.582-3.852 59 59 0 0 1-.896-2.855c-.264-.943-.739-2.613-.95-3.663-.553-2.56-1.212-6.762-1.239-6.896-.237-1.212-1.634-4.903-6.063-4.526M52.036 25.014c2.82-1.104 4.007-4.606 2.742-7.435l-.106-.269a24 24 0 0 0-1.793-3.313 11.6 11.6 0 0 0-1.107-1.562C48.16 7.909 43.916 7.1 41.332 7.1a12.4 12.4 0 0 0-5.213 1.106 12.64 12.64 0 0 0-4.304 3.204 18 18 0 0 1 1.661 2.586c1.767 3.26 2.874 7.73 3.797 11.529.5-1.724 1.08-3.933 1.74-5.172 1.08-2.02 1.819-2.02 2.32-2.02 1.502 0 2.715 2.262 3.295 3.582 0 0 2.083 5.226 7.408 3.098"/><path d="m55.489 13.7-.501-.054h-.132q.826 1.409 1.476 2.91l.132.269a7.67 7.67 0 0 1 .169 5.728 7.45 7.45 0 0 1-3.833 4.185 7.4 7.4 0 0 1-3.032.673 8 8 0 0 1-2.11-.323c-.737 2.828-1.897 6.303-2.952 8.404s-2.293 3.475-3.4 3.475c-.475 0-1.24 0-2.347-2.101a25 25 0 0 1-1.687-4.418 86 86 0 0 1-.976-3.77c-.131-.486-.237-.97-.342-1.456-1.002-4.256-2.136-8.727-4.087-12.31a20 20 0 0 0-1.239-1.993 18 18 0 0 0-1.186-1.508 12.65 12.65 0 0 0-4.316-3.21 12.4 12.4 0 0 0-5.227-1.1c-2.558 0-6.802.808-10.414 5.333a7.4 7.4 0 0 1 2.876 2.358 7.6 7.6 0 0 1 1.395 3.487c.185 1.347.633 3.96 1.16 6.438.053.27.106.54.185.835.395-1.05.79-1.939 1.212-2.936l.317-.7c.58-1.32 1.792-3.583 3.269-3.583.527 0 1.265 0 2.346 2.02a24.3 24.3 0 0 1 1.74 4.526c.343 1.212.685 2.505.975 3.798.106.377.185.754.264 1.131 1.055 4.499 2.162 8.836 4.06 12.418q.59 1.144 1.344 2.182.555.773 1.187 1.482c3.137 3.475 6.749 4.31 9.49 4.31 3.823 0 9.227-1.67 13.208-9.59 2.03-4.067 3.744-10.074 4.376-13.118s1.108-5.791 1.319-7.462c.1-.732.057-1.478-.127-2.194a5.7 5.7 0 0 0-.942-1.975 5.5 5.5 0 0 0-1.614-1.454 5.4 5.4 0 0 0-2.036-.707M200.374 57.128h-2.799v11.124h2.799zM223.061 60.315a4.9 4.9 0 0 0-2.364-.592c-1.822 0-3.085 1.262-3.085 2.966 0 1.654 1.21 2.97 3.085 2.97.825.001 1.637-.201 2.364-.59v2.985a9 9 0 0 1-2.566.394c-3.163 0-5.937-2.172-5.937-5.76 0-3.32 2.513-5.755 5.937-5.755a8.6 8.6 0 0 1 2.566.397zM193.695 60.315a4.9 4.9 0 0 0-2.364-.592c-1.823 0-3.082 1.262-3.082 2.966 0 1.654 1.206 2.97 3.082 2.97a5 5 0 0 0 2.364-.59v2.985a9 9 0 0 1-2.566.394c-3.163 0-5.935-2.172-5.935-5.76 0-3.32 2.51-5.755 5.935-5.755.87.002 1.735.136 2.566.397zM231.91 59.763a2.88 2.88 0 0 0-2.908 2.926 2.87 2.87 0 0 0 1.785 2.712c.356.147.738.22 1.123.217a2.886 2.886 0 0 0 2.911-2.93 2.887 2.887 0 0 0-2.911-2.926m5.891 2.926c0 3.183-2.46 5.759-5.891 5.759s-5.888-2.576-5.888-5.76 2.461-5.755 5.888-5.755 5.891 2.579 5.891 5.756M211.044 59.657a9.7 9.7 0 0 0-2.206-.335c-1.125 0-1.738.376-1.738.91 0 .679.827.93 1.288 1.06l.777.246c1.826.58 2.659 1.827 2.659 3.183 0 2.793-2.463 3.724-4.618 3.724a17 17 0 0 1-3.036-.31v-2.56c.864.25 1.757.388 2.656.412 1.403 0 2.044-.406 2.044-1.04 0-.56-.557-.887-1.245-1.107l-.6-.192c-1.555-.494-2.874-1.412-2.874-3.255 0-2.08 1.555-3.476 4.156-3.476.924.013 1.843.132 2.74.354zM165.544 68.215h-1.223V57.116h1.484v4.192a3.09 3.09 0 0 1 2.69-1.34 3.21 3.21 0 0 1 2.687 1.24q.85 1.113.85 2.945 0 2.173-1.157 3.33a3.38 3.38 0 0 1-2.489.971 2.98 2.98 0 0 1-2.612-1.294zm4.945-4.102q0-1.51-.759-2.265a2.1 2.1 0 0 0-1.577-.62 2.2 2.2 0 0 0-1.791.816 3.2 3.2 0 0 0-.622 2.066q.002 1.542.758 2.358a2.14 2.14 0 0 0 1.668.71 2.03 2.03 0 0 0 1.763-.85c.414-.662.61-1.436.56-2.215M179.974 60.197l-2.799 8.123q-.557 1.62-1.067 2.207a1.97 1.97 0 0 1-1.555.692 4.2 4.2 0 0 1-.958-.137v-1.21q.381.1.774.108a.9.9 0 0 0 .741-.332c.285-.448.509-.932.665-1.44h-.479l-2.951-8.017h1.608l2.27 6.826 2.271-6.826zM113.895 17.811h6.275l-9.123 27.513h-7.199l-6.819-20.762-6.819 20.762h-7.086L74 17.81h6.422l6.474 20.908 6.793-20.908h6.819l6.905 21.02zM147.084 33.776H126.73a8.75 8.75 0 0 0 1.554 3.935 7 7 0 0 0 2.892 2.325 9.2 9.2 0 0 0 3.728.75 12 12 0 0 0 4.161-.758 13.6 13.6 0 0 0 3.815-2.144l2.995 4.305a15.2 15.2 0 0 1-5.231 2.971c-1.977.62-4.039.924-6.111.904a14.64 14.64 0 0 1-7.311-1.79 12.7 12.7 0 0 1-4.997-5.081 15.6 15.6 0 0 1-1.796-7.595 15.94 15.94 0 0 1 1.727-7.544 12.7 12.7 0 0 1 4.85-5.106 13.8 13.8 0 0 1 7.139-1.826c2.361-.065 4.69.55 6.709 1.772a12.27 12.27 0 0 1 4.676 5.117 16.46 16.46 0 0 1 1.657 7.526c.009.577-.026 1.327-.103 2.24m-6.043-4.564a8.5 8.5 0 0 0-2.304-5.029 6.41 6.41 0 0 0-4.696-1.722 6.76 6.76 0 0 0-4.937 1.826 8.73 8.73 0 0 0-2.374 4.951zM172.831 18.965a13.4 13.4 0 0 1 4.981 5.167 15.1 15.1 0 0 1 1.83 7.44 15.1 15.1 0 0 1-1.83 7.431 13.4 13.4 0 0 1-4.997 5.185 13.4 13.4 0 0 1-6.967 1.85 11.3 11.3 0 0 1-4.98-1.041 10.3 10.3 0 0 1-3.651-2.946v3.273h-6.042V6.1h6.042v14.983a10.36 10.36 0 0 1 3.651-2.927 11.2 11.2 0 0 1 4.98-1.05c2.455-.03 4.871.613 6.983 1.86m-3.297 20.245a7.76 7.76 0 0 0 2.909-3.195 10.31 10.31 0 0 0 0-8.895 7.8 7.8 0 0 0-2.909-3.195 8.81 8.81 0 0 0-8.735 0 7.87 7.87 0 0 0-2.935 3.16 9.5 9.5 0 0 0-1.053 4.513 9.47 9.47 0 0 0 1.053 4.503 7.87 7.87 0 0 0 2.935 3.16 8.81 8.81 0 0 0 8.735 0zM209.455 33.776h-20.344a8.75 8.75 0 0 0 1.553 3.935 7.03 7.03 0 0 0 2.892 2.325 9.2 9.2 0 0 0 3.729.75 12.1 12.1 0 0 0 4.16-.758 13.5 13.5 0 0 0 3.815-2.144l2.987 4.305a15.1 15.1 0 0 1-5.222 2.971c-1.98.619-4.045.924-6.12.904a14.7 14.7 0 0 1-7.311-1.79 12.75 12.75 0 0 1-4.989-5.081 15.6 15.6 0 0 1-1.804-7.595 15.96 15.96 0 0 1 1.726-7.544 12.7 12.7 0 0 1 4.851-5.106 13.8 13.8 0 0 1 7.19-1.852 12.33 12.33 0 0 1 6.707 1.776 12.3 12.3 0 0 1 4.678 5.113 16.45 16.45 0 0 1 1.658 7.527c-.035.602-.095 1.352-.156 2.264m-6.042-4.564a8.55 8.55 0 0 0-2.313-4.994 6.44 6.44 0 0 0-4.678-1.757 6.75 6.75 0 0 0-4.938 1.826 8.7 8.7 0 0 0-2.373 4.951zM238.156 45.324h-7.398l-6.991-9.567-6.905 9.567h-7.052l10.357-14.045-10.193-13.468h7.405l6.733 9.188 6.733-9.188H238l-10.237 13.416z"/></g><defs><clipPath id="a"><path fill="#fff" d="M0 .1h238v77H0z"/></clipPath></defs></svg>