<svg xmlns="http://www.w3.org/2000/svg" width="32" height="32" viewBox="0 0 32 32"><path d="M27.55 16.136 22.753 8.05a7.765 7.765 0 0 0-6.756-3.801 7.77 7.77 0 0 0-6.758 3.8L4.44 16.137a7.323 7.323 0 0 0-.47 7.145c1.216 2.4 3.823 3.961 7.155 4.284 1.215.118 2.431.166 4.965.185 1.595.025 3.19-.037 4.778-.186 3.35-.335 5.965-1.9 7.172-4.29a7.335 7.335 0 0 0-.49-7.138Zm-.848 6.462c-.972 1.924-3.153 3.19-5.984 3.474-1.54.145-3.086.204-4.633.178-2.461-.02-3.618-.063-4.815-.178-2.81-.272-4.982-1.537-5.962-3.47a5.86 5.86 0 0 1 .422-5.7l4.798-8.086a6.407 6.407 0 0 1 10.934 0l4.8 8.085a5.87 5.87 0 0 1 .44 5.697Z"/><path d="M16.003 11.25a5.749 5.749 0 1 0 0 11.498 5.749 5.749 0 0 0 0-11.498Zm0 10a4.25 4.25 0 1 1 0-8.5 4.25 4.25 0 0 1 0 8.5Z"/></svg>