<svg xmlns="http://www.w3.org/2000/svg" width="378" height="24" fill="none" viewBox="0 0 378 24"><path fill="#fff" d="M19.948 6.219h3.137l-4.562 13.789h-3.599l-3.41-10.406-3.409 10.406H4.562L0 6.218h3.211l3.237 10.48 3.396-10.48h3.41l3.452 10.536zM36.542 14.22H26.365a4.4 4.4 0 0 0 .777 1.972c.369.512.868.914 1.446 1.166a4.6 4.6 0 0 0 1.864.375 6 6 0 0 0 2.08-.38 6.8 6.8 0 0 0 1.908-1.074l1.498 2.158a7.6 7.6 0 0 1-2.616 1.489c-.988.31-2.02.463-3.055.453a7.3 7.3 0 0 1-3.656-.898 6.37 6.37 0 0 1-2.499-2.546 7.8 7.8 0 0 1-.897-3.807 8 8 0 0 1 .863-3.78 6.36 6.36 0 0 1 2.425-2.56 6.9 6.9 0 0 1 3.57-.915 6.14 6.14 0 0 1 5.692 3.453 8.26 8.26 0 0 1 .829 3.772q.006.436-.052 1.122m-3.021-2.287a4.26 4.26 0 0 0-1.153-2.52 3.2 3.2 0 0 0-2.347-.864 3.38 3.38 0 0 0-2.469.915 4.38 4.38 0 0 0-1.187 2.482zM49.416 6.797a6.7 6.7 0 0 1 2.49 2.59 7.6 7.6 0 0 1 .915 3.729 7.57 7.57 0 0 1-.915 3.724 6.7 6.7 0 0 1-5.981 3.526 5.6 5.6 0 0 1-2.49-.522 5.1 5.1 0 0 1-1.826-1.476v1.64h-3.021V.35h3.02v7.51a5.2 5.2 0 0 1 1.827-1.468 5.6 5.6 0 0 1 2.49-.527 6.7 6.7 0 0 1 3.491.932m-1.648 10.147a3.9 3.9 0 0 0 1.454-1.601 5.18 5.18 0 0 0 0-4.459 3.9 3.9 0 0 0-1.454-1.6 4.4 4.4 0 0 0-4.368 0c-.627.38-1.136.929-1.467 1.583a4.8 4.8 0 0 0-.527 2.262c-.014.784.167 1.56.527 2.257.331.654.84 1.203 1.467 1.584a4.4 4.4 0 0 0 4.368 0zM67.727 14.22H57.555a4.4 4.4 0 0 0 .777 1.972c.368.512.868.914 1.446 1.166a4.6 4.6 0 0 0 1.864.375 6 6 0 0 0 2.08-.38 6.8 6.8 0 0 0 1.908-1.074l1.493 2.158a7.5 7.5 0 0 1-2.611 1.489c-.99.31-2.023.463-3.06.453a7.34 7.34 0 0 1-3.655-.898 6.4 6.4 0 0 1-2.495-2.546 7.8 7.8 0 0 1-.902-3.807 8 8 0 0 1 .863-3.78 6.36 6.36 0 0 1 2.426-2.56 6.9 6.9 0 0 1 3.595-.927 6.15 6.15 0 0 1 5.692 3.452 8.3 8.3 0 0 1 .829 3.772c-.017.302-.048.678-.078 1.135m-3.02-2.287A4.3 4.3 0 0 0 63.55 9.43a3.22 3.22 0 0 0-2.34-.88 3.37 3.37 0 0 0-2.468.914 4.36 4.36 0 0 0-1.187 2.482zM82.077 20.008H78.38l-3.496-4.795-3.453 4.795h-3.526l5.18-7.04-5.098-6.75h3.703l3.367 4.606 3.366-4.605H82l-5.119 6.724zM100.421 6.3h1.906l-4.913 13.718h-2.419L90 6.3h2.054l4.159 11.887zM105.127 8.454h-2.055V6.3h2.055zm-.116 11.564h-1.831v-9.907h1.831zM113.949 17.16h1.98c-.282 1.002-.828 1.789-1.657 2.36q-1.168.782-2.783.78c-1.566 0-2.784-.498-3.662-1.484q-1.203-1.39-1.201-3.752c0-1.79.505-3.148 1.524-4.076.837-.779 1.922-1.16 3.239-1.16 1.549 0 2.717.506 3.504 1.508.763.969 1.144 2.344 1.144 4.134h-7.547q.111 1.751 1.069 2.609c.521.456 1.184.688 1.979.688.622 0 1.16-.174 1.624-.514.389-.298.646-.663.787-1.093m-2.518-5.866c-.812 0-1.467.257-1.964.762q-.708.709-.894 1.964h5.6c-.067-.953-.381-1.665-.953-2.137-.456-.398-1.052-.589-1.789-.589M129.747 10.11h1.83l-2.899 9.908h-2.112l-2.403-7.828-2.361 7.828h-2.187l-2.899-9.908h1.905l2.137 7.961 2.361-7.96h2.187l2.328 7.927z"/></svg>