<svg xmlns="http://www.w3.org/2000/svg" width="32" height="32" viewBox="0 0 32 32"><path d="M27 19a1 1 0 1 0-2 0v3h-3a1 1 0 1 0 0 2h3v3a1 1 0 1 0 2 0v-3h3a1 1 0 1 0 0-2h-3zM20 10a4 4 0 1 1-8 0 4 4 0 0 1 8 0M10.574 11.5a2.5 2.5 0 1 1-5 0 2.5 2.5 0 0 1 5 0M24 14a2.5 2.5 0 1 0 0-5 2.5 2.5 0 0 0 0 5M20.494 17.222A5.47 5.47 0 0 1 24 16q.605 0 1.169.117A3 3 0 0 0 23 19v1h-1a3 3 0 0 0-1.57 5.557C15.715 26.612 8 25.783 8 23.071q.005-.54.101-1.071c-2.509.004-5.027-.581-5.027-1.757 0-2.343 2.239-4.243 5-4.243a5.47 5.47 0 0 1 3.472 1.198 8.88 8.88 0 0 1 8.948.024"/></svg>