<svg xmlns="http://www.w3.org/2000/svg" width="132" height="107" fill="none" viewBox="0 0 132 107"><path fill="url(#a)" d="M56.394 41.872c-8.888 0-11.913-11.231-12.591-13.416a61 61 0 0 1-2.275-10.948c-.316-2.993 2.086-5.075 4.723-5.075a4.46 4.46 0 0 1 4.62 4.09 49.5 49.5 0 0 0 1.895 9.27c1.498 4.778 3.088 6.616 4.232 6.616 1.849 0 2.977-4.744 3.974-9.26.734-3.329 1.528-6.682 3.096-9.661C66.795 8.306 70.916 7.1 74.477 7.1c7.807 0 11.714 9.038 11.714 11.38a4.64 4.64 0 0 1-4.579 4.91c-3.028 0-4.054-2.027-4.918-3.803-.778-1.599-1.59-2.928-2.639-2.928a1.36 1.36 0 0 0-.96.474c-2.608 2.65-3.482 16.506-8.697 21.803-2.891 2.936-6.037 2.936-8.004 2.936"/><path fill="url(#b)" d="M56.394 41.872c-8.888 0-11.913-11.231-12.591-13.416a61 61 0 0 1-2.275-10.948c-.316-2.993 2.086-5.075 4.723-5.075a4.46 4.46 0 0 1 4.62 4.09 49.5 49.5 0 0 0 1.895 9.27c1.498 4.778 3.088 6.616 4.232 6.616 1.849 0 2.977-4.744 3.974-9.26.734-3.329 1.528-6.682 3.096-9.661C66.795 8.306 70.916 7.1 74.477 7.1c7.807 0 11.714 9.038 11.714 11.38a4.64 4.64 0 0 1-4.579 4.91c-3.028 0-4.054-2.027-4.918-3.803-.778-1.599-1.59-2.928-2.639-2.928a1.36 1.36 0 0 0-.96.474c-2.608 2.65-3.482 16.506-8.697 21.803-2.891 2.936-6.037 2.936-8.004 2.936"/><path fill="url(#c)" d="M56.394 41.872c-8.888 0-11.913-11.231-12.591-13.416a61 61 0 0 1-2.275-10.948c-.316-2.993 2.086-5.075 4.723-5.075a4.46 4.46 0 0 1 4.62 4.09 49.5 49.5 0 0 0 1.895 9.27c1.498 4.778 3.088 6.616 4.232 6.616 1.849 0 2.977-4.744 3.974-9.26.734-3.329 1.528-6.682 3.096-9.661C66.795 8.306 70.916 7.1 74.477 7.1c7.807 0 11.714 9.038 11.714 11.38a4.64 4.64 0 0 1-4.579 4.91c-3.028 0-4.054-2.027-4.918-3.803-.778-1.599-1.59-2.928-2.639-2.928a1.36 1.36 0 0 0-.96.474c-2.608 2.65-3.482 16.506-8.697 21.803-2.891 2.936-6.037 2.936-8.004 2.936"/><path fill="url(#d)" d="M56.394 41.872c-8.888 0-11.913-11.231-12.591-13.416a61 61 0 0 1-2.275-10.948c-.316-2.993 2.086-5.075 4.723-5.075a4.46 4.46 0 0 1 4.62 4.09 49.5 49.5 0 0 0 1.895 9.27c1.498 4.778 3.088 6.616 4.232 6.616 1.849 0 2.977-4.744 3.974-9.26.734-3.329 1.528-6.682 3.096-9.661C66.795 8.306 70.916 7.1 74.477 7.1c7.807 0 11.714 9.038 11.714 11.38a4.64 4.64 0 0 1-4.579 4.91c-3.028 0-4.054-2.027-4.918-3.803-.778-1.599-1.59-2.928-2.639-2.928a1.36 1.36 0 0 0-.96.474c-2.608 2.65-3.482 16.506-8.697 21.803-2.891 2.936-6.037 2.936-8.004 2.936"/><path fill="url(#e)" d="M56.394 41.872c-8.888 0-11.913-11.231-12.591-13.416a61 61 0 0 1-2.275-10.948c-.316-2.993 2.086-5.075 4.723-5.075a4.46 4.46 0 0 1 4.62 4.09 49.5 49.5 0 0 0 1.895 9.27c1.498 4.778 3.088 6.616 4.232 6.616 1.849 0 2.977-4.744 3.974-9.26.734-3.329 1.528-6.682 3.096-9.661C66.795 8.306 70.916 7.1 74.477 7.1c7.807 0 11.714 9.038 11.714 11.38a4.64 4.64 0 0 1-4.579 4.91c-3.028 0-4.054-2.027-4.918-3.803-.778-1.599-1.59-2.928-2.639-2.928a1.36 1.36 0 0 0-.96.474c-2.608 2.65-3.482 16.506-8.697 21.803-2.891 2.936-6.037 2.936-8.004 2.936"/><path fill="url(#f)" d="M56.394 41.872c-8.888 0-11.913-11.231-12.591-13.416a61 61 0 0 1-2.275-10.948c-.316-2.993 2.086-5.075 4.723-5.075a4.46 4.46 0 0 1 4.62 4.09 49.5 49.5 0 0 0 1.895 9.27c1.498 4.778 3.088 6.616 4.232 6.616 1.849 0 2.977-4.744 3.974-9.26.734-3.329 1.528-6.682 3.096-9.661C66.795 8.306 70.916 7.1 74.477 7.1c7.807 0 11.714 9.038 11.714 11.38a4.64 4.64 0 0 1-4.579 4.91c-3.028 0-4.054-2.027-4.918-3.803-.778-1.599-1.59-2.928-2.639-2.928a1.36 1.36 0 0 0-.96.474c-2.608 2.65-3.482 16.506-8.697 21.803-2.891 2.936-6.037 2.936-8.004 2.936"/><path fill="url(#g)" d="M56.394 41.872c-8.888 0-11.913-11.231-12.591-13.416a61 61 0 0 1-2.275-10.948c-.316-2.993 2.086-5.075 4.723-5.075a4.46 4.46 0 0 1 4.62 4.09 49.5 49.5 0 0 0 1.895 9.27c1.498 4.778 3.088 6.616 4.232 6.616 1.849 0 2.977-4.744 3.974-9.26.734-3.329 1.528-6.682 3.096-9.661C66.795 8.306 70.916 7.1 74.477 7.1c7.807 0 11.714 9.038 11.714 11.38a4.64 4.64 0 0 1-4.579 4.91c-3.028 0-4.054-2.027-4.918-3.803-.778-1.599-1.59-2.928-2.639-2.928a1.36 1.36 0 0 0-.96.474c-2.608 2.65-3.482 16.506-8.697 21.803-2.891 2.936-6.037 2.936-8.004 2.936"/><path fill="url(#h)" d="M56.394 41.872c-8.888 0-11.913-11.231-12.591-13.416a61 61 0 0 1-2.275-10.948c-.316-2.993 2.086-5.075 4.723-5.075a4.46 4.46 0 0 1 4.62 4.09 49.5 49.5 0 0 0 1.895 9.27c1.498 4.778 3.088 6.616 4.232 6.616 1.849 0 2.977-4.744 3.974-9.26.734-3.329 1.528-6.682 3.096-9.661C66.795 8.306 70.916 7.1 74.477 7.1c7.807 0 11.714 9.038 11.714 11.38a4.64 4.64 0 0 1-4.579 4.91c-3.028 0-4.054-2.027-4.918-3.803-.778-1.599-1.59-2.928-2.639-2.928a1.36 1.36 0 0 0-.96.474c-2.608 2.65-3.482 16.506-8.697 21.803-2.891 2.936-6.037 2.936-8.004 2.936"/><path fill="url(#i)" d="M74.476 7.1c-3.56 0-7.682 1.206-10.41 6.388-1.567 2.979-2.361 6.332-3.095 9.66a114 114 0 0 1-.757 3.255v15.056a9.35 9.35 0 0 0 4.183-2.523c5.215-5.297 6.09-19.154 8.698-21.802a1.37 1.37 0 0 1 .96-.475c1.05 0 1.86 1.33 2.638 2.928.864 1.777 1.89 3.804 4.919 3.804a4.643 4.643 0 0 0 4.578-4.911c0-2.342-3.907-11.38-11.714-11.38"/><path fill="url(#j)" d="M56.394 41.872c-8.888 0-11.913-11.231-12.591-13.416a61 61 0 0 1-2.275-10.948c-.316-2.993 2.086-5.075 4.723-5.075a4.46 4.46 0 0 1 4.62 4.09 49.5 49.5 0 0 0 1.895 9.27c1.498 4.778 3.088 6.616 4.232 6.616 1.849 0 2.977-4.744 3.974-9.26.734-3.329 1.528-6.682 3.096-9.661C66.795 8.306 70.916 7.1 74.477 7.1c7.807 0 11.714 9.038 11.714 11.38a4.64 4.64 0 0 1-4.579 4.91c-3.028 0-4.054-2.027-4.918-3.803-.778-1.599-1.59-2.928-2.639-2.928a1.36 1.36 0 0 0-.96.474c-2.608 2.65-3.482 16.506-8.697 21.803-2.891 2.936-6.037 2.936-8.004 2.936"/><path fill="url(#k)" d="M56.394 41.872c-8.888 0-11.913-11.231-12.591-13.416a61 61 0 0 1-2.275-10.948c-.316-2.993 2.086-5.075 4.723-5.075a4.46 4.46 0 0 1 4.62 4.09 49.5 49.5 0 0 0 1.895 9.27c1.498 4.778 3.088 6.616 4.232 6.616 1.849 0 2.977-4.744 3.974-9.26.734-3.329 1.528-6.682 3.096-9.661C66.795 8.306 70.916 7.1 74.477 7.1c7.807 0 11.714 9.038 11.714 11.38a4.64 4.64 0 0 1-4.579 4.91c-3.028 0-4.054-2.027-4.918-3.803-.778-1.599-1.59-2.928-2.639-2.928a1.36 1.36 0 0 0-.96.474c-2.608 2.65-3.482 16.506-8.697 21.803-2.891 2.936-6.037 2.936-8.004 2.936"/><path fill="url(#l)" d="M56.394 41.872c-8.888 0-11.913-11.231-12.591-13.416a61 61 0 0 1-2.275-10.948c-.316-2.993 2.086-5.075 4.723-5.075a4.46 4.46 0 0 1 4.62 4.09 49.5 49.5 0 0 0 1.895 9.27c1.498 4.778 3.088 6.616 4.232 6.616 1.849 0 2.977-4.744 3.974-9.26.734-3.329 1.528-6.682 3.096-9.661C66.795 8.306 70.916 7.1 74.477 7.1c7.807 0 11.714 9.038 11.714 11.38a4.64 4.64 0 0 1-4.579 4.91c-3.028 0-4.054-2.027-4.918-3.803-.778-1.599-1.59-2.928-2.639-2.928a1.36 1.36 0 0 0-.96.474c-2.608 2.65-3.482 16.506-8.697 21.803-2.891 2.936-6.037 2.936-8.004 2.936"/><path fill="url(#m)" d="M56.394 41.872c-8.888 0-11.913-11.231-12.591-13.416a61 61 0 0 1-2.275-10.948c-.316-2.993 2.086-5.075 4.723-5.075a4.46 4.46 0 0 1 4.62 4.09 49.5 49.5 0 0 0 1.895 9.27c1.498 4.778 3.088 6.616 4.232 6.616 1.849 0 2.977-4.744 3.974-9.26.734-3.329 1.528-6.682 3.096-9.661C66.795 8.306 70.916 7.1 74.477 7.1c7.807 0 11.714 9.038 11.714 11.38a4.64 4.64 0 0 1-4.579 4.91c-3.028 0-4.054-2.027-4.918-3.803-.778-1.599-1.59-2.928-2.639-2.928a1.36 1.36 0 0 0-.96.474c-2.608 2.65-3.482 16.506-8.697 21.803-2.891 2.936-6.037 2.936-8.004 2.936"/><path fill="url(#n)" d="M56.394 41.872c-8.888 0-11.913-11.231-12.591-13.416a61 61 0 0 1-2.275-10.948c-.316-2.993 2.086-5.075 4.723-5.075a4.46 4.46 0 0 1 4.62 4.09 49.5 49.5 0 0 0 1.895 9.27c1.498 4.778 3.088 6.616 4.232 6.616 1.849 0 2.977-4.744 3.974-9.26.734-3.329 1.528-6.682 3.096-9.661C66.795 8.306 70.916 7.1 74.477 7.1c7.807 0 11.714 9.038 11.714 11.38a4.64 4.64 0 0 1-4.579 4.91c-3.028 0-4.054-2.027-4.918-3.803-.778-1.599-1.59-2.928-2.639-2.928a1.36 1.36 0 0 0-.96.474c-2.608 2.65-3.482 16.506-8.697 21.803-2.891 2.936-6.037 2.936-8.004 2.936"/><path fill="url(#o)" d="M56.394 41.872c-8.888 0-11.913-11.231-12.591-13.416a61 61 0 0 1-2.275-10.948c-.316-2.993 2.086-5.075 4.723-5.075a4.46 4.46 0 0 1 4.62 4.09 49.5 49.5 0 0 0 1.895 9.27c1.498 4.778 3.088 6.616 4.232 6.616 1.849 0 2.977-4.744 3.974-9.26.734-3.329 1.528-6.682 3.096-9.661C66.795 8.306 70.916 7.1 74.477 7.1c7.807 0 11.714 9.038 11.714 11.38a4.64 4.64 0 0 1-4.579 4.91c-3.028 0-4.054-2.027-4.918-3.803-.778-1.599-1.59-2.928-2.639-2.928a1.36 1.36 0 0 0-.96.474c-2.608 2.65-3.482 16.506-8.697 21.803-2.891 2.936-6.037 2.936-8.004 2.936"/><path fill="#EFEFEF" d="M84.75 12.433q-.53 0-1.052.101c1.65 2.378 2.476 4.87 2.476 5.945a4.72 4.72 0 0 1-2.303 4.252c-.732.435-2 .645-2.404.645-.405 0-1.72-.245-2.45-.683v.1c-.195.777-.348 1.627-.614 2.454a32.3 32.3 0 0 1-1.937 4.813c-.793 1.515-1.58 2.402-2.516 2.356-1.065-.053-1.928-1.425-3.001-5.302a79 79 0 0 1-.964-3.966c-.737-3.337-1.64-6.694-3.187-9.66A11.37 11.37 0 0 0 56.525 7.1c-3.19 0-5.572 1.51-7.444 3.41q-.916.961-1.65 2.065a4.35 4.35 0 0 1 3.423 3.949c.29 2.721.803 5.414 1.534 8.052a41 41 0 0 1 1.92-4.99 8.9 8.9 0 0 1 1.481-2.311 1.6 1.6 0 0 1 1.104-.584c.356 0 1.572.325 2.756 4.475 1.468 5.146 2.56 13.336 6.722 17.685 1.836 1.918 4.404 3.16 7.965 3.16a10.5 10.5 0 0 0 7.585-3.288c3.053-3.145 4.727-8.344 5.323-10.267a59 59 0 0 0 2.23-10.948c.315-2.992-2.208-5.075-4.723-5.075"/><path fill="url(#p)" d="M84.75 12.433q-.53 0-1.052.101c1.65 2.378 2.476 4.87 2.476 5.945a4.72 4.72 0 0 1-2.303 4.252c-.732.435-2 .645-2.404.645-.405 0-1.72-.245-2.45-.683v.1c-.195.777-.348 1.627-.614 2.454a32.3 32.3 0 0 1-1.937 4.813c-.793 1.515-1.58 2.402-2.516 2.356-1.065-.053-1.928-1.425-3.001-5.302a79 79 0 0 1-.964-3.966c-.737-3.337-1.64-6.694-3.187-9.66A11.37 11.37 0 0 0 56.525 7.1c-3.19 0-5.572 1.51-7.444 3.41q-.916.961-1.65 2.065a4.35 4.35 0 0 1 3.423 3.949c.29 2.721.803 5.414 1.534 8.052a41 41 0 0 1 1.92-4.99 8.9 8.9 0 0 1 1.481-2.311 1.6 1.6 0 0 1 1.104-.584c.356 0 1.572.325 2.756 4.475 1.468 5.146 2.56 13.336 6.722 17.685 1.836 1.918 4.404 3.16 7.965 3.16a10.5 10.5 0 0 0 7.585-3.288c3.053-3.145 4.727-8.344 5.323-10.267a59 59 0 0 0 2.23-10.948c.315-2.992-2.208-5.075-4.723-5.075"/><path fill="url(#q)" d="M84.75 12.433q-.53 0-1.052.101c1.65 2.378 2.476 4.87 2.476 5.945a4.72 4.72 0 0 1-2.303 4.252c-.732.435-2 .645-2.404.645-.405 0-1.72-.245-2.45-.683v.1c-.195.777-.348 1.627-.614 2.454a32.3 32.3 0 0 1-1.937 4.813c-.793 1.515-1.58 2.402-2.516 2.356-1.065-.053-1.928-1.425-3.001-5.302a79 79 0 0 1-.964-3.966c-.737-3.337-1.64-6.694-3.187-9.66A11.37 11.37 0 0 0 56.525 7.1c-3.19 0-5.572 1.51-7.444 3.41q-.916.961-1.65 2.065a4.35 4.35 0 0 1 3.423 3.949c.29 2.721.803 5.414 1.534 8.052a41 41 0 0 1 1.92-4.99 8.9 8.9 0 0 1 1.481-2.311 1.6 1.6 0 0 1 1.104-.584c.356 0 1.572.325 2.756 4.475 1.468 5.146 2.56 13.336 6.722 17.685 1.836 1.918 4.404 3.16 7.965 3.16a10.5 10.5 0 0 0 7.585-3.288c3.053-3.145 4.727-8.344 5.323-10.267a59 59 0 0 0 2.23-10.948c.315-2.992-2.208-5.075-4.723-5.075"/><path fill="url(#r)" d="M84.75 12.433q-.53 0-1.052.101c1.65 2.378 2.476 4.87 2.476 5.945a4.72 4.72 0 0 1-2.303 4.252c-.732.435-2 .645-2.404.645-.405 0-1.72-.245-2.45-.683v.1c-.195.777-.348 1.627-.614 2.454a32.3 32.3 0 0 1-1.937 4.813c-.793 1.515-1.58 2.402-2.516 2.356-1.065-.053-1.928-1.425-3.001-5.302a79 79 0 0 1-.964-3.966c-.737-3.337-1.64-6.694-3.187-9.66A11.37 11.37 0 0 0 56.525 7.1c-3.19 0-5.572 1.51-7.444 3.41q-.916.961-1.65 2.065a4.35 4.35 0 0 1 3.423 3.949c.29 2.721.803 5.414 1.534 8.052a41 41 0 0 1 1.92-4.99 8.9 8.9 0 0 1 1.481-2.311 1.6 1.6 0 0 1 1.104-.584c.356 0 1.572.325 2.756 4.475 1.468 5.146 2.56 13.336 6.722 17.685 1.836 1.918 4.404 3.16 7.965 3.16a10.5 10.5 0 0 0 7.585-3.288c3.053-3.145 4.727-8.344 5.323-10.267a59 59 0 0 0 2.23-10.948c.315-2.992-2.208-5.075-4.723-5.075"/><path fill="url(#s)" d="M84.75 12.433q-.53 0-1.052.101c1.65 2.378 2.476 4.87 2.476 5.945a4.72 4.72 0 0 1-2.303 4.252c-.732.435-2 .645-2.404.645-.405 0-1.72-.245-2.45-.683v.1c-.195.777-.348 1.627-.614 2.454a32.3 32.3 0 0 1-1.937 4.813c-.793 1.515-1.58 2.402-2.516 2.356-1.065-.053-1.928-1.425-3.001-5.302a79 79 0 0 1-.964-3.966c-.737-3.337-1.64-6.694-3.187-9.66A11.37 11.37 0 0 0 56.525 7.1c-3.19 0-5.572 1.51-7.444 3.41q-.916.961-1.65 2.065a4.35 4.35 0 0 1 3.423 3.949c.29 2.721.803 5.414 1.534 8.052a41 41 0 0 1 1.92-4.99 8.9 8.9 0 0 1 1.481-2.311 1.6 1.6 0 0 1 1.104-.584c.356 0 1.572.325 2.756 4.475 1.468 5.146 2.56 13.336 6.722 17.685 1.836 1.918 4.404 3.16 7.965 3.16a10.5 10.5 0 0 0 7.585-3.288c3.053-3.145 4.727-8.344 5.323-10.267a59 59 0 0 0 2.23-10.948c.315-2.992-2.208-5.075-4.723-5.075"/><path fill="url(#t)" d="M84.75 12.433q-.53 0-1.052.101c1.65 2.378 2.476 4.87 2.476 5.945a4.72 4.72 0 0 1-2.303 4.252c-.732.435-2 .645-2.404.645-.405 0-1.72-.245-2.45-.683v.1c-.195.777-.348 1.627-.614 2.454a32.3 32.3 0 0 1-1.937 4.813c-.793 1.515-1.58 2.402-2.516 2.356-1.065-.053-1.928-1.425-3.001-5.302a79 79 0 0 1-.964-3.966c-.737-3.337-1.64-6.694-3.187-9.66A11.37 11.37 0 0 0 56.525 7.1c-3.19 0-5.572 1.51-7.444 3.41q-.916.961-1.65 2.065a4.35 4.35 0 0 1 3.423 3.949c.29 2.721.803 5.414 1.534 8.052a41 41 0 0 1 1.92-4.99 8.9 8.9 0 0 1 1.481-2.311 1.6 1.6 0 0 1 1.104-.584c.356 0 1.572.325 2.756 4.475 1.468 5.146 2.56 13.336 6.722 17.685 1.836 1.918 4.404 3.16 7.965 3.16a10.5 10.5 0 0 0 7.585-3.288c3.053-3.145 4.727-8.344 5.323-10.267a59 59 0 0 0 2.23-10.948c.315-2.992-2.208-5.075-4.723-5.075"/><path fill="url(#u)" d="M84.75 12.433q-.53 0-1.052.101c1.65 2.378 2.476 4.87 2.476 5.945a4.72 4.72 0 0 1-2.303 4.252c-.732.435-2 .645-2.404.645-.405 0-1.72-.245-2.45-.683v.1c-.195.777-.348 1.627-.614 2.454a32.3 32.3 0 0 1-1.937 4.813c-.793 1.515-1.58 2.402-2.516 2.356-1.065-.053-1.928-1.425-3.001-5.302a79 79 0 0 1-.964-3.966c-.737-3.337-1.64-6.694-3.187-9.66A11.37 11.37 0 0 0 56.525 7.1c-3.19 0-5.572 1.51-7.444 3.41q-.916.961-1.65 2.065a4.35 4.35 0 0 1 3.423 3.949c.29 2.721.803 5.414 1.534 8.052a41 41 0 0 1 1.92-4.99 8.9 8.9 0 0 1 1.481-2.311 1.6 1.6 0 0 1 1.104-.584c.356 0 1.572.325 2.756 4.475 1.468 5.146 2.56 13.336 6.722 17.685 1.836 1.918 4.404 3.16 7.965 3.16a10.5 10.5 0 0 0 7.585-3.288c3.053-3.145 4.727-8.344 5.323-10.267a59 59 0 0 0 2.23-10.948c.315-2.992-2.208-5.075-4.723-5.075"/><path fill="url(#v)" d="M84.75 12.433q-.53 0-1.052.101c1.65 2.378 2.476 4.87 2.476 5.945a4.72 4.72 0 0 1-2.303 4.252c-.732.435-2 .645-2.404.645-.405 0-1.72-.245-2.45-.683v.1c-.195.777-.348 1.627-.614 2.454a32.3 32.3 0 0 1-1.937 4.813c-.793 1.515-1.58 2.402-2.516 2.356-1.065-.053-1.928-1.425-3.001-5.302a79 79 0 0 1-.964-3.966c-.737-3.337-1.64-6.694-3.187-9.66A11.37 11.37 0 0 0 56.525 7.1c-3.19 0-5.572 1.51-7.444 3.41q-.916.961-1.65 2.065a4.35 4.35 0 0 1 3.423 3.949c.29 2.721.803 5.414 1.534 8.052a41 41 0 0 1 1.92-4.99 8.9 8.9 0 0 1 1.481-2.311 1.6 1.6 0 0 1 1.104-.584c.356 0 1.572.325 2.756 4.475 1.468 5.146 2.56 13.336 6.722 17.685 1.836 1.918 4.404 3.16 7.965 3.16a10.5 10.5 0 0 0 7.585-3.288c3.053-3.145 4.727-8.344 5.323-10.267a59 59 0 0 0 2.23-10.948c.315-2.992-2.208-5.075-4.723-5.075"/><path fill="url(#w)" d="M84.75 12.433q-.53 0-1.052.101c1.65 2.378 2.476 4.87 2.476 5.945a4.72 4.72 0 0 1-2.303 4.252c-.732.435-2 .645-2.404.645-.405 0-1.72-.245-2.45-.683v.1c-.195.777-.348 1.627-.614 2.454a32.3 32.3 0 0 1-1.937 4.813c-.793 1.515-1.58 2.402-2.516 2.356-1.065-.053-1.928-1.425-3.001-5.302a79 79 0 0 1-.964-3.966c-.737-3.337-1.64-6.694-3.187-9.66A11.37 11.37 0 0 0 56.525 7.1c-3.19 0-5.572 1.51-7.444 3.41q-.916.961-1.65 2.065a4.35 4.35 0 0 1 3.423 3.949c.29 2.721.803 5.414 1.534 8.052a41 41 0 0 1 1.92-4.99 8.9 8.9 0 0 1 1.481-2.311 1.6 1.6 0 0 1 1.104-.584c.356 0 1.572.325 2.756 4.475 1.468 5.146 2.56 13.336 6.722 17.685 1.836 1.918 4.404 3.16 7.965 3.16a10.5 10.5 0 0 0 7.585-3.288c3.053-3.145 4.727-8.344 5.323-10.267a59 59 0 0 0 2.23-10.948c.315-2.992-2.208-5.075-4.723-5.075"/><path fill="url(#x)" d="M84.75 12.433q-.53 0-1.052.101c1.65 2.378 2.476 4.87 2.476 5.945a4.72 4.72 0 0 1-2.303 4.252c-.732.435-2 .645-2.404.645-.405 0-1.72-.245-2.45-.683v.1c-.195.777-.348 1.627-.614 2.454a32.3 32.3 0 0 1-1.937 4.813c-.793 1.515-1.58 2.402-2.516 2.356-1.065-.053-1.928-1.425-3.001-5.302a79 79 0 0 1-.964-3.966c-.737-3.337-1.64-6.694-3.187-9.66A11.37 11.37 0 0 0 56.525 7.1c-3.19 0-5.572 1.51-7.444 3.41q-.916.961-1.65 2.065a4.35 4.35 0 0 1 3.423 3.949c.29 2.721.803 5.414 1.534 8.052a41 41 0 0 1 1.92-4.99 8.9 8.9 0 0 1 1.481-2.311 1.6 1.6 0 0 1 1.104-.584c.356 0 1.572.325 2.756 4.475 1.468 5.146 2.56 13.336 6.722 17.685 1.836 1.918 4.404 3.16 7.965 3.16a10.5 10.5 0 0 0 7.585-3.288c3.053-3.145 4.727-8.344 5.323-10.267a59 59 0 0 0 2.23-10.948c.315-2.992-2.208-5.075-4.723-5.075"/><path fill="url(#y)" d="M84.75 12.433q-.53 0-1.052.101c1.65 2.378 2.476 4.87 2.476 5.945a4.72 4.72 0 0 1-2.303 4.252c-.732.435-2 .645-2.404.645-.405 0-1.72-.245-2.45-.683v.1c-.195.777-.348 1.627-.614 2.454a32.3 32.3 0 0 1-1.937 4.813c-.793 1.515-1.58 2.402-2.516 2.356-1.065-.053-1.928-1.425-3.001-5.302a79 79 0 0 1-.964-3.966c-.737-3.337-1.64-6.694-3.187-9.66A11.37 11.37 0 0 0 56.525 7.1c-3.19 0-5.572 1.51-7.444 3.41q-.916.961-1.65 2.065a4.35 4.35 0 0 1 3.423 3.949c.29 2.721.803 5.414 1.534 8.052a41 41 0 0 1 1.92-4.99 8.9 8.9 0 0 1 1.481-2.311 1.6 1.6 0 0 1 1.104-.584c.356 0 1.572.325 2.756 4.475 1.468 5.146 2.56 13.336 6.722 17.685 1.836 1.918 4.404 3.16 7.965 3.16a10.5 10.5 0 0 0 7.585-3.288c3.053-3.145 4.727-8.344 5.323-10.267a59 59 0 0 0 2.23-10.948c.315-2.992-2.208-5.075-4.723-5.075"/><path fill="url(#z)" d="M84.75 12.433q-.53 0-1.052.101c1.65 2.378 2.476 4.87 2.476 5.945a4.72 4.72 0 0 1-2.303 4.252c-.732.435-2 .645-2.404.645-.405 0-1.72-.245-2.45-.683v.1c-.195.777-.348 1.627-.614 2.454a32.3 32.3 0 0 1-1.937 4.813c-.793 1.515-1.58 2.402-2.516 2.356-1.065-.053-1.928-1.425-3.001-5.302a79 79 0 0 1-.964-3.966c-.737-3.337-1.64-6.694-3.187-9.66A11.37 11.37 0 0 0 56.525 7.1c-3.19 0-5.572 1.51-7.444 3.41q-.916.961-1.65 2.065a4.35 4.35 0 0 1 3.423 3.949c.29 2.721.803 5.414 1.534 8.052a41 41 0 0 1 1.92-4.99 8.9 8.9 0 0 1 1.481-2.311 1.6 1.6 0 0 1 1.104-.584c.356 0 1.572.325 2.756 4.475 1.468 5.146 2.56 13.336 6.722 17.685 1.836 1.918 4.404 3.16 7.965 3.16a10.5 10.5 0 0 0 7.585-3.288c3.053-3.145 4.727-8.344 5.323-10.267a59 59 0 0 0 2.23-10.948c.315-2.992-2.208-5.075-4.723-5.075"/><path fill="url(#A)" d="M84.75 12.433q-.53 0-1.052.101c1.65 2.378 2.476 4.87 2.476 5.945a4.72 4.72 0 0 1-2.303 4.252c-.732.435-2 .645-2.404.645-.405 0-1.72-.245-2.45-.683v.1c-.195.777-.348 1.627-.614 2.454a32.3 32.3 0 0 1-1.937 4.813c-.793 1.515-1.58 2.402-2.516 2.356-1.065-.053-1.928-1.425-3.001-5.302a79 79 0 0 1-.964-3.966c-.737-3.337-1.64-6.694-3.187-9.66A11.37 11.37 0 0 0 56.525 7.1c-3.19 0-5.572 1.51-7.444 3.41q-.916.961-1.65 2.065a4.35 4.35 0 0 1 3.423 3.949c.29 2.721.803 5.414 1.534 8.052a41 41 0 0 1 1.92-4.99 8.9 8.9 0 0 1 1.481-2.311 1.6 1.6 0 0 1 1.104-.584c.356 0 1.572.325 2.756 4.475 1.468 5.146 2.56 13.336 6.722 17.685 1.836 1.918 4.404 3.16 7.965 3.16a10.5 10.5 0 0 0 7.585-3.288c3.053-3.145 4.727-8.344 5.323-10.267a59 59 0 0 0 2.23-10.948c.315-2.992-2.208-5.075-4.723-5.075"/><path fill="url(#B)" d="M84.75 12.433q-.53 0-1.052.101c1.65 2.378 2.476 4.87 2.476 5.945a4.72 4.72 0 0 1-2.303 4.252c-.732.435-2 .645-2.404.645-.405 0-1.72-.245-2.45-.683v.1c-.195.777-.348 1.627-.614 2.454a32.3 32.3 0 0 1-1.937 4.813c-.793 1.515-1.58 2.402-2.516 2.356-1.065-.053-1.928-1.425-3.001-5.302a79 79 0 0 1-.964-3.966c-.737-3.337-1.64-6.694-3.187-9.66A11.37 11.37 0 0 0 56.525 7.1c-3.19 0-5.572 1.51-7.444 3.41q-.916.961-1.65 2.065a4.35 4.35 0 0 1 3.423 3.949c.29 2.721.803 5.414 1.534 8.052a41 41 0 0 1 1.92-4.99 8.9 8.9 0 0 1 1.481-2.311 1.6 1.6 0 0 1 1.104-.584c.356 0 1.572.325 2.756 4.475 1.468 5.146 2.56 13.336 6.722 17.685 1.836 1.918 4.404 3.16 7.965 3.16a10.5 10.5 0 0 0 7.585-3.288c3.053-3.145 4.727-8.344 5.323-10.267a59 59 0 0 0 2.23-10.948c.315-2.992-2.208-5.075-4.723-5.075"/><path fill="url(#C)" d="M56.394 41.872c-8.888 0-11.913-11.231-12.591-13.416a61 61 0 0 1-2.275-10.948c-.316-2.993 2.086-5.075 4.723-5.075a4.46 4.46 0 0 1 4.62 4.09 49.5 49.5 0 0 0 1.895 9.27c1.498 4.778 3.088 6.616 4.232 6.616 1.849 0 2.977-4.744 3.974-9.26.734-3.329 1.528-6.682 3.096-9.661C66.795 8.306 70.916 7.1 74.477 7.1c7.807 0 11.714 9.038 11.714 11.38a4.64 4.64 0 0 1-4.579 4.91c-3.028 0-4.054-2.027-4.918-3.803-.778-1.599-1.59-2.928-2.639-2.928a1.36 1.36 0 0 0-.96.474c-2.608 2.65-3.482 16.506-8.697 21.803-2.891 2.936-6.037 2.936-8.004 2.936"/><path fill="url(#D)" d="M56.394 41.872c-8.888 0-11.913-11.231-12.591-13.416a61 61 0 0 1-2.275-10.948c-.316-2.993 2.086-5.075 4.723-5.075a4.46 4.46 0 0 1 4.62 4.09 49.5 49.5 0 0 0 1.895 9.27c1.498 4.778 3.088 6.616 4.232 6.616 1.849 0 2.977-4.744 3.974-9.26.734-3.329 1.528-6.682 3.096-9.661C66.795 8.306 70.916 7.1 74.477 7.1c7.807 0 11.714 9.038 11.714 11.38a4.64 4.64 0 0 1-4.579 4.91c-3.028 0-4.054-2.027-4.918-3.803-.778-1.599-1.59-2.928-2.639-2.928a1.36 1.36 0 0 0-.96.474c-2.608 2.65-3.482 16.506-8.697 21.803-2.891 2.936-6.037 2.936-8.004 2.936"/><path fill="url(#E)" d="M56.394 41.872c-8.888 0-11.913-11.231-12.591-13.416a61 61 0 0 1-2.275-10.948c-.316-2.993 2.086-5.075 4.723-5.075a4.46 4.46 0 0 1 4.62 4.09 49.5 49.5 0 0 0 1.895 9.27c1.498 4.778 3.088 6.616 4.232 6.616 1.849 0 2.977-4.744 3.974-9.26.734-3.329 1.528-6.682 3.096-9.661C66.795 8.306 70.916 7.1 74.477 7.1c7.807 0 11.714 9.038 11.714 11.38a4.64 4.64 0 0 1-4.579 4.91c-3.028 0-4.054-2.027-4.918-3.803-.778-1.599-1.59-2.928-2.639-2.928a1.36 1.36 0 0 0-.96.474c-2.608 2.65-3.482 16.506-8.697 21.803-2.891 2.936-6.037 2.936-8.004 2.936"/><path fill="url(#F)" d="M56.394 41.872c-8.888 0-11.913-11.231-12.591-13.416a61 61 0 0 1-2.275-10.948c-.316-2.993 2.086-5.075 4.723-5.075a4.46 4.46 0 0 1 4.62 4.09 49.5 49.5 0 0 0 1.895 9.27c1.498 4.778 3.088 6.616 4.232 6.616 1.849 0 2.977-4.744 3.974-9.26.734-3.329 1.528-6.682 3.096-9.661C66.795 8.306 70.916 7.1 74.477 7.1c7.807 0 11.714 9.038 11.714 11.38a4.64 4.64 0 0 1-4.579 4.91c-3.028 0-4.054-2.027-4.918-3.803-.778-1.599-1.59-2.928-2.639-2.928a1.36 1.36 0 0 0-.96.474c-2.608 2.65-3.482 16.506-8.697 21.803-2.891 2.936-6.037 2.936-8.004 2.936"/><path fill="#fff" d="M38.201 101.319h-.98v-8.98h1.19v3.392a2.457 2.457 0 0 1 2.154-1.085 2.574 2.574 0 0 1 2.156 1.004q.68.9.68 2.383 0 1.757-.927 2.694a2.7 2.7 0 0 1-1.994.786 2.38 2.38 0 0 1-2.094-1.047zM42.162 98q0-1.221-.606-1.832a1.69 1.69 0 0 0-1.263-.503 1.73 1.73 0 0 0-1.436.663 2.6 2.6 0 0 0-.499 1.67q0 1.255.609 1.908c.166.189.372.339.603.439s.481.145.733.136a1.62 1.62 0 0 0 1.413-.686q.446-.632.446-1.795M49.767 94.835l-2.244 6.572q-.449 1.308-.855 1.783a1.58 1.58 0 0 1-1.246.562 3.2 3.2 0 0 1-.768-.113v-.974q.304.083.618.088a.71.71 0 0 0 .596-.269c.228-.363.407-.755.534-1.165h-.387l-2.363-6.484h1.286l1.823 5.51 1.82-5.51zM66.116 92.352h-2.243v8.997h2.243zM84.296 94.93a3.9 3.9 0 0 0-1.895-.482c-1.458 0-2.47 1.022-2.47 2.4 0 1.338.97 2.403 2.47 2.403a3.9 3.9 0 0 0 1.895-.477v2.415a7 7 0 0 1-2.057.321c-2.532 0-4.756-1.757-4.756-4.662 0-2.686 2.014-4.657 4.756-4.657.698 0 1.392.11 2.057.324zM60.752 94.93a3.9 3.9 0 0 0-1.894-.482c-1.46 0-2.47 1.022-2.47 2.4 0 1.338.967 2.403 2.47 2.403a3.9 3.9 0 0 0 1.894-.465v2.415a7.1 7.1 0 0 1-2.056.322c-2.535 0-4.758-1.758-4.758-4.663 0-2.686 2.014-4.657 4.758-4.657a6.7 6.7 0 0 1 2.056.307zM91.388 94.483a2.34 2.34 0 0 0-1.31.39 2.38 2.38 0 0 0-.374 3.645 2.336 2.336 0 0 0 3.622-.353 2.4 2.4 0 0 0 .395-1.317 2.34 2.34 0 0 0-.67-1.679 2.3 2.3 0 0 0-1.663-.686m4.721 2.365c0 2.576-1.974 4.662-4.72 4.662-2.748 0-4.714-2.086-4.714-4.662s1.969-4.657 4.718-4.657c2.75 0 4.721 2.089 4.721 4.657M74.666 94.395a7.7 7.7 0 0 0-1.762-.273c-.903 0-1.396.303-1.396.738 0 .547.663.738 1.034.856l.623.198c1.464.47 2.13 1.479 2.13 2.576 0 2.259-1.975 3.013-3.7 3.013q-1.227-.015-2.433-.251V99.18a8.4 8.4 0 0 0 2.13.334c1.12 0 1.637-.329 1.637-.838 0-.457-.446-.72-.997-.897-.137-.047-.342-.11-.481-.158-1.247-.399-2.303-1.142-2.303-2.63 0-1.686 1.246-2.815 3.33-2.815.74.01 1.477.106 2.196.286zM31.868 60.544h5.012l-7.288 22.188h-5.75l-5.447-16.743-5.447 16.743h-5.66L0 60.544h5.13l5.17 16.862 5.427-16.862h5.447l5.515 16.952zM58.378 73.42H42.12a7.1 7.1 0 0 0 1.24 3.173 5.6 5.6 0 0 0 2.31 1.875c.94.41 1.955.615 2.98.605a9.6 9.6 0 0 0 3.322-.612 10.8 10.8 0 0 0 3.048-1.729l2.392 3.472a12.1 12.1 0 0 1-4.178 2.396c-1.579.5-3.226.746-4.881.73a11.6 11.6 0 0 1-5.84-1.445 10.2 10.2 0 0 1-3.992-4.097 12.67 12.67 0 0 1-1.434-6.125 12.96 12.96 0 0 1 1.379-6.084 10.2 10.2 0 0 1 3.874-4.118 10.9 10.9 0 0 1 5.702-1.472 9.76 9.76 0 0 1 5.36 1.429 9.86 9.86 0 0 1 3.735 4.127 13.4 13.4 0 0 1 1.323 6.07c.007.464-.02 1.069-.082 1.805m-4.827-3.68a6.9 6.9 0 0 0-1.84-4.056 5.09 5.09 0 0 0-3.75-1.389 5.36 5.36 0 0 0-3.945 1.472 7.07 7.07 0 0 0-1.896 3.993zM78.944 61.475c1.678 1 3.053 2.44 3.979 4.167a12.3 12.3 0 0 1 1.461 6 12.25 12.25 0 0 1-1.461 5.993 10.74 10.74 0 0 1-3.992 4.181 10.64 10.64 0 0 1-5.564 1.492 8.95 8.95 0 0 1-3.979-.84 8.2 8.2 0 0 1-2.916-2.375v2.639h-4.826V51.1h4.826v12.083a8.3 8.3 0 0 1 2.916-2.36 8.86 8.86 0 0 1 3.979-.848c1.96-.024 3.89.495 5.577 1.5m-2.633 16.327a6.23 6.23 0 0 0 2.323-2.577 8.38 8.38 0 0 0 0-7.173 6.3 6.3 0 0 0-2.323-2.577 6.99 6.99 0 0 0-6.978 0 6.3 6.3 0 0 0-2.344 2.549 7.7 7.7 0 0 0-.841 3.639 7.7 7.7 0 0 0 .84 3.632 6.3 6.3 0 0 0 2.345 2.548 6.99 6.99 0 0 0 6.978 0zM108.199 73.42H91.948a7.1 7.1 0 0 0 1.24 3.173 5.6 5.6 0 0 0 2.31 1.875c.94.41 1.955.615 2.98.604a9.6 9.6 0 0 0 3.322-.61 10.8 10.8 0 0 0 3.048-1.73l2.386 3.472a12 12 0 0 1-4.172 2.396c-1.581.5-3.23.745-4.888.73a11.65 11.65 0 0 1-5.84-1.445 10.24 10.24 0 0 1-3.985-4.097 12.7 12.7 0 0 1-1.441-6.125c-.042-2.111.431-4.2 1.379-6.084a10.2 10.2 0 0 1 3.875-4.118 10.9 10.9 0 0 1 5.743-1.493 9.78 9.78 0 0 1 5.357 1.432 9.87 9.87 0 0 1 3.737 4.124 13.4 13.4 0 0 1 1.324 6.07c-.028.485-.076 1.09-.124 1.826m-4.827-3.68a6.93 6.93 0 0 0-1.847-4.029 5.103 5.103 0 0 0-3.737-1.417 5.34 5.34 0 0 0-3.944 1.473 7.03 7.03 0 0 0-1.896 3.993zM131.124 82.732h-5.909l-5.585-7.715-5.516 7.715h-5.633l8.274-11.326-8.143-10.862h5.916l5.378 7.41 5.378-7.41H131l-8.178 10.82z"/><defs><radialGradient id="b" cx="0" cy="0" r="1" gradientTransform="rotate(-120.881 37.155 -4.129)scale(20.5565 17.2637)" gradientUnits="userSpaceOnUse"><stop stop-color="#B7B7B7"/><stop offset=".408" stop-color="#B5B5B5" stop-opacity=".75"/><stop offset=".875" stop-color="#B6B6B6" stop-opacity="0"/></radialGradient><radialGradient id="c" cx="0" cy="0" r="1" gradientTransform="rotate(-126.757 42.112 -7.457)scale(16.7659 11.0186)" gradientUnits="userSpaceOnUse"><stop stop-color="#CACACA"/><stop offset=".46" stop-color="#C7C7C7"/><stop offset="1" stop-color="#ACACAC" stop-opacity="0"/></radialGradient><radialGradient id="d" cx="0" cy="0" r="1" gradientTransform="matrix(-4.10111 -13.02134 6.7883 -2.138 58.594 26.609)" gradientUnits="userSpaceOnUse"><stop stop-color="#CDCDCD"/><stop offset=".408" stop-color="#C8C8C8" stop-opacity=".79"/><stop offset=".875" stop-color="#B6B6B6" stop-opacity="0"/></radialGradient><radialGradient id="e" cx="0" cy="0" r="1" gradientTransform="matrix(-15.08805 -32.96276 10.17176 -4.65592 61.955 29.737)" gradientUnits="userSpaceOnUse"><stop stop-color="#A2A2A2" stop-opacity=".78"/><stop offset="1" stop-color="#A2A2A2" stop-opacity="0"/></radialGradient><radialGradient id="f" cx="0" cy="0" r="1" gradientTransform="matrix(2.91852 16.91862 -9.60375 1.65668 69.046 18.282)" gradientUnits="userSpaceOnUse"><stop stop-color="#AEAEAE"/><stop offset=".233" stop-color="#AEAEAE" stop-opacity=".75"/><stop offset=".599" stop-color="#AEAEAE" stop-opacity=".301"/><stop offset=".875" stop-color="#AEAEAE" stop-opacity="0"/></radialGradient><radialGradient id="g" cx="0" cy="0" r="1" gradientTransform="matrix(8.34852 12.88309 -6.75942 4.38025 71.422 1.09)" gradientUnits="userSpaceOnUse"><stop stop-color="#E1E1E1"/><stop offset=".408" stop-color="#E7E7E7"/><stop offset="1" stop-color="#E7E7E7" stop-opacity=".07"/></radialGradient><radialGradient id="i" cx="0" cy="0" r="1" gradientTransform="rotate(47.988 31.934 53.811)scale(40.6705 40.61)" gradientUnits="userSpaceOnUse"><stop stop-color="#F5F5F5"/><stop offset=".745" stop-color="#F4F4F4" stop-opacity="0"/></radialGradient><radialGradient id="j" cx="0" cy="0" r="1" gradientTransform="rotate(-107.482 35.348 -7.044)scale(19.598 13.5883)" gradientUnits="userSpaceOnUse"><stop stop-color="#F5F5F5" stop-opacity=".76"/><stop offset=".573" stop-color="#F4F4F4" stop-opacity="0"/></radialGradient><radialGradient id="k" cx="0" cy="0" r="1" gradientTransform="rotate(-129.574 45.282 -10.87)scale(13.8621 9.70632)" gradientUnits="userSpaceOnUse"><stop stop-color="#fff"/><stop offset="1" stop-color="#F4F4F4" stop-opacity="0"/></radialGradient><radialGradient id="l" cx="0" cy="0" r="1" gradientTransform="matrix(.79436 -4.11953 2.85144 .54983 80.527 26.044)" gradientUnits="userSpaceOnUse"><stop stop-color="#CDCDCD"/><stop offset="1" stop-color="#BCBCBC" stop-opacity="0"/></radialGradient><radialGradient id="m" cx="0" cy="0" r="1" gradientTransform="matrix(59.55638 -277.1001 301.47253 64.79468 -86619.2 28580.5)" gradientUnits="userSpaceOnUse"><stop stop-color="#CDCDCD"/><stop offset="1" stop-color="#BCBCBC" stop-opacity="0"/></radialGradient><radialGradient id="n" cx="0" cy="0" r="1" gradientTransform="rotate(-132.814 46.481 -8.684)scale(11.4772 8.06338)" gradientUnits="userSpaceOnUse"><stop stop-color="#fff"/><stop offset=".813" stop-color="#fff" stop-opacity="0"/></radialGradient><radialGradient id="p" cx="0" cy="0" r="1" gradientTransform="matrix(8.1061 6.20505 -8.62309 11.26495 80.854 22.79)" gradientUnits="userSpaceOnUse"><stop stop-color="#D2D2D2"/><stop offset=".966" stop-color="#D2D2D2" stop-opacity="0"/></radialGradient><radialGradient id="q" cx="0" cy="0" r="1" gradientTransform="matrix(11.9168 1.77654 -2.64966 17.77358 78.314 23.951)" gradientUnits="userSpaceOnUse"><stop stop-color="#D2D2D2"/><stop offset=".593" stop-color="#D2D2D2" stop-opacity="0"/></radialGradient><radialGradient id="r" cx="0" cy="0" r="1" gradientTransform="matrix(9.3532 4.29116 -7.64236 16.65764 79.29 25.447)" gradientUnits="userSpaceOnUse"><stop stop-color="#D2D2D2"/><stop offset=".757" stop-color="#D2D2D2" stop-opacity="0"/></radialGradient><radialGradient id="s" cx="0" cy="0" r="1" gradientTransform="rotate(-45.91 65.2 -82.187)scale(24.3022 19.531)" gradientUnits="userSpaceOnUse"><stop offset=".065" stop-color="#4F4F4F"/><stop offset=".519" stop-color="#D5D5D5" stop-opacity="0"/></radialGradient><radialGradient id="t" cx="0" cy="0" r="1" gradientTransform="matrix(-1.87066 18.39201 -10.08706 -1.02596 78.088 26.05)" gradientUnits="userSpaceOnUse"><stop stop-color="#D2D2D2"/><stop offset=".593" stop-color="#D2D2D2" stop-opacity="0"/><stop offset="1" stop-color="#D2D2D2" stop-opacity="0"/></radialGradient><radialGradient id="u" cx="0" cy="0" r="1" gradientTransform="matrix(-1.4241 22.20267 -7.93003 -.50864 80.849 17.9)" gradientUnits="userSpaceOnUse"><stop stop-color="#D2D2D2"/><stop offset=".885" stop-color="#D2D2D2" stop-opacity="0"/></radialGradient><radialGradient id="v" cx="0" cy="0" r="1" gradientTransform="rotate(-68.052 43.344 -21.067)scale(19.701 7.84571)" gradientUnits="userSpaceOnUse"><stop stop-color="#B3B3B3"/><stop offset="1" stop-color="#B0B0B0" stop-opacity="0"/></radialGradient><radialGradient id="w" cx="0" cy="0" r="1" gradientTransform="matrix(11.8272 -4.82594 9.4277 23.10499 59.228 33.828)" gradientUnits="userSpaceOnUse"><stop stop-color="#F7F7F7"/><stop offset=".709" stop-color="#F9F9F9" stop-opacity="0"/></radialGradient><radialGradient id="x" cx="0" cy="0" r="1" gradientTransform="matrix(11.8272 -4.82594 9.4277 23.10499 59.228 33.828)" gradientUnits="userSpaceOnUse"><stop stop-color="#F7F7F7"/><stop offset=".709" stop-color="#F9F9F9" stop-opacity="0"/></radialGradient><radialGradient id="y" cx="0" cy="0" r="1" gradientTransform="matrix(15.00016 6.81836 -6.87837 15.13216 50.501 18.828)" gradientUnits="userSpaceOnUse"><stop stop-color="#ADADAD"/><stop offset=".761" stop-color="#D2D2D2" stop-opacity="0"/></radialGradient><radialGradient id="z" cx="0" cy="0" r="1" gradientTransform="matrix(6.27276 -.27273 .39552 9.09692 55.137 17.464)" gradientUnits="userSpaceOnUse"><stop stop-color="#ADADAD"/><stop offset=".761" stop-color="#D2D2D2" stop-opacity="0"/></radialGradient><radialGradient id="A" cx="0" cy="0" r="1" gradientTransform="rotate(-15.946 112.29 -191.923)scale(5.95649 12.5013)" gradientUnits="userSpaceOnUse"><stop stop-color="#B1B1B1"/><stop offset="1" stop-color="#D2D2D2" stop-opacity="0"/></radialGradient><radialGradient id="B" cx="0" cy="0" r="1" gradientTransform="matrix(6.2728 -7.9093 7.43268 5.8948 48.865 19.1)" gradientUnits="userSpaceOnUse"><stop stop-color="#807F7F"/><stop offset="1" stop-color="#D2D2D2" stop-opacity="0"/></radialGradient><radialGradient id="F" cx="0" cy="0" r="1" gradientTransform="rotate(176.186 25.073 10.26)scale(8.20002 24.7924)" gradientUnits="userSpaceOnUse"><stop stop-color="#D1D1D1"/><stop offset=".58" stop-color="#D1D1D1" stop-opacity="0"/></radialGradient><linearGradient id="a" x1="81.415" x2="50.022" y1="17.569" y2="27.872" gradientUnits="userSpaceOnUse"><stop stop-color="#fff"/><stop offset="1" stop-color="#F5F5F5"/></linearGradient><linearGradient id="h" x1="29.69" x2="51.941" y1="24.192" y2="24.375" gradientUnits="userSpaceOnUse"><stop stop-color="#FAFAFA"/><stop offset="1" stop-color="#F8F8F8" stop-opacity="0"/></linearGradient><linearGradient id="o" x1="60.318" x2="54.318" y1="52.101" y2="35.464" gradientUnits="userSpaceOnUse"><stop offset=".229" stop-color="#fff"/><stop offset="1" stop-color="#fff" stop-opacity="0"/></linearGradient><linearGradient id="C" x1="42.345" x2="59.46" y1="9.729" y2="20.662" gradientUnits="userSpaceOnUse"><stop offset=".229" stop-color="#fff"/><stop offset="1" stop-color="#fff" stop-opacity="0"/></linearGradient><linearGradient id="D" x1="46.136" x2="54.319" y1="51.556" y2="35.464" gradientUnits="userSpaceOnUse"><stop offset=".229" stop-color="#fff"/><stop offset="1" stop-color="#fff" stop-opacity="0"/></linearGradient><linearGradient id="E" x1="46.768" x2="51.568" y1="7.516" y2="11.87" gradientUnits="userSpaceOnUse"><stop stop-color="#fff"/><stop offset=".637" stop-color="#F8F8F8" stop-opacity="0"/></linearGradient></defs></svg>