<svg xmlns="http://www.w3.org/2000/svg" width="239" height="68" fill="none" viewBox="0 0 239 68"><path fill="url(#a)" d="M19.353 55.998c-10.976 0-14.68-13.805-15.555-16.5-2.088-6.8-2.694-12.93-2.761-13.535C.633 22.259 3.596 19.7 6.895 19.7c2.492 0 5.32 1.481 5.724 5.05.067.607.539 5.792 2.357 11.449 1.818 5.926 3.838 8.149 5.252 8.149 2.29 0 3.704-5.86 4.916-11.449.875-4.108 1.885-8.216 3.838-11.92 3.232-6.397 8.282-7.879 12.727-7.879 9.629 0 14.477 11.18 14.477 14.075 0 4.849-3.973 6.06-5.656 6.06-3.771 0-4.983-2.49-6.06-4.713-.943-1.953-1.953-3.637-3.233-3.637q-.606 0-1.212.606c-3.232 3.3-4.31 20.406-10.706 26.938-3.636 3.57-7.542 3.57-9.966 3.57"/><path fill="url(#b)" d="M19.353 55.998c-10.976 0-14.68-13.805-15.555-16.5-2.088-6.8-2.694-12.93-2.761-13.535C.633 22.259 3.596 19.7 6.895 19.7c2.492 0 5.32 1.481 5.724 5.05.067.607.539 5.792 2.357 11.449 1.818 5.926 3.838 8.149 5.252 8.149 2.29 0 3.704-5.86 4.916-11.449.875-4.108 1.885-8.216 3.838-11.92 3.232-6.397 8.282-7.879 12.727-7.879 9.629 0 14.477 11.18 14.477 14.075 0 4.849-3.973 6.06-5.656 6.06-3.771 0-4.983-2.49-6.06-4.713-.943-1.953-1.953-3.637-3.233-3.637q-.606 0-1.212.606c-3.232 3.3-4.31 20.406-10.706 26.938-3.636 3.57-7.542 3.57-9.966 3.57"/><path fill="url(#c)" d="M19.353 55.998c-10.976 0-14.68-13.805-15.555-16.5-2.088-6.8-2.694-12.93-2.761-13.535C.633 22.259 3.596 19.7 6.895 19.7c2.492 0 5.32 1.481 5.724 5.05.067.607.539 5.792 2.357 11.449 1.818 5.926 3.838 8.149 5.252 8.149 2.29 0 3.704-5.86 4.916-11.449.875-4.108 1.885-8.216 3.838-11.92 3.232-6.397 8.282-7.879 12.727-7.879 9.629 0 14.477 11.18 14.477 14.075 0 4.849-3.973 6.06-5.656 6.06-3.771 0-4.983-2.49-6.06-4.713-.943-1.953-1.953-3.637-3.233-3.637q-.606 0-1.212.606c-3.232 3.3-4.31 20.406-10.706 26.938-3.636 3.57-7.542 3.57-9.966 3.57"/><path fill="url(#d)" d="M19.353 55.998c-10.976 0-14.68-13.805-15.555-16.5-2.088-6.8-2.694-12.93-2.761-13.535C.633 22.259 3.596 19.7 6.895 19.7c2.492 0 5.32 1.481 5.724 5.05.067.607.539 5.792 2.357 11.449 1.818 5.926 3.838 8.149 5.252 8.149 2.29 0 3.704-5.86 4.916-11.449.875-4.108 1.885-8.216 3.838-11.92 3.232-6.397 8.282-7.879 12.727-7.879 9.629 0 14.477 11.18 14.477 14.075 0 4.849-3.973 6.06-5.656 6.06-3.771 0-4.983-2.49-6.06-4.713-.943-1.953-1.953-3.637-3.233-3.637q-.606 0-1.212.606c-3.232 3.3-4.31 20.406-10.706 26.938-3.636 3.57-7.542 3.57-9.966 3.57"/><path fill="url(#e)" d="M19.353 55.998c-10.976 0-14.68-13.805-15.555-16.5-2.088-6.8-2.694-12.93-2.761-13.535C.633 22.259 3.596 19.7 6.895 19.7c2.492 0 5.32 1.481 5.724 5.05.067.607.539 5.792 2.357 11.449 1.818 5.926 3.838 8.149 5.252 8.149 2.29 0 3.704-5.86 4.916-11.449.875-4.108 1.885-8.216 3.838-11.92 3.232-6.397 8.282-7.879 12.727-7.879 9.629 0 14.477 11.18 14.477 14.075 0 4.849-3.973 6.06-5.656 6.06-3.771 0-4.983-2.49-6.06-4.713-.943-1.953-1.953-3.637-3.233-3.637q-.606 0-1.212.606c-3.232 3.3-4.31 20.406-10.706 26.938-3.636 3.57-7.542 3.57-9.966 3.57"/><path fill="url(#f)" d="M19.353 55.998c-10.976 0-14.68-13.805-15.555-16.5-2.088-6.8-2.694-12.93-2.761-13.535C.633 22.259 3.596 19.7 6.895 19.7c2.492 0 5.32 1.481 5.724 5.05.067.607.539 5.792 2.357 11.449 1.818 5.926 3.838 8.149 5.252 8.149 2.29 0 3.704-5.86 4.916-11.449.875-4.108 1.885-8.216 3.838-11.92 3.232-6.397 8.282-7.879 12.727-7.879 9.629 0 14.477 11.18 14.477 14.075 0 4.849-3.973 6.06-5.656 6.06-3.771 0-4.983-2.49-6.06-4.713-.943-1.953-1.953-3.637-3.233-3.637q-.606 0-1.212.606c-3.232 3.3-4.31 20.406-10.706 26.938-3.636 3.57-7.542 3.57-9.966 3.57"/><path fill="url(#g)" d="M19.353 55.998c-10.976 0-14.68-13.805-15.555-16.5-2.088-6.8-2.694-12.93-2.761-13.535C.633 22.259 3.596 19.7 6.895 19.7c2.492 0 5.32 1.481 5.724 5.05.067.607.539 5.792 2.357 11.449 1.818 5.926 3.838 8.149 5.252 8.149 2.29 0 3.704-5.86 4.916-11.449.875-4.108 1.885-8.216 3.838-11.92 3.232-6.397 8.282-7.879 12.727-7.879 9.629 0 14.477 11.18 14.477 14.075 0 4.849-3.973 6.06-5.656 6.06-3.771 0-4.983-2.49-6.06-4.713-.943-1.953-1.953-3.637-3.233-3.637q-.606 0-1.212.606c-3.232 3.3-4.31 20.406-10.706 26.938-3.636 3.57-7.542 3.57-9.966 3.57"/><path fill="url(#h)" d="M19.353 55.998c-10.976 0-14.68-13.805-15.555-16.5-2.088-6.8-2.694-12.93-2.761-13.535C.633 22.259 3.596 19.7 6.895 19.7c2.492 0 5.32 1.481 5.724 5.05.067.607.539 5.792 2.357 11.449 1.818 5.926 3.838 8.149 5.252 8.149 2.29 0 3.704-5.86 4.916-11.449.875-4.108 1.885-8.216 3.838-11.92 3.232-6.397 8.282-7.879 12.727-7.879 9.629 0 14.477 11.18 14.477 14.075 0 4.849-3.973 6.06-5.656 6.06-3.771 0-4.983-2.49-6.06-4.713-.943-1.953-1.953-3.637-3.233-3.637q-.606 0-1.212.606c-3.232 3.3-4.31 20.406-10.706 26.938-3.636 3.57-7.542 3.57-9.966 3.57"/><path fill="url(#i)" d="M19.353 55.998c-10.976 0-14.68-13.805-15.555-16.5-2.088-6.8-2.694-12.93-2.761-13.535C.633 22.259 3.596 19.7 6.895 19.7c2.492 0 5.32 1.481 5.724 5.05.067.607.539 5.792 2.357 11.449 1.818 5.926 3.838 8.149 5.252 8.149 2.29 0 3.704-5.86 4.916-11.449.875-4.108 1.885-8.216 3.838-11.92 3.232-6.397 8.282-7.879 12.727-7.879 9.629 0 14.477 11.18 14.477 14.075 0 4.849-3.973 6.06-5.656 6.06-3.771 0-4.983-2.49-6.06-4.713-.943-1.953-1.953-3.637-3.233-3.637q-.606 0-1.212.606c-3.232 3.3-4.31 20.406-10.706 26.938-3.636 3.57-7.542 3.57-9.966 3.57"/><path fill="url(#j)" d="M41.709 13.1c-4.377 0-9.495 1.482-12.862 7.88-1.952 3.703-2.895 7.811-3.838 11.92-.27 1.346-.606 2.693-.943 4.04v18.587c1.684-.472 3.435-1.347 5.185-3.098 6.465-6.532 7.542-23.638 10.707-26.938q.505-.606 1.212-.606c1.28 0 2.29 1.616 3.232 3.637 1.078 2.222 2.357 4.714 6.06 4.714 1.684 0 5.657-1.212 5.657-6.061 0-2.896-4.781-14.075-14.41-14.075"/><path fill="url(#k)" d="M19.353 55.998c-10.976 0-14.68-13.805-15.555-16.5-2.088-6.8-2.694-12.93-2.761-13.535C.633 22.259 3.596 19.7 6.895 19.7c2.492 0 5.32 1.481 5.724 5.05.067.607.539 5.792 2.357 11.449 1.818 5.926 3.838 8.149 5.252 8.149 2.29 0 3.704-5.86 4.916-11.449.875-4.108 1.885-8.216 3.838-11.92 3.232-6.397 8.282-7.879 12.727-7.879 9.629 0 14.477 11.18 14.477 14.075 0 4.849-3.973 6.06-5.656 6.06-3.771 0-4.983-2.49-6.06-4.713-.943-1.953-1.953-3.637-3.233-3.637q-.606 0-1.212.606c-3.232 3.3-4.31 20.406-10.706 26.938-3.636 3.57-7.542 3.57-9.966 3.57"/><path fill="url(#l)" d="M19.353 55.998c-10.976 0-14.68-13.805-15.555-16.5-2.088-6.8-2.694-12.93-2.761-13.535C.633 22.259 3.596 19.7 6.895 19.7c2.492 0 5.32 1.481 5.724 5.05.067.607.539 5.792 2.357 11.449 1.818 5.926 3.838 8.149 5.252 8.149 2.29 0 3.704-5.86 4.916-11.449.875-4.108 1.885-8.216 3.838-11.92 3.232-6.397 8.282-7.879 12.727-7.879 9.629 0 14.477 11.18 14.477 14.075 0 4.849-3.973 6.06-5.656 6.06-3.771 0-4.983-2.49-6.06-4.713-.943-1.953-1.953-3.637-3.233-3.637q-.606 0-1.212.606c-3.232 3.3-4.31 20.406-10.706 26.938-3.636 3.57-7.542 3.57-9.966 3.57"/><path fill="url(#m)" d="M19.353 55.998c-10.976 0-14.68-13.805-15.555-16.5-2.088-6.8-2.694-12.93-2.761-13.535C.633 22.259 3.596 19.7 6.895 19.7c2.492 0 5.32 1.481 5.724 5.05.067.607.539 5.792 2.357 11.449 1.818 5.926 3.838 8.149 5.252 8.149 2.29 0 3.704-5.86 4.916-11.449.875-4.108 1.885-8.216 3.838-11.92 3.232-6.397 8.282-7.879 12.727-7.879 9.629 0 14.477 11.18 14.477 14.075 0 4.849-3.973 6.06-5.656 6.06-3.771 0-4.983-2.49-6.06-4.713-.943-1.953-1.953-3.637-3.233-3.637q-.606 0-1.212.606c-3.232 3.3-4.31 20.406-10.706 26.938-3.636 3.57-7.542 3.57-9.966 3.57"/><path fill="url(#n)" d="M19.353 55.998c-10.976 0-14.68-13.805-15.555-16.5-2.088-6.8-2.694-12.93-2.761-13.535C.633 22.259 3.596 19.7 6.895 19.7c2.492 0 5.32 1.481 5.724 5.05.067.607.539 5.792 2.357 11.449 1.818 5.926 3.838 8.149 5.252 8.149 2.29 0 3.704-5.86 4.916-11.449.875-4.108 1.885-8.216 3.838-11.92 3.232-6.397 8.282-7.879 12.727-7.879 9.629 0 14.477 11.18 14.477 14.075 0 4.849-3.973 6.06-5.656 6.06-3.771 0-4.983-2.49-6.06-4.713-.943-1.953-1.953-3.637-3.233-3.637q-.606 0-1.212.606c-3.232 3.3-4.31 20.406-10.706 26.938-3.636 3.57-7.542 3.57-9.966 3.57"/><path fill="url(#o)" d="M19.353 55.998c-10.976 0-14.68-13.805-15.555-16.5-2.088-6.8-2.694-12.93-2.761-13.535C.633 22.259 3.596 19.7 6.895 19.7c2.492 0 5.32 1.481 5.724 5.05.067.607.539 5.792 2.357 11.449 1.818 5.926 3.838 8.149 5.252 8.149 2.29 0 3.704-5.86 4.916-11.449.875-4.108 1.885-8.216 3.838-11.92 3.232-6.397 8.282-7.879 12.727-7.879 9.629 0 14.477 11.18 14.477 14.075 0 4.849-3.973 6.06-5.656 6.06-3.771 0-4.983-2.49-6.06-4.713-.943-1.953-1.953-3.637-3.233-3.637q-.606 0-1.212.606c-3.232 3.3-4.31 20.406-10.706 26.938-3.636 3.57-7.542 3.57-9.966 3.57"/><path fill="#4A4A4A" d="M54.366 19.7c-.404 0-.875.067-1.28.134 2.021 2.964 3.031 5.994 3.031 7.34 0 4.85-3.973 6.062-5.656 6.062-1.347 0-2.357-.337-3.165-.808v.067c-.27.943-.404 2.02-.74 3.03-.607 1.953-1.482 4.176-2.425 5.927-1.01 1.885-1.953 2.963-3.097 2.896-1.347-.068-2.357-1.751-3.704-6.533a265 265 0 0 1-1.212-4.916c-.943-4.108-2.02-8.283-3.906-11.92-3.097-5.993-8.417-7.879-12.659-7.879-3.906 0-6.868 1.886-9.158 4.243-.606.673-1.347 1.549-2.02 2.559 2.02.471 3.906 2.02 4.242 4.849.068.538.472 4.916 1.886 9.966.404-1.28 1.01-3.165 2.357-6.128.673-1.414 1.279-2.29 1.818-2.828.471-.539.942-.741 1.346-.741.472 0 1.953.404 3.435 5.522 1.75 6.263 3.097 16.365 8.215 21.752 2.29 2.357 5.454 3.906 9.83 3.906 3.84 0 7.071-1.684 9.36-4.04 3.772-3.906 5.86-10.304 6.6-12.661 2.087-6.735 2.693-12.863 2.76-13.536.405-3.704-2.76-6.263-5.858-6.263"/><path fill="url(#p)" d="M54.366 19.7c-.404 0-.875.067-1.28.134 2.021 2.964 3.031 5.994 3.031 7.34 0 4.85-3.973 6.062-5.656 6.062-1.347 0-2.357-.337-3.165-.808v.067c-.27.943-.404 2.02-.74 3.03-.607 1.953-1.482 4.176-2.425 5.927-1.01 1.885-1.953 2.963-3.097 2.896-1.347-.068-2.357-1.751-3.704-6.533a265 265 0 0 1-1.212-4.916c-.943-4.108-2.02-8.283-3.906-11.92-3.097-5.993-8.417-7.879-12.659-7.879-3.906 0-6.868 1.886-9.158 4.243-.606.673-1.347 1.549-2.02 2.559 2.02.471 3.906 2.02 4.242 4.849.068.538.472 4.916 1.886 9.966.404-1.28 1.01-3.165 2.357-6.128.673-1.414 1.279-2.29 1.818-2.828.471-.539.942-.741 1.346-.741.472 0 1.953.404 3.435 5.522 1.75 6.263 3.097 16.365 8.215 21.752 2.29 2.357 5.454 3.906 9.83 3.906 3.84 0 7.071-1.684 9.36-4.04 3.772-3.906 5.86-10.304 6.6-12.661 2.087-6.735 2.693-12.863 2.76-13.536.405-3.704-2.76-6.263-5.858-6.263"/><path fill="url(#q)" d="M54.366 19.7c-.404 0-.875.067-1.28.134 2.021 2.964 3.031 5.994 3.031 7.34 0 4.85-3.973 6.062-5.656 6.062-1.347 0-2.357-.337-3.165-.808v.067c-.27.943-.404 2.02-.74 3.03-.607 1.953-1.482 4.176-2.425 5.927-1.01 1.885-1.953 2.963-3.097 2.896-1.347-.068-2.357-1.751-3.704-6.533a265 265 0 0 1-1.212-4.916c-.943-4.108-2.02-8.283-3.906-11.92-3.097-5.993-8.417-7.879-12.659-7.879-3.906 0-6.868 1.886-9.158 4.243-.606.673-1.347 1.549-2.02 2.559 2.02.471 3.906 2.02 4.242 4.849.068.538.472 4.916 1.886 9.966.404-1.28 1.01-3.165 2.357-6.128.673-1.414 1.279-2.29 1.818-2.828.471-.539.942-.741 1.346-.741.472 0 1.953.404 3.435 5.522 1.75 6.263 3.097 16.365 8.215 21.752 2.29 2.357 5.454 3.906 9.83 3.906 3.84 0 7.071-1.684 9.36-4.04 3.772-3.906 5.86-10.304 6.6-12.661 2.087-6.735 2.693-12.863 2.76-13.536.405-3.704-2.76-6.263-5.858-6.263"/><path fill="url(#r)" d="M54.366 19.7c-.404 0-.875.067-1.28.134 2.021 2.964 3.031 5.994 3.031 7.34 0 4.85-3.973 6.062-5.656 6.062-1.347 0-2.357-.337-3.165-.808v.067c-.27.943-.404 2.02-.74 3.03-.607 1.953-1.482 4.176-2.425 5.927-1.01 1.885-1.953 2.963-3.097 2.896-1.347-.068-2.357-1.751-3.704-6.533a265 265 0 0 1-1.212-4.916c-.943-4.108-2.02-8.283-3.906-11.92-3.097-5.993-8.417-7.879-12.659-7.879-3.906 0-6.868 1.886-9.158 4.243-.606.673-1.347 1.549-2.02 2.559 2.02.471 3.906 2.02 4.242 4.849.068.538.472 4.916 1.886 9.966.404-1.28 1.01-3.165 2.357-6.128.673-1.414 1.279-2.29 1.818-2.828.471-.539.942-.741 1.346-.741.472 0 1.953.404 3.435 5.522 1.75 6.263 3.097 16.365 8.215 21.752 2.29 2.357 5.454 3.906 9.83 3.906 3.84 0 7.071-1.684 9.36-4.04 3.772-3.906 5.86-10.304 6.6-12.661 2.087-6.735 2.693-12.863 2.76-13.536.405-3.704-2.76-6.263-5.858-6.263"/><path fill="url(#s)" d="M54.366 19.7c-.404 0-.875.067-1.28.134 2.021 2.964 3.031 5.994 3.031 7.34 0 4.85-3.973 6.062-5.656 6.062-1.347 0-2.357-.337-3.165-.808v.067c-.27.943-.404 2.02-.74 3.03-.607 1.953-1.482 4.176-2.425 5.927-1.01 1.885-1.953 2.963-3.097 2.896-1.347-.068-2.357-1.751-3.704-6.533a265 265 0 0 1-1.212-4.916c-.943-4.108-2.02-8.283-3.906-11.92-3.097-5.993-8.417-7.879-12.659-7.879-3.906 0-6.868 1.886-9.158 4.243-.606.673-1.347 1.549-2.02 2.559 2.02.471 3.906 2.02 4.242 4.849.068.538.472 4.916 1.886 9.966.404-1.28 1.01-3.165 2.357-6.128.673-1.414 1.279-2.29 1.818-2.828.471-.539.942-.741 1.346-.741.472 0 1.953.404 3.435 5.522 1.75 6.263 3.097 16.365 8.215 21.752 2.29 2.357 5.454 3.906 9.83 3.906 3.84 0 7.071-1.684 9.36-4.04 3.772-3.906 5.86-10.304 6.6-12.661 2.087-6.735 2.693-12.863 2.76-13.536.405-3.704-2.76-6.263-5.858-6.263"/><path fill="url(#t)" d="M54.366 19.7c-.404 0-.875.067-1.28.134 2.021 2.964 3.031 5.994 3.031 7.34 0 4.85-3.973 6.062-5.656 6.062-1.347 0-2.357-.337-3.165-.808v.067c-.27.943-.404 2.02-.74 3.03-.607 1.953-1.482 4.176-2.425 5.927-1.01 1.885-1.953 2.963-3.097 2.896-1.347-.068-2.357-1.751-3.704-6.533a265 265 0 0 1-1.212-4.916c-.943-4.108-2.02-8.283-3.906-11.92-3.097-5.993-8.417-7.879-12.659-7.879-3.906 0-6.868 1.886-9.158 4.243-.606.673-1.347 1.549-2.02 2.559 2.02.471 3.906 2.02 4.242 4.849.068.538.472 4.916 1.886 9.966.404-1.28 1.01-3.165 2.357-6.128.673-1.414 1.279-2.29 1.818-2.828.471-.539.942-.741 1.346-.741.472 0 1.953.404 3.435 5.522 1.75 6.263 3.097 16.365 8.215 21.752 2.29 2.357 5.454 3.906 9.83 3.906 3.84 0 7.071-1.684 9.36-4.04 3.772-3.906 5.86-10.304 6.6-12.661 2.087-6.735 2.693-12.863 2.76-13.536.405-3.704-2.76-6.263-5.858-6.263"/><path fill="url(#u)" d="M54.366 19.7c-.404 0-.875.067-1.28.134 2.021 2.964 3.031 5.994 3.031 7.34 0 4.85-3.973 6.062-5.656 6.062-1.347 0-2.357-.337-3.165-.808v.067c-.27.943-.404 2.02-.74 3.03-.607 1.953-1.482 4.176-2.425 5.927-1.01 1.885-1.953 2.963-3.097 2.896-1.347-.068-2.357-1.751-3.704-6.533a265 265 0 0 1-1.212-4.916c-.943-4.108-2.02-8.283-3.906-11.92-3.097-5.993-8.417-7.879-12.659-7.879-3.906 0-6.868 1.886-9.158 4.243-.606.673-1.347 1.549-2.02 2.559 2.02.471 3.906 2.02 4.242 4.849.068.538.472 4.916 1.886 9.966.404-1.28 1.01-3.165 2.357-6.128.673-1.414 1.279-2.29 1.818-2.828.471-.539.942-.741 1.346-.741.472 0 1.953.404 3.435 5.522 1.75 6.263 3.097 16.365 8.215 21.752 2.29 2.357 5.454 3.906 9.83 3.906 3.84 0 7.071-1.684 9.36-4.04 3.772-3.906 5.86-10.304 6.6-12.661 2.087-6.735 2.693-12.863 2.76-13.536.405-3.704-2.76-6.263-5.858-6.263"/><path fill="url(#v)" d="M54.366 19.7c-.404 0-.875.067-1.28.134 2.021 2.964 3.031 5.994 3.031 7.34 0 4.85-3.973 6.062-5.656 6.062-1.347 0-2.357-.337-3.165-.808v.067c-.27.943-.404 2.02-.74 3.03-.607 1.953-1.482 4.176-2.425 5.927-1.01 1.885-1.953 2.963-3.097 2.896-1.347-.068-2.357-1.751-3.704-6.533a265 265 0 0 1-1.212-4.916c-.943-4.108-2.02-8.283-3.906-11.92-3.097-5.993-8.417-7.879-12.659-7.879-3.906 0-6.868 1.886-9.158 4.243-.606.673-1.347 1.549-2.02 2.559 2.02.471 3.906 2.02 4.242 4.849.068.538.472 4.916 1.886 9.966.404-1.28 1.01-3.165 2.357-6.128.673-1.414 1.279-2.29 1.818-2.828.471-.539.942-.741 1.346-.741.472 0 1.953.404 3.435 5.522 1.75 6.263 3.097 16.365 8.215 21.752 2.29 2.357 5.454 3.906 9.83 3.906 3.84 0 7.071-1.684 9.36-4.04 3.772-3.906 5.86-10.304 6.6-12.661 2.087-6.735 2.693-12.863 2.76-13.536.405-3.704-2.76-6.263-5.858-6.263"/><path fill="url(#w)" d="M54.366 19.7c-.404 0-.875.067-1.28.134 2.021 2.964 3.031 5.994 3.031 7.34 0 4.85-3.973 6.062-5.656 6.062-1.347 0-2.357-.337-3.165-.808v.067c-.27.943-.404 2.02-.74 3.03-.607 1.953-1.482 4.176-2.425 5.927-1.01 1.885-1.953 2.963-3.097 2.896-1.347-.068-2.357-1.751-3.704-6.533a265 265 0 0 1-1.212-4.916c-.943-4.108-2.02-8.283-3.906-11.92-3.097-5.993-8.417-7.879-12.659-7.879-3.906 0-6.868 1.886-9.158 4.243-.606.673-1.347 1.549-2.02 2.559 2.02.471 3.906 2.02 4.242 4.849.068.538.472 4.916 1.886 9.966.404-1.28 1.01-3.165 2.357-6.128.673-1.414 1.279-2.29 1.818-2.828.471-.539.942-.741 1.346-.741.472 0 1.953.404 3.435 5.522 1.75 6.263 3.097 16.365 8.215 21.752 2.29 2.357 5.454 3.906 9.83 3.906 3.84 0 7.071-1.684 9.36-4.04 3.772-3.906 5.86-10.304 6.6-12.661 2.087-6.735 2.693-12.863 2.76-13.536.405-3.704-2.76-6.263-5.858-6.263"/><path fill="url(#x)" d="M54.366 19.7c-.404 0-.875.067-1.28.134 2.021 2.964 3.031 5.994 3.031 7.34 0 4.85-3.973 6.062-5.656 6.062-1.347 0-2.357-.337-3.165-.808v.067c-.27.943-.404 2.02-.74 3.03-.607 1.953-1.482 4.176-2.425 5.927-1.01 1.885-1.953 2.963-3.097 2.896-1.347-.068-2.357-1.751-3.704-6.533a265 265 0 0 1-1.212-4.916c-.943-4.108-2.02-8.283-3.906-11.92-3.097-5.993-8.417-7.879-12.659-7.879-3.906 0-6.868 1.886-9.158 4.243-.606.673-1.347 1.549-2.02 2.559 2.02.471 3.906 2.02 4.242 4.849.068.538.472 4.916 1.886 9.966.404-1.28 1.01-3.165 2.357-6.128.673-1.414 1.279-2.29 1.818-2.828.471-.539.942-.741 1.346-.741.472 0 1.953.404 3.435 5.522 1.75 6.263 3.097 16.365 8.215 21.752 2.29 2.357 5.454 3.906 9.83 3.906 3.84 0 7.071-1.684 9.36-4.04 3.772-3.906 5.86-10.304 6.6-12.661 2.087-6.735 2.693-12.863 2.76-13.536.405-3.704-2.76-6.263-5.858-6.263"/><path fill="url(#y)" d="M54.366 19.7c-.404 0-.875.067-1.28.134 2.021 2.964 3.031 5.994 3.031 7.34 0 4.85-3.973 6.062-5.656 6.062-1.347 0-2.357-.337-3.165-.808v.067c-.27.943-.404 2.02-.74 3.03-.607 1.953-1.482 4.176-2.425 5.927-1.01 1.885-1.953 2.963-3.097 2.896-1.347-.068-2.357-1.751-3.704-6.533a265 265 0 0 1-1.212-4.916c-.943-4.108-2.02-8.283-3.906-11.92-3.097-5.993-8.417-7.879-12.659-7.879-3.906 0-6.868 1.886-9.158 4.243-.606.673-1.347 1.549-2.02 2.559 2.02.471 3.906 2.02 4.242 4.849.068.538.472 4.916 1.886 9.966.404-1.28 1.01-3.165 2.357-6.128.673-1.414 1.279-2.29 1.818-2.828.471-.539.942-.741 1.346-.741.472 0 1.953.404 3.435 5.522 1.75 6.263 3.097 16.365 8.215 21.752 2.29 2.357 5.454 3.906 9.83 3.906 3.84 0 7.071-1.684 9.36-4.04 3.772-3.906 5.86-10.304 6.6-12.661 2.087-6.735 2.693-12.863 2.76-13.536.405-3.704-2.76-6.263-5.858-6.263"/><path fill="url(#z)" d="M54.366 19.7c-.404 0-.875.067-1.28.134 2.021 2.964 3.031 5.994 3.031 7.34 0 4.85-3.973 6.062-5.656 6.062-1.347 0-2.357-.337-3.165-.808v.067c-.27.943-.404 2.02-.74 3.03-.607 1.953-1.482 4.176-2.425 5.927-1.01 1.885-1.953 2.963-3.097 2.896-1.347-.068-2.357-1.751-3.704-6.533a265 265 0 0 1-1.212-4.916c-.943-4.108-2.02-8.283-3.906-11.92-3.097-5.993-8.417-7.879-12.659-7.879-3.906 0-6.868 1.886-9.158 4.243-.606.673-1.347 1.549-2.02 2.559 2.02.471 3.906 2.02 4.242 4.849.068.538.472 4.916 1.886 9.966.404-1.28 1.01-3.165 2.357-6.128.673-1.414 1.279-2.29 1.818-2.828.471-.539.942-.741 1.346-.741.472 0 1.953.404 3.435 5.522 1.75 6.263 3.097 16.365 8.215 21.752 2.29 2.357 5.454 3.906 9.83 3.906 3.84 0 7.071-1.684 9.36-4.04 3.772-3.906 5.86-10.304 6.6-12.661 2.087-6.735 2.693-12.863 2.76-13.536.405-3.704-2.76-6.263-5.858-6.263"/><path fill="url(#A)" d="M54.366 19.7c-.404 0-.875.067-1.28.134 2.021 2.964 3.031 5.994 3.031 7.34 0 4.85-3.973 6.062-5.656 6.062-1.347 0-2.357-.337-3.165-.808v.067c-.27.943-.404 2.02-.74 3.03-.607 1.953-1.482 4.176-2.425 5.927-1.01 1.885-1.953 2.963-3.097 2.896-1.347-.068-2.357-1.751-3.704-6.533a265 265 0 0 1-1.212-4.916c-.943-4.108-2.02-8.283-3.906-11.92-3.097-5.993-8.417-7.879-12.659-7.879-3.906 0-6.868 1.886-9.158 4.243-.606.673-1.347 1.549-2.02 2.559 2.02.471 3.906 2.02 4.242 4.849.068.538.472 4.916 1.886 9.966.404-1.28 1.01-3.165 2.357-6.128.673-1.414 1.279-2.29 1.818-2.828.471-.539.942-.741 1.346-.741.472 0 1.953.404 3.435 5.522 1.75 6.263 3.097 16.365 8.215 21.752 2.29 2.357 5.454 3.906 9.83 3.906 3.84 0 7.071-1.684 9.36-4.04 3.772-3.906 5.86-10.304 6.6-12.661 2.087-6.735 2.693-12.863 2.76-13.536.405-3.704-2.76-6.263-5.858-6.263"/><path fill="url(#B)" d="M54.366 19.7c-.404 0-.875.067-1.28.134 2.021 2.964 3.031 5.994 3.031 7.34 0 4.85-3.973 6.062-5.656 6.062-1.347 0-2.357-.337-3.165-.808v.067c-.27.943-.404 2.02-.74 3.03-.607 1.953-1.482 4.176-2.425 5.927-1.01 1.885-1.953 2.963-3.097 2.896-1.347-.068-2.357-1.751-3.704-6.533a265 265 0 0 1-1.212-4.916c-.943-4.108-2.02-8.283-3.906-11.92-3.097-5.993-8.417-7.879-12.659-7.879-3.906 0-6.868 1.886-9.158 4.243-.606.673-1.347 1.549-2.02 2.559 2.02.471 3.906 2.02 4.242 4.849.068.538.472 4.916 1.886 9.966.404-1.28 1.01-3.165 2.357-6.128.673-1.414 1.279-2.29 1.818-2.828.471-.539.942-.741 1.346-.741.472 0 1.953.404 3.435 5.522 1.75 6.263 3.097 16.365 8.215 21.752 2.29 2.357 5.454 3.906 9.83 3.906 3.84 0 7.071-1.684 9.36-4.04 3.772-3.906 5.86-10.304 6.6-12.661 2.087-6.735 2.693-12.863 2.76-13.536.405-3.704-2.76-6.263-5.858-6.263"/><path fill="#000" d="M113.895 24.744h6.275L111.047 52.1h-7.199l-6.819-20.643L90.21 52.1h-7.086L74 24.744h6.422l6.474 20.789 6.793-20.789h6.819l6.905 20.9zM147.084 40.619H126.73a8.7 8.7 0 0 0 1.554 3.912 7 7 0 0 0 2.892 2.312 9.2 9.2 0 0 0 3.728.745c1.421-.005 2.83-.26 4.161-.753 1.38-.5 2.668-1.221 3.815-2.132l2.995 4.28a15.2 15.2 0 0 1-5.231 2.955 19.9 19.9 0 0 1-6.111.898 14.7 14.7 0 0 1-7.311-1.78 12.68 12.68 0 0 1-4.997-5.052 15.4 15.4 0 0 1-1.796-7.552 15.8 15.8 0 0 1 1.727-7.5 12.67 12.67 0 0 1 4.85-5.077 13.84 13.84 0 0 1 7.139-1.815c2.361-.065 4.69.547 6.709 1.761a12.2 12.2 0 0 1 4.676 5.088 16.3 16.3 0 0 1 1.657 7.483c.009.574-.026 1.319-.103 2.226m-6.043-4.538a8.43 8.43 0 0 0-2.304-5 6.459 6.459 0 0 0-4.696-1.713 6.8 6.8 0 0 0-2.654.41 6.8 6.8 0 0 0-2.283 1.405 8.66 8.66 0 0 0-2.374 4.923zM172.831 25.892a13.37 13.37 0 0 1 4.981 5.137 14.96 14.96 0 0 1 1.83 7.398 14.93 14.93 0 0 1-1.83 7.389 13.34 13.34 0 0 1-4.997 5.155 13.5 13.5 0 0 1-6.967 1.84 11.35 11.35 0 0 1-4.98-1.036 10.25 10.25 0 0 1-3.651-2.928V52.1h-6.042v-39h6.042v14.898a10.35 10.35 0 0 1 3.651-2.911 11.2 11.2 0 0 1 4.98-1.045c2.455-.03 4.871.61 6.983 1.85m-3.297 20.13a7.73 7.73 0 0 0 2.909-3.177 10.2 10.2 0 0 0 0-8.845 7.8 7.8 0 0 0-2.909-3.177 8.85 8.85 0 0 0-8.735 0 7.84 7.84 0 0 0-2.935 3.143 9.4 9.4 0 0 0-1.053 4.486 9.37 9.37 0 0 0 1.053 4.478 7.84 7.84 0 0 0 2.935 3.142 8.85 8.85 0 0 0 8.735 0zM209.455 40.618h-20.344a8.7 8.7 0 0 0 1.553 3.913 7 7 0 0 0 2.892 2.312 9.2 9.2 0 0 0 3.729.745 12.2 12.2 0 0 0 4.16-.754c1.38-.5 2.669-1.22 3.815-2.132l2.987 4.282a15.1 15.1 0 0 1-5.222 2.953c-1.98.615-4.045.919-6.12.9a14.77 14.77 0 0 1-7.311-1.782 12.7 12.7 0 0 1-4.989-5.051 15.4 15.4 0 0 1-1.804-7.552 15.8 15.8 0 0 1 1.726-7.5 12.67 12.67 0 0 1 4.851-5.077 13.84 13.84 0 0 1 7.19-1.841 12.4 12.4 0 0 1 6.707 1.766 12.24 12.24 0 0 1 4.678 5.083 16.3 16.3 0 0 1 1.658 7.484c-.035.599-.095 1.344-.156 2.251m-6.042-4.538a8.48 8.48 0 0 0-2.313-4.965 6.4 6.4 0 0 0-2.161-1.343 6.5 6.5 0 0 0-2.517-.404 6.78 6.78 0 0 0-4.938 1.815 8.6 8.6 0 0 0-2.373 4.923zM238.156 52.1h-7.398l-6.991-9.512-6.905 9.512h-7.052l10.357-13.965-10.193-13.39h7.405l6.733 9.135 6.733-9.136H238l-10.237 13.34z"/><defs><radialGradient id="b" cx="0" cy="0" r="1" gradientTransform="matrix(-13.02503 -21.78135 18.2916 -10.9382 23.525 35.986)" gradientUnits="userSpaceOnUse"><stop/><stop offset=".408" stop-opacity=".75"/><stop offset=".875" stop-opacity="0"/></radialGradient><radialGradient id="c" cx="0" cy="0" r="1" gradientTransform="matrix(-12.3857 -16.58405 10.89889 -8.13977 40.209 31.277)" gradientUnits="userSpaceOnUse"><stop stop-color="#0D0D0D"/><stop offset=".46" stop-color="#090909"/><stop offset="1" stop-opacity="0"/></radialGradient><radialGradient id="d" cx="0" cy="0" r="1" gradientTransform="matrix(-9.87848 -17.91404 12.41938 -6.84852 26.893 39.027)" gradientUnits="userSpaceOnUse"><stop/><stop offset=".408" stop-opacity=".79"/><stop offset=".875" stop-opacity="0"/></radialGradient><radialGradient id="e" cx="0" cy="0" r="1" gradientTransform="rotate(85.094 1.316 36.134)scale(16.1195 9.14939)" gradientUnits="userSpaceOnUse"><stop/><stop offset=".233" stop-opacity=".75"/><stop offset=".599" stop-opacity=".301"/><stop offset=".875" stop-opacity="0"/></radialGradient><radialGradient id="f" cx="0" cy="0" r="1" gradientTransform="rotate(57.058 13.729 37.701)scale(18.9528 9.94371)" gradientUnits="userSpaceOnUse"><stop stop-color="#2B2B2B"/><stop offset=".408" stop-color="#323232"/><stop offset="1" stop-color="#323232" stop-opacity=".07"/></radialGradient><radialGradient id="g" cx="0" cy="0" r="1" gradientTransform="rotate(42.8 -27.027 8.053)scale(12.3895 17.1237)" gradientUnits="userSpaceOnUse"><stop stop-color="#fff"/><stop offset="1" stop-color="#4A4A4A" stop-opacity="0"/></radialGradient><radialGradient id="h" cx="0" cy="0" r="1" gradientTransform="matrix(15.15085 -2.35703 3.25796 20.942 -8.459 32.967)" gradientUnits="userSpaceOnUse"><stop stop-color="#fff"/><stop offset="1" stop-color="#4A4A4A" stop-opacity="0"/></radialGradient><radialGradient id="i" cx="0" cy="0" r="1" gradientTransform="rotate(-32.008 80.919 32.18)scale(15.8819 21.9514)" gradientUnits="userSpaceOnUse"><stop stop-color="#fff"/><stop offset="1" stop-color="#4A4A4A" stop-opacity="0"/></radialGradient><radialGradient id="j" cx="0" cy="0" r="1" gradientTransform="rotate(47.991 9.415 12.135)scale(50.2103 50.1351)" gradientUnits="userSpaceOnUse"><stop stop-color="#464646"/><stop offset=".745" stop-color="#444" stop-opacity="0"/></radialGradient><radialGradient id="k" cx="0" cy="0" r="1" gradientTransform="matrix(-10.902 -13.19185 9.23685 -7.63351 51.59 25.456)" gradientUnits="userSpaceOnUse"><stop stop-color="#717171"/><stop offset="1" stop-color="#444" stop-opacity="0"/></radialGradient><radialGradient id="l" cx="0" cy="0" r="1" gradientTransform="matrix(.8972 -4.17477 5.83833 1.25472 48.892 36.104)" gradientUnits="userSpaceOnUse"><stop stop-color="#0F0F0F"/><stop offset="1" stop-opacity="0"/></radialGradient><radialGradient id="m" cx="0" cy="0" r="1" gradientTransform="matrix(-10.15524 -5.50467 3.86752 -7.13496 54.502 23.538)" gradientUnits="userSpaceOnUse"><stop stop-color="#7C7C7C"/><stop offset=".813" stop-color="#727272" stop-opacity="0"/></radialGradient><radialGradient id="n" cx="0" cy="0" r="1" gradientTransform="rotate(-169.765 28.996 7.57)scale(12.03 8.45256)" gradientUnits="userSpaceOnUse"><stop stop-color="#C4C4C4"/><stop offset=".813" stop-color="#727272" stop-opacity="0"/></radialGradient><radialGradient id="o" cx="0" cy="0" r="1" gradientTransform="rotate(49.63 -14.098 -3.615)scale(24.7556 24.6967)" gradientUnits="userSpaceOnUse"><stop stop-color="#4C4C4C"/><stop offset="1" stop-color="#494949" stop-opacity="0"/></radialGradient><radialGradient id="q" cx="0" cy="0" r="1" gradientTransform="rotate(37.436 -23.123 89.392)scale(12.6028 17.5142)" gradientUnits="userSpaceOnUse"><stop stop-color="#010101"/><stop offset=".966" stop-color="#010101" stop-opacity="0"/></radialGradient><radialGradient id="t" cx="0" cy="0" r="1" gradientTransform="rotate(8.48 -205.515 330.092)scale(14.8739 22.1858)" gradientUnits="userSpaceOnUse"><stop stop-color="#010101"/><stop offset=".593" stop-color="#010101" stop-opacity="0"/></radialGradient><radialGradient id="u" cx="0" cy="0" r="1" gradientTransform="matrix(11.54668 5.29795 -9.4358 20.565 47.636 35.754)" gradientUnits="userSpaceOnUse"><stop stop-color="#010101"/><stop offset=".757" stop-color="#010101" stop-opacity="0"/></radialGradient><radialGradient id="v" cx="0" cy="0" r="1" gradientTransform="matrix(-1.01005 9.76486 -4.2026 -.4347 20.159 32.63)" gradientUnits="userSpaceOnUse"><stop stop-color="#010101"/><stop offset=".885" stop-color="#010101" stop-opacity="0"/></radialGradient><radialGradient id="w" cx="0" cy="0" r="1" gradientTransform="rotate(-7.595 268.746 -22.598)scale(25.475 25.9695)" gradientUnits="userSpaceOnUse"><stop stop-color="#010101" stop-opacity=".5"/><stop offset=".885" stop-color="#010101" stop-opacity="0"/></radialGradient><radialGradient id="x" cx="0" cy="0" r="1" gradientTransform="rotate(-3.407 530.153 -125.17)scale(28.3317 55.3521)" gradientUnits="userSpaceOnUse"><stop stop-color="#010101" stop-opacity=".5"/><stop offset=".823" stop-color="#010101" stop-opacity="0"/></radialGradient><radialGradient id="z" cx="0" cy="0" r="1" gradientTransform="rotate(-159.54 10.515 12.972)scale(11.2463 19.2459)" gradientUnits="userSpaceOnUse"><stop stop-color="#010101"/><stop offset=".709" stop-color="#010101" stop-opacity="0"/></radialGradient><radialGradient id="A" cx="0" cy="0" r="1" gradientTransform="rotate(57.85 -4.436 35.805)scale(13.9196 9.3936)" gradientUnits="userSpaceOnUse"><stop stop-color="#fff" stop-opacity=".15"/><stop offset="1" stop-color="#fff" stop-opacity="0"/></radialGradient><linearGradient id="a" x1="50.245" x2="11.49" y1="26.025" y2="38.744" gradientUnits="userSpaceOnUse"><stop stop-color="#7B7B7B"/><stop offset="1" stop-color="#464646"/></linearGradient><linearGradient id="p" x1="58.541" x2="4.671" y1="33.64" y2="33.64" gradientUnits="userSpaceOnUse"><stop stop-color="#3E3E3E" stop-opacity="0"/><stop offset=".461" stop-color="#3E3E3E"/><stop offset="1" stop-color="#3E3E3E" stop-opacity="0"/></linearGradient><linearGradient id="r" x1="73.019" x2="49.113" y1="27.579" y2="43.066" gradientUnits="userSpaceOnUse"><stop stop-color="#fff" stop-opacity=".3"/><stop offset=".966" stop-color="#fff" stop-opacity="0"/></linearGradient><linearGradient id="s" x1="56.521" x2="43.727" y1="56.2" y2="49.803" gradientUnits="userSpaceOnUse"><stop stop-color="#fff" stop-opacity=".3"/><stop offset=".966" stop-color="#fff" stop-opacity="0"/></linearGradient><linearGradient id="y" x1="23.189" x2="36.995" y1="61.588" y2="49.467" gradientUnits="userSpaceOnUse"><stop stop-color="#010101"/><stop offset="1" stop-color="#010101" stop-opacity="0"/></linearGradient><linearGradient id="B" x1="18.812" x2="19.486" y1="10.406" y2="16.804" gradientUnits="userSpaceOnUse"><stop stop-opacity=".5"/><stop offset="1" stop-opacity="0"/></linearGradient></defs></svg>