<svg xmlns="http://www.w3.org/2000/svg" width="191" height="76" fill="none" viewBox="0 0 191 76"><path fill="#fff" d="M55.406 72.416h-1.42V59.483h1.724v4.884a3.59 3.59 0 0 1 3.123-1.562 3.73 3.73 0 0 1 3.128 1.446q.986 1.295.986 3.431 0 2.53-1.344 3.88a3.92 3.92 0 0 1-2.893 1.13 3.46 3.46 0 0 1-3.036-1.507zm5.745-4.78q0-1.758-.879-2.639a2.45 2.45 0 0 0-1.833-.723 2.53 2.53 0 0 0-2.082.954 3.72 3.72 0 0 0-.723 2.405q0 1.807.882 2.747a2.46 2.46 0 0 0 1.938.828 2.36 2.36 0 0 0 2.05-.987q.646-.91.647-2.585M72.18 63.077l-3.253 9.465q-.65 1.883-1.24 2.567a2.29 2.29 0 0 1-1.808.81 4.7 4.7 0 0 1-1.113-.163v-1.403q.44.12.896.127a1.04 1.04 0 0 0 .864-.387 7.1 7.1 0 0 0 .774-1.678h-.56l-3.427-9.338h1.865l2.643 7.936 2.639-7.936zM95.893 59.502H92.64v12.957h3.253zM122.26 63.215a5.66 5.66 0 0 0-2.747-.694c-2.115 0-3.583 1.471-3.583 3.456 0 1.927 1.406 3.46 3.583 3.46a5.7 5.7 0 0 0 2.747-.687v3.478c-.966.299-1.971.455-2.982.462-3.673 0-6.898-2.53-6.898-6.713 0-3.869 2.921-6.707 6.898-6.707a9.8 9.8 0 0 1 2.982.467zM88.114 63.215a5.7 5.7 0 0 0-2.748-.694c-2.119 0-3.583 1.471-3.583 3.456 0 1.927 1.403 3.46 3.583 3.46a5.7 5.7 0 0 0 2.748-.67v3.479c-.967.299-1.972.455-2.983.462-3.677 0-6.901-2.53-6.901-6.713 0-3.869 2.92-6.706 6.901-6.706a9.8 9.8 0 0 1 2.983.44zM132.548 62.571a3.41 3.41 0 1 0 3.384 3.406 3.34 3.34 0 0 0-2.078-3.156 3.3 3.3 0 0 0-1.306-.25m6.848 3.406c0 3.709-2.864 6.713-6.848 6.713s-6.836-3.004-6.836-6.713 2.856-6.707 6.844-6.707c3.987 0 6.847 3.008 6.847 6.707M108.294 62.445a11.3 11.3 0 0 0-2.556-.394c-1.309 0-2.024.437-2.024 1.063 0 .788.961 1.062 1.5 1.232l.904.286c2.122.676 3.087 2.13 3.087 3.71 0 3.253-2.863 4.337-5.365 4.337a19.7 19.7 0 0 1-3.528-.361v-2.983c1.004.291 2.042.453 3.087.481 1.627 0 2.375-.474 2.375-1.207 0-.658-.647-1.038-1.446-1.291-.199-.069-.495-.16-.697-.228-1.808-.575-3.341-1.645-3.341-3.789 0-2.425 1.808-4.052 4.83-4.052 1.074.015 2.143.153 3.185.412zM46.22 13.7h7.27L42.92 45.65h-8.34l-7.9-24.11-7.9 24.11h-8.21L0 13.7h7.44l7.5 24.28 7.87-24.28h7.9l8 24.41zM84.67 32.24H61.09a10.2 10.2 0 0 0 1.8 4.57 8.14 8.14 0 0 0 3.35 2.7c1.364.589 2.835.885 4.32.87a13.9 13.9 0 0 0 4.82-.88 15.7 15.7 0 0 0 4.42-2.49l3.47 5a17.6 17.6 0 0 1-6.06 3.45 22.9 22.9 0 0 1-7.08 1.05 16.93 16.93 0 0 1-8.47-2.08 14.75 14.75 0 0 1-5.79-5.9 18.13 18.13 0 0 1-2.08-8.82 18.55 18.55 0 0 1 2-8.76 14.74 14.74 0 0 1 5.62-5.93 15.93 15.93 0 0 1 8.27-2.12 14.23 14.23 0 0 1 13.19 8 19.15 19.15 0 0 1 1.92 8.74c.01.67-.03 1.54-.12 2.6m-7-5.3A9.88 9.88 0 0 0 75 21.1a7.43 7.43 0 0 0-5.44-2 7.82 7.82 0 0 0-5.72 2.12 10.15 10.15 0 0 0-2.75 5.75zM114.5 15.04a15.56 15.56 0 0 1 5.77 6 17.6 17.6 0 0 1 2.12 8.64 17.54 17.54 0 0 1-2.12 8.63 15.52 15.52 0 0 1-13.86 8.17 13.06 13.06 0 0 1-5.77-1.21 11.9 11.9 0 0 1-4.23-3.42v3.8h-7V.1h7v17.4a12 12 0 0 1 4.23-3.4 12.9 12.9 0 0 1 5.77-1.22 15.5 15.5 0 0 1 8.09 2.16m-3.82 23.51a9 9 0 0 0 3.37-3.71 12 12 0 0 0 0-10.33 9.06 9.06 0 0 0-3.37-3.71 10.19 10.19 0 0 0-10.12 0 9.1 9.1 0 0 0-3.4 3.67 11.06 11.06 0 0 0-1.22 5.24 11 11 0 0 0 1.22 5.23 9.1 9.1 0 0 0 3.4 3.67 10.19 10.19 0 0 0 10.12 0zM156.93 32.24h-23.57a10.16 10.16 0 0 0 1.8 4.57 8.14 8.14 0 0 0 3.35 2.7 10.6 10.6 0 0 0 4.32.87 14 14 0 0 0 4.82-.88 15.7 15.7 0 0 0 4.42-2.49l3.46 5a17.5 17.5 0 0 1-6.05 3.45 23 23 0 0 1-7.09 1.05 17 17 0 0 1-8.47-2.08 14.8 14.8 0 0 1-5.78-5.9 18.14 18.14 0 0 1-2.09-8.82 18.56 18.56 0 0 1 2-8.76 14.74 14.74 0 0 1 5.62-5.93 15.93 15.93 0 0 1 8.33-2.15 14.26 14.26 0 0 1 13.19 8 19.16 19.16 0 0 1 1.92 8.74c-.04.7-.11 1.57-.18 2.63m-7-5.3a9.94 9.94 0 0 0-2.68-5.8 7.45 7.45 0 0 0-5.42-2.04 7.8 7.8 0 0 0-5.72 2.12 10.1 10.1 0 0 0-2.75 5.75zM190.18 45.65h-8.57l-8.1-11.11-8 11.11h-8.17l12-16.31-11.81-15.64h8.58l7.8 10.67 7.8-10.67H190l-11.86 15.58z"/></svg>