<svg xmlns="http://www.w3.org/2000/svg" width="378" height="24" fill="none" viewBox="0 0 378 24"><path fill="#fff" d="M19.948 6.22h3.137l-4.562 13.789h-3.599l-3.41-10.406L8.105 20.01H4.562L0 6.219h3.211L6.448 16.7l3.396-10.48h3.41l3.452 10.536zM36.542 14.221H26.365a4.4 4.4 0 0 0 .777 1.973c.369.51.868.913 1.446 1.165a4.6 4.6 0 0 0 1.864.375 6 6 0 0 0 2.08-.38 6.8 6.8 0 0 0 1.908-1.074l1.498 2.158a7.6 7.6 0 0 1-2.616 1.489c-.988.31-2.02.463-3.055.453a7.3 7.3 0 0 1-3.656-.898 6.37 6.37 0 0 1-2.499-2.546 7.8 7.8 0 0 1-.897-3.807 8 8 0 0 1 .863-3.78 6.36 6.36 0 0 1 2.425-2.56 6.9 6.9 0 0 1 3.57-.915 6.14 6.14 0 0 1 5.692 3.453 8.26 8.26 0 0 1 .829 3.772q.006.436-.052 1.122m-3.021-2.287a4.26 4.26 0 0 0-1.153-2.52 3.2 3.2 0 0 0-2.347-.864 3.38 3.38 0 0 0-2.469.915 4.38 4.38 0 0 0-1.187 2.482zM49.416 6.798a6.7 6.7 0 0 1 2.49 2.59 7.6 7.6 0 0 1 .915 3.728 7.57 7.57 0 0 1-.915 3.725 6.7 6.7 0 0 1-5.981 3.526 5.6 5.6 0 0 1-2.49-.523 5.1 5.1 0 0 1-1.826-1.476v1.64h-3.021V.35h3.02v7.51a5.2 5.2 0 0 1 1.827-1.468 5.6 5.6 0 0 1 2.49-.526 6.7 6.7 0 0 1 3.491.932m-1.648 10.146a3.9 3.9 0 0 0 1.454-1.6 5.18 5.18 0 0 0 0-4.46 3.9 3.9 0 0 0-1.454-1.6 4.4 4.4 0 0 0-4.368 0c-.627.38-1.136.93-1.467 1.584a4.8 4.8 0 0 0-.527 2.261c-.014.785.167 1.56.527 2.257.331.655.84 1.203 1.467 1.584a4.4 4.4 0 0 0 4.368 0zM67.727 14.221H57.555a4.4 4.4 0 0 0 .777 1.973c.368.51.868.913 1.446 1.165a4.6 4.6 0 0 0 1.864.375 6 6 0 0 0 2.08-.38 6.8 6.8 0 0 0 1.908-1.074l1.493 2.158a7.5 7.5 0 0 1-2.611 1.489c-.99.31-2.023.463-3.06.453a7.34 7.34 0 0 1-3.655-.898 6.4 6.4 0 0 1-2.495-2.546 7.8 7.8 0 0 1-.902-3.807 8 8 0 0 1 .863-3.78 6.36 6.36 0 0 1 2.426-2.56 6.9 6.9 0 0 1 3.595-.927 6.15 6.15 0 0 1 5.692 3.452 8.3 8.3 0 0 1 .829 3.772c-.017.302-.048.678-.078 1.135m-3.02-2.287A4.3 4.3 0 0 0 63.55 9.43a3.22 3.22 0 0 0-2.34-.88 3.37 3.37 0 0 0-2.468.914 4.36 4.36 0 0 0-1.187 2.482zM82.077 20.009H78.38l-3.496-4.795-3.453 4.795h-3.526l5.18-7.04-5.098-6.75h3.703l3.367 4.606 3.366-4.605H82l-5.119 6.724zM96.362 18.661a4.2 4.2 0 0 0 2.8-1.01c.355-.311.644-.69.85-1.113a3.4 3.4 0 0 0 .354-1.386h2.023a5.1 5.1 0 0 1-.516 1.942 5.1 5.1 0 0 1-1.234 1.638 6 6 0 0 1-1.87 1.143 6.3 6.3 0 0 1-2.407.435 6.7 6.7 0 0 1-2.61-.486 5.3 5.3 0 0 1-2.021-1.385 6.1 6.1 0 0 1-1.275-2.255 9.5 9.5 0 0 1-.455-3.034 9.1 9.1 0 0 1 .486-3.094A6.2 6.2 0 0 1 91.822 7.8a5.7 5.7 0 0 1 2.022-1.375 7.1 7.1 0 0 1 2.609-.476 6.7 6.7 0 0 1 2.295.385c.658.228 1.271.57 1.81 1.01.505.416.921.928 1.224 1.508.292.56.471 1.17.526 1.8h-2.023a3.31 3.31 0 0 0-1.223-2.255 4.05 4.05 0 0 0-2.589-.86 4.6 4.6 0 0 0-1.82.344 3.74 3.74 0 0 0-1.416 1.011 4.8 4.8 0 0 0-.92 1.74 8.1 8.1 0 0 0-.334 2.446c-.01.804.099 1.605.324 2.377.18.629.483 1.217.89 1.729a3.7 3.7 0 0 0 1.426 1.112c.547.243 1.14.367 1.739.364M103.309 15.031a6.3 6.3 0 0 1 .415-2.336 4.5 4.5 0 0 1 1.011-1.648 4.2 4.2 0 0 1 1.557-1.011 5.7 5.7 0 0 1 1.911-.314c.654-.005 1.304.101 1.922.314.588.215 1.121.56 1.557 1.011a4.6 4.6 0 0 1 1.011 1.648c.268.75.399 1.54.384 2.336a6.6 6.6 0 0 1-.374 2.296 4.65 4.65 0 0 1-1.011 1.648 4.2 4.2 0 0 1-1.557 1.011 5.6 5.6 0 0 1-1.962.334 5.5 5.5 0 0 1-1.932-.334 4.3 4.3 0 0 1-1.567-1.011 4.6 4.6 0 0 1-1.011-1.648 6.3 6.3 0 0 1-.354-2.296m1.911 0a5.4 5.4 0 0 0 .233 1.638c.133.432.35.834.637 1.183.255.312.581.558.95.718.384.164.797.247 1.214.243a2.7 2.7 0 0 0 2.144-.96 4.18 4.18 0 0 0 .829-2.822 5.4 5.4 0 0 0-.233-1.648 3.5 3.5 0 0 0-.627-1.183 2.5 2.5 0 0 0-.95-.718 3 3 0 0 0-1.183-.223 3.1 3.1 0 0 0-1.194.233c-.367.163-.692.41-.95.718-.287.35-.504.751-.637 1.183a5.3 5.3 0 0 0-.233 1.638M114.675 20.016v-9.97h1.517l.212 1.264a3.7 3.7 0 0 1 3.034-1.547 3.48 3.48 0 0 1 2.578.95 3.86 3.86 0 0 1 .951 2.801v6.502h-1.841v-6.481a2.28 2.28 0 0 0-.546-1.668 2.2 2.2 0 0 0-1.587-.537c-.325 0-.647.059-.951.172a2.4 2.4 0 0 0-.789.506c-.228.225-.41.493-.536.788-.138.34-.207.705-.202 1.072v6.148zM129.428 20.118c-.445.12-.904.185-1.365.192a2.52 2.52 0 0 1-2.023-.758 2.93 2.93 0 0 1-.667-2.023v-5.945h-1.426v-1.537h1.477l.111-2.397h1.729v2.396h2.144v1.538h-2.144v5.966c0 .738.344 1.112 1.011 1.112q.238.015.475 0 .333-.046.658-.131zM130.853 20.016v-9.97h1.516l.243 1.476a2.71 2.71 0 0 1 2.538-1.76q.319-.024.637 0l.455.092v1.84a5 5 0 0 0-.556-.121 4 4 0 0 0-.617 0 2.3 2.3 0 0 0-.91.182 1.86 1.86 0 0 0-.758.596 2.9 2.9 0 0 0-.516 1.072 5.7 5.7 0 0 0-.192 1.598v5.006zM136.52 15.031a6.4 6.4 0 0 1 .394-2.336 4.65 4.65 0 0 1 1.011-1.648 4.36 4.36 0 0 1 1.568-1.011 6 6 0 0 1 3.822 0 4.2 4.2 0 0 1 1.568 1.011c.453.47.798 1.032 1.011 1.648.273.748.403 1.54.384 2.336.017.782-.11 1.56-.374 2.296a4.6 4.6 0 0 1-1.011 1.648 4.25 4.25 0 0 1-1.568 1.011 5.84 5.84 0 0 1-3.893 0 4.24 4.24 0 0 1-1.557-1.011 4.7 4.7 0 0 1-1.011-1.648 6.3 6.3 0 0 1-.344-2.296m1.921 0a5 5 0 0 0 .233 1.638c.134.43.347.831.627 1.183.273.32.62.566 1.011.718a3 3 0 0 0 1.213.243 2.7 2.7 0 0 0 2.073-.96c.605-.811.9-1.812.829-2.822a5.4 5.4 0 0 0-.232-1.648 3.3 3.3 0 0 0-.637-1.183 2.4 2.4 0 0 0-.951-.718 3 3 0 0 0-1.173-.223 3.1 3.1 0 0 0-1.193.233 2.7 2.7 0 0 0-1.011.718c-.28.352-.493.754-.627 1.183a5 5 0 0 0-.182 1.638zM149.279 20.016h-1.841V6.213h1.841zM167.348 6.213v13.803h-2.022v-6.148h-6.745v6.148h-1.962V6.213h1.962v5.997h6.826V6.213zM171.292 10.046v6.593a2.12 2.12 0 0 0 .556 1.628c.419.363.964.548 1.517.516.375.01.748-.063 1.092-.213.292-.134.551-.331.759-.576.204-.244.358-.526.455-.83.105-.326.156-.667.151-1.01v-6.068h1.841v9.97h-1.517l-.212-1.142a3.4 3.4 0 0 1-1.295 1.082 4.05 4.05 0 0 1-1.688.354 4.2 4.2 0 0 1-1.416-.233 2.95 2.95 0 0 1-1.102-.687 3.2 3.2 0 0 1-.718-1.173 4.9 4.9 0 0 1-.263-1.669v-6.542zM179.776 20.016V6.213h1.81v5.218c.347-.498.804-.91 1.335-1.203a4.05 4.05 0 0 1 2.023-.465 4.5 4.5 0 0 1 1.789.344 3.85 3.85 0 0 1 1.396 1.01c.402.482.705 1.04.89 1.639a7 7 0 0 1 .313 2.214 7.2 7.2 0 0 1-.333 2.296 4.6 4.6 0 0 1-.941 1.668 4.05 4.05 0 0 1-1.436 1.011 4.7 4.7 0 0 1-1.81.354 3.9 3.9 0 0 1-1.951-.455 3.95 3.95 0 0 1-1.275-1.183l-.283 1.315zm7.655-5.056a5.4 5.4 0 0 0-.222-1.597 3.2 3.2 0 0 0-.617-1.113c-.259-.3-.59-.529-.961-.667a3 3 0 0 0-1.142-.213c-.4 0-.795.08-1.163.233a2.7 2.7 0 0 0-.951.668 3 3 0 0 0-.657 1.122 4.7 4.7 0 0 0-.243 1.567 4.36 4.36 0 0 0 .829 2.822 2.7 2.7 0 0 0 2.185 1.01 2.64 2.64 0 0 0 2.103-.92c.628-.85.926-1.899.839-2.952z"/></svg>