<svg xmlns="http://www.w3.org/2000/svg" width="32" height="32" viewBox="0 0 32 32"><path d="M29.515 18.817a4.39 4.39 0 0 0-3.19-4.014 2.75 2.75 0 1 0-3.62 0c-.677.224-1.3.587-1.83 1.065a9 9 0 0 0-2.485-1.062 4.5 4.5 0 1 0-4.75 0 9 9 0 0 0-2.506 1.076 5.1 5.1 0 0 0-1.838-1.076 2.75 2.75 0 1 0-3.62 0 4.39 4.39 0 0 0-3.19 4.014c0 .509.305 1.21 1.757 1.664 1.055.295 2.147.436 3.243.418l.141-.002a7 7 0 0 0-.112 1.171c0 .797.494 1.907 2.845 2.672 1.837.535 3.743.79 5.656.757 4.23 0 8.5-1.06 8.5-3.429a7 7 0 0 0-.114-1.176q.056.001.113.003c2.417 0 5-.547 5-2.08m-5-7.818a1.75 1.75 0 1 1 0 3.501 1.75 1.75 0 0 1 0-3.501m-12 0a3.5 3.5 0 1 1 7.001 0 3.5 3.5 0 0 1-7 0m-5.03.003a1.75 1.75 0 1 1 0 3.501 1.75 1.75 0 0 1 0-3.501m.393 8.888c-.131.003-.255.012-.392.012-2.478 0-4-.63-4-1.082 0-1.83 1.794-3.318 4-3.318a4.43 4.43 0 0 1 2.826.972 7.53 7.53 0 0 0-2.434 3.416m8.138 4.61c-4.206 0-7.5-1.067-7.5-2.429 0-3.623 3.363-6.571 7.5-6.571 4.135 0 7.5 2.948 7.5 6.571 0 1.362-3.295 2.429-7.5 2.429m5.687-8.04a4.43 4.43 0 0 1 2.812-.961c2.206 0 4 1.488 4 3.318 0 .451-1.522 1.081-4 1.081-.128 0-.241-.008-.364-.011a7.54 7.54 0 0 0-2.448-3.426"/></svg>