<svg xmlns="http://www.w3.org/2000/svg" width="32" height="32" viewBox="0 0 32 32"><path d="m27.766 16.008-4.799-8.084A8.012 8.012 0 0 0 15.997 4a8.02 8.02 0 0 0-6.974 3.923l-4.798 8.085a7.574 7.574 0 0 0-.478 7.387c1.257 2.476 3.936 4.088 7.355 4.419 1.658.158 3.324.22 4.99.186a44.541 44.541 0 0 0 4.801-.186c3.438-.346 6.124-1.96 7.37-4.428a7.58 7.58 0 0 0-.497-7.378Zm-1.288 6.476c-.931 1.847-3.04 3.064-5.784 3.34-1.532.143-3.07.202-4.608.176h-.059a44.71 44.71 0 0 1-4.732-.177c-2.723-.264-4.824-1.48-5.764-3.333a5.613 5.613 0 0 1 .415-5.46l4.798-8.086a6.155 6.155 0 0 1 10.503 0l4.799 8.085a5.622 5.622 0 0 1 .432 5.455Z"/><path d="M16.003 11a6 6 0 1 0 6 6 6.006 6.006 0 0 0-6-6Zm0 10a4 4 0 1 1 0-8 4 4 0 0 1 0 8Z"/></svg>