<svg xmlns="http://www.w3.org/2000/svg" width="239" height="68" fill="none" viewBox="0 0 239 68"><path fill="url(#a)" d="M14.51 34.877a35.3 35.3 0 0 0 2.648 6.721c.507.948 1.014 1.896 1.934 2.494q.241.153.52.214c1.355.294 2.098-.815 2.577-1.83a30.6 30.6 0 0 0 1.725-4.935q.125-.474.246-.948c.155-.604.31-1.213.445-1.823l5.982-16.242a13.4 13.4 0 0 1 4.704-3.987 13.15 13.15 0 0 1 5.963-1.426c2.98-.019 5.877.995 8.214 2.875 3.911 3.008 6.24 8.933 6.24 8.933a6.07 6.07 0 0 1 .062 4.732 6 6 0 0 1-1.275 1.93 5.9 5.9 0 0 1-1.905 1.289 5.78 5.78 0 0 1-4.722-.114 5.85 5.85 0 0 1-2.01-1.577l-.055-.07a8 8 0 0 1-.933-1.668 23 23 0 0 0-1.082-2.174 14 14 0 0 0-.69-1.049 4.3 4.3 0 0 0-.737-.822c-.55-.451-1.244-.631-1.89-.243a1 1 0 0 0-.09.06c-.666.465-1.133 1.403-1.456 2.124-.933 2.041-1.467 4.133-1.996 6.282q-.151.62-.292 1.245l-2.472 8.215-3.485 7.812a13.5 13.5 0 0 1-4.67 3.882 13.3 13.3 0 0 1-5.87 1.42c-8.466.183-12.483-7.584-12.483-7.584C2.834 40.575 1.414 29.97 1.075 26.58 1.003 25.875 1 25.454 1 25.454c0-1.062.285-2.104.824-3.013a5.8 5.8 0 0 1 2.239-2.147 6.2 6.2 0 0 1 3.09-.686 5.8 5.8 0 0 1 2.817.87c.661.402 1.233.94 1.679 1.58.796 1.15.976 2.581 1.135 3.95.329 3 .906 5.967 1.725 8.87"/><path fill="url(#b)" d="M14.51 34.877a35.3 35.3 0 0 0 2.648 6.721c.507.948 1.014 1.896 1.934 2.494q.241.153.52.214c1.355.294 2.098-.815 2.577-1.83a30.6 30.6 0 0 0 1.725-4.935q.125-.474.246-.948c.155-.604.31-1.213.445-1.823l5.982-16.242a13.4 13.4 0 0 1 4.704-3.987 13.15 13.15 0 0 1 5.963-1.426c2.98-.019 5.877.995 8.214 2.875 3.911 3.008 6.24 8.933 6.24 8.933a6.07 6.07 0 0 1 .062 4.732 6 6 0 0 1-1.275 1.93 5.9 5.9 0 0 1-1.905 1.289 5.78 5.78 0 0 1-4.722-.114 5.85 5.85 0 0 1-2.01-1.577l-.055-.07a8 8 0 0 1-.933-1.668 23 23 0 0 0-1.082-2.174 14 14 0 0 0-.69-1.049 4.3 4.3 0 0 0-.737-.822c-.55-.451-1.244-.631-1.89-.243a1 1 0 0 0-.09.06c-.666.465-1.133 1.403-1.456 2.124-.933 2.041-1.467 4.133-1.996 6.282q-.151.62-.292 1.245l-2.472 8.215-3.485 7.812a13.5 13.5 0 0 1-4.67 3.882 13.3 13.3 0 0 1-5.87 1.42c-8.466.183-12.483-7.584-12.483-7.584C2.834 40.575 1.414 29.97 1.075 26.58 1.003 25.875 1 25.454 1 25.454c0-1.062.285-2.104.824-3.013a5.8 5.8 0 0 1 2.239-2.147 6.2 6.2 0 0 1 3.09-.686 5.8 5.8 0 0 1 2.817.87c.661.402 1.233.94 1.679 1.58.796 1.15.976 2.581 1.135 3.95.329 3 .906 5.967 1.725 8.87"/><path fill="url(#c)" d="M14.51 34.877a35.3 35.3 0 0 0 2.648 6.721c.507.948 1.014 1.896 1.934 2.494q.241.153.52.214c1.355.294 2.098-.815 2.577-1.83a30.6 30.6 0 0 0 1.725-4.935q.125-.474.246-.948c.155-.604.31-1.213.445-1.823l5.982-16.242a13.4 13.4 0 0 1 4.704-3.987 13.15 13.15 0 0 1 5.963-1.426c2.98-.019 5.877.995 8.214 2.875 3.911 3.008 6.24 8.933 6.24 8.933a6.07 6.07 0 0 1 .062 4.732 6 6 0 0 1-1.275 1.93 5.9 5.9 0 0 1-1.905 1.289 5.78 5.78 0 0 1-4.722-.114 5.85 5.85 0 0 1-2.01-1.577l-.055-.07a8 8 0 0 1-.933-1.668 23 23 0 0 0-1.082-2.174 14 14 0 0 0-.69-1.049 4.3 4.3 0 0 0-.737-.822c-.55-.451-1.244-.631-1.89-.243a1 1 0 0 0-.09.06c-.666.465-1.133 1.403-1.456 2.124-.933 2.041-1.467 4.133-1.996 6.282q-.151.62-.292 1.245l-2.472 8.215-3.485 7.812a13.5 13.5 0 0 1-4.67 3.882 13.3 13.3 0 0 1-5.87 1.42c-8.466.183-12.483-7.584-12.483-7.584C2.834 40.575 1.414 29.97 1.075 26.58 1.003 25.875 1 25.454 1 25.454c0-1.062.285-2.104.824-3.013a5.8 5.8 0 0 1 2.239-2.147 6.2 6.2 0 0 1 3.09-.686 5.8 5.8 0 0 1 2.817.87c.661.402 1.233.94 1.679 1.58.796 1.15.976 2.581 1.135 3.95.329 3 .906 5.967 1.725 8.87"/><path fill="url(#d)" d="M14.51 34.877a35.3 35.3 0 0 0 2.648 6.721c.507.948 1.014 1.896 1.934 2.494q.241.153.52.214c1.355.294 2.098-.815 2.577-1.83a30.6 30.6 0 0 0 1.725-4.935q.125-.474.246-.948c.155-.604.31-1.213.445-1.823l5.982-16.242a13.4 13.4 0 0 1 4.704-3.987 13.15 13.15 0 0 1 5.963-1.426c2.98-.019 5.877.995 8.214 2.875 3.911 3.008 6.24 8.933 6.24 8.933a6.07 6.07 0 0 1 .062 4.732 6 6 0 0 1-1.275 1.93 5.9 5.9 0 0 1-1.905 1.289 5.78 5.78 0 0 1-4.722-.114 5.85 5.85 0 0 1-2.01-1.577l-.055-.07a8 8 0 0 1-.933-1.668 23 23 0 0 0-1.082-2.174 14 14 0 0 0-.69-1.049 4.3 4.3 0 0 0-.737-.822c-.55-.451-1.244-.631-1.89-.243a1 1 0 0 0-.09.06c-.666.465-1.133 1.403-1.456 2.124-.933 2.041-1.467 4.133-1.996 6.282q-.151.62-.292 1.245l-2.472 8.215-3.485 7.812a13.5 13.5 0 0 1-4.67 3.882 13.3 13.3 0 0 1-5.87 1.42c-8.466.183-12.483-7.584-12.483-7.584C2.834 40.575 1.414 29.97 1.075 26.58 1.003 25.875 1 25.454 1 25.454c0-1.062.285-2.104.824-3.013a5.8 5.8 0 0 1 2.239-2.147 6.2 6.2 0 0 1 3.09-.686 5.8 5.8 0 0 1 2.817.87c.661.402 1.233.94 1.679 1.58.796 1.15.976 2.581 1.135 3.95.329 3 .906 5.967 1.725 8.87"/><path fill="url(#e)" d="M14.51 34.877a35.3 35.3 0 0 0 2.648 6.721c.507.948 1.014 1.896 1.934 2.494q.241.153.52.214c1.355.294 2.098-.815 2.577-1.83a30.6 30.6 0 0 0 1.725-4.935q.125-.474.246-.948c.155-.604.31-1.213.445-1.823l5.982-16.242a13.4 13.4 0 0 1 4.704-3.987 13.15 13.15 0 0 1 5.963-1.426c2.98-.019 5.877.995 8.214 2.875 3.911 3.008 6.24 8.933 6.24 8.933a6.07 6.07 0 0 1 .062 4.732 6 6 0 0 1-1.275 1.93 5.9 5.9 0 0 1-1.905 1.289 5.78 5.78 0 0 1-4.722-.114 5.85 5.85 0 0 1-2.01-1.577l-.055-.07a8 8 0 0 1-.933-1.668 23 23 0 0 0-1.082-2.174 14 14 0 0 0-.69-1.049 4.3 4.3 0 0 0-.737-.822c-.55-.451-1.244-.631-1.89-.243a1 1 0 0 0-.09.06c-.666.465-1.133 1.403-1.456 2.124-.933 2.041-1.467 4.133-1.996 6.282q-.151.62-.292 1.245l-2.472 8.215-3.485 7.812a13.5 13.5 0 0 1-4.67 3.882 13.3 13.3 0 0 1-5.87 1.42c-8.466.183-12.483-7.584-12.483-7.584C2.834 40.575 1.414 29.97 1.075 26.58 1.003 25.875 1 25.454 1 25.454c0-1.062.285-2.104.824-3.013a5.8 5.8 0 0 1 2.239-2.147 6.2 6.2 0 0 1 3.09-.686 5.8 5.8 0 0 1 2.817.87c.661.402 1.233.94 1.679 1.58.796 1.15.976 2.581 1.135 3.95.329 3 .906 5.967 1.725 8.87"/><path fill="url(#f)" d="M14.51 34.877a35.3 35.3 0 0 0 2.648 6.721c.507.948 1.014 1.896 1.934 2.494q.241.153.52.214c1.355.294 2.098-.815 2.577-1.83a30.6 30.6 0 0 0 1.725-4.935q.125-.474.246-.948c.155-.604.31-1.213.445-1.823l5.982-16.242a13.4 13.4 0 0 1 4.704-3.987 13.15 13.15 0 0 1 5.963-1.426c2.98-.019 5.877.995 8.214 2.875 3.911 3.008 6.24 8.933 6.24 8.933a6.07 6.07 0 0 1 .062 4.732 6 6 0 0 1-1.275 1.93 5.9 5.9 0 0 1-1.905 1.289 5.78 5.78 0 0 1-4.722-.114 5.85 5.85 0 0 1-2.01-1.577l-.055-.07a8 8 0 0 1-.933-1.668 23 23 0 0 0-1.082-2.174 14 14 0 0 0-.69-1.049 4.3 4.3 0 0 0-.737-.822c-.55-.451-1.244-.631-1.89-.243a1 1 0 0 0-.09.06c-.666.465-1.133 1.403-1.456 2.124-.933 2.041-1.467 4.133-1.996 6.282q-.151.62-.292 1.245l-2.472 8.215-3.485 7.812a13.5 13.5 0 0 1-4.67 3.882 13.3 13.3 0 0 1-5.87 1.42c-8.466.183-12.483-7.584-12.483-7.584C2.834 40.575 1.414 29.97 1.075 26.58 1.003 25.875 1 25.454 1 25.454c0-1.062.285-2.104.824-3.013a5.8 5.8 0 0 1 2.239-2.147 6.2 6.2 0 0 1 3.09-.686 5.8 5.8 0 0 1 2.817.87c.661.402 1.233.94 1.679 1.58.796 1.15.976 2.581 1.135 3.95.329 3 .906 5.967 1.725 8.87"/><path fill="url(#g)" d="M14.51 34.877a35.3 35.3 0 0 0 2.648 6.721c.507.948 1.014 1.896 1.934 2.494q.241.153.52.214c1.355.294 2.098-.815 2.577-1.83a30.6 30.6 0 0 0 1.725-4.935q.125-.474.246-.948c.155-.604.31-1.213.445-1.823l5.982-16.242a13.4 13.4 0 0 1 4.704-3.987 13.15 13.15 0 0 1 5.963-1.426c2.98-.019 5.877.995 8.214 2.875 3.911 3.008 6.24 8.933 6.24 8.933a6.07 6.07 0 0 1 .062 4.732 6 6 0 0 1-1.275 1.93 5.9 5.9 0 0 1-1.905 1.289 5.78 5.78 0 0 1-4.722-.114 5.85 5.85 0 0 1-2.01-1.577l-.055-.07a8 8 0 0 1-.933-1.668 23 23 0 0 0-1.082-2.174 14 14 0 0 0-.69-1.049 4.3 4.3 0 0 0-.737-.822c-.55-.451-1.244-.631-1.89-.243a1 1 0 0 0-.09.06c-.666.465-1.133 1.403-1.456 2.124-.933 2.041-1.467 4.133-1.996 6.282q-.151.62-.292 1.245l-2.472 8.215-3.485 7.812a13.5 13.5 0 0 1-4.67 3.882 13.3 13.3 0 0 1-5.87 1.42c-8.466.183-12.483-7.584-12.483-7.584C2.834 40.575 1.414 29.97 1.075 26.58 1.003 25.875 1 25.454 1 25.454c0-1.062.285-2.104.824-3.013a5.8 5.8 0 0 1 2.239-2.147 6.2 6.2 0 0 1 3.09-.686 5.8 5.8 0 0 1 2.817.87c.661.402 1.233.94 1.679 1.58.796 1.15.976 2.581 1.135 3.95.329 3 .906 5.967 1.725 8.87"/><path fill="url(#h)" d="M14.51 34.877a35.3 35.3 0 0 0 2.648 6.721c.507.948 1.014 1.896 1.934 2.494q.241.153.52.214c1.355.294 2.098-.815 2.577-1.83a30.6 30.6 0 0 0 1.725-4.935q.125-.474.246-.948c.155-.604.31-1.213.445-1.823l5.982-16.242a13.4 13.4 0 0 1 4.704-3.987 13.15 13.15 0 0 1 5.963-1.426c2.98-.019 5.877.995 8.214 2.875 3.911 3.008 6.24 8.933 6.24 8.933a6.07 6.07 0 0 1 .062 4.732 6 6 0 0 1-1.275 1.93 5.9 5.9 0 0 1-1.905 1.289 5.78 5.78 0 0 1-4.722-.114 5.85 5.85 0 0 1-2.01-1.577l-.055-.07a8 8 0 0 1-.933-1.668 23 23 0 0 0-1.082-2.174 14 14 0 0 0-.69-1.049 4.3 4.3 0 0 0-.737-.822c-.55-.451-1.244-.631-1.89-.243a1 1 0 0 0-.09.06c-.666.465-1.133 1.403-1.456 2.124-.933 2.041-1.467 4.133-1.996 6.282q-.151.62-.292 1.245l-2.472 8.215-3.485 7.812a13.5 13.5 0 0 1-4.67 3.882 13.3 13.3 0 0 1-5.87 1.42c-8.466.183-12.483-7.584-12.483-7.584C2.834 40.575 1.414 29.97 1.075 26.58 1.003 25.875 1 25.454 1 25.454c0-1.062.285-2.104.824-3.013a5.8 5.8 0 0 1 2.239-2.147 6.2 6.2 0 0 1 3.09-.686 5.8 5.8 0 0 1 2.817.87c.661.402 1.233.94 1.679 1.58.796 1.15.976 2.581 1.135 3.95.329 3 .906 5.967 1.725 8.87"/><path fill="url(#i)" d="M14.51 34.877a35.3 35.3 0 0 0 2.648 6.721c.507.948 1.014 1.896 1.934 2.494q.241.153.52.214c1.355.294 2.098-.815 2.577-1.83a30.6 30.6 0 0 0 1.725-4.935q.125-.474.246-.948c.155-.604.31-1.213.445-1.823l5.982-16.242a13.4 13.4 0 0 1 4.704-3.987 13.15 13.15 0 0 1 5.963-1.426c2.98-.019 5.877.995 8.214 2.875 3.911 3.008 6.24 8.933 6.24 8.933a6.07 6.07 0 0 1 .062 4.732 6 6 0 0 1-1.275 1.93 5.9 5.9 0 0 1-1.905 1.289 5.78 5.78 0 0 1-4.722-.114 5.85 5.85 0 0 1-2.01-1.577l-.055-.07a8 8 0 0 1-.933-1.668 23 23 0 0 0-1.082-2.174 14 14 0 0 0-.69-1.049 4.3 4.3 0 0 0-.737-.822c-.55-.451-1.244-.631-1.89-.243a1 1 0 0 0-.09.06c-.666.465-1.133 1.403-1.456 2.124-.933 2.041-1.467 4.133-1.996 6.282q-.151.62-.292 1.245l-2.472 8.215-3.485 7.812a13.5 13.5 0 0 1-4.67 3.882 13.3 13.3 0 0 1-5.87 1.42c-8.466.183-12.483-7.584-12.483-7.584C2.834 40.575 1.414 29.97 1.075 26.58 1.003 25.875 1 25.454 1 25.454c0-1.062.285-2.104.824-3.013a5.8 5.8 0 0 1 2.239-2.147 6.2 6.2 0 0 1 3.09-.686 5.8 5.8 0 0 1 2.817.87c.661.402 1.233.94 1.679 1.58.796 1.15.976 2.581 1.135 3.95.329 3 .906 5.967 1.725 8.87"/><path fill="url(#j)" d="M14.51 34.877a35.3 35.3 0 0 0 2.648 6.721c.507.948 1.014 1.896 1.934 2.494q.241.153.52.214c1.355.294 2.098-.815 2.577-1.83a30.6 30.6 0 0 0 1.725-4.935q.125-.474.246-.948c.155-.604.31-1.213.445-1.823l5.982-16.242a13.4 13.4 0 0 1 4.704-3.987 13.15 13.15 0 0 1 5.963-1.426c2.98-.019 5.877.995 8.214 2.875 3.911 3.008 6.24 8.933 6.24 8.933a6.07 6.07 0 0 1 .062 4.732 6 6 0 0 1-1.275 1.93 5.9 5.9 0 0 1-1.905 1.289 5.78 5.78 0 0 1-4.722-.114 5.85 5.85 0 0 1-2.01-1.577l-.055-.07a8 8 0 0 1-.933-1.668 23 23 0 0 0-1.082-2.174 14 14 0 0 0-.69-1.049 4.3 4.3 0 0 0-.737-.822c-.55-.451-1.244-.631-1.89-.243a1 1 0 0 0-.09.06c-.666.465-1.133 1.403-1.456 2.124-.933 2.041-1.467 4.133-1.996 6.282q-.151.62-.292 1.245l-2.472 8.215-3.485 7.812a13.5 13.5 0 0 1-4.67 3.882 13.3 13.3 0 0 1-5.87 1.42c-8.466.183-12.483-7.584-12.483-7.584C2.834 40.575 1.414 29.97 1.075 26.58 1.003 25.875 1 25.454 1 25.454c0-1.062.285-2.104.824-3.013a5.8 5.8 0 0 1 2.239-2.147 6.2 6.2 0 0 1 3.09-.686 5.8 5.8 0 0 1 2.817.87c.661.402 1.233.94 1.679 1.58.796 1.15.976 2.581 1.135 3.95.329 3 .906 5.967 1.725 8.87"/><path fill="url(#k)" d="M14.51 34.877a35.3 35.3 0 0 0 2.648 6.721c.507.948 1.014 1.896 1.934 2.494q.241.153.52.214c1.355.294 2.098-.815 2.577-1.83a30.6 30.6 0 0 0 1.725-4.935q.125-.474.246-.948c.155-.604.31-1.213.445-1.823l5.982-16.242a13.4 13.4 0 0 1 4.704-3.987 13.15 13.15 0 0 1 5.963-1.426c2.98-.019 5.877.995 8.214 2.875 3.911 3.008 6.24 8.933 6.24 8.933a6.07 6.07 0 0 1 .062 4.732 6 6 0 0 1-1.275 1.93 5.9 5.9 0 0 1-1.905 1.289 5.78 5.78 0 0 1-4.722-.114 5.85 5.85 0 0 1-2.01-1.577l-.055-.07a8 8 0 0 1-.933-1.668 23 23 0 0 0-1.082-2.174 14 14 0 0 0-.69-1.049 4.3 4.3 0 0 0-.737-.822c-.55-.451-1.244-.631-1.89-.243a1 1 0 0 0-.09.06c-.666.465-1.133 1.403-1.456 2.124-.933 2.041-1.467 4.133-1.996 6.282q-.151.62-.292 1.245l-2.472 8.215-3.485 7.812a13.5 13.5 0 0 1-4.67 3.882 13.3 13.3 0 0 1-5.87 1.42c-8.466.183-12.483-7.584-12.483-7.584C2.834 40.575 1.414 29.97 1.075 26.58 1.003 25.875 1 25.454 1 25.454c0-1.062.285-2.104.824-3.013a5.8 5.8 0 0 1 2.239-2.147 6.2 6.2 0 0 1 3.09-.686 5.8 5.8 0 0 1 2.817.87c.661.402 1.233.94 1.679 1.58.796 1.15.976 2.581 1.135 3.95.329 3 .906 5.967 1.725 8.87"/><path fill="url(#l)" d="M14.51 34.877a35.3 35.3 0 0 0 2.648 6.721c.507.948 1.014 1.896 1.934 2.494q.241.153.52.214c1.355.294 2.098-.815 2.577-1.83a30.6 30.6 0 0 0 1.725-4.935q.125-.474.246-.948c.155-.604.31-1.213.445-1.823l5.982-16.242a13.4 13.4 0 0 1 4.704-3.987 13.15 13.15 0 0 1 5.963-1.426c2.98-.019 5.877.995 8.214 2.875 3.911 3.008 6.24 8.933 6.24 8.933a6.07 6.07 0 0 1 .062 4.732 6 6 0 0 1-1.275 1.93 5.9 5.9 0 0 1-1.905 1.289 5.78 5.78 0 0 1-4.722-.114 5.85 5.85 0 0 1-2.01-1.577l-.055-.07a8 8 0 0 1-.933-1.668 23 23 0 0 0-1.082-2.174 14 14 0 0 0-.69-1.049 4.3 4.3 0 0 0-.737-.822c-.55-.451-1.244-.631-1.89-.243a1 1 0 0 0-.09.06c-.666.465-1.133 1.403-1.456 2.124-.933 2.041-1.467 4.133-1.996 6.282q-.151.62-.292 1.245l-2.472 8.215-3.485 7.812a13.5 13.5 0 0 1-4.67 3.882 13.3 13.3 0 0 1-5.87 1.42c-8.466.183-12.483-7.584-12.483-7.584C2.834 40.575 1.414 29.97 1.075 26.58 1.003 25.875 1 25.454 1 25.454c0-1.062.285-2.104.824-3.013a5.8 5.8 0 0 1 2.239-2.147 6.2 6.2 0 0 1 3.09-.686 5.8 5.8 0 0 1 2.817.87c.661.402 1.233.94 1.679 1.58.796 1.15.976 2.581 1.135 3.95.329 3 .906 5.967 1.725 8.87"/><path fill="url(#m)" d="M14.51 34.877a35.3 35.3 0 0 0 2.648 6.721c.507.948 1.014 1.896 1.934 2.494q.241.153.52.214c1.355.294 2.098-.815 2.577-1.83a30.6 30.6 0 0 0 1.725-4.935q.125-.474.246-.948c.155-.604.31-1.213.445-1.823l5.982-16.242a13.4 13.4 0 0 1 4.704-3.987 13.15 13.15 0 0 1 5.963-1.426c2.98-.019 5.877.995 8.214 2.875 3.911 3.008 6.24 8.933 6.24 8.933a6.07 6.07 0 0 1 .062 4.732 6 6 0 0 1-1.275 1.93 5.9 5.9 0 0 1-1.905 1.289 5.78 5.78 0 0 1-4.722-.114 5.85 5.85 0 0 1-2.01-1.577l-.055-.07a8 8 0 0 1-.933-1.668 23 23 0 0 0-1.082-2.174 14 14 0 0 0-.69-1.049 4.3 4.3 0 0 0-.737-.822c-.55-.451-1.244-.631-1.89-.243a1 1 0 0 0-.09.06c-.666.465-1.133 1.403-1.456 2.124-.933 2.041-1.467 4.133-1.996 6.282q-.151.62-.292 1.245l-2.472 8.215-3.485 7.812a13.5 13.5 0 0 1-4.67 3.882 13.3 13.3 0 0 1-5.87 1.42c-8.466.183-12.483-7.584-12.483-7.584C2.834 40.575 1.414 29.97 1.075 26.58 1.003 25.875 1 25.454 1 25.454c0-1.062.285-2.104.824-3.013a5.8 5.8 0 0 1 2.239-2.147 6.2 6.2 0 0 1 3.09-.686 5.8 5.8 0 0 1 2.817.87c.661.402 1.233.94 1.679 1.58.796 1.15.976 2.581 1.135 3.95.329 3 .906 5.967 1.725 8.87"/><path fill="url(#n)" d="M14.51 34.877a35.3 35.3 0 0 0 2.648 6.721c.507.948 1.014 1.896 1.934 2.494q.241.153.52.214c1.355.294 2.098-.815 2.577-1.83a30.6 30.6 0 0 0 1.725-4.935q.125-.474.246-.948c.155-.604.31-1.213.445-1.823l5.982-16.242a13.4 13.4 0 0 1 4.704-3.987 13.15 13.15 0 0 1 5.963-1.426c2.98-.019 5.877.995 8.214 2.875 3.911 3.008 6.24 8.933 6.24 8.933a6.07 6.07 0 0 1 .062 4.732 6 6 0 0 1-1.275 1.93 5.9 5.9 0 0 1-1.905 1.289 5.78 5.78 0 0 1-4.722-.114 5.85 5.85 0 0 1-2.01-1.577l-.055-.07a8 8 0 0 1-.933-1.668 23 23 0 0 0-1.082-2.174 14 14 0 0 0-.69-1.049 4.3 4.3 0 0 0-.737-.822c-.55-.451-1.244-.631-1.89-.243a1 1 0 0 0-.09.06c-.666.465-1.133 1.403-1.456 2.124-.933 2.041-1.467 4.133-1.996 6.282q-.151.62-.292 1.245l-2.472 8.215-3.485 7.812a13.5 13.5 0 0 1-4.67 3.882 13.3 13.3 0 0 1-5.87 1.42c-8.466.183-12.483-7.584-12.483-7.584C2.834 40.575 1.414 29.97 1.075 26.58 1.003 25.875 1 25.454 1 25.454c0-1.062.285-2.104.824-3.013a5.8 5.8 0 0 1 2.239-2.147 6.2 6.2 0 0 1 3.09-.686 5.8 5.8 0 0 1 2.817.87c.661.402 1.233.94 1.679 1.58.796 1.15.976 2.581 1.135 3.95.329 3 .906 5.967 1.725 8.87"/><path fill="url(#o)" d="M14.51 34.877a35.3 35.3 0 0 0 2.648 6.721c.507.948 1.014 1.896 1.934 2.494q.241.153.52.214c1.355.294 2.098-.815 2.577-1.83a30.6 30.6 0 0 0 1.725-4.935q.125-.474.246-.948c.155-.604.31-1.213.445-1.823l5.982-16.242a13.4 13.4 0 0 1 4.704-3.987 13.15 13.15 0 0 1 5.963-1.426c2.98-.019 5.877.995 8.214 2.875 3.911 3.008 6.24 8.933 6.24 8.933a6.07 6.07 0 0 1 .062 4.732 6 6 0 0 1-1.275 1.93 5.9 5.9 0 0 1-1.905 1.289 5.78 5.78 0 0 1-4.722-.114 5.85 5.85 0 0 1-2.01-1.577l-.055-.07a8 8 0 0 1-.933-1.668 23 23 0 0 0-1.082-2.174 14 14 0 0 0-.69-1.049 4.3 4.3 0 0 0-.737-.822c-.55-.451-1.244-.631-1.89-.243a1 1 0 0 0-.09.06c-.666.465-1.133 1.403-1.456 2.124-.933 2.041-1.467 4.133-1.996 6.282q-.151.62-.292 1.245l-2.472 8.215-3.485 7.812a13.5 13.5 0 0 1-4.67 3.882 13.3 13.3 0 0 1-5.87 1.42c-8.466.183-12.483-7.584-12.483-7.584C2.834 40.575 1.414 29.97 1.075 26.58 1.003 25.875 1 25.454 1 25.454c0-1.062.285-2.104.824-3.013a5.8 5.8 0 0 1 2.239-2.147 6.2 6.2 0 0 1 3.09-.686 5.8 5.8 0 0 1 2.817.87c.661.402 1.233.94 1.679 1.58.796 1.15.976 2.581 1.135 3.95.329 3 .906 5.967 1.725 8.87"/><path fill="url(#p)" d="M14.51 34.877a35.3 35.3 0 0 0 2.648 6.721c.507.948 1.014 1.896 1.934 2.494q.241.153.52.214c1.355.294 2.098-.815 2.577-1.83a30.6 30.6 0 0 0 1.725-4.935q.125-.474.246-.948c.155-.604.31-1.213.445-1.823l5.982-16.242a13.4 13.4 0 0 1 4.704-3.987 13.15 13.15 0 0 1 5.963-1.426c2.98-.019 5.877.995 8.214 2.875 3.911 3.008 6.24 8.933 6.24 8.933a6.07 6.07 0 0 1 .062 4.732 6 6 0 0 1-1.275 1.93 5.9 5.9 0 0 1-1.905 1.289 5.78 5.78 0 0 1-4.722-.114 5.85 5.85 0 0 1-2.01-1.577l-.055-.07a8 8 0 0 1-.933-1.668 23 23 0 0 0-1.082-2.174 14 14 0 0 0-.69-1.049 4.3 4.3 0 0 0-.737-.822c-.55-.451-1.244-.631-1.89-.243a1 1 0 0 0-.09.06c-.666.465-1.133 1.403-1.456 2.124-.933 2.041-1.467 4.133-1.996 6.282q-.151.62-.292 1.245l-2.472 8.215-3.485 7.812a13.5 13.5 0 0 1-4.67 3.882 13.3 13.3 0 0 1-5.87 1.42c-8.466.183-12.483-7.584-12.483-7.584C2.834 40.575 1.414 29.97 1.075 26.58 1.003 25.875 1 25.454 1 25.454c0-1.062.285-2.104.824-3.013a5.8 5.8 0 0 1 2.239-2.147 6.2 6.2 0 0 1 3.09-.686 5.8 5.8 0 0 1 2.817.87c.661.402 1.233.94 1.679 1.58.796 1.15.976 2.581 1.135 3.95.329 3 .906 5.967 1.725 8.87"/><path fill="url(#q)" d="M14.51 34.877a35.3 35.3 0 0 0 2.648 6.721c.507.948 1.014 1.896 1.934 2.494q.241.153.52.214c1.355.294 2.098-.815 2.577-1.83a30.6 30.6 0 0 0 1.725-4.935q.125-.474.246-.948c.155-.604.31-1.213.445-1.823l5.982-16.242a13.4 13.4 0 0 1 4.704-3.987 13.15 13.15 0 0 1 5.963-1.426c2.98-.019 5.877.995 8.214 2.875 3.911 3.008 6.24 8.933 6.24 8.933a6.07 6.07 0 0 1 .062 4.732 6 6 0 0 1-1.275 1.93 5.9 5.9 0 0 1-1.905 1.289 5.78 5.78 0 0 1-4.722-.114 5.85 5.85 0 0 1-2.01-1.577l-.055-.07a8 8 0 0 1-.933-1.668 23 23 0 0 0-1.082-2.174 14 14 0 0 0-.69-1.049 4.3 4.3 0 0 0-.737-.822c-.55-.451-1.244-.631-1.89-.243a1 1 0 0 0-.09.06c-.666.465-1.133 1.403-1.456 2.124-.933 2.041-1.467 4.133-1.996 6.282q-.151.62-.292 1.245l-2.472 8.215-3.485 7.812a13.5 13.5 0 0 1-4.67 3.882 13.3 13.3 0 0 1-5.87 1.42c-8.466.183-12.483-7.584-12.483-7.584C2.834 40.575 1.414 29.97 1.075 26.58 1.003 25.875 1 25.454 1 25.454c0-1.062.285-2.104.824-3.013a5.8 5.8 0 0 1 2.239-2.147 6.2 6.2 0 0 1 3.09-.686 5.8 5.8 0 0 1 2.817.87c.661.402 1.233.94 1.679 1.58.796 1.15.976 2.581 1.135 3.95.329 3 .906 5.967 1.725 8.87"/><path fill="url(#r)" d="M14.51 34.877a35.3 35.3 0 0 0 2.648 6.721c.507.948 1.014 1.896 1.934 2.494q.241.153.52.214c1.355.294 2.098-.815 2.577-1.83a30.6 30.6 0 0 0 1.725-4.935q.125-.474.246-.948c.155-.604.31-1.213.445-1.823l5.982-16.242a13.4 13.4 0 0 1 4.704-3.987 13.15 13.15 0 0 1 5.963-1.426c2.98-.019 5.877.995 8.214 2.875 3.911 3.008 6.24 8.933 6.24 8.933a6.07 6.07 0 0 1 .062 4.732 6 6 0 0 1-1.275 1.93 5.9 5.9 0 0 1-1.905 1.289 5.78 5.78 0 0 1-4.722-.114 5.85 5.85 0 0 1-2.01-1.577l-.055-.07a8 8 0 0 1-.933-1.668 23 23 0 0 0-1.082-2.174 14 14 0 0 0-.69-1.049 4.3 4.3 0 0 0-.737-.822c-.55-.451-1.244-.631-1.89-.243a1 1 0 0 0-.09.06c-.666.465-1.133 1.403-1.456 2.124-.933 2.041-1.467 4.133-1.996 6.282q-.151.62-.292 1.245l-2.472 8.215-3.485 7.812a13.5 13.5 0 0 1-4.67 3.882 13.3 13.3 0 0 1-5.87 1.42c-8.466.183-12.483-7.584-12.483-7.584C2.834 40.575 1.414 29.97 1.075 26.58 1.003 25.875 1 25.454 1 25.454c0-1.062.285-2.104.824-3.013a5.8 5.8 0 0 1 2.239-2.147 6.2 6.2 0 0 1 3.09-.686 5.8 5.8 0 0 1 2.817.87c.661.402 1.233.94 1.679 1.58.796 1.15.976 2.581 1.135 3.95.329 3 .906 5.967 1.725 8.87"/><path fill="url(#s)" d="M14.51 34.877a35.3 35.3 0 0 0 2.648 6.721c.507.948 1.014 1.896 1.934 2.494q.241.153.52.214c1.355.294 2.098-.815 2.577-1.83a30.6 30.6 0 0 0 1.725-4.935q.125-.474.246-.948c.155-.604.31-1.213.445-1.823l5.982-16.242a13.4 13.4 0 0 1 4.704-3.987 13.15 13.15 0 0 1 5.963-1.426c2.98-.019 5.877.995 8.214 2.875 3.911 3.008 6.24 8.933 6.24 8.933a6.07 6.07 0 0 1 .062 4.732 6 6 0 0 1-1.275 1.93 5.9 5.9 0 0 1-1.905 1.289 5.78 5.78 0 0 1-4.722-.114 5.85 5.85 0 0 1-2.01-1.577l-.055-.07a8 8 0 0 1-.933-1.668 23 23 0 0 0-1.082-2.174 14 14 0 0 0-.69-1.049 4.3 4.3 0 0 0-.737-.822c-.55-.451-1.244-.631-1.89-.243a1 1 0 0 0-.09.06c-.666.465-1.133 1.403-1.456 2.124-.933 2.041-1.467 4.133-1.996 6.282q-.151.62-.292 1.245l-2.472 8.215-3.485 7.812a13.5 13.5 0 0 1-4.67 3.882 13.3 13.3 0 0 1-5.87 1.42c-8.466.183-12.483-7.584-12.483-7.584C2.834 40.575 1.414 29.97 1.075 26.58 1.003 25.875 1 25.454 1 25.454c0-1.062.285-2.104.824-3.013a5.8 5.8 0 0 1 2.239-2.147 6.2 6.2 0 0 1 3.09-.686 5.8 5.8 0 0 1 2.817.87c.661.402 1.233.94 1.679 1.58.796 1.15.976 2.581 1.135 3.95.329 3 .906 5.967 1.725 8.87"/><path fill="url(#t)" d="M14.51 34.877a35.3 35.3 0 0 0 2.648 6.721c.507.948 1.014 1.896 1.934 2.494q.241.153.52.214c1.355.294 2.098-.815 2.577-1.83a30.6 30.6 0 0 0 1.725-4.935q.125-.474.246-.948c.155-.604.31-1.213.445-1.823l5.982-16.242a13.4 13.4 0 0 1 4.704-3.987 13.15 13.15 0 0 1 5.963-1.426c2.98-.019 5.877.995 8.214 2.875 3.911 3.008 6.24 8.933 6.24 8.933a6.07 6.07 0 0 1 .062 4.732 6 6 0 0 1-1.275 1.93 5.9 5.9 0 0 1-1.905 1.289 5.78 5.78 0 0 1-4.722-.114 5.85 5.85 0 0 1-2.01-1.577l-.055-.07a8 8 0 0 1-.933-1.668 23 23 0 0 0-1.082-2.174 14 14 0 0 0-.69-1.049 4.3 4.3 0 0 0-.737-.822c-.55-.451-1.244-.631-1.89-.243a1 1 0 0 0-.09.06c-.666.465-1.133 1.403-1.456 2.124-.933 2.041-1.467 4.133-1.996 6.282q-.151.62-.292 1.245l-2.472 8.215-3.485 7.812a13.5 13.5 0 0 1-4.67 3.882 13.3 13.3 0 0 1-5.87 1.42c-8.466.183-12.483-7.584-12.483-7.584C2.834 40.575 1.414 29.97 1.075 26.58 1.003 25.875 1 25.454 1 25.454c0-1.062.285-2.104.824-3.013a5.8 5.8 0 0 1 2.239-2.147 6.2 6.2 0 0 1 3.09-.686 5.8 5.8 0 0 1 2.817.87c.661.402 1.233.94 1.679 1.58.796 1.15.976 2.581 1.135 3.95.329 3 .906 5.967 1.725 8.87"/><path fill="url(#u)" d="m26.784 28.851 3.803-10.32a13.4 13.4 0 0 1 4.705-3.986 13.15 13.15 0 0 1 5.962-1.427c2.98-.019 5.878.996 8.215 2.875 3.91 3.009 6.24 8.934 6.24 8.934a6.07 6.07 0 0 1 .061 4.731 6 6 0 0 1-1.275 1.931 5.9 5.9 0 0 1-1.905 1.288 5.78 5.78 0 0 1-4.722-.114 5.85 5.85 0 0 1-2.01-1.577l-.055-.07a8 8 0 0 1-.933-1.668 23 23 0 0 0-1.082-2.174 14 14 0 0 0-.69-1.049 4.3 4.3 0 0 0-.737-.821c-.55-.452-1.244-.632-1.89-.244a1 1 0 0 0-.09.06c-.666.465-1.132 1.403-1.456 2.124-.932 2.041-1.467 4.133-1.996 6.282q-.151.62-.292 1.245l-2.472 8.216z"/><path fill="url(#v)" d="M54.409 19.634a5.8 5.8 0 0 0-1.465.186 28.7 28.7 0 0 1 2.764 5.107 6.07 6.07 0 0 1 .062 4.731 6 6 0 0 1-1.275 1.931 5.9 5.9 0 0 1-1.905 1.288 5.78 5.78 0 0 1-5.205-.373l-.603 2.266c-1.094 3.719-1.866 5.157-1.866 5.157a20 20 0 0 1-1.51 2.904c-.402.603-.915 1.21-1.617 1.44a1.6 1.6 0 0 1-.762.076 2 2 0 0 1-.787-.268 3.5 3.5 0 0 1-1.07-1.353 19 19 0 0 1-.798-1.823c-.52-1.283-1.322-4.443-1.322-4.443l-.83-3.308-.83-3.334-.59-2.19c-1.555-5.703-3.707-8.51-3.707-8.51a14.3 14.3 0 0 0-6.859-5.32c-3.214-1.173-6.588-.512-6.588-.512-5.285 1.055-8.062 4.74-9.284 6.512.56.149 1.095.378 1.59.683.66.402 1.232.94 1.678 1.58.796 1.15.976 2.581 1.135 3.95.333 2.965.91 5.897 1.722 8.765 1.791-6.035 3.94-8.848 3.94-8.848.24-.303.527-.563.852-.77a1.4 1.4 0 0 1 .553-.2c.363-.035.728.055 1.035.256q.085.057.159.127c.28.253.522.548.715.875a19 19 0 0 1 1.16 2.528c.671 1.921 1.243 4.269 1.243 4.269l1.71 6.85c1.244 4.658 2.298 6.92 2.298 6.92 2.596 6.043 6.566 7.743 6.566 7.743a13.74 13.74 0 0 0 6.275 1.668 12.9 12.9 0 0 0 6.05-1.324 15.5 15.5 0 0 0 5.301-4.357c.96-1.132 2.375-3.887 2.375-3.887a50.3 50.3 0 0 0 3.654-9.9q.833-3.2 1.334-6.472a87 87 0 0 0 .453-3.258 8.6 8.6 0 0 0-.093-3.106 5 5 0 0 0-.17-.54 5.84 5.84 0 0 0-2.619-2.999 5.96 5.96 0 0 0-2.87-.717"/><path fill="url(#w)" d="M54.409 19.634a5.8 5.8 0 0 0-1.465.186 28.7 28.7 0 0 1 2.764 5.107 6.07 6.07 0 0 1 .062 4.731 6 6 0 0 1-1.275 1.931 5.9 5.9 0 0 1-1.905 1.288 5.78 5.78 0 0 1-5.205-.373l-.603 2.266c-1.094 3.719-1.866 5.157-1.866 5.157a20 20 0 0 1-1.51 2.904c-.402.603-.915 1.21-1.617 1.44a1.6 1.6 0 0 1-.762.076 2 2 0 0 1-.787-.268 3.5 3.5 0 0 1-1.07-1.353 19 19 0 0 1-.798-1.823c-.52-1.283-1.322-4.443-1.322-4.443l-.83-3.308-.83-3.334-.59-2.19c-1.555-5.703-3.707-8.51-3.707-8.51a14.3 14.3 0 0 0-6.859-5.32c-3.214-1.173-6.588-.512-6.588-.512-5.285 1.055-8.062 4.74-9.284 6.512.56.149 1.095.378 1.59.683.66.402 1.232.94 1.678 1.58.796 1.15.976 2.581 1.135 3.95.333 2.965.91 5.897 1.722 8.765 1.791-6.035 3.94-8.848 3.94-8.848.24-.303.527-.563.852-.77a1.4 1.4 0 0 1 .553-.2c.363-.035.728.055 1.035.256q.085.057.159.127c.28.253.522.548.715.875a19 19 0 0 1 1.16 2.528c.671 1.921 1.243 4.269 1.243 4.269l1.71 6.85c1.244 4.658 2.298 6.92 2.298 6.92 2.596 6.043 6.566 7.743 6.566 7.743a13.74 13.74 0 0 0 6.275 1.668 12.9 12.9 0 0 0 6.05-1.324 15.5 15.5 0 0 0 5.301-4.357c.96-1.132 2.375-3.887 2.375-3.887a50.3 50.3 0 0 0 3.654-9.9q.833-3.2 1.334-6.472a87 87 0 0 0 .453-3.258 8.6 8.6 0 0 0-.093-3.106 5 5 0 0 0-.17-.54 5.84 5.84 0 0 0-2.619-2.999 5.96 5.96 0 0 0-2.87-.717"/><path fill="url(#x)" d="M54.409 19.634a5.8 5.8 0 0 0-1.465.186 28.7 28.7 0 0 1 2.764 5.107 6.07 6.07 0 0 1 .062 4.731 6 6 0 0 1-1.275 1.931 5.9 5.9 0 0 1-1.905 1.288 5.78 5.78 0 0 1-5.205-.373l-.603 2.266c-1.094 3.719-1.866 5.157-1.866 5.157a20 20 0 0 1-1.51 2.904c-.402.603-.915 1.21-1.617 1.44a1.6 1.6 0 0 1-.762.076 2 2 0 0 1-.787-.268 3.5 3.5 0 0 1-1.07-1.353 19 19 0 0 1-.798-1.823c-.52-1.283-1.322-4.443-1.322-4.443l-.83-3.308-.83-3.334-.59-2.19c-1.555-5.703-3.707-8.51-3.707-8.51a14.3 14.3 0 0 0-6.859-5.32c-3.214-1.173-6.588-.512-6.588-.512-5.285 1.055-8.062 4.74-9.284 6.512.56.149 1.095.378 1.59.683.66.402 1.232.94 1.678 1.58.796 1.15.976 2.581 1.135 3.95.333 2.965.91 5.897 1.722 8.765 1.791-6.035 3.94-8.848 3.94-8.848.24-.303.527-.563.852-.77a1.4 1.4 0 0 1 .553-.2c.363-.035.728.055 1.035.256q.085.057.159.127c.28.253.522.548.715.875a19 19 0 0 1 1.16 2.528c.671 1.921 1.243 4.269 1.243 4.269l1.71 6.85c1.244 4.658 2.298 6.92 2.298 6.92 2.596 6.043 6.566 7.743 6.566 7.743a13.74 13.74 0 0 0 6.275 1.668 12.9 12.9 0 0 0 6.05-1.324 15.5 15.5 0 0 0 5.301-4.357c.96-1.132 2.375-3.887 2.375-3.887a50.3 50.3 0 0 0 3.654-9.9q.833-3.2 1.334-6.472a87 87 0 0 0 .453-3.258 8.6 8.6 0 0 0-.093-3.106 5 5 0 0 0-.17-.54 5.84 5.84 0 0 0-2.619-2.999 5.96 5.96 0 0 0-2.87-.717"/><path fill="url(#y)" d="M54.409 19.634a5.8 5.8 0 0 0-1.465.186 28.7 28.7 0 0 1 2.764 5.107 6.07 6.07 0 0 1 .062 4.731 6 6 0 0 1-1.275 1.931 5.9 5.9 0 0 1-1.905 1.288 5.78 5.78 0 0 1-5.205-.373l-.603 2.266c-1.094 3.719-1.866 5.157-1.866 5.157a20 20 0 0 1-1.51 2.904c-.402.603-.915 1.21-1.617 1.44a1.6 1.6 0 0 1-.762.076 2 2 0 0 1-.787-.268 3.5 3.5 0 0 1-1.07-1.353 19 19 0 0 1-.798-1.823c-.52-1.283-1.322-4.443-1.322-4.443l-.83-3.308-.83-3.334-.59-2.19c-1.555-5.703-3.707-8.51-3.707-8.51a14.3 14.3 0 0 0-6.859-5.32c-3.214-1.173-6.588-.512-6.588-.512-5.285 1.055-8.062 4.74-9.284 6.512.56.149 1.095.378 1.59.683.66.402 1.232.94 1.678 1.58.796 1.15.976 2.581 1.135 3.95.333 2.965.91 5.897 1.722 8.765 1.791-6.035 3.94-8.848 3.94-8.848.24-.303.527-.563.852-.77a1.4 1.4 0 0 1 .553-.2c.363-.035.728.055 1.035.256q.085.057.159.127c.28.253.522.548.715.875a19 19 0 0 1 1.16 2.528c.671 1.921 1.243 4.269 1.243 4.269l1.71 6.85c1.244 4.658 2.298 6.92 2.298 6.92 2.596 6.043 6.566 7.743 6.566 7.743a13.74 13.74 0 0 0 6.275 1.668 12.9 12.9 0 0 0 6.05-1.324 15.5 15.5 0 0 0 5.301-4.357c.96-1.132 2.375-3.887 2.375-3.887a50.3 50.3 0 0 0 3.654-9.9q.833-3.2 1.334-6.472a87 87 0 0 0 .453-3.258 8.6 8.6 0 0 0-.093-3.106 5 5 0 0 0-.17-.54 5.84 5.84 0 0 0-2.619-2.999 5.96 5.96 0 0 0-2.87-.717"/><path fill="url(#z)" d="M54.409 19.634a5.8 5.8 0 0 0-1.465.186 28.7 28.7 0 0 1 2.764 5.107 6.07 6.07 0 0 1 .062 4.731 6 6 0 0 1-1.275 1.931 5.9 5.9 0 0 1-1.905 1.288 5.78 5.78 0 0 1-5.205-.373l-.603 2.266c-1.094 3.719-1.866 5.157-1.866 5.157a20 20 0 0 1-1.51 2.904c-.402.603-.915 1.21-1.617 1.44a1.6 1.6 0 0 1-.762.076 2 2 0 0 1-.787-.268 3.5 3.5 0 0 1-1.07-1.353 19 19 0 0 1-.798-1.823c-.52-1.283-1.322-4.443-1.322-4.443l-.83-3.308-.83-3.334-.59-2.19c-1.555-5.703-3.707-8.51-3.707-8.51a14.3 14.3 0 0 0-6.859-5.32c-3.214-1.173-6.588-.512-6.588-.512-5.285 1.055-8.062 4.74-9.284 6.512.56.149 1.095.378 1.59.683.66.402 1.232.94 1.678 1.58.796 1.15.976 2.581 1.135 3.95.333 2.965.91 5.897 1.722 8.765 1.791-6.035 3.94-8.848 3.94-8.848.24-.303.527-.563.852-.77a1.4 1.4 0 0 1 .553-.2c.363-.035.728.055 1.035.256q.085.057.159.127c.28.253.522.548.715.875a19 19 0 0 1 1.16 2.528c.671 1.921 1.243 4.269 1.243 4.269l1.71 6.85c1.244 4.658 2.298 6.92 2.298 6.92 2.596 6.043 6.566 7.743 6.566 7.743a13.74 13.74 0 0 0 6.275 1.668 12.9 12.9 0 0 0 6.05-1.324 15.5 15.5 0 0 0 5.301-4.357c.96-1.132 2.375-3.887 2.375-3.887a50.3 50.3 0 0 0 3.654-9.9q.833-3.2 1.334-6.472a87 87 0 0 0 .453-3.258 8.6 8.6 0 0 0-.093-3.106 5 5 0 0 0-.17-.54 5.84 5.84 0 0 0-2.619-2.999 5.96 5.96 0 0 0-2.87-.717"/><path fill="url(#A)" d="M54.409 19.634a5.8 5.8 0 0 0-1.465.186 28.7 28.7 0 0 1 2.764 5.107 6.07 6.07 0 0 1 .062 4.731 6 6 0 0 1-1.275 1.931 5.9 5.9 0 0 1-1.905 1.288 5.78 5.78 0 0 1-5.205-.373l-.603 2.266c-1.094 3.719-1.866 5.157-1.866 5.157a20 20 0 0 1-1.51 2.904c-.402.603-.915 1.21-1.617 1.44a1.6 1.6 0 0 1-.762.076 2 2 0 0 1-.787-.268 3.5 3.5 0 0 1-1.07-1.353 19 19 0 0 1-.798-1.823c-.52-1.283-1.322-4.443-1.322-4.443l-.83-3.308-.83-3.334-.59-2.19c-1.555-5.703-3.707-8.51-3.707-8.51a14.3 14.3 0 0 0-6.859-5.32c-3.214-1.173-6.588-.512-6.588-.512-5.285 1.055-8.062 4.74-9.284 6.512.56.149 1.095.378 1.59.683.66.402 1.232.94 1.678 1.58.796 1.15.976 2.581 1.135 3.95.333 2.965.91 5.897 1.722 8.765 1.791-6.035 3.94-8.848 3.94-8.848.24-.303.527-.563.852-.77a1.4 1.4 0 0 1 .553-.2c.363-.035.728.055 1.035.256q.085.057.159.127c.28.253.522.548.715.875a19 19 0 0 1 1.16 2.528c.671 1.921 1.243 4.269 1.243 4.269l1.71 6.85c1.244 4.658 2.298 6.92 2.298 6.92 2.596 6.043 6.566 7.743 6.566 7.743a13.74 13.74 0 0 0 6.275 1.668 12.9 12.9 0 0 0 6.05-1.324 15.5 15.5 0 0 0 5.301-4.357c.96-1.132 2.375-3.887 2.375-3.887a50.3 50.3 0 0 0 3.654-9.9q.833-3.2 1.334-6.472a87 87 0 0 0 .453-3.258 8.6 8.6 0 0 0-.093-3.106 5 5 0 0 0-.17-.54 5.84 5.84 0 0 0-2.619-2.999 5.96 5.96 0 0 0-2.87-.717"/><path fill="url(#B)" d="M54.409 19.634a5.8 5.8 0 0 0-1.465.186 28.7 28.7 0 0 1 2.764 5.107 6.07 6.07 0 0 1 .062 4.731 6 6 0 0 1-1.275 1.931 5.9 5.9 0 0 1-1.905 1.288 5.78 5.78 0 0 1-5.205-.373l-.603 2.266c-1.094 3.719-1.866 5.157-1.866 5.157a20 20 0 0 1-1.51 2.904c-.402.603-.915 1.21-1.617 1.44a1.6 1.6 0 0 1-.762.076 2 2 0 0 1-.787-.268 3.5 3.5 0 0 1-1.07-1.353 19 19 0 0 1-.798-1.823c-.52-1.283-1.322-4.443-1.322-4.443l-.83-3.308-.83-3.334-.59-2.19c-1.555-5.703-3.707-8.51-3.707-8.51a14.3 14.3 0 0 0-6.859-5.32c-3.214-1.173-6.588-.512-6.588-.512-5.285 1.055-8.062 4.74-9.284 6.512.56.149 1.095.378 1.59.683.66.402 1.232.94 1.678 1.58.796 1.15.976 2.581 1.135 3.95.333 2.965.91 5.897 1.722 8.765 1.791-6.035 3.94-8.848 3.94-8.848.24-.303.527-.563.852-.77a1.4 1.4 0 0 1 .553-.2c.363-.035.728.055 1.035.256q.085.057.159.127c.28.253.522.548.715.875a19 19 0 0 1 1.16 2.528c.671 1.921 1.243 4.269 1.243 4.269l1.71 6.85c1.244 4.658 2.298 6.92 2.298 6.92 2.596 6.043 6.566 7.743 6.566 7.743a13.74 13.74 0 0 0 6.275 1.668 12.9 12.9 0 0 0 6.05-1.324 15.5 15.5 0 0 0 5.301-4.357c.96-1.132 2.375-3.887 2.375-3.887a50.3 50.3 0 0 0 3.654-9.9q.833-3.2 1.334-6.472a87 87 0 0 0 .453-3.258 8.6 8.6 0 0 0-.093-3.106 5 5 0 0 0-.17-.54 5.84 5.84 0 0 0-2.619-2.999 5.96 5.96 0 0 0-2.87-.717"/><path fill="url(#C)" d="M54.409 19.634a5.8 5.8 0 0 0-1.465.186 28.7 28.7 0 0 1 2.764 5.107 6.07 6.07 0 0 1 .062 4.731 6 6 0 0 1-1.275 1.931 5.9 5.9 0 0 1-1.905 1.288 5.78 5.78 0 0 1-5.205-.373l-.603 2.266c-1.094 3.719-1.866 5.157-1.866 5.157a20 20 0 0 1-1.51 2.904c-.402.603-.915 1.21-1.617 1.44a1.6 1.6 0 0 1-.762.076 2 2 0 0 1-.787-.268 3.5 3.5 0 0 1-1.07-1.353 19 19 0 0 1-.798-1.823c-.52-1.283-1.322-4.443-1.322-4.443l-.83-3.308-.83-3.334-.59-2.19c-1.555-5.703-3.707-8.51-3.707-8.51a14.3 14.3 0 0 0-6.859-5.32c-3.214-1.173-6.588-.512-6.588-.512-5.285 1.055-8.062 4.74-9.284 6.512.56.149 1.095.378 1.59.683.66.402 1.232.94 1.678 1.58.796 1.15.976 2.581 1.135 3.95.333 2.965.91 5.897 1.722 8.765 1.791-6.035 3.94-8.848 3.94-8.848.24-.303.527-.563.852-.77a1.4 1.4 0 0 1 .553-.2c.363-.035.728.055 1.035.256q.085.057.159.127c.28.253.522.548.715.875a19 19 0 0 1 1.16 2.528c.671 1.921 1.243 4.269 1.243 4.269l1.71 6.85c1.244 4.658 2.298 6.92 2.298 6.92 2.596 6.043 6.566 7.743 6.566 7.743a13.74 13.74 0 0 0 6.275 1.668 12.9 12.9 0 0 0 6.05-1.324 15.5 15.5 0 0 0 5.301-4.357c.96-1.132 2.375-3.887 2.375-3.887a50.3 50.3 0 0 0 3.654-9.9q.833-3.2 1.334-6.472a87 87 0 0 0 .453-3.258 8.6 8.6 0 0 0-.093-3.106 5 5 0 0 0-.17-.54 5.84 5.84 0 0 0-2.619-2.999 5.96 5.96 0 0 0-2.87-.717"/><path fill="url(#D)" d="M54.409 19.634a5.8 5.8 0 0 0-1.465.186 28.7 28.7 0 0 1 2.764 5.107 6.07 6.07 0 0 1 .062 4.731 6 6 0 0 1-1.275 1.931 5.9 5.9 0 0 1-1.905 1.288 5.78 5.78 0 0 1-5.205-.373l-.603 2.266c-1.094 3.719-1.866 5.157-1.866 5.157a20 20 0 0 1-1.51 2.904c-.402.603-.915 1.21-1.617 1.44a1.6 1.6 0 0 1-.762.076 2 2 0 0 1-.787-.268 3.5 3.5 0 0 1-1.07-1.353 19 19 0 0 1-.798-1.823c-.52-1.283-1.322-4.443-1.322-4.443l-.83-3.308-.83-3.334-.59-2.19c-1.555-5.703-3.707-8.51-3.707-8.51a14.3 14.3 0 0 0-6.859-5.32c-3.214-1.173-6.588-.512-6.588-.512-5.285 1.055-8.062 4.74-9.284 6.512.56.149 1.095.378 1.59.683.66.402 1.232.94 1.678 1.58.796 1.15.976 2.581 1.135 3.95.333 2.965.91 5.897 1.722 8.765 1.791-6.035 3.94-8.848 3.94-8.848.24-.303.527-.563.852-.77a1.4 1.4 0 0 1 .553-.2c.363-.035.728.055 1.035.256q.085.057.159.127c.28.253.522.548.715.875a19 19 0 0 1 1.16 2.528c.671 1.921 1.243 4.269 1.243 4.269l1.71 6.85c1.244 4.658 2.298 6.92 2.298 6.92 2.596 6.043 6.566 7.743 6.566 7.743a13.74 13.74 0 0 0 6.275 1.668 12.9 12.9 0 0 0 6.05-1.324 15.5 15.5 0 0 0 5.301-4.357c.96-1.132 2.375-3.887 2.375-3.887a50.3 50.3 0 0 0 3.654-9.9q.833-3.2 1.334-6.472a87 87 0 0 0 .453-3.258 8.6 8.6 0 0 0-.093-3.106 5 5 0 0 0-.17-.54 5.84 5.84 0 0 0-2.619-2.999 5.96 5.96 0 0 0-2.87-.717"/><path fill="url(#E)" d="M54.409 19.634a5.8 5.8 0 0 0-1.465.186 28.7 28.7 0 0 1 2.764 5.107 6.07 6.07 0 0 1 .062 4.731 6 6 0 0 1-1.275 1.931 5.9 5.9 0 0 1-1.905 1.288 5.78 5.78 0 0 1-5.205-.373l-.603 2.266c-1.094 3.719-1.866 5.157-1.866 5.157a20 20 0 0 1-1.51 2.904c-.402.603-.915 1.21-1.617 1.44a1.6 1.6 0 0 1-.762.076 2 2 0 0 1-.787-.268 3.5 3.5 0 0 1-1.07-1.353 19 19 0 0 1-.798-1.823c-.52-1.283-1.322-4.443-1.322-4.443l-.83-3.308-.83-3.334-.59-2.19c-1.555-5.703-3.707-8.51-3.707-8.51a14.3 14.3 0 0 0-6.859-5.32c-3.214-1.173-6.588-.512-6.588-.512-5.285 1.055-8.062 4.74-9.284 6.512.56.149 1.095.378 1.59.683.66.402 1.232.94 1.678 1.58.796 1.15.976 2.581 1.135 3.95.333 2.965.91 5.897 1.722 8.765 1.791-6.035 3.94-8.848 3.94-8.848.24-.303.527-.563.852-.77a1.4 1.4 0 0 1 .553-.2c.363-.035.728.055 1.035.256q.085.057.159.127c.28.253.522.548.715.875a19 19 0 0 1 1.16 2.528c.671 1.921 1.243 4.269 1.243 4.269l1.71 6.85c1.244 4.658 2.298 6.92 2.298 6.92 2.596 6.043 6.566 7.743 6.566 7.743a13.74 13.74 0 0 0 6.275 1.668 12.9 12.9 0 0 0 6.05-1.324 15.5 15.5 0 0 0 5.301-4.357c.96-1.132 2.375-3.887 2.375-3.887a50.3 50.3 0 0 0 3.654-9.9q.833-3.2 1.334-6.472a87 87 0 0 0 .453-3.258 8.6 8.6 0 0 0-.093-3.106 5 5 0 0 0-.17-.54 5.84 5.84 0 0 0-2.619-2.999 5.96 5.96 0 0 0-2.87-.717"/><path fill="url(#F)" d="M54.409 19.634a5.8 5.8 0 0 0-1.465.186 28.7 28.7 0 0 1 2.764 5.107 6.07 6.07 0 0 1 .062 4.731 6 6 0 0 1-1.275 1.931 5.9 5.9 0 0 1-1.905 1.288 5.78 5.78 0 0 1-5.205-.373l-.603 2.266c-1.094 3.719-1.866 5.157-1.866 5.157a20 20 0 0 1-1.51 2.904c-.402.603-.915 1.21-1.617 1.44a1.6 1.6 0 0 1-.762.076 2 2 0 0 1-.787-.268 3.5 3.5 0 0 1-1.07-1.353 19 19 0 0 1-.798-1.823c-.52-1.283-1.322-4.443-1.322-4.443l-.83-3.308-.83-3.334-.59-2.19c-1.555-5.703-3.707-8.51-3.707-8.51a14.3 14.3 0 0 0-6.859-5.32c-3.214-1.173-6.588-.512-6.588-.512-5.285 1.055-8.062 4.74-9.284 6.512.56.149 1.095.378 1.59.683.66.402 1.232.94 1.678 1.58.796 1.15.976 2.581 1.135 3.95.333 2.965.91 5.897 1.722 8.765 1.791-6.035 3.94-8.848 3.94-8.848.24-.303.527-.563.852-.77a1.4 1.4 0 0 1 .553-.2c.363-.035.728.055 1.035.256q.085.057.159.127c.28.253.522.548.715.875a19 19 0 0 1 1.16 2.528c.671 1.921 1.243 4.269 1.243 4.269l1.71 6.85c1.244 4.658 2.298 6.92 2.298 6.92 2.596 6.043 6.566 7.743 6.566 7.743a13.74 13.74 0 0 0 6.275 1.668 12.9 12.9 0 0 0 6.05-1.324 15.5 15.5 0 0 0 5.301-4.357c.96-1.132 2.375-3.887 2.375-3.887a50.3 50.3 0 0 0 3.654-9.9q.833-3.2 1.334-6.472a87 87 0 0 0 .453-3.258 8.6 8.6 0 0 0-.093-3.106 5 5 0 0 0-.17-.54 5.84 5.84 0 0 0-2.619-2.999 5.96 5.96 0 0 0-2.87-.717"/><path fill="url(#G)" d="M54.409 19.634a5.8 5.8 0 0 0-1.465.186 28.7 28.7 0 0 1 2.764 5.107 6.07 6.07 0 0 1 .062 4.731 6 6 0 0 1-1.275 1.931 5.9 5.9 0 0 1-1.905 1.288 5.78 5.78 0 0 1-5.205-.373l-.603 2.266c-1.094 3.719-1.866 5.157-1.866 5.157a20 20 0 0 1-1.51 2.904c-.402.603-.915 1.21-1.617 1.44a1.6 1.6 0 0 1-.762.076 2 2 0 0 1-.787-.268 3.5 3.5 0 0 1-1.07-1.353 19 19 0 0 1-.798-1.823c-.52-1.283-1.322-4.443-1.322-4.443l-.83-3.308-.83-3.334-.59-2.19c-1.555-5.703-3.707-8.51-3.707-8.51a14.3 14.3 0 0 0-6.859-5.32c-3.214-1.173-6.588-.512-6.588-.512-5.285 1.055-8.062 4.74-9.284 6.512.56.149 1.095.378 1.59.683.66.402 1.232.94 1.678 1.58.796 1.15.976 2.581 1.135 3.95.333 2.965.91 5.897 1.722 8.765 1.791-6.035 3.94-8.848 3.94-8.848.24-.303.527-.563.852-.77a1.4 1.4 0 0 1 .553-.2c.363-.035.728.055 1.035.256q.085.057.159.127c.28.253.522.548.715.875a19 19 0 0 1 1.16 2.528c.671 1.921 1.243 4.269 1.243 4.269l1.71 6.85c1.244 4.658 2.298 6.92 2.298 6.92 2.596 6.043 6.566 7.743 6.566 7.743a13.74 13.74 0 0 0 6.275 1.668 12.9 12.9 0 0 0 6.05-1.324 15.5 15.5 0 0 0 5.301-4.357c.96-1.132 2.375-3.887 2.375-3.887a50.3 50.3 0 0 0 3.654-9.9q.833-3.2 1.334-6.472a87 87 0 0 0 .453-3.258 8.6 8.6 0 0 0-.093-3.106 5 5 0 0 0-.17-.54 5.84 5.84 0 0 0-2.619-2.999 5.96 5.96 0 0 0-2.87-.717"/><path fill="url(#H)" d="M54.409 19.634a5.8 5.8 0 0 0-1.465.186 28.7 28.7 0 0 1 2.764 5.107 6.07 6.07 0 0 1 .062 4.731 6 6 0 0 1-1.275 1.931 5.9 5.9 0 0 1-1.905 1.288 5.78 5.78 0 0 1-5.205-.373l-.603 2.266c-1.094 3.719-1.866 5.157-1.866 5.157a20 20 0 0 1-1.51 2.904c-.402.603-.915 1.21-1.617 1.44a1.6 1.6 0 0 1-.762.076 2 2 0 0 1-.787-.268 3.5 3.5 0 0 1-1.07-1.353 19 19 0 0 1-.798-1.823c-.52-1.283-1.322-4.443-1.322-4.443l-.83-3.308-.83-3.334-.59-2.19c-1.555-5.703-3.707-8.51-3.707-8.51a14.3 14.3 0 0 0-6.859-5.32c-3.214-1.173-6.588-.512-6.588-.512-5.285 1.055-8.062 4.74-9.284 6.512.56.149 1.095.378 1.59.683.66.402 1.232.94 1.678 1.58.796 1.15.976 2.581 1.135 3.95.333 2.965.91 5.897 1.722 8.765 1.791-6.035 3.94-8.848 3.94-8.848.24-.303.527-.563.852-.77a1.4 1.4 0 0 1 .553-.2c.363-.035.728.055 1.035.256q.085.057.159.127c.28.253.522.548.715.875a19 19 0 0 1 1.16 2.528c.671 1.921 1.243 4.269 1.243 4.269l1.71 6.85c1.244 4.658 2.298 6.92 2.298 6.92 2.596 6.043 6.566 7.743 6.566 7.743a13.74 13.74 0 0 0 6.275 1.668 12.9 12.9 0 0 0 6.05-1.324 15.5 15.5 0 0 0 5.301-4.357c.96-1.132 2.375-3.887 2.375-3.887a50.3 50.3 0 0 0 3.654-9.9q.833-3.2 1.334-6.472a87 87 0 0 0 .453-3.258 8.6 8.6 0 0 0-.093-3.106 5 5 0 0 0-.17-.54 5.84 5.84 0 0 0-2.619-2.999 5.96 5.96 0 0 0-2.87-.717"/><path fill="url(#I)" d="M54.409 19.634a5.8 5.8 0 0 0-1.465.186 28.7 28.7 0 0 1 2.764 5.107 6.07 6.07 0 0 1 .062 4.731 6 6 0 0 1-1.275 1.931 5.9 5.9 0 0 1-1.905 1.288 5.78 5.78 0 0 1-5.205-.373l-.603 2.266c-1.094 3.719-1.866 5.157-1.866 5.157a20 20 0 0 1-1.51 2.904c-.402.603-.915 1.21-1.617 1.44a1.6 1.6 0 0 1-.762.076 2 2 0 0 1-.787-.268 3.5 3.5 0 0 1-1.07-1.353 19 19 0 0 1-.798-1.823c-.52-1.283-1.322-4.443-1.322-4.443l-.83-3.308-.83-3.334-.59-2.19c-1.555-5.703-3.707-8.51-3.707-8.51a14.3 14.3 0 0 0-6.859-5.32c-3.214-1.173-6.588-.512-6.588-.512-5.285 1.055-8.062 4.74-9.284 6.512.56.149 1.095.378 1.59.683.66.402 1.232.94 1.678 1.58.796 1.15.976 2.581 1.135 3.95.333 2.965.91 5.897 1.722 8.765 1.791-6.035 3.94-8.848 3.94-8.848.24-.303.527-.563.852-.77a1.4 1.4 0 0 1 .553-.2c.363-.035.728.055 1.035.256q.085.057.159.127c.28.253.522.548.715.875a19 19 0 0 1 1.16 2.528c.671 1.921 1.243 4.269 1.243 4.269l1.71 6.85c1.244 4.658 2.298 6.92 2.298 6.92 2.596 6.043 6.566 7.743 6.566 7.743a13.74 13.74 0 0 0 6.275 1.668 12.9 12.9 0 0 0 6.05-1.324 15.5 15.5 0 0 0 5.301-4.357c.96-1.132 2.375-3.887 2.375-3.887a50.3 50.3 0 0 0 3.654-9.9q.833-3.2 1.334-6.472a87 87 0 0 0 .453-3.258 8.6 8.6 0 0 0-.093-3.106 5 5 0 0 0-.17-.54 5.84 5.84 0 0 0-2.619-2.999 5.96 5.96 0 0 0-2.87-.717"/><path fill="#fff" d="M113.895 24.744h6.275L111.047 52.1h-7.199l-6.819-20.643L90.21 52.1h-7.086L74 24.744h6.422l6.474 20.789 6.793-20.789h6.819l6.905 20.9zM147.084 40.619H126.73a8.7 8.7 0 0 0 1.554 3.912 7 7 0 0 0 2.892 2.312 9.2 9.2 0 0 0 3.728.745c1.421-.005 2.83-.26 4.161-.753 1.38-.5 2.668-1.221 3.815-2.132l2.995 4.28a15.2 15.2 0 0 1-5.231 2.955 19.9 19.9 0 0 1-6.111.898 14.7 14.7 0 0 1-7.311-1.78 12.68 12.68 0 0 1-4.997-5.052 15.4 15.4 0 0 1-1.796-7.552 15.8 15.8 0 0 1 1.727-7.5 12.67 12.67 0 0 1 4.85-5.077 13.84 13.84 0 0 1 7.139-1.815c2.361-.065 4.69.547 6.709 1.761a12.2 12.2 0 0 1 4.676 5.088 16.3 16.3 0 0 1 1.657 7.483c.009.574-.026 1.319-.103 2.226m-6.043-4.538a8.43 8.43 0 0 0-2.304-5 6.459 6.459 0 0 0-4.696-1.713 6.8 6.8 0 0 0-2.654.41 6.8 6.8 0 0 0-2.283 1.405 8.66 8.66 0 0 0-2.374 4.923zM172.831 25.892a13.37 13.37 0 0 1 4.981 5.137 14.96 14.96 0 0 1 1.83 7.398 14.93 14.93 0 0 1-1.83 7.389 13.34 13.34 0 0 1-4.997 5.155 13.5 13.5 0 0 1-6.967 1.84 11.35 11.35 0 0 1-4.98-1.036 10.25 10.25 0 0 1-3.651-2.928V52.1h-6.042v-39h6.042v14.898a10.35 10.35 0 0 1 3.651-2.911 11.2 11.2 0 0 1 4.98-1.045c2.455-.03 4.871.61 6.983 1.85m-3.297 20.13a7.73 7.73 0 0 0 2.909-3.177 10.2 10.2 0 0 0 0-8.845 7.8 7.8 0 0 0-2.909-3.177 8.85 8.85 0 0 0-8.735 0 7.84 7.84 0 0 0-2.935 3.143 9.4 9.4 0 0 0-1.053 4.486 9.37 9.37 0 0 0 1.053 4.478 7.84 7.84 0 0 0 2.935 3.142 8.85 8.85 0 0 0 8.735 0zM209.455 40.618h-20.344a8.7 8.7 0 0 0 1.553 3.913 7 7 0 0 0 2.892 2.312 9.2 9.2 0 0 0 3.729.745 12.2 12.2 0 0 0 4.16-.754c1.38-.5 2.669-1.22 3.815-2.132l2.987 4.282a15.1 15.1 0 0 1-5.222 2.953c-1.98.615-4.045.919-6.12.9a14.77 14.77 0 0 1-7.311-1.782 12.7 12.7 0 0 1-4.989-5.051 15.4 15.4 0 0 1-1.804-7.552 15.8 15.8 0 0 1 1.726-7.5 12.67 12.67 0 0 1 4.851-5.077 13.84 13.84 0 0 1 7.19-1.841 12.4 12.4 0 0 1 6.707 1.766 12.24 12.24 0 0 1 4.678 5.083 16.3 16.3 0 0 1 1.658 7.484c-.035.599-.095 1.344-.156 2.251m-6.042-4.538a8.48 8.48 0 0 0-2.313-4.965 6.4 6.4 0 0 0-2.161-1.343 6.5 6.5 0 0 0-2.517-.404 6.78 6.78 0 0 0-4.938 1.815 8.6 8.6 0 0 0-2.373 4.923zM238.156 52.1h-7.398l-6.991-9.512-6.905 9.512h-7.052l10.357-13.965-10.193-13.39h7.405l6.733 9.135 6.733-9.136H238l-10.237 13.34z"/><defs><radialGradient id="b" cx="0" cy="0" r="1" gradientTransform="matrix(5.95345 21.55494 -16.15608 4.4623 34.337 31.089)" gradientUnits="userSpaceOnUse"><stop stop-color="#227B60"/><stop offset=".14" stop-color="#227B60" stop-opacity=".81"/><stop offset=".58" stop-color="#227B60" stop-opacity=".23"/><stop offset=".78" stop-color="#227B60" stop-opacity="0"/></radialGradient><radialGradient id="c" cx="0" cy="0" r="1" gradientTransform="matrix(-.29787 15.13607 -11.3171 -.22271 37.532 29.533)" gradientUnits="userSpaceOnUse"><stop stop-color="#227B60"/><stop offset=".25" stop-color="#227B60" stop-opacity=".7"/><stop offset=".71" stop-color="#227B60" stop-opacity=".2"/><stop offset=".92" stop-color="#227B60" stop-opacity="0"/></radialGradient><radialGradient id="d" cx="0" cy="0" r="1" gradientTransform="rotate(88.623 3.068 33.972)scale(14.1121 9.85872)" gradientUnits="userSpaceOnUse"><stop stop-color="#227B60"/><stop offset=".07" stop-color="#227B60" stop-opacity=".9"/><stop offset=".34" stop-color="#227B60" stop-opacity=".51"/><stop offset=".59" stop-color="#227B60" stop-opacity=".23"/><stop offset=".79" stop-color="#227B60" stop-opacity=".06"/><stop offset=".92" stop-color="#227B60" stop-opacity="0"/></radialGradient><radialGradient id="e" cx="0" cy="0" r="1" gradientTransform="rotate(88.623 3.515 33.771)scale(11.3946 7.96027)" gradientUnits="userSpaceOnUse"><stop stop-color="#227B60"/><stop offset=".36" stop-color="#227B60" stop-opacity=".63"/><stop offset=".92" stop-color="#227B60" stop-opacity="0"/></radialGradient><radialGradient id="f" cx="0" cy="0" r="1" gradientTransform="matrix(.21847 9.08521 -5.7212 .13757 37.681 30.086)" gradientUnits="userSpaceOnUse"><stop stop-color="#20735A"/><stop offset=".15" stop-color="#20745A" stop-opacity=".93"/><stop offset=".38" stop-color="#21755C" stop-opacity=".74"/><stop offset=".67" stop-color="#21785D" stop-opacity=".43"/><stop offset="1" stop-color="#227B60" stop-opacity="0"/></radialGradient><radialGradient id="g" cx="0" cy="0" r="1" gradientTransform="matrix(13.16542 5.90148 -4.47442 9.98183 38.88 31.535)" gradientUnits="userSpaceOnUse"><stop stop-color="#227A61"/><stop offset=".36" stop-color="#227A61" stop-opacity=".56"/><stop offset=".72" stop-color="#227A61" stop-opacity=".16"/><stop offset=".9" stop-color="#227A61" stop-opacity="0"/></radialGradient><radialGradient id="h" cx="0" cy="0" r="1" gradientTransform="rotate(35.711 4.052 58.77)scale(19.2946 17.7355)" gradientUnits="userSpaceOnUse"><stop stop-color="#3CD9C3"/><stop offset=".07" stop-color="#3BD7C1" stop-opacity=".9"/><stop offset=".41" stop-color="#38CEB9" stop-opacity=".42"/><stop offset=".65" stop-color="#36C8B4" stop-opacity=".12"/><stop offset=".76" stop-color="#35C6B2" stop-opacity="0"/></radialGradient><radialGradient id="i" cx="0" cy="0" r="1" gradientTransform="rotate(35.711 22059.143 21452.473)scale(3426.93 2418.25)" gradientUnits="userSpaceOnUse"><stop stop-color="#3CD9C3"/><stop offset=".07" stop-color="#3BD7C1" stop-opacity=".9"/><stop offset=".41" stop-color="#38CEB9" stop-opacity=".42"/><stop offset=".65" stop-color="#36C8B4" stop-opacity=".12"/><stop offset=".76" stop-color="#35C6B2" stop-opacity="0"/></radialGradient><radialGradient id="j" cx="0" cy="0" r="1" gradientTransform="matrix(-3.22125 16.8864 -20.55534 -3.92114 42.709 34.902)" gradientUnits="userSpaceOnUse"><stop stop-color="#237F66" stop-opacity=".8"/><stop offset=".06" stop-color="#2C8C70" stop-opacity=".65"/><stop offset=".21" stop-color="#3DA785" stop-opacity=".37"/><stop offset=".35" stop-color="#4ABA93" stop-opacity=".17"/><stop offset=".47" stop-color="#51C59C" stop-opacity=".04"/><stop offset=".56" stop-color="#54C99F" stop-opacity="0"/></radialGradient><radialGradient id="k" cx="0" cy="0" r="1" gradientTransform="matrix(13.97148 -17.42299 18.75306 15.03806 32.226 36.126)" gradientUnits="userSpaceOnUse"><stop stop-color="#167C8A"/><stop offset=".04" stop-color="#167C8A" stop-opacity=".93"/><stop offset=".33" stop-color="#177F8D" stop-opacity=".43"/><stop offset=".54" stop-color="#17818F" stop-opacity=".12"/><stop offset=".65" stop-color="#178290" stop-opacity="0"/></radialGradient><radialGradient id="l" cx="0" cy="0" r="1" gradientTransform="rotate(-32.076 82.234 -34.546)scale(21.6719 17.244)" gradientUnits="userSpaceOnUse"><stop offset=".05" stop-color="#177D87"/><stop offset=".11" stop-color="#177E89" stop-opacity=".8"/><stop offset=".21" stop-color="#177F8B" stop-opacity=".52"/><stop offset=".32" stop-color="#17818D" stop-opacity=".29"/><stop offset=".42" stop-color="#17818F" stop-opacity=".13"/><stop offset=".51" stop-color="#178290" stop-opacity=".03"/><stop offset=".6" stop-color="#178290" stop-opacity="0"/></radialGradient><radialGradient id="m" cx="0" cy="0" r="1" gradientTransform="rotate(-130.081 21.813 13.434)scale(12.9755 10.1902)" gradientUnits="userSpaceOnUse"><stop offset=".26" stop-color="#177F8A"/><stop offset=".27" stop-color="#177F8A" stop-opacity=".98"/><stop offset=".38" stop-color="#17808C" stop-opacity=".68"/><stop offset=".5" stop-color="#17818D" stop-opacity=".43"/><stop offset=".62" stop-color="#17818F" stop-opacity=".24"/><stop offset=".74" stop-color="#17828F" stop-opacity=".11"/><stop offset=".86" stop-color="#178290" stop-opacity=".03"/><stop offset="1" stop-color="#178290" stop-opacity="0"/></radialGradient><radialGradient id="n" cx="0" cy="0" r="1" gradientTransform="rotate(-172.999 12.909 20.282)scale(12.0601 12.2513)" gradientUnits="userSpaceOnUse"><stop stop-color="#13656E"/><stop offset=".11" stop-color="#13646E" stop-opacity=".73"/><stop offset=".27" stop-color="#12646E" stop-opacity=".41"/><stop offset=".42" stop-color="#12636E" stop-opacity=".18"/><stop offset=".55" stop-color="#12636E" stop-opacity=".05"/><stop offset=".66" stop-color="#12636E" stop-opacity="0"/></radialGradient><radialGradient id="o" cx="0" cy="0" r="1" gradientTransform="matrix(-4.12898 -7.47193 6.22313 -3.4389 22.933 43.81)" gradientUnits="userSpaceOnUse"><stop offset=".13" stop-color="#146A73"/><stop offset=".24" stop-color="#156F79" stop-opacity=".79"/><stop offset=".45" stop-color="#167783" stop-opacity=".45"/><stop offset=".65" stop-color="#167D8A" stop-opacity=".2"/><stop offset=".82" stop-color="#17818E" stop-opacity=".05"/><stop offset=".95" stop-color="#178290" stop-opacity="0"/></radialGradient><radialGradient id="p" cx="0" cy="0" r="1" gradientTransform="rotate(-56.422 48.643 -.643)scale(8.02122 6.31545)" gradientUnits="userSpaceOnUse"><stop stop-color="#198E9C"/><stop offset=".1" stop-color="#198E9C" stop-opacity=".87"/><stop offset=".41" stop-color="#198E9C" stop-opacity=".5"/><stop offset=".67" stop-color="#198E9C" stop-opacity=".23"/><stop offset=".88" stop-color="#198E9C" stop-opacity=".06"/><stop offset="1" stop-color="#198E9C" stop-opacity="0"/></radialGradient><radialGradient id="w" cx="0" cy="0" r="1" gradientTransform="matrix(-4.00512 26.63223 -17.30738 -2.60279 45.636 33.24)" gradientUnits="userSpaceOnUse"><stop stop-color="#1A3D9C"/><stop offset=".4" stop-color="#1A3D9C" stop-opacity=".42"/><stop offset=".7" stop-color="#1A3D9C" stop-opacity="0"/></radialGradient><radialGradient id="x" cx="0" cy="0" r="1" gradientTransform="matrix(-492.65778 3275.95267 -1739.56895 -261.607 7799.63 13123)" gradientUnits="userSpaceOnUse"><stop stop-color="#1A3D9C"/><stop offset=".4" stop-color="#1A3D9C" stop-opacity=".42"/><stop offset=".7" stop-color="#1A3D9C" stop-opacity="0"/></radialGradient><radialGradient id="y" cx="0" cy="0" r="1" gradientTransform="rotate(98.479 -2462.858 8814.727)scale(3945.36 1605.18)" gradientUnits="userSpaceOnUse"><stop stop-color="#1A3D9C"/><stop offset=".4" stop-color="#1A3D9C" stop-opacity=".42"/><stop offset=".7" stop-color="#1A3D9C" stop-opacity="0"/></radialGradient><radialGradient id="z" cx="0" cy="0" r="1" gradientTransform="matrix(2.78815 23.37792 -16.0569 1.91501 41.418 31.426)" gradientUnits="userSpaceOnUse"><stop stop-color="#1A3D9C"/><stop offset=".16" stop-color="#1A3D9C" stop-opacity=".69"/><stop offset=".33" stop-color="#1A3D9C" stop-opacity=".4"/><stop offset=".49" stop-color="#1A3D9C" stop-opacity=".18"/><stop offset=".61" stop-color="#1A3D9C" stop-opacity=".05"/><stop offset=".7" stop-color="#1A3D9C" stop-opacity="0"/></radialGradient><radialGradient id="A" cx="0" cy="0" r="1" gradientTransform="rotate(74.876 -.142 48.3)scale(22.606 15.159)" gradientUnits="userSpaceOnUse"><stop stop-color="#18388F"/><stop offset=".37" stop-color="#193B96" stop-opacity=".45"/><stop offset=".7" stop-color="#1A3D9C" stop-opacity="0"/></radialGradient><radialGradient id="B" cx="0" cy="0" r="1" gradientTransform="rotate(74.876 -5.19 49.868)scale(10.5108 9.84677)" gradientUnits="userSpaceOnUse"><stop stop-color="#18388F"/><stop offset=".09" stop-color="#183992" stop-opacity=".78"/><stop offset=".22" stop-color="#193B96" stop-opacity=".5"/><stop offset=".35" stop-color="#193C98" stop-opacity=".28"/><stop offset=".47" stop-color="#1A3C9A" stop-opacity=".13"/><stop offset=".59" stop-color="#1A3D9C" stop-opacity=".03"/><stop offset=".7" stop-color="#1A3D9C" stop-opacity="0"/></radialGradient><radialGradient id="C" cx="0" cy="0" r="1" gradientTransform="rotate(74.876 -6.238 50.928)scale(10.5108 9.84677)" gradientUnits="userSpaceOnUse"><stop stop-color="#1A3D9C" stop-opacity=".8"/><stop offset=".01" stop-color="#1A3D9C" stop-opacity=".78"/><stop offset=".24" stop-color="#1A3D9C" stop-opacity=".45"/><stop offset=".44" stop-color="#1A3D9C" stop-opacity=".2"/><stop offset=".6" stop-color="#1A3D9C" stop-opacity=".05"/><stop offset=".7" stop-color="#1A3D9C" stop-opacity="0"/></radialGradient><radialGradient id="D" cx="0" cy="0" r="1" gradientTransform="rotate(67.359 -19.229 32.058)scale(25.0509 16.4363)" gradientUnits="userSpaceOnUse"><stop stop-color="#1A3D9C"/><stop offset=".4" stop-color="#1A3D9C" stop-opacity=".56"/><stop offset=".48" stop-color="#1A3D9C" stop-opacity=".43"/><stop offset=".69" stop-color="#1A3D9C" stop-opacity=".12"/><stop offset=".79" stop-color="#1A3D9C" stop-opacity="0"/></radialGradient><radialGradient id="E" cx="0" cy="0" r="1" gradientTransform="matrix(4.40178 18.08111 -11.76683 2.8646 16.18 31.58)" gradientUnits="userSpaceOnUse"><stop stop-color="#1A3D9C"/><stop offset=".06" stop-color="#1A3D9C" stop-opacity=".88"/><stop offset=".21" stop-color="#1A3D9C" stop-opacity=".61"/><stop offset=".36" stop-color="#1A3D9C" stop-opacity=".39"/><stop offset=".51" stop-color="#1A3D9C" stop-opacity=".22"/><stop offset=".67" stop-color="#1A3D9C" stop-opacity=".1"/><stop offset=".83" stop-color="#1A3D9C" stop-opacity=".02"/><stop offset="1" stop-color="#1A3D9C" stop-opacity="0"/></radialGradient><radialGradient id="F" cx="0" cy="0" r="1" gradientTransform="matrix(4.40178 18.08111 -11.76683 2.8646 16.18 31.58)" gradientUnits="userSpaceOnUse"><stop stop-color="#1B3E9E"/><stop offset=".06" stop-color="#1B3E9E" stop-opacity=".87"/><stop offset=".21" stop-color="#1B3E9D" stop-opacity=".61"/><stop offset=".36" stop-color="#1A3D9D" stop-opacity=".39"/><stop offset=".52" stop-color="#1A3D9C" stop-opacity=".22"/><stop offset=".67" stop-color="#1A3D9C" stop-opacity=".1"/><stop offset=".83" stop-color="#1A3D9C" stop-opacity=".02"/><stop offset="1" stop-color="#1A3D9C" stop-opacity="0"/></radialGradient><radialGradient id="G" cx="0" cy="0" r="1" gradientTransform="matrix(3.36757 13.83289 -9.00212 2.19153 16.875 29.764)" gradientUnits="userSpaceOnUse"><stop stop-color="#183991"/><stop offset=".03" stop-color="#183992" stop-opacity=".95"/><stop offset=".18" stop-color="#193A95" stop-opacity=".66"/><stop offset=".34" stop-color="#193B97" stop-opacity=".42"/><stop offset=".5" stop-color="#1A3C99" stop-opacity=".24"/><stop offset=".66" stop-color="#1A3D9B" stop-opacity=".1"/><stop offset=".82" stop-color="#1A3D9C" stop-opacity=".03"/><stop offset="1" stop-color="#1A3D9C" stop-opacity="0"/></radialGradient><radialGradient id="H" cx="0" cy="0" r="1" gradientTransform="rotate(87.184 -6.87 26.064)scale(11.2598 9.75343)" gradientUnits="userSpaceOnUse"><stop offset=".04" stop-color="#2453D6" stop-opacity=".6"/><stop offset=".2" stop-color="#2453D6" stop-opacity=".49"/><stop offset=".52" stop-color="#2453D6" stop-opacity=".2"/><stop offset=".73" stop-color="#2453D6" stop-opacity="0"/></radialGradient><linearGradient id="a" x1="3.655" x2="49.952" y1="42.211" y2="23.798" gradientUnits="userSpaceOnUse"><stop offset=".13" stop-color="#1CBBF3"/><stop offset=".34" stop-color="#1F99A5"/><stop offset=".45" stop-color="#209CA6"/><stop offset=".51" stop-color="#24A4AA"/><stop offset=".57" stop-color="#2BB3B0"/><stop offset=".6" stop-color="#30BDB4"/><stop offset=".79" stop-color="#38BA90"/><stop offset="1" stop-color="#60F05A"/></linearGradient><linearGradient id="q" x1="6.624" x2="27.262" y1="12.119" y2="30.913" gradientUnits="userSpaceOnUse"><stop offset=".13" stop-color="#2BF9FF"/><stop offset=".27" stop-color="#29F9FF" stop-opacity=".64"/><stop offset=".4" stop-color="#27FAFF" stop-opacity=".3"/><stop offset=".49" stop-color="#26FAFF" stop-opacity=".08"/><stop offset=".54" stop-color="#26FAFF" stop-opacity="0"/></linearGradient><linearGradient id="r" x1="-4.892" x2="18.918" y1="43.333" y2="36.691" gradientUnits="userSpaceOnUse"><stop stop-color="#26FAFF"/><stop offset=".06" stop-color="#26FAFF" stop-opacity=".88"/><stop offset=".24" stop-color="#26FAFF" stop-opacity=".51"/><stop offset=".39" stop-color="#26FAFF" stop-opacity=".23"/><stop offset=".5" stop-color="#26FAFF" stop-opacity=".06"/><stop offset=".55" stop-color="#26FAFF" stop-opacity="0"/></linearGradient><linearGradient id="s" x1="1.401" x2="28.27" y1="42.492" y2="33.07" gradientUnits="userSpaceOnUse"><stop stop-color="#21DEFF"/><stop offset=".04" stop-color="#21DEFF" stop-opacity=".88"/><stop offset=".17" stop-color="#21DEFF" stop-opacity=".51"/><stop offset=".27" stop-color="#21DEFF" stop-opacity=".23"/><stop offset=".34" stop-color="#21DEFF" stop-opacity=".06"/><stop offset=".38" stop-color="#21DEFF" stop-opacity="0"/></linearGradient><linearGradient id="t" x1="26.84" x2="42.169" y1="28.456" y2="53.056" gradientUnits="userSpaceOnUse"><stop offset=".62" stop-color="#21DEFF" stop-opacity="0"/><stop offset=".66" stop-color="#21DEFF" stop-opacity=".06"/><stop offset=".73" stop-color="#21DEFF" stop-opacity=".23"/><stop offset=".83" stop-color="#21DEFF" stop-opacity=".51"/><stop offset=".96" stop-color="#21DEFF" stop-opacity=".88"/><stop offset="1" stop-color="#21DEFF"/></linearGradient><linearGradient id="u" x1="43.505" x2="41.074" y1="37.73" y2="26.07" gradientUnits="userSpaceOnUse"><stop stop-color="#44B044"/><stop offset=".11" stop-color="#44B044" stop-opacity=".8"/><stop offset=".27" stop-color="#44B044" stop-opacity=".52"/><stop offset=".43" stop-color="#44B044" stop-opacity=".29"/><stop offset=".58" stop-color="#44B044" stop-opacity=".13"/><stop offset=".7" stop-color="#44B044" stop-opacity=".03"/><stop offset=".8" stop-color="#44B044" stop-opacity="0"/></linearGradient><linearGradient id="v" x1="10.644" x2="60.37" y1="25.628" y2="41.825" gradientUnits="userSpaceOnUse"><stop stop-color="#3066FB"/><stop offset=".38" stop-color="#2F64F7"/><stop offset=".74" stop-color="#2857D9"/><stop offset="1" stop-color="#3C7EFF"/></linearGradient><linearGradient id="I" x1="42.852" x2="29.979" y1="5.057" y2="36.366" gradientUnits="userSpaceOnUse"><stop stop-color="#3774FF"/><stop offset=".05" stop-color="#3774FF" stop-opacity=".91"/><stop offset=".16" stop-color="#3774FF" stop-opacity=".66"/><stop offset=".32" stop-color="#3774FF" stop-opacity=".28"/><stop offset=".43" stop-color="#3774FF" stop-opacity="0"/></linearGradient></defs></svg>