<svg xmlns="http://www.w3.org/2000/svg" width="378" height="24" fill="none" viewBox="0 0 378 24"><path fill="#fff" d="M19.948 6.219h3.137l-4.562 13.789h-3.599l-3.41-10.406-3.409 10.406H4.562L0 6.218h3.211l3.237 10.48 3.396-10.48h3.41l3.452 10.536zM36.542 14.22H26.365a4.4 4.4 0 0 0 .777 1.972c.369.512.868.914 1.446 1.166a4.6 4.6 0 0 0 1.864.375 6 6 0 0 0 2.08-.38 6.8 6.8 0 0 0 1.908-1.074l1.498 2.158a7.6 7.6 0 0 1-2.616 1.489c-.988.31-2.02.463-3.055.453a7.3 7.3 0 0 1-3.656-.898 6.37 6.37 0 0 1-2.499-2.546 7.8 7.8 0 0 1-.897-3.807 8 8 0 0 1 .863-3.78 6.36 6.36 0 0 1 2.425-2.56 6.9 6.9 0 0 1 3.57-.915 6.14 6.14 0 0 1 5.692 3.453 8.26 8.26 0 0 1 .829 3.772q.006.436-.052 1.122m-3.021-2.287a4.26 4.26 0 0 0-1.153-2.52 3.2 3.2 0 0 0-2.347-.864 3.38 3.38 0 0 0-2.469.915 4.38 4.38 0 0 0-1.187 2.482zM49.416 6.797a6.7 6.7 0 0 1 2.49 2.59 7.6 7.6 0 0 1 .915 3.729 7.57 7.57 0 0 1-.915 3.724 6.7 6.7 0 0 1-5.981 3.526 5.6 5.6 0 0 1-2.49-.522 5.1 5.1 0 0 1-1.826-1.476v1.64h-3.021V.35h3.02v7.51a5.2 5.2 0 0 1 1.827-1.468 5.6 5.6 0 0 1 2.49-.527 6.7 6.7 0 0 1 3.491.932m-1.648 10.147a3.9 3.9 0 0 0 1.454-1.601 5.18 5.18 0 0 0 0-4.459 3.9 3.9 0 0 0-1.454-1.6 4.4 4.4 0 0 0-4.368 0c-.627.38-1.136.929-1.467 1.583a4.8 4.8 0 0 0-.527 2.262c-.014.784.167 1.56.527 2.257.331.654.84 1.203 1.467 1.584a4.4 4.4 0 0 0 4.368 0zM67.727 14.22H57.555a4.4 4.4 0 0 0 .777 1.972c.368.512.868.914 1.446 1.166a4.6 4.6 0 0 0 1.864.375 6 6 0 0 0 2.08-.38 6.8 6.8 0 0 0 1.908-1.074l1.493 2.158a7.5 7.5 0 0 1-2.611 1.489c-.99.31-2.023.463-3.06.453a7.34 7.34 0 0 1-3.655-.898 6.4 6.4 0 0 1-2.495-2.546 7.8 7.8 0 0 1-.902-3.807 8 8 0 0 1 .863-3.78 6.36 6.36 0 0 1 2.426-2.56 6.9 6.9 0 0 1 3.595-.927 6.15 6.15 0 0 1 5.692 3.452 8.3 8.3 0 0 1 .829 3.772c-.017.302-.048.678-.078 1.135m-3.02-2.287A4.3 4.3 0 0 0 63.55 9.43a3.22 3.22 0 0 0-2.34-.88 3.37 3.37 0 0 0-2.468.914 4.36 4.36 0 0 0-1.187 2.482zM82.077 20.008H78.38l-3.496-4.795-3.453 4.795h-3.526l5.18-7.04-5.098-6.75h3.703l3.367 4.606 3.366-4.605H82l-5.119 6.724zM94.463 6.267a6.17 6.17 0 0 1 4.03 1.128 4.08 4.08 0 0 1 1.39 3.344 3.95 3.95 0 0 1-1.37 3.234 6.3 6.3 0 0 1-4.1 1.139h-2.469v4.906H90V6.267zm-2.519 1.581v5.672h2.478a3.8 3.8 0 0 0 2.62-.715 2.65 2.65 0 0 0 .786-2.015 2.69 2.69 0 0 0-.857-2.196 3.6 3.6 0 0 0-2.468-.756zM100.81 12.855a3.1 3.1 0 0 1 1.279-2.247 4.9 4.9 0 0 1 3.022-.836 5.7 5.7 0 0 1 1.723.242c.466.148.897.388 1.269.705.342.302.61.678.786 1.098.187.44.279.913.272 1.39v6.78h-1.511l-.272-1.32a4.2 4.2 0 0 1-1.31 1.16 3.9 3.9 0 0 1-2.014.483c-.496.01-.99-.066-1.461-.222a3.4 3.4 0 0 1-1.078-.604 2.7 2.7 0 0 1-.675-.897 2.75 2.75 0 0 1-.222-1.128 2.78 2.78 0 0 1 .877-2.156 5.75 5.75 0 0 1 2.881-1.149l2.911-.493v-.504a1.75 1.75 0 0 0-.594-1.41 2.58 2.58 0 0 0-1.703-.494 2.54 2.54 0 0 0-1.601.423 1.73 1.73 0 0 0-.635 1.179zm3.687 5.903a3.08 3.08 0 0 0 1.914-.685c.254-.212.469-.468.635-.755a1.9 1.9 0 0 0 .241-.947v-1.28l-2.468.444a5.5 5.5 0 0 0-1.098.272 2.2 2.2 0 0 0-.685.382c-.156.132-.28.297-.363.484-.073.19-.111.391-.11.594a1.32 1.32 0 0 0 .493 1.108c.425.285.931.42 1.441.383M111.155 20.017v-9.933h1.511l.242 1.47a2.71 2.71 0 0 1 2.529-1.752q.317-.025.634 0l.454.09v1.834a5 5 0 0 0-.554-.12 3 3 0 0 0-.615 0c-.311-.001-.619.06-.907.18a2 2 0 0 0-.755.595c-.236.32-.411.683-.514 1.068a5.6 5.6 0 0 0-.191 1.591v4.987zM122.784 20.119c-.441.12-.894.184-1.35.191a2.53 2.53 0 0 1-2.015-.755 2.9 2.9 0 0 1-.665-2.015v-5.924h-1.471v-1.531h1.471l.111-2.388h1.723v2.388h2.135v1.531h-2.135v5.934c0 .745.352 1.118 1.007 1.118q.242.015.483 0 .327-.048.645-.131zM123.933 20.017v-9.933h1.511l.211 1.26c.346-.49.806-.888 1.34-1.16a3.8 3.8 0 0 1 1.672-.382 3.47 3.47 0 0 1 2.579.947 3.85 3.85 0 0 1 .947 2.79v6.478h-1.843V13.56a2.27 2.27 0 0 0-.544-1.663 2.17 2.17 0 0 0-1.572-.534 2.7 2.7 0 0 0-.947.172c-.291.112-.558.28-.785.493a2.5 2.5 0 0 0-.534.796 2.7 2.7 0 0 0-.202 1.058v6.135zM142.942 17.156a4.1 4.1 0 0 1-.574 1.26 4 4 0 0 1-.937 1.007 5 5 0 0 1-1.3.655 5.3 5.3 0 0 1-1.642.242 5.8 5.8 0 0 1-1.954-.323 4.1 4.1 0 0 1-1.542-1.007 4.6 4.6 0 0 1-1.007-1.642 6.7 6.7 0 0 1-.363-2.307 6.6 6.6 0 0 1 .363-2.287 4.8 4.8 0 0 1 1.007-1.642c.423-.444.94-.788 1.512-1.008a5.4 5.4 0 0 1 1.914-.332 5.5 5.5 0 0 1 1.894.312c.565.21 1.07.556 1.47 1.008a5 5 0 0 1 1.008 1.763c.242.837.358 1.707.342 2.579h-7.565c-.001.937.36 1.84 1.007 2.518.572.52 1.322.802 2.096.786a2.65 2.65 0 0 0 1.561-.453c.4-.28.697-.684.846-1.149zm-4.503-5.883a2.74 2.74 0 0 0-1.884.675 3.3 3.3 0 0 0-1.007 2.015h5.621a2.9 2.9 0 0 0-.856-2.015 2.75 2.75 0 0 0-1.874-.675M144.685 20.017v-9.933h1.511l.241 1.47a2.715 2.715 0 0 1 2.529-1.752q.318-.025.635 0l.453.09v1.834a5 5 0 0 0-.554-.12q-.307-.033-.615 0c-.311-.001-.619.06-.906.18a2 2 0 0 0-.756.595c-.236.32-.41.683-.514 1.068a5.6 5.6 0 0 0-.191 1.591v4.987zM166.808 6.266v13.75h-1.964v-6.134h-6.73v6.135h-1.944V6.266h1.944v5.974h6.73V6.266zM170.746 10.084v6.568a2.154 2.154 0 0 0 .544 1.622c.42.364.967.548 1.521.514.375.012.748-.064 1.088-.222.289-.132.546-.325.756-.564.199-.246.353-.525.453-.826.104-.325.155-.666.151-1.007v-6.045h1.834v9.933h-1.471l-.212-1.138a3.35 3.35 0 0 1-1.299 1.078 4 4 0 0 1-1.683.352 4.2 4.2 0 0 1-1.4-.231 2.9 2.9 0 0 1-1.098-.685 3.1 3.1 0 0 1-.715-1.169 4.9 4.9 0 0 1-.262-1.662v-6.518zM179.188 20.017V6.266h1.844v5.198c.339-.499.791-.91 1.32-1.199a4.03 4.03 0 0 1 2.015-.463 4.5 4.5 0 0 1 1.783.342 3.6 3.6 0 0 1 1.38 1.008c.402.476.707 1.027.896 1.622.222.717.327 1.465.313 2.216a7.2 7.2 0 0 1-.333 2.287 4.6 4.6 0 0 1-.937 1.662c-.397.436-.885.78-1.43 1.007a4.7 4.7 0 0 1-1.813.353 3.77 3.77 0 0 1-3.224-1.602l-.292 1.31zm7.627-5.037a5 5 0 0 0-.222-1.592 3.1 3.1 0 0 0-.605-1.118 2.5 2.5 0 0 0-.916-.655 3 3 0 0 0-1.139-.212c-.397 0-.791.08-1.158.232-.363.15-.69.377-.957.665a3.2 3.2 0 0 0-.645 1.118 4.7 4.7 0 0 0-.242 1.562c-.064 1.005.228 2 .826 2.81a2.69 2.69 0 0 0 2.176 1.008 2.63 2.63 0 0 0 2.096-.917 4.37 4.37 0 0 0 .786-2.942z"/></svg>