<svg xmlns="http://www.w3.org/2000/svg" width="378" height="24" fill="none" viewBox="0 0 378 24"><path fill="#000" d="M19.948 6.219h3.137l-4.562 13.789h-3.599l-3.41-10.406-3.409 10.406H4.562L0 6.218h3.211l3.237 10.48 3.396-10.48h3.41l3.452 10.536zM36.542 14.22H26.365a4.4 4.4 0 0 0 .777 1.972c.369.512.868.914 1.446 1.166a4.6 4.6 0 0 0 1.864.375 6 6 0 0 0 2.08-.38 6.8 6.8 0 0 0 1.908-1.074l1.498 2.158a7.6 7.6 0 0 1-2.616 1.489c-.988.31-2.02.463-3.055.453a7.3 7.3 0 0 1-3.656-.898 6.37 6.37 0 0 1-2.499-2.546 7.8 7.8 0 0 1-.897-3.807 8 8 0 0 1 .863-3.78 6.36 6.36 0 0 1 2.425-2.56 6.9 6.9 0 0 1 3.57-.915 6.14 6.14 0 0 1 5.692 3.453 8.26 8.26 0 0 1 .829 3.772q.006.436-.052 1.122m-3.021-2.287a4.26 4.26 0 0 0-1.153-2.52 3.2 3.2 0 0 0-2.347-.864 3.38 3.38 0 0 0-2.469.915 4.38 4.38 0 0 0-1.187 2.482zM49.416 6.797a6.7 6.7 0 0 1 2.49 2.59 7.6 7.6 0 0 1 .915 3.729 7.57 7.57 0 0 1-.915 3.724 6.7 6.7 0 0 1-5.981 3.526 5.6 5.6 0 0 1-2.49-.522 5.1 5.1 0 0 1-1.826-1.476v1.64h-3.021V.35h3.02v7.51a5.2 5.2 0 0 1 1.827-1.468 5.6 5.6 0 0 1 2.49-.527 6.7 6.7 0 0 1 3.491.932m-1.648 10.147a3.9 3.9 0 0 0 1.454-1.601 5.18 5.18 0 0 0 0-4.459 3.9 3.9 0 0 0-1.454-1.6 4.4 4.4 0 0 0-4.368 0c-.627.38-1.136.929-1.467 1.583a4.8 4.8 0 0 0-.527 2.262c-.014.784.167 1.56.527 2.257.331.654.84 1.203 1.467 1.584a4.4 4.4 0 0 0 4.368 0zM67.727 14.22H57.555a4.4 4.4 0 0 0 .777 1.972c.368.512.868.914 1.446 1.166a4.6 4.6 0 0 0 1.864.375 6 6 0 0 0 2.08-.38 6.8 6.8 0 0 0 1.908-1.074l1.493 2.158a7.5 7.5 0 0 1-2.611 1.489c-.99.31-2.023.463-3.06.453a7.34 7.34 0 0 1-3.655-.898 6.4 6.4 0 0 1-2.495-2.546 7.8 7.8 0 0 1-.902-3.807 8 8 0 0 1 .863-3.78 6.36 6.36 0 0 1 2.426-2.56 6.9 6.9 0 0 1 3.595-.927 6.15 6.15 0 0 1 5.692 3.452 8.3 8.3 0 0 1 .829 3.772c-.017.302-.048.678-.078 1.135m-3.02-2.287A4.3 4.3 0 0 0 63.55 9.43a3.22 3.22 0 0 0-2.34-.88 3.37 3.37 0 0 0-2.468.914 4.36 4.36 0 0 0-1.187 2.482zM82.077 20.008H78.38l-3.496-4.795-3.453 4.795h-3.526l5.18-7.04-5.098-6.75h3.703l3.367 4.606 3.366-4.605H82l-5.119 6.724zM98.98 16.29a2.1 2.1 0 0 0-.17-.84 1.56 1.56 0 0 0-.61-.69 6 6 0 0 0-1.31-.64c-.56-.21-1.31-.44-2.23-.69a11.6 11.6 0 0 1-2-.7 4.5 4.5 0 0 1-1.28-.86 2.64 2.64 0 0 1-.68-1 3.6 3.6 0 0 1-.2-1.27 3 3 0 0 1 .31-1.42 3.1 3.1 0 0 1 1-1.12 4.5 4.5 0 0 1 1.53-.74 7.4 7.4 0 0 1 2.07-.27 7.7 7.7 0 0 1 2 .26 5.5 5.5 0 0 1 1.64.73c.46.306.855.7 1.16 1.16a4 4 0 0 1 .6 1.55h-2a2.13 2.13 0 0 0-1-1.55 4.44 4.44 0 0 0-2.4-.55 5.3 5.3 0 0 0-1.34.14 2.7 2.7 0 0 0-.92.39 1.6 1.6 0 0 0-.53.59 1.6 1.6 0 0 0-.17.72 2 2 0 0 0 .12.71c.113.24.29.444.51.59.336.224.699.406 1.08.54q.922.357 1.88.6 1.21.329 2.36.83c.544.233 1.05.546 1.5.93.351.301.619.687.78 1.12.159.453.237.93.23 1.41a3.6 3.6 0 0 1-.35 1.53 3.8 3.8 0 0 1-1 1.29 5.4 5.4 0 0 1-1.75.91 7.2 7.2 0 0 1-2.27.33 6.8 6.8 0 0 1-2-.3 5.7 5.7 0 0 1-1.73-.82 4.9 4.9 0 0 1-1.2-1.29 4.3 4.3 0 0 1-.61-1.71h2A2.71 2.71 0 0 0 93.08 18a3.9 3.9 0 0 0 2.43.69 5.6 5.6 0 0 0 1.5-.19 3.1 3.1 0 0 0 1.07-.53c.272-.2.494-.46.65-.76a2 2 0 0 0 .25-.92M111.209 17.15a4.6 4.6 0 0 1-.57 1.25c-.25.387-.569.726-.94 1a4.6 4.6 0 0 1-1.29.65 5.2 5.2 0 0 1-1.62.24 5.5 5.5 0 0 1-1.98-.34 4 4 0 0 1-1.53-1 4.55 4.55 0 0 1-1-1.63 6.7 6.7 0 0 1-.36-2.29 6.6 6.6 0 0 1 .36-2.27 4.7 4.7 0 0 1 1-1.63 4.1 4.1 0 0 1 1.5-1 5.3 5.3 0 0 1 1.9-.33 5.4 5.4 0 0 1 1.87.31c.563.206 1.065.55 1.46 1 .457.504.799 1.101 1 1.75.246.83.36 1.695.34 2.56h-7.54a3.62 3.62 0 0 0 1 2.49 2.92 2.92 0 0 0 2.08.79 2.6 2.6 0 0 0 1.54-.45c.403-.275.702-.676.85-1.14zm-4.48-5.84a2.7 2.7 0 0 0-1.86.67 3.23 3.23 0 0 0-1 2h5.58a2.9 2.9 0 0 0-.85-2 2.76 2.76 0 0 0-1.87-.67M117.339 20.09c-.44.119-.893.183-1.35.19a2.49 2.49 0 0 1-2-.75 2.85 2.85 0 0 1-.67-2v-5.88h-1.46v-1.52h1.46l.12-2.37h1.7v2.37h2.13v1.52h-2.13v5.89q0 1.11 1 1.11.236.015.47 0 .329-.048.65-.13zM122.879 20.09c-.44.119-.893.183-1.35.19a2.49 2.49 0 0 1-2-.75 2.85 2.85 0 0 1-.67-2v-5.88h-1.46v-1.52h1.46l.12-2.37h1.7v2.37h2.13v1.52h-2.1v5.89q0 1.11 1 1.11.236.015.47 0 .329-.048.65-.13zM123.899 8.48V6.34h2v2.14zm.11 11.51v-9.86h1.8v9.86zM127.92 19.99v-9.86h1.5l.21 1.25c.343-.485.799-.88 1.33-1.15a3.74 3.74 0 0 1 1.66-.38 3.45 3.45 0 0 1 2.56.94 3.82 3.82 0 0 1 .93 2.77v6.43h-1.82v-6.41a2.24 2.24 0 0 0-.54-1.65 2.15 2.15 0 0 0-1.56-.53c-.321.001-.639.059-.94.17a2.4 2.4 0 0 0-.78.49 2.4 2.4 0 0 0-.53.79c-.136.334-.204.691-.2 1.05v6.09zM139.95 20.65a1.67 1.67 0 0 0 .75 1.16 2.9 2.9 0 0 0 1.69.43 2.94 2.94 0 0 0 2.09-.66 2.5 2.5 0 0 0 .7-1.9v-1.26a3.5 3.5 0 0 1-1.32.94 5 5 0 0 1-2 .35 4.4 4.4 0 0 1-1.66-.32 4 4 0 0 1-1.38-.94 4.5 4.5 0 0 1-1-1.53 5.7 5.7 0 0 1-.36-2.09 6.2 6.2 0 0 1 .32-2.08 4.45 4.45 0 0 1 .91-1.58c.386-.437.869-.78 1.41-1a4.7 4.7 0 0 1 1.83-.34 3.9 3.9 0 0 1 2 .44c.502.283.933.676 1.26 1.15l.28-1.31h1.5v9.66a4 4 0 0 1-.3 1.55c-.199.473-.5.897-.88 1.24a4.2 4.2 0 0 1-1.43.82 6 6 0 0 1-1.94.29 5.1 5.1 0 0 1-3.1-.82 3.43 3.43 0 0 1-1.33-2.2zm-.52-5.79c-.006.477.072.951.23 1.4.139.372.349.712.62 1 .254.276.565.494.91.64a3 3 0 0 0 1.11.21 2.8 2.8 0 0 0 2.2-.86c.549-.659.828-1.502.78-2.36a3.78 3.78 0 0 0-.83-2.64 2.81 2.81 0 0 0-2.15-.89 2.74 2.74 0 0 0-2.06.85 3.7 3.7 0 0 0-.81 2.66zM154.809 17.32a1.25 1.25 0 0 0-.19-.72 1.7 1.7 0 0 0-.57-.48 6 6 0 0 0-.9-.33l-1.2-.29a5.5 5.5 0 0 1-2.49-1.06 2.32 2.32 0 0 1-.75-1.79 2.48 2.48 0 0 1 1-2 5.52 5.52 0 0 1 5.59 0 3.18 3.18 0 0 1 1.31 2.12h-1.8a1.68 1.68 0 0 0-.7-1.06 2.57 2.57 0 0 0-1.5-.38 2.6 2.6 0 0 0-1.5.34 1 1 0 0 0-.47.85c-.004.172.027.342.09.5.072.161.191.297.34.39q.326.217.7.33.571.186 1.16.3c.57.13 1.09.27 1.57.43.429.132.834.331 1.2.59.323.232.587.537.77.89.193.399.285.838.27 1.28a2.773 2.773 0 0 1-1.08 2.24 3.9 3.9 0 0 1-1.29.64 6 6 0 0 1-1.74.23 4.82 4.82 0 0 1-3-.85 3.06 3.06 0 0 1-1.26-2.26h1.86a1.77 1.77 0 0 0 .76 1.28 3 3 0 0 0 1.65.39 2.77 2.77 0 0 0 1.69-.44 1.33 1.33 0 0 0 .48-1.14"/></svg>