<svg xmlns="http://www.w3.org/2000/svg" width="32" height="32" viewBox="0 0 32 32"><path d="M22 19H10a2.003 2.003 0 0 0-2 2v4a2.003 2.003 0 0 0 2 2h12a2.003 2.003 0 0 0 2-2v-4a2.003 2.003 0 0 0-2-2Zm-12 6v-4h12l.001 4H10ZM25 5H7a5.006 5.006 0 0 0-5 5v2a5.006 5.006 0 0 0 5 5h18a5.005 5.005 0 0 0 5-5v-2a5.006 5.006 0 0 0-5-5Zm3 7a3.003 3.003 0 0 1-3 3H7a3.003 3.003 0 0 1-3-3v-2a3.003 3.003 0 0 1 3-3h18a3.003 3.003 0 0 1 3 3v2Z"/><path d="M15.976 10H11a1 1 0 0 0 0 2h4.976a1 1 0 1 0 0-2ZM20.5 12.25a1.25 1.25 0 1 0 0-2.5 1.25 1.25 0 0 0 0 2.5Z"/></svg>