<svg xmlns="http://www.w3.org/2000/svg" width="238" height="68" fill="none" viewBox="0 0 238 68"><g fill="#fff" clip-path="url(#a)"><path d="M5.82 19.7c-2.846.216-5.193 3.233-4.77 6.33.131 1.132.421 2.883.79 4.795.158.862.343 1.778.527 2.667a63 63 0 0 0 1.714 6.357 53 53 0 0 0 2.663 6.761c3.98 7.92 9.359 9.59 13.181 9.59 1.795.015 3.573-.36 5.215-1.104a12.6 12.6 0 0 0 4.302-3.206 19 19 0 0 1-1.766-2.775c-1.687-3.178-2.768-6.842-3.691-10.667a25 25 0 0 1-1.687 4.418c-1.107 2.101-1.872 2.101-2.373 2.101-1.08 0-2.214-1.185-3.374-3.475a38 38 0 0 1-1.582-3.852 59 59 0 0 1-.896-2.855c-.264-.943-.739-2.613-.95-3.663-.553-2.56-1.212-6.762-1.239-6.896-.237-1.212-1.634-4.903-6.063-4.526M52.036 31.014c2.82-1.105 4.007-4.607 2.742-7.435l-.106-.27a24 24 0 0 0-1.793-3.312 11.6 11.6 0 0 0-1.107-1.563c-3.612-4.525-7.856-5.333-10.44-5.333a12.4 12.4 0 0 0-5.213 1.106 12.64 12.64 0 0 0-4.304 3.204 18 18 0 0 1 1.661 2.585c1.767 3.26 2.874 7.731 3.797 11.53.5-1.724 1.08-3.933 1.74-5.172 1.08-2.02 1.819-2.02 2.32-2.02 1.502 0 2.715 2.262 3.295 3.582 0 0 2.083 5.226 7.408 3.098"/><path d="m55.489 19.7-.501-.054h-.132q.826 1.409 1.476 2.91l.132.269a7.67 7.67 0 0 1 .169 5.728 7.45 7.45 0 0 1-3.833 4.185 7.4 7.4 0 0 1-3.032.673 8 8 0 0 1-2.11-.323c-.737 2.828-1.897 6.303-2.952 8.404s-2.293 3.475-3.4 3.475c-.475 0-1.24 0-2.347-2.101a25 25 0 0 1-1.687-4.418 86 86 0 0 1-.976-3.77c-.131-.486-.237-.97-.342-1.456-1.002-4.256-2.136-8.727-4.087-12.31a20 20 0 0 0-1.239-1.993 18 18 0 0 0-1.186-1.508 12.65 12.65 0 0 0-4.316-3.21 12.4 12.4 0 0 0-5.227-1.1c-2.558 0-6.802.808-10.414 5.333a7.4 7.4 0 0 1 2.876 2.358 7.6 7.6 0 0 1 1.395 3.487c.185 1.347.633 3.96 1.16 6.438.053.27.106.54.185.835.395-1.05.79-1.939 1.212-2.936l.317-.7c.58-1.32 1.792-3.583 3.269-3.583.527 0 1.265 0 2.346 2.02a24.3 24.3 0 0 1 1.74 4.526c.343 1.212.685 2.505.975 3.798.106.377.185.754.264 1.132 1.055 4.498 2.162 8.835 4.06 12.417q.59 1.144 1.344 2.182.555.773 1.187 1.482c3.137 3.475 6.749 4.31 9.49 4.31 3.823 0 9.227-1.67 13.208-9.59 2.03-4.067 3.744-10.074 4.376-13.118s1.108-5.791 1.319-7.462c.1-.732.057-1.478-.127-2.194a5.7 5.7 0 0 0-.942-1.975 5.5 5.5 0 0 0-1.614-1.454 5.4 5.4 0 0 0-2.036-.707M113.895 24.744h6.275L111.047 52.1h-7.199l-6.819-20.643L90.21 52.1h-7.086L74 24.744h6.422l6.474 20.789 6.793-20.789h6.819l6.905 20.9zM147.084 40.619H126.73a8.7 8.7 0 0 0 1.554 3.912 7 7 0 0 0 2.892 2.312 9.2 9.2 0 0 0 3.728.745c1.421-.005 2.83-.26 4.161-.753 1.38-.5 2.668-1.221 3.815-2.132l2.995 4.28a15.2 15.2 0 0 1-5.231 2.955 19.9 19.9 0 0 1-6.111.898 14.7 14.7 0 0 1-7.311-1.78 12.68 12.68 0 0 1-4.997-5.052 15.4 15.4 0 0 1-1.796-7.552 15.8 15.8 0 0 1 1.727-7.5 12.67 12.67 0 0 1 4.85-5.077 13.84 13.84 0 0 1 7.139-1.815c2.361-.065 4.69.547 6.709 1.761a12.2 12.2 0 0 1 4.676 5.088 16.3 16.3 0 0 1 1.657 7.483c.009.574-.026 1.319-.103 2.226m-6.043-4.538a8.43 8.43 0 0 0-2.304-5 6.459 6.459 0 0 0-4.696-1.713 6.8 6.8 0 0 0-2.654.41 6.8 6.8 0 0 0-2.283 1.405 8.66 8.66 0 0 0-2.374 4.923zM172.831 25.892a13.37 13.37 0 0 1 4.981 5.137 14.96 14.96 0 0 1 1.83 7.398 14.93 14.93 0 0 1-1.83 7.389 13.34 13.34 0 0 1-4.997 5.155 13.5 13.5 0 0 1-6.967 1.84 11.35 11.35 0 0 1-4.98-1.036 10.25 10.25 0 0 1-3.651-2.928V52.1h-6.042v-39h6.042v14.898a10.35 10.35 0 0 1 3.651-2.911 11.2 11.2 0 0 1 4.98-1.045c2.455-.03 4.871.61 6.983 1.85m-3.297 20.13a7.73 7.73 0 0 0 2.909-3.177 10.2 10.2 0 0 0 0-8.845 7.8 7.8 0 0 0-2.909-3.177 8.85 8.85 0 0 0-8.735 0 7.84 7.84 0 0 0-2.935 3.143 9.4 9.4 0 0 0-1.053 4.486 9.37 9.37 0 0 0 1.053 4.478 7.84 7.84 0 0 0 2.935 3.142 8.85 8.85 0 0 0 8.735 0zM209.455 40.618h-20.344a8.7 8.7 0 0 0 1.553 3.913 7 7 0 0 0 2.892 2.312 9.2 9.2 0 0 0 3.729.745 12.2 12.2 0 0 0 4.16-.754c1.38-.5 2.669-1.22 3.815-2.132l2.987 4.282a15.1 15.1 0 0 1-5.222 2.953c-1.98.615-4.045.919-6.12.9a14.77 14.77 0 0 1-7.311-1.782 12.7 12.7 0 0 1-4.989-5.051 15.4 15.4 0 0 1-1.804-7.552 15.8 15.8 0 0 1 1.726-7.5 12.67 12.67 0 0 1 4.851-5.077 13.84 13.84 0 0 1 7.19-1.841 12.4 12.4 0 0 1 6.707 1.766 12.24 12.24 0 0 1 4.678 5.083 16.3 16.3 0 0 1 1.658 7.484c-.035.599-.095 1.344-.156 2.251m-6.042-4.538a8.48 8.48 0 0 0-2.313-4.965 6.4 6.4 0 0 0-2.161-1.343 6.5 6.5 0 0 0-2.517-.404 6.78 6.78 0 0 0-4.938 1.815 8.6 8.6 0 0 0-2.373 4.923zM238.156 52.1h-7.398l-6.991-9.512-6.905 9.512h-7.052l10.357-13.965-10.193-13.39h7.405l6.733 9.135 6.733-9.136H238l-10.237 13.34z"/></g><defs><clipPath id="a"><path fill="#fff" d="M0 .1h238v67H0z"/></clipPath></defs></svg>