<svg xmlns="http://www.w3.org/2000/svg" width="32" height="32" viewBox="0 0 32 32"><path d="M29.765 18.817a4.57 4.57 0 0 0-2.997-4.108 3 3 0 1 0-4.506 0 5.4 5.4 0 0 0-1.396.858 9.2 9.2 0 0 0-1.921-.857 4.75 4.75 0 1 0-5.86 0 9.2 9.2 0 0 0-1.94.868 5.4 5.4 0 0 0-1.406-.867 3 3 0 1 0-4.506 0 4.57 4.57 0 0 0-2.997 4.11c0 .592.335 1.403 1.932 1.902 1.03.289 2.095.432 3.164.425a7 7 0 0 0-.067.923c0 .88.524 2.099 3.018 2.91 1.862.543 3.794.802 5.733.769 4.036 0 8.75-.963 8.75-3.679a7 7 0 0 0-.067-.925c2.483-.03 5.066-.651 5.066-2.329m-5.25-7.568a1.5 1.5 0 1 1 0 3 1.5 1.5 0 0 1 0-3M12.765 11a3.25 3.25 0 1 1 6.502 0 3.25 3.25 0 0 1-6.502 0m-5.28.252a1.5 1.5 0 1 1 0 3 1.5 1.5 0 0 1 0-3m.216 8.394c-.074.001-.139.006-.215.006-2.456 0-3.662-.593-3.75-.832 0-1.692 1.682-3.068 3.75-3.068a4.23 4.23 0 0 1 2.41.738 7.76 7.76 0 0 0-2.195 3.156m8.315 4.604c-4.338 0-7.25-1.126-7.25-2.179 0-3.485 3.252-6.321 7.25-6.321 3.997 0 7.25 2.836 7.25 6.321 0 1.053-2.913 2.179-7.25 2.179m8.499-4.602c-.067 0-.122-.004-.187-.005a7.76 7.76 0 0 0-2.21-3.166 4.23 4.23 0 0 1 2.397-.728c2.065 0 3.747 1.374 3.75 3.063-.1.25-1.308.836-3.75.836"/></svg>