<svg xmlns="http://www.w3.org/2000/svg" width="239" height="78" fill="none" viewBox="0 0 239 78"><path fill="url(#a)" d="M19.387 50.03C8.414 50.03 4.68 36.162 3.843 33.464A75 75 0 0 1 1.035 19.95c-.39-3.695 2.575-6.266 5.83-6.266a5.504 5.504 0 0 1 5.704 5.05 61 61 0 0 0 2.34 11.444c1.85 5.9 3.812 8.168 5.225 8.168 2.282 0 3.674-5.856 4.905-11.433.907-4.109 1.888-8.249 3.823-11.926C32.229 8.589 37.317 7.1 41.712 7.1c9.639 0 14.462 11.158 14.462 14.05a5.73 5.73 0 0 1-5.652 6.063c-3.739 0-5.006-2.503-6.072-4.697-.96-1.974-1.962-3.615-3.258-3.615a1.68 1.68 0 0 0-1.185.586c-3.22 3.27-4.3 20.378-10.738 26.917-3.57 3.625-7.453 3.625-9.882 3.625"/><path fill="url(#b)" d="M19.387 50.03C8.414 50.03 4.68 36.162 3.843 33.464A75 75 0 0 1 1.035 19.95c-.39-3.695 2.575-6.266 5.83-6.266a5.504 5.504 0 0 1 5.704 5.05 61 61 0 0 0 2.34 11.444c1.85 5.9 3.812 8.168 5.225 8.168 2.282 0 3.674-5.856 4.905-11.433.907-4.109 1.888-8.249 3.823-11.926C32.229 8.589 37.317 7.1 41.712 7.1c9.639 0 14.462 11.158 14.462 14.05a5.73 5.73 0 0 1-5.652 6.063c-3.739 0-5.006-2.503-6.072-4.697-.96-1.974-1.962-3.615-3.258-3.615a1.68 1.68 0 0 0-1.185.586c-3.22 3.27-4.3 20.378-10.738 26.917-3.57 3.625-7.453 3.625-9.882 3.625"/><path fill="url(#c)" d="M19.387 50.03C8.414 50.03 4.68 36.162 3.843 33.464A75 75 0 0 1 1.035 19.95c-.39-3.695 2.575-6.266 5.83-6.266a5.504 5.504 0 0 1 5.704 5.05 61 61 0 0 0 2.34 11.444c1.85 5.9 3.812 8.168 5.225 8.168 2.282 0 3.674-5.856 4.905-11.433.907-4.109 1.888-8.249 3.823-11.926C32.229 8.589 37.317 7.1 41.712 7.1c9.639 0 14.462 11.158 14.462 14.05a5.73 5.73 0 0 1-5.652 6.063c-3.739 0-5.006-2.503-6.072-4.697-.96-1.974-1.962-3.615-3.258-3.615a1.68 1.68 0 0 0-1.185.586c-3.22 3.27-4.3 20.378-10.738 26.917-3.57 3.625-7.453 3.625-9.882 3.625"/><path fill="url(#d)" d="M19.387 50.03C8.414 50.03 4.68 36.162 3.843 33.464A75 75 0 0 1 1.035 19.95c-.39-3.695 2.575-6.266 5.83-6.266a5.504 5.504 0 0 1 5.704 5.05 61 61 0 0 0 2.34 11.444c1.85 5.9 3.812 8.168 5.225 8.168 2.282 0 3.674-5.856 4.905-11.433.907-4.109 1.888-8.249 3.823-11.926C32.229 8.589 37.317 7.1 41.712 7.1c9.639 0 14.462 11.158 14.462 14.05a5.73 5.73 0 0 1-5.652 6.063c-3.739 0-5.006-2.503-6.072-4.697-.96-1.974-1.962-3.615-3.258-3.615a1.68 1.68 0 0 0-1.185.586c-3.22 3.27-4.3 20.378-10.738 26.917-3.57 3.625-7.453 3.625-9.882 3.625"/><path fill="url(#e)" d="M19.387 50.03C8.414 50.03 4.68 36.162 3.843 33.464A75 75 0 0 1 1.035 19.95c-.39-3.695 2.575-6.266 5.83-6.266a5.504 5.504 0 0 1 5.704 5.05 61 61 0 0 0 2.34 11.444c1.85 5.9 3.812 8.168 5.225 8.168 2.282 0 3.674-5.856 4.905-11.433.907-4.109 1.888-8.249 3.823-11.926C32.229 8.589 37.317 7.1 41.712 7.1c9.639 0 14.462 11.158 14.462 14.05a5.73 5.73 0 0 1-5.652 6.063c-3.739 0-5.006-2.503-6.072-4.697-.96-1.974-1.962-3.615-3.258-3.615a1.68 1.68 0 0 0-1.185.586c-3.22 3.27-4.3 20.378-10.738 26.917-3.57 3.625-7.453 3.625-9.882 3.625"/><path fill="url(#f)" d="M19.387 50.03C8.414 50.03 4.68 36.162 3.843 33.464A75 75 0 0 1 1.035 19.95c-.39-3.695 2.575-6.266 5.83-6.266a5.504 5.504 0 0 1 5.704 5.05 61 61 0 0 0 2.34 11.444c1.85 5.9 3.812 8.168 5.225 8.168 2.282 0 3.674-5.856 4.905-11.433.907-4.109 1.888-8.249 3.823-11.926C32.229 8.589 37.317 7.1 41.712 7.1c9.639 0 14.462 11.158 14.462 14.05a5.73 5.73 0 0 1-5.652 6.063c-3.739 0-5.006-2.503-6.072-4.697-.96-1.974-1.962-3.615-3.258-3.615a1.68 1.68 0 0 0-1.185.586c-3.22 3.27-4.3 20.378-10.738 26.917-3.57 3.625-7.453 3.625-9.882 3.625"/><path fill="url(#g)" d="M19.387 50.03C8.414 50.03 4.68 36.162 3.843 33.464A75 75 0 0 1 1.035 19.95c-.39-3.695 2.575-6.266 5.83-6.266a5.504 5.504 0 0 1 5.704 5.05 61 61 0 0 0 2.34 11.444c1.85 5.9 3.812 8.168 5.225 8.168 2.282 0 3.674-5.856 4.905-11.433.907-4.109 1.888-8.249 3.823-11.926C32.229 8.589 37.317 7.1 41.712 7.1c9.639 0 14.462 11.158 14.462 14.05a5.73 5.73 0 0 1-5.652 6.063c-3.739 0-5.006-2.503-6.072-4.697-.96-1.974-1.962-3.615-3.258-3.615a1.68 1.68 0 0 0-1.185.586c-3.22 3.27-4.3 20.378-10.738 26.917-3.57 3.625-7.453 3.625-9.882 3.625"/><path fill="url(#h)" d="M19.387 50.03C8.414 50.03 4.68 36.162 3.843 33.464A75 75 0 0 1 1.035 19.95c-.39-3.695 2.575-6.266 5.83-6.266a5.504 5.504 0 0 1 5.704 5.05 61 61 0 0 0 2.34 11.444c1.85 5.9 3.812 8.168 5.225 8.168 2.282 0 3.674-5.856 4.905-11.433.907-4.109 1.888-8.249 3.823-11.926C32.229 8.589 37.317 7.1 41.712 7.1c9.639 0 14.462 11.158 14.462 14.05a5.73 5.73 0 0 1-5.652 6.063c-3.739 0-5.006-2.503-6.072-4.697-.96-1.974-1.962-3.615-3.258-3.615a1.68 1.68 0 0 0-1.185.586c-3.22 3.27-4.3 20.378-10.738 26.917-3.57 3.625-7.453 3.625-9.882 3.625"/><path fill="url(#i)" d="M41.711 7.1c-4.395 0-9.483 1.489-12.85 7.887-1.936 3.677-2.917 7.818-3.823 11.926-.299 1.352-.607 2.72-.934 4.018v18.59a11.54 11.54 0 0 0 5.164-3.117c6.438-6.538 7.518-23.647 10.738-26.917a1.69 1.69 0 0 1 1.185-.585c1.296 0 2.298 1.64 3.258 3.614 1.066 2.194 2.333 4.697 6.072 4.697a5.73 5.73 0 0 0 5.652-6.064c0-2.89-4.823-14.049-14.462-14.049"/><path fill="url(#j)" d="M19.387 50.03C8.414 50.03 4.68 36.162 3.843 33.464A75 75 0 0 1 1.035 19.95c-.39-3.695 2.575-6.266 5.83-6.266a5.504 5.504 0 0 1 5.704 5.05 61 61 0 0 0 2.34 11.444c1.85 5.9 3.812 8.168 5.225 8.168 2.282 0 3.674-5.856 4.905-11.433.907-4.109 1.888-8.249 3.823-11.926C32.229 8.589 37.317 7.1 41.712 7.1c9.639 0 14.462 11.158 14.462 14.05a5.73 5.73 0 0 1-5.652 6.063c-3.739 0-5.006-2.503-6.072-4.697-.96-1.974-1.962-3.615-3.258-3.615a1.68 1.68 0 0 0-1.185.586c-3.22 3.27-4.3 20.378-10.738 26.917-3.57 3.625-7.453 3.625-9.882 3.625"/><path fill="url(#k)" d="M19.387 50.03C8.414 50.03 4.68 36.162 3.843 33.464A75 75 0 0 1 1.035 19.95c-.39-3.695 2.575-6.266 5.83-6.266a5.504 5.504 0 0 1 5.704 5.05 61 61 0 0 0 2.34 11.444c1.85 5.9 3.812 8.168 5.225 8.168 2.282 0 3.674-5.856 4.905-11.433.907-4.109 1.888-8.249 3.823-11.926C32.229 8.589 37.317 7.1 41.712 7.1c9.639 0 14.462 11.158 14.462 14.05a5.73 5.73 0 0 1-5.652 6.063c-3.739 0-5.006-2.503-6.072-4.697-.96-1.974-1.962-3.615-3.258-3.615a1.68 1.68 0 0 0-1.185.586c-3.22 3.27-4.3 20.378-10.738 26.917-3.57 3.625-7.453 3.625-9.882 3.625"/><path fill="url(#l)" d="M19.387 50.03C8.414 50.03 4.68 36.162 3.843 33.464A75 75 0 0 1 1.035 19.95c-.39-3.695 2.575-6.266 5.83-6.266a5.504 5.504 0 0 1 5.704 5.05 61 61 0 0 0 2.34 11.444c1.85 5.9 3.812 8.168 5.225 8.168 2.282 0 3.674-5.856 4.905-11.433.907-4.109 1.888-8.249 3.823-11.926C32.229 8.589 37.317 7.1 41.712 7.1c9.639 0 14.462 11.158 14.462 14.05a5.73 5.73 0 0 1-5.652 6.063c-3.739 0-5.006-2.503-6.072-4.697-.96-1.974-1.962-3.615-3.258-3.615a1.68 1.68 0 0 0-1.185.586c-3.22 3.27-4.3 20.378-10.738 26.917-3.57 3.625-7.453 3.625-9.882 3.625"/><path fill="url(#m)" d="M19.387 50.03C8.414 50.03 4.68 36.162 3.843 33.464A75 75 0 0 1 1.035 19.95c-.39-3.695 2.575-6.266 5.83-6.266a5.504 5.504 0 0 1 5.704 5.05 61 61 0 0 0 2.34 11.444c1.85 5.9 3.812 8.168 5.225 8.168 2.282 0 3.674-5.856 4.905-11.433.907-4.109 1.888-8.249 3.823-11.926C32.229 8.589 37.317 7.1 41.712 7.1c9.639 0 14.462 11.158 14.462 14.05a5.73 5.73 0 0 1-5.652 6.063c-3.739 0-5.006-2.503-6.072-4.697-.96-1.974-1.962-3.615-3.258-3.615a1.68 1.68 0 0 0-1.185.586c-3.22 3.27-4.3 20.378-10.738 26.917-3.57 3.625-7.453 3.625-9.882 3.625"/><path fill="url(#n)" d="M19.387 50.03C8.414 50.03 4.68 36.162 3.843 33.464A75 75 0 0 1 1.035 19.95c-.39-3.695 2.575-6.266 5.83-6.266a5.504 5.504 0 0 1 5.704 5.05 61 61 0 0 0 2.34 11.444c1.85 5.9 3.812 8.168 5.225 8.168 2.282 0 3.674-5.856 4.905-11.433.907-4.109 1.888-8.249 3.823-11.926C32.229 8.589 37.317 7.1 41.712 7.1c9.639 0 14.462 11.158 14.462 14.05a5.73 5.73 0 0 1-5.652 6.063c-3.739 0-5.006-2.503-6.072-4.697-.96-1.974-1.962-3.615-3.258-3.615a1.68 1.68 0 0 0-1.185.586c-3.22 3.27-4.3 20.378-10.738 26.917-3.57 3.625-7.453 3.625-9.882 3.625"/><path fill="url(#o)" d="M19.387 50.03C8.414 50.03 4.68 36.162 3.843 33.464A75 75 0 0 1 1.035 19.95c-.39-3.695 2.575-6.266 5.83-6.266a5.504 5.504 0 0 1 5.704 5.05 61 61 0 0 0 2.34 11.444c1.85 5.9 3.812 8.168 5.225 8.168 2.282 0 3.674-5.856 4.905-11.433.907-4.109 1.888-8.249 3.823-11.926C32.229 8.589 37.317 7.1 41.712 7.1c9.639 0 14.462 11.158 14.462 14.05a5.73 5.73 0 0 1-5.652 6.063c-3.739 0-5.006-2.503-6.072-4.697-.96-1.974-1.962-3.615-3.258-3.615a1.68 1.68 0 0 0-1.185.586c-3.22 3.27-4.3 20.378-10.738 26.917-3.57 3.625-7.453 3.625-9.882 3.625"/><path fill="#EFEFEF" d="M54.396 13.684q-.655 0-1.3.125c2.038 2.936 3.057 6.011 3.057 7.34a5.82 5.82 0 0 1-2.843 5.25c-.904.536-2.469.796-2.968.796s-2.124-.303-3.025-.844v.124c-.24.958-.43 2.008-.758 3.03a40 40 0 0 1-2.391 5.941c-.98 1.871-1.95 2.966-3.106 2.909-1.315-.066-2.38-1.76-3.706-6.545-.427-1.543-.823-3.235-1.19-4.897-.909-4.12-2.025-8.264-3.934-11.926A14.03 14.03 0 0 0 19.549 7.1c-3.938 0-6.88 1.863-9.19 4.21a19 19 0 0 0-2.038 2.55 5.37 5.37 0 0 1 4.227 4.874 61.7 61.7 0 0 0 1.893 9.942 51 51 0 0 1 2.37-6.16 11 11 0 0 1 1.83-2.854 1.98 1.98 0 0 1 1.363-.721c.44 0 1.94.402 3.401 5.525 1.813 6.354 3.161 16.465 8.3 21.834 2.266 2.368 5.438 3.9 9.833 3.9a12.96 12.96 0 0 0 9.365-4.058c3.77-3.882 5.835-10.301 6.572-12.676a72.8 72.8 0 0 0 2.752-13.516c.39-3.695-2.725-6.266-5.83-6.266"/><path fill="url(#p)" d="M54.396 13.684q-.655 0-1.3.125c2.038 2.936 3.057 6.011 3.057 7.34a5.82 5.82 0 0 1-2.843 5.25c-.904.536-2.469.796-2.968.796s-2.124-.303-3.025-.844v.124c-.24.958-.43 2.008-.758 3.03a40 40 0 0 1-2.391 5.941c-.98 1.871-1.95 2.966-3.106 2.909-1.315-.066-2.38-1.76-3.706-6.545-.427-1.543-.823-3.235-1.19-4.897-.909-4.12-2.025-8.264-3.934-11.926A14.03 14.03 0 0 0 19.549 7.1c-3.938 0-6.88 1.863-9.19 4.21a19 19 0 0 0-2.038 2.55 5.37 5.37 0 0 1 4.227 4.874 61.7 61.7 0 0 0 1.893 9.942 51 51 0 0 1 2.37-6.16 11 11 0 0 1 1.83-2.854 1.98 1.98 0 0 1 1.363-.721c.44 0 1.94.402 3.401 5.525 1.813 6.354 3.161 16.465 8.3 21.834 2.266 2.368 5.438 3.9 9.833 3.9a12.96 12.96 0 0 0 9.365-4.058c3.77-3.882 5.835-10.301 6.572-12.676a72.8 72.8 0 0 0 2.752-13.516c.39-3.695-2.725-6.266-5.83-6.266"/><path fill="url(#q)" d="M54.396 13.684q-.655 0-1.3.125c2.038 2.936 3.057 6.011 3.057 7.34a5.82 5.82 0 0 1-2.843 5.25c-.904.536-2.469.796-2.968.796s-2.124-.303-3.025-.844v.124c-.24.958-.43 2.008-.758 3.03a40 40 0 0 1-2.391 5.941c-.98 1.871-1.95 2.966-3.106 2.909-1.315-.066-2.38-1.76-3.706-6.545-.427-1.543-.823-3.235-1.19-4.897-.909-4.12-2.025-8.264-3.934-11.926A14.03 14.03 0 0 0 19.549 7.1c-3.938 0-6.88 1.863-9.19 4.21a19 19 0 0 0-2.038 2.55 5.37 5.37 0 0 1 4.227 4.874 61.7 61.7 0 0 0 1.893 9.942 51 51 0 0 1 2.37-6.16 11 11 0 0 1 1.83-2.854 1.98 1.98 0 0 1 1.363-.721c.44 0 1.94.402 3.401 5.525 1.813 6.354 3.161 16.465 8.3 21.834 2.266 2.368 5.438 3.9 9.833 3.9a12.96 12.96 0 0 0 9.365-4.058c3.77-3.882 5.835-10.301 6.572-12.676a72.8 72.8 0 0 0 2.752-13.516c.39-3.695-2.725-6.266-5.83-6.266"/><path fill="url(#r)" d="M54.396 13.684q-.655 0-1.3.125c2.038 2.936 3.057 6.011 3.057 7.34a5.82 5.82 0 0 1-2.843 5.25c-.904.536-2.469.796-2.968.796s-2.124-.303-3.025-.844v.124c-.24.958-.43 2.008-.758 3.03a40 40 0 0 1-2.391 5.941c-.98 1.871-1.95 2.966-3.106 2.909-1.315-.066-2.38-1.76-3.706-6.545-.427-1.543-.823-3.235-1.19-4.897-.909-4.12-2.025-8.264-3.934-11.926A14.03 14.03 0 0 0 19.549 7.1c-3.938 0-6.88 1.863-9.19 4.21a19 19 0 0 0-2.038 2.55 5.37 5.37 0 0 1 4.227 4.874 61.7 61.7 0 0 0 1.893 9.942 51 51 0 0 1 2.37-6.16 11 11 0 0 1 1.83-2.854 1.98 1.98 0 0 1 1.363-.721c.44 0 1.94.402 3.401 5.525 1.813 6.354 3.161 16.465 8.3 21.834 2.266 2.368 5.438 3.9 9.833 3.9a12.96 12.96 0 0 0 9.365-4.058c3.77-3.882 5.835-10.301 6.572-12.676a72.8 72.8 0 0 0 2.752-13.516c.39-3.695-2.725-6.266-5.83-6.266"/><path fill="url(#s)" d="M54.396 13.684q-.655 0-1.3.125c2.038 2.936 3.057 6.011 3.057 7.34a5.82 5.82 0 0 1-2.843 5.25c-.904.536-2.469.796-2.968.796s-2.124-.303-3.025-.844v.124c-.24.958-.43 2.008-.758 3.03a40 40 0 0 1-2.391 5.941c-.98 1.871-1.95 2.966-3.106 2.909-1.315-.066-2.38-1.76-3.706-6.545-.427-1.543-.823-3.235-1.19-4.897-.909-4.12-2.025-8.264-3.934-11.926A14.03 14.03 0 0 0 19.549 7.1c-3.938 0-6.88 1.863-9.19 4.21a19 19 0 0 0-2.038 2.55 5.37 5.37 0 0 1 4.227 4.874 61.7 61.7 0 0 0 1.893 9.942 51 51 0 0 1 2.37-6.16 11 11 0 0 1 1.83-2.854 1.98 1.98 0 0 1 1.363-.721c.44 0 1.94.402 3.401 5.525 1.813 6.354 3.161 16.465 8.3 21.834 2.266 2.368 5.438 3.9 9.833 3.9a12.96 12.96 0 0 0 9.365-4.058c3.77-3.882 5.835-10.301 6.572-12.676a72.8 72.8 0 0 0 2.752-13.516c.39-3.695-2.725-6.266-5.83-6.266"/><path fill="url(#t)" d="M54.396 13.684q-.655 0-1.3.125c2.038 2.936 3.057 6.011 3.057 7.34a5.82 5.82 0 0 1-2.843 5.25c-.904.536-2.469.796-2.968.796s-2.124-.303-3.025-.844v.124c-.24.958-.43 2.008-.758 3.03a40 40 0 0 1-2.391 5.941c-.98 1.871-1.95 2.966-3.106 2.909-1.315-.066-2.38-1.76-3.706-6.545-.427-1.543-.823-3.235-1.19-4.897-.909-4.12-2.025-8.264-3.934-11.926A14.03 14.03 0 0 0 19.549 7.1c-3.938 0-6.88 1.863-9.19 4.21a19 19 0 0 0-2.038 2.55 5.37 5.37 0 0 1 4.227 4.874 61.7 61.7 0 0 0 1.893 9.942 51 51 0 0 1 2.37-6.16 11 11 0 0 1 1.83-2.854 1.98 1.98 0 0 1 1.363-.721c.44 0 1.94.402 3.401 5.525 1.813 6.354 3.161 16.465 8.3 21.834 2.266 2.368 5.438 3.9 9.833 3.9a12.96 12.96 0 0 0 9.365-4.058c3.77-3.882 5.835-10.301 6.572-12.676a72.8 72.8 0 0 0 2.752-13.516c.39-3.695-2.725-6.266-5.83-6.266"/><path fill="url(#u)" d="M54.396 13.684q-.655 0-1.3.125c2.038 2.936 3.057 6.011 3.057 7.34a5.82 5.82 0 0 1-2.843 5.25c-.904.536-2.469.796-2.968.796s-2.124-.303-3.025-.844v.124c-.24.958-.43 2.008-.758 3.03a40 40 0 0 1-2.391 5.941c-.98 1.871-1.95 2.966-3.106 2.909-1.315-.066-2.38-1.76-3.706-6.545-.427-1.543-.823-3.235-1.19-4.897-.909-4.12-2.025-8.264-3.934-11.926A14.03 14.03 0 0 0 19.549 7.1c-3.938 0-6.88 1.863-9.19 4.21a19 19 0 0 0-2.038 2.55 5.37 5.37 0 0 1 4.227 4.874 61.7 61.7 0 0 0 1.893 9.942 51 51 0 0 1 2.37-6.16 11 11 0 0 1 1.83-2.854 1.98 1.98 0 0 1 1.363-.721c.44 0 1.94.402 3.401 5.525 1.813 6.354 3.161 16.465 8.3 21.834 2.266 2.368 5.438 3.9 9.833 3.9a12.96 12.96 0 0 0 9.365-4.058c3.77-3.882 5.835-10.301 6.572-12.676a72.8 72.8 0 0 0 2.752-13.516c.39-3.695-2.725-6.266-5.83-6.266"/><path fill="url(#v)" d="M54.396 13.684q-.655 0-1.3.125c2.038 2.936 3.057 6.011 3.057 7.34a5.82 5.82 0 0 1-2.843 5.25c-.904.536-2.469.796-2.968.796s-2.124-.303-3.025-.844v.124c-.24.958-.43 2.008-.758 3.03a40 40 0 0 1-2.391 5.941c-.98 1.871-1.95 2.966-3.106 2.909-1.315-.066-2.38-1.76-3.706-6.545-.427-1.543-.823-3.235-1.19-4.897-.909-4.12-2.025-8.264-3.934-11.926A14.03 14.03 0 0 0 19.549 7.1c-3.938 0-6.88 1.863-9.19 4.21a19 19 0 0 0-2.038 2.55 5.37 5.37 0 0 1 4.227 4.874 61.7 61.7 0 0 0 1.893 9.942 51 51 0 0 1 2.37-6.16 11 11 0 0 1 1.83-2.854 1.98 1.98 0 0 1 1.363-.721c.44 0 1.94.402 3.401 5.525 1.813 6.354 3.161 16.465 8.3 21.834 2.266 2.368 5.438 3.9 9.833 3.9a12.96 12.96 0 0 0 9.365-4.058c3.77-3.882 5.835-10.301 6.572-12.676a72.8 72.8 0 0 0 2.752-13.516c.39-3.695-2.725-6.266-5.83-6.266"/><path fill="url(#w)" d="M54.396 13.684q-.655 0-1.3.125c2.038 2.936 3.057 6.011 3.057 7.34a5.82 5.82 0 0 1-2.843 5.25c-.904.536-2.469.796-2.968.796s-2.124-.303-3.025-.844v.124c-.24.958-.43 2.008-.758 3.03a40 40 0 0 1-2.391 5.941c-.98 1.871-1.95 2.966-3.106 2.909-1.315-.066-2.38-1.76-3.706-6.545-.427-1.543-.823-3.235-1.19-4.897-.909-4.12-2.025-8.264-3.934-11.926A14.03 14.03 0 0 0 19.549 7.1c-3.938 0-6.88 1.863-9.19 4.21a19 19 0 0 0-2.038 2.55 5.37 5.37 0 0 1 4.227 4.874 61.7 61.7 0 0 0 1.893 9.942 51 51 0 0 1 2.37-6.16 11 11 0 0 1 1.83-2.854 1.98 1.98 0 0 1 1.363-.721c.44 0 1.94.402 3.401 5.525 1.813 6.354 3.161 16.465 8.3 21.834 2.266 2.368 5.438 3.9 9.833 3.9a12.96 12.96 0 0 0 9.365-4.058c3.77-3.882 5.835-10.301 6.572-12.676a72.8 72.8 0 0 0 2.752-13.516c.39-3.695-2.725-6.266-5.83-6.266"/><path fill="url(#x)" d="M54.396 13.684q-.655 0-1.3.125c2.038 2.936 3.057 6.011 3.057 7.34a5.82 5.82 0 0 1-2.843 5.25c-.904.536-2.469.796-2.968.796s-2.124-.303-3.025-.844v.124c-.24.958-.43 2.008-.758 3.03a40 40 0 0 1-2.391 5.941c-.98 1.871-1.95 2.966-3.106 2.909-1.315-.066-2.38-1.76-3.706-6.545-.427-1.543-.823-3.235-1.19-4.897-.909-4.12-2.025-8.264-3.934-11.926A14.03 14.03 0 0 0 19.549 7.1c-3.938 0-6.88 1.863-9.19 4.21a19 19 0 0 0-2.038 2.55 5.37 5.37 0 0 1 4.227 4.874 61.7 61.7 0 0 0 1.893 9.942 51 51 0 0 1 2.37-6.16 11 11 0 0 1 1.83-2.854 1.98 1.98 0 0 1 1.363-.721c.44 0 1.94.402 3.401 5.525 1.813 6.354 3.161 16.465 8.3 21.834 2.266 2.368 5.438 3.9 9.833 3.9a12.96 12.96 0 0 0 9.365-4.058c3.77-3.882 5.835-10.301 6.572-12.676a72.8 72.8 0 0 0 2.752-13.516c.39-3.695-2.725-6.266-5.83-6.266"/><path fill="url(#y)" d="M54.396 13.684q-.655 0-1.3.125c2.038 2.936 3.057 6.011 3.057 7.34a5.82 5.82 0 0 1-2.843 5.25c-.904.536-2.469.796-2.968.796s-2.124-.303-3.025-.844v.124c-.24.958-.43 2.008-.758 3.03a40 40 0 0 1-2.391 5.941c-.98 1.871-1.95 2.966-3.106 2.909-1.315-.066-2.38-1.76-3.706-6.545-.427-1.543-.823-3.235-1.19-4.897-.909-4.12-2.025-8.264-3.934-11.926A14.03 14.03 0 0 0 19.549 7.1c-3.938 0-6.88 1.863-9.19 4.21a19 19 0 0 0-2.038 2.55 5.37 5.37 0 0 1 4.227 4.874 61.7 61.7 0 0 0 1.893 9.942 51 51 0 0 1 2.37-6.16 11 11 0 0 1 1.83-2.854 1.98 1.98 0 0 1 1.363-.721c.44 0 1.94.402 3.401 5.525 1.813 6.354 3.161 16.465 8.3 21.834 2.266 2.368 5.438 3.9 9.833 3.9a12.96 12.96 0 0 0 9.365-4.058c3.77-3.882 5.835-10.301 6.572-12.676a72.8 72.8 0 0 0 2.752-13.516c.39-3.695-2.725-6.266-5.83-6.266"/><path fill="url(#z)" d="M54.396 13.684q-.655 0-1.3.125c2.038 2.936 3.057 6.011 3.057 7.34a5.82 5.82 0 0 1-2.843 5.25c-.904.536-2.469.796-2.968.796s-2.124-.303-3.025-.844v.124c-.24.958-.43 2.008-.758 3.03a40 40 0 0 1-2.391 5.941c-.98 1.871-1.95 2.966-3.106 2.909-1.315-.066-2.38-1.76-3.706-6.545-.427-1.543-.823-3.235-1.19-4.897-.909-4.12-2.025-8.264-3.934-11.926A14.03 14.03 0 0 0 19.549 7.1c-3.938 0-6.88 1.863-9.19 4.21a19 19 0 0 0-2.038 2.55 5.37 5.37 0 0 1 4.227 4.874 61.7 61.7 0 0 0 1.893 9.942 51 51 0 0 1 2.37-6.16 11 11 0 0 1 1.83-2.854 1.98 1.98 0 0 1 1.363-.721c.44 0 1.94.402 3.401 5.525 1.813 6.354 3.161 16.465 8.3 21.834 2.266 2.368 5.438 3.9 9.833 3.9a12.96 12.96 0 0 0 9.365-4.058c3.77-3.882 5.835-10.301 6.572-12.676a72.8 72.8 0 0 0 2.752-13.516c.39-3.695-2.725-6.266-5.83-6.266"/><path fill="url(#A)" d="M54.396 13.684q-.655 0-1.3.125c2.038 2.936 3.057 6.011 3.057 7.34a5.82 5.82 0 0 1-2.843 5.25c-.904.536-2.469.796-2.968.796s-2.124-.303-3.025-.844v.124c-.24.958-.43 2.008-.758 3.03a40 40 0 0 1-2.391 5.941c-.98 1.871-1.95 2.966-3.106 2.909-1.315-.066-2.38-1.76-3.706-6.545-.427-1.543-.823-3.235-1.19-4.897-.909-4.12-2.025-8.264-3.934-11.926A14.03 14.03 0 0 0 19.549 7.1c-3.938 0-6.88 1.863-9.19 4.21a19 19 0 0 0-2.038 2.55 5.37 5.37 0 0 1 4.227 4.874 61.7 61.7 0 0 0 1.893 9.942 51 51 0 0 1 2.37-6.16 11 11 0 0 1 1.83-2.854 1.98 1.98 0 0 1 1.363-.721c.44 0 1.94.402 3.401 5.525 1.813 6.354 3.161 16.465 8.3 21.834 2.266 2.368 5.438 3.9 9.833 3.9a12.96 12.96 0 0 0 9.365-4.058c3.77-3.882 5.835-10.301 6.572-12.676a72.8 72.8 0 0 0 2.752-13.516c.39-3.695-2.725-6.266-5.83-6.266"/><path fill="url(#B)" d="M54.396 13.684q-.655 0-1.3.125c2.038 2.936 3.057 6.011 3.057 7.34a5.82 5.82 0 0 1-2.843 5.25c-.904.536-2.469.796-2.968.796s-2.124-.303-3.025-.844v.124c-.24.958-.43 2.008-.758 3.03a40 40 0 0 1-2.391 5.941c-.98 1.871-1.95 2.966-3.106 2.909-1.315-.066-2.38-1.76-3.706-6.545-.427-1.543-.823-3.235-1.19-4.897-.909-4.12-2.025-8.264-3.934-11.926A14.03 14.03 0 0 0 19.549 7.1c-3.938 0-6.88 1.863-9.19 4.21a19 19 0 0 0-2.038 2.55 5.37 5.37 0 0 1 4.227 4.874 61.7 61.7 0 0 0 1.893 9.942 51 51 0 0 1 2.37-6.16 11 11 0 0 1 1.83-2.854 1.98 1.98 0 0 1 1.363-.721c.44 0 1.94.402 3.401 5.525 1.813 6.354 3.161 16.465 8.3 21.834 2.266 2.368 5.438 3.9 9.833 3.9a12.96 12.96 0 0 0 9.365-4.058c3.77-3.882 5.835-10.301 6.572-12.676a72.8 72.8 0 0 0 2.752-13.516c.39-3.695-2.725-6.266-5.83-6.266"/><path fill="url(#C)" d="M19.387 50.03C8.414 50.03 4.68 36.162 3.843 33.464A75 75 0 0 1 1.035 19.95c-.39-3.695 2.575-6.266 5.83-6.266a5.504 5.504 0 0 1 5.704 5.05 61 61 0 0 0 2.34 11.444c1.85 5.9 3.812 8.168 5.225 8.168 2.282 0 3.674-5.856 4.905-11.433.907-4.109 1.888-8.249 3.823-11.926C32.229 8.589 37.317 7.1 41.712 7.1c9.639 0 14.462 11.158 14.462 14.05a5.73 5.73 0 0 1-5.652 6.063c-3.739 0-5.006-2.503-6.072-4.697-.96-1.974-1.962-3.615-3.258-3.615a1.68 1.68 0 0 0-1.185.586c-3.22 3.27-4.3 20.378-10.738 26.917-3.57 3.625-7.453 3.625-9.882 3.625"/><path fill="url(#D)" d="M19.387 50.03C8.414 50.03 4.68 36.162 3.843 33.464A75 75 0 0 1 1.035 19.95c-.39-3.695 2.575-6.266 5.83-6.266a5.504 5.504 0 0 1 5.704 5.05 61 61 0 0 0 2.34 11.444c1.85 5.9 3.812 8.168 5.225 8.168 2.282 0 3.674-5.856 4.905-11.433.907-4.109 1.888-8.249 3.823-11.926C32.229 8.589 37.317 7.1 41.712 7.1c9.639 0 14.462 11.158 14.462 14.05a5.73 5.73 0 0 1-5.652 6.063c-3.739 0-5.006-2.503-6.072-4.697-.96-1.974-1.962-3.615-3.258-3.615a1.68 1.68 0 0 0-1.185.586c-3.22 3.27-4.3 20.378-10.738 26.917-3.57 3.625-7.453 3.625-9.882 3.625"/><path fill="url(#E)" d="M19.387 50.03C8.414 50.03 4.68 36.162 3.843 33.464A75 75 0 0 1 1.035 19.95c-.39-3.695 2.575-6.266 5.83-6.266a5.504 5.504 0 0 1 5.704 5.05 61 61 0 0 0 2.34 11.444c1.85 5.9 3.812 8.168 5.225 8.168 2.282 0 3.674-5.856 4.905-11.433.907-4.109 1.888-8.249 3.823-11.926C32.229 8.589 37.317 7.1 41.712 7.1c9.639 0 14.462 11.158 14.462 14.05a5.73 5.73 0 0 1-5.652 6.063c-3.739 0-5.006-2.503-6.072-4.697-.96-1.974-1.962-3.615-3.258-3.615a1.68 1.68 0 0 0-1.185.586c-3.22 3.27-4.3 20.378-10.738 26.917-3.57 3.625-7.453 3.625-9.882 3.625"/><path fill="url(#F)" d="M19.387 50.03C8.414 50.03 4.68 36.162 3.843 33.464A75 75 0 0 1 1.035 19.95c-.39-3.695 2.575-6.266 5.83-6.266a5.504 5.504 0 0 1 5.704 5.05 61 61 0 0 0 2.34 11.444c1.85 5.9 3.812 8.168 5.225 8.168 2.282 0 3.674-5.856 4.905-11.433.907-4.109 1.888-8.249 3.823-11.926C32.229 8.589 37.317 7.1 41.712 7.1c9.639 0 14.462 11.158 14.462 14.05a5.73 5.73 0 0 1-5.652 6.063c-3.739 0-5.006-2.503-6.072-4.697-.96-1.974-1.962-3.615-3.258-3.615a1.68 1.68 0 0 0-1.185.586c-3.22 3.27-4.3 20.378-10.738 26.917-3.57 3.625-7.453 3.625-9.882 3.625"/><path fill="#fff" d="M200.374 57.128h-2.799v11.124h2.799zM223.061 60.315a4.9 4.9 0 0 0-2.364-.592c-1.822 0-3.085 1.262-3.085 2.966 0 1.654 1.21 2.97 3.085 2.97.825.001 1.637-.201 2.364-.59v2.985a9 9 0 0 1-2.566.394c-3.163 0-5.937-2.172-5.937-5.76 0-3.32 2.513-5.755 5.937-5.755a8.6 8.6 0 0 1 2.566.397zM193.695 60.315a4.9 4.9 0 0 0-2.364-.592c-1.823 0-3.082 1.262-3.082 2.966 0 1.654 1.206 2.97 3.082 2.97a5 5 0 0 0 2.364-.59v2.985a9 9 0 0 1-2.566.394c-3.163 0-5.935-2.172-5.935-5.76 0-3.32 2.51-5.755 5.935-5.755.87.002 1.735.136 2.566.397zM231.91 59.763a2.88 2.88 0 0 0-2.908 2.926 2.87 2.87 0 0 0 1.785 2.712c.356.147.738.22 1.123.217a2.886 2.886 0 0 0 2.911-2.93 2.887 2.887 0 0 0-2.911-2.926m5.891 2.926c0 3.183-2.46 5.759-5.891 5.759s-5.888-2.576-5.888-5.76 2.461-5.755 5.888-5.755 5.891 2.579 5.891 5.756M211.044 59.657a9.7 9.7 0 0 0-2.206-.335c-1.125 0-1.738.376-1.738.91 0 .679.827.93 1.288 1.06l.777.246c1.826.58 2.659 1.827 2.659 3.183 0 2.793-2.463 3.724-4.618 3.724a17 17 0 0 1-3.036-.31v-2.56c.864.25 1.757.388 2.656.412 1.403 0 2.044-.406 2.044-1.04 0-.56-.557-.887-1.245-1.107l-.6-.192c-1.555-.494-2.874-1.412-2.874-3.255 0-2.08 1.555-3.476 4.156-3.476.924.013 1.843.132 2.74.354zM165.544 68.215h-1.223V57.116h1.484v4.192a3.09 3.09 0 0 1 2.69-1.34 3.21 3.21 0 0 1 2.687 1.24q.85 1.113.85 2.945 0 2.173-1.157 3.33a3.38 3.38 0 0 1-2.489.971 2.98 2.98 0 0 1-2.612-1.294zm4.945-4.102q0-1.51-.759-2.265a2.1 2.1 0 0 0-1.577-.62 2.2 2.2 0 0 0-1.791.816 3.2 3.2 0 0 0-.622 2.066q.002 1.542.758 2.358a2.14 2.14 0 0 0 1.668.71 2.03 2.03 0 0 0 1.763-.85c.414-.662.61-1.436.56-2.215M179.974 60.197l-2.799 8.123q-.557 1.62-1.067 2.207a1.97 1.97 0 0 1-1.555.692 4.2 4.2 0 0 1-.958-.137v-1.21q.381.1.774.108a.9.9 0 0 0 .741-.332c.285-.448.509-.932.665-1.44h-.479l-2.951-8.017h1.608l2.27 6.826 2.271-6.826zM113.895 17.811h6.275l-9.123 27.513h-7.199l-6.819-20.762-6.819 20.762h-7.086L74 17.81h6.422l6.474 20.908 6.793-20.908h6.819l6.905 21.02zM147.084 33.776H126.73a8.75 8.75 0 0 0 1.554 3.935 7 7 0 0 0 2.892 2.325 9.2 9.2 0 0 0 3.728.75 12 12 0 0 0 4.161-.758 13.6 13.6 0 0 0 3.815-2.144l2.995 4.305a15.2 15.2 0 0 1-5.231 2.971c-1.977.62-4.039.924-6.111.904a14.64 14.64 0 0 1-7.311-1.79 12.7 12.7 0 0 1-4.997-5.081 15.6 15.6 0 0 1-1.796-7.595 15.94 15.94 0 0 1 1.727-7.544 12.7 12.7 0 0 1 4.85-5.106 13.8 13.8 0 0 1 7.139-1.826c2.361-.065 4.69.55 6.709 1.772a12.27 12.27 0 0 1 4.676 5.117 16.46 16.46 0 0 1 1.657 7.526c.009.577-.026 1.327-.103 2.24m-6.043-4.564a8.5 8.5 0 0 0-2.304-5.029 6.41 6.41 0 0 0-4.696-1.722 6.76 6.76 0 0 0-4.937 1.826 8.73 8.73 0 0 0-2.374 4.951zM172.831 18.965a13.4 13.4 0 0 1 4.981 5.167 15.1 15.1 0 0 1 1.83 7.44 15.1 15.1 0 0 1-1.83 7.431 13.4 13.4 0 0 1-4.997 5.185 13.4 13.4 0 0 1-6.967 1.85 11.3 11.3 0 0 1-4.98-1.041 10.3 10.3 0 0 1-3.651-2.946v3.273h-6.042V6.1h6.042v14.983a10.36 10.36 0 0 1 3.651-2.927 11.2 11.2 0 0 1 4.98-1.05c2.455-.03 4.871.613 6.983 1.86m-3.297 20.245a7.76 7.76 0 0 0 2.909-3.195 10.31 10.31 0 0 0 0-8.895 7.8 7.8 0 0 0-2.909-3.195 8.81 8.81 0 0 0-8.735 0 7.87 7.87 0 0 0-2.935 3.16 9.5 9.5 0 0 0-1.053 4.513 9.47 9.47 0 0 0 1.053 4.503 7.87 7.87 0 0 0 2.935 3.16 8.81 8.81 0 0 0 8.735 0zM209.455 33.776h-20.344a8.75 8.75 0 0 0 1.553 3.935 7.03 7.03 0 0 0 2.892 2.325 9.2 9.2 0 0 0 3.729.75 12.1 12.1 0 0 0 4.16-.758 13.5 13.5 0 0 0 3.815-2.144l2.987 4.305a15.1 15.1 0 0 1-5.222 2.971c-1.98.619-4.045.924-6.12.904a14.7 14.7 0 0 1-7.311-1.79 12.75 12.75 0 0 1-4.989-5.081 15.6 15.6 0 0 1-1.804-7.595 15.96 15.96 0 0 1 1.726-7.544 12.7 12.7 0 0 1 4.851-5.106 13.8 13.8 0 0 1 7.19-1.852 12.33 12.33 0 0 1 6.707 1.776 12.3 12.3 0 0 1 4.678 5.113 16.45 16.45 0 0 1 1.658 7.527c-.035.602-.095 1.352-.156 2.264m-6.042-4.564a8.55 8.55 0 0 0-2.313-4.994 6.44 6.44 0 0 0-4.678-1.757 6.75 6.75 0 0 0-4.938 1.826 8.7 8.7 0 0 0-2.373 4.951zM238.156 45.324h-7.398l-6.991-9.567-6.905 9.567h-7.052l10.357-14.045-10.193-13.468h7.405l6.733 9.188 6.733-9.188H238l-10.237 13.416z"/><defs><radialGradient id="b" cx="0" cy="0" r="1" gradientTransform="rotate(-120.88 20.28 8.315)scale(25.379 21.3135)" gradientUnits="userSpaceOnUse"><stop stop-color="#B7B7B7"/><stop offset=".408" stop-color="#B5B5B5" stop-opacity=".75"/><stop offset=".875" stop-color="#B6B6B6" stop-opacity="0"/></radialGradient><radialGradient id="c" cx="0" cy="0" r="1" gradientTransform="matrix(-12.38658 -16.58402 10.899 -8.14045 40.245 25.274)" gradientUnits="userSpaceOnUse"><stop stop-color="#CACACA"/><stop offset=".46" stop-color="#C7C7C7"/><stop offset="1" stop-color="#ACACAC" stop-opacity="0"/></radialGradient><radialGradient id="d" cx="0" cy="0" r="1" gradientTransform="rotate(-107.482 22.489 7.486)scale(16.8547 8.78657)" gradientUnits="userSpaceOnUse"><stop stop-color="#CDCDCD"/><stop offset=".408" stop-color="#C8C8C8" stop-opacity=".79"/><stop offset=".875" stop-color="#B6B6B6" stop-opacity="0"/></radialGradient><radialGradient id="e" cx="0" cy="0" r="1" gradientTransform="matrix(-18.62701 -40.69618 12.55806 -5.74794 26.253 35.048)" gradientUnits="userSpaceOnUse"><stop stop-color="#A2A2A2" stop-opacity=".78"/><stop offset="1" stop-color="#A2A2A2" stop-opacity="0"/></radialGradient><radialGradient id="f" cx="0" cy="0" r="1" gradientTransform="rotate(80.213 5.093 31.234)scale(21.1962 12.0318)" gradientUnits="userSpaceOnUse"><stop stop-color="#AEAEAE"/><stop offset=".233" stop-color="#AEAEAE" stop-opacity=".75"/><stop offset=".599" stop-color="#AEAEAE" stop-opacity=".301"/><stop offset=".875" stop-color="#AEAEAE" stop-opacity="0"/></radialGradient><radialGradient id="g" cx="0" cy="0" r="1" gradientTransform="rotate(57.056 19.265 34.74)scale(18.9531 9.9441)" gradientUnits="userSpaceOnUse"><stop stop-color="#E1E1E1"/><stop offset=".408" stop-color="#E7E7E7"/><stop offset="1" stop-color="#E7E7E7" stop-opacity=".07"/></radialGradient><radialGradient id="i" cx="0" cy="0" r="1" gradientTransform="matrix(33.60535 37.30798 -37.2524 33.55528 12.164 -8.988)" gradientUnits="userSpaceOnUse"><stop stop-color="#F5F5F5"/><stop offset=".745" stop-color="#F4F4F4" stop-opacity="0"/></radialGradient><radialGradient id="j" cx="0" cy="0" r="1" gradientTransform="matrix(-7.26854 -23.07813 16.00104 -5.03958 14.81 28.65)" gradientUnits="userSpaceOnUse"><stop stop-color="#F5F5F5" stop-opacity=".76"/><stop offset=".573" stop-color="#F4F4F4" stop-opacity="0"/></radialGradient><radialGradient id="k" cx="0" cy="0" r="1" gradientTransform="matrix(-10.90272 -13.19178 9.23689 -7.6341 51.628 19.456)" gradientUnits="userSpaceOnUse"><stop stop-color="#fff"/><stop offset="1" stop-color="#F4F4F4" stop-opacity="0"/></radialGradient><radialGradient id="l" cx="0" cy="0" r="1" gradientTransform="matrix(.9807 -5.08598 3.52035 .6788 49.182 30.489)" gradientUnits="userSpaceOnUse"><stop stop-color="#CDCDCD"/><stop offset="1" stop-color="#BCBCBC" stop-opacity="0"/></radialGradient><radialGradient id="m" cx="0" cy="0" r="1" gradientTransform="matrix(73.52707 -342.10784 372.19382 79.99326 -106989 35283.9)" gradientUnits="userSpaceOnUse"><stop stop-color="#CDCDCD"/><stop offset="1" stop-color="#BCBCBC" stop-opacity="0"/></radialGradient><radialGradient id="n" cx="0" cy="0" r="1" gradientTransform="matrix(-9.62984 -10.39455 7.30274 -6.76549 54.015 22.423)" gradientUnits="userSpaceOnUse"><stop stop-color="#fff"/><stop offset=".813" stop-color="#fff" stop-opacity="0"/></radialGradient><radialGradient id="p" cx="0" cy="0" r="1" gradientTransform="rotate(37.434 -14.272 86.412)scale(12.6032 17.5146)" gradientUnits="userSpaceOnUse"><stop stop-color="#D2D2D2"/><stop offset=".966" stop-color="#D2D2D2" stop-opacity="0"/></radialGradient><radialGradient id="q" cx="0" cy="0" r="1" gradientTransform="rotate(8.479 -164.989 327.245)scale(14.8748 22.1858)" gradientUnits="userSpaceOnUse"><stop stop-color="#D2D2D2"/><stop offset=".593" stop-color="#D2D2D2" stop-opacity="0"/></radialGradient><radialGradient id="r" cx="0" cy="0" r="1" gradientTransform="rotate(24.646 -44.267 123.948)scale(12.7047 22.6266)" gradientUnits="userSpaceOnUse"><stop stop-color="#D2D2D2"/><stop offset=".757" stop-color="#D2D2D2" stop-opacity="0"/></radialGradient><radialGradient id="s" cx="0" cy="0" r="1" gradientTransform="rotate(-45.91 53.41 -42.995)scale(30.0034 24.1129)" gradientUnits="userSpaceOnUse"><stop offset=".065" stop-color="#4F4F4F"/><stop offset=".519" stop-color="#D5D5D5" stop-opacity="0"/></radialGradient><radialGradient id="t" cx="0" cy="0" r="1" gradientTransform="matrix(-2.30948 22.70686 -12.45335 -1.26661 46.17 30.496)" gradientUnits="userSpaceOnUse"><stop stop-color="#D2D2D2"/><stop offset=".593" stop-color="#D2D2D2" stop-opacity="0"/><stop offset="1" stop-color="#D2D2D2" stop-opacity="0"/></radialGradient><radialGradient id="u" cx="0" cy="0" r="1" gradientTransform="rotate(93.67 15.207 33.467)scale(27.4678 9.81041)" gradientUnits="userSpaceOnUse"><stop stop-color="#D2D2D2"/><stop offset=".885" stop-color="#D2D2D2" stop-opacity="0"/></radialGradient><radialGradient id="v" cx="0" cy="0" r="1" gradientTransform="rotate(-68.052 27.16 10.362)scale(24.3229 9.6862)" gradientUnits="userSpaceOnUse"><stop stop-color="#B3B3B3"/><stop offset="1" stop-color="#B0B0B0" stop-opacity="0"/></radialGradient><radialGradient id="w" cx="0" cy="0" r="1" gradientTransform="rotate(-22.198 113.646 -38.284)scale(15.7705 30.8087)" gradientUnits="userSpaceOnUse"><stop stop-color="#F7F7F7"/><stop offset=".709" stop-color="#F9F9F9" stop-opacity="0"/></radialGradient><radialGradient id="x" cx="0" cy="0" r="1" gradientTransform="rotate(-22.198 113.646 -38.284)scale(15.7705 30.8087)" gradientUnits="userSpaceOnUse"><stop stop-color="#F7F7F7"/><stop offset=".709" stop-color="#F9F9F9" stop-opacity="0"/></radialGradient><radialGradient id="y" cx="0" cy="0" r="1" gradientTransform="matrix(18.51884 8.41794 -8.49214 18.68207 12.112 21.579)" gradientUnits="userSpaceOnUse"><stop stop-color="#ADADAD"/><stop offset=".761" stop-color="#D2D2D2" stop-opacity="0"/></radialGradient><radialGradient id="z" cx="0" cy="0" r="1" gradientTransform="matrix(7.74425 -.33672 .48832 11.23109 17.836 19.895)" gradientUnits="userSpaceOnUse"><stop stop-color="#ADADAD"/><stop offset=".761" stop-color="#D2D2D2" stop-opacity="0"/></radialGradient><radialGradient id="A" cx="0" cy="0" r="1" gradientTransform="matrix(7.07084 -2.0203 4.2402 14.84022 20.193 27.303)" gradientUnits="userSpaceOnUse"><stop stop-color="#B1B1B1"/><stop offset="1" stop-color="#D2D2D2" stop-opacity="0"/></radialGradient><radialGradient id="B" cx="0" cy="0" r="1" gradientTransform="rotate(-51.583 27.722 .516)scale(12.463 11.7119)" gradientUnits="userSpaceOnUse"><stop stop-color="#807F7F"/><stop offset="1" stop-color="#D2D2D2" stop-opacity="0"/></radialGradient><radialGradient id="F" cx="0" cy="0" r="1" gradientTransform="matrix(-10.10118 .6734 -2.03602 -30.5409 12.448 21.579)" gradientUnits="userSpaceOnUse"><stop stop-color="#D1D1D1"/><stop offset=".58" stop-color="#D1D1D1" stop-opacity="0"/></radialGradient><linearGradient id="a" x1="50.278" x2="11.521" y1="20.024" y2="32.745" gradientUnits="userSpaceOnUse"><stop stop-color="#fff"/><stop offset="1" stop-color="#F5F5F5"/></linearGradient><linearGradient id="h" x1="-13.581" x2="13.89" y1="28.201" y2="28.427" gradientUnits="userSpaceOnUse"><stop stop-color="#FAFAFA"/><stop offset="1" stop-color="#F8F8F8" stop-opacity="0"/></linearGradient><linearGradient id="o" x1="24.233" x2="16.825" y1="62.658" y2="42.119" gradientUnits="userSpaceOnUse"><stop offset=".229" stop-color="#fff"/><stop offset="1" stop-color="#fff" stop-opacity="0"/></linearGradient><linearGradient id="C" x1="2.043" x2="23.173" y1="10.346" y2="23.843" gradientUnits="userSpaceOnUse"><stop offset=".229" stop-color="#fff"/><stop offset="1" stop-color="#fff" stop-opacity="0"/></linearGradient><linearGradient id="D" x1="6.724" x2="16.826" y1="61.985" y2="42.119" gradientUnits="userSpaceOnUse"><stop offset=".229" stop-color="#fff"/><stop offset="1" stop-color="#fff" stop-opacity="0"/></linearGradient><linearGradient id="E" x1="7.504" x2="13.43" y1="7.613" y2="12.989" gradientUnits="userSpaceOnUse"><stop stop-color="#fff"/><stop offset=".637" stop-color="#F8F8F8" stop-opacity="0"/></linearGradient></defs></svg>