<svg xmlns="http://www.w3.org/2000/svg" width="134" height="134" fill="none" viewBox="0 0 134 134"><g clip-path="url(#a)"><rect width="133" height="133" x=".5" y=".2" fill="url(#b)" rx="31.43"/><path fill="url(#c)" d="M35.716 66.46a68.4 68.4 0 0 0 5.14 13.044c.984 1.84 1.968 3.679 3.753 4.838.31.198.65.339 1.008.417 2.63.57 4.073-1.582 5.002-3.55a59.4 59.4 0 0 0 3.349-9.579q.242-.92.476-1.84c.302-1.17.603-2.354.863-3.538l11.609-31.52a26 26 0 0 1 9.13-7.735 25.5 25.5 0 0 1 11.57-2.768 25.17 25.17 0 0 1 15.941 5.58c7.591 5.838 12.11 17.335 12.11 17.335a11.76 11.76 0 0 1 .12 9.183 11.6 11.6 0 0 1-2.474 3.747 11.4 11.4 0 0 1-3.697 2.499 11.22 11.22 0 0 1-9.165-.22 11.4 11.4 0 0 1-3.898-3.06l-.11-.136a15.5 15.5 0 0 1-1.81-3.237 45 45 0 0 0-2.099-4.22 27 27 0 0 0-1.34-2.035 8.3 8.3 0 0 0-1.43-1.595c-1.067-.877-2.413-1.226-3.668-.472q-.09.052-.175.117c-1.29.901-2.196 2.722-2.823 4.12-1.81 3.962-2.848 8.021-3.874 12.191-.193.803-.386 1.607-.567 2.416L73.86 82.386l-6.763 15.159a26.2 26.2 0 0 1-9.064 7.534 25.8 25.8 0 0 1-11.39 2.755c-16.43.356-24.225-14.717-24.225-14.717-9.358-15.6-12.115-36.18-12.773-42.76-.139-1.367-.145-2.182-.145-2.182 0-2.061.552-4.083 1.6-5.848a11.2 11.2 0 0 1 4.343-4.166 12.05 12.05 0 0 1 5.998-1.33c1.933.081 3.814.661 5.466 1.685a10.8 10.8 0 0 1 3.258 3.067c1.545 2.232 1.895 5.01 2.202 7.665a106 106 0 0 0 3.349 17.213"/><path fill="url(#d)" d="M35.716 66.46a68.4 68.4 0 0 0 5.14 13.044c.984 1.84 1.968 3.679 3.753 4.838.31.198.65.339 1.008.417 2.63.57 4.073-1.582 5.002-3.55a59.4 59.4 0 0 0 3.349-9.579q.242-.92.476-1.84c.302-1.17.603-2.354.863-3.538l11.609-31.52a26 26 0 0 1 9.13-7.735 25.5 25.5 0 0 1 11.57-2.768 25.17 25.17 0 0 1 15.941 5.58c7.591 5.838 12.11 17.335 12.11 17.335a11.76 11.76 0 0 1 .12 9.183 11.6 11.6 0 0 1-2.474 3.747 11.4 11.4 0 0 1-3.697 2.499 11.22 11.22 0 0 1-9.165-.22 11.4 11.4 0 0 1-3.898-3.06l-.11-.136a15.5 15.5 0 0 1-1.81-3.237 45 45 0 0 0-2.099-4.22 27 27 0 0 0-1.34-2.035 8.3 8.3 0 0 0-1.43-1.595c-1.067-.877-2.413-1.226-3.668-.472q-.09.052-.175.117c-1.29.901-2.196 2.722-2.823 4.12-1.81 3.962-2.848 8.021-3.874 12.191-.193.803-.386 1.607-.567 2.416L73.86 82.386l-6.763 15.159a26.2 26.2 0 0 1-9.064 7.534 25.8 25.8 0 0 1-11.39 2.755c-16.43.356-24.225-14.717-24.225-14.717-9.358-15.6-12.115-36.18-12.773-42.76-.139-1.367-.145-2.182-.145-2.182 0-2.061.552-4.083 1.6-5.848a11.2 11.2 0 0 1 4.343-4.166 12.05 12.05 0 0 1 5.998-1.33c1.933.081 3.814.661 5.466 1.685a10.8 10.8 0 0 1 3.258 3.067c1.545 2.232 1.895 5.01 2.202 7.665a106 106 0 0 0 3.349 17.213"/><path fill="url(#e)" d="M35.716 66.46a68.4 68.4 0 0 0 5.14 13.044c.984 1.84 1.968 3.679 3.753 4.838.31.198.65.339 1.008.417 2.63.57 4.073-1.582 5.002-3.55a59.4 59.4 0 0 0 3.349-9.579q.242-.92.476-1.84c.302-1.17.603-2.354.863-3.538l11.609-31.52a26 26 0 0 1 9.13-7.735 25.5 25.5 0 0 1 11.57-2.768 25.17 25.17 0 0 1 15.941 5.58c7.591 5.838 12.11 17.335 12.11 17.335a11.76 11.76 0 0 1 .12 9.183 11.6 11.6 0 0 1-2.474 3.747 11.4 11.4 0 0 1-3.697 2.499 11.22 11.22 0 0 1-9.165-.22 11.4 11.4 0 0 1-3.898-3.06l-.11-.136a15.5 15.5 0 0 1-1.81-3.237 45 45 0 0 0-2.099-4.22 27 27 0 0 0-1.34-2.035 8.3 8.3 0 0 0-1.43-1.595c-1.067-.877-2.413-1.226-3.668-.472q-.09.052-.175.117c-1.29.901-2.196 2.722-2.823 4.12-1.81 3.962-2.848 8.021-3.874 12.191-.193.803-.386 1.607-.567 2.416L73.86 82.386l-6.763 15.159a26.2 26.2 0 0 1-9.064 7.534 25.8 25.8 0 0 1-11.39 2.755c-16.43.356-24.225-14.717-24.225-14.717-9.358-15.6-12.115-36.18-12.773-42.76-.139-1.367-.145-2.182-.145-2.182 0-2.061.552-4.083 1.6-5.848a11.2 11.2 0 0 1 4.343-4.166 12.05 12.05 0 0 1 5.998-1.33c1.933.081 3.814.661 5.466 1.685a10.8 10.8 0 0 1 3.258 3.067c1.545 2.232 1.895 5.01 2.202 7.665a106 106 0 0 0 3.349 17.213"/><path fill="url(#f)" d="M35.716 66.46a68.4 68.4 0 0 0 5.14 13.044c.984 1.84 1.968 3.679 3.753 4.838.31.198.65.339 1.008.417 2.63.57 4.073-1.582 5.002-3.55a59.4 59.4 0 0 0 3.349-9.579q.242-.92.476-1.84c.302-1.17.603-2.354.863-3.538l11.609-31.52a26 26 0 0 1 9.13-7.735 25.5 25.5 0 0 1 11.57-2.768 25.17 25.17 0 0 1 15.941 5.58c7.591 5.838 12.11 17.335 12.11 17.335a11.76 11.76 0 0 1 .12 9.183 11.6 11.6 0 0 1-2.474 3.747 11.4 11.4 0 0 1-3.697 2.499 11.22 11.22 0 0 1-9.165-.22 11.4 11.4 0 0 1-3.898-3.06l-.11-.136a15.5 15.5 0 0 1-1.81-3.237 45 45 0 0 0-2.099-4.22 27 27 0 0 0-1.34-2.035 8.3 8.3 0 0 0-1.43-1.595c-1.067-.877-2.413-1.226-3.668-.472q-.09.052-.175.117c-1.29.901-2.196 2.722-2.823 4.12-1.81 3.962-2.848 8.021-3.874 12.191-.193.803-.386 1.607-.567 2.416L73.86 82.386l-6.763 15.159a26.2 26.2 0 0 1-9.064 7.534 25.8 25.8 0 0 1-11.39 2.755c-16.43.356-24.225-14.717-24.225-14.717-9.358-15.6-12.115-36.18-12.773-42.76-.139-1.367-.145-2.182-.145-2.182 0-2.061.552-4.083 1.6-5.848a11.2 11.2 0 0 1 4.343-4.166 12.05 12.05 0 0 1 5.998-1.33c1.933.081 3.814.661 5.466 1.685a10.8 10.8 0 0 1 3.258 3.067c1.545 2.232 1.895 5.01 2.202 7.665a106 106 0 0 0 3.349 17.213"/><path fill="url(#g)" d="M35.716 66.46a68.4 68.4 0 0 0 5.14 13.044c.984 1.84 1.968 3.679 3.753 4.838.31.198.65.339 1.008.417 2.63.57 4.073-1.582 5.002-3.55a59.4 59.4 0 0 0 3.349-9.579q.242-.92.476-1.84c.302-1.17.603-2.354.863-3.538l11.609-31.52a26 26 0 0 1 9.13-7.735 25.5 25.5 0 0 1 11.57-2.768 25.17 25.17 0 0 1 15.941 5.58c7.591 5.838 12.11 17.335 12.11 17.335a11.76 11.76 0 0 1 .12 9.183 11.6 11.6 0 0 1-2.474 3.747 11.4 11.4 0 0 1-3.697 2.499 11.22 11.22 0 0 1-9.165-.22 11.4 11.4 0 0 1-3.898-3.06l-.11-.136a15.5 15.5 0 0 1-1.81-3.237 45 45 0 0 0-2.099-4.22 27 27 0 0 0-1.34-2.035 8.3 8.3 0 0 0-1.43-1.595c-1.067-.877-2.413-1.226-3.668-.472q-.09.052-.175.117c-1.29.901-2.196 2.722-2.823 4.12-1.81 3.962-2.848 8.021-3.874 12.191-.193.803-.386 1.607-.567 2.416L73.86 82.386l-6.763 15.159a26.2 26.2 0 0 1-9.064 7.534 25.8 25.8 0 0 1-11.39 2.755c-16.43.356-24.225-14.717-24.225-14.717-9.358-15.6-12.115-36.18-12.773-42.76-.139-1.367-.145-2.182-.145-2.182 0-2.061.552-4.083 1.6-5.848a11.2 11.2 0 0 1 4.343-4.166 12.05 12.05 0 0 1 5.998-1.33c1.933.081 3.814.661 5.466 1.685a10.8 10.8 0 0 1 3.258 3.067c1.545 2.232 1.895 5.01 2.202 7.665a106 106 0 0 0 3.349 17.213"/><path fill="url(#h)" d="M35.716 66.46a68.4 68.4 0 0 0 5.14 13.044c.984 1.84 1.968 3.679 3.753 4.838.31.198.65.339 1.008.417 2.63.57 4.073-1.582 5.002-3.55a59.4 59.4 0 0 0 3.349-9.579q.242-.92.476-1.84c.302-1.17.603-2.354.863-3.538l11.609-31.52a26 26 0 0 1 9.13-7.735 25.5 25.5 0 0 1 11.57-2.768 25.17 25.17 0 0 1 15.941 5.58c7.591 5.838 12.11 17.335 12.11 17.335a11.76 11.76 0 0 1 .12 9.183 11.6 11.6 0 0 1-2.474 3.747 11.4 11.4 0 0 1-3.697 2.499 11.22 11.22 0 0 1-9.165-.22 11.4 11.4 0 0 1-3.898-3.06l-.11-.136a15.5 15.5 0 0 1-1.81-3.237 45 45 0 0 0-2.099-4.22 27 27 0 0 0-1.34-2.035 8.3 8.3 0 0 0-1.43-1.595c-1.067-.877-2.413-1.226-3.668-.472q-.09.052-.175.117c-1.29.901-2.196 2.722-2.823 4.12-1.81 3.962-2.848 8.021-3.874 12.191-.193.803-.386 1.607-.567 2.416L73.86 82.386l-6.763 15.159a26.2 26.2 0 0 1-9.064 7.534 25.8 25.8 0 0 1-11.39 2.755c-16.43.356-24.225-14.717-24.225-14.717-9.358-15.6-12.115-36.18-12.773-42.76-.139-1.367-.145-2.182-.145-2.182 0-2.061.552-4.083 1.6-5.848a11.2 11.2 0 0 1 4.343-4.166 12.05 12.05 0 0 1 5.998-1.33c1.933.081 3.814.661 5.466 1.685a10.8 10.8 0 0 1 3.258 3.067c1.545 2.232 1.895 5.01 2.202 7.665a106 106 0 0 0 3.349 17.213"/><path fill="url(#i)" d="M35.716 66.46a68.4 68.4 0 0 0 5.14 13.044c.984 1.84 1.968 3.679 3.753 4.838.31.198.65.339 1.008.417 2.63.57 4.073-1.582 5.002-3.55a59.4 59.4 0 0 0 3.349-9.579q.242-.92.476-1.84c.302-1.17.603-2.354.863-3.538l11.609-31.52a26 26 0 0 1 9.13-7.735 25.5 25.5 0 0 1 11.57-2.768 25.17 25.17 0 0 1 15.941 5.58c7.591 5.838 12.11 17.335 12.11 17.335a11.76 11.76 0 0 1 .12 9.183 11.6 11.6 0 0 1-2.474 3.747 11.4 11.4 0 0 1-3.697 2.499 11.22 11.22 0 0 1-9.165-.22 11.4 11.4 0 0 1-3.898-3.06l-.11-.136a15.5 15.5 0 0 1-1.81-3.237 45 45 0 0 0-2.099-4.22 27 27 0 0 0-1.34-2.035 8.3 8.3 0 0 0-1.43-1.595c-1.067-.877-2.413-1.226-3.668-.472q-.09.052-.175.117c-1.29.901-2.196 2.722-2.823 4.12-1.81 3.962-2.848 8.021-3.874 12.191-.193.803-.386 1.607-.567 2.416L73.86 82.386l-6.763 15.159a26.2 26.2 0 0 1-9.064 7.534 25.8 25.8 0 0 1-11.39 2.755c-16.43.356-24.225-14.717-24.225-14.717-9.358-15.6-12.115-36.18-12.773-42.76-.139-1.367-.145-2.182-.145-2.182 0-2.061.552-4.083 1.6-5.848a11.2 11.2 0 0 1 4.343-4.166 12.05 12.05 0 0 1 5.998-1.33c1.933.081 3.814.661 5.466 1.685a10.8 10.8 0 0 1 3.258 3.067c1.545 2.232 1.895 5.01 2.202 7.665a106 106 0 0 0 3.349 17.213"/><path fill="url(#j)" d="M35.716 66.46a68.4 68.4 0 0 0 5.14 13.044c.984 1.84 1.968 3.679 3.753 4.838.31.198.65.339 1.008.417 2.63.57 4.073-1.582 5.002-3.55a59.4 59.4 0 0 0 3.349-9.579q.242-.92.476-1.84c.302-1.17.603-2.354.863-3.538l11.609-31.52a26 26 0 0 1 9.13-7.735 25.5 25.5 0 0 1 11.57-2.768 25.17 25.17 0 0 1 15.941 5.58c7.591 5.838 12.11 17.335 12.11 17.335a11.76 11.76 0 0 1 .12 9.183 11.6 11.6 0 0 1-2.474 3.747 11.4 11.4 0 0 1-3.697 2.499 11.22 11.22 0 0 1-9.165-.22 11.4 11.4 0 0 1-3.898-3.06l-.11-.136a15.5 15.5 0 0 1-1.81-3.237 45 45 0 0 0-2.099-4.22 27 27 0 0 0-1.34-2.035 8.3 8.3 0 0 0-1.43-1.595c-1.067-.877-2.413-1.226-3.668-.472q-.09.052-.175.117c-1.29.901-2.196 2.722-2.823 4.12-1.81 3.962-2.848 8.021-3.874 12.191-.193.803-.386 1.607-.567 2.416L73.86 82.386l-6.763 15.159a26.2 26.2 0 0 1-9.064 7.534 25.8 25.8 0 0 1-11.39 2.755c-16.43.356-24.225-14.717-24.225-14.717-9.358-15.6-12.115-36.18-12.773-42.76-.139-1.367-.145-2.182-.145-2.182 0-2.061.552-4.083 1.6-5.848a11.2 11.2 0 0 1 4.343-4.166 12.05 12.05 0 0 1 5.998-1.33c1.933.081 3.814.661 5.466 1.685a10.8 10.8 0 0 1 3.258 3.067c1.545 2.232 1.895 5.01 2.202 7.665a106 106 0 0 0 3.349 17.213"/><path fill="url(#k)" d="M35.716 66.46a68.4 68.4 0 0 0 5.14 13.044c.984 1.84 1.968 3.679 3.753 4.838.31.198.65.339 1.008.417 2.63.57 4.073-1.582 5.002-3.55a59.4 59.4 0 0 0 3.349-9.579q.242-.92.476-1.84c.302-1.17.603-2.354.863-3.538l11.609-31.52a26 26 0 0 1 9.13-7.735 25.5 25.5 0 0 1 11.57-2.768 25.17 25.17 0 0 1 15.941 5.58c7.591 5.838 12.11 17.335 12.11 17.335a11.76 11.76 0 0 1 .12 9.183 11.6 11.6 0 0 1-2.474 3.747 11.4 11.4 0 0 1-3.697 2.499 11.22 11.22 0 0 1-9.165-.22 11.4 11.4 0 0 1-3.898-3.06l-.11-.136a15.5 15.5 0 0 1-1.81-3.237 45 45 0 0 0-2.099-4.22 27 27 0 0 0-1.34-2.035 8.3 8.3 0 0 0-1.43-1.595c-1.067-.877-2.413-1.226-3.668-.472q-.09.052-.175.117c-1.29.901-2.196 2.722-2.823 4.12-1.81 3.962-2.848 8.021-3.874 12.191-.193.803-.386 1.607-.567 2.416L73.86 82.386l-6.763 15.159a26.2 26.2 0 0 1-9.064 7.534 25.8 25.8 0 0 1-11.39 2.755c-16.43.356-24.225-14.717-24.225-14.717-9.358-15.6-12.115-36.18-12.773-42.76-.139-1.367-.145-2.182-.145-2.182 0-2.061.552-4.083 1.6-5.848a11.2 11.2 0 0 1 4.343-4.166 12.05 12.05 0 0 1 5.998-1.33c1.933.081 3.814.661 5.466 1.685a10.8 10.8 0 0 1 3.258 3.067c1.545 2.232 1.895 5.01 2.202 7.665a106 106 0 0 0 3.349 17.213"/><path fill="url(#l)" d="M35.716 66.46a68.4 68.4 0 0 0 5.14 13.044c.984 1.84 1.968 3.679 3.753 4.838.31.198.65.339 1.008.417 2.63.57 4.073-1.582 5.002-3.55a59.4 59.4 0 0 0 3.349-9.579q.242-.92.476-1.84c.302-1.17.603-2.354.863-3.538l11.609-31.52a26 26 0 0 1 9.13-7.735 25.5 25.5 0 0 1 11.57-2.768 25.17 25.17 0 0 1 15.941 5.58c7.591 5.838 12.11 17.335 12.11 17.335a11.76 11.76 0 0 1 .12 9.183 11.6 11.6 0 0 1-2.474 3.747 11.4 11.4 0 0 1-3.697 2.499 11.22 11.22 0 0 1-9.165-.22 11.4 11.4 0 0 1-3.898-3.06l-.11-.136a15.5 15.5 0 0 1-1.81-3.237 45 45 0 0 0-2.099-4.22 27 27 0 0 0-1.34-2.035 8.3 8.3 0 0 0-1.43-1.595c-1.067-.877-2.413-1.226-3.668-.472q-.09.052-.175.117c-1.29.901-2.196 2.722-2.823 4.12-1.81 3.962-2.848 8.021-3.874 12.191-.193.803-.386 1.607-.567 2.416L73.86 82.386l-6.763 15.159a26.2 26.2 0 0 1-9.064 7.534 25.8 25.8 0 0 1-11.39 2.755c-16.43.356-24.225-14.717-24.225-14.717-9.358-15.6-12.115-36.18-12.773-42.76-.139-1.367-.145-2.182-.145-2.182 0-2.061.552-4.083 1.6-5.848a11.2 11.2 0 0 1 4.343-4.166 12.05 12.05 0 0 1 5.998-1.33c1.933.081 3.814.661 5.466 1.685a10.8 10.8 0 0 1 3.258 3.067c1.545 2.232 1.895 5.01 2.202 7.665a106 106 0 0 0 3.349 17.213"/><path fill="url(#m)" d="M35.716 66.46a68.4 68.4 0 0 0 5.14 13.044c.984 1.84 1.968 3.679 3.753 4.838.31.198.65.339 1.008.417 2.63.57 4.073-1.582 5.002-3.55a59.4 59.4 0 0 0 3.349-9.579q.242-.92.476-1.84c.302-1.17.603-2.354.863-3.538l11.609-31.52a26 26 0 0 1 9.13-7.735 25.5 25.5 0 0 1 11.57-2.768 25.17 25.17 0 0 1 15.941 5.58c7.591 5.838 12.11 17.335 12.11 17.335a11.76 11.76 0 0 1 .12 9.183 11.6 11.6 0 0 1-2.474 3.747 11.4 11.4 0 0 1-3.697 2.499 11.22 11.22 0 0 1-9.165-.22 11.4 11.4 0 0 1-3.898-3.06l-.11-.136a15.5 15.5 0 0 1-1.81-3.237 45 45 0 0 0-2.099-4.22 27 27 0 0 0-1.34-2.035 8.3 8.3 0 0 0-1.43-1.595c-1.067-.877-2.413-1.226-3.668-.472q-.09.052-.175.117c-1.29.901-2.196 2.722-2.823 4.12-1.81 3.962-2.848 8.021-3.874 12.191-.193.803-.386 1.607-.567 2.416L73.86 82.386l-6.763 15.159a26.2 26.2 0 0 1-9.064 7.534 25.8 25.8 0 0 1-11.39 2.755c-16.43.356-24.225-14.717-24.225-14.717-9.358-15.6-12.115-36.18-12.773-42.76-.139-1.367-.145-2.182-.145-2.182 0-2.061.552-4.083 1.6-5.848a11.2 11.2 0 0 1 4.343-4.166 12.05 12.05 0 0 1 5.998-1.33c1.933.081 3.814.661 5.466 1.685a10.8 10.8 0 0 1 3.258 3.067c1.545 2.232 1.895 5.01 2.202 7.665a106 106 0 0 0 3.349 17.213"/><path fill="url(#n)" d="M35.716 66.46a68.4 68.4 0 0 0 5.14 13.044c.984 1.84 1.968 3.679 3.753 4.838.31.198.65.339 1.008.417 2.63.57 4.073-1.582 5.002-3.55a59.4 59.4 0 0 0 3.349-9.579q.242-.92.476-1.84c.302-1.17.603-2.354.863-3.538l11.609-31.52a26 26 0 0 1 9.13-7.735 25.5 25.5 0 0 1 11.57-2.768 25.17 25.17 0 0 1 15.941 5.58c7.591 5.838 12.11 17.335 12.11 17.335a11.76 11.76 0 0 1 .12 9.183 11.6 11.6 0 0 1-2.474 3.747 11.4 11.4 0 0 1-3.697 2.499 11.22 11.22 0 0 1-9.165-.22 11.4 11.4 0 0 1-3.898-3.06l-.11-.136a15.5 15.5 0 0 1-1.81-3.237 45 45 0 0 0-2.099-4.22 27 27 0 0 0-1.34-2.035 8.3 8.3 0 0 0-1.43-1.595c-1.067-.877-2.413-1.226-3.668-.472q-.09.052-.175.117c-1.29.901-2.196 2.722-2.823 4.12-1.81 3.962-2.848 8.021-3.874 12.191-.193.803-.386 1.607-.567 2.416L73.86 82.386l-6.763 15.159a26.2 26.2 0 0 1-9.064 7.534 25.8 25.8 0 0 1-11.39 2.755c-16.43.356-24.225-14.717-24.225-14.717-9.358-15.6-12.115-36.18-12.773-42.76-.139-1.367-.145-2.182-.145-2.182 0-2.061.552-4.083 1.6-5.848a11.2 11.2 0 0 1 4.343-4.166 12.05 12.05 0 0 1 5.998-1.33c1.933.081 3.814.661 5.466 1.685a10.8 10.8 0 0 1 3.258 3.067c1.545 2.232 1.895 5.01 2.202 7.665a106 106 0 0 0 3.349 17.213"/><path fill="url(#o)" d="M35.716 66.46a68.4 68.4 0 0 0 5.14 13.044c.984 1.84 1.968 3.679 3.753 4.838.31.198.65.339 1.008.417 2.63.57 4.073-1.582 5.002-3.55a59.4 59.4 0 0 0 3.349-9.579q.242-.92.476-1.84c.302-1.17.603-2.354.863-3.538l11.609-31.52a26 26 0 0 1 9.13-7.735 25.5 25.5 0 0 1 11.57-2.768 25.17 25.17 0 0 1 15.941 5.58c7.591 5.838 12.11 17.335 12.11 17.335a11.76 11.76 0 0 1 .12 9.183 11.6 11.6 0 0 1-2.474 3.747 11.4 11.4 0 0 1-3.697 2.499 11.22 11.22 0 0 1-9.165-.22 11.4 11.4 0 0 1-3.898-3.06l-.11-.136a15.5 15.5 0 0 1-1.81-3.237 45 45 0 0 0-2.099-4.22 27 27 0 0 0-1.34-2.035 8.3 8.3 0 0 0-1.43-1.595c-1.067-.877-2.413-1.226-3.668-.472q-.09.052-.175.117c-1.29.901-2.196 2.722-2.823 4.12-1.81 3.962-2.848 8.021-3.874 12.191-.193.803-.386 1.607-.567 2.416L73.86 82.386l-6.763 15.159a26.2 26.2 0 0 1-9.064 7.534 25.8 25.8 0 0 1-11.39 2.755c-16.43.356-24.225-14.717-24.225-14.717-9.358-15.6-12.115-36.18-12.773-42.76-.139-1.367-.145-2.182-.145-2.182 0-2.061.552-4.083 1.6-5.848a11.2 11.2 0 0 1 4.343-4.166 12.05 12.05 0 0 1 5.998-1.33c1.933.081 3.814.661 5.466 1.685a10.8 10.8 0 0 1 3.258 3.067c1.545 2.232 1.895 5.01 2.202 7.665a106 106 0 0 0 3.349 17.213"/><path fill="url(#p)" d="M35.716 66.46a68.4 68.4 0 0 0 5.14 13.044c.984 1.84 1.968 3.679 3.753 4.838.31.198.65.339 1.008.417 2.63.57 4.073-1.582 5.002-3.55a59.4 59.4 0 0 0 3.349-9.579q.242-.92.476-1.84c.302-1.17.603-2.354.863-3.538l11.609-31.52a26 26 0 0 1 9.13-7.735 25.5 25.5 0 0 1 11.57-2.768 25.17 25.17 0 0 1 15.941 5.58c7.591 5.838 12.11 17.335 12.11 17.335a11.76 11.76 0 0 1 .12 9.183 11.6 11.6 0 0 1-2.474 3.747 11.4 11.4 0 0 1-3.697 2.499 11.22 11.22 0 0 1-9.165-.22 11.4 11.4 0 0 1-3.898-3.06l-.11-.136a15.5 15.5 0 0 1-1.81-3.237 45 45 0 0 0-2.099-4.22 27 27 0 0 0-1.34-2.035 8.3 8.3 0 0 0-1.43-1.595c-1.067-.877-2.413-1.226-3.668-.472q-.09.052-.175.117c-1.29.901-2.196 2.722-2.823 4.12-1.81 3.962-2.848 8.021-3.874 12.191-.193.803-.386 1.607-.567 2.416L73.86 82.386l-6.763 15.159a26.2 26.2 0 0 1-9.064 7.534 25.8 25.8 0 0 1-11.39 2.755c-16.43.356-24.225-14.717-24.225-14.717-9.358-15.6-12.115-36.18-12.773-42.76-.139-1.367-.145-2.182-.145-2.182 0-2.061.552-4.083 1.6-5.848a11.2 11.2 0 0 1 4.343-4.166 12.05 12.05 0 0 1 5.998-1.33c1.933.081 3.814.661 5.466 1.685a10.8 10.8 0 0 1 3.258 3.067c1.545 2.232 1.895 5.01 2.202 7.665a106 106 0 0 0 3.349 17.213"/><path fill="url(#q)" d="M35.716 66.46a68.4 68.4 0 0 0 5.14 13.044c.984 1.84 1.968 3.679 3.753 4.838.31.198.65.339 1.008.417 2.63.57 4.073-1.582 5.002-3.55a59.4 59.4 0 0 0 3.349-9.579q.242-.92.476-1.84c.302-1.17.603-2.354.863-3.538l11.609-31.52a26 26 0 0 1 9.13-7.735 25.5 25.5 0 0 1 11.57-2.768 25.17 25.17 0 0 1 15.941 5.58c7.591 5.838 12.11 17.335 12.11 17.335a11.76 11.76 0 0 1 .12 9.183 11.6 11.6 0 0 1-2.474 3.747 11.4 11.4 0 0 1-3.697 2.499 11.22 11.22 0 0 1-9.165-.22 11.4 11.4 0 0 1-3.898-3.06l-.11-.136a15.5 15.5 0 0 1-1.81-3.237 45 45 0 0 0-2.099-4.22 27 27 0 0 0-1.34-2.035 8.3 8.3 0 0 0-1.43-1.595c-1.067-.877-2.413-1.226-3.668-.472q-.09.052-.175.117c-1.29.901-2.196 2.722-2.823 4.12-1.81 3.962-2.848 8.021-3.874 12.191-.193.803-.386 1.607-.567 2.416L73.86 82.386l-6.763 15.159a26.2 26.2 0 0 1-9.064 7.534 25.8 25.8 0 0 1-11.39 2.755c-16.43.356-24.225-14.717-24.225-14.717-9.358-15.6-12.115-36.18-12.773-42.76-.139-1.367-.145-2.182-.145-2.182 0-2.061.552-4.083 1.6-5.848a11.2 11.2 0 0 1 4.343-4.166 12.05 12.05 0 0 1 5.998-1.33c1.933.081 3.814.661 5.466 1.685a10.8 10.8 0 0 1 3.258 3.067c1.545 2.232 1.895 5.01 2.202 7.665a106 106 0 0 0 3.349 17.213"/><path fill="url(#r)" d="M35.716 66.46a68.4 68.4 0 0 0 5.14 13.044c.984 1.84 1.968 3.679 3.753 4.838.31.198.65.339 1.008.417 2.63.57 4.073-1.582 5.002-3.55a59.4 59.4 0 0 0 3.349-9.579q.242-.92.476-1.84c.302-1.17.603-2.354.863-3.538l11.609-31.52a26 26 0 0 1 9.13-7.735 25.5 25.5 0 0 1 11.57-2.768 25.17 25.17 0 0 1 15.941 5.58c7.591 5.838 12.11 17.335 12.11 17.335a11.76 11.76 0 0 1 .12 9.183 11.6 11.6 0 0 1-2.474 3.747 11.4 11.4 0 0 1-3.697 2.499 11.22 11.22 0 0 1-9.165-.22 11.4 11.4 0 0 1-3.898-3.06l-.11-.136a15.5 15.5 0 0 1-1.81-3.237 45 45 0 0 0-2.099-4.22 27 27 0 0 0-1.34-2.035 8.3 8.3 0 0 0-1.43-1.595c-1.067-.877-2.413-1.226-3.668-.472q-.09.052-.175.117c-1.29.901-2.196 2.722-2.823 4.12-1.81 3.962-2.848 8.021-3.874 12.191-.193.803-.386 1.607-.567 2.416L73.86 82.386l-6.763 15.159a26.2 26.2 0 0 1-9.064 7.534 25.8 25.8 0 0 1-11.39 2.755c-16.43.356-24.225-14.717-24.225-14.717-9.358-15.6-12.115-36.18-12.773-42.76-.139-1.367-.145-2.182-.145-2.182 0-2.061.552-4.083 1.6-5.848a11.2 11.2 0 0 1 4.343-4.166 12.05 12.05 0 0 1 5.998-1.33c1.933.081 3.814.661 5.466 1.685a10.8 10.8 0 0 1 3.258 3.067c1.545 2.232 1.895 5.01 2.202 7.665a106 106 0 0 0 3.349 17.213"/><path fill="url(#s)" d="M35.716 66.46a68.4 68.4 0 0 0 5.14 13.044c.984 1.84 1.968 3.679 3.753 4.838.31.198.65.339 1.008.417 2.63.57 4.073-1.582 5.002-3.55a59.4 59.4 0 0 0 3.349-9.579q.242-.92.476-1.84c.302-1.17.603-2.354.863-3.538l11.609-31.52a26 26 0 0 1 9.13-7.735 25.5 25.5 0 0 1 11.57-2.768 25.17 25.17 0 0 1 15.941 5.58c7.591 5.838 12.11 17.335 12.11 17.335a11.76 11.76 0 0 1 .12 9.183 11.6 11.6 0 0 1-2.474 3.747 11.4 11.4 0 0 1-3.697 2.499 11.22 11.22 0 0 1-9.165-.22 11.4 11.4 0 0 1-3.898-3.06l-.11-.136a15.5 15.5 0 0 1-1.81-3.237 45 45 0 0 0-2.099-4.22 27 27 0 0 0-1.34-2.035 8.3 8.3 0 0 0-1.43-1.595c-1.067-.877-2.413-1.226-3.668-.472q-.09.052-.175.117c-1.29.901-2.196 2.722-2.823 4.12-1.81 3.962-2.848 8.021-3.874 12.191-.193.803-.386 1.607-.567 2.416L73.86 82.386l-6.763 15.159a26.2 26.2 0 0 1-9.064 7.534 25.8 25.8 0 0 1-11.39 2.755c-16.43.356-24.225-14.717-24.225-14.717-9.358-15.6-12.115-36.18-12.773-42.76-.139-1.367-.145-2.182-.145-2.182 0-2.061.552-4.083 1.6-5.848a11.2 11.2 0 0 1 4.343-4.166 12.05 12.05 0 0 1 5.998-1.33c1.933.081 3.814.661 5.466 1.685a10.8 10.8 0 0 1 3.258 3.067c1.545 2.232 1.895 5.01 2.202 7.665a106 106 0 0 0 3.349 17.213"/><path fill="url(#t)" d="M35.716 66.46a68.4 68.4 0 0 0 5.14 13.044c.984 1.84 1.968 3.679 3.753 4.838.31.198.65.339 1.008.417 2.63.57 4.073-1.582 5.002-3.55a59.4 59.4 0 0 0 3.349-9.579q.242-.92.476-1.84c.302-1.17.603-2.354.863-3.538l11.609-31.52a26 26 0 0 1 9.13-7.735 25.5 25.5 0 0 1 11.57-2.768 25.17 25.17 0 0 1 15.941 5.58c7.591 5.838 12.11 17.335 12.11 17.335a11.76 11.76 0 0 1 .12 9.183 11.6 11.6 0 0 1-2.474 3.747 11.4 11.4 0 0 1-3.697 2.499 11.22 11.22 0 0 1-9.165-.22 11.4 11.4 0 0 1-3.898-3.06l-.11-.136a15.5 15.5 0 0 1-1.81-3.237 45 45 0 0 0-2.099-4.22 27 27 0 0 0-1.34-2.035 8.3 8.3 0 0 0-1.43-1.595c-1.067-.877-2.413-1.226-3.668-.472q-.09.052-.175.117c-1.29.901-2.196 2.722-2.823 4.12-1.81 3.962-2.848 8.021-3.874 12.191-.193.803-.386 1.607-.567 2.416L73.86 82.386l-6.763 15.159a26.2 26.2 0 0 1-9.064 7.534 25.8 25.8 0 0 1-11.39 2.755c-16.43.356-24.225-14.717-24.225-14.717-9.358-15.6-12.115-36.18-12.773-42.76-.139-1.367-.145-2.182-.145-2.182 0-2.061.552-4.083 1.6-5.848a11.2 11.2 0 0 1 4.343-4.166 12.05 12.05 0 0 1 5.998-1.33c1.933.081 3.814.661 5.466 1.685a10.8 10.8 0 0 1 3.258 3.067c1.545 2.232 1.895 5.01 2.202 7.665a106 106 0 0 0 3.349 17.213"/><path fill="url(#u)" d="M35.716 66.46a68.4 68.4 0 0 0 5.14 13.044c.984 1.84 1.968 3.679 3.753 4.838.31.198.65.339 1.008.417 2.63.57 4.073-1.582 5.002-3.55a59.4 59.4 0 0 0 3.349-9.579q.242-.92.476-1.84c.302-1.17.603-2.354.863-3.538l11.609-31.52a26 26 0 0 1 9.13-7.735 25.5 25.5 0 0 1 11.57-2.768 25.17 25.17 0 0 1 15.941 5.58c7.591 5.838 12.11 17.335 12.11 17.335a11.76 11.76 0 0 1 .12 9.183 11.6 11.6 0 0 1-2.474 3.747 11.4 11.4 0 0 1-3.697 2.499 11.22 11.22 0 0 1-9.165-.22 11.4 11.4 0 0 1-3.898-3.06l-.11-.136a15.5 15.5 0 0 1-1.81-3.237 45 45 0 0 0-2.099-4.22 27 27 0 0 0-1.34-2.035 8.3 8.3 0 0 0-1.43-1.595c-1.067-.877-2.413-1.226-3.668-.472q-.09.052-.175.117c-1.29.901-2.196 2.722-2.823 4.12-1.81 3.962-2.848 8.021-3.874 12.191-.193.803-.386 1.607-.567 2.416L73.86 82.386l-6.763 15.159a26.2 26.2 0 0 1-9.064 7.534 25.8 25.8 0 0 1-11.39 2.755c-16.43.356-24.225-14.717-24.225-14.717-9.358-15.6-12.115-36.18-12.773-42.76-.139-1.367-.145-2.182-.145-2.182 0-2.061.552-4.083 1.6-5.848a11.2 11.2 0 0 1 4.343-4.166 12.05 12.05 0 0 1 5.998-1.33c1.933.081 3.814.661 5.466 1.685a10.8 10.8 0 0 1 3.258 3.067c1.545 2.232 1.895 5.01 2.202 7.665a106 106 0 0 0 3.349 17.213"/><path fill="url(#v)" d="M35.716 66.46a68.4 68.4 0 0 0 5.14 13.044c.984 1.84 1.968 3.679 3.753 4.838.31.198.65.339 1.008.417 2.63.57 4.073-1.582 5.002-3.55a59.4 59.4 0 0 0 3.349-9.579q.242-.92.476-1.84c.302-1.17.603-2.354.863-3.538l11.609-31.52a26 26 0 0 1 9.13-7.735 25.5 25.5 0 0 1 11.57-2.768 25.17 25.17 0 0 1 15.941 5.58c7.591 5.838 12.11 17.335 12.11 17.335a11.76 11.76 0 0 1 .12 9.183 11.6 11.6 0 0 1-2.474 3.747 11.4 11.4 0 0 1-3.697 2.499 11.22 11.22 0 0 1-9.165-.22 11.4 11.4 0 0 1-3.898-3.06l-.11-.136a15.5 15.5 0 0 1-1.81-3.237 45 45 0 0 0-2.099-4.22 27 27 0 0 0-1.34-2.035 8.3 8.3 0 0 0-1.43-1.595c-1.067-.877-2.413-1.226-3.668-.472q-.09.052-.175.117c-1.29.901-2.196 2.722-2.823 4.12-1.81 3.962-2.848 8.021-3.874 12.191-.193.803-.386 1.607-.567 2.416L73.86 82.386l-6.763 15.159a26.2 26.2 0 0 1-9.064 7.534 25.8 25.8 0 0 1-11.39 2.755c-16.43.356-24.225-14.717-24.225-14.717-9.358-15.6-12.115-36.18-12.773-42.76-.139-1.367-.145-2.182-.145-2.182 0-2.061.552-4.083 1.6-5.848a11.2 11.2 0 0 1 4.343-4.166 12.05 12.05 0 0 1 5.998-1.33c1.933.081 3.814.661 5.466 1.685a10.8 10.8 0 0 1 3.258 3.067c1.545 2.232 1.895 5.01 2.202 7.665a106 106 0 0 0 3.349 17.213"/><path fill="url(#w)" d="m59.536 54.767 7.38-20.028a26 26 0 0 1 9.13-7.736 25.5 25.5 0 0 1 11.57-2.768 25.17 25.17 0 0 1 15.941 5.58c7.591 5.838 12.11 17.336 12.11 17.336a11.76 11.76 0 0 1 .12 9.182 11.6 11.6 0 0 1-2.475 3.747 11.4 11.4 0 0 1-3.697 2.499 11.22 11.22 0 0 1-9.164-.22 11.4 11.4 0 0 1-3.899-3.06l-.108-.135a15.5 15.5 0 0 1-1.81-3.238 45 45 0 0 0-2.1-4.22 27 27 0 0 0-1.34-2.035 8.3 8.3 0 0 0-1.43-1.594c-1.067-.877-2.413-1.227-3.668-.472q-.09.053-.175.116c-1.291.901-2.196 2.723-2.824 4.12-1.81 3.962-2.847 8.022-3.873 12.191-.193.804-.386 1.607-.567 2.417L73.86 82.392z"/><path fill="url(#x)" d="M113.145 36.88c-.959-.003-1.914.119-2.842.361a55.7 55.7 0 0 1 5.364 9.91 11.76 11.76 0 0 1 .12 9.182 11.6 11.6 0 0 1-2.475 3.747 11.4 11.4 0 0 1-3.697 2.5 11.22 11.22 0 0 1-10.1-.724l-1.17 4.396c-2.125 7.218-3.62 10.008-3.62 10.008a39 39 0 0 1-2.933 5.635c-.779 1.172-1.774 2.35-3.138 2.797a3.1 3.1 0 0 1-1.478.147 3.9 3.9 0 0 1-1.526-.521 6.8 6.8 0 0 1-2.076-2.625 38 38 0 0 1-1.55-3.538c-1.008-2.49-2.565-8.622-2.565-8.622l-1.61-6.42-1.612-6.47-1.146-4.25c-3.017-11.068-7.192-16.513-7.192-16.513a27.75 27.75 0 0 0-13.31-10.327c-6.24-2.275-12.786-.993-12.786-.993-10.257 2.048-15.645 9.198-18.016 12.638 1.085.288 2.124.734 3.083 1.325a10.8 10.8 0 0 1 3.258 3.066c1.545 2.232 1.895 5.01 2.203 7.665a106 106 0 0 0 3.342 17.01c3.476-11.712 7.645-17.17 7.645-17.17a6.8 6.8 0 0 1 1.653-1.496 2.7 2.7 0 0 1 1.074-.386 3.1 3.1 0 0 1 2.01.497q.163.11.307.245a7.2 7.2 0 0 1 1.388 1.699A37 37 0 0 1 52 54.558c1.303 3.729 2.414 8.285 2.414 8.285l3.318 13.294c2.413 9.04 4.459 13.43 4.459 13.43 5.038 11.725 12.743 15.024 12.743 15.024a26.66 26.66 0 0 0 12.176 3.237c4.06.113 8.087-.769 11.741-2.569a30 30 0 0 0 10.287-8.456c1.865-2.195 4.61-7.543 4.61-7.543a97.6 97.6 0 0 0 7.089-19.212 125 125 0 0 0 2.589-12.558c.326-2.098.633-4.207.881-6.323a16.6 16.6 0 0 0-.181-6.028 9 9 0 0 0-.332-1.048 11.35 11.35 0 0 0-5.08-5.82 11.56 11.56 0 0 0-5.569-1.392"/><path fill="url(#y)" d="M113.145 36.88c-.959-.003-1.914.119-2.842.361a55.7 55.7 0 0 1 5.364 9.91 11.76 11.76 0 0 1 .12 9.182 11.6 11.6 0 0 1-2.475 3.747 11.4 11.4 0 0 1-3.697 2.5 11.22 11.22 0 0 1-10.1-.724l-1.17 4.396c-2.125 7.218-3.62 10.008-3.62 10.008a39 39 0 0 1-2.933 5.635c-.779 1.172-1.774 2.35-3.138 2.797a3.1 3.1 0 0 1-1.478.147 3.9 3.9 0 0 1-1.526-.521 6.8 6.8 0 0 1-2.076-2.625 38 38 0 0 1-1.55-3.538c-1.008-2.49-2.565-8.622-2.565-8.622l-1.61-6.42-1.612-6.47-1.146-4.25c-3.017-11.068-7.192-16.513-7.192-16.513a27.75 27.75 0 0 0-13.31-10.327c-6.24-2.275-12.786-.993-12.786-.993-10.257 2.048-15.645 9.198-18.016 12.638 1.085.288 2.124.734 3.083 1.325a10.8 10.8 0 0 1 3.258 3.066c1.545 2.232 1.895 5.01 2.203 7.665a106 106 0 0 0 3.342 17.01c3.476-11.712 7.645-17.17 7.645-17.17a6.8 6.8 0 0 1 1.653-1.496 2.7 2.7 0 0 1 1.074-.386 3.1 3.1 0 0 1 2.01.497q.163.11.307.245a7.2 7.2 0 0 1 1.388 1.699A37 37 0 0 1 52 54.558c1.303 3.729 2.414 8.285 2.414 8.285l3.318 13.294c2.413 9.04 4.459 13.43 4.459 13.43 5.038 11.725 12.743 15.024 12.743 15.024a26.66 26.66 0 0 0 12.176 3.237c4.06.113 8.087-.769 11.741-2.569a30 30 0 0 0 10.287-8.456c1.865-2.195 4.61-7.543 4.61-7.543a97.6 97.6 0 0 0 7.089-19.212 125 125 0 0 0 2.589-12.558c.326-2.098.633-4.207.881-6.323a16.6 16.6 0 0 0-.181-6.028 9 9 0 0 0-.332-1.048 11.35 11.35 0 0 0-5.08-5.82 11.56 11.56 0 0 0-5.569-1.392"/><path fill="url(#z)" d="M113.145 36.88c-.959-.003-1.914.119-2.842.361a55.7 55.7 0 0 1 5.364 9.91 11.76 11.76 0 0 1 .12 9.182 11.6 11.6 0 0 1-2.475 3.747 11.4 11.4 0 0 1-3.697 2.5 11.22 11.22 0 0 1-10.1-.724l-1.17 4.396c-2.125 7.218-3.62 10.008-3.62 10.008a39 39 0 0 1-2.933 5.635c-.779 1.172-1.774 2.35-3.138 2.797a3.1 3.1 0 0 1-1.478.147 3.9 3.9 0 0 1-1.526-.521 6.8 6.8 0 0 1-2.076-2.625 38 38 0 0 1-1.55-3.538c-1.008-2.49-2.565-8.622-2.565-8.622l-1.61-6.42-1.612-6.47-1.146-4.25c-3.017-11.068-7.192-16.513-7.192-16.513a27.75 27.75 0 0 0-13.31-10.327c-6.24-2.275-12.786-.993-12.786-.993-10.257 2.048-15.645 9.198-18.016 12.638 1.085.288 2.124.734 3.083 1.325a10.8 10.8 0 0 1 3.258 3.066c1.545 2.232 1.895 5.01 2.203 7.665a106 106 0 0 0 3.342 17.01c3.476-11.712 7.645-17.17 7.645-17.17a6.8 6.8 0 0 1 1.653-1.496 2.7 2.7 0 0 1 1.074-.386 3.1 3.1 0 0 1 2.01.497q.163.11.307.245a7.2 7.2 0 0 1 1.388 1.699A37 37 0 0 1 52 54.558c1.303 3.729 2.414 8.285 2.414 8.285l3.318 13.294c2.413 9.04 4.459 13.43 4.459 13.43 5.038 11.725 12.743 15.024 12.743 15.024a26.66 26.66 0 0 0 12.176 3.237c4.06.113 8.087-.769 11.741-2.569a30 30 0 0 0 10.287-8.456c1.865-2.195 4.61-7.543 4.61-7.543a97.6 97.6 0 0 0 7.089-19.212 125 125 0 0 0 2.589-12.558c.326-2.098.633-4.207.881-6.323a16.6 16.6 0 0 0-.181-6.028 9 9 0 0 0-.332-1.048 11.35 11.35 0 0 0-5.08-5.82 11.56 11.56 0 0 0-5.569-1.392"/><path fill="url(#A)" d="M113.145 36.88c-.959-.003-1.914.119-2.842.361a55.7 55.7 0 0 1 5.364 9.91 11.76 11.76 0 0 1 .12 9.182 11.6 11.6 0 0 1-2.475 3.747 11.4 11.4 0 0 1-3.697 2.5 11.22 11.22 0 0 1-10.1-.724l-1.17 4.396c-2.125 7.218-3.62 10.008-3.62 10.008a39 39 0 0 1-2.933 5.635c-.779 1.172-1.774 2.35-3.138 2.797a3.1 3.1 0 0 1-1.478.147 3.9 3.9 0 0 1-1.526-.521 6.8 6.8 0 0 1-2.076-2.625 38 38 0 0 1-1.55-3.538c-1.008-2.49-2.565-8.622-2.565-8.622l-1.61-6.42-1.612-6.47-1.146-4.25c-3.017-11.068-7.192-16.513-7.192-16.513a27.75 27.75 0 0 0-13.31-10.327c-6.24-2.275-12.786-.993-12.786-.993-10.257 2.048-15.645 9.198-18.016 12.638 1.085.288 2.124.734 3.083 1.325a10.8 10.8 0 0 1 3.258 3.066c1.545 2.232 1.895 5.01 2.203 7.665a106 106 0 0 0 3.342 17.01c3.476-11.712 7.645-17.17 7.645-17.17a6.8 6.8 0 0 1 1.653-1.496 2.7 2.7 0 0 1 1.074-.386 3.1 3.1 0 0 1 2.01.497q.163.11.307.245a7.2 7.2 0 0 1 1.388 1.699A37 37 0 0 1 52 54.558c1.303 3.729 2.414 8.285 2.414 8.285l3.318 13.294c2.413 9.04 4.459 13.43 4.459 13.43 5.038 11.725 12.743 15.024 12.743 15.024a26.66 26.66 0 0 0 12.176 3.237c4.06.113 8.087-.769 11.741-2.569a30 30 0 0 0 10.287-8.456c1.865-2.195 4.61-7.543 4.61-7.543a97.6 97.6 0 0 0 7.089-19.212 125 125 0 0 0 2.589-12.558c.326-2.098.633-4.207.881-6.323a16.6 16.6 0 0 0-.181-6.028 9 9 0 0 0-.332-1.048 11.35 11.35 0 0 0-5.08-5.82 11.56 11.56 0 0 0-5.569-1.392"/><path fill="url(#B)" d="M113.145 36.88c-.959-.003-1.914.119-2.842.361a55.7 55.7 0 0 1 5.364 9.91 11.76 11.76 0 0 1 .12 9.182 11.6 11.6 0 0 1-2.475 3.747 11.4 11.4 0 0 1-3.697 2.5 11.22 11.22 0 0 1-10.1-.724l-1.17 4.396c-2.125 7.218-3.62 10.008-3.62 10.008a39 39 0 0 1-2.933 5.635c-.779 1.172-1.774 2.35-3.138 2.797a3.1 3.1 0 0 1-1.478.147 3.9 3.9 0 0 1-1.526-.521 6.8 6.8 0 0 1-2.076-2.625 38 38 0 0 1-1.55-3.538c-1.008-2.49-2.565-8.622-2.565-8.622l-1.61-6.42-1.612-6.47-1.146-4.25c-3.017-11.068-7.192-16.513-7.192-16.513a27.75 27.75 0 0 0-13.31-10.327c-6.24-2.275-12.786-.993-12.786-.993-10.257 2.048-15.645 9.198-18.016 12.638 1.085.288 2.124.734 3.083 1.325a10.8 10.8 0 0 1 3.258 3.066c1.545 2.232 1.895 5.01 2.203 7.665a106 106 0 0 0 3.342 17.01c3.476-11.712 7.645-17.17 7.645-17.17a6.8 6.8 0 0 1 1.653-1.496 2.7 2.7 0 0 1 1.074-.386 3.1 3.1 0 0 1 2.01.497q.163.11.307.245a7.2 7.2 0 0 1 1.388 1.699A37 37 0 0 1 52 54.558c1.303 3.729 2.414 8.285 2.414 8.285l3.318 13.294c2.413 9.04 4.459 13.43 4.459 13.43 5.038 11.725 12.743 15.024 12.743 15.024a26.66 26.66 0 0 0 12.176 3.237c4.06.113 8.087-.769 11.741-2.569a30 30 0 0 0 10.287-8.456c1.865-2.195 4.61-7.543 4.61-7.543a97.6 97.6 0 0 0 7.089-19.212 125 125 0 0 0 2.589-12.558c.326-2.098.633-4.207.881-6.323a16.6 16.6 0 0 0-.181-6.028 9 9 0 0 0-.332-1.048 11.35 11.35 0 0 0-5.08-5.82 11.56 11.56 0 0 0-5.569-1.392"/><path fill="url(#C)" d="M113.145 36.88c-.959-.003-1.914.119-2.842.361a55.7 55.7 0 0 1 5.364 9.91 11.76 11.76 0 0 1 .12 9.182 11.6 11.6 0 0 1-2.475 3.747 11.4 11.4 0 0 1-3.697 2.5 11.22 11.22 0 0 1-10.1-.724l-1.17 4.396c-2.125 7.218-3.62 10.008-3.62 10.008a39 39 0 0 1-2.933 5.635c-.779 1.172-1.774 2.35-3.138 2.797a3.1 3.1 0 0 1-1.478.147 3.9 3.9 0 0 1-1.526-.521 6.8 6.8 0 0 1-2.076-2.625 38 38 0 0 1-1.55-3.538c-1.008-2.49-2.565-8.622-2.565-8.622l-1.61-6.42-1.612-6.47-1.146-4.25c-3.017-11.068-7.192-16.513-7.192-16.513a27.75 27.75 0 0 0-13.31-10.327c-6.24-2.275-12.786-.993-12.786-.993-10.257 2.048-15.645 9.198-18.016 12.638 1.085.288 2.124.734 3.083 1.325a10.8 10.8 0 0 1 3.258 3.066c1.545 2.232 1.895 5.01 2.203 7.665a106 106 0 0 0 3.342 17.01c3.476-11.712 7.645-17.17 7.645-17.17a6.8 6.8 0 0 1 1.653-1.496 2.7 2.7 0 0 1 1.074-.386 3.1 3.1 0 0 1 2.01.497q.163.11.307.245a7.2 7.2 0 0 1 1.388 1.699A37 37 0 0 1 52 54.558c1.303 3.729 2.414 8.285 2.414 8.285l3.318 13.294c2.413 9.04 4.459 13.43 4.459 13.43 5.038 11.725 12.743 15.024 12.743 15.024a26.66 26.66 0 0 0 12.176 3.237c4.06.113 8.087-.769 11.741-2.569a30 30 0 0 0 10.287-8.456c1.865-2.195 4.61-7.543 4.61-7.543a97.6 97.6 0 0 0 7.089-19.212 125 125 0 0 0 2.589-12.558c.326-2.098.633-4.207.881-6.323a16.6 16.6 0 0 0-.181-6.028 9 9 0 0 0-.332-1.048 11.35 11.35 0 0 0-5.08-5.82 11.56 11.56 0 0 0-5.569-1.392"/><path fill="url(#D)" d="M113.145 36.88c-.959-.003-1.914.119-2.842.361a55.7 55.7 0 0 1 5.364 9.91 11.76 11.76 0 0 1 .12 9.182 11.6 11.6 0 0 1-2.475 3.747 11.4 11.4 0 0 1-3.697 2.5 11.22 11.22 0 0 1-10.1-.724l-1.17 4.396c-2.125 7.218-3.62 10.008-3.62 10.008a39 39 0 0 1-2.933 5.635c-.779 1.172-1.774 2.35-3.138 2.797a3.1 3.1 0 0 1-1.478.147 3.9 3.9 0 0 1-1.526-.521 6.8 6.8 0 0 1-2.076-2.625 38 38 0 0 1-1.55-3.538c-1.008-2.49-2.565-8.622-2.565-8.622l-1.61-6.42-1.612-6.47-1.146-4.25c-3.017-11.068-7.192-16.513-7.192-16.513a27.75 27.75 0 0 0-13.31-10.327c-6.24-2.275-12.786-.993-12.786-.993-10.257 2.048-15.645 9.198-18.016 12.638 1.085.288 2.124.734 3.083 1.325a10.8 10.8 0 0 1 3.258 3.066c1.545 2.232 1.895 5.01 2.203 7.665a106 106 0 0 0 3.342 17.01c3.476-11.712 7.645-17.17 7.645-17.17a6.8 6.8 0 0 1 1.653-1.496 2.7 2.7 0 0 1 1.074-.386 3.1 3.1 0 0 1 2.01.497q.163.11.307.245a7.2 7.2 0 0 1 1.388 1.699A37 37 0 0 1 52 54.558c1.303 3.729 2.414 8.285 2.414 8.285l3.318 13.294c2.413 9.04 4.459 13.43 4.459 13.43 5.038 11.725 12.743 15.024 12.743 15.024a26.66 26.66 0 0 0 12.176 3.237c4.06.113 8.087-.769 11.741-2.569a30 30 0 0 0 10.287-8.456c1.865-2.195 4.61-7.543 4.61-7.543a97.6 97.6 0 0 0 7.089-19.212 125 125 0 0 0 2.589-12.558c.326-2.098.633-4.207.881-6.323a16.6 16.6 0 0 0-.181-6.028 9 9 0 0 0-.332-1.048 11.35 11.35 0 0 0-5.08-5.82 11.56 11.56 0 0 0-5.569-1.392"/><path fill="url(#E)" d="M113.145 36.88c-.959-.003-1.914.119-2.842.361a55.7 55.7 0 0 1 5.364 9.91 11.76 11.76 0 0 1 .12 9.182 11.6 11.6 0 0 1-2.475 3.747 11.4 11.4 0 0 1-3.697 2.5 11.22 11.22 0 0 1-10.1-.724l-1.17 4.396c-2.125 7.218-3.62 10.008-3.62 10.008a39 39 0 0 1-2.933 5.635c-.779 1.172-1.774 2.35-3.138 2.797a3.1 3.1 0 0 1-1.478.147 3.9 3.9 0 0 1-1.526-.521 6.8 6.8 0 0 1-2.076-2.625 38 38 0 0 1-1.55-3.538c-1.008-2.49-2.565-8.622-2.565-8.622l-1.61-6.42-1.612-6.47-1.146-4.25c-3.017-11.068-7.192-16.513-7.192-16.513a27.75 27.75 0 0 0-13.31-10.327c-6.24-2.275-12.786-.993-12.786-.993-10.257 2.048-15.645 9.198-18.016 12.638 1.085.288 2.124.734 3.083 1.325a10.8 10.8 0 0 1 3.258 3.066c1.545 2.232 1.895 5.01 2.203 7.665a106 106 0 0 0 3.342 17.01c3.476-11.712 7.645-17.17 7.645-17.17a6.8 6.8 0 0 1 1.653-1.496 2.7 2.7 0 0 1 1.074-.386 3.1 3.1 0 0 1 2.01.497q.163.11.307.245a7.2 7.2 0 0 1 1.388 1.699A37 37 0 0 1 52 54.558c1.303 3.729 2.414 8.285 2.414 8.285l3.318 13.294c2.413 9.04 4.459 13.43 4.459 13.43 5.038 11.725 12.743 15.024 12.743 15.024a26.66 26.66 0 0 0 12.176 3.237c4.06.113 8.087-.769 11.741-2.569a30 30 0 0 0 10.287-8.456c1.865-2.195 4.61-7.543 4.61-7.543a97.6 97.6 0 0 0 7.089-19.212 125 125 0 0 0 2.589-12.558c.326-2.098.633-4.207.881-6.323a16.6 16.6 0 0 0-.181-6.028 9 9 0 0 0-.332-1.048 11.35 11.35 0 0 0-5.08-5.82 11.56 11.56 0 0 0-5.569-1.392"/><path fill="url(#F)" d="M113.145 36.88c-.959-.003-1.914.119-2.842.361a55.7 55.7 0 0 1 5.364 9.91 11.76 11.76 0 0 1 .12 9.182 11.6 11.6 0 0 1-2.475 3.747 11.4 11.4 0 0 1-3.697 2.5 11.22 11.22 0 0 1-10.1-.724l-1.17 4.396c-2.125 7.218-3.62 10.008-3.62 10.008a39 39 0 0 1-2.933 5.635c-.779 1.172-1.774 2.35-3.138 2.797a3.1 3.1 0 0 1-1.478.147 3.9 3.9 0 0 1-1.526-.521 6.8 6.8 0 0 1-2.076-2.625 38 38 0 0 1-1.55-3.538c-1.008-2.49-2.565-8.622-2.565-8.622l-1.61-6.42-1.612-6.47-1.146-4.25c-3.017-11.068-7.192-16.513-7.192-16.513a27.75 27.75 0 0 0-13.31-10.327c-6.24-2.275-12.786-.993-12.786-.993-10.257 2.048-15.645 9.198-18.016 12.638 1.085.288 2.124.734 3.083 1.325a10.8 10.8 0 0 1 3.258 3.066c1.545 2.232 1.895 5.01 2.203 7.665a106 106 0 0 0 3.342 17.01c3.476-11.712 7.645-17.17 7.645-17.17a6.8 6.8 0 0 1 1.653-1.496 2.7 2.7 0 0 1 1.074-.386 3.1 3.1 0 0 1 2.01.497q.163.11.307.245a7.2 7.2 0 0 1 1.388 1.699A37 37 0 0 1 52 54.558c1.303 3.729 2.414 8.285 2.414 8.285l3.318 13.294c2.413 9.04 4.459 13.43 4.459 13.43 5.038 11.725 12.743 15.024 12.743 15.024a26.66 26.66 0 0 0 12.176 3.237c4.06.113 8.087-.769 11.741-2.569a30 30 0 0 0 10.287-8.456c1.865-2.195 4.61-7.543 4.61-7.543a97.6 97.6 0 0 0 7.089-19.212 125 125 0 0 0 2.589-12.558c.326-2.098.633-4.207.881-6.323a16.6 16.6 0 0 0-.181-6.028 9 9 0 0 0-.332-1.048 11.35 11.35 0 0 0-5.08-5.82 11.56 11.56 0 0 0-5.569-1.392"/><path fill="url(#G)" d="M113.145 36.88c-.959-.003-1.914.119-2.842.361a55.7 55.7 0 0 1 5.364 9.91 11.76 11.76 0 0 1 .12 9.182 11.6 11.6 0 0 1-2.475 3.747 11.4 11.4 0 0 1-3.697 2.5 11.22 11.22 0 0 1-10.1-.724l-1.17 4.396c-2.125 7.218-3.62 10.008-3.62 10.008a39 39 0 0 1-2.933 5.635c-.779 1.172-1.774 2.35-3.138 2.797a3.1 3.1 0 0 1-1.478.147 3.9 3.9 0 0 1-1.526-.521 6.8 6.8 0 0 1-2.076-2.625 38 38 0 0 1-1.55-3.538c-1.008-2.49-2.565-8.622-2.565-8.622l-1.61-6.42-1.612-6.47-1.146-4.25c-3.017-11.068-7.192-16.513-7.192-16.513a27.75 27.75 0 0 0-13.31-10.327c-6.24-2.275-12.786-.993-12.786-.993-10.257 2.048-15.645 9.198-18.016 12.638 1.085.288 2.124.734 3.083 1.325a10.8 10.8 0 0 1 3.258 3.066c1.545 2.232 1.895 5.01 2.203 7.665a106 106 0 0 0 3.342 17.01c3.476-11.712 7.645-17.17 7.645-17.17a6.8 6.8 0 0 1 1.653-1.496 2.7 2.7 0 0 1 1.074-.386 3.1 3.1 0 0 1 2.01.497q.163.11.307.245a7.2 7.2 0 0 1 1.388 1.699A37 37 0 0 1 52 54.558c1.303 3.729 2.414 8.285 2.414 8.285l3.318 13.294c2.413 9.04 4.459 13.43 4.459 13.43 5.038 11.725 12.743 15.024 12.743 15.024a26.66 26.66 0 0 0 12.176 3.237c4.06.113 8.087-.769 11.741-2.569a30 30 0 0 0 10.287-8.456c1.865-2.195 4.61-7.543 4.61-7.543a97.6 97.6 0 0 0 7.089-19.212 125 125 0 0 0 2.589-12.558c.326-2.098.633-4.207.881-6.323a16.6 16.6 0 0 0-.181-6.028 9 9 0 0 0-.332-1.048 11.35 11.35 0 0 0-5.08-5.82 11.56 11.56 0 0 0-5.569-1.392"/><path fill="url(#H)" d="M113.145 36.88c-.959-.003-1.914.119-2.842.361a55.7 55.7 0 0 1 5.364 9.91 11.76 11.76 0 0 1 .12 9.182 11.6 11.6 0 0 1-2.475 3.747 11.4 11.4 0 0 1-3.697 2.5 11.22 11.22 0 0 1-10.1-.724l-1.17 4.396c-2.125 7.218-3.62 10.008-3.62 10.008a39 39 0 0 1-2.933 5.635c-.779 1.172-1.774 2.35-3.138 2.797a3.1 3.1 0 0 1-1.478.147 3.9 3.9 0 0 1-1.526-.521 6.8 6.8 0 0 1-2.076-2.625 38 38 0 0 1-1.55-3.538c-1.008-2.49-2.565-8.622-2.565-8.622l-1.61-6.42-1.612-6.47-1.146-4.25c-3.017-11.068-7.192-16.513-7.192-16.513a27.75 27.75 0 0 0-13.31-10.327c-6.24-2.275-12.786-.993-12.786-.993-10.257 2.048-15.645 9.198-18.016 12.638 1.085.288 2.124.734 3.083 1.325a10.8 10.8 0 0 1 3.258 3.066c1.545 2.232 1.895 5.01 2.203 7.665a106 106 0 0 0 3.342 17.01c3.476-11.712 7.645-17.17 7.645-17.17a6.8 6.8 0 0 1 1.653-1.496 2.7 2.7 0 0 1 1.074-.386 3.1 3.1 0 0 1 2.01.497q.163.11.307.245a7.2 7.2 0 0 1 1.388 1.699A37 37 0 0 1 52 54.558c1.303 3.729 2.414 8.285 2.414 8.285l3.318 13.294c2.413 9.04 4.459 13.43 4.459 13.43 5.038 11.725 12.743 15.024 12.743 15.024a26.66 26.66 0 0 0 12.176 3.237c4.06.113 8.087-.769 11.741-2.569a30 30 0 0 0 10.287-8.456c1.865-2.195 4.61-7.543 4.61-7.543a97.6 97.6 0 0 0 7.089-19.212 125 125 0 0 0 2.589-12.558c.326-2.098.633-4.207.881-6.323a16.6 16.6 0 0 0-.181-6.028 9 9 0 0 0-.332-1.048 11.35 11.35 0 0 0-5.08-5.82 11.56 11.56 0 0 0-5.569-1.392"/><path fill="url(#I)" d="M113.145 36.88c-.959-.003-1.914.119-2.842.361a55.7 55.7 0 0 1 5.364 9.91 11.76 11.76 0 0 1 .12 9.182 11.6 11.6 0 0 1-2.475 3.747 11.4 11.4 0 0 1-3.697 2.5 11.22 11.22 0 0 1-10.1-.724l-1.17 4.396c-2.125 7.218-3.62 10.008-3.62 10.008a39 39 0 0 1-2.933 5.635c-.779 1.172-1.774 2.35-3.138 2.797a3.1 3.1 0 0 1-1.478.147 3.9 3.9 0 0 1-1.526-.521 6.8 6.8 0 0 1-2.076-2.625 38 38 0 0 1-1.55-3.538c-1.008-2.49-2.565-8.622-2.565-8.622l-1.61-6.42-1.612-6.47-1.146-4.25c-3.017-11.068-7.192-16.513-7.192-16.513a27.75 27.75 0 0 0-13.31-10.327c-6.24-2.275-12.786-.993-12.786-.993-10.257 2.048-15.645 9.198-18.016 12.638 1.085.288 2.124.734 3.083 1.325a10.8 10.8 0 0 1 3.258 3.066c1.545 2.232 1.895 5.01 2.203 7.665a106 106 0 0 0 3.342 17.01c3.476-11.712 7.645-17.17 7.645-17.17a6.8 6.8 0 0 1 1.653-1.496 2.7 2.7 0 0 1 1.074-.386 3.1 3.1 0 0 1 2.01.497q.163.11.307.245a7.2 7.2 0 0 1 1.388 1.699A37 37 0 0 1 52 54.558c1.303 3.729 2.414 8.285 2.414 8.285l3.318 13.294c2.413 9.04 4.459 13.43 4.459 13.43 5.038 11.725 12.743 15.024 12.743 15.024a26.66 26.66 0 0 0 12.176 3.237c4.06.113 8.087-.769 11.741-2.569a30 30 0 0 0 10.287-8.456c1.865-2.195 4.61-7.543 4.61-7.543a97.6 97.6 0 0 0 7.089-19.212 125 125 0 0 0 2.589-12.558c.326-2.098.633-4.207.881-6.323a16.6 16.6 0 0 0-.181-6.028 9 9 0 0 0-.332-1.048 11.35 11.35 0 0 0-5.08-5.82 11.56 11.56 0 0 0-5.569-1.392"/><path fill="url(#J)" d="M113.145 36.88c-.959-.003-1.914.119-2.842.361a55.7 55.7 0 0 1 5.364 9.91 11.76 11.76 0 0 1 .12 9.182 11.6 11.6 0 0 1-2.475 3.747 11.4 11.4 0 0 1-3.697 2.5 11.22 11.22 0 0 1-10.1-.724l-1.17 4.396c-2.125 7.218-3.62 10.008-3.62 10.008a39 39 0 0 1-2.933 5.635c-.779 1.172-1.774 2.35-3.138 2.797a3.1 3.1 0 0 1-1.478.147 3.9 3.9 0 0 1-1.526-.521 6.8 6.8 0 0 1-2.076-2.625 38 38 0 0 1-1.55-3.538c-1.008-2.49-2.565-8.622-2.565-8.622l-1.61-6.42-1.612-6.47-1.146-4.25c-3.017-11.068-7.192-16.513-7.192-16.513a27.75 27.75 0 0 0-13.31-10.327c-6.24-2.275-12.786-.993-12.786-.993-10.257 2.048-15.645 9.198-18.016 12.638 1.085.288 2.124.734 3.083 1.325a10.8 10.8 0 0 1 3.258 3.066c1.545 2.232 1.895 5.01 2.203 7.665a106 106 0 0 0 3.342 17.01c3.476-11.712 7.645-17.17 7.645-17.17a6.8 6.8 0 0 1 1.653-1.496 2.7 2.7 0 0 1 1.074-.386 3.1 3.1 0 0 1 2.01.497q.163.11.307.245a7.2 7.2 0 0 1 1.388 1.699A37 37 0 0 1 52 54.558c1.303 3.729 2.414 8.285 2.414 8.285l3.318 13.294c2.413 9.04 4.459 13.43 4.459 13.43 5.038 11.725 12.743 15.024 12.743 15.024a26.66 26.66 0 0 0 12.176 3.237c4.06.113 8.087-.769 11.741-2.569a30 30 0 0 0 10.287-8.456c1.865-2.195 4.61-7.543 4.61-7.543a97.6 97.6 0 0 0 7.089-19.212 125 125 0 0 0 2.589-12.558c.326-2.098.633-4.207.881-6.323a16.6 16.6 0 0 0-.181-6.028 9 9 0 0 0-.332-1.048 11.35 11.35 0 0 0-5.08-5.82 11.56 11.56 0 0 0-5.569-1.392"/><path fill="url(#K)" d="M113.145 36.88c-.959-.003-1.914.119-2.842.361a55.7 55.7 0 0 1 5.364 9.91 11.76 11.76 0 0 1 .12 9.182 11.6 11.6 0 0 1-2.475 3.747 11.4 11.4 0 0 1-3.697 2.5 11.22 11.22 0 0 1-10.1-.724l-1.17 4.396c-2.125 7.218-3.62 10.008-3.62 10.008a39 39 0 0 1-2.933 5.635c-.779 1.172-1.774 2.35-3.138 2.797a3.1 3.1 0 0 1-1.478.147 3.9 3.9 0 0 1-1.526-.521 6.8 6.8 0 0 1-2.076-2.625 38 38 0 0 1-1.55-3.538c-1.008-2.49-2.565-8.622-2.565-8.622l-1.61-6.42-1.612-6.47-1.146-4.25c-3.017-11.068-7.192-16.513-7.192-16.513a27.75 27.75 0 0 0-13.31-10.327c-6.24-2.275-12.786-.993-12.786-.993-10.257 2.048-15.645 9.198-18.016 12.638 1.085.288 2.124.734 3.083 1.325a10.8 10.8 0 0 1 3.258 3.066c1.545 2.232 1.895 5.01 2.203 7.665a106 106 0 0 0 3.342 17.01c3.476-11.712 7.645-17.17 7.645-17.17a6.8 6.8 0 0 1 1.653-1.496 2.7 2.7 0 0 1 1.074-.386 3.1 3.1 0 0 1 2.01.497q.163.11.307.245a7.2 7.2 0 0 1 1.388 1.699A37 37 0 0 1 52 54.558c1.303 3.729 2.414 8.285 2.414 8.285l3.318 13.294c2.413 9.04 4.459 13.43 4.459 13.43 5.038 11.725 12.743 15.024 12.743 15.024a26.66 26.66 0 0 0 12.176 3.237c4.06.113 8.087-.769 11.741-2.569a30 30 0 0 0 10.287-8.456c1.865-2.195 4.61-7.543 4.61-7.543a97.6 97.6 0 0 0 7.089-19.212 125 125 0 0 0 2.589-12.558c.326-2.098.633-4.207.881-6.323a16.6 16.6 0 0 0-.181-6.028 9 9 0 0 0-.332-1.048 11.35 11.35 0 0 0-5.08-5.82 11.56 11.56 0 0 0-5.569-1.392"/><path fill="#fff" d="M79.164 94.578c0-8.678 7.035-15.713 15.713-15.713h38.622V133.2H79.164z"/><path fill="#0F0F0F" d="M117.12 103.399 98.2 92.766a2.952 2.952 0 0 0-4.273 2.64v21.253a2.955 2.955 0 0 0 2.944 2.953c.47-.001.934-.113 1.354-.325l18.881-10.613a2.957 2.957 0 0 0 1.197-4.184 2.95 2.95 0 0 0-1.183-1.091"/></g><defs><radialGradient id="d" cx="0" cy="0" r="1" gradientTransform="rotate(74.56 -1.727 78.286)scale(43.3957 32.5264)" gradientUnits="userSpaceOnUse"><stop stop-color="#227B60"/><stop offset=".14" stop-color="#227B60" stop-opacity=".81"/><stop offset=".58" stop-color="#227B60" stop-opacity=".23"/><stop offset=".78" stop-color="#227B60" stop-opacity="0"/></radialGradient><radialGradient id="e" cx="0" cy="0" r="1" gradientTransform="rotate(91.127 12.698 67.458)scale(29.3787 21.9662)" gradientUnits="userSpaceOnUse"><stop stop-color="#227B60"/><stop offset=".25" stop-color="#227B60" stop-opacity=".7"/><stop offset=".71" stop-color="#227B60" stop-opacity=".2"/><stop offset=".92" stop-color="#227B60" stop-opacity="0"/></radialGradient><radialGradient id="f" cx="0" cy="0" r="1" gradientTransform="matrix(.65835 27.37799 -19.12627 .45992 79.278 57.168)" gradientUnits="userSpaceOnUse"><stop stop-color="#227B60"/><stop offset=".07" stop-color="#227B60" stop-opacity=".9"/><stop offset=".34" stop-color="#227B60" stop-opacity=".51"/><stop offset=".59" stop-color="#227B60" stop-opacity=".23"/><stop offset=".79" stop-color="#227B60" stop-opacity=".06"/><stop offset=".92" stop-color="#227B60" stop-opacity="0"/></radialGradient><radialGradient id="g" cx="0" cy="0" r="1" gradientTransform="rotate(88.623 11.227 68.797)scale(22.1123 15.4477)" gradientUnits="userSpaceOnUse"><stop stop-color="#227B60"/><stop offset=".36" stop-color="#227B60" stop-opacity=".63"/><stop offset=".92" stop-color="#227B60" stop-opacity="0"/></radialGradient><radialGradient id="h" cx="0" cy="0" r="1" gradientTransform="matrix(.42396 17.6308 -11.1026 .26698 80.683 57.162)" gradientUnits="userSpaceOnUse"><stop stop-color="#20735A"/><stop offset=".15" stop-color="#20745A" stop-opacity=".93"/><stop offset=".38" stop-color="#21755C" stop-opacity=".74"/><stop offset=".67" stop-color="#21785D" stop-opacity=".43"/><stop offset="1" stop-color="#227B60" stop-opacity="0"/></radialGradient><radialGradient id="i" cx="0" cy="0" r="1" gradientTransform="matrix(25.54879 11.45245 -8.68307 19.3707 83.008 59.975)" gradientUnits="userSpaceOnUse"><stop stop-color="#227A61"/><stop offset=".36" stop-color="#227A61" stop-opacity=".56"/><stop offset=".72" stop-color="#227A61" stop-opacity=".16"/><stop offset=".9" stop-color="#227A61" stop-opacity="0"/></radialGradient><radialGradient id="j" cx="0" cy="0" r="1" gradientTransform="rotate(35.711 13.539 125.17)scale(37.4431 34.4175)" gradientUnits="userSpaceOnUse"><stop stop-color="#3CD9C3"/><stop offset=".07" stop-color="#3BD7C1" stop-opacity=".9"/><stop offset=".41" stop-color="#38CEB9" stop-opacity=".42"/><stop offset=".65" stop-color="#36C8B4" stop-opacity=".12"/><stop offset=".76" stop-color="#35C6B2" stop-opacity="0"/></radialGradient><radialGradient id="k" cx="0" cy="0" r="1" gradientTransform="rotate(35.711 42813.584 41641.661)scale(6650.31 4692.86)" gradientUnits="userSpaceOnUse"><stop stop-color="#3CD9C3"/><stop offset=".07" stop-color="#3BD7C1" stop-opacity=".9"/><stop offset=".41" stop-color="#38CEB9" stop-opacity=".42"/><stop offset=".65" stop-color="#36C8B4" stop-opacity=".12"/><stop offset=".76" stop-color="#35C6B2" stop-opacity="0"/></radialGradient><radialGradient id="l" cx="0" cy="0" r="1" gradientTransform="matrix(-6.2512 32.76989 -39.8898 -7.60939 90.44 66.509)" gradientUnits="userSpaceOnUse"><stop stop-color="#237F66" stop-opacity=".8"/><stop offset=".06" stop-color="#2C8C70" stop-opacity=".65"/><stop offset=".21" stop-color="#3DA785" stop-opacity=".37"/><stop offset=".35" stop-color="#4ABA93" stop-opacity=".17"/><stop offset=".47" stop-color="#51C59C" stop-opacity=".04"/><stop offset=".56" stop-color="#54C99F" stop-opacity="0"/></radialGradient><radialGradient id="m" cx="0" cy="0" r="1" gradientTransform="rotate(-51.274 106.816 -38.59)scale(43.3395 46.6481)" gradientUnits="userSpaceOnUse"><stop stop-color="#167C8A"/><stop offset=".04" stop-color="#167C8A" stop-opacity=".93"/><stop offset=".33" stop-color="#177F8D" stop-opacity=".43"/><stop offset=".54" stop-color="#17818F" stop-opacity=".12"/><stop offset=".65" stop-color="#178290" stop-opacity="0"/></radialGradient><radialGradient id="n" cx="0" cy="0" r="1" gradientTransform="matrix(35.6363 -22.33408 17.77089 28.35527 67.523 73.29)" gradientUnits="userSpaceOnUse"><stop offset=".05" stop-color="#177D87"/><stop offset=".11" stop-color="#177E89" stop-opacity=".8"/><stop offset=".21" stop-color="#177F8B" stop-opacity=".52"/><stop offset=".32" stop-color="#17818D" stop-opacity=".29"/><stop offset=".42" stop-color="#17818F" stop-opacity=".13"/><stop offset=".51" stop-color="#178290" stop-opacity=".03"/><stop offset=".6" stop-color="#178290" stop-opacity="0"/></radialGradient><radialGradient id="o" cx="0" cy="0" r="1" gradientTransform="matrix(-16.21284 -19.26633 15.1307 -12.73266 57.199 74.024)" gradientUnits="userSpaceOnUse"><stop offset=".26" stop-color="#177F8A"/><stop offset=".27" stop-color="#177F8A" stop-opacity=".98"/><stop offset=".38" stop-color="#17808C" stop-opacity=".68"/><stop offset=".5" stop-color="#17818D" stop-opacity=".43"/><stop offset=".62" stop-color="#17818F" stop-opacity=".24"/><stop offset=".74" stop-color="#17828F" stop-opacity=".11"/><stop offset=".86" stop-color="#178290" stop-opacity=".03"/><stop offset="1" stop-color="#178290" stop-opacity="0"/></radialGradient><radialGradient id="p" cx="0" cy="0" r="1" gradientTransform="rotate(-172.999 28.793 38.517)scale(23.4038 23.7749)" gradientUnits="userSpaceOnUse"><stop stop-color="#13656E"/><stop offset=".11" stop-color="#13646E" stop-opacity=".73"/><stop offset=".27" stop-color="#12646E" stop-opacity=".41"/><stop offset=".42" stop-color="#12636E" stop-opacity=".18"/><stop offset=".55" stop-color="#12636E" stop-opacity=".05"/><stop offset=".66" stop-color="#12636E" stop-opacity="0"/></radialGradient><radialGradient id="q" cx="0" cy="0" r="1" gradientTransform="matrix(-8.01272 -14.50006 12.07666 -6.67355 52.063 83.797)" gradientUnits="userSpaceOnUse"><stop offset=".13" stop-color="#146A73"/><stop offset=".24" stop-color="#156F79" stop-opacity=".79"/><stop offset=".45" stop-color="#167783" stop-opacity=".45"/><stop offset=".65" stop-color="#167D8A" stop-opacity=".2"/><stop offset=".82" stop-color="#17818E" stop-opacity=".05"/><stop offset=".95" stop-color="#178290" stop-opacity="0"/></radialGradient><radialGradient id="r" cx="0" cy="0" r="1" gradientTransform="matrix(8.6092 -12.9685 10.21067 6.7784 50.788 76.866)" gradientUnits="userSpaceOnUse"><stop stop-color="#198E9C"/><stop offset=".1" stop-color="#198E9C" stop-opacity=".87"/><stop offset=".41" stop-color="#198E9C" stop-opacity=".5"/><stop offset=".67" stop-color="#198E9C" stop-opacity=".23"/><stop offset=".88" stop-color="#198E9C" stop-opacity=".06"/><stop offset="1" stop-color="#198E9C" stop-opacity="0"/></radialGradient><radialGradient id="y" cx="0" cy="0" r="1" gradientTransform="rotate(98.552 20.82 73.015)scale(52.2637 33.9643)" gradientUnits="userSpaceOnUse"><stop stop-color="#1A3D9C"/><stop offset=".4" stop-color="#1A3D9C" stop-opacity=".42"/><stop offset=".7" stop-color="#1A3D9C" stop-opacity="0"/></radialGradient><radialGradient id="z" cx="0" cy="0" r="1" gradientTransform="matrix(-956.05461 6357.33326 -3375.8098 -507.6749 15143.5 25465.3)" gradientUnits="userSpaceOnUse"><stop stop-color="#1A3D9C"/><stop offset=".4" stop-color="#1A3D9C" stop-opacity=".42"/><stop offset=".7" stop-color="#1A3D9C" stop-opacity="0"/></radialGradient><radialGradient id="A" cx="0" cy="0" r="1" gradientTransform="matrix(-1128.92277 7572.69358 -3080.96205 -459.30397 11442.3 24354.1)" gradientUnits="userSpaceOnUse"><stop stop-color="#1A3D9C"/><stop offset=".4" stop-color="#1A3D9C" stop-opacity=".42"/><stop offset=".7" stop-color="#1A3D9C" stop-opacity="0"/></radialGradient><radialGradient id="B" cx="0" cy="0" r="1" gradientTransform="matrix(5.41069 45.36729 -31.16007 3.71628 87.934 59.763)" gradientUnits="userSpaceOnUse"><stop stop-color="#1A3D9C"/><stop offset=".16" stop-color="#1A3D9C" stop-opacity=".69"/><stop offset=".33" stop-color="#1A3D9C" stop-opacity=".4"/><stop offset=".49" stop-color="#1A3D9C" stop-opacity=".18"/><stop offset=".61" stop-color="#1A3D9C" stop-opacity=".05"/><stop offset=".7" stop-color="#1A3D9C" stop-opacity="0"/></radialGradient><radialGradient id="C" cx="0" cy="0" r="1" gradientTransform="rotate(74.876 4.302 98.059)scale(43.8693 29.4175)" gradientUnits="userSpaceOnUse"><stop stop-color="#18388F"/><stop offset=".37" stop-color="#193B96" stop-opacity=".45"/><stop offset=".7" stop-color="#1A3D9C" stop-opacity="0"/></radialGradient><radialGradient id="D" cx="0" cy="0" r="1" gradientTransform="matrix(5.32198 19.69066 -18.4468 4.9858 93.537 80.026)" gradientUnits="userSpaceOnUse"><stop stop-color="#18388F"/><stop offset=".09" stop-color="#183992" stop-opacity=".78"/><stop offset=".22" stop-color="#193B96" stop-opacity=".5"/><stop offset=".35" stop-color="#193C98" stop-opacity=".28"/><stop offset=".47" stop-color="#1A3C9A" stop-opacity=".13"/><stop offset=".59" stop-color="#1A3D9C" stop-opacity=".03"/><stop offset=".7" stop-color="#1A3D9C" stop-opacity="0"/></radialGradient><radialGradient id="E" cx="0" cy="0" r="1" gradientTransform="matrix(5.32198 19.69066 -18.4468 4.9858 94.02 83.51)" gradientUnits="userSpaceOnUse"><stop stop-color="#1A3D9C" stop-opacity=".8"/><stop offset=".01" stop-color="#1A3D9C" stop-opacity=".78"/><stop offset=".24" stop-color="#1A3D9C" stop-opacity=".45"/><stop offset=".44" stop-color="#1A3D9C" stop-opacity=".2"/><stop offset=".6" stop-color="#1A3D9C" stop-opacity=".05"/><stop offset=".7" stop-color="#1A3D9C" stop-opacity="0"/></radialGradient><radialGradient id="F" cx="0" cy="0" r="1" gradientTransform="matrix(18.7142 44.86747 -29.4383 12.2787 42.026 71.481)" gradientUnits="userSpaceOnUse"><stop stop-color="#1A3D9C"/><stop offset=".4" stop-color="#1A3D9C" stop-opacity=".56"/><stop offset=".48" stop-color="#1A3D9C" stop-opacity=".43"/><stop offset=".69" stop-color="#1A3D9C" stop-opacity=".12"/><stop offset=".79" stop-color="#1A3D9C" stop-opacity="0"/></radialGradient><radialGradient id="G" cx="0" cy="0" r="1" gradientTransform="matrix(8.54214 35.08839 -22.83468 5.55902 38.958 60.062)" gradientUnits="userSpaceOnUse"><stop stop-color="#1A3D9C"/><stop offset=".06" stop-color="#1A3D9C" stop-opacity=".88"/><stop offset=".21" stop-color="#1A3D9C" stop-opacity=".61"/><stop offset=".36" stop-color="#1A3D9C" stop-opacity=".39"/><stop offset=".51" stop-color="#1A3D9C" stop-opacity=".22"/><stop offset=".67" stop-color="#1A3D9C" stop-opacity=".1"/><stop offset=".83" stop-color="#1A3D9C" stop-opacity=".02"/><stop offset="1" stop-color="#1A3D9C" stop-opacity="0"/></radialGradient><radialGradient id="H" cx="0" cy="0" r="1" gradientTransform="matrix(8.54214 35.08839 -22.83468 5.55902 38.958 60.062)" gradientUnits="userSpaceOnUse"><stop stop-color="#1B3E9E"/><stop offset=".06" stop-color="#1B3E9E" stop-opacity=".87"/><stop offset=".21" stop-color="#1B3E9D" stop-opacity=".61"/><stop offset=".36" stop-color="#1A3D9D" stop-opacity=".39"/><stop offset=".52" stop-color="#1A3D9C" stop-opacity=".22"/><stop offset=".67" stop-color="#1A3D9C" stop-opacity=".1"/><stop offset=".83" stop-color="#1A3D9C" stop-opacity=".02"/><stop offset="1" stop-color="#1A3D9C" stop-opacity="0"/></radialGradient><radialGradient id="I" cx="0" cy="0" r="1" gradientTransform="rotate(76.318 -15.823 53.917)scale(27.6282 17.9797)" gradientUnits="userSpaceOnUse"><stop stop-color="#183991"/><stop offset=".03" stop-color="#183992" stop-opacity=".95"/><stop offset=".18" stop-color="#193A95" stop-opacity=".66"/><stop offset=".34" stop-color="#193B97" stop-opacity=".42"/><stop offset=".5" stop-color="#1A3C99" stop-opacity=".24"/><stop offset=".66" stop-color="#1A3D9B" stop-opacity=".1"/><stop offset=".82" stop-color="#1A3D9C" stop-opacity=".03"/><stop offset="1" stop-color="#1A3D9C" stop-opacity="0"/></radialGradient><radialGradient id="J" cx="0" cy="0" r="1" gradientTransform="rotate(87.184 -8.91 53.939)scale(21.8508 18.9275)" gradientUnits="userSpaceOnUse"><stop offset=".04" stop-color="#2453D6" stop-opacity=".6"/><stop offset=".2" stop-color="#2453D6" stop-opacity=".49"/><stop offset=".52" stop-color="#2453D6" stop-opacity=".2"/><stop offset=".73" stop-color="#2453D6" stop-opacity="0"/></radialGradient><linearGradient id="b" x1="67" x2="67" y1=".2" y2="133.2" gradientUnits="userSpaceOnUse"><stop stop-color="#313131"/><stop offset="1" stop-color="#020202"/></linearGradient><linearGradient id="c" x1="14.653" x2="104.497" y1="80.693" y2="44.961" gradientUnits="userSpaceOnUse"><stop offset=".13" stop-color="#1CBBF3"/><stop offset=".34" stop-color="#1F99A5"/><stop offset=".45" stop-color="#209CA6"/><stop offset=".51" stop-color="#24A4AA"/><stop offset=".57" stop-color="#2BB3B0"/><stop offset=".6" stop-color="#30BDB4"/><stop offset=".79" stop-color="#38BA90"/><stop offset="1" stop-color="#60F05A"/></linearGradient><linearGradient id="s" x1="20.415" x2="60.464" y1="22.297" y2="58.768" gradientUnits="userSpaceOnUse"><stop offset=".13" stop-color="#2BF9FF"/><stop offset=".27" stop-color="#29F9FF" stop-opacity=".64"/><stop offset=".4" stop-color="#27FAFF" stop-opacity=".3"/><stop offset=".49" stop-color="#26FAFF" stop-opacity=".08"/><stop offset=".54" stop-color="#26FAFF" stop-opacity="0"/></linearGradient><linearGradient id="t" x1="-1.934" x2="44.273" y1="82.87" y2="69.981" gradientUnits="userSpaceOnUse"><stop stop-color="#26FAFF"/><stop offset=".06" stop-color="#26FAFF" stop-opacity=".88"/><stop offset=".24" stop-color="#26FAFF" stop-opacity=".51"/><stop offset=".39" stop-color="#26FAFF" stop-opacity=".23"/><stop offset=".5" stop-color="#26FAFF" stop-opacity=".06"/><stop offset=".55" stop-color="#26FAFF" stop-opacity="0"/></linearGradient><linearGradient id="u" x1="10.278" x2="62.421" y1="81.239" y2="62.954" gradientUnits="userSpaceOnUse"><stop stop-color="#21DEFF"/><stop offset=".04" stop-color="#21DEFF" stop-opacity=".88"/><stop offset=".17" stop-color="#21DEFF" stop-opacity=".51"/><stop offset=".27" stop-color="#21DEFF" stop-opacity=".23"/><stop offset=".34" stop-color="#21DEFF" stop-opacity=".06"/><stop offset=".38" stop-color="#21DEFF" stop-opacity="0"/></linearGradient><linearGradient id="v" x1="59.645" x2="89.392" y1="54" y2="101.739" gradientUnits="userSpaceOnUse"><stop offset=".62" stop-color="#21DEFF" stop-opacity="0"/><stop offset=".66" stop-color="#21DEFF" stop-opacity=".06"/><stop offset=".73" stop-color="#21DEFF" stop-opacity=".23"/><stop offset=".83" stop-color="#21DEFF" stop-opacity=".51"/><stop offset=".96" stop-color="#21DEFF" stop-opacity=".88"/><stop offset="1" stop-color="#21DEFF"/></linearGradient><linearGradient id="w" x1="91.985" x2="87.267" y1="71.998" y2="49.37" gradientUnits="userSpaceOnUse"><stop stop-color="#44B044"/><stop offset=".11" stop-color="#44B044" stop-opacity=".8"/><stop offset=".27" stop-color="#44B044" stop-opacity=".52"/><stop offset=".43" stop-color="#44B044" stop-opacity=".29"/><stop offset=".58" stop-color="#44B044" stop-opacity=".13"/><stop offset=".7" stop-color="#44B044" stop-opacity=".03"/><stop offset=".8" stop-color="#44B044" stop-opacity="0"/></linearGradient><linearGradient id="x" x1="28.216" x2="124.713" y1="48.512" y2="79.945" gradientUnits="userSpaceOnUse"><stop stop-color="#3066FB"/><stop offset=".38" stop-color="#2F64F7"/><stop offset=".74" stop-color="#2857D9"/><stop offset="1" stop-color="#3C7EFF"/></linearGradient><linearGradient id="K" x1="90.718" x2="65.736" y1="8.592" y2="69.35" gradientUnits="userSpaceOnUse"><stop stop-color="#3774FF"/><stop offset=".05" stop-color="#3774FF" stop-opacity=".91"/><stop offset=".16" stop-color="#3774FF" stop-opacity=".66"/><stop offset=".32" stop-color="#3774FF" stop-opacity=".28"/><stop offset=".43" stop-color="#3774FF" stop-opacity="0"/></linearGradient><clipPath id="a"><rect width="133" height="133" x=".5" y=".2" fill="#fff" rx="31.43"/></clipPath></defs></svg>