<svg xmlns="http://www.w3.org/2000/svg" width="240" height="240" fill="none" viewBox="0 0 240 240"><path fill="#000" fill-rule="evenodd" d="M190.625 75.214c1.028 1.556 10.924 18.89-8.027 31.431-4.666 3.085-10.175 4.301-16.289 3.079-4.546-1.229-8.47-4.325-11.995-8.398-1.602-1.993-6.177-6.92-10.222-11.22a1394 1394 0 0 0-7.931-8.36 3.42 3.42 0 0 0-4.843-.102 3.437 3.437 0 0 0-.101 4.852q3.961 4.142 7.89 8.317c4.188 4.453 8.561 9.175 9.899 10.853l.042.052.044.051c4.029 4.667 9.138 8.951 15.672 10.645q1.065.276 2.159.454c3.13 13.706 6.454 31.113 3.277 45.121-5.55 24.44-25.916 24.78-34.665 22.521-5.151-1.327-13.673-4.229-26.908-15.892a134 134 0 0 1-1.659-1.65c-3.718-3.758-7.962-8.428-12.254-13.34-8.58-9.819-17.242-20.476-22.09-26.465a3.42 3.42 0 0 0-4.817-.504 3.436 3.436 0 0 0-.503 4.827c4.85 5.992 13.582 16.737 22.256 26.663 4.05 4.634 8.111 9.119 11.775 12.87a71 71 0 0 1-.705 6.345c-3.362 21.367-17.865 48.561-63.432 16.542-17.047-11.978-31.697-29.945-16.857-45.816 8.288-8.861 21.304-9.566 30.152-1.262a201 201 0 0 0 3.019 2.755l3.944 4.477a3.33 3.33 0 0 0 4.705.294 3.344 3.344 0 0 0 .293-4.714l-7.862-8.924c-1.09-5.066-2.307-10.199-3.472-15.109-2.61-11.004-4.952-20.883-4.985-26.342-.119-20.473 17.69-28.026 30.842-23.659 9.106 3.029 17.134 11.418 37.381 33.863q.09.12.192.234l10.622 11.822q.169.186.357.342l.037.031a3.33 3.33 0 0 0 4.314-.126 3.343 3.343 0 0 0 .247-4.716l-7.99-8.892q-.604-2.242-1.22-4.5c-7.184-26.408-14.723-54.121 5.84-65.92 16.116-9.246 32.043 3.01 46.332 18.116 1.668 1.765 3.398 3.486 5.131 5.21 4.461 4.44 8.936 8.892 12.405 14.144m19.769 30.903c11.751 2.603 19.171 14.258 16.573 26.032-2.599 11.773-14.232 19.207-25.983 16.603s-19.171-14.258-16.573-26.031c2.599-11.774 14.232-19.208 25.983-16.604" clip-rule="evenodd"/></svg>