<svg xmlns="http://www.w3.org/2000/svg" width="32" height="32" viewBox="0 0 32 32"><path d="m27.766 16.008-4.799-8.084A8.01 8.01 0 0 0 15.997 4a8.02 8.02 0 0 0-6.974 3.923l-4.798 8.085a7.57 7.57 0 0 0-.478 7.387c1.257 2.476 3.936 4.088 7.355 4.419q2.489.237 4.99.186a45 45 0 0 0 4.801-.186c3.438-.346 6.124-1.96 7.37-4.428a7.58 7.58 0 0 0-.497-7.378m-1.288 6.476c-.931 1.847-3.04 3.064-5.784 3.34q-2.3.215-4.608.176h-.059a45 45 0 0 1-4.732-.177c-2.723-.264-4.824-1.48-5.764-3.333a5.61 5.61 0 0 1 .415-5.46l4.798-8.086a6.155 6.155 0 0 1 10.503 0l4.799 8.085a5.62 5.62 0 0 1 .432 5.455M16.003 11a6 6 0 1 0 6 6 6.006 6.006 0 0 0-6-6m0 10a4 4 0 1 1 0-8 4 4 0 0 1 0 8"/></svg>