<svg xmlns="http://www.w3.org/2000/svg" width="378" height="24" fill="none" viewBox="0 0 378 24"><path fill="#000" d="M19.948 6.219h3.137l-4.562 13.789h-3.599l-3.41-10.406-3.409 10.406H4.562L0 6.218h3.211l3.237 10.48 3.396-10.48h3.41l3.452 10.536zM36.542 14.22H26.365a4.4 4.4 0 0 0 .777 1.972c.369.512.868.914 1.446 1.166a4.6 4.6 0 0 0 1.864.375 6 6 0 0 0 2.08-.38 6.8 6.8 0 0 0 1.908-1.074l1.498 2.158a7.6 7.6 0 0 1-2.616 1.489c-.988.31-2.02.463-3.055.453a7.3 7.3 0 0 1-3.656-.898 6.37 6.37 0 0 1-2.499-2.546 7.8 7.8 0 0 1-.897-3.807 8 8 0 0 1 .863-3.78 6.36 6.36 0 0 1 2.425-2.56 6.9 6.9 0 0 1 3.57-.915 6.14 6.14 0 0 1 5.692 3.453 8.26 8.26 0 0 1 .829 3.772q.006.436-.052 1.122m-3.021-2.287a4.26 4.26 0 0 0-1.153-2.52 3.2 3.2 0 0 0-2.347-.864 3.38 3.38 0 0 0-2.469.915 4.38 4.38 0 0 0-1.187 2.482zM49.416 6.797a6.7 6.7 0 0 1 2.49 2.59 7.6 7.6 0 0 1 .915 3.729 7.57 7.57 0 0 1-.915 3.724 6.7 6.7 0 0 1-5.981 3.526 5.6 5.6 0 0 1-2.49-.522 5.1 5.1 0 0 1-1.826-1.476v1.64h-3.021V.35h3.02v7.51a5.2 5.2 0 0 1 1.827-1.468 5.6 5.6 0 0 1 2.49-.527 6.7 6.7 0 0 1 3.491.932m-1.648 10.147a3.9 3.9 0 0 0 1.454-1.601 5.18 5.18 0 0 0 0-4.459 3.9 3.9 0 0 0-1.454-1.6 4.4 4.4 0 0 0-4.368 0c-.627.38-1.136.929-1.467 1.583a4.8 4.8 0 0 0-.527 2.262c-.014.784.167 1.56.527 2.257.331.654.84 1.203 1.467 1.584a4.4 4.4 0 0 0 4.368 0zM67.727 14.22H57.555a4.4 4.4 0 0 0 .777 1.972c.368.512.868.914 1.446 1.166a4.6 4.6 0 0 0 1.864.375 6 6 0 0 0 2.08-.38 6.8 6.8 0 0 0 1.908-1.074l1.493 2.158a7.5 7.5 0 0 1-2.611 1.489c-.99.31-2.023.463-3.06.453a7.34 7.34 0 0 1-3.655-.898 6.4 6.4 0 0 1-2.495-2.546 7.8 7.8 0 0 1-.902-3.807 8 8 0 0 1 .863-3.78 6.36 6.36 0 0 1 2.426-2.56 6.9 6.9 0 0 1 3.595-.927 6.15 6.15 0 0 1 5.692 3.452 8.3 8.3 0 0 1 .829 3.772c-.017.302-.048.678-.078 1.135m-3.02-2.287A4.3 4.3 0 0 0 63.55 9.43a3.22 3.22 0 0 0-2.34-.88 3.37 3.37 0 0 0-2.468.914 4.36 4.36 0 0 0-1.187 2.482zM82.077 20.008H78.38l-3.496-4.795-3.453 4.795h-3.526l5.18-7.04-5.098-6.75h3.703l3.367 4.606 3.366-4.605H82l-5.119 6.724zM108.012 6.226l-3.662 13.781h-2.27L98.937 8.331l-3.234 11.676h-2.405L89.653 6.226h2.003l2.95 11.46 3.175-11.46h2.447l3.008 11.426 2.966-11.426zM108.984 20.007V6.226h1.852v4.96c.729-.94 1.793-1.415 2.933-1.415 2.178 0 3.544 1.323 3.544 3.753v6.483h-1.852v-6.475c0-1.49-.77-2.197-2.136-2.197s-2.489.957-2.489 2.605v6.067zM119.315 8.39V6.225h2.078v2.163zm.109 11.617v-9.953h1.852v9.953zM127.963 20.098a5 5 0 0 1-1.366.192c-1.776 0-2.681-1.107-2.681-2.755v-5.909h-1.483v-1.572h1.483l.117-2.389h1.735v2.388h2.161v1.573h-2.161v5.95c0 .75.368 1.108 1.055 1.108.327 0 .578-.017 1.14-.15zM137.942 17.136c-.502 1.814-2.078 3.154-4.491 3.154-2.849 0-4.91-1.765-4.91-5.26 0-3.462 2.045-5.26 4.818-5.26 2.774 0 4.701 1.648 4.701 5.668h-7.634c.151 2.297 1.408 3.312 3.084 3.312 1.215 0 2.137-.69 2.43-1.606h2.002zm-7.432-3.163h5.664c-.134-1.856-1.231-2.738-2.773-2.738-1.483.008-2.606.907-2.891 2.738M139.803 20.007V6.226h1.852v5.2c.67-.956 1.793-1.664 3.351-1.664 2.64 0 4.416 1.873 4.416 5.185 0 3.446-1.91 5.343-4.55 5.343-1.542 0-2.597-.666-3.259-1.606l-.285 1.323zm4.776-8.672c-1.659 0-3.025 1.207-3.025 3.579 0 2.413 1.215 3.812 3.025 3.812 1.734 0 2.907-1.19 2.907-3.812 0-2.447-1.248-3.579-2.907-3.579M155.43 9.763c2.731 0 4.935 1.68 4.935 5.26 0 3.486-2.12 5.259-4.952 5.259-2.79 0-4.935-1.814-4.935-5.26 0-3.57 2.228-5.26 4.952-5.26m.016 9.038c1.777 0 2.983-1.299 2.983-3.77 0-2.53-1.29-3.77-3.008-3.77s-3.025 1.281-3.025 3.77c.009 2.463 1.316 3.77 3.05 3.77M161.614 12.825c.193-1.839 1.793-3.062 4.299-3.062 2.622 0 4.08 1.398 4.08 3.445V20h-1.525l-.234-1.357c-.654.916-1.735 1.648-3.352 1.648-2.195 0-3.469-1.223-3.469-2.854 0-1.815 1.098-2.855 3.796-3.312l2.933-.5v-.49c0-1.224-.83-1.915-2.313-1.915-1.425 0-2.12.616-2.254 1.606zm6.536 3.529v-1.282l-2.489.441c-1.793.3-2.27.857-2.27 1.74 0 .957.695 1.49 1.944 1.49 1.407 0 2.815-1.033 2.815-2.39M172.121 20.007v-9.953h1.525l.251 1.473c.562-1.148 1.425-1.764 2.548-1.764.477 0 .863.075 1.097.133v1.839a4.3 4.3 0 0 0-1.173-.175c-1.273 0-2.388.94-2.388 3.446v4.993h-1.86zM185.821 20.007l-.327-1.398c-.67.974-1.776 1.681-3.335 1.681-2.522 0-4.432-1.84-4.432-5.201 0-3.562 1.868-5.318 4.549-5.318 1.525 0 2.564.649 3.218 1.548V6.226h1.852v13.781zm-3.26-1.282c1.911 0 3.025-1.49 3.025-3.578 0-2.43-1.173-3.812-3.025-3.812-1.751 0-2.907 1.182-2.907 3.787 0 2.397 1.231 3.604 2.907 3.604"/></svg>