<svg xmlns="http://www.w3.org/2000/svg" width="378" height="24" fill="none" viewBox="0 0 378 24"><path fill="#fff" d="M19.948 6.22h3.137l-4.562 13.789h-3.599l-3.41-10.406L8.105 20.01H4.562L0 6.219h3.211L6.448 16.7l3.396-10.48h3.41l3.452 10.536zM36.542 14.221H26.365a4.4 4.4 0 0 0 .777 1.973c.369.51.868.913 1.446 1.165a4.6 4.6 0 0 0 1.864.375 6 6 0 0 0 2.08-.38 6.8 6.8 0 0 0 1.908-1.074l1.498 2.158a7.6 7.6 0 0 1-2.616 1.489c-.988.31-2.02.463-3.055.453a7.3 7.3 0 0 1-3.656-.898 6.37 6.37 0 0 1-2.499-2.546 7.8 7.8 0 0 1-.897-3.807 8 8 0 0 1 .863-3.78 6.36 6.36 0 0 1 2.425-2.56 6.9 6.9 0 0 1 3.57-.915 6.14 6.14 0 0 1 5.692 3.453 8.26 8.26 0 0 1 .829 3.772q.006.436-.052 1.122m-3.021-2.287a4.26 4.26 0 0 0-1.153-2.52 3.2 3.2 0 0 0-2.347-.864 3.38 3.38 0 0 0-2.469.915 4.38 4.38 0 0 0-1.187 2.482zM49.416 6.798a6.7 6.7 0 0 1 2.49 2.59 7.6 7.6 0 0 1 .915 3.728 7.57 7.57 0 0 1-.915 3.725 6.7 6.7 0 0 1-5.981 3.526 5.6 5.6 0 0 1-2.49-.523 5.1 5.1 0 0 1-1.826-1.476v1.64h-3.021V.35h3.02v7.51a5.2 5.2 0 0 1 1.827-1.468 5.6 5.6 0 0 1 2.49-.526 6.7 6.7 0 0 1 3.491.932m-1.648 10.146a3.9 3.9 0 0 0 1.454-1.6 5.18 5.18 0 0 0 0-4.46 3.9 3.9 0 0 0-1.454-1.6 4.4 4.4 0 0 0-4.368 0c-.627.38-1.136.93-1.467 1.584a4.8 4.8 0 0 0-.527 2.261c-.014.785.167 1.56.527 2.257.331.655.84 1.203 1.467 1.584a4.4 4.4 0 0 0 4.368 0zM67.727 14.221H57.555a4.4 4.4 0 0 0 .777 1.973c.368.51.868.913 1.446 1.165a4.6 4.6 0 0 0 1.864.375 6 6 0 0 0 2.08-.38 6.8 6.8 0 0 0 1.908-1.074l1.493 2.158a7.5 7.5 0 0 1-2.611 1.489c-.99.31-2.023.463-3.06.453a7.34 7.34 0 0 1-3.655-.898 6.4 6.4 0 0 1-2.495-2.546 7.8 7.8 0 0 1-.902-3.807 8 8 0 0 1 .863-3.78 6.36 6.36 0 0 1 2.426-2.56 6.9 6.9 0 0 1 3.595-.927 6.15 6.15 0 0 1 5.692 3.452 8.3 8.3 0 0 1 .829 3.772c-.017.302-.048.678-.078 1.135m-3.02-2.287A4.3 4.3 0 0 0 63.55 9.43a3.22 3.22 0 0 0-2.34-.88 3.37 3.37 0 0 0-2.468.914 4.36 4.36 0 0 0-1.187 2.482zM82.077 20.009H78.38l-3.496-4.795-3.453 4.795h-3.526l5.18-7.04-5.098-6.75h3.703l3.367 4.606 3.366-4.605H82l-5.119 6.724zM98.061 13.803h-6.1v4.564h6.66v1.653H90V6.2h8.62v1.653h-6.659v4.339h6.1zM100.439 20.02v-9.98h1.519l.209 1.268a3.67 3.67 0 0 1 3.029-1.553c2.17 0 3.53 1.327 3.53 3.764v6.51h-1.844v-6.502c0-1.493-.768-2.203-2.128-2.203-1.327 0-2.479.96-2.479 2.537v6.159zM112.706 20.687c.176 1.002 1.018 1.611 2.479 1.611 1.861 0 2.82-.943 2.82-2.587v-1.285c-.667.784-1.785 1.302-3.321 1.302-2.337 0-4.414-1.744-4.414-4.932 0-3.13 1.819-5.049 4.531-5.049 1.552 0 2.612.668 3.246 1.61l.284-1.326h1.519v9.763c0 2.262-1.653 3.956-4.607 3.956-2.67 0-4.181-1.21-4.506-3.07h1.969zm2.379-2.528c1.902 0 3.012-1.243 3.012-3.263 0-2.345-1.227-3.572-3.012-3.572-1.686 0-2.896 1.135-2.896 3.514 0 2.11 1.302 3.32 2.896 3.32M121.67 12.818c.192-1.844 1.786-3.07 4.281-3.07 2.612 0 4.064 1.401 4.064 3.454v6.81h-1.519l-.233-1.36c-.651.917-1.728 1.652-3.338 1.652-2.187 0-3.455-1.227-3.455-2.863 0-1.819 1.093-2.862 3.78-3.321l2.921-.5v-.493c0-1.227-.826-1.92-2.303-1.92-1.419 0-2.112.618-2.245 1.611zm6.509 3.53v-1.285l-2.478.442c-1.786.309-2.262.86-2.262 1.744 0 .96.693 1.494 1.936 1.494 1.402.008 2.804-1.026 2.804-2.395M133.987 20.687c.175 1.002 1.018 1.611 2.478 1.611 1.861 0 2.821-.943 2.821-2.587v-1.285c-.668.784-1.786 1.302-3.322 1.302-2.336 0-4.414-1.744-4.414-4.932 0-3.13 1.819-5.049 4.531-5.049 1.552 0 2.612.668 3.246 1.61l.284-1.326h1.519v9.763c0 2.262-1.652 3.956-4.607 3.956-2.67 0-4.18-1.21-4.506-3.07h1.97zm2.386-2.528c1.903 0 3.013-1.243 3.013-3.263 0-2.345-1.227-3.572-3.013-3.572-1.685 0-2.895 1.135-2.895 3.514-.009 2.11 1.301 3.32 2.895 3.32M152.13 17.14c-.501 1.82-2.07 3.163-4.473 3.163-2.838 0-4.89-1.769-4.89-5.274 0-3.471 2.036-5.274 4.798-5.274s4.682 1.653 4.682 5.683h-7.603c.15 2.304 1.402 3.322 3.071 3.322 1.21 0 2.128-.693 2.42-1.61h1.995zm-7.411-3.17h5.642c-.134-1.861-1.227-2.746-2.763-2.746-1.477 0-2.587.91-2.879 2.746"/></svg>