<svg xmlns="http://www.w3.org/2000/svg" width="240" height="240" fill="none" viewBox="0 0 240 240"><path fill="url(#a)" d="M88.728 90.857v26.237c0 11.523-9.34 20.864-20.863 20.864S47 128.617 47 117.094V64.409z"/><path fill="url(#b)" d="M88.728 90.857v26.237c0 11.523-9.34 20.864-20.863 20.864S47 128.617 47 117.094V64.409z"/><path fill="url(#c)" d="M174.574 145.27c-22.916 15.187-88.59 58.67-89.035 58.944-.114 0-4.082 2.642-10.168 2.642-11.522 0-20.863-9.34-20.863-20.863 0-6.912 3.362-13.037 8.537-16.833.03-.018 2.44-1.611 73.134-48.227z"/><path fill="url(#d)" d="M193 120.188c0 8.304-4.224 15.621-10.643 19.919 0 .004-2.936 1.952-7.783 5.163l-38.395-24.337-47.45-30.076L47 64.41v-7.316C47 43.787 57.787 33 71.094 33a23.957 23.957 0 0 1 11.936 3.16h.002s2.35 1.492 98.856 62.66c5.978 3.789 11.112 10.788 11.112 21.368"/><path fill="url(#e)" d="M174.574 145.27c-22.916 15.187-88.59 58.67-89.035 58.944-.114 0-4.082 2.642-10.168 2.642-11.522 0-20.863-9.34-20.863-20.863 0-6.912 3.362-13.037 8.537-16.833.03-.018 2.44-1.611 73.134-48.227z"/><path fill="url(#f)" d="M174.574 145.27c-22.916 15.187-88.59 58.67-89.035 58.944-.114 0-4.082 2.642-10.168 2.642-11.522 0-20.863-9.34-20.863-20.863 0-6.912 3.362-13.037 8.537-16.833.03-.018 2.44-1.611 73.134-48.227z"/><path fill="url(#g)" d="m181.888 98.82-6.206-3.934-39.503 26.047-.617.408-23.782 15.682c-46.884 30.915-48.71 32.121-48.735 32.136-5.175 3.797-8.537 9.922-8.537 16.834 0 11.523 9.34 20.863 20.863 20.863 6.086 0 10.054-2.642 10.169-2.642.443-.274 66.118-43.757 89.034-58.944a3174 3174 0 0 0 7.784-5.163c6.418-4.298 10.642-11.615 10.642-19.919 0-10.58-6.823-18.651-11.112-21.369"/><path fill="url(#h)" d="M174.574 145.27c-22.916 15.187-88.59 58.67-89.035 58.944-.114 0-4.082 2.642-10.168 2.642-11.522 0-20.863-9.34-20.863-20.863 0-6.912 3.362-13.037 8.537-16.833.03-.018 2.44-1.611 73.134-48.227z"/><path fill="url(#i)" d="m181.888 98.82-6.206-3.934-39.503 26.047-.617.408-23.782 15.682c-46.884 30.915-48.71 32.121-48.735 32.136-5.175 3.797-8.537 9.922-8.537 16.834 0 11.523 9.34 20.863 20.863 20.863 6.086 0 10.054-2.642 10.169-2.642.443-.274 66.118-43.757 89.034-58.944a3174 3174 0 0 0 7.784-5.163c6.418-4.298 10.642-11.615 10.642-19.919 0-10.58-6.823-18.651-11.112-21.369"/><path fill="url(#j)" d="m181.888 98.82-6.206-3.934-39.503 26.047-.617.408-23.782 15.682c-46.884 30.915-48.71 32.121-48.735 32.136-5.175 3.797-8.537 9.922-8.537 16.834 0 11.523 9.34 20.863 20.863 20.863 6.086 0 10.054-2.642 10.169-2.642.443-.274 66.118-43.757 89.034-58.944a3174 3174 0 0 0 7.784-5.163c6.418-4.298 10.642-11.615 10.642-19.919 0-10.58-6.823-18.651-11.112-21.369"/><path fill="url(#k)" d="M83.032 36.16h-.001A23.96 23.96 0 0 0 71.094 33C57.787 33 47 43.787 47 57.093v60.001c0 11.523 9.342 20.864 20.865 20.864s20.863-9.341 20.863-20.864V39.769c-5.368-3.403-5.693-3.609-5.696-3.609"/><path fill="url(#l)" d="M193 120.188c0 8.304-4.224 15.621-10.643 19.919 0 .004-2.936 1.952-7.783 5.163l-38.395-24.337-47.45-30.076L47 64.41v-7.316C47 43.787 57.787 33 71.094 33a23.957 23.957 0 0 1 11.936 3.16h.002s2.35 1.492 98.856 62.66c5.978 3.789 11.112 10.788 11.112 21.368"/><path fill="url(#m)" d="M193 120.188c0 8.304-4.224 15.621-10.643 19.919 0 .004-2.936 1.952-7.783 5.163l-38.395-24.337-47.45-30.076L47 64.41v-7.316C47 43.787 57.787 33 71.094 33a23.957 23.957 0 0 1 11.936 3.16h.002s2.35 1.492 98.856 62.66c5.978 3.789 11.112 10.788 11.112 21.368"/><defs><radialGradient id="b" cx="0" cy="0" r="1" gradientTransform="matrix(11.8826 40.76893 -23.13055 6.74168 73.88 80.052)" gradientUnits="userSpaceOnUse"><stop stop-color="#831B4F"/><stop offset="1" stop-color="#9F338D" stop-opacity="0"/></radialGradient><radialGradient id="e" cx="0" cy="0" r="1" gradientTransform="rotate(123.053 40.586 101.925)scale(48.1969 26.2739)" gradientUnits="userSpaceOnUse"><stop stop-color="#8F216B"/><stop offset="1" stop-color="#683080" stop-opacity="0"/></radialGradient><radialGradient id="f" cx="0" cy="0" r="1" gradientTransform="rotate(85.741 -17.72 119.522)scale(23.2917 38.0885)" gradientUnits="userSpaceOnUse"><stop stop-color="#AE3EB1"/><stop offset="1" stop-color="#B140BA" stop-opacity="0"/></radialGradient><radialGradient id="g" cx="0" cy="0" r="1" gradientTransform="rotate(170.528 78.41 79.348)scale(37.4378 25.2682)" gradientUnits="userSpaceOnUse"><stop stop-color="#C62E6F"/><stop offset="1" stop-color="#C52F71" stop-opacity="0"/></radialGradient><radialGradient id="h" cx="0" cy="0" r="1" gradientTransform="rotate(108.104 35.813 111.325)scale(41.3767 12.5112)" gradientUnits="userSpaceOnUse"><stop stop-color="#6A1A4C"/><stop offset="1" stop-color="#8F379D" stop-opacity="0"/></radialGradient><radialGradient id="i" cx="0" cy="0" r="1" gradientTransform="rotate(-165.896 100.604 59.23)scale(31.9677 39.5397)" gradientUnits="userSpaceOnUse"><stop stop-color="#BF2D72"/><stop offset="1" stop-color="#C93273" stop-opacity="0"/></radialGradient><radialGradient id="j" cx="0" cy="0" r="1" gradientTransform="matrix(-6.08881 -33.00659 40.82468 -7.53104 158.827 166.405)" gradientUnits="userSpaceOnUse"><stop stop-color="#8C39A1"/><stop offset="1" stop-color="#972F8D" stop-opacity="0"/></radialGradient><radialGradient id="k" cx="0" cy="0" r="1" gradientTransform="matrix(17.2824 77.62049 -46.34348 10.3185 41.608 33)" gradientUnits="userSpaceOnUse"><stop stop-color="#CF2761"/><stop offset="1" stop-color="#CE2960" stop-opacity="0"/></radialGradient><linearGradient id="a" x1="67.864" x2="67.864" y1="64.409" y2="137.958" gradientUnits="userSpaceOnUse"><stop stop-color="#BF235A"/><stop offset="1" stop-color="#8F42AE"/></linearGradient><linearGradient id="c" x1="159.77" x2="74.847" y1="135.783" y2="190.905" gradientUnits="userSpaceOnUse"><stop stop-color="#AA2B7D"/><stop offset=".456" stop-color="#7F42B4"/><stop offset="1" stop-color="#376DFA"/></linearGradient><linearGradient id="d" x1="157.196" x2="138.144" y1="92.437" y2="121.541" gradientUnits="userSpaceOnUse"><stop stop-color="#F55769"/><stop offset="1" stop-color="#BE2661"/></linearGradient><linearGradient id="l" x1="72.948" x2="76.589" y1="28.523" y2="63.814" gradientUnits="userSpaceOnUse"><stop stop-color="#FA4B89"/><stop offset="1" stop-color="#BE2661" stop-opacity="0"/></linearGradient><linearGradient id="m" x1="195.208" x2="171.802" y1="116.612" y2="125.368" gradientUnits="userSpaceOnUse"><stop stop-color="#DF3F87"/><stop offset="1" stop-color="#D43772" stop-opacity="0"/></linearGradient></defs></svg>