<svg xmlns="http://www.w3.org/2000/svg" width="507" height="175" fill="none" viewBox="0 0 507 175"><path fill="#fff" d="M231.353 121.399h-9.247l-2.022-6.454q-5.879 7.899-16.087 7.899-10.693 0-16.857-7.706-5.588-7.032-5.587-18.398 0-13.68 7.224-20.903 5.972-5.973 15.509-5.973 9.921 0 15.509 7.129V52.044h11.558zm-37.952-24.564q0 8.862 4.238 13.196 3.468 3.661 9.055 3.661 6.839 0 10.403-5.009 3.18-4.431 3.179-11.945 0-9.438-4.431-14.063-3.468-3.66-9.151-3.66-6.647 0-10.115 5.008-3.178 4.53-3.178 12.813zm79.483 10.114h12.135q-2.023 7.706-8.38 11.945-6.069 3.948-14.931 3.949-12.233 0-19.072-7.706-6.262-7.032-6.262-18.784 0-13.484 7.803-20.614 6.55-5.876 17.049-5.876 12.234 0 18.495 7.995 5.876 7.418 5.876 21.192h-37.469q.674 8.09 5.009 11.849 3.468 3.081 9.054 3.081 3.95 0 6.84-1.926 2.89-1.927 3.853-5.104zm.867-15.798q-.386-7.032-4.238-10.306-3.18-2.794-8.285-2.794-5.588 0-8.958 3.66-3.083 3.275-3.949 9.44zm26.19 15.991q1.348 7.224 10.885 7.224 5.299 0 7.995-2.023 2.216-1.734 2.215-4.527 0-3.564-3.853-5.298-2.214-.963-9.729-2.697-9.248-2.12-13.197-5.78-3.948-3.564-3.949-9.343 0-7.321 5.973-11.27 5.297-3.565 14.545-3.565 9.536 0 15.315 4.527 5.01 3.854 6.261 10.404h-11.751q-1.444-6.454-10.018-6.454-8.668 0-8.67 5.298 0 2.697 2.216 4.045 2.217 1.35 8.959 2.987 10.403 2.408 14.449 5.394 5.105 3.756 5.105 10.595 0 7.803-6.358 12.234-5.778 3.95-15.605 3.949-10.305 0-16.474-4.912-5.201-4.142-6.069-10.788zm50.891-43.443h-12.715V52.044h12.715zm-.578 57.7h-11.559v-50.09h11.559zm7.807 3.275h12.136q1.829 6.936 11.462 6.935 12.429 0 12.429-11.848v-5.587q-5.683 5.78-15.412 5.78-10.21 0-16.568-7.225-5.877-6.742-5.876-17.435 0-12.618 7.224-19.554 6.07-5.876 15.605-5.876 10.018 0 15.605 7.32l1.83-5.875h9.151v48.358q0 9.922-7.127 15.508-6.36 5.01-16.761 5.01-11.177 0-17.436-4.721-5.106-3.95-6.262-10.79m10.019-29.283q0 7.802 4.334 12.04 3.565 3.37 8.958 3.371 6.936 0 10.5-4.527 3.08-3.948 3.082-10.787 0-8.573-4.238-12.908-3.467-3.564-9.344-3.564-6.454 0-10.018 4.624-3.275 4.237-3.274 11.751m56.18 26.008h-11.559v-50.09h9.536l1.252 5.97q5.491-7.416 15.22-7.416 9.054 0 13.872 5.587 4.237 4.913 4.238 13.389v32.559h-11.56v-32.27q0-10.307-9.536-10.307-5.202 0-8.477 3.66-2.986 3.372-2.986 8.477zM58.382 64.693c-5.045.382-9.202 5.727-8.455 11.215.234 2.004.748 5.106 1.401 8.495.28 1.527.608 3.15.935 4.724a112 112 0 0 0 3.036 11.263 93 93 0 0 0 4.718 11.979c7.053 14.031 16.582 16.99 23.355 16.99 3.181.028 6.331-.639 9.24-1.956a22.4 22.4 0 0 0 7.623-5.68 33.6 33.6 0 0 1-3.13-4.916c-2.99-5.631-4.904-12.121-6.54-18.898-.749 2.7-1.75 5.321-2.989 7.826-1.961 3.723-3.316 3.723-4.204 3.723-1.915 0-3.923-2.1-5.979-6.156a67 67 0 0 1-2.802-6.825c-.56-1.67-1.121-3.388-1.589-5.059-.467-1.67-1.307-4.629-1.681-6.49-.981-4.534-2.149-11.979-2.196-12.218-.42-2.147-2.896-8.685-10.743-8.017M140.267 84.737c4.998-1.957 7.1-8.16 4.858-13.172l-.187-.477a42.3 42.3 0 0 0-3.176-5.87 20.6 20.6 0 0 0-1.962-2.768c-6.4-8.018-13.92-9.45-18.498-9.45a22 22 0 0 0-9.237 1.96 22.4 22.4 0 0 0-7.626 5.677 31.7 31.7 0 0 1 2.943 4.581c3.13 5.775 5.092 13.697 6.727 20.426.887-3.054 1.915-6.968 3.083-9.163 1.915-3.58 3.223-3.58 4.11-3.58 2.663 0 4.811 4.01 5.839 6.348 0 0 3.69 9.258 13.126 5.488"/><path fill="#fff" d="m146.385 64.693-.887-.096h-.234a48 48 0 0 1 2.616 5.155l.233.477a13.58 13.58 0 0 1 .299 10.15c-1.217 3.29-3.658 5.955-6.792 7.412a13.2 13.2 0 0 1-5.371 1.193 14.2 14.2 0 0 1-3.737-.572c-1.308 5.01-3.363 11.167-5.232 14.89-1.868 3.722-4.064 6.156-6.026 6.156-.84 0-2.195 0-4.157-3.723a44.5 44.5 0 0 1-2.989-7.826c-.608-2.1-1.168-4.343-1.729-6.682a52 52 0 0 1-.607-2.577c-1.775-7.54-3.784-15.462-7.24-21.81a35 35 0 0 0-2.196-3.531 33 33 0 0 0-2.102-2.672 22.4 22.4 0 0 0-7.646-5.686A22 22 0 0 0 83.325 53c-4.531 0-12.052 1.431-18.451 9.449a13.1 13.1 0 0 1 5.096 4.177 13.5 13.5 0 0 1 2.471 6.179c.327 2.386 1.121 7.015 2.055 11.406.094.477.187.954.328 1.48.7-1.862 1.4-3.437 2.148-5.202l.56-1.241c1.028-2.339 3.177-6.347 5.793-6.347.934 0 2.242 0 4.157 3.579a43 43 0 0 1 3.083 8.017 128 128 0 0 1 1.728 6.73c.187.668.328 1.336.468 2.004 1.868 7.97 3.83 15.653 7.193 22a30 30 0 0 0 2.382 3.866 32 32 0 0 0 2.102 2.625c5.559 6.156 11.958 7.636 16.816 7.636 6.774 0 16.349-2.959 23.403-16.99 3.596-7.206 6.633-17.849 7.754-23.241 1.121-5.393 1.962-10.261 2.335-13.22.178-1.298.102-2.62-.223-3.887a10 10 0 0 0-1.67-3.5 9.8 9.8 0 0 0-2.859-2.575 9.6 9.6 0 0 0-3.609-1.253"/></svg>