<svg xmlns="http://www.w3.org/2000/svg" width="378" height="24" fill="none" viewBox="0 0 378 24"><path fill="#fff" d="M19.948 6.22h3.137l-4.562 13.789h-3.599l-3.41-10.406L8.105 20.01H4.562L0 6.219h3.211L6.448 16.7l3.396-10.48h3.41l3.452 10.536zM36.542 14.221H26.365a4.4 4.4 0 0 0 .777 1.973c.369.51.868.913 1.446 1.165a4.6 4.6 0 0 0 1.864.375 6 6 0 0 0 2.08-.38 6.8 6.8 0 0 0 1.908-1.074l1.498 2.158a7.6 7.6 0 0 1-2.616 1.489c-.988.31-2.02.463-3.055.453a7.3 7.3 0 0 1-3.656-.898 6.37 6.37 0 0 1-2.499-2.546 7.8 7.8 0 0 1-.897-3.807 8 8 0 0 1 .863-3.78 6.36 6.36 0 0 1 2.425-2.56 6.9 6.9 0 0 1 3.57-.915 6.14 6.14 0 0 1 5.692 3.453 8.26 8.26 0 0 1 .829 3.772q.006.436-.052 1.122m-3.021-2.287a4.26 4.26 0 0 0-1.153-2.52 3.2 3.2 0 0 0-2.347-.864 3.38 3.38 0 0 0-2.469.915 4.38 4.38 0 0 0-1.187 2.482zM49.416 6.798a6.7 6.7 0 0 1 2.49 2.59 7.6 7.6 0 0 1 .915 3.728 7.57 7.57 0 0 1-.915 3.725 6.7 6.7 0 0 1-5.981 3.526 5.6 5.6 0 0 1-2.49-.523 5.1 5.1 0 0 1-1.826-1.476v1.64h-3.021V.35h3.02v7.51a5.2 5.2 0 0 1 1.827-1.468 5.6 5.6 0 0 1 2.49-.526 6.7 6.7 0 0 1 3.491.932m-1.648 10.146a3.9 3.9 0 0 0 1.454-1.6 5.18 5.18 0 0 0 0-4.46 3.9 3.9 0 0 0-1.454-1.6 4.4 4.4 0 0 0-4.368 0c-.627.38-1.136.93-1.467 1.584a4.8 4.8 0 0 0-.527 2.261c-.014.785.167 1.56.527 2.257.331.655.84 1.203 1.467 1.584a4.4 4.4 0 0 0 4.368 0zM67.727 14.221H57.555a4.4 4.4 0 0 0 .777 1.973c.368.51.868.913 1.446 1.165a4.6 4.6 0 0 0 1.864.375 6 6 0 0 0 2.08-.38 6.8 6.8 0 0 0 1.908-1.074l1.493 2.158a7.5 7.5 0 0 1-2.611 1.489c-.99.31-2.023.463-3.06.453a7.34 7.34 0 0 1-3.655-.898 6.4 6.4 0 0 1-2.495-2.546 7.8 7.8 0 0 1-.902-3.807 8 8 0 0 1 .863-3.78 6.36 6.36 0 0 1 2.426-2.56 6.9 6.9 0 0 1 3.595-.927 6.15 6.15 0 0 1 5.692 3.452 8.3 8.3 0 0 1 .829 3.772c-.017.302-.048.678-.078 1.135m-3.02-2.287A4.3 4.3 0 0 0 63.55 9.43a3.22 3.22 0 0 0-2.34-.88 3.37 3.37 0 0 0-2.468.914 4.36 4.36 0 0 0-1.187 2.482zM82.077 20.009H78.38l-3.496-4.795-3.453 4.795h-3.526l5.18-7.04-5.098-6.75h3.703l3.367 4.606 3.366-4.605H82l-5.119 6.724zM103.92 20.043h-2.229l-1.397-3.591h-6.763l-1.422 3.59H90L95.837 5.85h2.272zm-6.977-12.18-2.76 6.96h5.46zM114.052 20.043h-1.56l-.334-1.44c-.789 1.157-1.929 1.731-3.412 1.731-1.431 0-2.563-.523-3.394-1.56-.763-.96-1.14-2.228-1.14-3.805q.002-2.855 1.457-4.295 1.219-1.183 3.197-1.183 2.134 0 3.292 1.595V5.849h1.894zm-7.869-5.023c0 1.277.317 2.237.943 2.897.523.54 1.2.806 2.032.806 1.028 0 1.817-.386 2.382-1.166.472-.668.712-1.508.712-2.52q-.002-1.992-.943-3.034c-.54-.591-1.251-.892-2.151-.892q-1.505 0-2.263 1.08c-.472.66-.712 1.603-.712 2.83M115.723 14.917c0-1.877.557-3.3 1.68-4.26.891-.771 2.023-1.166 3.394-1.166q2.38 0 3.746 1.517c.865.943 1.303 2.246 1.303 3.9 0 1.852-.549 3.266-1.638 4.243-.891.789-2.04 1.183-3.428 1.183-1.594 0-2.846-.523-3.763-1.577-.866-.952-1.294-2.237-1.294-3.84m1.971 0c0 1.311.334 2.323 1.003 3.017.549.574 1.251.866 2.109.866 1.002 0 1.765-.377 2.305-1.123.497-.686.746-1.603.746-2.76 0-1.337-.326-2.349-.986-3.034-.54-.566-1.234-.849-2.091-.849-.986 0-1.757.377-2.306 1.123-.514.686-.78 1.603-.78 2.76M127.518 9.791h1.56l.291 1.337c.84-1.088 1.997-1.637 3.471-1.637 1.475 0 2.615.523 3.429 1.577.72.943 1.089 2.203 1.089 3.763 0 1.852-.498 3.274-1.483 4.26-.832.832-1.886 1.243-3.172 1.243q-2.185 0-3.291-1.62v4.869h-1.894zm7.868 5.006c0-1.286-.326-2.254-.968-2.897-.515-.523-1.183-.789-2.015-.789-.96 0-1.723.352-2.288 1.046-.54.668-.806 1.551-.806 2.64 0 1.311.326 2.323.969 3.017.54.609 1.251.909 2.125.909.986 0 1.732-.36 2.246-1.089.489-.669.737-1.611.737-2.837M143.606 18.526v1.62a5.5 5.5 0 0 1-1.398.197c-.942 0-1.654-.291-2.125-.891-.412-.489-.609-1.14-.609-1.955v-6.085h-1.517v-1.62h1.517l.12-2.469h1.774v2.469h2.212v1.62h-2.212v6.128c0 .763.36 1.14 1.08 1.14q.502 0 1.158-.154M146.897 8.077h-2.126V5.85h2.126zm-.12 11.966h-1.894V9.79h1.894zM148.448 14.917c0-1.877.557-3.3 1.68-4.26.892-.771 2.023-1.166 3.395-1.166 1.594 0 2.837.506 3.745 1.517.866.943 1.303 2.246 1.303 3.9q-.002 2.778-1.637 4.243c-.891.789-2.04 1.183-3.429 1.183-1.594 0-2.845-.523-3.762-1.577-.866-.952-1.295-2.237-1.295-3.84m1.972 0c0 1.311.334 2.323 1.003 3.017.548.574 1.251.866 2.108.866 1.003 0 1.766-.377 2.306-1.123.497-.686.746-1.603.746-2.76q.002-2.006-.986-3.034c-.54-.566-1.234-.849-2.092-.849-.985 0-1.757.377-2.305 1.123-.515.686-.78 1.603-.78 2.76M162.137 20.043h-1.894V9.79h1.56l.214 1.303q1.144-1.594 3.112-1.594c1.208 0 2.134.377 2.777 1.123.566.668.849 1.586.849 2.743v6.685h-1.895v-6.668q0-2.263-2.185-2.263c-.763 0-1.389.266-1.869.789-.446.471-.669 1.08-.669 1.817zM184.663 20.043h-1.894l-4.38-11.117v11.117h-1.954V5.849h2.802l4.518 11.828 4.26-11.828h2.64v14.194h-1.895V9.02zM200.34 17.086h2.048c-.291 1.037-.857 1.851-1.714 2.443-.806.54-1.757.805-2.88.805-1.62 0-2.88-.514-3.788-1.534-.832-.96-1.243-2.254-1.243-3.883 0-1.851.523-3.257 1.577-4.217.866-.797 1.988-1.2 3.351-1.2 1.603 0 2.812.523 3.626 1.56q1.183 1.502 1.183 4.277h-7.809q.116 1.814 1.106 2.7c.54.472 1.226.712 2.049.712.642 0 1.2-.18 1.68-.532.402-.308.668-.686.814-1.131m-2.606-6.069c-.84 0-1.517.266-2.031.789q-.733.732-.926 2.031h5.794q-.1-1.479-.985-2.211c-.472-.412-1.089-.609-1.852-.609M209.186 18.526v1.62a5.5 5.5 0 0 1-1.397.197c-.943 0-1.655-.291-2.126-.891-.412-.489-.609-1.14-.609-1.955v-6.085h-1.517v-1.62h1.517l.12-2.469h1.775v2.469h2.211v1.62h-2.211v6.128c0 .763.36 1.14 1.08 1.14q.513 0 1.157-.154M212.7 20.043h-1.894V5.849h1.894v5.108c.746-.968 1.749-1.457 3-1.457q1.813.002 2.777 1.123c.566.668.849 1.586.849 2.743v6.686h-1.895v-6.67q0-2.262-2.185-2.262c-.78 0-1.406.266-1.895.806-.437.488-.651 1.114-.651 1.877zM221.237 14.917c0-1.877.557-3.3 1.68-4.26.892-.771 2.023-1.166 3.395-1.166 1.594 0 2.837.506 3.745 1.517.866.943 1.303 2.246 1.303 3.9q-.002 2.778-1.637 4.243c-.891.789-2.04 1.183-3.429 1.183-1.594 0-2.845-.523-3.762-1.577-.866-.952-1.295-2.237-1.295-3.84m1.972 0c0 1.311.334 2.323 1.003 3.017.548.574 1.251.866 2.108.866 1.003 0 1.766-.377 2.306-1.123.497-.686.746-1.603.746-2.76 0-1.337-.326-2.349-.986-3.034-.54-.566-1.234-.849-2.092-.849-.985 0-1.757.377-2.305 1.123-.523.686-.78 1.603-.78 2.76M242.451 20.043h-1.56l-.334-1.44c-.789 1.157-1.929 1.731-3.411 1.731-1.432 0-2.563-.523-3.395-1.56-.763-.96-1.14-2.228-1.14-3.805 0-1.903.489-3.335 1.457-4.295.815-.788 1.878-1.183 3.198-1.183q2.134 0 3.291 1.595V5.849h1.894zm-7.868-5.023c0 1.277.317 2.237.943 2.897.522.54 1.2.806 2.031.806 1.029 0 1.817-.386 2.383-1.166.471-.668.711-1.508.711-2.52q-.002-1.992-.943-3.034c-.54-.591-1.251-.892-2.151-.892-1.003 0-1.757.36-2.271 1.08-.472.66-.703 1.603-.703 2.83M244.303 14.917c0-1.877.557-3.3 1.68-4.26.891-.771 2.023-1.166 3.394-1.166q2.38 0 3.746 1.517c.865.943 1.303 2.246 1.303 3.9 0 1.852-.549 3.266-1.638 4.243-.891.789-2.04 1.183-3.428 1.183-1.594 0-2.846-.523-3.763-1.577-.866-.952-1.294-2.237-1.294-3.84m1.971 0c0 1.311.334 2.323 1.003 3.017.549.574 1.251.866 2.109.866 1.002 0 1.765-.377 2.305-1.123.497-.686.746-1.603.746-2.76 0-1.337-.326-2.349-.986-3.034-.54-.566-1.234-.849-2.091-.849-.986 0-1.757.377-2.306 1.123-.523.686-.78 1.603-.78 2.76M258.163 5.849v14.194h-1.894V5.849zM260.015 14.917c0-1.877.557-3.3 1.68-4.26.891-.771 2.023-1.166 3.394-1.166 1.594 0 2.837.506 3.746 1.517.865.943 1.303 2.246 1.303 3.9 0 1.852-.549 3.266-1.638 4.243-.891.789-2.04 1.183-3.428 1.183-1.594 0-2.846-.523-3.763-1.577-.866-.952-1.294-2.237-1.294-3.84m1.971 0c0 1.311.334 2.323 1.003 3.017.549.574 1.251.866 2.108.866 1.003 0 1.766-.377 2.306-1.123.497-.686.746-1.603.746-2.76q.002-2.006-.986-3.034c-.54-.566-1.234-.849-2.091-.849-.986 0-1.757.377-2.306 1.123-.523.686-.78 1.603-.78 2.76M271.86 20.737h2.032a1.8 1.8 0 0 0 .797 1.226q.656.437 1.748.437c1.012 0 1.766-.265 2.272-.788.42-.446.634-1.072.634-1.869v-1.32c-.763.892-1.903 1.337-3.411 1.337-1.363 0-2.477-.488-3.335-1.474-.805-.917-1.2-2.117-1.2-3.592 0-1.705.489-3.025 1.458-3.96.831-.814 1.894-1.225 3.197-1.225 1.474 0 2.58.548 3.334 1.654l.291-1.363h1.56v10.037c0 1.286-.462 2.297-1.397 3.035-.84.685-1.954 1.028-3.334 1.028q-2.146-.002-3.369-.968c-.702-.549-1.122-1.277-1.277-2.195m1.5-6.017q-.002 1.672.986 2.623c.54.523 1.2.789 1.989.789 1.037 0 1.834-.343 2.382-1.029.472-.574.712-1.354.712-2.323 0-1.251-.326-2.203-.969-2.854-.54-.54-1.251-.806-2.125-.806-.978 0-1.723.335-2.246 1.003-.489.626-.729 1.492-.729 2.597M292.225 9.792 288.66 20.18c-.472 1.38-.926 2.323-1.363 2.82-.514.591-1.174.883-1.989.883-.343 0-.745-.06-1.225-.18v-1.534q.55.139.985.137c.403 0 .72-.146.943-.42q.334-.427.849-1.843h-.609l-3.763-10.251h2.049l2.897 8.717 2.897-8.718z"/></svg>