<svg xmlns="http://www.w3.org/2000/svg" width="378" height="24" fill="none" viewBox="0 0 378 24"><path fill="#000" d="M19.948 6.22h3.137l-4.562 13.789h-3.599l-3.41-10.406L8.105 20.01H4.562L0 6.219h3.211L6.448 16.7l3.396-10.48h3.41l3.452 10.536zM36.542 14.221H26.365a4.4 4.4 0 0 0 .777 1.973c.369.51.868.913 1.446 1.165a4.6 4.6 0 0 0 1.864.375 6 6 0 0 0 2.08-.38 6.8 6.8 0 0 0 1.908-1.074l1.498 2.158a7.6 7.6 0 0 1-2.616 1.489c-.988.31-2.02.463-3.055.453a7.3 7.3 0 0 1-3.656-.898 6.37 6.37 0 0 1-2.499-2.546 7.8 7.8 0 0 1-.897-3.807 8 8 0 0 1 .863-3.78 6.36 6.36 0 0 1 2.425-2.56 6.9 6.9 0 0 1 3.57-.915 6.14 6.14 0 0 1 5.692 3.453 8.26 8.26 0 0 1 .829 3.772q.006.436-.052 1.122m-3.021-2.287a4.26 4.26 0 0 0-1.153-2.52 3.2 3.2 0 0 0-2.347-.864 3.38 3.38 0 0 0-2.469.915 4.38 4.38 0 0 0-1.187 2.482zM49.416 6.798a6.7 6.7 0 0 1 2.49 2.59 7.6 7.6 0 0 1 .915 3.728 7.57 7.57 0 0 1-.915 3.725 6.7 6.7 0 0 1-5.981 3.526 5.6 5.6 0 0 1-2.49-.523 5.1 5.1 0 0 1-1.826-1.476v1.64h-3.021V.35h3.02v7.51a5.2 5.2 0 0 1 1.827-1.468 5.6 5.6 0 0 1 2.49-.526 6.7 6.7 0 0 1 3.491.932m-1.648 10.146a3.9 3.9 0 0 0 1.454-1.6 5.18 5.18 0 0 0 0-4.46 3.9 3.9 0 0 0-1.454-1.6 4.4 4.4 0 0 0-4.368 0c-.627.38-1.136.93-1.467 1.584a4.8 4.8 0 0 0-.527 2.261c-.014.785.167 1.56.527 2.257.331.655.84 1.203 1.467 1.584a4.4 4.4 0 0 0 4.368 0zM67.727 14.221H57.555a4.4 4.4 0 0 0 .777 1.973c.368.51.868.913 1.446 1.165a4.6 4.6 0 0 0 1.864.375 6 6 0 0 0 2.08-.38 6.8 6.8 0 0 0 1.908-1.074l1.493 2.158a7.5 7.5 0 0 1-2.611 1.489c-.99.31-2.023.463-3.06.453a7.34 7.34 0 0 1-3.655-.898 6.4 6.4 0 0 1-2.495-2.546 7.8 7.8 0 0 1-.902-3.807 8 8 0 0 1 .863-3.78 6.36 6.36 0 0 1 2.426-2.56 6.9 6.9 0 0 1 3.595-.927 6.15 6.15 0 0 1 5.692 3.452 8.3 8.3 0 0 1 .829 3.772c-.017.302-.048.678-.078 1.135m-3.02-2.287A4.3 4.3 0 0 0 63.55 9.43a3.22 3.22 0 0 0-2.34-.88 3.37 3.37 0 0 0-2.468.914 4.36 4.36 0 0 0-1.187 2.482zM82.077 20.009H78.38l-3.496-4.795-3.453 4.795h-3.526l5.18-7.04-5.098-6.75h3.703l3.367 4.606 3.366-4.605H82l-5.119 6.724zM98.034 13.807h-6.08v4.55h6.637v1.646H90V6.23h8.583v1.647h-6.629v4.325h6.08zM108.704 10.056l-3.502 9.947h-2.486l-3.46-9.947h2.013l2.752 8.45 2.77-8.45zM118.136 17.133c-.499 1.814-2.062 3.153-4.458 3.153-2.827 0-4.873-1.764-4.873-5.257 0-3.46 2.029-5.256 4.782-5.256s4.666 1.647 4.666 5.664h-7.577c.15 2.295 1.397 3.31 3.061 3.31 1.206 0 2.12-.69 2.412-1.605h1.987zm-7.385-3.16h5.622c-.133-1.855-1.222-2.736-2.753-2.736-1.472 0-2.578.906-2.869 2.736M119.975 20.003v-9.947h1.513l.208 1.264a3.66 3.66 0 0 1 3.019-1.547c2.163 0 3.518 1.322 3.518 3.75v6.488h-1.838v-6.479c0-1.489-.765-2.196-2.121-2.196-1.322 0-2.47.957-2.47 2.529v6.138zM134.778 20.094a5 5 0 0 1-1.355.191c-1.764 0-2.662-1.106-2.662-2.753V11.62h-1.472v-1.564h1.472l.117-2.387h1.721v2.387h2.146v1.572h-2.146v5.947c0 .748.366 1.106 1.048 1.106.325 0 .574-.017 1.131-.15zM138.953 15.47c-2.337-.516-3.269-1.397-3.269-2.87 0-1.704 1.356-2.827 3.868-2.827 2.22 0 3.751 1.09 4.075 2.91h-1.871c-.225-.922-.973-1.463-2.237-1.463-1.381 0-1.988.516-1.988 1.206 0 .765.399 1.106 2.312 1.53 2.312.516 3.842 1.165 3.842 3.21 0 1.814-1.513 3.12-4.15 3.12-2.487 0-4.108-1.223-4.283-3.136h1.871c.208 1.19 1.032 1.68 2.429 1.68 1.489 0 2.279-.665 2.279-1.53.008-1.165-1.107-1.43-2.878-1.83"/></svg>