<svg xmlns="http://www.w3.org/2000/svg" width="32" height="32" viewBox="0 0 32 32"><path d="M16 7.5a3.5 3.5 0 1 1 0 7 3.5 3.5 0 0 1 0-7m2.396 7.31a4.5 4.5 0 1 0-4.791.001 9 9 0 0 0-2.445 1.052 5.1 5.1 0 0 0-1.837-1.071 2.7 2.7 0 1 0-3.644.002C3.844 15.408 2.5 16.928 2.5 18.8c0 .522.32.907.693 1.168s.868.45 1.403.586c.877.224 1.954.328 3.014.32q-.109.6-.11 1.226c0 .873.578 1.53 1.329 1.994.756.468 1.783.807 2.92 1.038 2.279.463 5.145.516 7.556.164a.5.5 0 0 0-.145-.99c-2.305.337-5.055.284-7.213-.154-1.082-.22-1.979-.529-2.592-.908-.618-.383-.855-.773-.855-1.144 0-3.57 3.319-6.6 7.5-6.6 2.032 0 3.875.722 5.224 1.88a.5.5 0 0 0 .651-.76l-.196-.162c.715-.586 1.705-.958 2.821-.958 2.137 0 3.761 1.342 3.975 2.93a.5.5 0 0 0 .991-.134c-.224-1.668-1.52-2.989-3.228-3.53a2.7 2.7 0 1 0-3.478-.001 5.1 5.1 0 0 0-1.92 1.097 9 9 0 0 0-2.444-1.053M7.874 19.87c-1.081.03-2.182-.069-3.03-.285-.48-.122-.845-.274-1.079-.437-.232-.162-.265-.282-.265-.348 0-1.749 1.695-3.3 4-3.3 1.117 0 2.107.372 2.82.958-1.127.907-1.986 2.08-2.446 3.412M24.5 11a1.7 1.7 0 1 1 0 3.4 1.7 1.7 0 0 1 0-3.4m-17 .1a1.7 1.7 0 1 1 0 3.4 1.7 1.7 0 0 1 0-3.4M26.5 19a.5.5 0 0 0-1 0v3.5H22a.5.5 0 0 0 0 1h3.5V27a.5.5 0 0 0 1 0v-3.5H30a.5.5 0 0 0 0-1h-3.5z"/></svg>