<svg xmlns="http://www.w3.org/2000/svg" width="32" height="32" viewBox="0 0 32 32"><path d="m27.335 16.264-4.799-8.085a7.52 7.52 0 0 0-6.54-3.679 7.52 7.52 0 0 0-6.543 3.679l-4.797 8.085a7.08 7.08 0 0 0-.463 6.904c1.176 2.321 3.713 3.833 6.957 4.149q2.433.218 4.877.183h.064a44 44 0 0 0 4.752-.184c3.265-.328 5.806-1.842 6.974-4.156a7.09 7.09 0 0 0-.482-6.896m-.41 6.446c-1.012 2.002-3.265 3.318-6.181 3.611q-2.322.215-4.653.179a45 45 0 0 1-4.846-.18c-2.895-.28-5.141-1.594-6.16-3.604a6.1 6.1 0 0 1 .43-5.943l4.798-8.085a6.657 6.657 0 0 1 11.364 0l4.799 8.085a6.11 6.11 0 0 1 .448 5.937M16.002 11.5a5.5 5.5 0 1 0 5.5 5.5 5.507 5.507 0 0 0-5.5-5.5m0 10a4.5 4.5 0 1 1 0-9 4.5 4.5 0 0 1 0 9"/></svg>