<svg xmlns="http://www.w3.org/2000/svg" width="507" height="175" fill="none" viewBox="0 0 507 175"><path fill="#fff" d="M231.666 122.073h-9.247l-2.023-6.454q-5.876 7.899-16.087 7.899-10.692 0-16.857-7.706-5.586-7.032-5.587-18.399 0-13.678 7.225-20.903 5.972-5.971 15.508-5.972 9.922 0 15.509 7.129v-24.95h11.559zm-37.952-24.565q0 8.864 4.238 13.197 3.467 3.661 9.055 3.661 6.839 0 10.403-5.009 3.178-4.431 3.178-11.945 0-9.439-4.431-14.063-3.467-3.661-9.15-3.661-6.648 0-10.114 5.01-3.18 4.528-3.179 12.811m79.482 10.115h12.136q-2.023 7.705-8.384 11.944-6.068 3.95-14.93 3.95-12.233 0-19.073-7.707-6.261-7.031-6.261-18.783 0-13.484 7.803-20.614 6.549-5.876 17.049-5.876 12.234 0 18.495 7.995 5.88 7.419 5.88 21.193H248.44q.674 8.09 5.009 11.848 3.469 3.083 9.055 3.083 3.95 0 6.839-1.926 2.89-1.927 3.853-5.106zm.867-15.797q-.385-7.035-4.238-10.308-3.178-2.793-8.284-2.793-5.587 0-8.959 3.66-3.082 3.275-3.949 9.44zm26.191 15.989q1.348 7.225 10.885 7.225 5.298 0 7.995-2.023 2.215-1.734 2.215-4.527 0-3.565-3.853-5.298-2.216-.963-9.729-2.697-9.248-2.12-13.197-5.78-3.95-3.563-3.949-9.343 0-7.32 5.972-11.27 5.297-3.565 14.546-3.565 9.535 0 15.315 4.528 5.01 3.853 6.261 10.404h-11.751q-1.445-6.454-10.019-6.455-8.667 0-8.669 5.299 0 2.696 2.216 4.045t8.958 2.986q10.403 2.408 14.45 5.393 5.104 3.757 5.105 10.597 0 7.802-6.358 12.233-5.78 3.95-15.605 3.949-10.306 0-16.475-4.913-5.202-4.142-6.067-10.787zm50.891-43.442h-12.716V52.718h12.716zm-.58 57.7h-11.558v-50.09h11.558zm7.807 3.275h12.136q1.83 6.936 11.462 6.935 12.429 0 12.429-11.848v-5.584q-5.683 5.779-15.412 5.78-10.21 0-16.568-7.225-5.874-6.745-5.874-17.437 0-12.62 7.224-19.555 6.07-5.876 15.605-5.876 10.017 0 15.606 7.321l1.829-5.876h9.152v48.356q0 9.921-7.128 15.509-6.358 5.008-16.761 5.008-11.176 0-17.436-4.72-5.106-3.949-6.262-10.788zm10.019-29.283q0 7.802 4.334 12.041 3.564 3.37 8.959 3.371 6.935 0 10.499-4.527 3.082-3.95 3.082-10.788 0-8.572-4.239-12.907-3.467-3.564-9.342-3.565-6.455 0-10.019 4.624-3.273 4.238-3.273 11.75zm56.18 26.008h-11.557v-50.09h9.536l1.252 5.972q5.491-7.417 15.22-7.417 9.054 0 13.871 5.587 4.238 4.912 4.238 13.39v32.558h-11.559v-32.27q0-10.305-9.537-10.306-5.202 0-8.476 3.66-2.987 3.371-2.986 8.477z"/><path fill="url(#a)" d="M82.26 126.985c-19.443 0-26.06-24.566-27.543-29.346a133 133 0 0 1-4.976-23.946c-.691-6.546 4.564-11.1 10.332-11.1a9.753 9.753 0 0 1 10.106 8.947 108 108 0 0 0 4.145 20.274c3.277 10.453 6.754 14.473 9.258 14.473 4.044 0 6.51-10.377 8.692-20.257 1.607-7.28 3.344-14.614 6.773-21.13 5.965-11.335 14.981-13.972 22.769-13.972 17.078 0 25.625 19.769 25.625 24.89a10.15 10.15 0 0 1-2.71 7.514 10.15 10.15 0 0 1-7.306 3.229c-6.624 0-8.869-4.434-10.759-8.321-1.7-3.497-3.476-6.404-5.771-6.404a2.98 2.98 0 0 0-2.1 1.038c-5.706 5.794-7.619 36.104-19.027 47.689-6.324 6.422-13.205 6.422-17.509 6.422"/><path fill="url(#b)" d="M82.26 126.985c-19.443 0-26.06-24.566-27.543-29.346a133 133 0 0 1-4.976-23.946c-.691-6.546 4.564-11.1 10.332-11.1a9.753 9.753 0 0 1 10.106 8.947 108 108 0 0 0 4.145 20.274c3.277 10.453 6.754 14.473 9.258 14.473 4.044 0 6.51-10.377 8.692-20.257 1.607-7.28 3.344-14.614 6.773-21.13 5.965-11.335 14.981-13.972 22.769-13.972 17.078 0 25.625 19.769 25.625 24.89a10.15 10.15 0 0 1-2.71 7.514 10.15 10.15 0 0 1-7.306 3.229c-6.624 0-8.869-4.434-10.759-8.321-1.7-3.497-3.476-6.404-5.771-6.404a2.98 2.98 0 0 0-2.1 1.038c-5.706 5.794-7.619 36.104-19.027 47.689-6.324 6.422-13.205 6.422-17.509 6.422"/><path fill="url(#c)" d="M82.26 126.985c-19.443 0-26.06-24.566-27.543-29.346a133 133 0 0 1-4.976-23.946c-.691-6.546 4.564-11.1 10.332-11.1a9.753 9.753 0 0 1 10.106 8.947 108 108 0 0 0 4.145 20.274c3.277 10.453 6.754 14.473 9.258 14.473 4.044 0 6.51-10.377 8.692-20.257 1.607-7.28 3.344-14.614 6.773-21.13 5.965-11.335 14.981-13.972 22.769-13.972 17.078 0 25.625 19.769 25.625 24.89a10.15 10.15 0 0 1-2.71 7.514 10.15 10.15 0 0 1-7.306 3.229c-6.624 0-8.869-4.434-10.759-8.321-1.7-3.497-3.476-6.404-5.771-6.404a2.98 2.98 0 0 0-2.1 1.038c-5.706 5.794-7.619 36.104-19.027 47.689-6.324 6.422-13.205 6.422-17.509 6.422"/><path fill="url(#d)" d="M82.26 126.985c-19.443 0-26.06-24.566-27.543-29.346a133 133 0 0 1-4.976-23.946c-.691-6.546 4.564-11.1 10.332-11.1a9.753 9.753 0 0 1 10.106 8.947 108 108 0 0 0 4.145 20.274c3.277 10.453 6.754 14.473 9.258 14.473 4.044 0 6.51-10.377 8.692-20.257 1.607-7.28 3.344-14.614 6.773-21.13 5.965-11.335 14.981-13.972 22.769-13.972 17.078 0 25.625 19.769 25.625 24.89a10.15 10.15 0 0 1-2.71 7.514 10.15 10.15 0 0 1-7.306 3.229c-6.624 0-8.869-4.434-10.759-8.321-1.7-3.497-3.476-6.404-5.771-6.404a2.98 2.98 0 0 0-2.1 1.038c-5.706 5.794-7.619 36.104-19.027 47.689-6.324 6.422-13.205 6.422-17.509 6.422"/><path fill="url(#e)" d="M82.26 126.985c-19.443 0-26.06-24.566-27.543-29.346a133 133 0 0 1-4.976-23.946c-.691-6.546 4.564-11.1 10.332-11.1a9.753 9.753 0 0 1 10.106 8.947 108 108 0 0 0 4.145 20.274c3.277 10.453 6.754 14.473 9.258 14.473 4.044 0 6.51-10.377 8.692-20.257 1.607-7.28 3.344-14.614 6.773-21.13 5.965-11.335 14.981-13.972 22.769-13.972 17.078 0 25.625 19.769 25.625 24.89a10.15 10.15 0 0 1-2.71 7.514 10.15 10.15 0 0 1-7.306 3.229c-6.624 0-8.869-4.434-10.759-8.321-1.7-3.497-3.476-6.404-5.771-6.404a2.98 2.98 0 0 0-2.1 1.038c-5.706 5.794-7.619 36.104-19.027 47.689-6.324 6.422-13.205 6.422-17.509 6.422"/><path fill="url(#f)" d="M82.26 126.985c-19.443 0-26.06-24.566-27.543-29.346a133 133 0 0 1-4.976-23.946c-.691-6.546 4.564-11.1 10.332-11.1a9.753 9.753 0 0 1 10.106 8.947 108 108 0 0 0 4.145 20.274c3.277 10.453 6.754 14.473 9.258 14.473 4.044 0 6.51-10.377 8.692-20.257 1.607-7.28 3.344-14.614 6.773-21.13 5.965-11.335 14.981-13.972 22.769-13.972 17.078 0 25.625 19.769 25.625 24.89a10.15 10.15 0 0 1-2.71 7.514 10.15 10.15 0 0 1-7.306 3.229c-6.624 0-8.869-4.434-10.759-8.321-1.7-3.497-3.476-6.404-5.771-6.404a2.98 2.98 0 0 0-2.1 1.038c-5.706 5.794-7.619 36.104-19.027 47.689-6.324 6.422-13.205 6.422-17.509 6.422"/><path fill="url(#g)" d="M82.26 126.985c-19.443 0-26.06-24.566-27.543-29.346a133 133 0 0 1-4.976-23.946c-.691-6.546 4.564-11.1 10.332-11.1a9.753 9.753 0 0 1 10.106 8.947 108 108 0 0 0 4.145 20.274c3.277 10.453 6.754 14.473 9.258 14.473 4.044 0 6.51-10.377 8.692-20.257 1.607-7.28 3.344-14.614 6.773-21.13 5.965-11.335 14.981-13.972 22.769-13.972 17.078 0 25.625 19.769 25.625 24.89a10.15 10.15 0 0 1-2.71 7.514 10.15 10.15 0 0 1-7.306 3.229c-6.624 0-8.869-4.434-10.759-8.321-1.7-3.497-3.476-6.404-5.771-6.404a2.98 2.98 0 0 0-2.1 1.038c-5.706 5.794-7.619 36.104-19.027 47.689-6.324 6.422-13.205 6.422-17.509 6.422"/><path fill="url(#h)" d="M82.26 126.985c-19.443 0-26.06-24.566-27.543-29.346a133 133 0 0 1-4.976-23.946c-.691-6.546 4.564-11.1 10.332-11.1a9.753 9.753 0 0 1 10.106 8.947 108 108 0 0 0 4.145 20.274c3.277 10.453 6.754 14.473 9.258 14.473 4.044 0 6.51-10.377 8.692-20.257 1.607-7.28 3.344-14.614 6.773-21.13 5.965-11.335 14.981-13.972 22.769-13.972 17.078 0 25.625 19.769 25.625 24.89a10.15 10.15 0 0 1-2.71 7.514 10.15 10.15 0 0 1-7.306 3.229c-6.624 0-8.869-4.434-10.759-8.321-1.7-3.497-3.476-6.404-5.771-6.404a2.98 2.98 0 0 0-2.1 1.038c-5.706 5.794-7.619 36.104-19.027 47.689-6.324 6.422-13.205 6.422-17.509 6.422"/><path fill="url(#i)" d="M121.814 50.928c-7.788 0-16.803 2.637-22.77 13.973-3.429 6.515-5.166 13.85-6.772 21.13-.53 2.395-1.075 4.82-1.656 7.118v32.934a20.44 20.44 0 0 0 9.151-5.52c11.407-11.585 13.321-41.895 19.026-47.689a2.99 2.99 0 0 1 2.1-1.038c2.296 0 4.072 2.908 5.771 6.404 1.89 3.887 4.136 8.321 10.76 8.321a10.16 10.16 0 0 0 9.431-6.708c.465-1.291.664-2.664.584-4.034 0-5.123-8.547-24.891-25.625-24.891"/><path fill="url(#j)" d="M82.26 126.985c-19.443 0-26.06-24.566-27.543-29.346a133 133 0 0 1-4.976-23.946c-.691-6.546 4.564-11.1 10.332-11.1a9.753 9.753 0 0 1 10.106 8.947 108 108 0 0 0 4.145 20.274c3.277 10.453 6.754 14.473 9.258 14.473 4.044 0 6.51-10.377 8.692-20.257 1.607-7.28 3.344-14.614 6.773-21.13 5.965-11.335 14.981-13.972 22.769-13.972 17.078 0 25.625 19.769 25.625 24.89a10.15 10.15 0 0 1-2.71 7.514 10.15 10.15 0 0 1-7.306 3.229c-6.624 0-8.869-4.434-10.759-8.321-1.7-3.497-3.476-6.404-5.771-6.404a2.98 2.98 0 0 0-2.1 1.038c-5.706 5.794-7.619 36.104-19.027 47.689-6.324 6.422-13.205 6.422-17.509 6.422"/><path fill="url(#k)" d="M82.26 126.985c-19.443 0-26.06-24.566-27.543-29.346a133 133 0 0 1-4.976-23.946c-.691-6.546 4.564-11.1 10.332-11.1a9.753 9.753 0 0 1 10.106 8.947 108 108 0 0 0 4.145 20.274c3.277 10.453 6.754 14.473 9.258 14.473 4.044 0 6.51-10.377 8.692-20.257 1.607-7.28 3.344-14.614 6.773-21.13 5.965-11.335 14.981-13.972 22.769-13.972 17.078 0 25.625 19.769 25.625 24.89a10.15 10.15 0 0 1-2.71 7.514 10.15 10.15 0 0 1-7.306 3.229c-6.624 0-8.869-4.434-10.759-8.321-1.7-3.497-3.476-6.404-5.771-6.404a2.98 2.98 0 0 0-2.1 1.038c-5.706 5.794-7.619 36.104-19.027 47.689-6.324 6.422-13.205 6.422-17.509 6.422"/><path fill="url(#l)" d="M82.26 126.985c-19.443 0-26.06-24.566-27.543-29.346a133 133 0 0 1-4.976-23.946c-.691-6.546 4.564-11.1 10.332-11.1a9.753 9.753 0 0 1 10.106 8.947 108 108 0 0 0 4.145 20.274c3.277 10.453 6.754 14.473 9.258 14.473 4.044 0 6.51-10.377 8.692-20.257 1.607-7.28 3.344-14.614 6.773-21.13 5.965-11.335 14.981-13.972 22.769-13.972 17.078 0 25.625 19.769 25.625 24.89a10.15 10.15 0 0 1-2.71 7.514 10.15 10.15 0 0 1-7.306 3.229c-6.624 0-8.869-4.434-10.759-8.321-1.7-3.497-3.476-6.404-5.771-6.404a2.98 2.98 0 0 0-2.1 1.038c-5.706 5.794-7.619 36.104-19.027 47.689-6.324 6.422-13.205 6.422-17.509 6.422"/><path fill="url(#m)" d="M82.26 126.985c-19.443 0-26.06-24.566-27.543-29.346a133 133 0 0 1-4.976-23.946c-.691-6.546 4.564-11.1 10.332-11.1a9.753 9.753 0 0 1 10.106 8.947 108 108 0 0 0 4.145 20.274c3.277 10.453 6.754 14.473 9.258 14.473 4.044 0 6.51-10.377 8.692-20.257 1.607-7.28 3.344-14.614 6.773-21.13 5.965-11.335 14.981-13.972 22.769-13.972 17.078 0 25.625 19.769 25.625 24.89a10.15 10.15 0 0 1-2.71 7.514 10.15 10.15 0 0 1-7.306 3.229c-6.624 0-8.869-4.434-10.759-8.321-1.7-3.497-3.476-6.404-5.771-6.404a2.98 2.98 0 0 0-2.1 1.038c-5.706 5.794-7.619 36.104-19.027 47.689-6.324 6.422-13.205 6.422-17.509 6.422"/><path fill="url(#n)" d="M82.26 126.985c-19.443 0-26.06-24.566-27.543-29.346a133 133 0 0 1-4.976-23.946c-.691-6.546 4.564-11.1 10.332-11.1a9.753 9.753 0 0 1 10.106 8.947 108 108 0 0 0 4.145 20.274c3.277 10.453 6.754 14.473 9.258 14.473 4.044 0 6.51-10.377 8.692-20.257 1.607-7.28 3.344-14.614 6.773-21.13 5.965-11.335 14.981-13.972 22.769-13.972 17.078 0 25.625 19.769 25.625 24.89a10.15 10.15 0 0 1-2.71 7.514 10.15 10.15 0 0 1-7.306 3.229c-6.624 0-8.869-4.434-10.759-8.321-1.7-3.497-3.476-6.404-5.771-6.404a2.98 2.98 0 0 0-2.1 1.038c-5.706 5.794-7.619 36.104-19.027 47.689-6.324 6.422-13.205 6.422-17.509 6.422"/><path fill="url(#o)" d="M82.26 126.985c-19.443 0-26.06-24.566-27.543-29.346a133 133 0 0 1-4.976-23.946c-.691-6.546 4.564-11.1 10.332-11.1a9.753 9.753 0 0 1 10.106 8.947 108 108 0 0 0 4.145 20.274c3.277 10.453 6.754 14.473 9.258 14.473 4.044 0 6.51-10.377 8.692-20.257 1.607-7.28 3.344-14.614 6.773-21.13 5.965-11.335 14.981-13.972 22.769-13.972 17.078 0 25.625 19.769 25.625 24.89a10.15 10.15 0 0 1-2.71 7.514 10.15 10.15 0 0 1-7.306 3.229c-6.624 0-8.869-4.434-10.759-8.321-1.7-3.497-3.476-6.404-5.771-6.404a2.98 2.98 0 0 0-2.1 1.038c-5.706 5.794-7.619 36.104-19.027 47.689-6.324 6.422-13.205 6.422-17.509 6.422"/><path fill="#EFEFEF" d="M144.29 62.593c-.773-.001-1.544.073-2.303.221 3.61 5.201 5.416 10.65 5.416 13.004a10.32 10.32 0 0 1-5.038 9.3c-1.601.951-4.373 1.412-5.258 1.412s-3.763-.537-5.36-1.496v.22c-.425 1.698-.761 3.557-1.343 5.367a71 71 0 0 1-4.237 10.527c-1.736 3.315-3.454 5.255-5.503 5.153-2.33-.115-4.218-3.116-6.566-11.595-.757-2.734-1.458-5.732-2.108-8.675-1.611-7.301-3.59-14.643-6.972-21.13a24.86 24.86 0 0 0-22.472-13.973c-6.977 0-12.19 3.3-16.284 7.459a33.4 33.4 0 0 0-3.61 4.517 9.51 9.51 0 0 1 7.489 8.636 109 109 0 0 0 3.355 17.613 90 90 0 0 1 4.2-10.913 19.4 19.4 0 0 1 3.24-5.056 3.5 3.5 0 0 1 2.416-1.279c.779 0 3.438.713 6.027 9.79 3.211 11.257 5.601 29.171 14.705 38.683 4.016 4.195 9.635 6.91 17.423 6.91a22.96 22.96 0 0 0 16.594-7.19c6.679-6.878 10.338-18.25 11.644-22.459a129 129 0 0 0 4.876-23.945c.691-6.546-4.828-11.102-10.331-11.102"/><path fill="url(#p)" d="M144.29 62.593c-.773-.001-1.544.073-2.303.221 3.61 5.201 5.416 10.65 5.416 13.004a10.32 10.32 0 0 1-5.038 9.3c-1.601.951-4.373 1.412-5.258 1.412s-3.763-.537-5.36-1.496v.22c-.425 1.698-.761 3.557-1.343 5.367a71 71 0 0 1-4.237 10.527c-1.736 3.315-3.454 5.255-5.503 5.153-2.33-.115-4.218-3.116-6.566-11.595-.757-2.734-1.458-5.732-2.108-8.675-1.611-7.301-3.59-14.643-6.972-21.13a24.86 24.86 0 0 0-22.472-13.973c-6.977 0-12.19 3.3-16.284 7.459a33.4 33.4 0 0 0-3.61 4.517 9.51 9.51 0 0 1 7.489 8.636 109 109 0 0 0 3.355 17.613 90 90 0 0 1 4.2-10.913 19.4 19.4 0 0 1 3.24-5.056 3.5 3.5 0 0 1 2.416-1.279c.779 0 3.438.713 6.027 9.79 3.211 11.257 5.601 29.171 14.705 38.683 4.016 4.195 9.635 6.91 17.423 6.91a22.96 22.96 0 0 0 16.594-7.19c6.679-6.878 10.338-18.25 11.644-22.459a129 129 0 0 0 4.876-23.945c.691-6.546-4.828-11.102-10.331-11.102"/><path fill="url(#q)" d="M144.29 62.593c-.773-.001-1.544.073-2.303.221 3.61 5.201 5.416 10.65 5.416 13.004a10.32 10.32 0 0 1-5.038 9.3c-1.601.951-4.373 1.412-5.258 1.412s-3.763-.537-5.36-1.496v.22c-.425 1.698-.761 3.557-1.343 5.367a71 71 0 0 1-4.237 10.527c-1.736 3.315-3.454 5.255-5.503 5.153-2.33-.115-4.218-3.116-6.566-11.595-.757-2.734-1.458-5.732-2.108-8.675-1.611-7.301-3.59-14.643-6.972-21.13a24.86 24.86 0 0 0-22.472-13.973c-6.977 0-12.19 3.3-16.284 7.459a33.4 33.4 0 0 0-3.61 4.517 9.51 9.51 0 0 1 7.489 8.636 109 109 0 0 0 3.355 17.613 90 90 0 0 1 4.2-10.913 19.4 19.4 0 0 1 3.24-5.056 3.5 3.5 0 0 1 2.416-1.279c.779 0 3.438.713 6.027 9.79 3.211 11.257 5.601 29.171 14.705 38.683 4.016 4.195 9.635 6.91 17.423 6.91a22.96 22.96 0 0 0 16.594-7.19c6.679-6.878 10.338-18.25 11.644-22.459a129 129 0 0 0 4.876-23.945c.691-6.546-4.828-11.102-10.331-11.102"/><path fill="url(#r)" d="M144.29 62.593c-.773-.001-1.544.073-2.303.221 3.61 5.201 5.416 10.65 5.416 13.004a10.32 10.32 0 0 1-5.038 9.3c-1.601.951-4.373 1.412-5.258 1.412s-3.763-.537-5.36-1.496v.22c-.425 1.698-.761 3.557-1.343 5.367a71 71 0 0 1-4.237 10.527c-1.736 3.315-3.454 5.255-5.503 5.153-2.33-.115-4.218-3.116-6.566-11.595-.757-2.734-1.458-5.732-2.108-8.675-1.611-7.301-3.59-14.643-6.972-21.13a24.86 24.86 0 0 0-22.472-13.973c-6.977 0-12.19 3.3-16.284 7.459a33.4 33.4 0 0 0-3.61 4.517 9.51 9.51 0 0 1 7.489 8.636 109 109 0 0 0 3.355 17.613 90 90 0 0 1 4.2-10.913 19.4 19.4 0 0 1 3.24-5.056 3.5 3.5 0 0 1 2.416-1.279c.779 0 3.438.713 6.027 9.79 3.211 11.257 5.601 29.171 14.705 38.683 4.016 4.195 9.635 6.91 17.423 6.91a22.96 22.96 0 0 0 16.594-7.19c6.679-6.878 10.338-18.25 11.644-22.459a129 129 0 0 0 4.876-23.945c.691-6.546-4.828-11.102-10.331-11.102"/><path fill="url(#s)" d="M144.29 62.593c-.773-.001-1.544.073-2.303.221 3.61 5.201 5.416 10.65 5.416 13.004a10.32 10.32 0 0 1-5.038 9.3c-1.601.951-4.373 1.412-5.258 1.412s-3.763-.537-5.36-1.496v.22c-.425 1.698-.761 3.557-1.343 5.367a71 71 0 0 1-4.237 10.527c-1.736 3.315-3.454 5.255-5.503 5.153-2.33-.115-4.218-3.116-6.566-11.595-.757-2.734-1.458-5.732-2.108-8.675-1.611-7.301-3.59-14.643-6.972-21.13a24.86 24.86 0 0 0-22.472-13.973c-6.977 0-12.19 3.3-16.284 7.459a33.4 33.4 0 0 0-3.61 4.517 9.51 9.51 0 0 1 7.489 8.636 109 109 0 0 0 3.355 17.613 90 90 0 0 1 4.2-10.913 19.4 19.4 0 0 1 3.24-5.056 3.5 3.5 0 0 1 2.416-1.279c.779 0 3.438.713 6.027 9.79 3.211 11.257 5.601 29.171 14.705 38.683 4.016 4.195 9.635 6.91 17.423 6.91a22.96 22.96 0 0 0 16.594-7.19c6.679-6.878 10.338-18.25 11.644-22.459a129 129 0 0 0 4.876-23.945c.691-6.546-4.828-11.102-10.331-11.102"/><path fill="url(#t)" d="M144.29 62.593c-.773-.001-1.544.073-2.303.221 3.61 5.201 5.416 10.65 5.416 13.004a10.32 10.32 0 0 1-5.038 9.3c-1.601.951-4.373 1.412-5.258 1.412s-3.763-.537-5.36-1.496v.22c-.425 1.698-.761 3.557-1.343 5.367a71 71 0 0 1-4.237 10.527c-1.736 3.315-3.454 5.255-5.503 5.153-2.33-.115-4.218-3.116-6.566-11.595-.757-2.734-1.458-5.732-2.108-8.675-1.611-7.301-3.59-14.643-6.972-21.13a24.86 24.86 0 0 0-22.472-13.973c-6.977 0-12.19 3.3-16.284 7.459a33.4 33.4 0 0 0-3.61 4.517 9.51 9.51 0 0 1 7.489 8.636 109 109 0 0 0 3.355 17.613 90 90 0 0 1 4.2-10.913 19.4 19.4 0 0 1 3.24-5.056 3.5 3.5 0 0 1 2.416-1.279c.779 0 3.438.713 6.027 9.79 3.211 11.257 5.601 29.171 14.705 38.683 4.016 4.195 9.635 6.91 17.423 6.91a22.96 22.96 0 0 0 16.594-7.19c6.679-6.878 10.338-18.25 11.644-22.459a129 129 0 0 0 4.876-23.945c.691-6.546-4.828-11.102-10.331-11.102"/><path fill="url(#u)" d="M144.29 62.593c-.773-.001-1.544.073-2.303.221 3.61 5.201 5.416 10.65 5.416 13.004a10.32 10.32 0 0 1-5.038 9.3c-1.601.951-4.373 1.412-5.258 1.412s-3.763-.537-5.36-1.496v.22c-.425 1.698-.761 3.557-1.343 5.367a71 71 0 0 1-4.237 10.527c-1.736 3.315-3.454 5.255-5.503 5.153-2.33-.115-4.218-3.116-6.566-11.595-.757-2.734-1.458-5.732-2.108-8.675-1.611-7.301-3.59-14.643-6.972-21.13a24.86 24.86 0 0 0-22.472-13.973c-6.977 0-12.19 3.3-16.284 7.459a33.4 33.4 0 0 0-3.61 4.517 9.51 9.51 0 0 1 7.489 8.636 109 109 0 0 0 3.355 17.613 90 90 0 0 1 4.2-10.913 19.4 19.4 0 0 1 3.24-5.056 3.5 3.5 0 0 1 2.416-1.279c.779 0 3.438.713 6.027 9.79 3.211 11.257 5.601 29.171 14.705 38.683 4.016 4.195 9.635 6.91 17.423 6.91a22.96 22.96 0 0 0 16.594-7.19c6.679-6.878 10.338-18.25 11.644-22.459a129 129 0 0 0 4.876-23.945c.691-6.546-4.828-11.102-10.331-11.102"/><path fill="url(#v)" d="M144.29 62.593c-.773-.001-1.544.073-2.303.221 3.61 5.201 5.416 10.65 5.416 13.004a10.32 10.32 0 0 1-5.038 9.3c-1.601.951-4.373 1.412-5.258 1.412s-3.763-.537-5.36-1.496v.22c-.425 1.698-.761 3.557-1.343 5.367a71 71 0 0 1-4.237 10.527c-1.736 3.315-3.454 5.255-5.503 5.153-2.33-.115-4.218-3.116-6.566-11.595-.757-2.734-1.458-5.732-2.108-8.675-1.611-7.301-3.59-14.643-6.972-21.13a24.86 24.86 0 0 0-22.472-13.973c-6.977 0-12.19 3.3-16.284 7.459a33.4 33.4 0 0 0-3.61 4.517 9.51 9.51 0 0 1 7.489 8.636 109 109 0 0 0 3.355 17.613 90 90 0 0 1 4.2-10.913 19.4 19.4 0 0 1 3.24-5.056 3.5 3.5 0 0 1 2.416-1.279c.779 0 3.438.713 6.027 9.79 3.211 11.257 5.601 29.171 14.705 38.683 4.016 4.195 9.635 6.91 17.423 6.91a22.96 22.96 0 0 0 16.594-7.19c6.679-6.878 10.338-18.25 11.644-22.459a129 129 0 0 0 4.876-23.945c.691-6.546-4.828-11.102-10.331-11.102"/><path fill="url(#w)" d="M144.29 62.593c-.773-.001-1.544.073-2.303.221 3.61 5.201 5.416 10.65 5.416 13.004a10.32 10.32 0 0 1-5.038 9.3c-1.601.951-4.373 1.412-5.258 1.412s-3.763-.537-5.36-1.496v.22c-.425 1.698-.761 3.557-1.343 5.367a71 71 0 0 1-4.237 10.527c-1.736 3.315-3.454 5.255-5.503 5.153-2.33-.115-4.218-3.116-6.566-11.595-.757-2.734-1.458-5.732-2.108-8.675-1.611-7.301-3.59-14.643-6.972-21.13a24.86 24.86 0 0 0-22.472-13.973c-6.977 0-12.19 3.3-16.284 7.459a33.4 33.4 0 0 0-3.61 4.517 9.51 9.51 0 0 1 7.489 8.636 109 109 0 0 0 3.355 17.613 90 90 0 0 1 4.2-10.913 19.4 19.4 0 0 1 3.24-5.056 3.5 3.5 0 0 1 2.416-1.279c.779 0 3.438.713 6.027 9.79 3.211 11.257 5.601 29.171 14.705 38.683 4.016 4.195 9.635 6.91 17.423 6.91a22.96 22.96 0 0 0 16.594-7.19c6.679-6.878 10.338-18.25 11.644-22.459a129 129 0 0 0 4.876-23.945c.691-6.546-4.828-11.102-10.331-11.102"/><path fill="url(#x)" d="M144.29 62.593c-.773-.001-1.544.073-2.303.221 3.61 5.201 5.416 10.65 5.416 13.004a10.32 10.32 0 0 1-5.038 9.3c-1.601.951-4.373 1.412-5.258 1.412s-3.763-.537-5.36-1.496v.22c-.425 1.698-.761 3.557-1.343 5.367a71 71 0 0 1-4.237 10.527c-1.736 3.315-3.454 5.255-5.503 5.153-2.33-.115-4.218-3.116-6.566-11.595-.757-2.734-1.458-5.732-2.108-8.675-1.611-7.301-3.59-14.643-6.972-21.13a24.86 24.86 0 0 0-22.472-13.973c-6.977 0-12.19 3.3-16.284 7.459a33.4 33.4 0 0 0-3.61 4.517 9.51 9.51 0 0 1 7.489 8.636 109 109 0 0 0 3.355 17.613 90 90 0 0 1 4.2-10.913 19.4 19.4 0 0 1 3.24-5.056 3.5 3.5 0 0 1 2.416-1.279c.779 0 3.438.713 6.027 9.79 3.211 11.257 5.601 29.171 14.705 38.683 4.016 4.195 9.635 6.91 17.423 6.91a22.96 22.96 0 0 0 16.594-7.19c6.679-6.878 10.338-18.25 11.644-22.459a129 129 0 0 0 4.876-23.945c.691-6.546-4.828-11.102-10.331-11.102"/><path fill="url(#y)" d="M144.29 62.593c-.773-.001-1.544.073-2.303.221 3.61 5.201 5.416 10.65 5.416 13.004a10.32 10.32 0 0 1-5.038 9.3c-1.601.951-4.373 1.412-5.258 1.412s-3.763-.537-5.36-1.496v.22c-.425 1.698-.761 3.557-1.343 5.367a71 71 0 0 1-4.237 10.527c-1.736 3.315-3.454 5.255-5.503 5.153-2.33-.115-4.218-3.116-6.566-11.595-.757-2.734-1.458-5.732-2.108-8.675-1.611-7.301-3.59-14.643-6.972-21.13a24.86 24.86 0 0 0-22.472-13.973c-6.977 0-12.19 3.3-16.284 7.459a33.4 33.4 0 0 0-3.61 4.517 9.51 9.51 0 0 1 7.489 8.636 109 109 0 0 0 3.355 17.613 90 90 0 0 1 4.2-10.913 19.4 19.4 0 0 1 3.24-5.056 3.5 3.5 0 0 1 2.416-1.279c.779 0 3.438.713 6.027 9.79 3.211 11.257 5.601 29.171 14.705 38.683 4.016 4.195 9.635 6.91 17.423 6.91a22.96 22.96 0 0 0 16.594-7.19c6.679-6.878 10.338-18.25 11.644-22.459a129 129 0 0 0 4.876-23.945c.691-6.546-4.828-11.102-10.331-11.102"/><path fill="url(#z)" d="M144.29 62.593c-.773-.001-1.544.073-2.303.221 3.61 5.201 5.416 10.65 5.416 13.004a10.32 10.32 0 0 1-5.038 9.3c-1.601.951-4.373 1.412-5.258 1.412s-3.763-.537-5.36-1.496v.22c-.425 1.698-.761 3.557-1.343 5.367a71 71 0 0 1-4.237 10.527c-1.736 3.315-3.454 5.255-5.503 5.153-2.33-.115-4.218-3.116-6.566-11.595-.757-2.734-1.458-5.732-2.108-8.675-1.611-7.301-3.59-14.643-6.972-21.13a24.86 24.86 0 0 0-22.472-13.973c-6.977 0-12.19 3.3-16.284 7.459a33.4 33.4 0 0 0-3.61 4.517 9.51 9.51 0 0 1 7.489 8.636 109 109 0 0 0 3.355 17.613 90 90 0 0 1 4.2-10.913 19.4 19.4 0 0 1 3.24-5.056 3.5 3.5 0 0 1 2.416-1.279c.779 0 3.438.713 6.027 9.79 3.211 11.257 5.601 29.171 14.705 38.683 4.016 4.195 9.635 6.91 17.423 6.91a22.96 22.96 0 0 0 16.594-7.19c6.679-6.878 10.338-18.25 11.644-22.459a129 129 0 0 0 4.876-23.945c.691-6.546-4.828-11.102-10.331-11.102"/><path fill="url(#A)" d="M144.29 62.593c-.773-.001-1.544.073-2.303.221 3.61 5.201 5.416 10.65 5.416 13.004a10.32 10.32 0 0 1-5.038 9.3c-1.601.951-4.373 1.412-5.258 1.412s-3.763-.537-5.36-1.496v.22c-.425 1.698-.761 3.557-1.343 5.367a71 71 0 0 1-4.237 10.527c-1.736 3.315-3.454 5.255-5.503 5.153-2.33-.115-4.218-3.116-6.566-11.595-.757-2.734-1.458-5.732-2.108-8.675-1.611-7.301-3.59-14.643-6.972-21.13a24.86 24.86 0 0 0-22.472-13.973c-6.977 0-12.19 3.3-16.284 7.459a33.4 33.4 0 0 0-3.61 4.517 9.51 9.51 0 0 1 7.489 8.636 109 109 0 0 0 3.355 17.613 90 90 0 0 1 4.2-10.913 19.4 19.4 0 0 1 3.24-5.056 3.5 3.5 0 0 1 2.416-1.279c.779 0 3.438.713 6.027 9.79 3.211 11.257 5.601 29.171 14.705 38.683 4.016 4.195 9.635 6.91 17.423 6.91a22.96 22.96 0 0 0 16.594-7.19c6.679-6.878 10.338-18.25 11.644-22.459a129 129 0 0 0 4.876-23.945c.691-6.546-4.828-11.102-10.331-11.102"/><path fill="url(#B)" d="M144.29 62.593c-.773-.001-1.544.073-2.303.221 3.61 5.201 5.416 10.65 5.416 13.004a10.32 10.32 0 0 1-5.038 9.3c-1.601.951-4.373 1.412-5.258 1.412s-3.763-.537-5.36-1.496v.22c-.425 1.698-.761 3.557-1.343 5.367a71 71 0 0 1-4.237 10.527c-1.736 3.315-3.454 5.255-5.503 5.153-2.33-.115-4.218-3.116-6.566-11.595-.757-2.734-1.458-5.732-2.108-8.675-1.611-7.301-3.59-14.643-6.972-21.13a24.86 24.86 0 0 0-22.472-13.973c-6.977 0-12.19 3.3-16.284 7.459a33.4 33.4 0 0 0-3.61 4.517 9.51 9.51 0 0 1 7.489 8.636 109 109 0 0 0 3.355 17.613 90 90 0 0 1 4.2-10.913 19.4 19.4 0 0 1 3.24-5.056 3.5 3.5 0 0 1 2.416-1.279c.779 0 3.438.713 6.027 9.79 3.211 11.257 5.601 29.171 14.705 38.683 4.016 4.195 9.635 6.91 17.423 6.91a22.96 22.96 0 0 0 16.594-7.19c6.679-6.878 10.338-18.25 11.644-22.459a129 129 0 0 0 4.876-23.945c.691-6.546-4.828-11.102-10.331-11.102"/><path fill="url(#C)" d="M82.26 126.985c-19.443 0-26.06-24.566-27.543-29.346a133 133 0 0 1-4.976-23.946c-.691-6.546 4.564-11.1 10.332-11.1a9.753 9.753 0 0 1 10.106 8.947 108 108 0 0 0 4.145 20.274c3.277 10.453 6.754 14.473 9.258 14.473 4.044 0 6.51-10.377 8.692-20.257 1.607-7.28 3.344-14.614 6.773-21.13 5.965-11.335 14.981-13.972 22.769-13.972 17.078 0 25.625 19.769 25.625 24.89a10.15 10.15 0 0 1-2.71 7.514 10.15 10.15 0 0 1-7.306 3.229c-6.624 0-8.869-4.434-10.759-8.321-1.7-3.497-3.476-6.404-5.771-6.404a2.98 2.98 0 0 0-2.1 1.038c-5.706 5.794-7.619 36.104-19.027 47.689-6.324 6.422-13.205 6.422-17.509 6.422"/><path fill="url(#D)" d="M82.26 126.985c-19.443 0-26.06-24.566-27.543-29.346a133 133 0 0 1-4.976-23.946c-.691-6.546 4.564-11.1 10.332-11.1a9.753 9.753 0 0 1 10.106 8.947 108 108 0 0 0 4.145 20.274c3.277 10.453 6.754 14.473 9.258 14.473 4.044 0 6.51-10.377 8.692-20.257 1.607-7.28 3.344-14.614 6.773-21.13 5.965-11.335 14.981-13.972 22.769-13.972 17.078 0 25.625 19.769 25.625 24.89a10.15 10.15 0 0 1-2.71 7.514 10.15 10.15 0 0 1-7.306 3.229c-6.624 0-8.869-4.434-10.759-8.321-1.7-3.497-3.476-6.404-5.771-6.404a2.98 2.98 0 0 0-2.1 1.038c-5.706 5.794-7.619 36.104-19.027 47.689-6.324 6.422-13.205 6.422-17.509 6.422"/><path fill="url(#E)" d="M82.26 126.985c-19.443 0-26.06-24.566-27.543-29.346a133 133 0 0 1-4.976-23.946c-.691-6.546 4.564-11.1 10.332-11.1a9.753 9.753 0 0 1 10.106 8.947 108 108 0 0 0 4.145 20.274c3.277 10.453 6.754 14.473 9.258 14.473 4.044 0 6.51-10.377 8.692-20.257 1.607-7.28 3.344-14.614 6.773-21.13 5.965-11.335 14.981-13.972 22.769-13.972 17.078 0 25.625 19.769 25.625 24.89a10.15 10.15 0 0 1-2.71 7.514 10.15 10.15 0 0 1-7.306 3.229c-6.624 0-8.869-4.434-10.759-8.321-1.7-3.497-3.476-6.404-5.771-6.404a2.98 2.98 0 0 0-2.1 1.038c-5.706 5.794-7.619 36.104-19.027 47.689-6.324 6.422-13.205 6.422-17.509 6.422"/><path fill="url(#F)" d="M82.26 126.985c-19.443 0-26.06-24.566-27.543-29.346a133 133 0 0 1-4.976-23.946c-.691-6.546 4.564-11.1 10.332-11.1a9.753 9.753 0 0 1 10.106 8.947 108 108 0 0 0 4.145 20.274c3.277 10.453 6.754 14.473 9.258 14.473 4.044 0 6.51-10.377 8.692-20.257 1.607-7.28 3.344-14.614 6.773-21.13 5.965-11.335 14.981-13.972 22.769-13.972 17.078 0 25.625 19.769 25.625 24.89a10.15 10.15 0 0 1-2.71 7.514 10.15 10.15 0 0 1-7.306 3.229c-6.624 0-8.869-4.434-10.759-8.321-1.7-3.497-3.476-6.404-5.771-6.404a2.98 2.98 0 0 0-2.1 1.038c-5.706 5.794-7.619 36.104-19.027 47.689-6.324 6.422-13.205 6.422-17.509 6.422"/><defs><radialGradient id="b" cx="0" cy="0" r="1" gradientTransform="matrix(-23.07988 -38.58965 32.40937 -19.38355 89.641 91.479)" gradientUnits="userSpaceOnUse"><stop stop-color="#B7B7B7"/><stop offset=".408" stop-color="#B5B5B5" stop-opacity=".75"/><stop offset=".875" stop-color="#B6B6B6" stop-opacity="0"/></radialGradient><radialGradient id="c" cx="0" cy="0" r="1" gradientTransform="matrix(-21.9474 -29.3815 19.31003 -14.42421 119.216 83.126)" gradientUnits="userSpaceOnUse"><stop stop-color="#CACACA"/><stop offset=".46" stop-color="#C7C7C7"/><stop offset="1" stop-color="#ACACAC" stop-opacity="0"/></radialGradient><radialGradient id="d" cx="0" cy="0" r="1" gradientTransform="rotate(-107.483 77.863 14.868)scale(29.8616 15.5684)" gradientUnits="userSpaceOnUse"><stop stop-color="#CDCDCD"/><stop offset=".408" stop-color="#C8C8C8" stop-opacity=".79"/><stop offset=".875" stop-color="#B6B6B6" stop-opacity="0"/></radialGradient><radialGradient id="e" cx="0" cy="0" r="1" gradientTransform="matrix(-33.00437 -72.1011 22.25026 -10.18509 94.424 100.442)" gradientUnits="userSpaceOnUse"><stop stop-color="#A2A2A2" stop-opacity=".78"/><stop offset="1" stop-color="#A2A2A2" stop-opacity="0"/></radialGradient><radialGradient id="f" cx="0" cy="0" r="1" gradientTransform="rotate(80.212 10.215 102.956)scale(37.5533 21.3184)" gradientUnits="userSpaceOnUse"><stop stop-color="#AEAEAE"/><stop offset=".233" stop-color="#AEAEAE" stop-opacity=".75"/><stop offset=".599" stop-color="#AEAEAE" stop-opacity=".301"/><stop offset=".875" stop-color="#AEAEAE" stop-opacity="0"/></radialGradient><radialGradient id="g" cx="0" cy="0" r="1" gradientTransform="matrix(18.26242 28.17967 -14.78556 9.58209 115.135 37.782)" gradientUnits="userSpaceOnUse"><stop stop-color="#E1E1E1"/><stop offset=".408" stop-color="#E7E7E7"/><stop offset="1" stop-color="#E7E7E7" stop-opacity=".07"/></radialGradient><radialGradient id="i" cx="0" cy="0" r="1" gradientTransform="rotate(47.986 9.54 89.244)scale(88.9632 88.8314)" gradientUnits="userSpaceOnUse"><stop stop-color="#F5F5F5"/><stop offset=".745" stop-color="#F4F4F4" stop-opacity="0"/></radialGradient><radialGradient id="j" cx="0" cy="0" r="1" gradientTransform="rotate(-107.483 69.753 17.362)scale(42.8677 29.7243)" gradientUnits="userSpaceOnUse"><stop stop-color="#F5F5F5" stop-opacity=".76"/><stop offset=".573" stop-color="#F4F4F4" stop-opacity="0"/></radialGradient><radialGradient id="k" cx="0" cy="0" r="1" gradientTransform="rotate(-129.576 86.835 3.596)scale(30.322 21.2319)" gradientUnits="userSpaceOnUse"><stop stop-color="#fff"/><stop offset="1" stop-color="#F4F4F4" stop-opacity="0"/></radialGradient><radialGradient id="l" cx="0" cy="0" r="1" gradientTransform="matrix(1.73764 -9.0108 6.2375 1.20284 135.05 92.365)" gradientUnits="userSpaceOnUse"><stop stop-color="#CDCDCD"/><stop offset="1" stop-color="#BCBCBC" stop-opacity="0"/></radialGradient><radialGradient id="m" cx="0" cy="0" r="1" gradientTransform="matrix(130.2797 -606.11068 659.46705 141.74832 -189521 62550.6)" gradientUnits="userSpaceOnUse"><stop stop-color="#CDCDCD"/><stop offset="1" stop-color="#BCBCBC" stop-opacity="0"/></radialGradient><radialGradient id="n" cx="0" cy="0" r="1" gradientTransform="matrix(-17.06272 -18.41574 12.93825 -11.98767 143.614 78.075)" gradientUnits="userSpaceOnUse"><stop stop-color="#fff"/><stop offset=".813" stop-color="#fff" stop-opacity="0"/></radialGradient><radialGradient id="p" cx="0" cy="0" r="1" gradientTransform="rotate(37.431 -57.93 242.995)scale(22.3303 31.0315)" gradientUnits="userSpaceOnUse"><stop stop-color="#D2D2D2"/><stop offset=".966" stop-color="#D2D2D2" stop-opacity="0"/></radialGradient><radialGradient id="q" cx="0" cy="0" r="1" gradientTransform="rotate(8.478 -527.059 922.217)scale(26.356 39.3065)" gradientUnits="userSpaceOnUse"><stop stop-color="#D2D2D2"/><stop offset=".593" stop-color="#D2D2D2" stop-opacity="0"/></radialGradient><radialGradient id="r" cx="0" cy="0" r="1" gradientTransform="rotate(24.644 -142.26 348.467)scale(22.5105 40.0881)" gradientUnits="userSpaceOnUse"><stop stop-color="#D2D2D2"/><stop offset=".757" stop-color="#D2D2D2" stop-opacity="0"/></radialGradient><radialGradient id="s" cx="0" cy="0" r="1" gradientTransform="matrix(36.98897 -38.17992 30.68422 29.72708 131.415 83.142)" gradientUnits="userSpaceOnUse"><stop offset=".065" stop-color="#4F4F4F"/><stop offset=".519" stop-color="#D5D5D5" stop-opacity="0"/></radialGradient><radialGradient id="t" cx="0" cy="0" r="1" gradientTransform="matrix(-4.09205 40.22962 -22.06544 -2.24444 129.715 92.379)" gradientUnits="userSpaceOnUse"><stop stop-color="#D2D2D2"/><stop offset=".593" stop-color="#D2D2D2" stop-opacity="0"/><stop offset="1" stop-color="#D2D2D2" stop-opacity="0"/></radialGradient><radialGradient id="u" cx="0" cy="0" r="1" gradientTransform="matrix(-3.11526 48.56469 -17.34695 -1.11275 135.754 74.55)" gradientUnits="userSpaceOnUse"><stop stop-color="#D2D2D2"/><stop offset=".885" stop-color="#D2D2D2" stop-opacity="0"/></radialGradient><radialGradient id="v" cx="0" cy="0" r="1" gradientTransform="rotate(-68.05 100.476 2.05)scale(43.0933 17.1623)" gradientUnits="userSpaceOnUse"><stop stop-color="#B3B3B3"/><stop offset="1" stop-color="#B0B0B0" stop-opacity="0"/></radialGradient><radialGradient id="w" cx="0" cy="0" r="1" gradientTransform="rotate(-22.196 323.07 -170.79)scale(27.9426 54.5843)" gradientUnits="userSpaceOnUse"><stop stop-color="#F7F7F7"/><stop offset=".709" stop-color="#F9F9F9" stop-opacity="0"/></radialGradient><radialGradient id="x" cx="0" cy="0" r="1" gradientTransform="rotate(-22.196 323.07 -170.79)scale(27.9426 54.5843)" gradientUnits="userSpaceOnUse"><stop stop-color="#F7F7F7"/><stop offset=".709" stop-color="#F9F9F9" stop-opacity="0"/></radialGradient><radialGradient id="y" cx="0" cy="0" r="1" gradientTransform="matrix(32.81276 14.91402 -15.04457 33.09998 69.369 76.58)" gradientUnits="userSpaceOnUse"><stop stop-color="#ADADAD"/><stop offset=".761" stop-color="#D2D2D2" stop-opacity="0"/></radialGradient><radialGradient id="z" cx="0" cy="0" r="1" gradientTransform="matrix(13.72164 -.59656 .86508 19.898 79.51 73.597)" gradientUnits="userSpaceOnUse"><stop stop-color="#ADADAD"/><stop offset=".761" stop-color="#D2D2D2" stop-opacity="0"/></radialGradient><radialGradient id="A" cx="0" cy="0" r="1" gradientTransform="matrix(12.52852 -3.57937 7.51178 26.2928 83.687 86.721)" gradientUnits="userSpaceOnUse"><stop stop-color="#B1B1B1"/><stop offset="1" stop-color="#D2D2D2" stop-opacity="0"/></radialGradient><radialGradient id="B" cx="0" cy="0" r="1" gradientTransform="rotate(-51.58 112.753 -29.487)scale(22.0813 20.7511)" gradientUnits="userSpaceOnUse"><stop stop-color="#807F7F"/><stop offset="1" stop-color="#D2D2D2" stop-opacity="0"/></radialGradient><radialGradient id="F" cx="0" cy="0" r="1" gradientTransform="matrix(-17.89777 1.19316 -3.6072 -54.1092 69.964 76.58)" gradientUnits="userSpaceOnUse"><stop stop-color="#D1D1D1"/><stop offset=".58" stop-color="#D1D1D1" stop-opacity="0"/></radialGradient><linearGradient id="a" x1="136.994" x2="68.323" y1="73.826" y2="96.367" gradientUnits="userSpaceOnUse"><stop stop-color="#fff"/><stop offset="1" stop-color="#F5F5F5"/></linearGradient><linearGradient id="h" x1="23.845" x2="72.519" y1="88.313" y2="88.713" gradientUnits="userSpaceOnUse"><stop stop-color="#FAFAFA"/><stop offset="1" stop-color="#F8F8F8" stop-opacity="0"/></linearGradient><linearGradient id="o" x1="90.845" x2="77.721" y1="149.36" y2="112.969" gradientUnits="userSpaceOnUse"><stop offset=".229" stop-color="#fff"/><stop offset="1" stop-color="#fff" stop-opacity="0"/></linearGradient><linearGradient id="C" x1="51.528" x2="88.965" y1="56.678" y2="80.594" gradientUnits="userSpaceOnUse"><stop offset=".229" stop-color="#fff"/><stop offset="1" stop-color="#fff" stop-opacity="0"/></linearGradient><linearGradient id="D" x1="59.822" x2="77.718" y1="148.167" y2="112.969" gradientUnits="userSpaceOnUse"><stop offset=".229" stop-color="#fff"/><stop offset="1" stop-color="#fff" stop-opacity="0"/></linearGradient><linearGradient id="E" x1="61.204" x2="71.703" y1="51.837" y2="61.362" gradientUnits="userSpaceOnUse"><stop stop-color="#fff"/><stop offset=".637" stop-color="#F8F8F8" stop-opacity="0"/></linearGradient></defs></svg>