<svg xmlns="http://www.w3.org/2000/svg" width="378" height="24" fill="none" viewBox="0 0 378 24"><path fill="#fff" d="M19.948 6.219h3.137l-4.562 13.789h-3.599l-3.41-10.406-3.409 10.406H4.562L0 6.218h3.211l3.237 10.48 3.396-10.48h3.41l3.452 10.536zM36.542 14.22H26.365a4.4 4.4 0 0 0 .777 1.972c.369.512.868.914 1.446 1.166a4.6 4.6 0 0 0 1.864.375 6 6 0 0 0 2.08-.38 6.8 6.8 0 0 0 1.908-1.074l1.498 2.158a7.6 7.6 0 0 1-2.616 1.489c-.988.31-2.02.463-3.055.453a7.3 7.3 0 0 1-3.656-.898 6.37 6.37 0 0 1-2.499-2.546 7.8 7.8 0 0 1-.897-3.807 8 8 0 0 1 .863-3.78 6.36 6.36 0 0 1 2.425-2.56 6.9 6.9 0 0 1 3.57-.915 6.14 6.14 0 0 1 5.692 3.453 8.26 8.26 0 0 1 .829 3.772q.006.436-.052 1.122m-3.021-2.287a4.26 4.26 0 0 0-1.153-2.52 3.2 3.2 0 0 0-2.347-.864 3.38 3.38 0 0 0-2.469.915 4.38 4.38 0 0 0-1.187 2.482zM49.416 6.797a6.7 6.7 0 0 1 2.49 2.59 7.6 7.6 0 0 1 .915 3.729 7.57 7.57 0 0 1-.915 3.724 6.7 6.7 0 0 1-5.981 3.526 5.6 5.6 0 0 1-2.49-.522 5.1 5.1 0 0 1-1.826-1.476v1.64h-3.021V.35h3.02v7.51a5.2 5.2 0 0 1 1.827-1.468 5.6 5.6 0 0 1 2.49-.527 6.7 6.7 0 0 1 3.491.932m-1.648 10.147a3.9 3.9 0 0 0 1.454-1.601 5.18 5.18 0 0 0 0-4.459 3.9 3.9 0 0 0-1.454-1.6 4.4 4.4 0 0 0-4.368 0c-.627.38-1.136.929-1.467 1.583a4.8 4.8 0 0 0-.527 2.262c-.014.784.167 1.56.527 2.257.331.654.84 1.203 1.467 1.584a4.4 4.4 0 0 0 4.368 0zM67.727 14.22H57.555a4.4 4.4 0 0 0 .777 1.972c.368.512.868.914 1.446 1.166a4.6 4.6 0 0 0 1.864.375 6 6 0 0 0 2.08-.38 6.8 6.8 0 0 0 1.908-1.074l1.493 2.158a7.5 7.5 0 0 1-2.611 1.489c-.99.31-2.023.463-3.06.453a7.34 7.34 0 0 1-3.655-.898 6.4 6.4 0 0 1-2.495-2.546 7.8 7.8 0 0 1-.902-3.807 8 8 0 0 1 .863-3.78 6.36 6.36 0 0 1 2.426-2.56 6.9 6.9 0 0 1 3.595-.927 6.15 6.15 0 0 1 5.692 3.452 8.3 8.3 0 0 1 .829 3.772c-.017.302-.048.678-.078 1.135m-3.02-2.287A4.3 4.3 0 0 0 63.55 9.43a3.22 3.22 0 0 0-2.34-.88 3.37 3.37 0 0 0-2.468.914 4.36 4.36 0 0 0-1.187 2.482zM82.077 20.008H78.38l-3.496-4.795-3.453 4.795h-3.526l5.18-7.04-5.098-6.75h3.703l3.367 4.606 3.366-4.605H82l-5.119 6.724zM98.98 16.26a2.1 2.1 0 0 0-.17-.84 1.56 1.56 0 0 0-.61-.69 6 6 0 0 0-1.31-.64c-.56-.21-1.31-.44-2.23-.69a11.6 11.6 0 0 1-2-.7 4.8 4.8 0 0 1-1.28-.85 2.75 2.75 0 0 1-.68-1.05 3.6 3.6 0 0 1-.2-1.27 3 3 0 0 1 .31-1.38 3.1 3.1 0 0 1 1-1.12 4.5 4.5 0 0 1 1.53-.74 7.4 7.4 0 0 1 2.07-.27 7.7 7.7 0 0 1 2 .26 5.5 5.5 0 0 1 1.64.73 4 4 0 0 1 1.76 2.71h-2a2.13 2.13 0 0 0-1-1.55 4.44 4.44 0 0 0-2.4-.55 5.3 5.3 0 0 0-1.34.14 2.7 2.7 0 0 0-.92.39 1.6 1.6 0 0 0-.53.58 1.65 1.65 0 0 0-.17.72 2 2 0 0 0 .12.72c.114.236.29.437.51.58.333.232.697.417 1.08.55q.922.357 1.88.6 1.21.328 2.36.83c.544.232 1.05.546 1.5.93.349.303.617.688.78 1.12.159.453.237.93.23 1.41a3.5 3.5 0 0 1-.35 1.52c-.239.501-.58.947-1 1.31a5.4 5.4 0 0 1-1.68.9 7.2 7.2 0 0 1-2.27.33 6.8 6.8 0 0 1-2-.3 5.7 5.7 0 0 1-1.8-.82 4.6 4.6 0 0 1-1.2-1.29 4.3 4.3 0 0 1-.61-1.71h2a2.71 2.71 0 0 0 1.08 1.84 3.9 3.9 0 0 0 2.43.68 5.2 5.2 0 0 0 1.5-.19 3 3 0 0 0 1.07-.52c.269-.2.49-.456.65-.75a2.1 2.1 0 0 0 .25-.93M104.25 10.1v6.52a2.11 2.11 0 0 0 .54 1.61c.417.36.959.544 1.51.51.372.01.741-.065 1.08-.22a2.25 2.25 0 0 0 .75-.56 2.6 2.6 0 0 0 .44-.82c.106-.323.16-.66.16-1v-6h1.82V20h-1.5l-.24-1.17a3.4 3.4 0 0 1-1.29 1.07 4 4 0 0 1-1.67.35 4.1 4.1 0 0 1-1.39-.23 2.8 2.8 0 0 1-1.09-.68 3.1 3.1 0 0 1-.72-1.16 4.8 4.8 0 0 1-.25-1.65V10.1zM114.129 10.1l.29 1.29a4.2 4.2 0 0 1 1.39-1.13 4.1 4.1 0 0 1 2-.44 4.5 4.5 0 0 1 1.78.34c.528.225.996.567 1.37 1 .402.474.702 1.026.88 1.62.223.706.331 1.442.32 2.18a7.1 7.1 0 0 1-.33 2.28 4.9 4.9 0 0 1-.93 1.65c-.4.431-.888.772-1.43 1a4.6 4.6 0 0 1-1.79.35 3.83 3.83 0 0 1-1.91-.44 3.7 3.7 0 0 1-1.26-1.12v4.69h-1.82V10.1zm6.07 4.82a5 5 0 0 0-.22-1.58 3.3 3.3 0 0 0-.6-1.11 2.5 2.5 0 0 0-.91-.65 3 3 0 0 0-1.13-.21c-.394.001-.785.08-1.15.23a2.7 2.7 0 0 0-.95.66c-.29.32-.509.7-.64 1.11a4.7 4.7 0 0 0-.24 1.55 4.3 4.3 0 0 0 .81 2.79 2.7 2.7 0 0 0 2.17 1 2.58 2.58 0 0 0 2.07-.91 4.27 4.27 0 0 0 .79-2.88M125.109 10.1l.29 1.29a4.3 4.3 0 0 1 1.41-1.13 4.13 4.13 0 0 1 2-.44 4.5 4.5 0 0 1 1.77.34c.531.22 1 .563 1.37 1a4.7 4.7 0 0 1 .89 1.62c.22.706.324 1.442.31 2.18a7.1 7.1 0 0 1-.33 2.28 4.6 4.6 0 0 1-.93 1.65 4.1 4.1 0 0 1-1.42 1 4.6 4.6 0 0 1-1.8.35 3.85 3.85 0 0 1-1.91-.44 3.6 3.6 0 0 1-1.25-1.12v4.69h-1.9V10.1zm6.07 4.82a5.3 5.3 0 0 0-.21-1.58 3.3 3.3 0 0 0-.61-1.11 2.4 2.4 0 0 0-.91-.65 3 3 0 0 0-1.13-.21c-.394.001-.785.08-1.15.23-.378.143-.72.369-1 .66-.287.323-.505.7-.64 1.11a4.7 4.7 0 0 0-.24 1.55 4.24 4.24 0 0 0 .82 2.79 2.68 2.68 0 0 0 2.16 1 2.6 2.6 0 0 0 2.08-.91c.611-.83.905-1.851.83-2.88M134.029 15.03a6.3 6.3 0 0 1 .39-2.31 4.6 4.6 0 0 1 1-1.63 4.2 4.2 0 0 1 1.55-1 5.5 5.5 0 0 1 1.88-.31 5.7 5.7 0 0 1 1.9.31 4.2 4.2 0 0 1 1.55 1 4.55 4.55 0 0 1 1 1.63c.267.74.395 1.523.38 2.31a6.3 6.3 0 0 1-.37 2.27 4.6 4.6 0 0 1-1 1.63 4.15 4.15 0 0 1-1.54 1 5.6 5.6 0 0 1-1.94.33 5.4 5.4 0 0 1-1.91-.33 4.2 4.2 0 0 1-1.55-1 4.7 4.7 0 0 1-1-1.63 6.3 6.3 0 0 1-.34-2.27m1.9 0a5.2 5.2 0 0 0 .22 1.61c.139.433.364.834.66 1.18.254.31.58.554.95.71.376.162.781.244 1.19.24a2.7 2.7 0 0 0 2.13-.95 4.18 4.18 0 0 0 .81-2.79 5 5 0 0 0-.23-1.63 3.6 3.6 0 0 0-.62-1.18 2.54 2.54 0 0 0-.94-.7 3 3 0 0 0-1.17-.23 2.9 2.9 0 0 0-1.17.24c-.368.159-.693.402-.95.71a3.5 3.5 0 0 0-.63 1.17 5.3 5.3 0 0 0-.25 1.62M145.279 19.96V10.1h1.53l.25 1.46a2.67 2.67 0 0 1 2.5-1.74 4 4 0 0 1 .64 0l.45.09v1.82a5 5 0 0 0-.55-.12 4 4 0 0 0-.61 0 2.3 2.3 0 0 0-.9.18c-.297.128-.556.331-.75.59a2.8 2.8 0 0 0-.51 1.06 5.6 5.6 0 0 0-.19 1.58v4.95z"/><path fill="#fff" d="M155.86 20.06a5.5 5.5 0 0 1-1.35.19 2.5 2.5 0 0 1-2-.75 2.89 2.89 0 0 1-.66-2v-5.88h-1.46V10.1h1.46l.11-2.37h1.71v2.37h2.14v1.52h-2.12v5.89c0 .74.34 1.1 1 1.1h.47q.329-.045.65-.13z"/></svg>