<svg xmlns="http://www.w3.org/2000/svg" width="196" height="41" fill="none" viewBox="0 0 196 41"><g clip-path="url(#a)"><path fill="#000" d="M138.46 9.16a8.16 8.16 0 0 0-8.003 9.752 8.15 8.15 0 0 0 6.411 6.411 8.162 8.162 0 0 0 9.752-8.003 8.16 8.16 0 0 0-8.16-8.16m0 12.24a4.092 4.092 0 0 1-2.889-6.985 4.091 4.091 0 1 1 2.889 6.985M152.8 20.06a.72.72 0 0 1 .444-.667.72.72 0 0 1 .786.157c2.05 2.08 5.42 5.65 5.44 5.67.077.09.178.155.29.19a1.2 1.2 0 0 0 .36 0h3.68a.71.71 0 0 0 .55-1.15l-6.1-6.24-.32-.33c-.7-.83-.62-1.15.18-2l4.83-5.41a.697.697 0 0 0-.193-1.03.7.7 0 0 0-.377-.1H159a1 1 0 0 0-.32 0 .62.62 0 0 0-.33.2s-2.69 2.9-4.35 4.67a.727.727 0 0 1-1.137-.097.73.73 0 0 1-.123-.413V4.32a.65.65 0 0 0-.7-.65h-2.72a.63.63 0 0 0-.7.59v20.53c0 .47.39.6.71.6h2.73a.66.66 0 0 0 .7-.61v-4.72zM175.06 24.7l-.29-2.73a.665.665 0 0 0-.504-.562.7.7 0 0 0-.266-.008 3.4 3.4 0 0 1-.63.05 4.09 4.09 0 0 1-4.07-3.86v-3.57a.77.77 0 0 1 .212-.557.76.76 0 0 1 .548-.233h3.65a.68.68 0 0 0 .65-.7V9.95a.67.67 0 0 0-.148-.512.68.68 0 0 0-.472-.248h-3.68a.76.76 0 0 1-.78-.73V4.32a.66.66 0 0 0-.204-.474.65.65 0 0 0-.486-.176h-2.71a.63.63 0 0 0-.67.64v13.28a8.15 8.15 0 0 0 8.16 7.91 8 8 0 0 0 1.09-.08.66.66 0 0 0 .574-.462.7.7 0 0 0 .026-.258M194.72 21.27c-2.3 0-2.66-.82-2.66-3.92V9.87a.696.696 0 0 0-.71-.7h-2.73a.717.717 0 0 0-.71.7v.34a8.158 8.158 0 0 0-11.932 5.02 8.16 8.16 0 0 0 7.932 10.23 8.2 8.2 0 0 0 5.31-2 4.41 4.41 0 0 0 3.92 2c.33 0 2.08.06 2.08-.76v-2.91a.51.51 0 0 0-.5-.52m-10.82.13a4.09 4.09 0 0 1-3.772-2.534 4.09 4.09 0 0 1 .897-4.455 4.092 4.092 0 0 1 6.292.635 4.095 4.095 0 0 1-.522 5.163A4.08 4.08 0 0 1 183.9 21.4"/><path stroke="#000" stroke-miterlimit="10" stroke-width="3" d="m114.12.5-.03 32.12"/><path fill="#000" d="M79.977 33.2H78.66v5.25h1.318zM90.659 34.705a2.3 2.3 0 0 0-1.112-.28c-.858 0-1.453.596-1.453 1.4 0 .78.57 1.401 1.453 1.401.388.002.77-.094 1.112-.278v1.409c-.392.12-.798.183-1.207.186-1.49 0-2.796-1.025-2.796-2.718 0-1.567 1.183-2.717 2.796-2.717.41.001.816.065 1.207.188zM76.833 34.705a2.3 2.3 0 0 0-1.113-.28c-.858 0-1.451.596-1.451 1.4 0 .78.568 1.401 1.45 1.401.39.001.772-.094 1.114-.278v1.409c-.392.12-.799.183-1.208.186-1.49 0-2.796-1.025-2.796-2.718 0-1.567 1.183-2.717 2.796-2.717.41.001.817.065 1.208.188zM94.826 34.444a1.356 1.356 0 0 0-1.37 1.38 1.36 1.36 0 0 0 1.37 1.383 1.36 1.36 0 0 0 1.273-.852c.068-.168.1-.349.098-.53a1.36 1.36 0 0 0-1.371-1.381m2.774 1.38c0 1.503-1.159 2.719-2.774 2.719s-2.772-1.216-2.772-2.718 1.158-2.717 2.772-2.717 2.774 1.217 2.774 2.717M85.001 34.394a4.6 4.6 0 0 0-1.035-.16c-.53 0-.819.178-.819.43 0 .32.39.439.606.5l.366.116c.86.274 1.251.863 1.251 1.503 0 1.318-1.158 1.757-2.173 1.757a8 8 0 0 1-1.43-.146v-1.209c.407.118.828.184 1.251.195.66 0 .962-.192.962-.49 0-.266-.262-.42-.585-.523l-.283-.091c-.732-.233-1.353-.666-1.353-1.536 0-.981.732-1.64 1.956-1.64.435.006.868.062 1.29.167zM63.576 38.433H63v-5.239h.699v1.979a1.45 1.45 0 0 1 1.266-.633 1.5 1.5 0 0 1 1.266.586q.4.525.4 1.39 0 1.025-.546 1.571a1.59 1.59 0 0 1-1.171.458 1.4 1.4 0 0 1-1.23-.61zm2.327-1.936q-.001-.714-.356-1.07a.99.99 0 0 0-.743-.292 1.03 1.03 0 0 0-.843.385 1.5 1.5 0 0 0-.293.975q0 .728.357 1.113a1 1 0 0 0 .785.336.95.95 0 0 0 .83-.402q.265-.369.265-1.045zM70.373 34.65l-1.319 3.833q-.263.765-.502 1.042a.93.93 0 0 1-.732.326 2 2 0 0 1-.451-.064v-.572q.18.048.365.052a.42.42 0 0 0 .348-.157q.201-.319.314-.68h-.226l-1.39-3.783h.749l1.07 3.221 1.07-3.221zM23.743 8.437h3.734l-5.43 16.412h-4.284l-4.058-12.385-4.058 12.385H5.43L0 8.437h3.822l3.852 12.472 4.043-12.472h4.058l4.11 12.539zM43.494 17.96H31.38c.112.846.43 1.652.925 2.347a4.2 4.2 0 0 0 1.72 1.387c.7.303 1.457.455 2.22.447a7.2 7.2 0 0 0 2.475-.452 8 8 0 0 0 2.27-1.279l1.783 2.569a9 9 0 0 1-3.113 1.772c-1.176.37-2.403.551-3.636.54a8.7 8.7 0 0 1-4.351-1.07 7.6 7.6 0 0 1-2.975-3.03 9.3 9.3 0 0 1-1.068-4.53 9.5 9.5 0 0 1 1.027-4.5 7.57 7.57 0 0 1 2.887-3.047 8.2 8.2 0 0 1 4.248-1.089 7.31 7.31 0 0 1 6.776 4.11 9.84 9.84 0 0 1 .986 4.49q.008.516-.062 1.335m-3.596-2.723a5.08 5.08 0 0 0-1.372-3 3.82 3.82 0 0 0-2.794-1.027 4.02 4.02 0 0 0-2.938 1.09 5.2 5.2 0 0 0-1.413 2.953zM58.817 9.125a8 8 0 0 1 2.964 3.082 9.03 9.03 0 0 1 1.089 4.438 9 9 0 0 1-1.089 4.433 7.97 7.97 0 0 1-7.12 4.197 6.7 6.7 0 0 1-2.964-.622 6.1 6.1 0 0 1-2.172-1.756v1.952h-3.596V1.45h3.596v8.938a6.2 6.2 0 0 1 2.172-1.746 6.64 6.64 0 0 1 2.964-.627 7.97 7.97 0 0 1 4.156 1.11M56.855 21.2a4.63 4.63 0 0 0 1.73-1.905 6.17 6.17 0 0 0 0-5.307 4.66 4.66 0 0 0-1.73-1.905 5.24 5.24 0 0 0-5.199 0 4.7 4.7 0 0 0-1.746 1.885 5.7 5.7 0 0 0-.627 2.691 5.65 5.65 0 0 0 .627 2.687c.395.779 1 1.432 1.746 1.885a5.24 5.24 0 0 0 5.199 0zM80.613 17.96H68.505c.112.847.43 1.653.925 2.348a4.2 4.2 0 0 0 1.72 1.387c.7.302 1.457.455 2.22.447a7.2 7.2 0 0 0 2.475-.452 8 8 0 0 0 2.271-1.28l1.777 2.57a9 9 0 0 1-3.107 1.771 11.8 11.8 0 0 1-3.642.54 8.73 8.73 0 0 1-4.351-1.069 7.6 7.6 0 0 1-2.97-3.03 9.3 9.3 0 0 1-1.073-4.531 9.53 9.53 0 0 1 1.027-4.5 7.57 7.57 0 0 1 2.887-3.046 8.2 8.2 0 0 1 4.28-1.105 7.33 7.33 0 0 1 6.775 4.11 9.84 9.84 0 0 1 .986 4.49c-.02.359-.056.806-.093 1.35m-3.596-2.722a5.1 5.1 0 0 0-1.377-2.98 3.83 3.83 0 0 0-2.784-1.047 4 4 0 0 0-2.938 1.089 5.2 5.2 0 0 0-1.413 2.953zM97.693 24.849H93.29l-4.16-5.707-4.11 5.707h-4.197l6.165-8.378-6.067-8.034h4.407l4.007 5.48 4.007-5.48H97.6l-6.092 8.003z"/></g><defs><clipPath id="a"><path fill="#fff" d="M0 .5h195.19v39.8H0z"/></clipPath></defs></svg>