<svg xmlns="http://www.w3.org/2000/svg" width="32" height="32" viewBox="0 0 32 32"><path d="M22 19.25H10A1.753 1.753 0 0 0 8.25 21v4A1.75 1.75 0 0 0 10 26.75h12A1.75 1.75 0 0 0 23.75 25v-4A1.75 1.75 0 0 0 22 19.25m.25 5.75a.25.25 0 0 1-.25.25H10a.25.25 0 0 1-.25-.25v-4a.25.25 0 0 1 .25-.25h12a.25.25 0 0 1 .25.25zM25 5.25H7A4.755 4.755 0 0 0 2.25 10v2A4.755 4.755 0 0 0 7 16.75h18A4.755 4.755 0 0 0 29.75 12v-2A4.755 4.755 0 0 0 25 5.25M28.25 12A3.254 3.254 0 0 1 25 15.25H7A3.254 3.254 0 0 1 3.75 12v-2A3.254 3.254 0 0 1 7 6.75h18A3.254 3.254 0 0 1 28.25 10zM15.976 10.25H11a.75.75 0 1 0 0 1.5h4.976a.75.75 0 1 0 0-1.5M20.5 12a1 1 0 1 0 0-2 1 1 0 0 0 0 2"/></svg>