<svg xmlns="http://www.w3.org/2000/svg" width="378" height="24" fill="none" viewBox="0 0 378 24"><path fill="#000" d="M19.948 6.22h3.137l-4.562 13.789h-3.599l-3.41-10.406L8.105 20.01H4.562L0 6.219h3.211L6.448 16.7l3.396-10.48h3.41l3.452 10.536zM36.542 14.221H26.365a4.4 4.4 0 0 0 .777 1.973c.369.51.868.913 1.446 1.165a4.6 4.6 0 0 0 1.864.375 6 6 0 0 0 2.08-.38 6.8 6.8 0 0 0 1.908-1.074l1.498 2.158a7.6 7.6 0 0 1-2.616 1.489c-.988.31-2.02.463-3.055.453a7.3 7.3 0 0 1-3.656-.898 6.37 6.37 0 0 1-2.499-2.546 7.8 7.8 0 0 1-.897-3.807 8 8 0 0 1 .863-3.78 6.36 6.36 0 0 1 2.425-2.56 6.9 6.9 0 0 1 3.57-.915 6.14 6.14 0 0 1 5.692 3.453 8.26 8.26 0 0 1 .829 3.772q.006.436-.052 1.122m-3.021-2.287a4.26 4.26 0 0 0-1.153-2.52 3.2 3.2 0 0 0-2.347-.864 3.38 3.38 0 0 0-2.469.915 4.38 4.38 0 0 0-1.187 2.482zM49.416 6.798a6.7 6.7 0 0 1 2.49 2.59 7.6 7.6 0 0 1 .915 3.728 7.57 7.57 0 0 1-.915 3.725 6.7 6.7 0 0 1-5.981 3.526 5.6 5.6 0 0 1-2.49-.523 5.1 5.1 0 0 1-1.826-1.476v1.64h-3.021V.35h3.02v7.51a5.2 5.2 0 0 1 1.827-1.468 5.6 5.6 0 0 1 2.49-.526 6.7 6.7 0 0 1 3.491.932m-1.648 10.146a3.9 3.9 0 0 0 1.454-1.6 5.18 5.18 0 0 0 0-4.46 3.9 3.9 0 0 0-1.454-1.6 4.4 4.4 0 0 0-4.368 0c-.627.38-1.136.93-1.467 1.584a4.8 4.8 0 0 0-.527 2.261c-.014.785.167 1.56.527 2.257.331.655.84 1.203 1.467 1.584a4.4 4.4 0 0 0 4.368 0zM67.727 14.221H57.555a4.4 4.4 0 0 0 .777 1.973c.368.51.868.913 1.446 1.165a4.6 4.6 0 0 0 1.864.375 6 6 0 0 0 2.08-.38 6.8 6.8 0 0 0 1.908-1.074l1.493 2.158a7.5 7.5 0 0 1-2.611 1.489c-.99.31-2.023.463-3.06.453a7.34 7.34 0 0 1-3.655-.898 6.4 6.4 0 0 1-2.495-2.546 7.8 7.8 0 0 1-.902-3.807 8 8 0 0 1 .863-3.78 6.36 6.36 0 0 1 2.426-2.56 6.9 6.9 0 0 1 3.595-.927 6.15 6.15 0 0 1 5.692 3.452 8.3 8.3 0 0 1 .829 3.772c-.017.302-.048.678-.078 1.135m-3.02-2.287A4.3 4.3 0 0 0 63.55 9.43a3.22 3.22 0 0 0-2.34-.88 3.37 3.37 0 0 0-2.468.914 4.36 4.36 0 0 0-1.187 2.482zM82.077 20.009H78.38l-3.496-4.795-3.453 4.795h-3.526l5.18-7.04-5.098-6.75h3.703l3.367 4.606 3.366-4.605H82l-5.119 6.724zM206.632 19.824h-1.843V9.84h1.517l.249 1.478q.845-1.766 2.535-1.766.557 0 1.094.134v1.843a4.6 4.6 0 0 0-1.171-.172q-1.113 0-1.747.902-.634.903-.634 2.554zM200.937 16.944h1.997q-.423 1.517-1.67 2.38-1.172.788-2.804.788-2.361 0-3.686-1.498-1.21-1.401-1.21-3.782 0-2.708 1.536-4.109 1.267-1.17 3.264-1.171 2.343 0 3.533 1.517 1.152 1.458 1.152 4.166h-7.603q.115 1.767 1.075 2.63.788.692 1.997.692.94 0 1.632-.519a2.2 2.2 0 0 0 .787-1.094m-2.534-5.914q-1.229 0-1.978.768-.71.71-.902 1.978h5.645q-.096-1.44-.96-2.15-.692-.596-1.805-.596M185.56 19.824h-1.843V9.84h1.517l.211 1.267q1.113-1.555 3.033-1.555 1.767 0 2.708 1.094.825.98.825 2.669v6.509h-1.843v-6.49q0-2.208-2.131-2.208-1.114 0-1.824.768-.653.692-.653 1.767zM172.371 20.496h1.978q.134.768.768 1.19.652.423 1.708.423 1.479 0 2.208-.768.615-.654.615-1.824V18.23q-1.114 1.306-3.322 1.306-1.997 0-3.245-1.44-1.17-1.344-1.171-3.495 0-2.496 1.421-3.859 1.21-1.19 3.11-1.19 2.151 0 3.245 1.613l.288-1.325h1.517v9.773q0 1.882-1.363 2.956-1.229.999-3.245.999-2.093 0-3.283-.941-.998-.787-1.229-2.131m1.459-5.856q0 1.632.96 2.553.787.768 1.939.768 1.518 0 2.324-.998.69-.844.691-2.266 0-1.824-.941-2.784-.787-.787-2.074-.787-1.42 0-2.188.98-.711.921-.711 2.534M170.377 8.17h-2.073V6h2.073zm-.115 11.654h-1.843V9.84h1.843zM164.919 17.117q0-.846-.883-1.268-.519-.23-2.016-.576-1.844-.403-2.63-1.17-.653-.654-.653-1.71 0-1.4 1.133-2.15 1.017-.69 2.745-.691 1.786 0 2.899.883.96.768 1.191 2.035h-1.882q-.326-1.46-2.227-1.459-1.056 0-1.574.384-.423.327-.423.826 0 .614.461.921.48.307 1.862.615 2.113.46 2.938 1.132.921.75.922 2.093 0 1.498-1.229 2.362-1.114.768-2.938.768-1.996 0-3.168-.96-1.017-.845-1.133-2.189h1.882q.308 1.69 2.438 1.69 1.153 0 1.786-.5.5-.403.499-1.036M155.231 16.944h1.997q-.423 1.517-1.67 2.38-1.172.788-2.804.788-2.361 0-3.686-1.498-1.21-1.401-1.21-3.782 0-2.708 1.536-4.109 1.267-1.17 3.264-1.171 2.343 0 3.533 1.517 1.152 1.458 1.152 4.166h-7.603q.115 1.767 1.075 2.63.788.692 1.997.692.94 0 1.632-.519a2.2 2.2 0 0 0 .787-1.094m-2.534-5.914q-1.229 0-1.978.768-.71.71-.902 1.978h5.645q-.096-1.44-.96-2.15-.692-.596-1.805-.596M135.406 6h4.493q3.399 0 5.165 1.92 1.632 1.767 1.632 4.992 0 3.495-2.189 5.357-1.844 1.555-4.742 1.555h-4.359zm4.512 1.555h-2.553v10.656h2.592q2.457 0 3.667-1.536 1.094-1.344 1.094-3.763 0-2.841-1.459-4.205-1.229-1.152-3.341-1.152M127.027 9.84h1.844l-2.919 9.984h-2.131l-2.419-7.891-2.381 7.89h-2.208l-2.918-9.983h1.92l2.15 8.025 2.381-8.025h2.208l2.342 7.987zM103.688 14.832q0-2.746 1.632-4.147 1.306-1.133 3.303-1.133 2.323 0 3.648 1.478 1.267 1.383 1.267 3.802 0 2.707-1.594 4.128-1.306 1.152-3.34 1.152-2.324 0-3.668-1.536-1.248-1.402-1.248-3.744m1.92 0q0 1.92.98 2.937.806.845 2.054.845 1.46 0 2.246-1.094.73-.999.73-2.688 0-1.959-.96-2.957-.787-.826-2.035-.826-1.44 0-2.247 1.095-.768.998-.768 2.688M102.039 6v13.824h-1.843V6zM97.795 12.355v1.632h-5.837v5.837H90V6h8.467v1.651h-6.509v4.704z"/></svg>