<svg xmlns="http://www.w3.org/2000/svg" width="378" height="24" fill="none" viewBox="0 0 378 24"><path fill="#000" d="M19.948 6.219h3.137l-4.562 13.789h-3.599l-3.41-10.406-3.409 10.406H4.562L0 6.218h3.211l3.237 10.48 3.396-10.48h3.41l3.452 10.536zM36.542 14.22H26.365a4.4 4.4 0 0 0 .777 1.972c.369.512.868.914 1.446 1.166a4.6 4.6 0 0 0 1.864.375 6 6 0 0 0 2.08-.38 6.8 6.8 0 0 0 1.908-1.074l1.498 2.158a7.6 7.6 0 0 1-2.616 1.489c-.988.31-2.02.463-3.055.453a7.3 7.3 0 0 1-3.656-.898 6.37 6.37 0 0 1-2.499-2.546 7.8 7.8 0 0 1-.897-3.807 8 8 0 0 1 .863-3.78 6.36 6.36 0 0 1 2.425-2.56 6.9 6.9 0 0 1 3.57-.915 6.14 6.14 0 0 1 5.692 3.453 8.26 8.26 0 0 1 .829 3.772q.006.436-.052 1.122m-3.021-2.287a4.26 4.26 0 0 0-1.153-2.52 3.2 3.2 0 0 0-2.347-.864 3.38 3.38 0 0 0-2.469.915 4.38 4.38 0 0 0-1.187 2.482zM49.416 6.797a6.7 6.7 0 0 1 2.49 2.59 7.6 7.6 0 0 1 .915 3.729 7.57 7.57 0 0 1-.915 3.724 6.7 6.7 0 0 1-5.981 3.526 5.6 5.6 0 0 1-2.49-.522 5.1 5.1 0 0 1-1.826-1.476v1.64h-3.021V.35h3.02v7.51a5.2 5.2 0 0 1 1.827-1.468 5.6 5.6 0 0 1 2.49-.527 6.7 6.7 0 0 1 3.491.932m-1.648 10.147a3.9 3.9 0 0 0 1.454-1.601 5.18 5.18 0 0 0 0-4.459 3.9 3.9 0 0 0-1.454-1.6 4.4 4.4 0 0 0-4.368 0c-.627.38-1.136.929-1.467 1.583a4.8 4.8 0 0 0-.527 2.262c-.014.784.167 1.56.527 2.257.331.654.84 1.203 1.467 1.584a4.4 4.4 0 0 0 4.368 0zM67.727 14.22H57.555a4.4 4.4 0 0 0 .777 1.972c.368.512.868.914 1.446 1.166a4.6 4.6 0 0 0 1.864.375 6 6 0 0 0 2.08-.38 6.8 6.8 0 0 0 1.908-1.074l1.493 2.158a7.5 7.5 0 0 1-2.611 1.489c-.99.31-2.023.463-3.06.453a7.34 7.34 0 0 1-3.655-.898 6.4 6.4 0 0 1-2.495-2.546 7.8 7.8 0 0 1-.902-3.807 8 8 0 0 1 .863-3.78 6.36 6.36 0 0 1 2.426-2.56 6.9 6.9 0 0 1 3.595-.927 6.15 6.15 0 0 1 5.692 3.452 8.3 8.3 0 0 1 .829 3.772c-.017.302-.048.678-.078 1.135m-3.02-2.287A4.3 4.3 0 0 0 63.55 9.43a3.22 3.22 0 0 0-2.34-.88 3.37 3.37 0 0 0-2.468.914 4.36 4.36 0 0 0-1.187 2.482zM82.077 20.008H78.38l-3.496-4.795-3.453 4.795h-3.526l5.18-7.04-5.098-6.75h3.703l3.367 4.606 3.366-4.605H82l-5.119 6.724zM98.549 20.022l-3.327-5.24h-3.268v5.24H90V6.25h4.457c3.502 0 5.448 1.547 5.448 4.324 0 2.088-1.265 3.235-2.77 3.81l3.709 5.637zM91.954 7.838v5.356h2.603c2.146 0 3.327-1.015 3.327-2.62 0-1.78-1.073-2.736-3.385-2.736zM110.366 17.153c-.499 1.813-2.063 3.152-4.458 3.152-2.827 0-4.873-1.764-4.873-5.256 0-3.46 2.029-5.256 4.782-5.256s4.665 1.647 4.665 5.663h-7.576c.15 2.296 1.397 3.31 3.061 3.31 1.205 0 2.12-.69 2.411-1.605h1.988zm-7.377-3.16h5.622c-.133-1.855-1.222-2.736-2.753-2.736-1.48.008-2.586.906-2.869 2.736M111.821 12.845c.191-1.838 1.78-3.06 4.266-3.06 2.603 0 4.059 1.396 4.059 3.442v6.786h-1.514l-.233-1.356c-.648.915-1.721 1.647-3.326 1.647-2.179 0-3.443-1.222-3.443-2.852 0-1.813 1.089-2.853 3.767-3.31l2.911-.5v-.49c0-1.222-.824-1.912-2.296-1.912-1.413 0-2.104.615-2.237 1.604zm6.487 3.525v-1.28l-2.47.44c-1.78.308-2.254.857-2.254 1.739 0 .956.69 1.488 1.93 1.488 1.397 0 2.794-1.03 2.794-2.387M130.74 16.828c-.266 1.93-1.896 3.476-4.357 3.476-2.637 0-4.707-1.813-4.707-5.18 0-3.327 1.871-5.34 4.682-5.34 2.253 0 3.975 1.206 4.299 3.235h-2.029c-.249-1.09-1.073-1.68-2.237-1.68-1.622 0-2.769 1.206-2.769 3.842 0 2.429 1.239 3.576 2.794 3.576 1.222 0 2.121-.69 2.312-1.93zM132.362 20.022V6.25h1.838v4.956c.724-.94 1.78-1.413 2.911-1.413 2.162 0 3.518 1.322 3.518 3.75v6.479h-1.838v-6.47c0-1.489-.765-2.196-2.121-2.196s-2.47.956-2.47 2.603v6.063z"/></svg>