<svg xmlns="http://www.w3.org/2000/svg" width="32" height="32" viewBox="0 0 32 32"><path d="M16 7.75a3.25 3.25 0 1 1 0 6.5 3.25 3.25 0 0 1 0-6.5m2.96 6.965a4.75 4.75 0 1 0-5.918.002 9.2 9.2 0 0 0-1.853.837 5.3 5.3 0 0 0-1.424-.864 2.95 2.95 0 1 0-4.528.003c-1.733.714-2.987 2.231-2.987 4.107 0 .636.391 1.088.8 1.373.408.285.936.483 1.485.623.819.21 1.801.316 2.782.328q-.066.48-.067.976c0 .999.663 1.721 1.447 2.207.792.49 1.851.837 3.002 1.07 2.31.469 5.205.522 7.642.167a.75.75 0 0 0-.217-1.485c-2.28.333-5 .28-7.127-.152-1.068-.217-1.933-.518-2.51-.876-.586-.362-.737-.685-.737-.931 0-3.405 3.178-6.35 7.25-6.35 1.973 0 3.758.701 5.061 1.82a.75.75 0 0 0 1.019-1.1c.643-.443 1.481-.72 2.42-.72 2.044 0 3.534 1.278 3.727 2.713a.75.75 0 1 0 1.487-.2c-.223-1.653-1.42-2.963-3.014-3.597a2.95 2.95 0 1 0-4.4-.002 5.3 5.3 0 0 0-1.487.889 9.2 9.2 0 0 0-1.853-.838M7.696 19.624c-1.007.014-2.014-.083-2.79-.281-.467-.119-.8-.262-.997-.4-.114-.08-.15-.13-.159-.15.005-1.571 1.546-3.043 3.75-3.043.939 0 1.776.276 2.419.718-.998.865-1.772 1.942-2.223 3.156m-3.949-.841q.001 0 .002.008zM24.5 11.25a1.45 1.45 0 1 1 0 2.9 1.45 1.45 0 0 1 0-2.9m-17 .1a1.45 1.45 0 1 1 0 2.9 1.45 1.45 0 0 1 0-2.9M26.75 19a.75.75 0 0 0-1.5 0v3.25H22a.75.75 0 0 0 0 1.5h3.25V27a.75.75 0 0 0 1.5 0v-3.25H30a.75.75 0 0 0 0-1.5h-3.25z"/></svg>