<svg xmlns="http://www.w3.org/2000/svg" width="378" height="24" fill="none" viewBox="0 0 378 24"><path fill="#000" d="M19.948 6.22h3.137l-4.562 13.789h-3.599l-3.41-10.406L8.105 20.01H4.562L0 6.219h3.211L6.448 16.7l3.396-10.48h3.41l3.452 10.536zM36.542 14.221H26.365a4.4 4.4 0 0 0 .777 1.973c.369.51.868.913 1.446 1.165a4.6 4.6 0 0 0 1.864.375 6 6 0 0 0 2.08-.38 6.8 6.8 0 0 0 1.908-1.074l1.498 2.158a7.6 7.6 0 0 1-2.616 1.489c-.988.31-2.02.463-3.055.453a7.3 7.3 0 0 1-3.656-.898 6.37 6.37 0 0 1-2.499-2.546 7.8 7.8 0 0 1-.897-3.807 8 8 0 0 1 .863-3.78 6.36 6.36 0 0 1 2.425-2.56 6.9 6.9 0 0 1 3.57-.915 6.14 6.14 0 0 1 5.692 3.453 8.26 8.26 0 0 1 .829 3.772q.006.436-.052 1.122m-3.021-2.287a4.26 4.26 0 0 0-1.153-2.52 3.2 3.2 0 0 0-2.347-.864 3.38 3.38 0 0 0-2.469.915 4.38 4.38 0 0 0-1.187 2.482zM49.416 6.798a6.7 6.7 0 0 1 2.49 2.59 7.6 7.6 0 0 1 .915 3.728 7.57 7.57 0 0 1-.915 3.725 6.7 6.7 0 0 1-5.981 3.526 5.6 5.6 0 0 1-2.49-.523 5.1 5.1 0 0 1-1.826-1.476v1.64h-3.021V.35h3.02v7.51a5.2 5.2 0 0 1 1.827-1.468 5.6 5.6 0 0 1 2.49-.526 6.7 6.7 0 0 1 3.491.932m-1.648 10.146a3.9 3.9 0 0 0 1.454-1.6 5.18 5.18 0 0 0 0-4.46 3.9 3.9 0 0 0-1.454-1.6 4.4 4.4 0 0 0-4.368 0c-.627.38-1.136.93-1.467 1.584a4.8 4.8 0 0 0-.527 2.261c-.014.785.167 1.56.527 2.257.331.655.84 1.203 1.467 1.584a4.4 4.4 0 0 0 4.368 0zM67.727 14.221H57.555a4.4 4.4 0 0 0 .777 1.973c.368.51.868.913 1.446 1.165a4.6 4.6 0 0 0 1.864.375 6 6 0 0 0 2.08-.38 6.8 6.8 0 0 0 1.908-1.074l1.493 2.158a7.5 7.5 0 0 1-2.611 1.489c-.99.31-2.023.463-3.06.453a7.34 7.34 0 0 1-3.655-.898 6.4 6.4 0 0 1-2.495-2.546 7.8 7.8 0 0 1-.902-3.807 8 8 0 0 1 .863-3.78 6.36 6.36 0 0 1 2.426-2.56 6.9 6.9 0 0 1 3.595-.927 6.15 6.15 0 0 1 5.692 3.452 8.3 8.3 0 0 1 .829 3.772c-.017.302-.048.678-.078 1.135m-3.02-2.287A4.3 4.3 0 0 0 63.55 9.43a3.22 3.22 0 0 0-2.34-.88 3.37 3.37 0 0 0-2.468.914 4.36 4.36 0 0 0-1.187 2.482zM82.077 20.009H78.38l-3.496-4.795-3.453 4.795h-3.526l5.18-7.04-5.098-6.75h3.703l3.367 4.606 3.366-4.605H82l-5.119 6.724zM104.12 20h-2.26l-1.42-3.64h-6.86L92.14 20H90l5.92-14.4h2.3zM97.04 7.64l-2.8 7.06h5.54zM112.102 16.66h2.1q-.24 1.68-1.58 2.7-1.22.94-2.98.94-2.301 0-3.66-1.58-1.26-1.46-1.26-3.84 0-2.76 1.52-4.28 1.3-1.3 3.38-1.3 1.92 0 3.16 1.02 1.1.9 1.34 2.36h-2.12q-.2-.84-.82-1.3-.6-.46-1.52-.46-1.42 0-2.18 1.12-.72 1.04-.72 2.9 0 1.941.96 2.94.76.8 1.96.8 1.04 0 1.7-.6.579-.52.72-1.42M122.976 16.66h2.1q-.24 1.68-1.58 2.7-1.22.94-2.98.94-2.3 0-3.66-1.58-1.26-1.46-1.26-3.84 0-2.76 1.52-4.28 1.3-1.3 3.38-1.3 1.92 0 3.16 1.02 1.1.9 1.34 2.36h-2.12q-.2-.84-.82-1.3-.6-.46-1.52-.46-1.42 0-2.18 1.12-.72 1.04-.72 2.9 0 1.941.96 2.94.76.8 1.96.8 1.04 0 1.7-.6.58-.52.72-1.42M126.47 14.8q0-2.859 1.7-4.32 1.36-1.18 3.44-1.18 2.42 0 3.8 1.54 1.32 1.44 1.32 3.96 0 2.82-1.66 4.3-1.359 1.2-3.48 1.2-2.42 0-3.82-1.6-1.3-1.46-1.3-3.9m2 0q0 2.001 1.02 3.06.84.88 2.14.88 1.521 0 2.34-1.14.76-1.04.76-2.8 0-2.04-1-3.08-.82-.86-2.12-.86-1.5 0-2.34 1.14-.8 1.04-.8 2.8M138.625 9.6h1.92v6.82q0 2.24 2.16 2.24 1.32 0 2.02-.94.54-.72.54-1.78V9.6h1.92V20h-1.58l-.22-1.2q-1.101 1.5-3.12 1.5-1.78 0-2.74-1.1-.9-1.02-.9-2.82zM151.714 20h-1.92V9.6h1.58l.22 1.32q1.16-1.62 3.16-1.62 1.84 0 2.82 1.14.86 1.02.86 2.78V20h-1.92v-6.76q0-2.3-2.22-2.3-1.16 0-1.9.8-.68.72-.68 1.84zM165.583 18.46v1.64a5.4 5.4 0 0 1-1.42.2q-1.44 0-2.16-.9-.62-.74-.62-1.98v-6.18h-1.54V9.6h1.54l.12-2.5h1.8v2.5h2.24v1.64h-2.24v6.22q0 1.16 1.1 1.16.52 0 1.18-.16"/></svg>