<svg xmlns="http://www.w3.org/2000/svg" width="378" height="24" fill="none" viewBox="0 0 378 24"><path fill="#000" d="M19.948 6.22h3.137l-4.562 13.789h-3.599l-3.41-10.406L8.105 20.01H4.562L0 6.219h3.211L6.448 16.7l3.396-10.48h3.41l3.452 10.536zM36.542 14.221H26.365a4.4 4.4 0 0 0 .777 1.973c.369.51.868.913 1.446 1.165a4.6 4.6 0 0 0 1.864.375 6 6 0 0 0 2.08-.38 6.8 6.8 0 0 0 1.908-1.074l1.498 2.158a7.6 7.6 0 0 1-2.616 1.489c-.988.31-2.02.463-3.055.453a7.3 7.3 0 0 1-3.656-.898 6.37 6.37 0 0 1-2.499-2.546 7.8 7.8 0 0 1-.897-3.807 8 8 0 0 1 .863-3.78 6.36 6.36 0 0 1 2.425-2.56 6.9 6.9 0 0 1 3.57-.915 6.14 6.14 0 0 1 5.692 3.453 8.26 8.26 0 0 1 .829 3.772q.006.436-.052 1.122m-3.021-2.287a4.26 4.26 0 0 0-1.153-2.52 3.2 3.2 0 0 0-2.347-.864 3.38 3.38 0 0 0-2.469.915 4.38 4.38 0 0 0-1.187 2.482zM49.416 6.798a6.7 6.7 0 0 1 2.49 2.59 7.6 7.6 0 0 1 .915 3.728 7.57 7.57 0 0 1-.915 3.725 6.7 6.7 0 0 1-5.981 3.526 5.6 5.6 0 0 1-2.49-.523 5.1 5.1 0 0 1-1.826-1.476v1.64h-3.021V.35h3.02v7.51a5.2 5.2 0 0 1 1.827-1.468 5.6 5.6 0 0 1 2.49-.526 6.7 6.7 0 0 1 3.491.932m-1.648 10.146a3.9 3.9 0 0 0 1.454-1.6 5.18 5.18 0 0 0 0-4.46 3.9 3.9 0 0 0-1.454-1.6 4.4 4.4 0 0 0-4.368 0c-.627.38-1.136.93-1.467 1.584a4.8 4.8 0 0 0-.527 2.261c-.014.785.167 1.56.527 2.257.331.655.84 1.203 1.467 1.584a4.4 4.4 0 0 0 4.368 0zM67.727 14.221H57.555a4.4 4.4 0 0 0 .777 1.973c.368.51.868.913 1.446 1.165a4.6 4.6 0 0 0 1.864.375 6 6 0 0 0 2.08-.38 6.8 6.8 0 0 0 1.908-1.074l1.493 2.158a7.5 7.5 0 0 1-2.611 1.489c-.99.31-2.023.463-3.06.453a7.34 7.34 0 0 1-3.655-.898 6.4 6.4 0 0 1-2.495-2.546 7.8 7.8 0 0 1-.902-3.807 8 8 0 0 1 .863-3.78 6.36 6.36 0 0 1 2.426-2.56 6.9 6.9 0 0 1 3.595-.927 6.15 6.15 0 0 1 5.692 3.452 8.3 8.3 0 0 1 .829 3.772c-.017.302-.048.678-.078 1.135m-3.02-2.287A4.3 4.3 0 0 0 63.55 9.43a3.22 3.22 0 0 0-2.34-.88 3.37 3.37 0 0 0-2.468.914 4.36 4.36 0 0 0-1.187 2.482zM82.077 20.009H78.38l-3.496-4.795-3.453 4.795h-3.526l5.18-7.04-5.098-6.75h3.703l3.367 4.606 3.366-4.605H82l-5.119 6.724zM267.966 17.35q0-.828-.865-1.24-.507-.226-1.973-.564-1.805-.396-2.575-1.147-.639-.64-.639-1.673 0-1.372 1.108-2.105.998-.677 2.688-.677 1.749 0 2.838.865.94.752 1.166 1.992h-1.842q-.32-1.428-2.181-1.428-1.033 0-1.541.376-.413.32-.413.808 0 .601.451.902.47.3 1.823.602 2.067.45 2.876 1.109.902.732.902 2.048 0 1.467-1.203 2.312-1.09.752-2.876.752-1.955 0-3.101-.94-.996-.827-1.109-2.142h1.842q.3 1.654 2.387 1.654 1.128 0 1.748-.49.489-.393.489-1.014M251.817 10.226h1.805v6.41q0 2.105 2.03 2.105 1.24 0 1.898-.884.507-.675.508-1.673v-5.958h1.804V20h-1.485l-.207-1.128q-1.033 1.41-2.932 1.41-1.672 0-2.575-1.034-.846-.958-.846-2.65zM250.465 18.553v1.54a5.1 5.1 0 0 1-1.335.189q-1.353 0-2.03-.846-.582-.696-.582-1.86v-5.809h-1.448v-1.541h1.448l.112-2.35h1.692v2.35h2.105v1.541h-2.105v5.846q0 1.09 1.034 1.09.488 0 1.109-.15M237.561 12.952h-1.917q.15-1.467 1.391-2.275 1.109-.732 2.8-.733 2.012 0 3.083 1.053.902.902.902 2.33V20h-1.485l-.225-1.334q-1.147 1.616-3.271 1.616-1.673 0-2.612-.902-.771-.752-.771-1.899 0-1.447.996-2.236.883-.696 2.707-1.015l2.857-.489v-.489q0-.958-.658-1.447-.583-.432-1.598-.432-1.992 0-2.199 1.579m1.711 5.808q1.146 0 1.992-.752.752-.695.752-1.598v-1.26l-2.425.433q-1.335.225-1.823.696-.395.375-.395 1.015 0 .714.489 1.09.489.375 1.41.376M234.573 18.553v1.54a5 5 0 0 1-1.334.189q-1.354 0-2.03-.846-.583-.696-.583-1.86v-5.809h-1.447v-1.541h1.447l.113-2.35h1.691v2.35h2.106v1.541h-2.106v5.846q0 1.09 1.034 1.09.49 0 1.109-.15M226.378 16.335q0-.676-.301-1.072-.338-.47-1.24-.864-.903-.395-2.725-.902-2.444-.678-3.365-1.673-.752-.809-.752-2.162 0-1.635 1.429-2.594 1.315-.883 3.421-.883 2.35 0 3.815 1.109 1.316.978 1.541 2.556h-1.973q-.17-1.072-1.128-1.597-.846-.49-2.255-.49-1.58 0-2.331.602a1.48 1.48 0 0 0-.602 1.222q0 .489.151.808.17.301.564.545.732.489 2.838 1.072 2.932.827 3.966 1.88.864.864.864 2.368 0 1.785-1.56 2.95-1.466 1.072-3.721 1.072-2.35 0-3.891-1.26-1.334-1.09-1.598-2.819h1.974q.188 1.24 1.184 1.899.903.6 2.293.601 1.73 0 2.65-.79.752-.638.752-1.578M209.067 17.18h1.955q-.414 1.486-1.635 2.331-1.147.771-2.744.771-2.313 0-3.609-1.466-1.185-1.372-1.184-3.703 0-2.65 1.503-4.022 1.24-1.146 3.196-1.147 2.292 0 3.458 1.485 1.128 1.429 1.128 4.079h-7.443q.113 1.73 1.052 2.575.77.677 1.955.677.92 0 1.598-.508.563-.432.77-1.071m-2.481-5.788q-1.203 0-1.936.751-.695.697-.883 1.936h5.526q-.094-1.41-.94-2.105-.676-.582-1.767-.582M198.377 16.861h1.974q-.227 1.58-1.485 2.538-1.147.883-2.801.883-2.161 0-3.439-1.485-1.185-1.372-1.185-3.609 0-2.594 1.429-4.022 1.221-1.221 3.176-1.222 1.805 0 2.97.959 1.034.846 1.259 2.218h-1.992q-.188-.79-.771-1.222-.563-.432-1.428-.432-1.335 0-2.049 1.052-.676.978-.676 2.726 0 1.822.902 2.763.714.752 1.842.752.977 0 1.597-.564.546-.488.677-1.335M189.481 8.59h-2.03V6.468h2.03zM189.368 20h-1.804v-9.774h1.804zM184.187 10.226h1.879L182.627 20h-2.444l-3.402-9.774h1.974l2.706 8.308zM173.013 20h-1.804v-9.774h1.485l.244 1.447q.828-1.729 2.481-1.729.546 0 1.072.132v1.804a4.5 4.5 0 0 0-1.147-.169q-1.09 0-1.71.883-.621.885-.621 2.5zM166.978 17.18h1.955q-.414 1.486-1.635 2.331-1.147.771-2.744.771-2.313 0-3.609-1.466-1.184-1.372-1.184-3.703 0-2.65 1.503-4.022 1.241-1.146 3.196-1.147 2.292 0 3.458 1.485 1.128 1.429 1.128 4.079h-7.443q.113 1.73 1.052 2.575.771.677 1.955.677.921 0 1.598-.508a2.17 2.17 0 0 0 .77-1.071m-2.481-5.788q-1.203 0-1.936.751-.695.697-.883 1.936h5.526q-.094-1.41-.94-2.105-.676-.582-1.767-.582M156.24 16.335q0-.676-.301-1.072-.338-.47-1.241-.864-.902-.395-2.725-.902-2.444-.678-3.365-1.673-.751-.809-.751-2.162 0-1.635 1.428-2.594 1.316-.883 3.421-.883 2.35 0 3.815 1.109 1.316.978 1.542 2.556h-1.974q-.17-1.072-1.128-1.597-.845-.49-2.255-.49-1.58 0-2.331.602-.601.47-.601 1.222 0 .489.15.808.17.301.564.545.733.489 2.838 1.072 2.933.827 3.966 1.88.865.864.865 2.368 0 1.785-1.56 2.95-1.466 1.072-3.722 1.072-2.349 0-3.891-1.26-1.334-1.09-1.597-2.819h1.973q.189 1.24 1.184 1.899.903.6 2.293.601 1.73 0 2.651-.79.752-.638.752-1.578M141.022 6.467V20h-1.804V6.467zM130.925 12.952h-1.917q.151-1.467 1.391-2.275 1.109-.732 2.801-.733 2.011 0 3.082 1.053.903.902.902 2.33V20H135.7l-.226-1.334q-1.146 1.616-3.27 1.616-1.674 0-2.613-.902-.771-.752-.771-1.899 0-1.447.996-2.236.884-.696 2.707-1.015l2.857-.489v-.489q0-.958-.658-1.447-.583-.432-1.597-.432-1.993 0-2.2 1.579m1.711 5.808q1.146 0 1.992-.752.752-.695.752-1.598v-1.26l-2.425.433q-1.334.225-1.823.696-.395.375-.395 1.015 0 .714.489 1.09.489.375 1.41.376M119.915 20h-1.485V6.467h1.804v5.112q1.147-1.635 3.271-1.635 2.105 0 3.27 1.504 1.034 1.353 1.034 3.59 0 2.65-1.41 4.06-1.184 1.184-3.026 1.184-2.086 0-3.177-1.58zm6.014-5q0-1.842-.921-2.763-.733-.752-1.917-.752-1.372 0-2.18.997-.771.958-.771 2.518 0 1.88.921 2.876.77.864 2.03.864 1.41 0 2.143-1.033.695-.96.695-2.707M107.225 15.113q0-2.688 1.597-4.06 1.278-1.109 3.233-1.109 2.274 0 3.571 1.448 1.24 1.353 1.241 3.721 0 2.65-1.56 4.041-1.278 1.128-3.271 1.128-2.274 0-3.59-1.504-1.221-1.371-1.221-3.665m1.879 0q0 1.88.959 2.876.789.827 2.011.827 1.428 0 2.199-1.071.714-.979.714-2.632 0-1.917-.94-2.894-.77-.81-1.992-.809-1.41 0-2.199 1.072-.752.977-.752 2.631M105.651 6.467V20h-1.804V6.467zM101.823 12.726V20h-1.41l-.263-1.616q-.677.958-1.861 1.447-1.035.45-2.293.45-2.8 0-4.474-2.067-1.522-1.916-1.522-5 0-3.57 2.049-5.488 1.653-1.54 4.154-1.54 2.424 0 4.022 1.39 1.353 1.166 1.579 2.857h-1.88q-.263-1.335-1.372-2.03-.958-.62-2.35-.62-2.01 0-3.157 1.522-1.09 1.447-1.09 3.91 0 2.782 1.466 4.285 1.147 1.203 2.8 1.203 1.73 0 2.857-1.071 1.015-.94 1.015-2.312v-1.053h-3.966v-1.541z"/></svg>