<svg xmlns="http://www.w3.org/2000/svg" width="287" height="41" fill="none" viewBox="0 0 287 41"><g clip-path="url(#a)"><path fill="#000" d="M149.444 25.3h-2.535V15.33q0-1.224.151-2.997h-.043q-.237 1.01-.419 1.45L142 25.3h-1.762l-4.608-11.43q-.193-.504-.408-1.536h-.043q.086.924.086 3.018V25.3h-2.364V9.896h3.599l4.05 10.258q.462 1.182.601 1.762h.054q.397-1.214.645-1.805l4.125-10.215h3.469zM153.725 11.99q-.614 0-1.053-.397a1.31 1.31 0 0 1-.43-1.01q0-.612.43-1.02a1.5 1.5 0 0 1 1.053-.409q.633 0 1.074.409.44.408.44 1.02 0 .58-.44.999a1.52 1.52 0 0 1-1.074.408m1.235 13.31h-2.492v-11h2.492zM165.6 24.795q-1.321.762-3.126.763-2.45 0-3.953-1.526-1.504-1.536-1.504-3.974 0-2.718 1.611-4.362 1.621-1.654 4.329-1.654 1.504 0 2.653.526v2.32q-1.149-.858-2.449-.859-1.58 0-2.589 1.075-1.01 1.064-1.01 2.793 0 1.707.946 2.696.956.988 2.556.988 1.344 0 2.536-.956zM173.962 16.674q-.451-.354-1.3-.355-1.106 0-1.848 1-.741.998-.741 2.717V25.3h-2.492v-11h2.492v2.266h.043q.366-1.16 1.117-1.804.763-.656 1.698-.656.677 0 1.031.204zM179.907 25.558q-2.546 0-4.071-1.537-1.515-1.546-1.515-4.092 0-2.772 1.579-4.33 1.59-1.557 4.276-1.557 2.579 0 4.017 1.515 1.44 1.515 1.44 4.2 0 2.632-1.558 4.221-1.546 1.58-4.168 1.58m.118-9.529q-1.46 0-2.309 1.02-.849 1.022-.849 2.815 0 1.73.86 2.729.859.988 2.298.988 1.472 0 2.256-.977.795-.978.795-2.783 0-1.815-.795-2.803-.784-.99-2.256-.989M186.991 24.956v-2.31q1.397 1.065 3.083 1.064 2.256 0 2.256-1.332 0-.375-.193-.634a1.8 1.8 0 0 0-.527-.473 4 4 0 0 0-.773-.365q-.44-.16-.988-.365-.678-.268-1.225-.57a3.9 3.9 0 0 1-.902-.676 2.7 2.7 0 0 1-.537-.87 3.2 3.2 0 0 1-.183-1.128q0-.795.376-1.397a3.2 3.2 0 0 1 1.01-1.02q.633-.42 1.439-.623a6.4 6.4 0 0 1 1.665-.215q1.526 0 2.729.462v2.18q-1.161-.795-2.664-.794-.473 0-.86.096-.375.097-.644.269a1.3 1.3 0 0 0-.419.419.96.96 0 0 0-.151.526q0 .354.151.602.15.247.44.44.301.183.709.344.419.15.956.333.709.29 1.268.59.569.301.967.688.397.375.612.881.215.494.215 1.182 0 .837-.387 1.46-.387.624-1.031 1.032-.645.408-1.493.602a7.5 7.5 0 0 1-1.773.204q-1.804 0-3.126-.602M201.552 25.558q-2.547 0-4.072-1.537-1.514-1.546-1.514-4.092 0-2.772 1.579-4.33 1.59-1.557 4.275-1.557 2.578 0 4.018 1.515t1.439 4.2q0 2.632-1.557 4.221-1.548 1.58-4.168 1.58m.118-9.529q-1.461 0-2.31 1.02-.848 1.022-.848 2.815 0 1.73.859 2.729.86.988 2.299.988 1.472 0 2.256-.977.795-.978.795-2.783 0-1.815-.795-2.803-.784-.99-2.256-.989M215.543 11.045a2.27 2.27 0 0 0-1.149-.29q-1.816 0-1.816 2.052V14.3h2.557v1.955h-2.546V25.3h-2.492v-9.045h-1.88V14.3h1.88v-1.783q0-1.74 1.138-2.74 1.138-1.01 2.847-1.01.924 0 1.461.205z"/><path fill="#000" d="M221.708 25.182q-.73.365-1.923.365-3.201 0-3.201-3.072v-6.22h-1.837V14.3h1.837v-2.546l2.492-.71V14.3h2.632v1.955h-2.632v5.5q0 .978.355 1.396.354.42 1.181.42.634 0 1.096-.366zM239.077 12.065h-4.426V25.3h-2.556V12.065h-4.415v-2.17h11.397zM247.719 20.477h-7.498q.042 1.525.934 2.352.903.827 2.471.827 1.761 0 3.233-1.052v2.008q-1.503.945-3.974.946-2.428 0-3.814-1.494-1.375-1.504-1.375-4.221 0-2.568 1.515-4.179 1.525-1.622 3.781-1.622t3.491 1.45 1.236 4.028zm-2.407-1.762q-.01-1.343-.633-2.084-.624-.752-1.719-.752-1.074 0-1.826.784-.742.785-.913 2.052zM258.036 25.3h-2.417V23.58h-.043q-1.139 1.977-3.341 1.977-1.622 0-2.546-.881-.912-.88-.913-2.331 0-3.115 3.588-3.631l3.266-.462q0-2.353-2.234-2.353-1.967 0-3.545 1.354v-2.18q1.74-1.032 4.017-1.032 4.168 0 4.168 4.103zm-2.406-5.404-2.31.323q-1.074.14-1.622.526-.537.376-.537 1.332 0 .699.494 1.15.505.44 1.343.44 1.139 0 1.88-.795.752-.805.752-2.02zM277.033 25.3h-2.492v-5.994q0-1.73-.494-2.503-.483-.774-1.644-.774-.976 0-1.665.978-.676.977-.676 2.342v5.95h-2.503v-6.197q0-3.073-2.17-3.073-1.011 0-1.665.924-.645.924-.645 2.396v5.95h-2.492v-11h2.492v1.741h.043q1.193-1.998 3.47-1.998 1.138 0 1.987.634.86.623 1.171 1.643 1.224-2.277 3.652-2.277 3.631 0 3.631 4.48zM278.886 24.956v-2.31q1.396 1.065 3.083 1.064 2.256 0 2.256-1.332 0-.375-.194-.634a1.8 1.8 0 0 0-.526-.473 4 4 0 0 0-.774-.365q-.44-.16-.988-.365a11 11 0 0 1-1.224-.57 3.9 3.9 0 0 1-.903-.676 2.7 2.7 0 0 1-.537-.87 3.2 3.2 0 0 1-.183-1.128q0-.795.376-1.397a3.2 3.2 0 0 1 1.01-1.02q.635-.42 1.44-.623a6.4 6.4 0 0 1 1.665-.215q1.525 0 2.728.462v2.18q-1.16-.795-2.664-.794-.472 0-.859.096a2.2 2.2 0 0 0-.645.269 1.3 1.3 0 0 0-.419.419.96.96 0 0 0-.15.526q0 .354.15.602.15.247.441.44.3.183.709.344.419.15.956.333.708.29 1.267.59.57.301.967.688.397.375.612.881.216.494.215 1.182 0 .837-.386 1.46-.387.624-1.032 1.032a4.7 4.7 0 0 1-1.493.602 7.5 7.5 0 0 1-1.772.204q-1.804 0-3.126-.602"/><path stroke="#000" stroke-miterlimit="10" stroke-width="3" d="m114.12.3-.03 32.12"/><path fill="#000" d="M79.977 33.2H78.66v5.25h1.318zM90.659 34.705a2.3 2.3 0 0 0-1.112-.28c-.858 0-1.453.596-1.453 1.4 0 .78.57 1.401 1.453 1.401.388.002.77-.094 1.112-.278v1.409c-.392.12-.798.183-1.207.186-1.49 0-2.796-1.025-2.796-2.718 0-1.567 1.183-2.717 2.796-2.717.41.001.816.065 1.207.188zM76.833 34.705a2.3 2.3 0 0 0-1.113-.28c-.858 0-1.451.596-1.451 1.4 0 .78.568 1.401 1.45 1.401.39.001.772-.094 1.114-.278v1.409c-.392.12-.799.183-1.208.186-1.49 0-2.796-1.025-2.796-2.718 0-1.567 1.183-2.717 2.796-2.717.41.001.817.065 1.208.188zM94.826 34.444a1.356 1.356 0 0 0-1.37 1.38 1.36 1.36 0 0 0 1.37 1.383 1.36 1.36 0 0 0 1.273-.852c.068-.168.1-.349.098-.53a1.36 1.36 0 0 0-1.371-1.381m2.774 1.38c0 1.503-1.159 2.719-2.774 2.719s-2.772-1.216-2.772-2.718 1.158-2.717 2.772-2.717 2.774 1.217 2.774 2.717M85.001 34.394a4.6 4.6 0 0 0-1.035-.16c-.53 0-.819.178-.819.43 0 .32.39.439.606.5l.366.116c.86.274 1.251.863 1.251 1.503 0 1.318-1.158 1.757-2.173 1.757a8 8 0 0 1-1.43-.146v-1.209c.407.118.828.184 1.251.195.66 0 .962-.192.962-.49 0-.266-.262-.42-.585-.523l-.283-.091c-.732-.233-1.353-.666-1.353-1.536 0-.981.732-1.64 1.956-1.64.435.006.868.062 1.29.167zM63.576 38.433H63v-5.239h.699v1.979a1.45 1.45 0 0 1 1.266-.633 1.5 1.5 0 0 1 1.266.586q.4.525.4 1.39 0 1.025-.546 1.571a1.59 1.59 0 0 1-1.171.458 1.4 1.4 0 0 1-1.23-.61zm2.327-1.936q-.001-.714-.356-1.07a.99.99 0 0 0-.743-.292 1.03 1.03 0 0 0-.843.385 1.5 1.5 0 0 0-.293.975q0 .728.357 1.113a1 1 0 0 0 .785.336.95.95 0 0 0 .83-.402q.265-.369.265-1.045zM70.373 34.65l-1.319 3.833q-.263.765-.502 1.042a.93.93 0 0 1-.732.326 2 2 0 0 1-.451-.064v-.572q.18.048.365.052a.42.42 0 0 0 .348-.157q.201-.319.314-.68h-.226l-1.39-3.783h.749l1.07 3.221 1.07-3.221zM23.743 8.436h3.734l-5.43 16.412h-4.284l-4.058-12.385-4.058 12.385H5.43L0 8.436h3.822l3.852 12.472 4.043-12.472h4.058l4.11 12.539zM43.494 17.959H31.38c.112.846.43 1.652.925 2.348a4.2 4.2 0 0 0 1.72 1.386c.7.303 1.457.455 2.22.447a7.2 7.2 0 0 0 2.475-.452 8 8 0 0 0 2.27-1.279l1.783 2.569a9 9 0 0 1-3.113 1.772c-1.176.37-2.403.551-3.636.54a8.7 8.7 0 0 1-4.351-1.07 7.6 7.6 0 0 1-2.975-3.03 9.3 9.3 0 0 1-1.068-4.53 9.5 9.5 0 0 1 1.027-4.5 7.57 7.57 0 0 1 2.887-3.047 8.2 8.2 0 0 1 4.248-1.089 7.31 7.31 0 0 1 6.776 4.11 9.84 9.84 0 0 1 .986 4.49q.008.517-.062 1.335m-3.596-2.723a5.08 5.08 0 0 0-1.372-3 3.82 3.82 0 0 0-2.794-1.027 4.02 4.02 0 0 0-2.938 1.09 5.2 5.2 0 0 0-1.413 2.953zM58.817 9.124a8 8 0 0 1 2.964 3.082 9.03 9.03 0 0 1 1.089 4.438 9 9 0 0 1-1.089 4.433 7.97 7.97 0 0 1-7.12 4.197 6.7 6.7 0 0 1-2.964-.622 6.1 6.1 0 0 1-2.172-1.757v1.953h-3.596V1.448h3.596v8.938a6.2 6.2 0 0 1 2.172-1.746 6.64 6.64 0 0 1 2.964-.627 7.97 7.97 0 0 1 4.156 1.11M56.855 21.2a4.6 4.6 0 0 0 1.73-1.905 6.17 6.17 0 0 0 0-5.307 4.66 4.66 0 0 0-1.73-1.905 5.24 5.24 0 0 0-5.199 0 4.7 4.7 0 0 0-1.746 1.885 5.7 5.7 0 0 0-.627 2.691 5.65 5.65 0 0 0 .627 2.687c.395.779 1 1.432 1.746 1.885a5.23 5.23 0 0 0 5.199 0zM80.613 17.96H68.505c.112.846.43 1.652.925 2.347a4.2 4.2 0 0 0 1.72 1.387c.7.302 1.457.455 2.22.447a7.2 7.2 0 0 0 2.475-.452 8 8 0 0 0 2.271-1.28l1.777 2.57a9 9 0 0 1-3.107 1.771 11.8 11.8 0 0 1-3.642.54 8.73 8.73 0 0 1-4.351-1.069 7.6 7.6 0 0 1-2.97-3.03 9.3 9.3 0 0 1-1.073-4.531 9.53 9.53 0 0 1 1.027-4.5 7.57 7.57 0 0 1 2.887-3.046 8.2 8.2 0 0 1 4.28-1.105 7.33 7.33 0 0 1 6.775 4.11 9.84 9.84 0 0 1 .986 4.49c-.02.359-.056.806-.093 1.35m-3.596-2.723a5.1 5.1 0 0 0-1.377-2.98 3.83 3.83 0 0 0-2.784-1.047 4 4 0 0 0-2.938 1.089 5.2 5.2 0 0 0-1.413 2.953zM97.693 24.848H93.29l-4.16-5.707-4.11 5.707h-4.197l6.165-8.378-6.067-8.034h4.407l4.007 5.48 4.007-5.48H97.6l-6.092 8.003z"/></g><defs><clipPath id="a"><path fill="#fff" d="M0 .3h287v40H0z"/></clipPath></defs></svg>