<svg xmlns="http://www.w3.org/2000/svg" width="378" height="24" fill="none" viewBox="0 0 378 24"><path fill="#fff" d="M19.948 6.22h3.137l-4.562 13.789h-3.599l-3.41-10.406L8.105 20.01H4.562L0 6.219h3.211L6.448 16.7l3.396-10.48h3.41l3.452 10.536zM36.542 14.221H26.365a4.4 4.4 0 0 0 .777 1.973c.369.51.868.913 1.446 1.165a4.6 4.6 0 0 0 1.864.375 6 6 0 0 0 2.08-.38 6.8 6.8 0 0 0 1.908-1.074l1.498 2.158a7.6 7.6 0 0 1-2.616 1.489c-.988.31-2.02.463-3.055.453a7.3 7.3 0 0 1-3.656-.898 6.37 6.37 0 0 1-2.499-2.546 7.8 7.8 0 0 1-.897-3.807 8 8 0 0 1 .863-3.78 6.36 6.36 0 0 1 2.425-2.56 6.9 6.9 0 0 1 3.57-.915 6.14 6.14 0 0 1 5.692 3.453 8.26 8.26 0 0 1 .829 3.772q.006.436-.052 1.122m-3.021-2.287a4.26 4.26 0 0 0-1.153-2.52 3.2 3.2 0 0 0-2.347-.864 3.38 3.38 0 0 0-2.469.915 4.38 4.38 0 0 0-1.187 2.482zM49.416 6.798a6.7 6.7 0 0 1 2.49 2.59 7.6 7.6 0 0 1 .915 3.728 7.57 7.57 0 0 1-.915 3.725 6.7 6.7 0 0 1-5.981 3.526 5.6 5.6 0 0 1-2.49-.523 5.1 5.1 0 0 1-1.826-1.476v1.64h-3.021V.35h3.02v7.51a5.2 5.2 0 0 1 1.827-1.468 5.6 5.6 0 0 1 2.49-.526 6.7 6.7 0 0 1 3.491.932m-1.648 10.146a3.9 3.9 0 0 0 1.454-1.6 5.18 5.18 0 0 0 0-4.46 3.9 3.9 0 0 0-1.454-1.6 4.4 4.4 0 0 0-4.368 0c-.627.38-1.136.93-1.467 1.584a4.8 4.8 0 0 0-.527 2.261c-.014.785.167 1.56.527 2.257.331.655.84 1.203 1.467 1.584a4.4 4.4 0 0 0 4.368 0zM67.727 14.221H57.555a4.4 4.4 0 0 0 .777 1.973c.368.51.868.913 1.446 1.165a4.6 4.6 0 0 0 1.864.375 6 6 0 0 0 2.08-.38 6.8 6.8 0 0 0 1.908-1.074l1.493 2.158a7.5 7.5 0 0 1-2.611 1.489c-.99.31-2.023.463-3.06.453a7.34 7.34 0 0 1-3.655-.898 6.4 6.4 0 0 1-2.495-2.546 7.8 7.8 0 0 1-.902-3.807 8 8 0 0 1 .863-3.78 6.36 6.36 0 0 1 2.426-2.56 6.9 6.9 0 0 1 3.595-.927 6.15 6.15 0 0 1 5.692 3.452 8.3 8.3 0 0 1 .829 3.772c-.017.302-.048.678-.078 1.135m-3.02-2.287A4.3 4.3 0 0 0 63.55 9.43a3.22 3.22 0 0 0-2.34-.88 3.37 3.37 0 0 0-2.468.914 4.36 4.36 0 0 0-1.187 2.482zM82.077 20.009H78.38l-3.496-4.795-3.453 4.795h-3.526l5.18-7.04-5.098-6.75h3.703l3.367 4.606 3.366-4.605H82l-5.119 6.724zM100.385 15.133h1.978c-.15 2.688-2.513 5.167-6.027 5.167-3.857 0-6.336-2.596-6.336-7.204C90 8.438 92.688 5.9 96.486 5.9c3.323 0 5.66 2.187 5.852 4.725h-1.978c-.251-1.878-1.745-3.089-3.882-3.089-2.646 0-4.491 1.82-4.491 5.568 0 3.573 1.786 5.551 4.374 5.551 2.262-.008 3.907-1.527 4.024-3.522M108.356 9.74c2.722 0 4.917 1.686 4.917 5.276 0 3.497-2.112 5.275-4.933 5.275-2.78 0-4.917-1.82-4.917-5.275 0-3.59 2.229-5.276 4.933-5.276m.017 9.057c1.77 0 2.972-1.302 2.972-3.781 0-2.538-1.286-3.782-2.997-3.782s-3.013 1.286-3.013 3.782c.008 2.479 1.31 3.781 3.038 3.781M114.901 20.008v-9.984h1.52l.208 1.268a3.67 3.67 0 0 1 3.031-1.552c2.17 0 3.531 1.327 3.531 3.765v6.51h-1.845v-6.494c0-1.494-.768-2.203-2.129-2.203-1.327 0-2.479.96-2.479 2.537v6.16h-1.837zM125.311 20.008v-9.984h1.519l.209 1.268a3.66 3.66 0 0 1 3.03-1.552c2.17 0 3.531 1.327 3.531 3.765v6.51h-1.845v-6.494c0-1.494-.768-2.203-2.129-2.203-1.327 0-2.479.96-2.479 2.537v6.16h-1.836zM144.503 17.128c-.501 1.82-2.07 3.163-4.474 3.163-2.839 0-4.892-1.77-4.892-5.275 0-3.473 2.037-5.276 4.8-5.276s4.683 1.653 4.683 5.685h-7.605c.15 2.304 1.402 3.322 3.072 3.322 1.21 0 2.129-.693 2.421-1.611h1.995zm-7.405-3.164h5.644c-.134-1.862-1.228-2.747-2.764-2.747-1.477 0-2.596.902-2.88 2.747M154.871 16.802c-.268 1.937-1.904 3.498-4.375 3.498-2.646 0-4.725-1.82-4.725-5.2 0-3.34 1.879-5.36 4.7-5.36 2.263 0 3.991 1.21 4.316 3.247h-2.037c-.25-1.094-1.077-1.686-2.245-1.686-1.636 0-2.78 1.21-2.78 3.857 0 2.437 1.252 3.59 2.805 3.59 1.227 0 2.128-.694 2.32-1.938h2.021zM160.958 20.108a5 5 0 0 1-1.361.192c-1.77 0-2.671-1.11-2.671-2.763v-5.935h-1.478v-1.578h1.478l.117-2.396h1.728v2.396h2.153v1.578h-2.153v5.968c0 .752.367 1.11 1.051 1.11.326 0 .576-.016 1.136-.15z"/></svg>