<svg xmlns="http://www.w3.org/2000/svg" width="380" height="24" fill="none" viewBox="0 0 380 24"><path fill="#000" d="M20.895 6.22h3.137l-4.561 13.789h-3.6l-3.41-10.406L9.053 20.01H5.51L.947 6.219h3.211L7.395 16.7l3.397-10.48h3.41l3.452 10.536zM37.489 14.221H27.312a4.4 4.4 0 0 0 .777 1.973c.369.51.868.913 1.446 1.165a4.6 4.6 0 0 0 1.864.375 6 6 0 0 0 2.08-.38 6.8 6.8 0 0 0 1.908-1.074l1.498 2.158a7.6 7.6 0 0 1-2.615 1.489c-.989.31-2.02.463-3.056.453a7.3 7.3 0 0 1-3.656-.898 6.37 6.37 0 0 1-2.498-2.546 7.8 7.8 0 0 1-.898-3.807 8 8 0 0 1 .863-3.78 6.36 6.36 0 0 1 2.426-2.56 6.9 6.9 0 0 1 3.569-.915 6.14 6.14 0 0 1 5.692 3.453 8.26 8.26 0 0 1 .829 3.772q.006.436-.052 1.122m-3.021-2.287a4.26 4.26 0 0 0-1.152-2.52 3.2 3.2 0 0 0-2.348-.864 3.38 3.38 0 0 0-2.469.915 4.38 4.38 0 0 0-1.187 2.482zM50.364 6.798a6.7 6.7 0 0 1 2.49 2.59 7.6 7.6 0 0 1 .915 3.728 7.57 7.57 0 0 1-.915 3.725 6.7 6.7 0 0 1-5.982 3.526 5.6 5.6 0 0 1-2.49-.523 5.1 5.1 0 0 1-1.826-1.476v1.64h-3.02V.35h3.02v7.51a5.2 5.2 0 0 1 1.826-1.468 5.6 5.6 0 0 1 2.49-.526 6.7 6.7 0 0 1 3.492.932m-1.65 10.146a3.9 3.9 0 0 0 1.455-1.6 5.18 5.18 0 0 0 0-4.46 3.9 3.9 0 0 0-1.454-1.6 4.4 4.4 0 0 0-4.368 0c-.627.38-1.135.93-1.467 1.584a4.8 4.8 0 0 0-.527 2.261c-.013.785.168 1.56.527 2.257.332.655.84 1.203 1.467 1.584a4.4 4.4 0 0 0 4.368 0zM68.675 14.221H58.501a4.4 4.4 0 0 0 .777 1.973c.369.51.868.913 1.446 1.165a4.6 4.6 0 0 0 1.864.375 6 6 0 0 0 2.08-.38 6.8 6.8 0 0 0 1.908-1.074l1.493 2.158a7.5 7.5 0 0 1-2.61 1.489c-.99.31-2.023.463-3.06.453a7.34 7.34 0 0 1-3.656-.898 6.4 6.4 0 0 1-2.495-2.546 7.8 7.8 0 0 1-.902-3.807 8 8 0 0 1 .864-3.78 6.36 6.36 0 0 1 2.425-2.56 6.9 6.9 0 0 1 3.595-.927 6.15 6.15 0 0 1 5.693 3.452 8.26 8.26 0 0 1 .828 3.772c-.017.302-.047.678-.078 1.135m-3.022-2.287a4.3 4.3 0 0 0-1.156-2.503 3.22 3.22 0 0 0-2.34-.88 3.37 3.37 0 0 0-2.468.914 4.35 4.35 0 0 0-1.187 2.482zM83.025 20.009h-3.699l-3.496-4.795-3.452 4.795h-3.526l5.179-7.04-5.097-6.75h3.703l3.366 4.606 3.366-4.605h3.578l-5.119 6.724zM100.812 17.026a4.5 4.5 0 0 1-.601 1.305 4 4 0 0 1-.976 1.027 4.7 4.7 0 0 1-1.342.678 5.5 5.5 0 0 1-1.69.253 5.8 5.8 0 0 1-2.03-.34 4.24 4.24 0 0 1-1.595-1.018 4.6 4.6 0 0 1-1.045-1.74 6.8 6.8 0 0 1-.375-2.384c-.017-.803.11-1.601.375-2.359a4.7 4.7 0 0 1 1.028-1.697c.432-.459.966-.81 1.56-1.026a5.4 5.4 0 0 1 1.977-.348c.668-.01 1.331.1 1.96.321a3.75 3.75 0 0 1 1.525 1.045c.453.53.788 1.15.985 1.818.26.864.38 1.762.357 2.663h-7.841a3.75 3.75 0 0 0 1.001 2.61 3.08 3.08 0 0 0 2.161.819 2.6 2.6 0 0 0 1.612-.479c.42-.282.727-.7.872-1.183zm-4.67-6.092a2.9 2.9 0 0 0-1.952.696 3.43 3.43 0 0 0-1.02 2.132h5.821c0-.797-.313-1.562-.871-2.132a2.86 2.86 0 0 0-1.978-.687zM107.338 5.765a9 9 0 0 1 2.875.426 5.6 5.6 0 0 1 2.213 1.305 5.85 5.85 0 0 1 1.429 2.21 9.1 9.1 0 0 1 .505 3.168 8.3 8.3 0 0 1-.531 3.054 5.98 5.98 0 0 1-3.738 3.594 8.5 8.5 0 0 1-2.875.47h-4.487V5.765zm-2.614 1.6V18.33h2.675a4.7 4.7 0 0 0 3.624-1.375 5.77 5.77 0 0 0 1.281-4.063 7.8 7.8 0 0 0-.348-2.437 4.6 4.6 0 0 0-.994-1.74 4 4 0 0 0-1.551-1.045 6 6 0 0 0-2.056-.33zM115.902 7.992V5.765h2.152v2.227zm.122 12V9.715h1.9v10.277zM126.114 17.243a1.3 1.3 0 0 0-.209-.757 1.7 1.7 0 0 0-.593-.496 5 5 0 0 0-.941-.34c-.374-.104-.784-.2-1.245-.304a5.7 5.7 0 0 1-2.614-1.114 2.38 2.38 0 0 1-.785-1.854 2.62 2.62 0 0 1 1.02-2.123 5.73 5.73 0 0 1 5.829 0 3.32 3.32 0 0 1 1.368 2.21h-1.943a1.74 1.74 0 0 0-.732-1.105 3.42 3.42 0 0 0-3.128 0 1.09 1.09 0 0 0-.488.87c-.005.18.027.357.096.522a.97.97 0 0 0 .357.4q.338.223.723.34.597.192 1.211.313.831.18 1.638.444c.448.145.871.356 1.255.627.332.241.606.553.802.913.303.614.383 1.315.224 1.98a2.94 2.94 0 0 1-1.096 1.667 4.1 4.1 0 0 1-1.341.678 6.4 6.4 0 0 1-1.821.235 5.12 5.12 0 0 1-3.12-.87 3.22 3.22 0 0 1-1.315-2.367h1.943a1.82 1.82 0 0 0 .793 1.34 3.15 3.15 0 0 0 1.742.4 2.84 2.84 0 0 0 1.743-.452 1.37 1.37 0 0 0 .627-1.157M138.391 16.686c-.06.495-.217.974-.462 1.41-.242.433-.561.82-.941 1.14-.4.341-.861.604-1.359.774a5.5 5.5 0 0 1-3.66-.07 4.2 4.2 0 0 1-1.551-1.027 5.1 5.1 0 0 1-1.037-1.67 6.7 6.7 0 0 1-.374-2.306 7.1 7.1 0 0 1 .348-2.306c.201-.645.54-1.24.994-1.74.423-.47.943-.84 1.524-1.088a5.05 5.05 0 0 1 1.987-.375 4.96 4.96 0 0 1 2.971.87 3.6 3.6 0 0 1 1.473 2.463h-2.092a2.14 2.14 0 0 0-.801-1.296 2.5 2.5 0 0 0-1.516-.444 2.62 2.62 0 0 0-2.065.957 4.66 4.66 0 0 0-.802 3.01c-.01.558.067 1.112.227 1.646.126.416.333.803.61 1.14.251.296.567.531.923.687.356.15.738.226 1.124.226a2.5 2.5 0 0 0 1.595-.513c.446-.377.733-.909.801-1.488zM139.385 14.85c-.02-.822.119-1.641.409-2.41a4.85 4.85 0 0 1 1.098-1.741 4.4 4.4 0 0 1 1.612-1 5.8 5.8 0 0 1 1.96-.323 6 6 0 0 1 1.987.322 4.4 4.4 0 0 1 1.612 1 4.8 4.8 0 0 1 1.072 1.741c.283.772.419 1.59.4 2.41a6.6 6.6 0 0 1-.392 2.368 4.65 4.65 0 0 1-1.063 1.74 4.4 4.4 0 0 1-1.612 1.027 5.9 5.9 0 0 1-2.021.348 5.8 5.8 0 0 1-1.995-.348 4.35 4.35 0 0 1-1.612-1.036 5 5 0 0 1-1.072-1.705 6.7 6.7 0 0 1-.383-2.393m1.978 0a5.5 5.5 0 0 0 .235 1.68c.135.447.357.864.653 1.226.268.322.609.575.994.74.393.17.817.255 1.246.252a2.78 2.78 0 0 0 2.213-.992c.63-.833.939-1.864.871-2.906a5.3 5.3 0 0 0-.244-1.697 3.7 3.7 0 0 0-.645-1.227 2.7 2.7 0 0 0-.984-.731 3.1 3.1 0 0 0-1.22-.235 3.2 3.2 0 0 0-1.22.244 2.7 2.7 0 0 0-.993.748 3.5 3.5 0 0 0-.654 1.21 5.5 5.5 0 0 0-.252 1.688M159.303 9.716l-3.616 10.277h-2.571l-3.581-10.277h2.074l2.849 8.702 2.867-8.702zM168.956 17.025a4.2 4.2 0 0 1-.592 1.305 4 4 0 0 1-.976 1.027 4.7 4.7 0 0 1-1.342.679 5.5 5.5 0 0 1-1.743.252 5.8 5.8 0 0 1-2.021-.34 4.2 4.2 0 0 1-1.533-1.017 4.5 4.5 0 0 1-1.046-1.74 6.8 6.8 0 0 1-.383-2.385 6.7 6.7 0 0 1 .383-2.358 4.7 4.7 0 0 1 1.046-1.654c.432-.46.966-.81 1.559-1.027a5.4 5.4 0 0 1 1.926-.356 5.7 5.7 0 0 1 1.96.322 3.75 3.75 0 0 1 1.525 1.044c.452.53.788 1.15.985 1.819.255.864.375 1.762.357 2.662h-7.842a3.75 3.75 0 0 0 1.002 2.611 3.08 3.08 0 0 0 2.161.818 2.62 2.62 0 0 0 1.612-.479c.419-.281.727-.7.871-1.183zm-4.661-6.091a2.9 2.9 0 0 0-1.952.696 3.43 3.43 0 0 0-1.019 2.132h5.82a3 3 0 0 0-.871-2.132 2.83 2.83 0 0 0-1.978-.688zM170.761 19.993V9.715h1.559l.262 1.523a2.78 2.78 0 0 1 2.614-1.818q.333-.003.662.052c.192 0 .34.06.462.087v1.897a6 6 0 0 0-.575-.13 3.7 3.7 0 0 0-.628-.053 2.5 2.5 0 0 0-.941.192 2 2 0 0 0-.784.609 3.2 3.2 0 0 0-.531 1.114 6 6 0 0 0-.201 1.644v5.16z"/><path fill="#000" d="M182.218 20.132c-.201.566-.392 1.07-.584 1.532-.173.417-.402.81-.68 1.166a2.8 2.8 0 0 1-.871.748 2.6 2.6 0 0 1-1.211.261 4 4 0 0 1-.567 0c-.165 0-.383-.07-.662-.14v-1.574q.483.132.985.139c.202.005.403-.04.584-.13.179-.096.329-.237.435-.41q.223-.328.375-.696c.131-.287.261-.626.409-1.035h-.609L176.04 9.716h2.056l2.91 8.702 2.911-8.702h1.899zM200.751 16.138a2.3 2.3 0 0 0-.157-.87 1.74 1.74 0 0 0-.645-.723 6 6 0 0 0-1.368-.661 28 28 0 0 0-2.317-.723 13 13 0 0 1-2.083-.73 5 5 0 0 1-1.333-.87 2.85 2.85 0 0 1-.714-1.088 3.9 3.9 0 0 1-.209-1.323 3.17 3.17 0 0 1 .339-1.48c.238-.458.578-.857.994-1.165a4.8 4.8 0 0 1 1.594-.766 7.6 7.6 0 0 1 2.178-.279 8.1 8.1 0 0 1 2.118.261 6.1 6.1 0 0 1 1.742.766c.465.315.865.717 1.177 1.184.318.49.524 1.047.601 1.627h-2.074a2.23 2.23 0 0 0-1.063-1.627 4.7 4.7 0 0 0-2.501-.566c-.469-.01-.937.04-1.394.148-.341.074-.666.21-.958.4a1.64 1.64 0 0 0-.558.618c-.113.233-.172.49-.174.748-.004.253.04.504.131.74.113.248.294.46.522.61q.527.356 1.124.574.965.361 1.961.626 1.268.338 2.466.87c.562.25 1.085.581 1.551.984.391.32.691.737.871 1.21.172.47.255.969.244 1.47a3.7 3.7 0 0 1-.366 1.592 4.1 4.1 0 0 1-1.124 1.288 5.2 5.2 0 0 1-1.743.94c-.763.24-1.56.358-2.361.348a7.4 7.4 0 0 1-2.143-.305 6.1 6.1 0 0 1-1.743-.87 4.8 4.8 0 0 1-1.263-1.349 4.35 4.35 0 0 1-.628-1.74h2.074a2.83 2.83 0 0 0 1.115 1.915 4.1 4.1 0 0 0 2.545.713 5.2 5.2 0 0 0 1.559-.2 3.4 3.4 0 0 0 1.124-.54 2.4 2.4 0 0 0 .671-.791c.148-.3.223-.632.218-.966M213.515 17.026a4.5 4.5 0 0 1-.601 1.305 4 4 0 0 1-.976 1.027 4.7 4.7 0 0 1-1.342.678 5.5 5.5 0 0 1-1.69.253 5.8 5.8 0 0 1-2.03-.34 4.24 4.24 0 0 1-1.595-1.018 4.6 4.6 0 0 1-1.045-1.74 6.8 6.8 0 0 1-.375-2.384c-.016-.803.11-1.601.375-2.359a4.7 4.7 0 0 1 1.028-1.697c.434-.457.967-.809 1.56-1.026a5.4 5.4 0 0 1 1.977-.348c.668-.01 1.332.1 1.961.321a3.75 3.75 0 0 1 1.525 1.045c.452.53.787 1.15.984 1.818.26.864.38 1.762.357 2.663h-7.841a3.74 3.74 0 0 0 1.002 2.61 3.08 3.08 0 0 0 2.16.819 2.6 2.6 0 0 0 1.612-.479c.419-.282.727-.7.872-1.183zm-4.67-6.092a2.9 2.9 0 0 0-1.952.696 3.43 3.43 0 0 0-1.019 2.132h5.82c0-.797-.313-1.562-.871-2.132a2.86 2.86 0 0 0-1.978-.687zM214.918 12.579a3.17 3.17 0 0 1 1.315-2.298 5 5 0 0 1 3.094-.87 5.7 5.7 0 0 1 1.795.261c.485.148.933.397 1.315.731.348.312.624.695.811 1.123.175.463.255.958.235 1.453v7.014h-1.56l-.183-1.41a4.4 4.4 0 0 1-1.359 1.21 4.03 4.03 0 0 1-2.082.496 4.8 4.8 0 0 1-1.517-.227 3.5 3.5 0 0 1-1.115-.626 2.6 2.6 0 0 1-.697-.931 2.8 2.8 0 0 1-.235-1.166 2.85 2.85 0 0 1 .906-2.228 5.8 5.8 0 0 1 2.98-1.183l3.006-.514v-.522a1.79 1.79 0 0 0-.61-1.462 3.25 3.25 0 0 0-3.424-.07c-.37.302-.605.737-.654 1.21zm3.816 6.091c.36 0 .718-.064 1.054-.191a2.88 2.88 0 0 0 1.586-1.305c.165-.299.25-.635.244-.975v-1.305l-2.544.452q-.585.09-1.141.287a2.6 2.6 0 0 0-.715.392c-.163.136-.291.309-.375.505a1.7 1.7 0 0 0-.104.617 1.33 1.33 0 0 0 .514 1.14c.435.296.956.437 1.481.4zM225.601 19.993V9.716h1.559l.262 1.522a2.781 2.781 0 0 1 2.614-1.819q.337-.003.67.053l.462.087v1.897a6 6 0 0 0-.575-.13 3.7 3.7 0 0 0-.636-.053 2.5 2.5 0 0 0-.932.192c-.31.131-.58.341-.784.609-.249.332-.43.711-.532 1.114a5.6 5.6 0 0 0-.2 1.644v5.16zM240.63 16.686c-.06.496-.217.975-.462 1.41-.242.434-.56.82-.941 1.14-.4.341-.861.604-1.359.774a5.3 5.3 0 0 1-1.743.279 5.4 5.4 0 0 1-1.925-.349 4.2 4.2 0 0 1-1.542-1.026 4.9 4.9 0 0 1-1.029-1.671 6.7 6.7 0 0 1-.374-2.306 7.1 7.1 0 0 1 .348-2.306 4.8 4.8 0 0 1 .985-1.74c.427-.468.95-.84 1.533-1.088a5 5 0 0 1 1.978-.374 4.97 4.97 0 0 1 2.98.87 3.6 3.6 0 0 1 1.473 2.462h-2.092a2.14 2.14 0 0 0-.801-1.296 2.5 2.5 0 0 0-1.516-.444 2.62 2.62 0 0 0-2.065.957 4.6 4.6 0 0 0-.802 3.011 5.2 5.2 0 0 0 .227 1.645c.126.416.333.804.61 1.14.251.296.567.532.923.687.356.15.738.226 1.124.226a2.5 2.5 0 0 0 1.595-.513c.446-.376.733-.908.801-1.488zM242.216 19.992V5.765h1.899v5.116a3.74 3.74 0 0 1 1.342-1.096 3.85 3.85 0 0 1 1.664-.366 3.58 3.58 0 0 1 2.666.992 3.94 3.94 0 0 1 .976 2.88v6.701h-1.899V13.31a2.32 2.32 0 0 0-.566-1.74 2.22 2.22 0 0 0-1.63-.557 2.7 2.7 0 0 0-1.002.183 2.2 2.2 0 0 0-.81.522c-.239.249-.423.545-.54.87-.137.364-.205.75-.201 1.14v6.265zM257.786 12.579a3.2 3.2 0 0 1 1.316-2.298 5 5 0 0 1 3.093-.87 5.7 5.7 0 0 1 1.795.261c.486.148.934.397 1.316.731.353.307.63.692.81 1.123.189.458.284.95.279 1.444v7.014h-1.568l-.236-1.41c-.36.497-.824.91-1.359 1.21a4.03 4.03 0 0 1-2.082.496 4.8 4.8 0 0 1-1.516-.226 3.5 3.5 0 0 1-1.116-.627 2.7 2.7 0 0 1-.697-.93 2.8 2.8 0 0 1-.235-1.167 2.86 2.86 0 0 1 .915-2.228 5.85 5.85 0 0 1 2.98-1.183l3.015-.514v-.513a1.8 1.8 0 0 0-.619-1.462 3.25 3.25 0 0 0-3.424-.07c-.37.302-.605.737-.654 1.21zm3.817 6.091c.363 0 .723-.065 1.063-.191a2.92 2.92 0 0 0 1.577-1.305c.168-.298.255-.634.253-.975v-1.305l-2.553.452q-.585.09-1.142.287a2.6 2.6 0 0 0-.714.392c-.161.138-.289.31-.375.505a1.8 1.8 0 0 0-.105.617 1.333 1.333 0 0 0 .515 1.14c.434.296.956.437 1.481.4zM268.469 19.993V9.716h1.559l.218 1.305a3.8 3.8 0 0 1 3.128-1.61 3.56 3.56 0 0 1 2.658.992 3.92 3.92 0 0 1 .984 2.88v6.701h-1.899V13.31a2.3 2.3 0 0 0-.567-1.74 2.2 2.2 0 0 0-1.629-.558 2.7 2.7 0 0 0-.984.183 2.3 2.3 0 0 0-.811.514 2.5 2.5 0 0 0-.549.818c-.144.347-.215.72-.209 1.096v6.344zM286.81 19.992l-.34-1.444a4.2 4.2 0 0 1-1.368 1.244 4 4 0 0 1-2.056.496 4.7 4.7 0 0 1-1.795-.348 3.9 3.9 0 0 1-1.446-1.027 4.8 4.8 0 0 1-.959-1.688 7 7 0 0 1-.348-2.315c-.017-.817.1-1.631.348-2.41a4.8 4.8 0 0 1 .959-1.74 3.8 3.8 0 0 1 1.472-1.027 4.9 4.9 0 0 1 1.891-.348 3.94 3.94 0 0 1 1.986.452c.515.287.963.678 1.316 1.149V5.765h1.9v14.227zm-6.334-5.038a5.3 5.3 0 0 0 .226 1.619c.132.422.345.815.627 1.157.256.302.578.54.941.696.377.163.784.246 1.194.244.451.006.898-.089 1.307-.279.377-.182.71-.443.976-.766.284-.342.495-.739.619-1.166.136-.484.204-.985.2-1.488a4.5 4.5 0 0 0-.871-2.915 2.79 2.79 0 0 0-2.266-1.018 2.72 2.72 0 0 0-2.134.983 4.5 4.5 0 0 0-.819 2.933M304.298 13.588h-6.291v4.699h6.866v1.74h-8.888V5.765h8.888v1.74h-6.866v4.464h6.291zM311.485 14.52l4.034 5.473h-2.292l-2.788-3.977-2.736 3.977h-2.23l3.833-5.334-3.598-4.943h2.291l2.458 3.48 2.335-3.48h2.178zM321.114 20.088a5.5 5.5 0 0 1-1.403.2 2.62 2.62 0 0 1-2.065-.783 3 3 0 0 1-.689-2.062V11.35h-1.524V9.716h1.524l.122-2.47h1.743v2.47h2.248v1.62h-2.213v6.143c0 .765.366 1.148 1.089 1.148q.248.014.497 0l.671-.13zM322.298 19.993V9.715h1.559l.262 1.523a2.78 2.78 0 0 1 2.614-1.818q.333-.003.662.052c.192 0 .34.06.462.087v1.897a6 6 0 0 0-.575-.13 3.7 3.7 0 0 0-.636-.053 2.5 2.5 0 0 0-.933.192 2 2 0 0 0-.784.609 3.2 3.2 0 0 0-.531 1.114 5.7 5.7 0 0 0-.201 1.644v5.16zM328.354 12.579a3.2 3.2 0 0 1 1.316-2.298 5 5 0 0 1 3.093-.87 5.6 5.6 0 0 1 1.786.261c.487.145.936.395 1.316.731.353.31.633.693.819 1.123.186.458.278.95.27 1.444v7.014h-1.56l-.235-1.41a4.4 4.4 0 0 1-1.359 1.21 4.03 4.03 0 0 1-2.082.496 4.8 4.8 0 0 1-1.517-.226 3.4 3.4 0 0 1-1.115-.627 2.6 2.6 0 0 1-.697-.93 2.8 2.8 0 0 1-.235-1.167 2.88 2.88 0 0 1 .871-2.228 5.9 5.9 0 0 1 2.989-1.183l3.006-.514v-.513a1.79 1.79 0 0 0-.61-1.462 3.25 3.25 0 0 0-3.424-.07c-.37.302-.605.737-.654 1.21zm3.817 6.091a3.25 3.25 0 0 0 1.986-.713c.264-.22.486-.485.654-.784.165-.297.249-.634.244-.974v-1.305l-2.553.452q-.58.09-1.133.287a2.6 2.6 0 0 0-.714.392c-.164.136-.292.309-.375.505a1.7 1.7 0 0 0-.105.617 1.331 1.331 0 0 0 .48 1.14c.444.304.979.445 1.516.4zM347.819 16.686c-.064.495-.22.973-.462 1.41a4.2 4.2 0 0 1-.941 1.14 4.1 4.1 0 0 1-1.368.774 5.5 5.5 0 0 1-3.659-.07 4.2 4.2 0 0 1-1.542-1.026 4.9 4.9 0 0 1-1.029-1.67 6.5 6.5 0 0 1-.374-2.307 7.3 7.3 0 0 1 .34-2.306 4.9 4.9 0 0 1 .993-1.74 4.4 4.4 0 0 1 1.533-1.088 5.46 5.46 0 0 1 4.958.505 3.64 3.64 0 0 1 1.473 2.462h-2.1a2.15 2.15 0 0 0-.802-1.296 2.5 2.5 0 0 0-1.516-.444 2.61 2.61 0 0 0-2.065.957 4.66 4.66 0 0 0-.802 3.011 5.4 5.4 0 0 0 .227 1.645c.129.417.339.804.619 1.14.234.292.532.528.871.687.359.15.744.227 1.133.226a2.52 2.52 0 0 0 1.594-.513c.444-.377.728-.91.793-1.488zM353.988 20.088a5.5 5.5 0 0 1-1.403.2 2.62 2.62 0 0 1-2.056-.783 3 3 0 0 1-.697-2.062V11.35h-1.517V9.716h1.508l.122-2.47h1.742v2.47h2.222v1.62h-2.222v6.143q.002 1.148 1.09 1.148.248.015.496 0l.671-.13zM355.051 7.992V5.765h2.134v2.227zm.113 12V9.715h1.899v10.277zM358.657 14.85a6.6 6.6 0 0 1 .409-2.41 4.85 4.85 0 0 1 1.098-1.741 4.4 4.4 0 0 1 1.612-1.001 5.8 5.8 0 0 1 1.987-.287 6 6 0 0 1 1.978.322 4.4 4.4 0 0 1 1.612 1c.478.497.843 1.09 1.071 1.74.284.772.42 1.59.401 2.411a6.8 6.8 0 0 1-.383 2.367 4.8 4.8 0 0 1-1.072 1.74 4.4 4.4 0 0 1-1.612 1.027 5.97 5.97 0 0 1-4.017 0 4.4 4.4 0 0 1-1.612-1.035 5 5 0 0 1-1.089-1.74 6.7 6.7 0 0 1-.383-2.393m1.978 0c-.01.568.07 1.135.235 1.679.139.446.361.863.654 1.227.268.321.608.575.993.74.393.169.817.255 1.246.252a2.78 2.78 0 0 0 2.213-.992c.63-.833.939-1.865.871-2.906a5.5 5.5 0 0 0-.235-1.697 3.9 3.9 0 0 0-.654-1.227 2.7 2.7 0 0 0-.984-.731 3.1 3.1 0 0 0-1.211-.235c-.422 0-.839.083-1.229.243a2.7 2.7 0 0 0-.993.749 3.7 3.7 0 0 0-.654 1.21 5.5 5.5 0 0 0-.252 1.688M370.386 19.993V9.715h1.568l.218 1.306a3.76 3.76 0 0 1 1.385-1.192 3.7 3.7 0 0 1 1.743-.41 3.58 3.58 0 0 1 2.657.993 3.92 3.92 0 0 1 .976 2.88v6.7h-1.899V13.31a2.3 2.3 0 0 0-.558-1.74 2.24 2.24 0 0 0-1.638-.557 2.6 2.6 0 0 0-.976.183c-.305.109-.581.284-.81.513-.241.231-.431.51-.558.818-.144.348-.215.72-.209 1.097v6.343z"/></svg>