<svg xmlns="http://www.w3.org/2000/svg" width="378" height="24" fill="none" viewBox="0 0 378 24"><path fill="#fff" d="M19.948 6.22h3.137l-4.562 13.789h-3.599l-3.41-10.406L8.105 20.01H4.562L0 6.219h3.211L6.448 16.7l3.396-10.48h3.41l3.452 10.536zM36.542 14.221H26.365a4.4 4.4 0 0 0 .777 1.973c.369.51.868.913 1.446 1.165a4.6 4.6 0 0 0 1.864.375 6 6 0 0 0 2.08-.38 6.8 6.8 0 0 0 1.908-1.074l1.498 2.158a7.6 7.6 0 0 1-2.616 1.489c-.988.31-2.02.463-3.055.453a7.3 7.3 0 0 1-3.656-.898 6.37 6.37 0 0 1-2.499-2.546 7.8 7.8 0 0 1-.897-3.807 8 8 0 0 1 .863-3.78 6.36 6.36 0 0 1 2.425-2.56 6.9 6.9 0 0 1 3.57-.915 6.14 6.14 0 0 1 5.692 3.453 8.26 8.26 0 0 1 .829 3.772q.006.436-.052 1.122m-3.021-2.287a4.26 4.26 0 0 0-1.153-2.52 3.2 3.2 0 0 0-2.347-.864 3.38 3.38 0 0 0-2.469.915 4.38 4.38 0 0 0-1.187 2.482zM49.416 6.798a6.7 6.7 0 0 1 2.49 2.59 7.6 7.6 0 0 1 .915 3.728 7.57 7.57 0 0 1-.915 3.725 6.7 6.7 0 0 1-5.981 3.526 5.6 5.6 0 0 1-2.49-.523 5.1 5.1 0 0 1-1.826-1.476v1.64h-3.021V.35h3.02v7.51a5.2 5.2 0 0 1 1.827-1.468 5.6 5.6 0 0 1 2.49-.526 6.7 6.7 0 0 1 3.491.932m-1.648 10.146a3.9 3.9 0 0 0 1.454-1.6 5.18 5.18 0 0 0 0-4.46 3.9 3.9 0 0 0-1.454-1.6 4.4 4.4 0 0 0-4.368 0c-.627.38-1.136.93-1.467 1.584a4.8 4.8 0 0 0-.527 2.261c-.014.785.167 1.56.527 2.257.331.655.84 1.203 1.467 1.584a4.4 4.4 0 0 0 4.368 0zM67.727 14.221H57.555a4.4 4.4 0 0 0 .777 1.973c.368.51.868.913 1.446 1.165a4.6 4.6 0 0 0 1.864.375 6 6 0 0 0 2.08-.38 6.8 6.8 0 0 0 1.908-1.074l1.493 2.158a7.5 7.5 0 0 1-2.611 1.489c-.99.31-2.023.463-3.06.453a7.34 7.34 0 0 1-3.655-.898 6.4 6.4 0 0 1-2.495-2.546 7.8 7.8 0 0 1-.902-3.807 8 8 0 0 1 .863-3.78 6.36 6.36 0 0 1 2.426-2.56 6.9 6.9 0 0 1 3.595-.927 6.15 6.15 0 0 1 5.692 3.452 8.3 8.3 0 0 1 .829 3.772c-.017.302-.048.678-.078 1.135m-3.02-2.287A4.3 4.3 0 0 0 63.55 9.43a3.22 3.22 0 0 0-2.34-.88 3.37 3.37 0 0 0-2.468.914 4.36 4.36 0 0 0-1.187 2.482zM82.077 20.009H78.38l-3.496-4.795-3.453 4.795h-3.526l5.18-7.04-5.098-6.75h3.703l3.367 4.606 3.366-4.605H82l-5.119 6.724zM96.374 18.649q1.785 0 2.938-1.133a3.5 3.5 0 0 0 1.075-2.38h1.978a5.07 5.07 0 0 1-.845 2.534 5.6 5.6 0 0 1-2.093 1.881q-1.401.75-3.091.749-3.13 0-4.838-2.131Q90 16.287 90 13.099q0-3.646 2.054-5.586Q93.764 5.9 96.49 5.9q2.592 0 4.3 1.593 1.421 1.305 1.556 3.13h-1.978q-.192-1.516-1.363-2.361-1.037-.73-2.515-.73-2.208 0-3.399 1.574-1.095 1.44-1.094 3.994 0 2.803 1.382 4.3 1.152 1.25 2.995 1.249M103.316 15.02q0-2.746 1.631-4.147 1.306-1.133 3.303-1.133 2.324 0 3.648 1.478 1.267 1.384 1.267 3.802 0 2.707-1.594 4.128-1.305 1.152-3.34 1.152-2.323 0-3.667-1.536-1.248-1.402-1.248-3.744m1.919 0q0 1.92.98 2.938.806.844 2.054.844 1.46 0 2.247-1.094.729-.999.729-2.688 0-1.958-.96-2.957-.787-.825-2.035-.825-1.44 0-2.247 1.094-.768.998-.768 2.688M116.54 20.012h-1.843v-9.984h1.517l.211 1.267q1.113-1.555 3.033-1.555 1.767 0 2.708 1.094.825.98.825 2.67v6.508h-1.843v-6.49q0-2.208-2.131-2.208-1.114 0-1.824.768-.653.692-.653 1.767zM129.469 18.534v1.574a5.2 5.2 0 0 1-1.363.192q-1.383 0-2.074-.864-.595-.71-.595-1.9v-5.934h-1.479v-1.574h1.479l.115-2.4h1.728v2.4h2.151v1.574h-2.151v5.971q0 1.114 1.056 1.114.499 0 1.133-.154M132.2 12.812h-1.958q.153-1.498 1.421-2.323 1.133-.75 2.861-.75 2.054.001 3.148 1.076.922.922.922 2.38v6.817h-1.517l-.23-1.363q-1.172 1.65-3.341 1.65-1.709 0-2.669-.92-.787-.77-.787-1.94 0-1.479 1.018-2.285.902-.71 2.764-1.037l2.919-.499v-.499q0-.98-.672-1.478-.596-.442-1.632-.442-2.036 0-2.247 1.613m1.748 5.933q1.17 0 2.035-.768.768-.711.768-1.632v-1.287l-2.477.442q-1.364.23-1.862.71-.404.384-.404 1.037 0 .73.5 1.114.498.384 1.44.384M147.115 16.806h2.016q-.23 1.613-1.517 2.592-1.171.902-2.861.902-2.208 0-3.513-1.517-1.21-1.401-1.21-3.686 0-2.65 1.459-4.11 1.248-1.247 3.245-1.247 1.843 0 3.034.98 1.056.863 1.286 2.265h-2.035q-.192-.807-.787-1.248-.577-.442-1.459-.442-1.364 0-2.093 1.075-.691.999-.691 2.784 0 1.863.921 2.823.73.768 1.882.768.998 0 1.632-.576.556-.5.691-1.364M155.116 18.534v1.574a5.2 5.2 0 0 1-1.363.192q-1.383 0-2.074-.864-.595-.71-.595-1.9v-5.934h-1.479v-1.574h1.479l.115-2.4h1.728v2.4h2.15v1.574h-2.15v5.971q0 1.114 1.056 1.114.499 0 1.133-.154M167.348 18.649q1.785 0 2.937-1.133a3.5 3.5 0 0 0 1.075-2.38h1.978a5.07 5.07 0 0 1-.845 2.534 5.6 5.6 0 0 1-2.093 1.881q-1.4.75-3.091.749-3.13 0-4.838-2.131-1.498-1.882-1.498-5.07 0-3.646 2.055-5.586 1.708-1.613 4.435-1.613 2.591 0 4.301 1.593 1.42 1.305 1.555 3.13h-1.978q-.192-1.516-1.363-2.361-1.037-.73-2.515-.73-2.208 0-3.399 1.574-1.094 1.44-1.094 3.994 0 2.803 1.382 4.3 1.152 1.25 2.996 1.249M181.662 17.132h1.996q-.422 1.517-1.67 2.38-1.171.788-2.803.788-2.362 0-3.687-1.498-1.209-1.401-1.209-3.782 0-2.707 1.536-4.109 1.267-1.17 3.264-1.171 2.342 0 3.533 1.517 1.152 1.459 1.152 4.166h-7.604q.116 1.766 1.076 2.63.787.692 1.996.692.942 0 1.632-.519.576-.441.788-1.094m-2.535-5.914q-1.228 0-1.977.768-.711.71-.903 1.978h5.645q-.096-1.44-.96-2.15-.691-.596-1.805-.596M187.251 20.012h-1.843v-9.984h1.516l.211 1.267q1.114-1.555 3.034-1.555 1.767 0 2.707 1.094.826.98.826 2.67v6.508h-1.843v-6.49q0-2.208-2.131-2.208-1.114 0-1.825.768-.652.692-.652 1.767zM200.18 18.534v1.574a5.2 5.2 0 0 1-1.364.192q-1.381 0-2.073-.864-.595-.71-.595-1.9v-5.934h-1.479v-1.574h1.479l.115-2.4h1.728v2.4h2.15v1.574h-2.15v5.971q0 1.114 1.056 1.114.499 0 1.133-.154M208.04 17.132h1.997q-.423 1.517-1.671 2.38-1.171.788-2.803.788-2.361 0-3.686-1.498-1.21-1.401-1.21-3.782 0-2.707 1.536-4.109 1.268-1.17 3.264-1.171 2.343 0 3.533 1.517 1.152 1.459 1.152 4.166h-7.603q.114 1.766 1.075 2.63.787.692 1.997.692.94 0 1.632-.519a2.2 2.2 0 0 0 .787-1.094m-2.535-5.914q-1.229 0-1.977.768-.711.71-.903 1.978h5.645q-.096-1.44-.96-2.15-.691-.596-1.805-.596M213.629 20.012h-1.843v-9.984h1.517l.249 1.478q.844-1.766 2.535-1.766.557 0 1.094.134v1.843a4.6 4.6 0 0 0-1.171-.172q-1.114 0-1.747.902-.634.903-.634 2.554z"/></svg>