<svg xmlns="http://www.w3.org/2000/svg" width="378" height="24" fill="none" viewBox="0 0 378 24"><path fill="#000" d="M19.948 6.22h3.137l-4.562 13.789h-3.599l-3.41-10.406L8.105 20.01H4.562L0 6.219h3.211L6.448 16.7l3.396-10.48h3.41l3.452 10.536zM36.542 14.221H26.365a4.4 4.4 0 0 0 .777 1.973c.369.51.868.913 1.446 1.165a4.6 4.6 0 0 0 1.864.375 6 6 0 0 0 2.08-.38 6.8 6.8 0 0 0 1.908-1.074l1.498 2.158a7.6 7.6 0 0 1-2.616 1.489c-.988.31-2.02.463-3.055.453a7.3 7.3 0 0 1-3.656-.898 6.37 6.37 0 0 1-2.499-2.546 7.8 7.8 0 0 1-.897-3.807 8 8 0 0 1 .863-3.78 6.36 6.36 0 0 1 2.425-2.56 6.9 6.9 0 0 1 3.57-.915 6.14 6.14 0 0 1 5.692 3.453 8.26 8.26 0 0 1 .829 3.772q.006.436-.052 1.122m-3.021-2.287a4.26 4.26 0 0 0-1.153-2.52 3.2 3.2 0 0 0-2.347-.864 3.38 3.38 0 0 0-2.469.915 4.38 4.38 0 0 0-1.187 2.482zM49.416 6.798a6.7 6.7 0 0 1 2.49 2.59 7.6 7.6 0 0 1 .915 3.728 7.57 7.57 0 0 1-.915 3.725 6.7 6.7 0 0 1-5.981 3.526 5.6 5.6 0 0 1-2.49-.523 5.1 5.1 0 0 1-1.826-1.476v1.64h-3.021V.35h3.02v7.51a5.2 5.2 0 0 1 1.827-1.468 5.6 5.6 0 0 1 2.49-.526 6.7 6.7 0 0 1 3.491.932m-1.648 10.146a3.9 3.9 0 0 0 1.454-1.6 5.18 5.18 0 0 0 0-4.46 3.9 3.9 0 0 0-1.454-1.6 4.4 4.4 0 0 0-4.368 0c-.627.38-1.136.93-1.467 1.584a4.8 4.8 0 0 0-.527 2.261c-.014.785.167 1.56.527 2.257.331.655.84 1.203 1.467 1.584a4.4 4.4 0 0 0 4.368 0zM67.727 14.221H57.555a4.4 4.4 0 0 0 .777 1.973c.368.51.868.913 1.446 1.165a4.6 4.6 0 0 0 1.864.375 6 6 0 0 0 2.08-.38 6.8 6.8 0 0 0 1.908-1.074l1.493 2.158a7.5 7.5 0 0 1-2.611 1.489c-.99.31-2.023.463-3.06.453a7.34 7.34 0 0 1-3.655-.898 6.4 6.4 0 0 1-2.495-2.546 7.8 7.8 0 0 1-.902-3.807 8 8 0 0 1 .863-3.78 6.36 6.36 0 0 1 2.426-2.56 6.9 6.9 0 0 1 3.595-.927 6.15 6.15 0 0 1 5.692 3.452 8.3 8.3 0 0 1 .829 3.772c-.017.302-.048.678-.078 1.135m-3.02-2.287A4.3 4.3 0 0 0 63.55 9.43a3.22 3.22 0 0 0-2.34-.88 3.37 3.37 0 0 0-2.468.914 4.36 4.36 0 0 0-1.187 2.482zM82.077 20.009H78.38l-3.496-4.795-3.453 4.795h-3.526l5.18-7.04-5.098-6.75h3.703l3.367 4.606 3.366-4.605H82l-5.119 6.724zM95.77 7.9c-.3-.07-.57-.13-.81-.17a6 6 0 0 0-.69 0 1.06 1.06 0 0 0-.77.27 1 1 0 0 0-.27.73v1.5h2.12v1.47h-2.12V20h-1.82v-8.3H90v-1.52h1.46V8.8a2.6 2.6 0 0 1 .76-2 2.77 2.77 0 0 1 2-.73 4.4 4.4 0 0 1 .86.07c.25 0 .5.1.75.16zM95.87 15.11a6.3 6.3 0 0 1 .38-2.31 4.5 4.5 0 0 1 1.06-1.63 4.2 4.2 0 0 1 1.54-1 5.6 5.6 0 0 1 1.89-.31c.646-.005 1.289.1 1.9.31a4.1 4.1 0 0 1 1.54 1 4.6 4.6 0 0 1 1 1.63c.265.74.394 1.523.38 2.31a6.6 6.6 0 0 1-.37 2.27 4.6 4.6 0 0 1-1 1.63c-.435.44-.961.782-1.54 1a5.6 5.6 0 0 1-1.94.33 5.4 5.4 0 0 1-1.91-.33 4.4 4.4 0 0 1-1.55-1 4.4 4.4 0 0 1-1-1.63 6.3 6.3 0 0 1-.38-2.27m1.89 0A5.2 5.2 0 0 0 98 16.7c.128.432.342.834.63 1.18a2.5 2.5 0 0 0 .94.71c.38.162.788.243 1.2.24a2.67 2.67 0 0 0 2.12-.95c.603-.8.894-1.791.82-2.79a5.4 5.4 0 0 0-.23-1.63 3.6 3.6 0 0 0-.62-1.18c-.257-.3-.579-.54-.94-.7a3 3 0 0 0-1.17-.22 2.9 2.9 0 0 0-1.18.23 2.6 2.6 0 0 0-.94.71 3.5 3.5 0 0 0-.63 1.19 5.2 5.2 0 0 0-.24 1.62M107.11 20.04v-9.86h1.5l.25 1.46a2.67 2.67 0 0 1 2.5-1.74q.32-.024.64 0l.44.09v1.82a4 4 0 0 0-.55-.12 3 3 0 0 0-.6 0 2.3 2.3 0 0 0-.9.18c-.297.127-.556.33-.75.59a3 3 0 0 0-.52 1.06 6 6 0 0 0-.19 1.58v4.95zM123 6.39a8.8 8.8 0 0 1 2.74.4 5.6 5.6 0 0 1 2.13 1.26 5.7 5.7 0 0 1 1.36 2.12c.338.964.504 1.98.49 3a7.9 7.9 0 0 1-.51 2.93 5.8 5.8 0 0 1-1.41 2.14 6.2 6.2 0 0 1-2.17 1.31 8.2 8.2 0 0 1-2.76.44h-4.31V6.39zm-2.5 1.53v10.53h2.5a4.52 4.52 0 0 0 3.48-1.32 5.6 5.6 0 0 0 1.22-3.91 7.6 7.6 0 0 0-.33-2.35 4.45 4.45 0 0 0-.95-1.65 3.85 3.85 0 0 0-1.49-1 5.5 5.5 0 0 0-2-.33zM140 17.2a4.3 4.3 0 0 1-.56 1.25c-.257.383-.575.72-.94 1-.396.28-.831.498-1.29.65a5.2 5.2 0 0 1-1.62.24 5.8 5.8 0 0 1-2-.32 4.1 4.1 0 0 1-1.53-1 4.5 4.5 0 0 1-1-1.63 6.6 6.6 0 0 1-.36-2.29 6.5 6.5 0 0 1 .36-2.26 4.6 4.6 0 0 1 1-1.64 4 4 0 0 1 1.49-1 5.74 5.74 0 0 1 3.78 0 3.66 3.66 0 0 1 1.46 1c.448.51.788 1.105 1 1.75a8.7 8.7 0 0 1 .34 2.56h-7.51a3.58 3.58 0 0 0 1 2.5c.561.52 1.304.8 2.07.78a2.63 2.63 0 0 0 1.55-.45c.367-.29.633-.69.76-1.14zm-4.47-5.84a2.72 2.72 0 0 0-1.87.67 3.27 3.27 0 0 0-1 2h5.58a2.87 2.87 0 0 0-.84-2 2.76 2.76 0 0 0-1.91-.67zM149.54 10.18l-3.47 9.86h-2.46l-3.44-9.86h2l2.73 8.38 2.75-8.38zM158.8 17.2a4.6 4.6 0 0 1-.57 1.25 4 4 0 0 1-.94 1 4.6 4.6 0 0 1-1.29.65 5.2 5.2 0 0 1-1.62.24 5.7 5.7 0 0 1-1.94-.32 4.1 4.1 0 0 1-1.53-1 4.55 4.55 0 0 1-1-1.63 6.7 6.7 0 0 1-.36-2.29 6.5 6.5 0 0 1 .36-2.26c.215-.61.555-1.17 1-1.64a4.1 4.1 0 0 1 1.5-1 5.3 5.3 0 0 1 1.9-.33 5.4 5.4 0 0 1 1.87.31c.563.206 1.065.55 1.46 1 .439.508.763 1.105.95 1.75.245.83.36 1.694.34 2.56h-7.53c.005.93.362 1.824 1 2.5a3 3 0 0 0 2.08.78 2.6 2.6 0 0 0 1.54-.45c.402-.275.701-.676.85-1.14zm-4.48-5.84a2.7 2.7 0 0 0-1.86.67 3.23 3.23 0 0 0-1 2h5.57a2.86 2.86 0 0 0-.84-2 2.76 2.76 0 0 0-1.87-.67M162.35 20.04h-1.82V6.39h1.82zM163.86 15.11a6.3 6.3 0 0 1 .39-2.31 4.5 4.5 0 0 1 1.06-1.63 4.2 4.2 0 0 1 1.54-1 5.6 5.6 0 0 1 1.89-.31c.646-.005 1.289.1 1.9.31a4.1 4.1 0 0 1 1.54 1 4.6 4.6 0 0 1 1 1.63 6.5 6.5 0 0 1 .37 2.31 6.3 6.3 0 0 1-.37 2.27 4.45 4.45 0 0 1-1 1.63c-.439.44-.968.782-1.55 1a5.5 5.5 0 0 1-1.93.33 5.5 5.5 0 0 1-1.92-.33 4.3 4.3 0 0 1-1.54-1 4.6 4.6 0 0 1-1-1.63 6.5 6.5 0 0 1-.38-2.27m1.9 0c-.003.54.078 1.076.24 1.59.128.43.339.83.62 1.18.258.307.583.55.95.71.379.162.787.243 1.2.24a2.67 2.67 0 0 0 2.12-.95c.602-.8.894-1.791.82-2.79a5.4 5.4 0 0 0-.23-1.63 3.4 3.4 0 0 0-.63-1.18 2.54 2.54 0 0 0-.93-.7 3 3 0 0 0-1.17-.22 2.9 2.9 0 0 0-1.18.23 2.7 2.7 0 0 0-.95.71 3.6 3.6 0 0 0-.62 1.17 5.2 5.2 0 0 0-.24 1.64M176.61 10.18l.28 1.29c.374-.466.84-.85 1.37-1.13a4.1 4.1 0 0 1 2-.44c.61-.009 1.216.107 1.78.34a3.74 3.74 0 0 1 1.37 1c.401.474.701 1.025.88 1.62.223.708.331 1.448.32 2.19.015.77-.1 1.538-.34 2.27a4.7 4.7 0 0 1-.92 1.65 4 4 0 0 1-1.43 1 4.6 4.6 0 0 1-1.79.35 3.9 3.9 0 0 1-1.92-.44 3.74 3.74 0 0 1-1.25-1.12v4.69h-1.82V10.18zm6.07 4.82a5 5 0 0 0-.22-1.58 3.3 3.3 0 0 0-.6-1.11 2.5 2.5 0 0 0-.92-.65 3 3 0 0 0-2.27 0 2.7 2.7 0 0 0-.95.66c-.291.322-.512.7-.65 1.11a4.9 4.9 0 0 0-.23 1.55 4.28 4.28 0 0 0 .81 2.79 2.7 2.7 0 0 0 2.17 1 2.58 2.58 0 0 0 2.07-.91 4.27 4.27 0 0 0 .79-2.86M194.78 17.2a4.1 4.1 0 0 1-.57 1.25c-.251.387-.57.726-.94 1a4.6 4.6 0 0 1-1.29.65 5.1 5.1 0 0 1-1.62.24 5.7 5.7 0 0 1-1.94-.32 4.1 4.1 0 0 1-1.53-1 4.5 4.5 0 0 1-1-1.63 6.6 6.6 0 0 1-.36-2.29 6.5 6.5 0 0 1 .36-2.26 4.6 4.6 0 0 1 1-1.64c.419-.44.932-.782 1.5-1a5.3 5.3 0 0 1 1.9-.33 5.4 5.4 0 0 1 1.88.31c.56.211 1.06.554 1.46 1a4.8 4.8 0 0 1 .94 1.75 8.3 8.3 0 0 1 .35 2.56h-7.52c.004.93.362 1.824 1 2.5a3 3 0 0 0 2.08.78 2.57 2.57 0 0 0 1.54-.45c.402-.275.701-.676.85-1.14zm-4.48-5.84a2.7 2.7 0 0 0-1.86.67 3.23 3.23 0 0 0-1 2H193a2.9 2.9 0 0 0-.85-2 2.76 2.76 0 0 0-1.85-.67M196.51 20.04v-9.86H198l.24 1.46a2.675 2.675 0 0 1 2.51-1.74 4 4 0 0 1 .63 0l.45.09v1.82a5 5 0 0 0-.55-.12 3 3 0 0 0-.61 0 2.3 2.3 0 0 0-.9.18c-.298.128-.556.331-.75.59a2.8 2.8 0 0 0-.51 1.06 5.5 5.5 0 0 0-.19 1.58v4.95zM208.46 17.37a1.24 1.24 0 0 0-.2-.72 1.4 1.4 0 0 0-.57-.47 5 5 0 0 0-.9-.34l-1.2-.29a5.5 5.5 0 0 1-2.49-1.06 2.32 2.32 0 0 1-.75-1.79 2.47 2.47 0 0 1 1-2 5.5 5.5 0 0 1 5.58 0 3.15 3.15 0 0 1 1.31 2.12h-1.86a1.64 1.64 0 0 0-.7-1.06 2.57 2.57 0 0 0-1.5-.38 2.6 2.6 0 0 0-1.5.34 1 1 0 0 0-.47.85c-.003.171.027.341.09.5a.92.92 0 0 0 .35.39c.212.145.445.257.69.33q.572.183 1.16.3c.57.13 1.09.27 1.57.43.429.131.835.33 1.2.59.324.232.588.537.77.89.201.396.297.837.28 1.28.008.43-.089.855-.28 1.24-.187.39-.461.732-.8 1a4.1 4.1 0 0 1-1.29.64 6.2 6.2 0 0 1-1.75.23 4.84 4.84 0 0 1-3-.85 3.06 3.06 0 0 1-1.26-2.26h1.86a1.777 1.777 0 0 0 .76 1.28 3 3 0 0 0 1.65.39c.597.041 1.19-.113 1.69-.44a1.3 1.3 0 0 0 .56-1.14"/></svg>