<svg xmlns="http://www.w3.org/2000/svg" width="254" height="41" fill="none" viewBox="0 0 254 41"><g clip-path="url(#a)"><path fill="#fff" d="m173.79 19.5-.73 2.08H173a16 16 0 0 0-.72-2l-3.93-9.88h-3.86v15.71H167V13.54c0-.43-.06-.75-.08-1h.08q.135.688.37 1.35l4.73 11.5h1.79l4.69-11.6q.194-.616.31-1.25h.11c-.06 1.17-.1 2.21-.12 2.84v10h2.71V9.61h-3.71zm10.32-5.45h2.65v11.3h-2.65zm1.35-4.77a1.55 1.55 0 0 0-1.12.45 1.45 1.45 0 0 0-.47 1.1 1.41 1.41 0 0 0 .47 1.08 1.54 1.54 0 0 0 1.12.43 1.6 1.6 0 0 0 1.12-.43 1.4 1.4 0 0 0 .47-1.08 1.5 1.5 0 0 0-.47-1.1 1.47 1.47 0 0 0-1.12-.45m10.7 4.67a7.4 7.4 0 0 0-1.48-.16 6.4 6.4 0 0 0-3.23.79 5.4 5.4 0 0 0-2.12 2.19 6.9 6.9 0 0 0-.73 3.26 6 6 0 0 0 .71 2.91 4.87 4.87 0 0 0 2 2 5.9 5.9 0 0 0 2.92.72 6.4 6.4 0 0 0 3.2-.76v-2.44l-.1.08c-.392.289-.827.515-1.29.67a4 4 0 0 1-1.26.24 3.14 3.14 0 0 1-2.49-1 3.8 3.8 0 0 1-.92-2.68 3.86 3.86 0 0 1 .94-2.75 3.28 3.28 0 0 1 2.49-1 4.36 4.36 0 0 1 2.53.86l.1.08v-2.58a6.3 6.3 0 0 0-1.27-.41zm8.75-.06a2.78 2.78 0 0 0-1.79.63c-.453.42-.797.945-1 1.53v-2h-2.65v11.3h2.65v-5.77a3.9 3.9 0 0 1 .65-2.39 2 2 0 0 1 1.71-.91q.404.025.8.1c.224.05.437.137.63.26l.1.08v-2.65h-.06a2 2 0 0 0-1-.18zm7.26-.06a5.85 5.85 0 0 0-4.38 1.63 6.09 6.09 0 0 0-1.57 4.45 5.819 5.819 0 0 0 1.55 4.22 6.37 6.37 0 0 0 8.44-.1 6.07 6.07 0 0 0 1.57-4.39 5.9 5.9 0 0 0-1.49-4.26 5.36 5.36 0 0 0-4.12-1.55m2.12 8.69a2.66 2.66 0 0 1-2.22.93 2.78 2.78 0 0 1-2.28-1 4.05 4.05 0 0 1-.82-2.72c-.057-.991.233-1.97.82-2.77a2.8 2.8 0 0 1 2.26-1 2.71 2.71 0 0 1 2.2.94 4.18 4.18 0 0 1 .75 2.8 4.72 4.72 0 0 1-.78 2.82zm9.37-3.82a6.5 6.5 0 0 1-1.62-.83 1.18 1.18 0 0 1-.3-.86.94.94 0 0 1 .43-.81 1.9 1.9 0 0 1 1.16-.31c.464.007.924.074 1.37.2.422.115.821.301 1.18.55l.1.09v-2.45h-.06a6.5 6.5 0 0 0-1.2-.35 8.4 8.4 0 0 0-1.31-.12 4.7 4.7 0 0 0-3.12 1 3 3 0 0 0-1.2 2.49c-.014.473.075.944.26 1.38.192.409.472.77.82 1.06a7.2 7.2 0 0 0 1.63.92c.61.27 1.08.47 1.37.63q.336.206.61.49c.112.19.167.409.16.63 0 .76-.57 1.13-1.73 1.13a4.7 4.7 0 0 1-1.47-.27 5.8 5.8 0 0 1-1.49-.75l-.1-.09v2.59h.06q.692.298 1.43.45.756.165 1.53.19a5 5 0 0 0 3.28-1 3.1 3.1 0 0 0 1.24-2.57 2.85 2.85 0 0 0-.65-1.94 8.2 8.2 0 0 0-2.38-1.45m10-4.93a5.85 5.85 0 0 0-4.39 1.63 6.17 6.17 0 0 0-1.57 4.45 5.803 5.803 0 0 0 1.55 4.22 6.38 6.38 0 0 0 8.45-.1 6.07 6.07 0 0 0 1.57-4.39 5.9 5.9 0 0 0-1.49-4.26 5.37 5.37 0 0 0-4.12-1.55m2.1 8.69a2.66 2.66 0 0 1-2.22.93 2.77 2.77 0 0 1-2.29-1 4.05 4.05 0 0 1-.81-2.72 4.28 4.28 0 0 1 .81-2.77 2.82 2.82 0 0 1 2.27-1 2.75 2.75 0 0 1 2.2.94c.586.792.873 1.766.81 2.75.067 1-.204 1.992-.77 2.82zm17.68-6.31v-2.1h-2.64V10.7h-.08l-2.53.75h-.06V14h-4v-1.37a2.2 2.2 0 0 1 .45-1.49 1.57 1.57 0 0 1 1.24-.49c.41.005.815.094 1.19.26l.1.06V8.7h-.06a5 5 0 0 0-3.61.28 3.6 3.6 0 0 0-1.44 1.4 4.16 4.16 0 0 0-.53 2.1v1.57h-1.87v2.16h1.86v9.14h2.67v-9.11h4v5.81c0 2.38 1.12 3.59 3.36 3.59a6 6 0 0 0 1.12-.13q.436-.08.84-.26v-2.2l-.1.08a1.8 1.8 0 0 1-.55.24q-.259.075-.53.08a1.42 1.42 0 0 1-1.16-.42 2.2 2.2 0 0 1-.37-1.45v-5.34zM130.31 4.35h12.5v12.5h-12.5zM144.12 4.35h12.5v12.5h-12.5zM130.31 18.15h12.5V30.7h-12.5zM144.12 18.15h12.5V30.7h-12.5z"/><path stroke="#fff" stroke-miterlimit="10" stroke-width="3" d="m114.12.7-.03 32.12"/><path fill="#fff" d="M79.977 34.2H78.66v5.25h1.318zM90.659 35.705a2.3 2.3 0 0 0-1.112-.28c-.858 0-1.453.596-1.453 1.4 0 .78.57 1.401 1.453 1.401.388.002.77-.094 1.112-.278v1.409c-.392.12-.798.183-1.207.186-1.49 0-2.796-1.025-2.796-2.718 0-1.567 1.183-2.717 2.796-2.717.41.001.816.065 1.207.188zM76.833 35.705a2.3 2.3 0 0 0-1.113-.28c-.858 0-1.451.596-1.451 1.4 0 .78.568 1.401 1.45 1.401.39.001.772-.094 1.114-.278v1.409c-.392.12-.799.183-1.208.186-1.49 0-2.796-1.025-2.796-2.718 0-1.567 1.183-2.717 2.796-2.717.41.001.817.065 1.208.188zM94.826 35.444a1.356 1.356 0 0 0-1.37 1.38 1.36 1.36 0 0 0 1.37 1.383 1.36 1.36 0 0 0 1.273-.852c.068-.168.1-.349.098-.53a1.36 1.36 0 0 0-1.371-1.381m2.774 1.38c0 1.503-1.159 2.719-2.774 2.719s-2.772-1.216-2.772-2.718 1.158-2.717 2.772-2.717 2.774 1.217 2.774 2.717M85.001 35.394a4.6 4.6 0 0 0-1.035-.16c-.53 0-.819.178-.819.43 0 .32.39.439.606.5l.366.116c.86.274 1.251.863 1.251 1.503 0 1.318-1.158 1.757-2.173 1.757a8 8 0 0 1-1.43-.146v-1.209c.407.118.828.184 1.251.195.66 0 .962-.192.962-.49 0-.266-.262-.42-.585-.523l-.283-.091c-.732-.233-1.353-.666-1.353-1.536 0-.981.732-1.64 1.956-1.64.435.006.868.062 1.29.167zM63.576 39.433H63v-5.239h.699v1.979a1.45 1.45 0 0 1 1.266-.633 1.5 1.5 0 0 1 1.266.586q.4.525.4 1.39 0 1.025-.546 1.571a1.59 1.59 0 0 1-1.171.458 1.4 1.4 0 0 1-1.23-.61zm2.327-1.936q-.001-.714-.356-1.07a.99.99 0 0 0-.743-.292 1.03 1.03 0 0 0-.843.385 1.5 1.5 0 0 0-.293.975q0 .728.357 1.113a1 1 0 0 0 .785.336.95.95 0 0 0 .83-.402q.265-.369.265-1.045zM70.373 35.65l-1.319 3.833q-.263.765-.502 1.042a.93.93 0 0 1-.732.326 2 2 0 0 1-.451-.064v-.572q.18.048.365.052a.42.42 0 0 0 .348-.157q.201-.319.314-.68h-.226l-1.39-3.783h.749l1.07 3.221 1.07-3.221zM23.743 9.437h3.734l-5.43 16.412h-4.284l-4.058-12.385-4.058 12.385H5.43L0 9.437h3.822l3.852 12.472 4.043-12.472h4.058l4.11 12.539zM43.494 18.96H31.38c.112.846.43 1.652.925 2.347a4.2 4.2 0 0 0 1.72 1.387c.7.303 1.457.455 2.22.447a7.2 7.2 0 0 0 2.475-.452 8 8 0 0 0 2.27-1.279l1.783 2.569a9 9 0 0 1-3.113 1.772c-1.176.37-2.403.551-3.636.54a8.7 8.7 0 0 1-4.351-1.07 7.6 7.6 0 0 1-2.975-3.03 9.3 9.3 0 0 1-1.068-4.53 9.5 9.5 0 0 1 1.027-4.5 7.57 7.57 0 0 1 2.887-3.047 8.2 8.2 0 0 1 4.248-1.089 7.31 7.31 0 0 1 6.776 4.11 9.84 9.84 0 0 1 .986 4.49q.008.516-.062 1.335m-3.596-2.723a5.08 5.08 0 0 0-1.372-3 3.82 3.82 0 0 0-2.794-1.027 4.02 4.02 0 0 0-2.938 1.09 5.2 5.2 0 0 0-1.413 2.953zM58.817 10.125a8 8 0 0 1 2.964 3.082 9.03 9.03 0 0 1 1.089 4.438 9 9 0 0 1-1.089 4.433 7.97 7.97 0 0 1-7.12 4.197 6.7 6.7 0 0 1-2.964-.622 6.1 6.1 0 0 1-2.172-1.756v1.952h-3.596V2.45h3.596v8.938a6.2 6.2 0 0 1 2.172-1.746 6.64 6.64 0 0 1 2.964-.627 7.97 7.97 0 0 1 4.156 1.11M56.855 22.2a4.63 4.63 0 0 0 1.73-1.905 6.17 6.17 0 0 0 0-5.307 4.66 4.66 0 0 0-1.73-1.905 5.24 5.24 0 0 0-5.199 0 4.7 4.7 0 0 0-1.746 1.885 5.7 5.7 0 0 0-.627 2.691 5.65 5.65 0 0 0 .627 2.687c.395.779 1 1.432 1.746 1.885a5.24 5.24 0 0 0 5.199 0zM80.613 18.96H68.505c.112.847.43 1.653.925 2.348a4.2 4.2 0 0 0 1.72 1.387c.7.302 1.457.455 2.22.447a7.2 7.2 0 0 0 2.475-.452 8 8 0 0 0 2.271-1.28l1.777 2.57a9 9 0 0 1-3.107 1.771 11.8 11.8 0 0 1-3.642.54 8.73 8.73 0 0 1-4.351-1.069 7.6 7.6 0 0 1-2.97-3.03 9.3 9.3 0 0 1-1.073-4.531 9.53 9.53 0 0 1 1.027-4.5 7.57 7.57 0 0 1 2.887-3.046 8.2 8.2 0 0 1 4.28-1.105 7.33 7.33 0 0 1 6.775 4.11 9.84 9.84 0 0 1 .986 4.49c-.02.359-.056.806-.093 1.35m-3.596-2.722a5.1 5.1 0 0 0-1.377-2.98 3.83 3.83 0 0 0-2.784-1.047 4 4 0 0 0-2.938 1.089 5.2 5.2 0 0 0-1.413 2.953zM97.693 25.849H93.29l-4.16-5.707-4.11 5.707h-4.197l6.165-8.378-6.067-8.034h4.407l4.007 5.48 4.007-5.48H97.6l-6.092 8.003z"/></g><defs><clipPath id="a"><path fill="#fff" d="M0 .7h253.47v39.8H0z"/></clipPath></defs></svg>