<svg xmlns="http://www.w3.org/2000/svg" width="507" height="175" fill="none" viewBox="0 0 507 175"><path fill="#000" d="M230.6 119.523h-9.248l-2.022-6.455q-5.877 7.899-16.087 7.899-10.693 0-16.857-7.706-5.586-7.03-5.587-18.398 0-13.678 7.224-20.903 5.972-5.972 15.509-5.972 9.921 0 15.509 7.128V50.167H230.6zm-37.953-24.565q0 8.862 4.239 13.197 3.467 3.66 9.054 3.66 6.839 0 10.403-5.008 3.18-4.432 3.179-11.945 0-9.439-4.431-14.064-3.468-3.66-9.151-3.66-6.647 0-10.114 5.009-3.177 4.529-3.177 12.812zm79.483 10.116h12.136q-2.023 7.705-8.381 11.944-6.069 3.95-14.931 3.949-12.233 0-19.072-7.706-6.26-7.031-6.26-18.783 0-13.484 7.803-20.614 6.549-5.876 17.049-5.876 12.234 0 18.495 7.995 5.876 7.418 5.876 21.192h-37.471q.674 8.09 5.009 11.848 3.467 3.082 9.055 3.082 3.949 0 6.839-1.926 2.89-1.927 3.853-5.105m.867-15.798q-.386-7.032-4.238-10.307-3.179-2.794-8.285-2.793-5.588 0-8.958 3.66-3.083 3.276-3.949 9.439zm26.19 15.99q1.349 7.224 10.886 7.224 5.297 0 7.995-2.022 2.214-1.734 2.214-4.527 0-3.564-3.853-5.299-2.214-.962-9.729-2.696-9.248-2.12-13.197-5.78-3.948-3.564-3.949-9.343 0-7.322 5.973-11.27 5.297-3.565 14.546-3.565 9.535 0 15.315 4.528 5.009 3.853 6.26 10.403h-11.751q-1.444-6.456-10.018-6.456-8.668 0-8.67 5.299 0 2.697 2.217 4.045t8.958 2.986q10.403 2.408 14.449 5.394 5.105 3.757 5.105 10.596 0 7.803-6.357 12.233-5.78 3.95-15.606 3.95-10.305 0-16.474-4.913-5.202-4.142-6.068-10.787zm50.891-43.442h-12.715V50.168h12.715zm-.578 57.699h-11.559v-50.09H349.5zm7.807 3.275h12.136q1.83 6.936 11.462 6.936 12.429 0 12.429-11.849v-5.586q-5.683 5.78-15.412 5.779-10.211 0-16.568-7.224-5.877-6.743-5.876-17.436 0-12.618 7.224-19.553 6.07-5.877 15.605-5.877 10.017 0 15.606 7.321l1.829-5.875h9.152v48.355q0 9.921-7.128 15.509-6.36 5.009-16.761 5.009-11.176 0-17.436-4.72-5.106-3.95-6.262-10.789m10.019-29.283q0 7.803 4.334 12.041 3.565 3.37 8.959 3.371 6.935 0 10.5-4.527 3.08-3.95 3.081-10.788 0-8.572-4.238-12.907-3.467-3.564-9.343-3.564-6.455 0-10.019 4.624-3.274 4.236-3.274 11.75m56.18 26.008h-11.558v-50.09h9.536l1.251 5.972q5.491-7.416 15.22-7.417 9.054 0 13.872 5.588 4.238 4.913 4.238 13.389v32.558h-11.559V87.251q0-10.307-9.537-10.307-5.202 0-8.477 3.66-2.986 3.372-2.986 8.477zM57.542 62.765c-5.045.382-9.202 5.727-8.455 11.215.234 2.005.748 5.107 1.402 8.495.28 1.527.607 3.15.934 4.725a112 112 0 0 0 3.036 11.263 93 93 0 0 0 4.718 11.978c7.053 14.031 16.582 16.99 23.355 16.99a21.9 21.9 0 0 0 9.24-1.956 22.35 22.35 0 0 0 7.623-5.68 33.7 33.7 0 0 1-3.13-4.915c-2.99-5.632-4.904-12.122-6.54-18.899-.749 2.7-1.75 5.321-2.989 7.827-1.962 3.722-3.316 3.722-4.204 3.722-1.915 0-3.923-2.1-5.979-6.156a67 67 0 0 1-2.802-6.825c-.56-1.67-1.121-3.388-1.589-5.058s-1.307-4.63-1.681-6.49c-.981-4.535-2.149-11.98-2.195-12.218-.42-2.148-2.897-8.686-10.744-8.018M139.428 82.81c4.998-1.957 7.1-8.161 4.858-13.172l-.187-.478a42.3 42.3 0 0 0-3.176-5.87 20.6 20.6 0 0 0-1.962-2.768c-6.4-8.017-13.92-9.449-18.498-9.449a22 22 0 0 0-9.237 1.96 22.4 22.4 0 0 0-7.625 5.676 32 32 0 0 1 2.942 4.581c3.13 5.775 5.092 13.697 6.727 20.426.887-3.054 1.915-6.967 3.083-9.163 1.915-3.58 3.223-3.58 4.11-3.58 2.663 0 4.812 4.01 5.839 6.348 0 0 3.69 9.259 13.126 5.488"/><path fill="#000" d="m145.545 62.765-.888-.095h-.233a48 48 0 0 1 2.616 5.154l.233.477a13.58 13.58 0 0 1 .299 10.15c-1.217 3.29-3.658 5.955-6.792 7.413a13.2 13.2 0 0 1-5.371 1.193 14.2 14.2 0 0 1-3.737-.573c-1.308 5.011-3.363 11.167-5.232 14.89-1.868 3.722-4.064 6.156-6.026 6.156-.84 0-2.195 0-4.157-3.722a44.5 44.5 0 0 1-2.989-7.827c-.608-2.1-1.168-4.343-1.729-6.681a52 52 0 0 1-.607-2.577c-1.775-7.54-3.784-15.463-7.24-21.81a35 35 0 0 0-2.196-3.532 33 33 0 0 0-2.102-2.672 22.4 22.4 0 0 0-7.646-5.686 22 22 0 0 0-9.263-1.95c-4.53 0-12.051 1.432-18.45 9.45a13.1 13.1 0 0 1 5.095 4.176 13.5 13.5 0 0 1 2.471 6.18c.327 2.385 1.121 7.015 2.056 11.405.093.478.187.955.327 1.48.7-1.861 1.401-3.436 2.148-5.202l.56-1.241c1.029-2.338 3.177-6.347 5.793-6.347.934 0 2.242 0 4.157 3.579a43 43 0 0 1 3.083 8.018 128 128 0 0 1 1.729 6.729c.186.668.327 1.336.467 2.004 1.868 7.97 3.83 15.654 7.193 22.001a30 30 0 0 0 2.382 3.865 32 32 0 0 0 2.102 2.625c5.559 6.157 11.958 7.636 16.816 7.636 6.773 0 16.349-2.959 23.403-16.99 3.596-7.206 6.633-17.848 7.754-23.241s1.962-10.26 2.335-13.22c.178-1.298.102-2.619-.223-3.887a10 10 0 0 0-1.67-3.5 9.8 9.8 0 0 0-2.859-2.575 9.6 9.6 0 0 0-3.609-1.253"/></svg>