<svg xmlns="http://www.w3.org/2000/svg" width="174" height="41" fill="none" viewBox="0 0 174 41"><g clip-path="url(#a)"><path fill="#fff" d="M173.08 23.22a1.66 1.66 0 0 1-.22 2.27 1.79 1.79 0 0 1-2.37-.22l-3.78-4.86-3.71 4.75a1.703 1.703 0 0 1-2.38.21 1.57 1.57 0 0 1-.608-1.702c.056-.207.154-.4.288-.568l4.32-5.6-4.27-5.6a1.816 1.816 0 0 1 .33-2.38 1.82 1.82 0 0 1 2.37.33l3.67 4.86 3.78-4.64a1.657 1.657 0 0 1 2.845.15 1.665 1.665 0 0 1-.255 1.91l-4.22 5.5zm-19.65-.66a5 5 0 0 1-5.06-5 5.072 5.072 0 0 1 10.14 0 5.12 5.12 0 0 1-5.08 5m-14.89 0a5 5 0 0 1-4.683-3.07 5 5 0 0 1-.387-1.93 5.081 5.081 0 0 1 8.586-3.446 5.09 5.09 0 0 1 1.564 3.446 5 5 0 0 1-.394 1.926 5.01 5.01 0 0 1-4.686 3.054zm14.91-13.17a8.38 8.38 0 0 0-7.35 4.31 8.42 8.42 0 0 0-7.44-4.33 8.87 8.87 0 0 0-5.07 1.62V4.08A1.66 1.66 0 0 0 132 2.46a1.68 1.68 0 0 0-1.73 1.62v13.6a8.28 8.28 0 0 0 8.31 8.1 8.51 8.51 0 0 0 7.42-4.42 8.44 8.44 0 0 0 7.33 4.43 8.33 8.33 0 0 0 8.43-8.3 8.13 8.13 0 0 0-5.151-7.537 8.1 8.1 0 0 0-3.159-.563"/><path stroke="#fff" stroke-miterlimit="10" stroke-width="3" d="m114.12.9-.03 32.12"/><path fill="#fff" d="M79.977 34.201H78.66v5.25h1.318zM90.659 35.706a2.3 2.3 0 0 0-1.112-.28c-.858 0-1.453.596-1.453 1.4 0 .78.57 1.401 1.453 1.401.388.002.77-.094 1.112-.278v1.409c-.392.12-.798.183-1.207.186-1.49 0-2.796-1.025-2.796-2.718 0-1.567 1.183-2.717 2.796-2.717.41.001.816.065 1.207.188zM76.833 35.706a2.3 2.3 0 0 0-1.113-.28c-.858 0-1.451.596-1.451 1.4 0 .78.568 1.401 1.45 1.401.39.001.772-.094 1.114-.278v1.409c-.392.12-.799.183-1.208.186-1.49 0-2.796-1.025-2.796-2.718 0-1.567 1.183-2.717 2.796-2.717.41.001.817.064 1.208.188zM94.826 35.445a1.356 1.356 0 0 0-1.37 1.38 1.36 1.36 0 0 0 1.37 1.383 1.36 1.36 0 0 0 1.37-1.382 1.36 1.36 0 0 0-1.37-1.381m2.774 1.38c0 1.503-1.159 2.719-2.774 2.719s-2.772-1.216-2.772-2.718 1.158-2.717 2.772-2.717 2.774 1.217 2.774 2.717M85.001 35.395a4.6 4.6 0 0 0-1.035-.16c-.53 0-.819.178-.819.43 0 .32.39.439.606.5l.366.116c.86.274 1.251.863 1.251 1.503 0 1.318-1.158 1.757-2.173 1.757a8 8 0 0 1-1.43-.146v-1.209c.407.118.828.184 1.251.195.66 0 .962-.192.962-.49 0-.265-.262-.42-.585-.523l-.283-.091c-.732-.233-1.353-.666-1.353-1.536 0-.981.732-1.64 1.956-1.64a5.7 5.7 0 0 1 1.29.166zM63.576 39.434H63v-5.239h.699v1.979a1.45 1.45 0 0 1 1.266-.633 1.5 1.5 0 0 1 1.266.586q.4.525.4 1.39 0 1.025-.546 1.571a1.59 1.59 0 0 1-1.171.458 1.4 1.4 0 0 1-1.23-.61zm2.327-1.936q-.001-.714-.356-1.07a.99.99 0 0 0-.743-.292 1.02 1.02 0 0 0-.843.385 1.5 1.5 0 0 0-.293.975q0 .728.357 1.113a1 1 0 0 0 .785.335.95.95 0 0 0 .83-.4q.265-.37.265-1.046zM70.373 35.65l-1.319 3.834q-.263.765-.502 1.041a.92.92 0 0 1-.732.327 2 2 0 0 1-.451-.064v-.571q.18.047.365.05a.42.42 0 0 0 .348-.156q.201-.319.314-.68h-.226l-1.39-3.783h.749l1.07 3.221 1.07-3.221zM23.743 9.438h3.734l-5.43 16.412h-4.284l-4.058-12.385L9.647 25.85H5.43L0 9.438h3.822L7.674 21.91l4.043-12.472h4.058l4.11 12.539zM43.494 18.96H31.38c.112.847.43 1.653.925 2.348a4.2 4.2 0 0 0 1.72 1.387c.7.303 1.457.455 2.22.447a7.2 7.2 0 0 0 2.475-.452 8 8 0 0 0 2.27-1.279l1.783 2.569a9 9 0 0 1-3.113 1.772c-1.176.37-2.403.551-3.636.54a8.7 8.7 0 0 1-4.351-1.07 7.6 7.6 0 0 1-2.975-3.03 9.3 9.3 0 0 1-1.068-4.53 9.5 9.5 0 0 1 1.027-4.5 7.57 7.57 0 0 1 2.887-3.047 8.2 8.2 0 0 1 4.248-1.089 7.31 7.31 0 0 1 6.776 4.11 9.84 9.84 0 0 1 .986 4.49q.008.516-.062 1.335m-3.596-2.722a5.08 5.08 0 0 0-1.372-3 3.82 3.82 0 0 0-2.794-1.027 4.02 4.02 0 0 0-2.938 1.09 5.2 5.2 0 0 0-1.413 2.953zM58.817 10.126a8 8 0 0 1 2.964 3.082 9.03 9.03 0 0 1 1.089 4.438 9 9 0 0 1-1.089 4.433 7.97 7.97 0 0 1-7.12 4.197 6.7 6.7 0 0 1-2.964-.622 6.1 6.1 0 0 1-2.172-1.756v1.951h-3.596V2.451h3.596v8.938a6.2 6.2 0 0 1 2.172-1.746 6.64 6.64 0 0 1 2.964-.627 7.97 7.97 0 0 1 4.156 1.11m-1.962 12.076a4.6 4.6 0 0 0 1.73-1.905 6.17 6.17 0 0 0 0-5.307 4.66 4.66 0 0 0-1.73-1.906 5.24 5.24 0 0 0-5.199 0 4.7 4.7 0 0 0-1.746 1.886 5.7 5.7 0 0 0-.627 2.691 5.65 5.65 0 0 0 .627 2.687c.395.779 1 1.432 1.746 1.885a5.24 5.24 0 0 0 5.199 0zM80.613 18.961H68.505c.112.847.43 1.653.925 2.348a4.2 4.2 0 0 0 1.72 1.387c.7.302 1.457.455 2.22.447a7.2 7.2 0 0 0 2.475-.452 8 8 0 0 0 2.271-1.28l1.777 2.57a9 9 0 0 1-3.107 1.771 11.8 11.8 0 0 1-3.642.54 8.73 8.73 0 0 1-4.351-1.069 7.6 7.6 0 0 1-2.97-3.03 9.3 9.3 0 0 1-1.073-4.531 9.53 9.53 0 0 1 1.027-4.5 7.57 7.57 0 0 1 2.887-3.046 8.2 8.2 0 0 1 4.28-1.105 7.33 7.33 0 0 1 6.775 4.11 9.84 9.84 0 0 1 .986 4.49c-.02.359-.056.806-.093 1.35m-3.596-2.722a5.1 5.1 0 0 0-1.377-2.98 3.83 3.83 0 0 0-2.784-1.047 4 4 0 0 0-2.938 1.089 5.2 5.2 0 0 0-1.413 2.953zM97.693 25.85H93.29l-4.16-5.707-4.11 5.707h-4.197l6.165-8.379-6.067-8.033h4.407l4.007 5.48 4.007-5.48H97.6l-6.092 8.003z"/></g><defs><clipPath id="a"><path fill="#fff" d="M0 .9h173.47v39.8H0z"/></clipPath></defs></svg>