<svg xmlns="http://www.w3.org/2000/svg" width="240" height="240" fill="none" viewBox="0 0 240 240"><path fill="#000" d="M34.352 68.402c-9.828.744-17.928 11.157-16.472 21.85.455 3.905 1.456 9.949 2.73 16.551a413 413 0 0 0 1.82 9.205 217 217 0 0 0 5.916 21.943 182 182 0 0 0 9.191 23.338c13.742 27.336 32.308 33.1 45.504 33.1a42.7 42.7 0 0 0 18-3.81 43.6 43.6 0 0 0 14.853-11.066 65.6 65.6 0 0 1-6.097-9.577c-5.825-10.972-9.556-23.617-12.741-36.82a87 87 0 0 1-5.825 15.249c-3.822 7.252-6.461 7.252-8.19 7.252-3.732 0-7.645-4.091-11.65-11.994a130 130 0 0 1-5.46-13.297c-1.092-3.254-2.184-6.601-3.094-9.855s-2.548-9.019-3.276-12.646c-1.911-8.833-4.186-23.338-4.277-23.802-.82-4.184-5.643-16.923-20.932-15.621M193.89 107.454c9.738-3.812 13.833-15.9 9.465-25.662l-.365-.93a82.5 82.5 0 0 0-6.188-11.437 40 40 0 0 0-3.822-5.393c-12.468-15.62-27.12-18.41-36.039-18.41a42.8 42.8 0 0 0-17.997 3.82 43.64 43.64 0 0 0-14.856 11.057 62 62 0 0 1 5.733 8.926c6.098 11.25 9.92 26.685 13.105 39.796 1.729-5.951 3.731-13.576 6.007-17.853 3.731-6.973 6.279-6.973 8.008-6.973 5.188 0 9.374 7.81 11.376 12.366 0 0 7.19 18.038 25.573 10.693"/><path fill="#000" d="m205.807 68.402-1.729-.186h-.455a93 93 0 0 1 5.096 10.042l.455.93a26.46 26.46 0 0 1 .582 19.774c-2.37 6.41-7.127 11.603-13.231 14.442a25.6 25.6 0 0 1-10.466 2.325 27.7 27.7 0 0 1-7.281-1.116c-2.548 9.763-6.552 21.757-10.192 29.01-3.641 7.252-7.918 11.994-11.74 11.994-1.638 0-4.278 0-8.1-7.252a86.8 86.8 0 0 1-5.824-15.249c-1.183-4.091-2.275-8.461-3.367-13.017-.456-1.674-.82-3.347-1.184-5.021-3.458-14.691-7.371-30.125-14.106-42.492a68 68 0 0 0-4.277-6.88 64 64 0 0 0-4.095-5.207 43.65 43.65 0 0 0-14.898-11.077 42.8 42.8 0 0 0-18.047-3.8c-8.827 0-23.48 2.79-35.947 18.41a25.5 25.5 0 0 1 9.928 8.139 26.25 26.25 0 0 1 4.815 12.038c.637 4.649 2.184 13.668 4.004 22.222.182.93.364 1.86.637 2.882 1.365-3.626 2.73-6.694 4.187-10.135l1.092-2.417c2.002-4.556 6.188-12.366 11.284-12.366 1.82 0 4.369 0 8.1 6.973a84 84 0 0 1 6.007 15.621c1.183 4.184 2.366 8.647 3.367 13.11.364 1.302.637 2.603.91 3.905 3.64 15.528 7.462 30.497 14.015 42.864a58 58 0 0 0 4.641 7.531 62 62 0 0 0 4.095 5.114c10.83 11.994 23.298 14.877 32.763 14.877 13.196 0 31.852-5.765 45.594-33.101 7.007-14.04 12.923-34.774 15.107-45.281s3.822-19.99 4.55-25.755c.346-2.53.198-5.104-.435-7.574a19.5 19.5 0 0 0-3.254-6.82 19.1 19.1 0 0 0-5.57-5.016 18.7 18.7 0 0 0-7.031-2.44"/></svg>