<svg xmlns="http://www.w3.org/2000/svg" width="105" height="77" fill="none" viewBox="0 0 105 77"><path fill="url(#a)" d="M32.518 76.002c-19.447 0-26.01-24.459-27.56-29.231C1.257 34.72.184 23.862.065 22.789c-.716-6.562 4.533-11.096 10.38-11.096 4.414 0 9.425 2.625 10.141 8.948.12 1.074.955 10.26 4.176 20.283 3.222 10.5 6.8 14.437 9.306 14.437 4.057 0 6.563-10.38 8.71-20.283C44.33 27.8 46.12 20.522 49.58 13.96 55.307 2.625 64.255 0 72.13 0c17.062 0 25.652 19.806 25.652 24.936 0 8.59-7.04 10.738-10.022 10.738-6.682 0-8.83-4.414-10.738-8.351-1.67-3.46-3.46-6.443-5.727-6.443q-1.074 0-2.148 1.073C63.42 27.8 61.511 58.106 50.177 69.68c-6.443 6.323-13.363 6.323-17.659 6.323"/><path fill="url(#b)" d="M32.518 76.002c-19.447 0-26.01-24.459-27.56-29.231C1.257 34.72.184 23.862.065 22.789c-.716-6.562 4.533-11.096 10.38-11.096 4.414 0 9.425 2.625 10.141 8.948.12 1.074.955 10.26 4.176 20.283 3.222 10.5 6.8 14.437 9.306 14.437 4.057 0 6.563-10.38 8.71-20.283C44.33 27.8 46.12 20.522 49.58 13.96 55.307 2.625 64.255 0 72.13 0c17.062 0 25.652 19.806 25.652 24.936 0 8.59-7.04 10.738-10.022 10.738-6.682 0-8.83-4.414-10.738-8.351-1.67-3.46-3.46-6.443-5.727-6.443q-1.074 0-2.148 1.073C63.42 27.8 61.511 58.106 50.177 69.68c-6.443 6.323-13.363 6.323-17.659 6.323"/><path fill="url(#c)" d="M32.518 76.002c-19.447 0-26.01-24.459-27.56-29.231C1.257 34.72.184 23.862.065 22.789c-.716-6.562 4.533-11.096 10.38-11.096 4.414 0 9.425 2.625 10.141 8.948.12 1.074.955 10.26 4.176 20.283 3.222 10.5 6.8 14.437 9.306 14.437 4.057 0 6.563-10.38 8.71-20.283C44.33 27.8 46.12 20.522 49.58 13.96 55.307 2.625 64.255 0 72.13 0c17.062 0 25.652 19.806 25.652 24.936 0 8.59-7.04 10.738-10.022 10.738-6.682 0-8.83-4.414-10.738-8.351-1.67-3.46-3.46-6.443-5.727-6.443q-1.074 0-2.148 1.073C63.42 27.8 61.511 58.106 50.177 69.68c-6.443 6.323-13.363 6.323-17.659 6.323"/><path fill="url(#d)" d="M32.518 76.002c-19.447 0-26.01-24.459-27.56-29.231C1.257 34.72.184 23.862.065 22.789c-.716-6.562 4.533-11.096 10.38-11.096 4.414 0 9.425 2.625 10.141 8.948.12 1.074.955 10.26 4.176 20.283 3.222 10.5 6.8 14.437 9.306 14.437 4.057 0 6.563-10.38 8.71-20.283C44.33 27.8 46.12 20.522 49.58 13.96 55.307 2.625 64.255 0 72.13 0c17.062 0 25.652 19.806 25.652 24.936 0 8.59-7.04 10.738-10.022 10.738-6.682 0-8.83-4.414-10.738-8.351-1.67-3.46-3.46-6.443-5.727-6.443q-1.074 0-2.148 1.073C63.42 27.8 61.511 58.106 50.177 69.68c-6.443 6.323-13.363 6.323-17.659 6.323"/><path fill="url(#e)" d="M32.518 76.002c-19.447 0-26.01-24.459-27.56-29.231C1.257 34.72.184 23.862.065 22.789c-.716-6.562 4.533-11.096 10.38-11.096 4.414 0 9.425 2.625 10.141 8.948.12 1.074.955 10.26 4.176 20.283 3.222 10.5 6.8 14.437 9.306 14.437 4.057 0 6.563-10.38 8.71-20.283C44.33 27.8 46.12 20.522 49.58 13.96 55.307 2.625 64.255 0 72.13 0c17.062 0 25.652 19.806 25.652 24.936 0 8.59-7.04 10.738-10.022 10.738-6.682 0-8.83-4.414-10.738-8.351-1.67-3.46-3.46-6.443-5.727-6.443q-1.074 0-2.148 1.073C63.42 27.8 61.511 58.106 50.177 69.68c-6.443 6.323-13.363 6.323-17.659 6.323"/><path fill="url(#f)" d="M32.518 76.002c-19.447 0-26.01-24.459-27.56-29.231C1.257 34.72.184 23.862.065 22.789c-.716-6.562 4.533-11.096 10.38-11.096 4.414 0 9.425 2.625 10.141 8.948.12 1.074.955 10.26 4.176 20.283 3.222 10.5 6.8 14.437 9.306 14.437 4.057 0 6.563-10.38 8.71-20.283C44.33 27.8 46.12 20.522 49.58 13.96 55.307 2.625 64.255 0 72.13 0c17.062 0 25.652 19.806 25.652 24.936 0 8.59-7.04 10.738-10.022 10.738-6.682 0-8.83-4.414-10.738-8.351-1.67-3.46-3.46-6.443-5.727-6.443q-1.074 0-2.148 1.073C63.42 27.8 61.511 58.106 50.177 69.68c-6.443 6.323-13.363 6.323-17.659 6.323"/><path fill="url(#g)" d="M32.518 76.002c-19.447 0-26.01-24.459-27.56-29.231C1.257 34.72.184 23.862.065 22.789c-.716-6.562 4.533-11.096 10.38-11.096 4.414 0 9.425 2.625 10.141 8.948.12 1.074.955 10.26 4.176 20.283 3.222 10.5 6.8 14.437 9.306 14.437 4.057 0 6.563-10.38 8.71-20.283C44.33 27.8 46.12 20.522 49.58 13.96 55.307 2.625 64.255 0 72.13 0c17.062 0 25.652 19.806 25.652 24.936 0 8.59-7.04 10.738-10.022 10.738-6.682 0-8.83-4.414-10.738-8.351-1.67-3.46-3.46-6.443-5.727-6.443q-1.074 0-2.148 1.073C63.42 27.8 61.511 58.106 50.177 69.68c-6.443 6.323-13.363 6.323-17.659 6.323"/><path fill="url(#h)" d="M32.518 76.002c-19.447 0-26.01-24.459-27.56-29.231C1.257 34.72.184 23.862.065 22.789c-.716-6.562 4.533-11.096 10.38-11.096 4.414 0 9.425 2.625 10.141 8.948.12 1.074.955 10.26 4.176 20.283 3.222 10.5 6.8 14.437 9.306 14.437 4.057 0 6.563-10.38 8.71-20.283C44.33 27.8 46.12 20.522 49.58 13.96 55.307 2.625 64.255 0 72.13 0c17.062 0 25.652 19.806 25.652 24.936 0 8.59-7.04 10.738-10.022 10.738-6.682 0-8.83-4.414-10.738-8.351-1.67-3.46-3.46-6.443-5.727-6.443q-1.074 0-2.148 1.073C63.42 27.8 61.511 58.106 50.177 69.68c-6.443 6.323-13.363 6.323-17.659 6.323"/><path fill="url(#i)" d="M32.518 76.002c-19.447 0-26.01-24.459-27.56-29.231C1.257 34.72.184 23.862.065 22.789c-.716-6.562 4.533-11.096 10.38-11.096 4.414 0 9.425 2.625 10.141 8.948.12 1.074.955 10.26 4.176 20.283 3.222 10.5 6.8 14.437 9.306 14.437 4.057 0 6.563-10.38 8.71-20.283C44.33 27.8 46.12 20.522 49.58 13.96 55.307 2.625 64.255 0 72.13 0c17.062 0 25.652 19.806 25.652 24.936 0 8.59-7.04 10.738-10.022 10.738-6.682 0-8.83-4.414-10.738-8.351-1.67-3.46-3.46-6.443-5.727-6.443q-1.074 0-2.148 1.073C63.42 27.8 61.511 58.106 50.177 69.68c-6.443 6.323-13.363 6.323-17.659 6.323"/><path fill="url(#j)" d="M72.13 0C64.375 0 55.307 2.625 49.34 13.96c-3.46 6.562-5.13 13.84-6.8 21.118-.478 2.386-1.074 4.772-1.67 7.159v32.93c2.982-.835 6.084-2.386 9.186-5.489C61.511 58.106 63.42 27.8 69.027 21.955q.895-1.074 2.148-1.074c2.267 0 4.057 2.863 5.727 6.443 1.91 3.937 4.176 8.351 10.738 8.351 2.983 0 10.022-2.147 10.022-10.738C97.663 19.806 89.193 0 72.13 0"/><path fill="url(#k)" d="M32.518 76.002c-19.447 0-26.01-24.459-27.56-29.231C1.257 34.72.184 23.862.065 22.789c-.716-6.562 4.533-11.096 10.38-11.096 4.414 0 9.425 2.625 10.141 8.948.12 1.074.955 10.26 4.176 20.283 3.222 10.5 6.8 14.437 9.306 14.437 4.057 0 6.563-10.38 8.71-20.283C44.33 27.8 46.12 20.522 49.58 13.96 55.307 2.625 64.255 0 72.13 0c17.062 0 25.652 19.806 25.652 24.936 0 8.59-7.04 10.738-10.022 10.738-6.682 0-8.83-4.414-10.738-8.351-1.67-3.46-3.46-6.443-5.727-6.443q-1.074 0-2.148 1.073C63.42 27.8 61.511 58.106 50.177 69.68c-6.443 6.323-13.363 6.323-17.659 6.323"/><path fill="url(#l)" d="M32.518 76.002c-19.447 0-26.01-24.459-27.56-29.231C1.257 34.72.184 23.862.065 22.789c-.716-6.562 4.533-11.096 10.38-11.096 4.414 0 9.425 2.625 10.141 8.948.12 1.074.955 10.26 4.176 20.283 3.222 10.5 6.8 14.437 9.306 14.437 4.057 0 6.563-10.38 8.71-20.283C44.33 27.8 46.12 20.522 49.58 13.96 55.307 2.625 64.255 0 72.13 0c17.062 0 25.652 19.806 25.652 24.936 0 8.59-7.04 10.738-10.022 10.738-6.682 0-8.83-4.414-10.738-8.351-1.67-3.46-3.46-6.443-5.727-6.443q-1.074 0-2.148 1.073C63.42 27.8 61.511 58.106 50.177 69.68c-6.443 6.323-13.363 6.323-17.659 6.323"/><path fill="url(#m)" d="M32.518 76.002c-19.447 0-26.01-24.459-27.56-29.231C1.257 34.72.184 23.862.065 22.789c-.716-6.562 4.533-11.096 10.38-11.096 4.414 0 9.425 2.625 10.141 8.948.12 1.074.955 10.26 4.176 20.283 3.222 10.5 6.8 14.437 9.306 14.437 4.057 0 6.563-10.38 8.71-20.283C44.33 27.8 46.12 20.522 49.58 13.96 55.307 2.625 64.255 0 72.13 0c17.062 0 25.652 19.806 25.652 24.936 0 8.59-7.04 10.738-10.022 10.738-6.682 0-8.83-4.414-10.738-8.351-1.67-3.46-3.46-6.443-5.727-6.443q-1.074 0-2.148 1.073C63.42 27.8 61.511 58.106 50.177 69.68c-6.443 6.323-13.363 6.323-17.659 6.323"/><path fill="url(#n)" d="M32.518 76.002c-19.447 0-26.01-24.459-27.56-29.231C1.257 34.72.184 23.862.065 22.789c-.716-6.562 4.533-11.096 10.38-11.096 4.414 0 9.425 2.625 10.141 8.948.12 1.074.955 10.26 4.176 20.283 3.222 10.5 6.8 14.437 9.306 14.437 4.057 0 6.563-10.38 8.71-20.283C44.33 27.8 46.12 20.522 49.58 13.96 55.307 2.625 64.255 0 72.13 0c17.062 0 25.652 19.806 25.652 24.936 0 8.59-7.04 10.738-10.022 10.738-6.682 0-8.83-4.414-10.738-8.351-1.67-3.46-3.46-6.443-5.727-6.443q-1.074 0-2.148 1.073C63.42 27.8 61.511 58.106 50.177 69.68c-6.443 6.323-13.363 6.323-17.659 6.323"/><path fill="url(#o)" d="M32.518 76.002c-19.447 0-26.01-24.459-27.56-29.231C1.257 34.72.184 23.862.065 22.789c-.716-6.562 4.533-11.096 10.38-11.096 4.414 0 9.425 2.625 10.141 8.948.12 1.074.955 10.26 4.176 20.283 3.222 10.5 6.8 14.437 9.306 14.437 4.057 0 6.563-10.38 8.71-20.283C44.33 27.8 46.12 20.522 49.58 13.96 55.307 2.625 64.255 0 72.13 0c17.062 0 25.652 19.806 25.652 24.936 0 8.59-7.04 10.738-10.022 10.738-6.682 0-8.83-4.414-10.738-8.351-1.67-3.46-3.46-6.443-5.727-6.443q-1.074 0-2.148 1.073C63.42 27.8 61.511 58.106 50.177 69.68c-6.443 6.323-13.363 6.323-17.659 6.323"/><path fill="#4A4A4A" d="M94.557 11.693c-.716 0-1.55.119-2.267.238 3.58 5.25 5.37 10.62 5.37 13.005 0 8.59-7.04 10.738-10.023 10.738-2.386 0-4.176-.596-5.607-1.431v.119c-.478 1.67-.716 3.58-1.313 5.37-1.074 3.46-2.625 7.396-4.295 10.499-1.79 3.34-3.46 5.25-5.488 5.13-2.387-.12-4.176-3.102-6.563-11.573-.715-2.744-1.431-5.727-2.147-8.71-1.67-7.278-3.58-14.676-6.92-21.118C49.815 3.34 40.39 0 32.874 0c-6.921 0-12.17 3.34-16.227 7.517-1.074 1.193-2.386 2.744-3.58 4.534 3.58.835 6.92 3.579 7.517 8.59.12.955.835 8.71 3.34 17.658.717-2.267 1.79-5.607 4.177-10.857 1.193-2.506 2.267-4.057 3.221-5.011.835-.955 1.67-1.313 2.386-1.313.836 0 3.46.716 6.085 9.784 3.102 11.096 5.489 28.993 14.556 38.538 4.057 4.176 9.664 6.92 17.42 6.92 6.8 0 12.527-2.983 16.584-7.159 6.682-6.92 10.38-18.255 11.693-22.43 3.698-11.932 4.772-22.79 4.891-23.982.716-6.562-4.891-11.096-10.38-11.096"/><path fill="url(#p)" d="M94.557 11.693c-.716 0-1.55.119-2.267.238 3.58 5.25 5.37 10.62 5.37 13.005 0 8.59-7.04 10.738-10.023 10.738-2.386 0-4.176-.596-5.607-1.431v.119c-.478 1.67-.716 3.58-1.313 5.37-1.074 3.46-2.625 7.396-4.295 10.499-1.79 3.34-3.46 5.25-5.488 5.13-2.387-.12-4.176-3.102-6.563-11.573-.715-2.744-1.431-5.727-2.147-8.71-1.67-7.278-3.58-14.676-6.92-21.118C49.815 3.34 40.39 0 32.874 0c-6.921 0-12.17 3.34-16.227 7.517-1.074 1.193-2.386 2.744-3.58 4.534 3.58.835 6.92 3.579 7.517 8.59.12.955.835 8.71 3.34 17.658.717-2.267 1.79-5.607 4.177-10.857 1.193-2.506 2.267-4.057 3.221-5.011.835-.955 1.67-1.313 2.386-1.313.836 0 3.46.716 6.085 9.784 3.102 11.096 5.489 28.993 14.556 38.538 4.057 4.176 9.664 6.92 17.42 6.92 6.8 0 12.527-2.983 16.584-7.159 6.682-6.92 10.38-18.255 11.693-22.43 3.698-11.932 4.772-22.79 4.891-23.982.716-6.562-4.891-11.096-10.38-11.096"/><path fill="url(#q)" d="M94.557 11.693c-.716 0-1.55.119-2.267.238 3.58 5.25 5.37 10.62 5.37 13.005 0 8.59-7.04 10.738-10.023 10.738-2.386 0-4.176-.596-5.607-1.431v.119c-.478 1.67-.716 3.58-1.313 5.37-1.074 3.46-2.625 7.396-4.295 10.499-1.79 3.34-3.46 5.25-5.488 5.13-2.387-.12-4.176-3.102-6.563-11.573-.715-2.744-1.431-5.727-2.147-8.71-1.67-7.278-3.58-14.676-6.92-21.118C49.815 3.34 40.39 0 32.874 0c-6.921 0-12.17 3.34-16.227 7.517-1.074 1.193-2.386 2.744-3.58 4.534 3.58.835 6.92 3.579 7.517 8.59.12.955.835 8.71 3.34 17.658.717-2.267 1.79-5.607 4.177-10.857 1.193-2.506 2.267-4.057 3.221-5.011.835-.955 1.67-1.313 2.386-1.313.836 0 3.46.716 6.085 9.784 3.102 11.096 5.489 28.993 14.556 38.538 4.057 4.176 9.664 6.92 17.42 6.92 6.8 0 12.527-2.983 16.584-7.159 6.682-6.92 10.38-18.255 11.693-22.43 3.698-11.932 4.772-22.79 4.891-23.982.716-6.562-4.891-11.096-10.38-11.096"/><path fill="url(#r)" d="M94.557 11.693c-.716 0-1.55.119-2.267.238 3.58 5.25 5.37 10.62 5.37 13.005 0 8.59-7.04 10.738-10.023 10.738-2.386 0-4.176-.596-5.607-1.431v.119c-.478 1.67-.716 3.58-1.313 5.37-1.074 3.46-2.625 7.396-4.295 10.499-1.79 3.34-3.46 5.25-5.488 5.13-2.387-.12-4.176-3.102-6.563-11.573-.715-2.744-1.431-5.727-2.147-8.71-1.67-7.278-3.58-14.676-6.92-21.118C49.815 3.34 40.39 0 32.874 0c-6.921 0-12.17 3.34-16.227 7.517-1.074 1.193-2.386 2.744-3.58 4.534 3.58.835 6.92 3.579 7.517 8.59.12.955.835 8.71 3.34 17.658.717-2.267 1.79-5.607 4.177-10.857 1.193-2.506 2.267-4.057 3.221-5.011.835-.955 1.67-1.313 2.386-1.313.836 0 3.46.716 6.085 9.784 3.102 11.096 5.489 28.993 14.556 38.538 4.057 4.176 9.664 6.92 17.42 6.92 6.8 0 12.527-2.983 16.584-7.159 6.682-6.92 10.38-18.255 11.693-22.43 3.698-11.932 4.772-22.79 4.891-23.982.716-6.562-4.891-11.096-10.38-11.096"/><path fill="url(#s)" d="M94.557 11.693c-.716 0-1.55.119-2.267.238 3.58 5.25 5.37 10.62 5.37 13.005 0 8.59-7.04 10.738-10.023 10.738-2.386 0-4.176-.596-5.607-1.431v.119c-.478 1.67-.716 3.58-1.313 5.37-1.074 3.46-2.625 7.396-4.295 10.499-1.79 3.34-3.46 5.25-5.488 5.13-2.387-.12-4.176-3.102-6.563-11.573-.715-2.744-1.431-5.727-2.147-8.71-1.67-7.278-3.58-14.676-6.92-21.118C49.815 3.34 40.39 0 32.874 0c-6.921 0-12.17 3.34-16.227 7.517-1.074 1.193-2.386 2.744-3.58 4.534 3.58.835 6.92 3.579 7.517 8.59.12.955.835 8.71 3.34 17.658.717-2.267 1.79-5.607 4.177-10.857 1.193-2.506 2.267-4.057 3.221-5.011.835-.955 1.67-1.313 2.386-1.313.836 0 3.46.716 6.085 9.784 3.102 11.096 5.489 28.993 14.556 38.538 4.057 4.176 9.664 6.92 17.42 6.92 6.8 0 12.527-2.983 16.584-7.159 6.682-6.92 10.38-18.255 11.693-22.43 3.698-11.932 4.772-22.79 4.891-23.982.716-6.562-4.891-11.096-10.38-11.096"/><path fill="url(#t)" d="M94.557 11.693c-.716 0-1.55.119-2.267.238 3.58 5.25 5.37 10.62 5.37 13.005 0 8.59-7.04 10.738-10.023 10.738-2.386 0-4.176-.596-5.607-1.431v.119c-.478 1.67-.716 3.58-1.313 5.37-1.074 3.46-2.625 7.396-4.295 10.499-1.79 3.34-3.46 5.25-5.488 5.13-2.387-.12-4.176-3.102-6.563-11.573-.715-2.744-1.431-5.727-2.147-8.71-1.67-7.278-3.58-14.676-6.92-21.118C49.815 3.34 40.39 0 32.874 0c-6.921 0-12.17 3.34-16.227 7.517-1.074 1.193-2.386 2.744-3.58 4.534 3.58.835 6.92 3.579 7.517 8.59.12.955.835 8.71 3.34 17.658.717-2.267 1.79-5.607 4.177-10.857 1.193-2.506 2.267-4.057 3.221-5.011.835-.955 1.67-1.313 2.386-1.313.836 0 3.46.716 6.085 9.784 3.102 11.096 5.489 28.993 14.556 38.538 4.057 4.176 9.664 6.92 17.42 6.92 6.8 0 12.527-2.983 16.584-7.159 6.682-6.92 10.38-18.255 11.693-22.43 3.698-11.932 4.772-22.79 4.891-23.982.716-6.562-4.891-11.096-10.38-11.096"/><path fill="url(#u)" d="M94.557 11.693c-.716 0-1.55.119-2.267.238 3.58 5.25 5.37 10.62 5.37 13.005 0 8.59-7.04 10.738-10.023 10.738-2.386 0-4.176-.596-5.607-1.431v.119c-.478 1.67-.716 3.58-1.313 5.37-1.074 3.46-2.625 7.396-4.295 10.499-1.79 3.34-3.46 5.25-5.488 5.13-2.387-.12-4.176-3.102-6.563-11.573-.715-2.744-1.431-5.727-2.147-8.71-1.67-7.278-3.58-14.676-6.92-21.118C49.815 3.34 40.39 0 32.874 0c-6.921 0-12.17 3.34-16.227 7.517-1.074 1.193-2.386 2.744-3.58 4.534 3.58.835 6.92 3.579 7.517 8.59.12.955.835 8.71 3.34 17.658.717-2.267 1.79-5.607 4.177-10.857 1.193-2.506 2.267-4.057 3.221-5.011.835-.955 1.67-1.313 2.386-1.313.836 0 3.46.716 6.085 9.784 3.102 11.096 5.489 28.993 14.556 38.538 4.057 4.176 9.664 6.92 17.42 6.92 6.8 0 12.527-2.983 16.584-7.159 6.682-6.92 10.38-18.255 11.693-22.43 3.698-11.932 4.772-22.79 4.891-23.982.716-6.562-4.891-11.096-10.38-11.096"/><path fill="url(#v)" d="M94.557 11.693c-.716 0-1.55.119-2.267.238 3.58 5.25 5.37 10.62 5.37 13.005 0 8.59-7.04 10.738-10.023 10.738-2.386 0-4.176-.596-5.607-1.431v.119c-.478 1.67-.716 3.58-1.313 5.37-1.074 3.46-2.625 7.396-4.295 10.499-1.79 3.34-3.46 5.25-5.488 5.13-2.387-.12-4.176-3.102-6.563-11.573-.715-2.744-1.431-5.727-2.147-8.71-1.67-7.278-3.58-14.676-6.92-21.118C49.815 3.34 40.39 0 32.874 0c-6.921 0-12.17 3.34-16.227 7.517-1.074 1.193-2.386 2.744-3.58 4.534 3.58.835 6.92 3.579 7.517 8.59.12.955.835 8.71 3.34 17.658.717-2.267 1.79-5.607 4.177-10.857 1.193-2.506 2.267-4.057 3.221-5.011.835-.955 1.67-1.313 2.386-1.313.836 0 3.46.716 6.085 9.784 3.102 11.096 5.489 28.993 14.556 38.538 4.057 4.176 9.664 6.92 17.42 6.92 6.8 0 12.527-2.983 16.584-7.159 6.682-6.92 10.38-18.255 11.693-22.43 3.698-11.932 4.772-22.79 4.891-23.982.716-6.562-4.891-11.096-10.38-11.096"/><path fill="url(#w)" d="M94.557 11.693c-.716 0-1.55.119-2.267.238 3.58 5.25 5.37 10.62 5.37 13.005 0 8.59-7.04 10.738-10.023 10.738-2.386 0-4.176-.596-5.607-1.431v.119c-.478 1.67-.716 3.58-1.313 5.37-1.074 3.46-2.625 7.396-4.295 10.499-1.79 3.34-3.46 5.25-5.488 5.13-2.387-.12-4.176-3.102-6.563-11.573-.715-2.744-1.431-5.727-2.147-8.71-1.67-7.278-3.58-14.676-6.92-21.118C49.815 3.34 40.39 0 32.874 0c-6.921 0-12.17 3.34-16.227 7.517-1.074 1.193-2.386 2.744-3.58 4.534 3.58.835 6.92 3.579 7.517 8.59.12.955.835 8.71 3.34 17.658.717-2.267 1.79-5.607 4.177-10.857 1.193-2.506 2.267-4.057 3.221-5.011.835-.955 1.67-1.313 2.386-1.313.836 0 3.46.716 6.085 9.784 3.102 11.096 5.489 28.993 14.556 38.538 4.057 4.176 9.664 6.92 17.42 6.92 6.8 0 12.527-2.983 16.584-7.159 6.682-6.92 10.38-18.255 11.693-22.43 3.698-11.932 4.772-22.79 4.891-23.982.716-6.562-4.891-11.096-10.38-11.096"/><path fill="url(#x)" d="M94.557 11.693c-.716 0-1.55.119-2.267.238 3.58 5.25 5.37 10.62 5.37 13.005 0 8.59-7.04 10.738-10.023 10.738-2.386 0-4.176-.596-5.607-1.431v.119c-.478 1.67-.716 3.58-1.313 5.37-1.074 3.46-2.625 7.396-4.295 10.499-1.79 3.34-3.46 5.25-5.488 5.13-2.387-.12-4.176-3.102-6.563-11.573-.715-2.744-1.431-5.727-2.147-8.71-1.67-7.278-3.58-14.676-6.92-21.118C49.815 3.34 40.39 0 32.874 0c-6.921 0-12.17 3.34-16.227 7.517-1.074 1.193-2.386 2.744-3.58 4.534 3.58.835 6.92 3.579 7.517 8.59.12.955.835 8.71 3.34 17.658.717-2.267 1.79-5.607 4.177-10.857 1.193-2.506 2.267-4.057 3.221-5.011.835-.955 1.67-1.313 2.386-1.313.836 0 3.46.716 6.085 9.784 3.102 11.096 5.489 28.993 14.556 38.538 4.057 4.176 9.664 6.92 17.42 6.92 6.8 0 12.527-2.983 16.584-7.159 6.682-6.92 10.38-18.255 11.693-22.43 3.698-11.932 4.772-22.79 4.891-23.982.716-6.562-4.891-11.096-10.38-11.096"/><path fill="url(#y)" d="M94.557 11.693c-.716 0-1.55.119-2.267.238 3.58 5.25 5.37 10.62 5.37 13.005 0 8.59-7.04 10.738-10.023 10.738-2.386 0-4.176-.596-5.607-1.431v.119c-.478 1.67-.716 3.58-1.313 5.37-1.074 3.46-2.625 7.396-4.295 10.499-1.79 3.34-3.46 5.25-5.488 5.13-2.387-.12-4.176-3.102-6.563-11.573-.715-2.744-1.431-5.727-2.147-8.71-1.67-7.278-3.58-14.676-6.92-21.118C49.815 3.34 40.39 0 32.874 0c-6.921 0-12.17 3.34-16.227 7.517-1.074 1.193-2.386 2.744-3.58 4.534 3.58.835 6.92 3.579 7.517 8.59.12.955.835 8.71 3.34 17.658.717-2.267 1.79-5.607 4.177-10.857 1.193-2.506 2.267-4.057 3.221-5.011.835-.955 1.67-1.313 2.386-1.313.836 0 3.46.716 6.085 9.784 3.102 11.096 5.489 28.993 14.556 38.538 4.057 4.176 9.664 6.92 17.42 6.92 6.8 0 12.527-2.983 16.584-7.159 6.682-6.92 10.38-18.255 11.693-22.43 3.698-11.932 4.772-22.79 4.891-23.982.716-6.562-4.891-11.096-10.38-11.096"/><path fill="url(#z)" d="M94.557 11.693c-.716 0-1.55.119-2.267.238 3.58 5.25 5.37 10.62 5.37 13.005 0 8.59-7.04 10.738-10.023 10.738-2.386 0-4.176-.596-5.607-1.431v.119c-.478 1.67-.716 3.58-1.313 5.37-1.074 3.46-2.625 7.396-4.295 10.499-1.79 3.34-3.46 5.25-5.488 5.13-2.387-.12-4.176-3.102-6.563-11.573-.715-2.744-1.431-5.727-2.147-8.71-1.67-7.278-3.58-14.676-6.92-21.118C49.815 3.34 40.39 0 32.874 0c-6.921 0-12.17 3.34-16.227 7.517-1.074 1.193-2.386 2.744-3.58 4.534 3.58.835 6.92 3.579 7.517 8.59.12.955.835 8.71 3.34 17.658.717-2.267 1.79-5.607 4.177-10.857 1.193-2.506 2.267-4.057 3.221-5.011.835-.955 1.67-1.313 2.386-1.313.836 0 3.46.716 6.085 9.784 3.102 11.096 5.489 28.993 14.556 38.538 4.057 4.176 9.664 6.92 17.42 6.92 6.8 0 12.527-2.983 16.584-7.159 6.682-6.92 10.38-18.255 11.693-22.43 3.698-11.932 4.772-22.79 4.891-23.982.716-6.562-4.891-11.096-10.38-11.096"/><path fill="url(#A)" d="M94.557 11.693c-.716 0-1.55.119-2.267.238 3.58 5.25 5.37 10.62 5.37 13.005 0 8.59-7.04 10.738-10.023 10.738-2.386 0-4.176-.596-5.607-1.431v.119c-.478 1.67-.716 3.58-1.313 5.37-1.074 3.46-2.625 7.396-4.295 10.499-1.79 3.34-3.46 5.25-5.488 5.13-2.387-.12-4.176-3.102-6.563-11.573-.715-2.744-1.431-5.727-2.147-8.71-1.67-7.278-3.58-14.676-6.92-21.118C49.815 3.34 40.39 0 32.874 0c-6.921 0-12.17 3.34-16.227 7.517-1.074 1.193-2.386 2.744-3.58 4.534 3.58.835 6.92 3.579 7.517 8.59.12.955.835 8.71 3.34 17.658.717-2.267 1.79-5.607 4.177-10.857 1.193-2.506 2.267-4.057 3.221-5.011.835-.955 1.67-1.313 2.386-1.313.836 0 3.46.716 6.085 9.784 3.102 11.096 5.489 28.993 14.556 38.538 4.057 4.176 9.664 6.92 17.42 6.92 6.8 0 12.527-2.983 16.584-7.159 6.682-6.92 10.38-18.255 11.693-22.43 3.698-11.932 4.772-22.79 4.891-23.982.716-6.562-4.891-11.096-10.38-11.096"/><path fill="url(#B)" d="M94.557 11.693c-.716 0-1.55.119-2.267.238 3.58 5.25 5.37 10.62 5.37 13.005 0 8.59-7.04 10.738-10.023 10.738-2.386 0-4.176-.596-5.607-1.431v.119c-.478 1.67-.716 3.58-1.313 5.37-1.074 3.46-2.625 7.396-4.295 10.499-1.79 3.34-3.46 5.25-5.488 5.13-2.387-.12-4.176-3.102-6.563-11.573-.715-2.744-1.431-5.727-2.147-8.71-1.67-7.278-3.58-14.676-6.92-21.118C49.815 3.34 40.39 0 32.874 0c-6.921 0-12.17 3.34-16.227 7.517-1.074 1.193-2.386 2.744-3.58 4.534 3.58.835 6.92 3.579 7.517 8.59.12.955.835 8.71 3.34 17.658.717-2.267 1.79-5.607 4.177-10.857 1.193-2.506 2.267-4.057 3.221-5.011.835-.955 1.67-1.313 2.386-1.313.836 0 3.46.716 6.085 9.784 3.102 11.096 5.489 28.993 14.556 38.538 4.057 4.176 9.664 6.92 17.42 6.92 6.8 0 12.527-2.983 16.584-7.159 6.682-6.92 10.38-18.255 11.693-22.43 3.698-11.932 4.772-22.79 4.891-23.982.716-6.562-4.891-11.096-10.38-11.096"/><defs><radialGradient id="b" cx="0" cy="0" r="1" gradientTransform="rotate(-120.881 31.453 8.955)scale(44.9643 37.7619)" gradientUnits="userSpaceOnUse"><stop/><stop offset=".408" stop-opacity=".75"/><stop offset=".875" stop-opacity="0"/></radialGradient><radialGradient id="c" cx="0" cy="0" r="1" gradientTransform="rotate(-126.757 42.807 -1.31)scale(36.673 24.1017)" gradientUnits="userSpaceOnUse"><stop stop-color="#0D0D0D"/><stop offset=".46" stop-color="#090909"/><stop offset="1" stop-opacity="0"/></radialGradient><radialGradient id="d" cx="0" cy="0" r="1" gradientTransform="matrix(-17.50313 -31.73828 22.00446 -12.13509 45.88 45.935)" gradientUnits="userSpaceOnUse"><stop/><stop offset=".408" stop-opacity=".79"/><stop offset=".875" stop-opacity="0"/></radialGradient><radialGradient id="e" cx="0" cy="0" r="1" gradientTransform="matrix(2.44243 28.45417 -16.152 1.38645 64.15 33.011)" gradientUnits="userSpaceOnUse"><stop/><stop offset=".233" stop-opacity=".75"/><stop offset=".599" stop-opacity=".301"/><stop offset=".875" stop-opacity="0"/></radialGradient><radialGradient id="f" cx="0" cy="0" r="1" gradientTransform="matrix(18.26127 28.17982 -14.78527 9.58124 65.387 -13.15)" gradientUnits="userSpaceOnUse"><stop stop-color="#2B2B2B"/><stop offset=".408" stop-color="#323232"/><stop offset="1" stop-color="#323232" stop-opacity=".07"/></radialGradient><radialGradient id="g" cx="0" cy="0" r="1" gradientTransform="matrix(16.1071 14.91408 -20.61284 22.26171 -4.828 13.124)" gradientUnits="userSpaceOnUse"><stop stop-color="#fff"/><stop offset="1" stop-color="#4A4A4A" stop-opacity="0"/></radialGradient><radialGradient id="h" cx="0" cy="0" r="1" gradientTransform="rotate(-8.842 219.247 125.986)scale(27.168 37.5492)" gradientUnits="userSpaceOnUse"><stop stop-color="#fff"/><stop offset="1" stop-color="#4A4A4A" stop-opacity="0"/></radialGradient><radialGradient id="i" cx="0" cy="0" r="1" gradientTransform="matrix(23.86236 -14.9141 20.6129 32.98036 -10.197 61.446)" gradientUnits="userSpaceOnUse"><stop stop-color="#fff"/><stop offset="1" stop-color="#4A4A4A" stop-opacity="0"/></radialGradient><radialGradient id="j" cx="0" cy="0" r="1" gradientTransform="matrix(59.54008 66.09857 -66.00012 59.4514 19.721 -28.493)" gradientUnits="userSpaceOnUse"><stop stop-color="#464646"/><stop offset=".745" stop-color="#444" stop-opacity="0"/></radialGradient><radialGradient id="k" cx="0" cy="0" r="1" gradientTransform="rotate(-129.574 49.972 -10.157)scale(30.3213 21.2312)" gradientUnits="userSpaceOnUse"><stop stop-color="#717171"/><stop offset="1" stop-color="#444" stop-opacity="0"/></radialGradient><radialGradient id="l" cx="0" cy="0" r="1" gradientTransform="rotate(-77.87 67.652 -32.14)scale(7.56533 10.5808)" gradientUnits="userSpaceOnUse"><stop stop-color="#0F0F0F"/><stop offset="1" stop-opacity="0"/></radialGradient><radialGradient id="m" cx="0" cy="0" r="1" gradientTransform="rotate(-151.542 49.743 -2.772)scale(20.4665 14.3789)" gradientUnits="userSpaceOnUse"><stop stop-color="#7C7C7C"/><stop offset=".813" stop-color="#727272" stop-opacity="0"/></radialGradient><radialGradient id="n" cx="0" cy="0" r="1" gradientTransform="matrix(-20.97628 -3.78708 2.66066 -14.73715 97.78 12.528)" gradientUnits="userSpaceOnUse"><stop stop-color="#C4C4C4"/><stop offset=".813" stop-color="#727272" stop-opacity="0"/></radialGradient><radialGradient id="o" cx="0" cy="0" r="1" gradientTransform="rotate(49.627 -.765 -19.927)scale(43.8609 43.7572)" gradientUnits="userSpaceOnUse"><stop stop-color="#4C4C4C"/><stop offset="1" stop-color="#494949" stop-opacity="0"/></radialGradient><radialGradient id="q" cx="0" cy="0" r="1" gradientTransform="matrix(17.73104 13.57264 -18.8616 24.64043 86.07 34.313)" gradientUnits="userSpaceOnUse"><stop stop-color="#010101"/><stop offset=".966" stop-color="#010101" stop-opacity="0"/></radialGradient><radialGradient id="t" cx="0" cy="0" r="1" gradientTransform="rotate(8.479 -208.48 561.366)scale(26.3543 39.3065)" gradientUnits="userSpaceOnUse"><stop stop-color="#010101"/><stop offset=".593" stop-color="#010101" stop-opacity="0"/></radialGradient><radialGradient id="u" cx="0" cy="0" r="1" gradientTransform="rotate(24.645 -50.552 209.205)scale(22.5094 40.0878)" gradientUnits="userSpaceOnUse"><stop stop-color="#010101"/><stop offset=".757" stop-color="#010101" stop-opacity="0"/></radialGradient><radialGradient id="v" cx="0" cy="0" r="1" gradientTransform="rotate(95.906 1.37 32.608)scale(17.3927 7.48612)" gradientUnits="userSpaceOnUse"><stop stop-color="#010101"/><stop offset=".885" stop-color="#010101" stop-opacity="0"/></radialGradient><radialGradient id="w" cx="0" cy="0" r="1" gradientTransform="rotate(-7.595 300.452 -38.306)scale(45.1379 46.0101)" gradientUnits="userSpaceOnUse"><stop stop-color="#010101" stop-opacity=".5"/><stop offset=".885" stop-color="#010101" stop-opacity="0"/></radialGradient><radialGradient id="x" cx="0" cy="0" r="1" gradientTransform="matrix(50.1109 -2.98281 5.82705 97.89373 13.067 32.214)" gradientUnits="userSpaceOnUse"><stop stop-color="#010101" stop-opacity=".5"/><stop offset=".823" stop-color="#010101" stop-opacity="0"/></radialGradient><radialGradient id="z" cx="0" cy="0" r="1" gradientTransform="rotate(-159.542 15.65 11.538)scale(19.9265 34.0983)" gradientUnits="userSpaceOnUse"><stop stop-color="#010101"/><stop offset=".709" stop-color="#010101" stop-opacity="0"/></radialGradient><radialGradient id="A" cx="0" cy="0" r="1" gradientTransform="rotate(57.848 12.256 50.234)scale(24.6618 16.6437)" gradientUnits="userSpaceOnUse"><stop stop-color="#fff" stop-opacity=".15"/><stop offset="1" stop-color="#fff" stop-opacity="0"/></radialGradient><linearGradient id="a" x1="87.255" x2="18.587" y1="22.898" y2="45.437" gradientUnits="userSpaceOnUse"><stop stop-color="#7B7B7B"/><stop offset="1" stop-color="#464646"/></linearGradient><linearGradient id="p" x1="101.955" x2="6.505" y1="36.39" y2="36.39" gradientUnits="userSpaceOnUse"><stop stop-color="#3E3E3E" stop-opacity="0"/><stop offset=".461" stop-color="#3E3E3E"/><stop offset="1" stop-color="#3E3E3E" stop-opacity="0"/></linearGradient><linearGradient id="r" x1="127.607" x2="85.251" y1="25.652" y2="53.094" gradientUnits="userSpaceOnUse"><stop stop-color="#fff" stop-opacity=".3"/><stop offset=".966" stop-color="#fff" stop-opacity="0"/></linearGradient><linearGradient id="s" x1="98.375" x2="75.706" y1="76.36" y2="65.025" gradientUnits="userSpaceOnUse"><stop stop-color="#fff" stop-opacity=".3"/><stop offset=".966" stop-color="#fff" stop-opacity="0"/></linearGradient><linearGradient id="y" x1="39.316" x2="63.775" y1="85.905" y2="64.429" gradientUnits="userSpaceOnUse"><stop stop-color="#010101"/><stop offset="1" stop-color="#010101" stop-opacity="0"/></linearGradient><linearGradient id="B" x1="31.561" x2="32.754" y1="-4.772" y2="6.562" gradientUnits="userSpaceOnUse"><stop stop-opacity=".5"/><stop offset="1" stop-opacity="0"/></linearGradient></defs></svg>