<svg xmlns="http://www.w3.org/2000/svg" width="378" height="24" fill="none" viewBox="0 0 378 24"><path fill="#000" d="M19.948 6.219h3.137l-4.562 13.789h-3.599l-3.41-10.406-3.409 10.406H4.562L0 6.218h3.211l3.237 10.48 3.396-10.48h3.41l3.452 10.536zM36.542 14.22H26.365a4.4 4.4 0 0 0 .777 1.972c.369.512.868.914 1.446 1.166a4.6 4.6 0 0 0 1.864.375 6 6 0 0 0 2.08-.38 6.8 6.8 0 0 0 1.908-1.074l1.498 2.158a7.6 7.6 0 0 1-2.616 1.489c-.988.31-2.02.463-3.055.453a7.3 7.3 0 0 1-3.656-.898 6.37 6.37 0 0 1-2.499-2.546 7.8 7.8 0 0 1-.897-3.807 8 8 0 0 1 .863-3.78 6.36 6.36 0 0 1 2.425-2.56 6.9 6.9 0 0 1 3.57-.915 6.14 6.14 0 0 1 5.692 3.453 8.26 8.26 0 0 1 .829 3.772q.006.436-.052 1.122m-3.021-2.287a4.26 4.26 0 0 0-1.153-2.52 3.2 3.2 0 0 0-2.347-.864 3.38 3.38 0 0 0-2.469.915 4.38 4.38 0 0 0-1.187 2.482zM49.416 6.797a6.7 6.7 0 0 1 2.49 2.59 7.6 7.6 0 0 1 .915 3.729 7.57 7.57 0 0 1-.915 3.724 6.7 6.7 0 0 1-5.981 3.526 5.6 5.6 0 0 1-2.49-.522 5.1 5.1 0 0 1-1.826-1.476v1.64h-3.021V.35h3.02v7.51a5.2 5.2 0 0 1 1.827-1.468 5.6 5.6 0 0 1 2.49-.527 6.7 6.7 0 0 1 3.491.932m-1.648 10.147a3.9 3.9 0 0 0 1.454-1.601 5.18 5.18 0 0 0 0-4.459 3.9 3.9 0 0 0-1.454-1.6 4.4 4.4 0 0 0-4.368 0c-.627.38-1.136.929-1.467 1.583a4.8 4.8 0 0 0-.527 2.262c-.014.784.167 1.56.527 2.257.331.654.84 1.203 1.467 1.584a4.4 4.4 0 0 0 4.368 0zM67.727 14.22H57.555a4.4 4.4 0 0 0 .777 1.972c.368.512.868.914 1.446 1.166a4.6 4.6 0 0 0 1.864.375 6 6 0 0 0 2.08-.38 6.8 6.8 0 0 0 1.908-1.074l1.493 2.158a7.5 7.5 0 0 1-2.611 1.489c-.99.31-2.023.463-3.06.453a7.34 7.34 0 0 1-3.655-.898 6.4 6.4 0 0 1-2.495-2.546 7.8 7.8 0 0 1-.902-3.807 8 8 0 0 1 .863-3.78 6.36 6.36 0 0 1 2.426-2.56 6.9 6.9 0 0 1 3.595-.927 6.15 6.15 0 0 1 5.692 3.452 8.3 8.3 0 0 1 .829 3.772c-.017.302-.048.678-.078 1.135m-3.02-2.287A4.3 4.3 0 0 0 63.55 9.43a3.22 3.22 0 0 0-2.34-.88 3.37 3.37 0 0 0-2.468.914 4.36 4.36 0 0 0-1.187 2.482zM82.077 20.008H78.38l-3.496-4.795-3.453 4.795h-3.526l5.18-7.04-5.098-6.75h3.703l3.367 4.606 3.366-4.605H82l-5.119 6.724zM94.663 13.398c-3.197-.882-4.188-2.014-4.188-3.911 0-2.006 1.773-3.537 4.938-3.537 2.948 0 5.113 1.398 5.454 3.728H98.86c-.208-1.34-1.382-2.122-3.447-2.122-2.107 0-2.99.824-2.99 1.856 0 1.073.458 1.59 3.623 2.471 3.83 1.074 4.921 2.197 4.921 4.328 0 2.147-1.957 4.094-5.38 4.094-2.964 0-5.204-1.623-5.587-4.152h2.015c.233 1.547 1.49 2.546 3.54 2.546 2.298 0 3.464-1.107 3.464-2.413-.009-1.282-.642-1.881-4.356-2.888M104.431 10.06v6.525c0 1.473.782 2.147 2.065 2.147 1.665 0 2.448-1.248 2.448-2.605v-6.066h1.841v9.952h-1.516l-.208-1.148c-.708.957-1.782 1.431-2.99 1.431-2.048 0-3.489-1.206-3.489-3.753v-6.482zM112.885 8.397V6.233h2.065v2.164zm.108 11.617v-9.953h1.84v9.953zM121.478 20.114c-.5.133-.9.191-1.358.191-1.765 0-2.665-1.107-2.665-2.754v-5.917h-1.474v-1.573h1.474l.117-2.388h1.724v2.388h2.148v1.573h-2.148v5.95c0 .749.366 1.107 1.049 1.107.325 0 .575-.017 1.133-.15zM131.395 17.143c-.5 1.814-2.065 3.154-4.463 3.154-2.832 0-4.88-1.764-4.88-5.26 0-3.461 2.032-5.259 4.788-5.259s4.672 1.648 4.672 5.667h-7.587c.15 2.297 1.399 3.312 3.065 3.312 1.207 0 2.123-.69 2.415-1.606h1.99zm-7.386-3.154h5.629c-.133-1.856-1.224-2.738-2.756-2.738-1.474 0-2.59.899-2.873 2.738M142.504 13.398c-3.198-.883-4.197-2.006-4.197-3.903 0-2.006 1.782-3.537 4.938-3.537 2.948 0 5.113 1.398 5.455 3.728h-1.999c-.208-1.34-1.382-2.122-3.447-2.122-2.107 0-2.99.824-2.99 1.856 0 1.073.458 1.59 3.623 2.471 3.83 1.074 4.921 2.197 4.921 4.328 0 2.147-1.957 4.094-5.38 4.094-2.964 0-5.204-1.623-5.587-4.153h2.015c.233 1.548 1.491 2.547 3.539 2.547 2.299 0 3.464-1.107 3.464-2.413-.008-1.29-.632-1.89-4.355-2.896M159.3 17.143c-.499 1.814-2.065 3.154-4.463 3.154-2.831 0-4.88-1.764-4.88-5.26 0-3.461 2.032-5.259 4.788-5.259s4.672 1.648 4.672 5.667h-7.586c.15 2.297 1.399 3.312 3.064 3.312 1.208 0 2.124-.69 2.415-1.606h1.99zm-7.386-3.154h5.629c-.133-1.856-1.224-2.738-2.756-2.738-1.474 0-2.59.899-2.873 2.738M165.588 20.114c-.5.133-.899.191-1.357.191-1.766 0-2.665-1.107-2.665-2.754v-5.917h-1.474v-1.573h1.474l.116-2.388h1.724v2.388h2.149v1.573h-2.149v5.95c0 .749.367 1.107 1.049 1.107.325 0 .575-.017 1.133-.15zM171.275 20.114a5 5 0 0 1-1.357.191c-1.765 0-2.665-1.107-2.665-2.754v-5.917h-1.474v-1.573h1.474l.117-2.388h1.724v2.388h2.148v1.573h-2.148v5.95c0 .749.366 1.107 1.049 1.107.325 0 .574-.017 1.132-.15zM172.408 8.397V6.233h2.065v2.164zm.117 11.617v-9.953h1.84v9.953zM176.563 20.014V10.06h1.516l.208 1.265a3.67 3.67 0 0 1 3.023-1.548c2.165 0 3.523 1.323 3.523 3.753v6.483h-1.841v-6.466c0-1.49-.766-2.197-2.123-2.197-1.324 0-2.473.957-2.473 2.53v6.141h-1.833zM188.805 20.688c.175.999 1.016 1.606 2.473 1.606 1.857 0 2.815-.94 2.815-2.58v-1.281c-.675.782-1.783 1.298-3.315 1.298-2.34 0-4.405-1.74-4.405-4.918 0-3.12 1.815-5.035 4.522-5.035 1.549 0 2.606.666 3.239 1.606l.283-1.323h1.516v9.737c0 2.255-1.649 3.944-4.597 3.944-2.665 0-4.172-1.207-4.497-3.062h1.966zm2.373-2.53c1.899 0 3.006-1.24 3.006-3.254 0-2.33-1.224-3.561-3.006-3.561-1.682 0-2.89 1.132-2.89 3.503-.008 2.106 1.299 3.312 2.89 3.312M201.054 15.479c-2.34-.516-3.273-1.398-3.273-2.871 0-1.706 1.358-2.83 3.864-2.83 2.223 0 3.756 1.09 4.08 2.913h-1.873c-.208-.916-.958-1.456-2.224-1.456-1.382 0-1.99.516-1.99 1.206 0 .766.4 1.107 2.315 1.531 2.315.516 3.847 1.165 3.847 3.213 0 1.814-1.515 3.12-4.155 3.12-2.49 0-4.114-1.223-4.289-3.137h1.874c.208 1.19 1.033 1.68 2.432 1.68 1.49 0 2.281-.665 2.281-1.53.009-1.165-1.107-1.44-2.889-1.84"/></svg>