<svg xmlns="http://www.w3.org/2000/svg" width="72" height="68" fill="none" viewBox="0 0 72 68"><rect width="72" height="68" fill="#fff" rx="12"/><path fill="#000" d="M21.623 23.296h2.142l-3.115 9.417h-2.458l-2.328-7.106-2.329 7.106h-2.42L8 23.296h2.193l2.21 7.156 2.32-7.156h2.328l2.358 7.194zM32.955 28.76h-6.95c.064.486.247.948.53 1.347.253.35.594.624.988.796a3.1 3.1 0 0 0 1.274.257c.485-.002.966-.09 1.42-.26.471-.172.911-.42 1.303-.734l1.023 1.474c-.522.455-1.13.8-1.787 1.017a6.8 6.8 0 0 1-2.086.31 5 5 0 0 1-2.497-.614 4.35 4.35 0 0 1-1.706-1.739 5.34 5.34 0 0 1-.613-2.6 5.47 5.47 0 0 1 .59-2.581 4.35 4.35 0 0 1 1.656-1.748 4.7 4.7 0 0 1 2.437-.625 4.19 4.19 0 0 1 3.888 2.358c.39.802.583 1.685.566 2.576a8 8 0 0 1-.036.766m-2.063-1.562a2.9 2.9 0 0 0-.787-1.721 2.2 2.2 0 0 0-1.603-.59 2.3 2.3 0 0 0-1.686.625 3 3 0 0 0-.81 1.695zM41.748 23.69a4.6 4.6 0 0 1 1.7 1.769c.423.781.639 1.658.625 2.546a5.17 5.17 0 0 1-.625 2.544 4.57 4.57 0 0 1-4.085 2.408 3.85 3.85 0 0 1-1.7-.357 3.5 3.5 0 0 1-1.247-1.008v1.12h-2.063V19.287h2.063v5.129c.333-.425.76-.768 1.246-1.003a3.8 3.8 0 0 1 1.701-.36c.838-.01 1.663.21 2.385.637m-1.126 6.93c.428-.263.772-.643.993-1.094a3.54 3.54 0 0 0 0-3.044 2.67 2.67 0 0 0-.993-1.094 3 3 0 0 0-2.983 0c-.428.26-.776.635-1.002 1.082a3.26 3.26 0 0 0-.36 1.544c-.01.536.114 1.066.36 1.542.226.447.574.821 1.002 1.081a3 3 0 0 0 2.983 0zM54.253 28.76h-6.947c.064.486.246.948.53 1.347a2.4 2.4 0 0 0 .988.796 3.1 3.1 0 0 0 1.273.257c.485-.003.966-.09 1.42-.26.472-.172.912-.42 1.303-.734l1.02 1.474a5.1 5.1 0 0 1-1.783 1.017 6.8 6.8 0 0 1-2.09.31 5 5 0 0 1-2.496-.614 4.36 4.36 0 0 1-1.703-1.739 5.35 5.35 0 0 1-.617-2.6 5.5 5.5 0 0 1 .59-2.581 4.35 4.35 0 0 1 1.656-1.748 4.7 4.7 0 0 1 2.456-.634 4.2 4.2 0 0 1 3.887 2.358c.39.802.584 1.685.566 2.576q-.02.309-.053.775m-2.063-1.562a2.93 2.93 0 0 0-.79-1.71 2.2 2.2 0 0 0-1.598-.6 2.3 2.3 0 0 0-1.685.624 2.97 2.97 0 0 0-.811 1.695zM64.053 32.713h-2.526l-2.387-3.275-2.358 3.275h-2.408l3.537-4.807-3.481-4.61h2.529l2.299 3.145 2.299-3.145H64l-3.495 4.592z"/><path fill="#000" fill-opacity=".95" d="M30.14 36.91c2.153 0 3.252.933 3.252 2.468 0 .877-.648 1.692-1.505 1.911.958.169 1.787 1.074 1.787 2.3 0 1.64-1.218 2.624-3.562 2.624h-3.33V36.91zm-2.034.995v2.935h2.214c1.139 0 1.736-.596 1.736-1.462 0-.916-.66-1.473-1.814-1.473zm0 3.94v3.295h2.203c1.347 0 1.995-.557 1.995-1.552 0-1.135-.66-1.742-1.944-1.742zM37.788 39.299c1.843 0 3.32 1.135 3.32 3.553 0 2.355-1.427 3.552-3.331 3.552-1.877 0-3.32-1.225-3.32-3.553 0-2.411 1.5-3.552 3.33-3.552m.011 6.105c1.195 0 2.006-.877 2.006-2.547 0-1.709-.868-2.546-2.023-2.546s-2.034.865-2.034 2.546c.005 1.664.884 2.547 2.051 2.547M45.21 46.281a3.4 3.4 0 0 1-.919.13c-1.195 0-1.803-.748-1.803-1.861v-3.997h-.998v-1.057h.998l.079-1.613h1.166v1.613h1.454v1.063h-1.454v4.019c0 .506.248.747.71.747.22 0 .39-.01.767-.1z"/></svg>