<svg xmlns="http://www.w3.org/2000/svg" width="239" height="78" fill="none" viewBox="0 0 239 78"><path fill="url(#a)" d="M14.51 28.877a35.3 35.3 0 0 0 2.648 6.721c.507.948 1.014 1.896 1.934 2.493q.241.154.52.215c1.355.294 2.098-.815 2.577-1.83a30.6 30.6 0 0 0 1.725-4.935q.125-.474.246-.948c.155-.604.31-1.214.445-1.824l5.982-16.242a13.4 13.4 0 0 1 4.704-3.986 13.15 13.15 0 0 1 5.963-1.426c2.98-.02 5.877.995 8.214 2.875 3.911 3.008 6.24 8.933 6.24 8.933a6.07 6.07 0 0 1 .062 4.732 6 6 0 0 1-1.275 1.93 5.9 5.9 0 0 1-1.905 1.288 5.78 5.78 0 0 1-4.722-.113 5.85 5.85 0 0 1-2.01-1.577l-.055-.07a8 8 0 0 1-.933-1.668 23 23 0 0 0-1.082-2.174 14 14 0 0 0-.69-1.05 4.3 4.3 0 0 0-.737-.82c-.55-.453-1.244-.633-1.89-.244a1 1 0 0 0-.09.06c-.666.465-1.133 1.403-1.456 2.124-.933 2.04-1.467 4.133-1.996 6.281q-.151.62-.292 1.245l-2.472 8.216-3.485 7.812a13.5 13.5 0 0 1-4.67 3.882 13.3 13.3 0 0 1-5.87 1.42c-8.466.183-12.483-7.584-12.483-7.584-4.823-8.039-6.243-18.643-6.582-22.034A13 13 0 0 1 1 19.454c0-1.062.285-2.104.824-3.013a5.8 5.8 0 0 1 2.239-2.147 6.2 6.2 0 0 1 3.09-.686 5.8 5.8 0 0 1 2.817.87c.661.402 1.233.94 1.679 1.58.796 1.15.976 2.58 1.135 3.949.329 3 .906 5.968 1.725 8.87"/><path fill="url(#b)" d="M14.51 28.877a35.3 35.3 0 0 0 2.648 6.721c.507.948 1.014 1.896 1.934 2.493q.241.154.52.215c1.355.294 2.098-.815 2.577-1.83a30.6 30.6 0 0 0 1.725-4.935q.125-.474.246-.948c.155-.604.31-1.214.445-1.824l5.982-16.242a13.4 13.4 0 0 1 4.704-3.986 13.15 13.15 0 0 1 5.963-1.426c2.98-.02 5.877.995 8.214 2.875 3.911 3.008 6.24 8.933 6.24 8.933a6.07 6.07 0 0 1 .062 4.732 6 6 0 0 1-1.275 1.93 5.9 5.9 0 0 1-1.905 1.288 5.78 5.78 0 0 1-4.722-.113 5.85 5.85 0 0 1-2.01-1.577l-.055-.07a8 8 0 0 1-.933-1.668 23 23 0 0 0-1.082-2.174 14 14 0 0 0-.69-1.05 4.3 4.3 0 0 0-.737-.82c-.55-.453-1.244-.633-1.89-.244a1 1 0 0 0-.09.06c-.666.465-1.133 1.403-1.456 2.124-.933 2.04-1.467 4.133-1.996 6.281q-.151.62-.292 1.245l-2.472 8.216-3.485 7.812a13.5 13.5 0 0 1-4.67 3.882 13.3 13.3 0 0 1-5.87 1.42c-8.466.183-12.483-7.584-12.483-7.584-4.823-8.039-6.243-18.643-6.582-22.034A13 13 0 0 1 1 19.454c0-1.062.285-2.104.824-3.013a5.8 5.8 0 0 1 2.239-2.147 6.2 6.2 0 0 1 3.09-.686 5.8 5.8 0 0 1 2.817.87c.661.402 1.233.94 1.679 1.58.796 1.15.976 2.58 1.135 3.949.329 3 .906 5.968 1.725 8.87"/><path fill="url(#c)" d="M14.51 28.877a35.3 35.3 0 0 0 2.648 6.721c.507.948 1.014 1.896 1.934 2.493q.241.154.52.215c1.355.294 2.098-.815 2.577-1.83a30.6 30.6 0 0 0 1.725-4.935q.125-.474.246-.948c.155-.604.31-1.214.445-1.824l5.982-16.242a13.4 13.4 0 0 1 4.704-3.986 13.15 13.15 0 0 1 5.963-1.426c2.98-.02 5.877.995 8.214 2.875 3.911 3.008 6.24 8.933 6.24 8.933a6.07 6.07 0 0 1 .062 4.732 6 6 0 0 1-1.275 1.93 5.9 5.9 0 0 1-1.905 1.288 5.78 5.78 0 0 1-4.722-.113 5.85 5.85 0 0 1-2.01-1.577l-.055-.07a8 8 0 0 1-.933-1.668 23 23 0 0 0-1.082-2.174 14 14 0 0 0-.69-1.05 4.3 4.3 0 0 0-.737-.82c-.55-.453-1.244-.633-1.89-.244a1 1 0 0 0-.09.06c-.666.465-1.133 1.403-1.456 2.124-.933 2.04-1.467 4.133-1.996 6.281q-.151.62-.292 1.245l-2.472 8.216-3.485 7.812a13.5 13.5 0 0 1-4.67 3.882 13.3 13.3 0 0 1-5.87 1.42c-8.466.183-12.483-7.584-12.483-7.584-4.823-8.039-6.243-18.643-6.582-22.034A13 13 0 0 1 1 19.454c0-1.062.285-2.104.824-3.013a5.8 5.8 0 0 1 2.239-2.147 6.2 6.2 0 0 1 3.09-.686 5.8 5.8 0 0 1 2.817.87c.661.402 1.233.94 1.679 1.58.796 1.15.976 2.58 1.135 3.949.329 3 .906 5.968 1.725 8.87"/><path fill="url(#d)" d="M14.51 28.877a35.3 35.3 0 0 0 2.648 6.721c.507.948 1.014 1.896 1.934 2.493q.241.154.52.215c1.355.294 2.098-.815 2.577-1.83a30.6 30.6 0 0 0 1.725-4.935q.125-.474.246-.948c.155-.604.31-1.214.445-1.824l5.982-16.242a13.4 13.4 0 0 1 4.704-3.986 13.15 13.15 0 0 1 5.963-1.426c2.98-.02 5.877.995 8.214 2.875 3.911 3.008 6.24 8.933 6.24 8.933a6.07 6.07 0 0 1 .062 4.732 6 6 0 0 1-1.275 1.93 5.9 5.9 0 0 1-1.905 1.288 5.78 5.78 0 0 1-4.722-.113 5.85 5.85 0 0 1-2.01-1.577l-.055-.07a8 8 0 0 1-.933-1.668 23 23 0 0 0-1.082-2.174 14 14 0 0 0-.69-1.05 4.3 4.3 0 0 0-.737-.82c-.55-.453-1.244-.633-1.89-.244a1 1 0 0 0-.09.06c-.666.465-1.133 1.403-1.456 2.124-.933 2.04-1.467 4.133-1.996 6.281q-.151.62-.292 1.245l-2.472 8.216-3.485 7.812a13.5 13.5 0 0 1-4.67 3.882 13.3 13.3 0 0 1-5.87 1.42c-8.466.183-12.483-7.584-12.483-7.584-4.823-8.039-6.243-18.643-6.582-22.034A13 13 0 0 1 1 19.454c0-1.062.285-2.104.824-3.013a5.8 5.8 0 0 1 2.239-2.147 6.2 6.2 0 0 1 3.09-.686 5.8 5.8 0 0 1 2.817.87c.661.402 1.233.94 1.679 1.58.796 1.15.976 2.58 1.135 3.949.329 3 .906 5.968 1.725 8.87"/><path fill="url(#e)" d="M14.51 28.877a35.3 35.3 0 0 0 2.648 6.721c.507.948 1.014 1.896 1.934 2.493q.241.154.52.215c1.355.294 2.098-.815 2.577-1.83a30.6 30.6 0 0 0 1.725-4.935q.125-.474.246-.948c.155-.604.31-1.214.445-1.824l5.982-16.242a13.4 13.4 0 0 1 4.704-3.986 13.15 13.15 0 0 1 5.963-1.426c2.98-.02 5.877.995 8.214 2.875 3.911 3.008 6.24 8.933 6.24 8.933a6.07 6.07 0 0 1 .062 4.732 6 6 0 0 1-1.275 1.93 5.9 5.9 0 0 1-1.905 1.288 5.78 5.78 0 0 1-4.722-.113 5.85 5.85 0 0 1-2.01-1.577l-.055-.07a8 8 0 0 1-.933-1.668 23 23 0 0 0-1.082-2.174 14 14 0 0 0-.69-1.05 4.3 4.3 0 0 0-.737-.82c-.55-.453-1.244-.633-1.89-.244a1 1 0 0 0-.09.06c-.666.465-1.133 1.403-1.456 2.124-.933 2.04-1.467 4.133-1.996 6.281q-.151.62-.292 1.245l-2.472 8.216-3.485 7.812a13.5 13.5 0 0 1-4.67 3.882 13.3 13.3 0 0 1-5.87 1.42c-8.466.183-12.483-7.584-12.483-7.584-4.823-8.039-6.243-18.643-6.582-22.034A13 13 0 0 1 1 19.454c0-1.062.285-2.104.824-3.013a5.8 5.8 0 0 1 2.239-2.147 6.2 6.2 0 0 1 3.09-.686 5.8 5.8 0 0 1 2.817.87c.661.402 1.233.94 1.679 1.58.796 1.15.976 2.58 1.135 3.949.329 3 .906 5.968 1.725 8.87"/><path fill="url(#f)" d="M14.51 28.877a35.3 35.3 0 0 0 2.648 6.721c.507.948 1.014 1.896 1.934 2.493q.241.154.52.215c1.355.294 2.098-.815 2.577-1.83a30.6 30.6 0 0 0 1.725-4.935q.125-.474.246-.948c.155-.604.31-1.214.445-1.824l5.982-16.242a13.4 13.4 0 0 1 4.704-3.986 13.15 13.15 0 0 1 5.963-1.426c2.98-.02 5.877.995 8.214 2.875 3.911 3.008 6.24 8.933 6.24 8.933a6.07 6.07 0 0 1 .062 4.732 6 6 0 0 1-1.275 1.93 5.9 5.9 0 0 1-1.905 1.288 5.78 5.78 0 0 1-4.722-.113 5.85 5.85 0 0 1-2.01-1.577l-.055-.07a8 8 0 0 1-.933-1.668 23 23 0 0 0-1.082-2.174 14 14 0 0 0-.69-1.05 4.3 4.3 0 0 0-.737-.82c-.55-.453-1.244-.633-1.89-.244a1 1 0 0 0-.09.06c-.666.465-1.133 1.403-1.456 2.124-.933 2.04-1.467 4.133-1.996 6.281q-.151.62-.292 1.245l-2.472 8.216-3.485 7.812a13.5 13.5 0 0 1-4.67 3.882 13.3 13.3 0 0 1-5.87 1.42c-8.466.183-12.483-7.584-12.483-7.584-4.823-8.039-6.243-18.643-6.582-22.034A13 13 0 0 1 1 19.454c0-1.062.285-2.104.824-3.013a5.8 5.8 0 0 1 2.239-2.147 6.2 6.2 0 0 1 3.09-.686 5.8 5.8 0 0 1 2.817.87c.661.402 1.233.94 1.679 1.58.796 1.15.976 2.58 1.135 3.949.329 3 .906 5.968 1.725 8.87"/><path fill="url(#g)" d="M14.51 28.877a35.3 35.3 0 0 0 2.648 6.721c.507.948 1.014 1.896 1.934 2.493q.241.154.52.215c1.355.294 2.098-.815 2.577-1.83a30.6 30.6 0 0 0 1.725-4.935q.125-.474.246-.948c.155-.604.31-1.214.445-1.824l5.982-16.242a13.4 13.4 0 0 1 4.704-3.986 13.15 13.15 0 0 1 5.963-1.426c2.98-.02 5.877.995 8.214 2.875 3.911 3.008 6.24 8.933 6.24 8.933a6.07 6.07 0 0 1 .062 4.732 6 6 0 0 1-1.275 1.93 5.9 5.9 0 0 1-1.905 1.288 5.78 5.78 0 0 1-4.722-.113 5.85 5.85 0 0 1-2.01-1.577l-.055-.07a8 8 0 0 1-.933-1.668 23 23 0 0 0-1.082-2.174 14 14 0 0 0-.69-1.05 4.3 4.3 0 0 0-.737-.82c-.55-.453-1.244-.633-1.89-.244a1 1 0 0 0-.09.06c-.666.465-1.133 1.403-1.456 2.124-.933 2.04-1.467 4.133-1.996 6.281q-.151.62-.292 1.245l-2.472 8.216-3.485 7.812a13.5 13.5 0 0 1-4.67 3.882 13.3 13.3 0 0 1-5.87 1.42c-8.466.183-12.483-7.584-12.483-7.584-4.823-8.039-6.243-18.643-6.582-22.034A13 13 0 0 1 1 19.454c0-1.062.285-2.104.824-3.013a5.8 5.8 0 0 1 2.239-2.147 6.2 6.2 0 0 1 3.09-.686 5.8 5.8 0 0 1 2.817.87c.661.402 1.233.94 1.679 1.58.796 1.15.976 2.58 1.135 3.949.329 3 .906 5.968 1.725 8.87"/><path fill="url(#h)" d="M14.51 28.877a35.3 35.3 0 0 0 2.648 6.721c.507.948 1.014 1.896 1.934 2.493q.241.154.52.215c1.355.294 2.098-.815 2.577-1.83a30.6 30.6 0 0 0 1.725-4.935q.125-.474.246-.948c.155-.604.31-1.214.445-1.824l5.982-16.242a13.4 13.4 0 0 1 4.704-3.986 13.15 13.15 0 0 1 5.963-1.426c2.98-.02 5.877.995 8.214 2.875 3.911 3.008 6.24 8.933 6.24 8.933a6.07 6.07 0 0 1 .062 4.732 6 6 0 0 1-1.275 1.93 5.9 5.9 0 0 1-1.905 1.288 5.78 5.78 0 0 1-4.722-.113 5.85 5.85 0 0 1-2.01-1.577l-.055-.07a8 8 0 0 1-.933-1.668 23 23 0 0 0-1.082-2.174 14 14 0 0 0-.69-1.05 4.3 4.3 0 0 0-.737-.82c-.55-.453-1.244-.633-1.89-.244a1 1 0 0 0-.09.06c-.666.465-1.133 1.403-1.456 2.124-.933 2.04-1.467 4.133-1.996 6.281q-.151.62-.292 1.245l-2.472 8.216-3.485 7.812a13.5 13.5 0 0 1-4.67 3.882 13.3 13.3 0 0 1-5.87 1.42c-8.466.183-12.483-7.584-12.483-7.584-4.823-8.039-6.243-18.643-6.582-22.034A13 13 0 0 1 1 19.454c0-1.062.285-2.104.824-3.013a5.8 5.8 0 0 1 2.239-2.147 6.2 6.2 0 0 1 3.09-.686 5.8 5.8 0 0 1 2.817.87c.661.402 1.233.94 1.679 1.58.796 1.15.976 2.58 1.135 3.949.329 3 .906 5.968 1.725 8.87"/><path fill="url(#i)" d="M14.51 28.877a35.3 35.3 0 0 0 2.648 6.721c.507.948 1.014 1.896 1.934 2.493q.241.154.52.215c1.355.294 2.098-.815 2.577-1.83a30.6 30.6 0 0 0 1.725-4.935q.125-.474.246-.948c.155-.604.31-1.214.445-1.824l5.982-16.242a13.4 13.4 0 0 1 4.704-3.986 13.15 13.15 0 0 1 5.963-1.426c2.98-.02 5.877.995 8.214 2.875 3.911 3.008 6.24 8.933 6.24 8.933a6.07 6.07 0 0 1 .062 4.732 6 6 0 0 1-1.275 1.93 5.9 5.9 0 0 1-1.905 1.288 5.78 5.78 0 0 1-4.722-.113 5.85 5.85 0 0 1-2.01-1.577l-.055-.07a8 8 0 0 1-.933-1.668 23 23 0 0 0-1.082-2.174 14 14 0 0 0-.69-1.05 4.3 4.3 0 0 0-.737-.82c-.55-.453-1.244-.633-1.89-.244a1 1 0 0 0-.09.06c-.666.465-1.133 1.403-1.456 2.124-.933 2.04-1.467 4.133-1.996 6.281q-.151.62-.292 1.245l-2.472 8.216-3.485 7.812a13.5 13.5 0 0 1-4.67 3.882 13.3 13.3 0 0 1-5.87 1.42c-8.466.183-12.483-7.584-12.483-7.584-4.823-8.039-6.243-18.643-6.582-22.034A13 13 0 0 1 1 19.454c0-1.062.285-2.104.824-3.013a5.8 5.8 0 0 1 2.239-2.147 6.2 6.2 0 0 1 3.09-.686 5.8 5.8 0 0 1 2.817.87c.661.402 1.233.94 1.679 1.58.796 1.15.976 2.58 1.135 3.949.329 3 .906 5.968 1.725 8.87"/><path fill="url(#j)" d="M14.51 28.877a35.3 35.3 0 0 0 2.648 6.721c.507.948 1.014 1.896 1.934 2.493q.241.154.52.215c1.355.294 2.098-.815 2.577-1.83a30.6 30.6 0 0 0 1.725-4.935q.125-.474.246-.948c.155-.604.31-1.214.445-1.824l5.982-16.242a13.4 13.4 0 0 1 4.704-3.986 13.15 13.15 0 0 1 5.963-1.426c2.98-.02 5.877.995 8.214 2.875 3.911 3.008 6.24 8.933 6.24 8.933a6.07 6.07 0 0 1 .062 4.732 6 6 0 0 1-1.275 1.93 5.9 5.9 0 0 1-1.905 1.288 5.78 5.78 0 0 1-4.722-.113 5.85 5.85 0 0 1-2.01-1.577l-.055-.07a8 8 0 0 1-.933-1.668 23 23 0 0 0-1.082-2.174 14 14 0 0 0-.69-1.05 4.3 4.3 0 0 0-.737-.82c-.55-.453-1.244-.633-1.89-.244a1 1 0 0 0-.09.06c-.666.465-1.133 1.403-1.456 2.124-.933 2.04-1.467 4.133-1.996 6.281q-.151.62-.292 1.245l-2.472 8.216-3.485 7.812a13.5 13.5 0 0 1-4.67 3.882 13.3 13.3 0 0 1-5.87 1.42c-8.466.183-12.483-7.584-12.483-7.584-4.823-8.039-6.243-18.643-6.582-22.034A13 13 0 0 1 1 19.454c0-1.062.285-2.104.824-3.013a5.8 5.8 0 0 1 2.239-2.147 6.2 6.2 0 0 1 3.09-.686 5.8 5.8 0 0 1 2.817.87c.661.402 1.233.94 1.679 1.58.796 1.15.976 2.58 1.135 3.949.329 3 .906 5.968 1.725 8.87"/><path fill="url(#k)" d="M14.51 28.877a35.3 35.3 0 0 0 2.648 6.721c.507.948 1.014 1.896 1.934 2.493q.241.154.52.215c1.355.294 2.098-.815 2.577-1.83a30.6 30.6 0 0 0 1.725-4.935q.125-.474.246-.948c.155-.604.31-1.214.445-1.824l5.982-16.242a13.4 13.4 0 0 1 4.704-3.986 13.15 13.15 0 0 1 5.963-1.426c2.98-.02 5.877.995 8.214 2.875 3.911 3.008 6.24 8.933 6.24 8.933a6.07 6.07 0 0 1 .062 4.732 6 6 0 0 1-1.275 1.93 5.9 5.9 0 0 1-1.905 1.288 5.78 5.78 0 0 1-4.722-.113 5.85 5.85 0 0 1-2.01-1.577l-.055-.07a8 8 0 0 1-.933-1.668 23 23 0 0 0-1.082-2.174 14 14 0 0 0-.69-1.05 4.3 4.3 0 0 0-.737-.82c-.55-.453-1.244-.633-1.89-.244a1 1 0 0 0-.09.06c-.666.465-1.133 1.403-1.456 2.124-.933 2.04-1.467 4.133-1.996 6.281q-.151.62-.292 1.245l-2.472 8.216-3.485 7.812a13.5 13.5 0 0 1-4.67 3.882 13.3 13.3 0 0 1-5.87 1.42c-8.466.183-12.483-7.584-12.483-7.584-4.823-8.039-6.243-18.643-6.582-22.034A13 13 0 0 1 1 19.454c0-1.062.285-2.104.824-3.013a5.8 5.8 0 0 1 2.239-2.147 6.2 6.2 0 0 1 3.09-.686 5.8 5.8 0 0 1 2.817.87c.661.402 1.233.94 1.679 1.58.796 1.15.976 2.58 1.135 3.949.329 3 .906 5.968 1.725 8.87"/><path fill="url(#l)" d="M14.51 28.877a35.3 35.3 0 0 0 2.648 6.721c.507.948 1.014 1.896 1.934 2.493q.241.154.52.215c1.355.294 2.098-.815 2.577-1.83a30.6 30.6 0 0 0 1.725-4.935q.125-.474.246-.948c.155-.604.31-1.214.445-1.824l5.982-16.242a13.4 13.4 0 0 1 4.704-3.986 13.15 13.15 0 0 1 5.963-1.426c2.98-.02 5.877.995 8.214 2.875 3.911 3.008 6.24 8.933 6.24 8.933a6.07 6.07 0 0 1 .062 4.732 6 6 0 0 1-1.275 1.93 5.9 5.9 0 0 1-1.905 1.288 5.78 5.78 0 0 1-4.722-.113 5.85 5.85 0 0 1-2.01-1.577l-.055-.07a8 8 0 0 1-.933-1.668 23 23 0 0 0-1.082-2.174 14 14 0 0 0-.69-1.05 4.3 4.3 0 0 0-.737-.82c-.55-.453-1.244-.633-1.89-.244a1 1 0 0 0-.09.06c-.666.465-1.133 1.403-1.456 2.124-.933 2.04-1.467 4.133-1.996 6.281q-.151.62-.292 1.245l-2.472 8.216-3.485 7.812a13.5 13.5 0 0 1-4.67 3.882 13.3 13.3 0 0 1-5.87 1.42c-8.466.183-12.483-7.584-12.483-7.584-4.823-8.039-6.243-18.643-6.582-22.034A13 13 0 0 1 1 19.454c0-1.062.285-2.104.824-3.013a5.8 5.8 0 0 1 2.239-2.147 6.2 6.2 0 0 1 3.09-.686 5.8 5.8 0 0 1 2.817.87c.661.402 1.233.94 1.679 1.58.796 1.15.976 2.58 1.135 3.949.329 3 .906 5.968 1.725 8.87"/><path fill="url(#m)" d="M14.51 28.877a35.3 35.3 0 0 0 2.648 6.721c.507.948 1.014 1.896 1.934 2.493q.241.154.52.215c1.355.294 2.098-.815 2.577-1.83a30.6 30.6 0 0 0 1.725-4.935q.125-.474.246-.948c.155-.604.31-1.214.445-1.824l5.982-16.242a13.4 13.4 0 0 1 4.704-3.986 13.15 13.15 0 0 1 5.963-1.426c2.98-.02 5.877.995 8.214 2.875 3.911 3.008 6.24 8.933 6.24 8.933a6.07 6.07 0 0 1 .062 4.732 6 6 0 0 1-1.275 1.93 5.9 5.9 0 0 1-1.905 1.288 5.78 5.78 0 0 1-4.722-.113 5.85 5.85 0 0 1-2.01-1.577l-.055-.07a8 8 0 0 1-.933-1.668 23 23 0 0 0-1.082-2.174 14 14 0 0 0-.69-1.05 4.3 4.3 0 0 0-.737-.82c-.55-.453-1.244-.633-1.89-.244a1 1 0 0 0-.09.06c-.666.465-1.133 1.403-1.456 2.124-.933 2.04-1.467 4.133-1.996 6.281q-.151.62-.292 1.245l-2.472 8.216-3.485 7.812a13.5 13.5 0 0 1-4.67 3.882 13.3 13.3 0 0 1-5.87 1.42c-8.466.183-12.483-7.584-12.483-7.584-4.823-8.039-6.243-18.643-6.582-22.034A13 13 0 0 1 1 19.454c0-1.062.285-2.104.824-3.013a5.8 5.8 0 0 1 2.239-2.147 6.2 6.2 0 0 1 3.09-.686 5.8 5.8 0 0 1 2.817.87c.661.402 1.233.94 1.679 1.58.796 1.15.976 2.58 1.135 3.949.329 3 .906 5.968 1.725 8.87"/><path fill="url(#n)" d="M14.51 28.877a35.3 35.3 0 0 0 2.648 6.721c.507.948 1.014 1.896 1.934 2.493q.241.154.52.215c1.355.294 2.098-.815 2.577-1.83a30.6 30.6 0 0 0 1.725-4.935q.125-.474.246-.948c.155-.604.31-1.214.445-1.824l5.982-16.242a13.4 13.4 0 0 1 4.704-3.986 13.15 13.15 0 0 1 5.963-1.426c2.98-.02 5.877.995 8.214 2.875 3.911 3.008 6.24 8.933 6.24 8.933a6.07 6.07 0 0 1 .062 4.732 6 6 0 0 1-1.275 1.93 5.9 5.9 0 0 1-1.905 1.288 5.78 5.78 0 0 1-4.722-.113 5.85 5.85 0 0 1-2.01-1.577l-.055-.07a8 8 0 0 1-.933-1.668 23 23 0 0 0-1.082-2.174 14 14 0 0 0-.69-1.05 4.3 4.3 0 0 0-.737-.82c-.55-.453-1.244-.633-1.89-.244a1 1 0 0 0-.09.06c-.666.465-1.133 1.403-1.456 2.124-.933 2.04-1.467 4.133-1.996 6.281q-.151.62-.292 1.245l-2.472 8.216-3.485 7.812a13.5 13.5 0 0 1-4.67 3.882 13.3 13.3 0 0 1-5.87 1.42c-8.466.183-12.483-7.584-12.483-7.584-4.823-8.039-6.243-18.643-6.582-22.034A13 13 0 0 1 1 19.454c0-1.062.285-2.104.824-3.013a5.8 5.8 0 0 1 2.239-2.147 6.2 6.2 0 0 1 3.09-.686 5.8 5.8 0 0 1 2.817.87c.661.402 1.233.94 1.679 1.58.796 1.15.976 2.58 1.135 3.949.329 3 .906 5.968 1.725 8.87"/><path fill="url(#o)" d="M14.51 28.877a35.3 35.3 0 0 0 2.648 6.721c.507.948 1.014 1.896 1.934 2.493q.241.154.52.215c1.355.294 2.098-.815 2.577-1.83a30.6 30.6 0 0 0 1.725-4.935q.125-.474.246-.948c.155-.604.31-1.214.445-1.824l5.982-16.242a13.4 13.4 0 0 1 4.704-3.986 13.15 13.15 0 0 1 5.963-1.426c2.98-.02 5.877.995 8.214 2.875 3.911 3.008 6.24 8.933 6.24 8.933a6.07 6.07 0 0 1 .062 4.732 6 6 0 0 1-1.275 1.93 5.9 5.9 0 0 1-1.905 1.288 5.78 5.78 0 0 1-4.722-.113 5.85 5.85 0 0 1-2.01-1.577l-.055-.07a8 8 0 0 1-.933-1.668 23 23 0 0 0-1.082-2.174 14 14 0 0 0-.69-1.05 4.3 4.3 0 0 0-.737-.82c-.55-.453-1.244-.633-1.89-.244a1 1 0 0 0-.09.06c-.666.465-1.133 1.403-1.456 2.124-.933 2.04-1.467 4.133-1.996 6.281q-.151.62-.292 1.245l-2.472 8.216-3.485 7.812a13.5 13.5 0 0 1-4.67 3.882 13.3 13.3 0 0 1-5.87 1.42c-8.466.183-12.483-7.584-12.483-7.584-4.823-8.039-6.243-18.643-6.582-22.034A13 13 0 0 1 1 19.454c0-1.062.285-2.104.824-3.013a5.8 5.8 0 0 1 2.239-2.147 6.2 6.2 0 0 1 3.09-.686 5.8 5.8 0 0 1 2.817.87c.661.402 1.233.94 1.679 1.58.796 1.15.976 2.58 1.135 3.949.329 3 .906 5.968 1.725 8.87"/><path fill="url(#p)" d="M14.51 28.877a35.3 35.3 0 0 0 2.648 6.721c.507.948 1.014 1.896 1.934 2.493q.241.154.52.215c1.355.294 2.098-.815 2.577-1.83a30.6 30.6 0 0 0 1.725-4.935q.125-.474.246-.948c.155-.604.31-1.214.445-1.824l5.982-16.242a13.4 13.4 0 0 1 4.704-3.986 13.15 13.15 0 0 1 5.963-1.426c2.98-.02 5.877.995 8.214 2.875 3.911 3.008 6.24 8.933 6.24 8.933a6.07 6.07 0 0 1 .062 4.732 6 6 0 0 1-1.275 1.93 5.9 5.9 0 0 1-1.905 1.288 5.78 5.78 0 0 1-4.722-.113 5.85 5.85 0 0 1-2.01-1.577l-.055-.07a8 8 0 0 1-.933-1.668 23 23 0 0 0-1.082-2.174 14 14 0 0 0-.69-1.05 4.3 4.3 0 0 0-.737-.82c-.55-.453-1.244-.633-1.89-.244a1 1 0 0 0-.09.06c-.666.465-1.133 1.403-1.456 2.124-.933 2.04-1.467 4.133-1.996 6.281q-.151.62-.292 1.245l-2.472 8.216-3.485 7.812a13.5 13.5 0 0 1-4.67 3.882 13.3 13.3 0 0 1-5.87 1.42c-8.466.183-12.483-7.584-12.483-7.584-4.823-8.039-6.243-18.643-6.582-22.034A13 13 0 0 1 1 19.454c0-1.062.285-2.104.824-3.013a5.8 5.8 0 0 1 2.239-2.147 6.2 6.2 0 0 1 3.09-.686 5.8 5.8 0 0 1 2.817.87c.661.402 1.233.94 1.679 1.58.796 1.15.976 2.58 1.135 3.949.329 3 .906 5.968 1.725 8.87"/><path fill="url(#q)" d="M14.51 28.877a35.3 35.3 0 0 0 2.648 6.721c.507.948 1.014 1.896 1.934 2.493q.241.154.52.215c1.355.294 2.098-.815 2.577-1.83a30.6 30.6 0 0 0 1.725-4.935q.125-.474.246-.948c.155-.604.31-1.214.445-1.824l5.982-16.242a13.4 13.4 0 0 1 4.704-3.986 13.15 13.15 0 0 1 5.963-1.426c2.98-.02 5.877.995 8.214 2.875 3.911 3.008 6.24 8.933 6.24 8.933a6.07 6.07 0 0 1 .062 4.732 6 6 0 0 1-1.275 1.93 5.9 5.9 0 0 1-1.905 1.288 5.78 5.78 0 0 1-4.722-.113 5.85 5.85 0 0 1-2.01-1.577l-.055-.07a8 8 0 0 1-.933-1.668 23 23 0 0 0-1.082-2.174 14 14 0 0 0-.69-1.05 4.3 4.3 0 0 0-.737-.82c-.55-.453-1.244-.633-1.89-.244a1 1 0 0 0-.09.06c-.666.465-1.133 1.403-1.456 2.124-.933 2.04-1.467 4.133-1.996 6.281q-.151.62-.292 1.245l-2.472 8.216-3.485 7.812a13.5 13.5 0 0 1-4.67 3.882 13.3 13.3 0 0 1-5.87 1.42c-8.466.183-12.483-7.584-12.483-7.584-4.823-8.039-6.243-18.643-6.582-22.034A13 13 0 0 1 1 19.454c0-1.062.285-2.104.824-3.013a5.8 5.8 0 0 1 2.239-2.147 6.2 6.2 0 0 1 3.09-.686 5.8 5.8 0 0 1 2.817.87c.661.402 1.233.94 1.679 1.58.796 1.15.976 2.58 1.135 3.949.329 3 .906 5.968 1.725 8.87"/><path fill="url(#r)" d="M14.51 28.877a35.3 35.3 0 0 0 2.648 6.721c.507.948 1.014 1.896 1.934 2.493q.241.154.52.215c1.355.294 2.098-.815 2.577-1.83a30.6 30.6 0 0 0 1.725-4.935q.125-.474.246-.948c.155-.604.31-1.214.445-1.824l5.982-16.242a13.4 13.4 0 0 1 4.704-3.986 13.15 13.15 0 0 1 5.963-1.426c2.98-.02 5.877.995 8.214 2.875 3.911 3.008 6.24 8.933 6.24 8.933a6.07 6.07 0 0 1 .062 4.732 6 6 0 0 1-1.275 1.93 5.9 5.9 0 0 1-1.905 1.288 5.78 5.78 0 0 1-4.722-.113 5.85 5.85 0 0 1-2.01-1.577l-.055-.07a8 8 0 0 1-.933-1.668 23 23 0 0 0-1.082-2.174 14 14 0 0 0-.69-1.05 4.3 4.3 0 0 0-.737-.82c-.55-.453-1.244-.633-1.89-.244a1 1 0 0 0-.09.06c-.666.465-1.133 1.403-1.456 2.124-.933 2.04-1.467 4.133-1.996 6.281q-.151.62-.292 1.245l-2.472 8.216-3.485 7.812a13.5 13.5 0 0 1-4.67 3.882 13.3 13.3 0 0 1-5.87 1.42c-8.466.183-12.483-7.584-12.483-7.584-4.823-8.039-6.243-18.643-6.582-22.034A13 13 0 0 1 1 19.454c0-1.062.285-2.104.824-3.013a5.8 5.8 0 0 1 2.239-2.147 6.2 6.2 0 0 1 3.09-.686 5.8 5.8 0 0 1 2.817.87c.661.402 1.233.94 1.679 1.58.796 1.15.976 2.58 1.135 3.949.329 3 .906 5.968 1.725 8.87"/><path fill="url(#s)" d="M14.51 28.877a35.3 35.3 0 0 0 2.648 6.721c.507.948 1.014 1.896 1.934 2.493q.241.154.52.215c1.355.294 2.098-.815 2.577-1.83a30.6 30.6 0 0 0 1.725-4.935q.125-.474.246-.948c.155-.604.31-1.214.445-1.824l5.982-16.242a13.4 13.4 0 0 1 4.704-3.986 13.15 13.15 0 0 1 5.963-1.426c2.98-.02 5.877.995 8.214 2.875 3.911 3.008 6.24 8.933 6.24 8.933a6.07 6.07 0 0 1 .062 4.732 6 6 0 0 1-1.275 1.93 5.9 5.9 0 0 1-1.905 1.288 5.78 5.78 0 0 1-4.722-.113 5.85 5.85 0 0 1-2.01-1.577l-.055-.07a8 8 0 0 1-.933-1.668 23 23 0 0 0-1.082-2.174 14 14 0 0 0-.69-1.05 4.3 4.3 0 0 0-.737-.82c-.55-.453-1.244-.633-1.89-.244a1 1 0 0 0-.09.06c-.666.465-1.133 1.403-1.456 2.124-.933 2.04-1.467 4.133-1.996 6.281q-.151.62-.292 1.245l-2.472 8.216-3.485 7.812a13.5 13.5 0 0 1-4.67 3.882 13.3 13.3 0 0 1-5.87 1.42c-8.466.183-12.483-7.584-12.483-7.584-4.823-8.039-6.243-18.643-6.582-22.034A13 13 0 0 1 1 19.454c0-1.062.285-2.104.824-3.013a5.8 5.8 0 0 1 2.239-2.147 6.2 6.2 0 0 1 3.09-.686 5.8 5.8 0 0 1 2.817.87c.661.402 1.233.94 1.679 1.58.796 1.15.976 2.58 1.135 3.949.329 3 .906 5.968 1.725 8.87"/><path fill="url(#t)" d="M14.51 28.877a35.3 35.3 0 0 0 2.648 6.721c.507.948 1.014 1.896 1.934 2.493q.241.154.52.215c1.355.294 2.098-.815 2.577-1.83a30.6 30.6 0 0 0 1.725-4.935q.125-.474.246-.948c.155-.604.31-1.214.445-1.824l5.982-16.242a13.4 13.4 0 0 1 4.704-3.986 13.15 13.15 0 0 1 5.963-1.426c2.98-.02 5.877.995 8.214 2.875 3.911 3.008 6.24 8.933 6.24 8.933a6.07 6.07 0 0 1 .062 4.732 6 6 0 0 1-1.275 1.93 5.9 5.9 0 0 1-1.905 1.288 5.78 5.78 0 0 1-4.722-.113 5.85 5.85 0 0 1-2.01-1.577l-.055-.07a8 8 0 0 1-.933-1.668 23 23 0 0 0-1.082-2.174 14 14 0 0 0-.69-1.05 4.3 4.3 0 0 0-.737-.82c-.55-.453-1.244-.633-1.89-.244a1 1 0 0 0-.09.06c-.666.465-1.133 1.403-1.456 2.124-.933 2.04-1.467 4.133-1.996 6.281q-.151.62-.292 1.245l-2.472 8.216-3.485 7.812a13.5 13.5 0 0 1-4.67 3.882 13.3 13.3 0 0 1-5.87 1.42c-8.466.183-12.483-7.584-12.483-7.584-4.823-8.039-6.243-18.643-6.582-22.034A13 13 0 0 1 1 19.454c0-1.062.285-2.104.824-3.013a5.8 5.8 0 0 1 2.239-2.147 6.2 6.2 0 0 1 3.09-.686 5.8 5.8 0 0 1 2.817.87c.661.402 1.233.94 1.679 1.58.796 1.15.976 2.58 1.135 3.949.329 3 .906 5.968 1.725 8.87"/><path fill="url(#u)" d="m26.784 22.851 3.803-10.32a13.4 13.4 0 0 1 4.705-3.986 13.15 13.15 0 0 1 5.962-1.427c2.98-.019 5.878.996 8.215 2.875 3.91 3.009 6.24 8.934 6.24 8.934a6.07 6.07 0 0 1 .061 4.731 6 6 0 0 1-1.275 1.931 5.9 5.9 0 0 1-1.905 1.288 5.78 5.78 0 0 1-4.722-.114 5.85 5.85 0 0 1-2.01-1.577l-.055-.07a8 8 0 0 1-.933-1.668 23 23 0 0 0-1.082-2.174 14 14 0 0 0-.69-1.049 4.3 4.3 0 0 0-.737-.821c-.55-.452-1.244-.632-1.89-.244a1 1 0 0 0-.09.06c-.666.465-1.132 1.403-1.456 2.124-.932 2.041-1.467 4.133-1.996 6.282q-.151.62-.292 1.245l-2.472 8.216z"/><path fill="url(#v)" d="M54.409 13.634a5.8 5.8 0 0 0-1.465.186 28.7 28.7 0 0 1 2.764 5.107 6.07 6.07 0 0 1 .062 4.731 6 6 0 0 1-1.275 1.931 5.9 5.9 0 0 1-1.905 1.288 5.78 5.78 0 0 1-5.205-.373l-.603 2.266c-1.094 3.719-1.866 5.157-1.866 5.157a20 20 0 0 1-1.51 2.904c-.402.603-.915 1.21-1.617 1.44a1.6 1.6 0 0 1-.762.076 2 2 0 0 1-.787-.268 3.5 3.5 0 0 1-1.07-1.353 19 19 0 0 1-.798-1.823c-.52-1.283-1.322-4.443-1.322-4.443l-.83-3.308-.83-3.334-.59-2.19c-1.555-5.703-3.707-8.51-3.707-8.51a14.3 14.3 0 0 0-6.859-5.32c-3.214-1.173-6.588-.513-6.588-.513-5.285 1.056-8.062 4.74-9.284 6.513.56.149 1.095.378 1.59.683.66.402 1.232.94 1.678 1.58.796 1.15.976 2.581 1.135 3.95.333 2.965.91 5.897 1.722 8.765 1.791-6.035 3.94-8.848 3.94-8.848.24-.303.527-.563.852-.77a1.4 1.4 0 0 1 .553-.2c.363-.035.728.055 1.035.256q.085.057.159.127c.28.253.522.548.715.875a19 19 0 0 1 1.16 2.528c.671 1.921 1.243 4.269 1.243 4.269l1.71 6.85c1.244 4.658 2.298 6.92 2.298 6.92 2.596 6.043 6.566 7.743 6.566 7.743a13.74 13.74 0 0 0 6.275 1.668 12.9 12.9 0 0 0 6.05-1.324 15.5 15.5 0 0 0 5.301-4.357c.96-1.132 2.375-3.887 2.375-3.887a50.3 50.3 0 0 0 3.654-9.9q.833-3.2 1.334-6.472a87 87 0 0 0 .453-3.258 8.6 8.6 0 0 0-.093-3.106 5 5 0 0 0-.17-.54 5.84 5.84 0 0 0-2.619-2.999 5.96 5.96 0 0 0-2.87-.717"/><path fill="url(#w)" d="M54.409 13.634a5.8 5.8 0 0 0-1.465.186 28.7 28.7 0 0 1 2.764 5.107 6.07 6.07 0 0 1 .062 4.731 6 6 0 0 1-1.275 1.931 5.9 5.9 0 0 1-1.905 1.288 5.78 5.78 0 0 1-5.205-.373l-.603 2.266c-1.094 3.719-1.866 5.157-1.866 5.157a20 20 0 0 1-1.51 2.904c-.402.603-.915 1.21-1.617 1.44a1.6 1.6 0 0 1-.762.076 2 2 0 0 1-.787-.268 3.5 3.5 0 0 1-1.07-1.353 19 19 0 0 1-.798-1.823c-.52-1.283-1.322-4.443-1.322-4.443l-.83-3.308-.83-3.334-.59-2.19c-1.555-5.703-3.707-8.51-3.707-8.51a14.3 14.3 0 0 0-6.859-5.32c-3.214-1.173-6.588-.513-6.588-.513-5.285 1.056-8.062 4.74-9.284 6.513.56.149 1.095.378 1.59.683.66.402 1.232.94 1.678 1.58.796 1.15.976 2.581 1.135 3.95.333 2.965.91 5.897 1.722 8.765 1.791-6.035 3.94-8.848 3.94-8.848.24-.303.527-.563.852-.77a1.4 1.4 0 0 1 .553-.2c.363-.035.728.055 1.035.256q.085.057.159.127c.28.253.522.548.715.875a19 19 0 0 1 1.16 2.528c.671 1.921 1.243 4.269 1.243 4.269l1.71 6.85c1.244 4.658 2.298 6.92 2.298 6.92 2.596 6.043 6.566 7.743 6.566 7.743a13.74 13.74 0 0 0 6.275 1.668 12.9 12.9 0 0 0 6.05-1.324 15.5 15.5 0 0 0 5.301-4.357c.96-1.132 2.375-3.887 2.375-3.887a50.3 50.3 0 0 0 3.654-9.9q.833-3.2 1.334-6.472a87 87 0 0 0 .453-3.258 8.6 8.6 0 0 0-.093-3.106 5 5 0 0 0-.17-.54 5.84 5.84 0 0 0-2.619-2.999 5.96 5.96 0 0 0-2.87-.717"/><path fill="url(#x)" d="M54.409 13.634a5.8 5.8 0 0 0-1.465.186 28.7 28.7 0 0 1 2.764 5.107 6.07 6.07 0 0 1 .062 4.731 6 6 0 0 1-1.275 1.931 5.9 5.9 0 0 1-1.905 1.288 5.78 5.78 0 0 1-5.205-.373l-.603 2.266c-1.094 3.719-1.866 5.157-1.866 5.157a20 20 0 0 1-1.51 2.904c-.402.603-.915 1.21-1.617 1.44a1.6 1.6 0 0 1-.762.076 2 2 0 0 1-.787-.268 3.5 3.5 0 0 1-1.07-1.353 19 19 0 0 1-.798-1.823c-.52-1.283-1.322-4.443-1.322-4.443l-.83-3.308-.83-3.334-.59-2.19c-1.555-5.703-3.707-8.51-3.707-8.51a14.3 14.3 0 0 0-6.859-5.32c-3.214-1.173-6.588-.513-6.588-.513-5.285 1.056-8.062 4.74-9.284 6.513.56.149 1.095.378 1.59.683.66.402 1.232.94 1.678 1.58.796 1.15.976 2.581 1.135 3.95.333 2.965.91 5.897 1.722 8.765 1.791-6.035 3.94-8.848 3.94-8.848.24-.303.527-.563.852-.77a1.4 1.4 0 0 1 .553-.2c.363-.035.728.055 1.035.256q.085.057.159.127c.28.253.522.548.715.875a19 19 0 0 1 1.16 2.528c.671 1.921 1.243 4.269 1.243 4.269l1.71 6.85c1.244 4.658 2.298 6.92 2.298 6.92 2.596 6.043 6.566 7.743 6.566 7.743a13.74 13.74 0 0 0 6.275 1.668 12.9 12.9 0 0 0 6.05-1.324 15.5 15.5 0 0 0 5.301-4.357c.96-1.132 2.375-3.887 2.375-3.887a50.3 50.3 0 0 0 3.654-9.9q.833-3.2 1.334-6.472a87 87 0 0 0 .453-3.258 8.6 8.6 0 0 0-.093-3.106 5 5 0 0 0-.17-.54 5.84 5.84 0 0 0-2.619-2.999 5.96 5.96 0 0 0-2.87-.717"/><path fill="url(#y)" d="M54.409 13.634a5.8 5.8 0 0 0-1.465.186 28.7 28.7 0 0 1 2.764 5.107 6.07 6.07 0 0 1 .062 4.731 6 6 0 0 1-1.275 1.931 5.9 5.9 0 0 1-1.905 1.288 5.78 5.78 0 0 1-5.205-.373l-.603 2.266c-1.094 3.719-1.866 5.157-1.866 5.157a20 20 0 0 1-1.51 2.904c-.402.603-.915 1.21-1.617 1.44a1.6 1.6 0 0 1-.762.076 2 2 0 0 1-.787-.268 3.5 3.5 0 0 1-1.07-1.353 19 19 0 0 1-.798-1.823c-.52-1.283-1.322-4.443-1.322-4.443l-.83-3.308-.83-3.334-.59-2.19c-1.555-5.703-3.707-8.51-3.707-8.51a14.3 14.3 0 0 0-6.859-5.32c-3.214-1.173-6.588-.513-6.588-.513-5.285 1.056-8.062 4.74-9.284 6.513.56.149 1.095.378 1.59.683.66.402 1.232.94 1.678 1.58.796 1.15.976 2.581 1.135 3.95.333 2.965.91 5.897 1.722 8.765 1.791-6.035 3.94-8.848 3.94-8.848.24-.303.527-.563.852-.77a1.4 1.4 0 0 1 .553-.2c.363-.035.728.055 1.035.256q.085.057.159.127c.28.253.522.548.715.875a19 19 0 0 1 1.16 2.528c.671 1.921 1.243 4.269 1.243 4.269l1.71 6.85c1.244 4.658 2.298 6.92 2.298 6.92 2.596 6.043 6.566 7.743 6.566 7.743a13.74 13.74 0 0 0 6.275 1.668 12.9 12.9 0 0 0 6.05-1.324 15.5 15.5 0 0 0 5.301-4.357c.96-1.132 2.375-3.887 2.375-3.887a50.3 50.3 0 0 0 3.654-9.9q.833-3.2 1.334-6.472a87 87 0 0 0 .453-3.258 8.6 8.6 0 0 0-.093-3.106 5 5 0 0 0-.17-.54 5.84 5.84 0 0 0-2.619-2.999 5.96 5.96 0 0 0-2.87-.717"/><path fill="url(#z)" d="M54.409 13.634a5.8 5.8 0 0 0-1.465.186 28.7 28.7 0 0 1 2.764 5.107 6.07 6.07 0 0 1 .062 4.731 6 6 0 0 1-1.275 1.931 5.9 5.9 0 0 1-1.905 1.288 5.78 5.78 0 0 1-5.205-.373l-.603 2.266c-1.094 3.719-1.866 5.157-1.866 5.157a20 20 0 0 1-1.51 2.904c-.402.603-.915 1.21-1.617 1.44a1.6 1.6 0 0 1-.762.076 2 2 0 0 1-.787-.268 3.5 3.5 0 0 1-1.07-1.353 19 19 0 0 1-.798-1.823c-.52-1.283-1.322-4.443-1.322-4.443l-.83-3.308-.83-3.334-.59-2.19c-1.555-5.703-3.707-8.51-3.707-8.51a14.3 14.3 0 0 0-6.859-5.32c-3.214-1.173-6.588-.513-6.588-.513-5.285 1.056-8.062 4.74-9.284 6.513.56.149 1.095.378 1.59.683.66.402 1.232.94 1.678 1.58.796 1.15.976 2.581 1.135 3.95.333 2.965.91 5.897 1.722 8.765 1.791-6.035 3.94-8.848 3.94-8.848.24-.303.527-.563.852-.77a1.4 1.4 0 0 1 .553-.2c.363-.035.728.055 1.035.256q.085.057.159.127c.28.253.522.548.715.875a19 19 0 0 1 1.16 2.528c.671 1.921 1.243 4.269 1.243 4.269l1.71 6.85c1.244 4.658 2.298 6.92 2.298 6.92 2.596 6.043 6.566 7.743 6.566 7.743a13.74 13.74 0 0 0 6.275 1.668 12.9 12.9 0 0 0 6.05-1.324 15.5 15.5 0 0 0 5.301-4.357c.96-1.132 2.375-3.887 2.375-3.887a50.3 50.3 0 0 0 3.654-9.9q.833-3.2 1.334-6.472a87 87 0 0 0 .453-3.258 8.6 8.6 0 0 0-.093-3.106 5 5 0 0 0-.17-.54 5.84 5.84 0 0 0-2.619-2.999 5.96 5.96 0 0 0-2.87-.717"/><path fill="url(#A)" d="M54.409 13.634a5.8 5.8 0 0 0-1.465.186 28.7 28.7 0 0 1 2.764 5.107 6.07 6.07 0 0 1 .062 4.731 6 6 0 0 1-1.275 1.931 5.9 5.9 0 0 1-1.905 1.288 5.78 5.78 0 0 1-5.205-.373l-.603 2.266c-1.094 3.719-1.866 5.157-1.866 5.157a20 20 0 0 1-1.51 2.904c-.402.603-.915 1.21-1.617 1.44a1.6 1.6 0 0 1-.762.076 2 2 0 0 1-.787-.268 3.5 3.5 0 0 1-1.07-1.353 19 19 0 0 1-.798-1.823c-.52-1.283-1.322-4.443-1.322-4.443l-.83-3.308-.83-3.334-.59-2.19c-1.555-5.703-3.707-8.51-3.707-8.51a14.3 14.3 0 0 0-6.859-5.32c-3.214-1.173-6.588-.513-6.588-.513-5.285 1.056-8.062 4.74-9.284 6.513.56.149 1.095.378 1.59.683.66.402 1.232.94 1.678 1.58.796 1.15.976 2.581 1.135 3.95.333 2.965.91 5.897 1.722 8.765 1.791-6.035 3.94-8.848 3.94-8.848.24-.303.527-.563.852-.77a1.4 1.4 0 0 1 .553-.2c.363-.035.728.055 1.035.256q.085.057.159.127c.28.253.522.548.715.875a19 19 0 0 1 1.16 2.528c.671 1.921 1.243 4.269 1.243 4.269l1.71 6.85c1.244 4.658 2.298 6.92 2.298 6.92 2.596 6.043 6.566 7.743 6.566 7.743a13.74 13.74 0 0 0 6.275 1.668 12.9 12.9 0 0 0 6.05-1.324 15.5 15.5 0 0 0 5.301-4.357c.96-1.132 2.375-3.887 2.375-3.887a50.3 50.3 0 0 0 3.654-9.9q.833-3.2 1.334-6.472a87 87 0 0 0 .453-3.258 8.6 8.6 0 0 0-.093-3.106 5 5 0 0 0-.17-.54 5.84 5.84 0 0 0-2.619-2.999 5.96 5.96 0 0 0-2.87-.717"/><path fill="url(#B)" d="M54.409 13.634a5.8 5.8 0 0 0-1.465.186 28.7 28.7 0 0 1 2.764 5.107 6.07 6.07 0 0 1 .062 4.731 6 6 0 0 1-1.275 1.931 5.9 5.9 0 0 1-1.905 1.288 5.78 5.78 0 0 1-5.205-.373l-.603 2.266c-1.094 3.719-1.866 5.157-1.866 5.157a20 20 0 0 1-1.51 2.904c-.402.603-.915 1.21-1.617 1.44a1.6 1.6 0 0 1-.762.076 2 2 0 0 1-.787-.268 3.5 3.5 0 0 1-1.07-1.353 19 19 0 0 1-.798-1.823c-.52-1.283-1.322-4.443-1.322-4.443l-.83-3.308-.83-3.334-.59-2.19c-1.555-5.703-3.707-8.51-3.707-8.51a14.3 14.3 0 0 0-6.859-5.32c-3.214-1.173-6.588-.513-6.588-.513-5.285 1.056-8.062 4.74-9.284 6.513.56.149 1.095.378 1.59.683.66.402 1.232.94 1.678 1.58.796 1.15.976 2.581 1.135 3.95.333 2.965.91 5.897 1.722 8.765 1.791-6.035 3.94-8.848 3.94-8.848.24-.303.527-.563.852-.77a1.4 1.4 0 0 1 .553-.2c.363-.035.728.055 1.035.256q.085.057.159.127c.28.253.522.548.715.875a19 19 0 0 1 1.16 2.528c.671 1.921 1.243 4.269 1.243 4.269l1.71 6.85c1.244 4.658 2.298 6.92 2.298 6.92 2.596 6.043 6.566 7.743 6.566 7.743a13.74 13.74 0 0 0 6.275 1.668 12.9 12.9 0 0 0 6.05-1.324 15.5 15.5 0 0 0 5.301-4.357c.96-1.132 2.375-3.887 2.375-3.887a50.3 50.3 0 0 0 3.654-9.9q.833-3.2 1.334-6.472a87 87 0 0 0 .453-3.258 8.6 8.6 0 0 0-.093-3.106 5 5 0 0 0-.17-.54 5.84 5.84 0 0 0-2.619-2.999 5.96 5.96 0 0 0-2.87-.717"/><path fill="url(#C)" d="M54.409 13.634a5.8 5.8 0 0 0-1.465.186 28.7 28.7 0 0 1 2.764 5.107 6.07 6.07 0 0 1 .062 4.731 6 6 0 0 1-1.275 1.931 5.9 5.9 0 0 1-1.905 1.288 5.78 5.78 0 0 1-5.205-.373l-.603 2.266c-1.094 3.719-1.866 5.157-1.866 5.157a20 20 0 0 1-1.51 2.904c-.402.603-.915 1.21-1.617 1.44a1.6 1.6 0 0 1-.762.076 2 2 0 0 1-.787-.268 3.5 3.5 0 0 1-1.07-1.353 19 19 0 0 1-.798-1.823c-.52-1.283-1.322-4.443-1.322-4.443l-.83-3.308-.83-3.334-.59-2.19c-1.555-5.703-3.707-8.51-3.707-8.51a14.3 14.3 0 0 0-6.859-5.32c-3.214-1.173-6.588-.513-6.588-.513-5.285 1.056-8.062 4.74-9.284 6.513.56.149 1.095.378 1.59.683.66.402 1.232.94 1.678 1.58.796 1.15.976 2.581 1.135 3.95.333 2.965.91 5.897 1.722 8.765 1.791-6.035 3.94-8.848 3.94-8.848.24-.303.527-.563.852-.77a1.4 1.4 0 0 1 .553-.2c.363-.035.728.055 1.035.256q.085.057.159.127c.28.253.522.548.715.875a19 19 0 0 1 1.16 2.528c.671 1.921 1.243 4.269 1.243 4.269l1.71 6.85c1.244 4.658 2.298 6.92 2.298 6.92 2.596 6.043 6.566 7.743 6.566 7.743a13.74 13.74 0 0 0 6.275 1.668 12.9 12.9 0 0 0 6.05-1.324 15.5 15.5 0 0 0 5.301-4.357c.96-1.132 2.375-3.887 2.375-3.887a50.3 50.3 0 0 0 3.654-9.9q.833-3.2 1.334-6.472a87 87 0 0 0 .453-3.258 8.6 8.6 0 0 0-.093-3.106 5 5 0 0 0-.17-.54 5.84 5.84 0 0 0-2.619-2.999 5.96 5.96 0 0 0-2.87-.717"/><path fill="url(#D)" d="M54.409 13.634a5.8 5.8 0 0 0-1.465.186 28.7 28.7 0 0 1 2.764 5.107 6.07 6.07 0 0 1 .062 4.731 6 6 0 0 1-1.275 1.931 5.9 5.9 0 0 1-1.905 1.288 5.78 5.78 0 0 1-5.205-.373l-.603 2.266c-1.094 3.719-1.866 5.157-1.866 5.157a20 20 0 0 1-1.51 2.904c-.402.603-.915 1.21-1.617 1.44a1.6 1.6 0 0 1-.762.076 2 2 0 0 1-.787-.268 3.5 3.5 0 0 1-1.07-1.353 19 19 0 0 1-.798-1.823c-.52-1.283-1.322-4.443-1.322-4.443l-.83-3.308-.83-3.334-.59-2.19c-1.555-5.703-3.707-8.51-3.707-8.51a14.3 14.3 0 0 0-6.859-5.32c-3.214-1.173-6.588-.513-6.588-.513-5.285 1.056-8.062 4.74-9.284 6.513.56.149 1.095.378 1.59.683.66.402 1.232.94 1.678 1.58.796 1.15.976 2.581 1.135 3.95.333 2.965.91 5.897 1.722 8.765 1.791-6.035 3.94-8.848 3.94-8.848.24-.303.527-.563.852-.77a1.4 1.4 0 0 1 .553-.2c.363-.035.728.055 1.035.256q.085.057.159.127c.28.253.522.548.715.875a19 19 0 0 1 1.16 2.528c.671 1.921 1.243 4.269 1.243 4.269l1.71 6.85c1.244 4.658 2.298 6.92 2.298 6.92 2.596 6.043 6.566 7.743 6.566 7.743a13.74 13.74 0 0 0 6.275 1.668 12.9 12.9 0 0 0 6.05-1.324 15.5 15.5 0 0 0 5.301-4.357c.96-1.132 2.375-3.887 2.375-3.887a50.3 50.3 0 0 0 3.654-9.9q.833-3.2 1.334-6.472a87 87 0 0 0 .453-3.258 8.6 8.6 0 0 0-.093-3.106 5 5 0 0 0-.17-.54 5.84 5.84 0 0 0-2.619-2.999 5.96 5.96 0 0 0-2.87-.717"/><path fill="url(#E)" d="M54.409 13.634a5.8 5.8 0 0 0-1.465.186 28.7 28.7 0 0 1 2.764 5.107 6.07 6.07 0 0 1 .062 4.731 6 6 0 0 1-1.275 1.931 5.9 5.9 0 0 1-1.905 1.288 5.78 5.78 0 0 1-5.205-.373l-.603 2.266c-1.094 3.719-1.866 5.157-1.866 5.157a20 20 0 0 1-1.51 2.904c-.402.603-.915 1.21-1.617 1.44a1.6 1.6 0 0 1-.762.076 2 2 0 0 1-.787-.268 3.5 3.5 0 0 1-1.07-1.353 19 19 0 0 1-.798-1.823c-.52-1.283-1.322-4.443-1.322-4.443l-.83-3.308-.83-3.334-.59-2.19c-1.555-5.703-3.707-8.51-3.707-8.51a14.3 14.3 0 0 0-6.859-5.32c-3.214-1.173-6.588-.513-6.588-.513-5.285 1.056-8.062 4.74-9.284 6.513.56.149 1.095.378 1.59.683.66.402 1.232.94 1.678 1.58.796 1.15.976 2.581 1.135 3.95.333 2.965.91 5.897 1.722 8.765 1.791-6.035 3.94-8.848 3.94-8.848.24-.303.527-.563.852-.77a1.4 1.4 0 0 1 .553-.2c.363-.035.728.055 1.035.256q.085.057.159.127c.28.253.522.548.715.875a19 19 0 0 1 1.16 2.528c.671 1.921 1.243 4.269 1.243 4.269l1.71 6.85c1.244 4.658 2.298 6.92 2.298 6.92 2.596 6.043 6.566 7.743 6.566 7.743a13.74 13.74 0 0 0 6.275 1.668 12.9 12.9 0 0 0 6.05-1.324 15.5 15.5 0 0 0 5.301-4.357c.96-1.132 2.375-3.887 2.375-3.887a50.3 50.3 0 0 0 3.654-9.9q.833-3.2 1.334-6.472a87 87 0 0 0 .453-3.258 8.6 8.6 0 0 0-.093-3.106 5 5 0 0 0-.17-.54 5.84 5.84 0 0 0-2.619-2.999 5.96 5.96 0 0 0-2.87-.717"/><path fill="url(#F)" d="M54.409 13.634a5.8 5.8 0 0 0-1.465.186 28.7 28.7 0 0 1 2.764 5.107 6.07 6.07 0 0 1 .062 4.731 6 6 0 0 1-1.275 1.931 5.9 5.9 0 0 1-1.905 1.288 5.78 5.78 0 0 1-5.205-.373l-.603 2.266c-1.094 3.719-1.866 5.157-1.866 5.157a20 20 0 0 1-1.51 2.904c-.402.603-.915 1.21-1.617 1.44a1.6 1.6 0 0 1-.762.076 2 2 0 0 1-.787-.268 3.5 3.5 0 0 1-1.07-1.353 19 19 0 0 1-.798-1.823c-.52-1.283-1.322-4.443-1.322-4.443l-.83-3.308-.83-3.334-.59-2.19c-1.555-5.703-3.707-8.51-3.707-8.51a14.3 14.3 0 0 0-6.859-5.32c-3.214-1.173-6.588-.513-6.588-.513-5.285 1.056-8.062 4.74-9.284 6.513.56.149 1.095.378 1.59.683.66.402 1.232.94 1.678 1.58.796 1.15.976 2.581 1.135 3.95.333 2.965.91 5.897 1.722 8.765 1.791-6.035 3.94-8.848 3.94-8.848.24-.303.527-.563.852-.77a1.4 1.4 0 0 1 .553-.2c.363-.035.728.055 1.035.256q.085.057.159.127c.28.253.522.548.715.875a19 19 0 0 1 1.16 2.528c.671 1.921 1.243 4.269 1.243 4.269l1.71 6.85c1.244 4.658 2.298 6.92 2.298 6.92 2.596 6.043 6.566 7.743 6.566 7.743a13.74 13.74 0 0 0 6.275 1.668 12.9 12.9 0 0 0 6.05-1.324 15.5 15.5 0 0 0 5.301-4.357c.96-1.132 2.375-3.887 2.375-3.887a50.3 50.3 0 0 0 3.654-9.9q.833-3.2 1.334-6.472a87 87 0 0 0 .453-3.258 8.6 8.6 0 0 0-.093-3.106 5 5 0 0 0-.17-.54 5.84 5.84 0 0 0-2.619-2.999 5.96 5.96 0 0 0-2.87-.717"/><path fill="url(#G)" d="M54.409 13.634a5.8 5.8 0 0 0-1.465.186 28.7 28.7 0 0 1 2.764 5.107 6.07 6.07 0 0 1 .062 4.731 6 6 0 0 1-1.275 1.931 5.9 5.9 0 0 1-1.905 1.288 5.78 5.78 0 0 1-5.205-.373l-.603 2.266c-1.094 3.719-1.866 5.157-1.866 5.157a20 20 0 0 1-1.51 2.904c-.402.603-.915 1.21-1.617 1.44a1.6 1.6 0 0 1-.762.076 2 2 0 0 1-.787-.268 3.5 3.5 0 0 1-1.07-1.353 19 19 0 0 1-.798-1.823c-.52-1.283-1.322-4.443-1.322-4.443l-.83-3.308-.83-3.334-.59-2.19c-1.555-5.703-3.707-8.51-3.707-8.51a14.3 14.3 0 0 0-6.859-5.32c-3.214-1.173-6.588-.513-6.588-.513-5.285 1.056-8.062 4.74-9.284 6.513.56.149 1.095.378 1.59.683.66.402 1.232.94 1.678 1.58.796 1.15.976 2.581 1.135 3.95.333 2.965.91 5.897 1.722 8.765 1.791-6.035 3.94-8.848 3.94-8.848.24-.303.527-.563.852-.77a1.4 1.4 0 0 1 .553-.2c.363-.035.728.055 1.035.256q.085.057.159.127c.28.253.522.548.715.875a19 19 0 0 1 1.16 2.528c.671 1.921 1.243 4.269 1.243 4.269l1.71 6.85c1.244 4.658 2.298 6.92 2.298 6.92 2.596 6.043 6.566 7.743 6.566 7.743a13.74 13.74 0 0 0 6.275 1.668 12.9 12.9 0 0 0 6.05-1.324 15.5 15.5 0 0 0 5.301-4.357c.96-1.132 2.375-3.887 2.375-3.887a50.3 50.3 0 0 0 3.654-9.9q.833-3.2 1.334-6.472a87 87 0 0 0 .453-3.258 8.6 8.6 0 0 0-.093-3.106 5 5 0 0 0-.17-.54 5.84 5.84 0 0 0-2.619-2.999 5.96 5.96 0 0 0-2.87-.717"/><path fill="url(#H)" d="M54.409 13.634a5.8 5.8 0 0 0-1.465.186 28.7 28.7 0 0 1 2.764 5.107 6.07 6.07 0 0 1 .062 4.731 6 6 0 0 1-1.275 1.931 5.9 5.9 0 0 1-1.905 1.288 5.78 5.78 0 0 1-5.205-.373l-.603 2.266c-1.094 3.719-1.866 5.157-1.866 5.157a20 20 0 0 1-1.51 2.904c-.402.603-.915 1.21-1.617 1.44a1.6 1.6 0 0 1-.762.076 2 2 0 0 1-.787-.268 3.5 3.5 0 0 1-1.07-1.353 19 19 0 0 1-.798-1.823c-.52-1.283-1.322-4.443-1.322-4.443l-.83-3.308-.83-3.334-.59-2.19c-1.555-5.703-3.707-8.51-3.707-8.51a14.3 14.3 0 0 0-6.859-5.32c-3.214-1.173-6.588-.513-6.588-.513-5.285 1.056-8.062 4.74-9.284 6.513.56.149 1.095.378 1.59.683.66.402 1.232.94 1.678 1.58.796 1.15.976 2.581 1.135 3.95.333 2.965.91 5.897 1.722 8.765 1.791-6.035 3.94-8.848 3.94-8.848.24-.303.527-.563.852-.77a1.4 1.4 0 0 1 .553-.2c.363-.035.728.055 1.035.256q.085.057.159.127c.28.253.522.548.715.875a19 19 0 0 1 1.16 2.528c.671 1.921 1.243 4.269 1.243 4.269l1.71 6.85c1.244 4.658 2.298 6.92 2.298 6.92 2.596 6.043 6.566 7.743 6.566 7.743a13.74 13.74 0 0 0 6.275 1.668 12.9 12.9 0 0 0 6.05-1.324 15.5 15.5 0 0 0 5.301-4.357c.96-1.132 2.375-3.887 2.375-3.887a50.3 50.3 0 0 0 3.654-9.9q.833-3.2 1.334-6.472a87 87 0 0 0 .453-3.258 8.6 8.6 0 0 0-.093-3.106 5 5 0 0 0-.17-.54 5.84 5.84 0 0 0-2.619-2.999 5.96 5.96 0 0 0-2.87-.717"/><path fill="url(#I)" d="M54.409 13.634a5.8 5.8 0 0 0-1.465.186 28.7 28.7 0 0 1 2.764 5.107 6.07 6.07 0 0 1 .062 4.731 6 6 0 0 1-1.275 1.931 5.9 5.9 0 0 1-1.905 1.288 5.78 5.78 0 0 1-5.205-.373l-.603 2.266c-1.094 3.719-1.866 5.157-1.866 5.157a20 20 0 0 1-1.51 2.904c-.402.603-.915 1.21-1.617 1.44a1.6 1.6 0 0 1-.762.076 2 2 0 0 1-.787-.268 3.5 3.5 0 0 1-1.07-1.353 19 19 0 0 1-.798-1.823c-.52-1.283-1.322-4.443-1.322-4.443l-.83-3.308-.83-3.334-.59-2.19c-1.555-5.703-3.707-8.51-3.707-8.51a14.3 14.3 0 0 0-6.859-5.32c-3.214-1.173-6.588-.513-6.588-.513-5.285 1.056-8.062 4.74-9.284 6.513.56.149 1.095.378 1.59.683.66.402 1.232.94 1.678 1.58.796 1.15.976 2.581 1.135 3.95.333 2.965.91 5.897 1.722 8.765 1.791-6.035 3.94-8.848 3.94-8.848.24-.303.527-.563.852-.77a1.4 1.4 0 0 1 .553-.2c.363-.035.728.055 1.035.256q.085.057.159.127c.28.253.522.548.715.875a19 19 0 0 1 1.16 2.528c.671 1.921 1.243 4.269 1.243 4.269l1.71 6.85c1.244 4.658 2.298 6.92 2.298 6.92 2.596 6.043 6.566 7.743 6.566 7.743a13.74 13.74 0 0 0 6.275 1.668 12.9 12.9 0 0 0 6.05-1.324 15.5 15.5 0 0 0 5.301-4.357c.96-1.132 2.375-3.887 2.375-3.887a50.3 50.3 0 0 0 3.654-9.9q.833-3.2 1.334-6.472a87 87 0 0 0 .453-3.258 8.6 8.6 0 0 0-.093-3.106 5 5 0 0 0-.17-.54 5.84 5.84 0 0 0-2.619-2.999 5.96 5.96 0 0 0-2.87-.717"/><path fill="#fff" d="M200.374 57.128h-2.799v11.124h2.799zM223.061 60.315a4.9 4.9 0 0 0-2.364-.592c-1.822 0-3.085 1.262-3.085 2.966 0 1.654 1.21 2.97 3.085 2.97.825.001 1.637-.201 2.364-.59v2.985a9 9 0 0 1-2.566.394c-3.163 0-5.937-2.172-5.937-5.76 0-3.32 2.513-5.755 5.937-5.755a8.6 8.6 0 0 1 2.566.397zM193.695 60.315a4.9 4.9 0 0 0-2.364-.592c-1.823 0-3.082 1.262-3.082 2.966 0 1.654 1.206 2.97 3.082 2.97a5 5 0 0 0 2.364-.59v2.985a9 9 0 0 1-2.566.394c-3.163 0-5.935-2.172-5.935-5.76 0-3.32 2.51-5.755 5.935-5.755.87.002 1.735.136 2.566.397zM231.91 59.763a2.88 2.88 0 0 0-2.908 2.926 2.87 2.87 0 0 0 1.785 2.712c.356.147.738.22 1.123.217a2.886 2.886 0 0 0 2.911-2.93 2.887 2.887 0 0 0-2.911-2.926m5.891 2.926c0 3.183-2.46 5.759-5.891 5.759s-5.888-2.576-5.888-5.76 2.461-5.755 5.888-5.755 5.891 2.579 5.891 5.756M211.044 59.657a9.7 9.7 0 0 0-2.206-.335c-1.125 0-1.738.376-1.738.91 0 .679.827.93 1.288 1.06l.777.246c1.826.58 2.659 1.827 2.659 3.183 0 2.793-2.463 3.724-4.618 3.724a17 17 0 0 1-3.036-.31v-2.56c.864.25 1.757.388 2.656.412 1.403 0 2.044-.406 2.044-1.04 0-.56-.557-.887-1.245-1.107l-.6-.192c-1.555-.494-2.874-1.412-2.874-3.255 0-2.08 1.555-3.476 4.156-3.476.924.013 1.843.132 2.74.354zM165.544 68.215h-1.223V57.116h1.484v4.192a3.09 3.09 0 0 1 2.69-1.34 3.21 3.21 0 0 1 2.687 1.24q.85 1.113.85 2.945 0 2.173-1.157 3.33a3.38 3.38 0 0 1-2.489.971 2.98 2.98 0 0 1-2.612-1.294zm4.945-4.102q0-1.51-.759-2.265a2.1 2.1 0 0 0-1.577-.62 2.2 2.2 0 0 0-1.791.816 3.2 3.2 0 0 0-.622 2.066q.002 1.542.758 2.358a2.14 2.14 0 0 0 1.668.71 2.03 2.03 0 0 0 1.763-.85c.414-.662.61-1.436.56-2.215M179.974 60.197l-2.799 8.123q-.557 1.62-1.067 2.207a1.97 1.97 0 0 1-1.555.692 4.2 4.2 0 0 1-.958-.137v-1.21q.381.1.774.108a.9.9 0 0 0 .741-.332c.285-.448.509-.932.665-1.44h-.479l-2.951-8.017h1.608l2.27 6.826 2.271-6.826zM113.895 17.811h6.275l-9.123 27.513h-7.199l-6.819-20.762-6.819 20.762h-7.086L74 17.81h6.422l6.474 20.908 6.793-20.908h6.819l6.905 21.02zM147.084 33.776H126.73a8.75 8.75 0 0 0 1.554 3.935 7 7 0 0 0 2.892 2.325 9.2 9.2 0 0 0 3.728.75 12 12 0 0 0 4.161-.758 13.6 13.6 0 0 0 3.815-2.144l2.995 4.305a15.2 15.2 0 0 1-5.231 2.971c-1.977.62-4.039.924-6.111.904a14.64 14.64 0 0 1-7.311-1.79 12.7 12.7 0 0 1-4.997-5.081 15.6 15.6 0 0 1-1.796-7.595 15.94 15.94 0 0 1 1.727-7.544 12.7 12.7 0 0 1 4.85-5.106 13.8 13.8 0 0 1 7.139-1.826c2.361-.065 4.69.55 6.709 1.772a12.27 12.27 0 0 1 4.676 5.117 16.46 16.46 0 0 1 1.657 7.526c.009.577-.026 1.327-.103 2.24m-6.043-4.564a8.5 8.5 0 0 0-2.304-5.029 6.41 6.41 0 0 0-4.696-1.722 6.76 6.76 0 0 0-4.937 1.826 8.73 8.73 0 0 0-2.374 4.951zM172.831 18.965a13.4 13.4 0 0 1 4.981 5.167 15.1 15.1 0 0 1 1.83 7.44 15.1 15.1 0 0 1-1.83 7.431 13.4 13.4 0 0 1-4.997 5.185 13.4 13.4 0 0 1-6.967 1.85 11.3 11.3 0 0 1-4.98-1.041 10.3 10.3 0 0 1-3.651-2.946v3.273h-6.042V6.1h6.042v14.983a10.36 10.36 0 0 1 3.651-2.927 11.2 11.2 0 0 1 4.98-1.05c2.455-.03 4.871.613 6.983 1.86m-3.297 20.245a7.76 7.76 0 0 0 2.909-3.195 10.31 10.31 0 0 0 0-8.895 7.8 7.8 0 0 0-2.909-3.195 8.81 8.81 0 0 0-8.735 0 7.87 7.87 0 0 0-2.935 3.16 9.5 9.5 0 0 0-1.053 4.513 9.47 9.47 0 0 0 1.053 4.503 7.87 7.87 0 0 0 2.935 3.16 8.81 8.81 0 0 0 8.735 0zM209.455 33.776h-20.344a8.75 8.75 0 0 0 1.553 3.935 7.03 7.03 0 0 0 2.892 2.325 9.2 9.2 0 0 0 3.729.75 12.1 12.1 0 0 0 4.16-.758 13.5 13.5 0 0 0 3.815-2.144l2.987 4.305a15.1 15.1 0 0 1-5.222 2.971c-1.98.619-4.045.924-6.12.904a14.7 14.7 0 0 1-7.311-1.79 12.75 12.75 0 0 1-4.989-5.081 15.6 15.6 0 0 1-1.804-7.595 15.96 15.96 0 0 1 1.726-7.544 12.7 12.7 0 0 1 4.851-5.106 13.8 13.8 0 0 1 7.19-1.852 12.33 12.33 0 0 1 6.707 1.776 12.3 12.3 0 0 1 4.678 5.113 16.45 16.45 0 0 1 1.658 7.527c-.035.602-.095 1.352-.156 2.264m-6.042-4.564a8.55 8.55 0 0 0-2.313-4.994 6.44 6.44 0 0 0-4.678-1.757 6.75 6.75 0 0 0-4.938 1.826 8.7 8.7 0 0 0-2.373 4.951zM238.156 45.324h-7.398l-6.991-9.567-6.905 9.567h-7.052l10.357-14.045-10.193-13.468h7.405l6.733 9.188 6.733-9.188H238l-10.237 13.416z"/><defs><radialGradient id="b" cx="0" cy="0" r="1" gradientTransform="matrix(5.95345 21.55494 -16.15608 4.4623 34.337 25.088)" gradientUnits="userSpaceOnUse"><stop stop-color="#227B60"/><stop offset=".14" stop-color="#227B60" stop-opacity=".81"/><stop offset=".58" stop-color="#227B60" stop-opacity=".23"/><stop offset=".78" stop-color="#227B60" stop-opacity="0"/></radialGradient><radialGradient id="c" cx="0" cy="0" r="1" gradientTransform="matrix(-.29787 15.13607 -11.3171 -.22271 37.532 23.533)" gradientUnits="userSpaceOnUse"><stop stop-color="#227B60"/><stop offset=".25" stop-color="#227B60" stop-opacity=".7"/><stop offset=".71" stop-color="#227B60" stop-opacity=".2"/><stop offset=".92" stop-color="#227B60" stop-opacity="0"/></radialGradient><radialGradient id="d" cx="0" cy="0" r="1" gradientTransform="rotate(88.623 6.141 30.972)scale(14.1121 9.85872)" gradientUnits="userSpaceOnUse"><stop stop-color="#227B60"/><stop offset=".07" stop-color="#227B60" stop-opacity=".9"/><stop offset=".34" stop-color="#227B60" stop-opacity=".51"/><stop offset=".59" stop-color="#227B60" stop-opacity=".23"/><stop offset=".79" stop-color="#227B60" stop-opacity=".06"/><stop offset=".92" stop-color="#227B60" stop-opacity="0"/></radialGradient><radialGradient id="e" cx="0" cy="0" r="1" gradientTransform="rotate(88.623 6.588 30.771)scale(11.3946 7.96027)" gradientUnits="userSpaceOnUse"><stop stop-color="#227B60"/><stop offset=".36" stop-color="#227B60" stop-opacity=".63"/><stop offset=".92" stop-color="#227B60" stop-opacity="0"/></radialGradient><radialGradient id="f" cx="0" cy="0" r="1" gradientTransform="matrix(.21847 9.08521 -5.7212 .13757 37.681 24.085)" gradientUnits="userSpaceOnUse"><stop stop-color="#20735A"/><stop offset=".15" stop-color="#20745A" stop-opacity=".93"/><stop offset=".38" stop-color="#21755C" stop-opacity=".74"/><stop offset=".67" stop-color="#21785D" stop-opacity=".43"/><stop offset="1" stop-color="#227B60" stop-opacity="0"/></radialGradient><radialGradient id="g" cx="0" cy="0" r="1" gradientTransform="matrix(13.16542 5.90148 -4.47442 9.98183 38.88 25.535)" gradientUnits="userSpaceOnUse"><stop stop-color="#227A61"/><stop offset=".36" stop-color="#227A61" stop-opacity=".56"/><stop offset=".72" stop-color="#227A61" stop-opacity=".16"/><stop offset=".9" stop-color="#227A61" stop-opacity="0"/></radialGradient><radialGradient id="h" cx="0" cy="0" r="1" gradientTransform="rotate(35.711 13.365 55.77)scale(19.2946 17.7355)" gradientUnits="userSpaceOnUse"><stop stop-color="#3CD9C3"/><stop offset=".07" stop-color="#3BD7C1" stop-opacity=".9"/><stop offset=".41" stop-color="#38CEB9" stop-opacity=".42"/><stop offset=".65" stop-color="#36C8B4" stop-opacity=".12"/><stop offset=".76" stop-color="#35C6B2" stop-opacity="0"/></radialGradient><radialGradient id="i" cx="0" cy="0" r="1" gradientTransform="rotate(35.711 22068.456 21449.473)scale(3426.93 2418.25)" gradientUnits="userSpaceOnUse"><stop stop-color="#3CD9C3"/><stop offset=".07" stop-color="#3BD7C1" stop-opacity=".9"/><stop offset=".41" stop-color="#38CEB9" stop-opacity=".42"/><stop offset=".65" stop-color="#36C8B4" stop-opacity=".12"/><stop offset=".76" stop-color="#35C6B2" stop-opacity="0"/></radialGradient><radialGradient id="j" cx="0" cy="0" r="1" gradientTransform="matrix(-3.22125 16.8864 -20.55534 -3.92114 42.709 28.902)" gradientUnits="userSpaceOnUse"><stop stop-color="#237F66" stop-opacity=".8"/><stop offset=".06" stop-color="#2C8C70" stop-opacity=".65"/><stop offset=".21" stop-color="#3DA785" stop-opacity=".37"/><stop offset=".35" stop-color="#4ABA93" stop-opacity=".17"/><stop offset=".47" stop-color="#51C59C" stop-opacity=".04"/><stop offset=".56" stop-color="#54C99F" stop-opacity="0"/></radialGradient><radialGradient id="k" cx="0" cy="0" r="1" gradientTransform="matrix(13.97148 -17.42299 18.75306 15.03806 32.226 30.126)" gradientUnits="userSpaceOnUse"><stop stop-color="#167C8A"/><stop offset=".04" stop-color="#167C8A" stop-opacity=".93"/><stop offset=".33" stop-color="#177F8D" stop-opacity=".43"/><stop offset=".54" stop-color="#17818F" stop-opacity=".12"/><stop offset=".65" stop-color="#178290" stop-opacity="0"/></radialGradient><radialGradient id="l" cx="0" cy="0" r="1" gradientTransform="rotate(-32.076 71.798 -37.547)scale(21.6719 17.244)" gradientUnits="userSpaceOnUse"><stop offset=".05" stop-color="#177D87"/><stop offset=".11" stop-color="#177E89" stop-opacity=".8"/><stop offset=".21" stop-color="#177F8B" stop-opacity=".52"/><stop offset=".32" stop-color="#17818D" stop-opacity=".29"/><stop offset=".42" stop-color="#17818F" stop-opacity=".13"/><stop offset=".51" stop-color="#178290" stop-opacity=".03"/><stop offset=".6" stop-color="#178290" stop-opacity="0"/></radialGradient><radialGradient id="m" cx="0" cy="0" r="1" gradientTransform="rotate(-130.081 20.417 10.434)scale(12.9755 10.1902)" gradientUnits="userSpaceOnUse"><stop offset=".26" stop-color="#177F8A"/><stop offset=".27" stop-color="#177F8A" stop-opacity=".98"/><stop offset=".38" stop-color="#17808C" stop-opacity=".68"/><stop offset=".5" stop-color="#17818D" stop-opacity=".43"/><stop offset=".62" stop-color="#17818F" stop-opacity=".24"/><stop offset=".74" stop-color="#17828F" stop-opacity=".11"/><stop offset=".86" stop-color="#178290" stop-opacity=".03"/><stop offset="1" stop-color="#178290" stop-opacity="0"/></radialGradient><radialGradient id="n" cx="0" cy="0" r="1" gradientTransform="rotate(-172.999 12.725 17.282)scale(12.0601 12.2513)" gradientUnits="userSpaceOnUse"><stop stop-color="#13656E"/><stop offset=".11" stop-color="#13646E" stop-opacity=".73"/><stop offset=".27" stop-color="#12646E" stop-opacity=".41"/><stop offset=".42" stop-color="#12636E" stop-opacity=".18"/><stop offset=".55" stop-color="#12636E" stop-opacity=".05"/><stop offset=".66" stop-color="#12636E" stop-opacity="0"/></radialGradient><radialGradient id="o" cx="0" cy="0" r="1" gradientTransform="matrix(-4.12898 -7.47193 6.22313 -3.4389 22.933 37.81)" gradientUnits="userSpaceOnUse"><stop offset=".13" stop-color="#146A73"/><stop offset=".24" stop-color="#156F79" stop-opacity=".79"/><stop offset=".45" stop-color="#167783" stop-opacity=".45"/><stop offset=".65" stop-color="#167D8A" stop-opacity=".2"/><stop offset=".82" stop-color="#17818E" stop-opacity=".05"/><stop offset=".95" stop-color="#178290" stop-opacity="0"/></radialGradient><radialGradient id="p" cx="0" cy="0" r="1" gradientTransform="rotate(-56.422 43.05 -3.643)scale(8.02122 6.31545)" gradientUnits="userSpaceOnUse"><stop stop-color="#198E9C"/><stop offset=".1" stop-color="#198E9C" stop-opacity=".87"/><stop offset=".41" stop-color="#198E9C" stop-opacity=".5"/><stop offset=".67" stop-color="#198E9C" stop-opacity=".23"/><stop offset=".88" stop-color="#198E9C" stop-opacity=".06"/><stop offset="1" stop-color="#198E9C" stop-opacity="0"/></radialGradient><radialGradient id="w" cx="0" cy="0" r="1" gradientTransform="matrix(-4.00512 26.63223 -17.30738 -2.60279 45.636 27.24)" gradientUnits="userSpaceOnUse"><stop stop-color="#1A3D9C"/><stop offset=".4" stop-color="#1A3D9C" stop-opacity=".42"/><stop offset=".7" stop-color="#1A3D9C" stop-opacity="0"/></radialGradient><radialGradient id="x" cx="0" cy="0" r="1" gradientTransform="matrix(-492.65778 3275.95267 -1739.56895 -261.607 7799.63 13117)" gradientUnits="userSpaceOnUse"><stop stop-color="#1A3D9C"/><stop offset=".4" stop-color="#1A3D9C" stop-opacity=".42"/><stop offset=".7" stop-color="#1A3D9C" stop-opacity="0"/></radialGradient><radialGradient id="y" cx="0" cy="0" r="1" gradientTransform="rotate(98.479 -2460.272 8811.727)scale(3945.36 1605.18)" gradientUnits="userSpaceOnUse"><stop stop-color="#1A3D9C"/><stop offset=".4" stop-color="#1A3D9C" stop-opacity=".42"/><stop offset=".7" stop-color="#1A3D9C" stop-opacity="0"/></radialGradient><radialGradient id="z" cx="0" cy="0" r="1" gradientTransform="matrix(2.78815 23.37792 -16.0569 1.91501 41.418 25.426)" gradientUnits="userSpaceOnUse"><stop stop-color="#1A3D9C"/><stop offset=".16" stop-color="#1A3D9C" stop-opacity=".69"/><stop offset=".33" stop-color="#1A3D9C" stop-opacity=".4"/><stop offset=".49" stop-color="#1A3D9C" stop-opacity=".18"/><stop offset=".61" stop-color="#1A3D9C" stop-opacity=".05"/><stop offset=".7" stop-color="#1A3D9C" stop-opacity="0"/></radialGradient><radialGradient id="A" cx="0" cy="0" r="1" gradientTransform="rotate(74.876 3.777 45.3)scale(22.606 15.159)" gradientUnits="userSpaceOnUse"><stop stop-color="#18388F"/><stop offset=".37" stop-color="#193B96" stop-opacity=".45"/><stop offset=".7" stop-color="#1A3D9C" stop-opacity="0"/></radialGradient><radialGradient id="B" cx="0" cy="0" r="1" gradientTransform="rotate(74.876 -1.272 46.868)scale(10.5108 9.84677)" gradientUnits="userSpaceOnUse"><stop stop-color="#18388F"/><stop offset=".09" stop-color="#183992" stop-opacity=".78"/><stop offset=".22" stop-color="#193B96" stop-opacity=".5"/><stop offset=".35" stop-color="#193C98" stop-opacity=".28"/><stop offset=".47" stop-color="#1A3C9A" stop-opacity=".13"/><stop offset=".59" stop-color="#1A3D9C" stop-opacity=".03"/><stop offset=".7" stop-color="#1A3D9C" stop-opacity="0"/></radialGradient><radialGradient id="C" cx="0" cy="0" r="1" gradientTransform="rotate(74.876 -2.32 47.928)scale(10.5108 9.84677)" gradientUnits="userSpaceOnUse"><stop stop-color="#1A3D9C" stop-opacity=".8"/><stop offset=".01" stop-color="#1A3D9C" stop-opacity=".78"/><stop offset=".24" stop-color="#1A3D9C" stop-opacity=".45"/><stop offset=".44" stop-color="#1A3D9C" stop-opacity=".2"/><stop offset=".6" stop-color="#1A3D9C" stop-opacity=".05"/><stop offset=".7" stop-color="#1A3D9C" stop-opacity="0"/></radialGradient><radialGradient id="D" cx="0" cy="0" r="1" gradientTransform="rotate(67.359 -14.727 29.058)scale(25.0509 16.4363)" gradientUnits="userSpaceOnUse"><stop stop-color="#1A3D9C"/><stop offset=".4" stop-color="#1A3D9C" stop-opacity=".56"/><stop offset=".48" stop-color="#1A3D9C" stop-opacity=".43"/><stop offset=".69" stop-color="#1A3D9C" stop-opacity=".12"/><stop offset=".79" stop-color="#1A3D9C" stop-opacity="0"/></radialGradient><radialGradient id="E" cx="0" cy="0" r="1" gradientTransform="matrix(4.40178 18.08111 -11.76683 2.8646 16.18 25.58)" gradientUnits="userSpaceOnUse"><stop stop-color="#1A3D9C"/><stop offset=".06" stop-color="#1A3D9C" stop-opacity=".88"/><stop offset=".21" stop-color="#1A3D9C" stop-opacity=".61"/><stop offset=".36" stop-color="#1A3D9C" stop-opacity=".39"/><stop offset=".51" stop-color="#1A3D9C" stop-opacity=".22"/><stop offset=".67" stop-color="#1A3D9C" stop-opacity=".1"/><stop offset=".83" stop-color="#1A3D9C" stop-opacity=".02"/><stop offset="1" stop-color="#1A3D9C" stop-opacity="0"/></radialGradient><radialGradient id="F" cx="0" cy="0" r="1" gradientTransform="matrix(4.40178 18.08111 -11.76683 2.8646 16.18 25.58)" gradientUnits="userSpaceOnUse"><stop stop-color="#1B3E9E"/><stop offset=".06" stop-color="#1B3E9E" stop-opacity=".87"/><stop offset=".21" stop-color="#1B3E9D" stop-opacity=".61"/><stop offset=".36" stop-color="#1A3D9D" stop-opacity=".39"/><stop offset=".52" stop-color="#1A3D9C" stop-opacity=".22"/><stop offset=".67" stop-color="#1A3D9C" stop-opacity=".1"/><stop offset=".83" stop-color="#1A3D9C" stop-opacity=".02"/><stop offset="1" stop-color="#1A3D9C" stop-opacity="0"/></radialGradient><radialGradient id="G" cx="0" cy="0" r="1" gradientTransform="matrix(3.36757 13.83289 -9.00212 2.19153 16.875 23.764)" gradientUnits="userSpaceOnUse"><stop stop-color="#183991"/><stop offset=".03" stop-color="#183992" stop-opacity=".95"/><stop offset=".18" stop-color="#193A95" stop-opacity=".66"/><stop offset=".34" stop-color="#193B97" stop-opacity=".42"/><stop offset=".5" stop-color="#1A3C99" stop-opacity=".24"/><stop offset=".66" stop-color="#1A3D9B" stop-opacity=".1"/><stop offset=".82" stop-color="#1A3D9C" stop-opacity=".03"/><stop offset="1" stop-color="#1A3D9C" stop-opacity="0"/></radialGradient><radialGradient id="H" cx="0" cy="0" r="1" gradientTransform="rotate(87.184 -3.718 23.064)scale(11.2598 9.75343)" gradientUnits="userSpaceOnUse"><stop offset=".04" stop-color="#2453D6" stop-opacity=".6"/><stop offset=".2" stop-color="#2453D6" stop-opacity=".49"/><stop offset=".52" stop-color="#2453D6" stop-opacity=".2"/><stop offset=".73" stop-color="#2453D6" stop-opacity="0"/></radialGradient><linearGradient id="a" x1="3.655" x2="49.952" y1="36.211" y2="17.798" gradientUnits="userSpaceOnUse"><stop offset=".13" stop-color="#1CBBF3"/><stop offset=".34" stop-color="#1F99A5"/><stop offset=".45" stop-color="#209CA6"/><stop offset=".51" stop-color="#24A4AA"/><stop offset=".57" stop-color="#2BB3B0"/><stop offset=".6" stop-color="#30BDB4"/><stop offset=".79" stop-color="#38BA90"/><stop offset="1" stop-color="#60F05A"/></linearGradient><linearGradient id="q" x1="6.624" x2="27.262" y1="6.119" y2="24.913" gradientUnits="userSpaceOnUse"><stop offset=".13" stop-color="#2BF9FF"/><stop offset=".27" stop-color="#29F9FF" stop-opacity=".64"/><stop offset=".4" stop-color="#27FAFF" stop-opacity=".3"/><stop offset=".49" stop-color="#26FAFF" stop-opacity=".08"/><stop offset=".54" stop-color="#26FAFF" stop-opacity="0"/></linearGradient><linearGradient id="r" x1="-4.892" x2="18.918" y1="37.333" y2="30.691" gradientUnits="userSpaceOnUse"><stop stop-color="#26FAFF"/><stop offset=".06" stop-color="#26FAFF" stop-opacity=".88"/><stop offset=".24" stop-color="#26FAFF" stop-opacity=".51"/><stop offset=".39" stop-color="#26FAFF" stop-opacity=".23"/><stop offset=".5" stop-color="#26FAFF" stop-opacity=".06"/><stop offset=".55" stop-color="#26FAFF" stop-opacity="0"/></linearGradient><linearGradient id="s" x1="1.401" x2="28.27" y1="36.492" y2="27.07" gradientUnits="userSpaceOnUse"><stop stop-color="#21DEFF"/><stop offset=".04" stop-color="#21DEFF" stop-opacity=".88"/><stop offset=".17" stop-color="#21DEFF" stop-opacity=".51"/><stop offset=".27" stop-color="#21DEFF" stop-opacity=".23"/><stop offset=".34" stop-color="#21DEFF" stop-opacity=".06"/><stop offset=".38" stop-color="#21DEFF" stop-opacity="0"/></linearGradient><linearGradient id="t" x1="26.84" x2="42.169" y1="22.456" y2="47.056" gradientUnits="userSpaceOnUse"><stop offset=".62" stop-color="#21DEFF" stop-opacity="0"/><stop offset=".66" stop-color="#21DEFF" stop-opacity=".06"/><stop offset=".73" stop-color="#21DEFF" stop-opacity=".23"/><stop offset=".83" stop-color="#21DEFF" stop-opacity=".51"/><stop offset=".96" stop-color="#21DEFF" stop-opacity=".88"/><stop offset="1" stop-color="#21DEFF"/></linearGradient><linearGradient id="u" x1="43.505" x2="41.074" y1="31.73" y2="20.07" gradientUnits="userSpaceOnUse"><stop stop-color="#44B044"/><stop offset=".11" stop-color="#44B044" stop-opacity=".8"/><stop offset=".27" stop-color="#44B044" stop-opacity=".52"/><stop offset=".43" stop-color="#44B044" stop-opacity=".29"/><stop offset=".58" stop-color="#44B044" stop-opacity=".13"/><stop offset=".7" stop-color="#44B044" stop-opacity=".03"/><stop offset=".8" stop-color="#44B044" stop-opacity="0"/></linearGradient><linearGradient id="v" x1="10.644" x2="60.37" y1="19.628" y2="35.825" gradientUnits="userSpaceOnUse"><stop stop-color="#3066FB"/><stop offset=".38" stop-color="#2F64F7"/><stop offset=".74" stop-color="#2857D9"/><stop offset="1" stop-color="#3C7EFF"/></linearGradient><linearGradient id="I" x1="42.852" x2="29.979" y1="-.943" y2="30.366" gradientUnits="userSpaceOnUse"><stop stop-color="#3774FF"/><stop offset=".05" stop-color="#3774FF" stop-opacity=".91"/><stop offset=".16" stop-color="#3774FF" stop-opacity=".66"/><stop offset=".32" stop-color="#3774FF" stop-opacity=".28"/><stop offset=".43" stop-color="#3774FF" stop-opacity="0"/></linearGradient></defs></svg>