<svg xmlns="http://www.w3.org/2000/svg" width="32" height="32" viewBox="0 0 32 32"><path d="M3.5 7A3.5 3.5 0 0 1 7 3.5h13.5A3.5 3.5 0 0 1 24 7v3.932a3.75 3.75 0 0 1 0 6.635v.118c1.908.428 3.216 1.55 4.07 2.88 1.078 1.676 1.43 3.668 1.43 4.997 0 1.568-1.747 3.938-7.25 3.938S15 27.13 15 25.563c0-.457.041-.99.14-1.563H8.267L5.92 27.522a.5.5 0 0 1-.832-.555L7.066 24H7a3.5 3.5 0 0 1-3.5-3.5zm11.862 16a8.9 8.9 0 0 1 1.067-2.434c.88-1.368 2.239-2.517 4.237-2.916A3.75 3.75 0 0 1 23 10.575V7a2.5 2.5 0 0 0-2.5-2.5H7A2.5 2.5 0 0 0 4.5 7v13.5A2.5 2.5 0 0 0 7 23zm-7.627-7.076a.5.5 0 0 0 .689-.159l2.076-3.322 2.076 3.322a.5.5 0 0 0 .848 0l2.5-4a.5.5 0 0 0-.848-.53L13 14.557l-2.075-3.322a.5.5 0 0 0-.849 0l-2.5 4a.5.5 0 0 0 .159.689M22.25 11.5a2.75 2.75 0 1 0 0 5.5 2.75 2.75 0 0 0 0-5.5m-4.98 9.606c-.947 1.475-1.27 3.265-1.27 4.456 0 .724.953 2.938 6.25 2.938s6.25-2.214 6.25-2.937c0-1.191-.323-2.982-1.27-4.457-.931-1.448-2.468-2.606-4.98-2.606s-4.049 1.158-4.98 2.606"/></svg>