<svg xmlns="http://www.w3.org/2000/svg" width="32" height="32" viewBox="0 0 32 32"><path d="M3.25 7A3.75 3.75 0 0 1 7 3.25h13.5A3.75 3.75 0 0 1 24.25 7v3.785a4 4 0 0 0-4.251 6.772c-1.738.509-2.961 1.6-3.78 2.873-.792 1.233-1.202 2.627-1.372 3.82H8.401l-2.273 3.41a.75.75 0 1 1-1.248-.832l1.732-2.598A3.75 3.75 0 0 1 3.25 20.5zm4.22 9.348a1 1 0 0 0 1.378-.318l1.652-2.643 1.652 2.643a1 1 0 0 0 1.696 0l2.5-4a1 1 0 1 0-1.696-1.06L13 13.613 11.35 10.97a1 1 0 0 0-1.696 0l-2.5 4a1 1 0 0 0 .317 1.378m14.78-4.598a2.5 2.5 0 1 0 0 5 2.5 2.5 0 0 0 0-5m-4.77 9.491c-.915 1.425-1.23 3.165-1.23 4.322 0 .513.755 2.687 6 2.687s6-2.174 6-2.687c0-1.157-.315-2.897-1.23-4.322-.89-1.384-2.352-2.491-4.77-2.491s-3.88 1.107-4.77 2.491"/></svg>