<svg xmlns="http://www.w3.org/2000/svg" width="32" height="32" viewBox="0 0 32 32"><path d="M3.25 7A3.75 3.75 0 0 1 7 3.25h13.5A3.75 3.75 0 0 1 24.25 7v3.785c1.196.692 2 1.984 2 3.465a3.996 3.996 0 0 1-1.749 3.307c1.738.509 2.961 1.6 3.78 2.873 1.11 1.727 1.469 3.768 1.469 5.133 0 1.778-1.945 4.187-7.5 4.187s-7.5-2.409-7.5-4.188c0-.39.03-.835.097-1.312H8.401l-2.273 3.41a.75.75 0 1 1-1.248-.832l1.732-2.598A3.75 3.75 0 0 1 3.25 20.5V7Zm11.924 15.75a9.052 9.052 0 0 1 1.045-2.32c.819-1.273 2.042-2.364 3.78-2.873a4 4 0 0 1 2.751-7.276V7a2.25 2.25 0 0 0-2.25-2.25H7A2.25 2.25 0 0 0 4.75 7v13.5A2.25 2.25 0 0 0 7 22.75h8.174Zm-7.571-6.614a.75.75 0 0 0 1.033-.238l1.864-2.983 1.864 2.982a.75.75 0 0 0 1.272 0l2.5-4a.75.75 0 1 0-1.272-.795L13 14.085l-1.864-2.983a.75.75 0 0 0-1.271 0l-2.5 4a.75.75 0 0 0 .238 1.034ZM22.25 11.75a2.5 2.5 0 1 0 0 5 2.5 2.5 0 0 0 0-5Zm-4.77 9.491c-.915 1.425-1.23 3.165-1.23 4.322 0 .513.755 2.687 6 2.687s6-2.174 6-2.688c0-1.156-.315-2.896-1.23-4.32-.89-1.385-2.352-2.492-4.77-2.492-2.418 0-3.88 1.107-4.77 2.491Z"/></svg>