<svg xmlns="http://www.w3.org/2000/svg" width="32" height="32" viewBox="0 0 32 32"><path d="M3 7a4 4 0 0 1 4-4h13.5a4 4 0 0 1 4 4v3.644c1.201.75 2 2.085 2 3.606a4.24 4.24 0 0 1-1.473 3.217c1.56.574 2.689 1.622 3.464 2.828C29.633 22.071 30 24.163 30 25.562 30 27.553 27.857 30 22.25 30s-7.75-2.448-7.75-4.437c0-.322.02-.68.063-1.063H8.535l-2.2 3.299a1 1 0 1 1-1.663-1.11l1.515-2.272A4 4 0 0 1 3 20.5zm11.989 15.5a9.2 9.2 0 0 1 1.02-2.205c.775-1.206 1.903-2.254 3.464-2.828a4.25 4.25 0 0 1 3.027-7.46V7a2 2 0 0 0-2-2H7a2 2 0 0 0-2 2v13.5a2 2 0 0 0 2 2h7.989M7.47 16.348a1 1 0 0 0 1.378-.318l1.652-2.643 1.652 2.643a1 1 0 0 0 1.696 0l2.5-4a1 1 0 1 0-1.696-1.06L13 13.613 11.35 10.97a1 1 0 0 0-1.696 0l-2.5 4a1 1 0 0 0 .317 1.378M22.25 12a2.25 2.25 0 1 0 0 4.5 2.25 2.25 0 0 0 0-4.5m-4.559 9.377c-.883 1.374-1.191 3.064-1.191 4.186 0 .302.557 2.437 5.75 2.437S28 25.864 28 25.563c0-1.122-.308-2.812-1.191-4.186C25.959 20.056 24.574 19 22.25 19s-3.71 1.056-4.559 2.377"/></svg>