<svg xmlns="http://www.w3.org/2000/svg" width="32" height="32" viewBox="0 0 32 32"><path d="M10 2a1 1 0 0 1 1 1v2h10V3a1 1 0 1 1 2 0v2a5 5 0 0 1 4.997 5v4.589l.296-.296a1 1 0 0 1 1.414 1.414l-2 2a1 1 0 0 1-1.414 0l-2-2a1 1 0 0 1 1.414-1.414l.29.29V10a3 3 0 0 0-3-3h-14a3 3 0 0 0-3 3v3a1 1 0 1 1-2 0v-3a5 5 0 0 1 5-5H9V3a1 1 0 0 1 1-1m5.862 18 2.59-5.78V13h-4.85v1.18h3.32l-2.7 5.82zm-11.57-3.707a1 1 0 0 1 1.415 0l2 2a1 1 0 1 1-1.414 1.414l-.296-.296V24a3 3 0 0 0 3 3h14a3 3 0 0 0 3-3v-3a1 1 0 1 1 2 0v3a5 5 0 0 1-5 5h-14a5 5 0 0 1-5-5v-4.583l-.29.29a1 1 0 0 1-1.414-1.414z"/></svg>