<svg xmlns="http://www.w3.org/2000/svg" width="32" height="32" viewBox="0 0 32 32"><path d="M10 2.5a.5.5 0 0 1 .5.5v2.5h11V3a.5.5 0 0 1 1 0v2.5h.497a4.5 4.5 0 0 1 4.5 4.5v5.796l1.15-1.15a.5.5 0 0 1 .707.708l-2 2a.5.5 0 0 1-.708 0l-2-2a.5.5 0 0 1 .708-.708l1.143 1.144V10a3.5 3.5 0 0 0-3.5-3.5h-14a3.5 3.5 0 0 0-3.5 3.5v3a.5.5 0 0 1-1 0v-3a4.5 4.5 0 0 1 4.5-4.5H9.5V3a.5.5 0 0 1 .5-.5M5.354 16.646a.5.5 0 0 0-.708 0l-2 2a.5.5 0 0 0 .708.708l1.143-1.144V24a4.5 4.5 0 0 0 4.5 4.5h14a4.5 4.5 0 0 0 4.5-4.5v-3a.5.5 0 0 0-1 0v3a3.5 3.5 0 0 1-3.5 3.5h-14a3.5 3.5 0 0 1-3.5-3.5v-5.796l1.15 1.15a.5.5 0 0 0 .707-.708zM15.342 20l2.86-6.14V13h-4.45v.86h3.43L14.252 20z"/></svg>