<svg xmlns="http://www.w3.org/2000/svg" width="32" height="32" viewBox="0 0 32 32"><path d="M10 2.25a.75.75 0 0 1 .75.75v2.25h10.5V3a.75.75 0 0 1 1.5 0v2.25h.247a4.75 4.75 0 0 1 4.75 4.75v5.192l.723-.722a.75.75 0 1 1 1.06 1.06l-2 2a.75.75 0 0 1-1.06 0l-2-2a.75.75 0 1 1 1.06-1.06l.717.716V10a3.25 3.25 0 0 0-3.25-3.25h-14A3.25 3.25 0 0 0 5.747 10v3a.75.75 0 0 1-1.5 0v-3a4.75 4.75 0 0 1 4.75-4.75h.253V3a.75.75 0 0 1 .75-.75M5.53 16.47a.75.75 0 0 0-1.06 0l-2 2a.75.75 0 1 0 1.06 1.06l.717-.716V24a4.75 4.75 0 0 0 4.75 4.75h14a4.75 4.75 0 0 0 4.75-4.75v-3a.75.75 0 0 0-1.5 0v3a3.25 3.25 0 0 1-3.25 3.25h-14A3.25 3.25 0 0 1 5.747 24v-5.192l.723.722a.75.75 0 0 0 1.06-1.06zM15.552 20l2.75-5.99V13h-4.61v.99h3.39L14.242 20z"/></svg>