<svg xmlns="http://www.w3.org/2000/svg" width="32" height="32" viewBox="0 0 32 32"><path d="M12.75 12a7.25 7.25 0 1 1 14.5 0c0 1.923-.842 2.995-1.799 4.02q-.14.15-.288.305c-.876.916-1.913 2.002-1.913 3.675v3c0 1.33-.44 2.38-1.155 3.095S20.33 27.25 19 27.25c-1.318 0-2.26-.434-2.929-1.051-.682-.63-1.12-1.488-1.343-2.38a.75.75 0 1 0-1.456.363c.277 1.107.838 2.248 1.782 3.12.956.882 2.265 1.448 3.946 1.448 1.67 0 3.12-.56 4.155-1.595S24.75 24.67 24.75 23v-3c0-1.043.6-1.68 1.533-2.674l.003-.002.263-.28c1.043-1.12 2.201-2.549 2.201-5.044a8.75 8.75 0 1 0-17.5 0 .75.75 0 0 0 1.5 0M15.75 12.5a3.75 3.75 0 1 1 7.5 0 .75.75 0 0 0 1.5 0 5.25 5.25 0 1 0-10.5 0c0 1.328.265 2.604.86 3.574.615 1.001 1.59 1.676 2.89 1.676.788 0 1.3.282 1.643.754.37.509.607 1.328.607 2.496 0 .404-.106 1.011-.393 1.49-.264.438-.664.76-1.357.76-.705 0-1.127-.337-1.4-.7a2.5 2.5 0 0 1-.372-.732l-.002-.005a.75.75 0 0 0-1.454.369l.724-.181-.724.18v.002l.001.002.001.004.003.01.008.028.026.088a3.97 3.97 0 0 0 .589 1.135c.477.637 1.305 1.3 2.6 1.3 1.307 0 2.157-.678 2.643-1.49.463-.771.607-1.664.607-2.26 0-1.332-.264-2.513-.893-3.379-.657-.903-1.645-1.371-2.857-1.371-.7 0-1.225-.332-1.61-.96-.405-.658-.64-1.633-.64-2.79M3.443 14.997a.75.75 0 0 1 1.06-.054 6.813 6.813 0 0 1 0 10.114.75.75 0 0 1-1.006-1.114 5.31 5.31 0 0 0 0-7.886.75.75 0 0 1-.054-1.06M8.837 13.443a.75.75 0 0 0-1.006 1.114 7.335 7.335 0 0 1 0 10.886.75.75 0 0 0 1.006 1.114 8.834 8.834 0 0 0 0-13.114"/></svg>