<svg xmlns="http://www.w3.org/2000/svg" width="32" height="32" viewBox="0 0 32 32"><path d="M20 5a7 7 0 0 0-7 7 1 1 0 1 1-2 0 9 9 0 1 1 18 0c0 2.59-1.21 4.078-2.268 5.214l-.246.262-.001.001-.001.002C25.528 18.497 25 19.06 25 20v3c0 1.727-.58 3.244-1.668 4.332S20.727 29 19 29c-1.742 0-3.112-.588-4.116-1.515-.987-.911-1.568-2.1-1.854-3.242a1 1 0 1 1 1.94-.485c.214.857.633 1.668 1.27 2.257.622.573 1.502.985 2.76.985 1.273 0 2.256-.42 2.918-1.082S23 24.273 23 23v-3c0-1.78 1.112-2.94 1.982-3.849q.15-.154.287-.301C26.21 14.84 27 13.828 27 12a7 7 0 0 0-7-7M9.004 15.258a1 1 0 0 0-1.34 1.484 7.086 7.086 0 0 1 0 10.516 1 1 0 1 0 1.34 1.484 9.085 9.085 0 0 0 0-13.484m-4.334 1.5a1 1 0 0 0-1.34 1.484 5.063 5.063 0 0 1 0 7.516 1 1 0 0 0 1.34 1.484 7.063 7.063 0 0 0 0-10.484M16 12.5A3.5 3.5 0 0 1 19.5 9l-1.39 7.001L18 16c-.6 0-1.05-.275-1.398-.841-.372-.606-.602-1.53-.602-2.659m2.111 3.501L19.5 9a3.5 3.5 0 0 1 3.5 3.5 1 1 0 1 0 2 0 5.5 5.5 0 1 0-11 0c0 1.357.27 2.682.898 3.705.607.99 1.558 1.692 2.817 1.785l-.747 3.759a1 1 0 0 0-1.938.494L16 22l-.97.242v.005l.002.004.003.012.009.032.03.097A4.224 4.224 0 0 0 15.7 23.6c.51.682 1.406 1.4 2.799 1.4 1.41 0 2.334-.738 2.858-1.61.492-.821.642-1.762.642-2.39 0-1.36-.268-2.6-.941-3.526-.689-.946-1.714-1.445-2.948-1.473m-.394 1.989h-.002L18.11 16h.001zm-.747 3.766.747-3.766q.14.01.283.01c.717 0 1.15.25 1.441.65.327.45.559 1.21.559 2.35 0 .372-.1.931-.358 1.36-.226.378-.551.64-1.142.64-.607 0-.962-.282-1.2-.6a2.2 2.2 0 0 1-.33-.644m-.002-.007.002.007v-.002z"/></svg>