<svg xmlns="http://www.w3.org/2000/svg" width="32" height="32" viewBox="0 0 32 32"><path d="M3.258 16.83a1 1 0 0 1 1.412-.072 7.063 7.063 0 0 1 0 10.484 1 1 0 0 1-1.34-1.484 5.063 5.063 0 0 0 0-7.516 1 1 0 0 1-.072-1.412M7.592 15.33a1 1 0 0 1 1.412-.072 9.085 9.085 0 0 1 0 13.484 1 1 0 0 1-1.34-1.484 7.086 7.086 0 0 0 0-10.516 1 1 0 0 1-.072-1.412M11 12c0-5.059 4.036-9 9-9a9 9 0 0 1 9 9c0 2.59-1.21 4.078-2.268 5.214l-.248.265C25.528 18.497 25 19.06 25 20v3c0 1.727-.58 3.244-1.668 4.332S20.727 29 19 29c-1.569 0-2.99-.252-4.015-1.107-1.07-.89-1.485-2.24-1.485-3.893 0-1.472-.033-2.869-.474-4.774-.184-.792-.483-1.556-.816-2.405q-.169-.426-.344-.89C11.423 14.759 11 13.44 11 12m5 .5a3.5 3.5 0 1 1 7 0 1 1 0 1 0 2 0 5.5 5.5 0 1 0-11 0c0 1.357.27 2.682.898 3.705C15.55 17.268 16.6 18 18 18c.717 0 1.15.25 1.441.65.327.45.559 1.21.559 2.35 0 .372-.1.931-.358 1.36-.226.378-.551.64-1.142.64-.416 0-.695-.13-.899-.288a1 1 0 1 0-1.23 1.576c.533.416 1.24.712 2.129.712 1.41 0 2.334-.738 2.858-1.61.492-.821.642-1.762.642-2.39 0-1.36-.268-2.6-.941-3.526C20.349 16.5 19.283 16 18 16c-.6 0-1.05-.275-1.398-.841-.372-.606-.602-1.53-.602-2.659"/></svg>