<svg xmlns="http://www.w3.org/2000/svg" width="32" height="32" viewBox="0 0 32 32"><path d="M20 4.5a7.5 7.5 0 0 0-7.5 7.5.5.5 0 0 1-1 0 8.5 8.5 0 0 1 17 0c0 2.4-1.105 3.769-2.134 4.873l-.277.295C25.172 18.14 24.5 18.854 24.5 20v3c0 1.614-.54 2.997-1.521 3.979-.982.98-2.365 1.521-3.979 1.521-1.621 0-2.868-.544-3.777-1.383-.9-.83-1.44-1.924-1.708-2.996a.5.5 0 0 1 .97-.242c.232.928.691 1.834 1.417 2.504.716.661 1.719 1.117 3.098 1.117 1.386 0 2.503-.46 3.271-1.229.77-.768 1.229-1.885 1.229-3.271v-3c0-1.566.963-2.577 1.844-3.502q.148-.155.29-.307C26.605 15.15 27.5 14.018 27.5 12A7.5 7.5 0 0 0 20 4.5M8.67 13.629a.5.5 0 0 0-.671.742 7.584 7.584 0 0 1 0 11.258.5.5 0 0 0 .67.742 8.586 8.586 0 0 0 0-12.742M4.335 15.129a.5.5 0 0 0-.67.742 5.563 5.563 0 0 1 0 8.258.5.5 0 1 0 .67.742 6.56 6.56 0 0 0 0-9.742M15.5 12.5a4 4 0 0 1 8 0 .5.5 0 0 0 1 0 5 5 0 0 0-10 0c0 1.3.26 2.525.824 3.444C15.9 16.882 16.8 17.5 18 17.5c.858 0 1.45.313 1.846.857.413.568.654 1.448.654 2.643 0 .436-.113 1.09-.429 1.618-.3.5-.776.882-1.571.882-.804 0-1.293-.391-1.6-.8a2.7 2.7 0 0 1-.413-.814l-.002-.009a.5.5 0 0 0-.97.244l.48-.12-.48.121v.001l.001.003.002.008.007.025.024.08a3.724 3.724 0 0 0 .55 1.061c.444.591 1.205 1.2 2.401 1.2 1.205 0 1.98-.619 2.429-1.368.434-.723.571-1.568.571-2.132 0-1.305-.26-2.425-.846-3.232-.604-.83-1.512-1.268-2.654-1.268-.8 0-1.4-.39-1.824-1.08-.436-.71-.676-1.734-.676-2.92M16 22l.485-.121z"/></svg>