<svg xmlns="http://www.w3.org/2000/svg" width="32" height="32" viewBox="0 0 32 32"><path d="M19.001 14.445h2.424a.5.5 0 0 0 .354-.146l7.084-7.085a2.214 2.214 0 0 0-3.13-3.131l-7.085 7.07a.5.5 0 0 0-.147.353v2.44a.5.5 0 0 0 .5.5m.5-2.732L26.44 4.79a1.214 1.214 0 0 1 1.718 1.717l-6.939 6.938h-1.717zM29 14.5a.5.5 0 0 0-.5.5v9a3.504 3.504 0 0 1-3.5 3.5H7A3.504 3.504 0 0 1 3.5 24V12A3.504 3.504 0 0 1 7 8.5h9a.5.5 0 0 0 0-1H7A4.505 4.505 0 0 0 2.5 12v12A4.505 4.505 0 0 0 7 28.5h18a4.504 4.504 0 0 0 4.5-4.5v-9a.5.5 0 0 0-.5-.5"/></svg>