<svg xmlns="http://www.w3.org/2000/svg" width="32" height="32" viewBox="0 0 32 32"><path d="M26 27.25H6a.75.75 0 1 0 0 1.5h20a.75.75 0 1 0 0-1.5ZM7.003 24.747l3.584.003a1.758 1.758 0 0 0 1.237-.513l13.68-13.68a4.286 4.286 0 1 0-6.06-6.06L5.762 18.177a1.744 1.744 0 0 0-.511 1.239l.003 3.582a1.752 1.752 0 0 0 1.749 1.749Zm13.5-19.19a2.786 2.786 0 0 1 3.94 3.94l-.855.855a9.529 9.529 0 0 1-5.51-2.368l2.425-2.427Zm-13.68 13.68L17.016 9.044a11.128 11.128 0 0 0 5.248 2.632l-11.502 11.5a.247.247 0 0 1-.175.074l-3.583-.003a.25.25 0 0 1-.25-.25l-.003-3.582c0-.067.026-.13.072-.178Z"/></svg>