<svg xmlns="http://www.w3.org/2000/svg" width="32" height="32" viewBox="0 0 32 32"><path d="M26 27H6a1 1 0 0 0 0 2h20a1 1 0 0 0 0-2ZM17.753 7.347a9.138 9.138 0 0 0 5.984 2.64c.635.047 1.272.06 1.909.041a4.065 4.065 0 0 0-3.231-6.53h-.007a4.018 4.018 0 0 0-2.862 1.18l-2.213 2.225c.135.152.277.304.42.444ZM23.59 11.982a11.087 11.087 0 0 1-7.245-3.215 12.747 12.747 0 0 1-.428-.44L5.94 18.351c-.281.282-.44.664-.44 1.063v3.58A1.506 1.506 0 0 0 7 24.5h3.586c.398-.002.779-.16 1.061-.439l12.097-12.068-.153-.01Z"/></svg>