<svg xmlns="http://www.w3.org/2000/svg" width="32" height="32" viewBox="0 0 32 32"><path d="M26 27.5H6a.5.5 0 0 0 0 1h20a.5.5 0 0 0 0-1M7.003 24.497l3.584.003c.398-.001.779-.16 1.06-.44l13.68-13.68a4.035 4.035 0 0 0-5.707-5.707L5.94 18.353a1.5 1.5 0 0 0-.439 1.063l.004 3.582a1.5 1.5 0 0 0 1.5 1.499M20.327 5.38a3.036 3.036 0 1 1 4.293 4.293l-.94.94a9.8 9.8 0 0 1-5.964-2.622zM6.647 19.06 17.009 8.698a10.87 10.87 0 0 0 5.766 2.82L10.94 23.354a.5.5 0 0 1-.352.146l-3.584-.003a.5.5 0 0 1-.499-.5l-.003-3.582c0-.133.053-.26.146-.355"/></svg>