<svg xmlns="http://www.w3.org/2000/svg" width="32" height="32" fill="none" viewBox="0 0 32 32"><path d="M27.288 4.712a4.993 4.993 0 0 0-7.06 0L3.762 21.177a1.736 1.736 0 0 0-.513 1.237V27A1.752 1.752 0 0 0 5 28.75h4.586a1.735 1.735 0 0 0 1.237-.513l16.465-16.464a5 5 0 0 0 0-7.06Zm-1.06 6L9.762 27.177a.249.249 0 0 1-.177.073H5a.25.25 0 0 1-.25-.25v-4.586a.25.25 0 0 1 .073-.177L21.288 5.773a3.493 3.493 0 0 1 4.94 4.94Z"/><path fill-rule="evenodd" d="M24.707 7.293a1 1 0 0 1 0 1.414l-16 16a1 1 0 0 1-1.414-1.414l16-16a1 1 0 0 1 1.414 0Z" clip-rule="evenodd"/></svg>