<svg xmlns="http://www.w3.org/2000/svg" width="32" height="32" viewBox="0 0 32 32"><path d="M19.001 14.695h2.424a.75.75 0 0 0 .53-.22l7.085-7.084a2.464 2.464 0 0 0-3.484-3.486l-7.085 7.07a.75.75 0 0 0-.22.53v2.44a.75.75 0 0 0 .75.75m.75-2.878 6.865-6.85A.964.964 0 0 1 27.98 6.33l-6.865 6.865H19.75zM29 14.25a.75.75 0 0 0-.75.75v9A3.254 3.254 0 0 1 25 27.25H7A3.254 3.254 0 0 1 3.75 24V12A3.254 3.254 0 0 1 7 8.75h9a.75.75 0 1 0 0-1.5H7A4.755 4.755 0 0 0 2.25 12v12A4.756 4.756 0 0 0 7 28.75h18A4.755 4.755 0 0 0 29.75 24v-9a.75.75 0 0 0-.75-.75"/></svg>