<svg xmlns="http://www.w3.org/2000/svg" width="32" height="32" viewBox="0 0 32 32"><path d="M16.434 7.555a2.75 2.75 0 0 0 0 3.89l4.242 4.242a2.75 2.75 0 0 0 3.89 0l4.242-4.242a2.75 2.75 0 0 0 0-3.89l-4.243-4.242a2.75 2.75 0 0 0-3.889 0zm1.06 2.829a1.25 1.25 0 0 1 0-1.768l4.243-4.243a1.25 1.25 0 0 1 1.768 0l4.242 4.243a1.25 1.25 0 0 1 0 1.768l-4.242 4.243a1.25 1.25 0 0 1-1.768 0zM5.25 3.5A2.75 2.75 0 0 0 2.5 6.25v6A2.75 2.75 0 0 0 5.25 15h6A2.75 2.75 0 0 0 14 12.25v-6a2.75 2.75 0 0 0-2.75-2.75zM4 6.25C4 5.56 4.56 5 5.25 5h6c.69 0 1.25.56 1.25 1.25v6c0 .69-.56 1.25-1.25 1.25h-6c-.69 0-1.25-.56-1.25-1.25zM5.25 18a2.75 2.75 0 0 0-2.75 2.75v6a2.75 2.75 0 0 0 2.75 2.75h6A2.75 2.75 0 0 0 14 26.75v-6A2.75 2.75 0 0 0 11.25 18zM4 20.75c0-.69.56-1.25 1.25-1.25h6c.69 0 1.25.56 1.25 1.25v6c0 .69-.56 1.25-1.25 1.25h-6C4.56 28 4 27.44 4 26.75zm13.5 0A2.75 2.75 0 0 1 20.25 18h6A2.75 2.75 0 0 1 29 20.75v6a2.75 2.75 0 0 1-2.75 2.75h-6a2.75 2.75 0 0 1-2.75-2.75zm2.75-1.25c-.69 0-1.25.56-1.25 1.25v6c0 .69.56 1.25 1.25 1.25h6c.69 0 1.25-.56 1.25-1.25v-6c0-.69-.56-1.25-1.25-1.25z"/></svg>