<svg xmlns="http://www.w3.org/2000/svg" width="32" height="32" viewBox="0 0 32 32"><path d="M16.387 7.129a3 3 0 0 0 0 4.242l4.243 4.243a3 3 0 0 0 4.243 0l4.242-4.243a3 3 0 0 0 0-4.242l-4.242-4.243a3 3 0 0 0-4.243 0zm1.415 2.828a1 1 0 0 1 0-1.414L22.044 4.3a1 1 0 0 1 1.414 0l4.243 4.243a1 1 0 0 1 0 1.414L23.458 14.2a1 1 0 0 1-1.414 0zM5 3a3 3 0 0 0-3 3v6a3 3 0 0 0 3 3h6a3 3 0 0 0 3-3V6a3 3 0 0 0-3-3zM4 6a1 1 0 0 1 1-1h6a1 1 0 0 1 1 1v6a1 1 0 0 1-1 1H5a1 1 0 0 1-1-1zM5 18a3 3 0 0 0-3 3v6a3 3 0 0 0 3 3h6a3 3 0 0 0 3-3v-6a3 3 0 0 0-3-3zm-1 3a1 1 0 0 1 1-1h6a1 1 0 0 1 1 1v6a1 1 0 0 1-1 1H5a1 1 0 0 1-1-1zM17 21a3 3 0 0 1 3-3h6a3 3 0 0 1 3 3v6a3 3 0 0 1-3 3h-6a3 3 0 0 1-3-3zm3-1a1 1 0 0 0-1 1v6a1 1 0 0 0 1 1h6a1 1 0 0 0 1-1v-6a1 1 0 0 0-1-1z"/></svg>