<svg xmlns="http://www.w3.org/2000/svg" width="32" height="32" viewBox="0 0 32 32"><path d="M2.5 6.5A2.5 2.5 0 0 1 5 4h6a2.5 2.5 0 0 1 2.5 2.5v6A2.5 2.5 0 0 1 11 15H5a2.5 2.5 0 0 1-2.5-2.5zM5 5a1.5 1.5 0 0 0-1.5 1.5v6A1.5 1.5 0 0 0 5 14h6a1.5 1.5 0 0 0 1.5-1.5v-6A1.5 1.5 0 0 0 11 5zM2.5 21A2.5 2.5 0 0 1 5 18.5h6a2.5 2.5 0 0 1 2.5 2.5v6a2.5 2.5 0 0 1-2.5 2.5H5A2.5 2.5 0 0 1 2.5 27zM5 19.5A1.5 1.5 0 0 0 3.5 21v6A1.5 1.5 0 0 0 5 28.5h6a1.5 1.5 0 0 0 1.5-1.5v-6a1.5 1.5 0 0 0-1.5-1.5zM17.5 21a2.5 2.5 0 0 1 2.5-2.5h6a2.5 2.5 0 0 1 2.5 2.5v6a2.5 2.5 0 0 1-2.5 2.5h-6a2.5 2.5 0 0 1-2.5-2.5zm2.5-1.5a1.5 1.5 0 0 0-1.5 1.5v6a1.5 1.5 0 0 0 1.5 1.5h6a1.5 1.5 0 0 0 1.5-1.5v-6a1.5 1.5 0 0 0-1.5-1.5zM16.56 11.518a2.5 2.5 0 0 1 0-3.536l4.243-4.242a2.5 2.5 0 0 1 3.536 0l4.243 4.242a2.5 2.5 0 0 1 0 3.536l-4.243 4.242a2.5 2.5 0 0 1-3.536 0zm.708-2.829a1.5 1.5 0 0 0 0 2.122l4.242 4.242a1.5 1.5 0 0 0 2.122 0l4.242-4.242a1.5 1.5 0 0 0 0-2.122l-4.242-4.242a1.5 1.5 0 0 0-2.122 0z"/></svg>