<svg xmlns="http://www.w3.org/2000/svg" width="32" height="32" viewBox="0 0 32 32"><path d="M15.298 23.808a1 1 0 1 0 1.414 1.414 1 1 0 0 0-1.414-1.414ZM11.952 20.136a.5.5 0 1 0 .7.715 4.82 4.82 0 0 1 6.697 0 .5.5 0 0 0 .699-.715 5.825 5.825 0 0 0-8.096 0ZM16 6.509c4.609 0 9.037 1.79 12.35 4.995a.5.5 0 0 1-.7.715 16.757 16.757 0 0 0-23.3 0 .5.5 0 1 1-.7-.715A17.764 17.764 0 0 1 16 6.509Z"/><path d="M7.599 16.02a.5.5 0 0 1 .112-.162 11.926 11.926 0 0 1 16.578 0 .5.5 0 1 1-.7.715 10.92 10.92 0 0 0-15.179 0 .499.499 0 0 1-.853-.362.5.5 0 0 1 .042-.192Z"/></svg>