<svg xmlns="http://www.w3.org/2000/svg" width="32" height="32" viewBox="0 0 32 32"><path d="m29.519 12.135-4.987-9.003-.009-.014a1.75 1.75 0 0 0-3.03.012l-5.005 8.99A1.75 1.75 0 0 0 18 14.754h9.998a1.75 1.75 0 0 0 1.52-2.618Zm-1.304.992a.24.24 0 0 1-.217.125H18a.242.242 0 0 1-.217-.126.249.249 0 0 1 .008-.262l5.005-8.99a.25.25 0 0 1 .43-.005l4.989 9.008a.24.24 0 0 1 0 .25Z"/><path d="M23 9.503a.75.75 0 0 0 .75-.75v-1.31a.75.75 0 1 0-1.5 0v1.31a.75.75 0 0 0 .75.75ZM23 12.002a.75.75 0 1 0 0-1.5.75.75 0 0 0 0 1.5ZM15.121 23.631a1.25 1.25 0 1 0 1.767 1.768 1.25 1.25 0 0 0-1.767-1.768ZM11.777 19.958a.75.75 0 1 0 1.05 1.072 4.566 4.566 0 0 1 6.347 0 .751.751 0 0 0 1.217-.83.749.749 0 0 0-.168-.242 6.074 6.074 0 0 0-8.446 0ZM13.982 13.153a.754.754 0 0 0-.907-.55c-2.088.512-4 1.574-5.539 3.076a.75.75 0 1 0 1.049 1.072 10.515 10.515 0 0 1 4.848-2.69.75.75 0 0 0 .55-.908ZM16.252 7.752a.75.75 0 1 0 .01-1.5 17.85 17.85 0 0 0-12.781 5.073.75.75 0 1 0 1.048 1.072A16.286 16.286 0 0 1 16 7.75c.085 0 .185-.004.253.002Z"/></svg>