<svg xmlns="http://www.w3.org/2000/svg" width="32" height="32" fill="none" viewBox="0 0 32 32"><path d="M15.121 23.631A1.25 1.25 0 1 0 16.89 25.4a1.25 1.25 0 0 0-1.769-1.768ZM11.777 19.958a.751.751 0 1 0 1.05 1.072 4.567 4.567 0 0 1 6.347 0 .75.75 0 0 0 1.049-1.072 6.074 6.074 0 0 0-8.446 0ZM7.536 15.68a.75.75 0 1 0 1.049 1.072 10.668 10.668 0 0 1 14.83 0 .75.75 0 0 0 1.049-1.073 12.178 12.178 0 0 0-16.928 0Z"/><path d="M28.525 11.325a18.017 18.017 0 0 0-25.05 0 .75.75 0 0 0 1.05 1.072 16.509 16.509 0 0 1 22.95 0 .75.75 0 0 0 1.05-1.072Z"/></svg>