<svg xmlns="http://www.w3.org/2000/svg" width="32" height="32" viewBox="0 0 32 32"><path d="M15.121 23.631a1.25 1.25 0 1 0 1.77 1.769 1.25 1.25 0 0 0-1.77-1.769ZM28.525 11.325a18.017 18.017 0 0 0-25.05 0 .75.75 0 0 0 1.05 1.072 16.509 16.509 0 0 1 22.95 0 .75.75 0 0 0 1.05-1.072Z"/><path d="M7.536 15.68a.75.75 0 1 0 1.049 1.072 10.668 10.668 0 0 1 14.83 0 .75.75 0 0 0 1.049-1.072 12.178 12.178 0 0 0-16.928 0ZM11.61 20.2a.751.751 0 0 1 .167-.242 6.074 6.074 0 0 1 8.446 0 .75.75 0 0 1-1.05 1.072 4.567 4.567 0 0 0-6.347 0 .752.752 0 0 1-1.226-.253.749.749 0 0 1 .01-.577Z"/></svg>