<svg xmlns="http://www.w3.org/2000/svg" width="32" height="32" fill="none" viewBox="0 0 32 32"><path d="M15.298 23.808a1 1 0 1 0 1.415 1.414 1 1 0 0 0-1.415-1.414ZM28.35 11.504a17.764 17.764 0 0 0-24.7 0 .501.501 0 1 0 .7.715 16.758 16.758 0 0 1 23.3 0 .5.5 0 0 0 .7-.715Z"/><path d="M7.711 15.858a.5.5 0 1 0 .7.715 10.92 10.92 0 0 1 15.179 0 .501.501 0 0 0 .7-.715 11.926 11.926 0 0 0-16.579 0ZM11.84 20.297a.5.5 0 0 1 .112-.16 5.825 5.825 0 0 1 8.096 0 .5.5 0 0 1-.7.714 4.82 4.82 0 0 0-6.697 0 .5.5 0 0 1-.811-.554Z"/></svg>