<svg xmlns="http://www.w3.org/2000/svg" width="32" height="32" viewBox="0 0 32 32"><path d="M15.121 23.631A1.25 1.25 0 1 0 16.89 25.4a1.25 1.25 0 0 0-1.768-1.768ZM11.777 19.958a.752.752 0 0 0 .227 1.23.748.748 0 0 0 .822-.158 4.567 4.567 0 0 1 6.348 0 .75.75 0 0 0 1.049-1.072 6.074 6.074 0 0 0-8.446 0ZM16 6.26c4.674 0 9.165 1.816 12.525 5.065a.75.75 0 0 1-1.05 1.072 16.509 16.509 0 0 0-22.95 0 .75.75 0 0 1-1.05-1.072A18.016 18.016 0 0 1 16 6.26Z"/><path d="M7.368 15.921a.75.75 0 0 1 .168-.241 12.178 12.178 0 0 1 16.928 0 .75.75 0 0 1-1.049 1.072 10.667 10.667 0 0 0-14.83 0 .752.752 0 0 1-1.28-.543.75.75 0 0 1 .063-.288Z"/></svg>