<svg xmlns="http://www.w3.org/2000/svg" width="32" height="32" fill="none" viewBox="0 0 32 32"><path d="M16.005 26.015a1.5 1.5 0 1 0 0-3 1.5 1.5 0 0 0 0 3ZM11.603 19.779A.999.999 0 1 0 13 21.209a4.314 4.314 0 0 1 5.998 0 1 1 0 0 0 1.399-1.43 6.324 6.324 0 0 0-8.795 0ZM16 6.01a18.27 18.27 0 0 1 12.7 5.136 1 1 0 0 1-1.4 1.43 16.257 16.257 0 0 0-22.6 0 1 1 0 1 1-1.4-1.43A18.27 18.27 0 0 1 16 6.01Z"/><path d="M7.137 15.823a1 1 0 0 1 .224-.322 12.427 12.427 0 0 1 17.278 0 1 1 0 0 1-1.399 1.43 10.419 10.419 0 0 0-14.48 0 1.002 1.002 0 0 1-1.635-.339 1 1 0 0 1 .012-.77Z"/></svg>