<svg xmlns="http://www.w3.org/2000/svg" width="32" height="32" viewBox="0 0 32 32"><path d="m29.3 12.256-4.986-9.003-.006-.01a1.5 1.5 0 0 0-2.596.01l-5.008 8.994A1.5 1.5 0 0 0 18 14.502h9.998a1.5 1.5 0 0 0 1.302-2.246m-.868.995a.49.49 0 0 1-.434.252H18a.49.49 0 0 1-.433-.252.5.5 0 0 1 .005-.51l5.008-8.993a.5.5 0 0 1 .862-.004l4.989 9.007a.49.49 0 0 1 0 .5M23 9.253a.5.5 0 0 0 .5-.5v-1.31a.5.5 0 0 0-1 0v1.31a.5.5 0 0 0 .5.5M23 11.752a.5.5 0 1 0 0-1 .5.5 0 0 0 0 1M15.298 23.808a1 1 0 1 0 1.414 1.414 1 1 0 0 0-1.414-1.414M11.952 20.136a.502.502 0 0 0 .15.822.5.5 0 0 0 .55-.107 4.82 4.82 0 0 1 6.697 0 .5.5 0 0 0 .699-.715 5.825 5.825 0 0 0-8.096 0M13.74 13.213a.5.5 0 0 0-.605-.367c-2.045.501-3.918 1.541-5.424 3.012a.5.5 0 1 0 .7.715 10.8 10.8 0 0 1 4.962-2.756.5.5 0 0 0 .366-.604M16.252 7.502a.5.5 0 0 0 .007-1l-.26-.002a17.53 17.53 0 0 0-12.344 5.004.5.5 0 1 0 .7.714A16.53 16.53 0 0 1 15.999 7.5q.127-.015.253.002"/></svg>