<svg xmlns="http://www.w3.org/2000/svg" width="32" height="32" fill="none" viewBox="0 0 32 32"><path d="M16.005 26.015a1.5 1.5 0 1 0 0-3 1.5 1.5 0 0 0 0 3ZM28.7 11.146a18.27 18.27 0 0 0-25.4 0 1 1 0 1 0 1.4 1.43 16.257 16.257 0 0 1 22.6 0 1 1 0 0 0 1.4-1.43Z"/><path d="M7.361 15.5a1 1 0 1 0 1.399 1.43 10.419 10.419 0 0 1 14.48 0 1 1 0 0 0 1.399-1.43 12.427 12.427 0 0 0-17.278 0ZM11.378 20.101a.999.999 0 0 1 .225-.322 6.324 6.324 0 0 1 8.795 0 1 1 0 0 1-1.399 1.43 4.315 4.315 0 0 0-5.998 0 .999.999 0 0 1-1.623-1.108Z"/></svg>