<svg xmlns="http://www.w3.org/2000/svg" width="32" height="32" fill="none" viewBox="0 0 32 32"><path d="M15.298 23.808a1 1 0 1 0 1.414 1.414 1 1 0 0 0-1.414-1.414ZM11.952 20.136a.498.498 0 0 0-.011.711.502.502 0 0 0 .71.004 4.82 4.82 0 0 1 6.698 0 .501.501 0 0 0 .699-.715 5.825 5.825 0 0 0-8.096 0ZM7.711 15.858a.5.5 0 1 0 .7.715 10.92 10.92 0 0 1 15.179 0 .501.501 0 0 0 .7-.715 11.926 11.926 0 0 0-16.579 0Z"/><path d="M28.35 11.504a17.764 17.764 0 0 0-24.7 0 .501.501 0 1 0 .7.715 16.758 16.758 0 0 1 23.3 0 .5.5 0 0 0 .7-.715Z"/></svg>