<svg xmlns="http://www.w3.org/2000/svg" width="32" height="32" viewBox="0 0 32 32"><path d="M16.005 26.015a1.5 1.5 0 1 0 0-3 1.5 1.5 0 0 0 0 3M11.603 19.779A1 1 0 1 0 13 21.209a4.314 4.314 0 0 1 5.998 0 1 1 0 0 0 1.399-1.43 6.325 6.325 0 0 0-8.795 0M14.226 13.093a1.004 1.004 0 0 0-1.21-.733A12.3 12.3 0 0 0 7.36 15.5a1 1 0 1 0 1.399 1.43 10.27 10.27 0 0 1 4.732-2.627 1 1 0 0 0 .734-1.21M16.252 8.002a1 1 0 0 0 .014-2L15.998 6a18.03 18.03 0 0 0-12.692 5.146.999.999 0 0 0 .686 1.722 1 1 0 0 0 .712-.292A16.04 16.04 0 0 1 16 8c.083 0 .149.005.253.002M29.737 12.014l-4.986-9.003-.012-.02a2 2 0 0 0-3.464.018l-5.002 8.986A2 2 0 0 0 18 15.003h9.998a2 2 0 0 0 1.74-2.989m-11.727.97 5-8.988 4.988 9.006zM22.25 7.444v1.309a.75.75 0 1 0 1.5 0v-1.31a.75.75 0 0 0-1.5 0M23 12.002a.75.75 0 1 0 0-1.5.75.75 0 0 0 0 1.5"/></svg>