<svg xmlns="http://www.w3.org/2000/svg" width="32" height="32" viewBox="0 0 32 32"><path d="M15.121 23.631A1.25 1.25 0 1 0 16.89 25.4a1.25 1.25 0 0 0-1.768-1.768M11.778 19.958a.75.75 0 1 0 1.048 1.072 4.567 4.567 0 0 1 6.348 0 .75.75 0 0 0 1.049-1.072 6.074 6.074 0 0 0-8.445 0M7.536 15.68a.75.75 0 1 0 1.05 1.072 10.67 10.67 0 0 1 14.83 0 .75.75 0 0 0 1.048-1.073 12.18 12.18 0 0 0-16.928 0M28.525 11.325a18.016 18.016 0 0 0-25.05 0 .75.75 0 0 0 1.05 1.072 16.51 16.51 0 0 1 22.95 0 .75.75 0 0 0 1.05-1.072"/></svg>