<svg xmlns="http://www.w3.org/2000/svg" width="32" height="32" viewBox="0 0 32 32"><path d="M13.5 5.5A.5.5 0 0 1 14 5h4a.5.5 0 0 1 .5.5v4a.5.5 0 0 1-.5.5h-4a.5.5 0 0 1-.5-.5zm3 5.5H18a1.5 1.5 0 0 0 1.5-1.5v-4A1.5 1.5 0 0 0 18 4h-4a1.5 1.5 0 0 0-1.5 1.5v4A1.5 1.5 0 0 0 14 11h1.5v5H3a.5.5 0 0 0 0 1h2.5v4H4a1.5 1.5 0 0 0-1.5 1.5v4A1.5 1.5 0 0 0 4 28h4a1.5 1.5 0 0 0 1.5-1.5v-4A1.5 1.5 0 0 0 8 21H6.5v-4h9v4H14a1.5 1.5 0 0 0-1.5 1.5v4A1.5 1.5 0 0 0 14 28h4a1.5 1.5 0 0 0 1.5-1.5v-4A1.5 1.5 0 0 0 18 21h-1.5v-4h9v4H24a1.5 1.5 0 0 0-1.5 1.5v4A1.5 1.5 0 0 0 24 28h4a1.5 1.5 0 0 0 1.5-1.5v-4A1.5 1.5 0 0 0 28 21h-1.5v-4H29a.5.5 0 0 0 0-1H16.5zM24 22h4a.5.5 0 0 1 .5.5v4a.5.5 0 0 1-.5.5h-4a.5.5 0 0 1-.5-.5v-4a.5.5 0 0 1 .5-.5m-10 0h4a.5.5 0 0 1 .5.5v4a.5.5 0 0 1-.5.5h-4a.5.5 0 0 1-.5-.5v-4a.5.5 0 0 1 .5-.5M4 22h4a.5.5 0 0 1 .5.5v4a.5.5 0 0 1-.5.5H4a.5.5 0 0 1-.5-.5v-4A.5.5 0 0 1 4 22"/></svg>