<svg xmlns="http://www.w3.org/2000/svg" width="32" height="32" viewBox="0 0 32 32"><path d="M26 8.5h-5.5V6a1.5 1.5 0 0 0-1.498-1.5L13 4.493h-.003a1.5 1.5 0 0 0-1.499 1.5V8.5H6A3.504 3.504 0 0 0 2.5 12v12A3.504 3.504 0 0 0 6 27.5h20a3.504 3.504 0 0 0 3.5-3.5V12A3.504 3.504 0 0 0 26 8.5M12.499 5.993a.5.5 0 0 1 .5-.5H13l6.001.007a.5.5 0 0 1 .499.5v2.5h-7.001zM6 9.5h20a2.5 2.5 0 0 1 2.5 2.5v6.5h-25V12A2.5 2.5 0 0 1 6 9.5m20 17H6A2.5 2.5 0 0 1 3.5 24v-4.5h6V21a.5.5 0 0 0 1 0v-1.5h11V21a.5.5 0 0 0 1 0v-1.5h6V24a2.5 2.5 0 0 1-2.5 2.5"/></svg>