<svg xmlns="http://www.w3.org/2000/svg" width="32" height="32" viewBox="0 0 32 32"><path d="M13.75 5.5a.25.25 0 0 1 .25-.25h4a.25.25 0 0 1 .25.25v4a.25.25 0 0 1-.25.25h-4a.25.25 0 0 1-.25-.25zm3 5.75H18a1.75 1.75 0 0 0 1.75-1.75v-4A1.75 1.75 0 0 0 18 3.75h-4a1.75 1.75 0 0 0-1.75 1.75v4c0 .966.784 1.75 1.75 1.75h1.25v4.5H3a.75.75 0 0 0 0 1.5h2.25v3.5H4a1.75 1.75 0 0 0-1.75 1.75v4c0 .966.784 1.75 1.75 1.75h4a1.75 1.75 0 0 0 1.75-1.75v-4A1.75 1.75 0 0 0 8 20.75H6.75v-3.5h8.5v3.5H14a1.75 1.75 0 0 0-1.75 1.75v4c0 .966.784 1.75 1.75 1.75h4a1.75 1.75 0 0 0 1.75-1.75v-4A1.75 1.75 0 0 0 18 20.75h-1.25v-3.5h8.5v3.5H24a1.75 1.75 0 0 0-1.75 1.75v4c0 .966.784 1.75 1.75 1.75h4a1.75 1.75 0 0 0 1.75-1.75v-4A1.75 1.75 0 0 0 28 20.75h-1.25v-3.5H29a.75.75 0 0 0 0-1.5H16.75zm7.25 11h4a.25.25 0 0 1 .25.25v4a.25.25 0 0 1-.25.25h-4a.25.25 0 0 1-.25-.25v-4a.25.25 0 0 1 .25-.25m-10 0h4a.25.25 0 0 1 .25.25v4a.25.25 0 0 1-.25.25h-4a.25.25 0 0 1-.25-.25v-4a.25.25 0 0 1 .25-.25m-10 0h4a.25.25 0 0 1 .25.25v4a.25.25 0 0 1-.25.25H4a.25.25 0 0 1-.25-.25v-4a.25.25 0 0 1 .25-.25"/></svg>