<svg xmlns="http://www.w3.org/2000/svg" width="32" height="32" viewBox="0 0 32 32"><path d="M26 8.25h-5.25V6a1.75 1.75 0 0 0-1.748-1.75L13 4.243h-.003a1.75 1.75 0 0 0-1.749 1.75V8.25H6A3.755 3.755 0 0 0 2.25 12v12A3.755 3.755 0 0 0 6 27.75h20A3.754 3.754 0 0 0 29.75 24V12A3.755 3.755 0 0 0 26 8.25M12.749 5.993a.25.25 0 0 1 .25-.25l6.002.007a.25.25 0 0 1 .249.25v2.25h-6.501zM6 9.75h20A2.253 2.253 0 0 1 28.25 12v6.25H3.75V12A2.253 2.253 0 0 1 6 9.75m20 16.5H6A2.253 2.253 0 0 1 3.75 24v-4.25h5.5V21a.75.75 0 1 0 1.5 0v-1.25h10.5V21a.75.75 0 1 0 1.5 0v-1.25h5.5V24A2.253 2.253 0 0 1 26 26.25"/></svg>