<svg xmlns="http://www.w3.org/2000/svg" width="32" height="32" fill="none" viewBox="0 0 32 32"><path fill="url(#a)" d="M2 11.333A9.333 9.333 0 0 1 11.333 2h9.334A9.333 9.333 0 0 1 30 11.333v9.334A9.333 9.333 0 0 1 20.667 30h-9.334A9.333 9.333 0 0 1 2 20.667z"/><path fill="#fff" d="M8.23 12.733c0-.58.47-1.05 1.05-1.05h7.376a2.736 2.736 0 0 1 2.735 2.736v4.784c0 .622-.504 1.126-1.126 1.126h-7.3a2.736 2.736 0 0 1-2.735-2.735zM20.022 14.82c0-.434.195-.846.532-1.121l2.19-1.788a.644.644 0 0 1 1.05.499v7.23a.644.644 0 0 1-1.056.495L20.542 18.3a1.45 1.45 0 0 1-.52-1.112z"/><defs><linearGradient id="a" x1="16" x2="16" y1="2" y2="30" gradientUnits="userSpaceOnUse"><stop stop-color="#57A3FF"/><stop offset="1" stop-color="#3D83FB"/></linearGradient></defs></svg>