<svg xmlns="http://www.w3.org/2000/svg" width="33" height="33" fill="none" viewBox="0 0 33 33"><path fill="url(#a)" d="M2.807 12.103A9.333 9.333 0 0 1 12.14 2.77h9.333a9.333 9.333 0 0 1 9.334 9.333v9.334a9.333 9.333 0 0 1-9.334 9.333H12.14a9.333 9.333 0 0 1-9.333-9.333z"/><path fill="#fff" d="M9.037 13.503c0-.58.47-1.05 1.05-1.05h7.376a2.736 2.736 0 0 1 2.736 2.736v4.784c0 .622-.505 1.126-1.127 1.126h-7.3a2.736 2.736 0 0 1-2.735-2.735zM20.828 15.59c0-.434.196-.846.532-1.121l2.19-1.788a.644.644 0 0 1 1.051.499v7.23a.644.644 0 0 1-1.056.495l-2.197-1.834a1.45 1.45 0 0 1-.52-1.112z"/><defs><linearGradient id="a" x1="16.807" x2="16.807" y1="2.77" y2="30.77" gradientUnits="userSpaceOnUse"><stop stop-color="#57A3FF"/><stop offset="1" stop-color="#3D83FB"/></linearGradient></defs></svg>