<svg xmlns="http://www.w3.org/2000/svg" width="32" height="32" fill="none" viewBox="0 0 32 32"><path fill="url(#a)" d="M3 11.667A8.667 8.667 0 0 1 11.667 3h8.666A8.667 8.667 0 0 1 29 11.667v8.666A8.667 8.667 0 0 1 20.333 29h-8.666A8.667 8.667 0 0 1 3 20.333v-8.666Z"/><path fill="#fff" d="M8.785 12.966c0-.538.436-.974.975-.974h6.849a2.54 2.54 0 0 1 2.54 2.54v4.442c0 .578-.468 1.046-1.046 1.046h-6.778a2.54 2.54 0 0 1-2.54-2.54v-4.514ZM19.735 14.905c0-.404.181-.787.494-1.042l2.033-1.66a.598.598 0 0 1 .976.463v6.715a.598.598 0 0 1-.98.459l-2.04-1.703a1.345 1.345 0 0 1-.483-1.033v-2.2Z"/><defs><linearGradient id="a" x1="16" x2="16" y1="3" y2="29" gradientUnits="userSpaceOnUse"><stop stop-color="#57A3FF"/><stop offset="1" stop-color="#3D83FB"/></linearGradient></defs></svg>